<?xml version="1.0" standalone="no"?>
<!DOCTYPE svg PUBLIC "-//W3C//DTD SVG 1.1//EN"
"http://www.w3.org/Graphics/SVG/1.1/DTD/svg11.dtd">
<!-- Creator: fig2dev Version 3.2 Patchlevel 5d -->
<!-- CreationDate: Wed Nov 26 15:37:07 2014 -->
<!-- Magnification: 1.050 -->
<svg	xmlns="http://www.w3.org/2000/svg"
	xmlns:xlink="http://www.w3.org/1999/xlink"
	viewBox="-23 -23 6140 3872">
<g style="stroke-width:.025in; fill:none">
<!-- Text -->
<text xml:space="preserve" x="5102" y="283" fill="#000000"  font-family="Helvetica" font-style="normal" font-weight="normal" font-size="177" text-anchor="end">John Drewry, Greenburn III</text>
<!-- Text -->
<text xml:space="preserve" x="4582" y="1039" fill="#000000"  font-family="Helvetica" font-style="normal" font-weight="bold" font-size="227" text-anchor="middle">T</text>
<!-- Line -->
<polyline points="5527,1322
5528,1321
5531,1319
5535,1315
5541,1309
5546,1300
5551,1291
5555,1278
5560,1262
5562,1245
5565,1223
5567,1196
5567,1179
5568,1159
5569,1137
5570,1113
5570,1088
5571,1061
5571,1034
5572,1004
5572,975
5572,944
5572,914
5572,885
5571,855
5571,828
5570,801
5570,775
5569,752
5568,730
5567,710
5567,692
5565,666
5562,644
5560,626
5555,611
5551,598
5546,588
5541,580
5535,574
5531,570
5528,567
5527,566
" style="stroke:#000000;stroke-width:16;
stroke-linejoin:bevel; stroke-linecap:butt;
"/>
<!-- Line -->
<polyline points="5055,566
5054,567
5050,570
5046,574
5041,580
5036,588
5030,598
5026,611
5022,626
5020,644
5017,666
5016,692
5015,710
5014,730
5013,752
5012,775
5012,801
5011,828
5011,855
5009,885
5009,914
5009,944
5009,975
5009,1004
5011,1034
5011,1061
5012,1088
5012,1113
5013,1137
5014,1159
5015,1179
5016,1196
5017,1223
5020,1245
5022,1262
5026,1278
5030,1291
5036,1300
5041,1309
5046,1315
5050,1319
5054,1321
5055,1322
" style="stroke:#000000;stroke-width:16;
stroke-linejoin:bevel; stroke-linecap:butt;
"/>
<!-- Line -->
<polyline points="5149,1039
5385,1039
5385,1275
" style="stroke:#000000;stroke-width:16;
stroke-linejoin:miter; stroke-linecap:butt;
"/>
<!-- Text -->
<text xml:space="preserve" x="5291" y="755" fill="#000000"  font-family="Helvetica" font-style="normal" font-weight="normal" font-size="126" text-anchor="middle">finish</text>
<!-- Text -->
<text xml:space="preserve" x="5291" y="944" fill="#000000"  font-family="Helvetica" font-style="normal" font-weight="normal" font-size="126" text-anchor="middle">facing</text>
<!-- Circle -->
<circle cx="3590" cy="3543" r="94"
 style="stroke:#000000;stroke-width:16;"/>
<!-- Line: box -->
<rect x="3496" y="2787" width="188" height="188" rx="0" 
style="stroke:#000000;stroke-width:16;
stroke-linejoin:miter; stroke-linecap:butt;
"/>
<!-- Text -->
<text xml:space="preserve" x="3590" y="2929" fill="#000000"  font-family="Helvetica" font-style="normal" font-weight="bold" font-size="114" text-anchor="middle">2</text>
<!-- Text -->
<text xml:space="preserve" x="3590" y="3590" fill="#000000"  font-family="Helvetica" font-style="normal" font-weight="bold" font-size="114" text-anchor="middle">2</text>
<!-- Line: box -->
<rect x="3968" y="3118" width="188" height="188" rx="0" 
style="stroke:#000000;stroke-width:16;
stroke-linejoin:miter; stroke-linecap:butt;
"/>
<!-- Line -->
<polyline points="3590,3401
3590,3448
" style="stroke:#000000;stroke-width:16;
stroke-linejoin:miter; stroke-linecap:round;
"/>
<!-- Line -->
<polyline points="4062,3307
4062,3354
" style="stroke:#000000;stroke-width:16;
stroke-linejoin:miter; stroke-linecap:round;
"/>
<!-- Line -->
<polyline points="3732,2881
3685,2881
" style="stroke:#000000;stroke-width:16;
stroke-linejoin:miter; stroke-linecap:round;
"/>
<!-- Text -->
<text xml:space="preserve" x="3732" y="3354" fill="#000000"  font-family="Helvetica" font-style="normal" font-weight="bold" font-size="227" text-anchor="middle">RA</text>
<!-- Text -->
<text xml:space="preserve" x="4062" y="3259" fill="#000000"  font-family="Helvetica" font-style="normal" font-weight="bold" font-size="114" text-anchor="middle">1</text>
<!-- Circle -->
<circle cx="4913" cy="3543" r="94"
 style="stroke:#000000;stroke-width:16;"/>
<!-- Line: box -->
<rect x="4818" y="2787" width="188" height="188" rx="0" 
style="stroke:#000000;stroke-width:16;
stroke-linejoin:miter; stroke-linecap:butt;
"/>
<!-- Text -->
<text xml:space="preserve" x="4913" y="2929" fill="#000000"  font-family="Helvetica" font-style="normal" font-weight="bold" font-size="114" text-anchor="middle">3</text>
<!-- Text -->
<text xml:space="preserve" x="4913" y="3590" fill="#000000"  font-family="Helvetica" font-style="normal" font-weight="bold" font-size="114" text-anchor="middle">3</text>
<!-- Circle -->
<circle cx="4440" cy="3212" r="94"
 style="stroke:#000000;stroke-width:16;"/>
<!-- Line -->
<polyline points="4440,3070
4440,3118
" style="stroke:#000000;stroke-width:16;
stroke-linejoin:miter; stroke-linecap:round;
"/>
<!-- Line -->
<polyline points="4913,2976
4913,3023
" style="stroke:#000000;stroke-width:16;
stroke-linejoin:miter; stroke-linecap:round;
"/>
<!-- Line -->
<polyline points="4818,3543
4771,3543
" style="stroke:#000000;stroke-width:16;
stroke-linejoin:miter; stroke-linecap:round;
"/>
<!-- Text -->
<text xml:space="preserve" x="4771" y="3354" fill="#000000"  font-family="Helvetica" font-style="normal" font-weight="bold" font-size="227" text-anchor="middle">RA</text>
<!-- Text -->
<text xml:space="preserve" x="4440" y="3259" fill="#000000"  font-family="Helvetica" font-style="normal" font-weight="bold" font-size="114" text-anchor="middle">1</text>
<!-- Line -->
<polyline points="5055,3685
5054,3687
5053,3690
5049,3696
5045,3703
5039,3712
5032,3720
5022,3728
5012,3734
4999,3739
4983,3743
4966,3745
4945,3748
4921,3748
4903,3748
4885,3746
4864,3746
4841,3745
4818,3743
4793,3742
4767,3740
4740,3738
4711,3736
4682,3734
4653,3732
4624,3730
4595,3728
4566,3725
4539,3723
4513,3721
4488,3720
4465,3718
4443,3717
4422,3717
4403,3716
4386,3716
4361,3716
4340,3718
4323,3720
4307,3724
4295,3730
4284,3736
4275,3743
4267,3752
4261,3760
4257,3767
4254,3774
4253,3777
4251,3779
" style="stroke:#000000;stroke-width:16;
stroke-linejoin:bevel; stroke-linecap:round;
"/>
<!-- Line -->
<polyline points="3448,3685
3449,3687
3450,3690
3454,3696
3458,3703
3464,3712
3471,3720
3481,3728
3491,3734
3504,3739
3520,3743
3537,3745
3558,3748
3583,3748
3600,3748
3618,3746
3639,3746
3661,3745
3685,3743
3710,3742
3736,3740
3763,3738
3792,3736
3821,3734
3850,3732
3879,3730
3908,3728
3937,3725
3964,3723
3990,3721
4015,3720
4038,3718
4060,3717
4081,3717
4100,3716
4118,3716
4142,3716
4163,3718
4180,3720
4196,3724
4208,3730
4219,3736
4228,3743
4236,3752
4242,3760
4246,3767
4249,3774
4250,3777
4251,3779
" style="stroke:#000000;stroke-width:16;
stroke-linejoin:bevel; stroke-linecap:round;
"/>
<!-- Text -->
<text xml:space="preserve" x="425" y="1228" fill="#000000"  font-family="Helvetica" font-style="normal" font-weight="normal" font-size="126" text-anchor="middle">change</text>
<!-- Text -->
<text xml:space="preserve" x="425" y="1039" fill="#000000"  font-family="Helvetica" font-style="normal" font-weight="normal" font-size="126" text-anchor="middle">skip</text>
<!-- Line -->
<polygon points="425,519
283,661
425,803
566,661
425,519
" style="stroke:#000000;stroke-width:16;
stroke-linejoin:miter; stroke-linecap:butt;
"/>
<!-- Text -->
<text xml:space="preserve" x="425" y="721" fill="#000000"  font-family="Helvetica" font-style="normal" font-weight="bold" font-size="114" text-anchor="middle">D</text>
<!-- Circle -->
<circle cx="1700" cy="1133" r="94"
 style="stroke:#000000;stroke-width:16;"/>
<!-- Line -->
<polyline points="1559,1133
1606,1133
" style="stroke:#000000;stroke-width:16;
stroke-linejoin:miter; stroke-linecap:round;
"/>
<!-- Text -->
<text xml:space="preserve" x="1700" y="1181" fill="#000000"  font-family="Helvetica" font-style="normal" font-weight="bold" font-size="114" text-anchor="middle">1</text>
<!-- Line -->
<polyline points="1133,614
1181,614
" style="stroke:#000000;stroke-width:16;
stroke-linejoin:miter; stroke-linecap:round;
"/>
<!-- Line: box -->
<rect x="944" y="519" width="188" height="188" rx="0" 
style="stroke:#000000;stroke-width:16;
stroke-linejoin:miter; stroke-linecap:butt;
"/>
<!-- Text -->
<text xml:space="preserve" x="1039" y="661" fill="#000000"  font-family="Helvetica" font-style="normal" font-weight="bold" font-size="114" text-anchor="middle">2</text>
<!-- Circle -->
<circle cx="1700" cy="614" r="94"
 style="stroke:#000000;stroke-width:16;"/>
<!-- Line -->
<polyline points="1559,614
1606,614
" style="stroke:#000000;stroke-width:16;
stroke-linejoin:miter; stroke-linecap:round;
"/>
<!-- Text -->
<text xml:space="preserve" x="1700" y="661" fill="#000000"  font-family="Helvetica" font-style="normal" font-weight="bold" font-size="114" text-anchor="middle">2</text>
<!-- Line: box -->
<rect x="944" y="1039" width="188" height="188" rx="0" 
style="stroke:#000000;stroke-width:16;
stroke-linejoin:miter; stroke-linecap:butt;
"/>
<!-- Text -->
<text xml:space="preserve" x="1039" y="1181" fill="#000000"  font-family="Helvetica" font-style="normal" font-weight="bold" font-size="114" text-anchor="middle">1</text>
<!-- Line -->
<polyline points="1133,1133
1181,1133
" style="stroke:#000000;stroke-width:16;
stroke-linejoin:miter; stroke-linecap:round;
"/>
<!-- Text -->
<text xml:space="preserve" x="1559" y="1039" fill="#000000"  font-family="Helvetica" font-style="normal" font-weight="bold" font-size="152" text-anchor="middle">L</text>
<!-- Text -->
<text xml:space="preserve" x="1417" y="992" fill="#000000"  font-family="Helvetica" font-style="normal" font-weight="bold" font-size="227" text-anchor="middle">X</text>
<!-- Text -->
<text xml:space="preserve" x="1228" y="992" fill="#000000"  font-family="Helvetica" font-style="normal" font-weight="bold" font-size="227" text-anchor="middle">S</text>
<!-- Circle -->
<circle cx="2173" cy="661" r="94"
 style="stroke:#000000;stroke-width:16;"/>
<!-- Text -->
<text xml:space="preserve" x="2173" y="708" fill="#000000"  font-family="Helvetica" font-style="normal" font-weight="bold" font-size="114" text-anchor="middle">2</text>
<!-- Line: box -->
<rect x="2598" y="566" width="188" height="188" rx="0" 
style="stroke:#000000;stroke-width:16;
stroke-linejoin:miter; stroke-linecap:butt;
"/>
<!-- Text -->
<text xml:space="preserve" x="2692" y="708" fill="#000000"  font-family="Helvetica" font-style="normal" font-weight="bold" font-size="114" text-anchor="middle">2</text>
<!-- Line: box -->
<rect x="2598" y="1086" width="188" height="188" rx="0" 
style="stroke:#000000;stroke-width:16;
stroke-linejoin:miter; stroke-linecap:butt;
"/>
<!-- Text -->
<text xml:space="preserve" x="2692" y="1228" fill="#000000"  font-family="Helvetica" font-style="normal" font-weight="bold" font-size="114" text-anchor="middle">1</text>
<!-- Circle -->
<circle cx="2173" cy="1181" r="94"
 style="stroke:#000000;stroke-width:16;"/>
<!-- Text -->
<text xml:space="preserve" x="2173" y="1228" fill="#000000"  font-family="Helvetica" font-style="normal" font-weight="bold" font-size="114" text-anchor="middle">1</text>
<!-- Line -->
<polyline points="2173,755
2173,976
" style="stroke:#000000;stroke-width:16;
stroke-linejoin:bevel; stroke-linecap:butt;
"/>
<!-- Arrowhead on XXXpoint 2173 755 - 2173 1070-->
<polygon points="2141 998
2173 1061
2204 998
2141 998

" style="stroke:#000000;stroke-width:8;stroke-miterlimit:8;
fill:#000000;"/>
<!-- Line -->
<polyline points="2692,1086
2692,865
" style="stroke:#000000;stroke-width:16;
stroke-linejoin:bevel; stroke-linecap:butt;
stroke-dasharray:20 20;"/>
<!-- Arrowhead on XXXpoint 2692 1086 - 2692 771-->
<polygon points="2724 844
2692 781
2661 844
2724 844

" style="stroke:#000000;stroke-width:8;stroke-miterlimit:8;
fill:#000000;"/>
<!-- Line -->
<polyline points="2173,1275
2173,1277
2174,1280
2175,1287
2178,1295
2181,1304
2185,1314
2190,1322
2196,1330
2202,1336
2211,1342
2220,1346
2230,1351
2244,1354
2257,1356
2271,1359
2287,1360
2305,1362
2324,1363
2344,1365
2365,1365
2387,1366
2408,1366
2429,1366
2450,1366
2470,1365
2488,1365
2506,1364
2520,1363
2535,1362
2555,1359
2572,1356
2587,1353
2601,1348
2614,1341
2592,1354
" style="stroke:#000000;stroke-width:16;
stroke-linejoin:bevel; stroke-linecap:butt;
"/>
<!-- Arrowhead on XXXpoint 2614 1341 - 2671 1306-->
<polygon points="2626 1371
2664 1311
2594 1317
2626 1371

" style="stroke:#000000;stroke-width:8;stroke-miterlimit:8;
fill:#000000;"/>
<!-- Line -->
<polyline points="2692,566
2692,564
2691,561
2690,555
2687,546
2684,537
2680,528
2676,519
2669,512
2663,506
2655,499
2645,495
2635,491
2622,488
2608,486
2594,482
2578,481
2560,479
2541,478
2521,476
2500,476
2478,475
2457,475
2436,475
2415,475
2395,476
2377,476
2360,477
2345,478
2330,480
2310,482
2293,486
2278,489
2264,494
2251,500
2272,487
" style="stroke:#000000;stroke-width:16;
stroke-linejoin:bevel; stroke-linecap:butt;
stroke-dasharray:20 20;"/>
<!-- Arrowhead on XXXpoint 2251 500 - 2193 535-->
<polygon points="2239 471
2201 531
2270 525
2239 471

" style="stroke:#000000;stroke-width:8;stroke-miterlimit:8;
fill:#000000;"/>
<!-- Line -->
<polyline points="1653,1559
1133,1559
" style="stroke:#000000;stroke-width:8;
stroke-linejoin:miter; stroke-linecap:butt;
"/>
<!-- Line -->
<polyline points="2362,1559
1842,1559
" style="stroke:#000000;stroke-width:8;
stroke-linejoin:miter; stroke-linecap:butt;
"/>
<!-- Line -->
<polyline points="1700,1511
1795,1511
1795,1606
" style="stroke:#000000;stroke-width:16;
stroke-linejoin:miter; stroke-linecap:butt;
"/>
<!-- Line: box -->
<rect x="2078" y="1842" width="188" height="188" rx="0" 
style="stroke:#000000;stroke-width:16;
stroke-linejoin:miter; stroke-linecap:butt;
"/>
<!-- Text -->
<text xml:space="preserve" x="2173" y="1984" fill="#000000"  font-family="Helvetica" font-style="normal" font-weight="bold" font-size="114" text-anchor="middle">2</text>
<!-- Circle -->
<circle cx="2031" cy="2220" r="94"
 style="stroke:#000000;stroke-width:16;"/>
<!-- Text -->
<text xml:space="preserve" x="2031" y="2267" fill="#000000"  font-family="Helvetica" font-style="normal" font-weight="bold" font-size="114" text-anchor="middle">3</text>
<!-- Line -->
<polyline points="2078,2031
2077,2032
2073,2035
2066,2040
2055,2046
2045,2050
2035,2052
2026,2051
2015,2047
2010,2044
2005,2040
2000,2037
1994,2032
1989,2027
1984,2020
1979,2014
1974,2006
1970,1997
1967,1988
1964,1979
1963,1968
1962,1958
1962,1946
1964,1934
1967,1923
1970,1910
1976,1898
1983,1884
1991,1869
2001,1855
2011,1839
2024,1822
2037,1805
2052,1788
2069,1771
2085,1754
2101,1738
2119,1721
2136,1707
2153,1693
2170,1680
2185,1670
2200,1660
2215,1652
2228,1646
2241,1639
2254,1636
2265,1633
2277,1632
2288,1631
2299,1632
2309,1634
2319,1636
2327,1640
2335,1645
2343,1650
2349,1655
2354,1661
2359,1668
2363,1674
2366,1680
2368,1687
2370,1693
2370,1703
2369,1714
2365,1725
2359,1738
2349,1752
2338,1767
2354,1746
" style="stroke:#000000;stroke-width:16;
stroke-linejoin:bevel; stroke-linecap:butt;
stroke-dasharray:20 20;"/>
<!-- Arrowhead on XXXpoint 2338 1767 - 2293 1818-->
<polygon points="2317 1742
2300 1811
2365 1783
2317 1742

" style="stroke:#000000;stroke-width:8;stroke-miterlimit:8;
fill:#000000;"/>
<!-- Line -->
<polyline points="2125,2125
2127,2124
2131,2121
2138,2116
2149,2111
2159,2107
2169,2104
2178,2106
2188,2110
2194,2113
2200,2117
2206,2121
2212,2127
2218,2133
2224,2141
2229,2150
2234,2159
2238,2170
2240,2180
2242,2193
2242,2204
2241,2218
2238,2230
2234,2245
2228,2260
2221,2272
2213,2287
2203,2302
2193,2318
2180,2334
2166,2351
2152,2368
2135,2386
2119,2403
2102,2418
2085,2435
2068,2450
2051,2464
2034,2476
2018,2487
2004,2496
1989,2504
1976,2512
1963,2517
1950,2520
1939,2523
1927,2524
1916,2525
1905,2524
1895,2522
1885,2520
1877,2516
1868,2512
1861,2507
1855,2501
1849,2495
1845,2489
1841,2482
1838,2476
1836,2470
1835,2465
1834,2453
1835,2443
1839,2431
1845,2418
1855,2405
1866,2389
1848,2409
" style="stroke:#000000;stroke-width:16;
stroke-linejoin:bevel; stroke-linecap:butt;
"/>
<!-- Arrowhead on XXXpoint 1866 2389 - 1909 2338-->
<polygon points="1886 2413
1903 2345
1838 2372
1886 2413

" style="stroke:#000000;stroke-width:8;stroke-miterlimit:8;
fill:#000000;"/>
<!-- Circle -->
<circle cx="1653" cy="1795" r="94"
 style="stroke:#000000;stroke-width:16;"/>
<!-- Text -->
<text xml:space="preserve" x="1653" y="1842" fill="#000000"  font-family="Helvetica" font-style="normal" font-weight="bold" font-size="114" text-anchor="middle">3</text>
<!-- Line: box -->
<rect x="1133" y="2267" width="188" height="188" rx="0" 
style="stroke:#000000;stroke-width:16;
stroke-linejoin:miter; stroke-linecap:butt;
"/>
<!-- Text -->
<text xml:space="preserve" x="1228" y="2409" fill="#000000"  font-family="Helvetica" font-style="normal" font-weight="bold" font-size="114" text-anchor="middle">2</text>
<!-- Text -->
<text xml:space="preserve" x="1322" y="2173" fill="#000000"  font-family="Helvetica" font-style="normal" font-weight="bold" font-size="227" text-anchor="middle">T</text>
<!-- Text -->
<text xml:space="preserve" x="1417" y="2220" fill="#000000"  font-family="Helvetica" font-style="normal" font-weight="bold" font-size="152" text-anchor="middle">R</text>
<!-- Line -->
<polyline points="1511,2220
1606,2031
" style="stroke:#000000;stroke-width:8;
stroke-linejoin:miter; stroke-linecap:round;
"/>
<!-- Text -->
<text xml:space="preserve" x="1511" y="2125" fill="#000000"  font-family="Helvetica" font-style="normal" font-weight="bold" font-size="114" text-anchor="middle">1</text>
<!-- Text -->
<text xml:space="preserve" x="1606" y="2220" fill="#000000"  font-family="Helvetica" font-style="normal" font-weight="bold" font-size="114" text-anchor="middle">2</text>
<!-- Line: box -->
<rect x="330" y="2125" width="188" height="188" rx="0" 
style="stroke:#000000;stroke-width:16;
stroke-linejoin:miter; stroke-linecap:butt;
"/>
<!-- Text -->
<text xml:space="preserve" x="425" y="2267" fill="#000000"  font-family="Helvetica" font-style="normal" font-weight="bold" font-size="114" text-anchor="middle">1</text>
<!-- Circle -->
<circle cx="708" cy="1937" r="94"
 style="stroke:#000000;stroke-width:16;"/>
<!-- Text -->
<text xml:space="preserve" x="708" y="1984" fill="#000000"  font-family="Helvetica" font-style="normal" font-weight="bold" font-size="114" text-anchor="middle">1</text>
<!-- Line -->
<polyline points="708,1795
708,1794
710,1788
713,1778
720,1760
727,1739
735,1718
744,1698
753,1680
763,1667
772,1655
783,1646
795,1637
806,1632
818,1627
832,1623
848,1619
864,1617
879,1616
896,1616
913,1618
929,1622
943,1625
958,1630
971,1637
982,1645
992,1653
999,1661
1006,1671
1012,1682
1017,1694
1021,1708
1025,1722
1027,1737
1029,1753
1029,1770
1029,1786
1029,1803
1027,1819
1025,1836
1022,1851
1019,1866
1016,1882
1011,1899
1004,1916
998,1932
991,1950
983,1968
974,1985
964,2002
955,2018
945,2034
935,2048
925,2061
916,2073
907,2085
897,2094
887,2104
875,2114
864,2122
851,2130
838,2137
825,2142
812,2148
798,2151
786,2154
772,2156
760,2157
748,2157
734,2157
721,2156
706,2154
689,2152
669,2148
647,2143
624,2138
602,2134
626,2139
" style="stroke:#000000;stroke-width:16;
stroke-linejoin:bevel; stroke-linecap:butt;
"/>
<!-- Arrowhead on XXXpoint 602 2134 - 535 2118-->
<polygon points="612 2103
543 2120
597 2164
612 2103

" style="stroke:#000000;stroke-width:8;stroke-miterlimit:8;
fill:#000000;"/>
<!-- Line -->
<polyline points="425,2362
425,2363
423,2368
419,2379
413,2396
406,2417
397,2438
389,2458
380,2476
370,2490
361,2501
350,2511
339,2519
327,2524
314,2530
301,2534
285,2537
269,2539
254,2540
237,2540
220,2538
204,2535
190,2532
175,2527
162,2519
151,2512
141,2503
134,2495
127,2486
121,2474
116,2462
112,2449
108,2434
106,2419
103,2404
103,2387
103,2370
103,2353
106,2338
108,2321
111,2305
114,2290
118,2276
122,2258
129,2241
135,2224
142,2206
150,2188
159,2172
169,2155
178,2138
187,2122
198,2109
207,2095
217,2083
226,2072
236,2062
246,2052
258,2043
269,2034
282,2027
295,2019
308,2014
321,2009
334,2006
347,2003
361,2001
373,2000
386,2000
398,2000
412,2001
427,2003
444,2005
464,2009
486,2013
509,2018
531,2023
506,2016
" style="stroke:#000000;stroke-width:16;
stroke-linejoin:bevel; stroke-linecap:butt;
stroke-dasharray:20 20;"/>
<!-- Arrowhead on XXXpoint 531 2023 - 597 2037-->
<polygon points="518 2052
587 2035
532 1990
518 2052

" style="stroke:#000000;stroke-width:8;stroke-miterlimit:8;
fill:#000000;"/>
<!-- Line -->
<polyline points="472,1559
94,1559
" style="stroke:#000000;stroke-width:8;
stroke-linejoin:miter; stroke-linecap:butt;
"/>
<!-- Line -->
<polyline points="1039,1559
661,1559
" style="stroke:#000000;stroke-width:8;
stroke-linejoin:miter; stroke-linecap:butt;
"/>
<!-- Text -->
<text xml:space="preserve" x="566" y="1606" fill="#000000"  font-family="Helvetica" font-style="normal" font-weight="bold" font-size="114" text-anchor="middle">1</text>
<!-- Line -->
<polyline points="2362,2551
2361,2552
2360,2555
2358,2559
2352,2564
2347,2572
2339,2579
2329,2586
2318,2593
2305,2599
2289,2603
2272,2607
2253,2611
2229,2613
2203,2614
2173,2614
2152,2614
2130,2614
2106,2613
2080,2612
2053,2611
2025,2609
1995,2608
1964,2606
1931,2605
1898,2603
1864,2602
1829,2600
1795,2598
1760,2596
1725,2594
1692,2593
1658,2591
1626,2590
1594,2587
1565,2586
1537,2585
1509,2584
1484,2583
1460,2582
1438,2582
1417,2582
1386,2582
1360,2583
1337,2585
1317,2588
1300,2593
1285,2597
1272,2603
1260,2609
1251,2617
1243,2624
1237,2632
1232,2637
1230,2641
1229,2644
1228,2645
" style="stroke:#000000;stroke-width:16;
stroke-linejoin:bevel; stroke-linecap:round;
"/>
<!-- Line -->
<polyline points="94,2551
95,2552
96,2555
98,2559
103,2564
109,2572
117,2579
127,2586
138,2593
151,2599
166,2603
183,2607
203,2611
226,2613
253,2614
283,2614
304,2614
326,2614
350,2613
375,2612
403,2611
431,2609
460,2608
492,2606
524,2605
558,2603
592,2602
626,2600
661,2598
696,2596
730,2594
764,2593
797,2591
830,2590
861,2587
891,2586
919,2585
946,2584
972,2583
996,2582
1018,2582
1039,2582
1069,2582
1096,2583
1119,2585
1139,2588
1155,2593
1171,2597
1184,2603
1195,2609
1205,2617
1213,2624
1218,2632
1224,2637
1226,2641
1227,2644
1228,2645
" style="stroke:#000000;stroke-width:16;
stroke-linejoin:bevel; stroke-linecap:round;
"/>
<!-- Line: box -->
<rect x="1700" y="2929" width="188" height="188" rx="0" 
style="stroke:#000000;stroke-width:16;
stroke-linejoin:miter; stroke-linecap:butt;
"/>
<!-- Text -->
<text xml:space="preserve" x="1795" y="3070" fill="#000000"  font-family="Helvetica" font-style="normal" font-weight="bold" font-size="114" text-anchor="middle">2</text>
<!-- Circle -->
<circle cx="1795" cy="3496" r="94"
 style="stroke:#000000;stroke-width:16;"/>
<!-- Text -->
<text xml:space="preserve" x="1795" y="3543" fill="#000000"  font-family="Helvetica" font-style="normal" font-weight="bold" font-size="114" text-anchor="middle">2</text>
<!-- Line: box -->
<rect x="992" y="2929" width="188" height="188" rx="0" 
style="stroke:#000000;stroke-width:16;
stroke-linejoin:miter; stroke-linecap:butt;
"/>
<!-- Text -->
<text xml:space="preserve" x="1086" y="3070" fill="#000000"  font-family="Helvetica" font-style="normal" font-weight="bold" font-size="114" text-anchor="middle">3</text>
<!-- Circle -->
<circle cx="1086" cy="3496" r="94"
 style="stroke:#000000;stroke-width:16;"/>
<!-- Text -->
<text xml:space="preserve" x="1086" y="3543" fill="#000000"  font-family="Helvetica" font-style="normal" font-weight="bold" font-size="114" text-anchor="middle">3</text>
<!-- Text -->
<text xml:space="preserve" x="1322" y="3118" fill="#000000"  font-family="Helvetica" font-style="normal" font-weight="bold" font-size="227" text-anchor="middle">T</text>
<!-- Text -->
<text xml:space="preserve" x="1417" y="3165" fill="#000000"  font-family="Helvetica" font-style="normal" font-weight="bold" font-size="152" text-anchor="middle">R</text>
<!-- Line -->
<polyline points="1511,3165
1606,2976
" style="stroke:#000000;stroke-width:8;
stroke-linejoin:miter; stroke-linecap:round;
"/>
<!-- Text -->
<text xml:space="preserve" x="1511" y="3070" fill="#000000"  font-family="Helvetica" font-style="normal" font-weight="bold" font-size="114" text-anchor="middle">1</text>
<!-- Text -->
<text xml:space="preserve" x="1606" y="3165" fill="#000000"  font-family="Helvetica" font-style="normal" font-weight="bold" font-size="114" text-anchor="middle">2</text>
<!-- Text -->
<text xml:space="preserve" x="1322" y="3590" fill="#000000"  font-family="Helvetica" font-style="normal" font-weight="bold" font-size="227" text-anchor="middle">T</text>
<!-- Text -->
<text xml:space="preserve" x="1417" y="3637" fill="#000000"  font-family="Helvetica" font-style="normal" font-weight="bold" font-size="152" text-anchor="middle">R</text>
<!-- Line -->
<polyline points="1511,3637
1606,3448
" style="stroke:#000000;stroke-width:8;
stroke-linejoin:miter; stroke-linecap:round;
"/>
<!-- Text -->
<text xml:space="preserve" x="1511" y="3543" fill="#000000"  font-family="Helvetica" font-style="normal" font-weight="bold" font-size="114" text-anchor="middle">1</text>
<!-- Text -->
<text xml:space="preserve" x="1606" y="3637" fill="#000000"  font-family="Helvetica" font-style="normal" font-weight="bold" font-size="114" text-anchor="middle">2</text>
<!-- Line -->
<polyline points="1228,3023
1181,3023
" style="stroke:#000000;stroke-width:16;
stroke-linejoin:miter; stroke-linecap:round;
"/>
<!-- Line -->
<polyline points="1228,3496
1181,3496
" style="stroke:#000000;stroke-width:16;
stroke-linejoin:miter; stroke-linecap:round;
"/>
<!-- Line -->
<polyline points="1700,3496
1653,3496
" style="stroke:#000000;stroke-width:16;
stroke-linejoin:miter; stroke-linecap:round;
"/>
<!-- Line -->
<polyline points="1700,3023
1653,3023
" style="stroke:#000000;stroke-width:16;
stroke-linejoin:miter; stroke-linecap:round;
"/>
<!-- Line: box -->
<rect x="2220" y="2929" width="188" height="188" rx="0" 
style="stroke:#000000;stroke-width:16;
stroke-linejoin:miter; stroke-linecap:butt;
"/>
<!-- Text -->
<text xml:space="preserve" x="2314" y="3070" fill="#000000"  font-family="Helvetica" font-style="normal" font-weight="bold" font-size="114" text-anchor="middle">2</text>
<!-- Circle -->
<circle cx="2314" cy="3496" r="94"
 style="stroke:#000000;stroke-width:16;"/>
<!-- Text -->
<text xml:space="preserve" x="2314" y="3543" fill="#000000"  font-family="Helvetica" font-style="normal" font-weight="bold" font-size="114" text-anchor="middle">2</text>
<!-- Circle -->
<circle cx="2645" cy="3496" r="94"
 style="stroke:#000000;stroke-width:16;"/>
<!-- Text -->
<text xml:space="preserve" x="2645" y="3543" fill="#000000"  font-family="Helvetica" font-style="normal" font-weight="bold" font-size="114" text-anchor="middle">3</text>
<!-- Line: box -->
<rect x="2551" y="2929" width="188" height="188" rx="0" 
style="stroke:#000000;stroke-width:16;
stroke-linejoin:miter; stroke-linecap:butt;
"/>
<!-- Text -->
<text xml:space="preserve" x="2645" y="3070" fill="#000000"  font-family="Helvetica" font-style="normal" font-weight="bold" font-size="114" text-anchor="middle">3</text>
<!-- Line -->
<polyline points="2550,3009
2549,3009
2545,3008
2538,3007
2529,3004
2521,3000
2514,2995
2508,2987
2502,2978
2499,2973
2497,2965
2495,2959
2493,2951
2491,2942
2490,2934
2490,2924
2491,2915
2493,2906
2496,2897
2500,2889
2506,2880
2513,2873
2521,2866
2531,2859
2542,2854
2555,2850
2570,2846
2586,2843
2605,2839
2625,2837
2647,2836
2669,2836
2692,2836
2714,2837
2737,2839
2759,2841
2779,2845
2797,2849
2814,2853
2829,2858
2841,2864
2854,2871
2865,2878
2873,2888
2879,2899
2883,2913
2886,2929
2887,2945
2887,2964
2886,2983
2887,2960
" style="stroke:#000000;stroke-width:16;
stroke-linejoin:bevel; stroke-linecap:butt;
stroke-dasharray:20 20;"/>
<!-- Arrowhead on XXXpoint 2886 2983 - 2877 3054-->
<polygon points="2854 2977
2878 3044
2916 2984
2854 2977

" style="stroke:#000000;stroke-width:8;stroke-miterlimit:8;
fill:#000000;"/>
<!-- Line -->
<polyline points="2551,3496
2550,3496
2546,3495
2539,3493
2530,3490
2522,3486
2515,3481
2509,3474
2503,3464
2500,3459
2498,3451
2496,3445
2494,3437
2492,3428
2491,3420
2491,3411
2492,3401
2494,3392
2497,3382
2501,3374
2507,3365
2514,3357
2521,3351
2532,3343
2543,3338
2556,3333
2571,3329
2587,3324
2606,3321
2626,3319
2647,3317
2669,3316
2692,3315
2716,3316
2738,3317
2759,3319
2779,3321
2797,3324
2814,3329
2829,3333
2843,3338
2855,3344
2865,3353
2873,3362
2879,3373
2883,3386
2886,3401
2887,3419
2887,3437
2886,3456
2887,3433
" style="stroke:#000000;stroke-width:16;
stroke-linejoin:bevel; stroke-linecap:butt;
"/>
<!-- Arrowhead on XXXpoint 2886 3456 - 2877 3526-->
<polygon points="2854 3449
2878 3517
2916 3457
2854 3449

" style="stroke:#000000;stroke-width:8;stroke-miterlimit:8;
fill:#000000;"/>
<!-- Line -->
<polyline points="2409,3027
2410,3027
2413,3028
2420,3029
2430,3033
2437,3037
2445,3042
2451,3048
2456,3058
2459,3064
2461,3070
2464,3077
2466,3085
2468,3092
2469,3102
2469,3110
2468,3120
2466,3129
2462,3138
2458,3147
2453,3154
2446,3163
2438,3169
2428,3175
2417,3182
2404,3186
2389,3191
2372,3194
2353,3197
2333,3201
2312,3202
2290,3203
2267,3204
2244,3203
2222,3202
2201,3200
2181,3197
2162,3194
2145,3190
2131,3186
2118,3181
2104,3174
2095,3166
2087,3156
2080,3146
2076,3132
2074,3118
2073,3100
2073,3082
2074,3063
2072,3085
" style="stroke:#000000;stroke-width:16;
stroke-linejoin:bevel; stroke-linecap:butt;
stroke-dasharray:20 20;"/>
<!-- Arrowhead on XXXpoint 2074 3063 - 2081 2992-->
<polygon points="2104 3066
2080 3001
2043 3060
2104 3066

" style="stroke:#000000;stroke-width:8;stroke-miterlimit:8;
fill:#000000;"/>
<!-- Line -->
<polyline points="2409,3496
2410,3496
2413,3497
2420,3498
2430,3501
2437,3505
2445,3510
2451,3518
2456,3527
2459,3532
2461,3540
2464,3546
2466,3554
2468,3563
2469,3571
2469,3581
2468,3590
2466,3600
2462,3609
2458,3617
2453,3626
2446,3634
2438,3640
2428,3648
2417,3653
2404,3658
2389,3662
2372,3667
2353,3670
2333,3672
2312,3674
2290,3675
2267,3676
2244,3675
2222,3674
2201,3672
2181,3670
2162,3667
2145,3662
2131,3658
2118,3653
2104,3647
2095,3638
2087,3629
2080,3618
2076,3605
2074,3590
2073,3572
2073,3554
2074,3535
2072,3558
" style="stroke:#000000;stroke-width:16;
stroke-linejoin:bevel; stroke-linecap:butt;
"/>
<!-- Arrowhead on XXXpoint 2074 3535 - 2081 3464-->
<polygon points="2104 3539
2080 3474
2043 3532
2104 3539

" style="stroke:#000000;stroke-width:8;stroke-miterlimit:8;
fill:#000000;"/>
<!-- Line -->
<polyline points="2881,2787
2125,2787
" style="stroke:#000000;stroke-width:8;
stroke-linejoin:miter; stroke-linecap:butt;
"/>
<!-- Line -->
<polyline points="1748,2787
992,2787
" style="stroke:#000000;stroke-width:8;
stroke-linejoin:miter; stroke-linecap:butt;
"/>
<!-- Text -->
<text xml:space="preserve" x="1937" y="2834" fill="#000000"  font-family="Helvetica" font-style="normal" font-weight="bold" font-size="114" text-anchor="middle">3 2</text>
<!-- Line -->
<polyline points="330,2787
94,2787
" style="stroke:#000000;stroke-width:8;
stroke-linejoin:miter; stroke-linecap:butt;
"/>
<!-- Line -->
<polyline points="755,2787
519,2787
" style="stroke:#000000;stroke-width:8;
stroke-linejoin:miter; stroke-linecap:butt;
"/>
<!-- Text -->
<text xml:space="preserve" x="425" y="2834" fill="#000000"  font-family="Helvetica" font-style="normal" font-weight="bold" font-size="114" text-anchor="middle">1</text>
<!-- Text -->
<text xml:space="preserve" x="566" y="3401" fill="#000000"  font-family="Helvetica" font-style="normal" font-weight="bold" font-size="152" text-anchor="middle">L</text>
<!-- Text -->
<text xml:space="preserve" x="425" y="3354" fill="#000000"  font-family="Helvetica" font-style="normal" font-weight="bold" font-size="227" text-anchor="middle">T</text>
<!-- Line -->
<polyline points="661,3401
755,3212
" style="stroke:#000000;stroke-width:8;
stroke-linejoin:miter; stroke-linecap:round;
"/>
<!-- Text -->
<text xml:space="preserve" x="661" y="3307" fill="#000000"  font-family="Helvetica" font-style="normal" font-weight="bold" font-size="114" text-anchor="middle">3</text>
<!-- Text -->
<text xml:space="preserve" x="755" y="3401" fill="#000000"  font-family="Helvetica" font-style="normal" font-weight="bold" font-size="114" text-anchor="middle">4</text>
<!-- Text -->
<text xml:space="preserve" x="188" y="3354" fill="#000000"  font-family="Helvetica" font-style="normal" font-weight="bold" font-size="227" text-anchor="middle">S</text>
<!-- Line -->
<polyline points="94,3685
95,3686
96,3689
100,3693
106,3698
113,3706
122,3713
135,3720
149,3727
165,3733
184,3737
205,3741
230,3744
259,3746
292,3748
330,3748
352,3748
376,3748
402,3746
429,3746
456,3745
487,3744
517,3743
550,3742
583,3741
618,3739
654,3738
690,3737
727,3735
765,3734
803,3732
840,3730
878,3729
915,3727
952,3725
987,3724
1022,3722
1056,3721
1088,3720
1119,3719
1149,3718
1176,3717
1204,3717
1229,3716
1253,3716
1275,3716
1313,3716
1346,3717
1375,3719
1400,3722
1421,3727
1440,3731
1457,3737
1470,3743
1483,3751
1492,3758
1500,3765
1505,3771
1509,3775
1510,3778
1511,3779
" style="stroke:#000000;stroke-width:16;
stroke-linejoin:bevel; stroke-linecap:round;
"/>
<!-- Line -->
<polyline points="2929,3685
2928,3686
2927,3689
2922,3693
2917,3698
2910,3706
2900,3713
2888,3720
2874,3727
2857,3733
2838,3737
2817,3741
2792,3744
2764,3746
2730,3748
2692,3748
2670,3748
2646,3748
2621,3746
2594,3746
2566,3745
2536,3744
2506,3743
2473,3742
2439,3741
2405,3739
2369,3738
2332,3737
2296,3735
2258,3734
2220,3732
2182,3730
2144,3729
2108,3727
2071,3725
2035,3724
2001,3722
1967,3721
1934,3720
1904,3719
1874,3718
1846,3717
1819,3717
1794,3716
1770,3716
1748,3716
1710,3716
1676,3717
1648,3719
1623,3722
1602,3727
1583,3731
1566,3737
1552,3743
1540,3751
1530,3758
1523,3765
1518,3771
1513,3775
1512,3778
1511,3779
" style="stroke:#000000;stroke-width:16;
stroke-linejoin:bevel; stroke-linecap:round;
"/>
<!-- Circle -->
<circle cx="5811" cy="2409" r="94"
 style="stroke:#000000;stroke-width:16;"/>
<!-- Circle -->
<circle cx="5244" cy="2409" r="94"
 style="stroke:#000000;stroke-width:16;"/>
<!-- Circle -->
<circle cx="5527" cy="1889" r="94"
 style="stroke:#000000;stroke-width:16;"/>
<!-- Line: box -->
<rect x="5149" y="1653" width="188" height="188" rx="0" 
style="stroke:#000000;stroke-width:16;
stroke-linejoin:miter; stroke-linecap:butt;
"/>
<!-- Line: box -->
<rect x="5716" y="1653" width="188" height="188" rx="0" 
style="stroke:#000000;stroke-width:16;
stroke-linejoin:miter; stroke-linecap:butt;
"/>
<!-- Line -->
<polyline points="5527,2125
5527,2173
" style="stroke:#000000;stroke-width:16;
stroke-linejoin:miter; stroke-linecap:round;
"/>
<!-- Line -->
<polyline points="5527,1984
5527,2031
" style="stroke:#000000;stroke-width:16;
stroke-linejoin:miter; stroke-linecap:round;
"/>
<!-- Line: box -->
<rect x="5433" y="2173" width="188" height="188" rx="0" 
style="stroke:#000000;stroke-width:16;
stroke-linejoin:miter; stroke-linecap:butt;
"/>
<!-- Line -->
<polyline points="5952,2503
5953,2502
5956,2500
5961,2495
5966,2489
5971,2479
5976,2468
5981,2453
5985,2436
5987,2416
5990,2391
5992,2362
5992,2343
5993,2323
5994,2301
5995,2278
5995,2253
5996,2226
5996,2199
5996,2170
5997,2139
5997,2109
5997,2078
5997,2048
5997,2017
5996,1987
5996,1958
5996,1930
5995,1904
5995,1879
5994,1856
5993,1834
5992,1814
5992,1795
5990,1765
5987,1740
5985,1720
5981,1703
5976,1689
5971,1677
5966,1668
5961,1661
5956,1656
5953,1654
5952,1653
" style="stroke:#000000;stroke-width:16;
stroke-linejoin:bevel; stroke-linecap:butt;
"/>
<!-- Line -->
<polyline points="5007,1653
5006,1654
5003,1656
4999,1661
4994,1668
4988,1677
4983,1689
4979,1703
4975,1720
4973,1740
4970,1765
4969,1795
4967,1814
4966,1834
4965,1856
4964,1879
4964,1904
4963,1930
4963,1958
4963,1987
4962,2017
4962,2048
4962,2078
4962,2109
4962,2139
4963,2170
4963,2199
4963,2226
4964,2253
4964,2278
4965,2301
4966,2323
4967,2343
4969,2362
4970,2391
4973,2416
4975,2436
4979,2453
4983,2468
4988,2479
4994,2489
4999,2495
5003,2500
5006,2502
5007,2503
" style="stroke:#000000;stroke-width:16;
stroke-linejoin:bevel; stroke-linecap:butt;
"/>
<!-- Text -->
<text xml:space="preserve" x="5811" y="1795" fill="#000000"  font-family="Helvetica" font-style="normal" font-weight="bold" font-size="114" text-anchor="middle">2</text>
<!-- Text -->
<text xml:space="preserve" x="5244" y="1795" fill="#000000"  font-family="Helvetica" font-style="normal" font-weight="bold" font-size="114" text-anchor="middle">3</text>
<!-- Text -->
<text xml:space="preserve" x="5811" y="2456" fill="#000000"  font-family="Helvetica" font-style="normal" font-weight="bold" font-size="114" text-anchor="middle">2</text>
<!-- Text -->
<text xml:space="preserve" x="5244" y="2456" fill="#000000"  font-family="Helvetica" font-style="normal" font-weight="bold" font-size="114" text-anchor="middle">3</text>
<!-- Text -->
<text xml:space="preserve" x="5527" y="2314" fill="#000000"  font-family="Helvetica" font-style="normal" font-weight="bold" font-size="114" text-anchor="middle">1</text>
<!-- Text -->
<text xml:space="preserve" x="5527" y="1937" fill="#000000"  font-family="Helvetica" font-style="normal" font-weight="bold" font-size="114" text-anchor="middle">1</text>
<!-- Text -->
<text xml:space="preserve" x="5102" y="2125" fill="#000000"  font-family="Helvetica" font-style="normal" font-weight="normal" font-size="126" text-anchor="middle">to</text>
<!-- Line -->
<polyline points="3307,1559
3023,1559
" style="stroke:#000000;stroke-width:8;
stroke-linejoin:miter; stroke-linecap:butt;
"/>
<!-- Line -->
<polyline points="2834,1559
2551,1559
" style="stroke:#000000;stroke-width:8;
stroke-linejoin:miter; stroke-linecap:butt;
"/>
<!-- Text -->
<text xml:space="preserve" x="2929" y="1606" fill="#000000"  font-family="Helvetica" font-style="normal" font-weight="bold" font-size="114" text-anchor="middle">1</text>
<!-- Circle -->
<circle cx="2787" cy="1984" r="94"
 style="stroke:#000000;stroke-width:16;"/>
<!-- Text -->
<text xml:space="preserve" x="2787" y="2031" fill="#000000"  font-family="Helvetica" font-style="normal" font-weight="bold" font-size="114" text-anchor="middle">1</text>
<!-- Line: box -->
<rect x="2976" y="2078" width="188" height="188" rx="0" 
style="stroke:#000000;stroke-width:16;
stroke-linejoin:miter; stroke-linecap:butt;
"/>
<!-- Text -->
<text xml:space="preserve" x="3070" y="2220" fill="#000000"  font-family="Helvetica" font-style="normal" font-weight="bold" font-size="114" text-anchor="middle">1</text>
<!-- Line -->
<polyline points="2645,1937
2645,1935
2642,1932
2637,1923
2628,1909
2618,1891
2608,1874
2599,1856
2591,1840
2584,1825
2580,1812
2577,1799
2575,1787
2573,1776
2573,1764
2573,1753
2574,1741
2576,1729
2578,1716
2582,1703
2586,1692
2592,1680
2598,1670
2605,1660
2613,1652
2621,1644
2629,1637
2641,1631
2654,1625
2668,1620
2684,1616
2701,1614
2719,1612
2737,1612
2754,1612
2771,1613
2788,1615
2804,1618
2818,1622
2831,1625
2843,1629
2854,1633
2866,1638
2877,1645
2888,1652
2898,1659
2908,1668
2917,1677
2924,1688
2931,1697
2936,1709
2941,1720
2944,1732
2948,1744
2949,1759
2950,1775
2950,1794
2949,1815
2946,1839
2943,1866
2940,1895
2937,1922
2934,1947
2936,1922
" style="stroke:#000000;stroke-width:16;
stroke-linejoin:bevel; stroke-linecap:butt;
"/>
<!-- Arrowhead on XXXpoint 2934 1947 - 2923 2014-->
<polygon points="2902 1938
2924 2005
2964 1947
2902 1938

" style="stroke:#000000;stroke-width:8;stroke-miterlimit:8;
fill:#000000;"/>
<!-- Line -->
<polyline points="3212,2220
3212,2221
3215,2224
3220,2234
3229,2247
3239,2265
3249,2283
3258,2301
3267,2317
3273,2331
3277,2345
3280,2358
3283,2370
3285,2381
3285,2392
3285,2404
3283,2415
3281,2428
3279,2440
3275,2453
3271,2465
3266,2476
3259,2487
3252,2496
3245,2504
3236,2513
3228,2519
3216,2525
3204,2532
3189,2536
3173,2540
3156,2542
3139,2544
3121,2544
3103,2544
3086,2543
3069,2541
3054,2538
3039,2535
3026,2532
3015,2528
3003,2523
2992,2518
2980,2512
2970,2504
2959,2497
2950,2489
2940,2479
2933,2469
2927,2459
2921,2448
2916,2436
2913,2425
2910,2412
2909,2397
2908,2382
2908,2363
2909,2342
2911,2318
2914,2290
2917,2262
2920,2235
2923,2209
2920,2234
" style="stroke:#000000;stroke-width:16;
stroke-linejoin:bevel; stroke-linecap:butt;
stroke-dasharray:20 20;"/>
<!-- Arrowhead on XXXpoint 2923 2209 - 2933 2141-->
<polygon points="2954 2217
2932 2151
2892 2208
2954 2217

" style="stroke:#000000;stroke-width:8;stroke-miterlimit:8;
fill:#000000;"/>
<!-- Circle -->
<circle cx="3496" cy="1795" r="94"
 style="stroke:#000000;stroke-width:16;"/>
<!-- Text -->
<text xml:space="preserve" x="3496" y="1842" fill="#000000"  font-family="Helvetica" font-style="normal" font-weight="bold" font-size="114" text-anchor="middle">2</text>
<!-- Text -->
<text xml:space="preserve" x="3590" y="2173" fill="#000000"  font-family="Helvetica" font-style="normal" font-weight="bold" font-size="227" text-anchor="middle">T</text>
<!-- Text -->
<text xml:space="preserve" x="3685" y="2220" fill="#000000"  font-family="Helvetica" font-style="normal" font-weight="bold" font-size="152" text-anchor="middle">R</text>
<!-- Line -->
<polyline points="3779,2220
3874,2031
" style="stroke:#000000;stroke-width:8;
stroke-linejoin:miter; stroke-linecap:round;
"/>
<!-- Text -->
<text xml:space="preserve" x="3779" y="2125" fill="#000000"  font-family="Helvetica" font-style="normal" font-weight="bold" font-size="114" text-anchor="middle">1</text>
<!-- Text -->
<text xml:space="preserve" x="3874" y="2220" fill="#000000"  font-family="Helvetica" font-style="normal" font-weight="bold" font-size="114" text-anchor="middle">2</text>
<!-- Line: box -->
<rect x="3826" y="2267" width="188" height="188" rx="0" 
style="stroke:#000000;stroke-width:16;
stroke-linejoin:miter; stroke-linecap:butt;
"/>
<!-- Text -->
<text xml:space="preserve" x="3921" y="2409" fill="#000000"  font-family="Helvetica" font-style="normal" font-weight="bold" font-size="114" text-anchor="middle">3</text>
<!-- Circle -->
<circle cx="4582" cy="2220" r="94"
 style="stroke:#000000;stroke-width:16;"/>
<!-- Text -->
<text xml:space="preserve" x="4582" y="2267" fill="#000000"  font-family="Helvetica" font-style="normal" font-weight="bold" font-size="114" text-anchor="middle">2</text>
<!-- Line -->
<polyline points="4488,2125
4487,2124
4483,2120
4478,2113
4473,2102
4469,2092
4467,2082
4468,2073
4472,2062
4475,2057
4478,2052
4481,2047
4487,2041
4492,2036
4498,2031
4504,2026
4513,2022
4521,2017
4531,2014
4540,2011
4551,2010
4561,2009
4573,2009
4584,2011
4596,2014
4608,2017
4622,2024
4635,2030
4649,2038
4664,2048
4680,2058
4697,2071
4713,2085
4730,2099
4748,2116
4765,2132
4781,2149
4797,2166
4812,2183
4826,2200
4838,2217
4849,2233
4858,2247
4867,2262
4874,2276
4879,2289
4883,2304
4887,2317
4888,2329
4887,2342
4886,2353
4882,2365
4878,2374
4873,2384
4868,2391
4861,2398
4854,2404
4847,2409
4840,2412
4833,2415
4827,2417
4815,2417
4805,2416
4793,2412
4781,2406
4767,2396
4751,2385
4771,2402
" style="stroke:#000000;stroke-width:16;
stroke-linejoin:bevel; stroke-linecap:butt;
"/>
<!-- Arrowhead on XXXpoint 4751 2385 - 4700 2341-->
<polygon points="4775 2364
4707 2347
4734 2411
4775 2364

" style="stroke:#000000;stroke-width:8;stroke-miterlimit:8;
fill:#000000;"/>
<!-- Line: box -->
<rect x="4204" y="1842" width="188" height="188" rx="0" 
style="stroke:#000000;stroke-width:16;
stroke-linejoin:miter; stroke-linecap:butt;
"/>
<!-- Text -->
<text xml:space="preserve" x="4299" y="1984" fill="#000000"  font-family="Helvetica" font-style="normal" font-weight="bold" font-size="114" text-anchor="middle">3</text>
<!-- Line -->
<polyline points="4393,2031
4394,2032
4397,2036
4403,2044
4408,2054
4412,2065
4414,2074
4413,2083
4409,2094
4406,2099
4402,2106
4397,2112
4392,2117
4386,2123
4377,2130
4369,2135
4360,2139
4349,2143
4339,2145
4326,2148
4314,2148
4301,2146
4288,2143
4274,2139
4260,2134
4246,2127
4232,2118
4217,2109
4201,2098
4184,2086
4167,2072
4151,2057
4133,2040
4116,2025
4100,2008
4083,1990
4069,1973
4055,1956
4043,1940
4032,1924
4023,1909
4014,1895
4008,1882
4002,1868
3998,1856
3995,1844
3994,1833
3993,1821
3994,1811
3996,1800
3998,1791
4003,1782
4007,1774
4012,1766
4017,1760
4024,1755
4030,1751
4036,1746
4043,1743
4049,1741
4055,1740
4066,1739
4076,1740
4088,1744
4100,1751
4114,1760
4130,1772
4109,1754
" style="stroke:#000000;stroke-width:16;
stroke-linejoin:bevel; stroke-linecap:butt;
stroke-dasharray:20 20;"/>
<!-- Arrowhead on XXXpoint 4130 1772 - 4180 1815-->
<polygon points="4103 1791
4173 1808
4144 1743
4103 1791

" style="stroke:#000000;stroke-width:8;stroke-miterlimit:8;
fill:#000000;"/>
<!-- Line -->
<polyline points="4062,1559
3401,1559
" style="stroke:#000000;stroke-width:8;
stroke-linejoin:miter; stroke-linecap:butt;
"/>
<!-- Line -->
<polyline points="4913,1559
4251,1559
" style="stroke:#000000;stroke-width:8;
stroke-linejoin:miter; stroke-linecap:butt;
"/>
<!-- Line -->
<polyline points="4204,1511
4110,1511
4110,1606
" style="stroke:#000000;stroke-width:16;
stroke-linejoin:miter; stroke-linecap:butt;
"/>
<!-- Line -->
<polyline points="4913,2551
4913,2552
4912,2554
4910,2557
4907,2561
4901,2567
4895,2574
4888,2580
4879,2586
4869,2593
4857,2598
4844,2602
4828,2606
4811,2608
4792,2611
4770,2613
4745,2614
4717,2614
4695,2614
4671,2614
4646,2613
4620,2612
4592,2611
4562,2609
4531,2608
4498,2606
4465,2605
4430,2603
4394,2602
4359,2600
4322,2598
4286,2596
4250,2594
4215,2593
4180,2591
4146,2590
4114,2587
4082,2586
4053,2585
4025,2584
3998,2583
3973,2582
3950,2582
3929,2582
3900,2582
3875,2583
3853,2585
3834,2587
3817,2590
3801,2594
3787,2598
3776,2603
3765,2609
3757,2616
3750,2622
3743,2628
3738,2635
3735,2639
3733,2642
3732,2644
3732,2645
" style="stroke:#000000;stroke-width:16;
stroke-linejoin:bevel; stroke-linecap:round;
"/>
<!-- Line -->
<polyline points="2551,2551
2551,2552
2552,2554
2554,2557
2557,2561
2562,2567
2569,2574
2576,2580
2584,2586
2595,2593
2606,2598
2620,2602
2636,2606
2653,2608
2671,2611
2693,2613
2719,2614
2748,2614
2769,2614
2792,2614
2817,2613
2844,2612
2872,2611
2901,2609
2933,2608
2965,2606
2999,2605
3034,2603
3069,2602
3105,2600
3142,2598
3177,2596
3213,2594
3249,2593
3283,2591
3317,2590
3350,2587
3381,2586
3411,2585
3439,2584
3465,2583
3490,2582
3513,2582
3535,2582
3564,2582
3589,2583
3611,2585
3630,2587
3647,2590
3662,2594
3676,2598
3688,2603
3698,2609
3707,2616
3714,2622
3720,2628
3725,2635
3729,2639
3731,2642
3732,2644
3732,2645
" style="stroke:#000000;stroke-width:16;
stroke-linejoin:bevel; stroke-linecap:round;
"/>
<!-- Circle -->
<circle cx="3448" cy="826" r="118"
 style="stroke:#000000;stroke-width:16;"/>
<!-- Circle -->
<circle cx="3448" cy="1063" r="118"
 style="stroke:#000000;stroke-width:16;"/>
<!-- Circle -->
<circle cx="3921" cy="827" r="118"
 style="stroke:#000000;stroke-width:16;"/>
<!-- Circle -->
<circle cx="3921" cy="1063" r="117"
 style="stroke:#000000;stroke-width:16;"/>
<!-- Line -->
<polyline points="3637,850
3496,944
" style="stroke:#000000;stroke-width:16;
stroke-linejoin:miter; stroke-linecap:butt;
"/>
<!-- Line -->
<polyline points="3448,1228
3448,661
" style="stroke:#000000;stroke-width:16;
stroke-linejoin:miter; stroke-linecap:round;
"/>
<!-- Line -->
<polyline points="3921,661
3921,1228
" style="stroke:#000000;stroke-width:16;
stroke-linejoin:miter; stroke-linecap:round;
"/>
<!-- Line -->
<polyline points="3732,1039
3874,944
" style="stroke:#000000;stroke-width:16;
stroke-linejoin:miter; stroke-linecap:butt;
"/>
<!-- Circle -->
<circle cx="3921" cy="519" r="47"
 style="stroke:#000000;stroke-width:8;"/>
<!-- Circle -->
<circle cx="3919" cy="518" r="18"
 style="fill:#000000;stroke:#000000;stroke-width:8;"/>
<!-- Line -->
<polyline points="0,377
6094,377
" style="stroke:#000000;stroke-width:16;
stroke-linejoin:miter; stroke-linecap:butt;
"/>
<!-- Line -->
<polyline points="0,1464
6094,1464
" style="stroke:#000000;stroke-width:16;
stroke-linejoin:miter; stroke-linecap:butt;
"/>
<!-- Line -->
<polyline points="0,2692
6094,2692
" style="stroke:#000000;stroke-width:16;
stroke-linejoin:miter; stroke-linecap:butt;
"/>
<!-- Line: box -->
<rect x="0" y="0" width="6094" height="3826" rx="0" 
style="stroke:#000000;stroke-width:16;
stroke-linejoin:miter; stroke-linecap:butt;
"/>
<!-- Line -->
<polyline points="3070,377
3070,1464
" style="stroke:#000000;stroke-width:16;
stroke-linejoin:miter; stroke-linecap:butt;
"/>
<!-- Line -->
<polyline points="4251,377
4251,1464
" style="stroke:#000000;stroke-width:16;
stroke-linejoin:miter; stroke-linecap:butt;
stroke-dasharray:62 62;"/>
<!-- Line -->
<polyline points="3212,2692
3212,3826
" style="stroke:#000000;stroke-width:16;
stroke-linejoin:miter; stroke-linecap:butt;
stroke-dasharray:62 62;"/>
<!-- Line -->
<polyline points="2456,1464
2456,2692
" style="stroke:#000000;stroke-width:16;
stroke-linejoin:miter; stroke-linecap:butt;
stroke-dasharray:62 62;"/>
<!-- Text -->
<text xml:space="preserve" x="141" y="283" fill="#000000"  font-family="Helvetica" font-style="normal" font-weight="normal" font-size="227" text-anchor="start">Paddy Baa</text>
<!-- Text -->
<text xml:space="preserve" x="6000" y="283" fill="#000000"  font-family="Helvetica" font-style="normal" font-weight="normal" font-size="227" text-anchor="end">R32</text>
<!-- Text -->
<text xml:space="preserve" x="4724" y="1086" fill="#000000"  font-family="Helvetica" font-style="normal" font-weight="bold" font-size="152" text-anchor="middle">L</text>
</g>
</svg>
