<?xml version="1.0" standalone="no"?>
<!DOCTYPE svg PUBLIC "-//W3C//DTD SVG 1.1//EN"
"http://www.w3.org/Graphics/SVG/1.1/DTD/svg11.dtd">
<!-- Creator: fig2dev Version 3.2 Patchlevel 5d -->
<!-- CreationDate: Thu Feb 21 11:09:12 2013 -->
<!-- Magnification: 1.050 -->
<svg	xmlns="http://www.w3.org/2000/svg"
	xmlns:xlink="http://www.w3.org/1999/xlink"
	viewBox="-23 -23 6187 3164">
<g style="stroke-width:.025in; fill:none">
<!-- Text -->
<text xml:space="preserve" x="3968" y="283" fill="#000000"  font-family="Helvetica" font-style="normal" font-weight="normal" font-size="177" text-anchor="middle">(3 cpls.) Brown &#38; Norgate</text>
<!-- Text -->
<text xml:space="preserve" x="2503" y="1842" fill="#000000"  font-family="Helvetica" font-style="normal" font-weight="bold" font-size="114" text-anchor="middle">1</text>
<!-- Line: box -->
<rect x="2409" y="1370" width="188" height="188" rx="0" 
style="stroke:#000000;stroke-width:16;
stroke-linejoin:miter; stroke-linecap:butt;
"/>
<!-- Text -->
<text xml:space="preserve" x="2503" y="1511" fill="#000000"  font-family="Helvetica" font-style="normal" font-weight="bold" font-size="114" text-anchor="middle">1</text>
<!-- Circle -->
<circle cx="2078" cy="1464" r="94"
 style="stroke:#000000;stroke-width:16;"/>
<!-- Text -->
<text xml:space="preserve" x="2078" y="1511" fill="#000000"  font-family="Helvetica" font-style="normal" font-weight="bold" font-size="114" text-anchor="middle">X</text>
<!-- Line: box -->
<rect x="1748" y="1370" width="188" height="188" rx="0" 
style="stroke:#000000;stroke-width:16;
stroke-linejoin:miter; stroke-linecap:butt;
"/>
<!-- Text -->
<text xml:space="preserve" x="1842" y="1511" fill="#000000"  font-family="Helvetica" font-style="normal" font-weight="bold" font-size="114" text-anchor="middle">1</text>
<!-- Circle -->
<circle cx="4818" cy="1464" r="94"
 style="stroke:#000000;stroke-width:16;"/>
<!-- Text -->
<text xml:space="preserve" x="4818" y="1511" fill="#000000"  font-family="Helvetica" font-style="normal" font-weight="bold" font-size="114" text-anchor="middle">X</text>
<!-- Line: box -->
<rect x="4488" y="1370" width="188" height="188" rx="0" 
style="stroke:#000000;stroke-width:16;
stroke-linejoin:miter; stroke-linecap:butt;
"/>
<!-- Text -->
<text xml:space="preserve" x="4582" y="1511" fill="#000000"  font-family="Helvetica" font-style="normal" font-weight="bold" font-size="114" text-anchor="middle">1</text>
<!-- Text -->
<text xml:space="preserve" x="4677" y="1842" fill="#000000"  font-family="Helvetica" font-style="normal" font-weight="bold" font-size="227" text-anchor="middle">T</text>
<!-- Text -->
<text xml:space="preserve" x="4771" y="1889" fill="#000000"  font-family="Helvetica" font-style="normal" font-weight="bold" font-size="152" text-anchor="middle">L</text>
<!-- Circle -->
<circle cx="5858" cy="1889" r="94"
 style="stroke:#000000;stroke-width:16;"/>
<!-- Text -->
<text xml:space="preserve" x="5858" y="1937" fill="#000000"  font-family="Helvetica" font-style="normal" font-weight="bold" font-size="114" text-anchor="middle">1</text>
<!-- Circle -->
<circle cx="5574" cy="1889" r="94"
 style="stroke:#000000;stroke-width:16;"/>
<!-- Text -->
<text xml:space="preserve" x="5574" y="1937" fill="#000000"  font-family="Helvetica" font-style="normal" font-weight="bold" font-size="114" text-anchor="middle">3</text>
<!-- Circle -->
<circle cx="5291" cy="1889" r="94"
 style="stroke:#000000;stroke-width:16;"/>
<!-- Text -->
<text xml:space="preserve" x="5291" y="1937" fill="#000000"  font-family="Helvetica" font-style="normal" font-weight="bold" font-size="114" text-anchor="middle">2</text>
<!-- Line: box -->
<rect x="5196" y="1511" width="188" height="188" rx="0" 
style="stroke:#000000;stroke-width:16;
stroke-linejoin:miter; stroke-linecap:butt;
"/>
<!-- Text -->
<text xml:space="preserve" x="5291" y="1653" fill="#000000"  font-family="Helvetica" font-style="normal" font-weight="bold" font-size="114" text-anchor="middle">2</text>
<!-- Line: box -->
<rect x="5480" y="1511" width="188" height="188" rx="0" 
style="stroke:#000000;stroke-width:16;
stroke-linejoin:miter; stroke-linecap:butt;
"/>
<!-- Text -->
<text xml:space="preserve" x="5574" y="1653" fill="#000000"  font-family="Helvetica" font-style="normal" font-weight="bold" font-size="114" text-anchor="middle">3</text>
<!-- Line: box -->
<rect x="5763" y="1511" width="188" height="188" rx="0" 
style="stroke:#000000;stroke-width:16;
stroke-linejoin:miter; stroke-linecap:butt;
"/>
<!-- Text -->
<text xml:space="preserve" x="5858" y="1653" fill="#000000"  font-family="Helvetica" font-style="normal" font-weight="bold" font-size="114" text-anchor="middle">1</text>
<!-- Line -->
<polyline points="6000,1322
6001,1323
6004,1325
6008,1329
6013,1335
6018,1342
6024,1353
6028,1364
6032,1378
6034,1395
6037,1416
6039,1441
6039,1458
6040,1477
6041,1497
6043,1519
6043,1542
6044,1567
6044,1593
6045,1620
6045,1649
6045,1677
6045,1704
6045,1733
6044,1760
6044,1786
6043,1812
6043,1835
6041,1857
6040,1877
6039,1896
6039,1913
6037,1938
6034,1959
6032,1975
6028,1989
6024,2001
6018,2011
6013,2018
6008,2025
6004,2028
6001,2030
6000,2031
" style="stroke:#000000;stroke-width:16;
stroke-linejoin:bevel; stroke-linecap:butt;
"/>
<!-- Line -->
<polyline points="5102,1322
5101,1323
5098,1325
5093,1329
5088,1335
5083,1342
5078,1353
5074,1364
5069,1378
5067,1395
5064,1416
5063,1441
5062,1458
5061,1477
5060,1497
5059,1519
5059,1542
5058,1567
5058,1593
5057,1620
5057,1649
5057,1677
5057,1704
5057,1733
5058,1760
5058,1786
5059,1812
5059,1835
5060,1857
5061,1877
5062,1896
5063,1913
5064,1938
5067,1959
5069,1975
5074,1989
5078,2001
5083,2011
5088,2018
5093,2025
5098,2028
5101,2030
5102,2031
" style="stroke:#000000;stroke-width:16;
stroke-linejoin:bevel; stroke-linecap:butt;
"/>
<!-- Text -->
<text xml:space="preserve" x="5196" y="1464" fill="#000000"  font-family="Helvetica" font-style="normal" font-weight="bold" font-size="152" text-anchor="start">to</text>
<!-- Text -->
<text xml:space="preserve" x="5763" y="2692" fill="#000000"  font-family="Helvetica" font-style="normal" font-weight="bold" font-size="227" text-anchor="middle">T</text>
<!-- Text -->
<text xml:space="preserve" x="5858" y="2740" fill="#000000"  font-family="Helvetica" font-style="normal" font-weight="bold" font-size="152" text-anchor="middle">L</text>
<!-- Text -->
<text xml:space="preserve" x="5811" y="2362" fill="#000000"  font-family="Helvetica" font-style="normal" font-weight="bold" font-size="114" text-anchor="middle">all</text>
<!-- Line: box -->
<rect x="425" y="1370" width="188" height="188" rx="0" 
style="stroke:#000000;stroke-width:16;
stroke-linejoin:miter; stroke-linecap:butt;
"/>
<!-- Text -->
<text xml:space="preserve" x="519" y="1511" fill="#000000"  font-family="Helvetica" font-style="normal" font-weight="bold" font-size="114" text-anchor="middle">1</text>
<!-- Circle -->
<circle cx="330" cy="1795" r="94"
 style="stroke:#000000;stroke-width:16;"/>
<!-- Text -->
<text xml:space="preserve" x="330" y="1842" fill="#000000"  font-family="Helvetica" font-style="normal" font-weight="bold" font-size="114" text-anchor="middle">X</text>
<!-- Circle -->
<circle cx="992" cy="1795" r="94"
 style="stroke:#000000;stroke-width:16;"/>
<!-- Text -->
<text xml:space="preserve" x="992" y="1842" fill="#000000"  font-family="Helvetica" font-style="normal" font-weight="bold" font-size="114" text-anchor="middle">3</text>
<!-- Circle -->
<circle cx="708" cy="1795" r="94"
 style="stroke:#000000;stroke-width:16;"/>
<!-- Text -->
<text xml:space="preserve" x="708" y="1842" fill="#000000"  font-family="Helvetica" font-style="normal" font-weight="bold" font-size="114" text-anchor="middle">2</text>
<!-- Line: box -->
<rect x="3165" y="1370" width="188" height="188" rx="0" 
style="stroke:#000000;stroke-width:16;
stroke-linejoin:miter; stroke-linecap:butt;
"/>
<!-- Text -->
<text xml:space="preserve" x="3259" y="1511" fill="#000000"  font-family="Helvetica" font-style="normal" font-weight="bold" font-size="114" text-anchor="middle">1</text>
<!-- Circle -->
<circle cx="3070" cy="1795" r="94"
 style="stroke:#000000;stroke-width:16;"/>
<!-- Text -->
<text xml:space="preserve" x="3070" y="1842" fill="#000000"  font-family="Helvetica" font-style="normal" font-weight="bold" font-size="114" text-anchor="middle">X</text>
<!-- Circle -->
<circle cx="3732" cy="1795" r="94"
 style="stroke:#000000;stroke-width:16;"/>
<!-- Text -->
<text xml:space="preserve" x="3732" y="1842" fill="#000000"  font-family="Helvetica" font-style="normal" font-weight="bold" font-size="114" text-anchor="middle">3</text>
<!-- Circle -->
<circle cx="3448" cy="1795" r="94"
 style="stroke:#000000;stroke-width:16;"/>
<!-- Text -->
<text xml:space="preserve" x="3448" y="1842" fill="#000000"  font-family="Helvetica" font-style="normal" font-weight="bold" font-size="114" text-anchor="middle">2</text>
<!-- Circle -->
<circle cx="4204" cy="1795" r="94"
 style="stroke:#000000;stroke-width:16;"/>
<!-- Text -->
<text xml:space="preserve" x="4204" y="1842" fill="#000000"  font-family="Helvetica" font-style="normal" font-weight="bold" font-size="114" text-anchor="middle">1</text>
<!-- Circle -->
<circle cx="1464" cy="1795" r="94"
 style="stroke:#000000;stroke-width:16;"/>
<!-- Text -->
<text xml:space="preserve" x="1464" y="1842" fill="#000000"  font-family="Helvetica" font-style="normal" font-weight="bold" font-size="114" text-anchor="middle">1</text>
<!-- Line: box -->
<rect x="5196" y="661" width="188" height="188" rx="0" 
style="stroke:#000000;stroke-width:16;
stroke-linejoin:miter; stroke-linecap:butt;
"/>
<!-- Text -->
<text xml:space="preserve" x="5291" y="803" fill="#000000"  font-family="Helvetica" font-style="normal" font-weight="bold" font-size="114" text-anchor="middle">1</text>
<!-- Line: box -->
<rect x="5480" y="661" width="188" height="188" rx="0" 
style="stroke:#000000;stroke-width:16;
stroke-linejoin:miter; stroke-linecap:butt;
"/>
<!-- Text -->
<text xml:space="preserve" x="5574" y="803" fill="#000000"  font-family="Helvetica" font-style="normal" font-weight="bold" font-size="114" text-anchor="middle">2</text>
<!-- Line: box -->
<rect x="5763" y="661" width="188" height="188" rx="0" 
style="stroke:#000000;stroke-width:16;
stroke-linejoin:miter; stroke-linecap:butt;
"/>
<!-- Text -->
<text xml:space="preserve" x="5858" y="803" fill="#000000"  font-family="Helvetica" font-style="normal" font-weight="bold" font-size="114" text-anchor="middle">3</text>
<!-- Circle -->
<circle cx="5858" cy="1039" r="94"
 style="stroke:#000000;stroke-width:16;"/>
<!-- Text -->
<text xml:space="preserve" x="5858" y="1086" fill="#000000"  font-family="Helvetica" font-style="normal" font-weight="bold" font-size="114" text-anchor="middle">1</text>
<!-- Circle -->
<circle cx="5574" cy="1039" r="94"
 style="stroke:#000000;stroke-width:16;"/>
<!-- Text -->
<text xml:space="preserve" x="5574" y="1086" fill="#000000"  font-family="Helvetica" font-style="normal" font-weight="bold" font-size="114" text-anchor="middle">3</text>
<!-- Circle -->
<circle cx="5291" cy="1039" r="94"
 style="stroke:#000000;stroke-width:16;"/>
<!-- Text -->
<text xml:space="preserve" x="5291" y="1086" fill="#000000"  font-family="Helvetica" font-style="normal" font-weight="bold" font-size="114" text-anchor="middle">2</text>
<!-- Line -->
<polyline points="5102,472
5101,473
5098,475
5093,478
5088,485
5083,492
5078,502
5074,514
5069,528
5067,544
5064,565
5063,591
5062,607
5061,626
5060,646
5059,668
5059,691
5058,717
5058,743
5057,770
5057,798
5057,827
5057,854
5057,882
5058,910
5058,936
5059,961
5059,984
5060,1006
5061,1026
5062,1045
5063,1063
5064,1087
5067,1108
5069,1125
5074,1139
5078,1150
5083,1161
5088,1168
5093,1174
5098,1177
5101,1180
5102,1181
" style="stroke:#000000;stroke-width:16;
stroke-linejoin:bevel; stroke-linecap:butt;
"/>
<!-- Text -->
<text xml:space="preserve" x="5196" y="614" fill="#000000"  font-family="Helvetica" font-style="normal" font-weight="bold" font-size="152" text-anchor="start">to</text>
<!-- Circle -->
<circle cx="1842" cy="614" r="94"
 style="stroke:#000000;stroke-width:16;"/>
<!-- Text -->
<text xml:space="preserve" x="1842" y="661" fill="#000000"  font-family="Helvetica" font-style="normal" font-weight="bold" font-size="114" text-anchor="middle">1</text>
<!-- Line: box -->
<rect x="1984" y="519" width="188" height="188" rx="0" 
style="stroke:#000000;stroke-width:16;
stroke-linejoin:miter; stroke-linecap:butt;
"/>
<!-- Text -->
<text xml:space="preserve" x="2078" y="661" fill="#000000"  font-family="Helvetica" font-style="normal" font-weight="bold" font-size="114" text-anchor="middle">X</text>
<!-- Text -->
<text xml:space="preserve" x="1984" y="1039" fill="#000000"  font-family="Helvetica" font-style="normal" font-weight="bold" font-size="227" text-anchor="middle">S</text>
<!-- Circle -->
<circle cx="2503" cy="614" r="94"
 style="stroke:#000000;stroke-width:16;"/>
<!-- Text -->
<text xml:space="preserve" x="2503" y="661" fill="#000000"  font-family="Helvetica" font-style="normal" font-weight="bold" font-size="114" text-anchor="middle">1</text>
<!-- Arc -->
<path style="stroke:#000000;stroke-width:16;stroke-linecap:butt;"
d="M 2409,944 A 94 94  0  0  1  2598  944 " />
<!-- Arrowhead on XXXpoint 2590 906 - 2598 944-->
<polygon points="2573 907
2596 935
2604 900
2573 907

" style="stroke:#000000;stroke-width:8;stroke-miterlimit:8;
fill:#000000;"/>
<!-- Text -->
<text xml:space="preserve" x="2503" y="992" fill="#000000"  font-family="Helvetica" font-style="normal" font-weight="bold" font-size="114" text-anchor="middle">1</text>
<!-- Line: box -->
<rect x="236" y="850" width="188" height="188" rx="0" 
style="stroke:#000000;stroke-width:16;
stroke-linejoin:miter; stroke-linecap:butt;
"/>
<!-- Text -->
<text xml:space="preserve" x="330" y="992" fill="#000000"  font-family="Helvetica" font-style="normal" font-weight="bold" font-size="114" text-anchor="middle">X</text>
<!-- Circle -->
<circle cx="519" cy="614" r="94"
 style="stroke:#000000;stroke-width:16;"/>
<!-- Text -->
<text xml:space="preserve" x="519" y="661" fill="#000000"  font-family="Helvetica" font-style="normal" font-weight="bold" font-size="114" text-anchor="middle">1</text>
<!-- Circle -->
<circle cx="4582" cy="614" r="94"
 style="stroke:#000000;stroke-width:16;"/>
<!-- Text -->
<text xml:space="preserve" x="4582" y="661" fill="#000000"  font-family="Helvetica" font-style="normal" font-weight="bold" font-size="114" text-anchor="middle">1</text>
<!-- Line: box -->
<rect x="4724" y="519" width="188" height="188" rx="0" 
style="stroke:#000000;stroke-width:16;
stroke-linejoin:miter; stroke-linecap:butt;
"/>
<!-- Text -->
<text xml:space="preserve" x="4818" y="661" fill="#000000"  font-family="Helvetica" font-style="normal" font-weight="bold" font-size="114" text-anchor="middle">X</text>
<!-- Text -->
<text xml:space="preserve" x="4677" y="992" fill="#000000"  font-family="Helvetica" font-style="normal" font-weight="bold" font-size="227" text-anchor="middle">T</text>
<!-- Text -->
<text xml:space="preserve" x="4771" y="1039" fill="#000000"  font-family="Helvetica" font-style="normal" font-weight="bold" font-size="152" text-anchor="middle">R</text>
<!-- Line: box -->
<rect x="2976" y="850" width="188" height="188" rx="0" 
style="stroke:#000000;stroke-width:16;
stroke-linejoin:miter; stroke-linecap:butt;
"/>
<!-- Text -->
<text xml:space="preserve" x="3070" y="992" fill="#000000"  font-family="Helvetica" font-style="normal" font-weight="bold" font-size="114" text-anchor="middle">X</text>
<!-- Circle -->
<circle cx="3259" cy="614" r="94"
 style="stroke:#000000;stroke-width:16;"/>
<!-- Text -->
<text xml:space="preserve" x="3259" y="661" fill="#000000"  font-family="Helvetica" font-style="normal" font-weight="bold" font-size="114" text-anchor="middle">1</text>
<!-- Line: box -->
<rect x="614" y="850" width="188" height="188" rx="0" 
style="stroke:#000000;stroke-width:16;
stroke-linejoin:miter; stroke-linecap:butt;
"/>
<!-- Text -->
<text xml:space="preserve" x="708" y="992" fill="#000000"  font-family="Helvetica" font-style="normal" font-weight="bold" font-size="114" text-anchor="middle">1</text>
<!-- Line: box -->
<rect x="897" y="850" width="188" height="188" rx="0" 
style="stroke:#000000;stroke-width:16;
stroke-linejoin:miter; stroke-linecap:butt;
"/>
<!-- Text -->
<text xml:space="preserve" x="992" y="992" fill="#000000"  font-family="Helvetica" font-style="normal" font-weight="bold" font-size="114" text-anchor="middle">2</text>
<!-- Line: box -->
<rect x="1370" y="850" width="188" height="188" rx="0" 
style="stroke:#000000;stroke-width:16;
stroke-linejoin:miter; stroke-linecap:butt;
"/>
<!-- Text -->
<text xml:space="preserve" x="1464" y="992" fill="#000000"  font-family="Helvetica" font-style="normal" font-weight="bold" font-size="114" text-anchor="middle">3</text>
<!-- Line: box -->
<rect x="3354" y="850" width="188" height="188" rx="0" 
style="stroke:#000000;stroke-width:16;
stroke-linejoin:miter; stroke-linecap:butt;
"/>
<!-- Text -->
<text xml:space="preserve" x="3448" y="992" fill="#000000"  font-family="Helvetica" font-style="normal" font-weight="bold" font-size="114" text-anchor="middle">1</text>
<!-- Line: box -->
<rect x="3637" y="850" width="188" height="188" rx="0" 
style="stroke:#000000;stroke-width:16;
stroke-linejoin:miter; stroke-linecap:butt;
"/>
<!-- Text -->
<text xml:space="preserve" x="3732" y="992" fill="#000000"  font-family="Helvetica" font-style="normal" font-weight="bold" font-size="114" text-anchor="middle">2</text>
<!-- Line: box -->
<rect x="4110" y="850" width="188" height="188" rx="0" 
style="stroke:#000000;stroke-width:16;
stroke-linejoin:miter; stroke-linecap:butt;
"/>
<!-- Text -->
<text xml:space="preserve" x="4204" y="992" fill="#000000"  font-family="Helvetica" font-style="normal" font-weight="bold" font-size="114" text-anchor="middle">3</text>
<!-- Circle -->
<circle cx="850" cy="2740" r="94"
 style="stroke:#000000;stroke-width:16;"/>
<!-- Text -->
<text xml:space="preserve" x="850" y="2787" fill="#000000"  font-family="Helvetica" font-style="normal" font-weight="bold" font-size="114" text-anchor="middle">1</text>
<!-- Line: box -->
<rect x="755" y="2362" width="188" height="188" rx="0" 
style="stroke:#000000;stroke-width:16;
stroke-linejoin:miter; stroke-linecap:butt;
"/>
<!-- Text -->
<text xml:space="preserve" x="850" y="2503" fill="#000000"  font-family="Helvetica" font-style="normal" font-weight="bold" font-size="114" text-anchor="middle">1</text>
<!-- Line -->
<polyline points="850,2645
850,2551
" style="stroke:#000000;stroke-width:16;
stroke-linejoin:miter; stroke-linecap:butt;
"/>
<!-- Line -->
<polyline points="850,2362
850,2358
851,2350
852,2338
853,2321
854,2302
853,2283
851,2265
847,2249
841,2236
833,2224
823,2214
810,2204
795,2197
782,2191
768,2186
752,2182
737,2178
718,2174
699,2171
679,2169
658,2167
636,2167
614,2167
592,2170
570,2172
549,2176
529,2181
510,2187
491,2195
475,2203
459,2213
446,2223
433,2236
422,2249
411,2265
403,2283
396,2303
390,2326
385,2352
381,2382
379,2415
376,2452
374,2491
374,2533
373,2575
374,2615
374,2653
375,2684
376,2708
375,2677
" style="stroke:#000000;stroke-width:16;
stroke-linejoin:bevel; stroke-linecap:round;
stroke-dasharray:20 20;"/>
<!-- Arrowhead on XXXpoint 376 2708 - 377 2770-->
<polygon points="344 2698
377 2761
407 2697
344 2698

" style="stroke:#000000;stroke-width:8;stroke-miterlimit:8;
fill:#000000;"/>
<!-- Line -->
<polyline points="377,2362
377,2393
" style="stroke:#000000;stroke-width:16;
stroke-linejoin:bevel; stroke-linecap:round;
stroke-dasharray:20 20;"/>
<!-- Arrowhead on XXXpoint 377 2362 - 377 2488-->
<polygon points="346 2415
377 2478
409 2415
346 2415

" style="stroke:#000000;stroke-width:8;stroke-miterlimit:8;
fill:#000000;"/>
<!-- Text -->
<text xml:space="preserve" x="188" y="2503" fill="#000000"  font-family="Helvetica" font-style="normal" font-weight="bold" font-size="114" text-anchor="middle">2</text>
<!-- Text -->
<text xml:space="preserve" x="188" y="2787" fill="#000000"  font-family="Helvetica" font-style="normal" font-weight="bold" font-size="114" text-anchor="middle">2</text>
<!-- Text -->
<text xml:space="preserve" x="566" y="2787" fill="#000000"  font-family="Helvetica" font-style="normal" font-weight="bold" font-size="114" text-anchor="middle">3</text>
<!-- Text -->
<text xml:space="preserve" x="566" y="2503" fill="#000000"  font-family="Helvetica" font-style="normal" font-weight="bold" font-size="114" text-anchor="middle">3</text>
<!-- Line: box -->
<rect x="1275" y="2314" width="188" height="188" rx="0" 
style="stroke:#000000;stroke-width:16;
stroke-linejoin:miter; stroke-linecap:butt;
"/>
<!-- Text -->
<text xml:space="preserve" x="1370" y="2456" fill="#000000"  font-family="Helvetica" font-style="normal" font-weight="bold" font-size="114" text-anchor="middle">1</text>
<!-- Circle -->
<circle cx="1370" cy="2740" r="94"
 style="stroke:#000000;stroke-width:16;"/>
<!-- Text -->
<text xml:space="preserve" x="1370" y="2787" fill="#000000"  font-family="Helvetica" font-style="normal" font-weight="bold" font-size="114" text-anchor="middle">1</text>
<!-- Line -->
<polyline points="1228,2314
1226,2316
1222,2319
1215,2324
1209,2331
1203,2341
1197,2352
1194,2367
1191,2386
1189,2409
1187,2425
1186,2441
1186,2459
1185,2479
1184,2501
1184,2524
1183,2549
1183,2573
1183,2598
1183,2623
1183,2647
1184,2671
1184,2695
1185,2717
1186,2737
1186,2754
1187,2771
1189,2787
1191,2810
1194,2829
1197,2844
1203,2855
1209,2865
1215,2872
1222,2877
1226,2880
1228,2881
" style="stroke:#000000;stroke-width:16;
stroke-linejoin:bevel; stroke-linecap:butt;
"/>
<!-- Line -->
<polyline points="2834,2314
2836,2316
2840,2319
2847,2324
2853,2331
2859,2341
2865,2352
2868,2367
2871,2386
2874,2409
2875,2425
2876,2441
2876,2459
2877,2479
2878,2501
2878,2524
2879,2549
2879,2573
2879,2598
2879,2623
2879,2647
2878,2671
2878,2695
2877,2717
2876,2737
2876,2754
2875,2771
2874,2787
2871,2810
2868,2829
2865,2844
2859,2855
2853,2865
2847,2872
2840,2877
2836,2880
2834,2881
" style="stroke:#000000;stroke-width:16;
stroke-linejoin:bevel; stroke-linecap:butt;
"/>
<!-- Text -->
<text xml:space="preserve" x="1511" y="2456" fill="#000000"  font-family="Helvetica" font-style="normal" font-weight="normal" font-size="139" text-anchor="start">choose 2s or 3s</text>
<!-- Text -->
<text xml:space="preserve" x="1511" y="2787" fill="#000000"  font-family="Helvetica" font-style="normal" font-weight="normal" font-size="139" text-anchor="start">choose 2s or 3s</text>
<!-- Text -->
<text xml:space="preserve" x="4582" y="2503" fill="#000000"  font-family="Helvetica" font-style="normal" font-weight="bold" font-size="114" text-anchor="middle">2</text>
<!-- Text -->
<text xml:space="preserve" x="4582" y="2787" fill="#000000"  font-family="Helvetica" font-style="normal" font-weight="bold" font-size="114" text-anchor="middle">2</text>
<!-- Line: box -->
<rect x="4818" y="2645" width="188" height="188" rx="0" 
style="stroke:#000000;stroke-width:16;
stroke-linejoin:miter; stroke-linecap:butt;
"/>
<!-- Text -->
<text xml:space="preserve" x="4913" y="2787" fill="#000000"  font-family="Helvetica" font-style="normal" font-weight="bold" font-size="114" text-anchor="middle">1</text>
<!-- Circle -->
<circle cx="4913" cy="2456" r="94"
 style="stroke:#000000;stroke-width:16;"/>
<!-- Text -->
<text xml:space="preserve" x="4913" y="2503" fill="#000000"  font-family="Helvetica" font-style="normal" font-weight="bold" font-size="114" text-anchor="middle">1</text>
<!-- Line -->
<polyline points="4913,2645
4913,2551
" style="stroke:#000000;stroke-width:16;
stroke-linejoin:miter; stroke-linecap:butt;
"/>
<!-- Text -->
<text xml:space="preserve" x="5244" y="2787" fill="#000000"  font-family="Helvetica" font-style="normal" font-weight="bold" font-size="114" text-anchor="middle">3</text>
<!-- Text -->
<text xml:space="preserve" x="5244" y="2503" fill="#000000"  font-family="Helvetica" font-style="normal" font-weight="bold" font-size="114" text-anchor="middle">3</text>
<!-- Line -->
<polyline points="4913,2834
4913,2838
4912,2846
4911,2858
4910,2875
4909,2894
4910,2913
4912,2931
4916,2946
4921,2960
4930,2972
4940,2982
4953,2992
4969,3000
4981,3005
4995,3009
5011,3014
5026,3018
5045,3022
5064,3025
5084,3027
5105,3028
5127,3028
5149,3028
5171,3026
5193,3024
5214,3020
5234,3015
5253,3008
5272,3001
5288,2993
5303,2983
5317,2973
5331,2960
5341,2946
5352,2931
5360,2913
5366,2893
5373,2870
5378,2844
5382,2814
5384,2781
5386,2744
5388,2705
5388,2663
5390,2621
5388,2581
5388,2543
5387,2512
5386,2488
5386,2518
" style="stroke:#000000;stroke-width:16;
stroke-linejoin:bevel; stroke-linecap:round;
stroke-dasharray:20 20;"/>
<!-- Arrowhead on XXXpoint 5386 2488 - 5384 2425-->
<polygon points="5417 2495
5384 2434
5355 2497
5417 2495

" style="stroke:#000000;stroke-width:8;stroke-miterlimit:8;
fill:#000000;"/>
<!-- Line -->
<polyline points="5385,2834
5385,2802
" style="stroke:#000000;stroke-width:16;
stroke-linejoin:bevel; stroke-linecap:round;
stroke-dasharray:20 20;"/>
<!-- Arrowhead on XXXpoint 5385 2834 - 5385 2708-->
<polygon points="5417 2781
5385 2718
5354 2781
5417 2781

" style="stroke:#000000;stroke-width:8;stroke-miterlimit:8;
fill:#000000;"/>
<!-- Text -->
<text xml:space="preserve" x="3070" y="2503" fill="#000000"  font-family="Helvetica" font-style="normal" font-weight="bold" font-size="114" text-anchor="middle">2</text>
<!-- Text -->
<text xml:space="preserve" x="3070" y="2787" fill="#000000"  font-family="Helvetica" font-style="normal" font-weight="bold" font-size="114" text-anchor="middle">2</text>
<!-- Circle -->
<circle cx="3685" cy="2740" r="94"
 style="stroke:#000000;stroke-width:16;"/>
<!-- Text -->
<text xml:space="preserve" x="3685" y="2787" fill="#000000"  font-family="Helvetica" font-style="normal" font-weight="bold" font-size="114" text-anchor="middle">1</text>
<!-- Line: box -->
<rect x="3590" y="2362" width="188" height="188" rx="0" 
style="stroke:#000000;stroke-width:16;
stroke-linejoin:miter; stroke-linecap:butt;
"/>
<!-- Text -->
<text xml:space="preserve" x="3685" y="2503" fill="#000000"  font-family="Helvetica" font-style="normal" font-weight="bold" font-size="114" text-anchor="middle">1</text>
<!-- Text -->
<text xml:space="preserve" x="4299" y="2787" fill="#000000"  font-family="Helvetica" font-style="normal" font-weight="bold" font-size="114" text-anchor="middle">3</text>
<!-- Text -->
<text xml:space="preserve" x="4299" y="2503" fill="#000000"  font-family="Helvetica" font-style="normal" font-weight="bold" font-size="114" text-anchor="middle">3</text>
<!-- Line -->
<polyline points="3685,2834
3685,2881
" style="stroke:#000000;stroke-width:16;
stroke-linejoin:miter; stroke-linecap:butt;
"/>
<!-- Line -->
<polyline points="3685,2551
3685,2598
" style="stroke:#000000;stroke-width:16;
stroke-linejoin:miter; stroke-linecap:butt;
"/>
<!-- Text -->
<text xml:space="preserve" x="3354" y="2692" fill="#000000"  font-family="Helvetica" font-style="normal" font-weight="bold" font-size="227" text-anchor="middle">RA</text>
<!-- Text -->
<text xml:space="preserve" x="4015" y="2692" fill="#000000"  font-family="Helvetica" font-style="normal" font-weight="bold" font-size="227" text-anchor="middle">LA</text>
<!-- Line -->
<polyline points="47,377
6141,377
" style="stroke:#000000;stroke-width:16;
stroke-linejoin:miter; stroke-linecap:butt;
"/>
<!-- Line -->
<polyline points="47,1228
6141,1228
" style="stroke:#000000;stroke-width:16;
stroke-linejoin:miter; stroke-linecap:butt;
"/>
<!-- Line -->
<polyline points="2740,1228
2740,2078
" style="stroke:#000000;stroke-width:16;
stroke-linejoin:miter; stroke-linecap:butt;
stroke-dasharray:41 41;"/>
<!-- Line -->
<polyline points="0,2078
6094,2078
" style="stroke:#000000;stroke-width:16;
stroke-linejoin:miter; stroke-linecap:butt;
"/>
<!-- Line: box -->
<rect x="47" y="0" width="6094" height="3118" rx="0" 
style="stroke:#000000;stroke-width:16;
stroke-linejoin:miter; stroke-linecap:butt;
"/>
<!-- Line -->
<polyline points="2740,377
2740,1228
" style="stroke:#000000;stroke-width:16;
stroke-linejoin:miter; stroke-linecap:butt;
stroke-dasharray:41 41;"/>
<!-- Line -->
<polyline points="1086,2078
1086,3118
" style="stroke:#000000;stroke-width:16;
stroke-linejoin:miter; stroke-linecap:butt;
stroke-dasharray:41 41;"/>
<!-- Line -->
<polyline points="5527,2078
5527,3118
" style="stroke:#000000;stroke-width:16;
stroke-linejoin:miter; stroke-linecap:butt;
stroke-dasharray:41 41;"/>
<!-- Line -->
<polyline points="4440,2078
4440,3118
" style="stroke:#000000;stroke-width:16;
stroke-linejoin:miter; stroke-linecap:butt;
"/>
<!-- Line -->
<polyline points="188,1370
186,1371
182,1374
176,1379
170,1386
163,1396
158,1407
155,1422
152,1441
150,1464
148,1480
146,1497
146,1514
145,1534
144,1556
144,1580
143,1604
143,1628
143,1653
143,1678
143,1702
144,1727
144,1750
145,1772
146,1792
146,1809
148,1826
150,1842
152,1865
155,1884
158,1899
163,1910
170,1920
176,1927
182,1932
186,1935
188,1937
" style="stroke:#000000;stroke-width:16;
stroke-linejoin:bevel; stroke-linecap:butt;
"/>
<!-- Line -->
<polyline points="1606,1370
1608,1371
1612,1374
1618,1379
1625,1386
1631,1396
1636,1407
1639,1422
1643,1441
1646,1464
1647,1480
1648,1497
1648,1514
1649,1534
1650,1556
1650,1580
1651,1604
1651,1628
1651,1653
1651,1678
1651,1702
1650,1727
1650,1750
1649,1772
1648,1792
1648,1809
1647,1826
1646,1842
1643,1865
1639,1884
1636,1899
1631,1910
1625,1920
1618,1927
1612,1932
1608,1935
1606,1937
" style="stroke:#000000;stroke-width:16;
stroke-linejoin:bevel; stroke-linecap:butt;
"/>
<!-- Line -->
<polyline points="2929,1370
2927,1371
2922,1374
2916,1379
2910,1386
2903,1396
2898,1407
2895,1422
2892,1441
2890,1464
2888,1480
2887,1497
2887,1514
2886,1534
2885,1556
2885,1580
2883,1604
2883,1628
2883,1653
2883,1678
2883,1702
2885,1727
2885,1750
2886,1772
2887,1792
2887,1809
2888,1826
2890,1842
2892,1865
2895,1884
2898,1899
2903,1910
2910,1920
2916,1927
2922,1932
2927,1935
2929,1937
" style="stroke:#000000;stroke-width:16;
stroke-linejoin:bevel; stroke-linecap:butt;
"/>
<!-- Line -->
<polyline points="4346,1370
4348,1371
4352,1374
4359,1379
4365,1386
4371,1396
4376,1407
4380,1422
4383,1441
4386,1464
4387,1480
4388,1497
4388,1514
4389,1534
4390,1556
4390,1580
4391,1604
4391,1628
4391,1653
4391,1678
4391,1702
4390,1727
4390,1750
4389,1772
4388,1792
4388,1809
4387,1826
4386,1842
4383,1865
4380,1884
4376,1899
4371,1910
4365,1920
4359,1927
4352,1932
4348,1935
4346,1937
" style="stroke:#000000;stroke-width:16;
stroke-linejoin:bevel; stroke-linecap:butt;
"/>
<!-- Line -->
<polyline points="6000,472
6001,473
6004,475
6008,478
6013,485
6018,492
6024,502
6028,514
6032,528
6034,544
6037,565
6039,591
6039,607
6040,626
6041,646
6043,668
6043,691
6044,717
6044,743
6045,770
6045,798
6045,827
6045,854
6045,882
6044,910
6044,936
6043,961
6043,984
6041,1006
6040,1026
6039,1045
6039,1063
6037,1087
6034,1108
6032,1125
6028,1139
6024,1150
6018,1161
6013,1168
6008,1174
6004,1177
6001,1180
6000,1181
" style="stroke:#000000;stroke-width:16;
stroke-linejoin:bevel; stroke-linecap:butt;
"/>
<!-- Line -->
<polyline points="188,519
186,520
182,523
176,529
170,536
163,545
158,557
155,572
152,591
150,614
148,629
146,646
146,664
145,684
144,706
144,729
143,753
143,777
143,803
143,828
143,852
144,876
144,899
145,921
146,941
146,959
148,976
150,992
152,1015
155,1034
158,1048
163,1060
170,1069
176,1077
182,1082
186,1085
188,1086
" style="stroke:#000000;stroke-width:16;
stroke-linejoin:bevel; stroke-linecap:butt;
"/>
<!-- Line -->
<polyline points="1606,519
1608,520
1612,523
1618,529
1625,536
1631,545
1636,557
1639,572
1643,591
1646,614
1647,629
1648,646
1648,664
1649,684
1650,706
1650,729
1651,753
1651,777
1651,803
1651,828
1651,852
1650,876
1650,899
1649,921
1648,941
1648,959
1647,976
1646,992
1643,1015
1639,1034
1636,1048
1631,1060
1625,1069
1618,1077
1612,1082
1608,1085
1606,1086
" style="stroke:#000000;stroke-width:16;
stroke-linejoin:bevel; stroke-linecap:butt;
"/>
<!-- Line -->
<polyline points="2929,519
2927,520
2922,523
2916,529
2910,536
2903,545
2898,557
2895,572
2892,591
2890,614
2888,629
2887,646
2887,664
2886,684
2885,706
2885,729
2883,753
2883,777
2883,803
2883,828
2883,852
2885,876
2885,899
2886,921
2887,941
2887,959
2888,976
2890,992
2892,1015
2895,1034
2898,1048
2903,1060
2910,1069
2916,1077
2922,1082
2927,1085
2929,1086
" style="stroke:#000000;stroke-width:16;
stroke-linejoin:bevel; stroke-linecap:butt;
"/>
<!-- Line -->
<polyline points="4346,519
4348,520
4352,523
4359,529
4365,536
4371,545
4376,557
4380,572
4383,591
4386,614
4387,629
4388,646
4388,664
4389,684
4390,706
4390,729
4391,753
4391,777
4391,803
4391,828
4391,852
4390,876
4390,899
4389,921
4388,941
4388,959
4387,976
4386,992
4383,1015
4380,1034
4376,1048
4371,1060
4365,1069
4359,1077
4352,1082
4348,1085
4346,1086
" style="stroke:#000000;stroke-width:16;
stroke-linejoin:bevel; stroke-linecap:butt;
"/>
<!-- Text -->
<text xml:space="preserve" x="1984" y="1889" fill="#000000"  font-family="Helvetica" font-style="normal" font-weight="bold" font-size="227" text-anchor="middle">S</text>
<!-- Text -->
<text xml:space="preserve" x="519" y="1842" fill="#000000"  font-family="Helvetica" font-style="normal" font-weight="bold" font-size="152" text-anchor="middle">=</text>
<!-- Text -->
<text xml:space="preserve" x="850" y="1842" fill="#000000"  font-family="Helvetica" font-style="normal" font-weight="bold" font-size="152" text-anchor="middle">,</text>
<!-- Text -->
<text xml:space="preserve" x="3259" y="1842" fill="#000000"  font-family="Helvetica" font-style="normal" font-weight="bold" font-size="152" text-anchor="middle">=</text>
<!-- Text -->
<text xml:space="preserve" x="3590" y="1842" fill="#000000"  font-family="Helvetica" font-style="normal" font-weight="bold" font-size="152" text-anchor="middle">,</text>
<!-- Text -->
<text xml:space="preserve" x="188" y="283" fill="#000000"  font-family="Helvetica" font-style="normal" font-weight="normal" font-size="202" text-anchor="start">Malcolm's Choices</text>
<!-- Text -->
<text xml:space="preserve" x="6047" y="283" fill="#000000"  font-family="Helvetica" font-style="normal" font-weight="normal" font-size="202" text-anchor="end">R32</text>
<!-- Text -->
<text xml:space="preserve" x="519" y="992" fill="#000000"  font-family="Helvetica" font-style="normal" font-weight="bold" font-size="152" text-anchor="middle">=</text>
<!-- Text -->
<text xml:space="preserve" x="3259" y="992" fill="#000000"  font-family="Helvetica" font-style="normal" font-weight="bold" font-size="152" text-anchor="middle">=</text>
<!-- Text -->
<text xml:space="preserve" x="3496" y="1559" fill="#000000"  font-family="Helvetica" font-style="normal" font-weight="normal" font-size="152" text-anchor="start">choose</text>
<!-- Text -->
<text xml:space="preserve" x="3496" y="708" fill="#000000"  font-family="Helvetica" font-style="normal" font-weight="normal" font-size="152" text-anchor="start">choose</text>
<!-- Text -->
<text xml:space="preserve" x="755" y="708" fill="#000000"  font-family="Helvetica" font-style="normal" font-weight="normal" font-size="152" text-anchor="start">choose</text>
<!-- Text -->
<text xml:space="preserve" x="755" y="1559" fill="#000000"  font-family="Helvetica" font-style="normal" font-weight="normal" font-size="152" text-anchor="start">choose</text>
<!-- Text -->
<text xml:space="preserve" x="1228" y="1842" fill="#000000"  font-family="Helvetica" font-style="normal" font-weight="normal" font-size="152" text-anchor="middle">or</text>
<!-- Text -->
<text xml:space="preserve" x="3968" y="1842" fill="#000000"  font-family="Helvetica" font-style="normal" font-weight="normal" font-size="152" text-anchor="middle">or</text>
<!-- Text -->
<text xml:space="preserve" x="850" y="992" fill="#000000"  font-family="Helvetica" font-style="normal" font-weight="bold" font-size="152" text-anchor="middle">,</text>
<!-- Text -->
<text xml:space="preserve" x="3590" y="992" fill="#000000"  font-family="Helvetica" font-style="normal" font-weight="bold" font-size="152" text-anchor="middle">,</text>
<!-- Text -->
<text xml:space="preserve" x="3968" y="992" fill="#000000"  font-family="Helvetica" font-style="normal" font-weight="normal" font-size="152" text-anchor="middle">or</text>
<!-- Text -->
<text xml:space="preserve" x="1228" y="992" fill="#000000"  font-family="Helvetica" font-style="normal" font-weight="normal" font-size="152" text-anchor="middle">or</text>
<!-- Arc -->
<path style="stroke:#000000;stroke-width:16;stroke-linecap:butt;"
d="M 2409,1795 A 94 94  0  0  1  2598  1795 " />
<!-- Arrowhead on XXXpoint 2590 1756 - 2598 1795-->
<polygon points="2573 1757
2596 1785
2604 1751
2573 1757

" style="stroke:#000000;stroke-width:8;stroke-miterlimit:8;
fill:#000000;"/>
</g>
</svg>
