<?xml version="1.0" encoding="UTF-8"?>
<!-- Created with Inkscape (http://www.inkscape.org/) -->
<svg width="716" height="309" version="1.1" viewBox="0 0 716 309" xmlns="http://www.w3.org/2000/svg" xmlns:cc="http://creativecommons.org/ns#" xmlns:dc="http://purl.org/dc/elements/1.1/" xmlns:rdf="http://www.w3.org/1999/02/22-rdf-syntax-ns#">
 <metadata>
  <rdf:RDF>
   <cc:Work rdf:about="">
    <dc:format>image/svg+xml</dc:format>
    <dc:type rdf:resource="http://purl.org/dc/dcmitype/StillImage"/>
    <dc:title/>
   </cc:Work>
  </rdf:RDF>
 </metadata>
 <path d="m8.4948 155.99v-147.5h701v295h-701zm40.5 143.6-3-0.66383 2.5-1.5771c4.3712-2.7575 12.22-6.8586 13.126-6.8586 1.8302 0 0.76127 2.0007-1.876 3.5113-2.7381 1.5684-2.7299 1.5726 1.9113 0.98396 2.5637-0.32518 4.9236-0.16681 5.2443 0.35195 0.70048 1.1334-1.6611 2.1528-4.9874 2.1528-3.7787 0-2.8359 1.6693 1.3318 2.3582 2.0625 0.34091 66.173 0.62479 142.47 0.63084 122.9 0.01 138.65-0.16007 138.14-1.489-0.67764-1.7659 0.7512-1.9872 2.3712-0.36722 1.4196 1.4196 4.2672 0.41343 4.2672-1.5078 0-0.9467-0.6849-1.2586-2.0053-0.91336-2.8832 0.75397-4.9947-1.4492-4.9947-5.2116 0-4.0101 1.6769-5.5156 5.8189-5.2238l3.1771 0.2238 2e-3 6.05c1e-3 3.3749-0.52861 6.5806-1.198 7.25-0.93333 0.93333 15.067 1.2 72 1.2h73.2v-125h-29c-25.111 0-29 0.20115-29 1.5 0 1.0175-1.0185 1.5-3.1667 1.5-4.0442 0-2.9639 1.1311 1.8235 1.9092 2.0234 0.32889 3.8775 1.1938 4.1203 1.922 0.345 1.035-0.61937 1.1802-4.4179 0.66499l-4.8592-0.65905 2.845 1.9637c1.7658 1.2188 2.4267 2.2222 1.7422 2.6452-0.6065 0.37483-4.5178-1.2597-8.6917-3.6323-8.48-4.8203-8.6386-4.4804 3.1045-6.6525 3.2155-0.59477-32.118-0.9539-99-1.0062-57.2-0.0448-105.58 0.28434-107.5 0.73136l-3.5 0.81277 4 0.73219c10.173 1.8621 14.124 3.5963 20.75 9.1066 3.7125 3.0874 6.75 6.0714 6.75 6.6309s-2.2854-0.93702-5.0786-3.3257c-7.7961-6.667-11.518-8.8185-17.083-9.8738-8.7056-1.651-9.8667-1.2149-4.588 1.7232 2.6125 1.4541 4.75 3.0447 4.75 3.5347 0 0.48997-0.3375 0.70388-0.75 0.47535-0.4125-0.22852-4.125-2.3694-8.25-4.7574-6.8845-3.9856-7.2948-4.3995-5-5.0438 1.375-0.38605-44.412-0.74678-101.75-0.8016l-104.25-0.0997v125l20.75-0.11831c11.412-0.0651 19.4-0.41705 17.75-0.78216zm217.5-5.0995c-1.2968-2.4232-0.30869-2.5893 2.1525-0.36199 1.4756 1.3354 2.0906 1.4051 3.3287 0.37756 2.1287-1.7666 1.8905-4.1056-0.48124-4.7258-2.3306-0.60947-2.6975-2.2898-0.5-2.2898 0.83333 0 1.5-0.88889 1.5-2 0-2.255-2.8671-2.7329-4.8-0.8-0.78182 0.78182-1.2 0.82449-1.2 0.12244 0-2.3985 2.9443-3.6689 5.6481-2.4369 2.147 0.97825 2.4926 1.6611 2.0246 4.0012-0.31038 1.5519-0.0609 3.325 0.55438 3.9403 0.82494 0.82494 0.81635 1.7823-0.0327 3.6458-1.4735 3.234-6.5702 3.5619-8.1943 0.52713zm10 1.5578c0-1.8998 4.1804-14.711 4.6478-14.243 0.63564 0.63563-2.645 12.851-3.7965 14.136-0.46822 0.5225-0.85131 0.57102-0.85131 0.10781zm12-1.5578c0-1.5556-0.66667-2-3-2-1.65 0-2.9888-0.3375-2.9752-0.75 0.0136-0.4125 1.7011-3 3.75-5.75l3.7252-5 0.30226 5.25c0.16624 2.8875 0.6864 5.25 1.1559 5.25 0.46952 0 0.3335 1.1215-0.30226 2.4922-1.3942 3.0059-2.6559 3.2471-2.6559 0.5078zm-0.0153-6.25c-0.0157-3.331-0.39467-3.1448-3.0534 1.5-0.81369 1.4215-0.61972 1.75 1.0335 1.75 1.6326 0 2.0322-0.64292 2.0199-3.25zm12.328 5.6042c-1.5238-2.3256-1.5436-2.8488-0.19744-5.2194 1.0493-1.8479 2.3008-2.623 4.1905-2.5954 2.1722 0.0318 2.6944-0.41574 2.6944-2.309 0-1.311 0.44176-2.0754 1-1.7304 0.55 0.33992 1 3.6686 1 7.397v6.779l-3.497 0.13147c-2.7385 0.10294-3.8643-0.42916-5.1905-2.4532zm5.6418 0.20084c1.874-2.258 0.89204-6.0058-1.669-6.37-1.6733-0.23793-2.3728 0.31527-2.8617 2.263-0.37841 1.5077-0.13468 3.1952 0.5871 4.0649 1.5463 1.8632 2.4244 1.8726 3.9435 0.0421zm6.1454-5.305c0.0587-4.5635 0.37723-6.7576 0.77472-5.3363 0.49359 1.7649 1.4233 2.4465 3.4588 2.5356 6.9583 0.30461 6.115 10.551-0.86836 10.551h-3.4648l0.0997-7.75zm5.8546 5.305c1.853-2.2328 0.89351-6.0055-1.6184-6.3633-2.6487-0.37733-3.946 2.7999-2.3561 5.7705 1.2887 2.4079 2.3382 2.5644 3.9745 0.59281zm5.0173-4.055c-0.44196-6.56-0.62876-7.021-2.9716-7.3347-4.8326-0.64694-4.0765-1.9503 3.5033-6.0388 4.2076-2.2696 7.8673-4.1265 8.1325-4.1265 1.4815 0-1.3896 2.3525-5.4546 4.4692-5.4291 2.8271-4.3185 3.0549 5.1315 1.0525 6.8809-1.458 13.254-5.2049 18.637-10.958 1.9564-2.0908 2.3952-3.5009 2.1798-7.0048-0.49709-8.0833 4.4989-13.559 12.371-13.559 7.7725 0 12.5 5.0743 12.5 13.417 0 3.7991-0.53765 5.054-3.3854 7.9017-5.3557 5.3557-11.054 5.6786-17.375 0.98439l-3.2609-2.4215-5.7702 5.0188c-6.7544 5.8748-10.55 7.6369-18.597 8.6346-6.302 0.78135-5.9256 1.7703 1.0784 2.8334 2.4388 0.37017 4.4485 0.21712 4.809-0.36623 0.80345-1.3 3.5013-1.3017 3.5013-2e-3 0 0.55-0.675 1-1.5 1-1.8164 0-1.9909 1.6341-0.25 2.3405 0.95114 0.38593 0.96762 0.70864 0.0689 1.3498-0.6496 0.4634-1.3585 2.8602-1.5753 5.3261l-0.39421 4.4836-0.1747-4.75c-0.0993-2.7008-0.65227-4.75-1.2817-4.75-0.60884 0-0.84797-0.675-0.53138-1.5 0.33564-0.87467 0.0155-1.5-0.76801-1.5-0.73899 0-2.7281-0.2769-4.4203-0.61534l-3.0767-0.61533-0.32672 6.8653-0.32671 6.8653-0.4716-7zm47.061-21.017c8.0025-4.1383 7.6495-16.629-0.56703-20.062-6.9162-2.8898-7.4428-2.42-7.6548 6.8288-0.15956 6.9616-0.24568 7.344-0.55143 2.4489-0.34028-5.4478-0.49623-5.7599-2.5609-5.1258-2.1601 0.66346-2.1562 0.62936 0.22574-1.9489 1.3334-1.4433 2.0913-2.6242 1.6843-2.6242-1.8797 0-4.7242 2.3229-6.0982 4.98-5.314 10.276 5.2422 20.819 15.522 15.503zm-31.033 21.958c0-3.4514 0.37914-5.3247 1-4.941 0.55 0.33992 1 2.8415 1 5.559s-0.45 4.941-1 4.941-1-2.5016-1-5.559zm16 4.559c0-0.55 0.45-1 1-1s1 0.45 1 1-0.45 1-1 1-1-0.45-1-1zm11.33 0.22508c-0.68344-0.43475-1.1485-3.1464-1.1182-6.5201 0.0416-4.6243 0.43186-5.9791 1.9578-6.7958 3.9138-2.0946 8.2403 1.6773 5.5976 4.8802-1.0099 1.2239-1.0134 1.6213-0.0172 1.9566 1.5918 0.53576 1.6244 4.4797 0.05 6.054-1.341 1.341-4.6848 1.5607-6.47 0.42508zm5.17-3.2388c0-1.7724-0.60948-2.5733-2.1227-2.7892-2.5417-0.36265-3.9357 2.4251-2.2365 4.4725 1.793 2.1604 4.3592 1.1694 4.3592-1.6833zm0.25029-6.7358c0.54676-1.6421-2.5865-2.8143-3.9304-1.4704-0.5751 0.5751-0.7279 1.5598-0.33954 2.1882 0.88355 1.4296 3.7133 0.95397 4.2699-0.71771zm-299.07 6.0915c-0.90126-0.90126 1.2511-3.342 2.9471-3.342 1.6968 0 1.7731 1.2044 0.17756 2.8-1.3562 1.3562-2.1694 1.4972-3.1247 0.54201zm338.07-0.0913c14.988-0.15555 39.512-0.15555 54.5 0 14.988 0.15556 2.725 0.28283-27.25 0.28283s-42.238-0.12727-27.25-0.28283zm-204.94-0.999c8.4215-0.16744 21.921-0.16707 30 8.2e-4 8.0785 0.16789 1.1882 0.30489-15.312 0.30444s-23.11-0.13781-14.688-0.30526zm-121.81-3.1447c0-1.756-0.643-3.1398-1.6361-3.5208-1.5148-0.58129-1.5148-0.76187 0-2.4357 1.1947-1.3201 1.6361-3.7429 1.6361-8.9792v-7.1713h26v25h-26zm25-9.607v-10.5h-23v21h23zm-17-0.0674c0-5.3034-0.10669-5.5359-2.25-4.9043-2.1143 0.62309-2.0867 0.50651 0.45636-1.9326 1.4885-1.4276 2.951-2.5957 3.25-2.5957s0.54364 3.375 0.54364 7.5c0 4.3333-0.42222 7.5-1 7.5-0.55 0-1-2.5053-1-5.5674zm40-0.93261v-12.5h26v25h-26zm24.784-0.24999-0.28383-10.75-11.25-0.28275-11.25-0.28275v22.066h23.068zm-16.784 6.3009c0-0.79701 1.575-2.6504 3.5-4.1187 3.8896-2.9667 4.911-7.4322 1.7-7.4322-0.99 0-2.3325 0.5325-2.9833 1.1833-0.65084 0.65084-1.5276 0.83904-1.9484 0.41824-0.94757-0.94757 2.5327-3.6016 4.7229-3.6016 4.762 0 5.1959 5.1801 0.8127 9.7024l-3.1962 3.2976h3.1962c1.7579 0 3.1962 0.45 3.1962 1s-2.025 1-4.5 1c-3.2631 0-4.5-0.39831-4.5-1.4491zm299.25 3.6024c-4.5375-0.86815-8.25-1.8381-8.25-2.1554s3.2537-2.3592 7.2304-4.5374c8.9134-4.8823 8.7696-4.8209 8.7696-3.743 0 0.48624-2.0794 1.8943-4.6209 3.1291-2.5415 1.2348-4.3882 2.4777-4.1038 2.7621 0.78902 0.78902 12.802-1.5941 15.682-3.1109 1.3984-0.73649 5.1506-3.6791 8.3383-6.5392 3.1877-2.8601 6.0158-4.9802 6.2846-4.7113 0.8963 0.89629-11.022 11.051-15.08 12.849-2.2 0.97463-6.3625 2.0847-9.25 2.4667-2.8875 0.38207-5.25 1.0287-5.25 1.437s2.25 1.0408 5 1.4056 5 1.0978 5 1.6288c0 0.53106-0.3375 0.90521-0.75 0.83144-0.4125-0.0738-4.4625-0.84443-9-1.7126zm-406.25-11.093v-11.939l11.25-0.32595c6.1875-0.17927 11.925-0.54401 12.75-0.81054 1.2708-0.41054 1.5428 1.4638 1.7799 12.265l0.27988 12.75h-26.06zm23.784 0.18946-0.28383-10.75-11.25-0.28275-11.25-0.28275v22.066h23.068zm-17.804 6.2258c-1.7655-2.1273-0.43334-3.0721 1.5439-1.0949 2.0791 2.0791 3.1865 2.0454 4.3059-0.13095 1.1288-2.1947 0.44541-4.25-1.413-4.25-1.9142 0-1.7835-1.0085 0.33333-2.5724 1.4202-1.0493 1.5097-1.5365 0.47504-2.5852-1.0422-1.0564-1.6533-1.056-3.3474 2e-3 -2.6383 1.6476-3.4721 0.89299-1.3539-1.2253 3.2632-3.2632 6.6798-1.3277 7.137 4.0432 0.5682 6.6752 0.4705 7.6381-0.86068 8.4824-2.0751 1.3162-5.4471 0.98553-6.8202-0.66888zm172.52 2.6246-9-1.6848 8-4.5606c5.2474-2.9914 8.3441-4.2242 9-3.5828 0.6656 0.65084 0.62942 1.1153-0.10819 1.3889-0.6095 0.22609-1.9595 1.0595-3 1.8519-1.7046 1.2983-1.4218 1.3802 2.8582 0.82801 3.1972-0.41251 4.75-0.24774 4.75 0.50401 0 1.0758-1.6718 1.6666-7 2.4738-2.3322 0.3533-2.2819 0.43081 0.75 1.155 1.7875 0.42693 3.25 1.395 3.25 2.1512s-0.1125 1.3267-0.25 1.2676c-0.1375-0.0591-4.3-0.86557-9.25-1.7922zm127.5-2.1594c0-0.58246 0.45-0.7809 1-0.44098s1 0.81648 1 1.059-0.45 0.44098-1 0.44098-1-0.47656-1-1.059zm-272-2.4633c0-0.28729 1.8508-2.5303 4.113-4.9844 2.5307-2.7455 3.8892-5.0451 3.5314-5.9777-0.78345-2.0416-3.6023-1.9175-5.3241 0.2344-1.3211 1.6511-1.3838 1.6431-1.1102-0.14282 0.45382-2.9623 3.1848-4.2039 6.2123-2.8245 3.6278 1.653 3.2715 4.8268-0.99354 8.8493l-3.5712 3.3681h3.5712c1.9642 0 3.5712 0.45 3.5712 1s-2.25 1-5 1-5-0.23505-5-0.52234zm163.46-4.5409c-0.66483-1.0757 1.0636-2.8862 2.7891-2.9214 1.2325-0.0252 0.85064 1.6563-0.66097 2.9108-1.0691 0.88728-1.5847 0.88986-2.1281 0.0106zm-50.461-12.437v-12.5h26v25h-26zm24 0.5v-11h-23v10.333c0 5.6833 0.3 10.633 0.66667 11 0.36666 0.36667 5.5417 0.66667 11.5 0.66667h10.833zm-15.832 1.6826c-0.16011-5.541-0.27501-5.7845-2.4181-5.1258-2.2214 0.68283-2.2183 0.65714 0.25-2.0244l2.5-2.716 0.30879 4.1182c0.16983 2.265 0.13298 5.7938-0.0819 7.8418-0.28257 2.6931-0.4372 2.1137-0.55879-2.0938zm105.26 7.0031c-0.27738-0.72284-0.37576-6.2353-0.21862-12.25l0.28572-10.936 12.75-0.27988 12.75-0.27987v25.06h-12.531c-9.4294 0-12.656-0.32533-13.036-1.3143zm24.567-11.186v-10.5h-3.0714c-2.7922 0-2.9286 0.14286-1.5 1.5714 2.2967 2.2967 1.9822 3.4236-2.1315 7.6364l-3.703 3.7922h3.703c2.0366 0 3.703 0.45 3.703 1s-2.25 1-5 1-5-0.32047-5-0.71215 1.861-2.6083 4.1354-4.9258c2.6765-2.7272 3.9223-4.769 3.5314-5.7879-0.76708-1.999-4.5447-2.0559-5.303-0.0799-0.31537 0.82184-1.0056 1.2272-1.5338 0.90072-0.54853-0.33901-0.22272-1.4086 0.75977-2.4943 1.6738-1.8495 1.5409-1.9007-4.9348-1.9007h-6.655v21h23zm92.235 9.0768c-3.4478-3.1597-3.7353-3.8473-3.7353-8.9343 0-4.7412 0.41245-5.9417 2.9524-8.5928 1.6238-1.6949 4.6613-3.5418 6.75-4.1042 2.0887-0.56243 3.7976-1.4552 3.7976-1.984s0.45-0.96146 1-0.96146 1 0.62686 1 1.393c0 0.76616 0.76503 1.6866 1.7001 2.0454 1.2667 0.48607 5.1543-2.8125 15.25-12.939 12.782-12.821 13.826-14.66 5.9177-10.428-3.2897 1.7606-5.6676 1.8754-6.9458 0.33524-1.6418-1.9783-0.54901-2.8145 1.7786-1.361 1.5799 0.98666 3.0897 0.58216 9.0724-2.4307 3.9474-1.9879 7.6448-3.6143 8.2165-3.6143s-0.30039 2.654-1.9379 5.8978l-2.9772 5.8978 3.4628 8.5877c1.9046 4.7232 3.4628 8.823 3.4628 9.1107 0 0.48337-8.4775-3.9359-13.782-7.1845-3.3916-2.0771-1.6759-3.5977 1.9461-1.7247l3.0507 1.5776-2.8575-3.5812c-1.5716-1.9697-3.0924-3.5812-3.3795-3.5812-0.28714-2e-5 -4.2582 3.7556-8.8245 8.3458l-8.3024 8.3458 2.5745 3.7938c5.9703 8.7978 0.16285 19.515-10.575 19.515-4.162 0-5.4293-0.50358-8.6152-3.4232zm17.015-1.5309c3.7699-4.2189 3.8385-10.599 0.16111-14.969-3.869-4.598-5.4111-4.0499-5.4111 1.9233 0 2.75-0.45 5-1 5s-1-2.4638-1-5.475v-5.475l-3.25 0.60927c-8.8701 1.6629-12.098 11.844-5.9304 18.707 4.2158 4.6911 12.09 4.5376 16.43-0.32023zm24.704-32.132c-0.61391-1.1471-1.3689-1.833-1.6777-1.5242-0.30882 0.30881 8e-3 1.2474 0.70346 2.0856 1.7978 2.1662 2.2841 1.886 0.97422-0.56148zm0.79636-11.497c-0.21298-0.21297-1.8894 1.1626-3.7253 3.0568-2.8889 2.9806-3.1569 3.6624-1.9911 5.067 1.1967 1.442 1.6122 1.101 3.7253-3.0568 1.3081-2.5739 2.2041-4.8541 1.9911-5.067zm-213.75 34.583v-12h26v24h-26zm24.784-0.25 0.28383-10.75h-23.068v7.8c0 4.29 0.48921 8.2892 1.0871 8.8871 0.78285 0.78285 0.78285 1.2752 0 1.759-0.59792 0.36954-1.0871 1.3351-1.0871 2.1456 0 1.2277 1.8779 1.4265 11.25 1.191l11.25-0.28275zm-16.784 4.5378c0-0.39168 1.861-2.6083 4.1354-4.9258 2.6765-2.7272 3.9223-4.769 3.5314-5.7879-0.79013-2.059-4.3156-2.0241-5.4788 0.0543-0.52726 0.94217-1.1704 1.2092-1.5261 0.63364-1.0914-1.766 3.0313-4.5559 5.7311-3.8783 4.2993 1.079 4.301 4.3211 5e-3 8.721l-3.804 3.8952h3.703c2.0366 0 3.703 0.45 3.703 1s-2.25 1-5 1-5-0.32047-5-0.71215zm224.06 1.8849c-3.6683-1.9673-7.0617-7.224-7.0617-10.939 0-9.7109 10.493-16.132 19.094-11.685 9.2154 4.7655 8.8526 19.069-0.58366 23.012-4.5697 1.9093-7.3408 1.8156-11.449-0.38745zm13.009-2.223c5.842-4.1598 5.7248-14.162-0.215-18.349-2.2637-1.5955-2.3686-1.5713-2.6886 0.61931-0.18314 1.2538-1.7339 3.742-3.4462 5.5296l-3.1132 3.25h3.1962c1.7579 0 3.1962 0.45 3.1962 1s-2.025 1-4.5 1c-5.6078 0-5.9321-1.8059-1-5.5678 3.9876-3.0414 4.9086-7.4322 1.559-7.4322-1.0675 0-2.2381 0.48068-2.6012 1.0682-0.3631 0.5875-1.3152 0.81684-2.1157 0.50964-0.82585-0.31691-2.5125 0.58199-3.8988 2.0778-4.2845 4.623-2.824 13.906 2.6668 16.949 3.6166 2.0046 9.6542 1.6995 12.961-0.65478zm-409.5-5.0721c-7.1044-3.4545-8.1046-3.7014-9.5812-2.3652-1.9396 1.7553-3.4779 0.78482-1.8552-1.1704 1.5579-1.8772 4.298-1.6739 8.8689 0.65799 2.1562 1.1 4.269 2 4.6952 2s-4.7889-5.5771-11.589-12.394l-12.364-12.394-5.8518 0.53062c-5.7707 0.52327-5.9075 0.47493-9.8713-3.4888-3.4066-3.4066-4.0195-4.6549-4.0195-8.1868 0-13.523 15.446-18.628 23.429-7.7441 2.8121 3.8344 2.6307 10.379-0.40607 14.644l-2.2913 3.2178 7.8345 7.8807c8.6266 8.6775 7.4075 8.4885 12.934 2.0059l2-2.346-3.3429 1.7105c-3.2482 1.6621-5.4738 1.4376-3.5904-0.36211 2.1423-2.0471 14.433-8.1721 14.433-7.1926 0 0.58616-1.385 4.5523-3.0778 8.8137l-3.0778 7.7479 2.7561 5.7664c1.5159 3.1716 2.5634 5.937 2.3278 6.1455s-3.9979-1.3567-8.3608-3.4782zm2.3794-7.0307c-2.7797-5.5107-2.6136-5.3684-4.4687-3.8287-1.3915 1.1549-1.1457 1.738 2.1609 5.1241 2.0521 2.1015 3.9042 3.6478 4.1158 3.4362 0.21161-0.21161-0.60197-2.3408-1.8079-4.7316zm0.35785-6.9041c0.43956-1.6809 0.27999-1.8431-0.87236-0.88669-0.77567 0.64375-1.1637 1.5695-0.86231 2.0572 0.81589 1.3201 1.1407 1.101 1.7347-1.1705zm-26.479-13.919c0.18766-0.56297 0.96714-1.0236 1.7322-1.0236 1.9903 0 4.4423-5.2716 4.4423-9.5503 0-5.1572-5.2925-10.45-10.45-10.45-7.8054 0-13.467 6.3005-12.119 13.486 0.5739 3.0592 4.4902 7.6414 7.5685 8.8556 2.1317 0.84083 8.4188-0.0985 8.8255-1.3186zm-10.825-6.0236c-1.2968-2.4232-0.30869-2.5893 2.1525-0.36199 1.4756 1.3354 2.0906 1.4051 3.3287 0.37756 2.1287-1.7666 1.8905-4.1056-0.48124-4.7258-2.3306-0.60947-2.6975-2.2898-0.5-2.2898 0.83333 0 1.5-0.88889 1.5-2 0-2.255-2.8671-2.7329-4.8-0.8-0.78182 0.78182-1.2 0.82449-1.2 0.12244 0-2.3985 2.9443-3.6689 5.6481-2.4369 2.147 0.97825 2.4926 1.6611 2.0246 4.0012-0.31038 1.5519-0.0609 3.325 0.55438 3.9403 0.82494 0.82494 0.81635 1.7823-0.03273 3.6458-1.4735 3.234-6.5702 3.5619-8.1943 0.52713zm99.455 34.545c-2.7879-2.7879-3.1554-5.0625-0.95455-5.9071 0.825-0.31658 1.5-0.13972 1.5 0.39301 0 0.53274 0.9 1.8686 2 2.9686 2.3953 2.3953 9.1468 2.7329 10.96 0.54804 2.4176-2.913 0.72477-4.9759-5.9665-7.271-6.844-2.3475-8.9937-4.2347-8.9937-7.8956 0-7.464 16.368-8.7291 18.281-1.413 0.83244 3.1833-1.3818 3.614-3.5161 0.68406-1.5038-2.0644-2.7734-2.6525-5.7263-2.6525-4.4567 0-6.9956 2.2599-5.3932 4.8004 0.56645 0.89801 3.5946 2.3941 6.7293 3.3247 7.2648 2.1566 8.6248 3.3389 8.6248 7.4974 0 5.1813-2.8416 7.3776-9.5454 7.3776-4.5544 0-5.9841-0.43865-8-2.4546zm181.55-9.423c0-1.2473 2.5679-3.2212 3.2731-2.516 0.96625 0.96626-0.37852 3.3936-1.8801 3.3936-0.76615 0-1.393-0.3949-1.393-0.87756zm17.5-2.9249c-8.8819-2.9124-9.0456-2.9853-8.3227-3.7083 0.28088-0.28087 2.4374 0.16913 4.7924 1 7.5071 2.6486 7.2853 1.426-0.75737-4.1754-2.1142-1.4725-2.3869-1.4575-3.5974 0.19791-0.94701 1.2951-1.5143 1.4601-2.0485 0.59587-0.4063-0.65742-0.22676-1.8122 0.39897-2.5661 0.91314-1.1003-1.4477-3.3851-11.961-11.576-7.2042-5.6127-12.874-10.43-12.599-10.705 0.39443-0.39443 28.159 20.347 37.016 27.654 2.1589 1.7808 2.0626 1.5479-2.1737-5.2592-1.3159-2.1145-2.1626-4.0745-1.8815-4.3556 0.40908-0.40908 5.5216 6.9771 10.002 14.45 0.97048 1.6187 0.61009 1.5556-8.8686-1.5524zm-125.48-0.94758c0.0363-1.7778 1.7466-3.4443 2.4187-2.3568 0.37621 0.60872 0.4059 1.5568 0.066 2.1068-0.72089 1.1664-2.5071 1.3461-2.4847 0.25zm19.112-5.9938c-6.2747-3.0509-7.6663-3.401-9.3474-2.3511-2.3234 1.451-3.0728 1.0205-2.1969-1.262 0.88988-2.319 3.6719-2.0464 9.6998 0.95045 5.0947 2.5329 4.9028 2.2771-8.2023-10.933l-13.419-13.526-4.6521 0.55097c-14.883 1.7626-20.972-17.73-7.5305-24.108 4.9475-2.3477 9.6592-1.3934 14.351 2.9067 3.2869 3.0122 3.6694 3.8832 3.6694 8.3558 0 3.6848-0.6211 5.8332-2.3704 8.1992l-2.3704 3.2062 8.5133 8.5133 8.5133 8.5133 3.0245-3.385c3.3522-3.7517 3.4278-4.6193 0.25478-2.9212-1.1585 0.62-2.6036 0.81995-3.2113 0.44434-0.61924-0.38271 2.3441-2.5774 6.741-4.9926 4.3153-2.3703 7.9953-4.1604 8.1777-3.9779 0.18243 0.18244-1.2026 4.1367-3.0778 8.7872l-3.4096 8.4555 2.7958 6.1591c1.5377 3.3875 2.4861 6.1232 2.1075 6.0794s-4.0058-1.6927-8.0606-3.6642zm1.858-7.7895c-1.9264-4.4942-2.176-4.705-3.7302-3.1507s-1.4391 1.8995 1.7211 5.1599c1.8627 1.9218 3.5413 3.3396 3.7302 3.1507 0.18892-0.18891-0.58556-2.5109-1.7211-5.1599zm1.1428-6.7167c1.0871-2.0402 1.0438-2.122-0.46482-0.87756-0.91505 0.75485-1.6637 1.7674-1.6637 2.25 0 1.5275 0.88863 0.95452 2.1285-1.3724zm-31.964-18.684c-0.26115-4.6207-0.6493-5.8172-1.75-5.3948-2.2772 0.87383-1.5663-1.0149 1.117-2.9679l2.4686-1.7967v7.5467c0 8.5104 0.71535 9.1334 5.0988 4.4409 2.3106-2.4734 2.9012-4.0207 2.9012-7.6 0-3.7778-0.54203-5.0363-3.4-7.8942-2.6245-2.6245-4.2324-3.4-7.0497-3.4-12.87 0-16.867 16.477-5.2249 21.541 5.7322 2.4934 6.212 2.1257 5.8389-4.4748zm-111.4 26.369c-3.8289-2.0775-5.9592-6.6928-5.6218-12.179 0.26784-4.3555 0.04568-4.7821-4.6798-8.9866-5.896-5.246-10.52-7.7571-15.961-8.6676-2.2-0.36817-5.35-0.90844-7-1.2006-2.4948-0.44175-2.1002-3e-3 2.3432 2.6077 8.1174 4.7686 5.4032 4.7277-3.3015-0.0497-4.2021-2.3062-7.3618-4.4778-7.0216-4.8258 0.34019-0.34792 3.3999-1.1401 6.7992-1.7605 5.5408-1.0111 4.0275-1.1406-14.616-1.25l-20.797-0.12211-1.7035 2.9937c-1.8696 3.2856-3.2035 3.8808-3.2035 1.4294 0-0.86731 1.3154-2.8923 2.9231-4.5l2.9231-2.9231 29.827-4e-3c28.153-4e-3 30.013-0.11702 33.137-2.0219 3.3366-2.034 6.1898-7.1163 6.1898-11.025 0-3.3708 2.4271-1.6794 3.0612 2.1333 0.81211 4.8828 2.569 7.6753 5.9188 9.4075 2.4088 1.2456 8.0212 1.5104 32.02 1.5104 30.44 0 33.8 0.43162 35.379 4.5448 0.9256 2.4121 0.75187 4.4552-0.37882 4.4552-0.55 0-1-0.64286-1-1.4286 0-0.78572-0.70714-2.1357-1.5714-3-1.3557-1.3557-5.577-1.5744-30.75-1.5934-26.609-0.02-29.551-0.19101-33.408-1.9419-2.3261-1.0559-5.0607-3.287-6.0768-4.9579l-1.8475-3.038-2.2719 3.073c-2.9795 4.03-9.3527 6.8381-15.574 6.8621-2.75 0.0106-8.15 0.78547-12 1.7218l-7 1.7025 8.1152 1.5786c8.2129 1.5976 11.849 3.5574 18.998 10.238l3.1127 2.9093 3.7769-2.5631c9.1557-6.2132 20.831-0.64376 20.831 9.9369 0 9.7226-10.743 15.725-19.571 10.935zm12.27-0.95154c10.184-5.2662 6.0072-21.483-5.5327-21.483-3.8467 0-8.2621 2.6392-9.9831 5.9673-5.3202 10.288 5.2277 20.836 15.516 15.516zm-8.8646-9.8005c-0.16012-5.541-0.27501-5.7845-2.4181-5.1258-2.2214 0.68283-2.2183 0.65714 0.25-2.0244l2.5-2.716 0.30879 4.1182c0.16984 2.265 0.13298 5.7938-0.0819 7.8418-0.28257 2.6931-0.43721 2.1137-0.55879-2.0938zm46.374 8.6181c-5.3627-1.4448-9.5456-7.125-9.5379-12.952 8e-3 -6.3696 6.4042-12.353 13.197-12.345 6.5062 7e-3 12.8 6.1759 12.8 12.545 0 3.6427-2.7086 9.0298-5.44 10.819-2.6265 1.721-8.1846 2.6955-11.018 1.932zm11.058-4.7007c2.8514-2.8514 3.4-4.1205 3.4-7.8651 0-5.5559-2.693-9.263-7.8517-10.809-7.3584-2.2046-14.421 3.1789-14.421 10.993 0 6.6617 4.5444 10.981 11.623 11.046 3.071 0.0283 4.5379-0.65248 7.25-3.3646zm-12.6-5.0491c0-0.79701 1.575-2.6504 3.5-4.1187 3.8896-2.9667 4.911-7.4322 1.7-7.4322-0.99 0-2.3325 0.5325-2.9833 1.1833-0.65084 0.65084-1.5276 0.83904-1.9484 0.41824-0.94757-0.94757 2.5327-3.6016 4.7229-3.6016 4.762 0 5.1959 5.1801 0.8127 9.7024l-3.1962 3.2976h3.1962c1.7579 0 3.1962 0.45 3.1962 1s-2.025 1-4.5 1c-3.2631 0-4.5-0.39831-4.5-1.4491zm195 8.6434c0-0.44315 1.125-2.3306 2.5-4.1943 3.1036-4.2067 3.1079-4.4444 0.044-2.4369-1.3508 0.88509-2.9432 1.3081-3.5387 0.94011-0.61338-0.37909 2.0042-2.837 6.0386-5.6702 3.9167-2.7506 7.2983-4.8242 7.5146-4.6079 0.36152 0.36151-3.4898 15.828-4.1399 16.625-0.15701 0.19257-0.73226 0.074-1.2783-0.26349-0.62776-0.38798-0.66568-1.8038-0.10313-3.8501l0.88972-3.2365-2.4584 3c-1.3521 1.65-2.4607 3.3375-2.4634 3.75-3e-3 0.4125-0.67997 0.75-1.505 0.75s-1.5-0.36257-1.5-0.80572zm-268-3.7166c0-0.28729 1.8508-2.5303 4.113-4.9844 2.5307-2.7455 3.8892-5.0451 3.5314-5.9777-0.78345-2.0416-3.6023-1.9175-5.3241 0.2344-1.3211 1.6511-1.3838 1.6431-1.1102-0.14282 0.45382-2.9623 3.1848-4.2039 6.2123-2.8245 3.6278 1.653 3.2715 4.8268-0.99354 8.8493l-3.5712 3.3681h3.5712c1.9642 0 3.5712 0.45 3.5712 1s-2.25 1-5 1-5-0.23505-5-0.52234zm188.5-6.8893c-7.7729-3.4547-10.708-12.098-6.3083-18.574 2.8425-4.1832 6.0964-5.9851 10.808-5.9851s7.9658 1.8018 10.808 5.9851c4.4612 6.5655 1.4246 15.227-6.5262 18.614-3.9182 1.6695-4.9452 1.6648-8.7821-0.0405zm10.986-2.7563c4.2265-3.3246 5.7769-7.8764 4.2551-12.493-1.4249-4.3226-6.5985-8.3392-10.741-8.3392s-9.3166 4.0166-10.741 8.3392c-3.3179 10.065 8.9783 18.982 17.228 12.493zm-11.486-2.2812c0-0.79701 1.575-2.6504 3.5-4.1187 3.8896-2.9667 4.911-7.4322 1.7-7.4322-0.99 0-2.3325 0.5325-2.9833 1.1833-0.65084 0.65084-1.5276 0.83904-1.9484 0.41824-0.94757-0.94757 2.5327-3.6016 4.7229-3.6016 4.762 0 5.1959 5.1801 0.8127 9.7024l-3.1962 3.2976h3.1962c1.7579 0 3.1962 0.45 3.1962 1s-2.025 1-4.5 1c-3.2631 0-4.5-0.39831-4.5-1.4491zm175.46 3.3826c-0.36253-0.58659-0.41903-1.3066-0.12555-1.6001 0.71632-0.71631 2.6667 0.54583 2.6667 1.7257 0 1.278-1.7264 1.1927-2.5411-0.12555zm-80.459-9.1047c0-5.2363-0.44146-7.6591-1.6361-8.9792-1.5148-1.6739-1.5148-1.8544 0-2.4357 0.99312-0.3811 1.6361-1.7648 1.6361-3.5208v-2.893h26v25h-26zm25-5.3287v-10.5h-23v21h23zm-17-0.0674c0-5.3034-0.10669-5.5359-2.25-4.9043-2.1143 0.62309-2.0867 0.50651 0.45636-1.9326 1.4885-1.4276 2.951-2.5957 3.25-2.5957 0.299 0 0.54364 3.375 0.54364 7.5 0 4.3333-0.42222 7.5-1 7.5-0.55 0-1-2.5053-1-5.5674zm98-0.4326v-12h26v24h-26zm24.784-0.25 0.28383-10.75h-22.765l-0.19346 11.033-0.19346 11.033 11.292-0.28315 11.292-0.28314zm-16.784 3.8009c0-0.79701 1.575-2.6504 3.5-4.1187 3.8896-2.9667 4.911-7.4322 1.7-7.4322-0.99 0-2.3325 0.5325-2.9833 1.1833-0.65084 0.65084-1.5276 0.83904-1.9484 0.41824-0.94757-0.94757 2.5327-3.6016 4.7229-3.6016 4.762 0 5.1959 5.1801 0.8127 9.7024l-3.1962 3.2976h3.1962c1.7579 0 3.1962 0.45 3.1962 1s-2.025 1-4.5 1c-3.2631 0-4.5-0.39831-4.5-1.4491zm-165.1 5.1692c-10.079-6.7631-4.9526-22.72 7.2997-22.72 7.7262 0 12.802 4.9564 12.802 12.5 0 10.455-11.237 16.168-20.102 10.22zm13.017-0.17602c2.9782-1.5401 6.0852-6.8986 6.0852-10.495 0-5.5761-5.6964-11.049-11.5-11.049-3.8467 0-8.2621 2.6392-9.9831 5.9673-5.2826 10.215 5.22 20.84 15.398 15.577zm-7.9148-3.9932c0-0.79701 1.575-2.6504 3.5-4.1187 3.8896-2.9667 4.911-7.4322 1.7-7.4322-0.99 0-2.3325 0.5325-2.9833 1.1833-0.65084 0.65084-1.5276 0.83904-1.9484 0.41824-0.94757-0.94757 2.5327-3.6016 4.7229-3.6016 4.762 0 5.1959 5.1801 0.8127 9.7024l-3.1962 3.2976h3.1962c1.7579 0 3.1962 0.45 3.1962 1s-2.025 1-4.5 1c-3.2631 0-4.5-0.39831-4.5-1.4491zm93-8.5509v-12h26v24h-26zm24 0v-11h-15l-0.18908 7.25c-0.1844 7.0703-0.19807 7.1062-0.55143 1.4489-0.34048-5.4509-0.49504-5.7598-2.5609-5.1171-2.1772 0.67732-2.1801 0.66325-0.29358-1.4489 1.9015-2.129 1.8993-2.1329-1.25-2.1329h-3.155v22h23zm-81.389-6.8771c-2.1282-2.3517-0.63366-3.5961 1.9914-1.6582 1.3563 1.0013 1.5912 1.7117 0.82369 2.4916-0.77303 0.7855-1.5612 0.55217-2.8151-0.8334zm-19.938-4.5644c-3.2045-1.8212-6.2645-3.7494-6.8-4.2849-0.80574-0.80574 6.0564-2.4257 15.501-3.6594 0.48125-0.0629 1.0812 0.44821 1.3333 1.1357 0.29001 0.79092-0.46875 1.25-2.066 1.25-3.5258 0-4.437 1.9831-0.95137 2.0703 1.545 0.0386 3.6792 0.41103 4.7426 0.82749 3.1732 1.2426 0.0286 2.3436-4.7203 1.6526l-4.2133-0.61304 2.75 1.5633c2.846 1.6179 3.6892 3.5483 1.5 3.4343-0.6875-0.0358-3.8718-1.5552-7.0763-3.3763zm128.46 1.0994c-0.61257-0.7381-0.82158-1.6342-0.46445-1.9913 0.75049-0.7505 3.3333 1.1524 3.3333 2.4558 0 1.3166-1.6066 1.0565-2.8689-0.46445zm257.87 49.842v-62.5h-209v125h209zm-17 38.051c0-0.79701 1.575-2.6504 3.5-4.1187 3.8896-2.9667 4.911-7.4322 1.7-7.4322-0.99 0-2.3325 0.5325-2.9833 1.1833-0.65084 0.65084-1.5276 0.83904-1.9484 0.41824-0.94757-0.94757 2.5327-3.6016 4.7229-3.6016 4.762 0 5.1959 5.1801 0.8127 9.7024l-3.1962 3.2976h3.1962c1.7579 0 3.1962 0.45 3.1962 1s-2.025 1-4.5 1c-3.2631 0-4.5-0.39831-4.5-1.4491zm-124-1.263c0-0.39168 1.861-2.6083 4.1354-4.9258 2.6765-2.7272 3.9223-4.769 3.5314-5.7879-0.79013-2.059-4.3156-2.0241-5.4788 0.0543-0.52726 0.94217-1.1704 1.2092-1.5261 0.63364-1.0914-1.766 3.0313-4.5559 5.7311-3.8783 4.2993 1.079 4.301 4.3211 5e-3 8.721l-3.804 3.8952h3.703c2.0366 0 3.703 0.45 3.703 1s-2.25 1-5 1-5-0.32047-5-0.71215zm57-3c0-0.39168 1.861-2.6083 4.1354-4.9258 2.6765-2.7272 3.9223-4.769 3.5314-5.7879-0.79013-2.059-4.3156-2.0241-5.4788 0.0543-0.52726 0.94217-1.1704 1.2092-1.5261 0.63364-1.0914-1.766 3.0313-4.5559 5.7311-3.8783 4.2993 1.079 4.301 4.3211 5e-3 8.721l-3.804 3.8952h3.703c2.0366 0 3.703 0.45 3.703 1s-2.25 1-5 1-5-0.32047-5-0.71215zm31-11.288v-9h5c7.6046 0 11.371 4.5443 7.0257 8.4767-1.9168 1.7347-1.9216 1.863-0.16396 4.405 3.1075 4.4944 3.3306 5.1183 1.8302 5.1183-0.78437 0-2.6173-1.8-4.0732-4-1.9085-2.884-3.3406-4-5.1329-4-2.2334 0-2.4858 0.40609-2.4858 4 0 2.2-0.45 4-1 4-0.59259 0-1-3.6667-1-9zm10.84-3.3802c0.45049-2.3724-1.4298-3.5849-5.5898-3.6045-2.9614-0.0139-3.25 0.25623-3.25 3.0422 0 2.9777 0.11063 3.0495 4.2414 2.75 3.2154-0.23312 4.3277-0.76231 4.5984-2.1877zm-139.84 1.26v-9.1202l6.0795 0.43975c6.1606 0.44561 7.8746 1.5428 7.9052 5.0604 8e-3 0.96788-0.8524 2.5027-1.9129 3.4108-1.8952 1.6227-1.8867 1.7055 0.5 4.8346 2.7384 3.5902 2.982 4.5116 1.1782 4.4569-0.6875-0.0209-2.4832-1.8209-3.9905-4-1.9613-2.8355-3.454-3.962-5.25-3.962-2.2611 0-2.5095 0.39596-2.5095 4 0 2.2-0.45 4-1 4-0.59357 0-1-3.7067-1-9.1202zm11-2.3798c2.0031-2.4136-0.56937-4.6648-4.9144-4.3006-3.0789 0.25809-3.6303 0.68917-3.902 3.0506-0.29786 2.5886-0.085 2.75 3.6276 2.75 2.2858 0 4.4674-0.63065 5.1889-1.5zm103-6v-11.5h-4c-2.8889 0-4-0.41667-4-1.5 0-1.2333 1.7778-1.5 10-1.5 8.0451 0 10 0.282 10 1.4425 0 0.98216-1.3563 1.5406-4.25 1.75l-4.25 0.3075-0.28275 11.25c-0.22855 9.0932-0.56404 11.25-1.75 11.25-1.2046 0-1.4672-2.0585-1.4672-11.5zm-129-1v-11.5h-4c-2.8889 0-4-0.41667-4-1.5 0-1.2333 1.7778-1.5 10-1.5s10 0.26667 10 1.5c0 1.0833-1.1111 1.5-4 1.5h-4v11.5c0 10.833-0.11594 11.5-2 11.5s-2-0.66667-2-11.5zm169 5.9326c0-5.3034-0.10669-5.5359-2.25-4.9043-2.1143 0.62309-2.0867 0.50651 0.45636-1.9326 1.4885-1.4276 2.951-2.5957 3.25-2.5957 0.299 0 0.54364 2.025 0.54364 4.5v4.5h12c7.3333 0 12 0.38889 12 1s-4.6667 1-12 1c-11.333 0-12 0.11111-12 2 0 1.1-0.45 2-1 2s-1-2.5053-1-5.5674zm-132.55 1.1128c-2.5458-2.5458-3.2752-5.5454-1.3485-5.5454 0.60834 0 1.991 1.125 3.0726 2.5 3.6364 4.6229 13.596 2.8899 12.654-2.202-0.22351-1.2084-2.3376-2.4539-6.4465-3.798-3.3626-1.1-6.8502-2.6176-7.75-3.3724-2.247-1.8849-2.0546-6.709 0.3639-9.1276 2.7578-2.7578 9.8157-2.7194 13.365 0.0726 2.855 2.2457 3.5599 5.9274 1.1349 5.9274-0.825 0-1.5-0.41786-1.5-0.92857 0-3.6356-8.5266-5.5517-11.07-2.4876-2.0858 2.5132 0.0628 4.6467 6.6481 6.6016 6.4622 1.9184 8.4215 3.764 8.4215 7.9331 0 6.5387-12.324 9.6482-17.545 4.4269zm57 0c-2.5458-2.5458-3.2752-5.5454-1.3485-5.5454 0.60834 0 1.991 1.125 3.0726 2.5 3.6364 4.6229 13.596 2.8899 12.654-2.202-0.22351-1.2084-2.3376-2.4539-6.4465-3.798-3.3626-1.1-6.8502-2.6176-7.75-3.3724-2.247-1.8849-2.0546-6.709 0.3639-9.1276 2.7578-2.7578 9.8157-2.7194 13.365 0.0726 2.855 2.2457 3.5599 5.9274 1.1349 5.9274-0.825 0-1.5-0.41786-1.5-0.92857 0-3.6356-8.5266-5.5517-11.07-2.4876-2.0858 2.5132 0.0628 4.6467 6.6481 6.6016 6.4622 1.9184 8.4215 3.764 8.4215 7.9331 0 6.5387-12.324 9.6482-17.545 4.4269zm91.545-11.113c0-5.3034-0.10669-5.5359-2.25-4.9043-2.1143 0.62309-2.0867 0.50651 0.45636-1.9326 1.4885-1.4276 2.951-2.5957 3.25-2.5957 0.299 0 0.54364 3.375 0.54364 7.5 0 4.3333-0.42222 7.5-1 7.5-0.55 0-1-2.5053-1-5.5674zm-168-31.145c0-0.39168 1.861-2.6083 4.1354-4.9258 2.6765-2.7272 3.9223-4.769 3.5314-5.7879-0.79013-2.059-4.3156-2.0241-5.4788 0.0543-0.52726 0.94217-1.1704 1.2092-1.5261 0.63364-1.0914-1.766 3.0313-4.5559 5.7311-3.8783 4.2993 1.079 4.301 4.3211 5e-3 8.721l-3.804 3.8952h3.703c2.0366 0 3.703 0.45 3.703 1s-2.25 1-5 1-5-0.32047-5-0.71215zm18-1.2878c-1.2968-2.4232-0.30869-2.5893 2.1525-0.36199 1.4756 1.3354 2.0906 1.4051 3.3287 0.37756 2.1287-1.7666 1.8905-4.1056-0.48124-4.7258-2.3306-0.60947-2.6975-2.2898-0.5-2.2898 0.83333 0 1.5-0.88889 1.5-2 0-2.255-2.8671-2.7329-4.8-0.8-0.78182 0.78182-1.2 0.82449-1.2 0.12244 0-2.3985 2.9443-3.6689 5.6481-2.4369 2.147 0.97825 2.4926 1.6611 2.0246 4.0012-0.31038 1.5519-0.0609 3.325 0.55438 3.9403 0.82494 0.82494 0.81635 1.7823-0.0327 3.6458-1.4735 3.234-6.5702 3.5619-8.1943 0.52713zm112-3.5674c0-5.3034-0.10669-5.5359-2.25-4.9043-2.1143 0.62309-2.0867 0.50651 0.45636-1.9326 1.4885-1.4276 2.951-2.5957 3.25-2.5957 0.299 0 0.54364 3.375 0.54364 7.5 0 4.3333-0.42222 7.5-1 7.5-0.55 0-1-2.5053-1-5.5674zm-154.47-4.3869c-1.1381-1.8415 2.363-6.8121 5.5906-7.9373 2.114-0.73694 16.284-1.1139 42.28-1.1249 38.684-0.0163 39.143-0.0404 43.071-2.2652 4.7566-2.6941 8.5296-7.9429 8.5296-11.866 0-1.8686 0.51728-2.8521 1.5-2.8521 1.0362 0 1.5 1.0406 1.5 3.3651 0 3.7485 2.4506 7.3934 7.2932 10.848 3.1885 2.2743 3.4443 2.2902 44.935 2.7873l41.729 0.5 2.6092 2.6106c1.7662 1.7671 2.4761 3.3825 2.1973 5-0.38952 2.2597-0.45684 2.2808-1.2398 0.38945-2.377-5.7421-0.54476-5.5-41.63-5.5-23.868 0-39.699-0.40812-42.96-1.1075-3.9825-0.8541-6.2684-2.172-9.9908-5.7598l-4.8267-4.6523-2.603 3.2622c-1.4316 1.7942-4.4954 4.2736-6.8084 5.5098-4.131 2.2078-4.9222 2.253-44.686 2.5508-35.442 0.26551-40.7 0.50259-42.25 1.905-0.97345 0.88096-1.7699 2.1804-1.7699 2.8877 0 1.7025-1.6995 2.6993-2.4718 1.4497zm-151.71 86.704c-0.24017-2.491-0.83886-3.3246-2.5634-3.5696-1.9728-0.28018-2.25 0.12023-2.25 3.25 0 3.1644 0.29096 3.5696 2.5634 3.5696 2.2896 0 2.5299-0.34708 2.25-3.25zm56.187-180.75v-63h-279l-0.20754 9.25-0.20754 9.25-0.32999-9.25-0.32998-9.25h-115.92v126h396zm-279.64 50c0-5.225 0.16854-7.3625 0.37454-4.75s0.206 6.8875 0 9.5-0.37454 0.475-0.37454-4.75zm-61.36-1.5c0-4.3333 0.42222-7.5 1-7.5 0.55 0 1 1.0829 1 2.4064 0 1.9162 0.4085 2.2996 2.0053 1.882 3.1787-0.83126 4.9947 1.4716 4.9947 6.3341 0 5.6212-1.7875 5.7252-2.1925 0.12756-0.25185-3.4808-0.66946-4.25-2.3075-4.25s-2.0557 0.76917-2.3075 4.25c-0.51969 7.1828-2.1925 4.7031-2.1925-3.25zm11.349 5.9673c-0.7389-1.9255 1.2147-4.2614 3.8952-4.6573 1.1545-0.17051 2.2843-0.87253 2.5107-1.56 0.52737-1.6014-2.9653-1.6397-4.555-0.05-0.93333 0.93333-1.2 0.82646-1.2-0.48095 0-1.7948 4.0302-3.3052 6.3965-2.3971 0.8596 0.32987 1.5367 2.4177 1.7522 5.4028l0.35125 4.8652-4.289 0.18512c-3.0083 0.12983-4.4601-0.26064-4.8619-1.3077zm6.4628-1.7288c0.35802-1.859-1.4332-2.2644-3.69-0.83501-0.75796 0.48009-1.0535 1.3981-0.65676 2.0401 1.0291 1.6651 3.9499 0.85536 4.3467-1.205zm5.1901-1.9885c2e-3 -5.1843 0.04176-5.2528 3.1791-5.4738 4.3965-0.30969 5.8189 1.2416 5.8189 6.3462 0 5.6212-1.7875 5.7252-2.1925 0.12756-0.25185-3.4808-0.66946-4.25-2.3075-4.25s-2.0557 0.76917-2.3075 4.25c-0.43905 6.0682-2.1929 5.2676-2.1905-1zm12.198 4.05c-1.6845-1.6845-1.496-7.3094 0.29468-8.7956 0.82207-0.68226 2.3971-1.0045 3.5-0.71606 1.5968 0.41758 2.0053 0.0342 2.0053-1.882 0-1.3235 0.45-2.4064 1-2.4064 0.57778 0 1 3.1667 1 7.5v7.5h-3.3c-1.815 0-3.84-0.54-4.5-1.2zm5.6038-4.1776c-0.22982-2.3617-0.85196-3.2002-2.5538-3.4419-1.9642-0.27896-2.25 0.12331-2.25 3.1667 0 3.464 1.3079 4.7974 3.8038 3.8779 0.78972-0.29093 1.184-1.7115 1-3.6027zm5.111 3.7415c-1.2735-1.5647-1.2151-1.6586 0.58517-0.93997 3.0431 1.2147 4.7426 1.195 5.1878-0.0602 0.22169-0.62499-1.0002-1.6255-2.7154-2.2234-2.4394-0.85036-3.0481-1.5829-2.7954-3.3637 0.39555-2.7876 4.8457-3.659 6.7806-1.3277 1.1284 1.3596 0.90299 1.4733-1.8356 0.92556-4.0785-0.8157-4.1156 1.0836-0.0489 2.5012 2.3959 0.8352 3.0018 1.5729 2.75 3.3478-0.42122 2.9686-5.7901 3.7428-7.9082 1.1404zm32.085-5.8638c0-4.3333 0.42222-7.5 1-7.5 0.55 0 1 1.0829 1 2.4064 0 1.9162 0.4085 2.2996 2.0053 1.882 3.1787-0.83126 4.9947 1.4716 4.9947 6.3341 0 5.6212-1.7875 5.7252-2.1925 0.12756-0.25185-3.4808-0.66946-4.25-2.3075-4.25s-2.0556 0.76917-2.3075 4.25c-0.51969 7.1828-2.1925 4.7031-2.1925-3.25zm11.372 6.0257c-0.95683-2.4935 0.32998-4.3602 3.2423-4.7036 1.5026-0.17717 2.9395-0.9533 3.1933-1.7247 0.36237-1.1018-0.33561-1.2733-3.2541-0.79969-3.1694 0.51433-3.5385 0.38981-2.5118-0.84738 1.2692-1.5293 3.7384-1.8558 6.377-0.84332 1.1284 0.43302 1.5814 1.9377 1.5803 5.25l-1e-3 4.643-4.02 0.27574c-2.8671 0.19666-4.188-0.16183-4.6055-1.25zm5.0467-0.13273c2.237-0.85843 1.9687-3.393-0.35919-3.393-2.1976 0-3.4823 1.5061-2.559 3 0.72497 1.173 0.84382 1.189 2.9182 0.39301zm6.5838-3.643c2e-3 -5.1843 0.0418-5.2528 3.1791-5.4738 4.3965-0.30969 5.8189 1.2416 5.8189 6.3462 0 5.6212-1.7875 5.7252-2.1925 0.12756-0.25185-3.4808-0.66946-4.25-2.3075-4.25s-2.0556 0.76917-2.3075 4.25c-0.43905 6.0682-2.1929 5.2676-2.1905-1zm12.198 4.05c-1.6845-1.6845-1.496-7.3094 0.29467-8.7956 0.82207-0.68226 2.3971-1.0045 3.5-0.71606 1.5968 0.41758 2.0053 0.0342 2.0053-1.882 0-1.3235 0.45-2.4064 1-2.4064 0.57778 0 1 3.1667 1 7.5v7.5h-3.3c-1.815 0-3.84-0.54-4.5-1.2zm5.6038-4.1776c-0.22982-2.3617-0.85196-3.2002-2.5538-3.4419-1.9642-0.27896-2.25 0.12331-2.25 3.1667 0 3.464 1.3079 4.7974 3.8038 3.8779 0.78972-0.29093 1.184-1.7115 1-3.6027zm5.1962 3.8776c-1.4424-1.738 0.0464-2.0536 1.7328-0.36722 1.26 1.26 4.2672 0.49724 4.2672-1.0823 0-0.55679-1.1065-1.2901-2.459-1.6295-3.6044-0.90465-5.1049-3.0366-3.4991-4.9715 1.4699-1.7711 6.1001-1.5699 6.7113 0.29163 0.29249 0.89086-0.46177 1.0672-2.6729 0.625-4.1996-0.83992-3.9014 0.93527 0.41964 2.4978 1.925 0.69609 3.5 1.8215 3.5 2.5009 0 3.4-5.69 4.9187-8 2.1353zm109.85-3.2346c-17.875-19.141-27.069-47.489-22.466-69.265 2.1088-9.9759 7.3745-20.303 13.673-26.816 7.0757-7.3165 7.5526-5.6928 0.54957 1.8712-9.8432 10.632-13.62 20.883-13.595 36.905 0.0304 19.597 8.0907 39.944 21.858 55.18 2.9553 3.2705 5.1608 6.1587 4.9013 6.4183s-2.4745-1.6725-4.922-4.2934zm77.148 4.1379c0-0.32818 2.5875-3.421 5.75-6.8728 15.071-16.45 24.026-42.527 21.31-62.055-1.7479-12.567-6.4834-22.612-14.594-30.957-2.5259-2.599-4.3364-4.9815-4.0233-5.2946 0.80698-0.80699 8.4582 7.3904 12.258 13.133 5.8714 8.8733 7.804 16.502 7.7629 30.643-0.0436 15.025-1.5458 21.339-8.4459 35.5-5.8932 12.094-20.018 30.372-20.018 25.903zm-41.98-2.1549c-10.561-5.306-10.287-18.589 0.48237-23.352 2.3835-1.0543 6.2308-3.502 8.5495-5.4393 5.221-4.362 6.538-3.7915 1.4864 0.64388l-3.6718 3.2239 2.8664 1.2052c10.547 4.4345 11.131 18.905 0.9509 23.527-5.1922 2.3573-6.3134 2.3775-10.664 0.19183zm10.895-1.7044c3.699-1.9128 6.4585-7.7408 5.6658-11.966-0.78746-4.1975-5.3501-8.504-9.7697-9.2212-4.0306-0.65408-8.8446 1.4256-11.25 4.86-1.877 2.6799-2.0518 9.7293-0.30054 12.124 1.1458 1.567 1.6572 1.3188 5.6354-2.7347 2.8489-2.9028 4.1646-5.0073 3.7712-6.0322-0.79013-2.059-4.3156-2.0241-5.4788 0.0543-0.52726 0.94217-1.1704 1.2092-1.5261 0.63364-1.0914-1.766 3.0313-4.5559 5.7311-3.8783 4.2993 1.079 4.301 4.3211 5e-3 8.721l-3.804 3.8952h3.703c2.0366 0 3.703 0.45 3.703 1s-2.1375 1.0143-4.75 1.0318c-4.394 0.0294-4.6045 0.14186-2.8089 1.5 2.4808 1.8764 7.8578 1.8821 11.474 0.0122zm-280.91-22.111c0-5.3034-0.10669-5.5359-2.25-4.9043-2.1143 0.62309-2.0867 0.50651 0.45636-1.9326 1.4885-1.4276 2.951-2.5957 3.25-2.5957s0.54364 3.375 0.54364 7.5c0 4.3333-0.42222 7.5-1 7.5-0.55 0-1-2.5053-1-5.5674zm10-0.7148v-5.2822l3.75 0.0322 3.75 0.0322 0.14444 5.5c0.07944 3.025-0.04654 4.375-0.27995 3-1.0459-6.1612-1.4514-7-3.3835-7-1.6811-2e-5 -1.9809 0.68107-1.9809 4.5 0 2.475-0.45 4.5-1 4.5s-1-2.377-1-5.2822zm11.381 2.7412c-1.3408-2.0464-1.4443-3.0251-0.5317-5.0281 0.62326-1.3679 1.8408-2.7586 2.7056-3.0905 2.3823-0.91417 6.4449 1.3429 6.4449 3.5806 0 1.5781-0.79584 2.0244-4.0512 2.2714-3.8657 0.29342-3.983 0.39908-2.5609 2.3075 1.2721 1.7071 1.7902 1.8169 3.5377 0.75 2.749-1.6784 3.5907-1.5769 2.0745 0.25-1.9445 2.3429-5.7415 1.8241-7.6188-1.041zm6.6188-4.959c0-0.93333-0.94444-1.5-2.5-1.5s-2.5 0.56667-2.5 1.5 0.94444 1.5 2.5 1.5 2.5-0.56667 2.5-1.5zm4.3491 5.9673c-0.7389-1.9255 1.2147-4.2614 3.8952-4.6573 1.1545-0.17051 2.2843-0.87253 2.5107-1.56 0.52737-1.6014-2.9653-1.6397-4.555-0.05-0.93333 0.93333-1.2 0.82646-1.2-0.48095 0-1.7948 4.0302-3.3052 6.3965-2.3971 0.85961 0.32987 1.5367 2.4177 1.7522 5.4028l0.35125 4.8652-4.289 0.18512c-3.0083 0.12983-4.4601-0.26064-4.8619-1.3077zm6.4627-1.7288c0.35802-1.859-1.4332-2.2644-3.69-0.83501-0.75796 0.48009-1.0535 1.3981-0.65676 2.0401 1.0291 1.6651 3.9499 0.85536 4.3467-1.205zm5.1882-2.035c0-5.1519 0.0751-5.2919 2.75-5.1289 3.859 0.23507 4.0581 0.42835 1.5 1.4566-1.8118 0.72826-2.25 1.6897-2.25 4.9366 0 2.2177-0.45 4.0322-1 4.0322s-1-2.3834-1-5.2965zm34.25 4.6342c-1.268-0.51166-1.7847-3.3377-0.61024-3.3377 0.35186 0 1.1512 0.69949 1.7764 1.5544 1.4892 2.0365 4.5839 0.85165 4.5839-1.755 0-1.1852-0.8581-2.211-2.1271-2.5429l-2.1271-0.55624 2.2709-1.7129c1.2613-0.95141 1.9584-2.2185 1.568-2.8502-0.94391-1.5273-4.3067-1.4493-4.8646 0.11279-0.24554 0.6875-0.79716 0.92337-1.2258 0.52417-1.1159-1.0392 1.4244-3.7742 3.5056-3.7742 2.4227 0 4.3424 2.5826 3.7119 4.9937-0.28828 1.1024-0.11639 2.2563 0.38198 2.5643 1.3049 0.80646 1.1153 4.8328-0.29388 6.242-1.2133 1.2133-4.2566 1.4631-6.55 0.53772zm-15.89-9.3377c0-5.225 0.16854-7.3625 0.37454-4.75s0.206 6.8875 0 9.5-0.37454 0.475-0.37454-4.75zm35.641 1.75c2e-3 -5.1843 0.0418-5.2528 3.1791-5.4738 4.3965-0.30969 5.8189 1.2416 5.8189 6.3462 0 5.6212-1.7875 5.7252-2.1925 0.12756-0.25185-3.4808-0.66946-4.25-2.3075-4.25s-2.0556 0.76917-2.3075 4.25c-0.43905 6.0682-2.1929 5.2676-2.1905-1zm12.052 3.8153c-0.65487-0.78907-1.0475-2.9184-0.87244-4.7319 0.2501-2.5914 0.92935-3.5109 3.1729-4.2952 2.4537-0.85774 3.1209-0.66915 4.75 1.3427 2.7476 3.3931 2.3766 4.1191-2.1047 4.1191-2.7524 0-4 0.4345-4 1.393 0 1.9374 2.9641 2.8817 4.6509 1.4817 1.577-1.3088 2.8966-0.56968 1.8902 1.0587-0.96196 1.5565-6.0992 1.3039-7.4869-0.36815zm5.9458-6.1349c0-1.0423-0.72946-1.4622-2.1717-1.25-3.2015 0.47108-3.5444 2.8196-0.41166 2.8196 1.6805 0 2.5833-0.54853 2.5833-1.5696zm4.3491 6.0369c-0.7389-1.9255 1.2147-4.2614 3.8952-4.6573 1.1545-0.17051 2.2843-0.87253 2.5107-1.56 0.52737-1.6014-2.9653-1.6397-4.555-0.05-0.93333 0.93333-1.2 0.82646-1.2-0.48095 0-1.7948 4.0302-3.3052 6.3965-2.3971 0.85961 0.32987 1.5367 2.4177 1.7522 5.4028l0.35125 4.8652-4.289 0.18512c-3.0083 0.12983-4.4601-0.26064-4.8619-1.3077zm6.4628-1.7288c0.35802-1.859-1.4332-2.2644-3.69-0.83501-0.75796 0.48009-1.0535 1.3981-0.65676 2.0401 1.0291 1.6651 3.9499 0.85536 4.3467-1.205zm5.3859-1.9088c0.28037-4.7959 0.50139-5.1966 3.0523-5.5342 3.1518-0.41711 3.7624 1.2065 0.75 1.9942-1.5891 0.41556-2 1.364-2 4.6166 0 2.2515-0.47352 4.0936-1.0523 4.0936-0.63964 0-0.93373-2.0274-0.75-5.1703zm102.07 1.7399c-9.2677-4.1788-9.4603-18.317-0.31391-23.047 2.6176-1.3536 3.0442-2.1312 3.0442-5.5486v-3.9743h-10v-23h25v4.5314c0 3.7057 0.81463 5.7457 4.4708 11.196 2.459 3.6654 4.259 6.8763 4 7.1353-0.58112 0.58111-0.40757 0.7916-4.8229-5.8492l-3.648-5.4866v11.473h-13v3.8887c0 3.6039 0.24056 3.9338 3.2845 4.5049 4.8459 0.9091 7.6524 3.2932 9.8148 8.3379 1.0605 2.474 2.822 5.7535 3.9145 7.2878 2.8234 3.965 2.4001 6.0751-0.50541 2.5198-2.6418-3.2326-2.5878-3.2409-4.2603 0.65803-2.3594 5.5003-10.783 8.1659-16.978 5.3725zm13.653-3.6466c2.2164-2.2164 3.0769-4.0178 3.0769-6.441 0-1.8502-0.45-3.6422-1-3.9821s-1-1.6647-1-2.944c0-5.2202-11.093-7.6306-16.293-3.5404-3.6295 2.855-5.1736 8.0412-3.7124 12.469 1.6676 5.0529 5.2928 7.5156 11.063 7.5156 4.0135 0 5.286-0.49783 7.8651-3.0769zm-11.923-6.4905c0-5.3034-0.10669-5.5359-2.25-4.9043-2.1143 0.62309-2.0867 0.50651 0.45636-1.9326 1.4885-1.4276 2.951-2.5957 3.25-2.5957 0.299 0 0.54364 3.375 0.54364 7.5 0 4.3333-0.42222 7.5-1 7.5-0.55 0-1-2.5053-1-5.5674zm14-34.004v-10.496l-10.75 0.28383-10.75 0.28383-0.29142 8.9209c-0.16029 4.9065-0.0769 9.4799 0.18528 10.163 0.33643 0.87674 3.5853 1.2567 11.041 1.2913l10.565 0.049zm-14 2.0043c0-5.3034-0.10669-5.5359-2.25-4.9043-2.1143 0.62309-2.0867 0.50651 0.45636-1.9326 1.4885-1.4276 2.951-2.5957 3.25-2.5957 0.299 0 0.54364 3.375 0.54364 7.5 0 4.3333-0.42222 7.5-1 7.5-0.55 0-1-2.5053-1-5.5674zm73.288 41.938c-2.0464-1.009-3.9999-3.2105-5.3819-6.0654-1.9244-3.9754-2.0331-4.9364-0.96217-8.5109 1.5423-5.1477 5.3415-8.6563 10.218-9.436 3.773-0.60332 3.8389-0.68901 3.8389-4.9861v-4.3722h-12v-3.9521c0-3.0781-1.0204-5.4118-4.6141-10.553-2.5377-3.6303-4.3704-6.8441-4.0726-7.1419s2.2616 2.0546 4.3641 5.2275l3.8226 5.769 0.29772-6.1749 0.29771-6.175h24.905v23h-12v4.4743c0 3.9299 0.35429 4.6575 2.9117 5.98 4.7906 2.4773 7.0883 6.2199 7.0883 11.546 0 9.8982-9.7199 15.804-18.712 11.371zm13.947-3.2885c2.8634-2.5585 3.2658-3.5341 3.2658-7.9194 0-3.9285-0.52449-5.5598-2.4449-7.6039-7.1228-7.5819-20.055-2.7088-20.055 7.5571 0 3.3115 0.6433 4.7275 3.4 7.4842 2.8778 2.8778 4.1041 3.4 7.9842 3.4 3.6522 0 5.2482-0.59329 7.85-2.918zm-13.254-2.6062c-1.7655-2.1273-0.43333-3.0721 1.5439-1.0949 2.0791 2.0791 3.1866 2.0454 4.3059-0.13095 1.1288-2.1947 0.44541-4.25-1.413-4.25-1.9142 0-1.7835-1.0085 0.33333-2.5724 1.4202-1.0493 1.5097-1.5365 0.47504-2.5852-1.0422-1.0564-1.6533-1.056-3.3474 2e-3 -2.6383 1.6476-3.4721 0.89299-1.3538-1.2253 3.2632-3.2632 6.6798-1.3277 7.137 4.0432 0.5682 6.6752 0.4705 7.6381-0.86068 8.4824-2.0751 1.3162-5.4471 0.98553-6.8202-0.66888zm18.02-39.064v-10.48l-10.75 0.28383-10.75 0.28383-0.29142 8.9209c-0.16029 4.9065-0.0741 9.4871 0.19148 10.179 0.34528 0.89979 3.492 1.2631 11.041 1.2748l10.559 0.0164zm-17 4.5881c-1.2968-2.4232-0.30869-2.5893 2.1525-0.36199 1.4756 1.3354 2.0906 1.4051 3.3287 0.37756 2.1287-1.7666 1.8905-4.1056-0.48124-4.7258-2.3306-0.60946-2.6975-2.2898-0.5-2.2898 0.83333 0 1.5-0.88889 1.5-2 0-2.255-2.8671-2.7329-4.8-0.8-0.78182 0.78183-1.2 0.8245-1.2 0.12245 0-2.3985 2.9443-3.6689 5.6481-2.4369 2.147 0.97825 2.4926 1.6611 2.0246 4.0012-0.31038 1.5519-0.0609 3.325 0.55438 3.9403 0.82494 0.82495 0.81635 1.7823-0.0327 3.6458-1.4735 3.234-6.5702 3.5619-8.1943 0.52712zm-323.73 33.877c-1.7738-0.50686-4.4738-2.4866-6-4.3994-2.6227-3.287-3.1042-3.4757-8.775-3.4389l-6 0.039 4.2909 2.5867c2.36 1.4227 4.093 2.7846 3.8511 3.0266-0.62267 0.62266-11.642-5.7108-11.642-6.6913s11.019-7.314 11.642-6.6913c0.24193 0.24192-1.4911 1.6039-3.8511 3.0266l-4.2909 2.5867 6.25 0.039c5.6465 0.0353 6.25-0.15887 6.25-2.0106 0-5.3125 6.153-10.95 11.951-10.95 5.1299 0 11.049 5.2086 11.049 9.7225 0 6.1334 8.5421-1.2101 11.925-10.252 1.1412-3.0502 2.0749-7.7662 2.0749-10.48v-4.9343l-13.75-0.30887-13.75-0.30888 13.75-0.21934c15.748-0.25122 15.365 0.0537 11.778-9.3878-1.9918-5.2419-8.3389-12.832-10.731-12.832-0.84656 0-1.2971 1.3893-1.2971 4v4h-22v-9.1365l-8.4697 0.26517c-4.6584 0.14585-8.735-1.4e-4 -9.0593-0.32442-0.32428-0.32429 1.9388-2.0362 5.0291-3.8043s5.8119-3.0214 6.0481-2.7852c0.23622 0.23622-1.478 1.522-3.8093 2.8573l-4.2388 2.4278 5.888 0.30402c8.3618 0.43176 8.612 0.235 8.612-6.7726v-6.0314h22v6.4012c0 6.2051 0.10295 6.462 3.3607 8.3841 5.7103 3.3692 11.639 13.422 11.639 19.735 0 2.4152 0.18862 2.4788 7.25 2.4407l7.25-0.039-4.2909-2.5867c-2.36-1.4227-4.093-2.7846-3.8511-3.0266 0.41971-0.41971 11.642 5.5484 11.642 6.1913 0 0.64292-11.222 6.611-11.642 6.1913-0.24193-0.24193 1.4911-1.6039 3.8511-3.0266l4.2909-2.5867-6.678-0.039-6.678-0.039-0.70009 5.75c-1.1109 9.1239-3.9711 15.56-8.9584 20.157-2.4424 2.2513-4.8462 4.0933-5.3417 4.0933-0.49556 0-1.469 1.3712-2.1632 3.0472-1.9507 4.7093-8.2502 7.3891-13.705 5.8302zm11.052-4.092c2.6681-2.7031 2.8946-3.2718 1.4231-3.5733-2.1358-0.43767-2.3364-2.212-0.25-2.212 2.3784 0 1.7893-4.5028-1.027-7.8498-3.1728-3.7706-7.1814-4.7167-11.803-2.7857-4.3996 1.8383-6.9876 6.4389-6.1392 10.913 1.1116 5.8622 4.5648 8.6422 10.796 8.6917 3.007 0.0239 4.5068-0.65836 7-3.1843zm-11.347-1.3095c-1.7655-2.1273-0.43334-3.0721 1.5439-1.0949 2.0791 2.0791 3.1865 2.0454 4.3059-0.13095 1.1288-2.1947 0.44541-4.25-1.413-4.25-1.9142 0-1.7835-1.0085 0.33333-2.5724 1.4202-1.0493 1.5097-1.5365 0.47504-2.5852-1.0422-1.0564-1.6533-1.056-3.3474 2e-3 -2.6383 1.6476-3.4721 0.89299-1.3539-1.2253 3.2632-3.2632 6.6798-1.3277 7.137 4.0432 0.5682 6.6752 0.4705 7.6381-0.86068 8.4824-2.0751 1.3162-5.4471 0.98553-6.8202-0.66888zm14.02-53.976c0-2.6225-0.43876-3.5291-1.75-3.616-1.6667-0.11048-1.6667-0.13778 0-0.57332 1.3955-0.36469 1.75-1.5566 1.75-5.884v-5.4267h-20v19h20zm-14.02-1.0242c-1.7655-2.1273-0.43334-3.0721 1.5439-1.0949 2.0791 2.0791 3.1865 2.0454 4.3059-0.13095 1.1288-2.1947 0.44541-4.25-1.413-4.25-1.9142 0-1.7835-1.0085 0.33333-2.5724 1.4202-1.0492 1.5097-1.5365 0.47504-2.5852-1.0422-1.0564-1.6533-1.056-3.3474 2e-3 -2.6383 1.6476-3.4721 0.89299-1.3539-1.2253 3.2632-3.2632 6.6798-1.3277 7.137 4.0432 0.5682 6.6752 0.4705 7.6381-0.86068 8.4824-2.0751 1.3162-5.4471 0.98554-6.8202-0.66887zm117.25 55.523c-1.7987-1.0967-3.7834-3.12-4.4105-4.4963-1.0419-2.2867-1.6864-2.5023-7.4796-2.5023-3.4867 0-6.3395 0.21585-6.3395 0.47968 0 0.26382 1.8436 1.4202 4.0969 2.5698 2.2533 1.1495 3.8738 2.3132 3.6011 2.5859-0.60325 0.60325-11.706-5.5582-11.678-6.4808 0.0272-0.90197 11.14-7.3282 11.701-6.7667 0.24887 0.24888-1.3831 1.5009-3.6266 2.7823-2.2435 1.2814-4.0826 2.6612-4.0868 3.0662-4e-3 0.40499 2.6572 0.66291 5.9142 0.57314 5.8343-0.16079 5.9308-0.21088 6.5263-3.3849 1.3497-7.1944 8.3547-11.635 14.931-9.4645 4.1638 1.3742 6.4255 3.7859 8.0896 8.6264l1.2785 3.7189 4.397-4.4027c5.004-5.0106 7.8559-12.267 7.8559-19.989v-4.857l-13.75-0.30887-13.75-0.30888 13.75-0.21934c15.748-0.25122 15.366 0.0538 11.778-9.3878-1.9918-5.2419-8.3389-12.832-10.731-12.832-0.84656 0-1.297 1.3893-1.297 4v4h-22v-9.1365l-8.4697 0.26517c-4.6584 0.14585-8.7288 6e-3 -9.0455-0.31061-0.31668-0.31669 1.9652-2.0098 5.0708-3.7625 6.6269-3.74 8.5121-3.5041 2.2354 0.2797l-4.2909 2.5867 7.25 0.039 7.25 0.039v-13h22v6.4012c0 6.2051 0.10295 6.462 3.3607 8.3841 5.9344 3.5014 11.639 13.226 11.639 19.84 0 2.2843 0.27475 2.3728 7.25 2.3352l7.25-0.039-4.2909-2.5867c-2.36-1.4227-4.093-2.7846-3.8511-3.0266 0.42887-0.42887 11.642 5.5556 11.642 6.2134 0 0.75437-11.163 6.6487-11.656 6.155-0.29566-0.29567 1.306-1.4781 3.5593-2.6277 2.2533-1.1496 4.0969-2.3059 4.0969-2.5698s-2.8443-0.47968-6.3207-0.47968h-6.3207l-1.1976 7.7033c-1.4383 9.2512-5.3307 16.741-10.565 20.328-2.0315 1.3924-4.2407 3.6289-4.9093 4.97-1.6056 3.2205-7.3237 6.9993-10.584 6.9946-1.4312-2e-3 -4.0738-0.90102-5.8725-1.9977zm9.1093 0.0627c2.5544-0.97116 6.6611-4.8244 6.6611-6.2498 0-0.44629-0.7875-0.8419-1.75-0.87912-1.4009-0.0542-1.3046-0.28262 0.48264-1.1451 2.9419-1.4196 2.1562-5.2683-1.8448-9.0372-5.3258-5.0168-13.569-3.15-16.441 3.7231-1.5875 3.7995-0.96277 7.142 1.9412 10.386 3.4269 3.8283 6.7487 4.7996 10.951 3.2019zm-3.3389-8.6286c0-5.3034-0.10669-5.5359-2.25-4.9043-2.1143 0.62309-2.0867 0.50651 0.45636-1.9326 1.4885-1.4276 2.951-2.5957 3.25-2.5957 0.299 0 0.54364 3.375 0.54364 7.5 0 4.3333-0.42222 7.5-1 7.5-0.55 0-1-2.5053-1-5.5674zm9.8054-49.599c0.23751-2.8515-0.0958-3.77-1.5-4.134-1.6589-0.43002-1.6634-0.4774-0.0554-0.58399 1.4405-0.0955 1.75-1.0888 1.75-5.616v-5.5h-20v20.072l9.75-0.28622 9.75-0.28621zm-9.8054-4.4014c0-5.3034-0.10669-5.5359-2.25-4.9043-2.1143 0.62309-2.0867 0.50651 0.45636-1.9326 1.4885-1.4276 2.951-2.5957 3.25-2.5957 0.299 0 0.54364 3.375 0.54364 7.5 0 4.3333-0.42222 7.5-1 7.5-0.55 0-1-2.5053-1-5.5674zm188.88 53.935c-1.3979-2.1272-3.3445-5.1052-4.3258-6.6177s-1.3461-2.75-0.81069-2.75c1.3096 0 8.4664 10.87 8.0262 12.191-0.19146 0.5744-1.4919-0.69609-2.8898-2.8233zm-236.52-9.3677c0-5.225 0.16854-7.3625 0.37454-4.75s0.206 6.8875 0 9.5-0.37454 0.475-0.37454-4.75zm123.22-0.87084c-0.84401-1.3656-1.0871-11.955-0.29264-12.75 1.4073-1.4073 2.1397 0.80642 1.922 5.8093-0.12184 2.8003 0.28635 5.7034 0.90709 6.4513 0.8697 1.0479 0.76995 1.3599-0.4348 1.3599-0.85988 0-1.8056-0.39188-2.1016-0.87084zm5.4744-0.56384c-0.65487-0.78907-1.0475-2.9184-0.87244-4.7319 0.2501-2.5914 0.92935-3.5109 3.1729-4.2952 2.4537-0.85774 3.1209-0.66915 4.75 1.3427 1.0424 1.2873 1.8953 3.1586 1.8953 4.1584 0 4.1598-6.3444 6.6604-8.9458 3.526zm5.935-1.0523c0.72178-0.86969 0.96551-2.5572 0.5871-4.0649-0.94183-3.7525-4.9502-3.0531-5.4064 0.94342-0.46018 4.0313 2.4824 5.9372 4.8193 3.1215zm-220.49-17.002c0-9.2563 2.2342-9.6302 2.6704-0.44686 0.26834 5.6497 0.0507 6.9399-1.1704 6.938-1.179-2e-3 -1.5-1.3909-1.5-6.4912zm292.25-0.43794c2.3375-2.1147 4.25-4.1212 4.25-4.459s-2.7-0.61413-6-0.61413h-6v-23h25v23h-4.8819c-4.3947 0-5.3678 0.44806-9.75 4.4893-2.6774 2.4691-5.3181 4.4757-5.8681 4.459-0.55-0.0167 0.9125-1.7605 3.25-3.8752zm15.25-16.073v-10h-22v20h22zm-17 6.2878c0-0.39168 1.861-2.6083 4.1354-4.9258 2.6765-2.7272 3.9223-4.769 3.5314-5.7878-0.79013-2.059-4.3156-2.0241-5.4788 0.0543-0.52726 0.94217-1.1704 1.2092-1.5261 0.63364-1.0914-1.766 3.0313-4.5559 5.7311-3.8783 4.2993 1.079 4.301 4.3211 5e-3 8.721l-3.804 3.8952h3.703c2.0366 0 3.703 0.45 3.703 1s-2.25 1-5 1-5-0.32047-5-0.71215zm-204.64 3.7122c0-5.225 0.16854-7.3625 0.37454-4.75s0.206 6.8875 0 9.5-0.37454 0.475-0.37454-4.75zm30.64 7c-1.2968-2.4232-0.30869-2.5893 2.1525-0.36199 1.4756 1.3354 2.0906 1.4051 3.3287 0.37756 2.1287-1.7666 1.8905-4.1056-0.48124-4.7258-2.3306-0.60946-2.6975-2.2898-0.5-2.2898 0.83333 0 1.5-0.88889 1.5-2 0-2.255-2.8671-2.7329-4.8-0.8-0.78182 0.78183-1.2 0.8245-1.2 0.12245 0-2.3985 2.9443-3.6689 5.6481-2.4369 2.147 0.97825 2.4926 1.6611 2.0246 4.0012-0.31038 1.5519-0.0609 3.325 0.55438 3.9403 0.82494 0.82495 0.81635 1.7823-0.0327 3.6458-1.4735 3.234-6.5702 3.5619-8.1943 0.52712zm-123.25-17.068c-3.5653-1.8822-4.6475-2.938-3-2.9268 0.4125 3e-3 2.55 1.1138 4.75 2.4688 4.7771 2.9423 3.5595 3.261-1.75 0.458zm119-4c-3.5653-1.8822-4.6476-2.938-3-2.9268 0.4125 3e-3 2.55 1.1138 4.75 2.4688 4.7771 2.9423 3.5595 3.261-1.75 0.458zm553.25 42.068v-63h-298v126h298zm-107 51.5c0-5 0.41176-8.5 1-8.5s1 3.5 1 8.5-0.41176 8.5-1 8.5-1-3.5-1-8.5zm25-1.83v-7.33l3.56 0.11812c1.958 0.065 3.9761 0.77599 4.4847 1.58 2.292 3.6236 0.15959 8.9619-3.5799 8.9619-1.7982 0-2.4648 0.54095-2.4648 2 0 1.1-0.45 2-1 2-0.57572 0-1-3.11-1-7.33zm5.9543 0.88508c1.853-2.2328 0.89351-6.0055-1.6184-6.3633-2.6487-0.37733-3.946 2.7999-2.3561 5.7705 1.2887 2.4079 2.3382 2.5644 3.9745 0.59281zm5.2519-0.80504 0.29381-7.25h3.4542c2.6889 0 3.7835 0.58378 4.9405 2.6348 1.3358 2.3679 1.3128 2.8996-0.22726 5.25-1.0845 1.6552-2.6228 2.6152-4.1905 2.6152-1.8103 0-2.477 0.5383-2.477 2 0 1.1-0.46971 2-1.0438 2-0.65611 0-0.93468-2.6928-0.75-7.25zm6.783 0.76299c0.72178-0.86969 0.96551-2.5572 0.5871-4.0649-0.48884-1.9477-1.1884-2.5009-2.8617-2.263-2.561 0.36417-3.543 4.112-1.669 6.37 1.5192 1.8305 2.3972 1.8211 3.9435-0.042zm-28.935 1.0523c-0.65487-0.78907-1.0475-2.9184-0.87244-4.7319 0.2501-2.5914 0.92935-3.5109 3.1729-4.2952 2.4537-0.85774 3.1209-0.66915 4.75 1.3427 1.0424 1.2874 1.8953 3.1586 1.8953 4.1584 0 4.1598-6.3444 6.6604-8.9458 3.526zm5.935-1.0523c0.72178-0.86969 0.96551-2.5572 0.5871-4.0649-0.94183-3.7525-4.9502-3.0531-5.4064 0.94342-0.46018 4.0313 2.4824 5.9372 4.8193 3.1215zm33.504 1.4768c-1.0571-1.7104 0.26711-2.4332 1.9298-1.0533 1.0399 0.86301 2.0008 0.92286 3.2742 0.20392 1.5834-0.89393 1.3467-1.209-1.9476-2.5924-5.9947-2.5175-3.9493-8.0156 2.25-6.048 3.151 1.0001 2.3314 2.5163-1 1.85-3.9749-0.79498-3.9191 1.134 0.073 2.5256 2.3959 0.8352 3.0018 1.5729 2.75 3.3478-0.24648 1.737-1.071 2.3492-3.4792 2.5829-1.7359 0.1685-3.4684-0.19894-3.8501-0.81653zm10.506-4.5488c0-3.4514 0.37914-5.3247 1-4.941 0.55 0.33992 1 2.8415 1 5.559s-0.45 4.941-1 4.941-1-2.5016-1-5.559zm5.2 4.359c-1.6845-1.6845-1.496-7.3094 0.29467-8.7956 0.82207-0.68226 2.3971-1.0045 3.5-0.71606 1.5968 0.41758 2.0053 0.0342 2.0053-1.882 0-1.3235 0.45-2.4064 1-2.4064 0.57778 0 1 3.1667 1 7.5v7.5h-3.3c-1.815 0-3.84-0.54-4.5-1.2zm5.6038-4.1776c-0.22982-2.3617-0.85196-3.2002-2.5538-3.4419-1.9642-0.27896-2.25 0.12331-2.25 3.1667 0 3.464 1.3079 4.7974 3.8038 3.8779 0.78972-0.29093 1.184-1.7115 1-3.6027zm5.2313 3.4434c-1.5434-2.8839-1.2574-5.5546 0.79356-7.4108 2.2967-2.0785 4.5761-2.1073 6.5998-0.0836 2.8151 2.8151 1.9302 4.4286-2.4286 4.4286-4.2344 0-4.9902 0.93334-2.4576 3.0352 1.1683 0.96957 1.8232 0.99927 2.7 0.12245 0.63669-0.63669 1.7977-1.1576 2.5801-1.1576 1.151 0 1.1849 0.28623 0.17756 1.5-1.8053 2.1752-6.7114 1.9077-7.9648-0.43426zm6.9648-5.0971c0-0.56727-0.675-1.2904-1.5-1.607-2.0027-0.76852-4.7866 0.3656-4.0044 1.6313 0.81898 1.3251 5.5044 1.3044 5.5044-0.0243zm-253.5-16.197c-6.05-7.2008-11.327-13.637-11.727-14.302-0.77934-1.2966 21.774-28.822 23.169-28.277 1.0738 0.41969 23.057 26.493 23.057 27.347 0 0.37535-1.9093 2.9949-4.243 5.8212-5.0545 6.1217-16.567 19.651-18.142 21.321-0.83957 0.8899-3.8323-2.0523-12.115-11.911zm19.462 0.97869c0.0211-0.4125-2.8866-0.75-6.4616-0.75h-6.5v-26.219l7.4965 0.37856c6.575 0.33202 7.8337 0.71569 10.239 3.1211 2.1494 2.1494 2.853 3.969 3.2535 8.414l0.51096 5.6714 2.6467-3.4811 2.6467-3.4811-10.872-12.952c-5.9795-7.1237-11.121-12.851-11.426-12.727-0.95364 0.38713-21.495 25.031-21.495 25.788 0 0.39501 4.8375 6.5022 10.75 13.572l10.75 12.853 4.2116-4.7188c2.3164-2.5954 4.2289-5.0563 4.25-5.4688zm1.9906-5.5102c2.7527-2.229 3.7872-9.0404 2.0208-13.305-1.4202-3.4287-4.3311-4.9348-9.5381-4.9348h-3.4349v20h4.3892c2.6999 0 5.2258-0.67745 6.563-1.7602zm68.149 1.1164c-6.1055-7.6131-11.101-14.073-11.101-14.356 0-1.5072 22.325-28.065 22.99-27.349 3.7922 4.084 21.01 26.498 21.01 27.35 0 0.82775-15.816 21.372-21.054 27.348-0.40931 0.46699-5.7396-5.3798-11.845-12.993zm22.811-2.6022 9.2627-11.746-3.1712-4.004c-2.8424-3.5888-3.6292-4.004-7.5872-4.004h-4.416v11.5c0 9.4415-0.26264 11.5-1.4672 11.5-1.186 0-1.5214-2.1568-1.75-11.25l-0.28275-11.25-4.25-0.3075c-2.8374-0.20529-4.25-0.77446-4.25-1.7125 0-1.0809 2.0698-1.4713 8.9727-1.6925l8.9727-0.28753-5.5898-7.25c-3.0744-3.9875-5.8746-7.2193-6.2227-7.1819-0.8941 0.0962-19.565 24.048-19.95 25.592-0.17427 0.69981 4.2662 6.9559 9.8677 13.902 8.2625 10.247 10.412 12.376 11.391 11.284 0.66372-0.74062 5.375-6.6323 10.47-13.093zm118.09 15.187c0-0.58246 0.45-0.7809 1-0.44098s1 0.81648 1 1.059-0.45 0.44098-1 0.44098-1-0.47656-1-1.059zm-64-13.441c0-5 0.41176-8.5 1-8.5s1 3.5 1 8.5-0.41176 8.5-1 8.5-1-3.5-1-8.5zm-32.242-1.4759c-3.3253-2.6156-4.2669-6.0241-1.6642-6.0241 1.0485 0 1.9064 0.41786 1.9064 0.92857 0 3.1485 6.8362 5.2227 11.418 3.4644 1.8843-0.72309 2.1006-4.7323 0.33179-6.1498-0.6875-0.55094-3.8267-1.7405-6.976-2.6434-8.0031-2.2945-9.9955-6.4691-5.3194-11.145 1.8932-1.8932 3.5045-2.4546 7.0454-2.4546s5.1523 0.56136 7.0454 2.4546c2.6541 2.6541 3.0467 4.0615 1.4144 5.0703-0.57208 0.35356-1.9547-0.51988-3.0726-1.941-3.2234-4.0979-10.887-3.3974-10.887 0.99522 0 2.0262 0.82387 2.5954 5.75 3.9724 9.4364 2.6378 12.704 8.0851 7.7954 12.994-3.2084 3.2085-10.997 3.4606-14.788 0.47867zm-87-1c-3.3253-2.6156-4.2669-6.0241-1.6642-6.0241 1.0485 0 1.9064 0.41786 1.9064 0.92857 0 3.1485 6.8362 5.2227 11.418 3.4644 1.8843-0.72309 2.1006-4.7323 0.33179-6.1498-0.6875-0.55094-3.8267-1.7405-6.976-2.6434-8.0031-2.2945-9.9955-6.4691-5.3194-11.145 1.8932-1.8932 3.5045-2.4546 7.0454-2.4546s5.1523 0.56136 7.0454 2.4546c2.6541 2.6541 3.0467 4.0615 1.4144 5.0703-0.57208 0.35356-1.9547-0.51988-3.0726-1.941-3.2234-4.0979-10.887-3.3974-10.887 0.99522 0 2.0262 0.82387 2.5954 5.75 3.9724 9.4364 2.6378 12.704 8.0851 7.7954 12.994-3.2084 3.2085-10.997 3.4606-14.788 0.47867zm133.3-2.4588c-0.65487-0.78907-1.0475-2.9184-0.87244-4.7319 0.2501-2.5914 0.92935-3.5109 3.1729-4.2952 2.4537-0.85774 3.1209-0.66915 4.75 1.3427 2.7476 3.3931 2.3766 4.1191-2.1047 4.1191-2.7524 0-4 0.4345-4 1.393 0 1.9374 2.9641 2.8817 4.6509 1.4817 1.577-1.3088 2.8966-0.56968 1.8902 1.0587-0.96196 1.5565-6.0992 1.3039-7.4869-0.36815zm5.9458-6.1349c0-1.0423-0.72946-1.4622-2.1717-1.25-3.2015 0.47108-3.5444 2.8196-0.41166 2.8196 1.6805 0 2.5833-0.54853 2.5833-1.5696zm5 2.2874v-5.2822l3.75 0.0322 3.75 0.0322 0.14444 5.5c0.0794 3.025-0.0465 4.375-0.27995 3-1.0459-6.1612-1.4514-7-3.3835-7-1.6811 0-1.981 0.68109-1.981 4.5 0 2.475-0.45 4.5-1 4.5s-1-2.377-1-5.2822zm12.2 4.0822c-1.6845-1.6845-1.496-7.3094 0.29467-8.7956 0.82207-0.68226 2.3971-1.0045 3.5-0.71606 1.5968 0.41758 2.0053 0.0342 2.0053-1.882 0-1.3235 0.45-2.4064 1-2.4064 0.57778 0 1 3.1667 1 7.5v7.5h-3.3c-1.815 0-3.84-0.54-4.5-1.2zm5.6038-4.1776c-0.22982-2.3617-0.85196-3.2002-2.5538-3.4419-1.9642-0.27896-2.25 0.12331-2.25 3.1667 0 3.464 1.3079 4.7974 3.8038 3.8779 0.78972-0.29093 1.184-1.7115 1-3.6027zm11.176 3.8535c-1.7655-2.1273-0.43333-3.0721 1.5439-1.0949 2.0791 2.0791 3.1866 2.0454 4.3059-0.13095 1.1288-2.1947 0.44541-4.25-1.413-4.25-1.9142 0-1.7835-1.0085 0.33333-2.5724 1.4202-1.0493 1.5097-1.5365 0.47504-2.5852-1.0422-1.0564-1.6533-1.056-3.3474 2e-3 -2.6383 1.6476-3.4721 0.89299-1.3538-1.2253 3.2632-3.2632 6.6798-1.3277 7.137 4.0432 0.5682 6.6752 0.4705 7.6381-0.86068 8.4824-2.0751 1.3162-5.4471 0.98553-6.8202-0.66888zm10.02 1.0018c0-0.28729 1.8508-2.5303 4.113-4.9844 2.5307-2.7455 3.8892-5.0451 3.5314-5.9777-0.78345-2.0416-3.6023-1.9175-5.3241 0.2344-1.3211 1.6511-1.3838 1.6431-1.1102-0.14282 0.45382-2.9623 3.1848-4.2039 6.2123-2.8245 3.6278 1.653 3.2715 4.8268-0.99354 8.8493l-3.5712 3.3681h3.5712c1.9642 0 3.5712 0.45 3.5712 1s-2.25 1-5 1-5-0.23505-5-0.52234zm17-5.045c0-5.3034-0.10669-5.5359-2.25-4.9043-2.1143 0.62309-2.0867 0.50651 0.45636-1.9326 1.4885-1.4276 2.951-2.5957 3.25-2.5957 0.299 0 0.54364 3.375 0.54364 7.5 0 4.3333-0.42222 7.5-1 7.5-0.55 0-1-2.5053-1-5.5674zm-81-16.933c0-5 0.41176-8.5 1-8.5s1 3.5 1 8.5-0.41176 8.5-1 8.5-1-3.5-1-8.5zm26-23.603v-13.103l8.5806 0.35262c9.6677 0.39729 11.419 1.5616 11.419 7.5902 0 2.639-0.60795 3.7043-2.8477 4.9898l-2.8477 1.6344 3.8434 5.0691c4.3582 5.7481 4.6074 6.5691 1.9936 6.5691-1.1433 0-3.2636-2.1163-5.5102-5.5-3.4111-5.1375-3.9148-5.5-7.6416-5.5h-3.9898v5.5c0 4.2222-0.34848 5.5-1.5 5.5-1.257 0-1.5-2.1225-1.5-13.103zm13.991-2.1872c3.1102-1.5736 3.7987-4.6594 1.4265-6.394-0.98993-0.72385-4.1889-1.3161-7.1087-1.3161h-5.3089v3.8333c0 2.1083 0.3 4.1333 0.66667 4.5 1.1135 1.1135 7.6747 0.71742 10.324-0.62319zm-39.991-0.21014c0-5 0.41176-8.5 1-8.5s1 3.5 1 8.5-0.41176 8.5-1 8.5-1-3.5-1-8.5zm-156.83 1.1826c-0.16011-5.541-0.27501-5.7845-2.4181-5.1258-2.2214 0.68283-2.2183 0.65714 0.25-2.0244l2.5-2.716 0.30879 4.1182c0.16983 2.265 0.13298 5.7938-0.0819 7.8417-0.28257 2.6931-0.4372 2.1137-0.55879-2.0938zm18.082 4.6551c-1.268-0.51166-1.7847-3.3377-0.61024-3.3377 0.35186 0 1.1512 0.69949 1.7764 1.5544 1.4892 2.0365 4.5839 0.85166 4.5839-1.755 0-1.1852-0.8581-2.211-2.1271-2.5429l-2.1271-0.55623 2.2709-1.7129c1.2613-0.95141 1.9584-2.2185 1.568-2.8501-0.94391-1.5273-4.3067-1.4493-4.8646 0.11278-0.24554 0.6875-0.79716 0.92338-1.2258 0.52417-1.1159-1.0392 1.4244-3.7742 3.5056-3.7742 2.4227 0 4.3424 2.5826 3.7119 4.9937-0.28828 1.1024-0.11639 2.2563 0.38198 2.5643 1.3049 0.80646 1.1153 4.8328-0.29388 6.242-1.2133 1.2133-4.2566 1.4631-6.55 0.53772zm84.75 0.13994c0-0.28729 1.8508-2.5303 4.113-4.9844 2.5307-2.7455 3.8892-5.0451 3.5314-5.9776-0.78345-2.0416-3.6023-1.9175-5.3241 0.23439-1.3211 1.6511-1.3838 1.6431-1.1102-0.14282 0.45382-2.9623 3.1848-4.2039 6.2123-2.8245 3.6278 1.653 3.2715 4.8268-0.99354 8.8493l-3.5712 3.3681h3.5712c1.9642 0 3.5712 0.45 3.5712 1s-2.25 1-5 1-5-0.23505-5-0.52234zm-125-15.978c0-2.321 3.0368-6.4844 4.75-6.5122 0.4125-7e-3 16.05-0.11919 34.75-0.25 30.097-0.21054 34.364-0.437 37.171-1.9728 4.242-2.3208 7.4138-6.9799 8.067-11.85 0.68923-5.1386 2.5135-4.5458 3.4827 1.1316 1.1224 6.575 5.7203 10.715 13.313 11.987 3.2813 0.54975 19.674 0.94463 36.427 0.87751l30.461-0.12204 2.2889 2.661c2.1806 2.5351 3.1327 6.5738 1.5389 6.5278-0.4125-0.0119-1.425-1.4744-2.25-3.25l-1.5-3.2284-35-0.5c-23.108-0.33012-35.863-0.88907-37.539-1.6451-1.3966-0.62983-4.0966-2.8798-6-5l-3.4607-3.8549-4 4.1455c-2.4352 2.5238-5.5648 4.5754-8 5.2444-2.5249 0.69364-16.021 1.1009-36.595 1.1045-30.303 5e-3 -32.711 0.13415-34.25 1.8343-0.91025 1.0058-1.655 2.5808-1.655 3.5s-0.45 1.6713-1 1.6713-1-1.125-1-2.5zm179-16c0-5 0.41176-8.5 1-8.5s1 3.5 1 8.5-0.41176 8.5-1 8.5-1-3.5-1-8.5zm108-29.5v-17h-697v34h697zm-687.17 8.1238c0.97312-0.61686 1.2436-2.9122 1-8.487l-0.33387-7.6415 5.75 2e-3c4.7442 2e-3 5.75 0.29972 5.75 1.7024 0 1.3222-0.26667 1.4333-1.2 0.5-0.66-0.66-2.7135-1.2-4.5634-1.2-3.1922 0-3.3474 0.16542-3.05 3.25 0.28655 2.9719 0.59144 3.2374 3.5634 3.1026 1.9382-0.0879 3.25 0.33556 3.25 1.0492 0 0.78337-1.2337 1.0526-3.5721 0.77962-3.5215-0.41112-3.5676-0.36932-3.25 2.9508 0.28288 2.9573 0.70299 3.4049 3.4467 3.6718 1.9975 0.19435 3.7809-0.34671 4.944-1.5 1.7537-1.7388 1.7944-1.7378 1.1254 0.0278-0.38172 1.0075-0.69405 2.02-0.69405 2.25s-3.0375 0.41132-6.75 0.4029c-4.0686-9e-3 -6.2201-0.35121-5.4161-0.86085zm18.4-3.1222c3.9839-3.9839 3.9922-4.0084 2.2812-6.75-0.94444-1.5134-2.6215-3.5391-3.7268-4.5016-1.9767-1.7213-1.9577-1.75 1.1601-1.75 1.7434 0 2.937 0.37667 2.6525 0.83703-0.28452 0.46037 0.18444 1.8389 1.0421 3.0634 1.4927 2.1311 1.6422 2.1515 3.4936 0.47607 1.0638-0.9627 1.7074-2.3412 1.4302-3.0634-0.32806-0.85491 0.31734-1.3131 1.8496-1.3131 2.2908 0 2.2645 0.0971-0.98758 3.6476-3.7126 4.0532-3.6072 4.8088 1.4224 10.193l2.9514 3.1594h-3.4602c-2.1493 0-3.2158-0.3955-2.815-1.044 0.35487-0.57419-0.13397-2.2332-1.0863-3.6866l-1.7315-2.6426-2.2952 2.8784c-1.2623 1.5831-2.0704 3.2421-1.7957 3.6866 0.27473 0.44451-0.59911 0.80821-1.9419 0.80821-2.3289 0-2.2571-0.18423 1.557-3.9984zm18.647 2.9917c-2.9098-1.7002-4.2223-6.4294-2.898-10.442 1.4536-4.4044 3.7528-5.7087 9.5354-5.4094 3.712 0.19215 4.4814 0.56989 4.4814 2.2001 0 1.8434-0.11594 1.8632-1.8287 0.31314-4.3446-3.9318-10.171-0.58346-10.171 5.845 0 4.2836 2.4299 7.3011 6.263 7.7776l3.237 0.40235-3.5 0.12963c-1.925 0.0713-4.2285-0.29603-5.1189-0.81627zm14.619-7.4933c0-7.8326 0.15704-8.5002 2-8.5023 1.8548-2e-3 1.9758 0.55243 1.6661 7.6392-0.24358 5.5748 0.02688 7.8702 1 8.487 0.8997 0.57032 0.35738 0.85052-1.6661 0.86085l-3 0.0153zm12.25 7.8377c0.8423-0.33988 1.25-2.9234 1.25-7.921 0-6.4753-0.22846-7.4167-1.8-7.4167-0.99 0-2.34 0.54-3 1.2-0.93333 0.93333-1.2 0.82222-1.2-0.5 0-1.4381 1.0784-1.7 7-1.7s7 0.26191 7 1.7c0 1.3222-0.26667 1.4333-1.2 0.5-0.66-0.66-2.01-1.2-3-1.2-1.5715 0-1.8 0.94136-1.8 7.4167 0 4.9977 0.4077 7.5812 1.25 7.921 0.6875 0.27741-0.325 0.50439-2.25 0.50439s-2.9375-0.22698-2.25-0.50439zm12.05-0.53772c1.6494-1.6494 1.607-14.469-0.05-15.138-0.6875-0.27741 1.5625-0.53991 5-0.58333 3.4375-0.0434 6.25 0.27044 6.25 0.69748 0 0.42703-1.8 0.60477-4 0.39496-3.9975-0.38122-4-0.37921-4 3.2236 0 3.0951 0.32533 3.605 2.3 3.605 1.265 0 2.84-0.54 3.5-1.2 0.93333-0.93333 1.2-0.75573 1.2 0.7992 0 1.696-0.53088 1.9372-3.5 1.5906-3.429-0.40031-3.5-0.33539-3.5 3.2008 0 3.4167 0.17618 3.6094 3.3 3.6094 1.815 0 3.84-0.54 4.5-1.2 0.93333-0.93333 1.2-0.82222 1.2 0.5 0 1.4308-1.0608 1.7-6.7 1.7-5.2111 0-6.4333-0.26667-5.5-1.2zm15.7-7.3v-8.5h5.2954c4.289 0 5.762 0.46651 7.75 2.4546 2.6489 2.6489 3.1071 6.0192 1.3443 9.8881-1.4082 3.0906-4.835 4.6573-10.187 4.6573h-4.203zm10.5 5.5c4.3173-4.3173 1.3118-13-4.5-13-2.4444 0-2.5 0.16667-2.5 7.5s0.0556 7.5 2.5 7.5c1.375 0 3.4-0.9 4.5-2zm14 0.2775v-2.7225l1.5967 2.2796c1.116 1.5932 2.3956 2.1871 4.25 1.9725 3.9618-0.45853 3.3521-3.4961-1.3416-6.6837-6.4888-4.4067-5.6526-9.1234 1.6174-9.1234 3.3236 0 3.8776 0.31301 3.8776 2.1911 0 2.0481-0.0853 2.0745-1.306 0.40503-1.5463-2.1146-6.0346-1.8339-6.4561 0.40384-0.16563 0.87931 1.5888 2.6277 4.2398 4.2254 3.2846 1.9794 4.5223 3.3616 4.5223 5.05 0 3.4102-1.8639 4.7246-6.7 4.7246-4.0137 0-4.3-0.18126-4.3-2.7225zm18.83-5.4071 0.33029-8.1343-2.5803 0.49325c-1.4192 0.27129-2.5803 0.10566-2.5803-0.36807s3.15-0.86133 7-0.86133c5.9216 0 7 0.26191 7 1.7 0 1.3222-0.26667 1.4333-1.2 0.5-0.66-0.66-2.0443-1.2-3.0762-1.2-1.7057 0-1.8465 0.72687-1.55 8.0024 0.30341 7.4444 0.1867 8.0024-1.6738 8.0024-1.8632 0-1.9774-0.55657-1.6697-8.1343zm11.38 6.7761c0.74439-0.74439 2.6481-4.5694 4.2304-8.5s3.1429-7.141 3.468-7.1342c0.32506 7e-3 1.8841 3.2693 3.4645 7.25 1.5804 3.9807 3.5789 7.8002 4.4411 8.4877 1.3359 1.0652 1.0871 1.25-1.6825 1.25-1.8664 0-2.9924-0.41695-2.6449-0.97933 0.33289-0.53864 0.11862-1.8886-0.47617-3-1.5627-2.92-6.7957-2.7684-7.9174 0.22933-0.54001 1.4432-0.43881 2.5134 0.28222 2.9847 0.62132 0.40607-0.13786 0.74154-1.6973 0.75-2.3721 0.0129-2.6059-0.20021-1.468-1.3381zm8.4683-8.6864c-1.0418-2.7602-1.2639-2.8806-2.4131-1.3089-1.9517 2.6691-1.5085 4.3487 1.1474 4.3487 2.2733 0 2.3466-0.1762 1.2657-3.0398zm14.071 9.3776c0.8423-0.33988 1.25-2.9234 1.25-7.921 0-6.4753-0.22846-7.4167-1.8-7.4167-0.99 0-2.34 0.54-3 1.2-0.93333 0.93333-1.2 0.82222-1.2-0.5 0-1.4381 1.0784-1.7 7-1.7s7 0.26191 7 1.7c0 1.3222-0.26667 1.4333-1.2 0.5-0.66-0.66-2.01-1.2-3-1.2-1.5715 0-1.8 0.94136-1.8 7.4167 0 4.9977 0.4077 7.5812 1.25 7.921 0.6875 0.27741-0.325 0.50439-2.25 0.50439s-2.9375-0.22698-2.25-0.50439zm12.084-0.21388c0.97312-0.61686 1.2436-2.9122 1-8.487l-0.33387-7.6415 5.75 2e-3c4.7442 2e-3 5.75 0.2997 5.75 1.7023 0 1.3222-0.26667 1.4333-1.2 0.5-0.66-0.66-2.7135-1.2-4.5634-1.2-3.1922 0-3.3474 0.16542-3.05 3.25 0.28655 2.9719 0.59144 3.2374 3.5634 3.1026 1.9382-0.0879 3.25 0.33555 3.25 1.0492 0 0.78336-1.2337 1.0526-3.5722 0.77962-3.5215-0.41113-3.5676-0.36932-3.25 2.9508 0.28288 2.9573 0.70299 3.4049 3.4467 3.6718 1.9975 0.19434 3.7809-0.34672 4.944-1.5 1.7537-1.7388 1.7944-1.7378 1.1254 0.0278-0.38173 1.0075-0.69405 2.02-0.69405 2.25 0 0.23001-3.0375 0.41132-6.75 0.4029-4.0686-9e-3 -6.2201-0.35121-5.4161-0.86085zm15.166-1.2788c0-2.0608 0.0839-2.0791 1.9175-0.41964 2.3372 2.1151 6.4394 1.7184 6.8939-0.6668 0.21617-1.1342-0.92246-2.4815-3.2656-3.864-4.532-2.6739-5.9872-5.2012-4.5458-7.8945 1.4337-2.6788 9-2.931 9-0.3 0 1.3222-0.26667 1.4333-1.2 0.5-1.532-1.532-5.4631-1.5542-6.4012-0.0362-0.4215 0.68201 0.48551 2.1079 2.191 3.4444 5.0111 3.9269 7.4102 6.2854 7.4102 7.2846 0 2.2911-3.3478 4.1072-7.5714 4.1072-3.8681 0-4.4286-0.27274-4.4286-2.155zm279.5-6.345c0-7.9014 0.14432-8.5 2.0492-8.5 1.7639 0 1.9907 0.50113 1.6289 3.6-0.39597 3.3918-0.29894 3.535 1.6779 2.4771 2.3638-1.2651 4.4005-4.4872 3.4422-5.4456-0.34732-0.34731 0.56981-0.63148 2.0381-0.63148 2.6412 0 2.6265 0.0389-1.3808 3.6592l-4.0503 3.6592 3.7974 3.9382c2.0886 2.166 4.6975 4.3158 5.7975 4.7774 1.5863 0.66564 1.2244 0.85233-1.75 0.90261-2.4614 0.0416-3.75-0.38779-3.75-1.2495 0-0.7221-1.3987-2.6346-3.1083-4.25l-3.1083-2.9371 0.38472 4.25c0.33749 3.7284 0.136 4.25-1.6417 4.25-1.8763 0-2.0264-0.62972-2.0264-8.5zm18.5 7.5c0-0.55 0.70156-1 1.559-1s1.2809 0.45 0.94098 1-1.0415 1-1.559 1-0.94098-0.45-0.94098-1zm14.073-1.6349c-2.8853-3.668-2.7121-8.8165 0.40126-11.93 2.0435-2.0435 3.3481-2.4429 7.5-2.2959 4.6817 0.1657 5.0262 0.3536 5.0262 2.7418v2.5639l-1.5567-2.2225c-1.922-2.744-6.4766-2.9481-8.7883-0.39377-2.2842 2.524-2.1807 9.3856 0.17375 11.516 2.1656 1.9598 6.205 2.16 8.173 0.40499 1.1925-1.0634 1.2041-0.98877 0.0776 0.5-2.1502 2.8416-8.4755 2.3331-11.007-0.88486zm16.754-5.3628c0.25019-6.1387 0.0173-8.0059-1-8.0177-0.98542-0.0114-0.94076-0.26437 0.17385-0.98469 0.825-0.53315 1.8056-0.97626 2.179-0.98469 0.37347-8e-3 0.82347 4.0357 1 8.987 0.26662 7.478 0.067 9.0023-1.179 9.0024-1.2355 4e-5 -1.4425-1.4108-1.1738-8.0023zm6.5311 5.4202c-2.2121-3.3761-0.86105-7.5213 2.8803-8.8371 4.9968-1.7573 8.5732 4.1627 5.7273 9.4803-1.5688 2.9314-6.5072 2.5624-8.6076-0.64324zm7.4368-1.9225c0.36417-3.7153-1.8798-7.0648-4.1494-6.1939-1.1336 0.43499-1.6446 1.832-1.6446 4.4958 0 4.4738 0.63782 5.394 3.4588 4.9902 1.4532-0.20802 2.1258-1.1563 2.3352-3.2922zm5.2213 2.75c9e-3 -0.99868 0.33573-1.3207 0.76164-0.75 0.41047 0.55 1.1536 1.3375 1.6514 1.75s0.15503 0.75-0.76163 0.75c-0.92647 0-1.6599-0.77721-1.6514-1.75zm4.8438 0.42872c1.1899-1.4416 0.97294-1.8663-1.7437-3.4126-3.1267-1.7797-4.2388-5.4538-2.0586-6.8012 1.4814-0.91557 5.9432 0.34313 5.9432 1.6766 0 0.74583-0.48195 0.70341-1.4873-0.13093-1.4898-1.2364-4.5183-0.76055-4.5064 0.70805 3e-3 0.42976 1.3851 1.5661 3.0704 2.5252 3.2839 1.869 3.8129 5.6447 0.92332 6.5904-1.2807 0.41919-1.3013 0.25028-0.14091-1.1556zm5.1562-0.42872c9e-3 -0.99868 0.33573-1.3207 0.76164-0.75 0.41047 0.55 1.1536 1.3375 1.6514 1.75s0.15503 0.75-0.76163 0.75c-0.92647 0-1.6599-0.77721-1.6514-1.75zm4.8438 0.42872c1.1899-1.4416 0.97294-1.8663-1.7437-3.4126-3.1267-1.7797-4.2388-5.4538-2.0586-6.8012 1.4814-0.91557 5.9432 0.34313 5.9432 1.6766 0 0.74583-0.48195 0.70341-1.4873-0.13093-1.4898-1.2364-4.5183-0.76055-4.5064 0.70805 3e-3 0.42976 1.3851 1.5661 3.0704 2.5252 3.2839 1.869 3.8129 5.6447 0.92332 6.5904-1.2807 0.41919-1.3013 0.25028-0.14091-1.1556zm5.5537-1.1714c-3.2524-4.9639 1.0737-10.974 6.2137-8.6316 3.9245 1.7881 3.0032 4.1243-1.6265 4.1243-4.3412 0-4.5114 0.17599-2.9648 3.0657 1.1804 2.2055 3.9387 2.5261 5.8872 0.68426 1.0913-1.0316 1.1201-0.85685 0.16481 1-1.5872 3.085-5.5767 2.9588-7.6744-0.24271zm5.5872-6.4483c0-1.8659-2.226-2.2616-3.8102-0.67734-1.4911 1.4911-1.4049 1.6183 1.096 1.6183 1.4929 0 2.7143-0.42344 2.7143-0.94098zm5.8465 3.9416c0.25543-3.6862-7e-3 -5.0086-1-5.031-0.82684-0.0187-0.62516-0.4495 0.52257-1.1163 1.3843-0.80428 2.0651-0.76871 2.625 0.13717 0.53918 0.8724 0.95205 0.90576 1.4399 0.11633 0.96116-1.5552 2.566-1.3787 2.566 0.28213 0 0.76389-0.7875 1.3264-1.75 1.25-1.4406-0.11433-1.75 0.70114-1.75 4.6127 0 3.5574-0.37698 4.7514-1.5 4.7506-1.1795-7.8e-4 -1.426-1.0696-1.1535-5.0016zm44.953 3.7994c0.67104-0.67104 1.2-3.8889 1.2-7.3s-0.52896-6.629-1.2-7.3c-0.93333-0.93333-0.0889-1.2 3.8-1.2 2.75 0 5.54 0.54 6.2 1.2 1.7358 1.7358 1.4729 5.5479-0.45715 6.628-1.5097 0.84486-1.4615 1.2439 0.54114 4.4843 1.2091 1.9563 2.9673 3.7591 3.9072 4.0063 1.0569 0.27795 0.71044 0.49365-0.90825 0.5654-2.0082 0.089-3.233-0.81461-5.2642-3.884-1.4559-2.2-3.0907-4-3.6329-4-1.4471 0-1.2042 6.7452 0.26419 7.3377 0.6875 0.27741-0.3025 0.53991-2.2 0.58333-2.6833 0.0614-3.1833-0.18772-2.25-1.121zm8.08-9.5758c1.2486-2.333-0.37284-5.2242-2.9297-5.2242-1.5623 0-1.9503 0.69639-1.9503 3.5 0 2.8124 0.38598 3.5 1.9648 3.5 1.0806 0 2.3925-0.79912 2.9152-1.7758zm8.12 9.8387c0-0.51542 1.5284-0.6891 3.3964-0.38596 2.9097 0.47217 3.5011 0.22126 4.127-1.7508 0.54101-1.7046 0.19647-2.7345-1.3276-3.9686-1.9198-1.5545-1.9463-1.7786-0.39398-3.3308 2.1465-2.1465 0.40177-5.2399-2.7515-4.8782-1.2364 0.14181-1.9016-0.1802-1.5495-0.75 0.3394-0.54917 1.9102-0.9985 3.4907-0.9985 3.0817 0 5.1154 3.293 3.2102 5.1982-0.66248 0.66247-0.4621 1.9286 0.59737 3.7746 1.47 2.5614 1.4602 2.9823-0.12553 5.4025-1.3104 1.9999-2.5474 2.6247-5.1967 2.6247-1.9123 0-3.477-0.42171-3.477-0.93713zm15.881-3.5493c3.1959-3.4671 4.1664-5.2713 3.9313-7.3085-0.26611-2.3065-0.7789-2.7043-3.481-2.7002-2.4286 4e-3 -2.9257-0.28835-2.1276-1.25 1.1232-1.3534 3.6812-1.62 6.2147-0.64783 2.6218 1.0061 1.9004 5.9605-1.4182 9.7402-1.65 1.8792-3 3.7441-3 4.1442 0 0.40007 1.5827 0.54262 3.5171 0.3168 2.1753-0.25396 3.3852-0.01 3.1714 0.64059-0.19012 0.57816-2.7544 1.19-5.6984 1.3597l-5.3527 0.30855z"/>
</svg>
