<?xml version="1.0" standalone="no"?>
<!DOCTYPE svg PUBLIC "-//W3C//DTD SVG 1.1//EN"
"http://www.w3.org/Graphics/SVG/1.1/DTD/svg11.dtd">
<!-- Creator: fig2dev Version 3.2 Patchlevel 5d -->
<!-- CreationDate: Thu Feb 21 09:48:40 2013 -->
<!-- Magnification: 1.050 -->
<svg	xmlns="http://www.w3.org/2000/svg"
	xmlns:xlink="http://www.w3.org/1999/xlink"
	viewBox="-23 -23 6140 1463">
<g style="stroke-width:.025in; fill:none">
<!-- Text -->
<text xml:space="preserve" x="4110" y="283" fill="#000000"  font-family="Helvetica" font-style="normal" font-weight="normal" font-size="227" text-anchor="middle">Vienna Book</text>
<!-- Text -->
<text xml:space="preserve" x="944" y="1228" fill="#000000"  font-family="Helvetica" font-style="normal" font-weight="bold" font-size="114" text-anchor="middle">1</text>
<!-- Line: box -->
<rect x="850" y="519" width="188" height="188" rx="0" 
style="stroke:#000000;stroke-width:16;
stroke-linejoin:miter; stroke-linecap:butt;
"/>
<!-- Text -->
<text xml:space="preserve" x="944" y="661" fill="#000000"  font-family="Helvetica" font-style="normal" font-weight="bold" font-size="114" text-anchor="middle">1</text>
<!-- Line -->
<polyline points="1086,755
1089,758
1096,763
1108,771
1126,784
1149,800
1176,820
1208,844
1241,868
1275,893
1309,919
1340,943
1370,967
1396,990
1419,1009
1440,1029
1458,1047
1472,1064
1485,1080
1496,1096
1505,1110
1511,1126
1517,1141
1520,1155
1522,1170
1523,1185
1523,1200
1521,1214
1518,1229
1512,1243
1507,1257
1500,1271
1491,1283
1483,1296
1472,1307
1463,1317
1451,1327
1440,1335
1428,1342
1417,1349
1405,1354
1394,1357
1381,1360
1370,1362
1353,1362
1337,1360
1319,1355
1301,1348
1281,1337
1259,1322
1235,1306
1210,1287
1183,1266
1156,1244
1133,1223
1113,1205
1132,1222
" style="stroke:#000000;stroke-width:16;
stroke-linejoin:bevel; stroke-linecap:butt;
stroke-dasharray:20 20;"/>
<!-- Arrowhead on XXXpoint 1113 1205 - 1062 1160-->
<polygon points="1137 1184
1069 1166
1096 1231
1137 1184

" style="stroke:#000000;stroke-width:8;stroke-miterlimit:8;
fill:#000000;"/>
<!-- Line -->
<polyline points="1086,1039
1089,1037
1096,1032
1108,1023
1126,1011
1149,995
1176,974
1208,951
1241,927
1275,901
1309,875
1340,851
1370,827
1396,805
1419,785
1440,765
1458,747
1472,730
1485,714
1496,699
1505,684
1511,669
1517,654
1520,639
1522,624
1523,609
1523,595
1521,580
1518,565
1512,552
1507,537
1500,523
1491,511
1483,498
1472,488
1463,477
1451,468
1440,459
1428,452
1417,446
1405,440
1394,437
1381,434
1370,433
1353,432
1337,434
1319,439
1301,447
1281,457
1259,472
1235,489
1210,508
1183,529
1156,551
1133,572
1113,590
1132,572
" style="stroke:#000000;stroke-width:16;
stroke-linejoin:bevel; stroke-linecap:butt;
"/>
<!-- Arrowhead on XXXpoint 1113 590 - 1062 634-->
<polygon points="1097 562
1069 627
1138 609
1097 562

" style="stroke:#000000;stroke-width:8;stroke-miterlimit:8;
fill:#000000;"/>
<!-- Text -->
<text xml:space="preserve" x="1322" y="1228" fill="#000000"  font-family="Helvetica" font-style="normal" font-weight="bold" font-size="114" text-anchor="middle">2</text>
<!-- Text -->
<text xml:space="preserve" x="1322" y="661" fill="#000000"  font-family="Helvetica" font-style="normal" font-weight="bold" font-size="114" text-anchor="middle">2</text>
<!-- Circle -->
<circle cx="5716" cy="897" r="236"
 style="stroke:#000000;stroke-width:16;"/>
<!-- Text -->
<text xml:space="preserve" x="5716" y="992" fill="#000000"  font-family="Helvetica" font-style="normal" font-weight="bold" font-size="227" text-anchor="middle">6</text>
<!-- Line -->
<polyline points="4299,755
4297,759
4292,764
4286,773
4277,786
4265,801
4251,817
4237,834
4220,850
4202,865
4183,877
4161,888
4136,894
4110,897
4083,894
4058,888
4036,877
4017,865
4000,850
3983,834
3968,817
3954,801
3943,786
3956,806
" style="stroke:#000000;stroke-width:16;
stroke-linejoin:bevel; stroke-linecap:butt;
"/>
<!-- Arrowhead on XXXpoint 3943 786 - 3902 729-->
<polygon points="3969 769
3907 737
3918 806
3969 769

" style="stroke:#000000;stroke-width:8;stroke-miterlimit:8;
fill:#000000;"/>
<!-- Line -->
<polyline points="3921,944
3923,941
3927,936
3933,927
3943,914
3954,899
3968,882
3983,866
4000,850
4017,835
4036,823
4058,812
4083,806
4110,803
4136,806
4161,812
4183,823
4202,835
4220,850
4237,866
4251,882
4265,899
4277,914
4262,893
" style="stroke:#000000;stroke-width:16;
stroke-linejoin:bevel; stroke-linecap:butt;
stroke-dasharray:20 20;"/>
<!-- Arrowhead on XXXpoint 4277 914 - 4317 970-->
<polygon points="4248 929
4311 962
4300 892
4248 929

" style="stroke:#000000;stroke-width:8;stroke-miterlimit:8;
fill:#000000;"/>
<!-- Line -->
<polyline points="4960,661
4963,663
4969,667
4978,674
4991,683
5005,695
5022,708
5039,723
5055,740
5069,758
5082,776
5092,798
5099,824
5102,850
5099,876
5092,901
5082,923
5069,942
5055,960
5039,977
5022,992
5005,1005
4991,1017
5011,1002
" style="stroke:#000000;stroke-width:16;
stroke-linejoin:bevel; stroke-linecap:butt;
"/>
<!-- Arrowhead on XXXpoint 4991 1017 - 4934 1057-->
<polygon points="4974 988
4941 1051
5011 1041
4974 988

" style="stroke:#000000;stroke-width:8;stroke-miterlimit:8;
fill:#000000;"/>
<!-- Line -->
<polyline points="5149,1039
5146,1037
5141,1033
5131,1026
5119,1017
5104,1005
5087,992
5070,977
5055,960
5040,942
5027,923
5017,901
5011,876
5007,850
5011,824
5017,798
5027,776
5040,758
5055,740
5070,723
5087,708
5104,695
5119,683
5098,697
" style="stroke:#000000;stroke-width:16;
stroke-linejoin:bevel; stroke-linecap:butt;
stroke-dasharray:20 20;"/>
<!-- Arrowhead on XXXpoint 5119 683 - 5174 642-->
<polygon points="5134 709
5167 647
5097 659
5134 709

" style="stroke:#000000;stroke-width:8;stroke-miterlimit:8;
fill:#000000;"/>
<!-- Line: box -->
<rect x="2503" y="1086" width="188" height="188" rx="0" 
style="stroke:#000000;stroke-width:16;
stroke-linejoin:miter; stroke-linecap:butt;
"/>
<!-- Text -->
<text xml:space="preserve" x="2598" y="1228" fill="#000000"  font-family="Helvetica" font-style="normal" font-weight="bold" font-size="114" text-anchor="middle">1</text>
<!-- Circle -->
<circle cx="2598" cy="614" r="94"
 style="stroke:#000000;stroke-width:16;"/>
<!-- Text -->
<text xml:space="preserve" x="2598" y="661" fill="#000000"  font-family="Helvetica" font-style="normal" font-weight="bold" font-size="114" text-anchor="middle">1</text>
<!-- Line -->
<polyline points="2740,755
2743,758
2749,763
2762,771
2780,784
2803,800
2830,820
2861,844
2895,868
2929,893
2962,919
2994,943
3023,967
3049,990
3072,1009
3093,1029
3111,1047
3126,1064
3139,1080
3149,1096
3159,1110
3165,1126
3170,1141
3173,1155
3175,1170
3176,1185
3176,1200
3174,1214
3171,1229
3166,1243
3161,1257
3153,1271
3145,1283
3137,1296
3126,1307
3117,1317
3105,1327
3093,1335
3082,1342
3070,1349
3059,1354
3047,1357
3035,1360
3023,1362
3006,1362
2991,1360
2973,1355
2955,1348
2935,1337
2913,1322
2889,1306
2864,1287
2836,1266
2810,1244
2787,1223
2767,1205
2786,1222
" style="stroke:#000000;stroke-width:16;
stroke-linejoin:bevel; stroke-linecap:butt;
"/>
<!-- Arrowhead on XXXpoint 2767 1205 - 2716 1160-->
<polygon points="2790 1184
2723 1166
2749 1231
2790 1184

" style="stroke:#000000;stroke-width:8;stroke-miterlimit:8;
fill:#000000;"/>
<!-- Line -->
<polyline points="2740,1039
2743,1037
2749,1032
2762,1023
2780,1011
2803,995
2830,974
2861,951
2895,927
2929,901
2962,875
2994,851
3023,827
3049,805
3072,785
3093,765
3111,747
3126,730
3139,714
3149,699
3159,684
3165,669
3170,654
3173,639
3175,624
3176,609
3176,595
3174,580
3171,565
3166,552
3161,537
3153,523
3145,511
3137,498
3126,488
3117,477
3105,468
3093,459
3082,452
3070,446
3059,440
3047,437
3035,434
3023,433
3006,432
2991,434
2973,439
2955,447
2935,457
2913,472
2889,489
2864,508
2836,529
2810,551
2787,572
2767,590
2786,572
" style="stroke:#000000;stroke-width:16;
stroke-linejoin:bevel; stroke-linecap:butt;
stroke-dasharray:20 20;"/>
<!-- Arrowhead on XXXpoint 2767 590 - 2716 634-->
<polygon points="2750 562
2723 627
2791 609
2750 562

" style="stroke:#000000;stroke-width:8;stroke-miterlimit:8;
fill:#000000;"/>
<!-- Text -->
<text xml:space="preserve" x="2976" y="661" fill="#000000"  font-family="Helvetica" font-style="normal" font-weight="bold" font-size="114" text-anchor="middle">3</text>
<!-- Text -->
<text xml:space="preserve" x="2976" y="1228" fill="#000000"  font-family="Helvetica" font-style="normal" font-weight="bold" font-size="114" text-anchor="middle">3</text>
<!-- Arc -->
<path style="stroke:#000000;stroke-width:16;stroke-linecap:butt;"
d="M 1795,897 A 94 94  0  0  0  1984  897 " />
<!-- Arrowhead on XXXpoint 1977 932 - 1984 897-->
<polygon points="2008 938
1983 902
1946 928
2008 938

" style="stroke:#000000;stroke-width:8;stroke-miterlimit:8;
fill:#000000;"/>
<!-- Text -->
<text xml:space="preserve" x="1889" y="944" fill="#000000"  font-family="Helvetica" font-style="normal" font-weight="bold" font-size="114" text-anchor="middle">2</text>
<!-- Arc -->
<path style="stroke:#000000;stroke-width:16;stroke-linecap:butt;"
d="M 2314,897 A 94 94  0  0  0  2125  897 " />
<!-- Arrowhead on XXXpoint 2132 862 - 2125 897-->
<polygon points="2100 855
2127 892
2162 866
2100 855

" style="stroke:#000000;stroke-width:8;stroke-miterlimit:8;
fill:#000000;"/>
<!-- Text -->
<text xml:space="preserve" x="2220" y="944" fill="#000000"  font-family="Helvetica" font-style="normal" font-weight="bold" font-size="114" text-anchor="middle">1</text>
<!-- Arc -->
<path style="stroke:#000000;stroke-width:16;stroke-linecap:butt;"
d="M 661,897 A 94 94  0  0  0  472  897 " />
<!-- Arrowhead on XXXpoint 478 862 - 472 897-->
<polygon points="447 855
473 892
509 866
447 855

" style="stroke:#000000;stroke-width:8;stroke-miterlimit:8;
fill:#000000;"/>
<!-- Text -->
<text xml:space="preserve" x="566" y="944" fill="#000000"  font-family="Helvetica" font-style="normal" font-weight="bold" font-size="114" text-anchor="middle">1</text>
<!-- Arc -->
<path style="stroke:#000000;stroke-width:16;stroke-linecap:butt;"
d="M 141,897 A 94 94  0  0  0  330  897 " />
<!-- Arrowhead on XXXpoint 324 932 - 330 897-->
<polygon points="354 938
329 902
292 928
354 938

" style="stroke:#000000;stroke-width:8;stroke-miterlimit:8;
fill:#000000;"/>
<!-- Text -->
<text xml:space="preserve" x="236" y="944" fill="#000000"  font-family="Helvetica" font-style="normal" font-weight="bold" font-size="114" text-anchor="middle">1</text>
<!-- Line -->
<polyline points="3401,661
3732,661
3732,992
" style="stroke:#000000;stroke-width:16;
stroke-linejoin:miter; stroke-linecap:butt;
"/>
<!-- Text -->
<text xml:space="preserve" x="3637" y="992" fill="#000000"  font-family="Helvetica" font-style="normal" font-weight="bold" font-size="152" text-anchor="middle">R</text>
<!-- Text -->
<text xml:space="preserve" x="3496" y="944" fill="#000000"  font-family="Helvetica" font-style="normal" font-weight="bold" font-size="227" text-anchor="middle">T</text>
<!-- Line -->
<polyline points="4488,992
4488,661
4818,661
" style="stroke:#000000;stroke-width:16;
stroke-linejoin:miter; stroke-linecap:butt;
"/>
<!-- Text -->
<text xml:space="preserve" x="4629" y="944" fill="#000000"  font-family="Helvetica" font-style="normal" font-weight="bold" font-size="227" text-anchor="middle">T</text>
<!-- Text -->
<text xml:space="preserve" x="4771" y="992" fill="#000000"  font-family="Helvetica" font-style="normal" font-weight="bold" font-size="152" text-anchor="middle">R</text>
<!-- Line -->
<polyline points="0,377
6094,377
" style="stroke:#000000;stroke-width:16;
stroke-linejoin:miter; stroke-linecap:butt;
"/>
<!-- Line: box -->
<rect x="0" y="0" width="6094" height="1417" rx="0" 
style="stroke:#000000;stroke-width:16;
stroke-linejoin:miter; stroke-linecap:butt;
"/>
<!-- Line -->
<polyline points="5291,377
5291,1417
" style="stroke:#000000;stroke-width:16;
stroke-linejoin:miter; stroke-linecap:butt;
"/>
<!-- Line -->
<polyline points="3307,377
3307,1417
" style="stroke:#000000;stroke-width:16;
stroke-linejoin:miter; stroke-linecap:butt;
"/>
<!-- Line -->
<polyline points="1653,377
1653,1417
" style="stroke:#000000;stroke-width:16;
stroke-linejoin:miter; stroke-linecap:butt;
"/>
<!-- Text -->
<text xml:space="preserve" x="141" y="283" fill="#000000"  font-family="Helvetica" font-style="normal" font-weight="normal" font-size="227" text-anchor="start">Ambassadors' Reel</text>
<!-- Text -->
<text xml:space="preserve" x="6000" y="283" fill="#000000"  font-family="Helvetica" font-style="normal" font-weight="normal" font-size="227" text-anchor="end">R32</text>
<!-- Circle -->
<circle cx="944" cy="1181" r="94"
 style="stroke:#000000;stroke-width:16;"/>
</g>
</svg>
