<?xml version='1.0' encoding='utf-8' standalone='no'?>
<!DOCTYPE svg PUBLIC '-//W3C//DTD SVG 1.1//EN' 'http://www.w3.org/Graphics/SVG/1.1/DTD/svg11.dtd'>
<svg version="1.1" viewBox="-0.028 -0.352 470 171" xmlns='http://www.w3.org/2000/svg'>
<defs>
</defs>
<path d="M5.61,6.431h1.82l3.328,5.477l3.336-5.477h1.82l-4.375,6.875v4.625H9.985v-4.625L5.61,6.431z"/>
<path d="M16.79,12.181c0-1.729,0.495-3.169,1.484-4.32c0.995-1.151,2.372-1.727,4.133-1.727c1.75,0,3.122,0.583,4.117,1.75
	c0.995,1.161,1.492,2.563,1.492,4.203c0,1.808-0.495,3.284-1.484,4.43c-0.99,1.141-2.367,1.711-4.133,1.711
	c-1.651,0-3-0.542-4.047-1.625C17.31,15.514,16.79,14.04,16.79,12.181z M18.391,12.181c0,1.344,0.352,2.461,1.055,3.352
	c0.708,0.891,1.695,1.336,2.961,1.336c1.156,0,2.112-0.417,2.867-1.25c0.76-0.839,1.141-1.984,1.141-3.438
	c0-1.391-0.357-2.519-1.07-3.383c-0.714-0.87-1.695-1.305-2.945-1.305c-1.183,0-2.146,0.419-2.891,1.258
	C18.763,9.59,18.391,10.732,18.391,12.181z"/>
<path d="M29.86,6.431h1.555v7.258c0,1.089,0.258,1.891,0.773,2.406c0.521,0.516,1.255,0.773,2.203,0.773
	c0.942,0,1.672-0.25,2.188-0.75c0.521-0.505,0.781-1.302,0.781-2.391V6.431h1.555v7.469c0,1.255-0.386,2.292-1.156,3.109
	c-0.766,0.813-1.938,1.219-3.516,1.219c-1.245,0-2.287-0.349-3.125-1.047c-0.839-0.703-1.258-1.737-1.258-3.102V6.431z"/>
<path d="M45.836,6.431h1.555v4.75h5.945v-4.75h1.555v11.5h-1.555V12.54h-5.945v5.391h-1.555V6.431z"/>
<path d="M56.375,17.931l4.375-11.5h1.773l4.125,11.5h-1.695l-1.117-3.359h-4.648l-1.211,3.359H56.375z M59.696,13.212h3.586
	l-1.703-5.117L59.696,13.212z"/>
<path d="M68.086,6.431h1.555v7.258c0,1.089,0.258,1.891,0.773,2.406c0.521,0.516,1.255,0.773,2.203,0.773
	c0.942,0,1.672-0.25,2.188-0.75c0.521-0.505,0.781-1.302,0.781-2.391V6.431h1.555v7.469c0,1.255-0.386,2.292-1.156,3.109
	c-0.766,0.813-1.938,1.219-3.516,1.219c-1.245,0-2.287-0.349-3.125-1.047c-0.839-0.703-1.258-1.737-1.258-3.102V6.431z"/>
<path d="M79.594,6.431h1.844l5.781,9.344V6.431h1.508v11.5h-1.75l-5.875-9.344v9.344h-1.508V6.431z"/>
<path d="M90.188,6.431h9.305V7.79h-3.875v10.141h-1.555V7.79h-3.875V6.431z"/>
<path d="M105.321,6.431h2.234l3.289,9.703l3.273-9.703h2.234v11.5h-1.508V8.274l-3.242,9.656h-1.531l-3.242-9.703v9.703h-1.508
	V6.431z"/>
<path d="M118.868,17.931v-11.5h8.43V7.79h-6.875v3.57h6.344v1.359h-6.344v3.852h7v1.359H118.868z"/>
<path d="M412.288,11.962c-1.011-0.442-1.516-1.177-1.516-2.203c0-0.917,0.308-1.664,0.922-2.242c0.62-0.583,1.45-0.875,2.492-0.875
	c0.979,0,1.8,0.269,2.461,0.805c0.667,0.531,1,1.258,1,2.18c0,1.094-0.477,1.867-1.43,2.32c1.203,0.599,1.805,1.521,1.805,2.766
	c0,1.016-0.339,1.854-1.016,2.516c-0.672,0.661-1.583,0.992-2.734,0.992c-1.125,0-2.052-0.3-2.781-0.898s-1.094-1.44-1.094-2.523
	C410.397,13.418,411.027,12.473,412.288,11.962z M411.897,14.759c0,0.636,0.2,1.161,0.602,1.578
	c0.401,0.411,0.995,0.617,1.781,0.617c0.698,0,1.245-0.195,1.641-0.586c0.401-0.391,0.602-0.894,0.602-1.508
	c0-0.667-0.2-1.198-0.602-1.594c-0.401-0.401-0.972-0.602-1.711-0.602c-0.672,0-1.227,0.19-1.664,0.57
	C412.113,13.61,411.897,14.118,411.897,14.759z M412.272,9.657c0,0.442,0.169,0.852,0.508,1.227c0.339,0.37,0.82,0.555,1.445,0.555
	c0.542,0,0.997-0.164,1.367-0.492s0.555-0.771,0.555-1.328c0-0.547-0.192-0.969-0.578-1.266c-0.38-0.297-0.859-0.445-1.438-0.445
	c-0.552,0-1,0.153-1.344,0.461C412.444,8.67,412.272,9.1,412.272,9.657z"/>
<path d="M418.858,17.931l2.906-4.352l-2.75-4.023h1.805l1.906,2.914l1.898-2.914h1.734l-2.797,4.023l2.906,4.352h-1.781
	l-2.063-3.141l-1.984,3.141H418.858z"/>
<path d="M428.678,14.47c0.016,0.808,0.211,1.425,0.586,1.852c0.38,0.422,0.977,0.633,1.789,0.633c0.683,0,1.266-0.183,1.75-0.547
	c0.489-0.37,0.734-0.911,0.734-1.625c0-0.62-0.208-1.109-0.625-1.469s-1.042-0.539-1.875-0.539c-0.177,0-0.448,0.008-0.813,0.023
	v-1.227c0.359,0.026,0.583,0.039,0.672,0.039c1.469,0,2.203-0.612,2.203-1.836c0-0.567-0.185-1.021-0.555-1.359
	c-0.364-0.339-0.867-0.508-1.508-0.508c-0.698,0-1.222,0.195-1.57,0.586s-0.547,0.981-0.594,1.773h-1.383
	c0.005-1.141,0.31-2.028,0.914-2.664c0.609-0.641,1.519-0.961,2.727-0.961c1.047,0,1.886,0.278,2.516,0.836
	c0.636,0.552,0.953,1.284,0.953,2.195c0,1.203-0.492,1.987-1.477,2.352c0.714,0.255,1.211,0.599,1.492,1.031
	c0.281,0.427,0.422,0.956,0.422,1.586c0,1.063-0.359,1.925-1.078,2.586s-1.683,0.992-2.891,0.992c-1.104,0-1.997-0.276-2.68-0.828
	c-0.677-0.558-1.065-1.531-1.164-2.922H428.678z"/>
<path d="M436.764,15.188c0.433-0.661,1.023-1.208,1.773-1.641l2.289-1.359c0.521-0.308,0.888-0.625,1.102-0.953
	c0.214-0.333,0.32-0.737,0.32-1.211c0-0.651-0.206-1.167-0.617-1.547c-0.406-0.38-0.958-0.57-1.656-0.57
	c-0.781,0-1.349,0.231-1.703,0.695c-0.349,0.458-0.55,1.138-0.602,2.039h-1.383c0-1.198,0.315-2.164,0.945-2.898
	s1.597-1.102,2.898-1.102c1.052,0,1.917,0.305,2.594,0.914c0.683,0.604,1.023,1.43,1.023,2.477c0,0.703-0.161,1.305-0.484,1.805
	c-0.323,0.495-0.82,0.93-1.492,1.305l-1.906,1.109c-0.672,0.396-1.183,0.766-1.531,1.109c-0.344,0.339-0.594,0.755-0.75,1.25h6.164
	v1.32h-7.75C436.077,16.759,436.332,15.845,436.764,15.188z"/>
<path d="M451.124,14.228c0.083,1.761,1.167,2.641,3.25,2.641c0.953,0,1.677-0.161,2.172-0.484c0.495-0.328,0.742-0.839,0.742-1.531
	c0-0.442-0.138-0.81-0.414-1.102c-0.271-0.297-0.945-0.573-2.023-0.828l-2.375-0.531c-0.755-0.188-1.349-0.497-1.781-0.93
	c-0.433-0.438-0.648-1.044-0.648-1.82c0-1.058,0.352-1.906,1.055-2.547c0.708-0.641,1.719-0.961,3.031-0.961
	c1.203,0,2.2,0.284,2.992,0.852c0.797,0.567,1.229,1.492,1.297,2.773h-1.453c-0.151-1.511-1.102-2.266-2.852-2.266
	c-0.766,0-1.386,0.167-1.859,0.5c-0.469,0.333-0.703,0.823-0.703,1.469c0,0.375,0.112,0.688,0.336,0.938s0.648,0.442,1.273,0.578
	l3.023,0.727c0.87,0.192,1.521,0.539,1.953,1.039c0.438,0.495,0.656,1.169,0.656,2.023c0,1.12-0.411,1.977-1.234,2.57
	s-1.945,0.891-3.367,0.891c-1.484,0-2.609-0.362-3.375-1.086s-1.148-1.695-1.148-2.914H451.124z"/>
<path fill="none" stroke="#000000" stroke-width="1.1339" stroke-miterlimit="10" d="M0.567,0.567h468.04v157.248H0.567V0.567z"/>
<line fill="none" stroke="#000000" stroke-width="1.1339" stroke-miterlimit="10" x1="0.067" y1="26.146" x2="468.107" y2="26.146"/>
<line fill="none" stroke="#000000" stroke-width="1.1019" stroke-miterlimit="10" x1="165.436" y1="91.897" x2="165.436" y2="157.275"/>
<path d="M392.18,166.425c0.009,0.455,0.119,0.802,0.33,1.042c0.213,0.237,0.549,0.356,1.006,0.356c0.384,0,0.712-0.103,0.984-0.309
	c0.275-0.207,0.413-0.512,0.413-0.914c0-0.348-0.117-0.623-0.352-0.826c-0.234-0.201-0.586-0.303-1.055-0.303
	c-0.1,0-0.252,0.004-0.457,0.014v-0.69c0.202,0.015,0.328,0.022,0.378,0.022c0.826,0,1.239-0.345,1.239-1.033
	c0-0.319-0.104-0.574-0.312-0.765c-0.206-0.19-0.488-0.286-0.849-0.286c-0.393,0-0.688,0.11-0.884,0.33s-0.307,0.553-0.334,0.998
	h-0.777c0.003-0.643,0.174-1.142,0.514-1.499c0.344-0.36,0.854-0.54,1.534-0.54c0.589,0,1.061,0.156,1.415,0.47
	c0.357,0.311,0.536,0.723,0.536,1.235c0,0.676-0.276,1.117-0.831,1.322c0.401,0.144,0.682,0.337,0.84,0.58
	c0.158,0.24,0.237,0.538,0.237,0.893c0,0.598-0.202,1.082-0.606,1.454s-0.946,0.558-1.626,0.558c-0.621,0-1.124-0.155-1.507-0.465
	c-0.382-0.313-0.6-0.861-0.655-1.645H392.18z"/>
<path d="M401.361,166.008h0.849c-0.15,0.844-0.468,1.477-0.954,1.898s-1.112,0.633-1.876,0.633c-0.877,0-1.582-0.305-2.119-0.914
	c-0.535-0.612-0.804-1.441-0.804-2.487c0-1.034,0.272-1.859,0.817-2.475c0.548-0.617,1.289-0.927,2.224-0.927
	c0.706,0,1.289,0.176,1.749,0.527c0.463,0.349,0.76,0.876,0.893,1.582h-0.849c-0.226-0.896-0.825-1.345-1.798-1.345
	c-0.636,0-1.15,0.228-1.547,0.682c-0.393,0.454-0.588,1.113-0.588,1.977c0,0.798,0.176,1.434,0.527,1.908
	c0.352,0.472,0.874,0.707,1.568,0.707c0.504,0,0.915-0.149,1.234-0.448C401.01,167.025,401.235,166.585,401.361,166.008z"/>
<path d="M402.412,168.54l2.215-6.803h0.598l-2.215,6.803H402.412z"/>
<path d="M405.286,166.066l2.931-3.978h0.655v4.048h0.927v0.689h-0.927v1.547h-0.791v-1.547h-2.795V166.066z M406.028,166.136h2.053
	v-2.861L406.028,166.136z"/>
<path d="M415.367,166.008h0.849c-0.15,0.844-0.468,1.477-0.954,1.898s-1.112,0.633-1.876,0.633c-0.877,0-1.582-0.305-2.119-0.914
	c-0.535-0.612-0.804-1.441-0.804-2.487c0-1.034,0.272-1.859,0.817-2.475c0.548-0.617,1.289-0.927,2.224-0.927
	c0.706,0,1.289,0.176,1.749,0.527c0.463,0.349,0.76,0.876,0.893,1.582h-0.849c-0.226-0.896-0.825-1.345-1.798-1.345
	c-0.636,0-1.15,0.228-1.547,0.682c-0.393,0.454-0.588,1.113-0.588,1.977c0,0.798,0.176,1.434,0.527,1.908
	c0.352,0.472,0.874,0.707,1.568,0.707c0.504,0,0.915-0.149,1.234-0.448C415.016,167.025,415.241,166.585,415.367,166.008z"/>
<path d="M419.673,168.373v-6.469h0.791v6.469H419.673z"/>
<path d="M421.375,166.035c0-0.747,0.2-1.354,0.603-1.819c0.4-0.469,0.934-0.703,1.6-0.703c0.641,0,1.168,0.228,1.582,0.681
	c0.412,0.455,0.619,1.063,0.619,1.824c0,0.718-0.199,1.315-0.598,1.793c-0.398,0.475-0.928,0.712-1.586,0.712
	c-0.648,0-1.18-0.229-1.596-0.686C421.583,167.376,421.375,166.776,421.375,166.035z M422.192,166.017
	c0,0.513,0.119,0.942,0.355,1.287c0.24,0.347,0.583,0.52,1.029,0.52c0.387,0,0.713-0.151,0.979-0.453
	c0.27-0.305,0.404-0.756,0.404-1.354c0-0.513-0.117-0.941-0.352-1.287s-0.579-0.52-1.032-0.52c-0.411,0-0.745,0.156-1.002,0.467
	C422.319,164.988,422.192,165.434,422.192,166.017z"/>
<path d="M426.653,168.373v-4.711h0.742v0.694c0.396-0.563,0.893-0.844,1.49-0.844c0.504,0,0.894,0.149,1.169,0.448
	c0.275,0.296,0.413,0.697,0.413,1.204v3.208h-0.791v-2.927c0-0.475-0.084-0.798-0.25-0.972c-0.165-0.176-0.409-0.264-0.734-0.264
	c-0.369,0-0.67,0.139-0.9,0.414c-0.232,0.275-0.348,0.663-0.348,1.164v2.584H426.653z"/>
<path d="M431.58,168.909h0.791c0.103,0.478,0.458,0.716,1.067,0.716c0.442,0,0.775-0.112,0.998-0.338s0.334-0.606,0.334-1.143
	v-0.313c-0.284,0.461-0.714,0.69-1.287,0.69c-0.619,0-1.114-0.237-1.486-0.712s-0.558-1.111-0.558-1.912
	c0-0.688,0.171-1.258,0.515-1.709c0.342-0.451,0.818-0.677,1.428-0.677c0.319,0,0.59,0.067,0.813,0.202
	c0.223,0.132,0.432,0.338,0.625,0.619v-0.672h0.742v4.289c0,0.882-0.185,1.497-0.554,1.846c-0.369,0.346-0.905,0.519-1.608,0.519
	c-0.498,0-0.908-0.107-1.23-0.321C431.849,169.777,431.653,169.416,431.58,168.909z M432.256,165.933
	c0,0.593,0.111,1.055,0.334,1.389c0.226,0.334,0.536,0.502,0.932,0.502c0.407,0,0.722-0.151,0.945-0.453
	c0.225-0.302,0.338-0.725,0.338-1.27c0-1.26-0.436-1.891-1.305-1.891C432.67,164.21,432.256,164.786,432.256,165.933z"/>
<path d="M436.208,163.662h0.865l0.879,3.735l0.928-3.735h0.879l0.953,3.735l0.928-3.735h0.791l-1.336,4.711h-0.817l-0.989-3.66
	l-0.927,3.66h-0.817L436.208,163.662z"/>
<path d="M443.191,161.913h0.791v0.905h-0.791V161.913z M443.191,163.662h0.791v4.711h-0.791V163.662z"/>
<path d="M445.635,166.905c0.022,0.612,0.429,0.919,1.217,0.919c0.343,0,0.612-0.066,0.809-0.198
	c0.199-0.135,0.299-0.321,0.299-0.558c0-0.17-0.066-0.305-0.197-0.404c-0.133-0.091-0.379-0.182-0.738-0.273l-0.924-0.229
	c-0.729-0.176-1.094-0.563-1.094-1.164c0-0.431,0.155-0.785,0.466-1.063c0.313-0.281,0.761-0.422,1.341-0.422
	c0.506,0,0.919,0.122,1.238,0.364c0.319,0.244,0.498,0.614,0.537,1.112h-0.778c-0.038-0.519-0.395-0.778-1.067-0.778
	c-0.64,0-0.959,0.225-0.959,0.673c0,0.196,0.075,0.334,0.225,0.413c0.149,0.076,0.358,0.146,0.629,0.211l0.781,0.197
	c0.478,0.123,0.816,0.277,1.016,0.462c0.202,0.193,0.303,0.457,0.303,0.791c0,0.463-0.165,0.839-0.496,1.13
	c-0.328,0.289-0.805,0.435-1.428,0.435c-0.578,0-1.041-0.122-1.389-0.364c-0.35-0.243-0.538-0.661-0.567-1.253H445.635z"/>
<path d="M450.262,166.263c0,0.492,0.111,0.876,0.334,1.151c0.226,0.272,0.563,0.409,1.011,0.409
	c0.319-0.003,0.598-0.094,0.835-0.273c0.24-0.181,0.383-0.396,0.426-0.646h0.778c-0.103,0.495-0.325,0.89-0.668,1.183
	c-0.343,0.289-0.793,0.435-1.349,0.435c-0.663,0-1.193-0.208-1.592-0.624c-0.395-0.416-0.593-1.017-0.593-1.802
	c0-0.759,0.193-1.378,0.58-1.858c0.39-0.484,0.935-0.726,1.635-0.726c0.659,0,1.16,0.228,1.503,0.681
	c0.346,0.452,0.527,1.142,0.545,2.07H450.262z M450.262,165.639h2.628c-0.056-0.524-0.19-0.894-0.404-1.107s-0.504-0.321-0.87-0.321
	c-0.387,0-0.703,0.133-0.949,0.396C450.42,164.868,450.286,165.211,450.262,165.639z"/>
<path d="M457.641,166.905c0.022,0.612,0.429,0.919,1.217,0.919c0.343,0,0.612-0.066,0.809-0.198
	c0.199-0.135,0.299-0.321,0.299-0.558c0-0.17-0.066-0.305-0.197-0.404c-0.133-0.091-0.379-0.182-0.738-0.273l-0.924-0.229
	c-0.729-0.176-1.094-0.563-1.094-1.164c0-0.431,0.155-0.785,0.466-1.063c0.313-0.281,0.761-0.422,1.341-0.422
	c0.506,0,0.919,0.122,1.238,0.364c0.319,0.244,0.498,0.614,0.537,1.112h-0.778c-0.038-0.519-0.395-0.778-1.067-0.778
	c-0.64,0-0.959,0.225-0.959,0.673c0,0.196,0.075,0.334,0.225,0.413c0.149,0.076,0.358,0.146,0.629,0.211l0.781,0.197
	c0.478,0.123,0.816,0.277,1.016,0.462c0.202,0.193,0.303,0.457,0.303,0.791c0,0.463-0.165,0.839-0.496,1.13
	c-0.328,0.289-0.805,0.435-1.428,0.435c-0.578,0-1.041-0.122-1.389-0.364c-0.35-0.243-0.538-0.661-0.567-1.253H457.641z"/>
<path d="M462.268,166.263c0,0.492,0.111,0.876,0.334,1.151c0.226,0.272,0.563,0.409,1.011,0.409
	c0.319-0.003,0.598-0.094,0.835-0.273c0.24-0.181,0.383-0.396,0.426-0.646h0.778c-0.103,0.495-0.325,0.89-0.668,1.183
	c-0.343,0.289-0.793,0.435-1.349,0.435c-0.663,0-1.193-0.208-1.592-0.624c-0.395-0.416-0.593-1.017-0.593-1.802
	c0-0.759,0.193-1.378,0.58-1.858c0.39-0.484,0.935-0.726,1.635-0.726c0.659,0,1.16,0.228,1.503,0.681
	c0.346,0.452,0.527,1.142,0.545,2.07H462.268z M462.268,165.639h2.628c-0.056-0.524-0.19-0.894-0.404-1.107s-0.504-0.321-0.87-0.321
	c-0.387,0-0.703,0.133-0.949,0.396C462.426,164.868,462.292,165.211,462.268,165.639z"/>
<path d="M466.223,164.321v-0.659h0.643v-1.336h0.791v1.336h0.773v0.659h-0.773v3.059c0,0.252,0.159,0.378,0.479,0.378h0.277v0.629
	c-0.297,0.04-0.518,0.061-0.664,0.061c-0.589,0-0.883-0.338-0.883-1.015v-3.111H466.223z"/>
<path d="M4.551,167.437l1.871-5.533h0.984l-2.391,6.469H4.089l-2.391-6.469h0.967L4.551,167.437z"/>
<path d="M8.097,161.913h0.791v0.905H8.097V161.913z M8.097,163.662h0.791v4.711H8.097V163.662z"/>
<path d="M10.097,168.373v-6.469h0.791v3.744l2.021-1.986h1.002l-1.793,1.749l1.903,2.962h-1.016l-1.459-2.391l-0.659,0.682v1.709
	H10.097z"/>
<path d="M14.118,164.321v-0.659h0.643v-1.336h0.791v1.336h0.773v0.659h-0.773v3.059c0,0.252,0.159,0.378,0.479,0.378h0.277v0.629
	c-0.297,0.04-0.518,0.061-0.664,0.061c-0.589,0-0.883-0.338-0.883-1.015v-3.111H14.118z"/>
<path d="M16.798,166.035c0-0.747,0.2-1.354,0.603-1.819c0.4-0.469,0.934-0.703,1.6-0.703c0.641,0,1.168,0.228,1.582,0.681
	c0.412,0.455,0.619,1.063,0.619,1.824c0,0.718-0.199,1.315-0.598,1.793c-0.398,0.475-0.928,0.712-1.586,0.712
	c-0.648,0-1.18-0.229-1.596-0.686C17.006,167.376,16.798,166.776,16.798,166.035z M17.616,166.017c0,0.513,0.119,0.942,0.355,1.287
	c0.24,0.347,0.583,0.52,1.029,0.52c0.387,0,0.713-0.151,0.979-0.453c0.27-0.305,0.404-0.756,0.404-1.354
	c0-0.513-0.117-0.941-0.352-1.287s-0.579-0.52-1.032-0.52c-0.411,0-0.745,0.156-1.002,0.467
	C17.743,164.988,17.616,165.434,17.616,166.017z"/>
<path d="M22.191,168.373v-4.711h0.743v0.787c0.216-0.361,0.426-0.607,0.628-0.738c0.205-0.133,0.438-0.198,0.698-0.198
	c0.053,0,0.119,0.011,0.198,0.03v0.813H24.16c-0.349,0-0.633,0.125-0.853,0.374c-0.217,0.249-0.325,0.548-0.325,0.896v2.746H22.191z
	"/>
<path d="M27.676,161.904h0.874v5.704h3.305v0.765h-4.179V161.904z"/>
<path d="M33.178,166.263c0,0.492,0.111,0.876,0.334,1.151c0.226,0.272,0.563,0.409,1.011,0.409c0.319-0.003,0.598-0.094,0.835-0.273
	c0.24-0.181,0.383-0.396,0.426-0.646h0.778c-0.103,0.495-0.325,0.89-0.668,1.183c-0.343,0.289-0.793,0.435-1.349,0.435
	c-0.663,0-1.193-0.208-1.592-0.624c-0.395-0.416-0.593-1.017-0.593-1.802c0-0.759,0.193-1.378,0.58-1.858
	c0.39-0.484,0.935-0.726,1.635-0.726c0.659,0,1.16,0.228,1.503,0.681c0.346,0.452,0.527,1.142,0.545,2.07H33.178z M33.178,165.639
	h2.628c-0.056-0.524-0.19-0.894-0.404-1.107s-0.504-0.321-0.87-0.321c-0.387,0-0.703,0.133-0.949,0.396
	C33.336,164.868,33.202,165.211,33.178,165.639z"/>
<path d="M37.586,161.904h0.791v2.382c0.354-0.516,0.835-0.773,1.441-0.773c0.504,0,0.894,0.149,1.169,0.448
	c0.275,0.296,0.413,0.697,0.413,1.204v3.208H40.61v-3.107c0-0.389-0.076-0.661-0.229-0.816c-0.152-0.158-0.384-0.238-0.694-0.238
	c-0.413,0-0.735,0.134-0.967,0.4c-0.229,0.264-0.343,0.656-0.343,1.178v2.584h-0.791V161.904z"/>
<path d="M42.592,163.662h0.742v0.694c0.401-0.563,0.881-0.844,1.438-0.844c0.548,0,0.958,0.258,1.23,0.773
	c0.39-0.516,0.853-0.773,1.389-0.773c0.434,0,0.788,0.138,1.063,0.413s0.413,0.67,0.413,1.182v3.266h-0.791V165.3
	c0-0.726-0.277-1.09-0.83-1.09c-0.294,0-0.555,0.115-0.783,0.344c-0.226,0.226-0.338,0.534-0.338,0.927v2.892h-0.791v-3.283
	c0-0.585-0.245-0.879-0.734-0.879c-0.354,0-0.646,0.136-0.874,0.404c-0.229,0.271-0.343,0.661-0.343,1.174v2.584h-0.791V163.662z"/>
<path d="M50.067,165.059c0.023-1.031,0.655-1.547,1.895-1.547c0.521,0,0.947,0.114,1.279,0.343c0.334,0.229,0.5,0.556,0.5,0.98
	v2.742c0,0.111,0.021,0.186,0.063,0.224c0.04,0.038,0.104,0.058,0.188,0.058c0.053,0,0.142-0.014,0.269-0.04v0.575
	c-0.193,0.059-0.347,0.088-0.457,0.088c-0.276,0-0.475-0.061-0.598-0.184c-0.121-0.123-0.189-0.305-0.207-0.545
	c-0.448,0.513-1.005,0.769-1.67,0.769c-0.396,0-0.744-0.116-1.046-0.347c-0.302-0.234-0.452-0.583-0.452-1.047
	c0-0.846,0.473-1.331,1.419-1.454l1.235-0.163c0.187-0.022,0.313-0.078,0.377-0.166c0.067-0.088,0.102-0.222,0.102-0.4
	c0-0.516-0.359-0.773-1.076-0.773c-0.369,0-0.632,0.074-0.787,0.225c-0.155,0.148-0.257,0.37-0.303,0.663H50.067z M52.95,165.968
	c-0.12,0.095-0.366,0.169-0.738,0.225c-0.372,0.053-0.561,0.079-0.566,0.079c-0.665,0.091-0.998,0.354-0.998,0.791
	c0,0.533,0.284,0.8,0.854,0.8c0.374,0,0.71-0.105,1.006-0.316s0.443-0.478,0.443-0.8V165.968z"/>
<path d="M55.094,168.373v-4.711h0.742v0.694c0.396-0.563,0.893-0.844,1.49-0.844c0.504,0,0.894,0.149,1.169,0.448
	c0.275,0.296,0.413,0.697,0.413,1.204v3.208h-0.791v-2.927c0-0.475-0.084-0.798-0.25-0.972c-0.165-0.176-0.409-0.264-0.734-0.264
	c-0.369,0-0.67,0.139-0.9,0.414c-0.232,0.275-0.348,0.663-0.348,1.164v2.584H55.094z"/>
<path d="M60.1,168.373v-4.711h0.742v0.694c0.396-0.563,0.893-0.844,1.49-0.844c0.504,0,0.894,0.149,1.169,0.448
	c0.275,0.296,0.413,0.697,0.413,1.204v3.208h-0.791v-2.927c0-0.475-0.084-0.798-0.25-0.972c-0.165-0.176-0.409-0.264-0.734-0.264
	c-0.369,0-0.67,0.139-0.9,0.414c-0.232,0.275-0.348,0.663-0.348,1.164v2.584H60.1z"/>
<path d="M65.317,169.291c0.311-0.047,0.471-0.353,0.479-0.918h-0.479v-0.984h0.94v0.896c0,0.82-0.313,1.295-0.94,1.424V169.291z"/>
<path d="M70.194,166.83c0.243-0.371,0.576-0.679,0.998-0.922l1.287-0.766c0.293-0.172,0.499-0.352,0.619-0.535
	c0.12-0.188,0.181-0.415,0.181-0.682c0-0.366-0.116-0.656-0.347-0.87c-0.229-0.214-0.54-0.321-0.932-0.321
	c-0.439,0-0.76,0.131-0.959,0.392c-0.196,0.258-0.309,0.641-0.338,1.147h-0.777c0-0.674,0.177-1.218,0.531-1.631
	s0.897-0.619,1.631-0.619c0.591,0,1.077,0.171,1.459,0.514c0.383,0.34,0.575,0.805,0.575,1.393c0,0.396-0.091,0.734-0.272,1.016
	c-0.182,0.278-0.461,0.523-0.84,0.734l-1.072,0.623c-0.377,0.224-0.665,0.432-0.861,0.625c-0.193,0.19-0.334,0.425-0.422,0.703
	h3.468v0.742h-4.359C69.807,167.713,69.951,167.199,70.194,166.83z"/>
<path d="M74.866,165.305c0-1.008,0.185-1.806,0.554-2.396c0.372-0.591,0.92-0.887,1.644-0.887c0.662,0,1.188,0.271,1.578,0.816
	c0.389,0.543,0.584,1.347,0.584,2.413c0,1.02-0.184,1.822-0.549,2.408c-0.367,0.583-0.91,0.874-1.631,0.874
	c-0.665,0-1.195-0.271-1.591-0.813C75.062,167.18,74.866,166.375,74.866,165.305z M75.709,165.279c0,1.696,0.442,2.545,1.327,2.545
	c0.896,0,1.345-0.849,1.345-2.545s-0.445-2.545-1.336-2.545S75.709,163.583,75.709,165.279z"/>
<path d="M80.206,166.83c0.243-0.371,0.576-0.679,0.998-0.922l1.287-0.766c0.293-0.172,0.499-0.352,0.619-0.535
	c0.12-0.188,0.181-0.415,0.181-0.682c0-0.366-0.116-0.656-0.347-0.87c-0.229-0.214-0.54-0.321-0.932-0.321
	c-0.439,0-0.76,0.131-0.959,0.392c-0.196,0.258-0.309,0.641-0.338,1.147h-0.777c0-0.674,0.177-1.218,0.531-1.631
	s0.897-0.619,1.631-0.619c0.591,0,1.077,0.171,1.459,0.514c0.383,0.34,0.575,0.805,0.575,1.393c0,0.396-0.091,0.734-0.272,1.016
	c-0.182,0.278-0.461,0.523-0.84,0.734l-1.072,0.623c-0.377,0.224-0.665,0.432-0.861,0.625c-0.193,0.19-0.334,0.425-0.422,0.703
	h3.468v0.742h-4.359C79.819,167.713,79.962,167.199,80.206,166.83z"/>
<path d="M85.211,166.83c0.243-0.371,0.576-0.679,0.998-0.922l1.287-0.766c0.293-0.172,0.499-0.352,0.619-0.535
	c0.12-0.188,0.181-0.415,0.181-0.682c0-0.366-0.116-0.656-0.347-0.87c-0.229-0.214-0.54-0.321-0.932-0.321
	c-0.439,0-0.76,0.131-0.959,0.392c-0.196,0.258-0.309,0.641-0.338,1.147h-0.777c0-0.674,0.177-1.218,0.531-1.631
	s0.897-0.619,1.631-0.619c0.591,0,1.077,0.171,1.459,0.514c0.383,0.34,0.575,0.805,0.575,1.393c0,0.396-0.091,0.734-0.272,1.016
	c-0.182,0.278-0.461,0.523-0.84,0.734l-1.072,0.623c-0.377,0.224-0.665,0.432-0.861,0.625c-0.193,0.19-0.334,0.425-0.422,0.703
	h3.468v0.742h-4.359C84.825,167.713,84.968,167.199,85.211,166.83z"/>
<line fill="none" stroke="#000000" stroke-width="1.1019" stroke-miterlimit="10" x1="287.102" y1="26.103" x2="287.102" y2="91.481"/>
<polygon fill-rule="evenodd" clip-rule="evenodd" stroke="#000000" stroke-width="0.2219" stroke-miterlimit="10" points="
	387.25,81.083 385.501,81.596 386.796,80.324 387.25,81.083 "/>
<polyline fill="none" stroke="#000000" stroke-width="0.4082" stroke-linejoin="bevel" stroke-miterlimit="10" points="
	176.98,37.882 176.98,33.382 245.73,33.382 254.48,33.382 254.48,37.882 "/>
<line fill="none" stroke="#000000" stroke-width="1.1339" stroke-miterlimit="10" x1="1.067" y1="91.73" x2="469.107" y2="91.73"/>
<line fill="none" stroke="#000000" stroke-width="0.5572" stroke-miterlimit="10" x1="99.735" y1="55.374" x2="98.063" y2="53.704"/>
<line fill="none" stroke="#000000" stroke-width="0.5572" stroke-miterlimit="10" stroke-dasharray="0.5572,2.5259" stroke-dashoffset="2" x1="151.974" y1="25.923" x2="151.974" y2="92.787"/>
<path d="M188.814,73.589h-2.648c-0.161-0.62-0.247-1.3-0.258-2.039l-0.016-0.859c-0.011-0.573-0.138-0.981-0.383-1.227
	s-0.742-0.367-1.492-0.367h-2.516v4.492h-2.383v-11.5h5.867c1.104,0,1.987,0.3,2.648,0.898c0.661,0.594,0.992,1.398,0.992,2.414
	c0,1.297-0.597,2.198-1.789,2.703c0.646,0.255,1.05,0.606,1.211,1.055s0.242,1.148,0.242,2.102v0.461
	c0,0.438,0.028,0.786,0.086,1.047c0.063,0.255,0.208,0.425,0.438,0.508V73.589z M186.205,65.636c0-1.021-0.563-1.531-1.688-1.531
	h-3.016v3.07h2.828C185.58,67.175,186.205,66.663,186.205,65.636z"/>
<path d="M189.783,73.589l4.125-11.5h2.758l4.125,11.5h-2.609l-0.742-2.398h-4.313l-0.813,2.398H189.783z M193.791,69.175h2.938
	l-1.445-4.477L193.791,69.175z"/>
<path d="M57.036,61.74h9.383v2.016h-3.5v9.484h-2.383v-9.484h-3.5V61.74z"/>
<path d="M66.178,76.596v-7.188h3.55c0.661,0,1.198,0.166,1.611,0.498c0.417,0.329,0.625,0.791,0.625,1.387
	c0,0.69-0.294,1.164-0.884,1.421c0.746,0.3,1.118,0.866,1.118,1.699c-0.049,0.729-0.292,1.276-0.728,1.641
	c-0.436,0.361-1.173,0.542-2.212,0.542H66.178z M67.667,72.211h1.782c0.713,0,1.069-0.269,1.069-0.806
	c0-0.491-0.371-0.737-1.113-0.737h-1.738V72.211z M67.667,75.336h1.88c0.775,0,1.162-0.34,1.162-1.021
	c0-0.603-0.365-0.903-1.094-0.903h-1.948V75.336z"/>
<path d="M72.868,70.18h0.127c0.697,0,1.073-0.234,1.128-0.703h0.85v4.307h-1.011v-2.979h-1.094V70.18z M73.976,76.743l4.292-7.246
	h0.786l-4.292,7.246H73.976z M77.775,75.507c0.225-0.271,0.514-0.52,0.869-0.747c0.332-0.215,0.57-0.4,0.713-0.557
	c0.146-0.159,0.22-0.366,0.22-0.62c0-0.13-0.056-0.242-0.166-0.337s-0.25-0.142-0.42-0.142c-0.41,0-0.625,0.229-0.645,0.688h-0.884
	c0-0.442,0.119-0.801,0.356-1.074s0.624-0.41,1.157-0.41c0.476,0,0.854,0.129,1.138,0.386c0.283,0.254,0.425,0.583,0.425,0.986
	c0,0.3-0.071,0.557-0.215,0.771s-0.342,0.41-0.596,0.586c-0.257,0.176-0.471,0.322-0.64,0.439c-0.166,0.114-0.293,0.22-0.381,0.317
	h1.846v0.82h-3.14C77.433,76.144,77.554,75.774,77.775,75.507z"/>
<path d="M234.33,70.011c0.067,1.261,0.891,1.891,2.469,1.891c1.52,0,2.282-0.487,2.282-1.461c0-0.62-0.535-1.06-1.602-1.32
	l-2.82-0.719c-0.864-0.208-1.5-0.56-1.906-1.055s-0.609-1.153-0.609-1.977c0-1.052,0.378-1.911,1.133-2.578s1.847-1,3.273-1
	c1.313,0,2.364,0.32,3.157,0.961c0.791,0.641,1.229,1.57,1.313,2.789h-2.313c-0.172-1.177-0.938-1.766-2.297-1.766
	c-0.62,0-1.114,0.12-1.484,0.359c-0.364,0.239-0.547,0.567-0.547,0.984c0,0.302,0.094,0.555,0.281,0.758
	c0.192,0.203,0.5,0.356,0.922,0.461l2.797,0.688c1.15,0.276,1.939,0.664,2.367,1.164c0.432,0.5,0.648,1.153,0.648,1.961
	c0,1.109-0.396,2.011-1.188,2.703c-0.787,0.688-1.93,1.031-3.43,1.031c-1.401,0-2.544-0.328-3.43-0.984
	c-0.886-0.661-1.328-1.625-1.328-2.891H234.33z"/>
<path d="M181.049,39.357c0.702,0,1.196-0.116,1.483-0.348c0.287-0.231,0.449-0.519,0.485-0.862h1.16v7.121h-1.405v-4.927h-1.724
	V39.357z"/>
<path d="M189.462,43.711c0.274-0.441,0.802-0.949,1.582-1.523c0.646-0.473,1.051-0.831,1.214-1.072
	c0.164-0.242,0.245-0.491,0.245-0.749c0-0.288-0.083-0.532-0.25-0.735c-0.163-0.206-0.409-0.309-0.739-0.309
	c-0.359,0-0.61,0.113-0.754,0.338c-0.144,0.226-0.216,0.557-0.216,0.994h-1.405v-0.206c0-0.62,0.194-1.159,0.583-1.616
	c0.392-0.457,0.975-0.686,1.748-0.686c0.679,0,1.255,0.193,1.729,0.578c0.474,0.382,0.71,0.93,0.71,1.646
	c0,0.486-0.117,0.911-0.353,1.273c-0.231,0.359-0.691,0.777-1.381,1.254c-0.754,0.522-1.203,0.896-1.347,1.121h3.08v1.249h-4.857
	C189.051,44.67,189.188,44.151,189.462,43.711z"/>
<path d="M232.259,43.064c0.026,0.816,0.369,1.224,1.028,1.224c0.316,0,0.573-0.098,0.769-0.294c0.196-0.196,0.294-0.475,0.294-0.837
	c0-0.353-0.125-0.609-0.377-0.769c-0.248-0.164-0.661-0.245-1.239-0.245v-0.999h0.226c0.78,0,1.171-0.31,1.171-0.93
	c0-0.278-0.082-0.503-0.245-0.676c-0.163-0.177-0.391-0.265-0.681-0.265c-0.64,0-0.963,0.382-0.97,1.146h-1.273
	c0-0.702,0.201-1.255,0.603-1.66c0.404-0.408,0.977-0.612,1.714-0.612c0.676,0,1.225,0.173,1.646,0.519
	c0.421,0.346,0.632,0.823,0.632,1.43c0,0.637-0.292,1.104-0.877,1.4c0.731,0.301,1.098,0.852,1.098,1.655
	c0,0.663-0.226,1.207-0.676,1.631c-0.448,0.421-1.049,0.632-1.803,0.632c-0.79,0-1.386-0.199-1.787-0.598
	c-0.401-0.401-0.62-0.986-0.656-1.753H232.259z"/>
<path d="M20.799,39.357c0.702,0,1.196-0.116,1.483-0.348c0.287-0.231,0.449-0.519,0.485-0.862h1.16v7.121h-1.405v-4.927h-1.724
	V39.357z"/>
<path d="M29.212,43.711c0.274-0.441,0.802-0.949,1.582-1.523c0.646-0.473,1.051-0.831,1.214-1.072
	c0.164-0.242,0.245-0.491,0.245-0.749c0-0.288-0.083-0.532-0.25-0.735c-0.163-0.206-0.409-0.309-0.739-0.309
	c-0.359,0-0.61,0.113-0.754,0.338c-0.144,0.226-0.216,0.557-0.216,0.994h-1.405v-0.206c0-0.62,0.194-1.159,0.583-1.616
	c0.392-0.457,0.975-0.686,1.748-0.686c0.679,0,1.255,0.193,1.729,0.578c0.474,0.382,0.71,0.93,0.71,1.646
	c0,0.486-0.117,0.911-0.353,1.273c-0.231,0.359-0.691,0.777-1.381,1.254c-0.754,0.522-1.203,0.896-1.347,1.121h3.08v1.249h-4.857
	C28.801,44.67,28.938,44.151,29.212,43.711z"/>
<path fill="none" stroke="#000000" stroke-width="0.4514" stroke-miterlimit="10" d="M98.9,51.151c0,2.244-1.82,4.063-4.063,4.063
	s-4.063-1.82-4.063-4.063c0-2.242,1.82-4.062,4.063-4.062S98.9,48.909,98.9,51.151L98.9,51.151z"/>
<path d="M93.077,49.385c0.568,0,0.97-0.094,1.202-0.282c0.232-0.188,0.363-0.42,0.393-0.698h0.94v5.769h-1.139v-3.991h-1.396V49.385
	z"/>
<rect x="89.775" y="62.919" transform="matrix(-0.8991 -0.4377 0.4377 -0.8991 148.8889 168.2795)" fill="none" stroke="#000000" stroke-width="0.4514" stroke-miterlimit="10" width="8.124" height="8.124"/>
<path d="M92.134,65.407c0.568,0,0.97-0.094,1.202-0.282c0.232-0.188,0.363-0.42,0.393-0.698h0.94v5.769H93.53v-3.991h-1.396V65.407z
	"/>
<rect x="116.219" y="49.09" transform="matrix(-0.9558 -0.294 0.294 -0.9558 219.619 139.3223)" fill="none" stroke="#000000" stroke-width="0.4514" stroke-miterlimit="10" width="8.127" height="8.125"/>
<path d="M118.389,54.8c0.222-0.357,0.648-0.768,1.281-1.234c0.523-0.383,0.852-0.673,0.983-0.869
	c0.133-0.196,0.198-0.398,0.198-0.607c0-0.233-0.067-0.431-0.202-0.595c-0.132-0.167-0.332-0.25-0.599-0.25
	c-0.291,0-0.495,0.091-0.611,0.274s-0.175,0.451-0.175,0.805h-1.139v-0.167c0-0.502,0.158-0.939,0.473-1.309
	c0.317-0.37,0.789-0.556,1.416-0.556c0.55,0,1.018,0.156,1.4,0.468c0.384,0.31,0.575,0.754,0.575,1.333
	c0,0.394-0.095,0.738-0.285,1.032c-0.188,0.291-0.561,0.629-1.119,1.016c-0.61,0.423-0.975,0.726-1.091,0.908h2.495v1.012h-3.936
	C118.055,55.578,118.167,55.158,118.389,54.8z"/>
<path fill="none" stroke="#000000" stroke-width="0.4514" stroke-miterlimit="10" d="M122.904,68.724
	c0,2.244-1.82,4.063-4.063,4.063s-4.063-1.819-4.063-4.063c0-2.242,1.82-4.062,4.063-4.062S122.904,66.481,122.904,68.724
	L122.904,68.724z"/>
<path d="M117.122,70.235c0.222-0.357,0.648-0.768,1.281-1.234c0.523-0.383,0.852-0.673,0.983-0.869
	c0.133-0.196,0.198-0.398,0.198-0.607c0-0.233-0.067-0.431-0.202-0.595c-0.132-0.167-0.332-0.25-0.599-0.25
	c-0.291,0-0.495,0.091-0.611,0.274s-0.175,0.451-0.175,0.805h-1.139v-0.167c0-0.502,0.158-0.939,0.473-1.309
	c0.317-0.37,0.789-0.556,1.416-0.556c0.55,0,1.018,0.156,1.4,0.468c0.384,0.31,0.575,0.754,0.575,1.333
	c0,0.394-0.095,0.738-0.285,1.032c-0.188,0.291-0.561,0.629-1.119,1.016c-0.61,0.423-0.975,0.726-1.091,0.908h2.495v1.012h-3.936
	C116.788,71.013,116.899,70.593,117.122,70.235z"/>
<line fill="none" stroke="#000000" stroke-width="0.5572" stroke-miterlimit="10" x1="91.735" y1="58.56" x2="93.683" y2="61.97"/>
<line fill="none" stroke="#000000" stroke-width="0.5572" stroke-miterlimit="10" x1="93.683" y1="55.208" x2="91.735" y2="58.618"/>
<line fill="none" stroke="#000000" stroke-width="0.5572" stroke-miterlimit="10" x1="123.256" y1="61.491" x2="121.308" y2="58.081"/>
<line fill="none" stroke="#000000" stroke-width="0.5572" stroke-miterlimit="10" x1="121.308" y1="64.843" x2="123.256" y2="61.433"/>
<line fill="none" stroke="#000000" stroke-width="0.5572" stroke-miterlimit="10" x1="115.779" y1="66.497" x2="114.107" y2="64.827"/>
<line fill="none" stroke="#000000" stroke-width="0.5572" stroke-miterlimit="10" x1="96.095" y1="63.302" x2="97.227" y2="61.228"/>
<line fill="none" stroke="#000000" stroke-width="0.5572" stroke-miterlimit="10" x1="117.275" y1="58.655" x2="118.408" y2="56.581"/>
<path fill="none" stroke="#000000" stroke-width="0.5572" stroke-miterlimit="10" d="M118.283,41.759
	c-5.504,0-15.207-0.456-20.809,0.52c-2.984,0.52-3.638,1.994-3.638,5.025"/>
<polygon fill-rule="evenodd" clip-rule="evenodd" stroke="#000000" stroke-width="0.2786" stroke-miterlimit="10" points="
	117.022,40.644 121.542,41.531 117.136,42.875 117.022,40.644 "/>
<polygon fill-rule="evenodd" clip-rule="evenodd" stroke="#000000" stroke-width="0.2786" stroke-miterlimit="10" points="
	97.799,40.644 102.32,41.531 97.914,42.875 97.799,40.644 "/>
<path fill="none" stroke="#000000" stroke-width="0.5572" stroke-miterlimit="10" stroke-dasharray="1.42,1.42" d="M96.396,78.197
	c5.503,0,15.207,0.456,20.807-0.52c2.984-0.52,3.639-1.994,3.639-5.025"/>
<polygon fill-rule="evenodd" clip-rule="evenodd" stroke="#000000" stroke-width="0.2786" stroke-miterlimit="10" points="
	97.656,79.312 93.136,78.425 97.542,77.081 97.656,79.312 "/>
<polygon fill-rule="evenodd" clip-rule="evenodd" stroke="#000000" stroke-width="0.2786" stroke-miterlimit="10" points="
	116.878,79.312 112.359,78.425 116.764,77.081 116.878,79.312 "/>
<path d="M244.036,61.74h9.383v2.016h-3.5v9.484h-2.383v-9.484h-3.5V61.74z"/>
<path d="M253.178,76.596v-7.188h3.55c0.661,0,1.198,0.166,1.611,0.498c0.417,0.329,0.625,0.791,0.625,1.387
	c0,0.69-0.294,1.164-0.884,1.421c0.746,0.3,1.118,0.866,1.118,1.699c-0.049,0.729-0.292,1.276-0.728,1.641
	c-0.436,0.361-1.174,0.542-2.212,0.542H253.178z M254.667,72.211h1.782c0.713,0,1.069-0.269,1.069-0.806
	c0-0.491-0.371-0.737-1.113-0.737h-1.738V72.211z M254.667,75.336h1.88c0.775,0,1.162-0.34,1.162-1.021
	c0-0.603-0.365-0.903-1.094-0.903h-1.948V75.336z"/>
<path d="M22.33,70.011c0.067,1.261,0.891,1.891,2.469,1.891c1.521,0,2.281-0.487,2.281-1.461c0-0.62-0.534-1.06-1.602-1.32
	l-2.82-0.719c-0.864-0.208-1.5-0.56-1.906-1.055s-0.609-1.153-0.609-1.977c0-1.052,0.378-1.911,1.133-2.578s1.847-1,3.273-1
	c1.313,0,2.364,0.32,3.156,0.961s1.229,1.57,1.313,2.789h-2.313c-0.172-1.177-0.938-1.766-2.297-1.766
	c-0.62,0-1.114,0.12-1.484,0.359c-0.364,0.239-0.547,0.567-0.547,0.984c0,0.302,0.094,0.555,0.281,0.758
	c0.192,0.203,0.5,0.356,0.922,0.461l2.797,0.688c1.151,0.276,1.94,0.664,2.367,1.164c0.433,0.5,0.648,1.153,0.648,1.961
	c0,1.109-0.396,2.011-1.188,2.703c-0.786,0.688-1.93,1.031-3.43,1.031c-1.401,0-2.544-0.328-3.43-0.984
	c-0.886-0.661-1.328-1.625-1.328-2.891H22.33z"/>
<path d="M62.571,83.879c-0.185,0.424-0.278,1.013-0.278,1.767c0,0.594,0.079,1.1,0.235,1.518c0.154,0.416,0.459,0.805,0.914,1.166
	l-0.059,0.104c-1.115-0.68-1.672-1.625-1.672-2.838c0-1.175,0.55-2.135,1.649-2.879l0.082,0.117
	C63.046,83.107,62.755,83.455,62.571,83.879z"/>
<path d="M64.366,83.344l1.202-0.627l0.055,0.013v4.022c0,0.15,0.037,0.255,0.111,0.313c0.074,0.057,0.25,0.085,0.529,0.085v0.098
	h-1.854v-0.098c0.25-0.009,0.419-0.046,0.506-0.111c0.089-0.065,0.134-0.203,0.134-0.415v-3.017c0-0.128-0.021-0.212-0.062-0.251
	c-0.039-0.041-0.093-0.063-0.163-0.063c-0.054,0-0.112,0.013-0.173,0.036c-0.061,0.022-0.156,0.059-0.284,0.111V83.344z"/>
<path d="M69.678,84.731c0.04-0.104,0.145-0.226,0.317-0.365s0.371-0.209,0.598-0.209c0.348,0,0.631,0.142,0.849,0.425
	c0.218,0.28,0.327,0.632,0.327,1.054c0,0.464-0.152,0.859-0.457,1.186c-0.303,0.326-0.686,0.49-1.149,0.49
	c-0.196,0-0.419-0.042-0.669-0.125c-0.25-0.084-0.375-0.19-0.375-0.316v-3.457c0-0.124-0.021-0.217-0.065-0.277
	c-0.042-0.063-0.127-0.095-0.258-0.095c-0.035,0-0.082,0.002-0.141,0.006v-0.101c0.409-0.106,0.734-0.205,0.976-0.294l0.049,0.017
	V84.731z M69.678,86.804c0,0.094,0.07,0.169,0.209,0.226c0.142,0.055,0.285,0.082,0.431,0.082c0.276,0,0.489-0.1,0.637-0.298
	c0.15-0.2,0.225-0.499,0.225-0.897c0-0.396-0.075-0.721-0.225-0.973c-0.15-0.253-0.355-0.379-0.614-0.379
	c-0.174,0-0.329,0.052-0.464,0.156c-0.133,0.103-0.199,0.226-0.199,0.369V86.804z"/>
<path d="M73.886,85.277v-0.389c0-0.363-0.165-0.545-0.496-0.545c-0.124,0-0.234,0.031-0.33,0.095
	c-0.096,0.061-0.144,0.135-0.144,0.222c0,0.032,0.005,0.074,0.016,0.124c0.013,0.048,0.02,0.094,0.02,0.137
	c0,0.083-0.029,0.15-0.088,0.203c-0.059,0.052-0.127,0.078-0.206,0.078c-0.089,0-0.161-0.026-0.215-0.078
	c-0.052-0.055-0.078-0.127-0.078-0.216c0-0.179,0.094-0.349,0.284-0.51c0.191-0.16,0.452-0.241,0.78-0.241
	c0.353,0,0.611,0.075,0.774,0.226c0.163,0.149,0.245,0.417,0.245,0.8v1.358c0,0.139,0.014,0.238,0.042,0.297
	c0.028,0.057,0.076,0.085,0.144,0.085c0.056,0,0.11-0.011,0.16-0.033c0.052-0.021,0.101-0.056,0.147-0.101v0.183
	c-0.115,0.124-0.219,0.212-0.31,0.265c-0.089,0.05-0.188,0.075-0.294,0.075c-0.276,0-0.423-0.157-0.441-0.471
	c-0.348,0.313-0.665,0.471-0.95,0.471c-0.207,0-0.377-0.066-0.509-0.199c-0.131-0.136-0.196-0.296-0.196-0.483
	c0-0.34,0.148-0.604,0.444-0.79C72.983,85.649,73.384,85.461,73.886,85.277z M73.886,85.437c-0.42,0.156-0.702,0.309-0.845,0.457
	c-0.142,0.146-0.212,0.31-0.212,0.492c0,0.161,0.042,0.291,0.124,0.389c0.085,0.099,0.187,0.147,0.307,0.147
	c0.108,0,0.209-0.021,0.3-0.063c0.093-0.043,0.172-0.095,0.235-0.153c0.026-0.021,0.048-0.049,0.065-0.082
	c0.018-0.034,0.026-0.104,0.026-0.209V85.437z"/>
<path d="M75.01,87.249v-0.102c0.169-0.025,0.289-0.067,0.359-0.124c0.07-0.059,0.104-0.181,0.104-0.365v-1.652
	c0-0.274-0.075-0.411-0.225-0.411c-0.083,0-0.162,0.009-0.238,0.026v-0.102c0.324-0.115,0.655-0.236,0.992-0.362l0.033,0.02v0.607
	c0.279-0.418,0.543-0.627,0.793-0.627c0.109,0,0.195,0.031,0.258,0.095c0.065,0.063,0.098,0.158,0.098,0.284
	c0,0.098-0.026,0.173-0.079,0.226c-0.052,0.05-0.111,0.074-0.176,0.074c-0.094,0-0.176-0.042-0.248-0.127
	c-0.072-0.087-0.141-0.131-0.206-0.131c-0.083,0-0.178,0.064-0.284,0.193c-0.104,0.128-0.157,0.245-0.157,0.353v1.479
	c0,0.202,0.036,0.34,0.108,0.411c0.074,0.072,0.229,0.117,0.463,0.134v0.102H75.01z"/>
<path d="M77.386,82.834l0.082-0.117c1.099,0.744,1.649,1.704,1.649,2.879c0,1.213-0.557,2.158-1.671,2.838l-0.059-0.104
	c0.455-0.361,0.76-0.75,0.914-1.166c0.157-0.418,0.235-0.924,0.235-1.518c0-0.754-0.093-1.343-0.278-1.767
	C78.073,83.455,77.782,83.107,77.386,82.834z"/>
<path d="M98.386,83.879c-0.185,0.424-0.278,1.013-0.278,1.767c0,0.594,0.079,1.1,0.235,1.518c0.154,0.416,0.459,0.805,0.914,1.166
	l-0.059,0.104c-1.115-0.68-1.672-1.625-1.672-2.838c0-1.175,0.55-2.135,1.649-2.879l0.082,0.117
	C98.862,83.107,98.571,83.455,98.386,83.879z"/>
<path d="M100.182,83.344l1.202-0.627l0.055,0.013v4.022c0,0.15,0.037,0.255,0.111,0.313c0.074,0.057,0.25,0.085,0.529,0.085v0.098
	h-1.854v-0.098c0.25-0.009,0.419-0.046,0.506-0.111c0.089-0.065,0.134-0.203,0.134-0.415v-3.017c0-0.128-0.021-0.212-0.062-0.251
	c-0.039-0.041-0.093-0.063-0.163-0.063c-0.054,0-0.112,0.013-0.173,0.036c-0.061,0.022-0.156,0.059-0.284,0.111V83.344z"/>
<path d="M105.493,84.731c0.04-0.104,0.145-0.226,0.317-0.365s0.371-0.209,0.598-0.209c0.348,0,0.631,0.142,0.849,0.425
	c0.218,0.28,0.327,0.632,0.327,1.054c0,0.464-0.152,0.859-0.457,1.186c-0.303,0.326-0.686,0.49-1.149,0.49
	c-0.196,0-0.419-0.042-0.669-0.125c-0.25-0.084-0.375-0.19-0.375-0.316v-3.457c0-0.124-0.021-0.217-0.065-0.277
	c-0.042-0.063-0.127-0.095-0.258-0.095c-0.035,0-0.082,0.002-0.141,0.006v-0.101c0.409-0.106,0.734-0.205,0.976-0.294l0.049,0.017
	V84.731z M105.493,86.804c0,0.094,0.07,0.169,0.209,0.226c0.142,0.055,0.285,0.082,0.431,0.082c0.276,0,0.489-0.1,0.637-0.298
	c0.15-0.2,0.225-0.499,0.225-0.897c0-0.396-0.075-0.721-0.225-0.973c-0.15-0.253-0.355-0.379-0.614-0.379
	c-0.174,0-0.329,0.052-0.464,0.156c-0.133,0.103-0.199,0.226-0.199,0.369V86.804z"/>
<path d="M109.702,85.277v-0.389c0-0.363-0.165-0.545-0.496-0.545c-0.124,0-0.234,0.031-0.33,0.095
	c-0.096,0.061-0.144,0.135-0.144,0.222c0,0.032,0.005,0.074,0.016,0.124c0.013,0.048,0.02,0.094,0.02,0.137
	c0,0.083-0.029,0.15-0.088,0.203c-0.059,0.052-0.127,0.078-0.206,0.078c-0.089,0-0.161-0.026-0.215-0.078
	c-0.052-0.055-0.078-0.127-0.078-0.216c0-0.179,0.094-0.349,0.284-0.51c0.191-0.16,0.452-0.241,0.78-0.241
	c0.353,0,0.611,0.075,0.774,0.226c0.163,0.149,0.245,0.417,0.245,0.8v1.358c0,0.139,0.014,0.238,0.042,0.297
	c0.028,0.057,0.076,0.085,0.144,0.085c0.056,0,0.11-0.011,0.16-0.033c0.052-0.021,0.101-0.056,0.147-0.101v0.183
	c-0.115,0.124-0.219,0.212-0.31,0.265c-0.089,0.05-0.188,0.075-0.294,0.075c-0.276,0-0.423-0.157-0.441-0.471
	c-0.348,0.313-0.665,0.471-0.95,0.471c-0.207,0-0.377-0.066-0.509-0.199c-0.131-0.136-0.196-0.296-0.196-0.483
	c0-0.34,0.148-0.604,0.444-0.79C108.798,85.649,109.199,85.461,109.702,85.277z M109.702,85.437
	c-0.42,0.156-0.702,0.309-0.845,0.457c-0.142,0.146-0.212,0.31-0.212,0.492c0,0.161,0.042,0.291,0.124,0.389
	c0.085,0.099,0.187,0.147,0.307,0.147c0.108,0,0.209-0.021,0.3-0.063c0.093-0.043,0.172-0.095,0.235-0.153
	c0.026-0.021,0.048-0.049,0.065-0.082c0.018-0.034,0.026-0.104,0.026-0.209V85.437z"/>
<path d="M110.825,87.249v-0.102c0.169-0.025,0.289-0.067,0.359-0.124c0.07-0.059,0.104-0.181,0.104-0.365v-1.652
	c0-0.274-0.075-0.411-0.225-0.411c-0.083,0-0.162,0.009-0.238,0.026v-0.102c0.324-0.115,0.655-0.236,0.992-0.362l0.033,0.02v0.607
	c0.279-0.418,0.543-0.627,0.793-0.627c0.109,0,0.195,0.031,0.258,0.095c0.065,0.063,0.098,0.158,0.098,0.284
	c0,0.098-0.026,0.173-0.079,0.226c-0.052,0.05-0.111,0.074-0.176,0.074c-0.094,0-0.176-0.042-0.248-0.127
	c-0.072-0.087-0.141-0.131-0.206-0.131c-0.083,0-0.178,0.064-0.284,0.193c-0.104,0.128-0.157,0.245-0.157,0.353v1.479
	c0,0.202,0.036,0.34,0.108,0.411c0.074,0.072,0.229,0.117,0.463,0.134v0.102H110.825z"/>
<path d="M113.202,82.834l0.082-0.117c1.099,0.744,1.649,1.704,1.649,2.879c0,1.213-0.557,2.158-1.671,2.838l-0.059-0.104
	c0.455-0.361,0.76-0.75,0.914-1.166c0.157-0.418,0.235-0.924,0.235-1.518c0-0.754-0.093-1.343-0.278-1.767
	C113.888,83.455,113.598,83.107,113.202,82.834z"/>
<path fill="none" stroke="#000000" stroke-width="0.5572" stroke-linejoin="bevel" stroke-miterlimit="10" d="M359.297,60.223
	c2.608-2.609,6.846-2.609,9.455,0.001c2.609,2.609,2.609,6.846,0,9.455c-2.609,2.61-6.847,2.61-9.455,0.001
	C356.686,67.07,356.686,62.833,359.297,60.223L359.297,60.223z M368.754,50.766c2.608-2.609,6.846-2.609,9.455,0.001
	c2.609,2.609,2.609,6.846,0,9.455c-2.609,2.61-6.847,2.61-9.455,0.001C366.144,57.613,366.144,53.375,368.754,50.766L368.754,50.766
	z"/>
<line fill="none" stroke="#000000" stroke-width="0.5572" stroke-miterlimit="10" x1="354.952" y1="55.549" x2="367.954" y2="59.096"/>
<line fill="none" stroke="#000000" stroke-width="0.4514" stroke-miterlimit="10" x1="345.27" y1="42.488" x2="346.953" y2="43.397"/>
<rect x="335.77" y="70.358" transform="matrix(-0.9388 -0.3446 0.3446 -0.9388 633.402 261.6504)" fill="none" stroke="#000000" stroke-width="0.4647" stroke-miterlimit="10" width="8.364" height="8.365"/>
<path d="M353.079,80.78c0.205-0.33,0.6-0.709,1.184-1.139c0.482-0.354,0.785-0.621,0.908-0.802c0.121-0.181,0.184-0.367,0.184-0.561
	c0-0.214-0.063-0.397-0.188-0.549c-0.122-0.154-0.307-0.231-0.553-0.231c-0.27,0-0.457,0.084-0.564,0.252
	c-0.107,0.169-0.16,0.417-0.16,0.744h-1.052v-0.154c0-0.464,0.146-0.867,0.437-1.208c0.293-0.342,0.729-0.513,1.307-0.513
	c0.508,0,0.938,0.144,1.293,0.432c0.354,0.286,0.531,0.696,0.531,1.23c0,0.364-0.088,0.681-0.264,0.952
	c-0.174,0.269-0.518,0.581-1.033,0.938c-0.564,0.391-0.9,0.67-1.008,0.839h2.305v0.934h-3.633
	C352.772,81.498,352.874,81.109,353.079,80.78z"/>
<path fill="none" stroke="#000000" stroke-width="0.4647" stroke-miterlimit="10" d="M358.842,79.757
	c0,2.31-1.874,4.183-4.182,4.183c-2.31,0-4.184-1.873-4.184-4.183c0-2.308,1.874-4.181,4.184-4.181
	C356.968,75.577,358.842,77.45,358.842,79.757L358.842,79.757z"/>
<path d="M338.372,76.124c0.205-0.33,0.599-0.709,1.182-1.139c0.484-0.354,0.787-0.621,0.908-0.802
	c0.123-0.181,0.184-0.367,0.184-0.561c0-0.214-0.063-0.397-0.187-0.549c-0.122-0.154-0.307-0.231-0.554-0.231
	c-0.268,0-0.456,0.084-0.563,0.252c-0.108,0.169-0.162,0.417-0.162,0.744h-1.051v-0.154c0-0.464,0.145-0.867,0.436-1.208
	c0.293-0.342,0.729-0.513,1.308-0.513c0.508,0,0.938,0.144,1.292,0.432c0.354,0.286,0.531,0.696,0.531,1.23
	c0,0.364-0.088,0.681-0.264,0.952c-0.173,0.269-0.518,0.581-1.032,0.938c-0.563,0.391-0.899,0.67-1.007,0.839h2.303v0.934h-3.633
	C338.063,76.841,338.167,76.453,338.372,76.124z"/>
<path fill="none" stroke="#000000" stroke-width="0.4646" stroke-miterlimit="10" d="M400.992,65.662
	c0,2.308-1.871,4.181-4.181,4.181c-2.308,0-4.182-1.874-4.182-4.181c0-2.307,1.874-4.182,4.182-4.182
	C399.121,61.48,400.992,63.355,400.992,65.662L400.992,65.662z"/>
<path d="M391.973,53.894c0.02,0.61,0.275,0.916,0.77,0.916c0.236,0,0.428-0.073,0.574-0.22s0.221-0.355,0.221-0.626
	c0-0.264-0.095-0.456-0.282-0.575c-0.187-0.122-0.495-0.183-0.927-0.183v-0.747h0.168c0.584,0,0.876-0.232,0.876-0.696
	c0-0.208-0.062-0.376-0.184-0.505c-0.122-0.132-0.292-0.198-0.509-0.198c-0.479,0-0.721,0.286-0.725,0.857h-0.953
	c0-0.525,0.15-0.938,0.451-1.242c0.303-0.305,0.729-0.458,1.281-0.458c0.506,0,0.916,0.129,1.23,0.388
	c0.315,0.259,0.473,0.615,0.473,1.069c0,0.476-0.219,0.825-0.655,1.047c0.546,0.225,0.82,0.637,0.82,1.238
	c0,0.496-0.169,0.902-0.506,1.22c-0.335,0.314-0.783,0.472-1.348,0.472c-0.591,0-1.036-0.149-1.337-0.447
	c-0.3-0.3-0.463-0.737-0.49-1.311H391.973z"/>
<rect x="388.628" y="48.972" transform="matrix(-0.9623 0.2718 -0.2718 -0.9623 785.2769 -2.4709)" fill="none" stroke="#000000" stroke-width="0.4645" stroke-miterlimit="10" width="8.364" height="8.36"/>
<path d="M395.973,66.503c0.02,0.61,0.275,0.916,0.77,0.916c0.236,0,0.428-0.073,0.574-0.22s0.221-0.355,0.221-0.626
	c0-0.264-0.095-0.456-0.282-0.575c-0.187-0.122-0.495-0.183-0.927-0.183v-0.747h0.168c0.584,0,0.876-0.232,0.876-0.696
	c0-0.208-0.062-0.376-0.184-0.505c-0.122-0.132-0.292-0.198-0.509-0.198c-0.479,0-0.721,0.286-0.725,0.857h-0.953
	c0-0.525,0.15-0.938,0.451-1.242c0.303-0.305,0.729-0.458,1.281-0.458c0.506,0,0.916,0.129,1.23,0.388
	c0.315,0.259,0.473,0.615,0.473,1.069c0,0.476-0.219,0.825-0.655,1.047c0.546,0.225,0.82,0.637,0.82,1.238
	c0,0.496-0.169,0.902-0.506,1.22c-0.335,0.314-0.783,0.472-1.348,0.472c-0.591,0-1.036-0.149-1.337-0.447
	c-0.3-0.3-0.463-0.737-0.49-1.311H395.973z"/>
<rect x="336.906" y="36.714" transform="matrix(-0.9517 -0.3072 0.3072 -0.9517 653.1252 184.5789)" fill="none" stroke="#000000" stroke-width="0.4645" stroke-miterlimit="10" width="8.363" height="8.36"/>
<path d="M339.4,38.876c0.524-0.006,0.894-0.097,1.106-0.273c0.213-0.176,0.331-0.392,0.355-0.648l0.867-0.011l0.064,5.324
	l-1.052,0.013l-0.044-3.684l-1.289,0.015L339.4,38.876z"/>
<path fill="none" stroke="#000000" stroke-width="0.4647" stroke-miterlimit="10" d="M359.168,46.028
	c0,2.31-1.875,4.183-4.182,4.183c-2.311,0-4.184-1.873-4.184-4.183c0-2.308,1.873-4.181,4.184-4.181
	C357.293,41.848,359.168,43.721,359.168,46.028L359.168,46.028z"/>
<path d="M353.436,43.911c0.525,0,0.895-0.087,1.11-0.26c0.214-0.173,0.335-0.388,0.362-0.645h0.868v5.325h-1.052v-3.684h-1.289
	V43.911z"/>
<line fill="none" stroke="#000000" stroke-width="0.4514" stroke-miterlimit="10" x1="391.347" y1="49.058" x2="390.709" y2="47.255"/>
<line fill="none" stroke="#000000" stroke-width="0.4514" stroke-miterlimit="10" x1="358.672" y1="48.27" x2="360.356" y2="49.179"/>
<line fill="none" stroke="#000000" stroke-width="0.4514" stroke-miterlimit="10" x1="334.087" y1="71.479" x2="335.77" y2="72.389"/>
<line fill="none" stroke="#000000" stroke-width="0.4514" stroke-miterlimit="10" x1="349.104" y1="77.696" x2="350.787" y2="78.605"/>
<line fill="none" stroke="#000000" stroke-width="0.4514" stroke-miterlimit="10" x1="395.448" y1="61.419" x2="394.81" y2="59.616"/>
<line fill="none" stroke="#000000" stroke-width="0.5572" stroke-miterlimit="10" stroke-dasharray="0.5572,2.5259" stroke-dashoffset="2" x1="84.499" y1="91.155" x2="84.499" y2="158.018"/>
<path d="M203.011,131.206h-2.648c-0.161-0.62-0.247-1.3-0.258-2.039l-0.016-0.859c-0.011-0.573-0.138-0.981-0.383-1.227
	s-0.742-0.367-1.492-0.367h-2.516v4.492h-2.383v-11.5h5.867c1.104,0,1.987,0.3,2.648,0.898c0.661,0.594,0.992,1.398,0.992,2.414
	c0,1.297-0.597,2.198-1.789,2.703c0.646,0.255,1.05,0.606,1.211,1.055s0.242,1.148,0.242,2.102v0.461
	c0,0.438,0.028,0.786,0.086,1.047c0.063,0.255,0.208,0.425,0.438,0.508V131.206z M200.401,123.252c0-1.021-0.563-1.531-1.688-1.531
	h-3.016v3.07h2.828C199.776,124.792,200.401,124.279,200.401,123.252z"/>
<path d="M203.979,131.206l4.125-11.5h2.758l4.125,11.5h-2.609l-0.742-2.398h-4.313l-0.813,2.398H203.979z M207.987,126.792h2.938
	l-1.445-4.477L207.987,126.792z"/>
<line fill="none" stroke="#000000" stroke-width="0.5572" stroke-miterlimit="10" stroke-dasharray="0.5572,2.5259" stroke-dashoffset="2" x1="230.837" y1="91.155" x2="230.837" y2="158.018"/>
<line fill="none" stroke="#000000" stroke-width="0.5572" stroke-miterlimit="10" x1="350.41" y1="125.092" x2="352.08" y2="123.42"/>
<path fill="none" stroke="#000000" stroke-width="0.4514" stroke-miterlimit="10" d="M354.632,124.256
	c-2.243,0-4.063-1.82-4.063-4.063s1.819-4.063,4.063-4.063c2.242,0,4.063,1.82,4.063,4.063S356.875,124.256,354.632,124.256
	L354.632,124.256z"/>
<rect x="334.739" y="115.131" transform="matrix(0.4376 -0.8992 0.8992 0.4376 83.3743 371.6829)" fill="none" stroke="#000000" stroke-width="0.4514" stroke-miterlimit="10" width="8.126" height="8.125"/>
<path d="M352.627,121.429c0.222-0.356,0.648-0.769,1.281-1.233c0.523-0.384,0.852-0.674,0.983-0.869
	c0.133-0.195,0.198-0.398,0.198-0.607c0-0.232-0.067-0.431-0.202-0.595c-0.132-0.167-0.332-0.25-0.599-0.25
	c-0.291,0-0.495,0.091-0.611,0.274c-0.116,0.182-0.175,0.451-0.175,0.805h-1.139v-0.166c0-0.503,0.158-0.939,0.473-1.31
	c0.317-0.37,0.789-0.556,1.416-0.556c0.55,0,1.018,0.156,1.4,0.469c0.384,0.309,0.575,0.754,0.575,1.332
	c0,0.395-0.095,0.738-0.285,1.032c-0.188,0.291-0.561,0.63-1.119,1.016c-0.61,0.423-0.975,0.726-1.091,0.908h2.495v1.012h-3.936
	C352.293,122.208,352.405,121.787,352.627,121.429z"/>
<path d="M337.18,120.491c0.222-0.357,0.648-0.768,1.281-1.234c0.523-0.383,0.852-0.672,0.983-0.868
	c0.133-0.196,0.198-0.397,0.198-0.606c0-0.233-0.067-0.432-0.202-0.596c-0.132-0.166-0.332-0.25-0.599-0.25
	c-0.291,0-0.495,0.092-0.611,0.273c-0.116,0.184-0.175,0.451-0.175,0.806h-1.139v-0.167c0-0.502,0.158-0.938,0.473-1.309
	c0.317-0.37,0.789-0.556,1.416-0.556c0.55,0,1.018,0.156,1.4,0.468c0.384,0.311,0.575,0.754,0.575,1.334
	c0,0.394-0.095,0.737-0.285,1.031c-0.188,0.291-0.561,0.629-1.119,1.016c-0.61,0.423-0.975,0.726-1.091,0.908h2.495v1.012h-3.936
	C336.846,121.268,336.958,120.848,337.18,120.491z"/>
<line fill="none" stroke="#000000" stroke-width="0.5572" stroke-miterlimit="10" x1="347.224" y1="117.092" x2="343.814" y2="119.042"/>
<line fill="none" stroke="#000000" stroke-width="0.5572" stroke-miterlimit="10" x1="350.576" y1="119.042" x2="347.166" y2="117.092"/>
<line fill="none" stroke="#000000" stroke-width="0.5572" stroke-miterlimit="10" x1="342.482" y1="121.454" x2="344.556" y2="122.584"/>
<path fill="none" stroke="#000000" stroke-width="0.5572" stroke-miterlimit="10" d="M364.025,140.641
	c0-5.504,0.456-12.207-0.52-17.809c-0.521-2.984-1.994-3.639-5.025-3.639"/>
<polygon fill-rule="evenodd" clip-rule="evenodd" stroke="#000000" stroke-width="0.2786" stroke-miterlimit="10" points="
	365.14,139.379 364.253,143.901 362.91,139.495 365.14,139.379 "/>
<polygon fill-rule="evenodd" clip-rule="evenodd" stroke="#000000" stroke-width="0.2786" stroke-miterlimit="10" points="
	365.14,123.157 364.253,127.678 362.91,123.272 365.14,123.157 "/>
<path d="M336.656,138.112c0.568,0,0.97-0.094,1.202-0.281s0.363-0.421,0.393-0.699h0.94v5.77h-1.139v-3.992h-1.396V138.112z"/>
<path d="M352.917,139.93c0.568,0,0.97-0.094,1.202-0.281s0.363-0.421,0.393-0.699h0.94v5.77h-1.139v-3.992h-1.396V139.93z"/>
<rect x="334.568" y="136.579" transform="matrix(0.294 -0.9558 0.9558 0.294 104.6357 422.9481)" fill="none" stroke="#000000" stroke-width="0.4514" stroke-miterlimit="10" width="8.127" height="8.125"/>
<path fill="none" stroke="#000000" stroke-width="0.4514" stroke-miterlimit="10" d="M354.06,146.262
	c-2.244,0-4.063-1.82-4.063-4.063s1.819-4.063,4.063-4.063c2.242,0,4.062,1.82,4.062,4.063S356.302,146.262,354.06,146.262
	L354.06,146.262z"/>
<line fill="none" stroke="#000000" stroke-width="0.5572" stroke-miterlimit="10" x1="346.292" y1="144.614" x2="349.703" y2="142.667"/>
<line fill="none" stroke="#000000" stroke-width="0.5572" stroke-miterlimit="10" x1="342.941" y1="142.667" x2="346.351" y2="144.614"/>
<line fill="none" stroke="#000000" stroke-width="0.5572" stroke-miterlimit="10" x1="341.287" y1="137.137" x2="342.957" y2="135.465"/>
<line fill="none" stroke="#000000" stroke-width="0.5572" stroke-miterlimit="10" x1="349.128" y1="138.633" x2="351.203" y2="139.766"/>
<path fill="none" stroke="#000000" stroke-width="0.5572" stroke-miterlimit="10" stroke-dasharray="1.42,1.42" d="M327.587,120.752
	c0,5.504-0.457,12.209,0.52,17.809c0.52,2.984,1.994,3.639,5.025,3.639"/>
<polygon fill-rule="evenodd" clip-rule="evenodd" stroke="#000000" stroke-width="0.2786" stroke-miterlimit="10" points="
	326.472,122.014 327.359,117.493 328.703,121.899 326.472,122.014 "/>
<polygon fill-rule="evenodd" clip-rule="evenodd" stroke="#000000" stroke-width="0.2786" stroke-miterlimit="10" points="
	326.472,138.237 327.359,133.717 328.703,138.122 326.472,138.237 "/>
<path d="M294.44,127.706h9.383v2.016h-3.5v9.484h-2.383v-9.484h-3.5V127.706z"/>
<path d="M303.583,142.562v-7.188h3.55c0.661,0,1.198,0.166,1.611,0.498c0.417,0.329,0.625,0.791,0.625,1.387
	c0,0.69-0.294,1.164-0.884,1.421c0.746,0.3,1.118,0.866,1.118,1.699c-0.049,0.729-0.292,1.276-0.728,1.641
	c-0.436,0.361-1.174,0.542-2.212,0.542H303.583z M305.072,138.177h1.782c0.713,0,1.069-0.269,1.069-0.806
	c0-0.491-0.371-0.737-1.113-0.737h-1.738V138.177z M305.072,141.302h1.88c0.775,0,1.162-0.34,1.162-1.021
	c0-0.603-0.365-0.903-1.094-0.903h-1.948V141.302z"/>
<path d="M310.272,136.146h0.127c0.697,0,1.072-0.234,1.128-0.703h0.85v4.307h-1.011v-2.979h-1.094V136.146z M311.38,142.708
	l4.292-7.246h0.786l-4.292,7.246H311.38z M315.179,141.473c0.225-0.271,0.515-0.52,0.869-0.747c0.332-0.215,0.569-0.4,0.713-0.557
	c0.146-0.159,0.22-0.366,0.22-0.62c0-0.13-0.056-0.242-0.166-0.337s-0.25-0.142-0.42-0.142c-0.41,0-0.625,0.229-0.645,0.688h-0.884
	c0-0.442,0.118-0.801,0.356-1.074s0.623-0.41,1.157-0.41c0.476,0,0.854,0.129,1.138,0.386c0.283,0.254,0.425,0.583,0.425,0.986
	c0,0.3-0.071,0.557-0.215,0.771s-0.342,0.41-0.596,0.586c-0.257,0.176-0.471,0.322-0.64,0.439c-0.166,0.114-0.293,0.22-0.381,0.317
	h1.846v0.82h-3.14C314.837,142.11,314.958,141.74,315.179,141.473z"/>
<path d="M418.86,135.627c0.066,1.261,0.891,1.891,2.469,1.891c1.52,0,2.281-0.487,2.281-1.461c0-0.62-0.535-1.06-1.602-1.32
	l-2.82-0.719c-0.865-0.208-1.5-0.56-1.906-1.055s-0.609-1.153-0.609-1.977c0-1.052,0.377-1.911,1.133-2.578
	c0.754-0.667,1.846-1,3.273-1c1.313,0,2.363,0.32,3.156,0.961c0.791,0.641,1.229,1.57,1.313,2.789h-2.313
	c-0.172-1.177-0.938-1.766-2.297-1.766c-0.621,0-1.115,0.12-1.484,0.359c-0.365,0.239-0.547,0.567-0.547,0.984
	c0,0.302,0.094,0.555,0.281,0.758c0.191,0.203,0.5,0.356,0.922,0.461l2.797,0.688c1.15,0.276,1.939,0.664,2.367,1.164
	c0.432,0.5,0.648,1.153,0.648,1.961c0,1.109-0.396,2.011-1.188,2.703c-0.787,0.688-1.93,1.031-3.43,1.031
	c-1.402,0-2.545-0.328-3.43-0.984c-0.887-0.661-1.328-1.625-1.328-2.891H418.86z"/>
<path d="M413.162,110.884l2.585-7.208h1.729l2.585,7.208h-1.636l-0.465-1.503h-2.703l-0.51,1.503H413.162z M415.673,108.118h1.842
	l-0.906-2.807L415.673,108.118z"/>
<path d="M420.962,103.676h1.494v5.944h3.604v1.264h-5.099V103.676z"/>
<path d="M427.088,103.676h1.494v5.944h3.604v1.264h-5.099V103.676z"/>
<path d="M253.63,108.68c0.027,0.816,0.376,1.225,1.048,1.225c0.322,0,0.583-0.098,0.782-0.294c0.2-0.196,0.3-0.476,0.3-0.837
	c0-0.354-0.128-0.609-0.384-0.77c-0.253-0.163-0.674-0.244-1.262-0.244v-1h0.229c0.794,0,1.191-0.31,1.191-0.93
	c0-0.277-0.083-0.503-0.249-0.676c-0.167-0.177-0.397-0.265-0.693-0.265c-0.651,0-0.98,0.382-0.987,1.146h-1.297
	c0-0.701,0.204-1.255,0.613-1.66c0.412-0.408,0.994-0.611,1.746-0.611c0.688,0,1.246,0.173,1.675,0.519
	c0.43,0.347,0.644,0.823,0.644,1.431c0,0.637-0.298,1.104-0.893,1.4c0.745,0.301,1.117,0.852,1.117,1.654
	c0,0.664-0.229,1.207-0.688,1.631c-0.455,0.422-1.067,0.633-1.835,0.633c-0.805,0-1.411-0.199-1.82-0.598
	c-0.409-0.402-0.632-0.986-0.668-1.754H253.63z"/>
<path d="M257.764,110.884l1.865-2.708l-1.8-2.62h1.74l0.942,1.562l0.923-1.562h1.676l-1.806,2.601l1.87,2.728h-1.766l-0.967-1.602
	l-0.958,1.602H257.764z"/>
<path d="M295.142,104.973c0.715,0,1.218-0.115,1.511-0.348c0.292-0.231,0.457-0.52,0.493-0.861h1.183v7.12h-1.432v-4.927h-1.755
	V104.973z"/>
<path d="M303.709,109.327c0.279-0.44,0.815-0.948,1.61-1.523c0.658-0.473,1.07-0.83,1.237-1.072c0.166-0.241,0.249-0.49,0.249-0.748
	c0-0.288-0.085-0.533-0.255-0.735c-0.166-0.206-0.417-0.309-0.753-0.309c-0.365,0-0.621,0.112-0.768,0.338s-0.22,0.557-0.22,0.994
	h-1.431v-0.206c0-0.619,0.197-1.158,0.593-1.615c0.399-0.457,0.993-0.686,1.78-0.686c0.691,0,1.278,0.192,1.761,0.578
	c0.482,0.381,0.723,0.93,0.723,1.645c0,0.486-0.119,0.911-0.358,1.273c-0.236,0.359-0.705,0.777-1.406,1.254
	c-0.769,0.522-1.226,0.896-1.372,1.121h3.137v1.249h-4.946C303.291,110.287,303.43,109.768,303.709,109.327z"/>
<path d="M298.111,149.496c-0.185,0.424-0.278,1.013-0.278,1.767c0,0.594,0.079,1.1,0.236,1.518c0.154,0.416,0.459,0.805,0.914,1.166
	l-0.059,0.104c-1.115-0.68-1.672-1.625-1.672-2.838c0-1.175,0.549-2.135,1.648-2.879l0.082,0.117
	C298.586,148.723,298.295,149.071,298.111,149.496z"/>
<path d="M299.907,148.96l1.201-0.627l0.055,0.013v4.022c0,0.15,0.037,0.255,0.111,0.313c0.074,0.057,0.25,0.085,0.529,0.085v0.098
	h-1.854v-0.098c0.251-0.009,0.419-0.046,0.506-0.111c0.089-0.065,0.134-0.203,0.134-0.415v-3.017c0-0.128-0.021-0.212-0.063-0.251
	c-0.039-0.041-0.093-0.063-0.162-0.063c-0.055,0-0.113,0.013-0.174,0.036c-0.061,0.022-0.155,0.059-0.283,0.111V148.96z"/>
<path d="M305.217,150.347c0.04-0.104,0.146-0.226,0.317-0.365s0.371-0.209,0.598-0.209c0.349,0,0.631,0.142,0.849,0.425
	c0.218,0.28,0.326,0.632,0.326,1.054c0,0.464-0.152,0.859-0.457,1.186c-0.303,0.326-0.686,0.49-1.148,0.49
	c-0.196,0-0.42-0.042-0.67-0.125c-0.25-0.084-0.375-0.19-0.375-0.316v-3.457c0-0.124-0.021-0.217-0.065-0.277
	c-0.042-0.063-0.128-0.095-0.258-0.095c-0.035,0-0.082,0.002-0.141,0.006v-0.101c0.409-0.106,0.734-0.205,0.976-0.294l0.049,0.017
	V150.347z M305.217,152.42c0,0.094,0.07,0.169,0.209,0.226c0.143,0.055,0.285,0.082,0.432,0.082c0.276,0,0.488-0.1,0.637-0.298
	c0.15-0.2,0.225-0.499,0.225-0.897c0-0.396-0.074-0.721-0.225-0.973c-0.15-0.253-0.355-0.379-0.613-0.379
	c-0.175,0-0.329,0.052-0.465,0.156c-0.133,0.103-0.199,0.226-0.199,0.369V152.42z"/>
<path d="M309.426,150.893v-0.389c0-0.363-0.165-0.545-0.496-0.545c-0.124,0-0.234,0.031-0.33,0.095
	c-0.096,0.061-0.143,0.135-0.143,0.222c0,0.032,0.005,0.074,0.016,0.124c0.014,0.048,0.02,0.094,0.02,0.137
	c0,0.083-0.029,0.15-0.088,0.203c-0.059,0.052-0.127,0.078-0.206,0.078c-0.089,0-0.161-0.026-0.216-0.078
	c-0.052-0.055-0.078-0.127-0.078-0.216c0-0.179,0.095-0.349,0.284-0.51c0.191-0.16,0.452-0.241,0.78-0.241
	c0.353,0,0.611,0.075,0.773,0.226c0.164,0.149,0.245,0.417,0.245,0.8v1.358c0,0.139,0.015,0.238,0.042,0.297
	c0.029,0.057,0.076,0.085,0.145,0.085c0.057,0,0.109-0.011,0.16-0.033c0.052-0.021,0.101-0.056,0.146-0.101v0.183
	c-0.115,0.124-0.219,0.212-0.311,0.265c-0.089,0.05-0.188,0.075-0.293,0.075c-0.277,0-0.424-0.157-0.441-0.471
	c-0.348,0.313-0.664,0.471-0.949,0.471c-0.207,0-0.377-0.066-0.51-0.199c-0.131-0.136-0.196-0.296-0.196-0.483
	c0-0.34,0.148-0.604,0.444-0.79C308.523,151.265,308.924,151.078,309.426,150.893z M309.426,151.053
	c-0.42,0.156-0.701,0.309-0.846,0.457c-0.141,0.146-0.212,0.31-0.212,0.492c0,0.161,0.042,0.291,0.124,0.389
	c0.085,0.099,0.188,0.147,0.307,0.147c0.109,0,0.209-0.021,0.301-0.063c0.094-0.043,0.172-0.095,0.234-0.153
	c0.027-0.021,0.049-0.049,0.066-0.082c0.018-0.034,0.025-0.104,0.025-0.209V151.053z"/>
<path d="M310.549,152.865v-0.102c0.17-0.025,0.289-0.067,0.359-0.124c0.07-0.059,0.104-0.181,0.104-0.365v-1.652
	c0-0.274-0.075-0.411-0.226-0.411c-0.082,0-0.162,0.009-0.238,0.026v-0.102c0.324-0.115,0.655-0.236,0.992-0.362l0.033,0.02v0.607
	c0.279-0.418,0.543-0.627,0.793-0.627c0.109,0,0.195,0.031,0.258,0.095c0.066,0.063,0.099,0.158,0.099,0.284
	c0,0.098-0.026,0.173-0.079,0.226c-0.052,0.05-0.11,0.074-0.176,0.074c-0.094,0-0.176-0.042-0.248-0.127
	c-0.072-0.087-0.141-0.131-0.205-0.131c-0.084,0-0.178,0.064-0.285,0.193c-0.104,0.128-0.156,0.245-0.156,0.353v1.479
	c0,0.202,0.036,0.34,0.107,0.411c0.074,0.072,0.229,0.117,0.464,0.134v0.102H310.549z"/>
<path d="M312.926,148.451l0.082-0.117c1.099,0.744,1.648,1.704,1.648,2.879c0,1.213-0.557,2.158-1.672,2.838l-0.059-0.104
	c0.455-0.361,0.76-0.75,0.914-1.166c0.156-0.418,0.235-0.924,0.235-1.518c0-0.754-0.093-1.343-0.278-1.767
	C313.613,149.071,313.323,148.723,312.926,148.451z"/>
<path d="M340.792,149.496c-0.186,0.424-0.277,1.013-0.277,1.767c0,0.594,0.078,1.1,0.234,1.518c0.154,0.416,0.459,0.805,0.914,1.166
	l-0.059,0.104c-1.114-0.68-1.672-1.625-1.672-2.838c0-1.175,0.551-2.135,1.649-2.879l0.081,0.117
	C341.267,148.723,340.976,149.071,340.792,149.496z"/>
<path d="M342.586,148.96l1.202-0.627l0.056,0.013v4.022c0,0.15,0.037,0.255,0.111,0.313c0.073,0.057,0.25,0.085,0.528,0.085v0.098
	h-1.854v-0.098c0.25-0.009,0.419-0.046,0.506-0.111c0.09-0.065,0.134-0.203,0.134-0.415v-3.017c0-0.128-0.021-0.212-0.062-0.251
	c-0.039-0.041-0.094-0.063-0.164-0.063c-0.054,0-0.111,0.013-0.172,0.036c-0.062,0.022-0.156,0.059-0.285,0.111V148.96z"/>
<path d="M347.899,150.347c0.039-0.104,0.145-0.226,0.316-0.365s0.371-0.209,0.598-0.209c0.348,0,0.631,0.142,0.849,0.425
	c0.218,0.28,0.327,0.632,0.327,1.054c0,0.464-0.152,0.859-0.457,1.186c-0.303,0.326-0.686,0.49-1.15,0.49
	c-0.195,0-0.418-0.042-0.669-0.125c-0.25-0.084-0.376-0.19-0.376-0.316v-3.457c0-0.124-0.021-0.217-0.064-0.277
	c-0.041-0.063-0.127-0.095-0.258-0.095c-0.035,0-0.082,0.002-0.141,0.006v-0.101c0.409-0.106,0.734-0.205,0.977-0.294l0.049,0.017
	V150.347z M347.899,152.42c0,0.094,0.069,0.169,0.209,0.226c0.141,0.055,0.285,0.082,0.431,0.082c0.276,0,0.489-0.1,0.637-0.298
	c0.149-0.2,0.226-0.499,0.226-0.897c0-0.396-0.076-0.721-0.226-0.973c-0.15-0.253-0.354-0.379-0.614-0.379
	c-0.174,0-0.328,0.052-0.463,0.156c-0.133,0.103-0.199,0.226-0.199,0.369V152.42z"/>
<path d="M352.107,150.893v-0.389c0-0.363-0.165-0.545-0.496-0.545c-0.124,0-0.233,0.031-0.329,0.095
	c-0.096,0.061-0.145,0.135-0.145,0.222c0,0.032,0.006,0.074,0.017,0.124c0.013,0.048,0.02,0.094,0.02,0.137
	c0,0.083-0.029,0.15-0.088,0.203c-0.06,0.052-0.128,0.078-0.206,0.078c-0.09,0-0.161-0.026-0.215-0.078
	c-0.053-0.055-0.078-0.127-0.078-0.216c0-0.179,0.094-0.349,0.283-0.51c0.191-0.16,0.451-0.241,0.78-0.241
	c0.353,0,0.61,0.075,0.774,0.226c0.162,0.149,0.244,0.417,0.244,0.8v1.358c0,0.139,0.014,0.238,0.043,0.297
	c0.027,0.057,0.076,0.085,0.144,0.085c0.056,0,0.11-0.011,0.159-0.033c0.053-0.021,0.102-0.056,0.147-0.101v0.183
	c-0.115,0.124-0.219,0.212-0.31,0.265c-0.09,0.05-0.188,0.075-0.295,0.075c-0.275,0-0.423-0.157-0.44-0.471
	c-0.349,0.313-0.665,0.471-0.95,0.471c-0.207,0-0.377-0.066-0.509-0.199c-0.131-0.136-0.196-0.296-0.196-0.483
	c0-0.34,0.148-0.604,0.444-0.79C351.204,151.265,351.604,151.078,352.107,150.893z M352.107,151.053
	c-0.42,0.156-0.702,0.309-0.845,0.457c-0.143,0.146-0.213,0.31-0.213,0.492c0,0.161,0.041,0.291,0.124,0.389
	c0.085,0.099,0.187,0.147,0.308,0.147c0.107,0,0.209-0.021,0.3-0.063c0.093-0.043,0.172-0.095,0.235-0.153
	c0.025-0.021,0.047-0.049,0.064-0.082c0.018-0.034,0.026-0.104,0.026-0.209V151.053z"/>
<path d="M353.231,152.865v-0.102c0.169-0.025,0.289-0.067,0.358-0.124c0.069-0.059,0.104-0.181,0.104-0.365v-1.652
	c0-0.274-0.075-0.411-0.225-0.411c-0.084,0-0.162,0.009-0.238,0.026v-0.102c0.324-0.115,0.654-0.236,0.992-0.362l0.032,0.02v0.607
	c0.278-0.418,0.543-0.627,0.794-0.627c0.108,0,0.194,0.031,0.258,0.095c0.064,0.063,0.098,0.158,0.098,0.284
	c0,0.098-0.026,0.173-0.078,0.226c-0.053,0.05-0.111,0.074-0.177,0.074c-0.094,0-0.177-0.042-0.248-0.127
	c-0.071-0.087-0.141-0.131-0.206-0.131c-0.082,0-0.178,0.064-0.283,0.193c-0.105,0.128-0.157,0.245-0.157,0.353v1.479
	c0,0.202,0.036,0.34,0.108,0.411c0.073,0.072,0.229,0.117,0.463,0.134v0.102H353.231z"/>
<path d="M355.607,148.451l0.081-0.117c1.1,0.744,1.649,1.704,1.649,2.879c0,1.213-0.558,2.158-1.671,2.838l-0.06-0.104
	c0.455-0.361,0.76-0.75,0.914-1.166c0.157-0.418,0.235-0.924,0.235-1.518c0-0.754-0.093-1.343-0.277-1.767
	C356.293,149.071,356.002,148.723,355.607,148.451z"/>
<path d="M247.776,127.706h9.383v2.016h-3.5v9.484h-2.383v-9.484h-3.5V127.706z"/>
<path d="M256.917,142.562v-7.188h3.55c0.66,0,1.197,0.166,1.611,0.498c0.416,0.329,0.625,0.791,0.625,1.387
	c0,0.69-0.295,1.164-0.884,1.421c0.745,0.3,1.118,0.866,1.118,1.699c-0.049,0.729-0.291,1.276-0.728,1.641
	c-0.437,0.361-1.173,0.542-2.212,0.542H256.917z M258.407,138.177h1.782c0.713,0,1.069-0.269,1.069-0.806
	c0-0.491-0.371-0.737-1.113-0.737h-1.738V138.177z M258.407,141.302h1.88c0.774,0,1.162-0.34,1.162-1.021
	c0-0.603-0.364-0.903-1.094-0.903h-1.948V141.302z"/>
<path d="M263.607,136.146h0.127c0.696,0,1.073-0.234,1.128-0.703h0.85v4.307h-1.011v-2.979h-1.094V136.146z M264.715,142.708
	l4.292-7.246h0.786l-4.292,7.246H264.715z M268.514,141.473c0.225-0.271,0.514-0.52,0.869-0.747c0.332-0.215,0.57-0.4,0.713-0.557
	c0.146-0.159,0.22-0.366,0.22-0.62c0-0.13-0.056-0.242-0.166-0.337s-0.251-0.142-0.42-0.142c-0.41,0-0.625,0.229-0.645,0.688h-0.884
	c0-0.442,0.119-0.801,0.356-1.074s0.624-0.41,1.157-0.41c0.476,0,0.854,0.129,1.138,0.386c0.283,0.254,0.425,0.583,0.425,0.986
	c0,0.3-0.071,0.557-0.215,0.771s-0.342,0.41-0.596,0.586c-0.257,0.176-0.471,0.322-0.64,0.439c-0.166,0.114-0.293,0.22-0.381,0.317
	h1.846v0.82h-3.14C268.172,142.11,268.293,141.74,268.514,141.473z"/>
<polyline fill="none" stroke="#000000" stroke-width="0.4082" stroke-linejoin="bevel" stroke-miterlimit="10" points="
	247.526,103.094 247.526,98.594 376.276,98.594 385.026,98.594 385.026,103.094 "/>
<path d="M371.55,83.879c-0.185,0.424-0.278,1.013-0.278,1.767c0,0.594,0.079,1.1,0.236,1.518c0.154,0.416,0.459,0.805,0.914,1.166
	l-0.059,0.104c-1.115-0.68-1.672-1.625-1.672-2.838c0-1.175,0.549-2.135,1.648-2.879l0.082,0.117
	C372.026,83.107,371.735,83.455,371.55,83.879z"/>
<path d="M373.604,83.331c0.013,0,0.022,0.007,0.029,0.02c0.006,0.011,0.01,0.045,0.01,0.102v0.768h0.679v0.215h-0.679v1.927
	c0,0.402,0.111,0.604,0.333,0.604c0.078,0,0.154-0.021,0.229-0.062c0.073-0.044,0.136-0.1,0.187-0.167l0.088,0.075
	c-0.074,0.133-0.185,0.249-0.33,0.35c-0.144,0.1-0.297,0.15-0.461,0.15c-0.404,0-0.607-0.292-0.607-0.875v-2.002h-0.283
	c-0.063,0-0.095-0.017-0.095-0.049c0-0.026,0.026-0.058,0.078-0.095c0.175-0.117,0.324-0.264,0.45-0.438
	C373.36,83.677,373.484,83.502,373.604,83.331z"/>
<path d="M376.366,85.277v-0.389c0-0.363-0.165-0.545-0.496-0.545c-0.124,0-0.234,0.031-0.33,0.095
	c-0.096,0.061-0.143,0.135-0.143,0.222c0,0.032,0.005,0.074,0.016,0.124c0.014,0.048,0.02,0.094,0.02,0.137
	c0,0.083-0.029,0.15-0.088,0.203c-0.059,0.052-0.127,0.078-0.206,0.078c-0.089,0-0.161-0.026-0.216-0.078
	c-0.052-0.055-0.078-0.127-0.078-0.216c0-0.179,0.095-0.349,0.284-0.51c0.191-0.16,0.452-0.241,0.78-0.241
	c0.353,0,0.611,0.075,0.773,0.226c0.164,0.149,0.245,0.417,0.245,0.8v1.358c0,0.139,0.015,0.238,0.042,0.297
	c0.029,0.057,0.076,0.085,0.145,0.085c0.057,0,0.109-0.011,0.16-0.033c0.052-0.021,0.101-0.056,0.146-0.101v0.183
	c-0.115,0.124-0.219,0.212-0.311,0.265c-0.089,0.05-0.188,0.075-0.293,0.075c-0.277,0-0.424-0.157-0.441-0.471
	c-0.348,0.313-0.664,0.471-0.949,0.471c-0.207,0-0.377-0.066-0.51-0.199c-0.131-0.136-0.196-0.296-0.196-0.483
	c0-0.34,0.148-0.604,0.444-0.79C375.462,85.649,375.864,85.461,376.366,85.277z M376.366,85.437
	c-0.42,0.156-0.701,0.309-0.846,0.457c-0.141,0.146-0.212,0.31-0.212,0.492c0,0.161,0.042,0.291,0.124,0.389
	c0.085,0.099,0.188,0.147,0.307,0.147c0.109,0,0.209-0.021,0.301-0.063c0.094-0.043,0.172-0.095,0.234-0.153
	c0.027-0.021,0.049-0.049,0.066-0.082c0.018-0.034,0.025-0.104,0.025-0.209V85.437z"/>
<path d="M377.514,87.147c0.155-0.004,0.271-0.034,0.347-0.091c0.078-0.059,0.118-0.186,0.118-0.379v-1.639
	c0-0.194-0.021-0.315-0.063-0.366c-0.041-0.052-0.103-0.078-0.184-0.078c-0.064,0-0.138,0.009-0.219,0.026v-0.102
	c0.462-0.161,0.783-0.281,0.964-0.362l0.046,0.013v0.51c0.224-0.202,0.403-0.34,0.538-0.411c0.138-0.074,0.286-0.111,0.447-0.111
	c0.244,0,0.438,0.087,0.585,0.261c0.147,0.173,0.222,0.417,0.222,0.735v1.524c0,0.188,0.037,0.312,0.11,0.372
	c0.076,0.059,0.194,0.092,0.354,0.098v0.102h-1.482v-0.102c0.135-0.004,0.244-0.039,0.33-0.104c0.084-0.064,0.127-0.222,0.127-0.47
	v-1.339c0-0.27-0.045-0.456-0.134-0.558c-0.087-0.104-0.218-0.157-0.392-0.157c-0.107,0-0.215,0.03-0.324,0.092
	c-0.105,0.061-0.229,0.152-0.365,0.274v1.896c0,0.235,0.152,0.356,0.457,0.365v0.102h-1.482V87.147z"/>
<path d="M383.091,87.311l-0.032-0.021v-0.397c-0.203,0.278-0.492,0.418-0.865,0.418c-0.34,0-0.629-0.127-0.869-0.379
	c-0.237-0.255-0.355-0.626-0.355-1.113c0-0.462,0.134-0.854,0.401-1.176c0.271-0.324,0.602-0.486,0.995-0.486
	c0.258,0,0.488,0.104,0.693,0.313v-1.058c0-0.159-0.025-0.261-0.076-0.304c-0.05-0.046-0.136-0.068-0.258-0.068
	c-0.047,0-0.092,0.002-0.131,0.006v-0.101c0.391-0.092,0.716-0.189,0.977-0.294l0.049,0.017v3.882c0,0.13,0.029,0.216,0.086,0.258
	c0.059,0.041,0.137,0.062,0.234,0.062c0.05,0,0.098-0.002,0.144-0.006v0.101L383.091,87.311z M383.059,86.527v-1.485
	c0-0.176-0.064-0.334-0.193-0.474c-0.129-0.142-0.293-0.212-0.492-0.212c-0.24,0-0.436,0.105-0.588,0.316s-0.229,0.518-0.229,0.918
	c0,0.398,0.079,0.727,0.238,0.985c0.158,0.26,0.384,0.389,0.676,0.389c0.16,0,0.299-0.045,0.414-0.134S383.059,86.64,383.059,86.527
	z"/>
<path d="M384.759,85.387c0.013,0.405,0.11,0.75,0.291,1.035c0.183,0.285,0.441,0.428,0.776,0.428c0.425,0,0.774-0.229,1.049-0.688
	l0.098,0.046c-0.096,0.291-0.273,0.548-0.532,0.771c-0.259,0.222-0.546,0.333-0.858,0.333c-0.4,0-0.715-0.131-0.943-0.393
	c-0.229-0.263-0.344-0.642-0.344-1.136c0-0.507,0.133-0.904,0.398-1.191c0.268-0.29,0.598-0.435,0.99-0.435
	c0.344,0,0.614,0.105,0.813,0.316c0.197,0.209,0.315,0.514,0.353,0.914H384.759z M384.776,85.172h1.388
	c-0.06-0.516-0.265-0.774-0.617-0.774c-0.243,0-0.425,0.069-0.542,0.206S384.811,84.93,384.776,85.172z"/>
<path d="M387.211,87.249v-0.102c0.198-0.006,0.324-0.045,0.379-0.117c0.057-0.074,0.084-0.191,0.084-0.353v-1.639
	c0-0.189-0.02-0.311-0.062-0.362c-0.039-0.055-0.098-0.082-0.177-0.082c-0.061,0-0.135,0.009-0.225,0.026v-0.102
	c0.305-0.1,0.623-0.221,0.957-0.362h0.042v0.522c0.22-0.165,0.4-0.294,0.542-0.386c0.142-0.091,0.306-0.137,0.493-0.137
	c0.374,0,0.606,0.191,0.695,0.574c0.115-0.144,0.268-0.274,0.457-0.395s0.391-0.18,0.604-0.18c0.254,0,0.449,0.093,0.584,0.277
	c0.135,0.183,0.202,0.451,0.202,0.804v0.124v1.367c0,0.161,0.029,0.27,0.089,0.323c0.061,0.055,0.186,0.086,0.375,0.095v0.102
	h-1.482v-0.102c0.142-0.002,0.252-0.026,0.333-0.075c0.083-0.05,0.124-0.182,0.124-0.395v-1.424c0-0.28-0.043-0.473-0.127-0.577
	c-0.083-0.104-0.203-0.157-0.363-0.157c-0.154,0-0.287,0.034-0.398,0.102c-0.107,0.065-0.217,0.166-0.326,0.304v1.596
	c0,0.269,0.035,0.439,0.105,0.513c0.068,0.072,0.189,0.11,0.358,0.114v0.102h-1.481v-0.102c0.16-0.004,0.277-0.037,0.349-0.098
	c0.071-0.063,0.108-0.188,0.108-0.372v-1.424c0-0.489-0.154-0.734-0.461-0.734c-0.133,0-0.262,0.035-0.389,0.104
	c-0.124,0.067-0.246,0.158-0.365,0.271v1.834c0,0.152,0.03,0.261,0.092,0.323c0.063,0.063,0.185,0.095,0.365,0.095v0.102H387.211z"
	/>
<path d="M394.132,84.219h0.522c0-1.045,0.402-1.567,1.205-1.567c0.185,0,0.342,0.04,0.47,0.121c0.128,0.08,0.192,0.176,0.192,0.287
	c0,0.085-0.027,0.153-0.081,0.205c-0.055,0.051-0.123,0.075-0.206,0.075c-0.09,0-0.189-0.082-0.301-0.248
	c-0.11-0.17-0.219-0.255-0.322-0.255c-0.264,0-0.396,0.2-0.396,0.602v0.78h0.836v0.215h-0.836v2.139
	c0,0.227,0.034,0.374,0.101,0.444c0.068,0.069,0.173,0.108,0.314,0.117l0.219,0.013v0.102h-1.747v-0.102
	c0.198-0.004,0.34-0.037,0.425-0.098c0.084-0.063,0.127-0.222,0.127-0.477v-2.139h-0.522V84.219z"/>
<path d="M396.388,85.72c0-0.441,0.131-0.813,0.392-1.113c0.264-0.3,0.611-0.45,1.042-0.45c0.466,0,0.833,0.141,1.101,0.421
	c0.27,0.279,0.404,0.652,0.404,1.12c0,0.45-0.139,0.833-0.418,1.146c-0.276,0.312-0.627,0.468-1.051,0.468
	c-0.438,0-0.793-0.152-1.064-0.458C396.524,86.546,396.388,86.169,396.388,85.72z M396.976,85.387c0,0.469,0.084,0.875,0.251,1.222
	c0.168,0.344,0.4,0.516,0.699,0.516c0.25,0,0.448-0.103,0.594-0.307c0.146-0.207,0.219-0.514,0.219-0.921
	c0-0.444-0.088-0.814-0.264-1.11c-0.177-0.296-0.41-0.443-0.699-0.443c-0.252,0-0.449,0.099-0.591,0.297
	C397.045,84.838,396.976,85.087,396.976,85.387z"/>
<path d="M399.584,87.249v-0.102c0.17-0.025,0.289-0.067,0.359-0.124c0.07-0.059,0.104-0.181,0.104-0.365v-1.652
	c0-0.274-0.075-0.411-0.226-0.411c-0.082,0-0.162,0.009-0.238,0.026v-0.102c0.324-0.115,0.655-0.236,0.992-0.362l0.033,0.02v0.607
	c0.279-0.418,0.543-0.627,0.793-0.627c0.109,0,0.195,0.031,0.258,0.095c0.066,0.063,0.099,0.158,0.099,0.284
	c0,0.098-0.026,0.173-0.079,0.226c-0.052,0.05-0.11,0.074-0.176,0.074c-0.094,0-0.176-0.042-0.248-0.127
	c-0.072-0.087-0.141-0.131-0.205-0.131c-0.084,0-0.178,0.064-0.285,0.193c-0.104,0.128-0.156,0.245-0.156,0.353v1.479
	c0,0.202,0.036,0.34,0.107,0.411c0.074,0.072,0.229,0.117,0.464,0.134v0.102H399.584z"/>
<path d="M405.327,85.277v-0.389c0-0.363-0.164-0.545-0.496-0.545c-0.123,0-0.233,0.031-0.329,0.095
	c-0.096,0.061-0.144,0.135-0.144,0.222c0,0.032,0.006,0.074,0.016,0.124c0.014,0.048,0.02,0.094,0.02,0.137
	c0,0.083-0.029,0.15-0.088,0.203c-0.059,0.052-0.127,0.078-0.205,0.078c-0.09,0-0.162-0.026-0.216-0.078
	c-0.052-0.055-0.078-0.127-0.078-0.216c0-0.179,0.095-0.349,0.284-0.51c0.191-0.16,0.451-0.241,0.779-0.241
	c0.354,0,0.611,0.075,0.774,0.226c0.163,0.149,0.245,0.417,0.245,0.8v1.358c0,0.139,0.014,0.238,0.042,0.297
	c0.028,0.057,0.076,0.085,0.144,0.085c0.057,0,0.11-0.011,0.16-0.033c0.053-0.021,0.102-0.056,0.146-0.101v0.183
	c-0.115,0.124-0.219,0.212-0.31,0.265c-0.089,0.05-0.188,0.075-0.294,0.075c-0.276,0-0.424-0.157-0.441-0.471
	c-0.348,0.313-0.664,0.471-0.949,0.471c-0.207,0-0.377-0.066-0.51-0.199c-0.131-0.136-0.195-0.296-0.195-0.483
	c0-0.34,0.148-0.604,0.443-0.79C404.424,85.649,404.825,85.461,405.327,85.277z M405.327,85.437
	c-0.42,0.156-0.701,0.309-0.845,0.457c-0.142,0.146-0.212,0.31-0.212,0.492c0,0.161,0.041,0.291,0.123,0.389
	c0.086,0.099,0.188,0.147,0.308,0.147c0.108,0,0.209-0.021,0.3-0.063c0.094-0.043,0.172-0.095,0.235-0.153
	c0.026-0.021,0.048-0.049,0.065-0.082c0.018-0.034,0.025-0.104,0.025-0.209V85.437z"/>
<path d="M406.6,87.249v-0.102c0.133,0,0.243-0.028,0.33-0.085c0.09-0.059,0.135-0.204,0.135-0.438v-3.212
	c0-0.161-0.02-0.265-0.06-0.311c-0.039-0.046-0.11-0.068-0.212-0.068c-0.044,0-0.107,0.004-0.193,0.013v-0.101
	c0.368-0.085,0.701-0.183,1-0.294l0.025,0.02v4.006c0,0.183,0.031,0.304,0.096,0.362c0.063,0.059,0.186,0.095,0.368,0.107v0.102
	H406.6z"/>
<path d="M408.458,87.249v-0.102c0.133,0,0.243-0.028,0.329-0.085c0.09-0.059,0.135-0.204,0.135-0.438v-3.212
	c0-0.161-0.02-0.265-0.059-0.311s-0.11-0.068-0.213-0.068c-0.043,0-0.107,0.004-0.192,0.013v-0.101
	c0.368-0.085,0.7-0.183,0.999-0.294l0.026,0.02v4.006c0,0.183,0.031,0.304,0.095,0.362c0.063,0.059,0.186,0.095,0.369,0.107v0.102
	H408.458z"/>
<path d="M414.469,86.213l0.098,0.059c-0.113,0.257-0.285,0.494-0.516,0.712c-0.229,0.218-0.505,0.327-0.829,0.327
	c-0.372,0-0.676-0.142-0.911-0.425c-0.234-0.283-0.353-0.639-0.353-1.067c0-0.479,0.143-0.875,0.428-1.188
	c0.285-0.315,0.644-0.474,1.077-0.474c0.26,0,0.49,0.065,0.692,0.196c0.204,0.128,0.307,0.292,0.307,0.492
	c0,0.099-0.03,0.174-0.091,0.226c-0.062,0.053-0.135,0.078-0.223,0.078c-0.106,0-0.19-0.061-0.251-0.183
	c-0.06-0.124-0.097-0.232-0.114-0.326c-0.012-0.055-0.041-0.116-0.088-0.187c-0.046-0.069-0.162-0.104-0.347-0.104
	c-0.226,0-0.429,0.104-0.606,0.311c-0.177,0.207-0.266,0.504-0.266,0.892c0,0.376,0.099,0.688,0.295,0.934
	c0.197,0.243,0.439,0.365,0.725,0.365c0.204,0,0.382-0.051,0.531-0.153C414.18,86.592,414.328,86.431,414.469,86.213z"/>
<path d="M415.821,84.679c0.271-0.349,0.602-0.522,0.988-0.522c0.301,0,0.559,0.129,0.773,0.386c0.219,0.257,0.328,0.608,0.328,1.054
	c0,0.453-0.131,0.853-0.393,1.198c-0.26,0.344-0.596,0.517-1.012,0.517c-0.262,0-0.49-0.104-0.686-0.313v1.09
	c0,0.225,0.042,0.368,0.127,0.431c0.085,0.062,0.238,0.092,0.461,0.092v0.102h-1.613V88.61c0.172-0.018,0.291-0.052,0.359-0.104
	c0.069-0.055,0.104-0.169,0.104-0.343v-3.177c0-0.176-0.021-0.281-0.064-0.316c-0.041-0.037-0.102-0.056-0.18-0.056
	c-0.063,0-0.127,0.002-0.193,0.007v-0.102c0.233-0.074,0.553-0.194,0.961-0.362l0.039,0.013V84.679z M415.821,86.665
	c0,0.08,0.068,0.175,0.205,0.283c0.139,0.109,0.299,0.164,0.48,0.164c0.243,0,0.441-0.11,0.594-0.33
	c0.154-0.22,0.232-0.541,0.232-0.963c0-0.349-0.072-0.645-0.213-0.889c-0.142-0.243-0.351-0.365-0.627-0.365
	c-0.148,0-0.289,0.045-0.424,0.134c-0.135,0.087-0.219,0.19-0.248,0.311V86.665z"/>
<path d="M418.299,87.249v-0.102c0.133,0,0.242-0.028,0.328-0.085c0.09-0.059,0.135-0.204,0.135-0.438v-3.212
	c0-0.161-0.02-0.265-0.059-0.311s-0.109-0.068-0.213-0.068c-0.043,0-0.107,0.004-0.191,0.013v-0.101
	c0.367-0.085,0.699-0.183,0.998-0.294l0.025,0.02v4.006c0,0.183,0.033,0.304,0.096,0.362s0.186,0.095,0.369,0.107v0.102H418.299z"/>
<path d="M420.303,86.213h0.104c0.064,0.324,0.164,0.563,0.305,0.715s0.33,0.229,0.568,0.229c0.146,0,0.273-0.043,0.377-0.13
	c0.107-0.087,0.16-0.204,0.16-0.35c0-0.159-0.063-0.287-0.189-0.386c-0.123-0.1-0.293-0.207-0.508-0.323
	c-0.301-0.16-0.512-0.317-0.635-0.47c-0.121-0.154-0.182-0.333-0.182-0.535c0-0.223,0.084-0.411,0.254-0.568
	c0.17-0.159,0.393-0.238,0.666-0.238c0.113,0,0.234,0.022,0.363,0.068c0.127,0.044,0.211,0.065,0.248,0.065
	c0.035,0,0.072-0.024,0.113-0.075h0.072l0.025,0.934h-0.098c-0.119-0.559-0.363-0.839-0.73-0.839c-0.166,0-0.291,0.047-0.375,0.141
	c-0.086,0.094-0.129,0.191-0.129,0.294c0,0.163,0.055,0.289,0.16,0.379c0.109,0.089,0.307,0.215,0.592,0.378
	c0.307,0.173,0.52,0.32,0.637,0.444c0.119,0.122,0.18,0.286,0.18,0.493c0,0.259-0.098,0.469-0.291,0.63
	c-0.191,0.161-0.42,0.242-0.686,0.242c-0.102,0-0.24-0.021-0.414-0.06c-0.176-0.041-0.293-0.062-0.354-0.062
	c-0.066,0-0.117,0.027-0.146,0.081h-0.088V86.213z"/>
<path d="M422.758,82.834l0.082-0.117c1.1,0.744,1.648,1.704,1.648,2.879c0,1.213-0.557,2.158-1.672,2.838l-0.059-0.104
	c0.455-0.361,0.76-0.75,0.914-1.166c0.156-0.418,0.234-0.924,0.234-1.518c0-0.754-0.092-1.343-0.277-1.767
	C423.446,83.455,423.155,83.107,422.758,82.834z"/>
<rect x="55.419" y="101.448" fill="none" stroke="#000000" stroke-width="0.4514" stroke-miterlimit="10" width="8.127" height="8.125"/>
<path d="M58.394,106.635c0.021,0.662,0.299,0.992,0.833,0.992c0.257,0,0.465-0.079,0.623-0.238c0.159-0.158,0.238-0.385,0.238-0.678
	c0-0.286-0.102-0.494-0.306-0.623c-0.201-0.133-0.535-0.199-1.004-0.199v-0.809h0.183c0.632,0,0.948-0.252,0.948-0.754
	c0-0.225-0.066-0.407-0.198-0.547c-0.132-0.144-0.316-0.215-0.552-0.215c-0.519,0-0.78,0.31-0.785,0.928h-1.031
	c0-0.568,0.162-1.016,0.487-1.344c0.328-0.331,0.791-0.496,1.389-0.496c0.548,0,0.992,0.141,1.333,0.42
	c0.342,0.281,0.512,0.667,0.512,1.158c0,0.516-0.236,0.895-0.71,1.135c0.593,0.244,0.889,0.691,0.889,1.342
	c0,0.537-0.183,0.977-0.547,1.32c-0.363,0.342-0.85,0.512-1.46,0.512c-0.641,0-1.123-0.161-1.448-0.483
	c-0.325-0.325-0.503-0.799-0.532-1.421H58.394z"/>
<path fill="none" stroke="#000000" stroke-width="0.4514" stroke-miterlimit="10" d="M63.306,146.937
	c0,2.242-1.818,4.062-4.063,4.062c-2.242,0-4.063-1.819-4.063-4.062c0-2.241,1.82-4.063,4.063-4.063
	C61.487,142.874,63.306,144.696,63.306,146.937L63.306,146.937z"/>
<path d="M58.208,148.068c0.021,0.661,0.299,0.991,0.833,0.991c0.257,0,0.465-0.078,0.623-0.237c0.159-0.159,0.238-0.386,0.238-0.679
	c0-0.285-0.102-0.493-0.306-0.623c-0.201-0.132-0.535-0.198-1.004-0.198v-0.81h0.183c0.632,0,0.948-0.251,0.948-0.754
	c0-0.225-0.066-0.406-0.198-0.547c-0.132-0.143-0.316-0.215-0.552-0.215c-0.519,0-0.78,0.311-0.785,0.929h-1.031
	c0-0.568,0.162-1.017,0.487-1.345c0.328-0.33,0.791-0.496,1.389-0.496c0.548,0,0.992,0.141,1.333,0.421
	c0.342,0.28,0.512,0.667,0.512,1.158c0,0.516-0.236,0.894-0.71,1.135c0.593,0.243,0.889,0.69,0.889,1.341
	c0,0.537-0.183,0.978-0.547,1.321c-0.363,0.341-0.85,0.512-1.46,0.512c-0.641,0-1.123-0.161-1.448-0.483
	c-0.325-0.326-0.503-0.799-0.532-1.421H58.208z"/>
<path fill="none" stroke="#000000" stroke-width="0.4514" stroke-miterlimit="10" d="M43.501,105.499
	c0,2.244-1.82,4.064-4.063,4.064s-4.063-1.82-4.063-4.064c0-2.241,1.82-4.061,4.063-4.061S43.501,103.257,43.501,105.499
	L43.501,105.499z"/>
<path d="M37.679,103.733c0.568,0,0.97-0.094,1.202-0.281s0.363-0.421,0.393-0.699h0.94v5.77h-1.139v-3.992h-1.396V103.733z"/>
<rect x="15.286" y="101.438" fill="none" stroke="#000000" stroke-width="0.4514" stroke-miterlimit="10" width="8.125" height="8.124"/>
<path d="M17.646,103.925c0.568,0,0.97-0.094,1.202-0.282c0.232-0.188,0.363-0.42,0.393-0.697h0.94v5.768h-1.139v-3.99h-1.396
	V103.925z"/>
<rect x="15.571" y="142.874" fill="none" stroke="#000000" stroke-width="0.4514" stroke-miterlimit="10" width="8.127" height="8.125"/>
<path d="M17.742,148.584c0.222-0.356,0.648-0.768,1.281-1.233c0.523-0.384,0.852-0.673,0.983-0.868
	c0.133-0.196,0.198-0.398,0.198-0.607c0-0.232-0.067-0.432-0.202-0.596c-0.132-0.166-0.332-0.25-0.599-0.25
	c-0.291,0-0.495,0.092-0.611,0.274s-0.175,0.451-0.175,0.806h-1.139v-0.167c0-0.503,0.158-0.938,0.473-1.31
	c0.317-0.369,0.789-0.555,1.416-0.555c0.55,0,1.018,0.156,1.4,0.468c0.384,0.31,0.575,0.754,0.575,1.333
	c0,0.395-0.095,0.738-0.285,1.031c-0.188,0.291-0.561,0.63-1.119,1.016c-0.61,0.424-0.975,0.727-1.091,0.908h2.495v1.012h-3.936
	C17.408,149.363,17.519,148.942,17.742,148.584z"/>
<path fill="none" stroke="#000000" stroke-width="0.4514" stroke-miterlimit="10" d="M43.262,146.936
	c0,2.244-1.82,4.063-4.063,4.063s-4.063-1.818-4.063-4.063c0-2.242,1.82-4.063,4.063-4.063S43.262,144.694,43.262,146.936
	L43.262,146.936z"/>
<path d="M37.48,148.698c0.222-0.357,0.648-0.769,1.281-1.234c0.523-0.383,0.852-0.673,0.983-0.869
	c0.133-0.195,0.198-0.397,0.198-0.606c0-0.233-0.067-0.431-0.202-0.595c-0.132-0.167-0.332-0.25-0.599-0.25
	c-0.291,0-0.495,0.091-0.611,0.273s-0.175,0.451-0.175,0.805h-1.139v-0.166c0-0.502,0.158-0.939,0.473-1.309
	c0.317-0.371,0.789-0.557,1.416-0.557c0.55,0,1.018,0.156,1.4,0.469c0.384,0.31,0.575,0.754,0.575,1.333
	c0,0.394-0.095,0.737-0.285,1.032c-0.188,0.291-0.561,0.629-1.119,1.016c-0.61,0.422-0.975,0.725-1.091,0.908h2.495v1.012h-3.936
	C37.146,149.475,37.257,149.055,37.48,148.698z"/>
<path d="M31.285,121.249c0.06,1.102,0.779,1.654,2.16,1.654c1.331,0,1.996-0.426,1.996-1.279c0-0.541-0.467-0.928-1.401-1.154
	l-2.468-0.629c-0.757-0.184-1.313-0.49-1.668-0.924c-0.355-0.432-0.533-1.01-0.533-1.729c0-0.922,0.33-1.674,0.991-2.256
	c0.661-0.584,1.615-0.875,2.864-0.875c1.148,0,2.069,0.279,2.762,0.84s1.075,1.375,1.148,2.441h-2.023
	c-0.15-1.031-0.82-1.545-2.01-1.545c-0.542,0-0.976,0.104-1.299,0.314c-0.319,0.209-0.479,0.496-0.479,0.861
	c0,0.264,0.082,0.484,0.246,0.662c0.169,0.178,0.438,0.313,0.807,0.404l2.447,0.602c1.007,0.24,1.697,0.58,2.071,1.018
	c0.378,0.438,0.567,1.01,0.567,1.717c0,0.971-0.347,1.758-1.039,2.365c-0.688,0.602-1.688,0.902-3.001,0.902
	c-1.226,0-2.227-0.287-3.001-0.861c-0.774-0.58-1.162-1.422-1.162-2.529H31.285z"/>
<path d="M44.847,118.711c-0.61-0.711-0.916-1.408-0.916-2.092c0-0.656,0.248-1.203,0.745-1.641c0.501-0.441,1.13-0.662,1.887-0.662
	c0.747,0,1.358,0.219,1.832,0.656c0.479,0.432,0.718,0.982,0.718,1.646c0,0.953-0.565,1.758-1.695,2.414l1.422,1.764
	c0.15-0.242,0.269-0.498,0.355-0.766c0.087-0.273,0.146-0.572,0.178-0.896h1.729c-0.077,0.697-0.23,1.309-0.458,1.832
	c-0.228,0.52-0.465,0.922-0.711,1.203l1.825,2.209h-2.379l-0.69-0.861c-0.378,0.359-0.793,0.637-1.244,0.834
	c-0.446,0.191-0.973,0.287-1.579,0.287c-0.911,0-1.668-0.27-2.27-0.807c-0.602-0.539-0.902-1.25-0.902-2.133
	C42.694,120.51,43.412,119.514,44.847,118.711z M45.838,119.963c-0.793,0.52-1.189,1.055-1.189,1.605
	c0,0.434,0.139,0.777,0.417,1.033c0.282,0.254,0.622,0.383,1.019,0.383c0.214,0,0.456-0.047,0.725-0.137
	c0.269-0.092,0.565-0.279,0.889-0.561L45.838,119.963z M46.46,117.864c0.638-0.404,0.957-0.822,0.957-1.25
	c0-0.27-0.073-0.471-0.219-0.602c-0.146-0.137-0.357-0.205-0.636-0.205c-0.237,0-0.438,0.068-0.602,0.205
	c-0.159,0.137-0.239,0.328-0.239,0.574C45.722,116.909,45.968,117.336,46.46,117.864z"/>
<path d="M25.125,128.317h2.085v8.299h5.031v1.764h-7.116V128.317z"/>
<path d="M33.486,128.317h2.085v10.063h-2.085V128.317z"/>
<path d="M37.471,128.317h2.215l4.02,6.992v-6.992h1.955v10.063h-2.085l-4.149-7.158v7.158h-1.955V128.317z"/>
<path d="M47.807,138.379v-10.063h2.085v4.088l3.855-4.088h2.707l-4.143,4.17l4.368,5.893h-2.707l-3.097-4.402l-0.984,0.984v3.418
	H47.807z"/>
<path d="M114.881,121.249c0.06,1.102,0.779,1.654,2.16,1.654c1.331,0,1.996-0.426,1.996-1.279c0-0.541-0.467-0.928-1.401-1.154
	l-2.468-0.629c-0.757-0.184-1.313-0.49-1.668-0.924c-0.355-0.432-0.533-1.01-0.533-1.729c0-0.922,0.33-1.674,0.991-2.256
	c0.661-0.584,1.615-0.875,2.864-0.875c1.148,0,2.069,0.279,2.762,0.84s1.075,1.375,1.148,2.441h-2.023
	c-0.15-1.031-0.82-1.545-2.01-1.545c-0.542,0-0.976,0.104-1.299,0.314c-0.319,0.209-0.479,0.496-0.479,0.861
	c0,0.264,0.082,0.484,0.246,0.662c0.169,0.178,0.438,0.313,0.807,0.404l2.447,0.602c1.007,0.24,1.697,0.58,2.071,1.018
	c0.378,0.438,0.567,1.01,0.567,1.717c0,0.971-0.347,1.758-1.039,2.365c-0.688,0.602-1.688,0.902-3.001,0.902
	c-1.226,0-2.227-0.287-3.001-0.861c-0.774-0.58-1.162-1.422-1.162-2.529H114.881z"/>
<path d="M128.444,118.711c-0.61-0.711-0.916-1.408-0.916-2.092c0-0.656,0.248-1.203,0.745-1.641c0.501-0.441,1.13-0.662,1.887-0.662
	c0.747,0,1.358,0.219,1.832,0.656c0.479,0.432,0.718,0.982,0.718,1.646c0,0.953-0.565,1.758-1.695,2.414l1.422,1.764
	c0.15-0.242,0.269-0.498,0.355-0.766c0.087-0.273,0.146-0.572,0.178-0.896h1.729c-0.077,0.697-0.23,1.309-0.458,1.832
	c-0.228,0.52-0.465,0.922-0.711,1.203l1.825,2.209h-2.379l-0.69-0.861c-0.378,0.359-0.793,0.637-1.244,0.834
	c-0.446,0.191-0.973,0.287-1.579,0.287c-0.911,0-1.668-0.27-2.27-0.807c-0.602-0.539-0.902-1.25-0.902-2.133
	C126.291,120.51,127.008,119.514,128.444,118.711z M129.435,119.963c-0.793,0.52-1.189,1.055-1.189,1.605
	c0,0.434,0.139,0.777,0.417,1.033c0.282,0.254,0.622,0.383,1.019,0.383c0.214,0,0.456-0.047,0.725-0.137
	c0.269-0.092,0.565-0.279,0.889-0.561L129.435,119.963z M130.057,117.864c0.638-0.404,0.957-0.822,0.957-1.25
	c0-0.27-0.073-0.471-0.219-0.602c-0.146-0.137-0.357-0.205-0.636-0.205c-0.237,0-0.438,0.068-0.602,0.205
	c-0.159,0.137-0.239,0.328-0.239,0.574C129.319,116.909,129.565,117.336,130.057,117.864z"/>
<path d="M108.722,128.317h2.085v8.299h5.031v1.764h-7.116V128.317z"/>
<path d="M117.083,128.317h2.085v10.063h-2.085V128.317z"/>
<path d="M121.068,128.317h2.215l4.02,6.992v-6.992h1.955v10.063h-2.085l-4.149-7.158v7.158h-1.955V128.317z"/>
<path d="M131.404,138.379v-10.063h2.085v4.088l3.855-4.088h2.707l-4.143,4.17l4.368,5.893h-2.707l-3.097-4.402l-0.984,0.984v3.418
	H131.404z"/>
<rect x="95.511" y="101.448" fill="none" stroke="#000000" stroke-width="0.4514" stroke-miterlimit="10" width="8.127" height="8.125"/>
<path d="M98.486,106.635c0.021,0.662,0.299,0.992,0.833,0.992c0.257,0,0.465-0.079,0.623-0.238c0.159-0.158,0.238-0.385,0.238-0.678
	c0-0.286-0.102-0.494-0.306-0.623c-0.201-0.133-0.535-0.199-1.004-0.199v-0.809h0.183c0.632,0,0.948-0.252,0.948-0.754
	c0-0.225-0.066-0.407-0.198-0.547c-0.132-0.144-0.316-0.215-0.552-0.215c-0.519,0-0.78,0.31-0.785,0.928h-1.031
	c0-0.568,0.162-1.016,0.487-1.344c0.328-0.331,0.791-0.496,1.389-0.496c0.548,0,0.992,0.141,1.333,0.42
	c0.342,0.281,0.512,0.667,0.512,1.158c0,0.516-0.236,0.895-0.71,1.135c0.593,0.244,0.889,0.691,0.889,1.342
	c0,0.537-0.183,0.977-0.547,1.32c-0.363,0.342-0.85,0.512-1.46,0.512c-0.641,0-1.123-0.161-1.448-0.483
	c-0.325-0.325-0.503-0.799-0.532-1.421H98.486z"/>
<path fill="none" stroke="#000000" stroke-width="0.4514" stroke-miterlimit="10" d="M103.637,146.937
	c0,2.242-1.818,4.062-4.063,4.062c-2.242,0-4.063-1.819-4.063-4.062c0-2.241,1.82-4.063,4.063-4.063
	C101.819,142.874,103.637,144.696,103.637,146.937L103.637,146.937z"/>
<path d="M98.54,148.068c0.021,0.661,0.299,0.991,0.833,0.991c0.257,0,0.465-0.078,0.623-0.237c0.159-0.159,0.238-0.386,0.238-0.679
	c0-0.285-0.102-0.493-0.306-0.623c-0.201-0.132-0.535-0.198-1.004-0.198v-0.81h0.183c0.632,0,0.948-0.251,0.948-0.754
	c0-0.225-0.066-0.406-0.198-0.547c-0.132-0.143-0.316-0.215-0.552-0.215c-0.519,0-0.78,0.311-0.785,0.929h-1.031
	c0-0.568,0.162-1.017,0.487-1.345c0.328-0.33,0.791-0.496,1.389-0.496c0.548,0,0.992,0.141,1.333,0.421
	c0.342,0.28,0.512,0.667,0.512,1.158c0,0.516-0.236,0.894-0.71,1.135c0.593,0.243,0.889,0.69,0.889,1.341
	c0,0.537-0.183,0.978-0.547,1.321c-0.363,0.341-0.85,0.512-1.46,0.512c-0.641,0-1.123-0.161-1.448-0.483
	c-0.325-0.326-0.503-0.799-0.532-1.421H98.54z"/>
<path fill="none" stroke="#000000" stroke-width="0.4514" stroke-miterlimit="10" d="M152.17,125.7c0,2.243-1.82,4.063-4.063,4.063
	s-4.063-1.819-4.063-4.063c0-2.242,1.82-4.063,4.063-4.063S152.17,123.458,152.17,125.7L152.17,125.7z"/>
<path d="M146.349,123.933c0.568,0,0.97-0.094,1.202-0.282c0.232-0.188,0.363-0.42,0.393-0.697h0.94v5.768h-1.139v-3.99h-1.396
	V123.933z"/>
<rect x="144.045" y="101.438" fill="none" stroke="#000000" stroke-width="0.4514" stroke-miterlimit="10" width="8.125" height="8.124"/>
<path d="M146.405,103.925c0.568,0,0.97-0.094,1.202-0.282c0.232-0.188,0.363-0.42,0.393-0.697h0.94v5.768h-1.139v-3.99h-1.396
	V103.925z"/>
<rect x="144.044" y="142.88" fill="none" stroke="#000000" stroke-width="0.4514" stroke-miterlimit="10" width="8.127" height="8.125"/>
<path d="M146.215,148.591c0.222-0.356,0.648-0.769,1.281-1.233c0.523-0.384,0.852-0.674,0.983-0.869
	c0.133-0.195,0.198-0.398,0.198-0.607c0-0.232-0.067-0.431-0.202-0.595c-0.132-0.167-0.332-0.25-0.599-0.25
	c-0.291,0-0.495,0.091-0.611,0.274c-0.116,0.182-0.175,0.451-0.175,0.805h-1.139v-0.166c0-0.503,0.158-0.939,0.473-1.31
	c0.317-0.37,0.789-0.556,1.416-0.556c0.55,0,1.018,0.156,1.4,0.469c0.384,0.309,0.575,0.754,0.575,1.332
	c0,0.395-0.095,0.738-0.285,1.032c-0.188,0.291-0.561,0.63-1.119,1.016c-0.61,0.423-0.975,0.726-1.091,0.908h2.495v1.012h-3.936
	C145.881,149.37,145.992,148.949,146.215,148.591z"/>
<path fill="none" stroke="#000000" stroke-width="0.4514" stroke-miterlimit="10" d="M103.637,125.698
	c0,2.244-1.82,4.064-4.063,4.064s-4.063-1.82-4.063-4.064c0-2.242,1.82-4.061,4.063-4.061S103.637,123.456,103.637,125.698
	L103.637,125.698z"/>
<path d="M97.855,127.459c0.222-0.356,0.648-0.768,1.281-1.233c0.523-0.384,0.852-0.673,0.983-0.868
	c0.133-0.196,0.198-0.398,0.198-0.607c0-0.232-0.067-0.432-0.202-0.596c-0.132-0.166-0.332-0.25-0.599-0.25
	c-0.291,0-0.495,0.092-0.611,0.274s-0.175,0.451-0.175,0.806h-1.139v-0.167c0-0.503,0.158-0.938,0.473-1.31
	c0.317-0.369,0.789-0.555,1.416-0.555c0.55,0,1.018,0.156,1.4,0.468c0.384,0.31,0.575,0.754,0.575,1.333
	c0,0.395-0.095,0.738-0.285,1.031c-0.188,0.291-0.561,0.63-1.119,1.016c-0.61,0.424-0.975,0.727-1.091,0.908h2.495v1.012h-3.936
	C97.521,128.238,97.633,127.817,97.855,127.459z"/>
<path d="M176.153,108.796c0.021,0.661,0.299,0.991,0.833,0.991c0.257,0,0.465-0.078,0.623-0.237
	c0.159-0.159,0.238-0.386,0.238-0.679c0-0.285-0.102-0.493-0.306-0.623c-0.201-0.132-0.535-0.198-1.004-0.198v-0.81h0.183
	c0.632,0,0.948-0.251,0.948-0.754c0-0.225-0.066-0.406-0.198-0.547c-0.132-0.143-0.316-0.215-0.552-0.215
	c-0.519,0-0.78,0.311-0.785,0.929h-1.031c0-0.568,0.162-1.017,0.487-1.345c0.328-0.33,0.791-0.496,1.389-0.496
	c0.548,0,0.992,0.141,1.333,0.421c0.342,0.28,0.512,0.667,0.512,1.158c0,0.516-0.236,0.894-0.71,1.135
	c0.593,0.243,0.889,0.69,0.889,1.341c0,0.537-0.183,0.978-0.547,1.321c-0.363,0.341-0.85,0.512-1.46,0.512
	c-0.641,0-1.123-0.161-1.448-0.483c-0.325-0.326-0.503-0.799-0.532-1.421H176.153z"/>
<path d="M176.153,142.42c0.021,0.661,0.299,0.992,0.833,0.992c0.257,0,0.465-0.08,0.623-0.238c0.159-0.158,0.238-0.385,0.238-0.679
	c0-0.286-0.102-0.493-0.306-0.622c-0.201-0.133-0.535-0.199-1.004-0.199v-0.809h0.183c0.632,0,0.948-0.252,0.948-0.754
	c0-0.225-0.066-0.408-0.198-0.548c-0.132-0.144-0.316-0.214-0.552-0.214c-0.519,0-0.78,0.309-0.785,0.928h-1.031
	c0-0.568,0.162-1.017,0.487-1.345c0.328-0.331,0.791-0.496,1.389-0.496c0.548,0,0.992,0.141,1.333,0.421
	c0.342,0.28,0.512,0.666,0.512,1.158c0,0.516-0.236,0.895-0.71,1.135c0.593,0.243,0.889,0.69,0.889,1.341
	c0,0.537-0.183,0.978-0.547,1.321c-0.363,0.341-0.85,0.512-1.46,0.512c-0.641,0-1.123-0.162-1.448-0.484
	c-0.325-0.325-0.503-0.799-0.532-1.42H176.153z"/>
<path fill="none" stroke="#000000" stroke-width="0.4514" stroke-miterlimit="10" d="M198.036,107.713
	c0,2.244-1.82,4.063-4.063,4.063s-4.063-1.818-4.063-4.063c0-2.242,1.82-4.063,4.063-4.063S198.036,105.471,198.036,107.713
	L198.036,107.713z"/>
<path d="M192.254,109.475c0.222-0.357,0.648-0.769,1.281-1.234c0.523-0.383,0.852-0.673,0.983-0.869
	c0.133-0.195,0.198-0.397,0.198-0.606c0-0.233-0.067-0.431-0.202-0.595c-0.132-0.167-0.332-0.25-0.599-0.25
	c-0.291,0-0.495,0.091-0.611,0.273s-0.175,0.451-0.175,0.805h-1.139v-0.166c0-0.502,0.158-0.939,0.473-1.309
	c0.317-0.371,0.789-0.557,1.416-0.557c0.55,0,1.018,0.156,1.4,0.469c0.384,0.31,0.575,0.754,0.575,1.333
	c0,0.394-0.095,0.737-0.285,1.032c-0.188,0.291-0.561,0.629-1.119,1.016c-0.61,0.422-0.975,0.725-1.091,0.908h2.495v1.012h-3.936
	C191.92,110.252,192.031,109.833,192.254,109.475z"/>
<rect x="208.674" y="103.651" fill="none" stroke="#000000" stroke-width="0.4514" stroke-miterlimit="10" width="8.127" height="8.125"/>
<path d="M210.845,109.362c0.222-0.356,0.648-0.768,1.281-1.233c0.523-0.384,0.852-0.673,0.983-0.868
	c0.133-0.196,0.198-0.398,0.198-0.607c0-0.232-0.067-0.432-0.202-0.596c-0.132-0.166-0.332-0.25-0.599-0.25
	c-0.291,0-0.495,0.092-0.611,0.274s-0.175,0.451-0.175,0.806h-1.139v-0.167c0-0.503,0.158-0.938,0.473-1.31
	c0.317-0.369,0.789-0.555,1.416-0.555c0.55,0,1.018,0.156,1.4,0.468c0.384,0.31,0.575,0.754,0.575,1.333
	c0,0.395-0.095,0.738-0.285,1.031c-0.188,0.291-0.561,0.63-1.119,1.016c-0.61,0.424-0.975,0.727-1.091,0.908h2.495v1.012h-3.936
	C210.511,110.14,210.622,109.719,210.845,109.362z"/>
<path fill="none" stroke="#000000" stroke-width="0.4514" stroke-miterlimit="10" d="M198.036,142.135
	c0,2.244-1.82,4.064-4.063,4.064s-4.063-1.82-4.063-4.064c0-2.241,1.82-4.061,4.063-4.061S198.036,139.894,198.036,142.135
	L198.036,142.135z"/>
<path d="M192.214,140.37c0.568,0,0.97-0.094,1.202-0.281s0.363-0.421,0.393-0.699h0.94v5.77h-1.139v-3.992h-1.396V140.37z"/>
<rect x="208.675" y="138.075" fill="none" stroke="#000000" stroke-width="0.4514" stroke-miterlimit="10" width="8.125" height="8.125"/>
<path d="M211.035,140.563c0.568,0,0.97-0.094,1.202-0.282c0.232-0.188,0.363-0.421,0.393-0.698h0.94v5.769h-1.139v-3.991h-1.396
	V140.563z"/>
</svg>
