<?xml version="1.0" standalone="no"?>
<!DOCTYPE svg PUBLIC "-//W3C//DTD SVG 1.1//EN"
"http://www.w3.org/Graphics/SVG/1.1/DTD/svg11.dtd">
<!-- Creator: fig2dev Version 3.2 Patchlevel 5d -->
<!-- CreationDate: Thu Feb 21 11:06:28 2013 -->
<!-- Magnification: 1.050 -->
<svg	xmlns="http://www.w3.org/2000/svg"
	xmlns:xlink="http://www.w3.org/1999/xlink"
	viewBox="-23 -23 6140 2597">
<g style="stroke-width:.025in; fill:none">
<!-- Text -->
<text xml:space="preserve" x="6047" y="283" fill="#000000"  font-family="Helvetica" font-style="normal" font-weight="normal" font-size="227" text-anchor="end">J8x32</text>
<!-- Text -->
<text xml:space="preserve" x="614" y="1937" fill="#000000"  font-family="Helvetica" font-style="normal" font-weight="bold" font-size="114" text-anchor="middle">1</text>
<!-- Line: box -->
<rect x="755" y="2031" width="188" height="188" rx="0" 
style="stroke:#000000;stroke-width:16;
stroke-linejoin:miter; stroke-linecap:butt;
"/>
<!-- Text -->
<text xml:space="preserve" x="850" y="2173" fill="#000000"  font-family="Helvetica" font-style="normal" font-weight="bold" font-size="114" text-anchor="middle">1</text>
<!-- Line: box -->
<rect x="283" y="1559" width="188" height="188" rx="0" 
style="stroke:#000000;stroke-width:16;
stroke-linejoin:miter; stroke-linecap:butt;
"/>
<!-- Text -->
<text xml:space="preserve" x="377" y="1700" fill="#000000"  font-family="Helvetica" font-style="normal" font-weight="bold" font-size="114" text-anchor="middle">2</text>
<!-- Circle -->
<circle cx="1086" cy="2362" r="94"
 style="stroke:#000000;stroke-width:16;"/>
<!-- Text -->
<text xml:space="preserve" x="1086" y="2409" fill="#000000"  font-family="Helvetica" font-style="normal" font-weight="bold" font-size="114" text-anchor="middle">3</text>
<!-- Line -->
<polyline points="543,1821
472,1748
" style="stroke:#000000;stroke-width:16;
stroke-linejoin:miter; stroke-linecap:round;
"/>
<!-- Line -->
<polyline points="1016,2293
944,2220
" style="stroke:#000000;stroke-width:16;
stroke-linejoin:miter; stroke-linecap:round;
"/>
<!-- Line -->
<polyline points="755,2031
684,1962
" style="stroke:#000000;stroke-width:16;
stroke-linejoin:miter; stroke-linecap:round;
"/>
<!-- Line -->
<polyline points="729,2244
755,2220
" style="stroke:#000000;stroke-width:16;
stroke-linejoin:miter; stroke-linecap:round;
"/>
<!-- Line -->
<polyline points="257,1772
283,1748
" style="stroke:#000000;stroke-width:16;
stroke-linejoin:miter; stroke-linecap:round;
"/>
<!-- Line -->
<polyline points="682,1819
708,1795
" style="stroke:#000000;stroke-width:16;
stroke-linejoin:miter; stroke-linecap:round;
"/>
<!-- Line -->
<polyline points="1154,2291
1181,2267
" style="stroke:#000000;stroke-width:16;
stroke-linejoin:miter; stroke-linecap:round;
"/>
<!-- Text -->
<text xml:space="preserve" x="519" y="2362" fill="#000000"  font-family="Helvetica" font-style="normal" font-weight="bold" font-size="227" text-anchor="middle">B</text>
<!-- Text -->
<text xml:space="preserve" x="3732" y="1039" fill="#000000"  font-family="Helvetica" font-style="normal" font-weight="bold" font-size="227" text-anchor="middle">T</text>
<!-- Text -->
<text xml:space="preserve" x="3779" y="1086" fill="#000000"  font-family="Helvetica" font-style="normal" font-weight="bold" font-size="152" text-anchor="start">R</text>
<!-- Line -->
<polyline points="3968,1086
4062,897
" style="stroke:#000000;stroke-width:8;
stroke-linejoin:miter; stroke-linecap:round;
"/>
<!-- Text -->
<text xml:space="preserve" x="3968" y="992" fill="#000000"  font-family="Helvetica" font-style="normal" font-weight="bold" font-size="114" text-anchor="middle">1</text>
<!-- Text -->
<text xml:space="preserve" x="4062" y="1086" fill="#000000"  font-family="Helvetica" font-style="normal" font-weight="bold" font-size="114" text-anchor="middle">2</text>
<!-- Line -->
<polyline points="3826,755
4157,755
4157,1086
" style="stroke:#000000;stroke-width:16;
stroke-linejoin:miter; stroke-linecap:butt;
"/>
<!-- Line: box -->
<rect x="3165" y="472" width="188" height="188" rx="0" 
style="stroke:#000000;stroke-width:16;
stroke-linejoin:miter; stroke-linecap:butt;
"/>
<!-- Text -->
<text xml:space="preserve" x="3259" y="614" fill="#000000"  font-family="Helvetica" font-style="normal" font-weight="bold" font-size="114" text-anchor="middle">3</text>
<!-- Circle -->
<circle cx="3023" cy="803" r="94"
 style="stroke:#000000;stroke-width:16;"/>
<!-- Text -->
<text xml:space="preserve" x="3023" y="850" fill="#000000"  font-family="Helvetica" font-style="normal" font-weight="bold" font-size="114" text-anchor="middle">1</text>
<!-- Line: box -->
<rect x="2692" y="944" width="188" height="188" rx="0" 
style="stroke:#000000;stroke-width:16;
stroke-linejoin:miter; stroke-linecap:butt;
"/>
<!-- Text -->
<text xml:space="preserve" x="2787" y="1086" fill="#000000"  font-family="Helvetica" font-style="normal" font-weight="bold" font-size="114" text-anchor="middle">1</text>
<!-- Circle -->
<circle cx="2551" cy="1275" r="94"
 style="stroke:#000000;stroke-width:16;"/>
<!-- Text -->
<text xml:space="preserve" x="2551" y="1322" fill="#000000"  font-family="Helvetica" font-style="normal" font-weight="bold" font-size="114" text-anchor="middle">2</text>
<!-- Line -->
<polyline points="2955,873
2881,944
" style="stroke:#000000;stroke-width:16;
stroke-linejoin:miter; stroke-linecap:round;
"/>
<!-- Line -->
<polyline points="3165,661
3096,732
" style="stroke:#000000;stroke-width:16;
stroke-linejoin:miter; stroke-linecap:round;
"/>
<!-- Line -->
<polyline points="2692,1133
2623,1205
" style="stroke:#000000;stroke-width:16;
stroke-linejoin:miter; stroke-linecap:round;
"/>
<!-- Line -->
<polyline points="2953,734
2929,708
" style="stroke:#000000;stroke-width:16;
stroke-linejoin:miter; stroke-linecap:round;
"/>
<!-- Line -->
<polyline points="2480,1207
2456,1181
" style="stroke:#000000;stroke-width:16;
stroke-linejoin:miter; stroke-linecap:round;
"/>
<!-- Line -->
<polyline points="2906,1160
2881,1133
" style="stroke:#000000;stroke-width:16;
stroke-linejoin:miter; stroke-linecap:round;
"/>
<!-- Line -->
<polyline points="3378,687
3354,661
" style="stroke:#000000;stroke-width:16;
stroke-linejoin:miter; stroke-linecap:round;
"/>
<!-- Text -->
<text xml:space="preserve" x="3118" y="1275" fill="#000000"  font-family="Helvetica" font-style="normal" font-weight="bold" font-size="227" text-anchor="middle">B</text>
<!-- Text -->
<text xml:space="preserve" x="1795" y="1039" fill="#000000"  font-family="Helvetica" font-style="normal" font-weight="bold" font-size="227" text-anchor="middle">T</text>
<!-- Text -->
<text xml:space="preserve" x="1937" y="1086" fill="#000000"  font-family="Helvetica" font-style="normal" font-weight="bold" font-size="152" text-anchor="middle">L</text>
<!-- Arc -->
<path style="stroke:#000000;stroke-width:16;stroke-linecap:butt;"
d="M 1370,944 A 94 94  0  0  1  1559  944 " />
<!-- Arrowhead on XXXpoint 1552 910 - 1559 944-->
<polygon points="1521 913
1558 939
1583 902
1521 913

" style="stroke:#000000;stroke-width:8;stroke-miterlimit:8;
fill:#000000;"/>
<!-- Text -->
<text xml:space="preserve" x="1464" y="992" fill="#000000"  font-family="Helvetica" font-style="normal" font-weight="bold" font-size="114" text-anchor="middle">1</text>
<!-- Text -->
<text xml:space="preserve" x="708" y="1039" fill="#000000"  font-family="Helvetica" font-style="normal" font-weight="bold" font-size="227" text-anchor="middle">X</text>
<!-- Text -->
<text xml:space="preserve" x="850" y="1086" fill="#000000"  font-family="Helvetica" font-style="normal" font-weight="bold" font-size="152" text-anchor="middle"> R</text>
<!-- Line -->
<polyline points="5338,1653
5244,1653
" style="stroke:#000000;stroke-width:8;
stroke-linejoin:miter; stroke-linecap:butt;
"/>
<!-- Line -->
<polyline points="5716,1653
5622,1653
" style="stroke:#000000;stroke-width:8;
stroke-linejoin:miter; stroke-linecap:butt;
"/>
<!-- Text -->
<text xml:space="preserve" x="5480" y="1700" fill="#000000"  font-family="Helvetica" font-style="normal" font-weight="bold" font-size="114" text-anchor="middle">213</text>
<!-- Text -->
<text xml:space="preserve" x="5527" y="2125" fill="#000000"  font-family="Helvetica" font-style="normal" font-weight="bold" font-size="227" text-anchor="middle">X</text>
<!-- Text -->
<text xml:space="preserve" x="5669" y="2173" fill="#000000"  font-family="Helvetica" font-style="normal" font-weight="bold" font-size="152" text-anchor="middle"> R</text>
<!-- Text -->
<text xml:space="preserve" x="5291" y="2125" fill="#000000"  font-family="Helvetica" font-style="normal" font-weight="bold" font-size="227" text-anchor="middle">S</text>
<!-- Text -->
<text xml:space="preserve" x="1464" y="2125" fill="#000000"  font-family="Helvetica" font-style="normal" font-weight="bold" font-size="227" text-anchor="middle">T</text>
<!-- Text -->
<text xml:space="preserve" x="1511" y="2173" fill="#000000"  font-family="Helvetica" font-style="normal" font-weight="bold" font-size="152" text-anchor="start">L</text>
<!-- Line -->
<polyline points="1700,2173
1795,1984
" style="stroke:#000000;stroke-width:8;
stroke-linejoin:miter; stroke-linecap:round;
"/>
<!-- Text -->
<text xml:space="preserve" x="1700" y="2078" fill="#000000"  font-family="Helvetica" font-style="normal" font-weight="bold" font-size="114" text-anchor="middle">1</text>
<!-- Text -->
<text xml:space="preserve" x="1795" y="2173" fill="#000000"  font-family="Helvetica" font-style="normal" font-weight="bold" font-size="114" text-anchor="middle">2</text>
<!-- Line -->
<polyline points="1653,1842
1322,1842
1322,2173
" style="stroke:#000000;stroke-width:16;
stroke-linejoin:miter; stroke-linecap:butt;
"/>
<!-- Line -->
<polyline points="3496,1700
3493,1701
3489,1703
3483,1709
3477,1715
3470,1723
3465,1735
3462,1749
3459,1765
3457,1787
3455,1801
3454,1817
3454,1834
3453,1851
3451,1871
3451,1892
3450,1914
3450,1938
3450,1961
3450,1983
3450,2006
3451,2028
3451,2049
3453,2069
3454,2087
3454,2103
3455,2119
3457,2134
3459,2155
3462,2172
3465,2185
3470,2197
3477,2205
3483,2212
3489,2217
3493,2219
3496,2220
" style="stroke:#000000;stroke-width:16;
stroke-linejoin:bevel; stroke-linecap:round;
"/>
<!-- Line -->
<polyline points="3826,1700
3828,1701
3833,1703
3839,1709
3845,1715
3851,1723
3857,1735
3860,1749
3863,1765
3866,1787
3867,1801
3868,1817
3868,1834
3869,1851
3870,1871
3870,1892
3871,1914
3871,1938
3871,1961
3871,1983
3871,2006
3870,2028
3870,2049
3869,2069
3868,2087
3868,2103
3867,2119
3866,2134
3863,2155
3860,2172
3857,2185
3851,2197
3845,2205
3839,2212
3833,2217
3828,2219
3826,2220
" style="stroke:#000000;stroke-width:16;
stroke-linejoin:bevel; stroke-linecap:round;
"/>
<!-- Text -->
<text xml:space="preserve" x="3543" y="1889" fill="#000000"  font-family="Helvetica" font-style="normal" font-weight="normal" font-size="126" text-anchor="start">to</text>
<!-- Text -->
<text xml:space="preserve" x="3543" y="2125" fill="#000000"  font-family="Helvetica" font-style="normal" font-weight="bold" font-size="114" text-anchor="start">213</text>
<!-- Circle -->
<circle cx="4606" cy="1748" r="118"
 style="stroke:#000000;stroke-width:16;"/>
<!-- Circle -->
<circle cx="4370" cy="1748" r="118"
 style="stroke:#000000;stroke-width:16;"/>
<!-- Line -->
<polyline points="4771,1748
4204,1748
" style="stroke:#000000;stroke-width:16;
stroke-linejoin:miter; stroke-linecap:butt;
"/>
<!-- Line -->
<polyline points="4535,1842
4629,1937
" style="stroke:#000000;stroke-width:16;
stroke-linejoin:miter; stroke-linecap:butt;
"/>
<!-- Circle -->
<circle cx="4369" cy="2220" r="118"
 style="stroke:#000000;stroke-width:16;"/>
<!-- Circle -->
<circle cx="4605" cy="2220" r="118"
 style="stroke:#000000;stroke-width:16;"/>
<!-- Line -->
<polyline points="4204,2220
4771,2220
" style="stroke:#000000;stroke-width:16;
stroke-linejoin:miter; stroke-linecap:butt;
"/>
<!-- Line -->
<polyline points="4440,2125
4346,2031
" style="stroke:#000000;stroke-width:16;
stroke-linejoin:miter; stroke-linecap:butt;
"/>
<!-- Circle -->
<circle cx="4866" cy="1748" r="47"
 style="stroke:#000000;stroke-width:8;"/>
<!-- Circle -->
<circle cx="4868" cy="1746" r="18"
 style="fill:#000000;stroke:#000000;stroke-width:8;"/>
<!-- Line: box -->
<rect x="4724" y="1086" width="188" height="188" rx="0" 
style="stroke:#000000;stroke-width:16;
stroke-linejoin:miter; stroke-linecap:butt;
"/>
<!-- Text -->
<text xml:space="preserve" x="4818" y="1228" fill="#000000"  font-family="Helvetica" font-style="normal" font-weight="bold" font-size="114" text-anchor="middle">1</text>
<!-- Circle -->
<circle cx="5007" cy="992" r="94"
 style="stroke:#000000;stroke-width:16;"/>
<!-- Text -->
<text xml:space="preserve" x="5007" y="1039" fill="#000000"  font-family="Helvetica" font-style="normal" font-weight="bold" font-size="114" text-anchor="middle">2</text>
<!-- Line -->
<polyline points="4913,1086
4935,1062
" style="stroke:#000000;stroke-width:16;
stroke-linejoin:miter; stroke-linecap:round;
"/>
<!-- Line: box -->
<rect x="5291" y="708" width="188" height="188" rx="0" 
style="stroke:#000000;stroke-width:16;
stroke-linejoin:miter; stroke-linecap:butt;
"/>
<!-- Text -->
<text xml:space="preserve" x="5385" y="850" fill="#000000"  font-family="Helvetica" font-style="normal" font-weight="bold" font-size="114" text-anchor="middle">3</text>
<!-- Circle -->
<circle cx="5574" cy="614" r="94"
 style="stroke:#000000;stroke-width:16;"/>
<!-- Text -->
<text xml:space="preserve" x="5574" y="661" fill="#000000"  font-family="Helvetica" font-style="normal" font-weight="bold" font-size="114" text-anchor="middle">1</text>
<!-- Line -->
<polyline points="5480,708
5502,684
" style="stroke:#000000;stroke-width:16;
stroke-linejoin:miter; stroke-linecap:round;
"/>
<!-- Line -->
<polyline points="5669,708
5669,709
5672,713
5677,723
5686,739
5696,758
5708,779
5717,798
5725,818
5733,838
5739,857
5743,876
5748,897
5750,914
5753,932
5754,951
5755,972
5756,993
5756,1015
5756,1038
5755,1060
5753,1083
5750,1105
5746,1126
5741,1146
5736,1165
5731,1183
5723,1197
5716,1212
5707,1227
5695,1240
5682,1252
5668,1262
5653,1273
5636,1281
5619,1289
5603,1295
5585,1300
5569,1304
5553,1308
5538,1311
5524,1313
5511,1315
5495,1316
5479,1318
5464,1319
5448,1320
5434,1320
5419,1320
5404,1319
5391,1318
5376,1316
5362,1315
5349,1313
5335,1310
5319,1307
5303,1302
5287,1297
5270,1291
5253,1283
5237,1275
5223,1265
5210,1254
5198,1241
5189,1228
5182,1216
5176,1204
5172,1189
5168,1173
5164,1153
5161,1132
5159,1107
5155,1081
5154,1051
5152,1023
5151,997
5150,975
5150,1006
" style="stroke:#000000;stroke-width:16;
stroke-linejoin:bevel; stroke-linecap:butt;
"/>
<!-- Arrowhead on XXXpoint 5150 975 - 5147 913-->
<polygon points="5182 983
5147 922
5119 986
5182 983

" style="stroke:#000000;stroke-width:8;stroke-miterlimit:8;
fill:#000000;"/>
<!-- Line -->
<polyline points="5433,1322
5022,1280
" style="stroke:#000000;stroke-width:16;
stroke-linejoin:bevel; stroke-linecap:butt;
stroke-dasharray:20 20;"/>
<!-- Arrowhead on XXXpoint 5433 1322 - 4929 1272-->
<polygon points="5003 1248
4938 1273
4997 1310
5003 1248

" style="stroke:#000000;stroke-width:8;stroke-miterlimit:8;
fill:#000000;"/>
<!-- Line -->
<polyline points="4724,1086
4724,1085
4721,1081
4716,1071
4707,1056
4697,1037
4685,1016
4676,996
4667,976
4660,956
4654,937
4649,918
4645,897
4643,880
4640,862
4639,844
4638,823
4637,802
4637,780
4637,756
4638,734
4640,711
4643,689
4646,668
4651,648
4657,629
4662,612
4669,597
4677,582
4686,567
4698,554
4710,542
4725,532
4740,521
4756,513
4773,506
4790,499
4808,494
4824,490
4839,487
4855,483
4869,481
4881,480
4898,478
4914,476
4929,475
4944,474
4959,474
4974,474
4988,475
5002,476
5017,478
5032,480
5044,481
5058,485
5074,488
5089,492
5106,497
5123,503
5140,511
5155,519
5170,530
5183,540
5194,553
5205,566
5211,578
5216,591
5220,605
5225,621
5229,641
5232,662
5234,687
5237,713
5238,743
5240,771
5241,797
5243,819
5241,787
" style="stroke:#000000;stroke-width:16;
stroke-linejoin:bevel; stroke-linecap:butt;
stroke-dasharray:20 20;"/>
<!-- Arrowhead on XXXpoint 5243 819 - 5245 880-->
<polygon points="5210 809
5245 871
5273 807
5210 809

" style="stroke:#000000;stroke-width:8;stroke-miterlimit:8;
fill:#000000;"/>
<!-- Line -->
<polyline points="4960,472
5370,513
" style="stroke:#000000;stroke-width:16;
stroke-linejoin:bevel; stroke-linecap:butt;
"/>
<!-- Arrowhead on XXXpoint 4960 472 - 5463 521-->
<polygon points="5387 544
5454 520
5394 482
5387 544

" style="stroke:#000000;stroke-width:8;stroke-miterlimit:8;
fill:#000000;"/>
<!-- Text -->
<text xml:space="preserve" x="4818" y="661" fill="#000000"  font-family="Helvetica" font-style="normal" font-weight="bold" font-size="114" text-anchor="middle">2</text>
<!-- Text -->
<text xml:space="preserve" x="5574" y="1228" fill="#000000"  font-family="Helvetica" font-style="normal" font-weight="bold" font-size="114" text-anchor="middle">3</text>
<!-- Circle -->
<circle cx="2881" cy="2078" r="94"
 style="stroke:#000000;stroke-width:16;"/>
<!-- Text -->
<text xml:space="preserve" x="2881" y="2125" fill="#000000"  font-family="Helvetica" font-style="normal" font-weight="bold" font-size="114" text-anchor="middle">3</text>
<!-- Line: box -->
<rect x="2409" y="1795" width="188" height="188" rx="0" 
style="stroke:#000000;stroke-width:16;
stroke-linejoin:miter; stroke-linecap:butt;
"/>
<!-- Text -->
<text xml:space="preserve" x="2503" y="1937" fill="#000000"  font-family="Helvetica" font-style="normal" font-weight="bold" font-size="114" text-anchor="middle">2</text>
<!-- Circle -->
<circle cx="2314" cy="1700" r="94"
 style="stroke:#000000;stroke-width:16;"/>
<!-- Text -->
<text xml:space="preserve" x="2314" y="1748" fill="#000000"  font-family="Helvetica" font-style="normal" font-weight="bold" font-size="114" text-anchor="middle">1</text>
<!-- Line: box -->
<rect x="2976" y="2173" width="188" height="188" rx="0" 
style="stroke:#000000;stroke-width:16;
stroke-linejoin:miter; stroke-linecap:butt;
"/>
<!-- Text -->
<text xml:space="preserve" x="3070" y="2314" fill="#000000"  font-family="Helvetica" font-style="normal" font-weight="bold" font-size="114" text-anchor="middle">1</text>
<!-- Line -->
<polyline points="2952,2146
2976,2173
" style="stroke:#000000;stroke-width:16;
stroke-linejoin:miter; stroke-linecap:round;
"/>
<!-- Line -->
<polyline points="2385,1769
2409,1795
" style="stroke:#000000;stroke-width:16;
stroke-linejoin:miter; stroke-linecap:round;
"/>
<!-- Line -->
<polyline points="2929,1559
2518,1600
" style="stroke:#000000;stroke-width:16;
stroke-linejoin:bevel; stroke-linecap:butt;
"/>
<!-- Arrowhead on XXXpoint 2929 1559 - 2425 1608-->
<polygon points="2493 1569
2434 1607
2499 1632
2493 1569

" style="stroke:#000000;stroke-width:8;stroke-miterlimit:8;
fill:#000000;"/>
<!-- Line -->
<polyline points="3165,2173
3165,2172
3168,2167
3173,2158
3182,2142
3192,2123
3204,2102
3213,2082
3222,2062
3229,2043
3235,2024
3239,2005
3244,1984
3246,1967
3249,1949
3250,1930
3251,1909
3252,1888
3252,1866
3252,1843
3251,1821
3249,1798
3246,1776
3243,1755
3237,1735
3232,1716
3227,1698
3219,1683
3212,1669
3203,1654
3191,1640
3179,1629
3164,1618
3149,1608
3132,1600
3116,1592
3099,1586
3081,1581
3065,1576
3049,1573
3034,1570
3020,1568
3007,1567
2991,1565
2975,1563
2960,1562
2944,1561
2930,1561
2915,1561
2900,1562
2887,1563
2872,1565
2858,1567
2845,1568
2831,1571
2815,1574
2800,1579
2783,1584
2766,1590
2749,1597
2733,1606
2719,1616
2706,1627
2695,1639
2685,1653
2678,1665
2672,1677
2668,1692
2664,1708
2660,1728
2657,1749
2655,1774
2651,1800
2650,1829
2648,1858
2647,1884
2646,1906
2646,1874
" style="stroke:#000000;stroke-width:16;
stroke-linejoin:bevel; stroke-linecap:butt;
stroke-dasharray:20 20;"/>
<!-- Arrowhead on XXXpoint 2646 1906 - 2643 1967-->
<polygon points="2615 1892
2643 1958
2678 1896
2615 1892

" style="stroke:#000000;stroke-width:8;stroke-miterlimit:8;
fill:#000000;"/>
<!-- Line -->
<polyline points="2220,1795
2220,1796
2217,1800
2212,1809
2203,1825
2193,1844
2181,1865
2172,1885
2163,1905
2156,1925
2150,1944
2145,1963
2141,1984
2139,2001
2136,2018
2135,2037
2134,2058
2133,2079
2133,2101
2133,2124
2134,2146
2136,2170
2139,2192
2142,2213
2148,2233
2153,2251
2158,2269
2165,2284
2173,2299
2182,2313
2194,2327
2206,2339
2221,2349
2236,2360
2253,2368
2269,2375
2286,2382
2304,2387
2320,2391
2335,2394
2351,2397
2365,2400
2377,2402
2394,2403
2410,2405
2425,2406
2440,2407
2455,2407
2470,2407
2485,2406
2498,2405
2513,2403
2528,2402
2540,2400
2554,2396
2570,2393
2585,2389
2602,2384
2619,2377
2636,2370
2651,2362
2666,2351
2679,2341
2690,2328
2701,2314
2707,2303
2712,2290
2717,2276
2721,2260
2725,2240
2728,2219
2730,2194
2733,2167
2734,2138
2737,2110
2738,2083
2739,2061
2738,2093
" style="stroke:#000000;stroke-width:16;
stroke-linejoin:bevel; stroke-linecap:butt;
"/>
<!-- Arrowhead on XXXpoint 2739 2061 - 2741 2000-->
<polygon points="2769 2072
2741 2009
2706 2070
2769 2072

" style="stroke:#000000;stroke-width:8;stroke-miterlimit:8;
fill:#000000;"/>
<!-- Line -->
<polyline points="2456,2409
2866,2367
" style="stroke:#000000;stroke-width:16;
stroke-linejoin:bevel; stroke-linecap:butt;
stroke-dasharray:20 20;"/>
<!-- Arrowhead on XXXpoint 2456 2409 - 2959 2359-->
<polygon points="2890 2396
2950 2360
2883 2334
2890 2396

" style="stroke:#000000;stroke-width:8;stroke-miterlimit:8;
fill:#000000;"/>
<!-- Text -->
<text xml:space="preserve" x="2314" y="2314" fill="#000000"  font-family="Helvetica" font-style="normal" font-weight="bold" font-size="114" text-anchor="middle">3</text>
<!-- Text -->
<text xml:space="preserve" x="3070" y="1748" fill="#000000"  font-family="Helvetica" font-style="normal" font-weight="bold" font-size="114" text-anchor="middle">2</text>
<!-- Line -->
<polyline points="0,377
6094,377
" style="stroke:#000000;stroke-width:16;
stroke-linejoin:miter; stroke-linecap:butt;
"/>
<!-- Line -->
<polyline points="0,1464
6094,1464
" style="stroke:#000000;stroke-width:16;
stroke-linejoin:miter; stroke-linecap:butt;
"/>
<!-- Line -->
<polyline points="4393,377
4393,1464
" style="stroke:#000000;stroke-width:16;
stroke-linejoin:miter; stroke-linecap:butt;
stroke-dasharray:62 62;"/>
<!-- Line -->
<polyline points="2220,377
2220,1464
" style="stroke:#000000;stroke-width:16;
stroke-linejoin:miter; stroke-linecap:butt;
"/>
<!-- Line -->
<polyline points="1133,377
1133,1464
" style="stroke:#000000;stroke-width:16;
stroke-linejoin:miter; stroke-linecap:butt;
stroke-dasharray:62 62;"/>
<!-- Line -->
<polyline points="1984,1464
1984,2551
" style="stroke:#000000;stroke-width:16;
stroke-linejoin:miter; stroke-linecap:butt;
stroke-dasharray:62 62;"/>
<!-- Line -->
<polyline points="4015,1464
4015,2551
" style="stroke:#000000;stroke-width:16;
stroke-linejoin:miter; stroke-linecap:butt;
"/>
<!-- Line -->
<polyline points="5055,1464
5055,2551
" style="stroke:#000000;stroke-width:16;
stroke-linejoin:miter; stroke-linecap:butt;
stroke-dasharray:62 62;"/>
<!-- Line: box -->
<rect x="0" y="0" width="6094" height="2551" rx="0" 
style="stroke:#000000;stroke-width:16;
stroke-linejoin:miter; stroke-linecap:butt;
"/>
<!-- Text -->
<text xml:space="preserve" x="94" y="283" fill="#000000"  font-family="Helvetica" font-style="normal" font-weight="normal" font-size="227" text-anchor="start">Follow Me Home</text>
<!-- Text -->
<text xml:space="preserve" x="4866" y="283" fill="#000000"  font-family="Helvetica" font-style="normal" font-weight="normal" font-size="177" text-anchor="end">XXXVIII 3</text>
<!-- Text -->
<text xml:space="preserve" x="377" y="1039" fill="#000000"  font-family="Helvetica" font-style="normal" font-weight="bold" font-size="227" text-anchor="middle">S</text>
<!-- Circle -->
<circle cx="614" cy="1889" r="94"
 style="stroke:#000000;stroke-width:16;"/>
</g>
</svg>
