<?xml version="1.0" encoding="UTF-8"?>
<!-- Created with Inkscape (http://www.inkscape.org/) -->
<svg width="717" height="307" version="1.1" viewBox="0 0 717 307" xmlns="http://www.w3.org/2000/svg" xmlns:cc="http://creativecommons.org/ns#" xmlns:dc="http://purl.org/dc/elements/1.1/" xmlns:rdf="http://www.w3.org/1999/02/22-rdf-syntax-ns#">
 <metadata>
  <rdf:RDF>
   <cc:Work rdf:about="">
    <dc:format>image/svg+xml</dc:format>
    <dc:type rdf:resource="http://purl.org/dc/dcmitype/StillImage"/>
    <dc:title/>
   </cc:Work>
  </rdf:RDF>
 </metadata>
 <path d="m9 158v-147h701v294h-701zm246 82v-63h-58l-0.20754 9.25-0.20754 9.25-0.32999-9.25-0.32998-9.25h-184.92v62.333c0 34.283 0.3 62.633 0.66667 63 0.36667 0.36667 55.267 0.66667 122 0.66667h121.33zm-58.64 50c0-5.225 0.16854-7.3625 0.37454-4.75s0.206 6.8875 0 9.5-0.37454 0.475-0.37454-4.75zm-31.96-1.4c-7.9311-7.9311-1.7311-20.408 9.5676-19.253 6.255 0.63913 10.032 4.8821 10.032 11.269 0 3.8801-0.52223 5.1064-3.4 7.9842-2.9021 2.9021-4.0882 3.4-8.1 3.4s-5.1979-0.49787-8.1-3.4zm13.128 1.2053c5.8725-2.6757 7.1767-10.866 2.5541-16.04-2.5052-2.8038-3.5777-3.2658-7.582-3.2658s-5.0768 0.46196-7.582 3.2658c-4.1725 4.6699-4.0097 9.3425 0.48203 13.834 3.6864 3.6864 7.3966 4.3611 12.128 2.2053zm-10.528-2.3276c0-0.28729 1.8508-2.5303 4.113-4.9844 2.5307-2.7455 3.8892-5.0451 3.5314-5.9777-0.78345-2.0416-3.6023-1.9175-5.3241 0.2344-1.3211 1.6511-1.3838 1.6431-1.1102-0.14282 0.45382-2.9623 3.1848-4.2039 6.2123-2.8245 3.6278 1.653 3.2715 4.8268-0.99354 8.8493l-3.5712 3.3681h3.5712c1.9642 0 3.5712 0.45 3.5712 1s-2.25 1-5 1-5-0.23505-5-0.52234zm-141.24 2.0134c-3.4675-1.953-5.7626-6.3504-5.7626-11.041 0-2.8173 0.77546-4.4251 3.4-7.0497 2.9021-2.9021 4.0882-3.4 8.1-3.4s5.1979 0.49787 8.1 3.4c2.8778 2.8778 3.4 4.1041 3.4 7.9842 0 6.4102-3.7837 10.646-10.032 11.231-2.8686 0.26848-5.4473-0.13367-7.205-1.1237zm13.487-3.4722c6.2133-6.8923 1.2745-17.019-8.3003-17.019-4.5435 0-9.9497 5.5776-9.9497 10.265 0 3.788 2.97 8.3449 6.3881 9.8014 3.7002 1.5766 8.8968 0.24152 11.862-3.0476zm-11-0.68123c-1.268-0.51166-1.7847-3.3377-0.61024-3.3377 0.35187 0 1.1512 0.69949 1.7764 1.5544 1.4892 2.0365 4.5839 0.85165 4.5839-1.755 0-1.1852-0.8581-2.211-2.1271-2.5429l-2.1271-0.55624 2.2709-1.7129c1.2613-0.95141 1.9584-2.2185 1.568-2.8502-0.94391-1.5273-4.3067-1.4493-4.8646 0.11279-0.24554 0.6875-0.79716 0.92337-1.2258 0.52417-1.1159-1.0392 1.4244-3.7742 3.5056-3.7742 2.4227 0 4.3424 2.5826 3.7119 4.9937-0.28828 1.1024-0.11639 2.2563 0.38198 2.5643 1.3049 0.80646 1.1153 4.8328-0.29388 6.242-1.2133 1.2133-4.2566 1.4631-6.55 0.53772zm168.11-21.338c0-5.225 0.16854-7.3625 0.37454-4.75s0.206 6.8875 0 9.5-0.37454 0.475-0.37454-4.75zm-170.36-19v-11h7.345c5.8457 0 7.6828 0.37329 9 1.8287 2.4626 2.7211 2.0965 6.8358-0.77546 8.7176l-2.4304 1.5925 3.1229 4.4306c1.7176 2.4368 3.4194 4.4306 3.7817 4.4306 0.36233 0 2.4212-4.6125 4.5752-10.25 4.7984-12.558 6.3397-13.21 10.046-4.25 6.7124 16.23 6.5021 15.5 4.4655 15.5-1.2189 0-2.1556-1.098-2.7728-3.25-0.88924-3.1006-1.1585-3.25-5.8572-3.25s-4.968 0.14942-5.8572 3.25c-0.82991 2.8938-1.3275 3.25-4.5393 3.25-3.1443 0-4.0573-0.60949-7.1149-4.75-2.7445-3.7164-4.2128-4.8182-6.7481-5.0634l-3.2404-0.31336v5.0634c0 3.8341-0.36416 5.0634-1.5 5.0634-1.2424 0-1.5-1.8889-1.5-11zm33.999 1.75c-4.5e-4 -0.1375-0.83661-2.4507-1.8581-5.1405l-1.8573-4.8905-1.6419 4.8186c-0.90302 2.6502-1.6419 4.9634-1.6419 5.1405s1.575 0.32186 3.5 0.32186 3.4996-0.1125 3.4992-0.25zm-20.933-3.7852c2.5321-1.3551 2.4734-4.6059-0.10808-5.9875-1.1233-0.60116-3.7108-0.95449-5.75-0.78518-3.0071 0.24968-3.7698 0.7467-4.0367 2.6306-0.55423 3.9119 0.51226 5.1773 4.3634 5.1773 1.9784 0 4.4675-0.46583 5.5314-1.0352zm76.934 12.382c-3.0853-1.2265-6.9951-5.8036-7.5685-8.8603-0.76585-4.0823 1.6253-9.8223 5.0176-12.045 3.3551-2.1984 9.7468-2.1984 13.102 0 1.4389 0.94278 3.2596 3.2541 4.046 5.1364 1.2889 3.0849 1.8229 3.4222 5.4165 3.4222 2.1926 0 3.9866 0.45 3.9866 1s-1.7454 1-3.8787 1c-3.3375 0-4.0464 0.40481-5.0804 2.9012-0.66094 1.5957-2.2463 3.8826-3.523 5.082-2.3255 2.1847-8.685 3.4897-11.518 2.3636zm8.5084-1.9178c9.6683-4.5879 6.2406-19.429-4.4874-19.429-4.8079 0-9.5018 3.654-10.388 8.087-0.84889 4.2444 1.7168 9.341 5.6884 11.3 4.0081 1.9766 5.1006 1.9816 9.1874 0.0423zm-4.5084-7.8976c0-4.4501-0.27936-5.3614-1.5-4.893-2.3484 0.90119-1.6986-0.9481 1.0314-2.935l2.4686-1.7967v7.5467c0 4.3644-0.42167 7.5467-1 7.5467-0.55 0-1-2.4609-1-5.4686zm26-1.5314v-11h7c5.6667 0 7.381 0.38095 9 2 2.6697 2.6697 2.524 5.6846-0.40075 8.2897l-2.4008 2.1384 2.9008 4.2161c3.298 4.7935 3.4549 5.3558 1.4946 5.3558-0.77341 0-3.0227-2.25-4.9983-5-2.9396-4.0917-4.1374-5-6.5938-5-2.9353 0-3.0017 0.1105-3.0017 5 0 3.7778-0.36667 5-1.5 5-1.2424 0-1.5-1.8889-1.5-11zm14.091-3.1134c1.2235-1.9319 1.1333-2.5191-0.66271-4.3151-0.95545-0.95545-3.3074-1.5714-6-1.5714h-4.4286v8.2545l5.1066-0.49068c2.8086-0.26987 5.5017-1.1146 5.9847-1.8772zm8.5154 7.3634c1.4242-3.7125 3.2627-8.6625 4.0854-11 2.4995-7.1013 4.4552-5.8262 9.2023 6 4.6074 11.478 4.6695 11.75 2.6831 11.75-0.78234 0-1.9422-1.575-2.5776-3.5-1.0912-3.3063-1.4027-3.5-5.6286-3.5-4.1673 0-4.5736 0.23953-5.9359 3.5-0.80431 1.925-2.1275 3.5-2.9404 3.5-1.1942 0-0.98077-1.2961 1.1116-6.75zm9.6297-6.75c-0.9173-2.475-1.9495-4.5-2.2938-4.5-0.55919 0-2.9426 6.7762-2.9426 8.366 0 0.34869 1.5534 0.63398 3.4521 0.63398h3.4521zm-98.236 1.5v-11h22v22h-22zm21 0v-10h-20v9.3333c0 5.1333 0.3 9.6333 0.66666 10 0.36667 0.36667 4.8667 0.66667 10 0.66667h9.3333zm-10 1.5314c0-4.4501-0.27936-5.3614-1.5-4.893-2.3484 0.90119-1.6986-0.9481 1.0314-2.935l2.4686-1.7967v7.5467c0 4.3644-0.42168 7.5467-1 7.5467-0.55 0-1-2.4609-1-5.4686zm141-0.53138v-9h5c7.6046 0 11.371 4.5443 7.0257 8.4767-1.9168 1.7347-1.9216 1.863-0.16396 4.405 3.1075 4.4944 3.3306 5.1183 1.8302 5.1183-0.78437 0-2.6173-1.8-4.0732-4-1.9085-2.884-3.3406-4-5.1329-4-2.2334 0-2.4858 0.40609-2.4858 4 0 2.2-0.45 4-1 4-0.59259 0-1-3.6667-1-9zm10.84-3.3802c0.45049-2.3724-1.4298-3.5849-5.5898-3.6045-2.9614-0.0139-3.25 0.25623-3.25 3.0422 0 2.9777 0.11063 3.0495 4.2414 2.75 3.2154-0.23312 4.3277-0.76231 4.5984-2.1877zm-46.479-2.6198c0-5.225 0.16854-7.3625 0.37454-4.75s0.206 6.8875 0 9.5-0.37454 0.475-0.37454-4.75zm22.426-2.75-0.28621-9.75-3.75-0.31037c-7.3706-0.61002-3.5833-2.1896 5.25-2.1896 4.95 0 9 0.42149 9 0.93664s-1.4625 1.0776-3.25 1.25l-3.25 0.31336-0.28621 9.75c-0.22447 7.6465-0.5942 9.75-1.7138 9.75s-1.4893-2.1035-1.7138-9.75zm-149.04 6.0266c1.7875-0.22182 4.7125-0.22182 6.5 0 1.7875 0.22183 0.325 0.40333-3.25 0.40333s-5.0375-0.1815-3.25-0.40333zm90.25-24.277v-11h22v22h-22zm21 0v-10h-20v20h20zm-15 5.5509c0-0.79701 1.575-2.6504 3.5-4.1187 3.8896-2.9667 4.911-7.4322 1.7-7.4322-0.99 0-2.3325 0.5325-2.9833 1.1833-0.65084 0.65084-1.5276 0.83904-1.9484 0.41824-0.94757-0.94757 2.5327-3.6016 4.7229-3.6016 4.762 0 5.1959 5.1801 0.8127 9.7024l-3.1962 3.2976h3.1962c1.7579 0 3.1962 0.45 3.1962 1s-2.025 1-4.5 1c-3.2631 0-4.5-0.39831-4.5-1.4491zm-146-6.5509v-11h22v22h-22zm20.786-0.25 0.28621-9.75h-20.072v20.072l9.75-0.28621 9.75-0.28621zm-13.806 5.7258c-1.7655-2.1273-0.43334-3.0721 1.5439-1.0949 2.0791 2.0791 3.1865 2.0454 4.3059-0.13095 1.1288-2.1947 0.44541-4.25-1.413-4.25-1.9142 0-1.7835-1.0085 0.33333-2.5724 1.4202-1.0493 1.5097-1.5365 0.47504-2.5852-1.0422-1.0564-1.6533-1.056-3.3474 2e-3 -2.6383 1.6476-3.4721 0.89299-1.3539-1.2253 3.2632-3.2632 6.6798-1.3277 7.137 4.0432 0.5682 6.6752 0.4705 7.6381-0.86068 8.4824-2.0751 1.3162-5.4471 0.98553-6.8202-0.66888zm169.38-9.4758c0-5.225 0.16854-7.3625 0.37454-4.75s0.206 6.8875 0 9.5-0.37454 0.475-0.37454-4.75zm-183.36-7.6942c-0.0021-0.65683 1.0816-2.4568 2.4082-4l2.412-2.8058 35.838-0.5c33.85-0.47226 35.987-0.61095 38.52-2.5 3.4247-2.5536 6.8177-8.4983 6.8177-11.945 0-1.5273 0.4286-2.408 1-2.0548 0.55 0.33992 1 1.7388 1 3.1087 0 3.6477 2.5159 7.9099 6.2349 10.562 3.238 2.3095 3.5622 2.333 39.105 2.8288l35.84 0.5 1.9104 2.3608c1.0507 1.2984 1.8748 3.0984 1.8314 4-0.0441 0.91522-0.51582 0.44483-1.0681-1.065-0.84354-2.3062-2.5873-3.5552-6.103-4.3716-0.4125-0.0958-15.758-0.23041-34.102-0.29916-32.966-0.12355-33.391-0.15139-36.75-2.4071-1.8688-1.2552-4.501-3.9787-5.8493-6.0524l-2.4514-3.7702-1.7812 3.4719c-0.97965 1.9095-3.2515 4.5206-5.0486 5.8024-3.2388 2.3101-3.5827 2.3352-39.267 2.8733-19.8 0.29855-36.119 0.63605-36.265 0.75-0.14558 0.11395-1.1564 1.6697-2.2463 3.4572s-1.9832 2.7126-1.9853 2.0558zm197.25-0.55576c0.25896-0.6875 1.4924-4.0625 2.741-7.5s2.6846-6.25 3.1912-6.25 1.9603 2.3625 3.2306 5.25c3.209 7.2945 3.8927 9.75 2.7152 9.75-0.55 0-1.2856-0.9-1.6348-2-0.46911-1.478-1.513-2-4-2s-3.5309 0.52196-4 2c-0.34913 1.1-1.1026 2-1.6744 2s-0.82772-0.5625-0.56876-1.25zm7.5472-7.8824-1.092-3.1324-1.3206 2.3824c-1.8617 3.3586-1.7192 3.8824 1.0565 3.8824 2.3087 0 2.3858-0.17822 1.356-3.1324zm7.196 1.6324c0-4.3333 0.42222-7.5 1-7.5 0.5641 0 1 2.8333 1 6.5v6.5h3.5c1.925 0 3.5 0.45 3.5 1s-2.025 1-4.5 1h-4.5zm11 0c0-4.3333 0.42222-7.5 1-7.5 0.5641 0 1 2.8333 1 6.5v6.5h3.5c1.925 0 3.5 0.45 3.5 1s-2.025 1-4.5 1h-4.5zm471.76 42.25 0.25752-62.75-98.758 0.116c-54.317 0.0638-97.97 0.3218-97.008 0.57333 2.6778 0.69979 2.0804 2.3107-0.85699 2.3107-1.9065 0-2.4523-0.40306-2.0314-1.5 0.5055-1.3173-4.1095-1.5-37.893-1.5h-38.469v8.5c0 5-0.41176 8.5-1 8.5s-1-3.5-1-8.5v-8.5h-174v126l225.25-0.25219 225.25-0.25218zm-160.76 53 2e-3 -7.25 3.1771-0.2238c4.121-0.29028 5.8189 1.2114 5.8189 5.1462 0 3.7575-1.5337 5.5776-4.7 5.5776-1.6333 0-2.3 0.57971-2.3 2 0 1.1-0.45 2-1 2-0.5749 0-0.99916-3.082-0.99801-7.25zm6.998-2.4265c0-3.0188-0.28835-3.4216-2.25-3.143-1.6428 0.23331-2.3391 1.0999-2.5801 3.211-0.18154 1.5903 0.22765 3.2362 0.90932 3.6575 2.259 1.3962 3.9208-0.18279 3.9208-3.7255zm-123-0.82346c0-5 0.41176-8.5 1-8.5s1 3.5 1 8.5-0.41176 8.5-1 8.5-1-3.5-1-8.5zm56 5c-1.4424-1.738 0.0464-2.0536 1.7328-0.36722 1.26 1.26 4.2672 0.49724 4.2672-1.0823 0-0.55679-1.1065-1.2901-2.459-1.6295-3.6044-0.90465-5.1049-3.0366-3.4991-4.9715 1.4699-1.7711 6.1001-1.5699 6.7113 0.29163 0.29249 0.89086-0.46177 1.0672-2.6729 0.625-4.1996-0.83992-3.9014 0.93527 0.41964 2.4978 1.925 0.69609 3.5 1.8215 3.5 2.5009 0 3.4-5.69 4.9187-8 2.1353zm10.002-3.75c2e-3 -5.1843 0.0418-5.2528 3.1791-5.4738 4.3965-0.30969 5.8189 1.2416 5.8189 6.3462 0 5.6212-1.7875 5.7252-2.1925 0.12756-0.25185-3.4808-0.66946-4.25-2.3075-4.25s-2.0556 0.76917-2.3075 4.25c-0.43905 6.0682-2.1929 5.2676-2.1905-1zm11.37 3.7757c-0.95683-2.4935 0.32998-4.3602 3.2423-4.7036 1.5026-0.17717 2.9395-0.9533 3.1933-1.7247 0.36237-1.1018-0.33561-1.2733-3.2541-0.79969-3.1694 0.51433-3.5385 0.38981-2.5118-0.84738 1.2692-1.5293 3.7384-1.8558 6.377-0.84332 1.1284 0.43302 1.5814 1.9377 1.5803 5.25l-1e-3 4.643-4.02 0.27574c-2.8671 0.19666-4.188-0.16183-4.6055-1.25zm5.0467-0.13273c2.237-0.85843 1.9687-3.393-0.35919-3.393-2.1976 0-3.4823 1.5061-2.559 3 0.72497 1.173 0.84382 1.189 2.9182 0.39301zm6.5818-5.893c0-4.3333 0.42222-7.5 1-7.5 0.55 0 1 1.8784 1 4.1743v4.1743l2.4961-2.3449c1.3728-1.2897 2.7337-2.1073 3.0242-1.8168s-0.15776 1.0973-0.99605 1.793c-2.0126 1.6703-1.9257 2.6474 0.54392 6.1157 1.545 2.1698 1.7142 2.9044 0.66898 2.9044-0.76951 0-2.0012-1.125-2.7371-2.5s-1.7119-2.5-2.169-2.5-0.83102 1.125-0.83102 2.5-0.45 2.5-1 2.5c-0.57778 0-1-3.1667-1-7.5zm10.035 5.5657c-1.5434-2.8839-1.2574-5.5546 0.79356-7.4108 2.2967-2.0785 4.5761-2.1073 6.5998-0.0836 2.8151 2.8151 1.9302 4.4286-2.4286 4.4286-4.2344 0-4.9902 0.93334-2.4576 3.0352 1.1683 0.96957 1.8232 0.99927 2.7 0.12245 0.63669-0.63669 1.7977-1.1576 2.5801-1.1576 1.151 0 1.1849 0.28623 0.17756 1.5-1.8053 2.1752-6.7114 1.9077-7.9648-0.43426zm6.9648-5.0971c0-0.56727-0.675-1.2904-1.5-1.607-2.0027-0.76852-4.7866 0.3656-4.0044 1.6313 0.81898 1.3251 5.5044 1.3044 5.5044-0.0243zm21.372 5.5571c-0.95683-2.4935 0.32998-4.3602 3.2423-4.7036 1.5026-0.17717 2.9395-0.9533 3.1933-1.7247 0.36237-1.1018-0.33561-1.2733-3.2541-0.79969-3.1694 0.51433-3.5385 0.38981-2.5118-0.84738 1.2692-1.5293 3.7384-1.8558 6.377-0.84332 1.1284 0.43302 1.5814 1.9377 1.5803 5.25l-1e-3 4.643-4.02 0.27574c-2.8671 0.19666-4.188-0.16183-4.6055-1.25zm5.0467-0.13273c2.237-0.85843 1.9687-3.393-0.35919-3.393-2.1976 0-3.4823 1.5061-2.559 3 0.72497 1.173 0.84382 1.189 2.9182 0.39301zm6.4966-0.0292c-1.2735-1.5647-1.2151-1.6586 0.58517-0.93997 3.0431 1.2147 4.7426 1.195 5.1878-0.0602 0.22169-0.62499-1.0002-1.6255-2.7154-2.2234-2.4394-0.85036-3.0481-1.5829-2.7954-3.3637 0.39555-2.7876 4.8457-3.659 6.7806-1.3277 1.1284 1.3596 0.90299 1.4733-1.8356 0.92556-4.0785-0.8157-4.1156 1.0836-0.0489 2.5012 2.3959 0.8352 3.0018 1.5729 2.75 3.3478-0.42122 2.9686-5.7901 3.7428-7.9082 1.1404zm10.579 0.626c-1.0571-1.7104 0.26711-2.4332 1.9298-1.0533 1.0399 0.86301 2.0008 0.92286 3.2742 0.20392 1.5834-0.89393 1.3467-1.209-1.9476-2.5924-5.9947-2.5175-3.9493-8.0156 2.25-6.048 3.151 1.0001 2.3314 2.5163-1 1.85-3.9749-0.79498-3.9191 1.134 0.073 2.5256 2.3959 0.8352 3.0018 1.5729 2.75 3.3478-0.24648 1.737-1.071 2.3492-3.4792 2.5829-1.7359 0.1685-3.4684-0.19894-3.8501-0.81653zm-165.49-6.6419c-3.9322-1.2955-6.2909-3.0097-7.5853-5.5129-3.1459-6.0835-0.67957-13.991 5.1196-16.414 4.3568-1.8204 5.8906-1.788 10.109 0.21362 9.0232 4.2818 8.248 17.006-1.2787 20.986-3.4874 1.4571-3.9774 1.5131-6.3642 0.72675zm8.4341-2.8967c3.177-2.0816 4.9384-6.6525 4.1608-10.797-1.6104-8.5843-13.024-11.009-18.579-3.9467-3.347 4.255-1.8582 12.538 2.7343 15.213 2.6367 1.5358 9.0154 1.2799 11.684-0.46864zm-11.434-2.1634c0-0.39168 1.861-2.6083 4.1354-4.9258 2.6765-2.7272 3.9223-4.769 3.5314-5.7879-0.79013-2.059-4.3156-2.0241-5.4788 0.0543-0.52726 0.94217-1.1704 1.2092-1.5261 0.63364-1.0914-1.766 3.0313-4.5559 5.7311-3.8783 4.2993 1.079 4.301 4.3211 5e-3 8.721l-3.804 3.8952h3.703c2.0366 0 3.703 0.45 3.703 1s-2.25 1-5 1-5-0.32047-5-0.71215zm-141.78 2.1514c-2.8084-1.9671-5.2168-6.5557-5.2168-9.9393 0-13.23 19.413-15.529 22.951-2.717 1.2683 4.5933-1.1597 10.757-5.0248 12.755-3.6981 1.9124-9.9062 1.864-12.709-0.0991zm11.803-0.94965c3.6015-1.8624 4.98-4.3114 4.98-8.8472 0-7.4722-8.2904-12.612-14.862-9.214-6.7713 3.5016-7.8024 12.152-2.0277 17.011 3.4737 2.9229 7.5862 3.2855 11.909 1.0499zm-9.0401-4.0138c-1.7655-2.1273-0.43333-3.0721 1.5439-1.0949 2.0791 2.0791 3.1866 2.0454 4.3059-0.13095 1.1288-2.1947 0.44541-4.25-1.413-4.25-1.9142 0-1.7835-1.0085 0.33333-2.5724 1.4202-1.0493 1.5097-1.5365 0.47504-2.5852-1.0422-1.0564-1.6533-1.056-3.3474 2e-3 -2.6383 1.6476-3.4721 0.89299-1.3538-1.2253 3.2632-3.2632 6.6798-1.3277 7.137 4.0432 0.5682 6.6752 0.4705 7.6381-0.86068 8.4824-2.0751 1.3162-5.4471 0.98553-6.8202-0.66888zm316.27 0.70754c-7.2322-2.5854-10.003-5.0197-15.488-13.606-3.4591-5.4157-4.3222-5.0343-2.9028 1.2828 0.51165 2.2772 0.59751 4.1403 0.19081 4.1403-0.73183 0-4.048-13.611-4.048-16.615 0-1.0426 2.2322 0.18855 6.75 3.7228 3.7125 2.9043 6.9375 5.418 7.1667 5.5861 0.22916 0.16809 0.14133 0.58097-0.1952 0.91749-0.33652 0.33652-2.7463-1.126-5.3551-3.25l-4.7432-3.8619 2.4384 4.5c3.9548 7.2984 11.649 14.383 17.438 16.055 10.05 2.9037 26.44 0.95731 37.98-4.5102l5.02-2.3784-4.35-0.0833c-3.5544-0.0681-4.9719-0.70523-7.75-3.4834-7.2488-7.2488-1.9974-18.12 8.6072-17.819 8.2038 0.23325 13.589 8.4994 9.9577 15.285-2.049 3.8286 1.0464 1.9361 7.8767-4.8157 8.3883-8.2919 12.25-15.855 12.93-25.325 0.85879-11.959-5.502-27.379-15.735-38.147l-5.967-6.2786-0.0348 10.75-0.0348 10.75h-22v-4.3c0-2.365-0.54-4.84-1.2-5.5-0.93333-0.93333-0.93333-1.4667 0-2.4 0.66-0.66 1.2-2.8948 1.2-4.9662v-3.7662l10.75-0.28383 10.75-0.28383-5.2411-2.7623c-25.635-13.511-63.479-1.2463-87.521 28.365-3.3982 4.1852-3.6409 4.8776-2.6779 7.6399 2.4975 7.1643-4.2183 13.951-12.843 12.979-6.3486-0.71558-9.7166-4.2947-9.7166-10.326 0-3.886 0.48227-4.9902 3.2658-7.4773 2.6615-2.378 4.1675-2.918 8.1392-2.918 3.2726 0 5.6329 0.61499 7.1855 1.8722 2.3063 1.8675 2.3189 1.8632 5.0632-1.75 1.5131-1.9922 3.6825-4.8218 4.8208-6.288l2.0697-2.6658-7.0221-5.2217c-3.8622-2.8719-7.0221-5.6098-7.0221-6.0842 0-1.4154 2.6595-0.97768 4.0201 0.66167 2.6972 3.25 2.0133 0.38472-0.92889-3.8916-3.7652-5.4725-2.354-7.2164 1.5385-1.9012 4.2412 5.7913 4.3376 5.8416 3.7032 1.9324-1.1551-7.1178 1.373-3.6 3.7614 5.2342l2.4057 8.8979 8-6.4591c9.55-7.7105 23.042-14.612 33.91-17.347 8.6732-2.1821 22.195-2.6085 29.478-0.92956 18.82 4.3387 34.49 22.174 39.133 44.542 4.1138 19.816-12.817 41.344-40.151 51.053-10.033 3.5637-24.97 4.2631-32.622 1.5275zm45.772-10.694c5.8315-3.0156 6.7937-9.8298 2.0569-14.567-2.3933-2.3933-3.7665-2.9231-7.5769-2.9231s-5.1836 0.52977-7.5769 2.9231c-8.1957 8.1957 2.4723 20.061 13.097 14.567zm-11.02-2.012c0-0.28729 1.8508-2.5303 4.113-4.9844 2.5307-2.7455 3.8892-5.0451 3.5314-5.9777-0.78345-2.0416-3.6023-1.9175-5.3241 0.2344-1.3211 1.6511-1.3838 1.6431-1.1102-0.14282 0.45382-2.9623 3.1848-4.2039 6.2123-2.8245 3.6278 1.653 3.2715 4.8268-0.99354 8.8493l-3.5712 3.3681h3.5712c1.9642 0 3.5712 0.45 3.5712 1s-2.25 1-5 1-5-0.23505-5-0.52234zm-84.283-33.935c1.5236-1.7713 2.283-3.9366 2.283-6.5095 0-10.288-16.696-12.543-19.947-2.6946-1.387 4.2027-0.23441 7.5846 3.622 10.628 3.8963 3.0744 10.772 2.3773 14.042-1.4236zm-7.717-5.11c0-5.3034-0.10669-5.5359-2.25-4.9043-2.1143 0.62309-2.0867 0.50651 0.45636-1.9326 1.4885-1.4276 2.951-2.5957 3.25-2.5957 0.299 0 0.54364 3.375 0.54364 7.5 0 4.3333-0.42222 7.5-1 7.5-0.55 0-1-2.5053-1-5.5674zm105.79-26.183 0.28752-9.25h-19.958l-0.0261 9.5358-0.026 9.5358 9.7178-0.28583 9.7177-0.28582zm-14.788 5.3009c0-0.79701 1.575-2.6504 3.5-4.1187 3.8896-2.9667 4.911-7.4322 1.7-7.4322-0.99 0-2.3325 0.5325-2.9833 1.1833-0.65084 0.65084-1.5276 0.83904-1.9484 0.41824-0.94757-0.94757 2.5327-3.6016 4.7229-3.6016 4.762 0 5.1959 5.1801 0.8127 9.7024l-3.1962 3.2976h3.1962c1.7579 0 3.1962 0.45 3.1962 1s-2.025 1-4.5 1c-3.2631 0-4.5-0.39831-4.5-1.4491zm-135.75 66.787c-2.151-0.86797-1.3652-2.3377 1.25-2.3377 1.5556 0 2.5 0.56667 2.5 1.5 0 1.493-1.3684 1.7987-3.75 0.83772zm14.75-0.33772c0-0.55 0.4132-1 0.91821-1 0.50502 0 1.63-0.27314 2.5-0.60699 1.038-0.39831 1.5818-0.0545 1.5818 1 0 1.0475-0.87047 1.607-2.5 1.607-1.375 0-2.5-0.45-2.5-1zm15.566-1.8933c-0.30366-0.49133 0.62288-1.1882 2.059-1.5487 2.8935-0.72622 3.9168-0.24355 2.9162 1.3755-0.79989 1.2942-4.209 1.4129-4.9752 0.1732zm-52.416-3.8083c-2.0075-2.0359-4.2713-3.8047-5.0307-3.9307-2.3617-0.39177-3.6563-2.2306-2.4322-3.4548 0.78285-0.78285 1.2752-0.78285 1.759 0 1.2594 2.0377 2.2913 1.0925 2.9074-2.6629 0.43905-2.6762-4e-3 -5.2498-1.5481-8.9877-2.2405-5.4246-1.8684-8.0592 0.66228-4.6893 1.3049 1.7378 1.3885 1.4114 0.85038-3.323-0.50473-4.4409-0.34405-5.25 1.0426-5.25 1.307 0 1.6454 1.0641 1.6697 5.25 0.0235 4.0536 0.2627 4.8512 1.0497 3.5 0.5606-0.9625 1.4957-1.75 2.078-1.75 1.0012 0 0.92769 0.63326-0.79669 6.8638-0.58962 2.1304-0.41807 2.2889 1.7374 1.6048 3.8939-1.2359 7.7856-0.73442 11.553 1.4887l3.5386 2.0878 3.6546-2.2069c2.01-1.2138 6.3546-4.0723 9.6546-6.3521s8.1375-5.3659 10.75-6.8578c2.6125-1.4919 4.75-2.8713 4.75-3.0652 0-0.1939-1.6875 0.0393-3.75 0.51829-4.085 0.94863-8.8717 1.2069-8.102 0.43717 0.52661-0.52661 15.546-3.5182 17.665-3.5184 0.72195-9e-5 -1.2534 3.0373-4.3898 6.7498-5.9383 7.0293-9.5431 9.9231-5.3399 4.2868 5.5802-7.4828 5.5713-7.3715 0.33922-4.2723-2.7072 1.6036-9.1339 5.6876-14.282 9.0756s-9.7049 6.16-10.127 6.16c-0.42225 0-0.54085 2.0128-0.26355 4.473 0.46117 4.0915 0.20338 4.7738-3.0228 8-3.0354 3.0354-4.1821 3.527-8.227 3.527-4.0962 0-5.1689-0.47557-8.35-3.7017zm4.9641-1.0936c-1.1669-0.38897-1.5837-3.2047-0.47438-3.2047 0.35186 0 1.1512 0.69949 1.7764 1.5544 1.4892 2.0365 4.5839 0.85165 4.5839-1.755 0-1.1852-0.8581-2.211-2.1271-2.5429l-2.1271-0.55624 2.2709-1.7129c1.2613-0.95141 1.9584-2.2185 1.568-2.8502-0.94391-1.5273-4.3067-1.4493-4.8646 0.11279-0.24554 0.6875-0.79716 0.92337-1.2258 0.52417-1.1159-1.0392 1.4244-3.7742 3.5056-3.7742 2.4227 0 4.3424 2.5826 3.7119 4.9937-0.28828 1.1024-0.11639 2.2563 0.38198 2.5643 1.6113 0.99582 0.96086 5.3908-0.97687 6.601-1.4113 0.88137-1.6018 1.477-0.76027 2.3778 2.6732 2.8616 8.6433-3.2729 8.6433-8.8814 0-1.3442-1.3055-3.8415-2.9012-5.5497-2.4321-2.6035-3.6449-3.1058-7.5-3.1058-4.5201 0-5.3266 0.46466-9.3488 5.3861-2.8268 3.4588-1.021 9.6142 3.5251 12.016 2.4342 1.2859 2.7637 1.2653 3.089-0.19319 0.20028-0.89796-0.13722-1.7998-0.75-2.004zm-39.114-4.7047c0-5 0.41176-8.5 1-8.5s1 3.5 1 8.5-0.41176 8.5-1 8.5-1-3.5-1-8.5zm102 5.5674c0-1.075 3.8902-2.5105 4.6755-1.7252 0.28862 0.28863 0.22815 1.0047-0.13438 1.5913-0.81061 1.3116-4.5411 1.4216-4.5411 0.13392zm14.508-5.0549c-0.80565-1.3036 3.4875-3.4173 4.6268-2.278 0.55969 0.55969-0.0556 1.3642-1.5716 2.0549-1.4523 0.66172-2.7265 0.75474-3.0551 0.22304zm14.023-7.9623c-0.64725-1.0473 3.3049-3.5476 4.1971-2.6554 0.66236 0.66237-1.6163 3.6052-2.7916 3.6052-0.45019 0-1.0827-0.42742-1.4056-0.94983zm-278.53-12.05c0-9.1111 0.25758-11 1.5-11 1.2275 0 1.5 1.7164 1.5 9.4477v9.4477l5.1714 0.30226c3.0148 0.17621 5.3432 0.82354 5.5833 1.5523 0.30356 0.92112-1.4517 1.25-6.6714 1.25h-7.0833zm17.607 4.25c1.4242-3.7125 3.2627-8.6625 4.0854-11 2.4995-7.1013 4.4552-5.8262 9.2023 6 4.6074 11.478 4.6695 11.75 2.6831 11.75-0.78234 0-1.9422-1.575-2.5776-3.5-1.0912-3.3063-1.4027-3.5-5.6286-3.5-4.1673 0-4.5736 0.23953-5.9359 3.5-0.80431 1.925-2.1275 3.5-2.9404 3.5-1.1942 0-0.98077-1.2961 1.1116-6.75zm9.6297-6.75c-0.9173-2.475-1.9495-4.5-2.2938-4.5-0.55919 0-2.9426 6.7762-2.9426 8.366 0 0.34869 1.5534 0.63398 3.4521 0.63398h3.4521zm136.8 12.044c-1.6472-1.9848-0.34975-4.0488 1.5527-2.4699 1.5575 1.2926 1.9153 3.9261 0.53341 3.9261-0.48265 0-1.4214-0.65529-2.0861-1.4562zm-59.036-11.544c0-9.1111 0.25758-11 1.5-11 1.2281 0 1.5 1.7222 1.5 9.5v9.5h5.5c4.2222 0 5.5 0.34848 5.5 1.5 0 1.1905-1.4444 1.5-7 1.5h-7zm17.607 4.25c1.4242-3.7125 3.2627-8.6625 4.0854-11 2.4995-7.1013 4.4552-5.8262 9.2023 6 4.6074 11.478 4.6695 11.75 2.6831 11.75-0.78234 0-1.9422-1.575-2.5776-3.5-1.0912-3.3063-1.4027-3.5-5.6286-3.5-4.1673 0-4.5736 0.23953-5.9359 3.5-0.80431 1.925-2.1275 3.5-2.9404 3.5-1.1942 0-0.98077-1.2961 1.1116-6.75zm9.6297-6.75c-0.9173-2.475-1.9495-4.5-2.2938-4.5-0.55919 0-2.9426 6.7762-2.9426 8.366 0 0.34869 1.5534 0.63398 3.4521 0.63398h3.4521zm-86.047 9.5306c-3.3821-2.1195-6.72-8.2065-5.8062-10.588 0.34045-0.8872-0.54621-1.4557-2.6878-1.7232l-3.1958-0.39929 3.081-0.16003c2.164-0.11241 3.4782-0.9022 4.4154-2.6534 5.3717-10.037 20.439-6.6975 21.737 4.8178 0.45026 3.9947 0.15758 4.8242-2.8664 8.124-4.3268 4.7214-9.7428 5.6743-14.677 2.5822zm10.276-0.45185c10.298-4.3029 6.7978-19.579-4.4867-19.579-5.4192 0-8.8234 3.1967-9.584 9-0.48543 3.7037-0.19422 5.0014 1.6457 7.3333 3.634 4.6058 7.04 5.4954 12.425 3.2455zm-4.4657-8.0474c0-4.4501-0.27936-5.3614-1.5-4.893-2.3484 0.90119-1.6986-0.9481 1.0314-2.935l2.4686-1.7967v7.5467c0 4.3644-0.42167 7.5467-1 7.5467-0.55 0-1-2.4609-1-5.4686zm19-1.5314v-11h22v9l3.75 0.1681 3.75 0.16811-3.75 0.39226-3.75 0.39226v11.879h-22zm21 5.2c0-2.64-0.54-5.34-1.2-6-0.93333-0.93333-0.93333-1.2 0-1.2 0.73333 0 1.2-1.5556 1.2-4v-4h-20v20h20zm-10-3.7674c0-5.3034-0.10669-5.5359-2.25-4.9043-2.1143 0.62309-2.0867 0.50651 0.45636-1.9326 1.4885-1.4276 2.951-2.5957 3.25-2.5957 0.299 0 0.54364 3.375 0.54364 7.5 0 4.3333-0.42222 7.5-1 7.5-0.55 0-1-2.5053-1-5.5674zm209.62 6.7662c-0.31663-0.51232 0.26902-1.696 1.3014-2.6303 1.0324-0.93433 2.1362-1.2796 2.4528-0.76729s-0.26902 1.696-1.3014 2.6303c-1.0324 0.93433-2.1362 1.2796-2.4528 0.76729zm-143.62-9.6988c0-5 0.41176-8.5 1-8.5s1 3.5 1 8.5-0.41176 8.5-1 8.5-1-3.5-1-8.5zm8.2326 2.1112c-0.87888-1.9289-0.82081-2.5552 0.27593-2.9761 1.6541-0.63473 3.1304 3.126 1.7637 4.4927-0.56862 0.56862-1.3564-0.0172-2.0396-1.5166zm194.82-5.1112c-0.20226-4.4-0.28333-8.8914-0.18016-9.981 0.18698-1.9746 0.18247-1.9746-1.4097 0-1.5452 1.9163-1.5785 1.8927-1.0212-0.72493 0.31687-1.4882 1.0645-3.9632 1.6615-5.5l1.0853-2.7941 1.7352 4.5c1.7355 4.5008 1.771 6.739 0.0629 3.9754-0.59031-0.95515-1.0215 2.0194-1.2363 8.529l-0.32988 9.9956-0.36773-8zm-68.051-7v-10.5h21.759l3.6874-4.5c4.3646-5.3264 8.0695-6.4378 4.4321-1.3295l-2.2576 3.1705 4.1996-2.3603c2.8495-1.6015 4.527-2.033 5.2177-1.3422 0.6908 0.6908-0.43765 1.7668-3.5102 3.3471-2.4905 1.2809-4.5282 2.5036-4.5282 2.7171s1.6328 0.0818 3.6285-0.29261c2.8504-0.53473 3.5298-0.38362 3.1683 0.70469-0.27601 0.83098-3.0287 1.7891-6.8785 2.3943l-6.4183 1.0089-0.1559 6.9911c-0.0857 3.8451-0.19824 7.7786-0.25 8.7411-0.0836 1.5549-1.3204 1.75-11.094 1.75h-11zm19.965 6.5657c1.4075-2.6299 1.3501-13.066-0.0718-13.066-0.60884 0-0.84797-0.675-0.53138-1.5 0.48667-1.2682-0.88731-1.5-8.893-1.5h-9.4686v18h8.9648c7.8398 0 9.0947-0.24274 10-1.9343zm-8.9648-5.5344c0-4.4501-0.27936-5.3614-1.5-4.893-2.3484 0.90119-1.6986-0.9481 1.0314-2.935l2.4686-1.7967v7.5467c0 4.3644-0.42167 7.5467-1 7.5467-0.55 0-1-2.4609-1-5.4686zm-114 0.46862c0-1.1 0.45-2 1-2s1 0.9 1 2-0.45 2-1 2-1-0.9-1-2zm-26.82-5.1717c0.47108-3.2015 2.8196-3.5444 2.8196-0.41166 0 1.6805-0.54853 2.5833-1.5696 2.5833-1.0423 0-1.4622-0.72946-1.25-2.1717zm228.82 0.72256c0-0.79701 1.575-2.6504 3.5-4.1187 3.8896-2.9667 4.911-7.4322 1.7-7.4322-0.99 0-2.3325 0.5325-2.9833 1.1833-0.65084 0.65084-1.5276 0.83904-1.9484 0.41824-0.94757-0.94757 2.5327-3.6016 4.7229-3.6016 4.762 0 5.1959 5.1801 0.8127 9.7024l-3.1962 3.2976h3.1962c1.7579 0 3.1962 0.45 3.1962 1s-2.025 1-4.5 1c-3.2631 0-4.5-0.39831-4.5-1.4491zm16-4.0195c0-4.4501-0.27936-5.3614-1.5-4.893-2.3484 0.90119-1.6986-0.9481 1.0314-2.935l2.4686-1.7967v7.5467c0 4.3644-0.42167 7.5467-1 7.5467-0.55 0-1-2.4609-1-5.4686zm7.9799 3.9444c-1.7655-2.1273-0.43333-3.0721 1.5439-1.0949 2.0791 2.0791 3.1866 2.0454 4.3059-0.13095 1.1288-2.1947 0.44541-4.25-1.413-4.25-1.9142 0-1.7835-1.0085 0.33333-2.5724 1.4202-1.0493 1.5097-1.5365 0.47504-2.5852-1.0422-1.0564-1.6533-1.056-3.3474 2e-3 -2.6383 1.6476-3.4721 0.89299-1.3538-1.2253 3.2632-3.2632 6.6798-1.3277 7.137 4.0432 0.5682 6.6752 0.4705 7.6381-0.86068 8.4824-2.0751 1.3162-5.4471 0.98553-6.8202-0.66888zm-284.98-11.476v-11h23v22h-23zm21.786 0.25-0.28621-9.75-9.75-0.28621-9.75-0.28621v20.072h20.072zm-15.786 6.2277c0-0.28729 1.8508-2.5303 4.113-4.9844 2.5307-2.7455 3.8892-5.0451 3.5314-5.9777-0.78345-2.0416-3.6023-1.9175-5.3241 0.2344-1.3211 1.6511-1.3838 1.6431-1.1102-0.14282 0.45382-2.9623 3.1848-4.2039 6.2123-2.8245 3.6278 1.653 3.2715 4.8268-0.99354 8.8493l-3.5712 3.3681h3.5712c1.9642 0 3.5712 0.45 3.5712 1s-2.25 1-5 1-5-0.23505-5-0.52234zm-145-7.4777v-11h22v22h-22zm21 0v-10h-20v20h20zm-14 5c-1.2968-2.4232-0.30869-2.5893 2.1525-0.36199 1.4756 1.3354 2.0906 1.4051 3.3287 0.37756 2.1287-1.7666 1.8905-4.1056-0.48124-4.7258-2.3306-0.60947-2.6975-2.2898-0.5-2.2898 0.83333 0 1.5-0.88889 1.5-2 0-2.255-2.8671-2.7329-4.8-0.8-0.78182 0.78182-1.2 0.82449-1.2 0.12244 0-2.3985 2.9443-3.6689 5.6481-2.4369 2.147 0.97825 2.4926 1.6611 2.0246 4.0012-0.31038 1.5519-0.0609 3.325 0.55438 3.9403 0.82494 0.82494 0.81635 1.7823-0.0327 3.6458-1.4735 3.234-6.5702 3.5619-8.1943 0.52713zm191.23 2.8125c0.61807-1.8542 2.7708-2.1618 2.7708-0.39583 0 0.87083-0.7125 1.5833-1.5833 1.5833-0.87084 0-1.4052-0.53438-1.1875-1.1875zm-32.229-8.3125c0-5 0.41176-8.5 1-8.5s1 3.5 1 8.5-0.41176 8.5-1 8.5-1-3.5-1-8.5zm31-8v-10.5h22v21h-22zm20.5 0v-9l-9.75-0.28621-9.75-0.28621v19.145l9.75-0.28621 9.75-0.28621zm-13.52 4.9758c-1.7655-2.1273-0.43333-3.0721 1.5439-1.0949 2.0791 2.0791 3.1866 2.0454 4.3059-0.13095 1.1288-2.1947 0.44541-4.25-1.413-4.25-1.9142 0-1.7835-1.0085 0.33333-2.5724 1.4202-1.0493 1.5097-1.5365 0.47504-2.5852-1.0422-1.0564-1.6533-1.056-3.3474 2e-3 -2.6383 1.6476-3.4721 0.89299-1.3538-1.2253 3.2632-3.2632 6.6798-1.3277 7.137 4.0432 0.5682 6.6752 0.4705 7.6381-0.86068 8.4824-2.0751 1.3162-5.4471 0.98553-6.8202-0.66888zm-27.98 0.52417c0.5887-1.1 1.7454-2 2.5704-2 1.1901 0 1.2789 0.41317 0.42963 2-0.5887 1.1-1.7454 2-2.5704 2-1.1901 0-1.2789-0.41317-0.42963-2zm166.61-0.72689c-0.8567-0.85671 1.4572-3.3518 2.5069-2.7031 0.48768 0.3014 0.88669 0.9233 0.88669 1.382 0 1.0728-2.6214 2.0933-3.3936 1.3211zm58.448-4.7078c-0.65487-0.78907-1.0475-2.9184-0.87244-4.7319 0.2501-2.5914 0.92935-3.5109 3.1729-4.2952 2.4537-0.85774 3.1209-0.66915 4.75 1.3427 2.7476 3.3931 2.3766 4.1191-2.1047 4.1191-2.7524 0-4 0.4345-4 1.393 0 1.9374 2.9641 2.8817 4.6509 1.4817 1.577-1.3088 2.8966-0.56968 1.8902 1.0587-0.96196 1.5565-6.0992 1.3039-7.4869-0.36815zm5.9458-6.1349c0-1.0423-0.72946-1.4622-2.1717-1.25-3.2015 0.47108-3.5444 2.8196-0.41166 2.8196 1.6805 0 2.5833-0.54853 2.5833-1.5696zm5 2.2874v-5.2822l3.75 0.0322 3.75 0.0322 0.14444 5.5c0.0794 3.025-0.0465 4.375-0.27995 3-1.0459-6.1612-1.4514-7-3.3835-7-1.6811 0-1.981 0.68109-1.981 4.5 0 2.475-0.45 4.5-1 4.5s-1-2.377-1-5.2822zm12.2 4.0822c-1.6845-1.6845-1.496-7.3094 0.29467-8.7956 0.82207-0.68226 2.3971-1.0045 3.5-0.71606 1.5968 0.41758 2.0053 0.0342 2.0053-1.882 0-1.3235 0.45-2.4064 1-2.4064 0.57778 0 1 3.1667 1 7.5v7.5h-3.3c-1.815 0-3.84-0.54-4.5-1.2zm5.6038-4.1776c-0.22982-2.3617-0.85196-3.2002-2.5538-3.4419-1.9642-0.27896-2.25 0.12331-2.25 3.1667 0 3.464 1.3079 4.7974 3.8038 3.8779 0.78972-0.29093 1.184-1.7115 1-3.6027zm-434.76 3.0822c-0.0215-0.9875 1.0654-2.9 2.4154-4.25l2.4545-2.4546 33.795 0.22411 33.795 0.22411-34.5 0.55885c-18.975 0.30736-34.634 0.65651-34.798 0.77589-0.16405 0.11937-0.93394 1.6795-1.7109 3.467-0.85587 1.9691-1.428 2.5424-1.4517 1.4546zm167.44-1.9931-2.02-3.2115-33.98-0.52003-33.98-0.52002 33.639-0.22998c30.798-0.21055 33.81-0.0822 35.663 1.52 1.1131 0.9625 2.3183 2.7625 2.6782 4 0.88131 3.0307 0.40275 2.7823-2.0004-1.0385zm23.52-2.589c0-1.4757 2.8447-3.3364 4.0048-2.6195 0.78044 0.48233 0.75798 1.078-0.0786 2.0861-1.2927 1.5575-3.9262 1.9153-3.9262 0.53341zm-114.92-4.3962c4.371-2.9456 7.9217-8.2679 7.9217-11.874 0-1.5687 0.45-2.8521 1-2.8521s1 1.4705 1 3.2679c0 4.2017 3.9909 10.071 7.9675 11.719 1.7031 0.70547 2.899 1.4803 2.6575 1.7218-1.0926 1.0926-6.8878-3.1483-9.3159-6.8174l-2.6824-4.0533-1.8591 3.6237c-1.0225 1.993-3.301 4.5029-5.0634 5.5775-4.4511 2.714-5.7474 2.4649-1.626-0.31254zm127.92-4.1406c0-1.6843 3.0141-2.9714 4.1943-1.7912 0.47988 0.47988-0.25693 1.3688-1.6672 2.0114-2.0342 0.92682-2.5271 0.88388-2.5271-0.22014zm14-6.5182c0-1.075 3.8902-2.5105 4.6755-1.7252 0.28862 0.28863 0.22815 1.0047-0.13438 1.5913-0.81061 1.3116-4.5411 1.4216-4.5411 0.13392zm48.25 0.27033c-0.6875-0.27741-1.25-1.1322-1.25-1.8996 0-1.1206 0.4859-1.1738 2.4686-0.27044 3.382 1.541 2.2441 3.5673-1.2186 2.17zm-32.25-3.7307c0-1.0475 0.87047-1.607 2.5-1.607 1.375 0 2.5 0.45 2.5 1s-0.4132 1-0.91821 1c-0.50502 0-1.63 0.27314-2.5 0.60699-1.038 0.39831-1.5818 0.0545-1.5818-1zm-276-67.607v-63h-146l-0.20755 9.25-0.20754 9.25-0.32998-9.25-0.32999-9.25h-59.925v126h207zm-146.64 52c0-5.225 0.16855-7.3625 0.37455-4.75 0.20599 2.6125 0.20599 6.8875 0 9.5-0.206 2.6125-0.37455 0.475-0.37455-4.75zm55.385 5.9771c-5.7586-1.4535-12.696-5.3344-18.578-10.392-2.9324-2.5218-5.5627-4.5851-5.845-4.5851-0.28235 0 0.6544 1.9926 2.0817 4.4281s2.595 4.712 2.595 5.059c0 1.7039-2.2008-1.1613-5.5659-7.246-2.0504-3.7076-3.8515-6.8932-4.0025-7.0792s-1.6837 0.70385-3.4061 1.9773c-6.3116 4.6664-15.238 2.0067-17.678-5.2672-1.5472-4.6125-0.67583-8.3894 2.7188-11.784 3.9002-3.9002 8.306-4.6078 13.302-2.1362 3.751 1.8559 4.0693 1.8719 5.2202 0.26228 0.67408-0.94275 7.7699-10.249 15.768-20.681 7.9986-10.432 14.382-19.128 14.185-19.325s-2.2082 0.86684-4.4698 2.3635c-2.2616 1.4967-4.3333 2.5-4.6037 2.2296s2.7066-2.6184 6.6156-5.2177c3.909-2.5993 7.3346-4.4987 7.6125-4.2209 0.67469 0.67469-3.7778 15.57-4.8528 16.235-1.2243 0.75666-1.0417-0.78253 0.66763-5.6273 0.83087-2.3549 1.3725-4.4199 1.2037-4.5887-0.71262-0.71261-32.028 41.185-31.828 42.583 0.12073 0.84455 0.313 3.9997 0.42728 7.0115l0.20777 5.476 8.2643 3.0825c4.5454 1.6954 8.005 3.3417 7.6882 3.6585s-2.8587-0.2913-5.6486-1.3514c-2.7899-1.0601-5.229-1.771-5.4203-1.5797-0.9103 0.9103 14.721 12.001 19.383 13.752 13.915 5.2273 31.529 0.10844 40.2-11.683 5.8825-7.9989 5.7978-18.809-0.18682-23.845-3.2785-2.7587-8.7523-3.2759-12.519-1.1828-2.059 1.1443-1.9272 1.24 1.8431 1.3388 5.2994 0.13896 9.0372 2.9931 10.714 8.1812 1.1937 3.6927 1.1391 4.5561-0.5 7.9109-2.5641 5.248-8.1339 7.9438-13.247 6.4117-8.2228-2.4636-11.343-10.607-6.6811-17.44 1.4237-2.0869 2.5886-4.2129 2.5886-4.7243 0-1.6645 6.3975-4.2946 10.676-4.3891 8.218-0.18146 13.776 6.8734 12.996 16.496-0.55207 6.809-2.5071 10.784-7.8585 15.977-8.4912 8.2404-23.449 12.592-34.068 9.9121zm-33.863-18.608c1.2805-0.89688 2.9687-3.1638 3.7516-5.0375 1.2606-3.0172 1.2337-3.8069-0.23599-6.9039-2.03-4.2779-4.9302-6.4279-8.6709-6.4279-5.8611 0-10.728 4.5804-10.728 10.097 0 2.7249 2.6129 7.5784 4.75 8.8232 2.6772 1.5593 8.5344 1.2697 11.133-0.55058zm-5.8831-6.9367c0-5.3034-0.10669-5.5359-2.25-4.9043-2.1143 0.62309-2.0868 0.50651 0.45635-1.9326 1.4885-1.4276 2.951-2.5957 3.25-2.5957 0.29901 0 0.54365 3.375 0.54365 7.5 0 4.3333-0.42223 7.5-1 7.5-0.55 0-1-2.5053-1-5.5674zm72.077 5.6443c6.5526-6.5526 1.558-17.077-8.1042-17.077-4.6283 0-8.9773 4.6965-8.9574 9.6731 0.0272 6.8055 1.3641 7.3906 6.0997 2.6696 2.7419-2.7334 3.9608-4.7028 3.559-5.75-0.79596-2.0742-4.3179-2.0513-5.4859 0.0357-0.52726 0.94217-1.1704 1.2092-1.5261 0.63364-1.0914-1.766 3.0313-4.5559 5.7311-3.8783 4.2993 1.079 4.301 4.3211 5e-3 8.721l-3.804 3.8952h3.703c2.0366 0 3.703 0.45 3.703 1s-1.9125 1.0069-4.25 1.0153c-3.1125 0.0112-3.8485 0.27478-2.75 0.98469 0.825 0.53316 3.2221 0.97627 5.3269 0.98469 2.9087 0.0116 4.5283-0.68605 6.75-2.9078zm-87.712-12.577c-3e-3 -5.5 0.16319-7.8776 0.36844-5.2835 0.20524 2.5941 0.20737 7.0941 5e-3 10-0.20261 2.9059-0.37054 0.78352-0.37314-4.7165zm60.805-6.6445c-4.7488-2.6541-6.9871-4.439-6.3569-5.0691 0.63017-0.63017 1.8905-0.3712 3.5795 0.73548 3.535 2.3162 3.2971 0.5135-0.39969-3.0282-2.1022-2.014-2.6904-3.1967-1.9553-3.9318s2.0911 0.15036 4.5079 2.9434c3.1472 3.6371 3.367 3.7427 2.4553 1.1796-1.2364-3.4761-1.2641-4.6849-0.10761-4.6849 0.74379 0 2.3909 3.5598 6.825 14.75 0.78773 1.988-0.7349 1.4724-8.5482-2.8945zm50.284-5.3101c-2.7879-2.7879-3.1554-5.0625-0.95455-5.9071 0.825-0.31658 1.5-0.13972 1.5 0.39301 0 0.53274 0.9 1.8686 2 2.9686 2.3953 2.3953 9.1468 2.7329 10.96 0.54804 2.4176-2.913 0.72477-4.9759-5.9665-7.271-6.844-2.3475-8.9937-4.2347-8.9937-7.8956 0-7.464 16.368-8.7291 18.281-1.413 0.83244 3.1833-1.3818 3.614-3.5161 0.68406-1.5038-2.0644-2.7734-2.6525-5.7263-2.6525-4.4567 0-6.9956 2.2599-5.3932 4.8004 0.56645 0.89801 3.5946 2.3941 6.7293 3.3247 7.2648 2.1566 8.6248 3.3389 8.6248 7.4974 0 5.1813-2.8416 7.3776-9.5454 7.3776-4.5544 0-5.9841-0.43865-8-2.4546zm-111.09-14.545c0-5.225 0.16855-7.3625 0.37455-4.75 0.20599 2.6125 0.20599 6.8875 0 9.5-0.206 2.6125-0.37455 0.475-0.37455-4.75zm-52.36-6.1026v-13.103l8.5806 0.35262c9.6677 0.39729 11.419 1.5616 11.419 7.5903 0 2.6391-0.60795 3.7043-2.8477 4.9898l-2.8477 1.6344 3.8434 5.0691c4.3582 5.7481 4.6074 6.5691 1.9936 6.5691-1.1433 0-3.2636-2.1163-5.5102-5.5-3.4111-5.1375-3.9148-5.5-7.6416-5.5h-3.9898v5.5c0 4.2222-0.34848 5.5-1.5 5.5-1.257 0-1.5-2.1225-1.5-13.103zm13.991-2.1872c3.1102-1.5736 3.7987-4.6595 1.4265-6.394-0.98993-0.72385-4.1889-1.3161-7.1087-1.3161h-5.3089v3.8333c0 2.1083 0.3 4.1333 0.66667 4.5 1.1135 1.1135 7.6747 0.71742 10.324-0.62319zm11.009 10.04c9.7596-25.983 9.5799-25.89 16.557-8.5663 2.7185 6.7498 5.0928 12.62 5.2761 13.044s-0.55531 0.77202-1.6414 0.77202c-1.3705 0-2.4645-1.224-3.5752-4-1.5879-3.9685-1.6426-4-6.9485-4h-5.348l-1.3201 4c-0.89907 2.7242-1.9025 4-3.146 4-1.7493 0-1.7432-0.22019 0.14606-5.25zm11.996-11c-1.0975-2.8875-2.0167-5.475-2.0427-5.75-0.068-0.71933-3.9519 9.3518-3.9529 10.25-4.48e-4 0.4125 1.7973 0.75 3.9951 0.75h3.9959zm62.984 10.726c-0.69572-0.83829-0.98669-1.8024-0.64661-2.1425 0.72629-0.72629 3.6667 1.5104 3.6667 2.7891 0 1.3774-1.6298 1.0285-3.0201-0.64661zm-8.906-9.8868c-0.85424-1.0293-0.86937-1.5974-0.0559-2.1001 0.6133-0.37904 1.2125-0.5316 1.3315-0.33903 0.11904 0.19257 0.8192 1.1376 1.5559 2.1001 1.136 1.4842 1.1117 1.75-0.16052 1.75-0.825 0-2.027-0.63494-2.671-1.411zm47.926-3.9724c0-1.8048 4.4569-2.3045 5.5-0.61663 0.33992 0.55 0.25398 1.0061-0.19098 1.0137-0.44496 0.0075-1.8215 0.28499-3.059 0.61663-1.6541 0.44329-2.25 0.17484-2.25-1.0137zm-12.886-2.5465c-0.75337-0.46561-1.0606-1.3469-0.68263-1.9584 0.44696-0.72319-0.38211-1.1118-2.3719-1.1118h-3.059v-21h22v21l-7.75 0.01531c-5.2475 0.01037-7.2684 0.31982-6.2584 0.95836 0.99443 0.6287 1.1583 1.2764 0.49164 1.943-0.57435 0.57436-1.583 0.63967-2.3698 0.15344zm14.886-13.57v-8.5h-3.5674c-3.1715 0-3.4932 0.23357-2.8994 2.1048 0.50717 1.5979-0.2479 3.0428-3.1356 6l-3.8036 3.8952h3.703c2.0366 0 3.703 0.45 3.703 1s-2.25 1-5 1-5-0.32047-5-0.71215c0-0.39168 1.861-2.6083 4.1354-4.9259 2.6765-2.7272 3.9223-4.769 3.5314-5.7879-0.76708-1.999-4.5447-2.0559-5.303-0.07989-0.31537 0.82184-0.9981 1.2318-1.5172 0.91097-0.5646-0.34894-0.4733-1.1502 0.22723-1.9943 0.96553-1.1634 0.62312-1.411-1.9514-1.411h-3.1224v17h20zm-58.029 10.965c-1.7365-2.0924-0.28835-3.2109 1.649-1.2736 0.93519 0.93519 1.174 1.8182 0.5895 2.1795-0.54046 0.33402-1.5478-0.07361-2.2385-0.90584zm-30.61-9.4648c0-5.225 0.16855-7.3625 0.37455-4.75 0.20599 2.6125 0.20599 6.8875 0 9.5-0.206 2.6125-0.37455 0.475-0.37455-4.75zm2.6395-1.5v-10.5h21.904l3.158-4.59c2.2364-3.2505 3.4692-4.2788 4.2244-3.5236 0.75519 0.75519 0.57718 1.607-0.60998 2.9188-2.9924 3.3066-1.7795 3.3619 2.9136 0.13295 2.9307-2.0164 4.9369-2.8112 5.5495-2.1986 0.6126 0.6126-0.77559 2.1306-3.84 4.199-4.6709 3.1528-4.7124 3.2245-1.5495 2.6755 4.3975-0.76324 4.4497 1.896 0.0545 2.775-1.7575 0.35151-4.9436 1.1098-7.0801 1.6851-3.6856 0.99244-3.8733 1.235-3.6647 4.7359 0.12093 2.0294 0.15698 5.6024 0.0801 7.9399l-0.1398 4.25h-21zm18.865 0-0.23426-8.5h-6.6309v6.5c0 3.6667-0.4359 6.5-1 6.5-0.55 0-1-2.4609-1-5.4686 0-4.4501-0.27936-5.3614-1.5-4.893-0.825 0.31658-1.5 0.11496-1.5-0.44805 0-0.56301 0.5625-1.2506 1.25-1.528 0.6875-0.27742-0.6625-0.53992-3-0.58334l-4.25-0.0789v17h18.099zm78.135 7.6651c0-2.1104 1.2702-4.1651 2.5748-4.1651 0.9817 0 1.1342 0.61247 0.54751 2.1985-0.8451 2.2845-3.1223 3.7189-3.1223 1.9666zm-2.8443-16.287c-0.71183-1.1398-1.0274-2.3393-0.70115-2.6655 0.32621-0.3262 1.3506 0.1644 2.2764 1.0902 1.1019 1.1019 1.3441 2.0226 0.70115 2.6655-0.64291 0.64291-1.4292 0.26632-2.2764-1.0902zm-138.16-6.445c0-5.3034-0.10669-5.536-2.25-4.9043-2.1143 0.62309-2.0867 0.50651 0.45636-1.9326 1.4885-1.4276 2.951-2.5957 3.25-2.5957s0.54364 3.375 0.54364 7.5c0 4.3333-0.42222 7.5-1 7.5-0.55 0-1-2.5053-1-5.5674zm12 4.1183c0-0.79701 1.575-2.6504 3.5-4.1187 3.8896-2.9667 4.911-7.4322 1.7-7.4322-0.99 0-2.3325 0.5325-2.9833 1.1833-0.65083 0.65083-1.5276 0.83904-1.9484 0.41824-0.94757-0.94757 2.5327-3.6016 4.7229-3.6016 4.762 0 5.1959 5.1801 0.8127 9.7024l-3.1962 3.2976h3.1962c1.7579 0 3.1962 0.45 3.1962 1s-2.025 1-4.5 1c-3.2631 0-4.5-0.39832-4.5-1.4491zm129-1.0732c0-0.28729 1.8508-2.5303 4.113-4.9844 2.5307-2.7455 3.8892-5.0451 3.5314-5.9777-0.78345-2.0416-3.6023-1.9175-5.3241 0.2344-1.3211 1.6511-1.3838 1.643-1.1102-0.14282 0.45382-2.9623 3.1848-4.204 6.2123-2.8245 3.6278 1.653 3.2715 4.8268-0.99354 8.8493l-3.5712 3.3681h3.5712c1.9642 0 3.5712 0.45 3.5712 1s-2.25 1-5 1-5-0.23506-5-0.52235zm23.168-4.795c-0.16011-5.541-0.27501-5.7845-2.4181-5.1258-2.2214 0.68282-2.2183 0.65714 0.25-2.0244l2.5-2.716 0.30879 4.1182c0.16983 2.265 0.13298 5.7938-0.0819 7.8418-0.28257 2.6931-0.4372 2.1137-0.55879-2.0938zm12.812 3.7932c-1.7655-2.1273-0.43333-3.0721 1.5439-1.0949 2.0791 2.0791 3.1866 2.0454 4.3059-0.13095 1.1288-2.1947 0.44541-4.25-1.413-4.25-1.9142 0-1.7835-1.0085 0.33333-2.5724 1.4202-1.0493 1.5097-1.5365 0.47504-2.5852-1.0422-1.0564-1.6533-1.056-3.3474 2e-3 -2.6383 1.6476-3.4721 0.89299-1.3538-1.2253 3.2632-3.2632 6.6798-1.3277 7.137 4.0432 0.5682 6.6752 0.4705 7.6381-0.86068 8.4824-2.0751 1.3162-5.4471 0.98553-6.8202-0.66888zm-52.44-4.8232c-1.2517-0.91529-1.48-1.5715-0.7118-2.0462 1.4523-0.89755 5.4162 1.1897 4.6412 2.4438-0.79799 1.2912-1.7519 1.1947-3.9294-0.39753zm-32.295-3.9026c0.48933-1.4858 4.755-2.317 4.755-0.92654 0 0.96982-2.3092 2.1765-4.1651 2.1765-0.55085 0-0.8163-0.5625-0.58989-1.25zm15.755-1.1113c0-0.91286 0.82359-1.2039 2.5-0.88342 1.375 0.26284 2.5 0.87544 2.5 1.3613 0 0.48589-1.125 0.88343-2.5 0.88343-1.4424 0-2.5-0.57591-2.5-1.3613zm568.85 52.361-0.24709-63-128.05-2e-3 -128.05-2e-3 0.32848 8.0766c0.42565 10.466 0.11208 11.3-3.5333 9.3983-2.2943-1.1967-9.1562-1.4601-38.295-1.4697-36.053-0.0119-40.83-0.42255-45.095-3.8765-2.1995-1.7811-2.3406-1.7681-5.7196 0.52491-1.9054 1.2931-4.4141 2.3104-5.5749 2.2608-1.4766-0.0631-1.1376-0.37118 1.1287-1.0258 1.7815-0.51457 4.2406-2.2902 5.4646-3.9458 2.0745-2.8059 2.2753-2.8756 2.9593-1.0266 0.40357 1.091 2.2195 2.7946 4.0354 3.786 2.9691 1.6208 7.1792 1.8527 41.802 2.3024 21.175 0.275 39.062 0.86405 39.75 1.309 0.96565 0.62499 1.25-1.138 1.25-7.75v-8.559h-229v126h487.09zm-257.85 49.941c0-5.7847 0.36144-8.8356 1-8.441 0.55 0.33992 1 4.4165 1 9.059 0 4.9606-0.41231 8.441-1 8.441-0.59308 0-1-3.6863-1-9.059zm44-5.9102v-12.031h8.8904l0.37454-4.75 0.37454-4.75 0.18025 4.7062 0.18025 4.7062 7.25 0.29381 7.25 0.29381v23l-12.25 0.28078-12.25 0.28078zm23-0.0308v-10h-22v20h22zm-21 6.2878c0-0.39168 1.861-2.6083 4.1354-4.9258 2.6765-2.7272 3.9223-4.769 3.5314-5.7879-0.79013-2.059-4.3156-2.0241-5.4788 0.0543-0.52726 0.94217-1.1704 1.2092-1.5261 0.63364-1.0914-1.766 3.0313-4.5559 5.7311-3.8783 4.2993 1.079 4.301 4.3211 5e-3 8.721l-3.804 3.8952h3.703c2.0366 0 3.703 0.45 3.703 1s-2.25 1-5 1-5-0.32047-5-0.71215zm-33.905 2.1384c-1.6823-1.4155-3.5748-4.2966-4.2058-6.4023-1.5383-5.1345 1.0612-10.694 6.3157-13.508 3.3089-1.7717 3.7438-2.4663 4.0698-6.5l0.365-4.5163 0.18025 4.75c0.16612 4.3775 0.38018 4.75 2.7299 4.75 3.4934 0 7.8206 2.39 9.8018 5.4137 2.0835 3.1798 2.1313 10.452 0.0878 13.37-3.9777 5.679-14.094 7.0612-19.345 2.6431zm13.938 0.0568c7.9506-4.1114 7.6122-15.051-0.5859-18.941-7.3596-3.4924-16.447 1.4511-16.447 8.947 0 4.696 1.366 7.1538 5.3138 9.561 3.8313 2.3361 7.7585 2.4813 11.719 0.4333zm-10.033-6.9517c0-4.4501-0.27936-5.3614-1.5-4.893-2.3484 0.90119-1.6986-0.9481 1.0314-2.935l2.4686-1.7967v7.5467c0 4.3644-0.42167 7.5467-1 7.5467-0.55 0-1-2.4609-1-5.4686zm69.095 6.8949c-6.6499-5.5955-5.983-15.2 1.3562-19.53 3.2106-1.8943 3.549-2.5137 3.549-6.4952 0-2.4207 0.45-4.4012 1-4.4012s1 2.025 1 4.5c0 4.1567 0.19451 4.5 2.5497 4.5 3.801 0 8.2205 2.6549 9.9334 5.9673 1.9616 3.7933 1.9404 9.983-0.0438 12.816-3.9777 5.679-14.094 7.0612-19.345 2.6431zm13.938 0.0568c3.1602-1.6342 5.9673-6.0952 5.9673-9.4831 0-5.4619-6.2079-11.061-12.151-10.96-2.2943 0.0391-2.285 0.0747 0.40113 1.5319 3.7618 2.0408 3.4946 4.9897-0.8212 9.06l-3.5712 3.3681h3.5712c1.9642 0 3.5712 0.45 3.5712 1s-2.25 1-5 1-5-0.23505-5-0.52234 1.8508-2.5303 4.113-4.9844c2.5307-2.7455 3.8892-5.0451 3.5314-5.9777-0.78432-2.0439-3.6189-1.9174-5.2523 0.2344-1.1178 1.4726-1.3335 1.5043-1.3602 0.2-0.0175-0.8525 0.5307-2.1451 1.2182-2.8724 1.0306-1.0903 0.86414-1.1241-0.94872-0.19226-3.2458 1.6684-5.3013 5.1203-5.3013 8.9029 0 4.3993 1.4315 6.8943 5.3138 9.2615 3.8313 2.3361 7.7585 2.4813 11.719 0.4333zm-186.35-2.4893c-3.8511-1.1701-5.754-2.915-7.3544-6.7437-1.0667-2.5519-1.9464-3.2467-4.0951-3.2347-2.0781 0.0116-2.3826 0.23916-1.2655 0.94563 0.80907 0.51167 1.2075 1.1938 0.88544 1.5159-0.62411 0.62411-6.8395-2.5893-6.8502-3.5416-3e-3 -0.31063 1.5687-1.3158 3.4937-2.2338s3.5-1.2638 3.5-0.76854c0 0.49526-0.5625 1.0918-1.25 1.3257-0.6875 0.23389 0.2125 0.64345 2 0.91014 2.5969 0.38746 3.25 0.13862 3.25-1.2383 0-0.94777 1.5907-3.1198 3.5348-4.8268 9.097-7.9873 23.498 0.70171 19.001 11.464-2.2449 5.3728-8.8742 8.2414-14.85 6.4257zm9.334-2.5041c5.6844-2.9395 6.5813-8.6659 2.1365-13.641-2.4499-2.7419-3.5098-3.1824-7.6565-3.1824s-5.2066 0.44053-7.6565 3.1824c-7.6206 8.5289 2.6003 19.11 13.177 13.641zm-8.02-4.9583c0-4.4501-0.27936-5.3614-1.5-4.893-2.3484 0.90119-1.6986-0.9481 1.0314-2.935l2.4686-1.7967v7.5467c0 4.3644-0.42167 7.5467-1 7.5467-0.55 0-1-2.4609-1-5.4686zm229.21 1.2186 0.29381-7.25h3.4542c2.6889 0 3.7835 0.58378 4.9405 2.6348 1.3358 2.3679 1.3128 2.8996-0.22726 5.25-1.0845 1.6552-2.6228 2.6152-4.1905 2.6152-1.8103 0-2.477 0.5383-2.477 2 0 1.1-0.46971 2-1.0438 2-0.65611 0-0.93468-2.6928-0.75-7.25zm6.783 0.76299c0.72178-0.86969 0.96551-2.5572 0.5871-4.0649-0.48884-1.9477-1.1884-2.5009-2.8617-2.263-2.561 0.36417-3.543 4.112-1.669 6.37 1.5192 1.8305 2.3972 1.8211 3.9435-0.042zm-323.99-6.0519v-10.539l8.75 0.28894 8.75 0.28893 0.2999 5.75 0.29991 5.75 8.2001-0.0318c8.545-0.0331 8.8283-0.44755 2.7084-3.9617-0.82042-0.4711-1.2002-1.148-0.84402-1.5042 0.3562-0.35621 3.2002 1.0471 6.3199 3.1185l5.6722 3.7662-5.3282 2.7593c-2.9305 1.5176-6.0032 2.7602-6.8282 2.7613-0.825 1e-3 0.525-1.0823 3-2.4076s3.825-2.4424 3-2.4825c-0.825-0.0401-4.7625-0.34434-8.75-0.67613l-7.25-0.60326v8.2619h-18zm16 0.53893v-9h-15v18h15zm-12 5.5509c0-0.79701 1.575-2.6504 3.5-4.1187 3.8896-2.9667 4.911-7.4322 1.7-7.4322-0.99 0-2.3325 0.5325-2.9833 1.1833-0.65084 0.65084-1.5276 0.83904-1.9484 0.41824-0.94757-0.94757 2.5327-3.6016 4.7229-3.6016 4.762 0 5.1959 5.1801 0.8127 9.7024l-3.1962 3.2976h3.1962c1.7579 0 3.1962 0.45 3.1962 1s-2.025 1-4.5 1c-3.2631 0-4.5-0.39831-4.5-1.4491zm144-7.0509v-10.5h19v21h-19zm7 6.5c-1.2968-2.4232-0.30869-2.5893 2.1525-0.36199 1.4756 1.3354 2.0906 1.4051 3.3287 0.37756 2.1287-1.7666 1.8905-4.1056-0.48124-4.7258-2.3306-0.60947-2.6975-2.2898-0.5-2.2898 0.83333 0 1.5-0.88889 1.5-2 0-2.255-2.8671-2.7329-4.8-0.8-0.78182 0.78182-1.2 0.82449-1.2 0.12244 0-2.3985 2.9443-3.6689 5.6481-2.4369 2.147 0.97825 2.4926 1.6611 2.0246 4.0012-0.31038 1.5519-0.0609 3.325 0.55438 3.9403 0.82494 0.82494 0.81635 1.7823-0.0327 3.6458-1.0203 2.2393-0.92612 2.5271 0.8271 2.5271 1.8162 0 1.9786-0.69737 1.9786-8.5v-8.5h-16v17h3.0352c2.7253 0 2.9259-0.20419 1.9648-2zm-93-6c0-11.042 1.8005-12.062 2.2079-1.25l0.29206 7.75 4.25 0.3075c6.1981 0.44845 5.2038 2.1925-1.25 2.1925h-5.5zm243 3.4326c0-5.3034-0.10669-5.5359-2.25-4.9043-2.1143 0.62309-2.0867 0.50651 0.45636-1.9326 1.4885-1.4276 2.951-2.5957 3.25-2.5957 0.299 0 0.54364 3.375 0.54364 7.5 0 4.3333-0.42222 7.5-1 7.5-0.55 0-1-2.5053-1-5.5674zm24-1.9326c0-4.3333 0.42222-7.5 1-7.5s1 3.1667 1 7.5-0.42222 7.5-1 7.5-1-3.1667-1-7.5zm-284.38-0.75c0.40599-0.6875 1.8477-2.728 3.2039-4.5343 2.624-3.4952 2.4634-4.6141-1.4307-9.9657-1.4635-2.0112-1.4711-2.25-0.0718-2.25 0.86099 0 2.3629 1.35 3.3376 3s2.0126 2.9987 2.3065 2.9971c0.29391-2e-3 1.4344-1.3503 2.5344-2.9971s2.6174-2.9955 3.372-2.9971c1.0838-2e-3 1.028 0.4698-0.26526 2.2471-3.8941 5.3516-4.0548 6.4705-1.4307 9.9657 3.7623 5.0113 4.098 5.7843 2.5119 5.7843-0.78656 0-2.5006-1.5719-3.809-3.4932-1.3084-1.9212-2.6584-3.4962-3-3.5-0.3416-4e-3 -1.6916 1.5651-3 3.4863-2.1728 3.1905-6.0113 5.2246-4.2588 2.2568zm129.38-14.809c0-5.7847 0.36144-8.8356 1-8.441 0.55 0.33992 1 4.4165 1 9.059 0 4.9606-0.41231 8.441-1 8.441-0.59308 0-1-3.6863-1-9.059zm237 8.5367c0-0.28729 1.8508-2.5303 4.113-4.9844 2.5307-2.7455 3.8892-5.0451 3.5314-5.9777-0.78345-2.0416-3.6023-1.9175-5.3241 0.2344-1.3211 1.6511-1.3838 1.6431-1.1102-0.14282 0.45382-2.9623 3.1848-4.2039 6.2123-2.8245 3.6278 1.653 3.2715 4.8268-0.99354 8.8493l-3.5712 3.3681h3.5712c1.9642 0 3.5712 0.45 3.5712 1s-2.25 1-5 1-5-0.23505-5-0.52234zm-288-8.5418c-12.375-3.251-22.926-5.9166-23.446-5.9234-0.52039-7e-3 0.58039 1.5625 2.4462 3.4875s2.9836 3.5 2.484 3.5c-1.0503 0-9.484-8.0829-9.484-9.0895 0-0.3702 2.1375-1.1968 4.75-1.837 2.6125-0.64017 5.5375-1.3989 6.5-1.6861 0.9625-0.28719 1.75-0.0814 1.75 0.45732s-1.8432 1.2909-4.0959 1.6715c-2.2527 0.3806-3.7152 1.0555-3.25 1.4998 0.46525 0.44432 10.746 3.3587 22.846 6.4765 12.1 3.1177 22.428 6.0824 22.95 6.588 1.4157 1.3702 1.0098 1.2811-23.45-5.1447zm178.05 0.62941c-0.65487-0.78907-1.0475-2.9184-0.87244-4.7319 0.39811-4.125 4.795-6.2851 7.4299-3.6503 1.0762 1.0762 1.2307 1.7963 0.48428 2.2576-0.60278 0.37254-1.096 0.16949-1.096-0.45122 0-0.62072-1.0125-0.98477-2.25-0.80902-1.7019 0.24171-2.324 1.0802-2.5538 3.4419-0.36874 3.7894 2.4872 5.5312 4.5171 2.7551 0.69632-0.95229 1.5598-1.4376 1.9189-1.0786 1.119 1.119-1.7639 3.7012-4.1322 3.7012-1.2403 0-2.7909-0.6456-3.4458-1.4347zm10.153-3.0797c-1.4376-5.3752-1.5127-6.7924-0.32076-6.0557 0.48765 0.30138 1.2203 2.2404 1.6281 4.309l0.74149 3.761 1.4552-4.25c1.7678-5.1629 2.9818-5.402 3.8529-0.75875 0.7547 4.0229 1.9906 3.8114 2.9382-0.50272 0.36101-1.6437 1.1188-2.9885 1.6839-2.9885 0.56515 0 0.77932 0.64685 0.47593 1.4374-0.30338 0.7906-1.0517 3.2947-1.6629 5.5647-1.2986 4.8226-3.0011 4.7953-4.3806-0.0701l-0.97306-3.432-0.99924 3.75c-1.3357 5.0127-2.9692 4.7315-4.4391-0.76435zm80.793-5.9856c0-8.6667 0.2619-10.5 1.5-10.5 1.2281 0 1.5 1.7222 1.5 9.5v9.5h5c2.75 0 5 0.45 5 1 0 0.5641-2.8333 1-6.5 1h-6.5zm-309 0.5c0-11.042 1.8005-12.062 2.2079-1.25l0.29206 7.75 4.25 0.3075c6.1981 0.44845 5.2038 2.1925-1.25 2.1925h-5.5zm-112-2v-9h5c7.6046 0 11.371 4.5443 7.0257 8.4767-1.9168 1.7347-1.9216 1.863-0.16396 4.405 3.1075 4.4944 3.3306 5.1183 1.8302 5.1183-0.78437 0-2.6173-1.8-4.0732-4-1.9085-2.884-3.3406-4-5.1329-4-2.2334 0-2.4858 0.40609-2.4858 4 0 2.2-0.45 4-1 4-0.59259 0-1-3.6667-1-9zm10.84-3.3802c0.45049-2.3724-1.4298-3.5849-5.5898-3.6045-2.9614-0.0139-3.25 0.25623-3.25 3.0422 0 2.9777 0.11063 3.0495 4.2414 2.75 3.2154-0.23312 4.3277-0.76231 4.5984-2.1877zm252.16 0.38017v-9h5.0657c2.7862 0 5.9362 0.46583 7 1.0352 2.7258 1.4588 2.5988 6.5388-0.20084 8.0371-1.1743 0.62847-1.7151 1.4318-1.2018 1.7852 0.5133 0.35338 1.9547 2.105 3.2032 3.8925 1.7787 2.5467 1.9453 3.25 0.76992 3.25-0.825 0-2.5215-1.4625-3.7699-3.25-2.7054-3.8736-3.7916-4.7144-6.1163-4.7347-1.3776-0.0121-1.75 0.836-1.75 3.9847 0 2.8889-0.41667 4-1.5 4-1.2222 0-1.5-1.6667-1.5-9zm11.643-2.5127c0.91121-2.3746-1.568-4.4873-5.2657-4.4873-3.0862 0-3.3776 0.25881-3.3776 3 0 2.8372 0.21874 3 4.0314 3 2.676 0 4.2266-0.50858 4.6119-1.5127zm-178.9 4.7627c4.5061-5.7944 4.5447-5.9994 1.8072-9.5885-2.8793-3.7749-3.121-4.6615-1.271-4.6615 0.70642 0 2.1307 1.4326 3.165 3.1836l1.8806 3.1836 2.6578-3.1836c3.9483-4.7294 5.7248-3.9174 2.1284 0.97292l-3.0568 4.1566 3.5554 4.8434c4.2544 5.7956 2.2081 6.9223-2.1633 1.1912l-2.7857-3.6523-2.93 3.6523c-1.6115 2.0088-3.5991 3.6523-4.417 3.6523-1.062 0-0.65344-1.0719 1.4292-3.75zm310.25-7.75v-11.5h-4c-2.8889 0-4-0.41667-4-1.5 0-1.2333 1.7778-1.5 10-1.5s10 0.26666 10 1.5c0 1.0833-1.1111 1.5-4 1.5h-4v11.5c0 10.833-0.11594 11.5-2 11.5s-2-0.66667-2-11.5zm36.75 10.777c1.7875-0.22182 4.7125-0.22182 6.5 0 1.7875 0.22183 0.325 0.40333-3.25 0.40333s-5.0375-0.1815-3.25-0.40333zm-464.75-1.9357c0-0.36252 1.7505-2.9776 3.8899-5.8113l3.8899-5.1522-3.3649-4.4387c-3.7658-4.9675-4.0812-5.9387-1.9292-5.9387 0.8172 0 2.677 1.8 4.1329 4s2.7511 4 2.8782 4c0.12711 0 1.4785-1.8 3.0031-4s3.3858-4 4.136-4c1.979 0 1.7483 0.61666-2.1311 5.6974l-3.4951 4.5774 3.297 4.6126c4.9438 6.9166 5.0286 7.1165 3.0023 7.0804-1.002-0.0179-3.2022-2.0655-4.9321-4.5902l-3.1231-4.558-3.2965 4.5902c-2.8478 3.9656-5.9574 6.0175-5.9574 3.9311zm266.19-6.8667c1.8217-2.4892 3.7266-5.1366 4.2332-5.883 0.64544-0.951-0.203-2.8884-2.8352-6.4742-3.1211-4.2518-3.4459-5.1134-1.9211-5.0957 1.0093 0.0117 3.1196 1.8365 4.6896 4.055l2.8544 4.0337 2.9821-4.055c1.6402-2.2303 3.6447-4.055 4.4546-4.055 1.6952 0 1.291 0.86479-2.957 6.3254l-2.9759 3.8254 4.1782 5.9246c3.4624 4.9096 3.8626 5.9246 2.3362 5.9246-1.0535 0-3.2356-1.9771-5.0977-4.6189l-3.2557-4.6189-3.1868 4.609c-1.7933 2.5936-3.9792 4.6133-4.9989 4.6189-1.5265 8e-3 -1.29-0.70357 1.5-4.5159zm201.98-2.7915c-0.16011-5.541-0.27501-5.7845-2.4181-5.1258-2.2214 0.68283-2.2183 0.65714 0.25-2.0244l2.5-2.716 0.30879 4.1182c0.16983 2.265 0.13298 5.7938-0.0819 7.8418-0.28257 2.6931-0.4372 2.1137-0.55879-2.0938zm-243.17-6.7416c0-5.7847 0.36144-8.8356 1-8.441 0.55 0.33991 1 4.4165 1 9.059 0 4.9606-0.41231 8.441-1 8.441-0.59308 0-1-3.6863-1-9.059zm127.05 6.6243c-0.65487-0.78907-1.0475-2.9184-0.87244-4.7319 0.39811-4.125 4.795-6.2851 7.4299-3.6503 1.0762 1.0762 1.2307 1.7963 0.48428 2.2576-0.60278 0.37254-1.096 0.16949-1.096-0.45122 0-0.62072-1.0125-0.98477-2.25-0.80902-1.7019 0.24171-2.324 1.0802-2.5538 3.4419-0.36874 3.7894 2.4872 5.5312 4.5171 2.7551 0.69632-0.95229 1.5598-1.4376 1.9189-1.0786 1.119 1.119-1.7639 3.7012-4.1322 3.7012-1.2403 0-2.7909-0.6456-3.4458-1.4347zm9.9458-6.1243c0-4.7847 0.36702-7.3322 1-6.941 0.55 0.33991 1 1.3967 1 2.3484 0 1.2306 0.7943 1.719 2.75 1.691 2.656-0.0381 2.7544 0.14859 2.8803 5.4606 0.12848 5.4238 0.12155 5.4376-0.5 1-0.51435-3.6723-1.0442-4.5588-2.8803-4.8196-2.0517-0.29139-2.25 0.0832-2.25 4.25 0 2.5132-0.45 4.5696-1 4.5696-0.57847 0-1-3.1863-1-7.559zm10.99 6.0474c-1.6389-1.9748 0.19124-4.2548 3.7557-4.679 1.4298-0.17015 2.8073-0.94054 3.061-1.712 0.36237-1.1018-0.33561-1.2733-3.2541-0.79969-3.1694 0.51433-3.5385 0.38981-2.5118-0.84738 1.46-1.7592 5.1146-1.8945 6.7588-0.25031 0.66 0.66 1.2 3.0612 1.2 5.3361 0 4.1126-0.022 4.1369-3.8872 4.2884-2.3812 0.0933-4.3658-0.42433-5.1224-1.3361zm5.8096-0.68838c0.66-0.66 1.2-1.56 1.2-2 0-1.3137-3.6676-0.90543-4.8689 0.54201-1.9969 2.4061 1.3792 3.7477 3.6689 1.458zm5.6937 1.1898c-1.0571-1.7104 0.26711-2.4332 1.9298-1.0533 1.0399 0.86301 2.0008 0.92286 3.2742 0.20392 1.5834-0.89393 1.3467-1.209-1.9476-2.5924-5.9947-2.5175-3.9493-8.0156 2.25-6.048 3.151 1.0001 2.3314 2.5163-1 1.85-3.9749-0.79498-3.9191 1.134 0.073 2.5256 2.3959 0.8352 3.0018 1.5729 2.75 3.3478-0.24648 1.737-1.071 2.3492-3.4792 2.5829-1.7359 0.1685-3.4684-0.19894-3.8501-0.81653zm10.541-0.92409c-1.5434-2.8839-1.2574-5.5546 0.79356-7.4108 2.2967-2.0785 4.5761-2.1073 6.5998-0.0836 2.8151 2.8151 1.9302 4.4286-2.4286 4.4286-4.2344 0-4.9902 0.93334-2.4576 3.0352 1.1683 0.96957 1.8232 0.99927 2.7 0.12245 0.63669-0.63669 1.7977-1.1576 2.5801-1.1576 1.151 0 1.1849 0.28623 0.17756 1.5-1.8053 2.1752-6.7114 1.9077-7.9648-0.43426zm6.9648-5.0971c0-0.56727-0.675-1.2904-1.5-1.607-2.0027-0.76852-4.7866 0.3656-4.0044 1.6313 0.81898 1.3251 5.5044 1.3044 5.5044-0.0243zm-304.62-2.1628c-0.23452-0.38181 1.7221-0.83181 4.3481-1l4.7745-0.30579-17.72-9.2367c-15.486-8.0725-18.047-9.1123-20.315-8.25-4.3506 1.6541-6.517 1.1347-10.065-2.4133-2.7873-2.7873-3.4-4.1569-3.4-7.6 0-3.4727 0.61069-4.8107 3.5265-7.7265 3.1191-3.1191 3.9505-3.4577 7.1962-2.931 7.2243 1.1724 11.233 9.03 7.9575 15.597l-1.5532 3.1134 16.925 8.4737c9.3089 4.6606 17.192 8.4738 17.518 8.4738s-0.39536-1.5987-1.603-3.5526c-3.5886-5.8064-1.5806-4.9444 2.3809 1.0221 2.0084 3.0248 3.6516 5.6932 3.6516 5.9298 0 0.74315-13.174 1.1363-13.623 0.4065zm-27.023-22.258c5.7464-5.3256 2.042-15.548-5.6342-15.548-5.7748 0-10.537 7.7355-7.8518 12.753 1.0212 1.9081 1.2497 1.8309 5.1006-1.7242 4.2852-3.9561 5.4172-8.0291 2.2315-8.0291-0.99 0-2.3325 0.5325-2.9833 1.1833-0.65084 0.65083-1.5276 0.83904-1.9484 0.41824-0.94757-0.94757 2.5327-3.6016 4.7229-3.6016 4.762 0 5.1959 5.1801 0.8127 9.7024l-3.1962 3.2976h3.1962c1.7579 0 3.1962 0.45 3.1962 1s-1.8266 1-4.059 1c-2.4514 0-3.8142 0.39607-3.441 1 1.2042 1.9484 7.1264 1.0756 9.854-1.4523zm293 10.856c-0.0793-1.3222 0.25818-2.404 0.75-2.404 1.0806 0 1.2031 3.6913 0.14421 4.345-0.4125 0.25468-0.8149-0.61876-0.89421-1.941zm-118.36-3.904v-4.5h-12v-23h25v23h-11v4.5c0 2.475-0.45 4.5-1 4.5s-1-2.025-1-4.5zm11.785-16.25 0.28499-10.25h-22.07v20.953l10.75-0.22626 10.75-0.22626zm-16.805 5.2258c-1.7655-2.1273-0.43333-3.0721 1.5439-1.0949 2.0791 2.0791 3.1866 2.0454 4.3059-0.13095 1.1288-2.1947 0.44541-4.25-1.413-4.25-1.9142 0-1.7835-1.0085 0.33333-2.5724 1.4202-1.0493 1.5097-1.5365 0.47504-2.5852-1.0422-1.0564-1.6533-1.056-3.3474 2e-3 -2.6383 1.6476-3.4721 0.89299-1.3538-1.2253 3.2632-3.2632 6.6798-1.3277 7.137 4.0432 0.5682 6.6752 0.4705 7.6381-0.86068 8.4824-2.0751 1.3162-5.4471 0.98553-6.8202-0.66888zm42.152 12.293c-0.10921-3.0952-0.55817-3.838-2.6346-4.3591-3.1325-0.78621-7.1242-5.4357-7.969-9.2824-1.5026-6.8411 5.076-14.116 12.772-14.124 7.7115-8e-3 12.7 4.9906 12.7 12.724 0 6.0208-3.54 9.8083-10.5 11.234-2.4619 0.50428-3.1109 1.2354-3.6184 4.0764l-0.61836 3.4618zm7.9011-6.286c7.9506-4.1114 7.6122-15.051-0.5859-18.941-7.5219-3.5694-16.447 1.4482-16.447 9.2464 0 8.3658 9.3316 13.677 17.033 9.6949zm-7.7827-5.1454c-1.268-0.51166-1.7847-3.3377-0.61024-3.3377 0.35186 0 1.1512 0.69949 1.7764 1.5544 1.4892 2.0365 4.5839 0.85166 4.5839-1.755 0-1.1852-0.8581-2.211-2.1271-2.5429l-2.1271-0.55624 2.2709-1.7129c1.2613-0.9514 1.9584-2.2185 1.568-2.8501-0.94391-1.5273-4.3067-1.4493-4.8646 0.11279-0.24554 0.6875-0.79716 0.92337-1.2258 0.52416-1.1159-1.0392 1.4244-3.7742 3.5056-3.7742 2.4227 0 4.3424 2.5826 3.7119 4.9937-0.28828 1.1024-0.11639 2.2563 0.38198 2.5643 1.3049 0.80646 1.1153 4.8328-0.29388 6.242-1.2133 1.2133-4.2566 1.4631-6.55 0.53772zm35.036 10.162c8e-3 -2.75 0.20172-3.7563 0.43157-2.2362 0.22986 1.5201 0.22371 3.7701-0.0136 5-0.23741 1.2299-0.42547-0.01375-0.41797-2.7638zm33.714 2.0509c0-0.79701 1.575-2.6504 3.5-4.1187 3.8896-2.9667 4.911-7.4322 1.7-7.4322-0.99 0-2.3325 0.5325-2.9833 1.1833-0.65084 0.65083-1.5276 0.83904-1.9484 0.41824-0.94757-0.94757 2.5327-3.6016 4.7229-3.6016 4.762 0 5.1959 5.1801 0.8127 9.7024l-3.1962 3.2976h3.1962c1.7579 0 3.1962 0.45 3.1962 1s-2.025 1-4.5 1c-3.2631 0-4.5-0.39831-4.5-1.4491zm17.98-0.07506c-1.7655-2.1273-0.43333-3.0721 1.5439-1.0949 2.0791 2.0791 3.1866 2.0454 4.3059-0.13095 1.1288-2.1947 0.44541-4.25-1.413-4.25-1.9142 0-1.7835-1.0085 0.33333-2.5724 1.4202-1.0493 1.5097-1.5365 0.47504-2.5852-1.0422-1.0564-1.6533-1.056-3.3474 2e-3 -2.6383 1.6476-3.4721 0.89299-1.3538-1.2253 3.2632-3.2632 6.6798-1.3277 7.137 4.0432 0.5682 6.6752 0.4705 7.6381-0.86068 8.4824-2.0751 1.3162-5.4471 0.98553-6.8202-0.66888zm-193.98-0.47583c0-0.55 0.45-1 1-1s1 0.45 1 1-0.45 1-1 1-1-0.45-1-1zm6-8c0-11.042 1.8005-12.062 2.2079-1.25l0.29206 7.75 4.25 0.3075c6.1981 0.44845 5.2038 2.1925-1.25 2.1925h-5.5zm24.117 4.3693c-1.2805-0.89688-2.9616-3.1469-3.7359-5-1.3692-3.277-1.565-3.3685-7.1444-3.3381l-5.7366 0.03121 3.7593 2.3114c7.8576 4.8312 5.7582 5.0351-2.6327 0.25567l-5.8735-3.3455 5.8286-3.1569c3.2058-1.7363 6.2988-2.9962 6.8735-2.7998 0.57466 0.1964-0.86767 1.3373-3.2052 2.5353-2.3375 1.198-4.25 2.394-4.25 2.6579s2.469 0.47968 5.4866 0.47968c5.2846 0 5.5384-0.12402 6.8944-3.3693 3.8296-9.1654 15.472-8.6651 18.596 0.79919 2.1126 6.4011-2.894 13.57-9.4769 13.57-1.6802 0-4.1026-0.73381-5.3831-1.6307zm10.96-2.2924c2.9937-2.9937 3.9097-7.9707 2.0171-10.959-1.2824-2.0248-2.4824 2.2673-1.2845 4.5944 2.4065 4.6751-4.4439 8.843-7.8295 4.7636-1.7655-2.1273-0.43333-3.0721 1.5439-1.0949 2.0791 2.0791 3.1866 2.0454 4.3059-0.13095 1.1288-2.1947 0.44541-4.25-1.413-4.25-1.9142 0-1.7835-1.0085 0.33333-2.5724 1.4202-1.0493 1.5097-1.5365 0.47504-2.5852-1.0422-1.0564-1.6533-1.056-3.3474 2e-3 -1.1398 0.71184-2.2291 1.1375-2.4207 0.946-0.5913-0.5913 0.9437-2.4049 3.043-3.5954 1.8539-1.0513 1.7935-1.1364-0.82692-1.1645-4.2891-0.0462-8.4731 4.6299-8.4731 9.4696 0 2.895 0.70235 4.5562 2.8231 6.6769 3.6902 3.6902 7.2963 3.6575 11.054-0.1zm8.9231-5.1359c0-5.7847 0.36144-8.8356 1-8.441 0.55 0.33992 1 4.4165 1 9.059 0 4.9607-0.41231 8.441-1 8.441-0.59308 0-1-3.6863-1-9.059zm-102-3.441v-10.5h18v21h-18zm9 2.9326c0-5.3034-0.10669-5.5359-2.25-4.9043-2.1143 0.62309-2.0867 0.50651 0.45636-1.9326 1.4885-1.4276 2.951-2.5957 3.25-2.5957 0.299 0 0.54364 3.375 0.54364 7.5v7.5h6.0779l-0.28894-8.75-0.28893-8.75h-15l-0.28893 8.75-0.28894 8.75h8.0779zm316 2.0988c0-4.4501-0.27936-5.3614-1.5-4.893-2.3484 0.90118-1.6986-0.9481 1.0314-2.9351l2.4686-1.7967v7.5467c0 4.3645-0.42167 7.5467-1 7.5467-0.55 0-1-2.4609-1-5.4686zm-291.38 1.2186c0.40599-0.6875 1.8477-2.7279 3.2039-4.5343 2.624-3.4952 2.4634-4.6141-1.4307-9.9657-1.4635-2.0112-1.4711-2.25-0.0718-2.25 0.86099 0 2.3629 1.35 3.3376 3s2.0126 2.9987 2.3065 2.9971c0.29391-0.0016 1.4344-1.3503 2.5344-2.9971 1.1-1.6468 2.6174-2.9956 3.372-2.9971 1.0838-2e-3 1.028 0.4698-0.26526 2.2471-3.8941 5.3516-4.0548 6.4705-1.4307 9.9657 3.7623 5.0113 4.098 5.7843 2.5119 5.7843-0.78656 0-2.5006-1.5719-3.809-3.4932-1.3084-1.9212-2.6584-3.4962-3-3.5-0.3416-0.0038-1.6916 1.5651-3 3.4863-2.1728 3.1905-6.0113 5.2246-4.2588 2.2568zm151.38-10.75v-12.062l12.25 0.28078 12.25 0.28078v23l-12.25 0.28078-12.25 0.28078zm23 0v-10h-22v20h22zm-13.832 1.6826c-0.16011-5.541-0.27501-5.7845-2.4181-5.1258-2.2214 0.68282-2.2183 0.65714 0.25-2.0244l2.5-2.716 0.30879 4.1182c0.16983 2.265 0.13298 5.7938-0.0819 7.8418-0.28257 2.6931-0.4372 2.1137-0.55879-2.0938zm-142.17 6.8174c0-0.825 0.45-1.5 1-1.5s1 0.675 1 1.5-0.45 1.5-1 1.5-1-0.675-1-1.5zm-28-0.2818c0-0.49344 1.2375-1.527 2.75-2.2968l2.75-1.3997-4.75-0.31565c-2.6125-0.17361-4.75-0.741-4.75-1.2609s2.1375-0.95718 4.75-0.97182l4.75-0.02661-2.75-1.705c-4.8387-3-2.94-3.4639 2.249-0.54946 2.7494 1.5442 4.999 3.0327 4.999 3.3077s-2.2496 1.7635-4.999 3.3077-4.999 2.404-4.999 1.9105zm204.04-5.3132c-0.0839-5.5625 1.4451-5.9036 26.54-5.9197 16.201-0.0104 23.626-0.37688 25.325-1.25 3.717-1.9102 6.2655-6.056 6.8364-11.121 0.5567-4.939 2.26-6.3936 2.26-1.93 0 4.1448 3.874 11.199 7.0528 12.843 2.2609 1.1691 7.5477 1.4759 25.648 1.488 12.54 8e-3 23.295 0.34592 23.9 0.75 1.3107 0.87518 3.3997 4.6658 3.3997 6.1689 0 2.2908-1.7816 0.90763-2.324-1.8043-0.37586-1.8793-1.3683-3.0828-2.875-3.4863-1.2655-0.33897-12.329-0.62246-24.586-0.62997-24.819-0.0152-25.739-0.22946-29.1-6.7807l-1.779-3.4677-2.0909 3.5438c-3.9399 6.6776-4.6442 6.8432-28.633 6.7312-11.838-0.0553-22.716 0.19872-24.173 0.56442-1.662 0.41712-3.1546 1.8259-4.0052 3.7802-1.3323 3.061-1.3566 3.0701-1.3951 0.52024zm-350.04-8.4273c0-0.28729 1.8508-2.5303 4.113-4.9844 2.5307-2.7455 3.8892-5.0451 3.5314-5.9777-0.78345-2.0416-3.6023-1.9175-5.3241 0.2344-1.3211 1.6511-1.3838 1.643-1.1102-0.14282 0.45382-2.9623 3.1848-4.204 6.2123-2.8245 3.6278 1.653 3.2715 4.8268-0.99354 8.8493l-3.5712 3.3681h3.5712c1.9642 0 3.5712 0.45 3.5712 1s-2.25 1-5 1-5-0.23506-5-0.52235zm23-5.045c0-5.3034-0.10669-5.536-2.25-4.9043-2.1143 0.62309-2.0867 0.50651 0.45636-1.9326 1.4885-1.4276 2.951-2.5957 3.25-2.5957 0.299 0 0.54364 3.375 0.54364 7.5 0 4.3333-0.42222 7.5-1 7.5-0.55 0-1-2.5053-1-5.5674zm12.98 4.0432c-1.7655-2.1273-0.43333-3.0721 1.5439-1.0949 2.0791 2.0791 3.1866 2.0454 4.3059-0.13095 1.1288-2.1947 0.44541-4.25-1.413-4.25-1.9142 0-1.7835-1.0085 0.33333-2.5724 1.4202-1.0493 1.5097-1.5365 0.47504-2.5852-1.0422-1.0564-1.6533-1.056-3.3474 2e-3 -2.6383 1.6476-3.4721 0.89299-1.3538-1.2253 3.2632-3.2632 6.6798-1.3277 7.137 4.0432 0.5682 6.6752 0.4705 7.6381-0.86068 8.4824-2.0751 1.3162-5.4471 0.98553-6.8202-0.66888zm12.02-2.3604c0-0.89778 3.0049-2.4439 3.5976-1.8512 0.17127 0.17127-0.56814 0.86067-1.6431 1.532-1.075 0.67134-1.9545 0.81495-1.9545 0.31913zm22.75-2.864c10.038-0.16311 26.462-0.16311 36.5 0 10.038 0.16312 1.825 0.29657-18.25 0.29657s-28.288-0.13345-18.25-0.29657zm411.75-33.751v-17l-348.25-0.25142-348.25-0.25142v34.996l348.25-0.24669 348.25-0.2467zm-682.67 1.3704 0.33029-8.1343-2.5803 0.49325c-1.4192 0.27129-2.5803 0.10566-2.5803-0.36808 0-0.47373 3.15-0.86132 7-0.86132 5.9216 0 7 0.2619 7 1.7 0 1.3222-0.26667 1.4333-1.2 0.5-0.66-0.66-2.0443-1.2-3.0761-1.2-1.7057 0-1.8465 0.72686-1.55 8.0024 0.30341 7.4444 0.1867 8.0023-1.6739 8.0023-1.8632 0-1.9774-0.55657-1.6697-8.1343zm11.97 6.9296c0.67104-0.67104 1.2-3.8889 1.2-7.3s-0.52896-6.629-1.2-7.3c-0.93333-0.93334-0.64968-1.2 1.2764-1.2 2.2861 0 2.4471 0.30746 2.095 4l-0.38146 4h4.105c4.0057 0 4.105-0.0827 4.105-3.4167 0-1.8792-0.5625-3.6436-1.25-3.921-0.6875-0.27742 0.325-0.50439 2.25-0.50439 1.925 0 2.9375 0.22697 2.25 0.50439-0.84051 0.33915-1.25 2.9067-1.25 7.8377 0 4.931 0.40949 7.4986 1.25 7.8377 0.6875 0.27741-0.325 0.50438-2.25 0.50438-1.925 0-2.9375-0.22697-2.25-0.50438 0.6875-0.27742 1.25-2.0419 1.25-3.9211 0-3.3194-0.11382-3.4167-4-3.4167s-4 0.0972-4 3.4167c0 1.8792 0.5625 3.6436 1.25 3.9211 0.6875 0.27741-0.3025 0.53991-2.2 0.58333-2.6833 0.0614-3.1833-0.18772-2.25-1.121zm18.034 0.32383c0.97312-0.61686 1.2436-2.9122 1-8.487l-0.33387-7.6415 5.75 2e-3c4.7442 2e-3 5.75 0.29973 5.75 1.7024 0 1.3222-0.26667 1.4333-1.2 0.5-0.66-0.66-2.7135-1.2-4.5634-1.2-3.1922 0-3.3474 0.16541-3.05 3.25 0.28654 2.9719 0.59143 3.2374 3.5634 3.1026 1.9382-0.0879 3.25 0.33555 3.25 1.0492 0 0.78336-1.2337 1.0526-3.5722 0.77962-3.5215-0.41112-3.5676-0.36932-3.25 2.9508 0.28288 2.9573 0.70299 3.4049 3.4467 3.6718 1.9975 0.19435 3.7809-0.34672 4.944-1.5 1.7537-1.7388 1.7944-1.7378 1.1254 0.0278-0.38172 1.0075-0.69404 2.02-0.69404 2.25 0 0.23002-3.0375 0.41133-6.75 0.4029-4.0686-9e-3 -6.2201-0.3512-5.4161-0.86085zm21.166-0.62383c0-1.827 1.164-1.9282 2.8726-0.25 1.0288 1.0105 1.2108-0.33133 0.95-7.0024-0.30082-7.6938-0.1873-8.2522 1.6774-8.2501 1.8624 2e-3 1.9652 0.50113 1.495 7.2523-0.27772 3.9876-0.86678 7.8126-1.309 8.5001-1.1536 1.7934-5.686 1.5941-5.686-0.25zm11.5-7c0-7.8326 0.15704-8.5002 2-8.5023 1.8548-2e-3 1.9758 0.55243 1.6661 7.6392-0.24358 5.5748 0.0269 7.8702 1 8.487 0.8997 0.57032 0.35738 0.85053-1.6661 0.86085l-3 0.0153zm10.009 6.0999c-5.0578-5.0578-1.4711-14.842 5.3228-14.521 1.369 0.0648 1.3991 0.17789 0.16821 0.63049-3.2918 1.2104-5 3.678-5 7.223 0 5.2497 2.3268 8.0675 6.6617 8.0675 3.5366 0 3.5471-0.0132 3.1669-4-0.30068-3.1529-0.044-4 1.2122-4 1.2972 0 1.4881 0.79059 1.0264 4.25l-0.56723 4.25-4.741 0.30442c-3.9608 0.25432-5.154-0.1085-7.25-2.2045zm23.325 1.524c0.97312-0.61686 1.2436-2.9122 1-8.487-0.30963-7.0867-0.18867-7.6413 1.6661-7.6392 1.843 2e-3 2 0.66977 2 8.5023v8.5l-3-0.0153c-2.0235-0.0103-2.5658-0.29054-1.6661-0.86085zm8.1661-1.2788c0-2.0608 0.0839-2.0791 1.9175-0.41964 2.3372 2.1151 6.4394 1.7184 6.8939-0.66681 0.21617-1.1342-0.92246-2.4815-3.2656-3.864-4.532-2.6739-5.9872-5.2012-4.5458-7.8945 1.4337-2.6788 9-2.931 9-0.3 0 1.3222-0.26667 1.4333-1.2 0.5-1.532-1.532-5.4631-1.5542-6.4012-0.0362-0.4215 0.682 0.48551 2.1079 2.191 3.4444 5.0111 3.927 7.4102 6.2854 7.4102 7.2846 0 2.2911-3.3478 4.1072-7.5714 4.1072-3.8681 0-4.4286-0.27275-4.4286-2.155zm24.001 1.1768c-1.0305-0.65145-1.6555-3.3029-2-8.4848-0.49649-7.4684-0.47869-7.5372 1.9489-7.5371 1.9056 8e-5 2.1833 0.26676 1.25 1.2001-1.4457 1.4457-1.5785 8.6743-0.22475 12.235 0.73768 1.9402 1.6822 2.5651 3.8776 2.5651 4.325 0 5.3697-1.9826 4.9844-9.4596-0.30975-6.0116-0.17435-6.538 1.6628-6.4635 1.1 0.0446 1.4375 0.30801 0.75 0.58543-0.81567 0.32913-1.25 2.7091-1.25 6.8496 0 4.4351-0.47306 6.8183-1.5714 7.9167-1.7356 1.7356-7.0876 2.0724-9.4275 0.59325zm15.833 0.10201c0.97312-0.61686 1.2436-2.9122 1-8.487l-0.33387-7.6415 3.3157 2e-3c4.8699 3e-3 7.1843 1.5918 7.1843 4.9306 0 3.0157-1.4477 4.0718-5.5818 4.0718-2.0858 0-2.4182 0.4697-2.4182 3.4167 0 1.8792 0.5625 3.6436 1.25 3.9211 0.6875 0.27741-0.325 0.53302-2.25 0.56802-2.2736 0.0413-3.0326-0.23263-2.1661-0.78191zm8.4187-9.9818c0.67455-2.5795-0.97114-5.142-3.3023-5.142-1.5623 0-1.9503 0.69639-1.9503 3.5 0 3.021 0.32619 3.5 2.3834 3.5 1.4816 0 2.5672-0.70296 2.8692-1.858zm326.55 9.658c1.5664-1.5664 1.5664-13.034 0-14.6-0.93333-0.93334 0.0768-1.2 4.5454-1.2 7.1535 0 10.655 2.7931 10.655 8.5 0 5.7069-3.5011 8.5-10.655 8.5-4.4687 0-5.4788-0.26667-4.5454-1.2zm9.9775-1.3567c1.7223-1.2064 2.2225-2.5439 2.2225-5.9433 0-4.8158-2.4059-7.5-6.7225-7.5-2.1675 0-2.2775 0.36206-2.2775 7.5 0 7.1379 0.10995 7.5 2.2775 7.5 1.2526 0 3.2776-0.70052 4.5-1.5567zm8.2225 1.5567c0-0.55 0.70156-1 1.559-1s1.2809 0.45 0.94098 1-1.0415 1-1.559 1-0.94098-0.45-0.94098-1zm12.75 0.33772c0.82968-0.33479 1.25-2.8135 1.25-7.3714 0-5.485-0.35218-7.0721-1.75-7.8862-1.5254-0.88849-1.4292-1.0221 0.75-1.0415 1.8784-0.0167 3.7433 1.5299 7.5 6.2196l5 6.2418 0.30765-5.4054c0.20758-3.6472-0.11767-5.6751-1-6.2347-0.94559-0.5997-0.75389-0.83421 0.69235-0.84698 1.874-0.0165 1.9791 0.53394 1.6689 8.7347l-0.33108 8.7523-2.6689-3.0203c-1.4679-1.6612-4.1163-4.8112-5.8854-7l-3.2165-3.9797-0.0335 6.1667c-0.0219 4.0248 0.40064 6.3419 1.2165 6.6711 0.6875 0.27741-0.1 0.50438-1.75 0.50438s-2.4375-0.22697-1.75-0.50438zm19.45-0.53772c-1.7116-1.7116-1.4838-7.3734 0.37143-9.2286 1.8715-1.8715 4.5677-2.0323 6.2286-0.37143 2.3665 2.3665 1.3224 3.8-2.7678 3.8-3.6982 0-3.9104 0.15285-3.1234 2.25 0.62185 1.6572 1.646 2.2487 3.8867 2.2452 2.3271-4e-3 2.7976 0.29022 2.001 1.25-1.3211 1.5919-5.0287 1.6227-6.5965 0.0548zm5.1428-8.3491c-0.68043-1.7732-3.4712-1.5693-4.0933 0.2991-0.26043 0.78218 0.53889 1.25 2.1358 1.25 1.8935 0 2.3986-0.3997 1.9575-1.5491zm7.1048 4.3271c-1.0712-2.8721-2.0975-5.5721-2.2809-6-0.18334-0.42789 0.37916-0.77797 1.25-0.77797 0.87083 0 1.5993 0.7875 1.6188 1.75 0.0195 0.9625 0.65524 2.8698 1.4128 4.2384l1.3774 2.4884 1.2342-2.7088c0.98547-2.1629 0.97837-3.0171-0.0352-4.2384-1.0716-1.2911-0.93856-1.5296 0.85294-1.5296 1.5504 0 2.1224 0.62226 2.1224 2.3089 0 1.2699 0.60692 3.1389 1.3487 4.1534 1.258 1.7204 1.4254 1.6245 2.488-1.4237 0.62662-1.7975 0.89314-3.6665 0.59227-4.1534-0.30088-0.48682 0.13155-0.88513 0.96095-0.88513 1.3334 0 1.3264 0.43428-0.0598 3.75-0.8623 2.0625-2.0013 4.875-2.531 6.25l-0.96319 2.5-1.869-3.5-1.869-3.5-1.2682 3.25c-0.69753 1.7875-1.5307 3.25-1.8514 3.25s-1.4596-2.3499-2.5308-5.222zm17.052-0.26692c0-3.4687 0.46008-5.6655 1.25-5.9686 0.89231-0.34241 1.25 0.88489 1.25 4.2889 0 2.6227 0.54 5.3086 1.2 5.9686 0.93333 0.93333 0.65556 1.2-1.25 1.2-2.3024 0-2.45-0.33061-2.45-5.489zm8.1457 4.7246c-1.0376-1.6788-0.93281-10.896 0.14494-12.755 1.0099-1.7419 1.1522-1.7698 1.179-0.23102 0.0167 0.9625 0.53551 1.75 1.1528 1.75 0.79985 0 0.78131 0.41105-0.0645 1.4302-1.6108 1.941-0.98196 9.1578 0.76641 8.795 0.72838-0.15113 1.0393 0.18637 0.69098 0.75-0.74145 1.1997-3.1874 1.3643-3.8696 0.26047zm7 0c-1.0376-1.6788-0.93281-10.896 0.14494-12.755 1.0099-1.7419 1.1522-1.7698 1.179-0.23102 0.0167 0.9625 0.53551 1.75 1.1528 1.75 0.79985 0 0.78131 0.41105-0.0645 1.4302-1.6108 1.941-0.98196 9.1578 0.76641 8.795 0.72838-0.15113 1.0393 0.18637 0.69098 0.75-0.74145 1.1997-3.1874 1.3643-3.8696 0.26047zm41.897-0.1666c-0.31644-0.51199-0.14909-1.1943 0.37188-1.5163 0.52097-0.32197 1.2299-0.12807 1.5753 0.4309 1.6264 2.6317 2.5101 0.37852 2.5101-6.4004 0-4.9977-0.4077-7.5812-1.25-7.921-0.6875-0.27742-0.125-0.54093 1.25-0.58559 2.4742-0.0804 2.4965-6e-3 2.1607 7.171-0.18663 3.9887-0.80423 7.8148-1.3724 8.5023-1.2105 1.4646-4.417 1.6596-5.2455 0.31909zm16.457-6e-3c0-0.51542 1.5284-0.68911 3.3964-0.38597 2.9097 0.47218 3.5011 0.22127 4.127-1.7508 0.54101-1.7045 0.19647-2.7345-1.3276-3.9686-1.9198-1.5545-1.9463-1.7786-0.39398-3.3308 2.1465-2.1465 0.40177-5.2398-2.7515-4.8782-1.2364 0.14181-1.9016-0.1802-1.5495-0.75 0.3394-0.54918 1.9102-0.9985 3.4907-0.9985 3.0817 0 5.1154 3.293 3.2102 5.1982-0.66248 0.66248-0.4621 1.9286 0.59737 3.7746 1.47 2.5614 1.4602 2.9823-0.12553 5.4025-1.3104 1.9999-2.5474 2.6247-5.1967 2.6247-1.9123 0-3.477-0.42171-3.477-0.93713zm15.963-2.674c3.6468-4.1535 5.2329-7.7138 4.4016-9.8802-0.70156-1.8282-4.4632-1.983-6.2874-0.25868-1.0913 1.0316-1.1201 0.85684-0.16481-1 2.1618-4.2018 9.0872-2.2145 9.0872 2.6077 0 0.54403-1.572 3.0486-3.4934 5.5657l-3.4934 4.5766h3.4934c1.9214 0 3.4934 0.45 3.4934 1s-2.2966 1-5.1036 1h-5.1036zm-563.96-10.421c0-0.56772-1.0125-1.4392-2.25-1.9366-2.1628-0.86933-2.1434-0.90685 0.5-0.96778 2.1045-0.0485 2.75 0.4061 2.75 1.9366 0 1.1-0.225 2-0.5 2s-0.5-0.4645-0.5-1.0322zm475.55-1.8824c-0.32198-0.52097-0.15917-1.2106 0.3618-1.5326 0.52097-0.32197 1.2106-0.15916 1.5326 0.36181 0.32198 0.52096 0.15917 1.2106-0.3618 1.5326s-1.2106 0.15916-1.5326-0.3618z"/>
</svg>
