<?xml version="1.0" standalone="no"?>
<!DOCTYPE svg PUBLIC "-//W3C//DTD SVG 1.1//EN"
"http://www.w3.org/Graphics/SVG/1.1/DTD/svg11.dtd">
<!-- Creator: fig2dev Version 3.2 Patchlevel 5e -->
<!-- CreationDate: Mon Nov  5 16:34:01 2018 -->
<!-- Magnification: 1.050 -->
<svg	xmlns="http://www.w3.org/2000/svg"
	xmlns:xlink="http://www.w3.org/1999/xlink"
	viewBox="-23 -23 6140 2975">
<g style="stroke-width:.025in; fill:none">
<!-- Text -->
<text xml:space="preserve" x="2456" y="1937" fill="#000000"  font-family="Helvetica" font-style="normal" font-weight="bold" font-size="114" text-anchor="middle">2 1</text>
<!-- Line -->
<polyline points="4062,1181
4062,1133
" style="stroke:#000000;stroke-width:16;
stroke-linejoin:miter; stroke-linecap:round;
"/>
<!-- Text -->
<text xml:space="preserve" x="4062" y="1322" fill="#000000"  font-family="Helvetica" font-style="normal" font-weight="bold" font-size="114" text-anchor="middle">2</text>
<!-- Line: box -->
<rect x="3968" y="566" width="188" height="188" rx="0" 
style="stroke:#000000;stroke-width:16;
stroke-linejoin:miter; stroke-linecap:butt;
"/>
<!-- Line -->
<polyline points="4062,755
4062,803
" style="stroke:#000000;stroke-width:16;
stroke-linejoin:miter; stroke-linecap:round;
"/>
<!-- Text -->
<text xml:space="preserve" x="4062" y="708" fill="#000000"  font-family="Helvetica" font-style="normal" font-weight="bold" font-size="114" text-anchor="middle">2</text>
<!-- Line: box -->
<rect x="3401" y="566" width="188" height="188" rx="0" 
style="stroke:#000000;stroke-width:16;
stroke-linejoin:miter; stroke-linecap:butt;
"/>
<!-- Line -->
<polyline points="3496,803
3496,755
" style="stroke:#000000;stroke-width:16;
stroke-linejoin:miter; stroke-linecap:round;
"/>
<!-- Text -->
<text xml:space="preserve" x="3496" y="708" fill="#000000"  font-family="Helvetica" font-style="normal" font-weight="bold" font-size="114" text-anchor="middle">3</text>
<!-- Circle -->
<circle cx="3496" cy="1275" r="94"
 style="stroke:#000000;stroke-width:16;"/>
<!-- Line -->
<polyline points="3496,1133
3496,1181
" style="stroke:#000000;stroke-width:16;
stroke-linejoin:miter; stroke-linecap:round;
"/>
<!-- Text -->
<text xml:space="preserve" x="3496" y="1322" fill="#000000"  font-family="Helvetica" font-style="normal" font-weight="bold" font-size="114" text-anchor="middle">3</text>
<!-- Circle -->
<circle cx="3784" cy="1286" r="94"
 style="stroke:#000000;stroke-width:16;"/>
<!-- Line -->
<polyline points="3590,661
3685,661
" style="stroke:#000000;stroke-width:16;
stroke-linejoin:miter; stroke-linecap:butt;
fill:#000000;
"/>
<!-- Line -->
<polyline points="3874,661
3968,661
" style="stroke:#000000;stroke-width:16;
stroke-linejoin:miter; stroke-linecap:butt;
fill:#000000;
"/>
<!-- Line -->
<polyline points="3874,1275
3968,1275
" style="stroke:#000000;stroke-width:16;
stroke-linejoin:miter; stroke-linecap:butt;
fill:#000000;
"/>
<!-- Line -->
<polyline points="3590,1275
3685,1275
" style="stroke:#000000;stroke-width:16;
stroke-linejoin:miter; stroke-linecap:butt;
fill:#000000;
"/>
<!-- Line -->
<polyline points="3779,1181
3779,1133
" style="stroke:#000000;stroke-width:16;
stroke-linejoin:miter; stroke-linecap:round;
"/>
<!-- Line -->
<polyline points="3779,755
3779,803
" style="stroke:#000000;stroke-width:16;
stroke-linejoin:miter; stroke-linecap:round;
"/>
<!-- Line: box -->
<rect x="3685" y="566" width="188" height="188" rx="0" 
style="stroke:#000000;stroke-width:16;
stroke-linejoin:miter; stroke-linecap:butt;
"/>
<!-- Text -->
<text xml:space="preserve" x="3779" y="708" fill="#000000"  font-family="Helvetica" font-style="normal" font-weight="bold" font-size="114" text-anchor="middle">1</text>
<!-- Text -->
<text xml:space="preserve" x="3779" y="1322" fill="#000000"  font-family="Helvetica" font-style="normal" font-weight="bold" font-size="114" text-anchor="middle">1</text>
<!-- Text -->
<text xml:space="preserve" x="3779" y="1086" fill="#000000"  font-family="Helvetica" font-style="normal" font-weight="bold" font-size="227" text-anchor="middle">S</text>
<!-- Circle -->
<circle cx="5291" cy="1275" r="94"
 style="stroke:#000000;stroke-width:16;"/>
<!-- Circle -->
<circle cx="4724" cy="1275" r="94"
 style="stroke:#000000;stroke-width:16;"/>
<!-- Circle -->
<circle cx="5007" cy="1275" r="94"
 style="stroke:#000000;stroke-width:16;"/>
<!-- Line -->
<polyline points="4724,1133
4724,1181
" style="stroke:#000000;stroke-width:16;
stroke-linejoin:miter; stroke-linecap:round;
"/>
<!-- Line -->
<polyline points="5007,1181
5007,1133
" style="stroke:#000000;stroke-width:16;
stroke-linejoin:miter; stroke-linecap:round;
"/>
<!-- Line -->
<polyline points="5291,1181
5291,1133
" style="stroke:#000000;stroke-width:16;
stroke-linejoin:miter; stroke-linecap:round;
"/>
<!-- Line: box -->
<rect x="4629" y="566" width="188" height="188" rx="0" 
style="stroke:#000000;stroke-width:16;
stroke-linejoin:miter; stroke-linecap:butt;
"/>
<!-- Line -->
<polyline points="4724,803
4724,755
" style="stroke:#000000;stroke-width:16;
stroke-linejoin:miter; stroke-linecap:round;
"/>
<!-- Line: box -->
<rect x="5196" y="566" width="188" height="188" rx="0" 
style="stroke:#000000;stroke-width:16;
stroke-linejoin:miter; stroke-linecap:butt;
"/>
<!-- Line -->
<polyline points="5007,755
5007,803
" style="stroke:#000000;stroke-width:16;
stroke-linejoin:miter; stroke-linecap:round;
"/>
<!-- Line -->
<polyline points="5291,755
5291,803
" style="stroke:#000000;stroke-width:16;
stroke-linejoin:miter; stroke-linecap:round;
"/>
<!-- Line: box -->
<rect x="4913" y="566" width="188" height="188" rx="0" 
style="stroke:#000000;stroke-width:16;
stroke-linejoin:miter; stroke-linecap:butt;
"/>
<!-- Line -->
<polyline points="4724,1133
4725,1131
4726,1128
4728,1122
4732,1113
4739,1104
4746,1095
4754,1086
4765,1079
4776,1072
4791,1066
4807,1062
4827,1058
4850,1055
4867,1053
4885,1051
4903,1049
4924,1048
4946,1047
4971,1046
4996,1045
5022,1044
5048,1044
5076,1043
5104,1043
5132,1043
5160,1044
5187,1044
5214,1045
5240,1046
5265,1047
5289,1048
5311,1049
5332,1051
5352,1053
5370,1055
5393,1058
5415,1061
5434,1064
5451,1068
5468,1072
5483,1078
5496,1083
5506,1088
5516,1093
5523,1100
5528,1105
5532,1111
5534,1117
5535,1123
5535,1128
5535,1133
5531,1142
5526,1151
5517,1162
5504,1173
5487,1187
5469,1201
5482,1190
" style="stroke:#000000;stroke-width:16;
stroke-linejoin:bevel; stroke-linecap:butt;
"/>
<!-- Arrowhead on XXXpoint 5469 1201 - 5406 1246-->
<polygon points="5446 1177
5414 1240
5483 1229
5446 1177

" style="stroke:#000000;stroke-width:8;stroke-miterlimit:8;
fill:#000000;"/>
<!-- Line -->
<polyline points="5291,1133
5292,1133
5295,1132
5303,1130
5317,1128
5333,1126
5350,1125
5365,1125
5379,1127
5391,1131
5401,1138
5409,1146
5417,1158
5423,1169
5428,1183
5434,1198
5438,1216
5442,1235
5444,1256
5446,1277
5447,1299
5446,1320
5445,1341
5442,1360
5438,1378
5432,1395
5425,1409
5417,1421
5408,1432
5398,1441
5386,1450
5373,1459
5358,1466
5340,1474
5321,1480
5301,1486
5280,1490
5257,1496
5234,1499
5210,1503
5186,1506
5160,1508
5133,1511
5111,1513
5088,1516
5064,1518
5039,1520
5013,1522
4985,1524
4958,1525
4930,1527
4900,1528
4872,1528
4844,1529
4816,1529
4790,1528
4765,1527
4741,1526
4719,1524
4698,1522
4679,1519
4661,1516
4645,1511
4629,1506
4615,1500
4602,1493
4591,1486
4580,1478
4572,1468
4563,1459
4557,1448
4553,1438
4549,1427
4546,1417
4544,1406
4544,1397
4544,1387
4545,1378
4546,1370
4549,1361
4551,1354
4556,1341
4561,1331
4570,1321
4579,1311
4591,1301
4604,1292
4577,1309
" style="stroke:#000000;stroke-width:16;
stroke-linejoin:bevel; stroke-linecap:butt;
"/>
<!-- Arrowhead on XXXpoint 4604 1292 - 4655 1257-->
<polygon points="4613 1323
4647 1262
4577 1272
4613 1323

" style="stroke:#000000;stroke-width:8;stroke-miterlimit:8;
fill:#000000;"/>
<!-- Line -->
<polyline points="5019,1132
5020,1132
5023,1131
5032,1129
5045,1127
5061,1125
5078,1124
5093,1124
5107,1126
5118,1130
5128,1137
5135,1145
5143,1156
5148,1168
5153,1182
5159,1197
5162,1215
5165,1234
5168,1255
5169,1276
5169,1297
5168,1317
5166,1337
5163,1356
5158,1373
5152,1387
5145,1401
5138,1411
5129,1420
5120,1428
5108,1435
5096,1441
5081,1446
5065,1451
5048,1455
5030,1458
5012,1460
4992,1461
4972,1462
4952,1463
4932,1463
4911,1463
4889,1463
4870,1463
4849,1463
4828,1463
4806,1463
4784,1462
4760,1461
4737,1460
4712,1458
4688,1456
4665,1454
4643,1449
4621,1446
4601,1441
4582,1436
4564,1430
4549,1424
4534,1417
4521,1408
4508,1399
4496,1387
4487,1375
4477,1361
4470,1346
4464,1331
4458,1314
4455,1296
4453,1279
4451,1261
4451,1245
4452,1229
4454,1213
4457,1198
4460,1186
4465,1173
4470,1158
4477,1143
4486,1129
4496,1116
4510,1101
4524,1087
4540,1072
4556,1059
4532,1076
" style="stroke:#000000;stroke-width:16;
stroke-linejoin:bevel; stroke-linecap:butt;
"/>
<!-- Arrowhead on XXXpoint 4556 1059 - 4606 1019-->
<polygon points="4569 1087
4599 1024
4530 1038
4569 1087

" style="stroke:#000000;stroke-width:8;stroke-miterlimit:8;
fill:#000000;"/>
<!-- Line -->
<polyline points="4724,803
4723,803
4720,804
4711,806
4698,808
4682,810
4665,811
4649,811
4636,809
4624,805
4614,798
4605,790
4598,780
4592,767
4586,753
4581,738
4577,720
4573,701
4571,680
4569,659
4567,637
4569,616
4570,595
4573,576
4577,558
4583,541
4591,528
4598,515
4606,504
4617,495
4628,486
4642,477
4658,470
4675,462
4695,456
4714,450
4737,446
4760,440
4784,437
4809,433
4835,430
4861,428
4890,425
4911,423
4933,420
4955,418
4979,417
5004,415
5029,413
5056,412
5083,410
5110,409
5138,408
5165,408
5192,407
5218,407
5244,408
5269,408
5292,409
5314,411
5334,413
5353,415
5371,417
5386,420
5401,425
5416,429
5428,434
5440,440
5449,447
5459,454
5466,462
5472,471
5478,479
5482,489
5485,498
5487,508
5487,517
5487,527
5487,535
5485,544
5483,553
5481,561
5478,569
5476,576
5472,582
5465,595
5458,605
5448,615
5438,625
5425,635
5412,644
5438,627
" style="stroke:#000000;stroke-width:16;
stroke-linejoin:bevel; stroke-linecap:butt;
stroke-dasharray:20 20;"/>
<!-- Arrowhead on XXXpoint 5412 644 - 5358 678-->
<polygon points="5401 612
5365 672
5435 665
5401 612

" style="stroke:#000000;stroke-width:8;stroke-miterlimit:8;
fill:#000000;"/>
<!-- Line -->
<polyline points="5291,803
5290,805
5289,809
5287,815
5282,824
5276,833
5269,843
5260,852
5250,860
5238,868
5224,874
5208,879
5188,885
5165,890
5148,892
5130,895
5111,898
5090,900
5068,903
5044,906
5019,908
4993,910
4966,912
4939,914
4911,915
4882,917
4855,917
4828,918
4801,919
4774,919
4750,918
4726,918
4704,917
4683,916
4663,915
4645,913
4624,910
4605,907
4587,903
4571,899
4556,894
4541,889
4530,883
4518,877
4509,870
4500,864
4494,856
4488,850
4485,843
4481,836
4479,829
4479,823
4479,816
4480,811
4483,800
4489,789
4498,777
4511,765
4528,751
4545,735
4532,745
" style="stroke:#000000;stroke-width:16;
stroke-linejoin:bevel; stroke-linecap:butt;
stroke-dasharray:20 20;"/>
<!-- Arrowhead on XXXpoint 4545 735 - 4607 689-->
<polygon points="4567 756
4600 695
4530 706
4567 756

" style="stroke:#000000;stroke-width:8;stroke-miterlimit:8;
fill:#000000;"/>
<!-- Line -->
<polyline points="5007,803
5006,803
5003,804
4995,806
4981,808
4965,810
4949,811
4933,811
4919,809
4908,805
4897,798
4889,790
4881,780
4875,767
4870,753
4865,738
4860,720
4856,701
4854,681
4852,660
4851,639
4852,618
4853,598
4856,580
4860,563
4867,549
4874,535
4881,524
4890,516
4899,508
4911,500
4924,494
4939,489
4955,485
4972,480
4991,478
5009,475
5029,474
5049,473
5070,472
5091,472
5112,472
5133,472
5153,472
5173,472
5194,472
5216,473
5238,473
5261,474
5285,475
5309,477
5332,479
5355,482
5377,486
5398,490
5418,494
5437,499
5455,506
5470,512
5484,519
5498,527
5510,537
5522,549
5532,561
5542,575
5550,590
5556,605
5562,622
5566,639
5569,657
5570,674
5571,690
5570,706
5569,722
5567,737
5564,750
5561,763
5554,777
5548,792
5540,806
5529,819
5517,834
5502,848
5485,862
5470,876
5493,858
" style="stroke:#000000;stroke-width:16;
stroke-linejoin:bevel; stroke-linecap:butt;
stroke-dasharray:20 20;"/>
<!-- Arrowhead on XXXpoint 5470 876 - 5419 915-->
<polygon points="5457 846
5426 910
5495 896
5457 846

" style="stroke:#000000;stroke-width:8;stroke-miterlimit:8;
fill:#000000;"/>
<!-- Text -->
<text xml:space="preserve" x="5291" y="1322" fill="#000000"  font-family="Helvetica" font-style="normal" font-weight="bold" font-size="114" text-anchor="middle">2</text>
<!-- Text -->
<text xml:space="preserve" x="4724" y="1322" fill="#000000"  font-family="Helvetica" font-style="normal" font-weight="bold" font-size="114" text-anchor="middle">3</text>
<!-- Text -->
<text xml:space="preserve" x="5007" y="1322" fill="#000000"  font-family="Helvetica" font-style="normal" font-weight="bold" font-size="114" text-anchor="middle">1</text>
<!-- Text -->
<text xml:space="preserve" x="4724" y="708" fill="#000000"  font-family="Helvetica" font-style="normal" font-weight="bold" font-size="114" text-anchor="middle">3</text>
<!-- Text -->
<text xml:space="preserve" x="5007" y="708" fill="#000000"  font-family="Helvetica" font-style="normal" font-weight="bold" font-size="114" text-anchor="middle">1</text>
<!-- Text -->
<text xml:space="preserve" x="5291" y="708" fill="#000000"  font-family="Helvetica" font-style="normal" font-weight="bold" font-size="114" text-anchor="middle">2</text>
<!-- Text -->
<text xml:space="preserve" x="4535" y="1700" fill="#000000"  font-family="Helvetica" font-style="normal" font-weight="normal" font-size="126" text-anchor="middle">- SET AND LINK FOR THREE -</text>
<!-- Circle -->
<circle cx="2314" cy="1228" r="94"
 style="stroke:#000000;stroke-width:16;"/>
<!-- Circle -->
<circle cx="2692" cy="1228" r="94"
 style="stroke:#000000;stroke-width:16;"/>
<!-- Line: box -->
<rect x="2220" y="519" width="188" height="188" rx="0" 
style="stroke:#000000;stroke-width:16;
stroke-linejoin:miter; stroke-linecap:butt;
"/>
<!-- Line: box -->
<rect x="2598" y="519" width="188" height="188" rx="0" 
style="stroke:#000000;stroke-width:16;
stroke-linejoin:miter; stroke-linecap:butt;
"/>
<!-- Text -->
<text xml:space="preserve" x="1984" y="1275" fill="#000000"  font-family="Helvetica" font-style="normal" font-weight="bold" font-size="114" text-anchor="middle">3</text>
<!-- Text -->
<text xml:space="preserve" x="1984" y="661" fill="#000000"  font-family="Helvetica" font-style="normal" font-weight="bold" font-size="114" text-anchor="middle">3</text>
<!-- Text -->
<text xml:space="preserve" x="2314" y="661" fill="#000000"  font-family="Helvetica" font-style="normal" font-weight="bold" font-size="114" text-anchor="middle">2</text>
<!-- Text -->
<text xml:space="preserve" x="2314" y="1275" fill="#000000"  font-family="Helvetica" font-style="normal" font-weight="bold" font-size="114" text-anchor="middle">2</text>
<!-- Text -->
<text xml:space="preserve" x="2692" y="1275" fill="#000000"  font-family="Helvetica" font-style="normal" font-weight="bold" font-size="114" text-anchor="middle">1</text>
<!-- Text -->
<text xml:space="preserve" x="2692" y="661" fill="#000000"  font-family="Helvetica" font-style="normal" font-weight="bold" font-size="114" text-anchor="middle">1</text>
<!-- Text -->
<text xml:space="preserve" x="2503" y="1039" fill="#000000"  font-family="Helvetica" font-style="normal" font-weight="bold" font-size="227" text-anchor="middle">Knot</text>
<!-- Text -->
<text xml:space="preserve" x="614" y="1039" fill="#000000"  font-family="Helvetica" font-style="normal" font-weight="bold" font-size="227" text-anchor="middle">X</text>
<!-- Text -->
<text xml:space="preserve" x="755" y="1086" fill="#000000"  font-family="Helvetica" font-style="normal" font-weight="bold" font-size="152" text-anchor="middle"> R</text>
<!-- Circle -->
<circle cx="1228" cy="944" r="236"
 style="stroke:#000000;stroke-width:16;"/>
<!-- Line -->
<polyline points="992,944
992,1181
" style="stroke:#000000;stroke-width:16;
stroke-linejoin:miter; stroke-linecap:butt;
fill:#000000;
"/>
<!-- Text -->
<text xml:space="preserve" x="1228" y="1039" fill="#000000"  font-family="Helvetica" font-style="normal" font-weight="bold" font-size="227" text-anchor="middle">6</text>
<!-- Line -->
<polyline points="661,519
283,519
" style="stroke:#000000;stroke-width:8;
stroke-linejoin:miter; stroke-linecap:butt;
"/>
<!-- Line -->
<polyline points="1511,519
1133,519
" style="stroke:#000000;stroke-width:8;
stroke-linejoin:miter; stroke-linecap:butt;
"/>
<!-- Text -->
<text xml:space="preserve" x="897" y="566" fill="#000000"  font-family="Helvetica" font-style="normal" font-weight="bold" font-size="114" text-anchor="middle">1 2 3</text>
<!-- Text -->
<text xml:space="preserve" x="377" y="1039" fill="#000000"  font-family="Helvetica" font-style="normal" font-weight="bold" font-size="227" text-anchor="middle">S</text>
<!-- Line -->
<polygon points="1162,2277
1114,2371
1162,2466
1209,2371
1162,2277
" style="stroke:#000000;stroke-width:16;
stroke-linejoin:bevel; stroke-linecap:butt;
"/>
<!-- Text -->
<text xml:space="preserve" x="1039" y="2409" fill="#000000"  font-family="Helvetica" font-style="normal" font-weight="bold" font-size="227" text-anchor="middle">T</text>
<!-- Circle -->
<circle cx="472" cy="2314" r="94"
 style="stroke:#000000;stroke-width:16;"/>
<!-- Circle -->
<circle cx="1511" cy="2692" r="94"
 style="stroke:#000000;stroke-width:16;"/>
<!-- Circle -->
<circle cx="472" cy="2692" r="94"
 style="stroke:#000000;stroke-width:16;"/>
<!-- Line -->
<polyline points="614,2692
566,2692
" style="stroke:#000000;stroke-width:16;
stroke-linejoin:miter; stroke-linecap:round;
"/>
<!-- Line -->
<polyline points="614,2314
566,2314
" style="stroke:#000000;stroke-width:16;
stroke-linejoin:miter; stroke-linecap:round;
"/>
<!-- Line -->
<polyline points="614,1937
566,1937
" style="stroke:#000000;stroke-width:16;
stroke-linejoin:miter; stroke-linecap:round;
"/>
<!-- Line -->
<polyline points="1417,2692
1370,2692
" style="stroke:#000000;stroke-width:16;
stroke-linejoin:miter; stroke-linecap:round;
"/>
<!-- Line -->
<polyline points="1417,2314
1370,2314
" style="stroke:#000000;stroke-width:16;
stroke-linejoin:miter; stroke-linecap:round;
"/>
<!-- Line -->
<polyline points="1417,1937
1370,1937
" style="stroke:#000000;stroke-width:16;
stroke-linejoin:miter; stroke-linecap:round;
"/>
<!-- Line: box -->
<rect x="1417" y="2220" width="188" height="188" rx="0" 
style="stroke:#000000;stroke-width:16;
stroke-linejoin:miter; stroke-linecap:butt;
"/>
<!-- Line: box -->
<rect x="377" y="1842" width="188" height="188" rx="0" 
style="stroke:#000000;stroke-width:16;
stroke-linejoin:miter; stroke-linecap:butt;
"/>
<!-- Line: box -->
<rect x="1417" y="1842" width="188" height="188" rx="0" 
style="stroke:#000000;stroke-width:16;
stroke-linejoin:miter; stroke-linecap:butt;
"/>
<!-- Text -->
<text xml:space="preserve" x="850" y="2409" fill="#000000"  font-family="Helvetica" font-style="normal" font-weight="bold" font-size="227" text-anchor="middle">S</text>
<!-- Text -->
<text xml:space="preserve" x="944" y="2031" fill="#000000"  font-family="Helvetica" font-style="normal" font-weight="bold" font-size="227" text-anchor="middle">S</text>
<!-- Text -->
<text xml:space="preserve" x="944" y="2787" fill="#000000"  font-family="Helvetica" font-style="normal" font-weight="bold" font-size="227" text-anchor="middle">S</text>
<!-- Text -->
<text xml:space="preserve" x="1039" y="2834" fill="#000000"  font-family="Helvetica" font-style="normal" font-weight="bold" font-size="126" text-anchor="start">2</text>
<!-- Text -->
<text xml:space="preserve" x="1039" y="2078" fill="#000000"  font-family="Helvetica" font-style="normal" font-weight="bold" font-size="126" text-anchor="start">2</text>
<!-- Text -->
<text xml:space="preserve" x="472" y="2362" fill="#000000"  font-family="Helvetica" font-style="normal" font-weight="bold" font-size="114" text-anchor="middle">1</text>
<!-- Text -->
<text xml:space="preserve" x="1511" y="2362" fill="#000000"  font-family="Helvetica" font-style="normal" font-weight="bold" font-size="114" text-anchor="middle">1</text>
<!-- Text -->
<text xml:space="preserve" x="472" y="1984" fill="#000000"  font-family="Helvetica" font-style="normal" font-weight="bold" font-size="114" text-anchor="middle">2</text>
<!-- Text -->
<text xml:space="preserve" x="1511" y="1984" fill="#000000"  font-family="Helvetica" font-style="normal" font-weight="bold" font-size="114" text-anchor="middle">3</text>
<!-- Text -->
<text xml:space="preserve" x="1511" y="2740" fill="#000000"  font-family="Helvetica" font-style="normal" font-weight="bold" font-size="114" text-anchor="middle">3</text>
<!-- Text -->
<text xml:space="preserve" x="472" y="2740" fill="#000000"  font-family="Helvetica" font-style="normal" font-weight="bold" font-size="114" text-anchor="middle">2</text>
<!-- Line -->
<polyline points="0,377
6094,377
" style="stroke:#000000;stroke-width:16;
stroke-linejoin:miter; stroke-linecap:butt;
"/>
<!-- Line: box -->
<rect x="0" y="0" width="6094" height="2929" rx="0" 
style="stroke:#000000;stroke-width:16;
stroke-linejoin:miter; stroke-linecap:butt;
"/>
<!-- Line -->
<polyline points="0,1748
6094,1748
" style="stroke:#000000;stroke-width:16;
stroke-linejoin:miter; stroke-linecap:butt;
"/>
<!-- Line -->
<polyline points="6000,393
6000,1748
" style="stroke:#000000;stroke-width:16;
stroke-linejoin:miter; stroke-linecap:butt;
stroke-dasharray:62 62;"/>
<!-- Line -->
<polyline points="3118,377
3118,1748
" style="stroke:#000000;stroke-width:16;
stroke-linejoin:miter; stroke-linecap:butt;
"/>
<!-- Line -->
<polyline points="1748,377
1748,1748
" style="stroke:#000000;stroke-width:16;
stroke-linejoin:miter; stroke-linecap:butt;
"/>
<!-- Line -->
<polyline points="94,1748
94,2929
" style="stroke:#000000;stroke-width:16;
stroke-linejoin:miter; stroke-linecap:butt;
stroke-dasharray:62 62;"/>
<!-- Line -->
<polyline points="2031,1748
2031,2929
" style="stroke:#000000;stroke-width:16;
stroke-linejoin:miter; stroke-linecap:butt;
"/>
<!-- Line -->
<polyline points="2881,1763
2881,2929
" style="stroke:#000000;stroke-width:16;
stroke-linejoin:miter; stroke-linecap:butt;
"/>
<!-- Line -->
<polyline points="944,944
1511,944
" style="stroke:#000000;stroke-width:16;
stroke-linejoin:miter; stroke-linecap:round;
"/>
<!-- Line -->
<polyline points="1795,2314
1793,2314
1790,2316
1783,2318
1776,2320
1767,2324
1759,2328
1752,2333
1745,2340
1740,2347
1736,2356
1734,2367
1732,2379
1732,2393
1732,2408
1733,2424
1735,2441
1736,2461
1739,2482
1741,2504
1744,2528
1748,2551
1751,2574
1754,2597
1756,2619
1759,2640
1760,2660
1762,2678
1763,2693
1763,2708
1763,2723
1761,2734
1759,2745
1755,2754
1750,2762
1743,2768
1736,2773
1728,2777
1719,2782
1712,2784
1706,2786
1702,2787
1700,2787
" style="stroke:#000000;stroke-width:16;
stroke-linejoin:bevel; stroke-linecap:round;
"/>
<!-- Line -->
<polyline points="1700,1842
1702,1842
1706,1843
1712,1845
1719,1847
1728,1851
1736,1856
1743,1861
1750,1867
1755,1875
1759,1884
1761,1895
1763,1906
1763,1921
1763,1935
1762,1951
1760,1969
1759,1989
1756,2010
1754,2032
1751,2055
1748,2078
1744,2101
1741,2124
1739,2146
1736,2167
1735,2187
1733,2205
1732,2221
1732,2236
1732,2250
1734,2262
1736,2272
1740,2282
1745,2289
1752,2296
1759,2301
1767,2305
1776,2309
1783,2311
1790,2313
1793,2314
1795,2314
" style="stroke:#000000;stroke-width:16;
stroke-linejoin:bevel; stroke-linecap:round;
"/>
<!-- Text -->
<text xml:space="preserve" x="94" y="283" fill="#000000"  font-family="Helvetica" font-style="normal" font-weight="normal" font-size="227" text-anchor="start">Geburtstag in Wien</text>
<!-- Text -->
<text xml:space="preserve" x="5007" y="283" fill="#000000"  font-family="Helvetica" font-style="normal" font-weight="normal" font-size="177" text-anchor="end">David Hall</text>
<!-- Text -->
<text xml:space="preserve" x="6047" y="283" fill="#000000"  font-family="Helvetica" font-style="normal" font-weight="normal" font-size="227" text-anchor="end">S8x32</text>
<!-- Text -->
<text xml:space="preserve" x="2456" y="2409" fill="#000000"  font-family="Helvetica" font-style="normal" font-weight="bold" font-size="227" text-anchor="middle">P</text>
<!-- Circle -->
<circle cx="4062" cy="1275" r="94"
 style="stroke:#000000;stroke-width:16;"/>
</g>
</svg>
