<?xml version="1.0" standalone="no"?>
<!DOCTYPE svg PUBLIC "-//W3C//DTD SVG 20010904//EN"
 "http://www.w3.org/TR/2001/REC-SVG-20010904/DTD/svg10.dtd">
<svg version="1.0" xmlns="http://www.w3.org/2000/svg"
 viewBox="0 0 1905.000000 448.000000"
 preserveAspectRatio="xMinYMin">

<g transform="translate(0.000000,448.000000) scale(0.100000,-0.100000)"
fill="#000000" stroke="none">
<path d="M10 2245 l0 -2225 9510 0 9510 0 0 2225 0 2225 -9510 0 -9510 0 0
-2225z m18960 0 l0 -2135 -555 0 -555 0 0 1575 0 1575 470 0 470 0 0 30 0 30
-9280 0 -9280 0 0 -30 0 -30 785 0 785 0 0 -1575 0 -1575 -870 0 -870 0 0
2135 0 2135 9450 0 9450 0 0 -2135z m-11610 -560 l0 -1575 -2745 0 -2745 0 0
1575 0 1575 2745 0 2745 0 0 -1575z m1410 0 l0 -1575 -675 0 -675 0 0 1575 0
1575 675 0 675 0 0 -1575z m7180 0 l0 -1575 -2280 0 -2280 0 0 65 0 65 -30 0
-30 0 0 -65 0 -65 -1250 0 -1250 0 0 1575 0 1575 3560 0 3560 0 0 -1575z
m1860 0 l0 -1575 -900 0 -900 0 0 1575 0 1575 900 0 900 0 0 -1575z"/>
<path d="M10200 3830 l0 -400 100 0 100 0 0 30 0 30 -65 0 -65 0 0 340 0 340
65 0 65 0 0 30 0 30 -100 0 -100 0 0 -400z"/>
<path d="M12930 4200 l0 -30 65 0 65 0 0 -340 0 -340 -65 0 -65 0 0 -30 0 -30
100 0 100 0 0 400 0 400 -100 0 -100 0 0 -30z"/>
<path d="M11250 4140 c0 -57 -11 -78 -24 -45 -6 16 -35 19 -73 9 -14 -4 -24
-17 -28 -35 -4 -16 -11 -29 -16 -29 -5 0 -9 -27 -9 -60 0 -33 4 -60 9 -60 5 0
12 -11 15 -25 4 -14 13 -25 21 -25 8 0 15 -4 15 -10 0 -16 57 -12 64 5 3 8 10
15 16 15 5 0 10 -7 10 -15 0 -8 9 -15 20 -15 19 0 20 7 20 175 0 168 -1 175
-20 175 -18 0 -20 -7 -20 -60z m-20 -90 c14 -14 20 -33 20 -65 0 -25 -4 -45
-9 -45 -5 0 -12 -11 -15 -25 -10 -38 -51 -34 -65 6 -22 63 -5 149 30 149 10 0
28 -9 39 -20z"/>
<path d="M11580 4025 c0 -168 1 -175 20 -175 19 0 20 7 20 93 0 80 3 95 20
110 25 21 37 21 56 3 10 -11 14 -41 14 -110 0 -91 1 -96 21 -96 20 0 21 4 17
119 -1 66 -6 122 -10 126 -3 4 -24 9 -45 12 -29 4 -44 1 -56 -12 -16 -15 -17
-13 -17 44 0 54 -2 61 -20 61 -19 0 -20 -7 -20 -175z"/>
<path d="M17748 3878 l-3 -323 -42 2 c-37 2 -43 -1 -43 -18 0 -11 6 -27 14
-35 17 -16 106 -20 106 -4 0 6 7 10 16 10 9 0 18 9 21 20 3 11 9 20 14 20 5 0
9 144 9 325 l0 325 -45 0 -45 0 -2 -322z"/>
<path d="M388 4174 c-10 -3 -18 -10 -18 -15 0 -5 -6 -9 -12 -9 -15 0 -58 -43
-58 -58 0 -6 -6 -12 -12 -15 -9 -2 -13 -28 -13 -79 l0 -76 42 -38 c66 -60 70
-63 97 -70 14 -3 26 -10 26 -14 0 -4 11 -11 25 -14 14 -4 36 -17 48 -29 19
-19 22 -33 22 -93 0 -70 -1 -73 -38 -108 -30 -29 -46 -36 -77 -36 -21 0 -45 6
-52 14 -8 7 -23 16 -35 20 -12 4 -24 13 -27 21 -3 8 -12 15 -21 15 -11 0 -15
-11 -15 -40 0 -29 4 -40 15 -40 8 0 15 -4 15 -10 0 -5 16 -12 35 -16 19 -3 35
-10 35 -15 0 -5 25 -9 55 -9 30 0 55 4 55 9 0 5 14 12 30 16 17 4 30 10 30 14
0 4 12 14 26 21 17 9 29 28 37 57 6 24 15 43 19 43 4 0 8 27 8 60 0 33 -4 60
-10 60 -5 0 -10 8 -10 18 0 25 -53 80 -84 88 -14 3 -26 9 -26 14 0 4 -19 12
-41 19 -84 25 -115 90 -88 182 10 31 19 41 47 50 50 16 101 5 133 -31 38 -41
49 -38 49 15 0 34 -4 47 -17 52 -10 4 -21 11 -24 15 -7 11 -145 20 -171 12z"/>
<path d="M6828 4166 c-9 -9 -21 -16 -26 -16 -17 0 -61 -48 -68 -74 -3 -14 -10
-26 -15 -26 -5 0 -9 -22 -9 -50 0 -27 5 -50 10 -50 6 0 10 -9 10 -20 0 -11 10
-28 21 -38 12 -9 29 -25 38 -34 8 -10 21 -18 28 -18 7 0 13 -4 13 -9 0 -5 14
-12 30 -16 17 -4 30 -11 30 -16 0 -5 6 -9 13 -9 18 0 67 -42 67 -58 0 -7 5
-12 10 -12 6 0 10 -22 10 -50 0 -27 -4 -50 -10 -50 -5 0 -10 -8 -10 -19 0 -10
-12 -31 -27 -47 -23 -25 -34 -29 -82 -29 -34 0 -56 5 -58 13 -3 6 -10 12 -17
12 -6 0 -19 9 -29 20 -28 33 -47 25 -47 -20 0 -29 4 -40 15 -40 8 0 15 -4 15
-10 0 -5 18 -13 40 -16 22 -4 40 -10 40 -15 0 -5 25 -9 55 -9 30 0 55 4 55 9
0 5 11 12 25 15 14 4 41 21 60 40 42 41 60 104 52 187 -4 52 -10 65 -40 94
-19 19 -47 37 -61 41 -14 3 -26 10 -26 14 0 5 -17 14 -37 21 -58 19 -103 71
-103 119 0 22 4 40 9 40 4 0 12 14 17 32 17 60 117 64 173 8 40 -41 51 -38 51
14 0 38 -4 46 -22 52 -13 4 -26 11 -29 17 -4 5 -40 12 -81 15 -60 3 -77 1 -90
-12z"/>
<path d="M8568 4166 c-9 -9 -21 -16 -25 -16 -19 0 -72 -56 -78 -83 -4 -15 -11
-27 -16 -27 -4 0 -11 -27 -15 -60 -4 -33 -11 -60 -15 -60 -5 0 -9 -45 -9 -100
0 -55 4 -100 9 -100 4 0 11 -23 14 -52 4 -28 10 -54 15 -57 5 -3 15 -23 21
-43 7 -21 16 -38 21 -38 4 0 18 -11 31 -25 13 -13 32 -25 42 -25 9 0 17 -4 17
-10 0 -6 27 -10 60 -10 33 0 60 4 60 9 0 5 16 12 35 15 34 7 35 8 35 51 0 51
-11 56 -43 21 -45 -48 -137 -46 -159 5 -7 16 -16 29 -19 29 -4 0 -10 12 -14
27 -3 15 -12 31 -18 35 -8 5 -12 56 -12 168 0 112 4 163 12 168 6 4 15 20 18
35 4 15 11 27 15 27 4 0 11 11 14 25 14 55 138 61 169 9 17 -29 37 -15 37 26
0 28 -4 40 -14 40 -8 0 -16 5 -18 11 -2 7 -36 14 -79 17 -60 3 -78 1 -91 -12z"/>
<path d="M926 4154 c-3 -9 -6 -24 -6 -35 0 -10 -4 -19 -9 -19 -5 0 -12 -25
-16 -55 -3 -30 -10 -55 -15 -55 -4 0 -11 -24 -15 -52 -4 -29 -11 -55 -16 -58
-5 -3 -14 -41 -21 -83 -6 -42 -15 -77 -19 -77 -3 0 -9 -22 -13 -50 -4 -27 -11
-50 -15 -50 -5 0 -12 -25 -16 -55 -3 -30 -11 -55 -16 -55 -5 0 -9 -7 -9 -15 0
-11 12 -15 45 -15 45 0 45 0 51 40 4 22 10 40 14 40 5 0 11 27 15 60 4 33 11
60 16 60 5 0 9 9 9 20 0 19 7 20 90 20 l90 0 0 -30 c0 -16 4 -30 9 -30 5 0 12
-22 16 -50 4 -27 10 -50 15 -50 4 0 10 -18 14 -40 6 -40 6 -40 51 -40 33 0 45
4 45 15 0 8 -4 15 -8 15 -5 0 -14 32 -21 70 -7 39 -16 70 -21 70 -4 0 -10 23
-14 50 -4 28 -10 50 -15 50 -5 0 -11 23 -15 50 -4 28 -11 50 -16 50 -5 0 -12
23 -16 50 -4 28 -10 50 -15 50 -4 0 -13 34 -20 75 -6 41 -15 75 -19 75 -4 0
-11 16 -14 35 -7 34 -9 35 -50 35 -31 0 -46 -5 -50 -16z m69 -174 c4 -33 11
-60 16 -60 4 0 11 -22 15 -50 4 -27 10 -50 15 -50 5 0 9 -9 9 -20 0 -18 -7
-20 -77 -20 -43 0 -73 4 -67 8 7 4 15 33 19 65 4 31 11 57 15 57 4 0 10 23 14
50 13 99 31 108 41 20z"/>
<path d="M1330 3825 l0 -345 45 0 45 0 0 345 0 345 -45 0 -45 0 0 -345z"/>
<path d="M1620 3825 l0 -345 45 0 45 0 1 258 c1 141 4 245 6 230 2 -16 8 -28
13 -28 4 0 11 -20 14 -45 4 -25 11 -45 16 -45 5 0 14 -25 21 -55 7 -30 15 -55
19 -55 4 0 11 -20 14 -45 4 -25 11 -45 16 -45 5 0 12 -20 16 -45 3 -25 10 -45
14 -45 5 0 11 -18 15 -40 l7 -40 64 0 64 0 0 345 0 345 -45 0 -45 0 -1 -262
c-1 -145 -4 -253 -6 -240 -2 12 -8 22 -12 22 -4 0 -13 29 -20 65 -7 36 -17 65
-21 65 -4 0 -11 20 -14 45 -4 25 -11 45 -16 45 -4 0 -11 18 -15 40 -4 22 -10
40 -14 40 -4 0 -13 29 -20 65 -7 36 -17 65 -22 65 -5 0 -9 11 -9 25 0 24 -2
25 -65 25 l-65 0 0 -345z"/>
<path d="M2170 4140 l0 -30 80 0 80 0 0 -315 0 -315 40 0 40 0 0 315 0 315 80
0 80 0 0 30 0 30 -200 0 -200 0 0 -30z"/>
<path d="M3143 4156 c-7 -8 -15 -37 -19 -65 -4 -28 -10 -51 -14 -51 -5 0 -11
-22 -15 -50 -4 -27 -10 -50 -14 -50 -4 0 -14 -36 -21 -80 -7 -44 -17 -80 -21
-80 -4 0 -10 -27 -14 -60 -4 -33 -11 -60 -15 -60 -5 0 -12 -21 -16 -47 -4 -27
-10 -50 -14 -53 -4 -3 -10 -22 -14 -42 l-7 -38 45 0 44 0 11 50 c6 28 11 60
11 70 0 11 4 20 9 20 5 0 11 23 15 50 l7 50 93 0 94 0 7 -55 c3 -30 10 -55 15
-55 4 0 11 -22 15 -50 4 -27 11 -50 16 -50 5 0 9 -7 9 -15 0 -11 11 -15 41
-15 38 0 41 2 36 23 -4 12 -9 41 -13 65 -4 23 -10 42 -15 42 -5 0 -11 23 -15
50 -4 28 -10 50 -15 50 -5 0 -11 23 -15 50 -4 28 -10 50 -14 50 -5 0 -11 18
-15 40 -4 22 -10 40 -14 40 -4 0 -14 36 -21 80 -7 44 -17 80 -21 80 -4 0 -10
20 -13 45 -4 25 -11 45 -17 45 -5 0 -9 7 -9 15 0 20 -70 20 -87 1z m66 -176
c5 0 11 -22 15 -49 4 -27 10 -51 15 -53 4 -2 11 -24 15 -50 l7 -48 -68 0 -69
0 4 35 c2 19 8 35 12 35 4 0 11 27 15 60 4 33 11 60 16 60 5 0 9 9 9 19 0 11
3 28 8 38 5 14 8 11 10 -14 2 -18 7 -33 11 -33z"/>
<path d="M3550 3825 l0 -345 45 0 45 0 1 258 c1 203 3 247 12 207 5 -27 13
-52 17 -55 4 -3 11 -20 15 -37 3 -18 10 -33 15 -33 4 0 11 -18 15 -40 4 -22
10 -40 15 -40 4 0 11 -20 14 -45 4 -25 11 -45 15 -45 5 0 14 -29 21 -65 7 -36
16 -65 21 -65 5 0 9 -9 9 -20 0 -18 7 -20 65 -20 l65 0 0 345 0 345 -45 0 -45
0 -1 -262 c-1 -145 -4 -253 -6 -240 -2 12 -8 22 -13 22 -4 0 -11 20 -14 45 -4
25 -11 45 -15 45 -5 0 -14 29 -21 65 -7 36 -16 65 -20 65 -5 0 -11 18 -15 40
-4 22 -10 40 -15 40 -4 0 -11 20 -14 45 -4 25 -11 45 -16 45 -5 0 -12 20 -16
45 l-6 45 -64 0 -64 0 0 -345z"/>
<path d="M4140 3824 l0 -346 125 4 c69 2 129 8 133 13 4 6 19 16 35 24 15 8
27 17 27 21 0 3 8 15 18 26 10 11 22 33 26 49 4 16 13 33 19 37 16 10 17 326
1 336 -6 4 -14 24 -18 45 -4 20 -11 37 -17 37 -5 0 -14 11 -19 25 -5 14 -14
25 -20 25 -6 0 -18 7 -26 15 -9 8 -24 15 -35 15 -10 0 -19 5 -19 10 0 6 -45
10 -115 10 l-115 0 0 -346z m228 268 c2 -7 10 -12 18 -12 8 0 14 -7 14 -15 0
-7 7 -18 16 -23 10 -5 18 -28 21 -55 3 -26 10 -47 14 -47 5 0 9 -49 9 -110 0
-60 -4 -110 -9 -110 -4 0 -11 -23 -14 -50 -5 -39 -14 -58 -40 -85 -19 -19 -39
-35 -46 -35 -6 0 -11 -4 -11 -10 0 -5 -25 -10 -55 -10 l-55 0 0 291 0 291 67
-4 c39 -2 68 -9 71 -16z"/>
<path d="M4710 3825 l0 -345 45 0 45 0 0 156 0 156 58 -4 c63 -5 112 -38 112
-76 0 -11 4 -22 10 -24 5 -1 12 -40 16 -85 4 -46 11 -83 15 -83 5 0 9 -9 9
-20 0 -17 7 -20 40 -20 l40 0 -6 73 c-4 39 -10 74 -14 77 -4 3 -10 29 -13 59
-5 44 -13 60 -41 87 -19 19 -40 34 -46 34 -21 0 -9 28 15 34 14 4 25 11 25 16
0 6 6 10 13 10 14 0 37 40 37 65 0 8 5 15 10 15 6 0 10 23 10 50 0 28 -4 50
-10 50 -5 0 -10 10 -10 23 0 29 -41 66 -80 74 -17 3 -30 9 -30 14 0 5 -56 9
-125 9 l-125 0 0 -345z m260 255 c22 -22 25 -34 25 -90 0 -73 -17 -103 -67
-115 -16 -4 -28 -11 -28 -16 0 -5 -22 -9 -50 -9 l-50 0 0 131 0 131 73 -3 c61
-4 76 -8 97 -29z"/>
<path d="M5260 3825 l0 -345 180 0 180 0 0 25 0 25 -135 0 -135 0 0 140 0 140
130 0 130 0 0 30 0 30 -130 0 -130 0 0 120 0 120 135 0 135 0 0 30 0 30 -180
0 -180 0 0 -345z"/>
<path d="M5756 4098 c4 -40 10 -75 15 -78 4 -3 10 -42 14 -88 4 -45 11 -82 15
-82 4 0 11 -43 15 -95 4 -52 10 -95 15 -95 4 0 11 -40 14 -90 l8 -90 49 0 49
0 0 50 c0 28 4 50 9 50 5 0 13 41 17 90 3 50 10 90 14 90 5 0 11 43 15 95 5
66 11 95 20 95 9 0 15 -29 20 -95 4 -52 10 -95 15 -95 4 0 11 -40 14 -90 4
-49 12 -90 17 -90 5 0 9 -22 9 -50 l0 -50 49 0 49 0 8 90 c3 50 10 90 14 90 4
0 13 63 20 140 7 77 16 140 21 140 4 0 11 41 15 90 3 50 10 90 15 90 5 0 9 11
9 25 0 23 -4 25 -44 25 -42 0 -44 -1 -50 -37 -3 -21 -6 -57 -6 -80 0 -24 -4
-43 -9 -43 -5 0 -13 -49 -16 -110 -4 -60 -11 -110 -16 -110 -5 0 -9 -22 -9
-50 0 -35 -4 -50 -13 -50 -10 0 -17 37 -27 145 -7 80 -16 145 -20 145 -4 0
-11 43 -15 95 l-7 95 -43 0 -43 0 -7 -95 c-4 -52 -11 -95 -15 -95 -5 0 -11
-43 -15 -95 -4 -52 -11 -95 -16 -95 -5 0 -9 -22 -9 -50 0 -34 -4 -50 -13 -50
-10 0 -16 42 -26 158 -7 86 -17 159 -22 160 -5 2 -9 22 -9 45 0 23 -3 59 -6
80 -6 36 -8 37 -50 37 l-44 0 6 -72z"/>
<path d="M6460 4091 c0 -121 9 -171 31 -171 14 0 19 7 19 30 0 17 5 30 10 30
6 0 10 38 10 95 l0 95 -35 0 -35 0 0 -79z"/>
<path d="M7560 3825 l0 -345 45 0 45 0 1 258 c1 141 4 245 6 230 2 -16 8 -28
13 -28 4 0 11 -20 14 -45 4 -25 11 -45 16 -45 5 0 12 -16 16 -35 3 -19 10 -35
14 -35 4 0 13 -29 20 -65 7 -36 16 -65 21 -65 4 0 11 -20 15 -45 3 -25 10 -45
14 -45 5 0 11 -18 15 -40 l7 -40 64 0 64 0 0 345 0 345 -40 0 -40 0 0 -260 c0
-155 -4 -260 -9 -260 -6 0 -13 20 -17 45 -3 25 -10 45 -14 45 -5 0 -11 18 -15
40 -4 22 -10 40 -15 40 -4 0 -11 20 -14 45 -4 25 -11 45 -16 45 -4 0 -14 29
-21 65 -7 36 -16 65 -20 65 -4 0 -10 18 -14 40 -4 22 -11 40 -16 40 -5 0 -9
11 -9 25 0 24 -2 25 -65 25 l-65 0 0 -345z"/>
<path d="M8150 3825 l0 -345 45 0 45 0 0 345 0 345 -45 0 -45 0 0 -345z"/>
<path d="M8930 3825 l0 -345 45 0 45 0 0 165 0 165 105 0 105 0 0 -165 0 -165
45 0 45 0 0 345 0 345 -45 0 -45 0 0 -150 0 -150 -105 0 -105 0 0 150 0 150
-45 0 -45 0 0 -345z"/>
<path d="M9480 4140 l0 -30 80 0 80 0 0 -315 0 -315 40 0 40 0 0 315 0 315 80
0 80 0 0 30 0 30 -200 0 -200 0 0 -30z"/>
<path d="M11460 4140 c0 -20 -5 -30 -15 -30 -8 0 -15 -9 -15 -20 0 -11 7 -20
15 -20 12 0 15 -17 15 -96 0 -102 9 -124 49 -124 14 0 21 6 21 20 0 11 -4 20
-10 20 -6 0 -10 37 -10 90 0 53 4 90 10 90 6 0 10 9 10 20 0 11 -4 20 -10 20
-5 0 -10 14 -10 30 0 25 -4 30 -25 30 -21 0 -25 -5 -25 -30z"/>
<path d="M10340 3980 c0 -123 1 -130 20 -130 19 0 20 7 20 90 0 77 3 93 20
110 11 11 25 20 30 20 6 0 10 9 10 20 0 23 -28 27 -36 5 -4 -8 -10 -15 -15
-15 -5 0 -9 7 -9 15 0 8 -9 15 -20 15 -19 0 -20 -7 -20 -130z"/>
<path d="M10491 4084 c-19 -20 -26 -40 -29 -84 -5 -65 12 -130 34 -130 8 0 14
-4 14 -10 0 -16 60 -12 76 5 8 8 23 19 32 24 14 8 17 25 17 88 0 75 -2 81 -29
106 -38 35 -82 36 -115 1z m89 -34 c14 -14 20 -33 20 -65 0 -25 -4 -45 -9 -45
-5 0 -12 -11 -15 -25 -8 -30 -29 -32 -58 -6 -17 17 -20 29 -16 74 7 80 38 107
78 67z"/>
<path d="M10690 4005 c0 -128 10 -155 58 -155 21 0 40 7 48 18 13 16 13 16 14
0 0 -12 8 -18 25 -18 l25 0 0 130 0 130 -25 0 c-25 0 -25 -1 -25 -79 0 -98
-14 -141 -45 -141 -31 0 -35 15 -35 126 0 87 -1 94 -20 94 -19 0 -20 -7 -20
-105z"/>
<path d="M10900 3980 c0 -123 1 -130 20 -130 19 0 20 7 20 90 0 77 3 93 20
110 24 24 56 26 64 4 3 -9 6 -58 6 -110 0 -87 1 -94 20 -94 19 0 20 7 20 104
0 58 -5 117 -10 132 -10 24 -14 26 -53 21 -23 -3 -43 -11 -45 -16 -5 -16 -22
-13 -22 4 0 8 -9 15 -20 15 -19 0 -20 -7 -20 -130z"/>
<path d="M11814 4083 c-27 -25 -29 -31 -29 -106 0 -63 3 -80 17 -88 9 -5 24
-16 32 -24 8 -8 26 -15 40 -15 26 0 76 39 76 59 0 6 5 11 10 11 6 0 10 5 10
10 0 19 -41 10 -64 -15 -13 -14 -28 -25 -35 -25 -18 0 -51 38 -51 60 0 18 7
20 75 20 l75 0 0 40 c0 22 -4 40 -9 40 -5 0 -12 11 -15 24 -11 43 -89 49 -132
9z m86 -30 c34 -30 25 -43 -30 -43 -53 0 -60 9 -32 39 22 25 37 25 62 4z"/>
<path d="M12140 3980 c0 -123 1 -130 20 -130 19 0 20 7 20 90 0 77 3 93 20
110 11 11 25 20 30 20 6 0 10 9 10 20 0 23 -28 27 -36 5 -4 -8 -10 -15 -15
-15 -5 0 -9 7 -9 15 0 8 -9 15 -20 15 -19 0 -20 -7 -20 -130z"/>
<path d="M12293 4086 c-13 -13 -23 -29 -23 -35 0 -6 -4 -11 -10 -11 -6 0 -10
-27 -10 -60 0 -33 4 -60 9 -60 5 0 12 -11 15 -25 4 -14 13 -25 21 -25 8 0 15
-4 15 -10 0 -16 60 -12 76 5 8 8 23 19 32 24 14 8 17 25 17 88 0 75 -2 81 -29
106 -37 34 -83 36 -113 3z m87 -36 c14 -14 20 -33 20 -65 0 -25 -4 -45 -9 -45
-5 0 -12 -11 -15 -25 -8 -30 -29 -32 -58 -6 -17 17 -20 29 -16 74 7 80 38 107
78 67z"/>
<path d="M12504 4083 c-27 -25 -29 -32 -29 -103 0 -58 4 -80 17 -93 9 -9 21
-17 27 -17 6 0 11 -4 11 -10 0 -5 13 -10 29 -10 30 0 81 37 81 59 0 6 5 11 10
11 6 0 10 27 10 60 0 33 -4 60 -10 60 -5 0 -10 5 -10 11 0 6 -10 22 -22 35
-31 33 -77 31 -114 -3z m88 -32 c37 -35 13 -161 -31 -161 -27 0 -51 41 -51 85
0 25 4 45 9 45 5 0 12 11 15 25 8 30 29 32 58 6z"/>
<path d="M12700 3980 c0 -123 1 -130 20 -130 19 0 20 7 20 90 0 77 3 93 20
110 41 41 50 23 50 -106 0 -94 0 -94 25 -94 25 0 25 0 25 93 0 80 3 95 20 110
42 36 50 19 50 -109 0 -89 1 -94 21 -94 20 0 21 4 17 120 -2 94 -6 123 -18
130 -25 16 -59 11 -77 -10 -10 -11 -20 -20 -24 -20 -4 0 -9 9 -12 20 -6 25
-64 29 -73 5 -4 -8 -10 -15 -15 -15 -5 0 -9 7 -9 15 0 8 -9 15 -20 15 -19 0
-20 -7 -20 -130z"/>
<path d="M18526 4043 c-11 -3 -35 -21 -55 -40 -32 -31 -36 -40 -36 -87 0 -43
5 -58 25 -79 14 -15 31 -27 38 -27 6 0 12 -7 12 -15 0 -8 -7 -15 -15 -15 -8 0
-15 -4 -15 -10 0 -5 -6 -10 -14 -10 -8 0 -20 -16 -27 -35 -7 -19 -17 -35 -21
-35 -4 0 -8 -22 -8 -50 0 -27 4 -50 9 -50 5 0 12 -14 16 -31 5 -20 16 -34 33
-42 15 -6 30 -16 34 -22 9 -13 186 -13 196 0 4 6 19 16 34 24 16 8 30 25 33
42 4 16 11 29 16 29 5 0 9 23 9 50 0 28 -4 50 -9 50 -5 0 -12 13 -16 30 -4 17
-15 32 -27 36 -19 6 -58 39 -58 49 0 3 6 5 14 5 7 0 26 12 42 27 25 23 29 34
29 77 0 46 -4 55 -39 90 -38 37 -43 39 -110 42 -39 2 -80 0 -90 -3z m128 -63
c14 -5 26 -16 26 -25 0 -8 5 -15 10 -15 6 0 10 -11 10 -24 0 -26 -39 -76 -59
-76 -6 0 -11 -4 -11 -10 0 -5 -13 -10 -30 -10 -16 0 -30 5 -30 10 0 6 -5 10
-11 10 -19 0 -59 44 -59 65 0 40 12 62 38 72 35 14 84 15 116 3z m-22 -232
c27 -8 40 -18 44 -35 4 -12 10 -23 15 -23 5 0 9 -18 9 -40 0 -22 -4 -40 -8
-40 -4 0 -13 -13 -19 -30 -6 -16 -18 -30 -27 -30 -9 0 -16 -4 -16 -10 0 -5
-13 -10 -30 -10 -16 0 -30 5 -30 10 0 6 -6 10 -13 10 -23 0 -50 44 -55 90 -3
37 0 49 20 71 21 23 56 48 67 49 2 0 21 -5 43 -12z"/>
<path d="M13740 3785 l0 -255 25 0 25 0 0 195 c0 191 11 253 25 140 4 -30 10
-55 14 -55 4 0 14 -36 21 -80 7 -44 17 -80 21 -80 4 0 10 -27 14 -60 l7 -60
38 0 37 0 13 90 c7 50 17 90 21 90 5 0 11 23 15 50 4 28 10 50 14 50 4 0 11
25 15 55 14 113 25 51 25 -140 l0 -195 25 0 25 0 0 255 0 255 -40 0 c-36 0
-40 -2 -40 -25 0 -14 -4 -25 -9 -25 -5 0 -12 -24 -16 -52 -4 -29 -11 -55 -16
-58 -5 -3 -14 -41 -21 -83 -6 -42 -15 -77 -19 -77 -4 0 -10 -25 -14 -55 -3
-30 -10 -55 -15 -55 -5 0 -12 25 -15 55 -4 30 -11 55 -15 55 -4 0 -11 27 -15
60 -4 33 -11 60 -15 60 -5 0 -14 34 -21 75 -6 41 -16 75 -20 75 -5 0 -9 11 -9
25 0 23 -4 25 -40 25 l-40 0 0 -255z"/>
<path d="M14810 3785 l0 -255 30 0 30 0 0 190 c0 178 9 234 25 160 4 -16 10
-30 14 -30 5 0 14 -20 21 -45 7 -25 16 -45 21 -45 5 0 11 -11 15 -25 3 -14 10
-25 14 -25 5 0 11 -13 15 -30 4 -16 10 -30 14 -30 5 0 14 -20 21 -45 7 -25 17
-45 21 -45 5 0 9 -7 9 -15 0 -10 11 -15 35 -15 l35 0 0 255 0 255 -30 0 -30 0
-1 -192 c-1 -106 -3 -185 -6 -175 -2 9 -8 17 -12 17 -5 0 -14 20 -21 45 -7 25
-16 45 -21 45 -4 0 -10 14 -14 30 -4 17 -10 30 -15 30 -4 0 -11 11 -14 25 -4
14 -10 25 -15 25 -5 0 -15 23 -22 50 -7 28 -16 50 -20 50 -4 0 -10 11 -13 25
-5 21 -12 25 -46 25 l-40 0 0 -255z"/>
<path d="M15510 3785 l0 -255 25 0 c16 0 25 6 25 15 0 21 12 19 33 -5 29 -34
113 -23 123 16 3 13 10 24 14 24 12 0 30 83 30 139 0 27 -5 73 -11 100 -8 41
-16 52 -40 63 -16 7 -29 16 -29 20 0 5 -13 8 -30 8 -16 0 -30 -4 -30 -9 0 -5
-8 -11 -17 -15 -10 -3 -24 -9 -30 -12 -10 -4 -13 15 -13 80 0 85 0 86 -25 86
l-25 0 0 -255z m164 49 c9 -8 16 -24 16 -35 0 -10 5 -19 10 -19 6 0 10 -28 10
-65 0 -36 -4 -65 -9 -65 -5 0 -11 -13 -14 -30 -11 -54 -93 -53 -104 1 -3 16
-9 29 -14 29 -5 0 -9 29 -9 65 0 37 4 65 10 65 6 0 10 9 10 19 0 27 26 51 55
51 13 0 31 -7 39 -16z"/>
<path d="M16010 3785 l0 -255 30 0 30 0 0 255 0 255 -30 0 -30 0 0 -255z"/>
<path d="M18144 4016 c-3 -14 -12 -27 -20 -30 -8 -3 -14 -12 -14 -21 0 -8 -4
-15 -8 -15 -5 0 -14 -18 -21 -40 -6 -22 -16 -40 -20 -40 -5 0 -12 -11 -15 -25
-4 -14 -10 -25 -15 -25 -5 0 -12 -13 -16 -30 -4 -16 -11 -30 -15 -30 -5 0 -15
-18 -21 -40 -7 -22 -16 -40 -21 -40 -4 0 -8 -13 -8 -30 l0 -30 115 0 115 0 0
-65 0 -65 35 0 35 0 0 65 0 65 40 0 c38 0 40 2 40 30 0 28 -2 30 -40 30 l-40
0 0 180 0 180 -50 0 c-44 0 -50 -3 -56 -24z m36 -206 l0 -130 -69 0 c-64 0
-69 1 -64 20 3 11 9 20 13 20 4 0 13 20 20 45 7 25 17 45 21 45 5 0 9 7 9 15
0 9 6 18 14 21 8 3 18 19 21 35 4 16 11 29 16 29 5 0 9 7 9 15 0 8 2 15 5 15
3 0 5 -58 5 -130z"/>
<path d="M16670 4007 c0 -24 -36 -57 -69 -63 -24 -5 -31 -12 -31 -30 0 -22 4
-24 45 -24 l45 0 0 -180 0 -180 25 0 25 0 0 245 c0 238 -1 245 -20 245 -11 0
-20 -6 -20 -13z"/>
<path d="M16919 4002 c-10 -11 -24 -24 -32 -28 -8 -5 -18 -30 -22 -56 l-7 -48
30 0 c27 0 30 4 36 40 4 26 11 40 21 40 8 0 15 5 15 10 0 17 52 11 66 -7 23
-31 14 -113 -12 -113 -8 0 -14 -4 -14 -10 0 -5 -13 -10 -30 -10 -27 0 -30 -3
-30 -30 0 -28 2 -30 38 -30 51 0 82 -34 82 -90 0 -22 -4 -40 -8 -40 -5 0 -14
-11 -20 -25 -10 -21 -19 -25 -52 -25 -33 0 -42 4 -52 25 -6 14 -15 25 -20 25
-4 0 -8 11 -8 25 0 21 -5 25 -30 25 -27 0 -30 -3 -30 -30 0 -16 5 -30 10 -30
6 0 10 -8 10 -19 0 -10 12 -31 27 -47 24 -26 33 -29 92 -29 72 0 104 19 117
70 3 14 10 25 15 25 5 0 9 27 9 60 0 33 -4 60 -9 60 -5 0 -13 9 -16 20 -3 11
-17 23 -31 26 -31 8 -31 20 1 28 28 7 41 52 32 116 -7 57 -40 83 -107 88 -45
3 -58 0 -71 -16z"/>
<path d="M11320 3990 c0 -17 7 -20 50 -20 43 0 50 3 50 20 0 17 -7 20 -50 20
-43 0 -50 -3 -50 -20z"/>
<path d="M11990 3990 c0 -18 7 -20 55 -20 48 0 55 2 55 20 0 18 -7 20 -55 20
-48 0 -55 -2 -55 -20z"/>
<path d="M14280 3900 c0 -5 -6 -10 -12 -10 -25 -1 -49 -29 -55 -64 -5 -35 -5
-36 26 -36 20 0 31 5 31 14 0 22 29 46 55 46 34 0 57 -27 53 -64 -3 -30 -5
-31 -65 -40 -35 -5 -63 -13 -63 -17 0 -5 -7 -9 -15 -9 -31 0 -46 -95 -24 -158
16 -46 97 -59 139 -22 13 11 29 20 35 20 7 0 15 -9 18 -20 4 -15 14 -20 36
-20 28 0 31 3 31 30 0 20 -5 30 -15 30 -13 0 -15 22 -15 135 0 125 -1 136 -22
155 -12 11 -28 20 -35 20 -7 0 -13 5 -13 10 0 6 -20 10 -45 10 -25 0 -45 -4
-45 -10z m100 -228 c0 -74 -72 -120 -113 -72 -34 40 -13 77 48 87 19 3 35 10
35 14 0 5 7 9 15 9 11 0 15 -11 15 -38z"/>
<path d="M14600 3902 c0 -4 -13 -13 -30 -20 -16 -7 -32 -23 -36 -35 -4 -12
-12 -25 -18 -29 -7 -5 -11 -46 -11 -113 0 -91 3 -108 18 -116 9 -6 17 -15 17
-21 0 -6 10 -19 23 -30 34 -30 116 -21 151 17 14 15 26 36 26 46 0 11 5 19 10
19 6 0 10 7 10 15 0 10 -10 15 -30 15 -16 0 -30 -5 -30 -11 0 -21 -45 -59 -70
-59 -36 0 -49 12 -60 51 -20 69 -7 192 22 211 16 10 69 10 85 0 6 -4 15 -20
18 -35 6 -22 13 -27 36 -27 22 0 29 5 29 20 0 11 -4 20 -9 20 -5 0 -12 13 -16
30 -4 16 -15 32 -26 35 -10 4 -19 11 -19 16 0 5 -20 9 -45 9 -25 0 -45 -3 -45
-8z"/>
<path d="M15290 3900 c0 -5 -6 -10 -12 -10 -25 -1 -49 -29 -55 -64 -5 -34 -4
-36 21 -36 14 0 26 4 26 10 0 21 36 50 62 50 37 0 60 -26 56 -64 -3 -30 -5
-31 -63 -40 -33 -5 -62 -12 -65 -16 -3 -3 -13 -9 -22 -13 -10 -3 -18 -13 -18
-22 0 -8 -4 -15 -10 -15 -5 0 -10 -22 -10 -50 0 -27 4 -50 9 -50 5 0 12 -11
15 -25 10 -41 105 -47 144 -8 14 14 16 13 24 -6 5 -15 16 -21 38 -21 27 0 30
3 30 30 0 20 -5 30 -15 30 -13 0 -15 22 -15 134 l0 134 -29 31 c-23 25 -37 31
-70 31 -23 0 -41 -4 -41 -10z m100 -228 c0 -72 -71 -119 -114 -76 -17 17 -21
51 -7 72 4 8 27 16 50 19 22 3 41 10 41 14 0 5 7 9 15 9 11 0 15 -11 15 -38z"/>
<path d="M11090 3770 c0 -13 7 -20 20 -20 13 0 20 7 20 20 0 13 -7 20 -20 20
-13 0 -20 -7 -20 -20z"/>
<path d="M11510 3735 c0 -16 -6 -25 -15 -25 -9 0 -15 -9 -15 -25 0 -15 6 -25
15 -25 11 0 15 -20 17 -102 l3 -103 33 -3 c27 -3 32 0 32 17 0 12 -7 21 -15
21 -12 0 -15 16 -15 85 0 69 3 85 15 85 9 0 15 9 15 25 0 16 -6 25 -15 25 -9
0 -15 9 -15 25 0 18 -5 25 -20 25 -15 0 -20 -7 -20 -25z"/>
<path d="M11090 3580 c0 -123 1 -130 20 -130 19 0 20 7 20 130 0 123 -1 130
-20 130 -19 0 -20 -7 -20 -130z"/>
<path d="M11170 3580 l0 -130 25 0 c25 0 25 1 25 89 0 97 13 125 54 119 20 -3
21 -10 24 -105 3 -102 3 -103 27 -103 25 0 25 0 25 105 0 58 -4 105 -9 105 -5
0 -12 11 -15 25 -5 20 -13 25 -36 25 -17 0 -30 -4 -30 -9 0 -5 -9 -11 -20 -14
-13 -3 -20 0 -20 9 0 8 -10 14 -25 14 l-25 0 0 -130z"/>
<path d="M11590 3695 c0 -8 4 -15 9 -15 5 0 14 -43 21 -95 7 -52 16 -95 21
-95 5 0 9 -9 9 -20 0 -13 7 -20 20 -20 16 0 20 7 20 30 0 17 4 30 9 30 5 0 12
32 16 70 4 39 10 70 14 70 4 0 14 -45 21 -100 12 -95 13 -100 36 -100 20 0 24
6 30 50 4 28 10 50 14 50 4 0 11 29 15 65 3 36 11 65 16 65 5 0 9 7 9 15 0 9
-9 15 -24 15 -26 0 -36 -21 -36 -82 0 -21 -4 -38 -10 -38 -5 0 -11 -19 -12
-42 l-1 -43 -4 38 c-2 20 -8 37 -12 37 -5 0 -12 29 -16 65 -6 55 -10 65 -26
65 -14 0 -19 -7 -19 -30 0 -16 -4 -30 -9 -30 -5 0 -12 -31 -16 -70 -4 -38 -11
-70 -15 -70 -5 0 -11 38 -15 85 -4 47 -11 85 -16 85 -5 0 -9 7 -9 15 0 8 -9
15 -20 15 -11 0 -20 -7 -20 -15z"/>
<path d="M11933 3683 c-13 -14 -23 -32 -23 -40 0 -7 -4 -13 -10 -13 -5 0 -10
-25 -10 -55 0 -30 4 -55 9 -55 5 0 12 -13 16 -29 10 -48 85 -57 131 -14 27 25
29 32 29 98 0 67 -2 74 -32 103 -39 40 -79 42 -110 5z m90 -43 c18 -22 24
-110 8 -110 -5 0 -13 -9 -16 -20 -8 -25 -30 -26 -57 -1 -17 17 -20 28 -16 76
5 56 17 75 48 75 9 0 23 -9 33 -20z"/>
<path d="M12133 3683 c-30 -34 -32 -93 -3 -100 11 -3 20 -9 20 -14 0 -5 11 -9
23 -9 13 0 34 -9 47 -20 20 -17 21 -21 7 -35 -21 -21 -50 -19 -67 5 -17 24
-50 27 -50 4 0 -9 10 -27 23 -40 49 -52 147 -17 147 52 0 38 -10 51 -43 59
-15 4 -27 11 -27 15 0 4 -13 10 -30 14 -36 7 -40 33 -6 42 28 7 66 -3 66 -17
0 -5 9 -9 20 -9 27 0 25 21 -5 54 -33 36 -91 36 -122 -1z"/>
<path d="M470 2136 l0 -346 45 0 45 0 0 160 0 160 50 0 c28 0 50 -4 50 -10 0
-5 5 -10 11 -10 26 0 60 -53 66 -101 3 -27 10 -49 14 -49 5 0 9 -20 9 -44 0
-24 3 -58 6 -75 6 -29 9 -31 50 -31 42 0 44 1 44 30 0 17 -4 30 -10 30 -5 0
-10 17 -10 38 0 20 -5 66 -10 100 -9 51 -17 71 -44 98 -18 19 -38 34 -45 34
-6 0 -11 7 -11 15 0 8 6 15 14 15 8 0 16 7 20 15 3 8 12 15 21 15 8 0 15 5 15
11 0 7 7 17 15 23 20 15 30 120 16 172 -7 28 -19 45 -38 55 -16 8 -31 18 -35
24 -4 5 -70 11 -147 13 l-141 4 0 -346z m220 285 c0 -5 9 -13 20 -16 11 -3 23
-17 26 -31 3 -13 10 -24 15 -24 5 0 9 -18 9 -40 0 -22 -4 -40 -10 -40 -5 0
-10 -10 -10 -23 0 -43 -61 -77 -136 -77 l-44 0 0 130 0 130 65 0 c36 0 65 -4
65 -9z"/>
<path d="M1114 2472 c-6 -4 -15 -32 -19 -62 -4 -30 -11 -57 -16 -60 -5 -3 -14
-41 -21 -83 -6 -42 -15 -77 -19 -77 -5 0 -11 -22 -15 -50 -4 -27 -10 -50 -14
-50 -5 0 -11 -24 -15 -52 -4 -29 -11 -55 -16 -58 -5 -3 -14 -41 -21 -83 -6
-42 -15 -77 -20 -77 -4 0 -8 -7 -8 -15 0 -11 12 -15 44 -15 46 0 56 11 56 68
0 12 4 22 8 22 5 0 14 36 21 80 l13 80 94 0 94 0 0 -30 c0 -16 4 -30 8 -30 5
0 15 -36 22 -80 7 -44 17 -80 22 -80 4 0 8 -7 8 -15 0 -11 12 -15 45 -15 33 0
45 4 45 15 0 8 -4 15 -9 15 -5 0 -11 23 -15 50 -4 28 -11 50 -16 50 -5 0 -12
23 -16 50 -4 28 -10 50 -15 50 -5 0 -11 23 -15 50 -4 28 -10 50 -14 50 -4 0
-13 34 -21 75 -7 41 -16 75 -21 75 -4 0 -10 23 -14 50 -4 28 -10 50 -14 50 -5
0 -11 18 -15 40 -4 22 -11 40 -16 40 -5 0 -9 7 -9 15 0 11 -11 15 -37 15 -21
0 -43 -4 -49 -8z m76 -199 c7 -43 16 -80 20 -83 4 -3 11 -26 15 -52 l7 -48
-70 0 -71 0 6 38 c3 20 10 39 14 42 4 3 11 29 15 58 3 28 10 52 15 52 5 0 9
13 9 28 0 28 7 42 20 42 4 0 13 -35 20 -77z"/>
<path d="M18250 1795 l0 -345 45 0 45 0 0 155 0 155 85 0 c50 0 85 4 85 10 0
6 11 10 25 10 13 0 28 6 32 13 4 6 20 18 36 26 20 11 29 24 33 53 4 21 10 38
15 38 5 0 9 25 9 55 0 30 -4 55 -9 55 -5 0 -12 11 -15 25 -9 35 -41 64 -76 72
-17 3 -30 9 -30 14 0 5 -63 9 -140 9 l-140 0 0 -345z m250 277 c0 -4 13 -13
30 -20 55 -25 55 -138 -1 -194 -30 -31 -38 -33 -111 -37 l-78 -3 0 131 0 131
80 0 c44 0 80 -3 80 -8z"/>
<path d="M530 1245 l0 -345 170 0 170 0 0 30 0 30 -130 0 -130 0 0 315 0 315
-40 0 -40 0 0 -345z"/>
<path d="M1127 1583 c-4 -3 -7 -19 -7 -35 0 -15 -4 -28 -9 -28 -5 0 -11 -22
-15 -50 -4 -27 -10 -50 -15 -50 -4 0 -13 -35 -19 -77 -7 -42 -16 -80 -21 -83
-5 -3 -12 -31 -16 -62 -4 -32 -11 -58 -15 -58 -5 0 -11 -22 -15 -50 -4 -27
-10 -50 -15 -50 -4 0 -10 -20 -13 -45 -4 -25 -9 -56 -13 -70 -6 -24 -4 -25 35
-25 30 0 41 4 41 15 0 8 4 15 9 15 5 0 15 38 22 85 7 47 16 85 21 85 4 0 8 9
8 20 0 19 7 20 94 20 l94 0 12 -80 c7 -44 16 -80 20 -80 4 0 10 -18 14 -40 6
-40 6 -40 52 -40 l45 0 -7 38 c-4 20 -10 39 -14 42 -4 3 -11 24 -15 48 -4 23
-10 42 -15 42 -4 0 -10 23 -14 50 -4 28 -10 50 -15 50 -5 0 -11 23 -15 50 -4
28 -10 50 -15 50 -4 0 -14 34 -21 75 -7 41 -16 75 -20 75 -5 0 -11 23 -15 50
-4 28 -10 50 -15 50 -4 0 -11 16 -14 35 -7 34 -9 35 -50 35 -23 0 -46 -3 -49
-7z m84 -243 c5 0 11 -22 15 -50 4 -27 10 -50 15 -50 5 0 9 -9 9 -20 0 -18 -7
-20 -75 -20 -43 0 -75 4 -75 10 0 6 4 10 9 10 5 0 13 25 16 55 4 30 11 55 15
55 4 0 11 26 15 58 10 81 28 86 39 12 5 -33 13 -60 17 -60z"/>
<path d="M5871 3188 c-1 -10 -5 -18 -10 -18 -5 0 -19 -11 -32 -25 -13 -13 -29
-25 -36 -25 -6 0 -13 -6 -15 -12 -4 -10 -116 -14 -506 -16 -283 -1 -502 -7
-502 -12 0 -4 -13 -11 -29 -15 -17 -3 -33 -16 -40 -31 -14 -31 -14 -74 -1 -74
6 0 10 7 10 15 0 8 5 15 10 15 6 0 10 6 10 14 0 30 84 36 554 36 265 0 466 4
466 9 0 5 16 12 35 15 19 4 35 11 35 16 0 6 6 10 14 10 8 0 21 7 29 15 13 13
16 13 21 0 3 -8 12 -15 21 -15 8 0 15 -4 15 -10 0 -5 18 -13 40 -16 22 -4 40
-10 40 -15 0 -5 211 -9 475 -9 530 0 570 -4 580 -51 9 -39 35 -38 35 1 0 17
-4 30 -9 30 -5 0 -12 9 -16 19 -3 11 -19 22 -35 26 -17 4 -30 11 -30 15 0 5
-223 11 -512 12 -398 2 -512 6 -516 16 -2 6 -9 12 -16 12 -15 0 -71 50 -79 70
-4 12 -6 11 -6 -2z"/>
<path d="M3350 2705 l0 -354 58 -3 57 -3 -22 -20 c-13 -11 -23 -24 -23 -30 0
-6 -9 -18 -20 -28 -12 -10 -20 -29 -20 -47 0 -23 4 -30 20 -30 11 0 20 7 20
15 0 8 9 23 20 32 11 10 20 22 20 27 0 5 10 18 23 30 13 12 26 29 30 39 6 15
30 17 272 17 l265 0 0 355 0 355 -350 0 -350 0 0 -355z m650 0 l0 -295 -295 0
-295 0 0 295 0 295 295 0 295 0 0 -295z"/>
<path d="M3623 2898 c-23 -8 -34 -18 -38 -39 -4 -16 -11 -29 -16 -29 -5 0 -9
-13 -9 -30 0 -27 3 -30 30 -30 25 0 30 4 30 24 0 30 40 76 66 76 35 0 64 -12
64 -26 0 -8 5 -14 10 -14 6 0 10 -14 10 -30 0 -32 -54 -100 -79 -100 -6 0 -11
-4 -11 -9 0 -5 -9 -12 -20 -16 -25 -8 -80 -63 -80 -80 0 -7 -4 -15 -10 -17 -5
-1 -12 -18 -16 -35 l-6 -33 136 0 c129 0 136 1 136 20 0 19 -7 20 -106 20
-105 0 -105 0 -98 23 3 12 10 23 14 25 5 2 18 12 31 23 12 10 28 19 36 19 7 0
13 5 13 11 0 5 14 15 30 20 17 6 30 14 30 18 0 4 10 18 22 30 28 31 37 111 14
133 -9 9 -16 22 -16 28 0 27 -102 38 -167 18z"/>
<path d="M5051 2899 c-25 -5 -47 -13 -50 -18 -4 -5 -18 -12 -32 -16 -15 -4
-32 -17 -39 -31 -8 -13 -16 -24 -19 -24 -18 0 -70 -62 -81 -96 -7 -21 -18 -42
-24 -46 -15 -10 -15 -246 0 -256 7 -4 17 -26 24 -49 7 -24 16 -43 20 -43 10 0
90 -80 90 -90 0 -4 12 -11 27 -15 15 -3 30 -11 34 -16 3 -5 33 -14 67 -20 l62
-11 0 -44 c0 -42 1 -44 30 -44 29 0 30 2 30 44 l0 44 62 11 c34 6 64 15 67 19
3 5 17 13 30 17 22 7 81 62 81 76 0 3 11 11 24 19 14 7 27 24 31 39 4 14 11
29 17 32 20 13 33 154 21 235 -6 42 -15 79 -21 83 -5 3 -12 16 -16 29 -9 29
-109 129 -138 138 -13 4 -25 11 -29 15 -15 25 -180 35 -268 18z m179 -49 c0
-5 11 -10 24 -10 14 0 31 -6 38 -13 7 -7 29 -19 48 -27 43 -18 62 -37 80 -80
8 -19 20 -41 27 -48 7 -7 13 -24 13 -38 0 -13 5 -24 10 -24 6 0 10 -30 10 -70
0 -38 -4 -70 -9 -70 -5 0 -12 -16 -15 -35 -4 -19 -10 -35 -15 -35 -4 0 -14
-18 -21 -39 -8 -24 -23 -44 -39 -52 -14 -8 -32 -20 -39 -26 -7 -7 -18 -13 -23
-13 -6 0 -17 -7 -25 -15 -9 -8 -26 -15 -40 -15 -13 0 -24 -4 -24 -10 0 -6 -30
-10 -70 -10 -38 0 -70 4 -70 9 0 5 -16 12 -35 15 -19 4 -35 11 -35 16 0 6 -6
10 -14 10 -8 0 -21 6 -28 13 -7 7 -21 16 -31 20 -9 4 -20 15 -24 24 -4 10 -13
24 -20 31 -7 7 -13 20 -13 28 0 8 -4 14 -10 14 -5 0 -12 16 -16 35 -3 19 -10
35 -15 35 -5 0 -9 32 -9 70 0 40 4 70 10 70 6 0 10 11 10 24 0 14 7 31 15 40
8 8 15 19 15 25 0 5 6 16 13 23 6 7 18 25 26 39 8 16 28 31 52 39 21 7 39 17
39 21 0 5 16 11 35 15 19 3 35 10 35 15 0 5 32 9 70 9 40 0 70 -4 70 -10z"/>
<path d="M5160 2727 c0 -19 -37 -47 -71 -54 -20 -4 -29 -11 -29 -24 0 -16 8
-19 45 -19 l45 0 0 -145 0 -145 25 0 25 0 0 200 c0 193 -1 200 -20 200 -11 0
-20 -6 -20 -13z"/>
<path d="M2470 2887 c0 -19 -37 -47 -71 -54 -20 -4 -29 -11 -29 -24 0 -16 8
-19 45 -19 l45 0 0 -145 0 -145 25 0 25 0 0 200 c0 193 -1 200 -20 200 -11 0
-20 -6 -20 -13z"/>
<path d="M6240 2545 l0 -355 165 0 165 0 0 -55 c0 -54 0 -55 30 -55 30 0 30 1
30 55 l0 55 155 0 155 0 0 355 0 355 -350 0 -350 0 0 -355z m650 0 l0 -295
-295 0 -295 0 0 295 0 295 295 0 295 0 0 -295z"/>
<path d="M6572 2710 c-11 -24 -22 -31 -53 -36 -29 -5 -39 -11 -39 -25 0 -16 8
-19 45 -19 l45 0 0 -145 0 -145 30 0 30 0 0 200 0 200 -23 0 c-15 0 -26 -9
-35 -30z"/>
<path d="M2717 2243 c7 -2 15 -20 19 -39 3 -19 10 -34 14 -34 5 0 11 -13 15
-30 4 -16 11 -30 16 -30 5 0 9 -11 9 -24 0 -14 6 -31 14 -39 30 -29 40 -93 26
-155 -8 -31 -20 -63 -27 -70 -7 -7 -13 -20 -13 -28 0 -8 -4 -14 -10 -14 -5 0
-12 -17 -16 -37 -4 -21 -13 -44 -21 -51 -7 -7 -13 -20 -13 -28 0 -8 -4 -14 -9
-14 -5 0 -11 -12 -13 -27 -3 -16 -9 -36 -13 -45 -6 -16 -1 -18 43 -18 49 0 50
1 56 35 4 19 11 35 16 35 4 0 14 23 21 50 7 28 16 50 20 50 4 0 10 14 14 30 4
17 11 30 16 30 5 0 9 9 9 21 0 18 2 19 15 6 7 -8 17 -26 21 -41 3 -14 10 -26
15 -26 5 0 9 -8 9 -17 0 -24 23 -83 32 -83 4 0 8 -11 8 -23 0 -38 32 -67 75
-67 36 0 37 1 30 27 -3 15 -10 30 -14 33 -4 3 -13 26 -21 53 -7 26 -16 47 -21
47 -4 0 -11 16 -15 35 -3 19 -10 35 -14 35 -5 0 -11 14 -15 30 -4 17 -10 30
-14 30 -4 0 -12 21 -19 46 -10 35 -10 54 -1 85 7 21 15 39 19 39 4 0 11 16 14
35 4 19 11 35 16 35 4 0 11 14 15 30 4 17 10 30 15 30 4 0 10 12 14 28 3 15 8
37 12 50 6 20 3 22 -32 22 -52 0 -61 -7 -74 -63 -7 -26 -16 -47 -21 -47 -5 0
-12 -18 -15 -39 -6 -38 -34 -67 -34 -36 0 8 -4 15 -9 15 -5 0 -12 16 -15 35
-4 19 -11 35 -16 35 -4 0 -14 23 -21 50 l-13 50 -55 -1 c-31 0 -51 -3 -44 -6z"/>
<path d="M4848 1944 c-10 -3 -18 -10 -18 -15 0 -5 -6 -9 -12 -9 -15 0 -58 -43
-58 -58 0 -6 -6 -12 -12 -15 -9 -2 -13 -28 -13 -79 l0 -76 52 -50 c28 -28 65
-53 82 -57 17 -4 31 -10 31 -15 0 -4 11 -11 25 -14 14 -4 36 -17 48 -29 19
-19 22 -32 21 -100 0 -58 -4 -81 -15 -87 -7 -5 -25 -18 -38 -29 -27 -24 -92
-29 -113 -8 -7 7 -25 18 -40 24 -16 7 -28 17 -28 23 0 5 -7 10 -15 10 -11 0
-15 -12 -15 -44 0 -39 3 -45 27 -51 15 -3 31 -12 35 -18 10 -17 170 -16 175 1
3 6 10 12 17 12 31 0 86 71 86 109 0 12 5 21 10 21 6 0 10 25 10 55 0 30 -4
55 -10 55 -5 0 -10 11 -10 24 0 25 -44 76 -66 76 -8 0 -14 4 -14 9 0 5 -13 12
-30 16 -16 4 -30 10 -30 15 0 4 -12 11 -26 14 -44 11 -84 61 -84 106 0 84 34
125 105 125 47 0 56 -4 81 -32 40 -46 54 -43 54 12 0 34 -4 47 -17 52 -10 4
-21 11 -24 15 -7 11 -145 20 -171 12z"/>
<path d="M6288 1944 c-10 -3 -18 -10 -18 -15 0 -5 -6 -9 -12 -9 -15 0 -58 -43
-58 -58 0 -6 -6 -12 -12 -15 -9 -2 -13 -28 -13 -78 0 -73 1 -76 38 -113 20
-22 37 -42 37 -46 0 -4 20 -13 45 -20 25 -7 45 -16 45 -20 0 -4 11 -11 25 -14
14 -4 36 -17 48 -29 19 -19 22 -32 21 -100 0 -63 -3 -81 -17 -88 -9 -5 -24
-17 -33 -27 -12 -12 -34 -17 -69 -17 -49 0 -58 4 -106 48 -30 27 -39 21 -39
-27 0 -39 3 -45 27 -51 15 -3 31 -12 35 -18 10 -16 166 -16 176 -1 4 6 17 14
30 18 12 4 22 10 22 14 0 4 11 20 25 36 14 16 25 40 25 53 0 12 5 23 10 23 6
0 10 25 10 55 0 30 -4 55 -10 55 -5 0 -10 9 -10 21 0 23 -48 79 -67 79 -7 0
-13 4 -13 9 0 5 -13 12 -30 16 -16 4 -30 10 -30 15 0 4 -11 11 -25 14 -14 4
-41 22 -60 40 -29 28 -35 42 -35 75 0 23 4 41 9 41 5 0 13 10 17 22 12 40 35
53 89 53 47 0 56 -4 81 -32 40 -46 54 -43 54 12 0 25 -4 45 -9 45 -5 0 -17 7
-25 16 -16 16 -142 29 -178 18z"/>
<path d="M5150 1910 l0 -30 75 0 75 0 0 -320 0 -320 45 0 45 0 0 320 0 320 80
0 80 0 0 30 0 30 -200 0 -200 0 0 -30z"/>
<path d="M6580 1910 l0 -30 80 0 80 0 0 -320 0 -320 45 0 45 0 0 320 0 320 80
0 80 0 0 30 0 30 -205 0 -205 0 0 -30z"/>
<path d="M3130 1670 l0 -180 30 0 30 0 0 80 c0 47 4 80 10 80 13 0 50 -37 50
-50 0 -5 6 -13 13 -17 7 -4 19 -24 27 -43 17 -42 26 -50 65 -50 17 0 25 4 19
8 -6 4 -14 17 -18 30 -4 12 -12 22 -17 22 -5 0 -9 7 -9 15 0 7 -6 18 -13 22
-6 4 -18 20 -26 35 -12 23 -12 29 1 41 7 8 24 17 35 21 45 14 42 131 -2 142
-14 3 -25 10 -25 15 0 5 -38 9 -85 9 l-85 0 0 -180z m156 123 c15 -20 18 -62
5 -82 -5 -7 -29 -16 -55 -18 l-46 -6 0 62 0 61 41 0 c28 0 46 -6 55 -17z"/>
<path d="M5450 1350 l0 -180 105 0 105 0 0 25 c0 24 -2 25 -75 25 l-75 0 0
155 0 155 -30 0 -30 0 0 -180z"/>
<path d="M6890 1350 l0 -180 105 0 105 0 0 25 c0 25 -1 25 -80 25 l-80 0 0
155 0 155 -25 0 -25 0 0 -180z"/>
<path d="M2715 1445 c-16 -13 -42 -36 -57 -50 -15 -14 -31 -25 -37 -25 -6 0
-15 -9 -21 -20 -10 -19 -21 -20 -245 -20 l-235 0 0 -355 0 -355 355 0 355 0 0
355 0 355 -80 0 -81 0 21 22 c11 12 20 25 20 30 0 4 6 8 14 8 19 0 66 46 66
65 0 23 -41 18 -75 -10z m55 -470 l0 -295 -295 0 -295 0 0 295 0 295 295 0
295 0 0 -295z"/>
<path d="M2470 1157 c0 -19 -37 -47 -71 -54 -20 -4 -29 -11 -29 -24 0 -16 8
-19 45 -19 l45 0 0 -145 0 -145 25 0 25 0 0 200 c0 193 -1 200 -20 200 -11 0
-20 -6 -20 -13z"/>
<path d="M3638 1163 c-10 -2 -18 -9 -18 -14 0 -5 -6 -9 -14 -9 -8 0 -17 -11
-20 -25 -4 -14 -11 -25 -16 -25 -6 0 -10 -13 -10 -30 0 -27 3 -30 30 -30 25 0
30 4 30 25 0 31 44 75 75 75 14 0 25 -4 25 -10 0 -5 5 -10 11 -10 20 0 39 -29
39 -60 0 -22 -9 -39 -32 -61 -18 -16 -36 -29 -41 -29 -9 0 -16 -6 -74 -58 -24
-21 -43 -43 -43 -49 0 -6 -4 -13 -10 -15 -5 -2 -12 -18 -16 -35 l-6 -33 136 0
c129 0 136 1 136 20 0 19 -7 20 -106 20 -93 0 -105 2 -100 16 3 9 6 19 6 24 0
4 14 13 30 20 17 7 30 16 30 21 0 5 7 9 15 9 9 0 18 7 21 15 4 8 12 15 19 15
6 0 27 14 45 32 27 25 34 41 38 81 4 37 1 53 -10 61 -8 6 -18 21 -22 32 -4 12
-17 25 -29 28 -25 6 -93 6 -119 -1z"/>
<path d="M6570 1046 l0 -64 -62 -11 c-34 -6 -64 -15 -67 -19 -3 -5 -16 -12
-29 -16 -29 -9 -129 -109 -138 -138 -4 -13 -11 -26 -16 -29 -6 -4 -15 -41 -21
-83 -12 -81 1 -222 21 -235 6 -3 13 -18 17 -32 4 -15 17 -32 31 -39 13 -8 24
-16 24 -19 0 -14 59 -69 81 -76 13 -4 27 -12 30 -17 4 -6 41 -15 83 -21 81
-12 222 1 235 21 3 6 19 14 34 17 15 4 27 11 27 15 0 10 80 90 90 90 4 0 13
19 20 43 7 23 17 45 24 49 15 10 15 246 0 256 -6 4 -17 25 -24 46 -11 34 -63
96 -81 96 -3 0 -11 11 -19 24 -7 14 -24 27 -39 31 -14 4 -28 11 -32 16 -3 5
-33 14 -67 20 l-62 11 0 64 0 64 -30 0 -30 0 0 -64z m100 -125 c0 -5 16 -12
35 -15 19 -4 35 -10 35 -15 0 -4 18 -14 39 -21 24 -8 44 -23 52 -39 8 -14 20
-32 27 -39 6 -7 12 -18 12 -23 0 -6 7 -17 15 -25 8 -9 15 -26 15 -40 0 -13 5
-24 10 -24 6 0 10 -30 10 -70 0 -38 -4 -70 -9 -70 -5 0 -12 -16 -15 -35 -4
-19 -11 -35 -16 -35 -6 0 -10 -6 -10 -14 0 -8 -6 -21 -13 -28 -7 -7 -16 -21
-20 -31 -4 -9 -15 -20 -24 -24 -10 -4 -24 -13 -31 -20 -7 -7 -20 -13 -28 -13
-8 0 -14 -4 -14 -10 0 -5 -16 -12 -35 -16 -19 -3 -35 -10 -35 -15 0 -5 -31 -9
-70 -9 -40 0 -70 4 -70 10 0 6 -11 10 -24 10 -14 0 -31 7 -40 15 -8 8 -19 15
-25 15 -5 0 -16 6 -23 12 -7 7 -25 19 -39 27 -16 8 -31 28 -39 52 -7 21 -17
39 -21 39 -5 0 -11 16 -15 35 -3 19 -10 35 -15 35 -5 0 -9 32 -9 70 0 40 4 70
10 70 6 0 10 11 10 24 0 14 6 31 13 38 7 7 19 29 27 48 18 43 37 62 80 80 19
8 41 20 48 27 7 7 24 13 38 13 13 0 24 5 24 10 0 6 30 10 70 10 39 0 70 -4 70
-9z"/>
<path d="M6560 821 c0 -5 -13 -12 -30 -16 -16 -4 -30 -13 -30 -20 0 -7 -5 -15
-11 -17 -5 -2 -13 -22 -16 -46 -6 -42 -5 -42 26 -42 27 0 31 3 31 28 0 16 11
37 25 51 21 19 32 22 61 18 46 -8 45 -7 51 -60 5 -39 2 -47 -27 -75 -17 -18
-38 -32 -46 -32 -8 0 -17 -7 -20 -15 -4 -8 -11 -15 -17 -15 -15 0 -76 -66 -87
-95 -25 -65 -24 -65 125 -65 l135 0 0 25 0 25 -112 0 c-62 0 -108 4 -102 8 6
4 13 15 17 25 3 9 13 17 21 17 7 0 16 7 20 15 3 8 12 15 21 15 8 0 15 4 15 9
0 5 10 13 21 16 28 9 79 61 79 80 0 8 5 15 10 15 6 0 10 18 10 40 0 22 -4 40
-9 40 -5 0 -14 14 -20 30 -5 17 -17 30 -25 30 -9 0 -16 5 -16 10 0 6 -22 10
-50 10 -27 0 -50 -4 -50 -9z"/>
<path d="M5120 1035 l0 -65 -160 0 -160 0 0 -355 0 -355 355 0 355 0 0 355 0
355 -165 0 -165 0 0 65 0 65 -30 0 -30 0 0 -65z m330 -420 l0 -295 -295 0
-295 0 0 295 0 295 295 0 295 0 0 -295z"/>
<path d="M5100 821 c0 -5 -11 -12 -25 -15 -14 -4 -25 -13 -25 -20 0 -8 -5 -16
-11 -18 -5 -2 -13 -22 -16 -46 -5 -40 -4 -42 21 -42 21 0 26 5 26 25 0 32 44
75 76 75 33 0 54 -10 54 -26 0 -8 5 -14 10 -14 6 0 10 -16 10 -35 0 -19 -4
-35 -8 -35 -5 0 -15 -11 -22 -25 -7 -13 -26 -29 -41 -34 -16 -5 -29 -14 -29
-19 0 -6 -11 -13 -25 -16 -14 -4 -25 -10 -25 -14 0 -4 -11 -20 -25 -36 -14
-16 -25 -35 -25 -43 0 -7 -4 -13 -10 -13 -5 0 -10 -11 -10 -25 l0 -25 140 0
140 0 0 25 0 25 -109 0 c-104 0 -109 1 -104 20 3 11 16 23 28 26 13 3 26 12
29 20 3 8 10 14 16 14 6 0 17 6 25 13 7 6 25 21 41 32 40 29 54 45 54 61 0 8
5 14 10 14 6 0 10 18 10 40 0 22 -4 40 -10 40 -5 0 -12 11 -16 25 -4 15 -16
28 -30 31 -13 3 -24 10 -24 15 0 5 -22 9 -50 9 -27 0 -50 -4 -50 -9z"/>
<path d="M2900 376 c0 -73 -3 -147 -6 -163 l-6 -30 67 -1 c49 -1 67 2 72 13 7
19 29 19 36 0 5 -11 23 -14 82 -13 65 2 75 4 75 20 0 10 -4 18 -10 18 -6 0
-10 33 -10 78 -1 98 -10 112 -77 112 -42 0 -52 -4 -61 -22 -6 -13 -11 -17 -11
-10 -1 6 -8 12 -16 12 -8 0 -15 5 -15 10 0 15 -57 12 -63 -2 -3 -7 -6 15 -6
50 -1 59 -2 62 -26 62 l-25 0 0 -134z m106 -20 c21 -22 18 -92 -6 -116 -36
-36 -50 -20 -50 55 0 72 21 95 56 61z m147 1 c8 -22 -6 -34 -50 -41 -39 -6
-43 -4 -43 14 0 11 7 20 15 20 8 0 15 5 15 10 0 15 57 12 63 -3z m7 -92 c0
-16 -6 -25 -15 -25 -8 0 -15 -4 -15 -10 0 -16 -27 -12 -34 5 -8 21 3 43 22 48
35 9 42 6 42 -18z"/>
<path d="M2659 474 c-17 -5 -29 -33 -29 -66 0 -11 8 -18 20 -18 11 0 20 5 20
11 0 16 26 39 44 39 9 0 16 -4 16 -10 0 -5 7 -10 15 -10 8 0 15 -7 15 -15 0
-15 -34 -55 -46 -55 -4 0 -22 -16 -41 -35 -26 -27 -35 -46 -40 -85 l-6 -50 87
0 c79 0 86 2 86 20 0 18 -7 20 -65 20 -36 0 -65 4 -65 9 0 12 44 61 54 61 4 0
23 16 43 35 33 32 35 38 31 85 -3 28 -8 53 -12 57 -8 8 -105 13 -127 7z"/>
<path d="M3254 388 c3 -13 6 -65 6 -115 0 -86 1 -93 20 -93 18 0 20 7 20 85 0
69 3 85 15 85 8 0 15 5 15 10 0 6 14 10 30 10 26 0 30 -4 30 -28 0 -17 8 -33
21 -42 12 -8 27 -20 33 -26 6 -5 19 -13 28 -17 27 -10 10 -37 -23 -37 -16 0
-29 5 -29 10 0 19 -29 10 -35 -11 -10 -29 -1 -34 66 -34 66 0 79 10 79 60 -1
36 -17 59 -49 70 -38 12 -50 27 -35 42 15 15 44 17 44 3 0 -16 27 -11 34 6 15
40 -82 63 -110 27 -13 -17 -15 -17 -28 0 -14 18 -66 24 -66 7 0 -5 -7 -10 -15
-10 -8 0 -15 5 -15 10 0 6 -10 10 -21 10 -17 0 -20 -4 -15 -22z"/>
<path d="M7820 2540 l0 -350 45 0 45 0 0 161 0 161 59 -4 c48 -3 63 -9 85 -33
14 -15 26 -36 26 -46 0 -11 4 -19 9 -19 5 0 12 -30 15 -67 4 -38 9 -87 13
-110 l5 -43 45 0 44 0 -7 78 c-4 42 -10 79 -14 82 -4 3 -10 28 -13 57 -5 41
-13 58 -42 87 -20 20 -40 36 -45 36 -6 0 -10 5 -10 10 0 6 6 10 14 10 8 0 16
7 20 15 3 8 12 15 21 15 8 0 15 5 15 11 0 6 7 17 15 25 8 9 15 24 15 35 0 10
5 19 10 19 6 0 10 23 10 50 0 28 -4 50 -10 50 -5 0 -10 8 -10 19 0 27 -45 70
-80 77 -16 4 -30 10 -30 15 0 5 -56 9 -125 9 l-125 0 0 -350z m220 282 c0 -4
13 -13 30 -20 22 -10 31 -22 36 -48 13 -68 -16 -154 -52 -154 -7 0 -14 -5 -16
-12 -2 -6 -31 -13 -66 -16 l-62 -4 0 131 0 131 65 0 c36 0 65 -3 65 -8z"/>
<path d="M7740 1905 c0 -90 -4 -145 -10 -145 -5 0 -10 -8 -10 -19 0 -16 9 -18
65 -19 67 -1 94 12 96 46 0 13 2 14 6 2 16 -39 37 -48 111 -48 63 1 72 3 72
19 0 11 -4 19 -10 19 -6 0 -10 33 -10 79 0 100 -10 113 -84 109 -47 -3 -51 -5
-54 -30 -2 -20 1 -28 12 -28 9 0 16 5 16 10 0 14 39 12 54 -3 18 -17 1 -32
-47 -41 -23 -4 -37 -13 -37 -21 0 -8 -4 -15 -9 -15 -5 0 -11 25 -13 55 -3 30
-8 58 -12 62 -4 4 -27 8 -52 8 l-44 0 0 53 c0 45 -3 52 -20 52 -19 0 -20 -7
-20 -145z m104 -11 c14 -36 6 -99 -14 -117 -37 -31 -50 -16 -50 58 0 24 3 50
6 59 8 21 50 21 58 0z m166 -89 c0 -16 -6 -25 -15 -25 -8 0 -15 -4 -15 -10 0
-16 -27 -11 -34 6 -10 26 -7 34 17 44 37 15 47 11 47 -15z"/>
<path d="M8080 1933 c0 -7 5 -13 10 -13 6 0 10 -40 10 -100 0 -93 1 -100 20
-100 18 0 20 7 20 85 0 69 3 85 15 85 8 0 15 5 15 10 0 6 14 10 30 10 26 0 30
-4 30 -27 0 -35 7 -44 45 -63 46 -23 54 -32 39 -47 -16 -17 -61 -17 -66 -1 -3
9 -9 8 -21 -4 -23 -23 -21 -35 6 -42 43 -11 94 -6 115 13 41 35 19 98 -40 116
-27 9 -38 23 -31 42 6 16 50 17 55 1 3 -9 9 -8 21 4 9 9 17 21 17 26 0 24
-117 31 -126 7 -5 -12 -8 -12 -20 0 -19 18 -144 17 -144 -2z"/>
<path d="M7735 1568 c-16 -18 -20 -37 -20 -91 0 -77 8 -87 68 -87 35 0 38 -2
31 -22 -9 -30 -7 -29 -53 -35 -31 -4 -41 -10 -41 -24 0 -31 78 -26 109 6 13
14 27 25 32 25 5 0 9 12 9 28 0 45 10 51 95 54 67 3 80 6 83 21 3 15 -6 17
-81 17 l-84 0 -5 44 c-7 56 -28 77 -81 83 -35 4 -45 1 -62 -19z m85 -38 c11
-11 20 -29 20 -40 0 -25 -34 -60 -59 -60 -32 0 -42 72 -13 101 22 23 28 23 52
-1z"/>
<path d="M8070 1570 c0 -13 7 -20 20 -20 19 0 20 -7 20 -110 0 -103 -1 -110
-20 -110 -13 0 -20 -7 -20 -20 0 -18 7 -20 65 -20 58 0 65 2 65 20 0 15 -7 20
-25 20 l-25 0 0 130 0 130 -40 0 c-33 0 -40 -3 -40 -20z"/>
<path d="M8257 1559 c-16 -19 -27 -43 -27 -60 0 -16 -4 -29 -10 -29 -16 0 -12
-119 4 -136 8 -7 16 -19 18 -24 2 -6 22 -14 44 -17 35 -4 45 -1 67 21 23 22
27 36 27 80 0 67 -22 96 -73 96 -30 0 -34 3 -30 20 3 11 12 20 19 20 8 0 14 5
14 10 0 6 14 10 30 10 23 0 30 4 30 20 0 17 -7 20 -43 20 -35 0 -47 -5 -70
-31z m78 -143 c9 -44 -1 -73 -26 -81 -25 -8 -59 24 -59 55 0 27 30 58 57 59
17 1 23 -6 28 -33z"/>
<path d="M7637 950 c-9 -11 -20 -32 -23 -47 -4 -16 -12 -31 -18 -35 -7 -5 -11
-49 -11 -121 0 -95 3 -117 18 -131 9 -10 17 -22 17 -27 0 -14 33 -49 47 -49
18 0 17 57 -1 63 -8 3 -18 22 -22 41 -3 20 -10 36 -15 36 -5 0 -9 29 -9 65 0
36 4 65 9 65 4 0 11 19 14 42 3 23 13 47 21 54 19 14 21 64 3 64 -7 0 -20 -9
-30 -20z"/>
<path d="M7740 950 c0 -5 -7 -10 -15 -10 -8 0 -15 -7 -15 -15 0 -8 -4 -15 -10
-15 -5 0 -10 -16 -10 -35 0 -19 5 -35 10 -35 6 0 10 -7 10 -15 0 -9 7 -18 16
-22 16 -6 84 -69 84 -78 0 -3 -9 -14 -20 -25 -21 -21 -50 -27 -50 -10 0 6 -11
10 -25 10 -20 0 -25 -5 -25 -25 0 -20 6 -25 36 -31 32 -6 101 0 111 9 2 3 6
21 10 40 8 49 -4 107 -23 107 -8 0 -22 9 -31 20 -10 11 -23 20 -30 20 -15 0
-28 44 -18 60 4 7 26 10 53 8 38 -2 47 0 50 15 2 10 -3 17 -12 17 -9 0 -16 5
-16 10 0 6 -18 10 -40 10 -22 0 -40 -4 -40 -10z"/>
<path d="M7983 945 c-7 -8 -13 -19 -13 -25 0 -5 -4 -10 -10 -10 -5 0 -10 -16
-10 -35 0 -19 4 -35 9 -35 5 0 11 -9 14 -20 3 -13 0 -20 -8 -20 -25 0 -33
-126 -10 -149 4 -3 41 -6 83 -6 51 0 77 -4 79 -12 6 -17 21 -16 39 1 18 19 18
32 -2 40 -12 5 -14 17 -8 66 6 51 4 60 -9 60 -10 0 -20 -13 -24 -31 l-8 -31
-30 28 c-19 17 -25 29 -17 32 6 2 12 10 12 18 0 8 7 17 15 20 23 9 20 79 -5
104 -23 23 -79 26 -97 5z m62 -45 c8 -13 -5 -60 -17 -60 -14 0 -38 27 -38 43
0 23 43 36 55 17z m-12 -163 c28 -26 32 -35 21 -45 -16 -15 -44 -16 -44 -2 0
6 -7 10 -15 10 -8 0 -15 6 -15 13 0 17 11 57 16 57 2 0 19 -15 37 -33z"/>
<path d="M8263 945 c-22 -25 -14 -35 27 -35 l40 0 0 -135 c0 -128 1 -135 20
-135 19 0 20 7 20 135 l0 135 30 0 c25 0 30 4 30 25 0 25 -1 25 -77 25 -55 -1
-82 -5 -90 -15z"/>
<path d="M8630 580 c0 -18 6 -33 15 -36 8 -3 17 -26 21 -50 3 -24 10 -44 15
-44 5 0 9 -29 9 -65 0 -36 -4 -65 -9 -65 -5 0 -12 -15 -15 -34 -4 -19 -13 -37
-21 -40 -19 -7 -20 -66 -2 -66 26 0 67 71 67 115 0 14 5 25 10 25 6 0 10 32
10 75 0 41 -4 75 -8 75 -5 0 -14 22 -20 50 -18 80 -72 124 -72 60z"/>
<path d="M7980 555 l0 -45 -52 -2 c-29 -1 -68 -1 -87 1 -31 2 -33 0 -27 -21 3
-13 6 -65 6 -115 0 -92 0 -93 25 -93 25 0 25 1 25 81 0 94 9 109 69 109 l41 0
0 -79 c0 -105 23 -127 108 -105 29 8 32 54 2 54 -11 0 -20 -4 -20 -10 0 -5
-11 -10 -25 -10 -24 0 -25 2 -25 75 l0 75 40 0 c33 0 40 3 40 20 0 17 -7 20
-40 20 -38 0 -40 2 -40 29 0 39 -9 61 -26 61 -10 0 -14 -13 -14 -45z"/>
<path d="M8148 513 c-2 -5 -2 -59 0 -120 4 -112 4 -113 28 -113 23 0 24 2 24
78 0 66 3 80 20 95 35 30 50 3 50 -92 0 -74 2 -81 20 -81 16 0 20 7 20 30 0
36 15 40 24 6 10 -40 116 -53 136 -17 16 31 12 41 -15 41 -14 0 -25 -4 -25
-10 0 -5 -11 -10 -24 -10 -17 0 -27 7 -32 23 -4 12 -12 25 -18 29 -6 4 19 8
57 8 l67 0 0 29 c0 53 -19 89 -51 96 -47 10 -88 -3 -95 -31 -8 -33 -21 -30
-29 7 l-7 32 -59 -6 c-33 -3 -59 -1 -59 4 0 11 -27 12 -32 2z m272 -60 c29
-25 25 -33 -15 -33 -35 0 -40 5 -29 34 8 21 19 20 44 -1z"/>
<path d="M7457 501 c-1 -3 -1 -75 1 -158 l3 -153 25 0 c22 0 24 4 24 45 0 44
1 45 33 45 31 0 57 19 70 51 4 10 6 11 6 1 1 -7 9 -21 19 -32 14 -15 31 -18
83 -18 l66 1 -5 96 c-6 118 -17 134 -88 129 -45 -3 -49 -5 -52 -30 -2 -16 1
-28 7 -28 6 0 11 5 11 10 0 14 48 12 64 -2 17 -16 -3 -38 -32 -38 -31 0 -52
-11 -52 -26 0 -8 -4 -14 -9 -14 -4 0 -11 20 -13 44 -8 66 -32 86 -102 84 -31
-1 -58 -4 -59 -7z m103 -46 c0 -8 5 -15 10 -15 6 0 10 -20 10 -45 0 -25 -4
-45 -10 -45 -5 0 -10 -7 -10 -15 0 -20 -36 -19 -44 1 -11 28 -6 104 7 119 16
19 37 19 37 0z m180 -90 c0 -16 -6 -25 -15 -25 -8 0 -15 -4 -15 -10 0 -15 -19
-12 -36 4 -21 21 -17 33 14 44 43 16 52 14 52 -13z"/>
<path d="M8504 486 c3 -11 6 -63 6 -113 0 -92 0 -93 25 -93 25 0 25 1 25 81 0
89 10 109 55 109 20 0 26 4 23 18 -3 14 -15 17 -71 18 -65 1 -68 0 -63 -20z"/>
<path d="M7520 230 c0 -20 7 -20 525 -20 518 0 525 0 525 20 0 20 -7 20 -525
20 -518 0 -525 0 -525 -20z"/>
<path d="M11330 3115 l0 -75 30 0 30 0 0 75 0 75 -30 0 -30 0 0 -75z"/>
<path d="M11880 2980 l0 -150 30 0 30 0 1 88 c0 48 3 80 6 72 3 -8 12 -18 19
-23 7 -4 15 -21 19 -37 7 -30 35 -43 35 -15 0 8 5 15 10 15 6 0 10 7 10 15 0
7 6 18 14 22 7 4 16 15 19 23 3 8 6 -24 6 -72 l1 -88 30 0 30 0 0 150 0 150
-31 0 c-22 0 -32 -5 -36 -20 -3 -11 -9 -20 -14 -20 -5 0 -9 -6 -9 -13 0 -17
-34 -57 -48 -57 -6 0 -16 16 -23 35 -7 19 -16 35 -20 35 -4 0 -9 9 -12 20 -4
15 -14 20 -36 20 l-31 0 0 -150z"/>
<path d="M12200 2980 l0 -150 85 0 c78 0 85 2 85 20 0 18 -7 20 -60 20 l-60 0
0 45 0 45 50 0 c43 0 50 3 50 20 0 17 -7 20 -50 20 l-50 0 0 45 0 45 60 0 c53
0 60 2 60 20 0 18 -7 20 -85 20 l-85 0 0 -150z"/>
<path d="M12410 2980 l0 -150 30 0 30 0 1 83 c1 45 3 74 6 65 2 -10 8 -18 13
-18 5 0 11 -13 15 -30 4 -16 11 -30 16 -30 5 0 9 -7 9 -15 0 -9 7 -18 15 -21
8 -4 15 -12 15 -20 0 -8 10 -14 25 -14 l25 0 0 150 0 150 -25 0 c-25 0 -25 -1
-25 -80 0 -80 -13 -106 -25 -50 -4 17 -10 30 -15 30 -5 0 -11 14 -15 30 -4 17
-10 30 -15 30 -4 0 -10 9 -13 20 -4 15 -14 20 -36 20 l-31 0 0 -150z"/>
<path d="M13400 3045 c0 -38 -3 -45 -20 -45 -13 0 -20 -7 -20 -20 0 -13 7 -20
20 -20 18 0 20 -7 20 -75 0 -62 4 -79 20 -95 36 -36 110 -20 110 24 0 9 -8 16
-20 16 -11 0 -20 -4 -20 -10 0 -5 -9 -10 -20 -10 -18 0 -20 7 -20 75 l0 75 35
0 c28 0 35 4 35 20 0 16 -7 20 -35 20 -32 0 -35 2 -35 31 0 30 -19 59 -39 59
-6 0 -11 -20 -11 -45z"/>
<path d="M9420 3050 c0 -5 -11 -10 -24 -10 -27 0 -85 -19 -104 -34 -65 -55
-122 -120 -132 -153 -7 -21 -18 -41 -24 -45 -16 -10 -15 -250 1 -255 7 -3 17
-21 24 -41 7 -21 34 -58 66 -87 73 -69 76 -72 104 -80 13 -4 27 -13 31 -19 10
-16 246 -15 256 1 4 6 20 15 35 18 15 4 27 11 27 15 0 19 42 18 58 -2 35 -42
56 -58 79 -58 36 0 28 26 -24 75 l-47 45 31 28 c17 15 34 38 38 52 4 13 14 30
21 38 8 7 14 27 14 43 0 16 5 29 10 29 6 0 10 32 10 75 0 41 -4 75 -9 75 -5 0
-11 18 -15 40 -3 22 -10 40 -15 40 -5 0 -12 11 -15 24 -7 27 -107 136 -125
136 -6 0 -11 4 -11 8 0 10 -68 32 -99 32 -11 0 -21 5 -21 10 0 6 -30 10 -70
10 -40 0 -70 -4 -70 -10z m188 -69 c2 -6 9 -11 16 -11 7 0 23 -9 36 -20 13
-11 27 -20 32 -20 14 0 44 -35 59 -68 8 -18 17 -32 21 -32 4 0 10 -16 14 -35
3 -19 10 -35 15 -35 5 0 9 -34 9 -75 0 -41 -4 -75 -9 -75 -5 0 -12 -16 -15
-35 -4 -19 -10 -35 -14 -35 -4 0 -13 -14 -21 -32 -17 -39 -42 -68 -57 -68 -6
0 -21 -9 -34 -20 -13 -11 -29 -20 -36 -20 -7 0 -14 -6 -16 -12 -6 -17 -215
-18 -226 -1 -4 6 -20 15 -35 18 -15 4 -27 11 -27 15 0 4 -14 13 -30 20 -17 7
-33 22 -36 36 -3 12 -12 25 -20 28 -8 3 -14 12 -14 21 0 8 -4 15 -10 15 -5 0
-12 16 -16 35 -3 19 -10 35 -15 35 -5 0 -9 34 -9 75 0 41 4 75 9 75 5 0 12 16
15 35 4 19 11 35 16 35 6 0 10 7 10 15 0 9 7 18 15 21 8 4 15 12 15 19 0 7 12
21 26 31 14 10 32 24 39 31 7 7 24 15 39 19 14 3 26 10 26 14 0 14 41 19 135
15 54 -1 91 -7 93 -14z"/>
<path d="M9486 2865 c-4 -15 -16 -27 -31 -31 -14 -3 -25 -10 -25 -15 0 -5 -9
-9 -20 -9 -13 0 -20 -7 -20 -20 0 -17 7 -20 45 -20 l45 0 0 -145 0 -145 25 0
25 0 0 205 c0 194 -1 205 -19 205 -12 0 -21 -9 -25 -25z"/>
<path d="M13608 2993 c-10 -2 -21 -15 -24 -29 -3 -13 -10 -24 -15 -24 -5 0 -9
-25 -9 -55 0 -30 4 -55 9 -55 5 0 11 -9 14 -20 3 -11 12 -20 21 -20 9 0 16 -4
16 -10 0 -5 14 -10 30 -10 17 0 30 5 30 10 0 6 7 10 16 10 9 0 18 9 21 20 3
11 9 20 14 20 5 0 9 23 9 50 0 28 -4 50 -9 50 -5 0 -11 13 -14 29 -8 36 -50
50 -109 34z m59 -48 c8 -9 17 -34 20 -56 5 -32 2 -44 -15 -59 -26 -24 -31 -25
-48 -2 -16 21 -18 59 -3 101 12 35 23 38 46 16z"/>
<path d="M11330 2870 l0 -70 30 0 30 0 0 70 0 70 -30 0 -30 0 0 -70z"/>
<path d="M13100 2926 c0 -8 -7 -22 -16 -30 -8 -9 -18 -33 -21 -53 -3 -21 -10
-40 -14 -43 -4 -3 -13 -55 -20 -115 -7 -61 -16 -112 -20 -115 -4 -3 -10 -68
-14 -145 -5 -84 -12 -143 -19 -147 -8 -5 -11 -176 -11 -603 0 -427 3 -598 11
-603 7 -4 14 -63 19 -147 4 -77 10 -142 14 -145 5 -3 13 -54 20 -115 7 -60 16
-112 20 -115 5 -3 11 -22 15 -42 4 -21 11 -38 16 -38 4 0 11 -14 15 -30 7 -34
25 -41 25 -10 0 11 -4 20 -9 20 -5 0 -12 22 -16 50 -4 27 -11 50 -15 50 -5 0
-12 35 -15 78 -4 42 -11 79 -15 82 -9 6 -30 337 -30 468 0 55 -4 92 -10 92 -7
0 -10 142 -10 405 0 263 3 405 10 405 6 0 10 37 10 93 0 130 21 461 30 467 4
3 11 40 15 83 3 42 10 77 15 77 4 0 10 23 14 50 4 28 11 50 16 50 6 0 10 9 10
20 0 11 -4 20 -10 20 -5 0 -10 -6 -10 -14z"/>
<path d="M15526 2905 c3 -22 9 -42 14 -45 4 -3 11 -32 15 -65 4 -33 11 -62 16
-65 4 -3 11 -53 15 -110 4 -58 10 -107 14 -110 12 -8 30 -508 30 -835 0 -327
-18 -827 -30 -835 -4 -3 -10 -52 -14 -110 -4 -57 -11 -107 -15 -110 -4 -3 -11
-30 -15 -60 -4 -30 -11 -57 -15 -60 -5 -3 -11 -25 -14 -50 -3 -25 -4 -37 -1
-28 3 10 9 18 14 18 5 0 11 13 15 30 4 16 10 30 15 30 5 0 12 25 15 55 4 30
10 55 14 55 8 0 31 193 31 257 0 23 4 43 10 45 5 2 12 91 16 206 4 111 11 202
16 202 4 0 8 162 8 360 0 198 -4 360 -8 360 -5 0 -12 89 -16 198 -4 109 -11
198 -16 200 -6 2 -10 22 -10 45 0 68 -23 257 -31 257 -4 0 -10 27 -14 60 -4
33 -11 60 -16 60 -5 0 -9 6 -9 14 0 8 -6 21 -13 28 -8 7 -17 20 -20 28 -4 8
-4 -3 -1 -25z"/>
<path d="M10700 2881 c0 -5 -13 -12 -29 -16 -22 -5 -31 -14 -36 -36 -4 -16
-11 -29 -16 -29 -5 0 -9 -13 -9 -30 0 -27 3 -30 30 -30 25 0 30 4 30 24 0 14
11 37 25 52 21 23 30 26 61 21 46 -8 45 -7 51 -59 4 -37 1 -48 -23 -76 -16
-17 -33 -32 -39 -32 -21 0 -115 -83 -115 -101 0 -6 -7 -17 -15 -25 -8 -9 -15
-26 -15 -40 l0 -24 135 0 135 0 0 25 0 25 -104 0 c-99 0 -104 1 -99 20 3 11 9
20 13 20 4 0 17 9 30 20 13 11 29 20 35 20 7 0 15 7 19 15 3 8 10 15 16 15 5
0 26 16 46 36 30 28 38 44 42 83 3 33 0 52 -10 62 -8 8 -17 22 -21 32 -3 9
-13 17 -22 17 -8 0 -15 5 -15 10 0 6 -22 10 -50 10 -27 0 -50 -4 -50 -9z"/>
<path d="M14840 2540 l0 -320 95 0 c76 0 95 -3 95 -15 0 -7 -7 -18 -16 -23 -8
-5 -18 -27 -21 -50 -5 -37 -3 -42 15 -42 13 0 22 9 26 26 4 15 12 32 19 40 29
33 37 44 37 54 0 6 66 10 195 10 l195 0 0 320 0 320 -320 0 -320 0 0 -320z
m580 0 l0 -260 -260 0 -260 0 0 260 0 260 260 0 260 0 0 -260z"/>
<path d="M15120 2721 c0 -5 -11 -12 -24 -15 -14 -3 -28 -15 -31 -26 -3 -11
-11 -20 -16 -20 -5 0 -9 -13 -9 -30 0 -25 4 -30 24 -30 19 0 25 7 30 35 6 30
11 35 43 41 59 11 87 -5 91 -49 4 -44 -25 -81 -71 -92 -15 -4 -27 -11 -27 -16
0 -5 -5 -9 -12 -9 -24 0 -88 -81 -88 -111 l0 -29 120 0 c113 0 120 1 120 20 0
19 -7 20 -100 20 -55 0 -100 4 -100 8 0 5 11 15 25 22 14 7 25 17 25 22 0 4 7
8 15 8 9 0 18 6 21 14 3 8 16 17 29 20 13 3 36 17 50 31 50 45 42 158 -11 171
-13 3 -24 10 -24 15 0 5 -18 9 -40 9 -22 0 -40 -4 -40 -9z"/>
<path d="M11330 2625 l0 -75 30 0 30 0 0 75 0 75 -30 0 -30 0 0 -75z"/>
<path d="M11330 2380 l0 -70 30 0 30 0 0 70 0 70 -30 0 -30 0 0 -70z"/>
<path d="M14623 2402 c-6 -4 -15 -20 -18 -35 -4 -15 -11 -27 -16 -27 -4 0 -11
-16 -15 -35 -6 -34 -8 -35 -50 -35 -24 0 -44 -4 -44 -9 0 -5 -16 -12 -35 -15
-19 -4 -35 -11 -35 -15 0 -5 -11 -12 -24 -15 -32 -8 -104 -80 -112 -111 -3
-14 -10 -25 -15 -25 -4 0 -11 -16 -15 -35 -3 -19 -10 -35 -15 -35 -5 0 -9 -34
-9 -75 0 -41 4 -75 9 -75 5 0 12 -16 15 -35 4 -19 11 -35 15 -35 5 0 12 -11
15 -25 8 -31 80 -103 112 -111 13 -3 24 -10 24 -15 0 -4 16 -11 35 -15 19 -3
35 -10 35 -15 0 -5 34 -9 75 -9 41 0 75 4 75 9 0 5 16 12 35 15 19 4 35 11 35
15 0 5 11 12 25 15 33 8 103 78 111 111 3 14 10 25 15 25 4 0 11 16 15 35 3
19 10 35 15 35 5 0 9 34 9 75 0 41 -4 75 -9 75 -5 0 -12 16 -15 35 -4 19 -11
35 -15 35 -5 0 -12 11 -15 25 -8 33 -78 103 -111 111 -14 3 -25 10 -25 14 0 5
-14 12 -32 15 -30 7 -70 35 -50 35 5 0 13 12 17 27 3 15 11 30 16 33 5 3 12
20 15 38 5 27 4 32 -12 32 -11 0 -24 -4 -31 -8z m-13 -201 c0 -5 18 -11 40
-15 64 -10 160 -115 160 -176 0 -11 5 -20 10 -20 6 0 10 -25 10 -55 0 -30 -4
-55 -10 -55 -5 0 -10 -9 -10 -20 0 -61 -96 -166 -160 -176 -22 -4 -40 -10 -40
-15 0 -5 -25 -9 -55 -9 -30 0 -55 5 -55 10 0 6 -9 10 -20 10 -10 0 -32 6 -47
12 -32 14 -103 82 -103 99 0 6 -7 17 -15 25 -8 9 -15 26 -15 40 0 13 -4 24
-10 24 -5 0 -10 25 -10 55 0 30 5 55 10 55 6 0 10 11 10 24 0 14 7 31 15 40 8
8 15 19 15 25 0 17 71 85 103 99 15 6 37 12 47 12 11 0 20 5 20 10 0 6 25 10
55 10 30 0 55 -4 55 -9z"/>
<path d="M14510 2130 c0 -5 -6 -10 -13 -10 -20 0 -48 -39 -54 -76 -5 -30 -3
-34 16 -34 14 0 21 6 21 20 0 11 5 20 10 20 6 0 10 6 10 14 0 15 30 26 70 26
31 0 60 -31 60 -66 0 -28 -41 -71 -77 -80 -13 -4 -23 -10 -23 -15 0 -5 -6 -9
-14 -9 -33 0 -86 -73 -86 -121 0 -18 8 -19 120 -19 113 0 120 1 120 20 0 18
-8 20 -101 22 l-101 3 24 26 c14 15 35 30 46 34 12 3 22 10 22 15 0 5 10 12
22 16 12 3 28 13 36 20 7 8 21 18 30 23 25 14 24 108 -3 139 -11 12 -25 22
-32 22 -7 0 -13 5 -13 10 0 6 -20 10 -45 10 -25 0 -45 -4 -45 -10z"/>
<path d="M11330 2135 l0 -75 30 0 30 0 0 75 0 75 -30 0 -30 0 0 -75z"/>
<path d="M11650 2020 l0 -30 80 0 80 0 0 -315 0 -315 40 0 40 0 0 315 0 315
80 0 80 0 0 30 0 30 -200 0 -200 0 0 -30z"/>
<path d="M9620 2031 c0 -5 -12 -12 -26 -15 -31 -8 -72 -50 -80 -83 -4 -13 -10
-23 -15 -23 -5 0 -9 -22 -9 -50 0 -27 5 -50 10 -50 6 0 10 -11 10 -23 0 -31
61 -93 100 -102 16 -4 30 -11 30 -16 0 -5 11 -11 25 -15 14 -3 25 -10 25 -14
0 -4 11 -11 24 -14 34 -8 50 -55 43 -126 -5 -60 -34 -109 -64 -110 -7 0 -13
-4 -13 -10 0 -5 -16 -10 -35 -10 -19 0 -35 4 -35 9 0 5 -12 12 -27 16 -15 3
-37 17 -50 31 -32 35 -43 30 -43 -21 0 -33 4 -45 15 -45 8 0 15 -4 15 -9 0
-24 155 -40 205 -21 29 11 95 72 95 88 0 6 6 12 13 15 8 2 12 30 12 93 0 89 0
90 -35 126 -20 20 -48 40 -63 43 -15 4 -27 11 -27 15 0 4 -12 11 -26 14 -27 7
-36 14 -85 60 -28 27 -31 34 -26 79 2 27 9 52 14 56 5 3 12 14 16 24 3 9 13
17 22 17 8 0 15 5 15 10 0 6 16 10 35 10 19 0 35 -4 35 -10 0 -5 6 -10 14 -10
8 0 24 -11 37 -25 33 -35 49 -32 49 9 0 51 -9 65 -46 72 -19 3 -34 10 -34 15
0 5 -27 9 -60 9 -33 0 -60 -4 -60 -9z"/>
<path d="M10340 2031 c0 -5 -12 -12 -26 -15 -23 -6 -38 -20 -86 -76 -8 -9 -13
-43 -13 -90 1 -74 2 -76 39 -114 21 -21 52 -42 67 -48 16 -5 29 -14 29 -18 0
-5 14 -11 30 -15 17 -4 30 -10 30 -15 0 -4 11 -11 24 -14 34 -8 50 -55 43
-126 -5 -60 -34 -109 -64 -110 -7 0 -13 -4 -13 -10 0 -5 -16 -10 -35 -10 -19
0 -35 4 -35 9 0 5 -12 12 -27 16 -15 3 -37 17 -50 31 -32 35 -43 30 -43 -21 0
-33 4 -45 15 -45 8 0 15 -4 15 -9 0 -24 155 -40 205 -21 29 11 95 72 95 88 0
6 6 12 13 15 8 2 12 30 12 93 0 89 0 90 -35 126 -20 20 -48 40 -63 43 -15 4
-27 11 -27 15 0 5 -13 11 -30 15 -16 4 -30 11 -30 16 0 5 -5 9 -12 9 -6 0 -24
15 -40 33 -26 28 -29 38 -25 81 2 26 9 51 14 55 5 3 12 14 16 24 3 9 13 17 22
17 8 0 15 5 15 10 0 6 16 10 35 10 19 0 35 -4 35 -10 0 -5 6 -10 14 -10 8 0
24 -11 37 -25 33 -35 49 -32 49 9 0 51 -9 65 -46 72 -19 3 -34 10 -34 15 0 5
-27 9 -60 9 -33 0 -60 -4 -60 -9z"/>
<path d="M11330 1890 l0 -70 30 0 30 0 0 70 0 70 -30 0 -30 0 0 -70z"/>
<path d="M12488 1831 c-10 -10 -18 -23 -18 -29 0 -16 27 -15 33 1 3 6 6 -36 6
-95 l1 -108 25 0 25 0 0 125 0 125 -27 -1 c-16 0 -36 -8 -45 -18z"/>
<path d="M9929 1760 c-68 -68 -70 -74 -21 -66 l42 6 0 -220 c0 -213 1 -220 20
-220 19 0 20 7 20 220 l0 220 45 -7 c25 -3 45 -3 45 0 0 2 -24 29 -53 59 l-53
53 -45 -45z"/>
<path d="M12663 1770 c-3 -11 -9 -20 -14 -20 -4 0 -11 -16 -15 -35 -3 -19 -10
-35 -14 -35 -5 0 -11 -13 -15 -30 -4 -16 -10 -30 -14 -30 -4 0 -13 -22 -20
-50 -7 -27 -17 -50 -22 -50 -5 0 -9 -11 -9 -24 0 -14 -7 -31 -15 -40 -18 -17
-19 -26 -4 -26 21 0 49 42 55 82 4 21 10 38 15 38 5 0 9 6 9 14 0 8 6 21 13
28 8 7 16 28 20 46 4 18 14 40 22 48 8 9 15 26 15 40 0 13 4 24 9 24 5 0 11 9
14 20 3 13 0 20 -10 20 -8 0 -17 -9 -20 -20z"/>
<path d="M12270 1770 c0 -5 -7 -10 -15 -10 -8 0 -15 -9 -15 -19 0 -18 5 -19
53 -14 70 7 91 -11 84 -73 -4 -43 -10 -52 -64 -109 -17 -19 -34 -43 -38 -54
-3 -10 -12 -22 -20 -25 -8 -3 -15 -15 -15 -26 0 -19 6 -20 95 -20 88 0 95 2
95 20 0 17 -8 19 -67 22 l-68 3 23 20 c12 11 22 25 22 31 0 6 16 28 35 48 19
21 35 44 35 52 0 8 5 14 10 14 6 0 10 20 10 45 0 25 -4 45 -9 45 -5 0 -11 9
-14 20 -3 11 -12 20 -21 20 -9 0 -16 5 -16 10 0 6 -22 10 -50 10 -27 0 -50 -4
-50 -10z"/>
<path d="M13963 1724 c-13 -3 -23 -9 -23 -13 0 -4 -18 -13 -41 -20 -35 -11
-71 -41 -127 -106 -7 -8 -18 -38 -25 -65 -6 -28 -15 -50 -19 -50 -5 0 -8 -31
-8 -70 0 -38 4 -70 8 -70 5 0 14 -22 21 -50 7 -27 17 -50 22 -50 5 0 9 -5 9
-11 0 -15 74 -89 89 -89 6 0 11 -4 11 -9 0 -5 23 -15 50 -22 28 -7 50 -16 50
-21 0 -4 10 -8 21 -8 19 0 21 -4 15 -32 -3 -18 -11 -35 -17 -39 -6 -3 -13 -25
-16 -48 -5 -37 -4 -41 16 -41 12 0 21 6 21 15 0 8 4 15 9 15 5 0 12 13 16 30
4 16 10 30 15 30 4 0 11 16 14 35 5 26 12 35 26 35 11 0 20 4 20 9 0 5 18 11
39 15 22 3 46 13 55 21 8 8 19 15 24 15 20 0 90 80 102 116 7 22 18 42 24 46
15 10 15 216 0 226 -6 4 -16 22 -22 40 -14 42 -86 114 -132 132 -19 8 -38 18
-41 23 -7 10 -170 19 -206 11z m147 -53 c0 -5 16 -12 35 -15 19 -4 35 -11 35
-16 0 -6 6 -10 13 -10 6 0 23 -12 36 -25 13 -14 27 -25 32 -25 5 0 11 -11 15
-25 3 -14 10 -25 15 -25 4 0 11 -16 15 -35 3 -19 10 -35 15 -35 5 0 9 -27 9
-60 0 -33 -4 -60 -9 -60 -5 0 -12 -16 -15 -35 -4 -19 -11 -35 -16 -35 -6 0
-10 -5 -10 -11 0 -16 -77 -87 -103 -95 -12 -4 -25 -12 -29 -18 -10 -15 -186
-15 -196 0 -4 6 -17 15 -30 18 -29 10 -99 79 -108 109 -4 12 -12 25 -18 29 -7
5 -11 42 -11 98 0 56 4 93 11 98 6 4 15 18 19 32 9 28 76 100 93 100 7 0 12 4
12 10 0 5 16 12 35 16 19 3 35 10 35 15 0 5 27 9 60 9 33 0 60 -4 60 -9z"/>
<path d="M14029 1561 c-15 -17 -38 -33 -53 -37 -45 -11 -32 -34 19 -34 l45 0
0 -130 c0 -123 1 -130 20 -130 19 0 20 7 20 180 0 196 -3 206 -51 151z"/>
<path d="M11330 1650 l0 -70 30 0 30 0 0 70 0 70 -30 0 -30 0 0 -70z"/>
<path d="M12693 1640 c-3 -11 -9 -20 -13 -20 -5 0 -11 -13 -15 -29 -3 -16 -13
-32 -21 -35 -8 -3 -14 -12 -14 -21 0 -8 -4 -15 -10 -15 -5 0 -10 -11 -10 -25
0 -23 3 -25 50 -25 47 0 50 -2 50 -25 0 -20 5 -25 25 -25 20 0 25 5 25 25 0
16 6 25 15 25 8 0 15 7 15 15 0 8 -7 15 -15 15 -12 0 -15 16 -15 80 l0 80 -31
0 c-22 0 -32 -5 -36 -20z m17 -95 c0 -42 -2 -45 -26 -45 -22 0 -24 3 -18 23 3
12 13 26 20 30 8 4 14 15 14 22 0 8 2 15 5 15 3 0 5 -20 5 -45z"/>
<path d="M11950 1470 l0 -180 30 0 30 0 0 80 c0 47 4 80 10 80 13 0 50 -37 50
-49 0 -5 6 -16 13 -23 6 -7 19 -26 27 -43 19 -39 28 -45 65 -44 17 0 24 3 18
6 -7 2 -13 11 -13 19 0 8 -7 17 -15 20 -8 4 -15 12 -15 19 0 8 -6 20 -12 27
-17 18 -38 55 -38 67 0 5 10 13 22 17 46 14 65 58 54 119 -5 26 -13 36 -31 41
-14 3 -25 10 -25 15 0 5 -38 9 -85 9 l-85 0 0 -180z m158 118 c14 -14 16 -57
3 -77 -5 -7 -29 -16 -55 -18 l-46 -6 0 57 0 56 43 0 c24 0 48 -5 55 -12z"/>
<path d="M11330 1395 l0 -75 30 0 30 0 0 75 0 75 -30 0 -30 0 0 -75z"/>
<path d="M11330 1150 l0 -80 30 0 30 0 0 80 0 80 -30 0 -30 0 0 -80z"/>
<path d="M13614 1190 c-4 -16 -10 -30 -15 -30 -4 0 -11 -16 -15 -35 l-6 -35
-194 0 -194 0 0 -320 0 -320 315 0 315 0 0 320 0 320 -100 0 c-90 0 -99 2 -93
18 4 9 10 19 14 22 5 3 11 25 15 48 6 38 5 42 -15 42 -16 0 -23 -8 -27 -30z
m146 -420 l0 -260 -255 0 -255 0 0 260 0 260 255 0 255 0 0 -260z"/>
<path d="M13487 930 c-16 -17 -35 -30 -43 -30 -8 0 -14 -4 -14 -10 0 -5 -7
-10 -15 -10 -8 0 -15 -4 -15 -10 0 -5 20 -10 45 -10 l45 0 0 -130 c0 -123 1
-130 20 -130 19 0 20 7 20 180 0 99 -3 180 -7 180 -5 -1 -21 -14 -36 -30z"/>
<path d="M10400 1037 c0 -15 13 -35 35 -53 46 -38 49 -49 20 -81 -40 -45 -42
-48 -50 -74 -4 -13 -13 -27 -19 -31 -16 -10 -15 -246 1 -256 6 -4 15 -20 18
-35 4 -15 11 -27 16 -27 5 0 9 -6 9 -13 0 -7 8 -20 18 -28 9 -9 24 -25 33 -35
22 -26 57 -54 68 -54 5 0 17 -7 26 -16 8 -9 33 -18 55 -21 22 -3 40 -10 40
-14 0 -5 32 -9 70 -9 39 0 70 4 70 9 0 4 19 11 41 14 23 3 45 10 48 15 3 5 16
13 29 17 32 9 128 104 137 135 4 14 12 28 17 31 5 3 12 25 15 48 3 22 10 41
14 41 5 0 9 32 9 70 0 39 -4 70 -9 70 -4 0 -11 19 -14 41 -3 23 -10 45 -15 48
-5 3 -12 16 -16 29 -9 27 -103 122 -122 122 -8 0 -14 4 -14 9 0 5 -12 12 -27
16 -15 3 -31 12 -35 18 -10 16 -246 17 -256 1 -4 -6 -17 -14 -29 -18 -13 -4
-23 -11 -23 -16 0 -4 -10 -10 -22 -13 -17 -5 -32 4 -64 38 -46 50 -74 58 -74
22z m440 -68 c27 -6 50 -15 50 -20 0 -5 7 -9 15 -9 9 0 18 -7 21 -15 4 -8 12
-15 19 -15 7 0 21 -12 31 -26 10 -14 24 -32 30 -38 6 -7 15 -23 19 -36 4 -14
13 -28 19 -32 16 -11 15 -220 -1 -226 -7 -2 -13 -9 -13 -16 0 -7 -9 -23 -20
-36 -11 -13 -20 -27 -20 -32 0 -11 -38 -48 -50 -48 -5 0 -13 -7 -17 -15 -5 -8
-32 -21 -61 -27 -29 -7 -52 -16 -52 -20 0 -5 -31 -8 -70 -8 -38 0 -70 4 -70 8
0 5 -22 14 -50 21 -27 7 -50 17 -50 22 0 5 -8 13 -17 16 -26 10 -53 36 -53 50
0 7 -4 13 -9 13 -5 0 -14 15 -22 33 -7 17 -18 35 -23 39 -15 10 -15 216 0 226
6 4 17 24 23 45 7 20 16 37 21 37 5 0 12 9 15 20 3 11 17 23 30 26 13 3 26 12
29 20 3 8 12 14 21 14 8 0 15 4 15 9 0 26 153 39 240 20z"/>
<path d="M10673 868 c-23 -8 -34 -18 -38 -39 -4 -16 -11 -29 -16 -29 -5 0 -9
-13 -9 -30 0 -27 3 -30 30 -30 25 0 30 4 30 24 0 14 11 37 25 52 21 23 30 26
61 21 46 -8 45 -7 51 -59 4 -37 1 -48 -23 -76 -16 -17 -32 -32 -37 -32 -5 0
-14 -6 -22 -12 -7 -7 -25 -22 -41 -33 -40 -29 -54 -45 -54 -60 0 -7 -4 -15
-10 -17 -5 -1 -12 -18 -16 -35 l-6 -33 136 0 c129 0 136 1 136 20 0 19 -7 20
-106 20 -105 0 -105 0 -98 23 3 12 10 23 14 25 5 2 18 12 31 23 12 10 28 19
36 19 7 0 16 7 19 15 4 8 11 15 17 15 5 0 26 16 45 36 42 43 56 118 28 146 -9
9 -16 22 -16 28 0 27 -102 38 -167 18z"/>
<path d="M12018 848 c-2 -125 -3 -134 -5 -50 -3 94 -5 102 -23 102 -18 0 -20
-7 -20 -75 0 -62 -4 -79 -20 -95 -24 -24 -27 -24 -46 -6 -10 10 -14 39 -14 95
0 74 -2 81 -20 81 -19 0 -20 -7 -20 -100 0 -60 4 -100 10 -100 6 0 10 -7 10
-16 0 -14 8 -16 55 -11 44 4 55 3 55 -9 0 -17 27 -19 33 -1 2 7 22 12 53 12
38 0 49 4 52 18 3 13 -3 17 -22 17 l-26 0 0 145 0 145 -25 0 -25 0 -2 -152z"/>
<path d="M12142 838 c3 -163 3 -163 27 -166 35 -5 71 7 71 23 0 10 -10 15 -30
15 l-30 0 0 145 c0 139 -1 145 -20 145 -20 0 -20 -5 -18 -162z"/>
<path d="M12640 835 l0 -165 25 0 c24 0 25 2 25 78 1 83 13 112 49 112 20 0
21 -5 21 -95 0 -88 1 -95 20 -95 19 0 20 7 20 93 0 128 -4 137 -51 137 -22 0
-39 -4 -39 -10 0 -5 -4 -10 -10 -10 -6 0 -10 27 -10 60 0 57 -1 60 -25 60
l-25 0 0 -165z"/>
<path d="M11657 973 c-18 -17 -5 -33 28 -33 l35 0 0 -135 c0 -128 1 -135 20
-135 19 0 20 7 20 135 l0 135 30 0 c23 0 30 4 30 20 0 18 -7 20 -78 20 -43 0
-82 -3 -85 -7z"/>
<path d="M11330 900 l0 -70 30 0 30 0 0 70 0 70 -30 0 -30 0 0 -70z"/>
<path d="M12300 891 c0 -5 -11 -12 -25 -15 -28 -7 -40 -51 -33 -121 7 -57 30
-80 83 -80 69 0 96 49 81 149 -6 38 -12 47 -32 52 -13 3 -24 10 -24 15 0 5
-11 9 -25 9 -14 0 -25 -4 -25 -9z m46 -56 c3 -14 10 -25 15 -25 17 0 9 -60
-11 -80 -11 -11 -22 -20 -25 -20 -3 0 -14 9 -25 20 -20 20 -28 80 -11 80 5 0
12 11 15 25 4 14 13 25 21 25 8 0 17 -11 21 -25z"/>
<path d="M12510 890 c0 -5 -7 -10 -15 -10 -32 0 -47 -104 -24 -169 12 -35 41
-47 93 -37 48 9 66 56 21 56 -14 0 -25 -4 -25 -10 0 -15 -17 -12 -40 7 -42 36
-16 133 35 133 8 0 15 -4 15 -10 0 -5 9 -10 20 -10 13 0 20 7 20 20 0 11 -7
20 -15 20 -8 0 -15 5 -15 10 0 6 -16 10 -35 10 -19 0 -35 -4 -35 -10z"/>
<path d="M9485 860 c-3 -11 -17 -23 -31 -26 -13 -3 -24 -10 -24 -15 0 -5 -9
-9 -20 -9 -13 0 -20 -7 -20 -20 0 -17 7 -20 45 -20 l45 0 0 -145 0 -145 25 0
25 0 0 200 c0 191 -1 200 -19 200 -11 0 -23 -9 -26 -20z"/>
<path d="M11330 655 l0 -75 30 0 30 0 0 75 0 75 -30 0 -30 0 0 -75z"/>
<path d="M11330 410 l0 -70 30 0 30 0 0 70 0 70 -30 0 -30 0 0 -70z"/>
<path d="M17193 2343 c-18 -2 -33 -7 -33 -11 0 -4 -15 -14 -32 -21 -39 -18
-77 -55 -98 -96 -8 -16 -19 -33 -25 -37 -6 -4 -10 -54 -10 -113 0 -77 -3 -105
-12 -105 -7 0 -13 5 -13 10 0 6 -25 10 -55 10 -30 0 -55 -4 -55 -9 0 -4 -19
-11 -42 -14 -23 -3 -47 -13 -54 -21 -6 -9 -16 -16 -21 -16 -16 0 -60 -45 -67
-68 -4 -12 -15 -29 -24 -38 -13 -13 -16 -38 -17 -115 0 -72 -3 -99 -12 -99 -7
0 -13 5 -13 10 0 6 -25 10 -55 10 -30 0 -55 -4 -55 -9 0 -4 -19 -11 -42 -14
-23 -3 -47 -12 -53 -20 -5 -8 -19 -17 -31 -21 -11 -3 -27 -19 -35 -34 -14 -26
-18 -33 -49 -69 -20 -23 -22 -224 -2 -230 6 -3 12 -11 12 -18 0 -8 6 -20 13
-27 6 -7 18 -25 26 -41 8 -15 25 -30 38 -33 13 -4 27 -13 31 -21 5 -8 27 -17
50 -20 23 -3 42 -10 42 -14 0 -5 25 -9 55 -9 30 0 55 4 55 9 0 4 19 11 42 14
23 3 45 13 50 21 5 9 15 16 22 16 21 0 60 42 76 80 7 19 19 38 24 42 7 4 11
47 11 103 0 69 3 95 13 95 6 0 12 -4 12 -10 0 -5 25 -10 55 -10 30 0 55 4 55
9 0 4 19 11 42 14 23 3 45 13 50 21 5 9 15 16 22 16 21 0 60 42 76 80 7 19 19
38 24 42 7 4 11 48 11 105 l0 98 93 1 c51 0 96 4 100 10 4 5 21 16 37 24 37
18 75 56 75 74 0 8 7 16 15 20 8 3 15 12 15 20 0 8 6 16 13 19 8 2 12 34 12
112 0 78 -4 110 -12 113 -7 2 -13 10 -13 18 0 8 -7 17 -15 20 -8 4 -15 12 -15
20 0 18 -38 56 -75 74 -16 8 -33 18 -36 23 -7 9 -151 17 -196 10z m137 -53 c0
-5 11 -10 25 -10 17 0 43 -17 79 -54 47 -47 55 -60 61 -105 4 -29 4 -77 0
-108 -6 -50 -12 -61 -61 -109 -36 -37 -62 -54 -79 -54 -14 0 -25 -4 -25 -10 0
-5 -25 -10 -55 -10 -30 0 -55 5 -55 10 0 6 -11 10 -25 10 -35 0 -135 100 -135
135 0 14 -4 25 -10 25 -5 0 -10 25 -10 55 0 30 5 55 10 55 6 0 10 11 10 25 0
35 100 135 135 135 14 0 25 5 25 10 0 6 25 10 55 10 30 0 55 -4 55 -10z m-305
-392 c63 -54 96 -93 102 -118 3 -17 9 -30 14 -30 5 0 9 -27 9 -60 0 -33 -4
-60 -9 -60 -5 0 -11 -13 -14 -30 -6 -25 -37 -62 -104 -120 -26 -23 -193 -21
-216 2 -9 9 -17 19 -17 23 0 11 -53 55 -66 55 -7 0 -16 16 -20 35 -3 19 -10
35 -15 35 -5 0 -9 27 -9 60 0 33 4 60 9 60 5 0 11 13 14 30 5 25 41 66 101
117 7 6 24 14 37 16 42 9 167 -1 184 -15z m-360 -362 c8 -8 15 -17 15 -21 0
-11 53 -55 66 -55 7 0 16 -16 20 -35 3 -19 10 -35 15 -35 5 0 9 -27 9 -60 0
-33 -4 -60 -9 -60 -5 0 -11 -13 -14 -30 -6 -25 -37 -62 -104 -120 -13 -11 -42
-15 -108 -15 -66 0 -95 4 -108 15 -98 85 -117 119 -117 210 0 90 21 129 114
207 20 17 54 22 133 18 48 -2 78 -9 88 -19z"/>
</g>
</svg>
