<?xml version="1.0" standalone="no"?>
<!DOCTYPE svg PUBLIC "-//W3C//DTD SVG 1.1//EN"
"http://www.w3.org/Graphics/SVG/1.1/DTD/svg11.dtd">
<!-- Creator: fig2dev Version 3.2 Patchlevel 5d -->
<!-- CreationDate: Thu Feb 21 11:08:49 2013 -->
<!-- Magnification: 1.050 -->
<svg	xmlns="http://www.w3.org/2000/svg"
	xmlns:xlink="http://www.w3.org/1999/xlink"
	viewBox="-23 -23 6140 2975">
<g style="stroke-width:.025in; fill:none">
<!-- Text -->
<text xml:space="preserve" x="1417" y="2834" fill="#000000"  font-family="Helvetica" font-style="normal" font-weight="normal" font-size="126" text-anchor="middle">- SET AND LINK FOR THREE -</text>
<!-- Text -->
<text xml:space="preserve" x="330" y="661" fill="#000000"  font-family="Helvetica" font-style="normal" font-weight="bold" font-size="114" text-anchor="middle">1 2</text>
<!-- Arc -->
<path style="stroke:#000000;stroke-width:16;stroke-linecap:butt;"
d="M 1511,992 A 94 94  0  0  0  1322  992 " />
<!-- Arrowhead on XXXpoint 1329 957 - 1322 992-->
<polygon points="1297 950
1323 986
1359 960
1297 950

" style="stroke:#000000;stroke-width:8;stroke-miterlimit:8;
fill:#000000;"/>
<!-- Text -->
<text xml:space="preserve" x="1417" y="1039" fill="#000000"  font-family="Helvetica" font-style="normal" font-weight="bold" font-size="114" text-anchor="middle">1</text>
<!-- Text -->
<text xml:space="preserve" x="1417" y="755" fill="#000000"  font-family="Helvetica" font-style="normal" font-weight="bold" font-size="114" text-anchor="middle">-2-</text>
<!-- Text -->
<text xml:space="preserve" x="1086" y="1133" fill="#000000"  font-family="Helvetica" font-style="normal" font-weight="bold" font-size="152" text-anchor="middle">R</text>
<!-- Text -->
<text xml:space="preserve" x="944" y="1086" fill="#000000"  font-family="Helvetica" font-style="normal" font-weight="bold" font-size="227" text-anchor="middle">X</text>
<!-- Line -->
<polyline points="1071,1181
850,1181
" style="stroke:#000000;stroke-width:16;
stroke-linejoin:miter; stroke-linecap:butt;
"/>
<!-- Arrowhead on XXXpoint 850 1181 - 1165 1181-->
<polygon points="1092 1212
1155 1181
1092 1149
1092 1212

" style="stroke:#000000;stroke-width:8;stroke-miterlimit:8;
fill:#000000;"/>
<!-- Text -->
<text xml:space="preserve" x="944" y="755" fill="#000000"  font-family="Helvetica" font-style="normal" font-weight="bold" font-size="114" text-anchor="middle">-1-</text>
<!-- Line -->
<polyline points="1181,472
1181,475
1182,480
1184,489
1187,498
1190,508
1194,516
1201,523
1207,529
1214,532
1224,534
1236,535
1248,535
1260,533
1275,532
1292,529
1309,525
1328,522
1346,519
1364,516
1383,513
1400,510
1417,507
1432,506
1444,503
1457,503
1468,504
1478,507
1485,510
1491,515
1498,522
1502,531
1505,540
1508,550
1510,558
1511,563
1511,566
" style="stroke:#000000;stroke-width:16;
stroke-linejoin:bevel; stroke-linecap:butt;
"/>
<!-- Line -->
<polyline points="1181,472
1181,475
1180,480
1177,489
1174,498
1171,508
1167,516
1161,523
1154,529
1147,532
1138,534
1126,535
1113,535
1101,533
1086,532
1069,529
1053,525
1034,522
1015,519
997,516
978,513
961,510
944,507
930,506
917,503
906,503
893,504
883,507
876,510
870,515
864,522
859,531
856,540
853,550
851,558
850,563
850,566
" style="stroke:#000000;stroke-width:16;
stroke-linejoin:bevel; stroke-linecap:butt;
"/>
<!-- Line -->
<polyline points="3354,1086
3354,755
3637,755
" style="stroke:#000000;stroke-width:16;
stroke-linejoin:miter; stroke-linecap:butt;
"/>
<!-- Line -->
<polyline points="3685,755
3968,755
3968,1086
" style="stroke:#000000;stroke-width:16;
stroke-linejoin:miter; stroke-linecap:butt;
"/>
<!-- Text -->
<text xml:space="preserve" x="3543" y="1039" fill="#000000"  font-family="Helvetica" font-style="normal" font-weight="bold" font-size="227" text-anchor="middle">S</text>
<!-- Text -->
<text xml:space="preserve" x="3779" y="1039" fill="#000000"  font-family="Helvetica" font-style="normal" font-weight="bold" font-size="227" text-anchor="middle">T</text>
<!-- Circle -->
<circle cx="944" cy="2362" r="94"
 style="stroke:#000000;stroke-width:16;"/>
<!-- Line -->
<polyline points="944,2267
944,2220
" style="stroke:#000000;stroke-width:16;
stroke-linejoin:miter; stroke-linecap:butt;
"/>
<!-- Text -->
<text xml:space="preserve" x="944" y="2409" fill="#000000"  font-family="Helvetica" font-style="normal" font-weight="bold" font-size="114" text-anchor="middle">2</text>
<!-- Line: box -->
<rect x="850" y="1653" width="188" height="188" rx="0" 
style="stroke:#000000;stroke-width:16;
stroke-linejoin:miter; stroke-linecap:butt;
"/>
<!-- Line -->
<polyline points="944,1842
944,1889
" style="stroke:#000000;stroke-width:16;
stroke-linejoin:miter; stroke-linecap:butt;
"/>
<!-- Text -->
<text xml:space="preserve" x="944" y="1795" fill="#000000"  font-family="Helvetica" font-style="normal" font-weight="bold" font-size="114" text-anchor="middle">2</text>
<!-- Line: box -->
<rect x="283" y="1653" width="188" height="188" rx="0" 
style="stroke:#000000;stroke-width:16;
stroke-linejoin:miter; stroke-linecap:butt;
"/>
<!-- Line -->
<polyline points="377,1889
377,1842
" style="stroke:#000000;stroke-width:16;
stroke-linejoin:miter; stroke-linecap:butt;
"/>
<!-- Text -->
<text xml:space="preserve" x="377" y="1795" fill="#000000"  font-family="Helvetica" font-style="normal" font-weight="bold" font-size="114" text-anchor="middle">3</text>
<!-- Circle -->
<circle cx="377" cy="2362" r="94"
 style="stroke:#000000;stroke-width:16;"/>
<!-- Line -->
<polyline points="377,2220
377,2267
" style="stroke:#000000;stroke-width:16;
stroke-linejoin:miter; stroke-linecap:butt;
"/>
<!-- Text -->
<text xml:space="preserve" x="377" y="2409" fill="#000000"  font-family="Helvetica" font-style="normal" font-weight="bold" font-size="114" text-anchor="middle">3</text>
<!-- Circle -->
<circle cx="661" cy="1748" r="94"
 style="stroke:#000000;stroke-width:16;"/>
<!-- Line -->
<polyline points="661,1842
661,1889
" style="stroke:#000000;stroke-width:16;
stroke-linejoin:miter; stroke-linecap:butt;
"/>
<!-- Line -->
<polyline points="661,2267
661,2220
" style="stroke:#000000;stroke-width:16;
stroke-linejoin:miter; stroke-linecap:butt;
"/>
<!-- Line: box -->
<rect x="566" y="2267" width="188" height="188" rx="0" 
style="stroke:#000000;stroke-width:16;
stroke-linejoin:miter; stroke-linecap:butt;
"/>
<!-- Line -->
<polyline points="472,1748
566,1748
" style="stroke:#000000;stroke-width:16;
stroke-linejoin:miter; stroke-linecap:butt;
fill:#000000;
"/>
<!-- Line -->
<polyline points="755,1748
850,1748
" style="stroke:#000000;stroke-width:16;
stroke-linejoin:miter; stroke-linecap:butt;
fill:#000000;
"/>
<!-- Line -->
<polyline points="755,2362
850,2362
" style="stroke:#000000;stroke-width:16;
stroke-linejoin:miter; stroke-linecap:butt;
fill:#000000;
"/>
<!-- Line -->
<polyline points="472,2362
566,2362
" style="stroke:#000000;stroke-width:16;
stroke-linejoin:miter; stroke-linecap:butt;
fill:#000000;
"/>
<!-- Text -->
<text xml:space="preserve" x="661" y="1795" fill="#000000"  font-family="Helvetica" font-style="normal" font-weight="bold" font-size="114" text-anchor="middle">1</text>
<!-- Text -->
<text xml:space="preserve" x="661" y="2409" fill="#000000"  font-family="Helvetica" font-style="normal" font-weight="bold" font-size="114" text-anchor="middle">1</text>
<!-- Text -->
<text xml:space="preserve" x="661" y="2173" fill="#000000"  font-family="Helvetica" font-style="normal" font-weight="bold" font-size="227" text-anchor="middle">S</text>
<!-- Circle -->
<circle cx="1889" cy="1748" r="94"
 style="stroke:#000000;stroke-width:16;"/>
<!-- Line -->
<polyline points="1889,1842
1889,1889
" style="stroke:#000000;stroke-width:16;
stroke-linejoin:miter; stroke-linecap:butt;
"/>
<!-- Text -->
<text xml:space="preserve" x="1889" y="1795" fill="#000000"  font-family="Helvetica" font-style="normal" font-weight="bold" font-size="114" text-anchor="middle">1</text>
<!-- Line -->
<polyline points="1606,1889
1606,1842
" style="stroke:#000000;stroke-width:16;
stroke-linejoin:miter; stroke-linecap:butt;
"/>
<!-- Line: box -->
<rect x="1511" y="1653" width="188" height="188" rx="0" 
style="stroke:#000000;stroke-width:16;
stroke-linejoin:miter; stroke-linecap:butt;
"/>
<!-- Text -->
<text xml:space="preserve" x="1606" y="1795" fill="#000000"  font-family="Helvetica" font-style="normal" font-weight="bold" font-size="114" text-anchor="middle">3</text>
<!-- Line: box -->
<rect x="2078" y="1653" width="188" height="188" rx="0" 
style="stroke:#000000;stroke-width:16;
stroke-linejoin:miter; stroke-linecap:butt;
"/>
<!-- Line -->
<polyline points="2173,1842
2173,1889
" style="stroke:#000000;stroke-width:16;
stroke-linejoin:miter; stroke-linecap:butt;
"/>
<!-- Text -->
<text xml:space="preserve" x="2173" y="1795" fill="#000000"  font-family="Helvetica" font-style="normal" font-weight="bold" font-size="114" text-anchor="middle">2</text>
<!-- Line -->
<polyline points="2173,1889
2172,1892
2171,1898
2166,1907
2162,1918
2155,1929
2146,1940
2137,1949
2124,1958
2110,1964
2092,1970
2071,1976
2055,1980
2039,1982
2022,1985
2003,1988
1982,1991
1960,1993
1935,1995
1911,1997
1885,2000
1859,2001
1833,2002
1805,2003
1779,2003
1753,2003
1728,2002
1703,2001
1679,2000
1656,1997
1634,1994
1614,1992
1588,1987
1564,1982
1541,1975
1518,1969
1496,1961
1475,1952
1454,1944
1436,1934
1419,1925
1403,1916
1391,1906
1379,1897
1370,1888
1362,1880
1357,1872
1354,1866
1352,1857
1353,1849
1358,1842
1366,1835
1379,1827
1395,1819
1414,1812
1433,1805
1404,1814
" style="stroke:#000000;stroke-width:16;
stroke-linejoin:bevel; stroke-linecap:butt;
stroke-dasharray:20 20;"/>
<!-- Arrowhead on XXXpoint 1433 1805 - 1493 1784-->
<polygon points="1436 1837
1485 1787
1415 1778
1436 1837

" style="stroke:#000000;stroke-width:8;stroke-miterlimit:8;
fill:#000000;"/>
<!-- Line -->
<polyline points="1889,1889
1888,1889
1885,1890
1877,1892
1863,1895
1847,1897
1830,1898
1815,1898
1801,1896
1791,1891
1780,1885
1773,1877
1765,1865
1760,1854
1755,1840
1750,1824
1746,1806
1743,1787
1740,1766
1739,1745
1739,1724
1740,1704
1742,1685
1745,1666
1751,1649
1756,1634
1763,1620
1771,1611
1779,1602
1788,1593
1800,1587
1813,1581
1827,1575
1843,1570
1860,1567
1878,1564
1897,1562
1917,1561
1937,1560
1956,1559
1976,1559
1997,1559
2019,1559
2038,1559
2059,1559
2080,1559
2102,1559
2124,1560
2149,1561
2172,1562
2196,1564
2220,1566
2243,1568
2265,1572
2287,1575
2307,1581
2326,1586
2344,1591
2360,1597
2374,1605
2387,1613
2401,1623
2412,1634
2422,1647
2431,1660
2438,1675
2445,1691
2450,1708
2453,1725
2455,1742
2457,1760
2457,1777
2456,1793
2454,1808
2451,1823
2448,1836
2445,1849
2438,1864
2431,1879
2423,1892
2412,1906
2398,1921
2384,1934
2368,1949
2352,1963
2375,1945
" style="stroke:#000000;stroke-width:16;
stroke-linejoin:bevel; stroke-linecap:butt;
"/>
<!-- Arrowhead on XXXpoint 2352 1963 - 2301 2002-->
<polygon points="2339 1932
2308 1996
2376 1983
2339 1932

" style="stroke:#000000;stroke-width:8;stroke-miterlimit:8;
fill:#000000;"/>
<!-- Line -->
<polyline points="1606,1889
1605,1889
1602,1890
1593,1892
1580,1895
1564,1897
1547,1898
1531,1898
1518,1896
1506,1891
1496,1885
1487,1877
1480,1866
1474,1854
1468,1840
1463,1824
1459,1806
1455,1787
1453,1767
1450,1746
1449,1725
1450,1704
1451,1685
1455,1667
1459,1650
1465,1635
1472,1622
1480,1611
1488,1603
1499,1594
1510,1587
1524,1581
1539,1575
1556,1570
1575,1566
1595,1563
1616,1560
1639,1558
1662,1556
1687,1554
1711,1553
1737,1552
1763,1551
1785,1549
1808,1548
1833,1547
1858,1546
1884,1545
1911,1543
1939,1542
1967,1541
1996,1540
2025,1540
2053,1539
2080,1539
2107,1539
2132,1540
2156,1541
2178,1542
2199,1543
2218,1545
2236,1548
2251,1551
2266,1554
2279,1559
2291,1563
2302,1568
2311,1573
2321,1580
2328,1586
2334,1593
2340,1601
2344,1608
2348,1615
2350,1624
2352,1631
2352,1638
2352,1646
2352,1652
2351,1659
2350,1666
2348,1671
2346,1677
2341,1687
2335,1696
2327,1704
2318,1714
2306,1723
2292,1732
2320,1714
" style="stroke:#000000;stroke-width:16;
stroke-linejoin:bevel; stroke-linecap:butt;
stroke-dasharray:20 20;"/>
<!-- Arrowhead on XXXpoint 2292 1732 - 2240 1763-->
<polygon points="2285 1699
2247 1759
2317 1753
2285 1699

" style="stroke:#000000;stroke-width:8;stroke-miterlimit:8;
fill:#000000;"/>
<!-- Line -->
<polyline points="1606,2220
1606,2218
1608,2214
1610,2207
1613,2199
1617,2190
1624,2180
1631,2171
1638,2162
1649,2155
1660,2149
1674,2143
1690,2138
1709,2134
1723,2130
1739,2128
1757,2124
1776,2121
1797,2118
1819,2116
1843,2114
1867,2112
1893,2110
1920,2109
1946,2108
1973,2107
2000,2107
2026,2107
2051,2108
2075,2109
2099,2110
2122,2112
2144,2115
2165,2118
2191,2122
2215,2128
2238,2134
2261,2140
2283,2149
2304,2157
2325,2165
2343,2175
2360,2184
2375,2194
2388,2203
2400,2213
2409,2221
2416,2229
2422,2237
2425,2244
2427,2253
2426,2260
2420,2267
2412,2275
2400,2282
2384,2290
2365,2298
2346,2304
2373,2295
" style="stroke:#000000;stroke-width:16;
stroke-linejoin:bevel; stroke-linecap:butt;
"/>
<!-- Arrowhead on XXXpoint 2346 2304 - 2284 2324-->
<polygon points="2342 2271
2292 2321
2362 2331
2342 2271

" style="stroke:#000000;stroke-width:8;stroke-miterlimit:8;
fill:#000000;"/>
<!-- Line -->
<polyline points="2173,2220
2174,2220
2177,2219
2185,2217
2199,2215
2215,2213
2232,2212
2247,2212
2261,2214
2272,2218
2283,2224
2291,2233
2299,2244
2305,2256
2310,2269
2316,2285
2320,2303
2324,2322
2326,2342
2328,2363
2329,2384
2328,2405
2327,2425
2324,2443
2320,2459
2313,2474
2307,2488
2299,2498
2290,2507
2280,2515
2268,2522
2255,2529
2240,2534
2222,2539
2203,2543
2183,2546
2162,2550
2139,2552
2116,2553
2092,2555
2068,2556
2041,2557
2015,2559
1993,2560
1970,2561
1946,2562
1921,2563
1895,2564
1867,2566
1840,2567
1812,2569
1782,2570
1754,2570
1725,2571
1698,2571
1672,2571
1647,2570
1623,2569
1601,2567
1580,2566
1561,2564
1543,2561
1527,2559
1512,2555
1500,2551
1487,2546
1477,2541
1467,2536
1458,2530
1450,2523
1444,2516
1439,2509
1435,2501
1430,2494
1428,2486
1426,2478
1426,2471
1426,2464
1426,2457
1427,2450
1428,2444
1430,2438
1433,2433
1438,2423
1443,2413
1451,2405
1461,2395
1472,2386
1486,2377
1458,2394
" style="stroke:#000000;stroke-width:16;
stroke-linejoin:bevel; stroke-linecap:butt;
"/>
<!-- Arrowhead on XXXpoint 1486 2377 - 1538 2345-->
<polygon points="1493 2410
1530 2350
1460 2356
1493 2410

" style="stroke:#000000;stroke-width:8;stroke-miterlimit:8;
fill:#000000;"/>
<!-- Line -->
<polyline points="1901,2219
1902,2219
1905,2218
1913,2216
1927,2214
1943,2212
1960,2211
1975,2211
1989,2213
2000,2217
2010,2223
2017,2232
2025,2243
2030,2255
2035,2268
2040,2284
2044,2302
2047,2321
2050,2342
2051,2363
2051,2384
2050,2404
2048,2424
2045,2443
2039,2459
2034,2474
2027,2488
2019,2497
2011,2507
2002,2515
1990,2521
1977,2528
1963,2533
1947,2538
1930,2541
1912,2544
1893,2546
1874,2548
1854,2549
1834,2550
1814,2550
1793,2550
1771,2550
1752,2550
1731,2550
1710,2550
1688,2550
1666,2549
1641,2548
1618,2546
1594,2544
1570,2542
1547,2540
1525,2536
1503,2533
1483,2528
1464,2522
1446,2517
1430,2511
1416,2503
1403,2495
1390,2486
1378,2474
1369,2461
1359,2448
1352,2433
1345,2417
1340,2401
1337,2383
1335,2366
1333,2348
1333,2331
1334,2316
1336,2300
1339,2285
1342,2272
1346,2260
1352,2244
1359,2229
1367,2216
1378,2202
1392,2187
1406,2174
1422,2159
1438,2145
1414,2162
" style="stroke:#000000;stroke-width:16;
stroke-linejoin:bevel; stroke-linecap:butt;
stroke-dasharray:20 20;"/>
<!-- Arrowhead on XXXpoint 1438 2145 - 1488 2106-->
<polygon points="1450 2174
1481 2111
1412 2124
1450 2174

" style="stroke:#000000;stroke-width:8;stroke-miterlimit:8;
fill:#000000;"/>
<!-- Line -->
<polyline points="1889,2267
1889,2220
" style="stroke:#000000;stroke-width:16;
stroke-linejoin:miter; stroke-linecap:butt;
"/>
<!-- Line: box -->
<rect x="1795" y="2267" width="188" height="188" rx="0" 
style="stroke:#000000;stroke-width:16;
stroke-linejoin:miter; stroke-linecap:butt;
"/>
<!-- Text -->
<text xml:space="preserve" x="1889" y="2409" fill="#000000"  font-family="Helvetica" font-style="normal" font-weight="bold" font-size="114" text-anchor="middle">1</text>
<!-- Circle -->
<circle cx="1606" cy="2362" r="94"
 style="stroke:#000000;stroke-width:16;"/>
<!-- Line -->
<polyline points="1606,2220
1606,2267
" style="stroke:#000000;stroke-width:16;
stroke-linejoin:miter; stroke-linecap:butt;
"/>
<!-- Text -->
<text xml:space="preserve" x="1606" y="2409" fill="#000000"  font-family="Helvetica" font-style="normal" font-weight="bold" font-size="114" text-anchor="middle">3</text>
<!-- Line -->
<polyline points="2173,2267
2173,2220
" style="stroke:#000000;stroke-width:16;
stroke-linejoin:miter; stroke-linecap:butt;
"/>
<!-- Circle -->
<circle cx="2173" cy="2362" r="94"
 style="stroke:#000000;stroke-width:16;"/>
<!-- Text -->
<text xml:space="preserve" x="2173" y="2409" fill="#000000"  font-family="Helvetica" font-style="normal" font-weight="bold" font-size="114" text-anchor="middle">2</text>
<!-- Line: box -->
<rect x="3118" y="1653" width="188" height="188" rx="0" 
style="stroke:#000000;stroke-width:16;
stroke-linejoin:miter; stroke-linecap:butt;
"/>
<!-- Text -->
<text xml:space="preserve" x="3212" y="1795" fill="#000000"  font-family="Helvetica" font-style="normal" font-weight="bold" font-size="114" text-anchor="middle">2</text>
<!-- Line: box -->
<rect x="3118" y="1984" width="188" height="188" rx="0" 
style="stroke:#000000;stroke-width:16;
stroke-linejoin:miter; stroke-linecap:butt;
"/>
<!-- Text -->
<text xml:space="preserve" x="3212" y="2125" fill="#000000"  font-family="Helvetica" font-style="normal" font-weight="bold" font-size="114" text-anchor="middle">1</text>
<!-- Circle -->
<circle cx="3212" cy="2409" r="94"
 style="stroke:#000000;stroke-width:16;"/>
<!-- Text -->
<text xml:space="preserve" x="3212" y="2456" fill="#000000"  font-family="Helvetica" font-style="normal" font-weight="bold" font-size="114" text-anchor="middle">2</text>
<!-- Circle -->
<circle cx="3968" cy="2078" r="94"
 style="stroke:#000000;stroke-width:16;"/>
<!-- Text -->
<text xml:space="preserve" x="3968" y="2125" fill="#000000"  font-family="Helvetica" font-style="normal" font-weight="bold" font-size="114" text-anchor="middle">1</text>
<!-- Line: box -->
<rect x="3874" y="1653" width="188" height="188" rx="0" 
style="stroke:#000000;stroke-width:16;
stroke-linejoin:miter; stroke-linecap:butt;
"/>
<!-- Text -->
<text xml:space="preserve" x="3968" y="1795" fill="#000000"  font-family="Helvetica" font-style="normal" font-weight="bold" font-size="114" text-anchor="middle">3</text>
<!-- Circle -->
<circle cx="3968" cy="2409" r="94"
 style="stroke:#000000;stroke-width:16;"/>
<!-- Text -->
<text xml:space="preserve" x="3968" y="2456" fill="#000000"  font-family="Helvetica" font-style="normal" font-weight="bold" font-size="114" text-anchor="middle">3</text>
<!-- Line -->
<polyline points="3826,2078
3823,2077
3817,2076
3805,2073
3787,2069
3763,2064
3733,2056
3697,2048
3657,2038
3614,2028
3569,2016
3524,2006
3480,1994
3438,1984
3397,1973
3359,1963
3324,1953
3292,1944
3262,1935
3235,1927
3211,1919
3189,1911
3169,1904
3150,1897
3133,1889
3118,1882
3097,1870
3079,1859
3062,1848
3047,1836
3034,1824
3022,1812
3012,1799
3003,1786
2997,1774
2992,1761
2987,1749
2984,1737
2982,1725
2981,1714
2981,1704
2982,1694
2982,1686
2984,1677
2986,1662
2990,1648
2993,1634
2998,1622
3004,1609
3011,1597
3019,1587
3027,1576
3037,1567
3047,1559
3055,1552
3064,1546
3074,1540
3085,1534
3098,1529
3110,1524
3125,1520
3141,1517
3156,1516
3173,1514
3190,1516
3208,1518
3226,1522
3244,1527
3258,1532
3274,1539
3291,1547
3309,1556
3329,1568
3351,1582
3375,1597
3402,1615
3430,1635
3461,1655
3490,1676
3520,1697
3544,1715
3539,1711
" style="stroke:#000000;stroke-width:16;
stroke-linejoin:bevel; stroke-linecap:butt;
"/>
<!-- Arrowhead on XXXpoint 3544 1715 - 3615 1765-->
<polygon points="3538 1749
3608 1760
3574 1697
3538 1749

" style="stroke:#000000;stroke-width:8;stroke-miterlimit:8;
fill:#000000;"/>
<!-- Line -->
<polyline points="3354,2078
3357,2079
3363,2080
3375,2083
3393,2088
3417,2093
3447,2100
3483,2109
3523,2118
3566,2129
3611,2140
3656,2151
3700,2162
3742,2173
3783,2183
3821,2194
3856,2203
3888,2213
3918,2221
3945,2229
3969,2238
3991,2245
4011,2253
4030,2260
4047,2267
4062,2276
4083,2286
4101,2298
4118,2308
4133,2321
4146,2332
4158,2345
4169,2358
4177,2370
4183,2383
4188,2395
4193,2408
4196,2419
4198,2431
4199,2443
4199,2452
4198,2462
4198,2471
4197,2480
4194,2494
4191,2509
4187,2522
4182,2535
4176,2548
4170,2559
4161,2570
4153,2580
4143,2590
4134,2598
4125,2604
4116,2611
4107,2617
4095,2622
4082,2627
4070,2633
4055,2637
4039,2640
4024,2641
4007,2642
3990,2641
3972,2639
3954,2635
3937,2629
3922,2624
3906,2618
3889,2609
3871,2600
3851,2588
3829,2575
3805,2559
3778,2541
3750,2521
3719,2501
3690,2480
3660,2459
3636,2441
3640,2445
" style="stroke:#000000;stroke-width:16;
stroke-linejoin:bevel; stroke-linecap:butt;
stroke-dasharray:20 20;"/>
<!-- Arrowhead on XXXpoint 3636 2441 - 3564 2390-->
<polygon points="3640 2406
3571 2395
3604 2457
3640 2406

" style="stroke:#000000;stroke-width:8;stroke-miterlimit:8;
fill:#000000;"/>
<!-- Circle -->
<circle cx="2125" cy="661" r="47"
 style="stroke:#000000;stroke-width:8;"/>
<!-- Circle -->
<circle cx="2123" cy="660" r="18"
 style="fill:#000000;stroke:#000000;stroke-width:8;"/>
<!-- Circle -->
<circle cx="2385" cy="661" r="118"
 style="stroke:#000000;stroke-width:16;"/>
<!-- Circle -->
<circle cx="2621" cy="661" r="118"
 style="stroke:#000000;stroke-width:16;"/>
<!-- Line -->
<polyline points="2220,661
2787,661
" style="stroke:#000000;stroke-width:16;
stroke-linejoin:miter; stroke-linecap:butt;
"/>
<!-- Line -->
<polyline points="2456,755
2362,850
" style="stroke:#000000;stroke-width:16;
stroke-linejoin:miter; stroke-linecap:butt;
"/>
<!-- Circle -->
<circle cx="2622" cy="1133" r="118"
 style="stroke:#000000;stroke-width:16;"/>
<!-- Circle -->
<circle cx="2386" cy="1133" r="118"
 style="stroke:#000000;stroke-width:16;"/>
<!-- Line -->
<polyline points="2787,1133
2220,1133
" style="stroke:#000000;stroke-width:16;
stroke-linejoin:miter; stroke-linecap:butt;
"/>
<!-- Line -->
<polyline points="2456,1039
2362,944
" style="stroke:#000000;stroke-width:16;
stroke-linejoin:miter; stroke-linecap:butt;
"/>
<!-- Circle -->
<circle cx="4724" cy="1889" r="47"
 style="stroke:#000000;stroke-width:8;"/>
<!-- Circle -->
<circle cx="4722" cy="1888" r="18"
 style="fill:#000000;stroke:#000000;stroke-width:8;"/>
<!-- Circle -->
<circle cx="5220" cy="1889" r="118"
 style="stroke:#000000;stroke-width:16;"/>
<!-- Circle -->
<circle cx="4984" cy="1889" r="118"
 style="stroke:#000000;stroke-width:16;"/>
<!-- Circle -->
<circle cx="4983" cy="2267" r="118"
 style="stroke:#000000;stroke-width:16;"/>
<!-- Circle -->
<circle cx="5219" cy="2267" r="118"
 style="stroke:#000000;stroke-width:16;"/>
<!-- Line -->
<polyline points="5055,1795
4960,1700
" style="stroke:#000000;stroke-width:16;
stroke-linejoin:miter; stroke-linecap:butt;
"/>
<!-- Line -->
<polyline points="5149,2362
5244,2456
" style="stroke:#000000;stroke-width:16;
stroke-linejoin:miter; stroke-linecap:butt;
"/>
<!-- Text -->
<text xml:space="preserve" x="5669" y="2173" fill="#000000"  font-family="Helvetica" font-style="normal" font-weight="bold" font-size="227" text-anchor="middle">X</text>
<!-- Line -->
<polyline points="0,377
6094,377
" style="stroke:#000000;stroke-width:16;
stroke-linejoin:miter; stroke-linecap:butt;
"/>
<!-- Line -->
<polyline points="0,1417
0,2929
6094,2929
6094,1417
" style="stroke:#000000;stroke-width:16;
stroke-linejoin:miter; stroke-linecap:butt;
"/>
<!-- Line -->
<polyline points="1795,377
1795,1417
" style="stroke:#000000;stroke-width:16;
stroke-linejoin:miter; stroke-linecap:butt;
stroke-dasharray:62 62;"/>
<!-- Line -->
<polyline points="3070,377
3070,1417
" style="stroke:#000000;stroke-width:16;
stroke-linejoin:miter; stroke-linecap:butt;
"/>
<!-- Line -->
<polyline points="4251,377
4251,1417
" style="stroke:#000000;stroke-width:16;
stroke-linejoin:miter; stroke-linecap:butt;
"/>
<!-- Line: box -->
<rect x="0" y="0" width="6094" height="1417" rx="0" 
style="stroke:#000000;stroke-width:16;
stroke-linejoin:miter; stroke-linecap:butt;
"/>
<!-- Line -->
<polyline points="2787,1417
2787,2929
" style="stroke:#000000;stroke-width:16;
stroke-linejoin:miter; stroke-linecap:butt;
stroke-dasharray:62 62;"/>
<!-- Line -->
<polyline points="4393,1417
4393,2929
" style="stroke:#000000;stroke-width:16;
stroke-linejoin:miter; stroke-linecap:butt;
"/>
<!-- Text -->
<text xml:space="preserve" x="141" y="283" fill="#000000"  font-family="Helvetica" font-style="normal" font-weight="normal" font-size="227" text-anchor="start">Lilo's Birthday Fancy</text>
<!-- Text -->
<text xml:space="preserve" x="6000" y="283" fill="#000000"  font-family="Helvetica" font-style="normal" font-weight="normal" font-size="227" text-anchor="end">S32</text>
<!-- Text -->
<text xml:space="preserve" x="5007" y="283" fill="#000000"  font-family="Helvetica" font-style="normal" font-weight="normal" font-size="202" text-anchor="end">A. Jelinek</text>
<!-- Text -->
<text xml:space="preserve" x="330" y="1086" fill="#000000"  font-family="Helvetica" font-style="normal" font-weight="bold" font-size="227" text-anchor="middle">S</text>
</g>
</svg>
