<?xml version='1.0' encoding='utf-8' standalone='no'?>
<!DOCTYPE svg PUBLIC '-//W3C//DTD SVG 1.1//EN' 'http://www.w3.org/Graphics/SVG/1.1/DTD/svg11.dtd'>
<svg version="1.1" viewBox="-0.028 -0.352 470 171" xmlns='http://www.w3.org/2000/svg'>
<defs>
</defs>
<path d="M469.174,158.382H0V0h469.174V158.382z M1.134,157.248h466.905V1.134H1.134V157.248z"/>
<path d="M5.734,6.431h9.305V7.79h-3.875v10.141H9.609V7.79H5.734V6.431z"/>
<path d="M16.492,6.431h1.555v4.75h5.945v-4.75h1.555v11.5h-1.555V12.54h-5.945v5.391h-1.555V6.431z"/>
<path d="M28.195,17.931v-11.5h8.43V7.79H29.75v3.57h6.344v1.359H29.75v3.852h7v1.359H28.195z"/>
<path d="M43.383,6.431h1.555v11.5h-1.555V6.431z"/>
<path d="M57.273,17.931h-1.914c-0.177-0.755-0.266-1.651-0.266-2.688c0-0.833-0.154-1.411-0.461-1.734
	c-0.308-0.328-0.828-0.492-1.563-0.492h-3.734v4.914h-1.555v-11.5h5.305c1.255,0,2.192,0.258,2.813,0.773
	c0.625,0.511,0.938,1.302,0.938,2.375c0,1.25-0.534,2.161-1.602,2.734c0.469,0.188,0.807,0.438,1.016,0.75
	c0.208,0.313,0.325,0.841,0.352,1.586l0.086,1.875c0.01,0.208,0.039,0.417,0.086,0.625c0.047,0.203,0.213,0.378,0.5,0.523V17.931z
	 M55.234,9.712c0-0.661-0.177-1.146-0.531-1.453c-0.349-0.313-0.854-0.469-1.516-0.469h-3.852v3.93h3.57
	C54.458,11.72,55.234,11.051,55.234,9.712z"/>
<path d="M59.383,6.431h1.555v11.5h-1.555V6.431z"/>
<path d="M64.578,14.228c0.083,1.761,1.167,2.641,3.25,2.641c0.953,0,1.677-0.161,2.172-0.484c0.495-0.328,0.742-0.839,0.742-1.531
	c0-0.442-0.138-0.81-0.414-1.102c-0.271-0.297-0.945-0.573-2.023-0.828l-2.375-0.531c-0.755-0.188-1.349-0.497-1.781-0.93
	c-0.433-0.438-0.648-1.044-0.648-1.82c0-1.058,0.352-1.906,1.055-2.547c0.708-0.641,1.719-0.961,3.031-0.961
	c1.203,0,2.2,0.284,2.992,0.852c0.797,0.567,1.229,1.492,1.297,2.773h-1.453c-0.151-1.511-1.102-2.266-2.852-2.266
	c-0.766,0-1.386,0.167-1.859,0.5c-0.469,0.333-0.703,0.823-0.703,1.469c0,0.375,0.112,0.688,0.336,0.938
	c0.224,0.25,0.648,0.442,1.273,0.578l3.023,0.727c0.87,0.192,1.521,0.539,1.953,1.039c0.438,0.495,0.656,1.169,0.656,2.023
	c0,1.12-0.412,1.977-1.234,2.57c-0.823,0.594-1.945,0.891-3.367,0.891c-1.484,0-2.609-0.362-3.375-1.086s-1.148-1.695-1.148-2.914
	H64.578z"/>
<path d="M74.281,6.431h1.555v4.75h5.945v-4.75h1.555v11.5h-1.555V12.54h-5.945v5.391h-1.555V6.431z"/>
<path d="M98.469,13.728h1.508c-0.266,1.5-0.831,2.625-1.695,3.375c-0.865,0.75-1.977,1.125-3.336,1.125
	c-1.558,0-2.813-0.542-3.766-1.625c-0.953-1.089-1.43-2.563-1.43-4.422c0-1.839,0.484-3.305,1.453-4.398
	c0.974-1.099,2.292-1.648,3.953-1.648c1.255,0,2.292,0.313,3.109,0.938c0.823,0.62,1.352,1.558,1.586,2.813h-1.508
	c-0.401-1.594-1.466-2.391-3.195-2.391c-1.13,0-2.047,0.403-2.75,1.211c-0.698,0.808-1.047,1.979-1.047,3.516
	c0,1.417,0.313,2.547,0.938,3.391c0.625,0.839,1.555,1.258,2.789,1.258c0.896,0,1.627-0.266,2.195-0.797
	C97.846,15.535,98.245,14.754,98.469,13.728z"/>
<path d="M101.813,6.431h1.555v10.141h5.875v1.359h-7.43V6.431z"/>
<path d="M110.133,12.181c0-1.729,0.495-3.169,1.484-4.32c0.995-1.151,2.372-1.727,4.133-1.727c1.75,0,3.122,0.583,4.117,1.75
	c0.995,1.161,1.492,2.563,1.492,4.203c0,1.808-0.495,3.284-1.484,4.43c-0.99,1.141-2.367,1.711-4.133,1.711
	c-1.651,0-3-0.542-4.047-1.625C110.653,15.514,110.133,14.04,110.133,12.181z M111.734,12.181c0,1.344,0.352,2.461,1.055,3.352
	c0.708,0.891,1.695,1.336,2.961,1.336c1.156,0,2.112-0.417,2.867-1.25c0.76-0.839,1.141-1.984,1.141-3.438
	c0-1.391-0.357-2.519-1.07-3.383c-0.714-0.87-1.695-1.305-2.945-1.305c-1.183,0-2.146,0.419-2.891,1.258
	C112.106,9.59,111.734,10.732,111.734,12.181z"/>
<path d="M127.391,16.267l3.328-9.836h1.75l-4.25,11.5h-1.648l-4.25-11.5h1.719L127.391,16.267z"/>
<path d="M134,17.931v-11.5h8.43V7.79h-6.875v3.57h6.344v1.359h-6.344v3.852h7v1.359H134z"/>
<path d="M154.188,17.931h-1.914c-0.177-0.755-0.266-1.651-0.266-2.688c0-0.833-0.154-1.411-0.461-1.734
	c-0.308-0.328-0.828-0.492-1.563-0.492h-3.734v4.914h-1.555v-11.5H150c1.255,0,2.192,0.258,2.813,0.773
	c0.625,0.511,0.938,1.302,0.938,2.375c0,1.25-0.534,2.161-1.602,2.734c0.469,0.188,0.807,0.438,1.016,0.75
	c0.208,0.313,0.325,0.841,0.352,1.586l0.086,1.875c0.01,0.208,0.039,0.417,0.086,0.625c0.047,0.203,0.213,0.378,0.5,0.523V17.931z
	 M152.148,9.712c0-0.661-0.177-1.146-0.531-1.453c-0.349-0.313-0.854-0.469-1.516-0.469h-3.852v3.93h3.57
	C151.372,11.72,152.148,11.051,152.148,9.712z"/>
<rect x="155.38" y="91.359" width="1.111" height="66.486"/>
<path d="M411.779,14.47c0.016,0.808,0.211,1.425,0.586,1.852c0.38,0.422,0.977,0.633,1.789,0.633c0.683,0,1.266-0.183,1.75-0.547
	c0.489-0.37,0.734-0.911,0.734-1.625c0-0.62-0.208-1.109-0.625-1.469s-1.042-0.539-1.875-0.539c-0.177,0-0.448,0.008-0.813,0.023
	v-1.227c0.359,0.026,0.583,0.039,0.672,0.039c1.469,0,2.203-0.612,2.203-1.836c0-0.567-0.185-1.021-0.555-1.359
	c-0.364-0.339-0.867-0.508-1.508-0.508c-0.698,0-1.222,0.195-1.57,0.586s-0.547,0.981-0.594,1.773h-1.383
	c0.005-1.141,0.31-2.028,0.914-2.664c0.609-0.641,1.519-0.961,2.727-0.961c1.047,0,1.886,0.278,2.516,0.836
	c0.636,0.552,0.953,1.284,0.953,2.195c0,1.203-0.492,1.987-1.477,2.352c0.714,0.255,1.211,0.599,1.492,1.031
	c0.281,0.427,0.422,0.956,0.422,1.586c0,1.063-0.359,1.925-1.078,2.586s-1.683,0.992-2.891,0.992c-1.104,0-1.997-0.276-2.68-0.828
	c-0.677-0.558-1.065-1.531-1.164-2.922H411.779z"/>
<path d="M418.857,17.931l2.906-4.352l-2.75-4.023h1.805l1.906,2.914l1.898-2.914h1.734l-2.797,4.023l2.906,4.352h-1.781
	l-2.063-3.141l-1.984,3.141H418.857z"/>
<path d="M427.076,13.829l5.211-7.07h1.164v7.195h1.648v1.227h-1.648v2.75h-1.406v-2.75h-4.969V13.829z M428.396,13.954h3.648V8.868
	L428.396,13.954z"/>
<path d="M436.17,12.478c0-1.792,0.328-3.211,0.984-4.258c0.661-1.052,1.636-1.578,2.922-1.578c1.177,0,2.112,0.484,2.805,1.453
	c0.692,0.964,1.039,2.394,1.039,4.289c0,1.813-0.325,3.239-0.977,4.281c-0.651,1.036-1.617,1.555-2.898,1.555
	c-1.183,0-2.125-0.481-2.828-1.445C436.519,15.811,436.17,14.379,436.17,12.478z M437.67,12.431c0,3.016,0.786,4.523,2.359,4.523
	c1.594,0,2.391-1.508,2.391-4.523s-0.792-4.523-2.375-4.523S437.67,9.415,437.67,12.431z"/>
<path d="M451.123,14.228c0.083,1.761,1.167,2.641,3.25,2.641c0.953,0,1.677-0.161,2.172-0.484c0.495-0.328,0.742-0.839,0.742-1.531
	c0-0.442-0.138-0.81-0.414-1.102c-0.271-0.297-0.945-0.573-2.023-0.828l-2.375-0.531c-0.755-0.188-1.349-0.497-1.781-0.93
	c-0.433-0.438-0.648-1.044-0.648-1.82c0-1.058,0.352-1.906,1.055-2.547c0.708-0.641,1.719-0.961,3.031-0.961
	c1.203,0,2.2,0.284,2.992,0.852c0.797,0.567,1.229,1.492,1.297,2.773h-1.453c-0.151-1.511-1.102-2.266-2.852-2.266
	c-0.766,0-1.386,0.167-1.859,0.5c-0.469,0.333-0.703,0.823-0.703,1.469c0,0.375,0.112,0.688,0.336,0.938s0.648,0.442,1.273,0.578
	l3.023,0.727c0.87,0.192,1.521,0.539,1.953,1.039c0.438,0.495,0.656,1.169,0.656,2.023c0,1.12-0.411,1.977-1.234,2.57
	s-1.945,0.891-3.367,0.891c-1.484,0-2.609-0.362-3.375-1.086s-1.148-1.695-1.148-2.914H451.123z"/>
<rect x="0.067" y="25.58" width="468.04" height="1.134"/>
<path d="M392.18,166.425c0.009,0.455,0.119,0.801,0.33,1.041c0.213,0.238,0.549,0.357,1.006,0.357c0.384,0,0.712-0.104,0.984-0.309
	c0.275-0.207,0.413-0.512,0.413-0.914c0-0.348-0.117-0.623-0.352-0.826c-0.234-0.201-0.586-0.303-1.055-0.303
	c-0.1,0-0.252,0.004-0.457,0.014v-0.691c0.202,0.016,0.328,0.023,0.378,0.023c0.826,0,1.239-0.346,1.239-1.033
	c0-0.32-0.104-0.574-0.312-0.766c-0.206-0.189-0.488-0.285-0.849-0.285c-0.393,0-0.688,0.109-0.884,0.33
	c-0.196,0.219-0.307,0.553-0.334,0.998h-0.777c0.003-0.643,0.174-1.143,0.514-1.5c0.344-0.359,0.854-0.539,1.534-0.539
	c0.589,0,1.061,0.156,1.415,0.469c0.357,0.311,0.536,0.723,0.536,1.236c0,0.676-0.276,1.117-0.831,1.322
	c0.401,0.143,0.682,0.336,0.84,0.58c0.158,0.24,0.237,0.537,0.237,0.893c0,0.598-0.202,1.082-0.606,1.453
	c-0.404,0.373-0.946,0.559-1.626,0.559c-0.621,0-1.124-0.156-1.507-0.465c-0.382-0.314-0.6-0.861-0.655-1.645H392.18z"/>
<path d="M401.36,166.007h0.849c-0.15,0.844-0.468,1.477-0.954,1.898s-1.112,0.633-1.876,0.633c-0.877,0-1.582-0.305-2.119-0.914
	c-0.535-0.611-0.804-1.441-0.804-2.486c0-1.035,0.272-1.859,0.817-2.475c0.548-0.617,1.289-0.928,2.224-0.928
	c0.706,0,1.289,0.176,1.749,0.527c0.463,0.35,0.76,0.877,0.893,1.582h-0.849c-0.226-0.896-0.825-1.344-1.798-1.344
	c-0.636,0-1.15,0.227-1.547,0.682c-0.393,0.453-0.588,1.113-0.588,1.977c0,0.797,0.176,1.434,0.527,1.908
	c0.352,0.471,0.874,0.707,1.568,0.707c0.504,0,0.915-0.15,1.234-0.449C401.01,167.025,401.234,166.585,401.36,166.007z"/>
<path d="M402.411,168.539l2.215-6.803h0.598l-2.215,6.803H402.411z"/>
<path d="M406.186,166.425c0.009,0.455,0.119,0.801,0.33,1.041c0.213,0.238,0.549,0.357,1.006,0.357c0.384,0,0.712-0.104,0.984-0.309
	c0.275-0.207,0.413-0.512,0.413-0.914c0-0.348-0.117-0.623-0.352-0.826c-0.234-0.201-0.586-0.303-1.055-0.303
	c-0.1,0-0.252,0.004-0.457,0.014v-0.691c0.202,0.016,0.328,0.023,0.378,0.023c0.826,0,1.239-0.346,1.239-1.033
	c0-0.32-0.104-0.574-0.312-0.766c-0.206-0.189-0.488-0.285-0.849-0.285c-0.393,0-0.688,0.109-0.884,0.33
	c-0.196,0.219-0.307,0.553-0.334,0.998h-0.777c0.003-0.643,0.174-1.143,0.514-1.5c0.344-0.359,0.854-0.539,1.534-0.539
	c0.589,0,1.061,0.156,1.415,0.469c0.357,0.311,0.536,0.723,0.536,1.236c0,0.676-0.276,1.117-0.831,1.322
	c0.401,0.143,0.682,0.336,0.84,0.58c0.158,0.24,0.237,0.537,0.237,0.893c0,0.598-0.202,1.082-0.606,1.453
	c-0.404,0.373-0.946,0.559-1.626,0.559c-0.621,0-1.124-0.156-1.507-0.465c-0.382-0.314-0.6-0.861-0.655-1.645H406.186z"/>
<path d="M415.366,166.007h0.849c-0.15,0.844-0.468,1.477-0.954,1.898s-1.112,0.633-1.876,0.633c-0.877,0-1.582-0.305-2.119-0.914
	c-0.535-0.611-0.804-1.441-0.804-2.486c0-1.035,0.272-1.859,0.817-2.475c0.548-0.617,1.289-0.928,2.224-0.928
	c0.706,0,1.289,0.176,1.749,0.527c0.463,0.35,0.76,0.877,0.893,1.582h-0.849c-0.226-0.896-0.825-1.344-1.798-1.344
	c-0.636,0-1.15,0.227-1.547,0.682c-0.393,0.453-0.588,1.113-0.588,1.977c0,0.797,0.176,1.434,0.527,1.908
	c0.352,0.471,0.874,0.707,1.568,0.707c0.504,0,0.915-0.15,1.234-0.449C415.016,167.025,415.24,166.585,415.366,166.007z"/>
<path d="M419.673,168.373v-6.469h0.791v6.469H419.673z"/>
<path d="M421.374,166.035c0-0.748,0.2-1.354,0.603-1.82c0.4-0.469,0.934-0.703,1.6-0.703c0.641,0,1.168,0.229,1.582,0.682
	c0.412,0.455,0.619,1.063,0.619,1.824c0,0.717-0.199,1.314-0.598,1.793c-0.398,0.475-0.928,0.711-1.586,0.711
	c-0.648,0-1.18-0.229-1.596-0.686C421.582,167.376,421.374,166.775,421.374,166.035z M422.191,166.017
	c0,0.512,0.119,0.941,0.355,1.287c0.24,0.346,0.583,0.52,1.029,0.52c0.387,0,0.713-0.152,0.979-0.453
	c0.27-0.305,0.404-0.756,0.404-1.354c0-0.514-0.117-0.941-0.352-1.287s-0.579-0.52-1.032-0.52c-0.411,0-0.745,0.156-1.002,0.467
	C422.318,164.988,422.191,165.433,422.191,166.017z"/>
<path d="M426.652,168.373v-4.711h0.742v0.693c0.396-0.563,0.893-0.844,1.49-0.844c0.504,0,0.894,0.15,1.169,0.449
	c0.275,0.295,0.413,0.697,0.413,1.203v3.209h-0.791v-2.928c0-0.475-0.084-0.797-0.25-0.971c-0.165-0.176-0.409-0.264-0.734-0.264
	c-0.369,0-0.67,0.139-0.9,0.414c-0.232,0.275-0.348,0.662-0.348,1.164v2.584H426.652z"/>
<path d="M431.579,168.908h0.791c0.103,0.479,0.458,0.717,1.067,0.717c0.442,0,0.775-0.113,0.998-0.338
	c0.223-0.227,0.334-0.607,0.334-1.143v-0.313c-0.284,0.461-0.714,0.689-1.287,0.689c-0.619,0-1.114-0.236-1.486-0.711
	s-0.558-1.111-0.558-1.912c0-0.688,0.171-1.258,0.515-1.709c0.342-0.451,0.818-0.678,1.428-0.678c0.319,0,0.59,0.068,0.813,0.203
	c0.223,0.131,0.432,0.338,0.625,0.619v-0.672h0.742v4.289c0,0.881-0.185,1.496-0.554,1.846c-0.369,0.346-0.905,0.518-1.608,0.518
	c-0.498,0-0.908-0.107-1.23-0.32C431.849,169.777,431.652,169.416,431.579,168.908z M432.256,165.933
	c0,0.592,0.111,1.055,0.334,1.389c0.226,0.334,0.536,0.502,0.932,0.502c0.407,0,0.722-0.152,0.945-0.453
	c0.225-0.303,0.338-0.725,0.338-1.27c0-1.26-0.436-1.891-1.305-1.891C432.67,164.21,432.256,164.785,432.256,165.933z"/>
<path d="M436.207,163.662h0.865l0.879,3.734l0.928-3.734h0.879l0.953,3.734l0.928-3.734h0.791l-1.336,4.711h-0.817l-0.989-3.66
	l-0.927,3.66h-0.817L436.207,163.662z"/>
<path d="M443.19,161.912h0.791v0.906h-0.791V161.912z M443.19,163.662h0.791v4.711h-0.791V163.662z"/>
<path d="M445.635,166.904c0.022,0.613,0.429,0.92,1.217,0.92c0.343,0,0.612-0.066,0.809-0.199c0.199-0.135,0.299-0.32,0.299-0.557
	c0-0.17-0.066-0.305-0.197-0.404c-0.133-0.092-0.379-0.182-0.738-0.273l-0.924-0.229c-0.729-0.176-1.094-0.564-1.094-1.164
	c0-0.432,0.155-0.785,0.466-1.064c0.313-0.281,0.761-0.422,1.341-0.422c0.506,0,0.919,0.123,1.238,0.365
	c0.319,0.244,0.498,0.613,0.537,1.111h-0.778c-0.038-0.518-0.395-0.777-1.067-0.777c-0.64,0-0.959,0.225-0.959,0.672
	c0,0.197,0.075,0.334,0.225,0.414c0.149,0.076,0.358,0.146,0.629,0.211l0.781,0.197c0.478,0.123,0.816,0.277,1.016,0.461
	c0.202,0.193,0.303,0.457,0.303,0.791c0,0.463-0.165,0.84-0.496,1.131c-0.328,0.289-0.805,0.434-1.428,0.434
	c-0.578,0-1.041-0.121-1.389-0.363c-0.35-0.244-0.538-0.662-0.567-1.254H445.635z"/>
<path d="M450.262,166.263c0,0.492,0.111,0.875,0.334,1.15c0.226,0.273,0.563,0.41,1.011,0.41c0.319-0.004,0.598-0.094,0.835-0.273
	c0.24-0.182,0.383-0.396,0.426-0.646h0.778c-0.103,0.496-0.325,0.891-0.668,1.184c-0.343,0.289-0.793,0.434-1.349,0.434
	c-0.663,0-1.193-0.207-1.592-0.623c-0.395-0.416-0.593-1.018-0.593-1.803c0-0.758,0.193-1.377,0.58-1.857
	c0.39-0.484,0.935-0.727,1.635-0.727c0.659,0,1.16,0.229,1.503,0.682c0.346,0.451,0.527,1.141,0.545,2.07H450.262z M450.262,165.638
	h2.628c-0.056-0.523-0.19-0.893-0.404-1.107c-0.214-0.213-0.504-0.32-0.87-0.32c-0.387,0-0.703,0.133-0.949,0.396
	C450.42,164.867,450.285,165.21,450.262,165.638z"/>
<path d="M457.641,166.904c0.022,0.613,0.429,0.92,1.217,0.92c0.343,0,0.612-0.066,0.809-0.199c0.199-0.135,0.299-0.32,0.299-0.557
	c0-0.17-0.066-0.305-0.197-0.404c-0.133-0.092-0.379-0.182-0.738-0.273l-0.924-0.229c-0.729-0.176-1.094-0.564-1.094-1.164
	c0-0.432,0.155-0.785,0.466-1.064c0.313-0.281,0.761-0.422,1.341-0.422c0.506,0,0.919,0.123,1.238,0.365
	c0.319,0.244,0.498,0.613,0.537,1.111h-0.778c-0.038-0.518-0.395-0.777-1.067-0.777c-0.64,0-0.959,0.225-0.959,0.672
	c0,0.197,0.075,0.334,0.225,0.414c0.149,0.076,0.358,0.146,0.629,0.211l0.781,0.197c0.478,0.123,0.816,0.277,1.016,0.461
	c0.202,0.193,0.303,0.457,0.303,0.791c0,0.463-0.165,0.84-0.496,1.131c-0.328,0.289-0.805,0.434-1.428,0.434
	c-0.578,0-1.041-0.121-1.389-0.363c-0.35-0.244-0.538-0.662-0.567-1.254H457.641z"/>
<path d="M462.268,166.263c0,0.492,0.111,0.875,0.334,1.15c0.226,0.273,0.563,0.41,1.011,0.41c0.319-0.004,0.598-0.094,0.835-0.273
	c0.24-0.182,0.383-0.396,0.426-0.646h0.778c-0.103,0.496-0.325,0.891-0.668,1.184c-0.343,0.289-0.793,0.434-1.349,0.434
	c-0.663,0-1.193-0.207-1.592-0.623c-0.395-0.416-0.593-1.018-0.593-1.803c0-0.758,0.193-1.377,0.58-1.857
	c0.39-0.484,0.935-0.727,1.635-0.727c0.659,0,1.16,0.229,1.503,0.682c0.346,0.451,0.527,1.141,0.545,2.07H462.268z M462.268,165.638
	h2.628c-0.056-0.523-0.19-0.893-0.404-1.107c-0.214-0.213-0.504-0.32-0.87-0.32c-0.387,0-0.703,0.133-0.949,0.396
	C462.426,164.867,462.291,165.21,462.268,165.638z"/>
<path d="M466.223,164.32v-0.658h0.643v-1.336h0.791v1.336h0.773v0.658h-0.773v3.059c0,0.252,0.159,0.379,0.479,0.379h0.277v0.629
	c-0.297,0.039-0.518,0.061-0.664,0.061c-0.589,0-0.883-0.338-0.883-1.016v-3.111H466.223z"/>
<path d="M4.551,167.437l1.871-5.533h0.984l-2.391,6.469H4.089l-2.391-6.469h0.967L4.551,167.437z"/>
<path d="M8.097,161.912h0.791v0.906H8.097V161.912z M8.097,163.662h0.791v4.711H8.097V163.662z"/>
<path d="M10.097,168.373v-6.469h0.791v3.744l2.021-1.986h1.002l-1.793,1.748l1.903,2.963h-1.016l-1.459-2.391l-0.659,0.682v1.709
	H10.097z"/>
<path d="M14.117,164.32v-0.658h0.643v-1.336h0.791v1.336h0.773v0.658h-0.773v3.059c0,0.252,0.159,0.379,0.479,0.379h0.277v0.629
	c-0.297,0.039-0.518,0.061-0.664,0.061c-0.589,0-0.883-0.338-0.883-1.016v-3.111H14.117z"/>
<path d="M16.798,166.035c0-0.748,0.2-1.354,0.603-1.82c0.4-0.469,0.934-0.703,1.6-0.703c0.641,0,1.168,0.229,1.582,0.682
	c0.412,0.455,0.619,1.063,0.619,1.824c0,0.717-0.199,1.314-0.598,1.793c-0.398,0.475-0.928,0.711-1.586,0.711
	c-0.648,0-1.18-0.229-1.596-0.686C17.006,167.376,16.798,166.775,16.798,166.035z M17.615,166.017c0,0.512,0.119,0.941,0.355,1.287
	c0.24,0.346,0.583,0.52,1.029,0.52c0.387,0,0.713-0.152,0.979-0.453c0.27-0.305,0.404-0.756,0.404-1.354
	c0-0.514-0.117-0.941-0.352-1.287s-0.579-0.52-1.032-0.52c-0.411,0-0.745,0.156-1.002,0.467
	C17.742,164.988,17.615,165.433,17.615,166.017z"/>
<path d="M22.19,168.373v-4.711h0.743v0.787c0.216-0.361,0.426-0.607,0.628-0.738c0.205-0.133,0.438-0.199,0.698-0.199
	c0.053,0,0.119,0.012,0.198,0.031v0.813h-0.299c-0.349,0-0.633,0.125-0.853,0.375c-0.217,0.248-0.325,0.547-0.325,0.896v2.746H22.19
	z"/>
<path d="M27.676,161.904h0.874v5.703h3.305v0.766h-4.179V161.904z"/>
<path d="M33.178,166.263c0,0.492,0.111,0.875,0.334,1.15c0.226,0.273,0.563,0.41,1.011,0.41c0.319-0.004,0.598-0.094,0.835-0.273
	c0.24-0.182,0.383-0.396,0.426-0.646h0.778c-0.103,0.496-0.325,0.891-0.668,1.184c-0.343,0.289-0.793,0.434-1.349,0.434
	c-0.663,0-1.193-0.207-1.592-0.623c-0.395-0.416-0.593-1.018-0.593-1.803c0-0.758,0.193-1.377,0.58-1.857
	c0.39-0.484,0.935-0.727,1.635-0.727c0.659,0,1.16,0.229,1.503,0.682c0.346,0.451,0.527,1.141,0.545,2.07H33.178z M33.178,165.638
	h2.628c-0.056-0.523-0.19-0.893-0.404-1.107c-0.214-0.213-0.504-0.32-0.87-0.32c-0.387,0-0.703,0.133-0.949,0.396
	C33.336,164.867,33.201,165.21,33.178,165.638z"/>
<path d="M37.586,161.904h0.791v2.381c0.354-0.516,0.835-0.773,1.441-0.773c0.504,0,0.894,0.15,1.169,0.449
	c0.275,0.295,0.413,0.697,0.413,1.203v3.209h-0.791v-3.107c0-0.389-0.076-0.662-0.229-0.816c-0.152-0.158-0.384-0.238-0.694-0.238
	c-0.413,0-0.735,0.133-0.967,0.4c-0.229,0.264-0.343,0.656-0.343,1.178v2.584h-0.791V161.904z"/>
<path d="M42.592,163.662h0.742v0.693c0.401-0.563,0.881-0.844,1.438-0.844c0.548,0,0.958,0.258,1.23,0.773
	c0.39-0.516,0.853-0.773,1.389-0.773c0.434,0,0.788,0.139,1.063,0.414s0.413,0.67,0.413,1.182v3.266h-0.791V165.3
	c0-0.727-0.277-1.09-0.83-1.09c-0.294,0-0.555,0.115-0.783,0.344c-0.226,0.225-0.338,0.533-0.338,0.926v2.893h-0.791v-3.283
	c0-0.586-0.245-0.879-0.734-0.879c-0.354,0-0.646,0.135-0.874,0.404s-0.343,0.66-0.343,1.174v2.584h-0.791V163.662z"/>
<path d="M50.066,165.058c0.023-1.031,0.655-1.547,1.895-1.547c0.521,0,0.947,0.115,1.279,0.344c0.334,0.229,0.5,0.555,0.5,0.98
	v2.742c0,0.111,0.021,0.186,0.063,0.223c0.04,0.039,0.104,0.059,0.188,0.059c0.053,0,0.142-0.014,0.269-0.041v0.576
	c-0.193,0.059-0.347,0.088-0.457,0.088c-0.276,0-0.475-0.061-0.598-0.184c-0.121-0.123-0.189-0.305-0.207-0.545
	c-0.448,0.512-1.005,0.768-1.67,0.768c-0.396,0-0.744-0.115-1.046-0.346c-0.302-0.234-0.452-0.584-0.452-1.047
	c0-0.846,0.473-1.332,1.419-1.455l1.235-0.162c0.187-0.023,0.313-0.078,0.377-0.166c0.067-0.088,0.102-0.223,0.102-0.4
	c0-0.516-0.359-0.773-1.076-0.773c-0.369,0-0.632,0.074-0.787,0.225c-0.155,0.148-0.257,0.369-0.303,0.662H50.066z M52.949,165.968
	c-0.12,0.094-0.366,0.168-0.738,0.225c-0.372,0.053-0.561,0.078-0.566,0.078c-0.665,0.092-0.998,0.355-0.998,0.791
	c0,0.533,0.284,0.801,0.854,0.801c0.374,0,0.71-0.105,1.006-0.316s0.443-0.479,0.443-0.801V165.968z"/>
<path d="M55.094,168.373v-4.711h0.742v0.693c0.396-0.563,0.893-0.844,1.49-0.844c0.504,0,0.894,0.15,1.169,0.449
	c0.275,0.295,0.413,0.697,0.413,1.203v3.209h-0.791v-2.928c0-0.475-0.084-0.797-0.25-0.971c-0.165-0.176-0.409-0.264-0.734-0.264
	c-0.369,0-0.67,0.139-0.9,0.414c-0.232,0.275-0.348,0.662-0.348,1.164v2.584H55.094z"/>
<path d="M60.1,168.373v-4.711h0.742v0.693c0.396-0.563,0.893-0.844,1.49-0.844c0.504,0,0.894,0.15,1.169,0.449
	c0.275,0.295,0.413,0.697,0.413,1.203v3.209h-0.791v-2.928c0-0.475-0.084-0.797-0.25-0.971c-0.165-0.176-0.409-0.264-0.734-0.264
	c-0.369,0-0.67,0.139-0.9,0.414c-0.232,0.275-0.348,0.662-0.348,1.164v2.584H60.1z"/>
<path d="M65.316,169.291c0.311-0.047,0.471-0.354,0.479-0.918h-0.479v-0.984h0.94v0.896c0,0.82-0.313,1.295-0.94,1.424V169.291z"/>
<path d="M70.193,166.83c0.243-0.371,0.576-0.68,0.998-0.922l1.287-0.766c0.293-0.172,0.499-0.352,0.619-0.535
	c0.12-0.188,0.181-0.416,0.181-0.682c0-0.367-0.116-0.656-0.347-0.871c-0.229-0.213-0.54-0.32-0.932-0.32
	c-0.439,0-0.76,0.131-0.959,0.391c-0.196,0.258-0.309,0.641-0.338,1.148h-0.777c0-0.674,0.177-1.219,0.531-1.631
	c0.354-0.414,0.897-0.619,1.631-0.619c0.591,0,1.077,0.17,1.459,0.514c0.383,0.34,0.575,0.805,0.575,1.393
	c0,0.396-0.091,0.734-0.272,1.016c-0.182,0.277-0.461,0.523-0.84,0.734l-1.072,0.623c-0.377,0.223-0.665,0.432-0.861,0.625
	c-0.193,0.189-0.334,0.424-0.422,0.703h3.468v0.742h-4.359C69.807,167.712,69.95,167.199,70.193,166.83z"/>
<path d="M74.865,165.304c0-1.008,0.185-1.805,0.554-2.395c0.372-0.592,0.92-0.887,1.644-0.887c0.662,0,1.188,0.271,1.578,0.816
	c0.389,0.543,0.584,1.346,0.584,2.412c0,1.02-0.184,1.822-0.549,2.408c-0.367,0.584-0.91,0.875-1.631,0.875
	c-0.665,0-1.195-0.271-1.591-0.813C75.062,167.179,74.865,166.375,74.865,165.304z M75.709,165.279c0,1.695,0.442,2.545,1.327,2.545
	c0.896,0,1.345-0.85,1.345-2.545c0-1.697-0.445-2.545-1.336-2.545S75.709,163.582,75.709,165.279z"/>
<path d="M80.205,166.83c0.243-0.371,0.576-0.68,0.998-0.922l1.287-0.766c0.293-0.172,0.499-0.352,0.619-0.535
	c0.12-0.188,0.181-0.416,0.181-0.682c0-0.367-0.116-0.656-0.347-0.871c-0.229-0.213-0.54-0.32-0.932-0.32
	c-0.439,0-0.76,0.131-0.959,0.391c-0.196,0.258-0.309,0.641-0.338,1.148h-0.777c0-0.674,0.177-1.219,0.531-1.631
	c0.354-0.414,0.897-0.619,1.631-0.619c0.591,0,1.077,0.17,1.459,0.514c0.383,0.34,0.575,0.805,0.575,1.393
	c0,0.396-0.091,0.734-0.272,1.016c-0.182,0.277-0.461,0.523-0.84,0.734l-1.072,0.623c-0.377,0.223-0.665,0.432-0.861,0.625
	c-0.193,0.189-0.334,0.424-0.422,0.703h3.468v0.742h-4.359C79.818,167.712,79.962,167.199,80.205,166.83z"/>
<path d="M84.877,165.304c0-1.008,0.185-1.805,0.554-2.395c0.372-0.592,0.92-0.887,1.644-0.887c0.662,0,1.188,0.271,1.578,0.816
	c0.389,0.543,0.584,1.346,0.584,2.412c0,1.02-0.184,1.822-0.549,2.408c-0.367,0.584-0.91,0.875-1.631,0.875
	c-0.665,0-1.195-0.271-1.591-0.813C85.073,167.179,84.877,166.375,84.877,165.304z M85.721,165.279c0,1.695,0.442,2.545,1.327,2.545
	c0.896,0,1.345-0.85,1.345-2.545c0-1.697-0.445-2.545-1.336-2.545S85.721,163.582,85.721,165.279z"/>
<rect x="200.134" y="26.103" width="1.102" height="65.377"/>
<path d="M358.083,102.685l1.934-5.391h1.292l1.934,5.391h-1.224l-0.348-1.124h-2.021l-0.381,1.124H358.083z M359.961,100.616h1.377
	l-0.677-2.099L359.961,100.616z"/>
<path d="M363.917,97.294h1.116v4.445h2.695v0.945h-3.812V97.294z"/>
<path d="M368.497,97.294h1.117v4.445h2.695v0.945h-3.813V97.294z"/>
<path d="M88.117,92.14h-0.553v-0.623h0.553V92.14z M88.117,90.1h-0.553v-1.417h0.553V90.1z M88.117,87.266h-0.553v-1.417h0.553
	V87.266z M88.117,84.431h-0.553v-1.417h0.553V84.431z M88.117,81.596h-0.553v-1.417h0.553V81.596z M88.117,78.762h-0.553v-1.417
	h0.553V78.762z M88.117,75.927h-0.553V74.51h0.553V75.927z M88.117,73.092h-0.553v-1.417h0.553V73.092z M88.117,70.258h-0.553V68.84
	h0.553V70.258z M88.117,67.423h-0.553v-1.417h0.553V67.423z M88.117,64.588h-0.553v-1.417h0.553V64.588z M88.117,61.754h-0.553
	v-1.417h0.553V61.754z M88.117,58.919h-0.553v-1.417h0.553V58.919z M88.117,56.084h-0.553v-1.417h0.553V56.084z M88.117,53.25
	h-0.553v-1.417h0.553V53.25z M88.117,50.415h-0.553v-1.417h0.553V50.415z M88.117,47.581h-0.553v-1.417h0.553V47.581z
	 M88.117,44.746h-0.553v-1.417h0.553V44.746z M88.117,41.911h-0.553v-1.417h0.553V41.911z M88.117,39.077h-0.553v-1.417h0.553
	V39.077z M88.117,36.242h-0.553v-1.417h0.553V36.242z M88.117,33.407h-0.553V31.99h0.553V33.407z M88.117,30.573h-0.553v-1.417
	h0.553V30.573z M88.117,27.738h-0.553v-1.417h0.553V27.738z"/>
<path d="M142.408,50.031c0.067,1.261,0.891,1.891,2.469,1.891c1.521,0,2.281-0.487,2.281-1.461c0-0.62-0.534-1.06-1.602-1.32
	l-2.82-0.719c-0.864-0.208-1.5-0.56-1.906-1.055s-0.609-1.153-0.609-1.977c0-1.052,0.378-1.911,1.133-2.578s1.847-1,3.273-1
	c1.313,0,2.364,0.32,3.156,0.961s1.229,1.57,1.313,2.789h-2.313c-0.172-1.177-0.938-1.766-2.297-1.766
	c-0.62,0-1.114,0.12-1.484,0.359c-0.364,0.239-0.547,0.567-0.547,0.984c0,0.302,0.094,0.555,0.281,0.758
	c0.192,0.203,0.5,0.356,0.922,0.461l2.797,0.688c1.151,0.276,1.94,0.664,2.367,1.164c0.433,0.5,0.648,1.153,0.648,1.961
	c0,1.109-0.396,2.011-1.188,2.703c-0.786,0.688-1.93,1.031-3.43,1.031c-1.401,0-2.544-0.328-3.43-0.984
	c-0.886-0.661-1.328-1.625-1.328-2.891H142.408z"/>
<path d="M141.604,59.822c-0.168-0.203-0.361-0.465-0.58-0.785c-0.215-0.324-0.322-0.691-0.322-1.102c0-0.566,0.182-1.033,0.545-1.4
	c0.367-0.367,0.859-0.551,1.477-0.551c0.555,0,1.01,0.16,1.365,0.48c0.359,0.32,0.539,0.76,0.539,1.318
	c0,0.477-0.121,0.883-0.363,1.219c-0.238,0.336-0.617,0.678-1.137,1.025l1.605,1.875c0.148-0.348,0.258-0.793,0.328-1.336h1.002
	c-0.082,0.719-0.314,1.451-0.697,2.197l1.541,1.846h-1.365l-0.814-0.943c-0.324,0.379-0.686,0.668-1.084,0.867
	s-0.881,0.299-1.447,0.299c-0.766,0-1.379-0.207-1.84-0.621c-0.461-0.418-0.691-1.014-0.691-1.787c0-0.547,0.139-1.008,0.416-1.383
	C140.362,60.662,140.87,60.256,141.604,59.822z M142.196,60.549c-0.555,0.352-0.939,0.662-1.154,0.932s-0.322,0.596-0.322,0.979
	c0,0.398,0.148,0.742,0.445,1.031c0.301,0.289,0.707,0.434,1.219,0.434c0.336,0,0.658-0.074,0.967-0.223
	c0.313-0.148,0.588-0.396,0.826-0.744L142.196,60.549z M142.554,59.336c0.426-0.305,0.707-0.566,0.844-0.785
	c0.141-0.219,0.211-0.459,0.211-0.721c0-0.254-0.074-0.473-0.223-0.656c-0.148-0.188-0.383-0.281-0.703-0.281
	c-0.301,0-0.537,0.082-0.709,0.246c-0.168,0.164-0.252,0.391-0.252,0.68C141.722,58.24,141.999,58.746,142.554,59.336z"/>
<path d="M132.376,66.984h1.166v7.605h4.406v1.02h-5.572V66.984z"/>
<path d="M139.231,66.984h1.166v8.625h-1.166V66.984z"/>
<path d="M142.384,66.984h1.383l4.336,7.008v-7.008h1.131v8.625h-1.313l-4.406-7.008v7.008h-1.131V66.984z"/>
<path d="M151.05,75.609v-8.625h1.166v4.178l4.213-4.178h1.6l-3.574,3.439l3.668,5.186h-1.512l-3.012-4.313l-1.383,1.283v3.029
	H151.05z"/>
<path d="M294.117,91.89h-0.553v-0.623h0.553V91.89z M294.117,89.85h-0.553v-1.417h0.553V89.85z M294.117,87.016h-0.553v-1.417h0.553
	V87.016z M294.117,84.181h-0.553v-1.417h0.553V84.181z M294.117,81.346h-0.553v-1.417h0.553V81.346z M294.117,78.512h-0.553v-1.417
	h0.553V78.512z M294.117,75.677h-0.553V74.26h0.553V75.677z M294.117,72.842h-0.553v-1.417h0.553V72.842z M294.117,70.008h-0.553
	V68.59h0.553V70.008z M294.117,67.173h-0.553v-1.417h0.553V67.173z M294.117,64.338h-0.553v-1.417h0.553V64.338z M294.117,61.504
	h-0.553v-1.417h0.553V61.504z M294.117,58.669h-0.553v-1.417h0.553V58.669z M294.117,55.834h-0.553v-1.417h0.553V55.834z
	 M294.117,53h-0.553v-1.417h0.553V53z M294.117,50.165h-0.553v-1.417h0.553V50.165z M294.117,47.331h-0.553v-1.417h0.553V47.331z
	 M294.117,44.496h-0.553v-1.417h0.553V44.496z M294.117,41.661h-0.553v-1.417h0.553V41.661z M294.117,38.827h-0.553v-1.417h0.553
	V38.827z M294.117,35.992h-0.553v-1.417h0.553V35.992z M294.117,33.157h-0.553V31.74h0.553V33.157z M294.117,30.323h-0.553v-1.417
	h0.553V30.323z M294.117,27.488h-0.553v-1.417h0.553V27.488z"/>
<rect x="0.567" y="91.163" width="468.04" height="1.135"/>
<circle fill="#FFFFFF" cx="331.35" cy="63.736" r="6.696"/>
<path d="M331.35,70.716c-3.848,0-6.979-3.131-6.979-6.98c0-3.848,3.131-6.979,6.979-6.979c3.849,0,6.979,3.131,6.979,6.979
	C338.329,67.584,335.198,70.716,331.35,70.716z M331.35,57.323c-3.535,0-6.412,2.876-6.412,6.412c0,3.536,2.877,6.413,6.412,6.413
	c3.536,0,6.413-2.877,6.413-6.413C337.763,60.2,334.886,57.323,331.35,57.323z"/>
<circle fill="#FFFFFF" cx="321.888" cy="54.272" r="6.696"/>
<path d="M321.888,61.252c-3.849,0-6.979-3.131-6.979-6.979c0-3.849,3.131-6.98,6.979-6.98s6.979,3.131,6.979,6.98
	C328.867,58.121,325.736,61.252,321.888,61.252z M321.888,47.86c-3.536,0-6.413,2.876-6.413,6.413c0,3.536,2.877,6.412,6.413,6.412
	s6.413-2.876,6.413-6.412C328.301,50.737,325.424,47.86,321.888,47.86z"/>
<circle fill="#FFFFFF" cx="340.813" cy="73.199" r="6.696"/>
<path d="M340.813,80.179c-3.849,0-6.979-3.131-6.979-6.98c0-3.848,3.131-6.979,6.979-6.979s6.979,3.131,6.979,6.979
	C347.793,77.047,344.662,80.179,340.813,80.179z M340.813,66.787c-3.536,0-6.413,2.876-6.413,6.412c0,3.536,2.877,6.413,6.413,6.413
	s6.413-2.876,6.413-6.413C347.227,69.663,344.35,66.787,340.813,66.787z"/>
<rect x="308.623" y="63.452" transform="matrix(0.7071 0.7071 -0.7071 0.7071 142.1139 -215.6289)" width="45.453" height="0.567"/>
<circle fill="#FFFFFF" cx="41.851" cy="66.737" r="6.696"/>
<path d="M41.85,73.716c-3.848,0-6.979-3.131-6.979-6.979c0-3.849,3.131-6.98,6.979-6.98c3.849,0,6.98,3.131,6.98,6.98
	C48.831,70.585,45.699,73.716,41.85,73.716z M41.85,60.324c-3.536,0-6.412,2.876-6.412,6.413c0,3.536,2.876,6.412,6.412,6.412
	c3.536,0,6.413-2.876,6.413-6.412C48.263,63.201,45.386,60.324,41.85,60.324z"/>
<circle fill="#FFFFFF" cx="32.387" cy="76.199" r="6.696"/>
<path d="M32.388,83.179c-3.849,0-6.98-3.131-6.98-6.98s3.131-6.98,6.98-6.98c3.848,0,6.979,3.131,6.979,6.98
	S36.236,83.179,32.388,83.179z M32.388,69.786c-3.536,0-6.413,2.876-6.413,6.413s2.876,6.413,6.413,6.413
	c3.536,0,6.412-2.876,6.412-6.413S35.923,69.786,32.388,69.786z"/>
<circle fill="#FFFFFF" cx="51.314" cy="57.273" r="6.696"/>
<path d="M51.313,64.253c-3.848,0-6.979-3.131-6.979-6.98s3.131-6.98,6.979-6.98c3.849,0,6.98,3.131,6.98,6.98
	S55.162,64.253,51.313,64.253z M51.313,50.86c-3.536,0-6.412,2.876-6.412,6.413s2.876,6.413,6.412,6.413
	c3.536,0,6.413-2.876,6.413-6.413S54.85,50.86,51.313,50.86z"/>
<rect x="41.567" y="44.01" transform="matrix(0.708 0.7062 -0.7062 0.708 59.3543 -10.0675)" width="0.567" height="45.453"/>
<path d="M330.864,37.258c0.221-0.357,0.648-0.768,1.281-1.234c0.523-0.383,0.852-0.673,0.982-0.869
	c0.133-0.196,0.199-0.398,0.199-0.607c0-0.233-0.068-0.431-0.203-0.595c-0.131-0.167-0.332-0.25-0.598-0.25
	c-0.291,0-0.496,0.091-0.611,0.274c-0.117,0.183-0.176,0.451-0.176,0.805h-1.139v-0.167c0-0.502,0.158-0.939,0.473-1.309
	c0.318-0.37,0.789-0.556,1.416-0.556c0.551,0,1.018,0.156,1.4,0.468c0.385,0.31,0.576,0.754,0.576,1.333
	c0,0.394-0.096,0.738-0.285,1.032c-0.189,0.291-0.561,0.629-1.119,1.016c-0.611,0.423-0.975,0.726-1.092,0.908h2.496v1.012h-3.936
	C330.53,38.036,330.642,37.616,330.864,37.258z"/>
<path d="M33.738,42.638c-2.435,0-4.416-1.98-4.416-4.415c0-2.433,1.981-4.413,4.416-4.413c2.434,0,4.414,1.98,4.414,4.413
	C38.152,40.657,36.172,42.638,33.738,42.638z M33.738,34.274c-2.179,0-3.951,1.771-3.951,3.948c0,2.178,1.772,3.95,3.951,3.95
	c2.178,0,3.949-1.772,3.949-3.95C37.687,36.045,35.916,34.274,33.738,34.274z"/>
<path d="M32.188,36.105c0.525,0,0.895-0.087,1.11-0.26c0.214-0.173,0.335-0.388,0.362-0.645h0.868v5.325h-1.051v-3.684h-1.289
	V36.105z"/>
<rect x="48.387" y="33.875" fill="#FFFFFF" width="8.125" height="8.126"/>
<path d="M56.737,42.227h-8.576v-8.578h8.576V42.227z M48.612,41.776h7.674v-7.675h-7.674V41.776z"/>
<path d="M51.24,39.151c0.021,0.661,0.299,0.992,0.833,0.992c0.257,0,0.465-0.079,0.623-0.238c0.159-0.159,0.238-0.385,0.238-0.679
	c0-0.286-0.102-0.493-0.306-0.623c-0.201-0.132-0.535-0.199-1.004-0.199v-0.809h0.183c0.632,0,0.948-0.251,0.948-0.754
	c0-0.225-0.066-0.407-0.198-0.547c-0.132-0.143-0.316-0.214-0.552-0.214c-0.519,0-0.78,0.31-0.785,0.928h-1.031
	c0-0.568,0.162-1.017,0.487-1.345c0.328-0.331,0.791-0.496,1.389-0.496c0.548,0,0.992,0.141,1.333,0.421
	c0.342,0.28,0.512,0.667,0.512,1.158c0,0.516-0.236,0.894-0.71,1.135c0.593,0.243,0.889,0.69,0.889,1.341
	c0,0.537-0.183,0.978-0.547,1.321c-0.363,0.341-0.85,0.512-1.46,0.512c-0.641,0-1.123-0.162-1.448-0.484
	c-0.325-0.326-0.503-0.799-0.532-1.42H51.24z"/>
<path d="M120.391,62.561h-8.576v-8.578h8.576V62.561z M112.266,62.11h7.674v-7.675h-7.674V62.11z"/>
<path d="M114.088,60.009c0.222-0.357,0.648-0.768,1.281-1.234c0.523-0.383,0.852-0.673,0.983-0.869
	c0.133-0.196,0.198-0.398,0.198-0.607c0-0.233-0.067-0.431-0.202-0.595c-0.132-0.167-0.332-0.25-0.599-0.25
	c-0.291,0-0.495,0.091-0.611,0.274s-0.175,0.451-0.175,0.805h-1.139v-0.167c0-0.502,0.158-0.939,0.473-1.309
	c0.317-0.37,0.789-0.556,1.416-0.556c0.55,0,1.018,0.156,1.4,0.468c0.384,0.31,0.575,0.754,0.575,1.333
	c0,0.394-0.095,0.738-0.285,1.032c-0.188,0.291-0.561,0.629-1.119,1.016c-0.61,0.423-0.975,0.726-1.091,0.908h2.495v1.012h-3.936
	C113.754,60.787,113.866,60.366,114.088,60.009z"/>
<path d="M170.649,48.639c-2.435,0-4.416-1.98-4.416-4.415c0-2.433,1.981-4.413,4.416-4.413c2.434,0,4.414,1.98,4.414,4.413
	C175.063,46.658,173.083,48.639,170.649,48.639z M170.649,40.275c-2.179,0-3.951,1.771-3.951,3.948c0,2.178,1.772,3.95,3.951,3.95
	c2.178,0,3.949-1.772,3.949-3.95C174.599,42.046,172.827,40.275,170.649,40.275z"/>
<path d="M169.1,42.106c0.525,0,0.895-0.087,1.11-0.26c0.214-0.173,0.335-0.388,0.362-0.645h0.868v5.325h-1.051v-3.684H169.1V42.106z
	"/>
<path fill="#FFFFFF" d="M174.831,58.39c0,2.31-1.875,4.183-4.182,4.183c-2.311,0-4.184-1.873-4.184-4.183
	c0-2.308,1.873-4.181,4.184-4.181C172.956,54.209,174.831,56.082,174.831,58.39L174.831,58.39z"/>
<path d="M170.649,62.805c-2.435,0-4.416-1.98-4.416-4.415c0-2.433,1.981-4.413,4.416-4.413c2.434,0,4.414,1.98,4.414,4.413
	C175.063,60.824,173.083,62.805,170.649,62.805z M170.649,54.441c-2.179,0-3.951,1.771-3.951,3.948c0,2.178,1.772,3.95,3.951,3.95
	c2.178,0,3.949-1.772,3.949-3.95C174.599,56.212,172.827,54.441,170.649,54.441z"/>
<path d="M169.136,59.528c0.205-0.33,0.599-0.709,1.183-1.139c0.483-0.354,0.786-0.621,0.908-0.802s0.184-0.367,0.184-0.561
	c0-0.214-0.063-0.397-0.187-0.549c-0.122-0.154-0.307-0.231-0.553-0.231c-0.269,0-0.457,0.084-0.563,0.252
	c-0.108,0.169-0.161,0.417-0.161,0.744h-1.051v-0.154c0-0.464,0.145-0.867,0.436-1.208c0.293-0.342,0.729-0.513,1.307-0.513
	c0.508,0,0.938,0.144,1.292,0.432c0.354,0.286,0.531,0.696,0.531,1.23c0,0.364-0.088,0.681-0.264,0.952
	c-0.173,0.269-0.518,0.581-1.033,0.938c-0.564,0.391-0.9,0.67-1.007,0.839h2.304v0.934h-3.633
	C168.828,60.246,168.931,59.857,169.136,59.528z"/>
<path d="M120.695,48.635h-8.828v-8.825h8.828V48.635z M112.332,48.17h7.898v-7.895h-7.898V48.17z"/>
<path d="M114.605,42.189c0.525,0,0.895-0.087,1.11-0.26c0.214-0.173,0.335-0.388,0.362-0.645h0.868v5.325h-1.051v-3.684h-1.289
	V42.189z"/>
<rect x="112.04" y="68.375" fill="#FFFFFF" width="8.125" height="8.126"/>
<path d="M120.391,76.727h-8.576v-8.578h8.576V76.727z M112.266,76.276h7.674v-7.675h-7.674V76.276z"/>
<path d="M114.893,73.651c0.021,0.661,0.299,0.992,0.833,0.992c0.257,0,0.465-0.079,0.623-0.238c0.159-0.159,0.238-0.385,0.238-0.679
	c0-0.286-0.102-0.493-0.306-0.623c-0.201-0.132-0.535-0.199-1.004-0.199v-0.809h0.183c0.632,0,0.948-0.251,0.948-0.754
	c0-0.225-0.066-0.407-0.198-0.547c-0.132-0.143-0.316-0.214-0.552-0.214c-0.519,0-0.78,0.31-0.785,0.928h-1.031
	c0-0.568,0.162-1.017,0.487-1.345c0.328-0.331,0.791-0.496,1.389-0.496c0.548,0,0.992,0.141,1.333,0.421
	c0.342,0.28,0.512,0.667,0.512,1.158c0,0.516-0.236,0.894-0.71,1.135c0.593,0.243,0.889,0.69,0.889,1.341
	c0,0.537-0.183,0.978-0.547,1.321c-0.363,0.341-0.85,0.512-1.46,0.512c-0.641,0-1.123-0.162-1.448-0.484
	c-0.325-0.326-0.503-0.799-0.532-1.42H114.893z"/>
<path fill="#FFFFFF" d="M174.831,72.556c0,2.31-1.875,4.183-4.182,4.183c-2.311,0-4.184-1.873-4.184-4.183
	c0-2.308,1.873-4.181,4.184-4.181C172.956,68.375,174.831,70.248,174.831,72.556L174.831,72.556z"/>
<path d="M170.649,76.971c-2.435,0-4.416-1.98-4.416-4.415c0-2.433,1.981-4.413,4.416-4.413c2.434,0,4.414,1.98,4.414,4.413
	C175.063,74.99,173.083,76.971,170.649,76.971z M170.649,68.607c-2.179,0-3.951,1.771-3.951,3.948c0,2.178,1.772,3.95,3.951,3.95
	c2.178,0,3.949-1.772,3.949-3.95C174.599,70.378,172.827,68.607,170.649,68.607z"/>
<path d="M169.879,73.21c0.02,0.61,0.276,0.916,0.77,0.916c0.236,0,0.428-0.073,0.575-0.22s0.22-0.355,0.22-0.626
	c0-0.264-0.094-0.456-0.282-0.575c-0.186-0.122-0.495-0.183-0.927-0.183v-0.747h0.168c0.583,0,0.875-0.232,0.875-0.696
	c0-0.208-0.062-0.376-0.184-0.505c-0.122-0.132-0.292-0.198-0.509-0.198c-0.479,0-0.72,0.286-0.725,0.857h-0.952
	c0-0.525,0.15-0.938,0.451-1.242c0.302-0.305,0.729-0.458,1.281-0.458c0.506,0,0.916,0.129,1.23,0.388
	c0.315,0.259,0.473,0.615,0.473,1.069c0,0.476-0.219,0.825-0.655,1.047c0.546,0.225,0.82,0.637,0.82,1.238
	c0,0.496-0.169,0.902-0.506,1.22c-0.334,0.314-0.783,0.472-1.348,0.472c-0.591,0-1.036-0.149-1.336-0.447
	c-0.3-0.3-0.464-0.737-0.491-1.311H169.879z"/>
<path d="M245.908,50.281c0.067,1.261,0.891,1.891,2.469,1.891c1.521,0,2.281-0.487,2.281-1.461c0-0.62-0.534-1.06-1.602-1.32
	l-2.82-0.719c-0.864-0.208-1.5-0.56-1.906-1.055s-0.609-1.153-0.609-1.977c0-1.052,0.378-1.911,1.133-2.578s1.847-1,3.273-1
	c1.313,0,2.364,0.32,3.156,0.961s1.229,1.57,1.313,2.789h-2.313c-0.172-1.177-0.938-1.766-2.297-1.766
	c-0.62,0-1.114,0.12-1.484,0.359c-0.364,0.239-0.547,0.567-0.547,0.984c0,0.302,0.094,0.555,0.281,0.758
	c0.192,0.203,0.5,0.356,0.922,0.461l2.797,0.688c1.151,0.276,1.94,0.664,2.367,1.164c0.433,0.5,0.648,1.153,0.648,1.961
	c0,1.109-0.396,2.011-1.188,2.703c-0.786,0.688-1.93,1.031-3.43,1.031c-1.401,0-2.544-0.328-3.43-0.984
	c-0.886-0.661-1.328-1.625-1.328-2.891H245.908z"/>
<path d="M245.104,60.072c-0.168-0.203-0.361-0.465-0.58-0.785c-0.215-0.324-0.322-0.691-0.322-1.102c0-0.566,0.182-1.033,0.545-1.4
	c0.367-0.367,0.859-0.551,1.477-0.551c0.555,0,1.01,0.16,1.365,0.48c0.359,0.32,0.539,0.76,0.539,1.318
	c0,0.477-0.121,0.883-0.363,1.219c-0.238,0.336-0.617,0.678-1.137,1.025l1.605,1.875c0.148-0.348,0.258-0.793,0.328-1.336h1.002
	c-0.082,0.719-0.314,1.451-0.697,2.197l1.541,1.846h-1.365l-0.814-0.943c-0.324,0.379-0.686,0.668-1.084,0.867
	s-0.881,0.299-1.447,0.299c-0.766,0-1.379-0.207-1.84-0.621c-0.461-0.418-0.691-1.014-0.691-1.787c0-0.547,0.139-1.008,0.416-1.383
	C243.862,60.912,244.37,60.506,245.104,60.072z M245.696,60.799c-0.555,0.352-0.939,0.662-1.154,0.932s-0.322,0.596-0.322,0.979
	c0,0.398,0.148,0.742,0.445,1.031c0.301,0.289,0.707,0.434,1.219,0.434c0.336,0,0.658-0.074,0.967-0.223
	c0.313-0.148,0.588-0.396,0.826-0.744L245.696,60.799z M246.054,59.586c0.426-0.305,0.707-0.566,0.844-0.785
	c0.141-0.219,0.211-0.459,0.211-0.721c0-0.254-0.074-0.473-0.223-0.656c-0.148-0.188-0.383-0.281-0.703-0.281
	c-0.301,0-0.537,0.082-0.709,0.246c-0.168,0.164-0.252,0.391-0.252,0.68C245.222,58.49,245.499,58.996,246.054,59.586z"/>
<path d="M235.876,67.234h1.166v7.605h4.406v1.02h-5.572V67.234z"/>
<path d="M242.731,67.234h1.166v8.625h-1.166V67.234z"/>
<path d="M245.884,67.234h1.383l4.336,7.008v-7.008h1.131v8.625h-1.313l-4.406-7.008v7.008h-1.131V67.234z"/>
<path d="M254.55,75.859v-8.625h1.166v4.178l4.213-4.178h1.6l-3.574,3.439l3.668,5.186h-1.512l-3.012-4.313l-1.383,1.283v3.029
	H254.55z"/>
<path d="M253.379,36.727h-8.576v-8.578h8.576V36.727z M245.254,36.276h7.674v-7.675h-7.674V36.276z"/>
<path d="M247.077,34.175c0.221-0.357,0.648-0.768,1.281-1.234c0.523-0.383,0.852-0.673,0.982-0.869
	c0.133-0.196,0.199-0.398,0.199-0.607c0-0.233-0.068-0.431-0.203-0.595c-0.131-0.167-0.332-0.25-0.598-0.25
	c-0.291,0-0.496,0.091-0.611,0.274c-0.117,0.183-0.176,0.451-0.176,0.805h-1.139v-0.167c0-0.502,0.158-0.939,0.473-1.309
	c0.318-0.37,0.789-0.556,1.416-0.556c0.551,0,1.018,0.156,1.4,0.468c0.385,0.31,0.576,0.754,0.576,1.333
	c0,0.394-0.096,0.738-0.285,1.032c-0.189,0.291-0.561,0.629-1.119,1.016c-0.611,0.423-0.975,0.726-1.092,0.908h2.496v1.012h-3.936
	C246.743,34.953,246.854,34.532,247.077,34.175z"/>
<path d="M266.648,88.139c-2.435,0-4.416-1.98-4.416-4.415c0-2.433,1.981-4.413,4.416-4.413c2.434,0,4.414,1.98,4.414,4.413
	C271.063,86.158,269.082,88.139,266.648,88.139z M266.648,79.775c-2.179,0-3.951,1.771-3.951,3.948c0,2.178,1.772,3.95,3.951,3.95
	c2.178,0,3.949-1.772,3.949-3.95C270.598,81.546,268.826,79.775,266.648,79.775z"/>
<path d="M265.099,81.606c0.525,0,0.895-0.087,1.109-0.26s0.336-0.388,0.363-0.645h0.867v5.325h-1.051v-3.684h-1.289V81.606z"/>
<path fill="#FFFFFF" d="M253.087,83.724c0,2.31-1.875,4.183-4.182,4.183c-2.311,0-4.184-1.873-4.184-4.183
	c0-2.308,1.873-4.181,4.184-4.181C251.212,79.543,253.087,81.416,253.087,83.724L253.087,83.724z"/>
<path d="M248.905,88.139c-2.435,0-4.416-1.98-4.416-4.415c0-2.433,1.981-4.413,4.416-4.413c2.434,0,4.414,1.98,4.414,4.413
	C253.319,86.158,251.339,88.139,248.905,88.139z M248.905,79.775c-2.179,0-3.951,1.771-3.951,3.948c0,2.178,1.772,3.95,3.951,3.95
	c2.178,0,3.949-1.772,3.949-3.95C252.854,81.546,251.083,79.775,248.905,79.775z"/>
<path d="M247.392,84.862c0.205-0.33,0.6-0.709,1.183-1.139c0.483-0.354,0.786-0.621,0.908-0.802s0.184-0.367,0.184-0.561
	c0-0.214-0.063-0.397-0.187-0.549c-0.123-0.154-0.307-0.231-0.554-0.231c-0.269,0-0.456,0.084-0.563,0.252
	c-0.107,0.169-0.161,0.417-0.161,0.744h-1.052v-0.154c0-0.464,0.146-0.867,0.437-1.208c0.293-0.342,0.729-0.513,1.308-0.513
	c0.508,0,0.938,0.144,1.292,0.432c0.354,0.286,0.531,0.696,0.531,1.23c0,0.364-0.088,0.681-0.264,0.952
	c-0.173,0.269-0.518,0.581-1.032,0.938c-0.564,0.391-0.9,0.67-1.008,0.839h2.304v0.934h-3.633
	C247.084,85.58,247.187,85.191,247.392,84.862z"/>
<path d="M234.897,88.135h-8.828v-8.825h8.828V88.135z M226.534,87.67h7.898v-7.895h-7.898V87.67z"/>
<path d="M228.807,81.689c0.525,0,0.895-0.087,1.11-0.26c0.214-0.173,0.335-0.388,0.362-0.645h0.868v5.325h-1.051v-3.684h-1.289
	V81.689z"/>
<rect x="226.54" y="28.375" fill="#FFFFFF" width="8.125" height="8.126"/>
<path d="M234.891,36.727h-8.576v-8.578h8.576V36.727z M226.766,36.276h7.674v-7.675h-7.674V36.276z"/>
<path d="M229.393,33.651c0.021,0.661,0.299,0.992,0.833,0.992c0.257,0,0.465-0.079,0.623-0.238c0.159-0.159,0.238-0.385,0.238-0.679
	c0-0.286-0.102-0.493-0.306-0.623c-0.201-0.132-0.535-0.199-1.004-0.199v-0.809h0.183c0.632,0,0.948-0.251,0.948-0.754
	c0-0.225-0.066-0.407-0.198-0.547c-0.132-0.143-0.316-0.214-0.552-0.214c-0.519,0-0.78,0.31-0.785,0.928h-1.031
	c0-0.568,0.162-1.017,0.487-1.345c0.328-0.331,0.791-0.496,1.389-0.496c0.548,0,0.992,0.141,1.333,0.421
	c0.342,0.28,0.512,0.667,0.512,1.158c0,0.516-0.236,0.894-0.71,1.135c0.593,0.243,0.889,0.69,0.889,1.341
	c0,0.537-0.183,0.978-0.547,1.321c-0.363,0.341-0.85,0.512-1.46,0.512c-0.641,0-1.123-0.162-1.448-0.484
	c-0.325-0.326-0.503-0.799-0.532-1.42H229.393z"/>
<path fill="#FFFFFF" d="M270.831,32.556c0,2.31-1.875,4.183-4.182,4.183c-2.311,0-4.184-1.873-4.184-4.183
	c0-2.308,1.873-4.181,4.184-4.181C268.956,28.375,270.831,30.248,270.831,32.556L270.831,32.556z"/>
<path d="M266.649,36.971c-2.435,0-4.416-1.98-4.416-4.415c0-2.433,1.981-4.413,4.416-4.413c2.434,0,4.414,1.98,4.414,4.413
	C271.063,34.99,269.083,36.971,266.649,36.971z M266.649,28.607c-2.179,0-3.951,1.771-3.951,3.948c0,2.178,1.772,3.95,3.951,3.95
	c2.178,0,3.949-1.772,3.949-3.95C270.599,30.378,268.827,28.607,266.649,28.607z"/>
<path d="M265.879,33.21c0.02,0.61,0.276,0.916,0.77,0.916c0.236,0,0.429-0.073,0.575-0.22s0.219-0.355,0.219-0.626
	c0-0.264-0.094-0.456-0.281-0.575c-0.186-0.122-0.494-0.183-0.927-0.183v-0.747h0.169c0.583,0,0.875-0.232,0.875-0.696
	c0-0.208-0.062-0.376-0.184-0.505c-0.122-0.132-0.291-0.198-0.509-0.198c-0.479,0-0.72,0.286-0.726,0.857h-0.951
	c0-0.525,0.149-0.938,0.45-1.242c0.302-0.305,0.729-0.458,1.281-0.458c0.506,0,0.916,0.129,1.23,0.388
	c0.315,0.259,0.473,0.615,0.473,1.069c0,0.476-0.219,0.825-0.655,1.047c0.547,0.225,0.82,0.637,0.82,1.238
	c0,0.496-0.169,0.902-0.506,1.22c-0.334,0.314-0.783,0.472-1.348,0.472c-0.591,0-1.036-0.149-1.336-0.447
	c-0.301-0.3-0.465-0.737-0.491-1.311H265.879z"/>
<path fill="#FFFFFF" d="M327.331,36.306c0,2.31-1.875,4.183-4.182,4.183c-2.311,0-4.184-1.873-4.184-4.183
	c0-2.308,1.873-4.181,4.184-4.181C325.456,32.125,327.331,33.998,327.331,36.306L327.331,36.306z"/>
<path d="M323.149,40.721c-2.435,0-4.416-1.98-4.416-4.415c0-2.433,1.981-4.413,4.416-4.413c2.434,0,4.414,1.98,4.414,4.413
	C327.563,38.74,325.583,40.721,323.149,40.721z M323.149,32.357c-2.179,0-3.951,1.771-3.951,3.948c0,2.178,1.772,3.95,3.951,3.95
	c2.178,0,3.949-1.772,3.949-3.95C327.099,34.128,325.327,32.357,323.149,32.357z"/>
<path d="M322.379,36.96c0.02,0.61,0.276,0.916,0.77,0.916c0.236,0,0.429-0.073,0.575-0.22s0.219-0.355,0.219-0.626
	c0-0.264-0.094-0.456-0.281-0.575c-0.186-0.122-0.494-0.183-0.927-0.183v-0.747h0.169c0.583,0,0.875-0.232,0.875-0.696
	c0-0.208-0.062-0.376-0.184-0.505c-0.122-0.132-0.291-0.198-0.509-0.198c-0.479,0-0.72,0.286-0.726,0.857h-0.951
	c0-0.525,0.149-0.938,0.45-1.242c0.302-0.305,0.729-0.458,1.281-0.458c0.506,0,0.916,0.129,1.23,0.388
	c0.315,0.259,0.473,0.615,0.473,1.069c0,0.476-0.219,0.825-0.655,1.047c0.547,0.225,0.82,0.637,0.82,1.238
	c0,0.496-0.169,0.902-0.506,1.22c-0.334,0.314-0.783,0.472-1.348,0.472c-0.591,0-1.036-0.149-1.336-0.447
	c-0.301-0.3-0.465-0.737-0.491-1.311H322.379z"/>
<path d="M346.945,40.385h-8.828v-8.825h8.828V40.385z M338.582,39.92h7.898v-7.895h-7.898V39.92z"/>
<path d="M340.854,33.939c0.525,0,0.895-0.087,1.11-0.26c0.214-0.173,0.335-0.388,0.362-0.645h0.868v5.325h-1.052v-3.684h-1.289
	V33.939z"/>
<path d="M40.864,39.508c0.222-0.357,0.648-0.768,1.281-1.234c0.523-0.383,0.852-0.673,0.983-0.869
	c0.133-0.196,0.198-0.398,0.198-0.607c0-0.233-0.067-0.431-0.202-0.595c-0.132-0.167-0.332-0.25-0.599-0.25
	c-0.291,0-0.495,0.091-0.611,0.274s-0.175,0.451-0.175,0.805h-1.139v-0.167c0-0.502,0.158-0.939,0.473-1.309
	c0.317-0.37,0.789-0.556,1.416-0.556c0.55,0,1.018,0.156,1.4,0.468c0.384,0.31,0.575,0.754,0.575,1.333
	c0,0.394-0.095,0.738-0.285,1.032c-0.188,0.291-0.561,0.629-1.119,1.016c-0.61,0.423-0.975,0.726-1.091,0.908h2.495v1.012H40.53
	C40.53,40.286,40.641,39.866,40.864,39.508z"/>
<path d="M334.94,85.107c-0.185,0.424-0.277,1.013-0.277,1.767c0,0.594,0.078,1.1,0.235,1.518c0.154,0.416,0.459,0.805,0.914,1.166
	l-0.059,0.104c-1.114-0.68-1.672-1.625-1.672-2.838c0-1.175,0.55-2.135,1.649-2.879l0.081,0.117
	C335.417,84.334,335.126,84.682,334.94,85.107z"/>
<path d="M336.994,84.558c0.013,0,0.022,0.007,0.029,0.02c0.007,0.011,0.01,0.045,0.01,0.102v0.768h0.679v0.215h-0.679v1.927
	c0,0.402,0.111,0.604,0.333,0.604c0.078,0,0.154-0.021,0.229-0.062c0.074-0.044,0.137-0.1,0.187-0.167l0.088,0.075
	c-0.073,0.133-0.185,0.249-0.329,0.35c-0.145,0.1-0.298,0.15-0.461,0.15c-0.404,0-0.607-0.292-0.607-0.875v-2.002h-0.283
	c-0.064,0-0.096-0.017-0.096-0.049c0-0.026,0.026-0.058,0.078-0.095c0.175-0.117,0.324-0.264,0.451-0.438
	C336.751,84.905,336.874,84.73,336.994,84.558z"/>
<path d="M338.059,86.948c0-0.441,0.131-0.813,0.392-1.113c0.264-0.3,0.611-0.45,1.042-0.45c0.466,0,0.833,0.141,1.101,0.421
	c0.27,0.279,0.404,0.652,0.404,1.12c0,0.45-0.139,0.833-0.418,1.146c-0.276,0.312-0.627,0.468-1.051,0.468
	c-0.438,0-0.793-0.152-1.064-0.458C338.194,87.774,338.059,87.397,338.059,86.948z M338.646,86.615c0,0.469,0.084,0.875,0.251,1.222
	c0.168,0.344,0.4,0.516,0.699,0.516c0.25,0,0.448-0.103,0.594-0.307c0.146-0.207,0.219-0.514,0.219-0.921
	c0-0.444-0.088-0.814-0.264-1.11c-0.177-0.296-0.41-0.443-0.699-0.443c-0.252,0-0.449,0.099-0.591,0.297
	C338.716,86.066,338.646,86.315,338.646,86.615z"/>
<path d="M343.608,84.572l1.202-0.627l0.056,0.013v4.022c0,0.15,0.037,0.255,0.111,0.313c0.073,0.057,0.25,0.085,0.528,0.085v0.098
	h-1.854v-0.098c0.25-0.009,0.419-0.046,0.506-0.111c0.09-0.065,0.134-0.203,0.134-0.415v-3.017c0-0.128-0.021-0.212-0.062-0.251
	c-0.039-0.041-0.094-0.063-0.164-0.063c-0.054,0-0.111,0.013-0.172,0.036c-0.062,0.022-0.156,0.059-0.285,0.111V84.572z"/>
<path d="M346.769,89.397l-0.059-0.128c0.203-0.128,0.346-0.253,0.432-0.375c0.084-0.122,0.127-0.225,0.127-0.307
	c0-0.039-0.008-0.065-0.023-0.079c-0.015-0.015-0.037-0.022-0.068-0.022c-0.016,0-0.038,0.004-0.068,0.013
	c-0.03,0.007-0.061,0.01-0.092,0.01c-0.137,0-0.241-0.028-0.313-0.084c-0.072-0.057-0.108-0.143-0.108-0.259
	c0-0.115,0.034-0.209,0.104-0.28c0.072-0.072,0.166-0.107,0.284-0.107c0.159,0,0.288,0.058,0.389,0.173
	c0.101,0.113,0.149,0.265,0.149,0.453c0,0.198-0.082,0.398-0.248,0.602C347.112,89.206,346.942,89.335,346.769,89.397z"/>
<path d="M350.423,87.966h1.57c0.165,0,0.291-0.033,0.379-0.101c0.086-0.069,0.172-0.18,0.258-0.33l0.091,0.033l-0.369,0.907h-2.585
	v-0.088l1.168-1.261c0.579-0.624,0.869-1.202,0.869-1.733c0-0.287-0.081-0.518-0.242-0.692c-0.161-0.176-0.392-0.264-0.691-0.264
	c-0.216,0-0.4,0.069-0.553,0.208c-0.152,0.138-0.285,0.356-0.398,0.656l-0.143-0.032c0.069-0.39,0.224-0.707,0.463-0.953
	c0.242-0.248,0.559-0.372,0.95-0.372c0.331,0,0.612,0.116,0.843,0.349c0.23,0.233,0.346,0.52,0.346,0.859
	c0,0.498-0.309,1.074-0.928,1.727L350.423,87.966z"/>
<path d="M353.456,89.397l-0.06-0.128c0.202-0.128,0.347-0.253,0.431-0.375c0.086-0.122,0.128-0.225,0.128-0.307
	c0-0.039-0.008-0.065-0.022-0.079c-0.016-0.015-0.039-0.022-0.069-0.022c-0.015,0-0.038,0.004-0.068,0.013
	c-0.03,0.007-0.062,0.01-0.091,0.01c-0.138,0-0.242-0.028-0.314-0.084c-0.071-0.057-0.107-0.143-0.107-0.259
	c0-0.115,0.035-0.209,0.104-0.28c0.071-0.072,0.167-0.107,0.284-0.107c0.158,0,0.288,0.058,0.389,0.173
	c0.1,0.113,0.15,0.265,0.15,0.453c0,0.198-0.083,0.398-0.248,0.602C353.798,89.206,353.63,89.335,353.456,89.397z"/>
<path d="M357.263,86.167c0.744-0.229,1.116-0.605,1.116-1.133c0-0.193-0.069-0.356-0.206-0.489s-0.314-0.199-0.531-0.199
	c-0.426,0-0.756,0.231-0.993,0.695l-0.099-0.026c0.118-0.342,0.283-0.604,0.494-0.79c0.213-0.187,0.484-0.28,0.816-0.28
	c0.316,0,0.568,0.085,0.754,0.254c0.185,0.17,0.277,0.392,0.277,0.663c0,0.349-0.207,0.654-0.621,0.918
	c0.564,0.215,0.846,0.63,0.846,1.243c0,0.477-0.172,0.854-0.519,1.13s-0.784,0.415-1.313,0.415c-0.204,0-0.38-0.032-0.526-0.095
	c-0.145-0.063-0.219-0.161-0.219-0.294c0-0.159,0.09-0.238,0.269-0.238c0.089,0,0.233,0.065,0.435,0.195
	c0.195,0.129,0.358,0.193,0.489,0.193c0.253,0,0.46-0.093,0.624-0.278c0.165-0.187,0.248-0.438,0.248-0.751
	c0-0.417-0.172-0.72-0.514-0.907c-0.162-0.092-0.347-0.137-0.551-0.137h-0.268L357.263,86.167z"/>
<path d="M359.792,84.062l0.082-0.117c1.099,0.744,1.648,1.704,1.648,2.879c0,1.213-0.557,2.158-1.672,2.838l-0.059-0.104
	c0.455-0.361,0.76-0.75,0.914-1.166c0.156-0.418,0.235-0.924,0.235-1.518c0-0.754-0.093-1.343-0.278-1.767
	C360.479,84.682,360.188,84.334,359.792,84.062z"/>
<path d="M408.033,71.294l-0.018-0.566c0.407-0.013,0.807-0.049,1.187-0.107l0.086,0.561
	C408.886,71.243,408.464,71.281,408.033,71.294z M406.778,71.268c-0.409-0.029-0.827-0.078-1.243-0.145l0.09-0.56
	c0.399,0.064,0.801,0.111,1.194,0.139L406.778,71.268z M410.523,70.9l-0.168-0.542c0.387-0.12,0.753-0.269,1.087-0.442l0.262,0.503
	C411.34,70.608,410.942,70.77,410.523,70.9z M404.31,70.875c-0.399-0.097-0.801-0.211-1.2-0.341l0.176-0.539
	c0.386,0.125,0.773,0.235,1.159,0.33L404.31,70.875z M401.938,70.106c-0.383-0.156-0.763-0.326-1.138-0.508l0.248-0.51
	c0.363,0.178,0.731,0.342,1.103,0.493L401.938,70.106z M412.775,69.709l-0.363-0.436c0.3-0.25,0.567-0.532,0.795-0.839l0.455,0.338
	C413.408,69.115,413.109,69.431,412.775,69.709z M399.7,69.011c-0.361-0.208-0.714-0.431-1.057-0.665l0.32-0.468
	c0.331,0.227,0.672,0.441,1.02,0.643L399.7,69.011z M414.306,67.658l-0.52-0.227c0.15-0.346,0.27-0.72,0.354-1.112l0.555,0.119
	C414.603,66.867,414.472,67.277,414.306,67.658z M397.642,67.603c-0.326-0.26-0.644-0.537-0.943-0.822l0.391-0.411
	c0.288,0.274,0.593,0.54,0.906,0.791L397.642,67.603z M395.83,65.88c-0.278-0.317-0.541-0.647-0.78-0.982l0.461-0.33
	c0.229,0.319,0.479,0.635,0.745,0.938L395.83,65.88z M414.858,65.181l-0.566-0.031c0.009-0.154,0.013-0.311,0.013-0.471
	c0-0.232-0.009-0.471-0.026-0.718l0.564-0.041c0.02,0.261,0.028,0.514,0.028,0.759C414.871,64.85,414.867,65.017,414.858,65.181z
	 M394.374,63.836c-0.207-0.373-0.392-0.755-0.547-1.134l0.525-0.215c0.146,0.358,0.32,0.719,0.518,1.072L394.374,63.836z
	 M414.132,62.77c-0.064-0.376-0.148-0.772-0.25-1.177l0.549-0.139c0.106,0.419,0.193,0.83,0.26,1.221L414.132,62.77z
	 M393.427,61.506c-0.107-0.407-0.187-0.825-0.236-1.241l0.563-0.067c0.047,0.391,0.121,0.782,0.223,1.164L393.427,61.506z
	 M413.548,60.431c-0.119-0.37-0.252-0.75-0.401-1.143l0.529-0.202c0.153,0.402,0.29,0.792,0.411,1.172L413.548,60.431z
	 M412.689,58.164c-0.156-0.36-0.324-0.729-0.504-1.107l0.512-0.244c0.184,0.384,0.354,0.759,0.512,1.126L412.689,58.164z"/>
<polygon fill-rule="evenodd" clip-rule="evenodd" points="412.608,47.378 415.119,50.476 414.36,46.561 412.608,47.378 "/>
<path d="M415.329,50.926l-2.911-3.592l2.031-0.948L415.329,50.926z M412.799,47.422l2.11,2.603l-0.638-3.29L412.799,47.422z"/>
<path d="M399.776,62.937c-3.686-3.505-5.024-8.127-3.673-12.681c1.199-4.04,4.32-7.085,7.951-7.757
	c3.672-0.682,7.363,1.117,10.392,5.06l-0.449,0.346c-2.892-3.766-6.39-5.49-9.839-4.848c-3.424,0.634-6.372,3.523-7.511,7.361
	c-1.289,4.342-0.006,8.756,3.52,12.108L399.776,62.937z"/>
<polygon fill-rule="evenodd" clip-rule="evenodd" points="394.252,59.877 392.543,56.276 392.357,60.258 394.252,59.877 "/>
<path d="M392.229,60.407l0.008-0.154l0.208-4.465l1.981,4.177L392.229,60.407z M392.641,56.764l-0.155,3.346l1.592-0.32
	L392.641,56.764z"/>
<path d="M410.629,54.56h-8.576v-8.578h8.576V54.56z M402.504,54.109h7.674v-7.675h-7.674V54.109z"/>
<path d="M404.327,52.008c0.221-0.357,0.648-0.768,1.281-1.234c0.523-0.383,0.852-0.673,0.982-0.869
	c0.133-0.196,0.199-0.398,0.199-0.607c0-0.233-0.068-0.431-0.203-0.595c-0.131-0.167-0.332-0.25-0.598-0.25
	c-0.291,0-0.496,0.091-0.611,0.274c-0.117,0.183-0.176,0.451-0.176,0.805h-1.139v-0.167c0-0.502,0.158-0.939,0.473-1.309
	c0.318-0.37,0.789-0.556,1.416-0.556c0.551,0,1.018,0.156,1.4,0.468c0.385,0.31,0.576,0.754,0.576,1.333
	c0,0.394-0.096,0.738-0.285,1.032c-0.189,0.291-0.561,0.629-1.119,1.016c-0.611,0.423-0.975,0.726-1.092,0.908h2.496v1.012h-3.936
	C403.993,52.786,404.104,52.365,404.327,52.008z"/>
<path fill="#FFFFFF" d="M409.837,64.307c0,2.31-1.875,4.183-4.182,4.183c-2.311,0-4.184-1.873-4.184-4.183
	c0-2.308,1.873-4.181,4.184-4.181C407.962,60.126,409.837,61.999,409.837,64.307L409.837,64.307z"/>
<path d="M405.655,68.722c-2.435,0-4.416-1.98-4.416-4.415c0-2.433,1.981-4.413,4.416-4.413c2.434,0,4.414,1.98,4.414,4.413
	C410.069,66.741,408.089,68.722,405.655,68.722z M405.655,60.358c-2.179,0-3.951,1.771-3.951,3.948c0,2.178,1.772,3.95,3.951,3.95
	c2.178,0,3.949-1.772,3.949-3.95C409.604,62.129,407.833,60.358,405.655,60.358z"/>
<path d="M404.142,65.445c0.205-0.33,0.6-0.709,1.183-1.139c0.483-0.354,0.786-0.621,0.908-0.802s0.184-0.367,0.184-0.561
	c0-0.214-0.063-0.397-0.187-0.549c-0.123-0.154-0.307-0.231-0.554-0.231c-0.269,0-0.456,0.084-0.563,0.252
	c-0.107,0.169-0.161,0.417-0.161,0.744h-1.052v-0.154c0-0.464,0.146-0.867,0.437-1.208c0.293-0.342,0.729-0.513,1.308-0.513
	c0.508,0,0.938,0.144,1.292,0.432c0.354,0.286,0.531,0.696,0.531,1.23c0,0.364-0.088,0.681-0.264,0.952
	c-0.173,0.269-0.518,0.581-1.032,0.938c-0.564,0.391-0.9,0.67-1.008,0.839h2.304v0.934h-3.633
	C403.834,66.163,403.937,65.774,404.142,65.445z"/>
<rect x="402.712" y="59.291" transform="matrix(0.3182 0.948 -0.948 0.3182 331.6906 -342.0668)" width="1.912" height="0.567"/>
<rect x="406.712" y="55.041" transform="matrix(0.3182 0.948 -0.948 0.3182 330.3887 -348.7564)" width="1.912" height="0.567"/>
<path d="M423.96,51.588h9.383v2.016h-3.5v9.484h-2.383v-9.484h-3.5V51.588z"/>
<path d="M433.102,66.445v-7.188h3.55c0.66,0,1.197,0.166,1.611,0.498c0.416,0.329,0.625,0.791,0.625,1.387
	c0,0.69-0.295,1.164-0.884,1.421c0.745,0.3,1.118,0.866,1.118,1.699c-0.049,0.729-0.291,1.276-0.728,1.641
	c-0.437,0.361-1.173,0.542-2.212,0.542H433.102z M434.591,62.06h1.782c0.713,0,1.069-0.269,1.069-0.806
	c0-0.491-0.371-0.737-1.113-0.737h-1.738V62.06z M434.591,65.185h1.88c0.774,0,1.162-0.34,1.162-1.021
	c0-0.603-0.364-0.903-1.094-0.903h-1.948V65.185z"/>
<path d="M6.867,158.14H6.314v-0.623h0.553V158.14z M6.867,156.1H6.314v-1.417h0.553V156.1z M6.867,153.265H6.314v-1.417h0.553
	V153.265z M6.867,150.431H6.314v-1.418h0.553V150.431z M6.867,147.596H6.314v-1.417h0.553V147.596z M6.867,144.761H6.314v-1.417
	h0.553V144.761z M6.867,141.927H6.314v-1.418h0.553V141.927z M6.867,139.092H6.314v-1.417h0.553V139.092z M6.867,136.257H6.314
	v-1.417h0.553V136.257z M6.867,133.423H6.314v-1.418h0.553V133.423z M6.867,130.588H6.314v-1.417h0.553V130.588z M6.867,127.753
	H6.314v-1.417h0.553V127.753z M6.867,124.919H6.314v-1.418h0.553V124.919z M6.867,122.084H6.314v-1.417h0.553V122.084z
	 M6.867,119.25H6.314v-1.417h0.553V119.25z M6.867,116.416H6.314v-1.418h0.553V116.416z M6.867,113.581H6.314v-1.417h0.553V113.581z
	 M6.867,110.746H6.314v-1.417h0.553V110.746z M6.867,107.912H6.314v-1.418h0.553V107.912z M6.867,105.077H6.314v-1.417h0.553
	V105.077z M6.867,102.242H6.314v-1.417h0.553V102.242z M6.867,99.408H6.314V97.99h0.553V99.408z M6.867,96.573H6.314v-1.417h0.553
	V96.573z M6.867,93.738H6.314v-1.417h0.553V93.738z"/>
<path d="M428.706,85.19c-0.186,0.424-0.278,1.013-0.278,1.767c0,0.594,0.079,1.1,0.235,1.518c0.154,0.416,0.459,0.805,0.914,1.166
	l-0.059,0.104c-1.115-0.68-1.672-1.625-1.672-2.838c0-1.175,0.55-2.135,1.648-2.879l0.082,0.117
	C429.181,84.417,428.89,84.765,428.706,85.19z"/>
<path d="M430.759,84.641c0.014,0,0.023,0.007,0.029,0.02c0.007,0.011,0.01,0.045,0.01,0.102v0.768h0.68v0.215h-0.68v1.927
	c0,0.402,0.111,0.604,0.334,0.604c0.078,0,0.154-0.021,0.229-0.062c0.073-0.044,0.135-0.1,0.186-0.167l0.088,0.075
	c-0.074,0.133-0.184,0.249-0.33,0.35c-0.143,0.1-0.297,0.15-0.46,0.15c-0.405,0-0.607-0.292-0.607-0.875v-2.002h-0.284
	c-0.063,0-0.094-0.017-0.094-0.049c0-0.026,0.025-0.058,0.078-0.095c0.174-0.117,0.324-0.264,0.45-0.438
	C430.515,84.988,430.64,84.813,430.759,84.641z"/>
<path d="M431.823,87.031c0-0.441,0.131-0.813,0.393-1.113c0.263-0.3,0.609-0.45,1.041-0.45c0.466,0,0.832,0.141,1.1,0.421
	c0.271,0.279,0.405,0.652,0.405,1.12c0,0.45-0.14,0.833-0.418,1.146c-0.276,0.312-0.626,0.468-1.052,0.468
	c-0.438,0-0.791-0.152-1.063-0.458C431.958,87.857,431.823,87.48,431.823,87.031z M432.411,86.698c0,0.469,0.084,0.875,0.252,1.222
	c0.167,0.344,0.4,0.516,0.698,0.516c0.25,0,0.448-0.103,0.595-0.307c0.145-0.207,0.219-0.514,0.219-0.921
	c0-0.444-0.089-0.814-0.266-1.11c-0.176-0.296-0.408-0.443-0.698-0.443c-0.253,0-0.449,0.099-0.591,0.297
	C432.481,86.149,432.411,86.398,432.411,86.698z"/>
<path d="M443.527,84.145l0.081-0.117c1.1,0.744,1.649,1.704,1.649,2.879c0,1.213-0.558,2.158-1.671,2.838l-0.06-0.104
	c0.455-0.361,0.76-0.75,0.914-1.166c0.157-0.418,0.235-0.924,0.235-1.518c0-0.754-0.093-1.343-0.277-1.767
	C444.214,84.765,443.923,84.417,443.527,84.145z"/>
<polygon points="442.722,88.814 437.687,88.814 437.687,83.779 437.921,83.779 437.921,88.58 442.722,88.58 "/>
<circle fill="#FFFFFF" cx="50.601" cy="133.987" r="6.696"/>
<path d="M50.601,140.965c-3.849,0-6.98-3.131-6.98-6.979c0-3.849,3.131-6.979,6.98-6.979s6.98,3.131,6.98,6.979
	C57.581,137.834,54.449,140.965,50.601,140.965z M50.601,127.574c-3.536,0-6.413,2.877-6.413,6.413c0,3.535,2.876,6.412,6.413,6.412
	s6.413-2.877,6.413-6.412C57.013,130.451,54.137,127.574,50.601,127.574z"/>
<circle fill="#FFFFFF" cx="41.137" cy="143.449" r="6.696"/>
<path d="M41.138,150.428c-3.849,0-6.98-3.131-6.98-6.979s3.131-6.979,6.98-6.979c3.848,0,6.979,3.131,6.979,6.979
	S44.986,150.428,41.138,150.428z M41.138,137.036c-3.536,0-6.413,2.877-6.413,6.413s2.876,6.413,6.413,6.413
	c3.536,0,6.412-2.877,6.412-6.413S44.673,137.036,41.138,137.036z"/>
<circle fill="#FFFFFF" cx="60.064" cy="124.523" r="6.696"/>
<path d="M60.063,131.502c-3.848,0-6.979-3.131-6.979-6.979s3.131-6.979,6.979-6.979c3.849,0,6.98,3.131,6.98,6.979
	S63.912,131.502,60.063,131.502z M60.063,118.11c-3.536,0-6.412,2.877-6.412,6.413s2.876,6.413,6.412,6.413
	c3.536,0,6.413-2.877,6.413-6.413S63.6,118.11,60.063,118.11z"/>
<rect x="50.317" y="111.26" transform="matrix(0.7075 0.7067 -0.7067 0.7075 109.484 3.4279)" width="0.567" height="45.453"/>
<path d="M42.487,109.888c-2.435,0-4.416-1.981-4.416-4.416c0-2.433,1.981-4.412,4.416-4.412c2.434,0,4.414,1.979,4.414,4.412
	C46.901,107.907,44.921,109.888,42.487,109.888z M42.487,101.525c-2.179,0-3.951,1.771-3.951,3.947c0,2.179,1.772,3.951,3.951,3.951
	c2.178,0,3.949-1.772,3.949-3.951C46.437,103.295,44.665,101.525,42.487,101.525z"/>
<path d="M40.938,103.355c0.525,0,0.895-0.086,1.11-0.26c0.214-0.174,0.335-0.389,0.362-0.645h0.868v5.324h-1.051v-3.684h-1.289
	V103.355z"/>
<rect x="57.137" y="101.125" fill="#FFFFFF" width="8.125" height="8.127"/>
<path d="M65.487,109.477h-8.576v-8.578h8.576V109.477z M57.362,109.026h7.674v-7.676h-7.674V109.026z"/>
<path d="M59.99,106.402c0.021,0.66,0.299,0.991,0.833,0.991c0.257,0,0.465-0.079,0.623-0.237c0.159-0.159,0.238-0.386,0.238-0.68
	c0-0.285-0.102-0.492-0.306-0.622c-0.201-0.132-0.535-0.198-1.004-0.198v-0.81h0.183c0.632,0,0.948-0.251,0.948-0.754
	c0-0.225-0.066-0.407-0.198-0.548c-0.132-0.143-0.316-0.214-0.552-0.214c-0.519,0-0.78,0.31-0.785,0.929h-1.031
	c0-0.568,0.162-1.018,0.487-1.346c0.328-0.33,0.791-0.496,1.389-0.496c0.548,0,0.992,0.141,1.333,0.422
	c0.342,0.279,0.512,0.666,0.512,1.158c0,0.516-0.236,0.894-0.71,1.135c0.593,0.242,0.889,0.689,0.889,1.34
	c0,0.537-0.183,0.979-0.547,1.322c-0.363,0.34-0.85,0.512-1.46,0.512c-0.641,0-1.123-0.162-1.448-0.484
	c-0.325-0.326-0.503-0.799-0.532-1.42H59.99z"/>
<path d="M49.614,106.758c0.222-0.356,0.648-0.769,1.281-1.233c0.523-0.384,0.852-0.674,0.983-0.869
	c0.133-0.195,0.198-0.398,0.198-0.607c0-0.232-0.067-0.431-0.202-0.595c-0.132-0.167-0.332-0.25-0.599-0.25
	c-0.291,0-0.495,0.091-0.611,0.274c-0.116,0.182-0.175,0.451-0.175,0.805h-1.139v-0.166c0-0.503,0.158-0.939,0.473-1.31
	c0.317-0.37,0.789-0.556,1.416-0.556c0.55,0,1.018,0.156,1.4,0.469c0.384,0.309,0.575,0.754,0.575,1.332
	c0,0.395-0.095,0.738-0.285,1.032c-0.188,0.291-0.561,0.63-1.119,1.016c-0.61,0.423-0.975,0.726-1.091,0.908h2.495v1.012H49.28
	C49.28,107.537,49.391,107.116,49.614,106.758z"/>
<path d="M133.374,133.811h-8.576v-8.578h8.576V133.811z M125.249,133.36h7.674v-7.676h-7.674V133.36z"/>
<path d="M127.072,131.259c0.222-0.357,0.648-0.769,1.281-1.234c0.523-0.383,0.852-0.673,0.983-0.869
	c0.133-0.195,0.198-0.397,0.198-0.606c0-0.233-0.067-0.431-0.202-0.595c-0.132-0.167-0.332-0.25-0.599-0.25
	c-0.291,0-0.495,0.091-0.611,0.273s-0.175,0.451-0.175,0.805h-1.139v-0.166c0-0.502,0.158-0.939,0.473-1.309
	c0.317-0.371,0.789-0.557,1.416-0.557c0.55,0,1.018,0.156,1.4,0.469c0.384,0.31,0.575,0.754,0.575,1.333
	c0,0.394-0.095,0.737-0.285,1.032c-0.188,0.291-0.561,0.629-1.119,1.016c-0.61,0.422-0.975,0.725-1.091,0.908h2.495v1.012h-3.936
	C126.738,132.037,126.849,131.617,127.072,131.259z"/>
<path d="M128.899,119.888c-2.435,0-4.416-1.98-4.416-4.414s1.981-4.414,4.416-4.414c2.434,0,4.414,1.98,4.414,4.414
	S131.333,119.888,128.899,119.888z M128.899,111.525c-2.179,0-3.951,1.771-3.951,3.949s1.772,3.949,3.951,3.949
	c2.178,0,3.949-1.771,3.949-3.949S131.077,111.525,128.899,111.525z"/>
<path d="M127.35,113.357c0.525,0,0.895-0.088,1.11-0.261c0.214-0.173,0.335-0.388,0.362-0.645h0.868v5.325h-1.051v-3.685h-1.289
	V113.357z"/>
<path fill="#FFFFFF" d="M108.655,129.64c0,2.309-1.875,4.182-4.182,4.182c-2.311,0-4.184-1.873-4.184-4.182s1.873-4.182,4.184-4.182
	C106.78,125.458,108.655,127.332,108.655,129.64L108.655,129.64z"/>
<path d="M104.474,134.054c-2.435,0-4.416-1.98-4.416-4.414s1.981-4.414,4.416-4.414c2.434,0,4.414,1.98,4.414,4.414
	S106.908,134.054,104.474,134.054z M104.474,125.691c-2.179,0-3.951,1.771-3.951,3.949s1.772,3.949,3.951,3.949
	c2.178,0,3.949-1.771,3.949-3.949S106.651,125.691,104.474,125.691z"/>
<path d="M102.96,130.778c0.205-0.329,0.599-0.709,1.183-1.14c0.483-0.354,0.786-0.621,0.908-0.801
	c0.122-0.182,0.184-0.367,0.184-0.561c0-0.215-0.063-0.398-0.187-0.549c-0.122-0.154-0.307-0.231-0.553-0.231
	c-0.269,0-0.457,0.085-0.563,0.253c-0.108,0.168-0.161,0.416-0.161,0.743h-1.051v-0.153c0-0.465,0.145-0.867,0.436-1.209
	c0.293-0.342,0.729-0.513,1.307-0.513c0.508,0,0.938,0.144,1.292,0.433c0.354,0.285,0.531,0.695,0.531,1.23
	c0,0.363-0.088,0.681-0.264,0.951c-0.173,0.27-0.518,0.582-1.033,0.938c-0.564,0.391-0.9,0.67-1.007,0.84h2.304v0.934h-3.633
	C102.652,131.496,102.755,131.107,102.96,130.778z"/>
<path d="M108.945,119.885h-8.828v-8.825h8.828V119.885z M100.582,119.42h7.898v-7.896h-7.898V119.42z"/>
<path d="M102.855,113.439c0.525,0,0.895-0.086,1.11-0.26c0.214-0.174,0.335-0.389,0.362-0.645h0.868v5.324h-1.051v-3.684h-1.289
	V113.439z"/>
<rect x="100.29" y="139.625" fill="#FFFFFF" width="8.125" height="8.127"/>
<path d="M108.641,147.977h-8.576v-8.578h8.576V147.977z M100.516,147.526h7.674v-7.676h-7.674V147.526z"/>
<path d="M103.143,144.902c0.021,0.66,0.299,0.991,0.833,0.991c0.257,0,0.465-0.079,0.623-0.237c0.159-0.159,0.238-0.386,0.238-0.68
	c0-0.285-0.102-0.492-0.306-0.622c-0.201-0.132-0.535-0.198-1.004-0.198v-0.81h0.183c0.632,0,0.948-0.251,0.948-0.754
	c0-0.225-0.066-0.407-0.198-0.548c-0.132-0.143-0.316-0.214-0.552-0.214c-0.519,0-0.78,0.31-0.785,0.929h-1.031
	c0-0.568,0.162-1.018,0.487-1.346c0.328-0.33,0.791-0.496,1.389-0.496c0.548,0,0.992,0.141,1.333,0.422
	c0.342,0.279,0.512,0.666,0.512,1.158c0,0.516-0.236,0.894-0.71,1.135c0.593,0.242,0.889,0.689,0.889,1.34
	c0,0.537-0.183,0.979-0.547,1.322c-0.363,0.34-0.85,0.512-1.46,0.512c-0.641,0-1.123-0.162-1.448-0.484
	c-0.325-0.326-0.503-0.799-0.532-1.42H103.143z"/>
<path fill="#FFFFFF" d="M133.081,143.806c0,2.309-1.875,4.182-4.182,4.182c-2.311,0-4.184-1.873-4.184-4.182
	s1.873-4.182,4.184-4.182C131.206,139.625,133.081,141.498,133.081,143.806L133.081,143.806z"/>
<path d="M128.899,148.22c-2.435,0-4.416-1.98-4.416-4.414s1.981-4.414,4.416-4.414c2.434,0,4.414,1.98,4.414,4.414
	S131.333,148.22,128.899,148.22z M128.899,139.857c-2.179,0-3.951,1.771-3.951,3.949s1.772,3.949,3.951,3.949
	c2.178,0,3.949-1.771,3.949-3.949S131.077,139.857,128.899,139.857z"/>
<path d="M128.129,144.46c0.02,0.61,0.276,0.916,0.77,0.916c0.236,0,0.428-0.074,0.575-0.221s0.22-0.355,0.22-0.625
	c0-0.264-0.094-0.456-0.282-0.576c-0.186-0.121-0.495-0.183-0.927-0.183v-0.747h0.168c0.583,0,0.875-0.232,0.875-0.695
	c0-0.208-0.062-0.377-0.184-0.506c-0.122-0.132-0.292-0.197-0.509-0.197c-0.479,0-0.72,0.285-0.725,0.856h-0.952
	c0-0.524,0.15-0.938,0.451-1.241c0.302-0.305,0.729-0.458,1.281-0.458c0.506,0,0.916,0.13,1.23,0.388
	c0.315,0.26,0.473,0.615,0.473,1.07c0,0.476-0.219,0.824-0.655,1.047c0.546,0.225,0.82,0.637,0.82,1.238
	c0,0.495-0.169,0.902-0.506,1.219c-0.334,0.314-0.783,0.473-1.348,0.473c-0.591,0-1.036-0.148-1.336-0.447
	c-0.3-0.3-0.464-0.736-0.491-1.311H128.129z"/>
<path d="M83.384,127.107c-0.185,0.424-0.278,1.013-0.278,1.767c0,0.594,0.079,1.1,0.235,1.518c0.154,0.416,0.459,0.805,0.914,1.166
	l-0.059,0.104c-1.115-0.68-1.672-1.625-1.672-2.838c0-1.175,0.55-2.135,1.649-2.879l0.082,0.117
	C83.86,126.334,83.569,126.682,83.384,127.107z"/>
<path d="M85.438,126.558c0.013,0,0.023,0.007,0.029,0.02c0.007,0.011,0.01,0.045,0.01,0.102v0.768h0.679v0.215h-0.679v1.927
	c0,0.402,0.111,0.604,0.333,0.604c0.078,0,0.154-0.021,0.229-0.062c0.074-0.044,0.136-0.1,0.186-0.167l0.088,0.075
	c-0.074,0.133-0.184,0.249-0.33,0.35c-0.144,0.1-0.297,0.15-0.46,0.15c-0.405,0-0.607-0.292-0.607-0.875v-2.002h-0.284
	c-0.063,0-0.095-0.017-0.095-0.049c0-0.026,0.026-0.058,0.078-0.095c0.174-0.117,0.324-0.264,0.451-0.438
	C85.194,126.905,85.318,126.73,85.438,126.558z"/>
<path d="M86.502,128.948c0-0.441,0.131-0.813,0.392-1.113c0.263-0.3,0.61-0.45,1.042-0.45c0.466,0,0.833,0.141,1.1,0.421
	c0.27,0.279,0.405,0.652,0.405,1.12c0,0.45-0.139,0.833-0.418,1.146c-0.276,0.312-0.626,0.468-1.051,0.468
	c-0.438,0-0.792-0.152-1.064-0.458C86.637,129.774,86.502,129.397,86.502,128.948z M87.09,128.615c0,0.469,0.084,0.875,0.251,1.222
	c0.167,0.344,0.4,0.516,0.699,0.516c0.25,0,0.448-0.103,0.594-0.307c0.146-0.207,0.219-0.514,0.219-0.921
	c0-0.444-0.088-0.814-0.265-1.11s-0.409-0.443-0.699-0.443c-0.252,0-0.449,0.099-0.591,0.297
	C87.16,128.066,87.09,128.315,87.09,128.615z"/>
<path d="M89.848,126.062l0.082-0.117c1.099,0.744,1.649,1.704,1.649,2.879c0,1.213-0.557,2.158-1.671,2.838l-0.059-0.104
	c0.455-0.361,0.76-0.75,0.914-1.166c0.157-0.418,0.235-0.924,0.235-1.518c0-0.754-0.093-1.343-0.278-1.767
	C90.535,126.682,90.244,126.334,89.848,126.062z"/>
<path d="M179.765,132.254c-0.171,0-0.339-0.004-0.502-0.013l0.031-0.566c0.377,0.022,0.771,0.017,1.189-0.014l0.041,0.564
	C180.263,132.246,180.01,132.254,179.765,132.254z M178.004,132.078c-0.429-0.092-0.839-0.223-1.219-0.389l0.227-0.52
	c0.346,0.15,0.72,0.27,1.112,0.354L178.004,132.078z M181.768,132.074l-0.095-0.559c0.376-0.064,0.772-0.148,1.177-0.25l0.139,0.549
	C182.569,131.92,182.159,132.007,181.768,132.074z M184.185,131.47l-0.173-0.539c0.37-0.119,0.75-0.252,1.143-0.401l0.202,0.529
	C184.955,131.212,184.564,131.349,184.185,131.47z M175.67,131.045c-0.343-0.254-0.658-0.553-0.937-0.887l0.436-0.363
	c0.25,0.3,0.532,0.567,0.839,0.795L175.67,131.045z M186.504,130.592l-0.225-0.52c0.36-0.156,0.729-0.324,1.107-0.504l0.244,0.512
	C187.246,130.264,186.871,130.434,186.504,130.592z M174.024,129.087c-0.189-0.364-0.352-0.762-0.481-1.181l0.542-0.168
	c0.12,0.387,0.269,0.753,0.442,1.087L174.024,129.087z M173.262,126.671c-0.062-0.402-0.1-0.824-0.113-1.255l0.566-0.018
	c0.013,0.407,0.049,0.807,0.107,1.187L173.262,126.671z M173.74,124.203l-0.565-0.041c0.029-0.409,0.078-0.827,0.145-1.243
	l0.56,0.09C173.815,123.408,173.769,123.809,173.74,124.203z M174.119,121.828l-0.551-0.135c0.097-0.399,0.211-0.801,0.341-1.2
	l0.539,0.176C174.323,121.054,174.213,121.442,174.119,121.828z M174.862,119.534l-0.525-0.213c0.156-0.383,0.326-0.763,0.508-1.138
	l0.51,0.248C175.177,118.794,175.013,119.163,174.862,119.534z M175.922,117.367l-0.49-0.283c0.208-0.361,0.431-0.714,0.665-1.057
	l0.468,0.32C176.338,116.678,176.124,117.019,175.922,117.367z M177.282,115.378l-0.442-0.354c0.26-0.326,0.537-0.644,0.822-0.943
	l0.411,0.391C177.799,114.76,177.533,115.065,177.282,115.378z M178.937,113.639l-0.374-0.426c0.317-0.278,0.647-0.541,0.982-0.78
	l0.33,0.461C179.556,113.123,179.24,113.373,178.937,113.639z M180.883,112.253l-0.276-0.496c0.373-0.207,0.755-0.392,1.134-0.547
	l0.215,0.525C181.597,111.882,181.236,112.056,180.883,112.253z M183.082,111.359l-0.145-0.549c0.407-0.107,0.825-0.187,1.241-0.236
	l0.067,0.563C183.855,111.183,183.463,111.257,183.082,111.359z"/>
<polygon fill-rule="evenodd" clip-rule="evenodd" points="197.064,129.992 193.967,132.501 197.882,131.744 197.064,129.992 "/>
<path d="M193.517,132.711l3.592-2.91l0.948,2.031L193.517,132.711z M197.021,130.182l-2.603,2.109l3.29-0.637L197.021,130.182z"/>
<path d="M196.885,131.83l-0.346-0.449c3.766-2.892,5.488-6.386,4.848-9.839c-0.634-3.424-3.523-6.372-7.361-7.511
	c-4.341-1.288-8.756-0.007-12.108,3.52l-0.411-0.391c3.504-3.686,8.125-5.022,12.681-3.673c4.04,1.199,7.085,4.32,7.757,7.951
	C202.625,125.111,200.828,128.802,196.885,131.83z"/>
<polygon fill-rule="evenodd" clip-rule="evenodd" points="184.565,111.884 188.167,110.175 184.185,109.99 184.565,111.884 "/>
<path d="M184.478,112.059l-0.441-2.197l0.154,0.008l4.465,0.208L184.478,112.059z M184.333,110.118l0.32,1.592l3.026-1.437
	L184.333,110.118z"/>
<path d="M198.46,128.012h-8.576v-8.578h8.576V128.012z M190.335,127.561h7.674v-7.676h-7.674V127.561z"/>
<path d="M192.158,125.46c0.222-0.357,0.648-0.768,1.281-1.234c0.523-0.383,0.852-0.672,0.983-0.868
	c0.133-0.196,0.198-0.397,0.198-0.606c0-0.233-0.067-0.432-0.202-0.596c-0.132-0.166-0.332-0.25-0.599-0.25
	c-0.291,0-0.495,0.092-0.611,0.273c-0.116,0.184-0.175,0.451-0.175,0.806h-1.139v-0.167c0-0.502,0.158-0.938,0.473-1.309
	c0.317-0.37,0.789-0.556,1.416-0.556c0.55,0,1.018,0.156,1.4,0.468c0.384,0.311,0.575,0.754,0.575,1.334
	c0,0.394-0.095,0.737-0.285,1.031c-0.188,0.291-0.561,0.629-1.119,1.016c-0.61,0.423-0.975,0.726-1.091,0.908h2.495v1.012h-3.936
	C191.824,126.238,191.935,125.818,192.158,125.46z"/>
<path fill="#FFFFFF" d="M184.239,123.023c0,2.311-1.875,4.184-4.182,4.184c-2.311,0-4.184-1.873-4.184-4.184
	c0-2.307,1.873-4.18,4.184-4.18C182.364,118.843,184.239,120.716,184.239,123.023L184.239,123.023z"/>
<path d="M180.058,127.439c-2.435,0-4.416-1.981-4.416-4.416c0-2.433,1.981-4.412,4.416-4.412c2.434,0,4.414,1.979,4.414,4.412
	C184.472,125.458,182.492,127.439,180.058,127.439z M180.058,119.076c-2.179,0-3.951,1.771-3.951,3.947
	c0,2.179,1.772,3.951,3.951,3.951c2.178,0,3.949-1.772,3.949-3.951C184.007,120.846,182.235,119.076,180.058,119.076z"/>
<path d="M178.544,124.162c0.205-0.33,0.599-0.709,1.183-1.14c0.483-0.354,0.786-0.621,0.908-0.802s0.184-0.367,0.184-0.561
	c0-0.215-0.063-0.397-0.187-0.549c-0.122-0.154-0.307-0.23-0.553-0.23c-0.269,0-0.457,0.084-0.563,0.252
	c-0.108,0.169-0.161,0.416-0.161,0.744h-1.051v-0.154c0-0.464,0.145-0.867,0.436-1.209c0.293-0.342,0.729-0.512,1.307-0.512
	c0.508,0,0.938,0.144,1.292,0.432c0.354,0.285,0.531,0.695,0.531,1.23c0,0.363-0.088,0.682-0.264,0.952
	c-0.173,0.269-0.518,0.581-1.033,0.938c-0.564,0.391-0.9,0.67-1.007,0.839h2.304v0.934h-3.633
	C178.236,124.878,178.339,124.491,178.544,124.162z"/>
<rect x="184.585" y="120.094" transform="matrix(0.3188 0.9478 -0.9478 0.3188 240.6637 -92.7633)" width="0.567" height="1.912"/>
<rect x="188.835" y="124.094" transform="matrix(0.3188 0.9478 -0.9478 0.3188 247.35 -94.0668)" width="0.567" height="1.912"/>
<path d="M213.459,116.755h9.383v2.016h-3.5v9.484h-2.383v-9.484h-3.5V116.755z"/>
<path d="M222.602,131.612v-7.188h3.55c0.661,0,1.198,0.166,1.611,0.498c0.417,0.329,0.625,0.791,0.625,1.387
	c0,0.69-0.294,1.164-0.884,1.421c0.746,0.3,1.118,0.866,1.118,1.699c-0.049,0.729-0.292,1.276-0.728,1.641
	c-0.436,0.361-1.173,0.542-2.212,0.542H222.602z M224.091,127.227h1.782c0.713,0,1.069-0.269,1.069-0.806
	c0-0.491-0.371-0.737-1.113-0.737h-1.738V127.227z M224.091,130.352h1.88c0.775,0,1.162-0.34,1.162-1.021
	c0-0.603-0.365-0.903-1.094-0.903h-1.948V130.352z"/>
<path d="M215.706,149.107c-0.185,0.424-0.278,1.013-0.278,1.767c0,0.594,0.079,1.1,0.235,1.518c0.154,0.416,0.459,0.805,0.914,1.166
	l-0.059,0.104c-1.115-0.68-1.672-1.625-1.672-2.838c0-1.175,0.55-2.135,1.649-2.879l0.082,0.117
	C216.181,148.334,215.89,148.682,215.706,149.107z"/>
<path d="M217.759,148.558c0.013,0,0.023,0.007,0.029,0.02c0.007,0.011,0.01,0.045,0.01,0.102v0.768h0.679v0.215h-0.679v1.927
	c0,0.402,0.111,0.604,0.333,0.604c0.078,0,0.154-0.021,0.229-0.062c0.074-0.044,0.136-0.1,0.186-0.167l0.088,0.075
	c-0.074,0.133-0.184,0.249-0.33,0.35c-0.144,0.1-0.297,0.15-0.46,0.15c-0.405,0-0.607-0.292-0.607-0.875v-2.002h-0.284
	c-0.063,0-0.095-0.017-0.095-0.049c0-0.026,0.026-0.058,0.078-0.095c0.174-0.117,0.324-0.264,0.451-0.438
	C217.515,148.905,217.639,148.73,217.759,148.558z"/>
<path d="M218.823,150.948c0-0.441,0.131-0.813,0.392-1.113c0.263-0.3,0.61-0.45,1.042-0.45c0.466,0,0.833,0.141,1.1,0.421
	c0.27,0.279,0.405,0.652,0.405,1.12c0,0.45-0.139,0.833-0.418,1.146c-0.276,0.312-0.626,0.468-1.051,0.468
	c-0.438,0-0.792-0.152-1.064-0.458C218.958,151.774,218.823,151.397,218.823,150.948z M219.411,150.615
	c0,0.469,0.084,0.875,0.251,1.222c0.167,0.344,0.4,0.516,0.699,0.516c0.25,0,0.448-0.103,0.594-0.307
	c0.146-0.207,0.219-0.514,0.219-0.921c0-0.444-0.088-0.814-0.265-1.11s-0.409-0.443-0.699-0.443c-0.252,0-0.449,0.099-0.591,0.297
	C219.481,150.066,219.411,150.315,219.411,150.615z"/>
<path d="M230.527,148.062l0.082-0.117c1.099,0.744,1.649,1.704,1.649,2.879c0,1.213-0.557,2.158-1.671,2.838l-0.059-0.104
	c0.455-0.361,0.76-0.75,0.914-1.166c0.157-0.418,0.235-0.924,0.235-1.518c0-0.754-0.093-1.343-0.278-1.767
	C231.214,148.682,230.923,148.334,230.527,148.062z"/>
<polygon points="223.421,151.832 223.187,151.832 223.187,146.796 228.222,146.796 228.222,147.031 223.421,147.031 "/>
<path d="M250.867,157.39h-0.553v-0.623h0.553V157.39z M250.867,155.35h-0.553v-1.417h0.553V155.35z M250.867,152.515h-0.553v-1.417
	h0.553V152.515z M250.867,149.681h-0.553v-1.418h0.553V149.681z M250.867,146.846h-0.553v-1.417h0.553V146.846z M250.867,144.011
	h-0.553v-1.417h0.553V144.011z M250.867,141.177h-0.553v-1.418h0.553V141.177z M250.867,138.342h-0.553v-1.417h0.553V138.342z
	 M250.867,135.507h-0.553v-1.417h0.553V135.507z M250.867,132.673h-0.553v-1.418h0.553V132.673z M250.867,129.838h-0.553v-1.417
	h0.553V129.838z M250.867,127.003h-0.553v-1.417h0.553V127.003z M250.867,124.169h-0.553v-1.418h0.553V124.169z M250.867,121.334
	h-0.553v-1.417h0.553V121.334z M250.867,118.5h-0.553v-1.417h0.553V118.5z M250.867,115.666h-0.553v-1.418h0.553V115.666z
	 M250.867,112.831h-0.553v-1.417h0.553V112.831z M250.867,109.996h-0.553v-1.417h0.553V109.996z M250.867,107.162h-0.553v-1.418
	h0.553V107.162z M250.867,104.327h-0.553v-1.417h0.553V104.327z M250.867,101.492h-0.553v-1.417h0.553V101.492z M250.867,98.658
	h-0.553V97.24h0.553V98.658z M250.867,95.823h-0.553v-1.417h0.553V95.823z M250.867,92.988h-0.553v-1.417h0.553V92.988z"/>
<circle fill="#FFFFFF" cx="295.105" cy="127.737" r="6.696"/>
<path d="M295.105,134.716c-3.848,0-6.979-3.131-6.979-6.98c0-3.848,3.131-6.979,6.979-6.979c3.849,0,6.979,3.131,6.979,6.979
	C302.085,131.585,298.954,134.716,295.105,134.716z M295.105,121.324c-3.535,0-6.412,2.877-6.412,6.412
	c0,3.536,2.877,6.414,6.412,6.414c3.536,0,6.413-2.878,6.413-6.414C301.519,124.201,298.642,121.324,295.105,121.324z"/>
<circle fill="#FFFFFF" cx="285.644" cy="118.273" r="6.696"/>
<path d="M285.644,125.252c-3.849,0-6.979-3.131-6.979-6.979c0-3.849,3.131-6.979,6.979-6.979s6.979,3.131,6.979,6.979
	C292.623,122.122,289.492,125.252,285.644,125.252z M285.644,111.861c-3.536,0-6.413,2.877-6.413,6.413
	c0,3.535,2.877,6.412,6.413,6.412s6.413-2.877,6.413-6.412C292.057,114.738,289.18,111.861,285.644,111.861z"/>
<circle fill="#FFFFFF" cx="304.569" cy="137.2" r="6.696"/>
<path d="M304.569,144.179c-3.849,0-6.979-3.131-6.979-6.979c0-3.848,3.131-6.979,6.979-6.979s6.979,3.131,6.979,6.979
	C311.549,141.048,308.418,144.179,304.569,144.179z M304.569,130.788c-3.536,0-6.413,2.877-6.413,6.412
	c0,3.536,2.877,6.413,6.413,6.413s6.413-2.877,6.413-6.413C310.982,133.665,308.105,130.788,304.569,130.788z"/>
<rect x="272.379" y="127.454" transform="matrix(0.7071 0.7071 -0.7071 0.7071 176.7489 -171.2542)" width="45.452" height="0.566"/>
<path d="M294.62,101.259c0.221-0.357,0.648-0.768,1.281-1.234c0.523-0.383,0.852-0.672,0.982-0.868
	c0.133-0.196,0.199-0.397,0.199-0.606c0-0.233-0.068-0.432-0.203-0.596c-0.131-0.166-0.332-0.25-0.598-0.25
	c-0.291,0-0.496,0.092-0.611,0.273c-0.117,0.184-0.176,0.451-0.176,0.806h-1.139v-0.167c0-0.502,0.158-0.938,0.473-1.309
	c0.318-0.37,0.789-0.556,1.416-0.556c0.551,0,1.018,0.156,1.4,0.468c0.385,0.311,0.576,0.754,0.576,1.334
	c0,0.394-0.096,0.737-0.285,1.031c-0.189,0.291-0.561,0.629-1.119,1.016c-0.611,0.423-0.975,0.726-1.092,0.908h2.496v1.012h-3.936
	C294.286,102.037,294.397,101.617,294.62,101.259z"/>
<path fill="#FFFFFF" d="M310.337,100.056c0,2.311-1.875,4.184-4.182,4.184c-2.311,0-4.184-1.873-4.184-4.184
	c0-2.307,1.873-4.18,4.184-4.18C308.462,95.876,310.337,97.75,310.337,100.056L310.337,100.056z"/>
<path d="M306.155,104.472c-2.435,0-4.416-1.981-4.416-4.416c0-2.433,1.981-4.412,4.416-4.412c2.434,0,4.414,1.979,4.414,4.412
	C310.569,102.491,308.589,104.472,306.155,104.472z M306.155,96.109c-2.179,0-3.951,1.771-3.951,3.947
	c0,2.179,1.772,3.951,3.951,3.951c2.178,0,3.949-1.772,3.949-3.951C310.104,97.879,308.333,96.109,306.155,96.109z"/>
<path d="M305.385,100.711c0.02,0.61,0.276,0.915,0.77,0.915c0.236,0,0.429-0.072,0.575-0.219s0.219-0.355,0.219-0.627
	c0-0.264-0.094-0.455-0.281-0.574c-0.186-0.123-0.494-0.184-0.927-0.184v-0.747h0.169c0.583,0,0.875-0.231,0.875-0.696
	c0-0.207-0.062-0.375-0.184-0.505c-0.122-0.132-0.291-0.198-0.509-0.198c-0.479,0-0.72,0.286-0.726,0.857h-0.951
	c0-0.525,0.149-0.938,0.45-1.242c0.302-0.305,0.729-0.457,1.281-0.457c0.506,0,0.916,0.129,1.23,0.389
	c0.315,0.258,0.473,0.615,0.473,1.068c0,0.477-0.219,0.826-0.655,1.048c0.547,0.225,0.82,0.638,0.82,1.237
	c0,0.496-0.169,0.902-0.506,1.221c-0.334,0.314-0.783,0.472-1.348,0.472c-0.591,0-1.036-0.149-1.336-0.446
	c-0.301-0.301-0.465-0.738-0.491-1.312H305.385z"/>
<path d="M291.201,104.386h-8.828v-8.824h8.828V104.386z M282.838,103.921h7.898v-7.895h-7.898V103.921z"/>
<path d="M285.11,97.941c0.525,0,0.895-0.088,1.11-0.261c0.214-0.173,0.335-0.388,0.362-0.645h0.868v5.325h-1.052v-3.685h-1.289
	V97.941z"/>
<path d="M284.433,149.607c-0.186,0.424-0.278,1.013-0.278,1.767c0,0.594,0.079,1.1,0.235,1.518c0.154,0.416,0.459,0.805,0.914,1.166
	l-0.059,0.104c-1.115-0.68-1.672-1.625-1.672-2.838c0-1.175,0.55-2.135,1.648-2.879l0.082,0.117
	C284.907,148.834,284.616,149.182,284.433,149.607z"/>
<path d="M286.485,149.058c0.014,0,0.023,0.007,0.029,0.02c0.007,0.011,0.01,0.045,0.01,0.102v0.768h0.68v0.215h-0.68v1.927
	c0,0.402,0.111,0.604,0.334,0.604c0.078,0,0.154-0.021,0.229-0.062c0.073-0.044,0.135-0.1,0.186-0.167l0.088,0.075
	c-0.074,0.133-0.184,0.249-0.33,0.35c-0.143,0.1-0.297,0.15-0.46,0.15c-0.405,0-0.607-0.292-0.607-0.875v-2.002h-0.284
	c-0.063,0-0.094-0.017-0.094-0.049c0-0.026,0.025-0.058,0.078-0.095c0.174-0.117,0.324-0.264,0.45-0.438
	C286.241,149.405,286.366,149.23,286.485,149.058z"/>
<path d="M287.55,151.448c0-0.441,0.131-0.813,0.393-1.113c0.263-0.3,0.609-0.45,1.041-0.45c0.466,0,0.832,0.141,1.1,0.421
	c0.271,0.279,0.405,0.652,0.405,1.12c0,0.45-0.14,0.833-0.418,1.146c-0.276,0.312-0.626,0.468-1.052,0.468
	c-0.438,0-0.791-0.152-1.063-0.458C287.685,152.274,287.55,151.897,287.55,151.448z M288.138,151.115
	c0,0.469,0.084,0.875,0.252,1.222c0.167,0.344,0.4,0.516,0.698,0.516c0.25,0,0.448-0.103,0.595-0.307
	c0.145-0.207,0.219-0.514,0.219-0.921c0-0.444-0.089-0.814-0.266-1.11c-0.176-0.296-0.408-0.443-0.698-0.443
	c-0.253,0-0.449,0.099-0.591,0.297C288.208,150.566,288.138,150.815,288.138,151.115z"/>
<path d="M293.381,150.667c0.745-0.229,1.116-0.605,1.116-1.133c0-0.193-0.068-0.356-0.205-0.489s-0.314-0.199-0.532-0.199
	c-0.425,0-0.755,0.231-0.993,0.695l-0.098-0.026c0.117-0.342,0.282-0.604,0.493-0.79c0.214-0.187,0.485-0.28,0.816-0.28
	c0.317,0,0.569,0.085,0.754,0.254c0.185,0.17,0.278,0.392,0.278,0.663c0,0.349-0.207,0.654-0.621,0.918
	c0.564,0.215,0.846,0.63,0.846,1.243c0,0.477-0.173,0.854-0.52,1.13c-0.346,0.276-0.783,0.415-1.313,0.415
	c-0.204,0-0.379-0.032-0.525-0.095c-0.146-0.063-0.219-0.161-0.219-0.294c0-0.159,0.09-0.238,0.268-0.238
	c0.09,0,0.234,0.065,0.435,0.195c0.196,0.129,0.358,0.193,0.489,0.193c0.253,0,0.461-0.093,0.624-0.278
	c0.165-0.187,0.248-0.438,0.248-0.751c0-0.417-0.171-0.72-0.513-0.907c-0.163-0.092-0.348-0.137-0.552-0.137h-0.268L293.381,150.667
	z"/>
<path d="M295.829,152.976v-0.102c0.104-0.009,0.188-0.034,0.252-0.078c0.063-0.046,0.141-0.139,0.234-0.28l0.754-1.091l-0.627-0.982
	c-0.117-0.177-0.207-0.286-0.271-0.33s-0.14-0.065-0.229-0.065h-0.071v-0.101h1.387v0.101c-0.193,0-0.29,0.052-0.29,0.153
	c0,0.067,0.13,0.306,0.392,0.715c0.004-0.006,0.102-0.145,0.294-0.414c0.057-0.085,0.096-0.149,0.117-0.192
	c0.024-0.044,0.036-0.08,0.036-0.108c0-0.039-0.019-0.071-0.056-0.098c-0.034-0.026-0.104-0.045-0.209-0.056v-0.101h1.055v0.101
	c-0.224,0-0.409,0.108-0.556,0.323l-0.538,0.784l0.826,1.276c0.185,0.291,0.376,0.439,0.575,0.443v0.102h-1.343v-0.102
	c0.175,0,0.261-0.055,0.261-0.166c0-0.041-0.036-0.122-0.11-0.242l-0.528-0.815l-0.533,0.852c-0.08,0.124-0.12,0.208-0.12,0.252
	c0,0.08,0.088,0.12,0.265,0.12v0.102H295.829z"/>
<path d="M299.604,153.897l-0.06-0.128c0.203-0.128,0.347-0.253,0.432-0.375s0.127-0.225,0.127-0.307
	c0-0.039-0.008-0.065-0.022-0.079c-0.015-0.015-0.038-0.022-0.069-0.022c-0.015,0-0.037,0.004-0.068,0.013
	c-0.029,0.007-0.061,0.01-0.091,0.01c-0.138,0-0.241-0.028-0.313-0.084c-0.072-0.057-0.107-0.143-0.107-0.259
	c0-0.115,0.034-0.209,0.104-0.28c0.072-0.072,0.167-0.107,0.285-0.107c0.158,0,0.287,0.058,0.389,0.173
	c0.1,0.113,0.149,0.265,0.149,0.453c0,0.198-0.083,0.398-0.248,0.602C299.946,153.706,299.777,153.835,299.604,153.897z"/>
<path d="M303.257,152.466h1.57c0.166,0,0.291-0.033,0.379-0.101c0.087-0.069,0.173-0.18,0.258-0.33l0.092,0.033l-0.369,0.907h-2.586
	v-0.088l1.169-1.261c0.579-0.624,0.868-1.202,0.868-1.733c0-0.287-0.08-0.518-0.242-0.692c-0.16-0.176-0.391-0.264-0.691-0.264
	c-0.215,0-0.399,0.069-0.552,0.208c-0.152,0.138-0.285,0.356-0.398,0.656l-0.144-0.032c0.07-0.39,0.225-0.707,0.463-0.953
	c0.242-0.248,0.559-0.372,0.951-0.372c0.33,0,0.611,0.116,0.842,0.349c0.23,0.233,0.346,0.52,0.346,0.859
	c0,0.498-0.309,1.074-0.927,1.727L303.257,152.466z"/>
<path d="M305.858,152.976v-0.102c0.105-0.009,0.189-0.034,0.252-0.078c0.063-0.046,0.142-0.139,0.234-0.28l0.755-1.091l-0.627-0.982
	c-0.118-0.177-0.208-0.286-0.271-0.33c-0.063-0.044-0.14-0.065-0.229-0.065h-0.072v-0.101h1.388v0.101
	c-0.194,0-0.29,0.052-0.29,0.153c0,0.067,0.13,0.306,0.391,0.715c0.005-0.006,0.103-0.145,0.295-0.414
	c0.057-0.085,0.096-0.149,0.117-0.192c0.023-0.044,0.035-0.08,0.035-0.108c0-0.039-0.018-0.071-0.055-0.098
	c-0.035-0.026-0.105-0.045-0.209-0.056v-0.101h1.055v0.101c-0.225,0-0.41,0.108-0.556,0.323l-0.538,0.784l0.826,1.276
	c0.185,0.291,0.376,0.439,0.574,0.443v0.102h-1.342v-0.102c0.174,0,0.261-0.055,0.261-0.166c0-0.041-0.036-0.122-0.11-0.242
	l-0.529-0.815l-0.532,0.852c-0.081,0.124-0.12,0.208-0.12,0.252c0,0.08,0.088,0.12,0.264,0.12v0.102H305.858z"/>
<path d="M309.633,153.897l-0.06-0.128c0.203-0.128,0.347-0.253,0.432-0.375s0.127-0.225,0.127-0.307
	c0-0.039-0.008-0.065-0.022-0.079c-0.015-0.015-0.038-0.022-0.069-0.022c-0.015,0-0.037,0.004-0.068,0.013
	c-0.029,0.007-0.061,0.01-0.091,0.01c-0.138,0-0.241-0.028-0.313-0.084c-0.072-0.057-0.107-0.143-0.107-0.259
	c0-0.115,0.034-0.209,0.104-0.28c0.072-0.072,0.167-0.107,0.285-0.107c0.158,0,0.287,0.058,0.389,0.173
	c0.1,0.113,0.149,0.265,0.149,0.453c0,0.198-0.083,0.398-0.248,0.602C309.976,153.706,309.807,153.835,309.633,153.897z"/>
<path d="M313.159,149.072l1.201-0.627l0.055,0.013v4.022c0,0.15,0.037,0.255,0.111,0.313c0.074,0.057,0.25,0.085,0.529,0.085v0.098
	h-1.854v-0.098c0.251-0.009,0.419-0.046,0.506-0.111c0.089-0.065,0.134-0.203,0.134-0.415v-3.017c0-0.128-0.021-0.212-0.063-0.251
	c-0.039-0.041-0.093-0.063-0.162-0.063c-0.055,0-0.113,0.013-0.174,0.036c-0.061,0.022-0.155,0.059-0.283,0.111V149.072z"/>
<path d="M315.888,152.976v-0.102c0.105-0.009,0.189-0.034,0.252-0.078c0.063-0.046,0.142-0.139,0.234-0.28l0.755-1.091l-0.627-0.982
	c-0.118-0.177-0.208-0.286-0.271-0.33c-0.063-0.044-0.14-0.065-0.229-0.065h-0.072v-0.101h1.388v0.101
	c-0.194,0-0.29,0.052-0.29,0.153c0,0.067,0.13,0.306,0.391,0.715c0.005-0.006,0.103-0.145,0.295-0.414
	c0.057-0.085,0.096-0.149,0.117-0.192c0.023-0.044,0.035-0.08,0.035-0.108c0-0.039-0.018-0.071-0.055-0.098
	c-0.035-0.026-0.105-0.045-0.209-0.056v-0.101h1.055v0.101c-0.225,0-0.41,0.108-0.556,0.323l-0.538,0.784l0.826,1.276
	c0.185,0.291,0.376,0.439,0.574,0.443v0.102h-1.342v-0.102c0.174,0,0.261-0.055,0.261-0.166c0-0.041-0.036-0.122-0.11-0.242
	l-0.529-0.815l-0.532,0.852c-0.081,0.124-0.12,0.208-0.12,0.252c0,0.08,0.088,0.12,0.264,0.12v0.102H315.888z"/>
<path d="M319.313,148.562l0.081-0.117c1.099,0.744,1.649,1.704,1.649,2.879c0,1.213-0.558,2.158-1.672,2.838l-0.059-0.104
	c0.455-0.361,0.76-0.75,0.914-1.166c0.156-0.418,0.234-0.924,0.234-1.518c0-0.754-0.092-1.343-0.277-1.767
	C319.999,149.182,319.709,148.834,319.313,148.562z"/>
<rect x="340.384" y="91.603" width="1.102" height="65.377"/>
<path d="M357.96,117.755h9.383v2.016h-3.5v9.484h-2.383v-9.484h-3.5V117.755z"/>
<path d="M367.102,132.612v-7.188h3.55c0.66,0,1.197,0.166,1.611,0.498c0.416,0.329,0.625,0.791,0.625,1.387
	c0,0.69-0.295,1.164-0.884,1.421c0.745,0.3,1.118,0.866,1.118,1.699c-0.049,0.729-0.291,1.276-0.728,1.641
	c-0.437,0.361-1.173,0.542-2.212,0.542H367.102z M368.591,128.227h1.782c0.713,0,1.069-0.269,1.069-0.806
	c0-0.491-0.371-0.737-1.113-0.737h-1.738V128.227z M368.591,131.352h1.88c0.774,0,1.162-0.34,1.162-1.021
	c0-0.603-0.364-0.903-1.094-0.903h-1.948V131.352z"/>
<path d="M373.791,126.196h0.127c0.696,0,1.073-0.234,1.128-0.703h0.85v4.307h-1.011v-2.979h-1.094V126.196z M374.899,132.758
	l4.292-7.246h0.786l-4.292,7.246H374.899z M378.698,131.523c0.225-0.271,0.514-0.52,0.869-0.747c0.332-0.215,0.57-0.4,0.713-0.557
	c0.146-0.159,0.22-0.366,0.22-0.62c0-0.13-0.056-0.242-0.166-0.337s-0.251-0.142-0.42-0.142c-0.41,0-0.625,0.229-0.645,0.688h-0.884
	c0-0.442,0.119-0.801,0.356-1.074s0.624-0.41,1.157-0.41c0.476,0,0.854,0.129,1.138,0.386c0.283,0.254,0.425,0.583,0.425,0.986
	c0,0.3-0.071,0.557-0.215,0.771s-0.342,0.41-0.596,0.586c-0.257,0.176-0.471,0.322-0.64,0.439c-0.166,0.114-0.293,0.22-0.381,0.317
	h1.846v0.82h-3.14C378.356,132.16,378.478,131.79,378.698,131.523z"/>
<path d="M440.1,108.107c0.524,0,0.895-0.088,1.11-0.261c0.214-0.173,0.335-0.388,0.361-0.645h0.869v5.325h-1.052v-3.685H440.1
	V108.107z"/>
<path d="M440.104,133.939c0.525,0,0.895-0.086,1.109-0.26s0.336-0.389,0.363-0.645h0.867v5.324h-1.051v-3.684h-1.289V133.939z"/>
<path fill="#FFFFFF" d="M426.081,130.64c0,2.309-1.875,4.182-4.182,4.182c-2.311,0-4.184-1.873-4.184-4.182s1.873-4.182,4.184-4.182
	C424.206,126.458,426.081,128.332,426.081,130.64L426.081,130.64z"/>
<path d="M421.899,135.054c-2.435,0-4.416-1.98-4.416-4.414s1.981-4.414,4.416-4.414c2.434,0,4.414,1.98,4.414,4.414
	S424.333,135.054,421.899,135.054z M421.899,126.691c-2.179,0-3.951,1.771-3.951,3.949s1.772,3.949,3.951,3.949
	c2.178,0,3.949-1.771,3.949-3.949S424.077,126.691,421.899,126.691z"/>
<path d="M420.386,131.778c0.205-0.329,0.6-0.709,1.183-1.14c0.483-0.354,0.786-0.621,0.908-0.801
	c0.122-0.182,0.184-0.367,0.184-0.561c0-0.215-0.063-0.398-0.187-0.549c-0.123-0.154-0.307-0.231-0.554-0.231
	c-0.269,0-0.456,0.085-0.563,0.253s-0.161,0.416-0.161,0.743h-1.052v-0.153c0-0.465,0.146-0.867,0.437-1.209
	c0.293-0.342,0.729-0.513,1.308-0.513c0.508,0,0.938,0.144,1.292,0.433c0.354,0.285,0.531,0.695,0.531,1.23
	c0,0.363-0.088,0.681-0.264,0.951c-0.173,0.27-0.518,0.582-1.032,0.938c-0.564,0.391-0.9,0.67-1.008,0.84h2.304v0.934h-3.633
	C420.078,132.496,420.181,132.107,420.386,131.778z"/>
<path d="M426.066,120.561h-8.576v-8.578h8.576V120.561z M417.941,120.11h7.674v-7.676h-7.674V120.11z"/>
<path d="M419.765,118.009c0.221-0.357,0.648-0.769,1.281-1.234c0.523-0.383,0.852-0.673,0.982-0.869
	c0.133-0.195,0.199-0.397,0.199-0.606c0-0.233-0.068-0.431-0.203-0.595c-0.131-0.167-0.332-0.25-0.598-0.25
	c-0.291,0-0.496,0.091-0.611,0.273c-0.117,0.183-0.176,0.451-0.176,0.805h-1.139v-0.166c0-0.502,0.158-0.939,0.473-1.309
	c0.318-0.371,0.789-0.557,1.416-0.557c0.551,0,1.018,0.156,1.4,0.469c0.385,0.31,0.576,0.754,0.576,1.333
	c0,0.394-0.096,0.737-0.285,1.032c-0.189,0.291-0.561,0.629-1.119,1.016c-0.611,0.422-0.975,0.725-1.092,0.908h2.496v1.012h-3.936
	C419.431,118.787,419.542,118.367,419.765,118.009z"/>
<rect x="402.29" y="112.125" fill="#FFFFFF" width="8.125" height="8.127"/>
<path d="M410.641,120.477h-8.576v-8.578h8.576V120.477z M402.516,120.026h7.674v-7.676h-7.674V120.026z"/>
<path d="M405.144,117.402c0.021,0.66,0.299,0.991,0.832,0.991c0.258,0,0.465-0.079,0.623-0.237c0.16-0.159,0.238-0.386,0.238-0.68
	c0-0.285-0.102-0.492-0.305-0.622c-0.201-0.132-0.535-0.198-1.004-0.198v-0.81h0.182c0.633,0,0.949-0.251,0.949-0.754
	c0-0.225-0.066-0.407-0.199-0.548c-0.131-0.143-0.316-0.214-0.551-0.214c-0.52,0-0.781,0.31-0.785,0.929h-1.031
	c0-0.568,0.162-1.018,0.486-1.346c0.328-0.33,0.791-0.496,1.389-0.496c0.549,0,0.992,0.141,1.334,0.422
	c0.342,0.279,0.512,0.666,0.512,1.158c0,0.516-0.236,0.894-0.711,1.135c0.594,0.242,0.889,0.689,0.889,1.34
	c0,0.537-0.182,0.979-0.547,1.322c-0.363,0.34-0.85,0.512-1.459,0.512c-0.641,0-1.123-0.162-1.449-0.484
	c-0.324-0.326-0.502-0.799-0.531-1.42H405.144z"/>
<path fill="#FFFFFF" d="M410.655,130.306c0,2.311-1.875,4.184-4.182,4.184c-2.311,0-4.184-1.873-4.184-4.184
	c0-2.307,1.873-4.18,4.184-4.18C408.78,126.126,410.655,128,410.655,130.306L410.655,130.306z"/>
<path d="M406.474,134.722c-2.435,0-4.416-1.981-4.416-4.416c0-2.433,1.981-4.412,4.416-4.412c2.434,0,4.414,1.979,4.414,4.412
	C410.888,132.741,408.907,134.722,406.474,134.722z M406.474,126.359c-2.179,0-3.951,1.771-3.951,3.947
	c0,2.179,1.772,3.951,3.951,3.951c2.178,0,3.949-1.772,3.949-3.951C410.423,128.129,408.651,126.359,406.474,126.359z"/>
<path d="M405.703,130.961c0.02,0.61,0.276,0.915,0.77,0.915c0.236,0,0.429-0.072,0.575-0.219s0.219-0.355,0.219-0.627
	c0-0.264-0.094-0.455-0.281-0.574c-0.186-0.123-0.494-0.184-0.927-0.184v-0.747h0.169c0.583,0,0.875-0.231,0.875-0.696
	c0-0.207-0.062-0.375-0.184-0.505c-0.122-0.132-0.291-0.198-0.509-0.198c-0.479,0-0.72,0.286-0.726,0.857h-0.951
	c0-0.525,0.149-0.938,0.45-1.242c0.302-0.305,0.729-0.457,1.281-0.457c0.506,0,0.916,0.129,1.23,0.389
	c0.315,0.258,0.473,0.615,0.473,1.068c0,0.477-0.219,0.826-0.655,1.048c0.547,0.225,0.82,0.638,0.82,1.237
	c0,0.496-0.169,0.902-0.506,1.221c-0.334,0.314-0.783,0.472-1.348,0.472c-0.591,0-1.036-0.149-1.336-0.446
	c-0.301-0.301-0.465-0.738-0.491-1.312H405.703z"/>
<rect x="410.353" y="115.823" width="1.912" height="0.566"/>
<rect x="425.978" y="115.948" width="1.912" height="0.566"/>
<rect x="410.478" y="130.323" width="1.912" height="0.566"/>
<rect x="426.228" y="130.448" width="1.912" height="0.566"/>
<path d="M435.094,119.962c-0.157,0-0.317-0.001-0.479-0.004l0.008-0.426c0.484,0.008,0.949,0.003,1.404-0.014l0.016,0.426
	C435.733,119.957,435.417,119.962,435.094,119.962z M433.188,119.897c-0.461-0.031-0.935-0.072-1.421-0.126l0.047-0.422
	c0.48,0.052,0.948,0.093,1.403,0.124L433.188,119.897z M437.47,119.846l-0.043-0.424c0.476-0.048,0.941-0.113,1.387-0.192
	l0.074,0.418C438.433,119.73,437.956,119.796,437.47,119.846z M440.288,119.337l-0.109-0.41c0.458-0.123,0.905-0.268,1.326-0.428
	l0.152,0.396C441.222,119.062,440.761,119.211,440.288,119.337z M442.971,118.308l-0.197-0.377c0.416-0.217,0.814-0.46,1.186-0.721
	l0.244,0.348C443.817,117.83,443.402,118.083,442.971,118.308z M445.322,116.64l-0.295-0.307c0.333-0.319,0.643-0.666,0.921-1.031
	l0.338,0.258C445.995,115.943,445.671,116.306,445.322,116.64z M447.064,114.336l-0.377-0.197c0.214-0.405,0.396-0.832,0.543-1.271
	l0.402,0.135C447.479,113.463,447.288,113.912,447.064,114.336z M447.984,111.597l-0.42-0.07c0.076-0.449,0.119-0.913,0.129-1.38
	l0.426,0.01C448.108,110.643,448.063,111.128,447.984,111.597z M447.623,108.763c-0.057-0.461-0.145-0.919-0.263-1.361l0.41-0.109
	c0.123,0.461,0.216,0.938,0.274,1.42L447.623,108.763z M405.548,108.318l-0.338-0.258c0.285-0.374,0.595-0.744,0.919-1.102
	l0.314,0.285C406.127,107.592,405.826,107.954,405.548,108.318z M407.427,106.247l-0.291-0.311c0.341-0.318,0.704-0.635,1.08-0.939
	l0.268,0.33C408.115,105.625,407.76,105.934,407.427,106.247z M446.911,106.088c-0.181-0.432-0.394-0.847-0.63-1.234l0.363-0.221
	c0.247,0.405,0.469,0.839,0.659,1.289L446.911,106.088z M409.604,104.483l-0.244-0.348c0.385-0.27,0.787-0.533,1.196-0.784
	l0.223,0.363C410.376,103.96,409.98,104.219,409.604,104.483z M445.472,103.736c-0.306-0.356-0.638-0.68-0.986-0.96l0.266-0.332
	c0.37,0.298,0.721,0.639,1.043,1.015L445.472,103.736z M411.997,103.017l-0.201-0.375c0.41-0.22,0.84-0.436,1.276-0.641l0.182,0.385
	C412.823,102.588,412.4,102.8,411.997,103.017z M443.333,102.013c-0.389-0.22-0.808-0.431-1.248-0.628l0.174-0.389
	c0.452,0.203,0.884,0.421,1.283,0.647L443.333,102.013z M414.542,101.82l-0.162-0.393c0.438-0.181,0.882-0.352,1.333-0.513
	l0.143,0.4C415.412,101.474,414.974,101.643,414.542,101.82z M417.192,100.869l-0.127-0.406c0.453-0.142,0.91-0.273,1.371-0.397
	l0.109,0.41C418.091,100.597,417.64,100.729,417.192,100.869z M440.785,100.858c-0.433-0.158-0.881-0.306-1.333-0.438l0.121-0.408
	c0.46,0.136,0.917,0.286,1.358,0.448L440.785,100.858z M419.915,100.134l-0.096-0.414c0.463-0.106,0.929-0.203,1.396-0.293
	l0.08,0.418C420.832,99.933,420.372,100.03,419.915,100.134z M438.094,100.055c-0.448-0.108-0.907-0.207-1.377-0.298l0.082-0.418
	c0.476,0.093,0.94,0.193,1.395,0.302L438.094,100.055z M422.685,99.604l-0.064-0.42c0.469-0.072,0.939-0.139,1.41-0.196l0.053,0.422
	C423.616,99.467,423.149,99.532,422.685,99.604z M435.33,99.519c-0.459-0.068-0.925-0.13-1.397-0.183l0.047-0.422
	c0.479,0.053,0.95,0.114,1.413,0.185L435.33,99.519z M425.484,99.261l-0.037-0.424c0.474-0.042,0.947-0.076,1.42-0.103l0.023,0.424
	C426.424,99.185,425.954,99.219,425.484,99.261z M432.529,99.207c-0.465-0.035-0.934-0.063-1.408-0.081l0.018-0.426
	c0.479,0.021,0.953,0.048,1.422,0.083L432.529,99.207z M428.301,99.103l-0.012-0.426c0.362-0.01,0.724-0.014,1.083-0.014
	l0.343,0.001l-0.004,0.426l-0.339-0.001C429.017,99.089,428.659,99.093,428.301,99.103z"/>
<polygon fill-rule="evenodd" clip-rule="evenodd" points="405.092,107.593 404.515,110.09 406.189,108.156 405.092,107.593 "/>
<path d="M404.22,110.67l0.765-3.309l1.454,0.745L404.22,110.67z M405.199,107.825l-0.39,1.686l1.131-1.306L405.199,107.825z"/>
<polygon points="406.459,126.205 405.984,126.091 406.652,123.317 405.919,120.474 406.392,120.353 407.154,123.313 "/>
<polygon points="422.209,126.33 421.734,126.216 422.402,123.442 421.669,120.599 422.142,120.478 422.904,123.438 "/>
<path d="M422.292,109.356l-0.391-0.166c0.188-0.445,0.39-0.882,0.596-1.299l0.381,0.189
	C422.676,108.49,422.479,108.918,422.292,109.356z M423.546,106.85l-0.365-0.217c0.249-0.419,0.514-0.823,0.787-1.2l0.344,0.25
	C424.046,106.049,423.788,106.442,423.546,106.85z M425.188,104.603l-0.314-0.287c0.328-0.36,0.676-0.698,1.033-1.004l0.277,0.322
	C425.84,103.929,425.505,104.255,425.188,104.603z M427.296,102.806l-0.23-0.357c0.4-0.259,0.824-0.494,1.261-0.7l0.182,0.385
	C428.089,102.332,427.681,102.558,427.296,102.806z M429.798,101.614l-0.135-0.402c0.439-0.148,0.904-0.279,1.382-0.391l0.096,0.414
	C430.677,101.343,430.226,101.47,429.798,101.614z M432.516,100.973l-0.064-0.42c0.446-0.068,0.923-0.126,1.419-0.171l0.039,0.424
	C433.422,100.85,432.953,100.907,432.516,100.973z M435.313,100.709l-0.02-0.424c0.462-0.022,0.937-0.035,1.423-0.042l0.006,0.426
	C436.24,100.676,435.771,100.689,435.313,100.709z M439.547,100.701c-0.481-0.015-0.953-0.024-1.413-0.03l0.006-0.426
	c0.462,0.006,0.936,0.016,1.421,0.03L439.547,100.701z"/>
<polygon fill-rule="evenodd" clip-rule="evenodd" points="422.405,107.482 421.949,110.005 423.528,107.993 422.405,107.482 "/>
<path d="M421.683,110.598l0.604-3.342l1.487,0.676L421.683,110.598z M422.523,107.708l-0.308,1.704l1.066-1.358L422.523,107.708z"/>
<path d="M429.958,148.107c-9.226,0-19.477-2.952-24.407-9.628l0.342-0.252c7.916,10.718,29.771,11.685,38.466,6.196
	c3.188-2.012,4.683-6.788,3.335-10.649c-1.723-4.931-7.322-7.254-15.379-6.372l-0.047-0.422c11.74-1.289,14.979,4.225,15.827,6.654
	c1.409,4.036-0.165,9.038-3.51,11.148C441.176,146.934,435.771,148.107,429.958,148.107z"/>
<polygon fill-rule="evenodd" clip-rule="evenodd" points="405.592,139.158 405.015,136.661 406.689,138.595 405.592,139.158 "/>
<path d="M405.484,139.389l-0.765-3.309l2.219,2.563L405.484,139.389z M405.31,137.241l0.39,1.686l0.741-0.38L405.31,137.241z"/>
<path d="M438.038,146.506c-8.16,0-12.57-1.716-15.637-8.945l0.391-0.166c3.333,7.855,8.324,9.014,18.297,8.62l0.016,0.426
	C440.027,146.483,439.006,146.506,438.038,146.506z"/>
<polygon fill-rule="evenodd" clip-rule="evenodd" points="422.905,139.269 422.449,136.746 424.028,138.758 422.905,139.269 "/>
<path d="M422.787,139.495l-0.604-3.342l2.092,2.666L422.787,139.495z M422.716,137.339l0.308,1.704l0.759-0.346L422.716,137.339z"/>
<rect x="374.134" y="26.353" width="1.102" height="65.377"/>
<path d="M462.367,92.14h-0.553v-0.623h0.553V92.14z M462.367,90.1h-0.553v-1.417h0.553V90.1z M462.367,87.266h-0.553v-1.417h0.553
	V87.266z M462.367,84.431h-0.553v-1.417h0.553V84.431z M462.367,81.596h-0.553v-1.417h0.553V81.596z M462.367,78.762h-0.553v-1.417
	h0.553V78.762z M462.367,75.927h-0.553V74.51h0.553V75.927z M462.367,73.092h-0.553v-1.417h0.553V73.092z M462.367,70.258h-0.553
	V68.84h0.553V70.258z M462.367,67.423h-0.553v-1.417h0.553V67.423z M462.367,64.588h-0.553v-1.417h0.553V64.588z M462.367,61.754
	h-0.553v-1.417h0.553V61.754z M462.367,58.919h-0.553v-1.417h0.553V58.919z M462.367,56.084h-0.553v-1.417h0.553V56.084z
	 M462.367,53.25h-0.553v-1.417h0.553V53.25z M462.367,50.415h-0.553v-1.417h0.553V50.415z M462.367,47.581h-0.553v-1.417h0.553
	V47.581z M462.367,44.746h-0.553v-1.417h0.553V44.746z M462.367,41.911h-0.553v-1.417h0.553V41.911z M462.367,39.077h-0.553v-1.417
	h0.553V39.077z M462.367,36.242h-0.553v-1.417h0.553V36.242z M462.367,33.407h-0.553V31.99h0.553V33.407z M462.367,30.573h-0.553
	v-1.417h0.553V30.573z M462.367,27.738h-0.553v-1.417h0.553V27.738z"/>
<rect x="108.81" y="115.365" width="1.912" height="0.566"/>
<rect x="108.435" y="129.365" width="1.912" height="0.566"/>
<rect x="108.56" y="143.49" width="1.912" height="0.566"/>
<rect x="122.81" y="143.49" width="1.912" height="0.566"/>
<rect x="123.185" y="129.365" width="1.912" height="0.566"/>
<rect x="122.81" y="115.365" width="1.912" height="0.566"/>
<rect x="120.31" y="44.114" width="1.912" height="0.567"/>
<rect x="119.935" y="58.114" width="1.912" height="0.567"/>
<rect x="120.06" y="72.239" width="1.912" height="0.567"/>
<rect x="164.31" y="72.239" width="1.912" height="0.567"/>
<rect x="164.685" y="58.114" width="1.912" height="0.567"/>
<rect x="164.31" y="44.114" width="1.912" height="0.567"/>
<rect x="230.044" y="77.379" width="0.567" height="1.912"/>
<rect x="248.795" y="77.754" width="0.566" height="1.912"/>
<rect x="266.42" y="77.629" width="0.566" height="1.912"/>
<rect x="266.42" y="36.629" width="0.566" height="1.912"/>
<rect x="248.795" y="36.254" width="0.566" height="1.912"/>
<rect x="230.044" y="36.629" width="0.567" height="1.912"/>
</svg>
