<?xml version="1.0" standalone="no"?>
<!DOCTYPE svg PUBLIC "-//W3C//DTD SVG 1.1//EN"
"http://www.w3.org/Graphics/SVG/1.1/DTD/svg11.dtd">
<!-- Creator: fig2dev Version 3.2 Patchlevel 5d -->
<!-- CreationDate: Thu Feb 21 11:03:26 2013 -->
<!-- Magnification: 1.050 -->
<svg	xmlns="http://www.w3.org/2000/svg"
	xmlns:xlink="http://www.w3.org/1999/xlink"
	viewBox="-23 -23 6140 2975">
<g style="stroke-width:.025in; fill:none">
<!-- Text -->
<text xml:space="preserve" x="472" y="1039" fill="#000000"  font-family="Helvetica" font-style="normal" font-weight="bold" font-size="227" text-anchor="middle">S</text>
<!-- Circle -->
<circle cx="614" cy="2452" r="94"
 style="stroke:#000000;stroke-width:16;"/>
<!-- Line -->
<polyline points="614,2031
614,2078
" style="stroke:#000000;stroke-width:16;
stroke-linejoin:miter; stroke-linecap:butt;
"/>
<!-- Line -->
<polyline points="708,1937
803,1937
" style="stroke:#000000;stroke-width:16;
stroke-linejoin:miter; stroke-linecap:butt;
fill:#000000;
"/>
<!-- Line: box -->
<rect x="519" y="1842" width="188" height="188" rx="0" 
style="stroke:#000000;stroke-width:16;
stroke-linejoin:miter; stroke-linecap:butt;
"/>
<!-- Line: box -->
<rect x="803" y="1842" width="188" height="188" rx="0" 
style="stroke:#000000;stroke-width:16;
stroke-linejoin:miter; stroke-linecap:butt;
"/>
<!-- Line -->
<polyline points="897,2031
897,2078
" style="stroke:#000000;stroke-width:16;
stroke-linejoin:miter; stroke-linecap:butt;
"/>
<!-- Line -->
<polyline points="614,2362
614,2314
" style="stroke:#000000;stroke-width:16;
stroke-linejoin:miter; stroke-linecap:butt;
"/>
<!-- Line -->
<polyline points="708,2456
803,2456
" style="stroke:#000000;stroke-width:16;
stroke-linejoin:miter; stroke-linecap:butt;
fill:#000000;
"/>
<!-- Line -->
<polyline points="897,2362
897,2314
" style="stroke:#000000;stroke-width:16;
stroke-linejoin:miter; stroke-linecap:butt;
"/>
<!-- Text -->
<text xml:space="preserve" x="755" y="2314" fill="#000000"  font-family="Helvetica" font-style="normal" font-weight="bold" font-size="227" text-anchor="middle">S</text>
<!-- Text -->
<text xml:space="preserve" x="614" y="1984" fill="#000000"  font-family="Helvetica" font-style="normal" font-weight="bold" font-size="114" text-anchor="middle">2</text>
<!-- Text -->
<text xml:space="preserve" x="897" y="1984" fill="#000000"  font-family="Helvetica" font-style="normal" font-weight="bold" font-size="114" text-anchor="middle">1</text>
<!-- Text -->
<text xml:space="preserve" x="897" y="2503" fill="#000000"  font-family="Helvetica" font-style="normal" font-weight="bold" font-size="114" text-anchor="middle">1</text>
<!-- Text -->
<text xml:space="preserve" x="614" y="2503" fill="#000000"  font-family="Helvetica" font-style="normal" font-weight="bold" font-size="114" text-anchor="middle">2</text>
<!-- Line -->
<polyline points="1748,2031
1748,2078
" style="stroke:#000000;stroke-width:16;
stroke-linejoin:miter; stroke-linecap:butt;
"/>
<!-- Line -->
<polyline points="1464,2078
1464,2031
" style="stroke:#000000;stroke-width:16;
stroke-linejoin:miter; stroke-linecap:butt;
"/>
<!-- Line: box -->
<rect x="1370" y="1842" width="188" height="188" rx="0" 
style="stroke:#000000;stroke-width:16;
stroke-linejoin:miter; stroke-linecap:butt;
"/>
<!-- Line: box -->
<rect x="1653" y="1842" width="188" height="188" rx="0" 
style="stroke:#000000;stroke-width:16;
stroke-linejoin:miter; stroke-linecap:butt;
"/>
<!-- Line -->
<polyline points="1464,2078
1466,2081
1470,2087
1478,2095
1488,2106
1500,2117
1512,2127
1526,2135
1541,2142
1558,2149
1576,2153
1598,2157
1614,2159
1632,2161
1652,2163
1673,2164
1695,2165
1718,2165
1743,2165
1769,2164
1794,2163
1819,2161
1844,2158
1868,2154
1891,2150
1913,2145
1933,2139
1951,2133
1968,2125
1984,2118
1997,2109
2010,2099
2020,2088
2031,2076
2039,2064
2047,2050
2053,2036
2058,2022
2061,2007
2065,1993
2067,1979
2067,1965
2067,1951
2066,1939
2064,1927
2061,1916
2058,1906
2055,1898
2049,1885
2041,1876
2033,1868
2023,1862
2009,1856
1994,1851
1979,1848
1963,1845
1998,1848
" style="stroke:#000000;stroke-width:16;
stroke-linejoin:bevel; stroke-linecap:butt;
stroke-dasharray:20 20;"/>
<!-- Arrowhead on XXXpoint 1963 1845 - 1905 1838-->
<polygon points="1981 1815
1914 1839
1972 1878
1981 1815

" style="stroke:#000000;stroke-width:8;stroke-miterlimit:8;
fill:#000000;"/>
<!-- Line -->
<polyline points="1748,2078
1752,2079
1759,2080
1772,2082
1787,2083
1806,2086
1824,2087
1842,2087
1857,2086
1870,2082
1881,2078
1890,2072
1899,2065
1905,2055
1910,2043
1916,2029
1920,2013
1923,1995
1925,1976
1927,1955
1927,1934
1926,1912
1924,1891
1920,1870
1916,1851
1910,1834
1904,1817
1898,1803
1890,1791
1882,1780
1872,1771
1862,1761
1850,1753
1838,1745
1824,1739
1809,1733
1794,1728
1778,1723
1762,1719
1745,1716
1729,1714
1711,1712
1694,1710
1677,1709
1658,1707
1640,1706
1620,1704
1601,1704
1580,1703
1559,1703
1537,1703
1514,1703
1493,1704
1472,1704
1453,1707
1433,1708
1416,1710
1399,1711
1383,1714
1370,1716
1355,1719
1341,1723
1328,1728
1316,1733
1304,1738
1295,1743
1286,1750
1278,1756
1272,1762
1268,1770
1264,1776
1261,1782
1259,1788
1259,1795
1260,1803
1264,1813
1269,1823
1276,1835
1287,1848
1298,1862
1280,1842
" style="stroke:#000000;stroke-width:16;
stroke-linejoin:bevel; stroke-linecap:butt;
stroke-dasharray:20 20;"/>
<!-- Arrowhead on XXXpoint 1298 1862 - 1342 1912-->
<polygon points="1270 1878
1336 1905
1318 1837
1270 1878

" style="stroke:#000000;stroke-width:8;stroke-miterlimit:8;
fill:#000000;"/>
<!-- Text -->
<text xml:space="preserve" x="1748" y="1984" fill="#000000"  font-family="Helvetica" font-style="normal" font-weight="bold" font-size="114" text-anchor="middle">1</text>
<!-- Text -->
<text xml:space="preserve" x="1464" y="1984" fill="#000000"  font-family="Helvetica" font-style="normal" font-weight="bold" font-size="114" text-anchor="middle">2</text>
<!-- Circle -->
<circle cx="1464" cy="2456" r="94"
 style="stroke:#000000;stroke-width:16;"/>
<!-- Circle -->
<circle cx="1748" cy="2456" r="94"
 style="stroke:#000000;stroke-width:16;"/>
<!-- Line -->
<polyline points="1748,2362
1748,2314
" style="stroke:#000000;stroke-width:16;
stroke-linejoin:miter; stroke-linecap:butt;
"/>
<!-- Line -->
<polyline points="1464,2314
1464,2362
" style="stroke:#000000;stroke-width:16;
stroke-linejoin:miter; stroke-linecap:butt;
"/>
<!-- Line -->
<polyline points="1453,2313
1451,2313
1447,2312
1437,2310
1420,2308
1400,2306
1380,2305
1361,2306
1345,2308
1332,2311
1321,2318
1312,2327
1304,2338
1299,2350
1295,2364
1291,2380
1288,2397
1286,2416
1285,2437
1285,2458
1286,2480
1288,2501
1291,2522
1296,2541
1301,2559
1308,2576
1315,2591
1321,2602
1330,2613
1339,2622
1350,2632
1361,2640
1374,2647
1387,2654
1402,2660
1418,2665
1434,2669
1449,2674
1466,2677
1483,2679
1501,2681
1518,2683
1535,2685
1553,2686
1571,2687
1591,2688
1611,2688
1632,2689
1653,2689
1675,2689
1697,2689
1718,2688
1739,2688
1759,2686
1779,2685
1796,2683
1813,2682
1828,2679
1842,2677
1857,2674
1870,2669
1884,2665
1896,2660
1907,2655
1917,2649
1926,2643
1933,2637
1940,2630
1944,2623
1948,2617
1950,2611
1952,2604
1952,2598
1951,2590
1948,2580
1943,2570
1935,2558
1925,2544
1913,2531
1930,2550
" style="stroke:#000000;stroke-width:16;
stroke-linejoin:bevel; stroke-linecap:butt;
"/>
<!-- Arrowhead on XXXpoint 1913 2531 - 1868 2479-->
<polygon points="1940 2513
1875 2487
1892 2554
1940 2513

" style="stroke:#000000;stroke-width:8;stroke-miterlimit:8;
fill:#000000;"/>
<!-- Line -->
<polyline points="1748,2314
1745,2311
1741,2306
1734,2298
1723,2287
1712,2276
1699,2266
1686,2258
1671,2250
1654,2244
1635,2240
1614,2236
1597,2234
1580,2232
1560,2229
1539,2228
1517,2227
1493,2227
1468,2227
1443,2228
1418,2229
1393,2232
1367,2235
1343,2239
1320,2243
1298,2247
1278,2254
1260,2260
1244,2267
1228,2276
1214,2284
1202,2293
1191,2305
1181,2317
1172,2329
1165,2343
1159,2356
1153,2371
1150,2386
1147,2400
1145,2414
1145,2428
1145,2441
1146,2454
1148,2466
1150,2477
1153,2487
1158,2496
1163,2508
1170,2517
1179,2524
1189,2531
1203,2537
1217,2541
1233,2544
1249,2548
1212,2543
" style="stroke:#000000;stroke-width:16;
stroke-linejoin:bevel; stroke-linecap:butt;
"/>
<!-- Arrowhead on XXXpoint 1249 2548 - 1306 2554-->
<polygon points="1230 2577
1296 2553
1236 2514
1230 2577

" style="stroke:#000000;stroke-width:8;stroke-miterlimit:8;
fill:#000000;"/>
<!-- Text -->
<text xml:space="preserve" x="1748" y="2503" fill="#000000"  font-family="Helvetica" font-style="normal" font-weight="bold" font-size="114" text-anchor="middle">1</text>
<!-- Text -->
<text xml:space="preserve" x="1464" y="2503" fill="#000000"  font-family="Helvetica" font-style="normal" font-weight="bold" font-size="114" text-anchor="middle">2</text>
<!-- Circle -->
<circle cx="3543" cy="2314" r="236"
 style="stroke:#000000;stroke-width:16;"/>
<!-- Line -->
<polyline points="3779,2314
3779,2551
" style="stroke:#000000;stroke-width:16;
stroke-linejoin:miter; stroke-linecap:butt;
fill:#000000;
"/>
<!-- Text -->
<text xml:space="preserve" x="3543" y="2409" fill="#000000"  font-family="Helvetica" font-style="normal" font-weight="bold" font-size="227" text-anchor="middle">4</text>
<!-- Line -->
<polyline points="3401,1889
3307,1889
" style="stroke:#000000;stroke-width:8;
stroke-linejoin:miter; stroke-linecap:butt;
"/>
<!-- Line -->
<polyline points="3779,1889
3685,1889
" style="stroke:#000000;stroke-width:8;
stroke-linejoin:miter; stroke-linecap:butt;
"/>
<!-- Text -->
<text xml:space="preserve" x="3543" y="1937" fill="#000000"  font-family="Helvetica" font-style="normal" font-weight="bold" font-size="114" text-anchor="middle">1 2</text>
<!-- Line -->
<polyline points="4535,1889
4440,1889
" style="stroke:#000000;stroke-width:8;
stroke-linejoin:miter; stroke-linecap:butt;
"/>
<!-- Line -->
<polyline points="4913,1889
4818,1889
" style="stroke:#000000;stroke-width:8;
stroke-linejoin:miter; stroke-linecap:butt;
"/>
<!-- Text -->
<text xml:space="preserve" x="4677" y="1937" fill="#000000"  font-family="Helvetica" font-style="normal" font-weight="bold" font-size="114" text-anchor="middle">1 2</text>
<!-- Text -->
<text xml:space="preserve" x="4677" y="2409" fill="#000000"  font-family="Helvetica" font-style="normal" font-weight="bold" font-size="227" text-anchor="middle">P</text>
<!-- Circle -->
<circle cx="5338" cy="1039" r="236"
 style="stroke:#000000;stroke-width:16;"/>
<!-- Line -->
<polyline points="5102,1039
5102,1275
" style="stroke:#000000;stroke-width:16;
stroke-linejoin:miter; stroke-linecap:butt;
fill:#000000;
"/>
<!-- Text -->
<text xml:space="preserve" x="5338" y="1133" fill="#000000"  font-family="Helvetica" font-style="normal" font-weight="bold" font-size="227" text-anchor="middle">4</text>
<!-- Line -->
<polyline points="5196,614
5102,614
" style="stroke:#000000;stroke-width:8;
stroke-linejoin:miter; stroke-linecap:butt;
"/>
<!-- Line -->
<polyline points="5574,614
5480,614
" style="stroke:#000000;stroke-width:8;
stroke-linejoin:miter; stroke-linecap:butt;
"/>
<!-- Text -->
<text xml:space="preserve" x="5338" y="661" fill="#000000"  font-family="Helvetica" font-style="normal" font-weight="bold" font-size="114" text-anchor="middle">1 3</text>
<!-- Circle -->
<circle cx="2929" cy="1181" r="94"
 style="stroke:#000000;stroke-width:16;"/>
<!-- Circle -->
<circle cx="2645" cy="1176" r="94"
 style="stroke:#000000;stroke-width:16;"/>
<!-- Line -->
<polyline points="2645,755
2645,803
" style="stroke:#000000;stroke-width:16;
stroke-linejoin:miter; stroke-linecap:butt;
"/>
<!-- Line -->
<polyline points="2740,661
2834,661
" style="stroke:#000000;stroke-width:16;
stroke-linejoin:miter; stroke-linecap:butt;
fill:#000000;
"/>
<!-- Line: box -->
<rect x="2551" y="566" width="188" height="188" rx="0" 
style="stroke:#000000;stroke-width:16;
stroke-linejoin:miter; stroke-linecap:butt;
"/>
<!-- Line: box -->
<rect x="2834" y="566" width="188" height="188" rx="0" 
style="stroke:#000000;stroke-width:16;
stroke-linejoin:miter; stroke-linecap:butt;
"/>
<!-- Line -->
<polyline points="2929,755
2929,803
" style="stroke:#000000;stroke-width:16;
stroke-linejoin:miter; stroke-linecap:butt;
"/>
<!-- Line -->
<polyline points="2645,1086
2645,1039
" style="stroke:#000000;stroke-width:16;
stroke-linejoin:miter; stroke-linecap:butt;
"/>
<!-- Line -->
<polyline points="2740,1181
2834,1181
" style="stroke:#000000;stroke-width:16;
stroke-linejoin:miter; stroke-linecap:butt;
fill:#000000;
"/>
<!-- Line -->
<polyline points="2929,1086
2929,1039
" style="stroke:#000000;stroke-width:16;
stroke-linejoin:miter; stroke-linecap:butt;
"/>
<!-- Text -->
<text xml:space="preserve" x="2787" y="1039" fill="#000000"  font-family="Helvetica" font-style="normal" font-weight="bold" font-size="227" text-anchor="middle">S</text>
<!-- Text -->
<text xml:space="preserve" x="2645" y="708" fill="#000000"  font-family="Helvetica" font-style="normal" font-weight="bold" font-size="114" text-anchor="middle">3</text>
<!-- Text -->
<text xml:space="preserve" x="2929" y="708" fill="#000000"  font-family="Helvetica" font-style="normal" font-weight="bold" font-size="114" text-anchor="middle">1</text>
<!-- Text -->
<text xml:space="preserve" x="2929" y="1228" fill="#000000"  font-family="Helvetica" font-style="normal" font-weight="bold" font-size="114" text-anchor="middle">1</text>
<!-- Text -->
<text xml:space="preserve" x="2645" y="1228" fill="#000000"  font-family="Helvetica" font-style="normal" font-weight="bold" font-size="114" text-anchor="middle">3</text>
<!-- Circle -->
<circle cx="3496" cy="1181" r="94"
 style="stroke:#000000;stroke-width:16;"/>
<!-- Circle -->
<circle cx="3779" cy="1181" r="94"
 style="stroke:#000000;stroke-width:16;"/>
<!-- Line -->
<polyline points="3779,1086
3779,1039
" style="stroke:#000000;stroke-width:16;
stroke-linejoin:miter; stroke-linecap:butt;
"/>
<!-- Line -->
<polyline points="3496,1039
3496,1086
" style="stroke:#000000;stroke-width:16;
stroke-linejoin:miter; stroke-linecap:butt;
"/>
<!-- Line -->
<polyline points="3791,1038
3792,1038
3796,1037
3806,1035
3823,1033
3843,1030
3863,1029
3882,1030
3898,1033
3911,1036
3922,1042
3931,1051
3939,1062
3944,1075
3948,1088
3952,1104
3955,1122
3958,1141
3959,1162
3959,1183
3958,1205
3955,1226
3952,1247
3947,1266
3942,1283
3935,1300
3929,1315
3922,1327
3913,1337
3904,1346
3893,1356
3882,1364
3869,1372
3856,1378
3841,1384
3825,1390
3809,1394
3794,1398
3777,1401
3760,1403
3742,1405
3725,1407
3709,1409
3690,1411
3672,1412
3652,1413
3632,1413
3611,1414
3590,1414
3568,1414
3546,1414
3525,1413
3504,1413
3484,1411
3464,1409
3447,1407
3430,1406
3415,1403
3401,1401
3386,1398
3373,1394
3359,1390
3348,1384
3336,1379
3327,1374
3317,1367
3310,1361
3303,1355
3299,1348
3295,1341
3293,1335
3291,1329
3291,1322
3292,1314
3295,1304
3300,1294
3308,1282
3318,1269
3330,1255
3312,1274
" style="stroke:#000000;stroke-width:16;
stroke-linejoin:bevel; stroke-linecap:butt;
"/>
<!-- Arrowhead on XXXpoint 3330 1255 - 3374 1204-->
<polygon points="3350 1279
3367 1211
3302 1238
3350 1279

" style="stroke:#000000;stroke-width:8;stroke-miterlimit:8;
fill:#000000;"/>
<!-- Line -->
<polyline points="3496,1039
3498,1036
3502,1030
3509,1022
3520,1012
3531,1000
3544,991
3558,982
3572,975
3589,969
3608,964
3630,960
3646,958
3664,956
3683,954
3704,953
3727,952
3750,952
3775,952
3800,953
3825,954
3850,956
3876,959
3900,963
3923,967
3945,972
3965,978
3983,984
4000,992
4015,1000
4029,1008
4041,1018
4052,1029
4062,1041
4071,1054
4078,1067
4085,1081
4090,1096
4093,1110
4096,1124
4098,1139
4098,1152
4098,1166
4097,1179
4095,1190
4093,1202
4090,1211
4087,1220
4080,1232
4073,1241
4065,1249
4054,1255
4040,1261
4026,1266
4010,1269
3994,1272
4030,1268
" style="stroke:#000000;stroke-width:16;
stroke-linejoin:bevel; stroke-linecap:butt;
"/>
<!-- Arrowhead on XXXpoint 3994 1272 - 3937 1278-->
<polygon points="4005 1238
3946 1277
4011 1301
4005 1238

" style="stroke:#000000;stroke-width:8;stroke-miterlimit:8;
fill:#000000;"/>
<!-- Text -->
<text xml:space="preserve" x="3779" y="1228" fill="#000000"  font-family="Helvetica" font-style="normal" font-weight="bold" font-size="114" text-anchor="middle">1</text>
<!-- Text -->
<text xml:space="preserve" x="3496" y="1228" fill="#000000"  font-family="Helvetica" font-style="normal" font-weight="bold" font-size="114" text-anchor="middle">3</text>
<!-- Line -->
<polyline points="3779,755
3779,803
" style="stroke:#000000;stroke-width:16;
stroke-linejoin:miter; stroke-linecap:butt;
"/>
<!-- Line -->
<polyline points="3496,803
3496,755
" style="stroke:#000000;stroke-width:16;
stroke-linejoin:miter; stroke-linecap:butt;
"/>
<!-- Line: box -->
<rect x="3401" y="566" width="188" height="188" rx="0" 
style="stroke:#000000;stroke-width:16;
stroke-linejoin:miter; stroke-linecap:butt;
"/>
<!-- Line: box -->
<rect x="3685" y="566" width="188" height="188" rx="0" 
style="stroke:#000000;stroke-width:16;
stroke-linejoin:miter; stroke-linecap:butt;
"/>
<!-- Line -->
<polyline points="3496,803
3491,804
3484,805
3471,807
3456,808
3437,810
3419,811
3401,811
3386,810
3373,807
3362,803
3353,796
3344,789
3338,780
3333,767
3328,753
3323,738
3320,720
3318,701
3316,680
3316,659
3317,637
3319,616
3323,595
3328,576
3333,558
3339,541
3346,528
3353,515
3361,504
3371,495
3381,486
3393,477
3405,470
3419,464
3434,457
3449,452
3465,448
3481,444
3498,440
3514,438
3532,436
3549,434
3567,433
3585,431
3603,430
3623,429
3643,429
3664,428
3685,428
3707,428
3729,428
3750,429
3771,429
3791,431
3811,432
3827,434
3844,435
3860,438
3874,440
3888,444
3902,448
3916,452
3927,457
3939,462
3948,468
3958,474
3965,480
3971,487
3975,494
3980,500
3982,507
3984,513
3984,519
3983,528
3980,537
3974,548
3967,559
3956,573
3945,586
3962,566
" style="stroke:#000000;stroke-width:16;
stroke-linejoin:bevel; stroke-linecap:butt;
stroke-dasharray:20 20;"/>
<!-- Arrowhead on XXXpoint 3945 586 - 3900 637-->
<polygon points="3924 562
3906 630
3971 604
3924 562

" style="stroke:#000000;stroke-width:8;stroke-miterlimit:8;
fill:#000000;"/>
<!-- Line -->
<polyline points="3779,803
3777,806
3773,811
3765,819
3755,830
3743,841
3731,851
3717,859
3702,867
3686,873
3667,877
3646,881
3629,883
3611,886
3591,888
3570,889
3548,890
3525,890
3500,890
3475,889
3449,888
3424,886
3399,882
3375,878
3352,874
3330,870
3310,864
3292,857
3275,850
3259,843
3246,833
3233,824
3223,812
3212,801
3204,788
3196,774
3190,761
3185,746
3182,731
3179,718
3176,703
3176,689
3176,676
3177,663
3180,651
3182,640
3185,630
3189,622
3194,609
3202,600
3210,593
3220,586
3234,580
3249,576
3265,573
3280,570
3244,573
" style="stroke:#000000;stroke-width:16;
stroke-linejoin:bevel; stroke-linecap:butt;
stroke-dasharray:20 20;"/>
<!-- Arrowhead on XXXpoint 3280 570 - 3337 562-->
<polygon points="3269 602
3328 563
3260 539
3269 602

" style="stroke:#000000;stroke-width:8;stroke-miterlimit:8;
fill:#000000;"/>
<!-- Text -->
<text xml:space="preserve" x="3779" y="708" fill="#000000"  font-family="Helvetica" font-style="normal" font-weight="bold" font-size="114" text-anchor="middle">1</text>
<!-- Text -->
<text xml:space="preserve" x="3496" y="708" fill="#000000"  font-family="Helvetica" font-style="normal" font-weight="bold" font-size="114" text-anchor="middle">3</text>
<!-- Text -->
<text xml:space="preserve" x="3354" y="1606" fill="#000000"  font-family="Helvetica" font-style="normal" font-weight="normal" font-size="126" text-anchor="middle">- SET AND LINK -</text>
<!-- Arc -->
<path style="stroke:#000000;stroke-width:16;stroke-linecap:butt;"
d="M 755,944 A 94 94  0  0  1  944  944 " />
<!-- Arrowhead on XXXpoint 938 910 - 944 944-->
<polygon points="907 913
943 939
969 902
907 913

" style="stroke:#000000;stroke-width:8;stroke-miterlimit:8;
fill:#000000;"/>
<!-- Text -->
<text xml:space="preserve" x="850" y="992" fill="#000000"  font-family="Helvetica" font-style="normal" font-weight="bold" font-size="114" text-anchor="middle">2</text>
<!-- Text -->
<text xml:space="preserve" x="1700" y="1086" fill="#000000"  font-family="Helvetica" font-style="normal" font-weight="bold" font-size="152" text-anchor="middle">R</text>
<!-- Text -->
<text xml:space="preserve" x="1559" y="1039" fill="#000000"  font-family="Helvetica" font-style="normal" font-weight="bold" font-size="227" text-anchor="middle">T</text>
<!-- Line -->
<polyline points="0,377
6094,377
" style="stroke:#000000;stroke-width:16;
stroke-linejoin:miter; stroke-linecap:butt;
"/>
<!-- Line -->
<polyline points="0,1653
6094,1653
" style="stroke:#000000;stroke-width:16;
stroke-linejoin:miter; stroke-linecap:butt;
"/>
<!-- Line -->
<polyline points="2787,1653
2787,2929
" style="stroke:#000000;stroke-width:16;
stroke-linejoin:miter; stroke-linecap:butt;
stroke-dasharray:62 62;"/>
<!-- Line -->
<polyline points="4157,1653
4157,2929
" style="stroke:#000000;stroke-width:16;
stroke-linejoin:miter; stroke-linecap:butt;
"/>
<!-- Line: box -->
<rect x="0" y="0" width="6094" height="2929" rx="0" 
style="stroke:#000000;stroke-width:16;
stroke-linejoin:miter; stroke-linecap:butt;
"/>
<!-- Line -->
<polyline points="4629,377
4629,1653
" style="stroke:#000000;stroke-width:16;
stroke-linejoin:miter; stroke-linecap:butt;
stroke-dasharray:62 62;"/>
<!-- Line -->
<polyline points="2078,377
2078,1653
" style="stroke:#000000;stroke-width:16;
stroke-linejoin:miter; stroke-linecap:butt;
"/>
<!-- Line -->
<polyline points="1228,377
1228,1653
" style="stroke:#000000;stroke-width:16;
stroke-linejoin:miter; stroke-linecap:butt;
stroke-dasharray:62 62;"/>
<!-- Text -->
<text xml:space="preserve" x="6000" y="283" fill="#000000"  font-family="Helvetica" font-style="normal" font-weight="normal" font-size="227" text-anchor="end">J32</text>
<!-- Text -->
<text xml:space="preserve" x="141" y="283" fill="#000000"  font-family="Helvetica" font-style="normal" font-weight="normal" font-size="227" text-anchor="start">Blackadder Jig</text>
<!-- Text -->
<text xml:space="preserve" x="5196" y="283" fill="#000000"  font-family="Helvetica" font-style="normal" font-weight="normal" font-size="177" text-anchor="end">M Johnstone</text>
<!-- Text -->
<text xml:space="preserve" x="1322" y="2881" fill="#000000"  font-family="Helvetica" font-style="normal" font-weight="normal" font-size="126" text-anchor="middle">- SET AND REVERSED LINK -</text>
<!-- Circle -->
<circle cx="897" cy="2456" r="94"
 style="stroke:#000000;stroke-width:16;"/>
</g>
</svg>
