<?xml version="1.0" standalone="no"?>
<!DOCTYPE svg PUBLIC "-//W3C//DTD SVG 1.1//EN"
"http://www.w3.org/Graphics/SVG/1.1/DTD/svg11.dtd">
<!-- Creator: fig2dev Version 3.2 Patchlevel 5d -->
<!-- CreationDate: Thu Feb 21 11:04:04 2013 -->
<!-- Magnification: 1.050 -->
<svg	xmlns="http://www.w3.org/2000/svg"
	xmlns:xlink="http://www.w3.org/1999/xlink"
	viewBox="-23 -23 6140 3542">
<g style="stroke-width:.025in; fill:none">
<!-- Text -->
<text xml:space="preserve" x="6000" y="283" fill="#000000"  font-family="Helvetica" font-style="normal" font-weight="normal" font-size="227" text-anchor="end">S2x32+R2x32</text>
<!-- Text -->
<text xml:space="preserve" x="472" y="1228" fill="#000000"  font-family="Helvetica" font-style="normal" font-weight="bold" font-size="114" text-anchor="middle">2</text>
<!-- Line: box -->
<rect x="944" y="1086" width="188" height="188" rx="0" 
style="stroke:#000000;stroke-width:16;
stroke-linejoin:miter; stroke-linecap:butt;
"/>
<!-- Text -->
<text xml:space="preserve" x="1039" y="1228" fill="#000000"  font-family="Helvetica" font-style="normal" font-weight="bold" font-size="114" text-anchor="middle">4</text>
<!-- Line: box -->
<rect x="661" y="1086" width="188" height="188" rx="0" 
style="stroke:#000000;stroke-width:16;
stroke-linejoin:miter; stroke-linecap:butt;
"/>
<!-- Text -->
<text xml:space="preserve" x="755" y="1228" fill="#000000"  font-family="Helvetica" font-style="normal" font-weight="bold" font-size="114" text-anchor="middle">3</text>
<!-- Circle -->
<circle cx="188" cy="1181" r="94"
 style="stroke:#000000;stroke-width:16;"/>
<!-- Text -->
<text xml:space="preserve" x="188" y="1228" fill="#000000"  font-family="Helvetica" font-style="normal" font-weight="bold" font-size="114" text-anchor="middle">1</text>
<!-- Line: box -->
<rect x="377" y="661" width="188" height="188" rx="0" 
style="stroke:#000000;stroke-width:16;
stroke-linejoin:miter; stroke-linecap:butt;
"/>
<!-- Text -->
<text xml:space="preserve" x="472" y="803" fill="#000000"  font-family="Helvetica" font-style="normal" font-weight="bold" font-size="114" text-anchor="middle">2</text>
<!-- Line: box -->
<rect x="94" y="661" width="188" height="188" rx="0" 
style="stroke:#000000;stroke-width:16;
stroke-linejoin:miter; stroke-linecap:butt;
"/>
<!-- Text -->
<text xml:space="preserve" x="188" y="803" fill="#000000"  font-family="Helvetica" font-style="normal" font-weight="bold" font-size="114" text-anchor="middle">1</text>
<!-- Circle -->
<circle cx="755" cy="755" r="94"
 style="stroke:#000000;stroke-width:16;"/>
<!-- Text -->
<text xml:space="preserve" x="755" y="803" fill="#000000"  font-family="Helvetica" font-style="normal" font-weight="bold" font-size="114" text-anchor="middle">3</text>
<!-- Circle -->
<circle cx="1039" cy="755" r="94"
 style="stroke:#000000;stroke-width:16;"/>
<!-- Text -->
<text xml:space="preserve" x="1039" y="803" fill="#000000"  font-family="Helvetica" font-style="normal" font-weight="bold" font-size="114" text-anchor="middle">4</text>
<!-- Circle -->
<circle cx="3968" cy="897" r="94"
 style="stroke:#000000;stroke-width:16;"/>
<!-- Text -->
<text xml:space="preserve" x="3968" y="944" fill="#000000"  font-family="Helvetica" font-style="normal" font-weight="bold" font-size="114" text-anchor="middle">4</text>
<!-- Circle -->
<circle cx="3685" cy="897" r="94"
 style="stroke:#000000;stroke-width:16;"/>
<!-- Text -->
<text xml:space="preserve" x="3685" y="944" fill="#000000"  font-family="Helvetica" font-style="normal" font-weight="bold" font-size="114" text-anchor="middle">1</text>
<!-- Line: box -->
<rect x="3307" y="519" width="188" height="188" rx="0" 
style="stroke:#000000;stroke-width:16;
stroke-linejoin:miter; stroke-linecap:butt;
"/>
<!-- Text -->
<text xml:space="preserve" x="3401" y="661" fill="#000000"  font-family="Helvetica" font-style="normal" font-weight="bold" font-size="114" text-anchor="middle">2</text>
<!-- Circle -->
<circle cx="3401" cy="1181" r="94"
 style="stroke:#000000;stroke-width:16;"/>
<!-- Text -->
<text xml:space="preserve" x="3401" y="1228" fill="#000000"  font-family="Helvetica" font-style="normal" font-weight="bold" font-size="114" text-anchor="middle">2</text>
<!-- Line: box -->
<rect x="3023" y="803" width="188" height="188" rx="0" 
style="stroke:#000000;stroke-width:16;
stroke-linejoin:miter; stroke-linecap:butt;
"/>
<!-- Text -->
<text xml:space="preserve" x="3118" y="944" fill="#000000"  font-family="Helvetica" font-style="normal" font-weight="bold" font-size="114" text-anchor="middle">1</text>
<!-- Circle -->
<circle cx="4251" cy="614" r="94"
 style="stroke:#000000;stroke-width:16;"/>
<!-- Text -->
<text xml:space="preserve" x="4251" y="661" fill="#000000"  font-family="Helvetica" font-style="normal" font-weight="bold" font-size="114" text-anchor="middle">3</text>
<!-- Line: box -->
<rect x="4157" y="1086" width="188" height="188" rx="0" 
style="stroke:#000000;stroke-width:16;
stroke-linejoin:miter; stroke-linecap:butt;
"/>
<!-- Text -->
<text xml:space="preserve" x="4251" y="1228" fill="#000000"  font-family="Helvetica" font-style="normal" font-weight="bold" font-size="114" text-anchor="middle">3</text>
<!-- Line: box -->
<rect x="4440" y="803" width="188" height="188" rx="0" 
style="stroke:#000000;stroke-width:16;
stroke-linejoin:miter; stroke-linecap:butt;
"/>
<!-- Text -->
<text xml:space="preserve" x="4535" y="944" fill="#000000"  font-family="Helvetica" font-style="normal" font-weight="bold" font-size="114" text-anchor="middle">4</text>
<!-- Line -->
<polyline points="3212,897
3215,898
3223,901
3236,908
3255,915
3279,925
3308,938
3338,952
3371,966
3402,981
3432,995
3459,1008
3484,1021
3506,1033
3526,1044
3543,1055
3558,1065
3570,1075
3581,1084
3590,1095
3600,1106
3608,1119
3614,1132
3619,1145
3623,1159
3624,1173
3624,1187
3622,1201
3619,1214
3615,1228
3610,1240
3604,1252
3597,1264
3590,1273
3583,1282
3574,1291
3566,1298
3558,1306
3548,1313
3538,1319
3527,1324
3514,1330
3502,1334
3489,1337
3476,1340
3461,1342
3446,1343
3432,1343
3417,1343
3401,1342
3385,1340
3370,1338
3353,1335
3336,1332
3317,1327
3298,1321
3278,1316
3258,1309
3238,1301
3218,1293
3200,1285
3181,1276
3164,1267
3148,1257
3133,1248
3122,1238
3111,1229
3102,1220
3092,1207
3086,1193
3083,1179
3083,1162
3085,1142
3090,1120
3097,1097
3104,1075
3096,1097
" style="stroke:#000000;stroke-width:16;
stroke-linejoin:bevel; stroke-linecap:butt;
stroke-dasharray:20 20;"/>
<!-- Arrowhead on XXXpoint 3104 1075 - 3128 1008-->
<polygon points="3132 1086
3125 1017
3074 1065
3132 1086

" style="stroke:#000000;stroke-width:8;stroke-miterlimit:8;
fill:#000000;"/>
<!-- Line -->
<polyline points="4062,897
4066,898
4073,901
4087,908
4106,915
4130,925
4158,938
4188,952
4221,966
4253,981
4282,995
4309,1008
4334,1021
4356,1033
4376,1044
4393,1055
4408,1065
4420,1075
4431,1084
4440,1095
4450,1106
4458,1119
4465,1132
4470,1145
4473,1159
4474,1173
4474,1187
4472,1201
4470,1214
4466,1228
4460,1240
4454,1252
4448,1264
4440,1273
4433,1282
4425,1291
4416,1298
4408,1306
4398,1313
4388,1319
4377,1324
4365,1330
4352,1334
4340,1337
4326,1340
4311,1342
4297,1343
4282,1343
4267,1343
4251,1342
4236,1340
4220,1338
4203,1335
4186,1332
4167,1327
4149,1321
4129,1316
4109,1309
4089,1301
4069,1293
4050,1285
4031,1276
4014,1267
3998,1257
3984,1248
3972,1238
3962,1229
3952,1220
3943,1207
3937,1193
3933,1179
3933,1162
3935,1142
3941,1120
3947,1097
3954,1075
3946,1097
" style="stroke:#000000;stroke-width:16;
stroke-linejoin:bevel; stroke-linecap:butt;
"/>
<!-- Arrowhead on XXXpoint 3954 1075 - 3979 1008-->
<polygon points="3983 1086
3975 1017
3924 1065
3983 1086

" style="stroke:#000000;stroke-width:8;stroke-miterlimit:8;
fill:#000000;"/>
<!-- Line -->
<polyline points="3590,897
3587,896
3580,893
3566,887
3547,879
3523,869
3495,856
3464,843
3432,828
3400,813
3371,800
3343,786
3318,773
3296,762
3276,750
3259,740
3245,729
3232,720
3222,710
3212,701
3203,688
3194,676
3188,662
3183,649
3180,636
3179,621
3179,607
3181,594
3183,580
3187,566
3192,554
3198,542
3205,531
3212,521
3219,512
3228,503
3236,496
3245,489
3254,481
3265,475
3275,470
3288,465
3300,460
3313,457
3327,454
3341,452
3356,451
3371,451
3385,451
3401,452
3417,454
3433,456
3449,459
3466,462
3485,468
3504,473
3524,478
3544,486
3564,493
3584,501
3603,510
3622,518
3638,528
3654,537
3669,546
3680,556
3691,565
3700,575
3710,587
3716,601
3719,616
3719,633
3717,653
3712,675
3706,698
3698,720
3706,697
" style="stroke:#000000;stroke-width:16;
stroke-linejoin:bevel; stroke-linecap:butt;
"/>
<!-- Arrowhead on XXXpoint 3698 720 - 3673 785-->
<polygon points="3669 706
3676 776
3728 728
3669 706

" style="stroke:#000000;stroke-width:8;stroke-miterlimit:8;
fill:#000000;"/>
<!-- Line -->
<polyline points="4440,897
4437,896
4430,893
4416,887
4397,879
4373,869
4345,856
4314,843
4282,828
4250,813
4221,800
4194,786
4169,773
4146,762
4127,750
4110,740
4095,729
4082,720
4072,710
4062,701
4053,688
4045,676
4038,662
4033,649
4030,636
4029,621
4029,607
4031,594
4033,580
4037,566
4043,554
4049,542
4055,531
4062,521
4070,512
4078,503
4087,496
4095,489
4104,481
4115,475
4125,470
4138,465
4151,460
4163,457
4177,454
4192,452
4206,451
4221,451
4236,451
4251,452
4267,454
4283,456
4300,459
4317,462
4335,468
4354,473
4374,478
4394,486
4414,493
4434,501
4453,510
4472,518
4489,528
4504,537
4519,546
4531,556
4541,565
4551,575
4560,587
4566,601
4570,616
4570,633
4567,653
4562,675
4556,698
4549,720
4556,697
" style="stroke:#000000;stroke-width:16;
stroke-linejoin:bevel; stroke-linecap:butt;
stroke-dasharray:20 20;"/>
<!-- Arrowhead on XXXpoint 4549 720 - 4523 785-->
<polygon points="4519 706
4527 776
4578 728
4519 706

" style="stroke:#000000;stroke-width:8;stroke-miterlimit:8;
fill:#000000;"/>
<!-- Circle -->
<circle cx="5078" cy="945" r="118"
 style="stroke:#000000;stroke-width:16;"/>
<!-- Circle -->
<circle cx="5314" cy="945" r="118"
 style="stroke:#000000;stroke-width:16;"/>
<!-- Circle -->
<circle cx="5550" cy="945" r="118"
 style="stroke:#000000;stroke-width:16;"/>
<!-- Line -->
<polyline points="5716,944
4913,944
" style="stroke:#000000;stroke-width:16;
stroke-linejoin:miter; stroke-linecap:round;
"/>
<!-- Line -->
<polyline points="5149,661
4866,661
" style="stroke:#000000;stroke-width:8;
stroke-linejoin:miter; stroke-linecap:butt;
"/>
<!-- Line -->
<polyline points="5716,661
5433,661
" style="stroke:#000000;stroke-width:8;
stroke-linejoin:miter; stroke-linecap:butt;
"/>
<!-- Text -->
<text xml:space="preserve" x="5291" y="708" fill="#000000"  font-family="Helvetica" font-style="normal" font-weight="bold" font-size="114" text-anchor="middle">1 4</text>
<!-- Line -->
<polyline points="3070,1653
2929,1653
" style="stroke:#000000;stroke-width:8;
stroke-linejoin:miter; stroke-linecap:butt;
"/>
<!-- Line -->
<polyline points="3496,1653
3354,1653
" style="stroke:#000000;stroke-width:8;
stroke-linejoin:miter; stroke-linecap:butt;
"/>
<!-- Text -->
<text xml:space="preserve" x="3212" y="1700" fill="#000000"  font-family="Helvetica" font-style="normal" font-weight="bold" font-size="114" text-anchor="middle">2 3</text>
<!-- Text -->
<text xml:space="preserve" x="3118" y="2078" fill="#000000"  font-family="Helvetica" font-style="normal" font-weight="bold" font-size="227" text-anchor="middle">T</text>
<!-- Text -->
<text xml:space="preserve" x="3259" y="2125" fill="#000000"  font-family="Helvetica" font-style="normal" font-weight="bold" font-size="152" text-anchor="middle">R</text>
<!-- Line: box -->
<rect x="3732" y="1842" width="188" height="188" rx="0" 
style="stroke:#000000;stroke-width:16;
stroke-linejoin:miter; stroke-linecap:butt;
"/>
<!-- Text -->
<text xml:space="preserve" x="3826" y="1984" fill="#000000"  font-family="Helvetica" font-style="normal" font-weight="bold" font-size="114" text-anchor="middle">2</text>
<!-- Circle -->
<circle cx="4346" cy="1937" r="94"
 style="stroke:#000000;stroke-width:16;"/>
<!-- Text -->
<text xml:space="preserve" x="4346" y="1984" fill="#000000"  font-family="Helvetica" font-style="normal" font-weight="bold" font-size="114" text-anchor="middle">2</text>
<!-- Text -->
<text xml:space="preserve" x="4535" y="2031" fill="#000000"  font-family="Helvetica" font-style="normal" font-weight="bold" font-size="227" text-anchor="middle">T</text>
<!-- Text -->
<text xml:space="preserve" x="4629" y="2078" fill="#000000"  font-family="Helvetica" font-style="normal" font-weight="bold" font-size="152" text-anchor="middle">L</text>
<!-- Line -->
<polyline points="4724,2078
4818,1889
" style="stroke:#000000;stroke-width:8;
stroke-linejoin:miter; stroke-linecap:round;
"/>
<!-- Text -->
<text xml:space="preserve" x="4724" y="1984" fill="#000000"  font-family="Helvetica" font-style="normal" font-weight="bold" font-size="114" text-anchor="middle">3</text>
<!-- Text -->
<text xml:space="preserve" x="4818" y="2078" fill="#000000"  font-family="Helvetica" font-style="normal" font-weight="bold" font-size="114" text-anchor="middle">4</text>
<!-- Line: box -->
<rect x="5385" y="1842" width="188" height="188" rx="0" 
style="stroke:#000000;stroke-width:16;
stroke-linejoin:miter; stroke-linecap:butt;
"/>
<!-- Text -->
<text xml:space="preserve" x="5480" y="1984" fill="#000000"  font-family="Helvetica" font-style="normal" font-weight="bold" font-size="114" text-anchor="middle">3</text>
<!-- Circle -->
<circle cx="4960" cy="1937" r="94"
 style="stroke:#000000;stroke-width:16;"/>
<!-- Text -->
<text xml:space="preserve" x="4960" y="1984" fill="#000000"  font-family="Helvetica" font-style="normal" font-weight="bold" font-size="114" text-anchor="middle">3</text>
<!-- Line -->
<polygon points="283,1795
141,1937
283,2078
425,1937
283,1795
" style="stroke:#000000;stroke-width:16;
stroke-linejoin:miter; stroke-linecap:butt;
"/>
<!-- Text -->
<text xml:space="preserve" x="289" y="2008" fill="#000000"  font-family="Helvetica" font-style="normal" font-weight="bold" font-size="114" text-anchor="middle">T</text>
<!-- Line -->
<polyline points="2677,850
2705,850
" style="stroke:#000000;stroke-width:16;
stroke-linejoin:miter; stroke-linecap:butt;
"/>
<!-- Arrowhead on XXXpoint 2551 850 - 2771 850-->
<polyline points="2697 913
2760 850
2697 787
" style="stroke:#000000;stroke-width:16;stroke-miterlimit:8;
"/>
<!-- Arrowhead on XXXpoint 2740 850 - 2519 850-->
<polygon points="2528 787
2528 913

" style="stroke:#000000;stroke-width:16;stroke-miterlimit:8;
fill:#000000;"/>
<!-- Line -->
<polyline points="2331,850
2301,850
" style="stroke:#000000;stroke-width:16;
stroke-linejoin:miter; stroke-linecap:butt;
"/>
<!-- Arrowhead on XXXpoint 2456 850 - 2236 850-->
<polyline points="2310 787
2247 850
2310 913
" style="stroke:#000000;stroke-width:16;stroke-miterlimit:8;
"/>
<!-- Arrowhead on XXXpoint 2267 850 - 2488 850-->
<polygon points="2480 913
2480 787

" style="stroke:#000000;stroke-width:16;stroke-miterlimit:8;
fill:#000000;"/>
<!-- Text -->
<text xml:space="preserve" x="2503" y="1133" fill="#000000"  font-family="Helvetica" font-style="normal" font-weight="normal" font-size="114" text-anchor="middle">3 - 4</text>
<!-- Text -->
<text xml:space="preserve" x="2362" y="661" fill="#000000"  font-family="Helvetica" font-style="normal" font-weight="bold" font-size="114" text-anchor="middle">2</text>
<!-- Text -->
<text xml:space="preserve" x="2645" y="661" fill="#000000"  font-family="Helvetica" font-style="normal" font-weight="bold" font-size="114" text-anchor="middle">3</text>
<!-- Line -->
<polygon points="1653,803
1511,944
1653,1086
1795,944
1653,803
" style="stroke:#000000;stroke-width:16;
stroke-linejoin:miter; stroke-linecap:butt;
"/>
<!-- Text -->
<text xml:space="preserve" x="1659" y="1016" fill="#000000"  font-family="Helvetica" font-style="normal" font-weight="bold" font-size="114" text-anchor="middle">T</text>
<!-- Line -->
<polyline points="1653,614
1511,614
" style="stroke:#000000;stroke-width:8;
stroke-linejoin:miter; stroke-linecap:butt;
"/>
<!-- Line -->
<polyline points="2078,614
1937,614
" style="stroke:#000000;stroke-width:8;
stroke-linejoin:miter; stroke-linecap:butt;
"/>
<!-- Text -->
<text xml:space="preserve" x="1795" y="661" fill="#000000"  font-family="Helvetica" font-style="normal" font-weight="bold" font-size="114" text-anchor="middle">1 4</text>
<!-- Text -->
<text xml:space="preserve" x="1984" y="1086" fill="#000000"  font-family="Helvetica" font-style="normal" font-weight="bold" font-size="227" text-anchor="middle">S</text>
<!-- Line -->
<polyline points="2740,1275
2740,1277
2738,1280
2735,1287
2732,1294
2728,1302
2722,1311
2714,1318
2707,1324
2697,1330
2685,1334
2671,1336
2656,1338
2638,1338
2621,1338
2602,1337
2582,1336
2561,1334
2537,1333
2513,1330
2487,1328
2459,1325
2432,1322
2406,1319
2379,1317
2352,1315
2328,1312
2304,1311
2283,1309
2263,1308
2244,1307
2228,1307
2212,1307
2197,1308
2184,1310
2174,1313
2164,1317
2156,1321
2150,1328
2143,1334
2138,1341
2134,1349
2131,1356
2128,1361
2127,1365
2125,1369
2125,1370
" style="stroke:#000000;stroke-width:16;
stroke-linejoin:bevel; stroke-linecap:butt;
"/>
<!-- Line -->
<polyline points="1511,1275
1511,1276
1512,1279
1513,1283
1517,1289
1520,1296
1524,1303
1529,1311
1535,1317
1542,1323
1550,1328
1560,1332
1570,1335
1583,1337
1597,1338
1614,1338
1630,1338
1649,1337
1669,1336
1690,1334
1714,1333
1738,1330
1764,1328
1792,1325
1819,1322
1845,1319
1872,1317
1899,1315
1923,1312
1947,1311
1968,1309
1988,1308
2007,1307
2024,1307
2041,1307
2057,1309
2071,1311
2082,1315
2093,1320
2100,1327
2108,1334
2114,1342
2118,1351
2121,1358
2123,1364
2125,1367
2125,1370
" style="stroke:#000000;stroke-width:16;
stroke-linejoin:bevel; stroke-linecap:butt;
"/>
<!-- Line: box -->
<rect x="472" y="3212" width="188" height="188" rx="0" 
style="stroke:#000000;stroke-width:16;
stroke-linejoin:miter; stroke-linecap:butt;
"/>
<!-- Text -->
<text xml:space="preserve" x="566" y="3354" fill="#000000"  font-family="Helvetica" font-style="normal" font-weight="bold" font-size="114" text-anchor="middle">3</text>
<!-- Line: box -->
<rect x="141" y="2551" width="188" height="188" rx="0" 
style="stroke:#000000;stroke-width:16;
stroke-linejoin:miter; stroke-linecap:butt;
"/>
<!-- Text -->
<text xml:space="preserve" x="236" y="2692" fill="#000000"  font-family="Helvetica" font-style="normal" font-weight="bold" font-size="114" text-anchor="middle">2</text>
<!-- Line: box -->
<rect x="236" y="2834" width="236" height="188" rx="0" 
style="stroke:#000000;stroke-width:16;
stroke-linejoin:miter; stroke-linecap:butt;
"/>
<!-- Line: box -->
<rect x="330" y="2929" width="236" height="188" rx="0" 
style="stroke:#000000;stroke-width:16;
stroke-linejoin:miter; stroke-linecap:butt;
"/>
<!-- Line -->
<polyline points="188,2976
614,2976
" style="stroke:#000000;stroke-width:16;
stroke-linejoin:miter; stroke-linecap:round;
"/>
<!-- Circle -->
<circle cx="236" cy="3307" r="94"
 style="stroke:#000000;stroke-width:16;"/>
<!-- Text -->
<text xml:space="preserve" x="236" y="3354" fill="#000000"  font-family="Helvetica" font-style="normal" font-weight="bold" font-size="114" text-anchor="middle">3</text>
<!-- Circle -->
<circle cx="566" cy="2645" r="94"
 style="stroke:#000000;stroke-width:16;"/>
<!-- Text -->
<text xml:space="preserve" x="566" y="2692" fill="#000000"  font-family="Helvetica" font-style="normal" font-weight="bold" font-size="114" text-anchor="middle">2</text>
<!-- Line -->
<polyline points="566,3212
566,3165
" style="stroke:#000000;stroke-width:16;
stroke-linejoin:miter; stroke-linecap:round;
"/>
<!-- Line -->
<polyline points="236,3448
236,3401
" style="stroke:#000000;stroke-width:16;
stroke-linejoin:miter; stroke-linecap:round;
"/>
<!-- Line -->
<polyline points="566,2551
566,2503
" style="stroke:#000000;stroke-width:16;
stroke-linejoin:miter; stroke-linecap:round;
"/>
<!-- Line -->
<polyline points="236,2787
236,2740
" style="stroke:#000000;stroke-width:16;
stroke-linejoin:miter; stroke-linecap:round;
"/>
<!-- Line: box -->
<rect x="992" y="1842" width="188" height="188" rx="0" 
style="stroke:#000000;stroke-width:16;
stroke-linejoin:miter; stroke-linecap:butt;
"/>
<!-- Text -->
<text xml:space="preserve" x="1086" y="1984" fill="#000000"  font-family="Helvetica" font-style="normal" font-weight="bold" font-size="114" text-anchor="middle">2</text>
<!-- Circle -->
<circle cx="1653" cy="1937" r="94"
 style="stroke:#000000;stroke-width:16;"/>
<!-- Text -->
<text xml:space="preserve" x="1653" y="1984" fill="#000000"  font-family="Helvetica" font-style="normal" font-weight="bold" font-size="114" text-anchor="middle">2</text>
<!-- Circle -->
<circle cx="1937" cy="1937" r="94"
 style="stroke:#000000;stroke-width:16;"/>
<!-- Text -->
<text xml:space="preserve" x="1937" y="1984" fill="#000000"  font-family="Helvetica" font-style="normal" font-weight="bold" font-size="114" text-anchor="middle">3</text>
<!-- Line: box -->
<rect x="2409" y="1842" width="188" height="188" rx="0" 
style="stroke:#000000;stroke-width:16;
stroke-linejoin:miter; stroke-linecap:butt;
"/>
<!-- Text -->
<text xml:space="preserve" x="2503" y="1984" fill="#000000"  font-family="Helvetica" font-style="normal" font-weight="bold" font-size="114" text-anchor="middle">3</text>
<!-- Circle -->
<circle cx="1370" cy="1653" r="94"
 style="stroke:#000000;stroke-width:16;"/>
<!-- Text -->
<text xml:space="preserve" x="1370" y="1700" fill="#000000"  font-family="Helvetica" font-style="normal" font-weight="bold" font-size="114" text-anchor="middle">4</text>
<!-- Line: box -->
<rect x="1275" y="2125" width="188" height="188" rx="0" 
style="stroke:#000000;stroke-width:16;
stroke-linejoin:miter; stroke-linecap:butt;
"/>
<!-- Text -->
<text xml:space="preserve" x="1370" y="2267" fill="#000000"  font-family="Helvetica" font-style="normal" font-weight="bold" font-size="114" text-anchor="middle">4</text>
<!-- Line: box -->
<rect x="2125" y="1559" width="188" height="188" rx="0" 
style="stroke:#000000;stroke-width:16;
stroke-linejoin:miter; stroke-linecap:butt;
"/>
<!-- Text -->
<text xml:space="preserve" x="2220" y="1700" fill="#000000"  font-family="Helvetica" font-style="normal" font-weight="bold" font-size="114" text-anchor="middle">1</text>
<!-- Circle -->
<circle cx="2220" cy="2220" r="94"
 style="stroke:#000000;stroke-width:16;"/>
<!-- Text -->
<text xml:space="preserve" x="2220" y="2267" fill="#000000"  font-family="Helvetica" font-style="normal" font-weight="bold" font-size="114" text-anchor="middle">1</text>
<!-- Line -->
<polyline points="2645,1511
2646,1512
2649,1514
2654,1520
2659,1526
2664,1535
2669,1547
2674,1562
2678,1579
2680,1598
2683,1624
2685,1653
2685,1672
2686,1692
2687,1714
2688,1737
2688,1762
2689,1788
2689,1816
2689,1845
2690,1876
2690,1906
2690,1937
2690,1967
2690,1997
2689,2028
2689,2057
2689,2085
2688,2111
2688,2136
2687,2159
2686,2181
2685,2201
2685,2220
2683,2249
2680,2275
2678,2295
2674,2311
2669,2326
2664,2338
2659,2347
2654,2353
2649,2359
2646,2361
2645,2362
" style="stroke:#000000;stroke-width:16;
stroke-linejoin:bevel; stroke-linecap:round;
"/>
<!-- Line -->
<polyline points="897,1511
896,1512
893,1514
889,1520
883,1526
878,1535
873,1547
869,1562
865,1579
862,1598
859,1624
858,1653
857,1672
856,1692
855,1714
854,1737
854,1762
853,1788
853,1816
853,1845
852,1876
852,1906
852,1937
852,1967
852,1997
853,2028
853,2057
853,2085
854,2111
854,2136
855,2159
856,2181
857,2201
858,2220
859,2249
862,2275
865,2295
869,2311
873,2326
878,2338
883,2347
889,2353
893,2359
896,2361
897,2362
" style="stroke:#000000;stroke-width:16;
stroke-linejoin:bevel; stroke-linecap:round;
"/>
<!-- Text -->
<text xml:space="preserve" x="992" y="1700" fill="#000000"  font-family="Helvetica" font-style="normal" font-weight="normal" font-size="126" text-anchor="middle">to</text>
<!-- Line: box -->
<rect x="5102" y="1559" width="188" height="188" rx="0" 
style="stroke:#000000;stroke-width:16;
stroke-linejoin:miter; stroke-linecap:butt;
"/>
<!-- Text -->
<text xml:space="preserve" x="5196" y="1700" fill="#000000"  font-family="Helvetica" font-style="normal" font-weight="bold" font-size="114" text-anchor="middle">1</text>
<!-- Circle -->
<circle cx="5196" cy="2220" r="94"
 style="stroke:#000000;stroke-width:16;"/>
<!-- Text -->
<text xml:space="preserve" x="5196" y="2267" fill="#000000"  font-family="Helvetica" font-style="normal" font-weight="bold" font-size="114" text-anchor="middle">1</text>
<!-- Line: box -->
<rect x="4015" y="2125" width="188" height="188" rx="0" 
style="stroke:#000000;stroke-width:16;
stroke-linejoin:miter; stroke-linecap:butt;
"/>
<!-- Text -->
<text xml:space="preserve" x="4110" y="2267" fill="#000000"  font-family="Helvetica" font-style="normal" font-weight="bold" font-size="114" text-anchor="middle">4</text>
<!-- Circle -->
<circle cx="4110" cy="1653" r="94"
 style="stroke:#000000;stroke-width:16;"/>
<!-- Text -->
<text xml:space="preserve" x="4110" y="1700" fill="#000000"  font-family="Helvetica" font-style="normal" font-weight="bold" font-size="114" text-anchor="middle">4</text>
<!-- Circle -->
<circle cx="5338" cy="3307" r="94"
 style="stroke:#000000;stroke-width:16;"/>
<!-- Text -->
<text xml:space="preserve" x="5338" y="3354" fill="#000000"  font-family="Helvetica" font-style="normal" font-weight="bold" font-size="114" text-anchor="middle">1</text>
<!-- Line: box -->
<rect x="5527" y="3212" width="188" height="188" rx="0" 
style="stroke:#000000;stroke-width:16;
stroke-linejoin:miter; stroke-linecap:butt;
"/>
<!-- Text -->
<text xml:space="preserve" x="5622" y="3354" fill="#000000"  font-family="Helvetica" font-style="normal" font-weight="bold" font-size="114" text-anchor="middle">4</text>
<!-- Line: box -->
<rect x="5811" y="3212" width="188" height="188" rx="0" 
style="stroke:#000000;stroke-width:16;
stroke-linejoin:miter; stroke-linecap:butt;
"/>
<!-- Text -->
<text xml:space="preserve" x="5905" y="3354" fill="#000000"  font-family="Helvetica" font-style="normal" font-weight="bold" font-size="114" text-anchor="middle">2</text>
<!-- Line -->
<polyline points="5338,2551
4960,2551
" style="stroke:#000000;stroke-width:8;
stroke-linejoin:miter; stroke-linecap:butt;
"/>
<!-- Line -->
<polyline points="6000,2551
5622,2551
" style="stroke:#000000;stroke-width:8;
stroke-linejoin:miter; stroke-linecap:butt;
"/>
<!-- Text -->
<text xml:space="preserve" x="5480" y="2598" fill="#000000"  font-family="Helvetica" font-style="normal" font-weight="bold" font-size="114" text-anchor="middle">all</text>
<!-- Line: box -->
<rect x="4960" y="2645" width="188" height="188" rx="0" 
style="stroke:#000000;stroke-width:16;
stroke-linejoin:miter; stroke-linecap:butt;
"/>
<!-- Text -->
<text xml:space="preserve" x="5055" y="2787" fill="#000000"  font-family="Helvetica" font-style="normal" font-weight="bold" font-size="114" text-anchor="middle">3</text>
<!-- Line: box -->
<rect x="5244" y="2645" width="188" height="188" rx="0" 
style="stroke:#000000;stroke-width:16;
stroke-linejoin:miter; stroke-linecap:butt;
"/>
<!-- Text -->
<text xml:space="preserve" x="5338" y="2787" fill="#000000"  font-family="Helvetica" font-style="normal" font-weight="bold" font-size="114" text-anchor="middle">1</text>
<!-- Circle -->
<circle cx="5622" cy="2740" r="94"
 style="stroke:#000000;stroke-width:16;"/>
<!-- Text -->
<text xml:space="preserve" x="5622" y="2787" fill="#000000"  font-family="Helvetica" font-style="normal" font-weight="bold" font-size="114" text-anchor="middle">4</text>
<!-- Circle -->
<circle cx="5905" cy="2740" r="94"
 style="stroke:#000000;stroke-width:16;"/>
<!-- Text -->
<text xml:space="preserve" x="5905" y="2787" fill="#000000"  font-family="Helvetica" font-style="normal" font-weight="bold" font-size="114" text-anchor="middle">2</text>
<!-- Circle -->
<circle cx="5055" cy="3307" r="94"
 style="stroke:#000000;stroke-width:16;"/>
<!-- Text -->
<text xml:space="preserve" x="5055" y="3354" fill="#000000"  font-family="Helvetica" font-style="normal" font-weight="bold" font-size="114" text-anchor="middle">3</text>
<!-- Text -->
<text xml:space="preserve" x="5480" y="3165" fill="#000000"  font-family="Helvetica" font-style="normal" font-weight="bold" font-size="227" text-anchor="middle">S</text>
<!-- Line -->
<polyline points="4488,2551
4393,2551
" style="stroke:#000000;stroke-width:8;
stroke-linejoin:miter; stroke-linecap:butt;
"/>
<!-- Line -->
<polyline points="4866,2551
4771,2551
" style="stroke:#000000;stroke-width:8;
stroke-linejoin:miter; stroke-linecap:butt;
"/>
<!-- Text -->
<text xml:space="preserve" x="4629" y="2598" fill="#000000"  font-family="Helvetica" font-style="normal" font-weight="bold" font-size="114" text-anchor="middle">4 1</text>
<!-- Text -->
<text xml:space="preserve" x="4629" y="3023" fill="#000000"  font-family="Helvetica" font-style="normal" font-weight="bold" font-size="227" text-anchor="middle">RA</text>
<!-- Line -->
<polyline points="4393,2881
4866,2881
" style="stroke:#000000;stroke-width:16;
stroke-linejoin:miter; stroke-linecap:round;
"/>
<!-- Text -->
<text xml:space="preserve" x="3023" y="2976" fill="#000000"  font-family="Helvetica" font-style="normal" font-weight="bold" font-size="227" text-anchor="middle">X</text>
<!-- Text -->
<text xml:space="preserve" x="3165" y="3023" fill="#000000"  font-family="Helvetica" font-style="normal" font-weight="bold" font-size="152" text-anchor="middle"> R</text>
<!-- Arc -->
<path style="stroke:#000000;stroke-width:16;stroke-linecap:butt;"
d="M 3496,2881 A 94 94  0  0  0  3307  2881 " />
<!-- Arrowhead on XXXpoint 3313 2847 - 3307 2881-->
<polygon points="3281 2839
3308 2876
3343 2850
3281 2839

" style="stroke:#000000;stroke-width:8;stroke-miterlimit:8;
fill:#000000;"/>
<!-- Text -->
<text xml:space="preserve" x="3401" y="2929" fill="#000000"  font-family="Helvetica" font-style="normal" font-weight="bold" font-size="114" text-anchor="middle">1</text>
<!-- Line -->
<polyline points="3118,2551
2929,2551
" style="stroke:#000000;stroke-width:8;
stroke-linejoin:miter; stroke-linecap:butt;
"/>
<!-- Line -->
<polyline points="3496,2551
3307,2551
" style="stroke:#000000;stroke-width:8;
stroke-linejoin:miter; stroke-linecap:butt;
"/>
<!-- Text -->
<text xml:space="preserve" x="3212" y="2598" fill="#000000"  font-family="Helvetica" font-style="normal" font-weight="bold" font-size="114" text-anchor="middle">1</text>
<!-- Line -->
<polyline points="2409,2551
2220,2551
" style="stroke:#000000;stroke-width:8;
stroke-linejoin:miter; stroke-linecap:butt;
"/>
<!-- Line -->
<polyline points="2787,2551
2598,2551
" style="stroke:#000000;stroke-width:8;
stroke-linejoin:miter; stroke-linecap:butt;
"/>
<!-- Text -->
<text xml:space="preserve" x="2503" y="2598" fill="#000000"  font-family="Helvetica" font-style="normal" font-weight="bold" font-size="114" text-anchor="middle">4</text>
<!-- Arc -->
<path style="stroke:#000000;stroke-width:16;stroke-linecap:butt;"
d="M 2598,2881 A 94 94  0  0  1  2787  2881 " />
<!-- Arrowhead on XXXpoint 2781 2847 - 2787 2881-->
<polygon points="2749 2850
2786 2876
2811 2839
2749 2850

" style="stroke:#000000;stroke-width:8;stroke-miterlimit:8;
fill:#000000;"/>
<!-- Text -->
<text xml:space="preserve" x="2692" y="2929" fill="#000000"  font-family="Helvetica" font-style="normal" font-weight="bold" font-size="114" text-anchor="middle">1</text>
<!-- Text -->
<text xml:space="preserve" x="2314" y="2976" fill="#000000"  font-family="Helvetica" font-style="normal" font-weight="bold" font-size="227" text-anchor="middle">X</text>
<!-- Text -->
<text xml:space="preserve" x="2456" y="3023" fill="#000000"  font-family="Helvetica" font-style="normal" font-weight="bold" font-size="152" text-anchor="middle"> R</text>
<!-- Line -->
<polyline points="4047,2787
4075,2787
" style="stroke:#000000;stroke-width:16;
stroke-linejoin:miter; stroke-linecap:butt;
"/>
<!-- Arrowhead on XXXpoint 3921 2787 - 4141 2787-->
<polyline points="4067 2850
4130 2787
4067 2724
" style="stroke:#000000;stroke-width:16;stroke-miterlimit:8;
"/>
<!-- Arrowhead on XXXpoint 4110 2787 - 3889 2787-->
<polygon points="3898 2724
3898 2850

" style="stroke:#000000;stroke-width:16;stroke-miterlimit:8;
fill:#000000;"/>
<!-- Line -->
<polyline points="3701,2787
3671,2787
" style="stroke:#000000;stroke-width:16;
stroke-linejoin:miter; stroke-linecap:butt;
"/>
<!-- Arrowhead on XXXpoint 3826 2787 - 3606 2787-->
<polyline points="3680 2724
3617 2787
3680 2850
" style="stroke:#000000;stroke-width:16;stroke-miterlimit:8;
"/>
<!-- Arrowhead on XXXpoint 3637 2787 - 3858 2787-->
<polygon points="3850 2850
3850 2724

" style="stroke:#000000;stroke-width:16;stroke-miterlimit:8;
fill:#000000;"/>
<!-- Text -->
<text xml:space="preserve" x="3874" y="3070" fill="#000000"  font-family="Helvetica" font-style="normal" font-weight="normal" font-size="114" text-anchor="middle">27-28</text>
<!-- Text -->
<text xml:space="preserve" x="3732" y="2598" fill="#000000"  font-family="Helvetica" font-style="normal" font-weight="bold" font-size="114" text-anchor="middle">3</text>
<!-- Text -->
<text xml:space="preserve" x="4015" y="2598" fill="#000000"  font-family="Helvetica" font-style="normal" font-weight="bold" font-size="114" text-anchor="middle">2</text>
<!-- Line -->
<polyline points="4110,3354
4110,3355
4108,3358
4106,3362
4102,3367
4097,3375
4091,3382
4082,3390
4073,3396
4062,3402
4050,3406
4035,3411
4018,3414
4000,3416
3977,3417
3952,3417
3933,3417
3913,3416
3891,3416
3868,3415
3843,3414
3817,3413
3790,3411
3760,3408
3731,3407
3700,3405
3669,3403
3637,3401
3606,3399
3574,3397
3544,3395
3514,3394
3485,3392
3458,3390
3432,3388
3406,3387
3383,3386
3361,3386
3341,3385
3322,3385
3297,3385
3275,3386
3256,3388
3239,3392
3225,3396
3212,3400
3202,3406
3192,3413
3184,3420
3177,3427
3172,3435
3169,3440
3167,3444
3165,3447
3165,3448
" style="stroke:#000000;stroke-width:16;
stroke-linejoin:bevel; stroke-linecap:butt;
"/>
<!-- Line -->
<polyline points="2220,3354
2220,3355
2222,3358
2224,3362
2227,3367
2233,3375
2239,3382
2247,3390
2257,3396
2267,3402
2280,3406
2295,3411
2311,3414
2330,3416
2352,3417
2377,3417
2396,3417
2416,3416
2438,3416
2461,3415
2487,3414
2513,3413
2540,3411
2570,3408
2599,3407
2629,3405
2661,3403
2692,3401
2724,3399
2755,3397
2786,3395
2815,3394
2845,3392
2872,3390
2898,3388
2923,3387
2946,3386
2969,3386
2988,3385
3007,3385
3033,3385
3055,3386
3074,3388
3090,3392
3105,3396
3118,3400
3128,3406
3138,3413
3146,3420
3152,3427
3158,3435
3161,3440
3163,3444
3165,3447
3165,3448
" style="stroke:#000000;stroke-width:16;
stroke-linejoin:bevel; stroke-linecap:butt;
"/>
<!-- Line -->
<polyline points="803,2551
802,2552
798,2554
794,2559
789,2565
784,2575
779,2586
774,2601
770,2618
768,2638
765,2663
764,2692
763,2711
762,2731
761,2753
760,2776
760,2802
759,2828
759,2855
759,2885
758,2915
758,2945
758,2976
758,3006
758,3037
759,3067
759,3097
759,3124
760,3150
760,3175
761,3198
762,3220
763,3240
764,3259
765,3289
768,3314
770,3334
774,3351
779,3365
784,3377
789,3386
794,3393
798,3398
802,3400
803,3401
" style="stroke:#000000;stroke-width:16;
stroke-linejoin:bevel; stroke-linecap:round;
"/>
<!-- Line -->
<polyline points="1984,2551
1985,2552
1988,2554
1992,2559
1997,2565
2003,2575
2008,2586
2012,2601
2016,2618
2018,2638
2022,2663
2024,2692
2024,2711
2025,2731
2026,2753
2027,2776
2027,2802
2028,2828
2028,2855
2028,2885
2029,2915
2029,2945
2029,2976
2029,3006
2029,3037
2028,3067
2028,3097
2028,3124
2027,3150
2027,3175
2026,3198
2025,3220
2024,3240
2024,3259
2022,3289
2018,3314
2016,3334
2012,3351
2008,3365
2003,3377
1997,3386
1992,3393
1988,3398
1985,3400
1984,3401
" style="stroke:#000000;stroke-width:16;
stroke-linejoin:bevel; stroke-linecap:round;
"/>
<!-- Text -->
<text xml:space="preserve" x="944" y="2692" fill="#000000"  font-family="Helvetica" font-style="normal" font-weight="normal" font-size="126" text-anchor="middle">to</text>
<!-- Line: box -->
<rect x="1464" y="3165" width="188" height="188" rx="0" 
style="stroke:#000000;stroke-width:16;
stroke-linejoin:miter; stroke-linecap:butt;
"/>
<!-- Text -->
<text xml:space="preserve" x="1559" y="3307" fill="#000000"  font-family="Helvetica" font-style="normal" font-weight="bold" font-size="114" text-anchor="middle">2</text>
<!-- Circle -->
<circle cx="1275" cy="3259" r="94"
 style="stroke:#000000;stroke-width:16;"/>
<!-- Text -->
<text xml:space="preserve" x="1275" y="3307" fill="#000000"  font-family="Helvetica" font-style="normal" font-weight="bold" font-size="114" text-anchor="middle">3</text>
<!-- Line: box -->
<rect x="897" y="3165" width="188" height="188" rx="0" 
style="stroke:#000000;stroke-width:16;
stroke-linejoin:miter; stroke-linecap:butt;
"/>
<!-- Text -->
<text xml:space="preserve" x="992" y="3307" fill="#000000"  font-family="Helvetica" font-style="normal" font-weight="bold" font-size="114" text-anchor="middle">4</text>
<!-- Circle -->
<circle cx="1842" cy="3259" r="94"
 style="stroke:#000000;stroke-width:16;"/>
<!-- Text -->
<text xml:space="preserve" x="1842" y="3307" fill="#000000"  font-family="Helvetica" font-style="normal" font-weight="bold" font-size="114" text-anchor="middle">1</text>
<!-- Line: box -->
<rect x="1181" y="2740" width="188" height="188" rx="0" 
style="stroke:#000000;stroke-width:16;
stroke-linejoin:miter; stroke-linecap:butt;
"/>
<!-- Text -->
<text xml:space="preserve" x="1275" y="2881" fill="#000000"  font-family="Helvetica" font-style="normal" font-weight="bold" font-size="114" text-anchor="middle">3</text>
<!-- Circle -->
<circle cx="1559" cy="2834" r="94"
 style="stroke:#000000;stroke-width:16;"/>
<!-- Text -->
<text xml:space="preserve" x="1559" y="2881" fill="#000000"  font-family="Helvetica" font-style="normal" font-weight="bold" font-size="114" text-anchor="middle">2</text>
<!-- Line: box -->
<rect x="1748" y="2740" width="188" height="188" rx="0" 
style="stroke:#000000;stroke-width:16;
stroke-linejoin:miter; stroke-linecap:butt;
"/>
<!-- Text -->
<text xml:space="preserve" x="1842" y="2881" fill="#000000"  font-family="Helvetica" font-style="normal" font-weight="bold" font-size="114" text-anchor="middle">1</text>
<!-- Circle -->
<circle cx="992" cy="2834" r="94"
 style="stroke:#000000;stroke-width:16;"/>
<!-- Text -->
<text xml:space="preserve" x="992" y="2881" fill="#000000"  font-family="Helvetica" font-style="normal" font-weight="bold" font-size="114" text-anchor="middle">4</text>
<!-- Line -->
<polyline points="0,377
6094,377
" style="stroke:#000000;stroke-width:16;
stroke-linejoin:miter; stroke-linecap:butt;
"/>
<!-- Line -->
<polyline points="1370,377
1370,1417
" style="stroke:#000000;stroke-width:16;
stroke-linejoin:miter; stroke-linecap:butt;
"/>
<!-- Line -->
<polyline points="2881,377
2881,1417
" style="stroke:#000000;stroke-width:16;
stroke-linejoin:miter; stroke-linecap:butt;
stroke-dasharray:62 62;"/>
<!-- Line -->
<polyline points="4724,377
4724,1370
" style="stroke:#000000;stroke-width:16;
stroke-linejoin:miter; stroke-linecap:butt;
"/>
<!-- Line -->
<polyline points="5858,377
5858,1417
" style="stroke:#000000;stroke-width:16;
stroke-linejoin:miter; stroke-linecap:butt;
stroke-dasharray:62 62;"/>
<!-- Line -->
<polyline points="2787,1417
2787,2456
" style="stroke:#000000;stroke-width:16;
stroke-linejoin:miter; stroke-linecap:butt;
"/>
<!-- Line -->
<polyline points="5858,1417
5858,2456
" style="stroke:#000000;stroke-width:16;
stroke-linejoin:miter; stroke-linecap:butt;
stroke-dasharray:62 62;"/>
<!-- Line -->
<polyline points="0,1417
6094,1417
" style="stroke:#000000;stroke-width:16;
stroke-linejoin:miter; stroke-linecap:butt;
"/>
<!-- Line -->
<polyline points="0,2456
6094,2456
" style="stroke:#000000;stroke-width:16;
stroke-linejoin:miter; stroke-linecap:butt;
"/>
<!-- Line: box -->
<rect x="0" y="0" width="6094" height="3496" rx="0" 
style="stroke:#000000;stroke-width:16;
stroke-linejoin:miter; stroke-linecap:butt;
"/>
<!-- Line -->
<polyline points="4251,2456
4251,3496
" style="stroke:#000000;stroke-width:16;
stroke-linejoin:miter; stroke-linecap:butt;
stroke-dasharray:62 62;"/>
<!-- Line -->
<polyline points="2125,2456
2125,3496
" style="stroke:#000000;stroke-width:16;
stroke-linejoin:miter; stroke-linecap:butt;
"/>
<!-- Line -->
<polyline points="3826,1842
3826,1841
3826,1837
3825,1826
3824,1807
3824,1782
3823,1753
3823,1720
3824,1688
3827,1658
3830,1630
3836,1606
3842,1585
3851,1567
3862,1552
3875,1539
3889,1527
3905,1518
3922,1510
3941,1503
3962,1496
3985,1490
4009,1486
4034,1482
4060,1479
4088,1477
4114,1477
4140,1476
4166,1477
4191,1479
4215,1481
4236,1483
4256,1487
4275,1491
4291,1496
4309,1502
4325,1510
4339,1520
4350,1530
4361,1544
4368,1559
4375,1576
4382,1594
4386,1613
4382,1591
" style="stroke:#000000;stroke-width:16;
stroke-linejoin:bevel; stroke-linecap:butt;
stroke-dasharray:20 20;"/>
<!-- Arrowhead on XXXpoint 4386 1613 - 4398 1683-->
<polygon points="4353 1617
4396 1674
4415 1606
4353 1617

" style="stroke:#000000;stroke-width:8;stroke-miterlimit:8;
fill:#000000;"/>
<!-- Line -->
<polyline points="5480,2031
5480,2032
5480,2036
5481,2047
5482,2066
5482,2091
5483,2120
5483,2153
5482,2185
5479,2215
5476,2243
5470,2267
5464,2288
5455,2306
5444,2321
5432,2334
5417,2346
5401,2355
5384,2363
5365,2370
5344,2377
5321,2383
5297,2387
5272,2391
5246,2394
5218,2396
5192,2396
5166,2397
5140,2396
5116,2394
5091,2392
5070,2390
5050,2386
5032,2382
5016,2377
4997,2371
4981,2363
4967,2353
4956,2343
4945,2329
4938,2314
4931,2297
4924,2279
4920,2260
4923,2281
" style="stroke:#000000;stroke-width:16;
stroke-linejoin:bevel; stroke-linecap:butt;
stroke-dasharray:20 20;"/>
<!-- Arrowhead on XXXpoint 4920 2260 - 4907 2188-->
<polygon points="4951 2254
4909 2198
4889 2265
4951 2254

" style="stroke:#000000;stroke-width:8;stroke-miterlimit:8;
fill:#000000;"/>
<!-- Text -->
<text xml:space="preserve" x="94" y="566" fill="#000000"  font-family="Helvetica" font-style="normal" font-weight="normal" font-size="126" text-anchor="start">start:</text>
<!-- Text -->
<text xml:space="preserve" x="614" y="2078" fill="#000000"  font-family="Helvetica" font-style="normal" font-weight="bold" font-size="227" text-anchor="middle">S</text>
<!-- Text -->
<text xml:space="preserve" x="425" y="1653" fill="#000000"  font-family="Helvetica" font-style="normal" font-weight="bold" font-size="114" text-anchor="middle">-42+31-</text>
<!-- Text -->
<text xml:space="preserve" x="3968" y="283" fill="#000000"  font-family="Helvetica" font-style="normal" font-weight="normal" font-size="152" text-anchor="end">W. Joubert</text>
<!-- Text -->
<text xml:space="preserve" x="141" y="283" fill="#000000"  font-family="Helvetica" font-style="normal" font-weight="normal" font-size="227" text-anchor="start">City Of Christchurch</text>
<!-- Circle -->
<circle cx="472" cy="1181" r="94"
 style="stroke:#000000;stroke-width:16;"/>
</g>
</svg>
