<?xml version="1.0" standalone="no"?>
<!DOCTYPE svg PUBLIC "-//W3C//DTD SVG 1.1//EN"
"http://www.w3.org/Graphics/SVG/1.1/DTD/svg11.dtd">
<!-- Creator: fig2dev Version 3.2 Patchlevel 5d -->
<!-- CreationDate: Thu Feb 21 11:05:50 2013 -->
<!-- Magnification: 1.050 -->
<svg	xmlns="http://www.w3.org/2000/svg"
	xmlns:xlink="http://www.w3.org/1999/xlink"
	viewBox="-23 -23 6140 3069">
<g style="stroke-width:.025in; fill:none">
<!-- Text -->
<text xml:space="preserve" x="283" y="755" fill="#000000"  font-family="Helvetica" font-style="normal" font-weight="bold" font-size="114" text-anchor="middle">all</text>
<!-- Line: box -->
<rect x="4582" y="944" width="188" height="188" rx="0" 
style="stroke:#000000;stroke-width:16;
stroke-linejoin:miter; stroke-linecap:butt;
"/>
<!-- Line -->
<polyline points="5102,1039
5055,1039
" style="stroke:#000000;stroke-width:16;
stroke-linejoin:miter; stroke-linecap:butt;
"/>
<!-- Line -->
<polyline points="4582,1039
4535,1039
" style="stroke:#000000;stroke-width:16;
stroke-linejoin:miter; stroke-linecap:butt;
"/>
<!-- Line -->
<polyline points="5244,566
5245,567
5248,571
5252,576
5257,583
5262,594
5268,606
5272,622
5276,641
5278,663
5281,690
5283,724
5283,743
5285,763
5286,785
5286,808
5287,833
5287,859
5288,887
5288,916
5289,945
5289,976
5289,1007
5289,1039
5289,1070
5289,1102
5289,1132
5288,1162
5288,1191
5287,1218
5287,1245
5286,1270
5286,1293
5285,1315
5283,1335
5283,1354
5281,1387
5278,1415
5276,1437
5272,1456
5268,1471
5262,1484
5257,1495
5252,1502
5248,1507
5245,1510
5244,1511
" style="stroke:#000000;stroke-width:16;
stroke-linejoin:bevel; stroke-linecap:butt;
"/>
<!-- Line -->
<polyline points="4110,566
4109,567
4107,569
4103,573
4099,577
4095,584
4091,594
4087,604
4082,617
4079,633
4076,649
4074,670
4072,696
4071,724
4070,743
4069,763
4068,785
4068,808
4067,833
4067,859
4066,887
4066,916
4065,945
4065,976
4065,1007
4065,1039
4065,1070
4065,1102
4065,1132
4066,1162
4066,1191
4067,1218
4067,1245
4068,1270
4068,1293
4069,1315
4070,1335
4071,1354
4072,1382
4074,1407
4076,1428
4079,1445
4082,1461
4087,1474
4091,1484
4095,1493
4099,1501
4103,1505
4107,1509
4109,1510
4110,1511
" style="stroke:#000000;stroke-width:16;
stroke-linejoin:bevel; stroke-linecap:butt;
"/>
<!-- Text -->
<text xml:space="preserve" x="5149" y="1417" fill="#000000"  font-family="Helvetica" font-style="normal" font-weight="bold" font-size="114" text-anchor="middle">3</text>
<!-- Text -->
<text xml:space="preserve" x="4488" y="755" fill="#000000"  font-family="Helvetica" font-style="normal" font-weight="bold" font-size="114" text-anchor="middle">2</text>
<!-- Text -->
<text xml:space="preserve" x="4960" y="1086" fill="#000000"  font-family="Helvetica" font-style="normal" font-weight="bold" font-size="114" text-anchor="middle">1</text>
<!-- Text -->
<text xml:space="preserve" x="4677" y="1086" fill="#000000"  font-family="Helvetica" font-style="normal" font-weight="bold" font-size="114" text-anchor="middle">1</text>
<!-- Text -->
<text xml:space="preserve" x="5149" y="755" fill="#000000"  font-family="Helvetica" font-style="normal" font-weight="bold" font-size="114" text-anchor="middle">3</text>
<!-- Text -->
<text xml:space="preserve" x="4488" y="1417" fill="#000000"  font-family="Helvetica" font-style="normal" font-weight="bold" font-size="114" text-anchor="middle">2</text>
<!-- Text -->
<text xml:space="preserve" x="4251" y="1133" fill="#000000"  font-family="Helvetica" font-style="normal" font-weight="bold" font-size="177" text-anchor="middle">to</text>
<!-- Line -->
<polyline points="5905,1039
5433,1039
" style="stroke:#000000;stroke-width:16;
stroke-linejoin:miter; stroke-linecap:butt;
"/>
<!-- Text -->
<text xml:space="preserve" x="5669" y="1133" fill="#000000"  font-family="Helvetica" font-style="normal" font-weight="bold" font-size="227" text-anchor="middle">DT</text>
<!-- Circle -->
<circle cx="708" cy="1181" r="94"
 style="stroke:#000000;stroke-width:16;"/>
<!-- Circle -->
<circle cx="897" cy="1181" r="94"
 style="stroke:#000000;stroke-width:16;"/>
<!-- Line -->
<polyline points="640,1116
519,1228
" style="stroke:#000000;stroke-width:16;
stroke-linejoin:miter; stroke-linecap:butt;
"/>
<!-- Circle -->
<circle cx="708" cy="897" r="94"
 style="stroke:#000000;stroke-width:16;"/>
<!-- Circle -->
<circle cx="897" cy="897" r="94"
 style="stroke:#000000;stroke-width:16;"/>
<!-- Line -->
<polyline points="641,963
519,850
" style="stroke:#000000;stroke-width:16;
stroke-linejoin:miter; stroke-linecap:butt;
"/>
<!-- Circle -->
<circle cx="3165" cy="661" r="94"
 style="stroke:#000000;stroke-width:16;"/>
<!-- Text -->
<text xml:space="preserve" x="3165" y="708" fill="#000000"  font-family="Helvetica" font-style="normal" font-weight="bold" font-size="114" text-anchor="middle">1</text>
<!-- Line: box -->
<rect x="3401" y="566" width="188" height="188" rx="0" 
style="stroke:#000000;stroke-width:16;
stroke-linejoin:miter; stroke-linecap:butt;
"/>
<!-- Text -->
<text xml:space="preserve" x="3496" y="708" fill="#000000"  font-family="Helvetica" font-style="normal" font-weight="bold" font-size="114" text-anchor="middle">3</text>
<!-- Line -->
<polyline points="3401,755
3354,803
" style="stroke:#000000;stroke-width:16;
stroke-linejoin:miter; stroke-linecap:butt;
"/>
<!-- Line: box -->
<rect x="3070" y="1228" width="188" height="188" rx="0" 
style="stroke:#000000;stroke-width:16;
stroke-linejoin:miter; stroke-linecap:butt;
"/>
<!-- Text -->
<text xml:space="preserve" x="3165" y="1370" fill="#000000"  font-family="Helvetica" font-style="normal" font-weight="bold" font-size="114" text-anchor="middle">1</text>
<!-- Circle -->
<circle cx="2834" cy="1322" r="94"
 style="stroke:#000000;stroke-width:16;"/>
<!-- Text -->
<text xml:space="preserve" x="2834" y="1370" fill="#000000"  font-family="Helvetica" font-style="normal" font-weight="bold" font-size="114" text-anchor="middle">2</text>
<!-- Line -->
<polyline points="2898,1255
2945,1208
" style="stroke:#000000;stroke-width:16;
stroke-linejoin:miter; stroke-linecap:butt;
"/>
<!-- Line -->
<polyline points="3229,594
3276,546
" style="stroke:#000000;stroke-width:16;
stroke-linejoin:miter; stroke-linecap:butt;
"/>
<!-- Line -->
<polyline points="3070,1417
3023,1464
" style="stroke:#000000;stroke-width:16;
stroke-linejoin:miter; stroke-linecap:butt;
"/>
<!-- Text -->
<text xml:space="preserve" x="3165" y="1133" fill="#000000"  font-family="Helvetica" font-style="normal" font-weight="bold" font-size="227" text-anchor="middle">D</text>
<!-- Text -->
<text xml:space="preserve" x="3496" y="1370" fill="#000000"  font-family="Helvetica" font-style="normal" font-weight="bold" font-size="114" text-anchor="middle">3</text>
<!-- Text -->
<text xml:space="preserve" x="2834" y="708" fill="#000000"  font-family="Helvetica" font-style="normal" font-weight="bold" font-size="114" text-anchor="middle">2</text>
<!-- Line -->
<polyline points="3307,519
3308,519
3312,516
3321,511
3336,502
3354,492
3374,482
3394,473
3412,465
3428,458
3445,454
3462,451
3480,449
3493,447
3508,447
3524,447
3540,448
3556,449
3574,452
3592,455
3609,459
3627,465
3643,471
3658,478
3673,486
3686,495
3697,504
3708,515
3716,528
3722,538
3729,551
3733,564
3737,578
3740,594
3742,611
3742,627
3742,645
3741,663
3739,681
3736,700
3732,718
3727,734
3721,751
3715,767
3708,783
3700,797
3693,811
3682,825
3672,838
3659,852
3645,866
3628,879
3609,893
3588,908
3565,923
3541,938
3516,953
3493,966
3475,977
3502,961
" style="stroke:#000000;stroke-width:16;
stroke-linejoin:bevel; stroke-linecap:butt;
"/>
<!-- Arrowhead on XXXpoint 3475 977 - 3420 1006-->
<polygon points="3468 944
3428 1002
3499 999
3468 944

" style="stroke:#000000;stroke-width:8;stroke-miterlimit:8;
fill:#000000;"/>
<!-- Line -->
<polyline points="2976,1511
2975,1511
2971,1513
2960,1518
2945,1523
2928,1529
2911,1534
2894,1539
2877,1541
2860,1543
2843,1543
2828,1543
2812,1542
2795,1541
2777,1538
2759,1534
2739,1530
2720,1525
2700,1519
2682,1511
2665,1502
2649,1492
2636,1482
2624,1469
2614,1457
2607,1445
2601,1433
2597,1419
2593,1405
2590,1390
2587,1373
2587,1356
2587,1338
2588,1320
2591,1302
2594,1283
2598,1266
2603,1249
2608,1232
2615,1216
2622,1201
2629,1186
2638,1173
2647,1159
2658,1145
2670,1131
2685,1118
2702,1104
2721,1090
2742,1076
2765,1060
2789,1045
2814,1030
2836,1017
2855,1006
2827,1021
" style="stroke:#000000;stroke-width:16;
stroke-linejoin:bevel; stroke-linecap:butt;
stroke-dasharray:20 20;"/>
<!-- Arrowhead on XXXpoint 2855 1006 - 2909 976-->
<polygon points="2860 1038
2900 980
2830 983
2860 1038

" style="stroke:#000000;stroke-width:8;stroke-miterlimit:8;
fill:#000000;"/>
<!-- Line: box -->
<rect x="377" y="1889" width="188" height="188" rx="0" 
style="stroke:#000000;stroke-width:16;
stroke-linejoin:miter; stroke-linecap:butt;
"/>
<!-- Text -->
<text xml:space="preserve" x="472" y="2031" fill="#000000"  font-family="Helvetica" font-style="normal" font-weight="bold" font-size="114" text-anchor="middle">2</text>
<!-- Circle -->
<circle cx="472" cy="2314" r="94"
 style="stroke:#000000;stroke-width:16;"/>
<!-- Text -->
<text xml:space="preserve" x="472" y="2362" fill="#000000"  font-family="Helvetica" font-style="normal" font-weight="bold" font-size="114" text-anchor="middle">1</text>
<!-- Circle -->
<circle cx="1133" cy="2645" r="94"
 style="stroke:#000000;stroke-width:16;"/>
<!-- Text -->
<text xml:space="preserve" x="1133" y="2692" fill="#000000"  font-family="Helvetica" font-style="normal" font-weight="bold" font-size="114" text-anchor="middle">3</text>
<!-- Line: box -->
<rect x="1039" y="2220" width="188" height="188" rx="0" 
style="stroke:#000000;stroke-width:16;
stroke-linejoin:miter; stroke-linecap:butt;
"/>
<!-- Text -->
<text xml:space="preserve" x="1133" y="2362" fill="#000000"  font-family="Helvetica" font-style="normal" font-weight="bold" font-size="114" text-anchor="middle">1</text>
<!-- Line -->
<polyline points="405,2247
358,2200
" style="stroke:#000000;stroke-width:16;
stroke-linejoin:miter; stroke-linecap:butt;
"/>
<!-- Line -->
<polyline points="1275,2456
1228,2409
" style="stroke:#000000;stroke-width:16;
stroke-linejoin:miter; stroke-linecap:butt;
"/>
<!-- Line -->
<polyline points="1066,2578
1019,2531
" style="stroke:#000000;stroke-width:16;
stroke-linejoin:miter; stroke-linecap:butt;
"/>
<!-- Line -->
<polyline points="614,2125
566,2078
" style="stroke:#000000;stroke-width:16;
stroke-linejoin:miter; stroke-linecap:butt;
"/>
<!-- Line -->
<polyline points="1322,2503
1322,2504
1324,2509
1329,2518
1335,2533
1341,2549
1348,2564
1353,2579
1356,2593
1359,2607
1362,2622
1363,2633
1364,2645
1364,2658
1364,2671
1363,2685
1362,2700
1359,2714
1354,2730
1349,2744
1341,2758
1333,2770
1323,2783
1312,2793
1299,2803
1286,2810
1271,2817
1255,2825
1237,2830
1218,2835
1197,2839
1176,2844
1153,2846
1131,2847
1109,2848
1087,2847
1065,2845
1045,2841
1026,2837
1008,2832
992,2827
976,2818
961,2810
946,2800
933,2787
918,2772
903,2754
888,2734
873,2712
857,2688
841,2664
828,2642
833,2651
" style="stroke:#000000;stroke-width:16;
stroke-linejoin:bevel; stroke-linecap:butt;
stroke-dasharray:20 20;"/>
<!-- Arrowhead on XXXpoint 828 2642 - 787 2570-->
<polygon points="849 2617
791 2578
794 2647
849 2617

" style="stroke:#000000;stroke-width:8;stroke-miterlimit:8;
fill:#000000;"/>
<!-- Line -->
<polyline points="330,2173
330,2172
327,2169
322,2159
313,2144
303,2127
291,2109
282,2090
274,2073
266,2058
260,2044
256,2030
251,2015
248,2003
246,1989
244,1975
244,1961
244,1946
245,1930
247,1916
251,1900
257,1885
264,1871
272,1859
282,1846
293,1836
307,1826
320,1819
334,1812
350,1804
368,1799
387,1794
408,1790
429,1785
452,1783
474,1782
496,1781
518,1782
540,1784
560,1787
579,1792
597,1797
614,1803
629,1811
644,1819
659,1829
672,1842
687,1857
702,1875
718,1895
732,1917
748,1941
764,1965
777,1987
771,1976
" style="stroke:#000000;stroke-width:16;
stroke-linejoin:bevel; stroke-linecap:butt;
"/>
<!-- Arrowhead on XXXpoint 777 1987 - 817 2058-->
<polygon points="754 2010
813 2050
809 1979
754 2010

" style="stroke:#000000;stroke-width:8;stroke-miterlimit:8;
fill:#000000;"/>
<!-- Text -->
<text xml:space="preserve" x="803" y="2456" fill="#000000"  font-family="Helvetica" font-style="normal" font-weight="bold" font-size="227" text-anchor="middle">D</text>
<!-- Text -->
<text xml:space="preserve" x="1133" y="2031" fill="#000000"  font-family="Helvetica" font-style="normal" font-weight="bold" font-size="114" text-anchor="middle">3</text>
<!-- Text -->
<text xml:space="preserve" x="472" y="2692" fill="#000000"  font-family="Helvetica" font-style="normal" font-weight="bold" font-size="114" text-anchor="middle">2</text>
<!-- Line -->
<polyline points="188,2881
188,2882
190,2886
191,2890
194,2895
197,2902
201,2910
206,2917
213,2923
219,2930
227,2934
237,2938
247,2941
260,2943
275,2944
291,2944
307,2944
326,2943
346,2942
367,2940
391,2939
415,2936
441,2934
469,2932
496,2929
522,2925
550,2923
576,2921
600,2918
624,2917
645,2915
665,2914
684,2913
701,2913
719,2913
734,2915
748,2917
760,2921
770,2927
777,2933
785,2940
791,2949
795,2957
798,2964
801,2971
803,2974
803,2976
" style="stroke:#000000;stroke-width:16;
stroke-linejoin:bevel; stroke-linecap:round;
"/>
<!-- Line -->
<polyline points="1417,2881
1417,2883
1415,2887
1413,2893
1409,2900
1405,2909
1399,2917
1392,2924
1384,2931
1374,2936
1362,2940
1349,2942
1333,2944
1315,2944
1298,2944
1279,2943
1259,2942
1238,2940
1214,2939
1190,2936
1164,2934
1137,2932
1109,2929
1083,2925
1056,2923
1029,2921
1005,2918
981,2917
960,2915
940,2914
921,2913
906,2913
889,2913
874,2914
861,2916
851,2919
841,2923
833,2928
827,2934
820,2940
815,2948
811,2955
808,2962
805,2967
804,2972
803,2975
803,2976
" style="stroke:#000000;stroke-width:16;
stroke-linejoin:bevel; stroke-linecap:round;
"/>
<!-- Line -->
<polyline points="3637,2362
3165,2362
" style="stroke:#000000;stroke-width:16;
stroke-linejoin:miter; stroke-linecap:butt;
"/>
<!-- Text -->
<text xml:space="preserve" x="3401" y="2456" fill="#000000"  font-family="Helvetica" font-style="normal" font-weight="bold" font-size="227" text-anchor="middle">DT</text>
<!-- Circle -->
<circle cx="2551" cy="2220" r="94"
 style="stroke:#000000;stroke-width:16;"/>
<!-- Line -->
<polyline points="2551,2125
2551,2078
" style="stroke:#000000;stroke-width:16;
stroke-linejoin:miter; stroke-linecap:butt;
"/>
<!-- Text -->
<text xml:space="preserve" x="2551" y="2267" fill="#000000"  font-family="Helvetica" font-style="normal" font-weight="bold" font-size="114" text-anchor="middle">1</text>
<!-- Line: box -->
<rect x="2456" y="2409" width="188" height="188" rx="0" 
style="stroke:#000000;stroke-width:16;
stroke-linejoin:miter; stroke-linecap:butt;
"/>
<!-- Line -->
<polyline points="2551,2645
2551,2598
" style="stroke:#000000;stroke-width:16;
stroke-linejoin:miter; stroke-linecap:butt;
"/>
<!-- Text -->
<text xml:space="preserve" x="2551" y="2551" fill="#000000"  font-family="Helvetica" font-style="normal" font-weight="bold" font-size="114" text-anchor="middle">1</text>
<!-- Line -->
<polyline points="2976,1889
2977,1890
2980,1893
2984,1899
2990,1906
2995,1917
3000,1929
3004,1945
3008,1964
3011,1986
3014,2013
3016,2047
3016,2066
3017,2086
3018,2108
3018,2131
3019,2156
3019,2182
3020,2209
3020,2239
3021,2268
3021,2299
3021,2330
3021,2362
3021,2393
3021,2425
3021,2455
3020,2485
3020,2514
3019,2541
3019,2567
3018,2593
3018,2616
3017,2638
3016,2658
3016,2677
3014,2710
3011,2738
3008,2760
3004,2779
3000,2794
2995,2807
2990,2817
2984,2825
2980,2830
2977,2833
2976,2834
" style="stroke:#000000;stroke-width:16;
stroke-linejoin:bevel; stroke-linecap:butt;
"/>
<!-- Line -->
<polyline points="1842,1889
1841,1890
1839,1891
1836,1896
1832,1900
1827,1907
1823,1917
1819,1927
1815,1940
1812,1955
1808,1972
1806,1993
1804,2018
1803,2047
1802,2066
1801,2086
1800,2108
1800,2131
1799,2156
1799,2182
1798,2209
1798,2239
1797,2268
1797,2299
1797,2330
1797,2362
1797,2393
1797,2425
1797,2455
1798,2485
1798,2514
1799,2541
1799,2567
1800,2593
1800,2616
1801,2638
1802,2658
1803,2677
1804,2705
1806,2730
1808,2751
1812,2768
1815,2784
1819,2796
1823,2807
1827,2816
1832,2824
1836,2828
1839,2832
1841,2833
1842,2834
" style="stroke:#000000;stroke-width:16;
stroke-linejoin:bevel; stroke-linecap:butt;
"/>
<!-- Text -->
<text xml:space="preserve" x="2881" y="2740" fill="#000000"  font-family="Helvetica" font-style="normal" font-weight="bold" font-size="114" text-anchor="middle">3</text>
<!-- Text -->
<text xml:space="preserve" x="2220" y="2078" fill="#000000"  font-family="Helvetica" font-style="normal" font-weight="bold" font-size="114" text-anchor="middle">2</text>
<!-- Text -->
<text xml:space="preserve" x="2881" y="2078" fill="#000000"  font-family="Helvetica" font-style="normal" font-weight="bold" font-size="114" text-anchor="middle">3</text>
<!-- Text -->
<text xml:space="preserve" x="2220" y="2740" fill="#000000"  font-family="Helvetica" font-style="normal" font-weight="bold" font-size="114" text-anchor="middle">2</text>
<!-- Text -->
<text xml:space="preserve" x="1984" y="2456" fill="#000000"  font-family="Helvetica" font-style="normal" font-weight="bold" font-size="177" text-anchor="middle">to</text>
<!-- Arc -->
<path style="stroke:#000000;stroke-width:16;stroke-linecap:butt;"
d="M 1700,1039 A 94 94  0  0  1  1889  1039 " />
<!-- Arrowhead on XXXpoint 1883 1004 - 1889 1039-->
<polygon points="1851 1007
1888 1034
1913 997
1851 1007

" style="stroke:#000000;stroke-width:8;stroke-miterlimit:8;
fill:#000000;"/>
<!-- Line -->
<polyline points="0,377
6094,377
" style="stroke:#000000;stroke-width:16;
stroke-linejoin:miter; stroke-linecap:butt;
"/>
<!-- Line -->
<polyline points="6094,1700
0,1700
" style="stroke:#000000;stroke-width:16;
stroke-linejoin:miter; stroke-linecap:butt;
"/>
<!-- Line -->
<polyline points="3921,377
3921,1700
" style="stroke:#000000;stroke-width:16;
stroke-linejoin:miter; stroke-linecap:butt;
stroke-dasharray:41 41;"/>
<!-- Line -->
<polyline points="2409,377
2409,1700
" style="stroke:#000000;stroke-width:16;
stroke-linejoin:miter; stroke-linecap:butt;
"/>
<!-- Line -->
<polyline points="1181,377
1181,1700
" style="stroke:#000000;stroke-width:16;
stroke-linejoin:miter; stroke-linecap:butt;
"/>
<!-- Line -->
<polyline points="1606,1700
1606,3023
" style="stroke:#000000;stroke-width:16;
stroke-linejoin:miter; stroke-linecap:butt;
stroke-dasharray:41 41;"/>
<!-- Line: box -->
<rect x="0" y="0" width="6094" height="3023" rx="0" 
style="stroke:#000000;stroke-width:16;
stroke-linejoin:miter; stroke-linecap:butt;
"/>
<!-- Line -->
<polyline points="3779,1559
3779,1561
3777,1564
3775,1570
3772,1577
3767,1586
3761,1594
3754,1602
3746,1608
3736,1613
3724,1617
3711,1619
3695,1622
3677,1622
3660,1622
3641,1620
3622,1619
3601,1617
3576,1616
3552,1613
3526,1611
3499,1609
3471,1606
3445,1603
3418,1601
3392,1598
3367,1595
3343,1594
3322,1592
3302,1591
3283,1590
3268,1590
3251,1590
3236,1591
3224,1593
3213,1596
3204,1601
3195,1605
3189,1611
3183,1617
3177,1625
3173,1632
3170,1639
3167,1645
3166,1649
3165,1652
3165,1653
" style="stroke:#000000;stroke-width:16;
stroke-linejoin:bevel; stroke-linecap:round;
"/>
<!-- Line -->
<polyline points="2551,1559
2551,1560
2552,1563
2553,1567
2556,1572
2559,1580
2563,1587
2569,1594
2575,1601
2581,1607
2590,1611
2599,1615
2609,1618
2622,1620
2637,1622
2654,1622
2669,1622
2688,1620
2708,1619
2729,1617
2753,1616
2777,1613
2804,1611
2831,1609
2858,1606
2885,1603
2912,1601
2938,1598
2962,1595
2986,1594
3007,1592
3027,1591
3046,1590
3063,1590
3081,1590
3097,1592
3110,1594
3122,1598
3132,1604
3140,1610
3147,1617
3153,1626
3158,1634
3161,1641
3163,1648
3165,1651
3165,1653
" style="stroke:#000000;stroke-width:16;
stroke-linejoin:bevel; stroke-linecap:round;
"/>
<!-- Text -->
<text xml:space="preserve" x="6000" y="283" fill="#000000"  font-family="Helvetica" font-style="normal" font-weight="normal" font-size="227" text-anchor="end">R32</text>
<!-- Text -->
<text xml:space="preserve" x="2125" y="1133" fill="#000000"  font-family="Helvetica" font-style="normal" font-weight="bold" font-size="227" text-anchor="middle">X</text>
<!-- Text -->
<text xml:space="preserve" x="1417" y="1133" fill="#000000"  font-family="Helvetica" font-style="normal" font-weight="bold" font-size="227" text-anchor="middle">D</text>
<!-- Text -->
<text xml:space="preserve" x="283" y="1133" fill="#000000"  font-family="Helvetica" font-style="normal" font-weight="bold" font-size="227" text-anchor="middle">S</text>
<!-- Text -->
<text xml:space="preserve" x="141" y="283" fill="#000000"  font-family="Helvetica" font-style="normal" font-weight="normal" font-size="227" text-anchor="start">Engine Room</text>
<!-- Text -->
<text xml:space="preserve" x="3732" y="283" fill="#000000"  font-family="Helvetica" font-style="normal" font-weight="normal" font-size="227" text-anchor="middle">Wallace+Thomas</text>
<!-- Text -->
<text xml:space="preserve" x="1795" y="1086" fill="#000000"  font-family="Helvetica" font-style="normal" font-weight="bold" font-size="114" text-anchor="middle">1</text>
<!-- Circle -->
<circle cx="4960" cy="1039" r="94"
 style="stroke:#000000;stroke-width:16;"/>
</g>
</svg>
