<?xml version="1.0" standalone="no"?>
<!DOCTYPE svg PUBLIC "-//W3C//DTD SVG 1.1//EN"
"http://www.w3.org/Graphics/SVG/1.1/DTD/svg11.dtd">
<!-- Creator: fig2dev Version 3.2 Patchlevel 5d -->
<!-- CreationDate: Thu Feb 21 11:08:01 2013 -->
<!-- Magnification: 1.050 -->
<svg	xmlns="http://www.w3.org/2000/svg"
	xmlns:xlink="http://www.w3.org/1999/xlink"
	viewBox="-23 -23 6140 1605">
<g style="stroke-width:.025in; fill:none">
<!-- Text -->
<text xml:space="preserve" x="4393" y="1133" fill="#000000"  font-family="Helvetica" font-style="normal" font-weight="bold" font-size="227" text-anchor="middle">X</text>
<!-- Text -->
<text xml:space="preserve" x="141" y="1133" fill="#000000"  font-family="Helvetica" font-style="normal" font-weight="bold" font-size="227" text-anchor="middle">T</text>
<!-- Arc -->
<path style="stroke:#000000;stroke-width:16;stroke-linecap:butt;"
d="M 2078,992 A 94 94  0  0  0  2267  992 " />
<!-- Arrowhead on XXXpoint 2261 1026 - 2267 992-->
<polygon points="2291 1033
2266 997
2229 1022
2291 1033

" style="stroke:#000000;stroke-width:8;stroke-miterlimit:8;
fill:#000000;"/>
<!-- Text -->
<text xml:space="preserve" x="2173" y="1039" fill="#000000"  font-family="Helvetica" font-style="normal" font-weight="bold" font-size="114" text-anchor="middle">2</text>
<!-- Line -->
<polyline points="661,1228
661,1101
" style="stroke:#000000;stroke-width:16;
stroke-linejoin:miter; stroke-linecap:butt;
"/>
<!-- Arrowhead on XXXpoint 661 1228 - 661 1007-->
<polygon points="692 1080
661 1017
629 1080
692 1080

" style="stroke:#000000;stroke-width:8;stroke-miterlimit:8;
fill:#000000;"/>
<!-- Text -->
<text xml:space="preserve" x="519" y="1133" fill="#000000"  font-family="Helvetica" font-style="normal" font-weight="bold" font-size="227" text-anchor="middle">S</text>
<!-- Text -->
<text xml:space="preserve" x="519" y="803" fill="#000000"  font-family="Helvetica" font-style="normal" font-weight="bold" font-size="114" text-anchor="middle">1</text>
<!-- Text -->
<text xml:space="preserve" x="897" y="803" fill="#000000"  font-family="Helvetica" font-style="normal" font-weight="bold" font-size="114" text-anchor="middle">2</text>
<!-- Text -->
<text xml:space="preserve" x="897" y="1133" fill="#000000"  font-family="Helvetica" font-style="normal" font-weight="bold" font-size="227" text-anchor="middle">S</text>
<!-- Line -->
<polyline points="992,1322
992,1325
991,1331
988,1339
986,1349
983,1358
980,1366
975,1374
970,1379
962,1382
954,1384
944,1385
933,1384
919,1383
903,1381
887,1377
869,1374
850,1370
831,1365
813,1362
796,1358
781,1356
767,1355
755,1354
746,1355
738,1357
730,1360
725,1365
720,1373
717,1381
713,1391
711,1400
709,1408
708,1414
708,1417
" style="stroke:#000000;stroke-width:16;
stroke-linejoin:bevel; stroke-linecap:butt;
"/>
<!-- Line -->
<polyline points="425,1322
425,1325
426,1331
428,1339
430,1349
433,1358
436,1366
441,1374
447,1379
454,1382
462,1384
472,1385
483,1384
497,1383
513,1381
530,1377
548,1374
566,1370
585,1365
603,1362
620,1358
636,1356
649,1355
661,1354
670,1355
679,1357
686,1360
691,1365
697,1373
700,1381
703,1391
705,1400
707,1408
708,1414
708,1417
" style="stroke:#000000;stroke-width:16;
stroke-linejoin:bevel; stroke-linecap:butt;
"/>
<!-- Line -->
<polyline points="1086,472
1085,473
1082,476
1078,481
1072,490
1067,500
1062,514
1058,531
1054,550
1051,574
1048,602
1047,638
1046,657
1045,679
1044,701
1044,726
1043,752
1043,780
1042,809
1042,839
1041,870
1041,902
1041,935
1041,969
1041,1001
1041,1034
1041,1066
1042,1097
1042,1127
1043,1156
1043,1184
1044,1210
1044,1235
1045,1257
1046,1279
1047,1299
1048,1334
1051,1362
1054,1386
1058,1405
1062,1422
1067,1436
1072,1446
1078,1455
1082,1460
1085,1463
1086,1464
" style="stroke:#000000;stroke-width:16;
stroke-linejoin:bevel; stroke-linecap:round;
"/>
<!-- Line -->
<polyline points="1464,472
1465,473
1468,476
1472,481
1478,490
1483,500
1488,514
1492,531
1497,550
1499,574
1502,602
1504,638
1504,657
1505,679
1506,701
1506,726
1507,752
1507,780
1508,809
1508,839
1509,870
1509,902
1509,935
1509,969
1509,1001
1509,1034
1509,1066
1508,1097
1508,1127
1507,1156
1507,1184
1506,1210
1506,1235
1505,1257
1504,1279
1504,1299
1502,1334
1499,1362
1497,1386
1492,1405
1488,1422
1483,1436
1478,1446
1472,1455
1468,1460
1465,1463
1464,1464
" style="stroke:#000000;stroke-width:16;
stroke-linejoin:bevel; stroke-linecap:round;
"/>
<!-- Text -->
<text xml:space="preserve" x="1133" y="1039" fill="#000000"  font-family="Helvetica" font-style="normal" font-weight="normal" font-size="126" text-anchor="middle">to</text>
<!-- Line: box -->
<rect x="1228" y="425" width="188" height="188" rx="0" 
style="stroke:#000000;stroke-width:16;
stroke-linejoin:miter; stroke-linecap:butt;
"/>
<!-- Text -->
<text xml:space="preserve" x="1322" y="566" fill="#000000"  font-family="Helvetica" font-style="normal" font-weight="bold" font-size="114" text-anchor="middle">2</text>
<!-- Circle -->
<circle cx="1322" cy="850" r="94"
 style="stroke:#000000;stroke-width:16;"/>
<!-- Text -->
<text xml:space="preserve" x="1322" y="897" fill="#000000"  font-family="Helvetica" font-style="normal" font-weight="bold" font-size="114" text-anchor="middle">1</text>
<!-- Line: box -->
<rect x="1228" y="992" width="188" height="188" rx="0" 
style="stroke:#000000;stroke-width:16;
stroke-linejoin:miter; stroke-linecap:butt;
"/>
<!-- Text -->
<text xml:space="preserve" x="1322" y="1133" fill="#000000"  font-family="Helvetica" font-style="normal" font-weight="bold" font-size="114" text-anchor="middle">1</text>
<!-- Circle -->
<circle cx="1322" cy="1417" r="94"
 style="stroke:#000000;stroke-width:16;"/>
<!-- Text -->
<text xml:space="preserve" x="1322" y="1464" fill="#000000"  font-family="Helvetica" font-style="normal" font-weight="bold" font-size="114" text-anchor="middle">2</text>
<!-- Line -->
<polyline points="1322,661
1322,614
" style="stroke:#000000;stroke-width:16;
stroke-linejoin:miter; stroke-linecap:round;
"/>
<!-- Line -->
<polyline points="1322,755
1322,708
" style="stroke:#000000;stroke-width:16;
stroke-linejoin:miter; stroke-linecap:round;
"/>
<!-- Line -->
<polyline points="1322,1228
1322,1181
" style="stroke:#000000;stroke-width:16;
stroke-linejoin:miter; stroke-linecap:round;
"/>
<!-- Line -->
<polyline points="1322,1322
1322,1275
" style="stroke:#000000;stroke-width:16;
stroke-linejoin:miter; stroke-linecap:round;
"/>
<!-- Circle -->
<circle cx="1795" cy="1205" r="118"
 style="stroke:#000000;stroke-width:16;"/>
<!-- Circle -->
<circle cx="1795" cy="969" r="118"
 style="stroke:#000000;stroke-width:16;"/>
<!-- Circle -->
<circle cx="1795" cy="732" r="118"
 style="stroke:#000000;stroke-width:16;"/>
<!-- Line -->
<polyline points="1795,566
1795,1370
" style="stroke:#000000;stroke-width:16;
stroke-linejoin:miter; stroke-linecap:round;
"/>
<!-- Line -->
<polyline points="1606,377
1606,1559
" style="stroke:#000000;stroke-width:16;
stroke-linejoin:miter; stroke-linecap:butt;
stroke-dasharray:62 62;"/>
<!-- Line -->
<polyline points="1984,377
1984,1559
" style="stroke:#000000;stroke-width:16;
stroke-linejoin:miter; stroke-linecap:butt;
"/>
<!-- Line -->
<polyline points="2645,1228
2645,1101
" style="stroke:#000000;stroke-width:16;
stroke-linejoin:miter; stroke-linecap:butt;
"/>
<!-- Arrowhead on XXXpoint 2645 1228 - 2645 1007-->
<polygon points="2677 1080
2645 1017
2614 1080
2677 1080

" style="stroke:#000000;stroke-width:8;stroke-miterlimit:8;
fill:#000000;"/>
<!-- Text -->
<text xml:space="preserve" x="2503" y="1133" fill="#000000"  font-family="Helvetica" font-style="normal" font-weight="bold" font-size="227" text-anchor="middle">S</text>
<!-- Text -->
<text xml:space="preserve" x="2503" y="803" fill="#000000"  font-family="Helvetica" font-style="normal" font-weight="bold" font-size="114" text-anchor="middle">1</text>
<!-- Text -->
<text xml:space="preserve" x="2881" y="1133" fill="#000000"  font-family="Helvetica" font-style="normal" font-weight="bold" font-size="227" text-anchor="middle">S</text>
<!-- Text -->
<text xml:space="preserve" x="2881" y="803" fill="#000000"  font-family="Helvetica" font-style="normal" font-weight="bold" font-size="114" text-anchor="middle">3</text>
<!-- Line -->
<polyline points="2976,1322
2976,1325
2975,1331
2973,1339
2971,1349
2967,1358
2964,1366
2959,1374
2954,1379
2946,1382
2938,1384
2929,1385
2917,1384
2903,1383
2888,1381
2871,1377
2853,1374
2834,1370
2815,1365
2797,1362
2781,1358
2765,1356
2751,1355
2740,1354
2730,1355
2722,1357
2714,1360
2709,1365
2704,1373
2701,1381
2698,1391
2696,1400
2693,1408
2692,1414
2692,1417
" style="stroke:#000000;stroke-width:16;
stroke-linejoin:bevel; stroke-linecap:butt;
"/>
<!-- Line -->
<polyline points="2409,1322
2409,1325
2410,1331
2412,1339
2414,1349
2417,1358
2420,1366
2426,1374
2431,1379
2438,1382
2447,1384
2456,1385
2468,1384
2481,1383
2497,1381
2514,1377
2532,1374
2551,1370
2570,1365
2587,1362
2604,1358
2620,1356
2634,1355
2645,1354
2655,1355
2663,1357
2670,1360
2676,1365
2681,1373
2684,1381
2687,1391
2689,1400
2691,1408
2692,1414
2692,1417
" style="stroke:#000000;stroke-width:16;
stroke-linejoin:bevel; stroke-linecap:butt;
"/>
<!-- Line -->
<polyline points="3070,472
3069,473
3066,476
3062,481
3057,490
3051,500
3046,514
3042,531
3038,550
3036,574
3033,602
3032,638
3030,657
3029,679
3028,701
3028,726
3027,752
3027,780
3026,809
3026,839
3025,870
3025,902
3025,935
3025,969
3025,1001
3025,1034
3025,1066
3026,1097
3026,1127
3027,1156
3027,1184
3028,1210
3028,1235
3029,1257
3030,1279
3032,1299
3033,1334
3036,1362
3038,1386
3042,1405
3046,1422
3051,1436
3057,1446
3062,1455
3066,1460
3069,1463
3070,1464
" style="stroke:#000000;stroke-width:16;
stroke-linejoin:bevel; stroke-linecap:round;
"/>
<!-- Line -->
<polyline points="3448,472
3449,473
3453,476
3457,481
3462,490
3467,500
3472,514
3477,531
3481,550
3483,574
3486,602
3488,638
3488,657
3489,679
3490,701
3490,726
3491,752
3491,780
3492,809
3492,839
3493,870
3493,902
3493,935
3493,969
3493,1001
3493,1034
3493,1066
3492,1097
3492,1127
3491,1156
3491,1184
3490,1210
3490,1235
3489,1257
3488,1279
3488,1299
3486,1334
3483,1362
3481,1386
3477,1405
3472,1422
3467,1436
3462,1446
3457,1455
3453,1460
3449,1463
3448,1464
" style="stroke:#000000;stroke-width:16;
stroke-linejoin:bevel; stroke-linecap:round;
"/>
<!-- Text -->
<text xml:space="preserve" x="3118" y="1039" fill="#000000"  font-family="Helvetica" font-style="normal" font-weight="normal" font-size="126" text-anchor="middle">to</text>
<!-- Circle -->
<circle cx="3307" cy="850" r="94"
 style="stroke:#000000;stroke-width:16;"/>
<!-- Text -->
<text xml:space="preserve" x="3307" y="897" fill="#000000"  font-family="Helvetica" font-style="normal" font-weight="bold" font-size="114" text-anchor="middle">1</text>
<!-- Line: box -->
<rect x="3212" y="992" width="188" height="188" rx="0" 
style="stroke:#000000;stroke-width:16;
stroke-linejoin:miter; stroke-linecap:butt;
"/>
<!-- Text -->
<text xml:space="preserve" x="3307" y="1133" fill="#000000"  font-family="Helvetica" font-style="normal" font-weight="bold" font-size="114" text-anchor="middle">1</text>
<!-- Line: box -->
<rect x="3212" y="425" width="188" height="188" rx="0" 
style="stroke:#000000;stroke-width:16;
stroke-linejoin:miter; stroke-linecap:butt;
"/>
<!-- Text -->
<text xml:space="preserve" x="3307" y="566" fill="#000000"  font-family="Helvetica" font-style="normal" font-weight="bold" font-size="114" text-anchor="middle">3</text>
<!-- Circle -->
<circle cx="3307" cy="1417" r="94"
 style="stroke:#000000;stroke-width:16;"/>
<!-- Text -->
<text xml:space="preserve" x="3307" y="1464" fill="#000000"  font-family="Helvetica" font-style="normal" font-weight="bold" font-size="114" text-anchor="middle">3</text>
<!-- Line -->
<polyline points="3307,661
3307,614
" style="stroke:#000000;stroke-width:16;
stroke-linejoin:miter; stroke-linecap:round;
"/>
<!-- Line -->
<polyline points="3307,755
3307,708
" style="stroke:#000000;stroke-width:16;
stroke-linejoin:miter; stroke-linecap:round;
"/>
<!-- Line -->
<polyline points="3307,1228
3307,1181
" style="stroke:#000000;stroke-width:16;
stroke-linejoin:miter; stroke-linecap:round;
"/>
<!-- Line -->
<polyline points="3307,1322
3307,1275
" style="stroke:#000000;stroke-width:16;
stroke-linejoin:miter; stroke-linecap:round;
"/>
<!-- Circle -->
<circle cx="3779" cy="1205" r="118"
 style="stroke:#000000;stroke-width:16;"/>
<!-- Circle -->
<circle cx="3779" cy="969" r="118"
 style="stroke:#000000;stroke-width:16;"/>
<!-- Circle -->
<circle cx="3779" cy="732" r="118"
 style="stroke:#000000;stroke-width:16;"/>
<!-- Line -->
<polyline points="3779,566
3779,1370
" style="stroke:#000000;stroke-width:16;
stroke-linejoin:miter; stroke-linecap:round;
"/>
<!-- Line -->
<polyline points="3590,377
3590,1559
" style="stroke:#000000;stroke-width:16;
stroke-linejoin:miter; stroke-linecap:butt;
stroke-dasharray:62 62;"/>
<!-- Line -->
<polyline points="3968,377
3968,1559
" style="stroke:#000000;stroke-width:16;
stroke-linejoin:miter; stroke-linecap:butt;
"/>
<!-- Arc -->
<path style="stroke:#000000;stroke-width:16;stroke-linecap:butt;"
d="M 4251,992 A 94 94  0  0  1  4062  992 " />
<!-- Arrowhead on XXXpoint 4069 1026 - 4062 992-->
<polygon points="4099 1022
4064 997
4037 1033
4099 1022

" style="stroke:#000000;stroke-width:8;stroke-miterlimit:8;
fill:#000000;"/>
<!-- Text -->
<text xml:space="preserve" x="4157" y="1039" fill="#000000"  font-family="Helvetica" font-style="normal" font-weight="bold" font-size="114" text-anchor="middle">2</text>
<!-- Arc -->
<path style="stroke:#000000;stroke-width:16;stroke-linecap:butt;"
d="M 4535,992 A 94 94  0  0  1  4724  992 " />
<!-- Arrowhead on XXXpoint 4718 957 - 4724 992-->
<polygon points="4686 960
4723 986
4748 950
4686 960

" style="stroke:#000000;stroke-width:8;stroke-miterlimit:8;
fill:#000000;"/>
<!-- Text -->
<text xml:space="preserve" x="4629" y="1039" fill="#000000"  font-family="Helvetica" font-style="normal" font-weight="bold" font-size="114" text-anchor="middle">1</text>
<!-- Text -->
<text xml:space="preserve" x="5858" y="1133" fill="#000000"  font-family="Helvetica" font-style="normal" font-weight="bold" font-size="227" text-anchor="middle">P</text>
<!-- Text -->
<text xml:space="preserve" x="5858" y="803" fill="#000000"  font-family="Helvetica" font-style="normal" font-weight="bold" font-size="114" text-anchor="middle">2 1</text>
<!-- Circle -->
<circle cx="5055" cy="873" r="118"
 style="stroke:#000000;stroke-width:16;"/>
<!-- Circle -->
<circle cx="5055" cy="1110" r="118"
 style="stroke:#000000;stroke-width:16;"/>
<!-- Circle -->
<circle cx="5433" cy="874" r="118"
 style="stroke:#000000;stroke-width:16;"/>
<!-- Circle -->
<circle cx="5433" cy="1110" r="117"
 style="stroke:#000000;stroke-width:16;"/>
<!-- Line -->
<polyline points="5244,1086
5102,992
" style="stroke:#000000;stroke-width:16;
stroke-linejoin:miter; stroke-linecap:butt;
"/>
<!-- Line -->
<polyline points="5244,897
5385,992
" style="stroke:#000000;stroke-width:16;
stroke-linejoin:miter; stroke-linecap:butt;
"/>
<!-- Line -->
<polyline points="5433,708
5433,1275
" style="stroke:#000000;stroke-width:16;
stroke-linejoin:miter; stroke-linecap:round;
"/>
<!-- Line -->
<polyline points="5055,1275
5055,708
" style="stroke:#000000;stroke-width:16;
stroke-linejoin:miter; stroke-linecap:round;
"/>
<!-- Circle -->
<circle cx="5433" cy="1417" r="47"
 style="stroke:#000000;stroke-width:8;"/>
<!-- Circle -->
<circle cx="5430" cy="1416" r="18"
 style="fill:#000000;stroke:#000000;stroke-width:8;"/>
<!-- Line -->
<polyline points="0,377
6094,377
" style="stroke:#000000;stroke-width:16;
stroke-linejoin:miter; stroke-linecap:butt;
"/>
<!-- Line -->
<polyline points="4818,377
4818,1559
" style="stroke:#000000;stroke-width:16;
stroke-linejoin:miter; stroke-linecap:butt;
stroke-dasharray:62 62;"/>
<!-- Line -->
<polyline points="5669,377
5669,1559
" style="stroke:#000000;stroke-width:16;
stroke-linejoin:miter; stroke-linecap:butt;
"/>
<!-- Line: box -->
<rect x="0" y="0" width="6094" height="1559" rx="0" 
style="stroke:#000000;stroke-width:16;
stroke-linejoin:miter; stroke-linecap:butt;
"/>
<!-- Text -->
<text xml:space="preserve" x="141" y="283" fill="#000000"  font-family="Helvetica" font-style="normal" font-weight="normal" font-size="227" text-anchor="start">The Gentleman</text>
<!-- Text -->
<text xml:space="preserve" x="4771" y="283" fill="#000000"  font-family="Helvetica" font-style="normal" font-weight="normal" font-size="177" text-anchor="end">XXXV 5</text>
<!-- Text -->
<text xml:space="preserve" x="6000" y="283" fill="#000000"  font-family="Helvetica" font-style="normal" font-weight="normal" font-size="227" text-anchor="end">S8x32</text>
<!-- Text -->
<text xml:space="preserve" x="283" y="1181" fill="#000000"  font-family="Helvetica" font-style="normal" font-weight="bold" font-size="152" text-anchor="middle">B</text>
</g>
</svg>
