<?xml version="1.0" encoding="UTF-8"?>
<!-- Created with Inkscape (http://www.inkscape.org/) -->
<svg width="713" height="377" version="1.1" viewBox="0 0 713 377" xmlns="http://www.w3.org/2000/svg" xmlns:cc="http://creativecommons.org/ns#" xmlns:dc="http://purl.org/dc/elements/1.1/" xmlns:rdf="http://www.w3.org/1999/02/22-rdf-syntax-ns#">
 <metadata>
  <rdf:RDF>
   <cc:Work rdf:about="">
    <dc:format>image/svg+xml</dc:format>
    <dc:type rdf:resource="http://purl.org/dc/dcmitype/StillImage"/>
    <dc:title/>
   </cc:Work>
  </rdf:RDF>
 </metadata>
 <path d="m10.969 187v-180h697.01l-0.25273 179.75-0.25272 179.75-348.25 0.25142-348.25 0.25142zm248.26 171.75l0.36728-5.25 0.18498 5.25 0.18498 5.25h239.95l-2.8154-4.7748c-4.3851-7.4371-7.7888-16.781-10.282-28.225-1.9898-9.134-2.2858-13.297-2.2753-32 9e-3 -15.293 0.52174-24.964 1.7774-33.5 1.9914-13.537 8.304-45.5 9.6417-48.82 1.6067-3.987 1.1239 0.81194-1.0644 10.58-13.02 58.12-12.51 98.896 1.5942 127.49l4.5627 9.25h182.49l3.1679-5.25c17.122-28.375 18.93-69.977 5.6838-130.75-1.3786-6.325-2.7445-12.288-3.0352-13.25-0.29076-0.9625-0.10984-1.75 0.40204-1.75 0.91235 0 5.7348 21.193 8.6469 38 5.9042 34.076 5.2955 67.807-1.6058 89-2.2898 7.0316-6.9239 16.848-10.032 21.25l-1.9414 2.75h20.136v-158h-691v158h244.9zm104.49-0.43933c-2.6303-0.68737-2.1034-2.3107 0.75-2.3107 1.5556 0 2.5 0.56667 2.5 1.5 0 1.5386-0.23768 1.5979-3.25 0.81067zm-225.61-2.4581c-4.8027-1.3821-10.077-4.9344-14.352-9.6658-4.3553-4.8208-6.6432-9.1393-9.9-18.687l-2.3878-7-0.58189 6c-0.52549 5.4184-0.59819 5.0839-0.75-3.45-0.10309-5.795 0.18913-9.0826 0.75553-8.5 3.1171 3.2061 11.027 13.833 10.608 14.252-0.27688 0.27688-1.3564-0.57778-2.399-1.8992-1.0426-1.3215-2.8865-3.5277-4.0977-4.9027-2.4162-2.7429-2.4821-3.2025 0.93579 6.5225 4.5411 12.921 10.689 20.67 19.486 24.561 9.1872 4.0639 22.718 3.2973 24.467-1.3863 0.91083-2.4388-0.0194-5.6222-2.6697-9.1357l-1.7506-2.3209-3.0018 3.4507c-6.8802 7.909-19.356 4.4668-21.9-6.0424-1.5306-6.322 3.8653-13.896 10.831-15.203 7.0794-1.3281 14.535 5.0906 14.582 12.553 0.0138 2.206 1.1244 5.127 3.0037 7.9005 4.4476 6.5637 3.7234 10.948-2.1463 12.994-3.8015 1.3252-14.061 1.3021-18.732-0.0422zm11.642-11.445c6.5229-4.274 5.9678-15.418-0.94623-18.993-4.8861-2.5267-9.623-1.8267-13.435 1.9853-9.8327 9.8327 2.704 24.659 14.381 17.008zm-7.0568-5.3535c-0.39586-1.5138-1.351-2.0542-3.6308-2.0542-1.7015 0-3.0936-0.22396-3.0936-0.49769 0-0.27372 1.6875-2.853 3.75-5.7318l3.75-5.2342 0.31875 4.4622c0.17532 2.4542 0.66451 4.921 1.0871 5.4818s0.22551 2.0565-0.43796 3.3238c-1.177 2.2481-1.2194 2.2542-1.7435 0.25zm0.27559-6.0542c0-1.65-0.19436-3-0.43191-3-0.23754 0-1.3932 1.35-2.5681 3l-2.1362 3h2.5681c2.1868 0 2.5681-0.44545 2.5681-3zm235.57 23.114c-0.62336-1.0086 3.3344-2.2906 4.6196-1.4964 0.46353 0.28647 0.58388 0.93976 0.26744 1.4518-0.73128 1.1832-4.1639 1.2146-4.887 0.0446zm152.43-6.4437v-7.33l3.56 0.11812c1.958 0.065 3.9761 0.77599 4.4847 1.58 2.292 3.6236 0.15959 8.9619-3.5799 8.9619-1.7982 0-2.4648 0.54095-2.4648 2 0 1.1-0.45 2-1 2-0.57572 0-1-3.11-1-7.33zm5.9543 0.88508c1.853-2.2328 0.89351-6.0055-1.6184-6.3633-2.6487-0.37733-3.946 2.7999-2.3561 5.7705 1.2887 2.4079 2.3382 2.5644 3.9745 0.59281zm-188.2 2.333c-0.9625-0.54308-1.75-1.415-1.75-1.9377 0-1.2103 2.0594-1.1982 3.9916 0.0234 2.1802 1.3784 0.0431 3.2035-2.2416 1.9144zm156.25-7.388v-7.5h4.3c2.365 0 4.84 0.54 5.5 1.2 1.6823 1.6823 1.4967 5.7489-0.29365 6.4359-1.2583 0.48285-1.1623 1.0384 0.60909 3.5262 3.0937 4.3447 1.5092 4.6426-2.4372 0.4582-4.284-4.5424-5.6783-4.5719-5.6783-0.12033 0 1.925-0.45 3.5-1 3.5-0.57778 0-1-3.1667-1-7.5zm8.5-3c0-1.5255-0.77112-2.0744-3.25-2.3134-2.9213-0.28167-3.25-0.0477-3.25 2.3134 0 2.3611 0.32866 2.595 3.25 2.3134 2.4789-0.23901 3.25-0.7879 3.25-2.3134zm6.5542 9.0653c-0.65487-0.78907-1.0475-2.9184-0.87244-4.7319 0.2501-2.5914 0.92935-3.5109 3.1729-4.2952 2.4537-0.85774 3.1209-0.66915 4.75 1.3427 2.7476 3.3931 2.3766 4.1191-2.1047 4.1191-2.7524 0-4 0.4345-4 1.393 0 1.9374 2.9641 2.8817 4.6509 1.4817 1.577-1.3088 2.8966-0.56968 1.8902 1.0587-0.96196 1.5565-6.0992 1.3039-7.4869-0.36815zm5.9458-6.1349c0-1.0423-0.72946-1.4622-2.1717-1.25-3.2015 0.47108-3.5444 2.8196-0.41166 2.8196 1.6805 0 2.5833-0.54853 2.5833-1.5696zm16.381 5.0286c-1.3408-2.0464-1.4443-3.0251-0.5317-5.0281 0.62326-1.3679 1.8408-2.7586 2.7056-3.0905 2.3823-0.91417 6.4449 1.3429 6.4449 3.5806 0 1.5781-0.79584 2.0244-4.0512 2.2714-3.8657 0.29342-3.983 0.39908-2.5609 2.3075 1.2721 1.7071 1.7902 1.8169 3.5377 0.75 2.749-1.6784 3.5907-1.5769 2.0745 0.25-1.9444 2.3429-5.7415 1.8241-7.6188-1.041zm6.6188-4.959c0-0.93333-0.94444-1.5-2.5-1.5s-2.5 0.56667-2.5 1.5 0.94444 1.5 2.5 1.5 2.5-0.56667 2.5-1.5zm4.3491 5.9673c-0.7389-1.9255 1.2147-4.2614 3.8952-4.6573 1.1545-0.17051 2.2843-0.87253 2.5107-1.56 0.52737-1.6014-2.9653-1.6397-4.555-0.05-0.93333 0.93333-1.2 0.82646-1.2-0.48095 0-1.7948 4.0302-3.3052 6.3965-2.3971 0.85961 0.32987 1.5367 2.4177 1.7522 5.4028l0.35125 4.8652-4.289 0.18512c-3.0083 0.12983-4.4601-0.26064-4.8619-1.3077zm6.4628-1.7288c0.35802-1.859-1.4332-2.2644-3.69-0.83501-0.75796 0.48009-1.0535 1.3981-0.65676 2.0401 1.0291 1.6651 3.9499 0.85536 4.3467-1.205zm5.7391 2.0115c-1.2249-3.9639-1.2151-9.8207 0.0193-11.448 1.2234-1.6134 1.3694-1.6274 1.3979-0.13487 0.0175 0.91666 0.5943 1.9292 1.2818 2.25 1 0.46666 1 0.7 0 1.1667-1.4781 0.68977-1.7048 7.4167-0.24998 7.4167 0.55 0 1 0.45 1 1 0 1.4478-2.9914 1.2309-3.449-0.25zm11.449-0.75c-1.2968-2.4232-0.30869-2.5893 2.1525-0.36199 1.4756 1.3354 2.0906 1.4051 3.3287 0.37756 2.1287-1.7666 1.8905-4.1056-0.48124-4.7258-2.3306-0.60947-2.6975-2.2898-0.5-2.2898 0.83333 0 1.5-0.88889 1.5-2 0-2.255-2.8671-2.7329-4.8-0.8-0.78182 0.78182-1.2 0.82449-1.2 0.12244 0-2.3985 2.9443-3.6689 5.6481-2.4369 2.147 0.97825 2.4926 1.6611 2.0246 4.0012-0.31038 1.5519-0.0609 3.325 0.55438 3.9403 0.82494 0.82494 0.81635 1.7823-0.0327 3.6458-1.4735 3.234-6.5702 3.5619-8.1943 0.52713zm11.836-0.77031c1.7296-2.429 1.7996-3.0069 0.5681-4.6911-2.1131-2.8899-1.6874-4.1046 0.68578-1.9568 2.0509 1.856 2.1167 1.8556 3.4897-0.022 0.76964-1.0526 1.7012-1.6118 2.0702-1.2429 0.36898 0.36898-0.13568 1.5621-1.1215 2.6514-1.698 1.8762-1.7022 2.118-0.0806 4.5929 2.1162 3.2297 1.1114 4.6826-1.0774 1.5578l-1.5833-2.2604-1.4504 2.0708c-0.79778 1.1389-1.9056 2.0708-2.4619 2.0708-0.55626 0-0.1237-1.2466 0.96124-2.7703zm-408.17-0.89636c-0.36667-0.36666-0.66667-2.5771-0.66667-4.9121 0-4.1854-0.0575-4.2552-4.0674-4.9326-4.5859-0.77478-6.5758 0.0609-2.5506 1.0711 1.4399 0.36139 2.618 1.3314 2.618 2.1557s-0.5625 1.2754-1.25 1.0027c-8.669-3.4392-14.656-6.1452-14.326-6.4751 0.22458-0.22457 3.8211-1.4613 7.9923-2.7482 5.5683-1.718 7.584-2.0024 7.584-1.0702 0 0.69838-1.0125 1.7581-2.25 2.3549-2.0073 0.96809-1.7916 1.0924 2 1.1528l4.25 0.0677v-11h22v24h-10.333c-5.6833 0-10.633-0.3-11-0.66667zm20.333-11.333v-10h-19v20h19zm-16 6.4777c0-0.28729 1.8508-2.5303 4.113-4.9844 2.5307-2.7455 3.8892-5.0451 3.5314-5.9777-0.78345-2.0416-3.6023-1.9175-5.3241 0.2344-1.3211 1.6511-1.3838 1.6431-1.1102-0.14282 0.45382-2.9623 3.1848-4.2039 6.2123-2.8245 3.6278 1.653 3.2715 4.8268-0.99354 8.8493l-3.5712 3.3681h3.5712c1.9642 0 3.5712 0.45 3.5712 1s-2.25 1-5 1-5-0.23505-5-0.52234zm238 3.3989c-3.9295-1.5669-6.9357-4.9222-8.0209-8.9521l-0.99788-3.7058-7.4909-0.11261c-4.12-0.0619-7.4909 0.0777-7.4909 0.31035 0 0.23263 2.25 1.1703 5 2.0837s5 2.0632 5 2.5552c0 0.73736-15.69-4.4119-16.788-5.5095-0.18659-0.18659 3.3178-1.5572 7.7876-3.0457 9.1993-3.0636 11.783-2.8636 3.7737 0.29221l-5.2737 2.0781 8.0491 0.0648 8.0491 0.0649 1.2463-3.4465c4.3993-12.166 24.163-8.3349 24.152 4.6818-5e-3 5.4748-3.0361 10.466-7.486 12.325-3.9535 1.6519-5.9906 1.7196-9.5097 0.31637zm11.816-3.7054c7.9078-7.387 2.7013-19.808-8.1832-19.523-3.2698 0.0857-4.6369 0.77868-7.3268 3.7138-4.691 5.1188-4.6582 10.486 0.0931 15.238 2.858 2.858 4.1165 3.4 7.8942 3.4 3.5529 0 5.1286-0.59255 7.5226-2.8289zm-12.837-2.6953c-1.7655-2.1273-0.43333-3.0721 1.5439-1.0949 2.0791 2.0791 3.1866 2.0454 4.3059-0.13095 1.1288-2.1947 0.44541-4.25-1.413-4.25-1.9142 0-1.7835-1.0085 0.33333-2.5724 1.4202-1.0493 1.5097-1.5365 0.47504-2.5852-1.0422-1.0564-1.6533-1.056-3.3474 2e-3 -2.6383 1.6476-3.4721 0.89299-1.3538-1.2253 3.2632-3.2632 6.6798-1.3277 7.137 4.0432 0.5682 6.6752 0.4705 7.6381-0.86068 8.4824-2.0751 1.3162-5.4471 0.98553-6.8202-0.66888zm-29.98 4.5832c0-1.9619 1.6908-3.7015 2.6578-2.7345 0.78525 0.78526-0.65022 4.6755-1.7252 4.6755-0.51293 0-0.93261-0.87344-0.93261-1.941zm-35-11.559v-11.5h4.3c2.365 0 4.84-0.54 5.5-1.2 0.93333-0.93333 1.4667-0.93333 2.4 0 0.66 0.66 3.135 1.2 5.5 1.2h4.3v23h-22zm7.4616 6.0892c4.7169-4.5843 5.9938-8.5892 2.7384-8.5892-0.99 0-2.3325 0.5325-2.9833 1.1833-0.65084 0.65084-1.5276 0.83904-1.9484 0.41824-0.94757-0.94757 2.5327-3.6016 4.7229-3.6016 4.762 0 5.1959 5.1801 0.8127 9.7024l-3.1962 3.2976h3.1372c1.7254 0 3.4153 0.45 3.7552 1s1.7165 1 3.059 1c2.4323 0 2.441-0.0371 2.441-10.455v-10.455h-19v10.455c0 6.0248 0.40745 10.455 0.96162 10.455 0.52889 0 3.0039-1.9849 5.5-4.4108zm-153.91 2.4872c3.1026-3.0166 13.826-11.034 14.225-10.635 0.26197 0.26198-1.008 1.7323-2.8221 3.2674-1.8142 1.5351-4.0082 3.3903-4.8756 4.1227-1.7578 1.4842-2.2352 1.5999 7.471-1.811 17.26-6.0654 25.81-15.336 27.124-29.413 1.0365-11.1-2.4037-16.643-8.9188-14.372-3.9792 1.3872-4.2144 2.4275-1.325 5.8614 1.4144 1.6809 2.6417 4.0342 2.7272 5.2295 0.70754 9.8869-4.1744 15.673-13.224 15.673-3.5075 0-4.782-0.61471-8.0497-3.8824-3.3268-3.3268-3.8818-4.5074-3.8786-8.25 5e-3 -5.338 2.746-10.147 6.8104-11.946l2.9939-1.3252-2.5427-6.8598c-1.7191-4.638-2.2141-7.1883-1.5283-7.8741s1.3616-0.0182 2.0866 2.0614c0.58972 1.6917 1.2837 3.0758 1.5421 3.0758s0.44767-2.475 0.42049-5.5l-0.0494-5.5h-8.7369v-24h22v24h-11l0.0816 5.75 0.0816 5.75 1.4784-3.39c2.7089-6.2115 3.4097-1.9352 0.8421 5.1385l-2.4407 6.7241 2.5176 0.63189c1.6755 0.42052 3.9499-0.12793 6.7995-1.6397 8.3148-4.411 12.64-0.37095 12.64 11.807 0 8.8736-2.1368 14.966-7.3114 20.844-5.4019 6.1368-11.075 9.6624-21.078 13.098l-8.1104 2.7856 6.5 0.5774c6.0163 0.53444 5.7596 0.59025-3.45 0.75-6.1007 0.10583-9.5825-0.18472-9-0.75104zm26.093-24.711c7.1951-3.4143 8.3898-11.944 2.6027-18.583-3.2463-3.7243-6.094 1.8562-3.7811 7.4094 0.98128 2.3559 0.32808 4.9098-1.5598 6.0985-2.1079 1.3272-6.9048 0.0704-6.9048-1.8091 0-1.9155 0.98361-1.8856 2.4161 0.0735 1.4892 2.0365 4.5839 0.85165 4.5839-1.755 0-1.1852-0.8581-2.211-2.1271-2.5429l-2.1271-0.55624 2.2709-1.7129c1.2613-0.95141 1.9584-2.2185 1.568-2.8502-0.94391-1.5273-4.3067-1.4493-4.8646 0.11279-0.24554 0.6875-0.79716 0.92337-1.2258 0.52417-1.3814-1.2865 1.7767-3.9555 4.1447-3.5028 1.3692 0.26173 2.4795-0.13791 2.8154-1.0134 0.43967-1.1458-0.22829-1.3551-3.2211-1.0094-5.4598 0.63067-8.2005 2.4285-9.899 6.4935-1.9418 4.6474-1.0513 9.2164 2.4281 12.458 4.4966 4.1892 7.5377 4.7004 12.88 2.1651zm4.3571-55.404v-9.9613h-19v19.806l9.5 0.0581 9.5 0.0581v-9.9613zm-11 0.57008c0-4.4501-0.27936-5.3614-1.5-4.893-2.3484 0.90119-1.6986-0.9481 1.0314-2.935l2.4686-1.7967v7.5467c0 4.3644-0.42167 7.5467-1 7.5467-0.55 0-1-2.4609-1-5.4686zm104.02 74.219-3.1491-5.25 0.61187 3.75c0.45425 2.784 0.26402 3.75-0.73845 3.75-0.90416 0-1.7754-2.5299-2.6369-7.6569-0.70761-4.2113-1.5528-8.3506-1.8782-9.1985-0.68663-1.7893 2.6488 0.51501 9.7737 6.7523 4.9545 4.3373 4.8324 6.8331-0.15399 3.1466-3.3022-2.4414-3.1861-2.0279 1.2858 4.5793 2.5483 3.7652 2.7837 5.3772 0.78517 5.3772-0.41294 0-2.1679-2.3625-3.8999-5.25zm113.7-0.49009-5.787-0.36193 7.1172-5.5688c4.604-3.6024 7.4601-5.2259 8.0884-4.5976 0.62824 0.62824 0.0396 1.5816-1.6669 2.6997-3.6674 2.403-2.5774 2.8727 2.5052 1.0794 4.9002-1.7289 7.0303-1.9089 7.0303-0.59401 0 0.50416-2.5875 1.8186-5.75 2.921-5.1453 1.7936-5.4082 2.0127-2.5 2.0833 2.1871 0.0531 3.25 0.5695 3.25 1.579 0 1.0644-0.94374 1.4451-3.25 1.3109-1.7875-0.104-5.8542-0.35196-9.037-0.55101zm-188.33-11.76c-2e-3 -6.6 0.15825-9.4301 0.35606-6.2892 0.19781 3.141 0.19942 8.541 4e-3 12-0.19583 3.4591-0.35767 0.88919-0.35965-5.7108zm256.62 0.25 2e-3 -7.25 3.1771-0.2238c4.121-0.29028 5.8189 1.2114 5.8189 5.1462 0 3.7575-1.5337 5.5776-4.7 5.5776-1.6333 0-2.3 0.57971-2.3 2 0 1.1-0.45 2-1 2-0.5749 0-0.99916-3.082-0.99801-7.25zm6.998-2.4265c0-3.0188-0.28835-3.4216-2.25-3.143-1.6428 0.23331-2.3391 1.0999-2.5801 3.211-0.18154 1.5903 0.22765 3.2362 0.90932 3.6575 2.259 1.3962 3.9208-0.18279 3.9208-3.7255zm-131 7.7583c0-0.50502-0.27314-1.63-0.60699-2.5-0.39831-1.038-0.0545-1.5818 1-1.5818 0.88385 0 1.607 0.4132 1.607 0.91821 0 0.50502 0.27314 1.63 0.60699 2.5 0.39831 1.038 0.0545 1.5818-1 1.5818-0.88385 0-1.607-0.4132-1.607-0.91821zm135-9.5818c0-4.3333 0.42222-7.5 1-7.5s1 3.1667 1 7.5-0.42222 7.5-1 7.5-1-3.1667-1-7.5zm4.9904 5.9884c-1.6389-1.9748 0.19124-4.2548 3.7557-4.679 1.4298-0.17015 2.8073-0.94054 3.061-1.712 0.36237-1.1018-0.33561-1.2733-3.2541-0.79969-3.1694 0.51433-3.5385 0.38981-2.5118-0.84738 1.46-1.7592 5.1146-1.8945 6.7588-0.25031 0.66 0.66 1.2 3.0612 1.2 5.3361 0 4.1126-0.022 4.1369-3.8872 4.2884-2.3812 0.0933-4.3658-0.42433-5.1224-1.3361zm5.8096-0.68838c0.66-0.66 1.2-1.56 1.2-2 0-1.3137-3.6676-0.90543-4.8689 0.54201-1.9969 2.4061 1.3792 3.7477 3.6689 1.458zm6.2542 0.76532c-0.65487-0.78907-1.0475-2.9184-0.87244-4.7319 0.39811-4.125 4.795-6.2851 7.4299-3.6503 1.0762 1.0762 1.2307 1.7963 0.48428 2.2576-0.60278 0.37254-1.096 0.16949-1.096-0.45122 0-0.62072-1.0125-0.98477-2.25-0.80902-1.7019 0.24171-2.324 1.0802-2.5538 3.4419-0.36874 3.7894 2.4872 5.5312 4.5171 2.7551 0.69632-0.95229 1.5598-1.4376 1.9189-1.0786 1.119 1.119-1.7639 3.7012-4.1322 3.7012-1.2403 0-2.7909-0.6456-3.4458-1.4347zm9.981-0.49958c-1.5434-2.8839-1.2574-5.5546 0.79356-7.4108 2.2967-2.0785 4.5761-2.1073 6.5998-0.0836 2.8151 2.8151 1.9302 4.4286-2.4286 4.4286-4.2344 0-4.9902 0.93334-2.4576 3.0352 1.1683 0.96957 1.8232 0.99927 2.7 0.12245 0.63669-0.63669 1.7977-1.1576 2.5801-1.1576 1.151 0 1.1849 0.28623 0.17756 1.5-1.8053 2.1752-6.7114 1.9077-7.9648-0.43426zm6.9648-5.0971c0-0.56727-0.675-1.2904-1.5-1.607-2.0027-0.76852-4.7866 0.3656-4.0044 1.6313 0.81898 1.3251 5.5044 1.3044 5.5044-0.0243zm-87.417 3.165c-0.29449-0.4765 0.30928-1.6308 1.3417-2.5652 2.3314-2.1099 3.7452-0.38087 1.5135 1.8509-1.8223 1.8223-2.1238 1.8977-2.8552 0.71427zm177.63-9.8836 0.28383-10.75h23l0.28383 10.75 0.28383 10.75h-24.135zm21.784 0.25v-9.5h-20v19h20zm-14 1.0314c0-4.4501-0.27936-5.3614-1.5-4.893-2.3484 0.90119-1.6986-0.9481 1.0314-2.935l2.4686-1.7967v7.5467c0 4.3644-0.42167 7.5467-1 7.5467-0.55 0-1-2.4609-1-5.4686zm-575-2.9766v-11.445l4.75-0.30479c4.6337-0.29733 4.7578-0.3905 5.0666-3.8048 0.29865-3.3018 0.23249-3.3868-1.1682-1.5016-0.81666 1.0991-1.7435 1.7398-2.0596 1.4236-0.7725-0.7725 3.3751-12.922 4.4113-12.922 1.0362 0 5.1838 12.15 4.4113 12.922-0.31615 0.31615-1.213-0.29799-1.9931-1.3647-1.3185-1.8031-1.4182-1.6799-1.4182 1.7516v3.6911h10v23h-22zm20.5-0.0548v-10h-19l-0.29142 8.9209c-0.16029 4.9065-0.0554 9.536 0.2331 10.288 0.4028 1.0497 2.675 1.3001 9.7914 1.0791l9.2669-0.28774v-10zm-15.52 4.9758c-1.7655-2.1273-0.43334-3.0721 1.5439-1.0949 2.0791 2.0791 3.1866 2.0454 4.3059-0.13095 1.1288-2.1947 0.44541-4.25-1.413-4.25-1.9142 0-1.7835-1.0085 0.33333-2.5724 1.4202-1.0493 1.5097-1.5365 0.47504-2.5852-1.0422-1.0564-1.6533-1.056-3.3474 2e-3 -2.6383 1.6476-3.4721 0.89299-1.3538-1.2253 3.2632-3.2632 6.6798-1.3277 7.137 4.0432 0.5682 6.6752 0.4705 7.6381-0.86068 8.4824-2.0751 1.3162-5.4471 0.98553-6.8202-0.66888zm540.44 5.5553c-3.3861-1.3698-7.4184-6.891-7.4184-10.158 0-7.0102 5.3454-11.874 13.05-11.874 3.3859 0 4.7754 0.62579 7.5497 3.4 2.8311 2.8311 3.4 4.1325 3.4 7.7775 0 2.4076-0.70232 5.3802-1.5607 6.6057-3.1041 4.4317-9.8504 6.3396-15.021 4.2479zm10.637-2.0608c2.4253-1.298 4.9446-6.0898 4.9446-9.4049 0-3.2659-4.6487-8.295-8.5-9.1956-2.7116-0.63412-2.8685-0.54192-1.632 0.95898 0.75475 0.91613 1.1097 2.6483 0.79186 3.8638-0.3169 1.2118-0.0788 2.8025 0.52899 3.5349 0.80763 0.97312 0.80213 1.9968-0.0204 3.802-1.4488 3.1799-6.5608 3.4742-8.1685 0.47039-1.2968-2.4232-0.30869-2.5893 2.1525-0.36199 1.4756 1.3354 2.0906 1.4051 3.3287 0.37756 2.1287-1.7666 1.8905-4.1056-0.48124-4.7258-2.3306-0.60947-2.6975-2.2898-0.50001-2.2898 0.83333 0 1.5-0.88889 1.5-2 0-2.184-3.3618-2.8416-4.566-0.89324-0.48645 0.78708-0.90514 0.74899-1.4496-0.13189-1.203-1.9464-4.3845 3.7001-4.3845 7.7816 0 6.8917 9.7925 11.78 16.455 8.2139zm-258.86-2.7462c-1.2692-0.2081-2.1225-0.90618-1.8963-1.5513 0.43582-1.2426 3.633-1.0537 5.041 0.29781 1.1503 1.1041-0.36703 1.7089-3.1448 1.2535zm-70.184-3.9801c-3.6333-3.6333-4.0087-4.4878-4.0087-9.1235 0-4.4409 0.46115-5.6252 3.5-8.9888 2.8073-3.1074 3.479-4.6417 3.3936-7.7529-0.10531-3.8397-0.11733-3.8511-1.193-1.1288-0.59767 1.5125-1.4498 2.75-1.8936 2.75-1.0515 0-1.0945 0.23962 1.0465-5.84 1.0194-2.8948 2.2104-5.2632 2.6465-5.2632s1.6271 2.3684 2.6465 5.2632c2.141 6.0796 2.0981 5.84 1.0465 5.84-0.44383 0-1.296-1.2375-1.8936-2.75-1.0505-2.6584-1.0902-2.6078-1.193 1.519-0.10088 4.0483 0.0201 4.2373 2.3405 3.6549 3.3103-0.83082 8.754 1.0965 11.573 4.0974 1.6464 1.7525 2.4433 4.0206 2.7617 7.8605 0.41753 5.0348 0.21749 5.6483-2.9791 9.1364-2.9077 3.1728-4.2112 3.8146-8.6059 4.2368-4.9789 0.47841-5.3343 0.34259-9.188-3.5111zm11.676 1.6894c6.6226-2.5093 9.7772-8.9894 7.2942-14.984-1.8822-4.5439-5.5506-6.9494-10.598-6.9494-6.1467 0-10.386 3.8686-11.091 10.12-0.45699 4.0544-0.16594 4.9513 2.6464 8.1543 1.7379 1.9794 4.1507 3.791 5.3618 4.0259s2.5102 0.48836 2.8868 0.56326c0.3767 0.0749 1.9517-0.3438 3.5-0.93043zm-3.9746-4.9334c-0.35342-1.3515-1.364-2-3.1166-2-1.4265 0-2.5936-0.2981-2.5936-0.66245 0-1.2858 6.2206-10.338 7.1042-10.338 0.49266 0 0.89575 2.25 0.89575 5s0.40766 5 0.90591 5c0.49826 0 0.38576 1.1215-0.25 2.4922-1.4003 3.019-2.2506 3.1656-2.9457 0.5078zm0.26751-6.25-0.0222-3.25-1.9556 2.5c-2.488 3.1807-2.488 4 0 4 1.5943 0 1.9955-0.65925 1.9778-3.25zm124.02 6.9906c0-2.1971-0.66449-3.6744-2.0388-4.5327-2.239-1.3983-1.779-3.4589 0.57083-2.5572 1.1994 0.46024 1.468-0.6457 1.468-6.0437v-6.607h22v23h-22zm20-7.7406v-10h-19v20h19zm-5.8319 1.6826c-0.16011-5.541-0.27501-5.7845-2.4181-5.1258-2.2214 0.68283-2.2183 0.65714 0.25-2.0244l2.5-2.716 0.30879 4.1182c0.16983 2.265 0.13298 5.7938-0.0819 7.8418-0.28257 2.6931-0.4372 2.1137-0.55879-2.0938zm20.832 4.3992c0-0.50502-0.27314-1.63-0.60699-2.5-0.39831-1.038-0.0545-1.5818 1-1.5818 1.0475 0 1.607 0.87047 1.607 2.5 0 1.375-0.45 2.5-1 2.5s-1-0.4132-1-0.91821zm17.206-9.3318 0.29381-7.25h3.4542c2.6889 0 3.7835 0.58378 4.9405 2.6348 1.3358 2.3679 1.3128 2.8996-0.22726 5.25-1.0845 1.6552-2.6228 2.6152-4.1905 2.6152-1.8103 0-2.477 0.5383-2.477 2 0 1.1-0.46971 2-1.0438 2-0.65611 0-0.93468-2.6928-0.75-7.25zm6.783 0.76299c0.72178-0.86969 0.96551-2.5572 0.5871-4.0649-0.48884-1.9477-1.1884-2.5009-2.8617-2.263-2.561 0.36417-3.543 4.112-1.669 6.37 1.5192 1.8305 2.3972 1.8211 3.9435-0.0421zm23.47 5.4205c-0.36253-0.58659-0.36462-1.3611-5e-3 -1.721 0.35998-0.35998 1.0239-0.0569 1.4753 0.67354 1.0021 1.6214 5.0705 0.56655 5.0705-1.3147 0-0.82833-0.86779-1.128-2.4116-0.83292-1.8092 0.34584-2.856-0.2172-4.1905-2.2539-1.6047-2.449-1.6333-2.9729-0.29258-5.3497 1.157-2.051 2.2517-2.6348 4.9405-2.6348h3.4542l0.30122 5.22c0.38361 6.6477-0.97149 9.28-4.7774 9.28-1.5982 0-3.2024-0.47994-3.565-1.0665zm6.0411-8.4335c0-2.296-0.49811-3.0711-2.1227-3.3029-2.4082-0.34361-3.7524 2.0456-2.8141 5.002 0.40153 1.2651 1.3448 1.8125 2.7727 1.6091 1.6694-0.23782 2.1641-0.99411 2.1641-3.3083zm149.89 7.5199c-3.7933-1.5327-6.3881-5.9142-6.3881-10.787 0-3.8612 0.50498-4.9733 3.5712-7.8651 2.8218-2.6613 4.4061-3.3681 7.5497-3.3681 5.1282 0 9.4502 2.2699 11.362 5.9673 5.2435 10.14-5.1278 20.484-16.095 16.053zm10.18-1.4839c4.0031-1.6726 6.8487-7.027 5.8498-11.007-0.72052-2.8708-5.085-7.5289-7.0543-7.5289-0.75 0-1.3636 0.99108-1.3636 2.2024 0 1.2113-1.4383 3.6863-3.1962 5.5l-3.1962 3.2976h3.1962c1.7579 0 3.1962 0.45 3.1962 1s-2.025 1-4.5 1c-5.6078 0-5.9321-1.8059-1-5.5678 2.2728-1.7335 3.5-3.5046 3.5-5.0509 0-2.7862-1.4743-2.9891-5.8518-0.80534-7.1438 3.5638-7.0583 12.069 0.16566 16.474 3.8214 2.33 5.6355 2.4161 10.254 0.48622zm-184.45-5.5679c-0.11143-5.2142 0.0254-5.5438 2.3818-5.7388 1.375-0.1138 2.5 0.23805 2.5 0.78189s-0.62632 0.9888-1.3918 0.9888c-0.85481 0-1.7738 1.8327-2.3818 4.75l-0.98997 4.75zm6.917 3.0976c-2.2509-4.2059-0.12552-9.0657 3.9648-9.0657 4.1347 0 6.7794 6.8206 3.8 9.8-1.9015 1.9015-6.5916 1.458-7.7648-0.73426zm5.9191-0.5107c0.65956-0.79472 1.0522-2.4822 0.87244-3.75-0.24168-1.7049-0.97765-2.305-2.8268-2.305s-2.5851 0.60013-2.8268 2.305c-0.31696 2.2358 1.2932 5.195 2.8268 5.195 0.41531 0 1.2948-0.65023 1.9543-1.445zm17.164-2.5869c-0.11143-5.2142 0.0254-5.5438 2.3818-5.7388 1.375-0.1138 2.5 0.23805 2.5 0.78189s-0.62632 0.9888-1.3918 0.9888c-0.85481 0-1.7738 1.8327-2.3818 4.75l-0.98997 4.75zm6.936 3.5972c-0.65487-0.78907-1.0475-2.9184-0.87244-4.7319 0.2501-2.5914 0.92935-3.5109 3.1729-4.2952 2.4537-0.85774 3.1209-0.66915 4.75 1.3427 2.7476 3.3931 2.3766 4.1191-2.1047 4.1191-2.7524 0-4 0.4345-4 1.393 0 1.9374 2.9641 2.8817 4.6509 1.4817 1.577-1.3088 2.8966-0.56968 1.8902 1.0587-0.96196 1.5565-6.0992 1.3039-7.4869-0.36815zm5.9458-6.1349c0-1.0423-0.72946-1.4622-2.1717-1.25-3.2015 0.47108-3.5444 2.8196-0.41166 2.8196 1.6805 0 2.5833-0.54853 2.5833-1.5696zm4.9148 5.9334c-1.2735-1.5647-1.2151-1.6586 0.58517-0.93997 3.0431 1.2147 4.7426 1.195 5.1878-0.0602 0.22169-0.62499-1.0002-1.6255-2.7154-2.2234-2.4394-0.85036-3.0481-1.5829-2.7954-3.3637 0.39555-2.7876 4.8457-3.659 6.7806-1.3277 1.1284 1.3596 0.90299 1.4733-1.8356 0.92556-4.0785-0.8157-4.1156 1.0836-0.0489 2.5012 2.3959 0.8352 3.0018 1.5729 2.75 3.3478-0.42122 2.9686-5.7901 3.7428-7.9082 1.1404zm10.579 0.626c-1.0571-1.7104 0.26711-2.4332 1.9298-1.0533 1.0399 0.86301 2.0008 0.92286 3.2742 0.20392 1.5834-0.89393 1.3467-1.209-1.9476-2.5924-5.9947-2.5175-3.9493-8.0156 2.25-6.048 3.151 1.0001 2.3314 2.5163-1 1.85-3.9749-0.79498-3.9191 1.134 0.073 2.5256 2.3959 0.8352 3.0018 1.5729 2.75 3.3478-0.24648 1.737-1.071 2.3492-3.4792 2.5829-1.7359 0.1685-3.4684-0.19894-3.8501-0.81653zm10.541-0.92409c-1.5434-2.8839-1.2574-5.5546 0.79356-7.4108 2.2967-2.0785 4.5761-2.1073 6.5998-0.0836 2.8151 2.8151 1.9302 4.4286-2.4286 4.4286-4.2344 0-4.9902 0.93334-2.4576 3.0352 1.1683 0.96957 1.8232 0.99927 2.7 0.12245 0.63669-0.63669 1.7977-1.1576 2.5801-1.1576 1.151 0 1.1849 0.28623 0.17756 1.5-1.8053 2.1752-6.7114 1.9077-7.9648-0.43426zm6.9648-5.0971c0-0.56727-0.675-1.2904-1.5-1.607-2.0027-0.76852-4.7866 0.3656-4.0044 1.6313 0.81898 1.3251 5.5044 1.3044 5.5044-0.0243zm4.3125 4.3856c-1.5238-2.3256-1.5436-2.8488-0.19744-5.2194 1.0493-1.8479 2.3008-2.623 4.1905-2.5954 2.1722 0.0318 2.6944-0.41574 2.6944-2.309 0-1.311 0.44176-2.0754 1-1.7304 0.55 0.33992 1 3.6686 1 7.397v6.779l-3.497 0.13147c-2.7385 0.10294-3.8643-0.42916-5.1905-2.4532zm5.6418 0.20084c1.874-2.258 0.89204-6.0058-1.669-6.37-1.6733-0.23793-2.3728 0.31527-2.8617 2.263-0.37841 1.5077-0.13468 3.1952 0.5871 4.0649 1.5463 1.8632 2.4244 1.8726 3.9435 0.0421zm8.0457-14.587v-11.032l11.75 0.28173 11.75 0.28174 0.28383 10.75 0.28383 10.75h-24.068zm22 0.53174v-9.5h-20v19h20zm-14 6.7878c0-0.39168 1.861-2.6083 4.1354-4.9258 2.6765-2.7272 3.9223-4.769 3.5314-5.7879-0.79013-2.059-4.3156-2.0241-5.4788 0.0543-0.52726 0.94217-1.1704 1.2092-1.5261 0.63364-1.0914-1.766 3.0313-4.5559 5.7311-3.8783 4.2993 1.079 4.301 4.3211 5e-3 8.721l-3.804 3.8952h3.703c2.0366 0 3.703 0.45 3.703 1s-2.25 1-5 1-5-0.32047-5-0.71215zm-176.44 1.8024c-0.72276-1.1694 0.38495-4.0902 1.5512-4.0902 0.49115 0 0.89301 1.125 0.89301 2.5 0 2.4712-1.355 3.3527-2.4442 1.5902zm38.92-1.1656c-0.36228-1.1414-0.35581-2.3782 0.0144-2.7484 0.87334-0.87333 3.6106 2.8512 2.9185 3.9711-0.91651 1.4829-2.2507 0.92675-2.9329-1.2227zm-212.1-9.9246c0-6.325 0.16237-8.9125 0.36082-5.75s0.19845 8.3375 0 11.5-0.36082 0.575-0.36082-5.75zm183.62 1.5c0-0.93333 0.94444-1.5 2.5-1.5 2.793 0 3.3527 1.4588 0.91821 2.393-2.5023 0.96023-3.4182 0.72095-3.4182-0.89301zm15 0c0-1.614 0.91589-1.8532 3.4182-0.89301 2.4345 0.9342 1.8747 2.393-0.91821 2.393-1.5556 0-2.5-0.56667-2.5-1.5zm-427.24-2.4759c-3.3253-2.6156-4.2669-6.0241-1.6642-6.0241 1.0485 0 1.9064 0.41786 1.9064 0.92857 0 3.1485 6.8362 5.2227 11.418 3.4644 1.8843-0.72309 2.1006-4.7323 0.33179-6.1498-0.6875-0.55094-3.8267-1.7405-6.976-2.6434-8.0031-2.2945-9.9955-6.4691-5.3194-11.145 1.8932-1.8932 3.5045-2.4546 7.0455-2.4546s5.1523 0.56136 7.0455 2.4546c2.6541 2.6541 3.0467 4.0615 1.4144 5.0703-0.57208 0.35356-1.9547-0.51988-3.0726-1.941-3.2234-4.0979-10.887-3.3974-10.887 0.99522 0 2.0262 0.82387 2.5954 5.75 3.9724 9.4364 2.6378 12.704 8.0851 7.7955 12.994-3.2085 3.2085-10.997 3.4606-14.788 0.47867zm249-4c-3.3253-2.6156-4.2669-6.0241-1.6642-6.0241 1.0485 0 1.9064 0.41786 1.9064 0.92857 0 3.1485 6.8362 5.2227 11.418 3.4644 1.8843-0.72309 2.1006-4.7323 0.33179-6.1498-0.6875-0.55094-3.8267-1.7405-6.976-2.6434-8.0031-2.2945-9.9955-6.4691-5.3194-11.145 1.8932-1.8932 3.5045-2.4546 7.0454-2.4546s5.1523 0.56136 7.0454 2.4546c2.6541 2.6541 3.0467 4.0615 1.4144 5.0703-0.57208 0.35356-1.9547-0.51988-3.0726-1.941-3.2234-4.0979-10.887-3.3974-10.887 0.99522 0 2.0262 0.82387 2.5954 5.75 3.9724 9.4364 2.6378 12.704 8.0851 7.7954 12.994-3.2084 3.2085-10.997 3.4606-14.788 0.47867zm258.45-5.2741 0.29381-7.25h3.4542c2.6889 0 3.7835 0.58378 4.9405 2.6348 1.3358 2.3679 1.3128 2.8996-0.22726 5.25-1.0845 1.6552-2.6228 2.6152-4.1905 2.6152-1.8103 0-2.477 0.5383-2.477 2 0 1.1-0.46971 2-1.0438 2-0.65611 0-0.93468-2.6928-0.75-7.25zm6.783 0.76299c0.72178-0.86969 0.96551-2.5572 0.5871-4.0649-0.48884-1.9477-1.1884-2.5009-2.8617-2.263-2.561 0.36417-3.543 4.112-1.669 6.37 1.5192 1.8305 2.3972 1.8211 3.9435-0.0421zm128.44 5.1658c-0.27884-0.72665-0.37722-5.7892-0.21862-11.25l0.28837-9.9288 11.25-0.28275 11.25-0.28275v23.066h-11.031c-8.2196 0-11.161-0.33676-11.538-1.3212zm21.57-10.179v-9.5h-20v19h20zm-11 4.5c0-1.5556-0.66667-2-3-2-1.65 0-2.9888-0.3375-2.9752-0.75 0.0136-0.4125 1.7011-3 3.75-5.75l3.7252-5 0.30226 5.25c0.16624 2.8875 0.6864 5.25 1.1559 5.25 0.46952 0 0.3335 1.1215-0.30226 2.4922-1.3942 3.0059-2.6559 3.2471-2.6559 0.5078zm-0.0153-6.25c-0.0157-3.331-0.39467-3.1448-3.0534 1.5-0.81369 1.4215-0.61972 1.75 1.0335 1.75 1.6326 0 2.0322-0.64292 2.0199-3.25zm-227.88 10.02c-2.1435-5.6378-4.2393-13.858-3.8343-15.04 0.23194-0.67659 1.2767 1.4698 2.3218 4.7698l1.9001 6 0.31175-5.9811c0.22207-4.2603-0.0642-6.1047-0.99504-6.4107-0.71874-0.23631-2.7693-1.8873-4.5568-3.6689-2.8375-2.8282-3.25-3.9015-3.25-8.4569 0-4.7558 0.35483-5.5725 4.0087-9.2264 3.8537-3.8537 4.2091-3.9895 9.188-3.5111 4.3948 0.42228 5.6982 1.064 8.6059 4.2368 3.1966 3.4881 3.3966 4.1016 2.9791 9.1364-0.54303 6.5482-3.3459 10.006-9.4312 11.633-4.3811 1.1718-5.4723 3.1656-5.2673 9.6238 0.0688 2.1655 0.53653 1.6651 2.6721-2.8586 3.9156-8.294 3.7704-4.5596-0.17551 4.5149-3.3213 7.638-3.4901 7.8354-4.4774 5.2385zm2.8656-19.52c0.0444 2.4409 5.0502 2.31 8.2616-0.21611 5.3158-4.1814 6.064-12.537 1.5049-16.807-5.5343-5.1842-11.998-4.9686-16.854 0.56206-2.7537 3.1363-3.0463 4.0501-2.5908 8.0911 0.3936 3.4919 1.258 5.2207 3.7026 7.4049 3.0274 2.705 3.2589 2.7573 4.5665 1.0324 1.2874-1.6982 1.3795-1.7026 1.4092-0.067zm-4.9682-3.9622c0-0.39168 1.861-2.6083 4.1354-4.9258 2.6765-2.7272 3.9223-4.769 3.5314-5.7879-0.79013-2.059-4.3156-2.0241-5.4788 0.0543-0.52726 0.94217-1.1704 1.2092-1.5261 0.63364-1.0914-1.766 3.0313-4.5559 5.7311-3.8783 4.2993 1.079 4.301 4.3211 5e-3 8.721l-3.804 3.8952h3.703c2.0366 0 3.703 0.45 3.703 1s-2.25 1-5 1-5-0.32047-5-0.71215zm-380.9 21.111c-5.754-7.315-3.3065-23.385 5.0068-32.875 4.6408-5.2973 10.675-8.9378 20.284-12.238l8.1104-2.7856-5.75-0.2999c-3.1625-0.16495-5.75-0.70555-5.75-1.2013 0-0.71081 16.767-0.28053 17.732 0.45505 0.12761 0.0973-2.9099 2.7616-6.75 5.9208s-6.982 5.2884-6.982 4.7318 1.7998-2.4585 3.9996-4.2263c2.1998-1.7678 3.8708-3.343 3.7133-3.5004-0.44047-0.44046-13.276 4.3566-17.711 6.6194-9.3214 4.7554-15.296 12.662-16.794 22.228-1.0049 6.4129-0.20093 13.871 1.7484 16.22 1.8117 2.183 5.8695 1.9307 9.5541-0.59399 2.97-2.0351 3.0815-2.3428 2.1345-5.8905-2.9228-10.95 9.3848-19.9 19.166-13.937 3.3957 2.0703 6.1898 7.1296 6.1898 11.208 0 3.7028-3.3856 8.9638-7.0773 10.998-4.1375 2.2795-9.5735 1.8657-13.653-1.0394l-2.8243-2.0111-3.9725 2.4045c-5.1115 3.0939-7.8317 3.0449-10.374-0.18669zm30.217-0.51559c3.8566-1.9723 5.6385-5.1188 5.662-9.9981 0.027-5.6002-2.5988-9.4101-7.399-10.736-4.6859-1.2938-8.2045-0.36983-11.628 3.0535-3.3745 3.3745-3.9612 8.6212-1.4956 13.374 2.5549 4.9246 9.6379 6.9771 14.86 4.3063zm-7.1476-10.2c-0.16012-5.541-0.27502-5.7845-2.4181-5.1258-2.2214 0.68283-2.2183 0.65714 0.25-2.0244l2.5-2.716 0.30879 4.1182c0.16984 2.265 0.13298 5.7938-0.0819 7.8418-0.28257 2.6931-0.4372 2.1137-0.55879-2.0938zm220.39 10.746c-1.2163-0.89769-1.5914-1.7848-1-2.3654 0.58446-0.57376 1.6904-0.37972 2.8925 0.5075 1.2163 0.89769 1.5914 1.7848 1 2.3654-0.58446 0.57376-1.6904 0.37972-2.8925-0.5075zm14.017 0.68476c-0.62336-1.0086 3.3344-2.2906 4.6196-1.4964 0.46353 0.28647 0.58388 0.93976 0.26744 1.4518-0.73128 1.1832-4.1639 1.2146-4.887 0.0446zm163.43-4.3637c2e-3 -5.1843 0.0418-5.2528 3.1791-5.4738 4.3965-0.30969 5.8189 1.2416 5.8189 6.3462 0 5.6212-1.7875 5.7252-2.1925 0.12756-0.25185-3.4808-0.66946-4.25-2.3075-4.25s-2.0556 0.76917-2.3075 4.25c-0.43905 6.0682-2.1929 5.2676-2.1905-1zm12.033 3.3157c-1.5434-2.8839-1.2574-5.5546 0.79356-7.4108 2.2967-2.0785 4.5761-2.1073 6.5998-0.0836 2.8151 2.8151 1.9302 4.4286-2.4286 4.4286-4.2344 0-4.9902 0.93334-2.4576 3.0352 1.1683 0.96957 1.8232 0.99927 2.7 0.12245 0.63669-0.63669 1.7977-1.1576 2.5801-1.1576 1.151 0 1.1849 0.28623 0.17756 1.5-1.8053 2.1752-6.7114 1.9077-7.9648-0.43426zm6.9648-5.0971c0-0.56727-0.675-1.2904-1.5-1.607-2.0027-0.76852-4.7866 0.3656-4.0044 1.6313 0.81898 1.3251 5.5044 1.3044 5.5044-0.0243zm4.4785 1.9666c-0.92524-2.7856-1.424-5.323-1.1083-5.6387 0.56691-0.56691 2.6299 3.9581 2.6299 5.7686 0 2.4748 1.8553 0.51954 2.434-2.5651 0.80672-4.3002 2.4083-4.5385 3.2201-0.47919 0.83113 4.1556 2.0537 4.5857 2.8414 0.99938 0.36207-1.6485 1.0737-3.254 1.5814-3.5677 1.2241-0.75655 1.1487 0.19121-0.43726 5.4959-1.6148 5.4011-3.4374 6.313-4.2725 2.1376-0.78278-3.9139-1.9442-3.9506-2.7172-0.0859-0.87451 4.3725-2.2614 3.6861-4.1715-2.0648zm31.871 3.5321c-0.7389-1.9255 1.2147-4.2614 3.8952-4.6573 1.1545-0.17051 2.2843-0.87253 2.5107-1.56 0.52737-1.6014-2.9653-1.6397-4.555-0.05-0.93333 0.93333-1.2 0.82646-1.2-0.48095 0-1.7948 4.0302-3.3052 6.3965-2.3971 0.85961 0.32987 1.5367 2.4177 1.7522 5.4028l0.35125 4.8652-4.289 0.18512c-3.0083 0.12983-4.4601-0.26064-4.8619-1.3077zm6.4628-1.7288c0.35802-1.859-1.4332-2.2644-3.69-0.83501-0.75796 0.48009-1.0535 1.3981-0.65676 2.0401 1.0291 1.6651 3.9499 0.85536 4.3467-1.205zm5.3859-1.9088c0.28524-4.8791 0.46742-5.1922 3.2349-5.5587 1.613-0.21362 3.5112-1.1495 4.2182-2.0797 1.1904-1.5662 1.2879-1.568 1.3173-0.0247 0.0175 0.91666 0.5943 1.9292 1.2818 2.25 1 0.46666 1 0.7 0 1.1667-0.6875 0.32084-1.25 2.0833-1.25 3.9167s0.5625 3.5342 1.25 3.7798c0.6875 0.24554 0.93191 0.78863 0.54313 1.2069-1.7508 1.8835-3.7931-0.5528-3.7931-4.5248 0-3.6808-0.23049-4.0682-2.25-3.7814-1.8704 0.26564-2.3019 1.0365-2.5575 4.5696-0.16912 2.3375-0.75514 4.25-1.3023 4.25-0.57039 0-0.86581-2.2057-0.6925-5.1703zm12.804-0.0797c2e-3 -5.1843 0.0417-5.2528 3.1791-5.4738 4.3965-0.30969 5.8189 1.2416 5.8189 6.3462 0 5.6212-1.7875 5.7252-2.1925 0.12756-0.25185-3.4808-0.66946-4.25-2.3075-4.25s-2.0556 0.76917-2.3075 4.25c-0.43905 6.0682-2.1929 5.2676-2.1905-1zm12.052 3.8153c-0.65487-0.78907-1.0475-2.9184-0.87244-4.7319 0.2501-2.5914 0.92935-3.5109 3.1729-4.2952 2.4537-0.85774 3.1209-0.66915 4.75 1.3427 2.7476 3.3931 2.3766 4.119-2.1047 4.119-2.7524 0-4 0.4345-4 1.393 0 1.9374 2.9641 2.8817 4.6509 1.4817 1.577-1.3088 2.8966-0.56968 1.8902 1.0587-0.96196 1.5565-6.0992 1.3039-7.4869-0.36815zm5.9458-6.1349c0-1.0423-0.72946-1.4622-2.1717-1.25-3.2015 0.47108-3.5444 2.8196-0.41166 2.8196 1.6805 0 2.5833-0.54853 2.5833-1.5696zm5.1182 2.5377c-0.11143-5.2142 0.0254-5.5438 2.3818-5.7388 1.375-0.1138 2.5 0.23805 2.5 0.78189s-0.62632 0.9888-1.3918 0.9888c-0.85481 0-1.7738 1.8327-2.3818 4.75l-0.98997 4.75zm11.975-1.2634c-9.8832-3.4955-10.112-17.292-0.35422-21.369 9.8717-4.1247 19.952 5.2872 15.942 14.885-2.5125 6.0132-9.133 8.7674-15.588 6.4845zm9.9264-2.2151c9.2806-4.7992 5.1933-18.49-5.52-18.49-10.579 0-14.779 13.528-5.7249 18.441 3.535 1.9184 7.595 1.9359 11.245 0.0485zm-7.02-4.4896c0-1.5556-0.66667-2-3-2-1.65 0-2.9888-0.3375-2.9752-0.75 0.0136-0.4125 1.7011-3 3.75-5.75l3.7252-5 0.30226 5.25c0.16624 2.8875 0.6864 5.25 1.1559 5.25 0.46952 0 0.3335 1.1215-0.30226 2.4922-1.3942 3.0059-2.6559 3.2471-2.6559 0.5078zm-0.0153-6.25c-0.0157-3.331-0.39467-3.1448-3.0534 1.5-0.81369 1.4215-0.61972 1.75 1.0335 1.75 1.6326 0 2.0322-0.64292 2.0199-3.25zm-299.98 1.25v-12.068l10.75 0.28383 10.75 0.28383v23l-10.75 0.28383-10.75 0.28383zm20 0v-10l-4.75 0.0153c-3.194 0.0103-4.2858 0.30913-3.333 0.91226 1.247 0.78929 1.9418 4.2138 2.1268 10.482 0.10368 3.513-5.6414 4.9848-8.0639 2.0658-1.7655-2.1273-0.43333-3.0721 1.5439-1.0949 2.0791 2.0791 3.1866 2.0454 4.3059-0.13095 1.1288-2.1947 0.44541-4.25-1.413-4.25-1.9142 0-1.7835-1.0085 0.33333-2.5724 1.4202-1.0493 1.5097-1.5365 0.47504-2.5852-1.0422-1.0564-1.6533-1.056-3.3474 2e-3 -2.6383 1.6476-3.4721 0.89299-1.3538-1.2253 1.4921-1.4921 1.3389-1.6191-1.9524-1.6191h-3.5714v20h19zm11.591 9.1473c-0.69213-1.1199 2.0452-4.8444 2.9185-3.9711 0.86979 0.8698-0.37442 4.8238-1.5179 4.8238-0.48048 0-1.1107-0.38371-1.4006-0.85268zm-36.924-3.814c-0.98484-0.98483-0.80994-4.3333 0.22634-4.3333 0.89317 0 2.107 2.3515 2.107 4.0818 0 1.0694-1.368 1.2169-2.3333 0.25154zm30.362-9.2943c-0.80907-0.51167-1.166-1.2354-0.79313-1.6082 0.9151-0.91509 3.7642 0.24885 3.7642 1.5378 0 1.2701-1.0353 1.2946-2.971 0.0704zm-77.651-11.039c0-6.325 0.16237-8.9125 0.36082-5.75s0.19845 8.3375 0 11.5-0.36082 0.575-0.36082-5.75zm366.62-1.4672v-11.533h23.066l-0.28275 11.25-0.28275 11.25-11.25 0.28275-11.25 0.28275zm21-0.0327v-9.5h-20v19h20zm-15.02 4.9758c-1.7655-2.1273-0.43333-3.0721 1.5439-1.0949 2.0791 2.0791 3.1866 2.0454 4.3059-0.13095 1.1288-2.1947 0.44541-4.25-1.413-4.25-1.9142 0-1.7835-1.0085 0.33333-2.5724 1.4202-1.0493 1.5097-1.5365 0.47504-2.5852-1.0422-1.0564-1.6533-1.056-3.3474 2e-3 -2.6383 1.6476-3.4721 0.89299-1.3538-1.2253 3.2632-3.2632 6.6798-1.3277 7.137 4.0432 0.5682 6.6752 0.4705 7.6381-0.86068 8.4824-2.0751 1.3162-5.4471 0.98553-6.8202-0.66888zm27.44 3.6387c-9.2444-5.6372-5.3648-19.651 5.7537-20.784 9.8601-1.0041 17.164 10.248 11.499 17.715-3.8483 5.0728-11.681 6.466-17.252 3.0686zm14.18-2.5146c4.5323-4.5323 4.7038-9.4501 0.47692-13.677-1.7183-1.7183-3.9852-2.9231-5.5-2.9231-2.5238 0-2.5769 0.14428-2.5769 7 0 4-0.42857 7-1 7-0.55 0-1-2.4609-1-5.4686 0-4.4501-0.27936-5.3614-1.5-4.893-2.0494 0.78642-1.8929-0.61964 0.25-2.2463 1.1892-0.90271 1.3248-1.3386 0.42308-1.3602-0.72981-0.0175-2.6423 1.2836-4.25 2.8913-4.7696 4.7696-3.8566 12.42 1.8521 15.518 4.7554 2.5807 9.0144 1.9692 12.825-1.8412zm-267.6 0.79301c0-1.0545 0.5438-1.3983 1.5818-1 0.86998 0.33385 1.995 0.60699 2.5 0.60699 0.50501 0 0.91821 0.45 0.91821 1s-1.125 1-2.5 1c-1.6295 0-2.5-0.55953-2.5-1.607zm-101.33-0.0597c-1.0469-1.0468-0.77896-5.3333 0.33333-5.3333 0.55 0 1 1.35 1 3 0 3.1069-0.20356 3.4631-1.3333 2.3333zm214.33-6.8333v-7.5h5c2.75 0 5 0.45 5 1s-1.8313 1-4.0696 1c-3.6483 0-4.0365 0.23291-3.75 2.25 0.25242 1.7773 1.1599 2.3778 4.3196 2.8581l4 0.6081-4.25 0.1419c-3.8288 0.12785-4.25 0.38966-4.25 2.6419 0 2.2438 0.40393 2.5 3.941 2.5 2.1675 0 4.2191 0.45 4.559 1 0.38371 0.62086-1.4896 1-4.941 1h-5.559zm13.198 2.3571c0.28676-4.8792 0.45372-5.1588 3.2558-5.4535 1.6245-0.17081 3.537 0.17361 4.25 0.76537 1.5134 1.256 1.7719 9.831 0.29642 9.831-0.55 0-1-2.0563-1-4.5696 0-4.1668-0.19831-4.5414-2.25-4.25-1.8704 0.26564-2.3019 1.0365-2.5575 4.5696-0.16912 2.3375-0.75514 4.25-1.3023 4.25-0.56991 0-0.86567-2.1965-0.6925-5.1429zm11.837 3.2087c-2.3134-4.3227 0.24188-9.7496 4.1139-8.737 1.308 0.34204 1.8509-0.0579 1.8509-1.3633 0-1.016 0.45-2.1255 1-2.4654 0.63298-0.3912 1 2.1563 1 6.941v7.559h-3.4648c-2.4021 0-3.7823-0.59327-4.5-1.9343zm5.985-1.1035c1.5898-2.9707 0.2926-6.1479-2.3561-5.7705-2.5119 0.35785-3.4715 4.1306-1.6184 6.3633 1.6363 1.9716 2.6859 1.8151 3.9745-0.59281zm11.98 2.0378c0-0.55 0.45-1 1-1s1 0.45 1 1-0.45 1-1 1-1-0.45-1-1zm-384.6-2.8376c-3.578-2.2504-6.7138-9.0688-5.816-12.646 0.43882-1.7484-0.21021-3.4343-2.39-6.2083-5.2844-6.7248-5.3478-11.174-0.18957-13.31 6.7014-2.7758 30.538-0.33329 39.611 4.0589 5.6477 2.734 8.7651 6.5585 11.588 14.216l2.2954 6.2273 0.5336-6c0.50368-5.6635 0.5771-5.8037 1.3092-2.5 0.42658 1.925 0.63646 6.329 0.46639 9.7866l-0.30921 6.2866-6.1529-7.2866c-6.6758-7.9059-7.7075-11.142-1.2069-3.7856 3.2484 3.6759 3.8488 4.0416 3.2823 1.999-1.3463-4.854-5.1576-12.521-7.0646-14.212-9.0898-8.0583-42.437-11.979-46.572-5.4756-1.1025 1.7339-1.063 1.8586 2.2424 7.0706l3.028 4.7747 3.4506-3.0296c9.0496-7.9456 21.479-2.3719 21.49 9.6364 3e-3 3.4366-0.63936 4.9664-3.3083 7.8787-2.7645 3.0166-4.1284 3.6846-8.25 4.041-3.7094 0.32072-5.7089-0.058-8.0367-1.522zm13.336-1.7258c1.288-0.84392 3.0749-3.0718 3.971-4.9508 2.2694-4.7589 0.48062-10.79-4.0127-13.53-3.6627-2.2333-6.8678-2.7282-4.8955-0.75591 2.0446 2.0446 1.3355 5.065-1.9962 8.5024l-3.1962 3.2976h3.1962c1.7579 0 3.1962 0.45 3.1962 1s-2.025 1-4.5 1c-5.6078 0-5.9321-1.8059-1-5.5678 3.9876-3.0414 4.9086-7.4322 1.559-7.4322-1.0675 0-2.2191 0.45-2.559 1-1.0533 1.7043-2.7486 1.0987-2.0995-0.75 0.33795-0.9625-0.73891-0.2804-2.393 1.5158-9.1015 9.8833 3.4348 24.071 14.73 16.671zm-64.737-8.9365v-11.5h22v4.5c0 2.926 0.43721 4.5048 1.25 4.5136 0.6875 8e-3 2.2625 0.285 3.5 0.61664 1.35 0.36178 2.25 0.15632 2.25-0.51366 0-0.61415-0.64844-1.1166-1.441-1.1166-1.5425 0-3.0885-1.8038-2.2579-2.6345 0.27577-0.27577 3.9442 0.72081 8.152 2.2146s7.2898 3.0241 6.8487 3.4007c-1.195 1.0203-12.262 5.0192-13.891 5.0192-2.3974 0-1.5575-1.7798 1.339-2.8377 2.6108-0.95356 2.535-1.0084-1.5-1.0833l-4.25-0.079v11h-22zm20.815 5.5991c0.20306-2.8382-0.14906-4.6876-0.99164-5.2084-1.0405-0.64308-1.0537-1.0602-0.0649-2.0491 0.68293-0.6829 1.2417-2.9516 1.2417-5.0416v-3.8h-19v21.075l9.25-0.28752 9.25-0.28753zm-9.8149-1.0991c0-1.5556-0.66667-2-3-2-1.65 0-2.9888-0.3375-2.9752-0.75 0.0136-0.4125 1.7011-3 3.75-5.75l3.7252-5 0.30226 5.25c0.16624 2.8875 0.6864 5.25 1.1559 5.25 0.46952 0 0.3335 1.1215-0.30226 2.4922-1.3942 3.0059-2.6559 3.2471-2.6559 0.5078zm-0.0153-6.25c-0.0157-3.331-0.39467-3.1448-3.0534 1.5-0.81369 1.4215-0.61972 1.75 1.0335 1.75 1.6326 0 2.0322-0.64292 2.0199-3.25zm278.27 12.528-6.25-0.37345v-22.905h22v23l-2.75 0.0137c-1.5125 8e-3 -3.65 0.1541-4.75 0.32574-1.1 0.17165-4.8125 0.14403-8.25-0.0614zm14.25-11.778v-10l-3.75-0.31037-3.75-0.31036v4.5604c0 2.5082 0.40766 4.5604 0.90591 4.5604 0.49826 0 0.38576 1.1215-0.25 2.4922-1.3942 3.0059-2.6559 3.2471-2.6559 0.5078 0-1.5556-0.66667-2-3-2-1.65 0-3-0.24887-3-0.55305s1.125-2.2086 2.5-4.2321c1.375-2.0235 2.5-4.0246 2.5-4.4469 0-0.42233-1.8-0.76787-4-0.76787h-4v21.056l9.25-0.27797 9.25-0.27797zm-9.5153-4.75c-0.0157-3.331-0.39467-3.1448-3.0534 1.5-0.81369 1.4215-0.61972 1.75 1.0335 1.75 1.6326 0 2.0322-0.64292 2.0199-3.25zm-24.785 12.05c-1.4393-1.4393-1.5854-3.8-0.23518-3.8 0.89105 0 3.0352 3.1325 3.0352 4.4343 0 0.97051-1.5453 0.62048-2.8-0.63426zm166.8-1.859c0-0.58246 0.45-0.7809 1-0.44098s1 0.81648 1 1.059-0.45 0.44098-1 0.44098-1-0.47656-1-1.059zm-209.51-2.7931c-8.475-3.8766-10.037-14.512-3.0686-20.897 2.8695-2.6297 4.3811-3.2506 7.9138-3.2506 6.0453 0 10.765 3.3133 12.507 8.7799 1.3342 4.1866 1.3818 4.2193 6 4.1229l4.6551-0.0972-3.75-1.5385c-6.5765-2.6982-4.0221-3.0879 3.25-0.49583 3.85 1.3723 7 2.8252 7 3.2287s-3.15 1.8564-7 3.2287c-7.2721 2.592-9.8265 2.2023-3.25-0.49583l3.75-1.5385-5-0.0755c-4.6621-0.0704-5.1014 0.13851-6.5 3.0918-3.0448 6.4294-9.9795 8.9235-16.508 5.9373zm12.608-2.9458c6.0074-5.3676 4.4395-15.825-2.8278-18.862-9.6777-4.0436-19.176 5.7385-14.71 15.15 3.2656 6.8818 11.936 8.717 17.537 3.7121zm-6.0998-4.6708c0-4.4501-0.27936-5.3614-1.5-4.893-2.3484 0.90119-1.6986-0.9481 1.0314-2.935l2.4686-1.7967v7.5467c0 4.3644-0.42167 7.5467-1 7.5467-0.55 0-1-2.4609-1-5.4686zm-92.743 6.2186c0.25896-0.6875 1.4924-4.0625 2.741-7.5s2.6846-6.25 3.1912-6.25 1.9603 2.3625 3.2306 5.25c3.209 7.2945 3.8927 9.75 2.7152 9.75-0.55 0-1.2856-0.9-1.6348-2-0.46911-1.478-1.513-2-4-2s-3.5309 0.52196-4 2c-0.34913 1.1-1.1026 2-1.6744 2s-0.82772-0.5625-0.56876-1.25zm7.5472-7.8824-1.092-3.1324-1.3206 2.3824c-1.8617 3.3586-1.7192 3.8824 1.0565 3.8824 2.3087 0 2.3858-0.17822 1.356-3.1324zm7.196 1.6324c0-4.3333 0.42222-7.5 1-7.5 0.5641 0 1 2.8333 1 6.5v6.5h3.5c1.925 0 3.5 0.45 3.5 1s-2.025 1-4.5 1h-4.5zm11 0c0-4.3333 0.42222-7.5 1-7.5 0.5641 0 1 2.8333 1 6.5v6.5h3.5c1.925 0 3.5 0.45 3.5 1s-2.025 1-4.5 1h-4.5zm16.182 2c1.1453-2.5137 1.9678-3.0169 3.0925-1.8922 0.87395 0.87395-1.524 4.3922-2.9936 4.3922-0.95763 0-0.98004-0.56619-0.0989-2.5zm142.48-3.7711c-3.3855-3.8562-5.5352-7.1274-5.1225-7.7951 0.47062-0.76148 1.5018-0.18394 3.0491 1.7078 2.9827 3.6465 2.9861 2.1618 9e-3 -3.9132-1.286-2.6244-1.998-4.9819-1.582-5.239 1.0518-0.65008 2.5645 1.3678 4.9236 6.5682l2.0153 4.4424 0.022-3.75c0.0384-6.562 1.8248-4.0328 2.5397 3.5957 1.0985 11.723 0.79151 11.953-5.8543 4.3832zm-423.41-0.9789c0.25896-0.6875 1.4924-4.0625 2.741-7.5s2.6846-6.25 3.1912-6.25c0.50657 0 1.9603 2.3625 3.2306 5.25 3.2089 7.2945 3.8927 9.75 2.7152 9.75-0.55 0-1.2856-0.9-1.6348-2-0.46911-1.478-1.513-2-4-2s-3.5309 0.52196-4 2c-0.34913 1.1-1.1026 2-1.6744 2-0.57178 0-0.82772-0.5625-0.56876-1.25zm7.5471-7.8824-1.092-3.1324-1.3206 2.3824c-1.8617 3.3586-1.7192 3.8824 1.0565 3.8824 2.3087 0 2.3859-0.17822 1.356-3.1324zm7.196 1.6324c0-4.3333 0.42222-7.5 1-7.5 0.5641 0 1 2.8333 1 6.5v6.5h3.5c1.925 0 3.5 0.45 3.5 1s-2.025 1-4.5 1h-4.5zm12.196-0.25 0.19586-7.75 0.34983 6.75 0.34983 6.75h3.9543c2.1749 0 3.9543 0.45 3.9543 1s-2.025 1-4.5 1h-4.5zm336.8 5.25c0-1.6295 0.55953-2.5 1.607-2.5 1.0545 0 1.3983 0.5438 1 1.5818-0.33385 0.86998-0.60699 1.995-0.60699 2.5 0 0.50501-0.45 0.91821-1 0.91821s-1-1.125-1-2.5zm-65.359-1.1921c-0.38067-0.38067 0.55683-1.722 2.0833-2.9806l2.7755-2.2885-5.7288 1.9194c-6.5165 2.1834-9.1535 0.88896-3.0932-1.5183 7.9208-3.1463 8.1267-3.2982 4.572-3.3722-1.8959-0.0395-3.251-0.58848-3.2523-1.3177-2e-3 -0.9325 2.3162-1.1676 9.1258-0.92579 5.0204 0.17831 8.734 0.66537 8.2523 1.0824-2.7526 2.3829-13.082 10.093-13.521 10.093-0.2866 0-0.83256-0.31146-1.2132-0.69213zm-66.331-13.808c6e-3 -3.3 0.1923-4.5294 0.41486-2.7321s0.21797 4.4974-0.0102 6c-0.22818 1.5026-0.41027 0.0321-0.40466-3.2679zm140.69 4.0674c0-1.5596 3.7336-3.1671 4.8238-2.0769 0.68596 0.68597-2.5442 3.5096-4.0149 3.5096-0.44488 0-0.80887-0.64468-0.80887-1.4326zm15.376-4.768c-0.75698-1.2248-0.35528-1.5346 2.531-1.9516 1.3239-0.19128 2.5802 0.15866 2.7918 0.77765 0.47101 1.3777-4.517 2.4778-5.3229 1.1739zm16.624-1.7994c0-0.55 1.125-1 2.5-1s2.5 0.45 2.5 1-1.125 1-2.5 1-2.5-0.45-2.5-1zm-327-85v-79h-91v158h91zm-75.785 17.75-0.21503-15.75h-6c-3.3333 0-6-0.44444-6-1 0-0.55298 2.6214-1 5.8641-1h5.8641l0.64447-4.7019c1.7953-13.098 11.855-23.037 24.394-24.101 8.4972-0.72133 13.899 1.3509 20.394 7.8239 5.6386 5.6192 8.8389 12.376 8.8389 18.661 0 2.0382 0.48351 2.3185 4 2.3185 2.2 0 4 0.45 4 1s-1.7796 1-3.9547 1c-3.7848 0-3.9833 0.16109-4.6207 3.75-1.691 9.5217-9.4894 18.542-18.71 21.642-6.0347 2.0286-9.4121 2.026-15.43-0.0118-6.5018-2.2016-11.81-6.6184-15.302-12.733l-2.9156-5.105-0.31868 11.979c-0.30451 11.446-0.32825 11.278-0.53372-3.7708zm35.513 7.7191c8.3042-3.4697 14.144-10.437 16.108-19.219l0.95065-4.25h-15.441l0.44852 3.056c0.6719 4.5779-2.886 7.944-8.3966 7.944-3.4431 0-4.6629-0.52091-6.4047-2.7352-1.3963-1.7751-2.0091-3.7058-1.7458-5.5l0.40578-2.7648h-19.654v2.8037c0 3.9642 4.575 12.659 8.3278 15.827 7.2509 6.1214 17.608 8.094 25.401 4.8379zm-2.2648-16.429c1.2067-1.3334 1.5698-2.7715 1.1359-4.5-0.56121-2.236-1.1615-2.5403-5.0115-2.5403-3.066 0-4.5555 0.47301-4.981 1.5818-0.95217 2.4813-0.7474 3.2778 1.393 5.4182 2.5324 2.5324 5.1952 2.5468 7.4635 0.0403zm-8.4635-9.9178c0-0.48265-0.675-1.4378-1.5-2.1224-2.203-1.8283-1.8323-4.7586 0.95455-7.5454 2.9997-2.9997 6.4153-3.1313 9.9106-0.38197 2.9459 2.3173 3.4467 5.9727 1.1349 8.2846-0.825 0.825-1.5 1.7572-1.5 2.0714 0 0.31429 4.3146 0.57143 9.5879 0.57143h9.5879l-0.70083-4.1482c-1.5321-9.0686-7.1739-17.068-14.907-21.137-5.6223-2.9583-15.514-2.9583-21.136 0-4.8059 2.5287-10.833 8.9158-12.752 13.513-1.7946 4.2996-2.8788 10.24-2.0248 11.094 1.0115 1.0115 23.345 0.8211 23.345-0.19907zm7.4286-2.6939c2.8801-2.8801 1.1727-6.4286-3.0934-6.4286-3.203 0-4.6523 3.1022-2.7309 5.8454 1.7877 2.5523 3.667 2.7405 5.8243 0.58318zm368.57 3.5714v-79h-323v158h323zm-223 76.5c0-1.614 0.91589-1.8532 3.4182-0.89301 2.4345 0.9342 1.8747 2.393-0.91821 2.393-1.5556 0-2.5-0.56667-2.5-1.5zm15 0.5c0-0.55 0.4132-1 0.91821-1 0.50502 0 1.63-0.27314 2.5-0.60699 1.038-0.39831 1.5818-0.0545 1.5818 1 0 1.0475-0.87047 1.607-2.5 1.607-1.375 0-2.5-0.45-2.5-1zm15.558-1.7754c-1.1519-1.1519-0.47988-2.0063 1.9421-2.4693 1.5836-0.30273 2.5-0.0217 2.5 0.76679 0 1.3146-3.4917 2.6529-4.4421 1.7025zm-44.115-1.6428c-1.0668-0.78003-1.6956-1.6622-1.3975-1.9603 0.99842-0.99841 4.9548 0.59475 4.9548 1.9952 0 1.7651-1.1105 1.7542-3.5573-0.0349zm57.283-5.1896c-0.88086-0.88086 1.5295-4.3922 3.015-4.3922 1.5968 0 1.5548 1.0271-0.1326 3.25-1.4318 1.8862-1.9379 2.0868-2.8824 1.1422zm-69.726-4.3922c-0.5887-1.1-0.82953-2-0.53518-2s-0.25232-0.82699-1.2148-1.8378-2.2798-2.6983-2.9274-3.75c-0.99385-1.6141-1.0904-1.3276-0.61916 1.8378 0.61063 4.1016-1.3048 5.4411-2.145 1.5-1.9012-8.9174-2.6468-13.995-2.1308-14.511 0.33129-0.33129 2.1706 0.91767 4.0874 2.7755 4.0089 3.8856 4.2906 3.4848 1.4558-2.0717-3.5861-7.0294-4.1386-12.862-1.9449-20.533 1.0662-3.7282 1.7698-6.9471 1.5637-7.1532-0.20611-0.20611-1.6606 1.4423-3.2322 3.6631-1.5716 2.2208-3.2173 4.0475-3.6571 4.0592-0.96067 0.0257-0.4849-0.77044 5.2158-8.7274 2.4288-3.3902 4.7914-5.932 5.25-5.6486s0.78098 4.4263 0.71629 9.2064c-0.10782 7.9672-0.18536 8.2873-0.93108 3.8432-0.44741-2.6663-1.0142-5.0485-1.2595-5.2938-1.0343-1.0343-3.9298 12.83-3.4408 16.476 0.93188 6.9476 5.6885 15.926 10.938 20.646 6.4746 5.8212 12.684 7.8284 22.798 7.3691 6.7985-0.30874 8.426-0.76028 12.134-3.3667 6.1756-4.3404 8.1413-8.3045 8.6731-17.49l0.44742-7.7289-8.3709-0.45589c-5.136-0.27971-9.6268-1.1134-11.621-2.1574-3.1571-1.6529-3.25-1.6436-3.25 0.32414 0 1.9115-0.62018 2.0257-11 2.0257h-11v-21h22v7.1018l3.25-2.4328c4.3829-3.2809 9.2438-5.669 11.539-5.669 3.2586 0 9.1335 5.1937 9.1742 8.1104 0.02 1.4357 0.32261 4.6982 0.67236 7.25 0.55262 4.0317 0.94564 4.6396 3 4.6396 1.6974 0 2.3641-0.564 2.3641-2 0-2.3149 1.7987-2.6882 2.6214-0.54413 0.4832 1.2592 1.1206 1.2351 4.7186-0.17821 7.7955-3.0622 8.7229-4.0315 8.0262-8.3888-0.41373-2.5873-0.24439-3.8889 0.50595-3.8889 0.6203 0 1.1278 0.52844 1.1278 1.1743 0 0.64588 1.0125 0.25211 2.25-0.87503 5.0952-4.6408 9.5889-5.4186 15.393-2.6644 9.4919 4.5042 7.7442 17.568-2.7275 20.388-5.3093 1.4296-12.379-1.5185-14.237-5.9367l-1.2612-2.9996-2.9585 1.9753c-2.6761 1.7868-8.545 3.798-15.563 5.3335-2.428 0.53122-2.65 1.0565-3.2713 7.7412-1.2144 13.066-5.8398 19.417-16.371 22.478-9.4394 2.7441-22.697 0.0743-28.99-5.8381-1.2444-1.169-2.2625-1.7523-2.2625-1.2962 0 0.45612-0.7875 0.15301-1.75-0.67358-3.6572-3.1408-4.2455-2.8601-2.2062 1.0524 1.1479 2.2024 2.7278 4.536 3.5107 5.1857s1.1769 1.5804 0.87552 2.0681c-0.90323 1.4614-2.2935 1.0102-3.43-1.1133zm91.814-31.497c3.8269-3.2201 4.6721-6.6761 2.6664-10.903-1.6016-3.3751-4.9898-5.6002-8.5276-5.6002-1.7637 0-1.953 0.7269-1.953 7.5 0 4.3333-0.42222 7.5-1 7.5-0.55 0-1-2.4609-1-5.4686 0-4.4501-0.27936-5.3614-1.5-4.893-2.2122 0.84889-1.8234-0.548 0.75-2.6948 2.0011-1.6694 2.0479-1.8807 0.42308-1.9103-2.8771-0.0524-7.6785 5.379-7.6376 8.6398 0.11191 8.928 10.852 13.658 17.779 7.8299zm-67.098-7.503l0.12584-9h-18.842v18h18.59zm-13.694 5.5269c-1.92-2.3135-0.36652-3.1484 1.9528-1.0494 1.6266 1.472 2.2631 1.5697 3.5061 0.53809 2.1287-1.7666 1.8905-4.1056-0.48124-4.7258-2.3306-0.60947-2.6975-2.2898-0.5-2.2898 0.83333 0 1.5-0.88889 1.5-2 0-2.255-2.8671-2.7329-4.8-0.8-0.78182 0.78182-1.2 0.82449-1.2 0.12244 0-2.3949 2.9445-3.6688 5.6406-2.4403 2.0767 0.9462 2.4823 1.6945 2.0746 3.8274-0.27875 1.4582 6e-3 3.4716 0.6317 4.4743 2.5271 4.0465-5.2174 8.0869-8.3246 4.343zm37.978-1.4679c0-2.7175-0.45-5.2191-1-5.559s-1-1.5685-1-2.7303c0-6.0684-6.9524-7.4541-14.233-2.8368-12.63 8.0097-7.2211 15.526 11.483 15.958l4.75 0.10957zm-17 25.901c0-0.57206 1.8695-2.7664 4.1545-4.8762 2.8136-2.598 3.9534-4.3602 3.5314-5.4599-0.80571-2.0996-4.3218-2.0967-5.4978 5e-3 -0.52726 0.94217-1.1704 1.2092-1.5261 0.63364-1.0914-1.766 3.0313-4.5559 5.7311-3.8783 4.2993 1.079 4.301 4.3211 5e-3 8.721l-3.804 3.8949h3.703c2.0366 0 3.703 0.45 3.703 1s-2.25 1-5 1c-2.7953 0-5-0.45864-5-1.0401zm26-1.409c0-0.79701 1.575-2.6504 3.5-4.1187 3.8896-2.9667 4.911-7.4322 1.7-7.4322-0.99 0-2.3325 0.5325-2.9833 1.1833-0.65084 0.65084-1.5276 0.83904-1.9484 0.41824-0.94757-0.94757 2.5327-3.6016 4.7229-3.6016 4.762 0 5.1959 5.1801 0.8127 9.7024l-3.1962 3.2976h3.1962c1.7579 0 3.1962 0.45 3.1962 1s-2.025 1-4.5 1c-3.2631 0-4.5-0.39831-4.5-1.4491zm16-2.0509c0-1.375 0.45-2.5 1-2.5s1 1.125 1 2.5-0.45 2.5-1 2.5-1-1.125-1-2.5zm-1-13.418c0-0.50502-0.27314-1.63-0.60699-2.5-0.39831-1.038-0.0545-1.5818 1-1.5818 1.0475 0 1.607 0.87047 1.607 2.5 0 1.375-0.45 2.5-1 2.5s-1-0.4132-1-0.91821zm90.246-18.082c-5.1961-13.527-6.0677-16.626-4.3828-15.585 0.47455 0.29329 1.4363 2.5814 2.1372 5.0848s1.6626 4.7915 2.1372 5.0848c0.47456 0.29329 0.86283-7.9083 0.86283-18.226s-0.37562-18.332-0.83472-17.809c-0.45909 0.5225-1.6318 3.1148-2.6059 5.7608-0.97415 2.6459-2.0127 4.5692-2.308 4.274-0.54561-0.5456 4.4925-15.471 5.6791-16.824 0.3566-0.40668 2.0314 3.0675 3.7218 7.7205 3.447 9.4882 3.2072 12.794-0.27542 3.7959l-2.2359-5.7769v38l2.2359-5.7769c1.2298-3.1773 2.4871-5.5258 2.7941-5.2188 0.48085 0.48086-1.4567 6.5046-4.9842 15.496l-0.98082 2.5zm-105.25-7c0-0.55 1.125-1 2.5-1s2.5 0.45 2.5 1-1.125 1-2.5 1-2.5-0.45-2.5-1zm39.821-10.002c-0.17653-4.9513 0.0165-9.0013 0.42903-9 0.4125 1e-3 0.75 2.2523 0.75 5.0023s0.40003 5 0.88895 5c1.5128 0 4.4303-12.645 3.8056-16.495-0.81082-4.9965-4.9579-13.706-8.8068-18.495-1.8497-2.3017-5.6399-5.2138-8.8162-6.7737-4.7445-2.3301-6.8334-2.7363-14.072-2.7363-7.4653 0-9.0676 0.33366-13.163 2.7412-5.4614 3.2105-8.5332 7.6914-9.2926 13.555-0.29943 2.3121-0.76413 5.9375-1.0327 8.0565l-0.48826 3.8527 7.9358 0.61196c8.4277 0.6499 14.737 2.6814 16.791 5.4064 1.0525 1.3964 1.25 0.8382 1.25-3.5326v-5.1911h22v22h-22v-8.2697l-2.1794 2.7706c-1.1987 1.5239-4.2118 4.0596-6.6958 5.6349-9.8638 6.2554-16.297 2.4694-17.648-10.386-0.3902-3.7125-1.0702-6.75-1.5112-6.75-2.2469 0-3.783 1.3114-3.2285 2.7564 0.47999 1.2508 0.19931 1.4226-1.3131 0.80379-4.0135-1.6422-5.0458-1.5706-9.4236 0.6536-4.253 2.1608-4.4873 2.4977-4.2679 6.1402 0.21661 3.5961 0.0738 3.8142-2.1356 3.2597-1.4412-0.36171-2.8178-0.052-3.5178 0.79147-3.2859 3.9593-12.791 2.3188-16.911-2.9187-6.0237-7.6579 1.7844-18.975 11.714-16.978 1.99 0.40023 4.7995 0.69702 6.2433 0.65951 2.3254-0.0604 2.6868 0.39219 3.1659 3.9644 0.29748 2.2179 0.79001 4.2817 1.0945 4.5862 0.30451 0.30451 2.804-0.41444 5.5545-1.5977 2.7505-1.1832 6.9782-2.4223 9.395-2.7536l4.3941-0.60228 0.56834-7.5147c1.1501-15.207 8.2941-22.444 22.807-23.103 9.9885-0.45408 16.037 1.5195 24.473 7.9854l6.4178 4.919-2.0629-3.9577c-1.1346-2.1767-2.7034-4.4893-3.4864-5.1391-0.78294-0.64979-1.1588-1.6098-0.83526-2.1333 0.61792-0.99981 4.5619 1.981 4.0516 3.0621-0.16001 0.339 0.97403 1.9579 2.5201 3.5976l2.811 2.9812-0.92284-3.2178c-0.59226-2.0651-0.56718-3.4376 0.07-3.8314 1.3977-0.86381 1.3935-0.87401 3.6044 8.8551l1.9926 8.7685-3.4343-2.6195c-1.8889-1.4407-3.6378-2.416-3.8864-2.1674s0.44602 2.4316 1.5437 4.851c2.3862 5.2594 2.5854 12.529 0.52891 19.308-2.163 7.13-1.8929 7.4074 2.109 2.1663 1.979-2.5918 3.8148-4.4957 4.0795-4.231 0.5792 0.57921-9.8236 14.656-10.831 14.656-0.38771 0-0.84936-4.051-1.0259-9.0023zm-35.16 3.9244c5.1364-2.4865 9.5578-7.4251 9.1405-10.21-0.61217-4.085-5.1056-6.0632-14.828-6.528l-9.0362-0.43203 0.68344 4.3738c0.37589 2.4056 1.1747 4.6931 1.7752 5.0834 0.60045 0.39025 0.95303 2.0318 0.78351 3.648-0.22528 2.1477 0.30725 3.3696 1.979 4.5404 2.9846 2.0905 4.342 2.0225 9.5031-0.47591zm-39.431-4.958c1.0215-1.2615 1.6323-2.8801 1.3572-3.5968s-0.0697-1.5691 0.45625-1.8942c1.8444-1.1399 0.92884-4.6543-1.9668-7.5499-5.1014-5.1014-14.55-3.6608-17.557 2.6771-2.024 4.2653-1.1558 7.6867 2.7942 11.01 2.6709 2.2474 3.7787 2.539 8.0773 2.1259 3.6132-0.34718 5.4921-1.1089 6.8392-2.7724zm-12.23-1.9641c-1.2968-2.4232-0.30869-2.5893 2.1525-0.36199 1.4756 1.3354 2.0906 1.4051 3.3287 0.37756 2.1287-1.7666 1.8905-4.1056-0.48124-4.7258-2.3306-0.60947-2.6975-2.2898-0.5-2.2898 0.83333 0 1.5-0.88889 1.5-2 0-2.255-2.8671-2.7329-4.8-0.8-0.78182 0.78182-1.2 0.82449-1.2 0.12244 0-2.3985 2.9443-3.6689 5.6481-2.4369 2.147 0.97825 2.4926 1.6611 2.0246 4.0012-0.31038 1.5519-0.0609 3.325 0.55438 3.9403 0.82494 0.82494 0.81635 1.7823-0.0327 3.6458-1.4735 3.234-6.5702 3.5619-8.1943 0.52713zm83.083 4.5879c0.22917-0.22667 0.27111-4.2767 0.0932-9l-0.32348-8.5879h-6.853v7.5c0 4.3333-0.42222 7.5-1 7.5-0.55 0-1-2.5053-1-5.5674 0-5.2907-0.11182-5.5366-2.25-4.9471l-2.25 0.62024 2.25-1.9632c1.2375-1.0797 2.25-2.2285 2.25-2.5528s-2.25-0.58971-5-0.58971h-5v18h9.3333c5.1333 0 9.5208-0.18546 9.75-0.41214zm-58.519 4.5169c-0.3043-0.49236 0.15595-1.1674 1.0228-1.5 2.4965-0.95799 3.4125-0.7177 3.4125 0.89522 0 1.61-3.5176 2.0896-4.4352 0.60478zm91.193-1.0807c-3.3253-2.6156-4.2669-6.0241-1.6642-6.0241 1.0485 0 1.9064 0.41786 1.9064 0.92857 0 3.1485 6.8362 5.2227 11.418 3.4644 1.8843-0.72309 2.1006-4.7323 0.33179-6.1498-0.6875-0.55094-3.8267-1.7405-6.976-2.6434-8.0031-2.2945-9.9955-6.4691-5.3194-11.145 1.8932-1.8932 3.5045-2.4546 7.0454-2.4546s5.1523 0.56136 7.0454 2.4546c2.6541 2.6541 3.0467 4.0615 1.4144 5.0703-0.57208 0.35356-1.9547-0.51988-3.0726-1.941-3.2234-4.0979-10.887-3.3974-10.887 0.99522 0 2.0262 0.82387 2.5954 5.75 3.9724 9.4364 2.6378 12.704 8.0851 7.7954 12.994-3.2084 3.2085-10.997 3.4606-14.788 0.47867zm76-6c-3.3253-2.6156-4.2669-6.0241-1.6642-6.0241 1.0485 0 1.9064 0.41786 1.9064 0.92857 0 3.1485 6.8362 5.2227 11.418 3.4644 1.8843-0.72309 2.1006-4.7323 0.33179-6.1498-0.6875-0.55094-3.8267-1.7405-6.976-2.6434-8.0031-2.2945-9.9955-6.4691-5.3194-11.145 1.8932-1.8932 3.5045-2.4546 7.0454-2.4546s5.1523 0.56136 7.0454 2.4546c2.6541 2.6541 3.0467 4.0615 1.4144 5.0703-0.57208 0.35356-1.9547-0.51988-3.0726-1.941-3.2234-4.0979-10.887-3.3974-10.887 0.99522 0 2.0262 0.82387 2.5954 5.75 3.9724 9.4364 2.6378 12.704 8.0851 7.7954 12.994-3.2084 3.2085-10.997 3.4606-14.788 0.47867zm-256.76-4.9346c-0.825-0.46733-4.5482-1.868-8.2737-3.1126-3.7255-1.2446-6.534-2.5025-6.2411-2.7955 0.96235-0.96235 16.833-6.1962 17.318-5.7112 0.26057 0.26058-0.60114 0.88578-1.9149 1.3893-10.551 4.0443-10.72 3.9715 9.4203 4.0588 12.305 0.0534 18.595-0.26423 18.191-0.91843-0.33992-0.55-1.0559-1-1.5911-1-0.5352 0-2.6027-0.68091-4.5945-1.5131-5.8512-2.4448-3.1205-2.7583 3.3042-0.3794 3.2348 1.1978 6.9564 2.5762 8.2702 3.0632 1.3138 0.48693 2.2022 1.0719 1.9742 1.2999-1.1495 1.1495-16.863 6.3535-16.863 5.5847 0-0.49196 2.25-1.6418 5-2.5552s5-1.8496 5-2.0804-8.4375-0.38982-18.75-0.35339l-18.75 0.0663 5.75 2.1276c3.1625 1.1702 5.75 2.4904 5.75 2.9338 0 1.0206-1.0804 0.98299-3-0.1044zm120-22.089c0-1.5556-0.66667-2-3-2-1.65 0-2.9888-0.3375-2.9752-0.75 0.0136-0.4125 1.7011-3 3.75-5.75l3.7252-5 0.30226 5.25c0.16624 2.8875 0.6864 5.25 1.1559 5.25 0.46952 0 0.3335 1.1215-0.30226 2.4922-1.3942 3.0059-2.6559 3.2471-2.6559 0.5078zm-0.0153-6.25c-0.0157-3.331-0.39467-3.1448-3.0534 1.5-0.81369 1.4215-0.61972 1.75 1.0335 1.75 1.6326 0 2.0322-0.64292 2.0199-3.25zm-43.985 3.75c0-1.5556 0.56667-2.5 1.5-2.5s1.5 0.94444 1.5 2.5c0 1.5556-0.56667 2.5-1.5 2.5s-1.5-0.94445-1.5-2.5zm14.756-0.32374c-0.42975-1.6434-1.3266-2.1763-3.6627-2.1763-1.7015 0-3.0936-0.22396-3.0936-0.49769 0-0.27372 1.6875-2.853 3.75-5.7318l3.75-5.2342 0.29692 4.4818c0.17885 2.6997 0.95073 4.9789 1.9411 5.7318 0.99459 0.75613 1.1609 1.25 0.42086 1.25-0.67285 0-1.5856 0.97931-2.0284 2.1763l-0.80505 2.1763zm0.0164-6.6848 0.27279-2.9914-2.0228 2.3608c-2.4865 2.9019-2.5894 4.3933-0.27279 3.954 1.121-0.21258 1.8481-1.4072 2.0228-3.3233zm96.227-2.9406c0-0.79701 1.575-2.6504 3.5-4.1187 3.8896-2.9667 4.911-7.4322 1.7-7.4322-0.99 0-2.3325 0.5325-2.9833 1.1833-0.65084 0.65083-1.5276 0.83904-1.9484 0.41824-0.94757-0.94757 2.5327-3.6016 4.7229-3.6016 4.762 0 5.1959 5.1801 0.8127 9.7024l-3.1962 3.2976h3.1962c1.7579 0 3.1962 0.45 3.1962 1s-2.025 1-4.5 1c-3.2631 0-4.5-0.39832-4.5-1.4491zm22.724-0.49675c-0.39586-1.5138-1.351-2.0541-3.6308-2.0541-1.7015 0-3.0936-0.22396-3.0936-0.49769 0-0.27372 1.6875-2.853 3.75-5.7318l3.75-5.2342 0.31875 4.4622c0.17532 2.4542 0.66451 4.921 1.0871 5.4818s0.22551 2.0565-0.43796 3.3238c-1.177 2.2481-1.2194 2.2542-1.7435 0.25zm0.27559-6.0541c0-1.65-0.19436-3-0.43191-3-0.23754 0-1.3932 1.35-2.5681 3l-2.1362 3h2.5681c2.1868 0 2.5681-0.44546 2.5681-3zm-130.42 4.1336c-0.29449-0.47649 0.30928-1.6308 1.3417-2.5651 2.223-2.0118 3.9556-0.33359 2.0394 1.9753-1.3686 1.649-2.5943 1.8629-3.381 0.58984zm58.167-5.8829c-0.9625-0.21857-1.75-1.0394-1.75-1.8241 0-1.787 1.0908-1.812 3.4604-0.0793 2.015 1.4734 1.0628 2.5331-1.7104 1.9034zm-45.505-1.5007c0.48933-1.4858 4.755-2.317 4.755-0.92654 0 0.96982-2.3092 2.1765-4.1651 2.1765-0.55085 0-0.8163-0.5625-0.58989-1.25zm14.755-2.75c0-0.55 0.675-1 1.5-1s1.8-0.1125 2.1667-0.25c0.36666-0.1375 0.85416 0.3125 1.0833 1 0.26165 0.78494-0.54444 1.25-2.1667 1.25-1.4208 0-2.5833-0.45-2.5833-1zm14.5 0c0.33992-0.55 1.4915-1 2.559-1s1.941 0.45 1.941 1-1.1516 1-2.559 1c-1.4514 0-2.2915-0.43284-1.941-1zm130.76-4.25c0.25896-0.6875 1.4924-4.0625 2.741-7.5s2.6846-6.25 3.1912-6.25 1.9603 2.3625 3.2306 5.25c3.209 7.2945 3.8927 9.75 2.7152 9.75-0.55 0-1.2856-0.9-1.6348-2-0.46911-1.478-1.513-2-4-2s-3.5309 0.52196-4 2c-0.34913 1.1-1.1026 2-1.6744 2s-0.82772-0.5625-0.56876-1.25zm7.5472-7.8824-1.092-3.1324-1.3206 2.3824c-1.8617 3.3586-1.7192 3.8824 1.0565 3.8824 2.3087 0 2.3858-0.17822 1.356-3.1324zm7.196 1.6324c0-4.3333 0.42222-7.5 1-7.5 0.5641 0 1 2.8333 1 6.5v6.5h3.5c1.925 0 3.5 0.45 3.5 1s-2.025 1-4.5 1h-4.5zm11 0c0-4.3333 0.42222-7.5 1-7.5 0.5641 0 1 2.8333 1 6.5v6.5h3.5c1.925 0 3.5 0.45 3.5 1s-2.025 1-4.5 1h-4.5zm-53.674 3.9819-2.1743-2.4819h-36.394c-41.167 0-44.271-0.40471-49.592-6.4644l-3.0228-3.4428-3.9536 3.9536c-2.1745 2.1745-4.5691 3.952-5.3213 3.9499-0.75221-2e-3 0.0423-0.8635 1.7656-1.9143 3.8775-2.3644 6.3667-5.8067 6.3667-8.8044 0-1.2526 0.45-2.2775 1-2.2775s1 1.0905 1 2.4233c0 3.9097 4.5398 8.3626 10.257 10.06 4.1494 1.2322 11.832 1.5165 40.991 1.5165 22.546 0 36.595 0.3802 37.796 1.0229 1.0512 0.5626 2.3875 1.9126 2.9694 3 1.3986 2.6133 0.95098 2.4697-1.6866-0.54099zm-184.33 0.54112c0-0.53732 1.0125-1.6385 2.25-2.4472 1.8604-1.2156 8.9721-1.5226 41.07-1.773 21.351-0.16657 37.776-0.0102 36.5 0.34747s-18.858 0.69517-39.07 0.75c-35.346 0.0959-36.826 0.17606-38.75 2.0997-1.1 1.1-2 1.5604-2 1.023zm-53-7.5904c0-5.3034-0.10669-5.536-2.25-4.9043-2.1143 0.62309-2.0867 0.50651 0.45636-1.9326 1.4885-1.4276 2.951-2.5957 3.25-2.5957 0.299 0 0.54364 3.375 0.54364 7.5 0 4.3333-0.42222 7.5-1 7.5-0.55 0-1-2.5053-1-5.5674zm13 3.5674c-1.2968-2.4232-0.30869-2.5893 2.1525-0.36199 1.4756 1.3354 2.0906 1.4051 3.3287 0.37755 2.1287-1.7666 1.8905-4.1056-0.48124-4.7258-2.3306-0.60947-2.6975-2.2898-0.5-2.2898 0.83333 0 1.5-0.88889 1.5-2 0-2.255-2.8671-2.7329-4.8-0.8-0.78182 0.78182-1.2 0.82449-1.2 0.12244 0-2.3985 2.9443-3.6689 5.6481-2.4369 2.147 0.97826 2.4926 1.6612 2.0246 4.0012-0.31038 1.5519-0.0609 3.325 0.55438 3.9403 0.82494 0.82494 0.81635 1.7823-0.0327 3.6458-1.4735 3.234-6.5702 3.5619-8.1943 0.52713zm578 60v-79h-138l-0.18025 4.75-0.18025 4.75-0.37454-4.75-0.37454-4.75h-132.89v158h272zm-138.7 72c0-3.025 0.18747-4.2625 0.41659-2.75 0.22913 1.5125 0.22913 3.9875 0 5.5-0.22912 1.5125-0.41659 0.275-0.41659-2.75zm0.0785-34c0-6.325 0.16237-8.9125 0.36082-5.75s0.19845 8.3375 0 11.5-0.36082 0.575-0.36082-5.75zm4e-3 -39.5c-2e-3 -6.6 0.15825-9.4301 0.35606-6.2892 0.19781 3.141 0.19942 8.541 4e-3 12-0.19583 3.4591-0.35767 0.88919-0.35965-5.7108zm-89.715 6.8333c-0.36707-0.36666-0.66707-3.7417-0.66707-7.5v-6.8333h-7c-6.8 0-7-0.0714-7-2.5 0-2.2471-0.42992-2.5177-4.25-2.6747l-4.25-0.1747 4.25-0.3828 4.25-0.38279v-19.929l18.75 0.27206 18.75 0.27207 0.29381 7.25 0.29381 7.25h6.9562c6.7533 0 6.9562 0.0729 6.9562 2.5 0 2.3794 0.30138 2.5093 6.25 2.6927l6.25 0.19268-6.25 0.35504-6.25 0.35503v19.905h-18.333c-10.083 0-18.633-0.3-19-0.66667zm36.333-10.333v-9h-6.5c-6.2667 0-6.5 0.0897-6.5 2.5v2.5h-22v13h35zm-37-7c0-1.7778-0.66667-2-6-2s-6 0.22222-6 2 0.66667 2 6 2 6-0.22222 6-2zm22 0c0-1.8667-0.66667-2-10-2s-10 0.13333-10 2 0.66667 2 10 2 10-0.13333 10-2zm-22-5.5v-2.5h22v-13h-34v18h6c5.7333 0 6-0.11111 6-2.5zm22 0.5c0-1.8667-0.66667-2-10-2s-10 0.13333-10 2 0.66667 2 10 2 10-0.13333 10-2zm15 0c0-1.7949-0.66667-2-6.5-2s-6.5 0.20513-6.5 2 0.66667 2 6.5 2 6.5-0.20513 6.5-2zm126.5 21.548c-3.6392-0.99111-5.9896-2.4757-8.6359-5.4548-1.9997-2.2512-4.511-4.093-5.5805-4.093s-4.1584-1.1231-6.8641-2.4958c-2.7057-1.3727-6.0445-2.559-7.4195-2.6362-2.1687-0.12176-2.2189-0.19555-0.37877-0.55686 1.8654-0.36626 2.0626-0.9361 1.6356-4.7245-0.61617-5.4666 1.4303-8.7727 7.1417-11.538 8.4124-4.0724 20.8-1.7566 25.643 4.7936 1.5684 2.1213 3.4108 3.2269 6.1483 3.6894 2.1499 0.36322 5.8712 2.1583 8.2696 3.989 2.3984 1.8308 5.6386 3.52 7.2005 3.7539l2.8397 0.42525-3.05 0.14983c-2.7857 0.13685-3.05 0.45075-3.05 3.6225 0 8.4578-12.404 14.206-23.9 11.075zm15.172-2.486c4.7571-2.1599 7.6334-5.8799 7.1551-9.254-0.30965-2.1845-0.79692-2.3233-9.1191-2.5974-7.6177-0.25087-9.1404-0.0155-11.4 1.7622-1.4346 1.1285-4.3407 2.3288-6.458 2.6674-4.1887 0.6698-4.8455 2.1487-2.0698 4.6606 5.2443 4.746 14.852 5.9578 21.892 2.7612zm-26.672-8.48c0-0.23002 0.27314-1.13 0.60699-2 0.50948-1.3277-0.3032-1.5818-5.059-1.5818-3.4619 0-5.4294 0.38284-5.0578 0.98416 0.88469 1.4314 9.5098 3.7874 9.5098 2.5976zm11-2.1943c2.3438-1.2897 2.1569-1.3604-2.9906-1.1316-4.4362 0.19719-5.5582 0.59931-5.8425 2.0938-0.30613 1.6092 0.0829 1.7564 2.9906 1.1316 1.8384-0.39501 4.4675-1.3372 5.8425-2.0938zm-6.5582-5.7912c2.4565-1.8751 6.2778-3.711 8.5086-4.0879 2.2272-0.37629 4.0495-1.0546 4.0495-1.5074 0-1.6888-6.2342-5.987-10.253-7.0692-7.5517-2.0335-17.639 1.0256-20.291 6.1534-1.8482 3.574-1.8303 4.9353 0.10075 7.6923 1.3113 1.8721 2.4923 2.2225 7.4914 2.2225 5.2104 0 6.4788-0.41536 10.394-3.4037zm11.358 2.2037c0.66-0.66 1.2-2.1872 1.2-3.3937 0-2.0483-0.26943-2.1332-4.0652-1.2803-4.3489 0.97714-8.9348 3.5378-8.9348 4.989 0 1.3386 10.425 1.0604 11.8-0.31501zm16.2 0.22568c0-1.2274-5.5085-4.1184-9.6233-5.0504-2.9024-0.65743-3.1964-0.4694-4.1564 2.6586l-1.0331 3.3661h7.4064c4.1408 0 7.4064-0.42959 7.4064-0.97432zm-93.618-29.526c-2e-3 -6.6 0.15825-9.4301 0.35606-6.2892s0.19942 8.541 4e-3 12c-0.19624 3.459-0.35808 0.88919-0.36006-5.7108zm60.618-16.212c0-0.39168 1.861-2.6083 4.1354-4.9259 2.6765-2.7272 3.9223-4.769 3.5314-5.7878-0.79013-2.059-4.3156-2.0241-5.4788 0.0543-0.52726 0.94217-1.1704 1.2092-1.5261 0.63365-1.0914-1.766 3.0313-4.5559 5.7311-3.8783 4.2993 1.079 4.301 4.3211 5e-3 8.721l-3.804 3.8952h3.703c2.0366 0 3.703 0.45 3.703 1s-2.25 1-5 1-5-0.32047-5-0.71215zm23-1.2878c0-1.5556-0.66667-2-3-2-1.65 0-2.9888-0.3375-2.9752-0.75 0.0136-0.4125 1.7011-3 3.75-5.75l3.7252-5 0.30226 5.25c0.16624 2.8875 0.6864 5.25 1.1559 5.25 0.46952 0 0.3335 1.1215-0.30226 2.4922-1.3942 3.0058-2.6559 3.2471-2.6559 0.5078zm-0.0153-6.25c-0.0157-3.331-0.39467-3.1448-3.0534 1.5-0.81369 1.4215-0.61972 1.75 1.0335 1.75 1.6326 0 2.0322-0.64292 2.0199-3.25zm-174.98 1.6826c0-5.3034-0.10669-5.536-2.25-4.9043-2.1143 0.62309-2.0867 0.50651 0.45636-1.9326 1.4885-1.4276 2.951-2.5957 3.25-2.5957 0.299 0 0.54364 3.375 0.54364 7.5 0 4.3333-0.42222 7.5-1 7.5-0.55 0-1-2.5053-1-5.5674zm13 3.5674c-1.2968-2.4232-0.30869-2.5893 2.1525-0.36199 1.4756 1.3354 2.0906 1.4051 3.3287 0.37755 2.1287-1.7666 1.8905-4.1056-0.48124-4.7258-2.3306-0.60947-2.6975-2.2898-0.5-2.2898 0.83333 0 1.5-0.88889 1.5-2 0-2.255-2.8671-2.7329-4.8-0.8-0.78182 0.78182-1.2 0.82449-1.2 0.12244 0-2.3985 2.9443-3.6689 5.6481-2.4369 2.147 0.97826 2.4926 1.6612 2.0246 4.0012-0.31038 1.5519-0.0609 3.325 0.55438 3.9403 0.82494 0.82494 0.81635 1.7823-0.0327 3.6458-1.4735 3.234-6.5702 3.5619-8.1943 0.52713zm217-38.007v-17.993h-691v35.983l345.5 1e-3 345.5 1e-3v-17.993zm-360 10.007c0-1.4203-0.66667-2-2.3-2-3.1663 0-4.7-1.82-4.7-5.5776 0-3.9349 1.6979-5.4365 5.8189-5.1462l3.1771 0.2238 2e-3 7.25c1e-3 4.168-0.42313 7.25-0.99803 7.25-0.55 0-1-0.9-1-2zm-0.19616-7.3776c-0.22982-2.3617-0.85196-3.2002-2.5538-3.4419-1.9642-0.27896-2.25 0.12331-2.25 3.1667 0 3.4641 1.3079 4.7974 3.8038 3.8779 0.78972-0.29094 1.184-1.7115 1-3.6027zm-321.3-3.1224v-8.5h5.2955c4.289 0 5.762 0.46651 7.75 2.4545 2.6489 2.6489 3.1071 6.0192 1.3443 9.8881-1.4082 3.0906-4.835 4.6573-10.187 4.6573h-4.2029zm10.5 5.5c4.3173-4.3174 1.3118-13-4.5-13-2.4444 0-2.5 0.16666-2.5 7.5 0 7.3333 0.05556 7.5 2.5 7.5 1.375 0 3.4-0.9 4.5-2zm7.9929 1.25c0.55543-0.9625 2.3695-4.8523 4.0312-8.6439 1.6617-3.7917 3.2269-6.6884 3.4782-6.4371 0.25125 0.25125 1.8293 3.7852 3.5068 7.8532 1.6775 4.068 3.5992 7.7453 4.2704 8.1718 0.72083 0.45799-0.13416 0.78169-2.0886 0.79073-1.9741 9e-3 -3.0575-0.39172-2.6855-0.99363 0.34296-0.55492 0.3392-1.9049-8e-3 -3-0.46603-1.4684-1.5152-1.991-3.9971-1.991-2.4819 0-3.5311 0.52261-3.9972 1.991-0.34756 1.0951-0.35133 2.4451-0.0084 3 0.34299 0.55492-0.30678 1.009-1.4439 1.009-1.6871 0-1.8817-0.32199-1.0576-1.75zm9.0071-5.703c0-0.24912-0.53347-1.6238-1.1855-3.0548l-1.1855-2.6019-1.2791 2.3048c-1.823 3.2848-1.6658 3.8048 1.15 3.8048 1.375 0 2.5-0.20383 2.5-0.45295zm9.75 6.7907c0.82968-0.33479 1.25-2.8135 1.25-7.3714 0-5.485-0.35218-7.0721-1.75-7.8862-1.5775-0.9188-1.5367-1.0223 0.41345-1.0497 1.4486-0.0204 3.8769 2.0202 7.3492 6.1758l5.1858 6.2062-0.34921-6.208c-0.30507-5.4233-0.12355-6.2078 1.436-6.2062 1.5212 2e-3 1.6137 0.32231 0.62507 2.1695-0.72148 1.3481-0.93505 4.321-0.56484 7.863 0.3274 3.1324 0.33157 5.959 9e-3 6.2813-0.32231 0.32231-2.8953-2.1776-5.7177-5.5555-5.555-6.6481-6.1324-6.4536-5.4724 1.8441 0.30813 3.8742 0.11028 4.39-1.6573 4.3205-1.104-0.0434-1.4448-0.30592-0.75725-0.58333zm19.323-1.9726c-2.8853-3.668-2.7121-8.8165 0.40126-11.93 2.0435-2.0435 3.3481-2.4429 7.5-2.296 4.6817 0.16571 5.0262 0.3536 5.0262 2.7418v2.5639l-1.5567-2.2225c-1.922-2.744-6.4766-2.9481-8.7883-0.39376-2.2842 2.524-2.1807 9.3856 0.17375 11.516 2.1656 1.9598 6.205 2.16 8.173 0.40499 1.1925-1.0634 1.2041-0.98878 0.0776 0.5-2.1502 2.8416-8.4755 2.333-11.007-0.88486zm16.427-5.8651c0-7.8326 0.15705-8.5002 2-8.5023 1.8548-2e-3 1.9758 0.55243 1.6661 7.6392-0.24357 5.5748 0.0269 7.8702 1 8.487 0.8997 0.57032 0.35738 0.85053-1.6661 0.86085l-3 0.0153zm8.25 7.8377c0.82968-0.33479 1.25-2.8135 1.25-7.3714 0-5.485-0.35218-7.0721-1.75-7.8862-1.5254-0.88849-1.4292-1.0221 0.75-1.0415 1.8784-0.0167 3.7433 1.5299 7.5 6.2196l5 6.2418 0.30765-5.4054c0.20758-3.6472-0.11767-5.6751-1-6.2347-0.94559-0.59971-0.75389-0.83422 0.69235-0.84698 1.874-0.0165 1.9791 0.53393 1.6689 8.7347l-0.33108 8.7523-2.6689-3.0203c-1.4679-1.6612-4.1163-4.8112-5.8854-7l-3.2165-3.9797-0.0335 6.1667c-0.0219 4.0248 0.40064 6.3419 1.2165 6.6711 0.6875 0.27741-0.1 0.50438-1.75 0.50438s-2.4375-0.22697-1.75-0.50438zm33.75-7.8377c0-7.8326 0.15705-8.5002 2-8.5023 1.8548-2e-3 1.9758 0.55243 1.6661 7.6392-0.24357 5.5748 0.0269 7.8702 1 8.487 0.8997 0.57032 0.35738 0.85053-1.6661 0.86085l-3 0.0153v-8.5zm8.25 7.8377c0.82968-0.33479 1.25-2.8135 1.25-7.3714 0-5.485-0.35218-7.0721-1.75-7.8862-1.5254-0.88849-1.4292-1.0221 0.75-1.0415 1.8784-0.0167 3.7433 1.5299 7.5 6.2196l5 6.2418 0.30765-5.4054c0.20758-3.6472-0.11767-5.6751-1-6.2347-0.94559-0.59971-0.75389-0.83422 0.69235-0.84698 1.874-0.0165 1.9791 0.53393 1.6689 8.7347l-0.33108 8.7523-2.6689-3.0203c-1.4679-1.6612-4.1163-4.8112-5.8854-7l-3.2165-3.9797-0.0335 6.1667c-0.0219 4.0248 0.40064 6.3419 1.2165 6.6711 0.6875 0.27741-0.1 0.50438-1.75 0.50438s-2.4375-0.22697-1.75-0.50438zm29 0c0.8423-0.33988 1.25-2.9234 1.25-7.9211 0-6.4753-0.22846-7.4167-1.8-7.4167-0.99 0-2.34 0.54-3 1.2-0.93333 0.93333-1.2 0.82222-1.2-0.5 0-1.4381 1.0784-1.7 7-1.7s7 0.2619 7 1.7c0 1.3222-0.26667 1.4333-1.2 0.5-0.66-0.66-2.01-1.2-3-1.2-1.5715 0-1.8 0.94136-1.8 7.4167 0 4.9977 0.4077 7.5812 1.25 7.9211 0.6875 0.27741-0.325 0.50438-2.25 0.50438s-2.9375-0.22697-2.25-0.50438zm12 0c0.84051-0.33916 1.25-2.9067 1.25-7.8377 0-4.931-0.40949-7.4986-1.25-7.8377-0.6875-0.27741 0.325-0.50439 2.25-0.50439s2.9375 0.22698 2.25 0.50439-1.25 2.0419-1.25 3.921c0 3.334 0.0993 3.4167 4.105 3.4167h4.105l-0.38146-4c-0.33151-3.4762-0.11611-4 1.645-4 1.8763 0 2.0264 0.62972 2.0264 8.5s-0.15013 8.5-2.0264 8.5c-1.7611 0-1.9765-0.52379-1.645-4l0.38146-4h-4.105c-4.0057 0-4.105 0.0827-4.105 3.4167 0 1.8792 0.5625 3.6436 1.25 3.9211 0.6875 0.27741-0.325 0.50438-2.25 0.50438s-2.9375-0.22697-2.25-0.50438zm18.75-7.7965v-8.5412h5.75c4.8396 0 5.7375 0.27708 5.671 1.75-0.0472 1.0454-0.28201 1.2467-0.58333 0.5-0.27741-0.6875-2.0419-1.25-3.921-1.25-3.2381 0-3.4167 0.18292-3.4167 3.5 0 3.7492 1.3964 4.4286 5.0657 2.4648 1.5856-0.84858 1.9343-0.70452 1.9343 0.7992 0 1.5076-0.6235 1.7616-3.5 1.4258-3.429-0.40032-3.5-0.3354-3.5 3.2008 0 3.4167 0.17619 3.6094 3.3 3.6094 1.815 0 3.8962-0.5625 4.625-1.25 1.0693-1.0088 1.2373-0.96057 0.87063 0.25-0.32308 1.0666-2.1652 1.5842-6.375 1.7912l-5.9206 0.29122zm22.3 7.2588c0.67104-0.67104 1.2-3.8889 1.2-7.3s-0.52896-6.629-1.2-7.3c-0.93333-0.93334-0.0889-1.2 3.8-1.2 2.75 0 5.54 0.54 6.2 1.2 1.7358 1.7358 1.4729 5.5479-0.45715 6.628-1.5078 0.84383-1.4554 1.2538 0.58156 4.5497 1.5219 2.4625 2.9744 3.6223 4.5364 3.6223 1.9302 0 2.826-1.2795 5.6006-8 1.8166-4.4 3.5585-7.9945 3.8708-7.9877 0.31229 7e-3 1.8608 3.2693 3.4412 7.25s3.5789 7.8002 4.4411 8.4877c1.3359 1.0652 1.0871 1.25-1.6825 1.25-1.8664 0-2.9924-0.41695-2.6449-0.97934 0.33289-0.53863 0.11862-1.8886-0.47617-3-1.5627-2.9199-6.7957-2.7684-7.9174 0.22934-0.54001 1.4432-0.43881 2.5134 0.28222 2.9847 0.61826 0.40408-1.1786 0.74158-3.993 0.75-4.8686 0.0146-5.2457-0.17899-7.7642-3.9847-1.4559-2.2-3.0907-4-3.6329-4-1.4471 0-1.2042 6.7452 0.26419 7.3377 0.6875 0.27741-0.3025 0.53991-2.2 0.58333-2.6833 0.0614-3.1833-0.18772-2.25-1.121zm24.879-8.8398c-1.0418-2.7602-1.2639-2.8806-2.4131-1.3089-1.9517 2.6691-1.5085 4.3487 1.1474 4.3487 2.2733 0 2.3466-0.1762 1.2657-3.0398zm-16.799-0.73598c1.2486-2.3329-0.37284-5.2242-2.9297-5.2242-1.5623 0-1.9503 0.69639-1.9503 3.5 0 2.8124 0.38598 3.5 1.9648 3.5 1.0806 0 2.3925-0.79912 2.9152-1.7758zm27.62 2.2758c0-7.8326 0.15705-8.5002 2-8.5023 1.8548-2e-3 1.9758 0.55243 1.6661 7.6392-0.24357 5.5748 0.0269 7.8702 1 8.487 0.8997 0.57032 0.35738 0.85053-1.6661 0.86085l-3 0.0153v-8.5zm8.25 7.8377c0.82968-0.33479 1.25-2.8135 1.25-7.3714 0-5.485-0.35218-7.0721-1.75-7.8862-1.5254-0.88849-1.4292-1.0221 0.75-1.0415 1.8784-0.0167 3.7433 1.5299 7.5 6.2196l5 6.2418 0.30765-5.4054c0.20758-3.6472-0.11767-5.6751-1-6.2347-0.94559-0.59971-0.75389-0.83422 0.69235-0.84698 1.874-0.0165 1.9791 0.53393 1.6689 8.7347l-0.33108 8.7523-2.6689-3.0203c-1.4679-1.6612-4.1163-4.8112-5.8854-7l-3.2165-3.9797-0.0335 6.1667c-0.0219 4.0248 0.40064 6.3419 1.2165 6.6711 0.6875 0.27741-0.1 0.50438-1.75 0.50438s-2.4375-0.22697-1.75-0.50438zm52.788-1.2953c-1.0227-1.1301-1.5254-2.3887-1.1171-2.7969 0.40826-0.40826 1.3422 0.0781 2.0754 1.0808 0.87837 1.2012 2.3001 1.7123 4.1682 1.4984 3.9759-0.45526 3.6033-3.0764-0.63191-4.4452-6.4526-2.0856-6.684-7.5412-0.34689-8.1805 3.0216-0.30483 6.3415 2.1579 4.8196 3.5752-0.42868 0.39921-0.9803 0.16334-1.2258-0.52416-0.24553-0.6875-1.7919-1.25-3.4364-1.25-4.1547 0-3.4356 2.9554 1.0897 4.4782 1.8882 0.63537 3.9109 1.9127 4.4949 2.8385 2.8131 4.4597-6.1645 7.8418-9.8896 3.7257zm25.147 1.3098c-0.37703-0.37702-0.62918-2.973-0.56033-5.7688l0.12516-5.0833 0.6947 4.2699c1.219 7.4923 5.055 8.4258 5.055 1.2301 0-2.1351 0.45-4.1601 1-4.5 0.61911-0.38263 1 1.4215 1 4.7366 0 5.3509-2e-3 5.3548-3.3145 5.5778-1.823 0.12277-3.623-0.0852-4-0.46228zm10.686-0.82642c-0.95683-2.4935 0.32998-4.3602 3.2423-4.7036 1.5026-0.17717 2.9395-0.9533 3.1933-1.7247 0.36237-1.1018-0.33561-1.2733-3.2541-0.7997-3.1694 0.51433-3.5385 0.38982-2.5118-0.84738 1.2692-1.5293 3.7384-1.8558 6.377-0.84331 1.1284 0.43302 1.5814 1.9377 1.5803 5.25l-1e-3 4.643-4.02 0.27574c-2.8671 0.19666-4.188-0.16183-4.6055-1.25zm5.0467-0.13273c2.237-0.85843 1.9687-3.393-0.35919-3.393-2.1976 0-3.4823 1.5061-2.559 3 0.72497 1.173 0.84382 1.189 2.9182 0.39301zm6.7-3.4249c-0.11143-5.2142 0.0254-5.5438 2.3818-5.7388 1.375-0.1138 2.5 0.23805 2.5 0.78189s-0.62632 0.9888-1.3918 0.9888c-0.85481 0-1.7738 1.8327-2.3818 4.75l-0.98997 4.75zm6.917 3.0976c-1.5434-2.8839-1.2574-5.5546 0.79356-7.4108 2.2967-2.0785 4.5761-2.1073 6.5998-0.0836 2.8151 2.815 1.9302 4.4286-2.4286 4.4286-4.2344 0-4.9902 0.93333-2.4576 3.0352 1.1683 0.96957 1.8232 0.99927 2.7 0.12245 0.63669-0.63669 1.7977-1.1576 2.5801-1.1576 1.151 0 1.1849 0.28623 0.17756 1.5-1.8053 2.1752-6.7114 1.9077-7.9648-0.43426zm6.9648-5.0971c0-0.56726-0.675-1.2904-1.5-1.607-2.0027-0.76851-4.7866 0.3656-4.0044 1.6313 0.81898 1.3251 5.5044 1.3044 5.5044-0.0243zm10 5.5314c-1.4424-1.738 0.0464-2.0536 1.7328-0.36722 1.26 1.26 4.2672 0.49723 4.2672-1.0824 0-0.55678-1.1065-1.29-2.459-1.6295-3.6044-0.90465-5.1049-3.0366-3.4991-4.9715 1.4699-1.7711 6.1001-1.57 6.7113 0.29163 0.29249 0.89085-0.46177 1.0672-2.6729 0.625-4.1996-0.83993-3.9014 0.93527 0.41964 2.4978 1.925 0.69609 3.5 1.8215 3.5 2.5009 0 3.4-5.69 4.9187-8 2.1353zm10.381-1.041c-1.3408-2.0464-1.4443-3.0251-0.5317-5.0281 0.62326-1.3679 1.8408-2.7586 2.7056-3.0905 2.3823-0.91416 6.4449 1.3429 6.4449 3.5806 0 1.5781-0.79584 2.0244-4.0512 2.2714-3.8657 0.29342-3.983 0.39908-2.5609 2.3075 1.2721 1.7071 1.7902 1.8169 3.5377 0.75 2.749-1.6784 3.5907-1.5769 2.0745 0.25-1.9444 2.3429-5.7415 1.8241-7.6188-1.041zm6.6188-4.959c0-0.93334-0.94444-1.5-2.5-1.5s-2.5 0.56666-2.5 1.5c0 0.93333 0.94444 1.5 2.5 1.5s2.5-0.56667 2.5-1.5zm4.8416 2.75c-0.26352-7.8999 0.27818-10.464 1.8738-8.868 0.39344 0.39345 0.61566 3.0065 0.49382 5.8068s0.28635 5.7034 0.90709 6.4513c0.89126 1.0739 0.68225 1.3599-0.99382 1.3599-1.8431 0-2.1433-0.62509-2.2809-4.75zm74.658-3.75v-8.5h4.3157c2.3737 0 5.1862 0.46583 6.25 1.0352 2.1087 1.1286 2.6363 5.4129 0.80584 6.5442-0.77149 0.47681-0.61334 0.98565 0.5 1.6087 0.89563 0.50122 1.6284 1.7568 1.6284 2.7902 0 3.3432-2.7816 5.0217-8.3214 5.0217h-5.1786zm8.9182 6.893c0.86999-0.33385 1.5818-1.6357 1.5818-2.893 0-2.3405-1.6835-3.5-5.0818-3.5-1.5256 0-1.9182 0.71641-1.9182 3.5 0 3.6098 1.4846 4.4025 5.4182 2.893zm0.0104-8.9644c0.86425-0.86429 1.5714-1.8993 1.5714-2.3 0-1.4844-2.4701-3.1286-4.7-3.1286-1.9619 0-2.3 0.51449-2.3 3.5 0 2.7901 0.39116 3.5 1.9286 3.5 1.0607 0 2.6357-0.70715 3.5-1.5714zm7.5714 9.5714c0-0.55 0.675-1 1.5-1s1.5 0.45 1.5 1-0.675 1-1.5 1-1.5-0.45-1.5-1zm13.5-7.5c0-7.8703 0.15013-8.5 2.0264-8.5 1.7666 0 1.9767 0.52139 1.6386 4.067l-0.38785 4.067 3.8614-0.317c3.1557-0.25908 3.9212-0.73828 4.1882-2.622 0.17972-1.2678-0.21288-2.9553-0.87244-3.75-0.9883-1.1908-0.78197-1.4454 1.1732-1.4473 2.3189-2e-3 2.3649 0.17011 2.0386 7.6392-0.24357 5.5748 0.0269 7.8702 1 8.487 0.87731 0.55613 0.15298 0.85078-2.1161 0.86085-2.6833 0.0119-3.1833-0.25135-2.25-1.1847 0.66-0.66 1.2-2.46 1.2-4 0-2.6119-0.27571-2.8-4.105-2.8h-4.105l0.38146 4c0.33151 3.4762 0.11611 4-1.645 4-1.8763 0-2.0264-0.62972-2.0264-8.5zm18.566 6.6241c-1.6089-3.0062-1.2838-6.6174 0.7623-8.4692 2.2967-2.0785 4.5761-2.1073 6.5998-0.0836 2.508 2.508 1.856 3.4286-2.4286 3.4286-2.7309 0-4 0.43707-4 1.3776 0 2.1132 2.7512 3.9208 5.0518 3.3192 1.3116-0.343 1.9226-0.11294 1.6783 0.63197-0.21126 0.64423-1.7821 1.3101-3.4907 1.4797-2.2813 0.22648-3.3898-0.22093-4.173-1.6843zm5.6836-7.3741c-0.22917-0.6875-1.2417-1.25-2.25-1.25s-2.0208 0.5625-2.25 1.25c-0.26389 0.79166 0.56111 1.25 2.25 1.25s2.5139-0.45834 2.25-1.25zm4.75 3.75c0-3.025 0.225-5.5453 0.5-5.6007 2.5928-0.52231 5.5-0.20836 5.5 0.59394 0 0.54627-0.60797 0.8536-1.351 0.68296-1.0317-0.23692-1.2681 0.88744-1 4.7574 0.31297 4.5182 0.13417 5.0676-1.649 5.067-1.7575-5.5e-4 -2-0.6675-2-5.5006zm10.167 4.8333c-0.36667-0.36667-0.66667-3.9667-0.66667-8 0-5.1918-0.36503-7.3378-1.25-7.3486-0.83333-0.0102-0.75-0.33843 0.25-0.98468 2.5248-1.6317 3-1.1551 3 3.0085 0 3.7197 0.14005 3.921 1.9441 2.7944 4.444-2.7753 8.277 5.8771 4.2272 9.5422-1.832 1.658-6.2528 2.2402-7.5046 0.98832zm6.9615-2.9881c0.8045-3.2054-0.6575-5.8452-3.2372-5.8452-1.5098 0-1.953 0.85672-2.1985 4.25-0.28685 3.9646-0.13702 4.25 2.231 4.25 1.9132 0 2.7026-0.65395 3.2048-2.6548zm5.6169 2.4999c-1.9218-1.9218-1.5092-7.2961 0.71463-9.3086 4.4904-4.0638 10.52 1.5883 7.7937 7.3058-1.4204 2.9789-6.3677 4.1434-8.5083 2.0028zm6.5555-3.939c0.19337-2.3014-0.24793-4.0325-1.2373-4.8536-2.4366-2.0222-4.5633-0.52335-4.5633 3.2161 0 6.4347 5.2724 7.9231 5.8006 1.6375zm5.6994-3.395c0-5.8687 0.38584-8.637 1.25-8.9686 0.93389-0.35837 1.25 1.4849 1.25 7.2889 0 4.7089 0.47262 8.2412 1.2 8.9686 0.93333 0.93333 0.65556 1.2-1.25 1.2-2.4076 0-2.45-0.14694-2.45-8.489zm7.6855 7.2745c-1.8092-1.8093-1.4254-7.2585 0.64321-9.1305 1.0058-0.91025 2.8058-1.655 4-1.655 2.2777 0 2.9874-2.3776 1.0645-3.566-0.77153-0.47683-0.69581-0.94441 0.25-1.5437 2.5773-1.633 2.8568-0.85564 2.8568 7.9458v8.8361l-3.8145 0.14947c-2.098 0.0822-4.348-0.38403-5-1.0361zm6.615-3.8794c0.36439-4.3368-1.889-6.9075-4.3006-4.9061-1.8118 1.5036-1.9718 6.1282-0.27081 7.8292 2.1907 2.1907 4.2525 0.87238 4.5714-2.9231zm42.199 2.3714v-2.7225l1.5967 2.2796c1.116 1.5932 2.3956 2.1871 4.25 1.9725 3.9618-0.45854 3.3521-3.4961-1.3416-6.6837-6.4888-4.4067-5.6526-9.1234 1.6174-9.1234 3.3236 0 3.8776 0.31301 3.8776 2.1911 0 2.0481-0.0853 2.0745-1.306 0.40503-1.5463-2.1146-6.0346-1.8339-6.4561 0.40384-0.16563 0.87931 1.5888 2.6277 4.2398 4.2254 3.2846 1.9794 4.5223 3.3616 4.5223 5.05 0 3.4102-1.8639 4.7246-6.7 4.7246-4.0137 0-4.3-0.18126-4.3-2.7225zm14 1.7035c0-0.60357 1.0827-0.74731 2.6556-0.35255 1.9381 0.48644 3.0083 0.1841 3.9612-1.1191 1.5973-2.1845 0.16288-5.4936-2.402-5.5411-1.6028-0.0297-1.6006-0.11855 0.0352-1.3602 1.8923-1.4365 2.3574-5.1145 0.77067-6.0952-0.53864-0.33289-2.0011-0.0608-3.25 0.6047-2.0609 1.0982-2.1439 1.0563-0.89823-0.45375 3.1266-3.7902 9.3556-0.82688 7.1043 3.3797-0.84037 1.5703-0.85958 2.4737-0.0694 3.2639 1.811 1.811 1.294 6.5145-0.84162 7.6574-2.4853 1.3301-7.0658 1.3405-7.0658 0.0161zm15.306-2.8976c5.8935-6.5234 6.1539-11.671 0.54891-10.849-1.799 0.26403-2.7734 0.0146-2.5545-0.65388 0.5122-1.5636 5.5702-1.9332 7.2603-0.53058 2.3987 1.9907 1.6341 5.3626-2.2432 9.8923l-3.6827 4.3025 4.1918-0.39975c2.5866-0.24667 4.0625-6e-3 3.8542 0.62753-0.18574 0.56502-2.7408 1.166-5.678 1.3354l-5.3403 0.30812zm-547.28-9.3333c-0.0167-0.9625-0.48041-1.75-1.0304-1.75s-1-0.45-1-1c0-1.2942 2.6964-1.3003 3.4951-8e-3 0.33722 0.54564 0.15246 1.7831-0.41058 2.75-0.97209 1.6693-1.0252 1.6697-1.0541 8e-3z"/>
</svg>
