<?xml version='1.0' encoding='utf-8' standalone='no'?>
<!DOCTYPE svg PUBLIC '-//W3C//DTD SVG 1.1//EN' 'http://www.w3.org/Graphics/SVG/1.1/DTD/svg11.dtd'>
<svg version="1.1" viewBox="-0.028 -0.352 470 106" xmlns='http://www.w3.org/2000/svg'>
<defs>
</defs>
<rect fill="#FFFFFF" width="469.2" height="105.3"/>
<path fill="#1A171B" d="M5.7,6.4h1.7l2.2,9.4l2.6-9.4h1.7l2.6,9.4l2.1-9.4h1.7l-3,11.5h-1.6l-2.7-9.5l-2.7,9.5H8.7L5.7,6.4z"/>
<path fill="#1A171B" d="M22,17.9V6.4h8.4v1.4h-6.9v3.6h6.3v1.4h-6.3v3.9h7v1.4H22z"/>
<path fill="#1A171B" d="M32.6,17.9V6.4h8.4v1.4h-6.9v3.6h6.3v1.4h-6.3v3.9h7v1.4H32.6z"/>
<path fill="#1A171B" d="M47.5,6.4h2.2l3.3,9.7l3.3-9.7h2.2v11.5h-1.5V8.3l-3.2,9.7h-1.5L49,8.2v9.7h-1.5V6.4z"/>
<path fill="#1A171B" d="M60.3,12.2c0-1.7,0.5-3.2,1.5-4.3c1-1.2,2.4-1.7,4.1-1.7c1.8,0,3.1,0.6,4.1,1.8c1,1.2,1.5,2.6,1.5,4.2
	c0,1.8-0.5,3.3-1.5,4.4c-1,1.1-2.4,1.7-4.1,1.7c-1.7,0-3-0.5-4-1.6C60.9,15.5,60.3,14,60.3,12.2z M61.9,12.2c0,1.3,0.4,2.5,1.1,3.4
	c0.7,0.9,1.7,1.3,3,1.3c1.2,0,2.1-0.4,2.9-1.3c0.8-0.8,1.1-2,1.1-3.4c0-1.4-0.4-2.5-1.1-3.4c-0.7-0.9-1.7-1.3-2.9-1.3
	c-1.2,0-2.1,0.4-2.9,1.3S61.9,10.7,61.9,12.2z"/>
<path fill="#1A171B" d="M73.3,6.4h2.2l3.3,9.7l3.3-9.7h2.2v11.5h-1.5V8.3l-3.2,9.7h-1.5l-3.2-9.7v9.7h-1.5V6.4z"/>
<path fill="#1A171B" d="M86.9,17.9V6.4h8.4v1.4h-6.9v3.6h6.3v1.4h-6.3v3.9h7v1.4H86.9z"/>
<path fill="#1A171B" d="M97.4,6.4h1.8l5.8,9.3V6.4h1.5v11.5h-1.8l-5.9-9.3v9.3h-1.5V6.4z"/>
<path fill="#1A171B" d="M108,6.4h9.3v1.4h-3.9v10.1h-1.6V7.8H108V6.4z"/>
<path fill="#1A171B" d="M119.7,14.2c0.1,1.8,1.2,2.6,3.3,2.6c1,0,1.7-0.2,2.2-0.5c0.5-0.3,0.7-0.8,0.7-1.5c0-0.4-0.1-0.8-0.4-1.1
	c-0.3-0.3-0.9-0.6-2-0.8l-2.4-0.5c-0.8-0.2-1.3-0.5-1.8-0.9c-0.4-0.4-0.6-1-0.6-1.8c0-1.1,0.4-1.9,1.1-2.5c0.7-0.6,1.7-1,3-1
	c1.2,0,2.2,0.3,3,0.9c0.8,0.6,1.2,1.5,1.3,2.8h-1.5c-0.2-1.5-1.1-2.3-2.9-2.3c-0.8,0-1.4,0.2-1.9,0.5c-0.5,0.3-0.7,0.8-0.7,1.5
	c0,0.4,0.1,0.7,0.3,0.9s0.6,0.4,1.3,0.6l3,0.7c0.9,0.2,1.5,0.5,2,1c0.4,0.5,0.7,1.2,0.7,2c0,1.1-0.4,2-1.2,2.6s-1.9,0.9-3.4,0.9
	c-1.5,0-2.6-0.4-3.4-1.1s-1.1-1.7-1.1-2.9H119.7z"/>
<polyline points="75.9,25.6 75.9,92.1 77.1,92.1 77.1,25.6 "/>
<path fill="#1A171B" d="M412.3,12c-1-0.4-1.5-1.2-1.5-2.2c0-0.9,0.3-1.7,0.9-2.2c0.6-0.6,1.5-0.9,2.5-0.9c1,0,1.8,0.3,2.5,0.8
	c0.7,0.5,1,1.3,1,2.2c0,1.1-0.5,1.9-1.4,2.3c1.2,0.6,1.8,1.5,1.8,2.8c0,1-0.3,1.9-1,2.5c-0.7,0.7-1.6,1-2.7,1
	c-1.1,0-2.1-0.3-2.8-0.9s-1.1-1.4-1.1-2.5C410.4,13.4,411,12.5,412.3,12z M411.9,14.8c0,0.6,0.2,1.2,0.6,1.6c0.4,0.4,1,0.6,1.8,0.6
	c0.7,0,1.2-0.2,1.6-0.6c0.4-0.4,0.6-0.9,0.6-1.5c0-0.7-0.2-1.2-0.6-1.6c-0.4-0.4-1-0.6-1.7-0.6c-0.7,0-1.2,0.2-1.7,0.6
	C412.1,13.6,411.9,14.1,411.9,14.8z M412.3,9.7c0,0.4,0.2,0.9,0.5,1.2c0.3,0.4,0.8,0.6,1.4,0.6c0.5,0,1-0.2,1.4-0.5s0.6-0.8,0.6-1.3
	c0-0.5-0.2-1-0.6-1.3c-0.4-0.3-0.9-0.4-1.4-0.4c-0.6,0-1,0.2-1.3,0.5C412.4,8.7,412.3,9.1,412.3,9.7z"/>
<path fill="#1A171B" d="M418.9,17.9l2.9-4.4l-2.8-4h1.8l1.9,2.9l1.9-2.9h1.7l-2.8,4l2.9,4.4h-1.8l-2.1-3.1l-2,3.1H418.9z"/>
<path fill="#1A171B" d="M428.7,14.5c0,0.8,0.2,1.4,0.6,1.9c0.4,0.4,1,0.6,1.8,0.6c0.7,0,1.3-0.2,1.8-0.5c0.5-0.4,0.7-0.9,0.7-1.6
	c0-0.6-0.2-1.1-0.6-1.5s-1-0.5-1.9-0.5c-0.2,0-0.4,0-0.8,0v-1.2c0.4,0,0.6,0,0.7,0c1.5,0,2.2-0.6,2.2-1.8c0-0.6-0.2-1-0.6-1.4
	c-0.4-0.3-0.9-0.5-1.5-0.5c-0.7,0-1.2,0.2-1.6,0.6s-0.5,1-0.6,1.8h-1.4c0-1.1,0.3-2,0.9-2.7c0.6-0.6,1.5-1,2.7-1
	c1,0,1.9,0.3,2.5,0.8c0.6,0.6,1,1.3,1,2.2c0,1.2-0.5,2-1.5,2.4c0.7,0.3,1.2,0.6,1.5,1c0.3,0.4,0.4,1,0.4,1.6c0,1.1-0.4,1.9-1.1,2.6
	s-1.7,1-2.9,1c-1.1,0-2-0.3-2.7-0.8c-0.7-0.6-1.1-1.5-1.2-2.9H428.7z"/>
<path fill="#1A171B" d="M436.8,15.2c0.4-0.7,1-1.2,1.8-1.6l2.3-1.4c0.5-0.3,0.9-0.6,1.1-1c0.2-0.3,0.3-0.7,0.3-1.2
	c0-0.7-0.2-1.2-0.6-1.5c-0.4-0.4-1-0.6-1.7-0.6c-0.8,0-1.3,0.2-1.7,0.7c-0.3,0.5-0.5,1.1-0.6,2h-1.4c0-1.2,0.3-2.2,0.9-2.9
	s1.6-1.1,2.9-1.1c1.1,0,1.9,0.3,2.6,0.9c0.7,0.6,1,1.4,1,2.5c0,0.7-0.2,1.3-0.5,1.8c-0.3,0.5-0.8,0.9-1.5,1.3l-1.9,1.1
	c-0.7,0.4-1.2,0.8-1.5,1.1c-0.3,0.3-0.6,0.8-0.8,1.3h6.2v1.3H436C436.1,16.8,436.3,15.8,436.8,15.2z"/>
<path fill="#1A171B" d="M451.1,14.2c0.1,1.8,1.2,2.6,3.3,2.6c1,0,1.7-0.2,2.2-0.5c0.5-0.3,0.7-0.8,0.7-1.5c0-0.4-0.1-0.8-0.4-1.1
	c-0.3-0.3-0.9-0.6-2-0.8l-2.4-0.5c-0.8-0.2-1.3-0.5-1.8-0.9c-0.4-0.4-0.6-1-0.6-1.8c0-1.1,0.4-1.9,1.1-2.5c0.7-0.6,1.7-1,3-1
	c1.2,0,2.2,0.3,3,0.9c0.8,0.6,1.2,1.5,1.3,2.8H457c-0.2-1.5-1.1-2.3-2.9-2.3c-0.8,0-1.4,0.2-1.9,0.5c-0.5,0.3-0.7,0.8-0.7,1.5
	c0,0.4,0.1,0.7,0.3,0.9s0.6,0.4,1.3,0.6l3,0.7c0.9,0.2,1.5,0.5,2,1c0.4,0.5,0.7,1.2,0.7,2c0,1.1-0.4,2-1.2,2.6s-1.9,0.9-3.4,0.9
	c-1.5,0-2.6-0.4-3.4-1.1s-1.1-1.7-1.1-2.9H451.1z"/>
<polygon points="0.6,0.6 0.6,1.1 117.6,1.1 234.6,1.1 351.6,1.1 468,1.1 468,23.5 468,46.4 468,69.3 468,91.6 351.6,91.6 
	234.6,91.6 117.6,91.6 1.1,91.6 1.1,69.3 1.1,46.4 1.1,23.5 1.1,0.6 0.6,0.6 0.6,1.1 0.6,0.6 0,0.6 0,23.5 0,46.4 0,69.3 0,92.7 
	117.6,92.7 234.6,92.7 351.6,92.7 469.2,92.7 469.2,69.3 469.2,46.4 469.2,23.5 469.2,0 351.6,0 234.6,0 117.6,0 0,0 0,0.6 "/>
<polyline points="0.1,26.7 468.1,26.7 468.1,25.6 0.1,25.6 "/>
<polyline points="233.1,26.5 233.1,91.9 234.2,91.9 234.2,26.5 "/>
<path fill="#1A171B" d="M391.3,101.1l2.9-4h0.7v4h0.9v0.7h-0.9v1.5h-0.8v-1.5h-2.8V101.1z M392,101.1h2.1v-2.9L392,101.1z"/>
<path fill="#1A171B" d="M401.4,101h0.8c-0.2,0.8-0.5,1.5-1,1.9s-1.1,0.6-1.9,0.6c-0.9,0-1.6-0.3-2.1-0.9c-0.5-0.6-0.8-1.4-0.8-2.5
	c0-1,0.3-1.9,0.8-2.5c0.5-0.6,1.3-0.9,2.2-0.9c0.7,0,1.3,0.2,1.7,0.5c0.5,0.3,0.8,0.9,0.9,1.6h-0.8c-0.2-0.9-0.8-1.3-1.8-1.3
	c-0.6,0-1.2,0.2-1.5,0.7c-0.4,0.5-0.6,1.1-0.6,2c0,0.8,0.2,1.4,0.5,1.9c0.4,0.5,0.9,0.7,1.6,0.7c0.5,0,0.9-0.1,1.2-0.4
	C401,102,401.2,101.6,401.4,101z"/>
<path fill="#1A171B" d="M402.4,103.5l2.2-6.8h0.6l-2.2,6.8H402.4z"/>
<path fill="#1A171B" d="M405.3,101.1l2.9-4h0.7v4h0.9v0.7h-0.9v1.5h-0.8v-1.5h-2.8V101.1z M406,101.1h2.1v-2.9L406,101.1z"/>
<path fill="#1A171B" d="M415.4,101h0.8c-0.1,0.8-0.5,1.5-1,1.9s-1.1,0.6-1.9,0.6c-0.9,0-1.6-0.3-2.1-0.9c-0.5-0.6-0.8-1.4-0.8-2.5
	c0-1,0.3-1.9,0.8-2.5c0.5-0.6,1.3-0.9,2.2-0.9c0.7,0,1.3,0.2,1.7,0.5c0.5,0.3,0.8,0.9,0.9,1.6h-0.8c-0.2-0.9-0.8-1.3-1.8-1.3
	c-0.6,0-1.2,0.2-1.5,0.7c-0.4,0.5-0.6,1.1-0.6,2c0,0.8,0.2,1.4,0.5,1.9c0.4,0.5,0.9,0.7,1.6,0.7c0.5,0,0.9-0.1,1.2-0.4
	C415,102,415.2,101.6,415.4,101z"/>
<path fill="#1A171B" d="M419.7,103.4v-6.5h0.8v6.5H419.7z"/>
<path fill="#1A171B" d="M421.4,101c0-0.7,0.2-1.4,0.6-1.8c0.4-0.5,0.9-0.7,1.6-0.7c0.6,0,1.2,0.2,1.6,0.7c0.4,0.5,0.6,1.1,0.6,1.8
	c0,0.7-0.2,1.3-0.6,1.8c-0.4,0.5-0.9,0.7-1.6,0.7c-0.6,0-1.2-0.2-1.6-0.7C421.6,102.4,421.4,101.8,421.4,101z M422.2,101
	c0,0.5,0.1,0.9,0.4,1.3c0.2,0.3,0.6,0.5,1,0.5c0.4,0,0.7-0.2,1-0.5c0.3-0.3,0.4-0.8,0.4-1.4c0-0.5-0.1-0.9-0.4-1.3s-0.6-0.5-1-0.5
	c-0.4,0-0.7,0.2-1,0.5C422.3,100,422.2,100.4,422.2,101z"/>
<path fill="#1A171B" d="M426.7,103.4v-4.7h0.7v0.7c0.4-0.6,0.9-0.8,1.5-0.8c0.5,0,0.9,0.1,1.2,0.4c0.3,0.3,0.4,0.7,0.4,1.2v3.2h-0.8
	v-2.9c0-0.5-0.1-0.8-0.3-1c-0.2-0.2-0.4-0.3-0.7-0.3c-0.4,0-0.7,0.1-0.9,0.4c-0.2,0.3-0.3,0.7-0.3,1.2v2.6H426.7z"/>
<path fill="#1A171B" d="M431.6,103.9h0.8c0.1,0.5,0.5,0.7,1.1,0.7c0.4,0,0.8-0.1,1-0.3s0.3-0.6,0.3-1.1v-0.3
	c-0.3,0.5-0.7,0.7-1.3,0.7c-0.6,0-1.1-0.2-1.5-0.7s-0.6-1.1-0.6-1.9c0-0.7,0.2-1.3,0.5-1.7c0.3-0.5,0.8-0.7,1.4-0.7
	c0.3,0,0.6,0.1,0.8,0.2c0.2,0.1,0.4,0.3,0.6,0.6v-0.7h0.7v4.3c0,0.9-0.2,1.5-0.6,1.8c-0.4,0.3-0.9,0.5-1.6,0.5
	c-0.5,0-0.9-0.1-1.2-0.3C431.8,104.8,431.7,104.4,431.6,103.9z M432.3,100.9c0,0.6,0.1,1.1,0.3,1.4c0.2,0.3,0.5,0.5,0.9,0.5
	c0.4,0,0.7-0.2,0.9-0.5c0.2-0.3,0.3-0.7,0.3-1.3c0-1.3-0.4-1.9-1.3-1.9C432.7,99.2,432.3,99.8,432.3,100.9z"/>
<path fill="#1A171B" d="M436.2,98.7h0.9l0.9,3.7l0.9-3.7h0.9l1,3.7l0.9-3.7h0.8l-1.3,4.7h-0.8l-1-3.7l-0.9,3.7h-0.8L436.2,98.7z"/>
<path fill="#1A171B" d="M443.2,96.9h0.8v0.9h-0.8V96.9z M443.2,98.7h0.8v4.7h-0.8V98.7z"/>
<path fill="#1A171B" d="M445.6,101.9c0,0.6,0.4,0.9,1.2,0.9c0.3,0,0.6-0.1,0.8-0.2c0.2-0.1,0.3-0.3,0.3-0.6c0-0.2-0.1-0.3-0.2-0.4
	c-0.1-0.1-0.4-0.2-0.7-0.3l-0.9-0.2c-0.7-0.2-1.1-0.6-1.1-1.2c0-0.4,0.2-0.8,0.5-1.1c0.3-0.3,0.8-0.4,1.3-0.4c0.5,0,0.9,0.1,1.2,0.4
	c0.3,0.2,0.5,0.6,0.5,1.1h-0.8c0-0.5-0.4-0.8-1.1-0.8c-0.6,0-1,0.2-1,0.7c0,0.2,0.1,0.3,0.2,0.4c0.1,0.1,0.4,0.1,0.6,0.2l0.8,0.2
	c0.5,0.1,0.8,0.3,1,0.5c0.2,0.2,0.3,0.5,0.3,0.8c0,0.5-0.2,0.8-0.5,1.1c-0.3,0.3-0.8,0.4-1.4,0.4c-0.6,0-1-0.1-1.4-0.4
	c-0.3-0.2-0.5-0.7-0.6-1.3H445.6z"/>
<path fill="#1A171B" d="M450.3,101.3c0,0.5,0.1,0.9,0.3,1.2c0.2,0.3,0.6,0.4,1,0.4c0.3,0,0.6-0.1,0.8-0.3c0.2-0.2,0.4-0.4,0.4-0.6
	h0.8c-0.1,0.5-0.3,0.9-0.7,1.2c-0.3,0.3-0.8,0.4-1.3,0.4c-0.7,0-1.2-0.2-1.6-0.6c-0.4-0.4-0.6-1-0.6-1.8c0-0.8,0.2-1.4,0.6-1.9
	c0.4-0.5,0.9-0.7,1.6-0.7c0.7,0,1.2,0.2,1.5,0.7c0.3,0.5,0.5,1.1,0.5,2.1H450.3z M450.3,100.6h2.6c-0.1-0.5-0.2-0.9-0.4-1.1
	s-0.5-0.3-0.9-0.3c-0.4,0-0.7,0.1-0.9,0.4C450.4,99.9,450.3,100.2,450.3,100.6z"/>
<path fill="#1A171B" d="M457.6,101.9c0,0.6,0.4,0.9,1.2,0.9c0.3,0,0.6-0.1,0.8-0.2c0.2-0.1,0.3-0.3,0.3-0.6c0-0.2-0.1-0.3-0.2-0.4
	c-0.1-0.1-0.4-0.2-0.7-0.3l-0.9-0.2c-0.7-0.2-1.1-0.6-1.1-1.2c0-0.4,0.2-0.8,0.5-1.1c0.3-0.3,0.8-0.4,1.3-0.4c0.5,0,0.9,0.1,1.2,0.4
	c0.3,0.2,0.5,0.6,0.5,1.1h-0.8c0-0.5-0.4-0.8-1.1-0.8c-0.6,0-1,0.2-1,0.7c0,0.2,0.1,0.3,0.2,0.4c0.1,0.1,0.4,0.1,0.6,0.2l0.8,0.2
	c0.5,0.1,0.8,0.3,1,0.5c0.2,0.2,0.3,0.5,0.3,0.8c0,0.5-0.2,0.8-0.5,1.1c-0.3,0.3-0.8,0.4-1.4,0.4c-0.6,0-1-0.1-1.4-0.4
	c-0.3-0.2-0.5-0.7-0.6-1.3H457.6z"/>
<path fill="#1A171B" d="M462.3,101.3c0,0.5,0.1,0.9,0.3,1.2c0.2,0.3,0.6,0.4,1,0.4c0.3,0,0.6-0.1,0.8-0.3c0.2-0.2,0.4-0.4,0.4-0.6
	h0.8c-0.1,0.5-0.3,0.9-0.7,1.2c-0.3,0.3-0.8,0.4-1.3,0.4c-0.7,0-1.2-0.2-1.6-0.6c-0.4-0.4-0.6-1-0.6-1.8c0-0.8,0.2-1.4,0.6-1.9
	c0.4-0.5,0.9-0.7,1.6-0.7c0.7,0,1.2,0.2,1.5,0.7c0.3,0.5,0.5,1.1,0.5,2.1H462.3z M462.3,100.6h2.6c-0.1-0.5-0.2-0.9-0.4-1.1
	s-0.5-0.3-0.9-0.3c-0.4,0-0.7,0.1-0.9,0.4C462.4,99.9,462.3,100.2,462.3,100.6z"/>
<path fill="#1A171B" d="M466.2,99.3v-0.7h0.6v-1.3h0.8v1.3h0.8v0.7h-0.8v3.1c0,0.3,0.2,0.4,0.5,0.4h0.3v0.6c-0.3,0-0.5,0.1-0.7,0.1
	c-0.6,0-0.9-0.3-0.9-1v-3.1H466.2z"/>
<path fill="#1A171B" d="M1.6,103.4l2.5-6.5h1l2.3,6.5h-1l-0.6-1.9H3.2l-0.7,1.9H1.6z M3.5,100.7h2l-1-2.9L3.5,100.7z"/>
<path fill="#1A171B" d="M8.1,103.4v-4.7h0.7v0.7c0.4-0.6,0.9-0.8,1.5-0.8c0.5,0,0.9,0.1,1.2,0.4c0.3,0.3,0.4,0.7,0.4,1.2v3.2h-0.8
	v-2.9c0-0.5-0.1-0.8-0.3-1c-0.2-0.2-0.4-0.3-0.7-0.3c-0.4,0-0.7,0.1-0.9,0.4c-0.2,0.3-0.3,0.7-0.3,1.2v2.6H8.1z"/>
<path fill="#1A171B" d="M13.1,96.9h0.8v0.9h-0.8V96.9z M13.1,98.7h0.8v4.7h-0.8V98.7z"/>
<path fill="#1A171B" d="M15.1,103.4v-6.5h0.8v3.7l2-2h1l-1.8,1.7l1.9,3h-1l-1.5-2.4l-0.7,0.7v1.7H15.1z"/>
<path fill="#1A171B" d="M19.6,100.1c0-1,0.7-1.5,1.9-1.5c0.5,0,0.9,0.1,1.3,0.3c0.3,0.2,0.5,0.6,0.5,1v2.7c0,0.1,0,0.2,0.1,0.2
	c0,0,0.1,0.1,0.2,0.1c0.1,0,0.1,0,0.3,0v0.6c-0.2,0.1-0.3,0.1-0.5,0.1c-0.3,0-0.5-0.1-0.6-0.2c-0.1-0.1-0.2-0.3-0.2-0.5
	c-0.4,0.5-1,0.8-1.7,0.8c-0.4,0-0.7-0.1-1-0.3c-0.3-0.2-0.5-0.6-0.5-1c0-0.8,0.5-1.3,1.4-1.5l1.2-0.2c0.2,0,0.3-0.1,0.4-0.2
	c0.1-0.1,0.1-0.2,0.1-0.4c0-0.5-0.4-0.8-1.1-0.8c-0.4,0-0.6,0.1-0.8,0.2c-0.2,0.2-0.3,0.4-0.3,0.7H19.6z M22.4,101
	c-0.1,0.1-0.4,0.2-0.7,0.2c-0.4,0.1-0.6,0.1-0.6,0.1c-0.7,0.1-1,0.4-1,0.8c0,0.5,0.3,0.8,0.9,0.8c0.4,0,0.7-0.1,1-0.3
	s0.4-0.5,0.4-0.8V101z"/>
<path fill="#1A171B" d="M27.2,96.9h0.9v5.7h3.3v0.8h-4.2V96.9z"/>
<path fill="#1A171B" d="M32.1,100.1c0-1,0.7-1.5,1.9-1.5c0.5,0,0.9,0.1,1.3,0.3c0.3,0.2,0.5,0.6,0.5,1v2.7c0,0.1,0,0.2,0.1,0.2
	s0.1,0.1,0.2,0.1c0.1,0,0.1,0,0.3,0v0.6c-0.2,0.1-0.3,0.1-0.5,0.1c-0.3,0-0.5-0.1-0.6-0.2c-0.1-0.1-0.2-0.3-0.2-0.5
	c-0.4,0.5-1,0.8-1.7,0.8c-0.4,0-0.7-0.1-1-0.3c-0.3-0.2-0.5-0.6-0.5-1c0-0.8,0.5-1.3,1.4-1.5l1.2-0.2c0.2,0,0.3-0.1,0.4-0.2
	c0.1-0.1,0.1-0.2,0.1-0.4c0-0.5-0.4-0.8-1.1-0.8c-0.4,0-0.6,0.1-0.8,0.2c-0.2,0.2-0.3,0.4-0.3,0.7H32.1z M34.9,101
	c-0.1,0.1-0.4,0.2-0.7,0.2c-0.4,0.1-0.6,0.1-0.6,0.1c-0.7,0.1-1,0.4-1,0.8c0,0.5,0.3,0.8,0.9,0.8c0.4,0,0.7-0.1,1-0.3
	s0.4-0.5,0.4-0.8V101z"/>
<path fill="#1A171B" d="M37.1,103.4v-4.7h0.7v0.7c0.4-0.6,0.9-0.8,1.5-0.8c0.5,0,0.9,0.1,1.2,0.4c0.3,0.3,0.4,0.7,0.4,1.2v3.2h-0.8
	v-2.9c0-0.5-0.1-0.8-0.3-1c-0.2-0.2-0.4-0.3-0.7-0.3c-0.4,0-0.7,0.1-0.9,0.4c-0.2,0.3-0.3,0.7-0.3,1.2v2.6H37.1z"/>
<path fill="#1A171B" d="M42,103.9h0.8c0.1,0.5,0.5,0.7,1.1,0.7c0.4,0,0.8-0.1,1-0.3s0.3-0.6,0.3-1.1v-0.3c-0.3,0.5-0.7,0.7-1.3,0.7
	c-0.6,0-1.1-0.2-1.5-0.7s-0.6-1.1-0.6-1.9c0-0.7,0.2-1.3,0.5-1.7c0.3-0.5,0.8-0.7,1.4-0.7c0.3,0,0.6,0.1,0.8,0.2
	c0.2,0.1,0.4,0.3,0.6,0.6v-0.7H46v4.3c0,0.9-0.2,1.5-0.6,1.8c-0.4,0.3-0.9,0.5-1.6,0.5c-0.5,0-0.9-0.1-1.2-0.3
	C42.3,104.8,42.1,104.4,42,103.9z M42.7,100.9c0,0.6,0.1,1.1,0.3,1.4c0.2,0.3,0.5,0.5,0.9,0.5c0.4,0,0.7-0.2,0.9-0.5
	c0.2-0.3,0.3-0.7,0.3-1.3c0-1.3-0.4-1.9-1.3-1.9C43.1,99.2,42.7,99.8,42.7,100.9z"/>
<path fill="#1A171B" d="M47.7,101.3c0,0.5,0.1,0.9,0.3,1.2c0.2,0.3,0.6,0.4,1,0.4c0.3,0,0.6-0.1,0.8-0.3c0.2-0.2,0.4-0.4,0.4-0.6
	h0.8c-0.1,0.5-0.3,0.9-0.7,1.2c-0.3,0.3-0.8,0.4-1.3,0.4c-0.7,0-1.2-0.2-1.6-0.6c-0.4-0.4-0.6-1-0.6-1.8c0-0.8,0.2-1.4,0.6-1.9
	c0.4-0.5,0.9-0.7,1.6-0.7c0.7,0,1.2,0.2,1.5,0.7c0.3,0.5,0.5,1.1,0.5,2.1H47.7z M47.7,100.6h2.6c-0.1-0.5-0.2-0.9-0.4-1.1
	s-0.5-0.3-0.9-0.3c-0.4,0-0.7,0.1-0.9,0.4C47.9,99.9,47.7,100.2,47.7,100.6z"/>
<path fill="#1A171B" d="M52.3,104.3c0.3,0,0.5-0.4,0.5-0.9h-0.5v-1h0.9v0.9c0,0.8-0.3,1.3-0.9,1.4V104.3z"/>
<path fill="#1A171B" d="M57.2,101.8c0.2-0.4,0.6-0.7,1-0.9l1.3-0.8c0.3-0.2,0.5-0.4,0.6-0.5c0.1-0.2,0.2-0.4,0.2-0.7
	c0-0.4-0.1-0.7-0.3-0.9c-0.2-0.2-0.5-0.3-0.9-0.3c-0.4,0-0.8,0.1-1,0.4c-0.2,0.3-0.3,0.6-0.3,1.1h-0.8c0-0.7,0.2-1.2,0.5-1.6
	s0.9-0.6,1.6-0.6c0.6,0,1.1,0.2,1.5,0.5c0.4,0.3,0.6,0.8,0.6,1.4c0,0.4-0.1,0.7-0.3,1c-0.2,0.3-0.5,0.5-0.8,0.7l-1.1,0.6
	c-0.4,0.2-0.7,0.4-0.9,0.6c-0.2,0.2-0.3,0.4-0.4,0.7h3.5v0.7h-4.4C56.8,102.7,57,102.2,57.2,101.8z"/>
<path fill="#1A171B" d="M61.9,100.3c0-1,0.2-1.8,0.6-2.4c0.4-0.6,0.9-0.9,1.6-0.9c0.7,0,1.2,0.3,1.6,0.8c0.4,0.5,0.6,1.3,0.6,2.4
	c0,1-0.2,1.8-0.5,2.4c-0.4,0.6-0.9,0.9-1.6,0.9c-0.7,0-1.2-0.3-1.6-0.8C62.1,102.2,61.9,101.4,61.9,100.3z M62.7,100.3
	c0,1.7,0.4,2.5,1.3,2.5c0.9,0,1.3-0.8,1.3-2.5s-0.4-2.5-1.3-2.5S62.7,98.6,62.7,100.3z"/>
<path fill="#1A171B" d="M67.5,98.3c0.6,0,1-0.1,1.2-0.3c0.2-0.2,0.4-0.5,0.5-0.9h0.6v6.3h-0.8v-4.5h-1.5V98.3z"/>
<path fill="#1A171B" d="M71.8,101.1l2.9-4h0.7v4h0.9v0.7h-0.9v1.5h-0.8v-1.5h-2.8V101.1z M72.5,101.1h2.1v-2.9L72.5,101.1z"/>
<polyline points="298,26.4 298,91.8 299.1,91.8 299.1,26.4 "/>
<path d="M397.6,85.5v3.3h0.6v-3.3H397.6z M397.6,78.9v3.3h0.6v-3.3H397.6z M397.6,72.3v3.3h0.6v-3.3H397.6z M397.6,65.6V69h0.6v-3.3
	H397.6z M397.6,59v3.3h0.6V59H397.6z M397.6,52.4v3.3h0.6v-3.3H397.6z M397.6,45.7v3.3h0.6v-3.3H397.6z M397.6,39.1v3.3h0.6v-3.3
	H397.6z M397.6,32.5v3.3h0.6v-3.3H397.6z M397.6,25.8v3.3h0.6v-3.3H397.6z"/>
<path d="M360.1,71.3c-0.1-0.4-0.1-0.8-0.1-1.1c0-1.4,0.6-2.5,1.5-3.2c0.9-0.7,2.2-1.1,3.7-1.1c1.5,0,2.8,0.4,3.7,1.1
	c0.9,0.7,1.5,1.8,1.5,3.2c0,1-0.3,1.9-0.8,2.7l0.5,0.3c0.6-0.9,0.9-2,0.9-3c0-1.6-0.7-2.8-1.7-3.7c-1.1-0.8-2.5-1.2-4.1-1.2
	c-1.6,0-3,0.4-4.1,1.2c-1.1,0.8-1.7,2.1-1.7,3.7c0,0.4,0,0.9,0.1,1.3L360.1,71.3z"/>
<polygon fill-rule="evenodd" clip-rule="evenodd" points="369.4,69.7 370.2,74.2 371.6,69.8 "/>
<polygon points="369.4,69.7 369.3,69.7 370.2,74.8 371.8,69.7 369.2,69.5 369.3,69.7 369.4,69.7 369.4,69.8 371.4,70 370.3,73.6 
	369.5,69.7 369.4,69.7 369.4,69.8 "/>
<path d="M363,68.8c0.7,0,1.2-0.1,1.5-0.3c0.3-0.2,0.4-0.5,0.5-0.9h1.2v7.1h-1.4v-4.9H363V68.8z"/>
<path d="M371.5,49.1c0.1-0.4,0.1-0.8,0.1-1.3c0-1.6-0.7-2.8-1.7-3.7c-1.1-0.8-2.5-1.2-4.1-1.2c-1.6,0-3,0.4-4.1,1.2
	c-1.1,0.8-1.7,2.1-1.7,3.7c0,1.1,0.3,2.1,0.9,3l0.5-0.3c-0.5-0.8-0.8-1.8-0.8-2.7c0-1.4,0.6-2.5,1.5-3.2c0.9-0.7,2.2-1.1,3.7-1.1
	c1.5,0,2.8,0.4,3.7,1.1c0.9,0.7,1.5,1.8,1.5,3.2c0,0.4,0,0.8-0.1,1.1L371.5,49.1z"/>
<polygon fill-rule="evenodd" clip-rule="evenodd" points="361.7,47.3 360.9,51.9 359.5,47.5 "/>
<polygon points="361.7,47.3 361.6,47.3 360.8,51.3 359.7,47.6 361.7,47.5 361.7,47.3 361.6,47.3 361.7,47.3 361.7,47.2 359.3,47.4 
	360.9,52.4 361.9,47.2 361.7,47.2 "/>
<path d="M363.6,46.5c0.7,0,1.2-0.1,1.5-0.3c0.3-0.2,0.4-0.5,0.5-0.9h1.2v7.1h-1.4v-4.9h-1.7V46.5z"/>
<path d="M203.9,71.1h-2.6c-0.2-0.6-0.2-1.3-0.3-2l0-0.9c0-0.6-0.1-1-0.4-1.2s-0.7-0.4-1.5-0.4h-2.5v4.5h-2.4V59.6h5.9
	c1.1,0,2,0.3,2.6,0.9c0.7,0.6,1,1.4,1,2.4c0,1.3-0.6,2.2-1.8,2.7c0.6,0.3,1,0.6,1.2,1.1s0.2,1.1,0.2,2.1v0.5c0,0.4,0,0.8,0.1,1
	c0.1,0.3,0.2,0.4,0.4,0.5V71.1z M201.2,63.2c0-1-0.6-1.5-1.7-1.5h-3v3.1h2.8C200.6,64.7,201.2,64.2,201.2,63.2z"/>
<path d="M204.8,71.1l4.1-11.5h2.8l4.1,11.5h-2.6l-0.7-2.4h-4.3l-0.8,2.4H204.8z M208.8,66.7h2.9l-1.4-4.5L208.8,66.7z"/>
<polyline points="189.2,65.7 221,65.7 221,65.1 189.2,65.1 "/>
<path d="M20.4,35.6c0.5,0,0.9-0.1,1.1-0.3s0.3-0.4,0.4-0.6h0.9V40h-1.1v-3.7h-1.3V35.6z"/>
<path d="M25.6,37c-0.3-0.4-0.5-0.8-0.5-1.1c0-0.4,0.1-0.6,0.4-0.9c0.3-0.2,0.6-0.4,1-0.4c0.4,0,0.7,0.1,1,0.4
	c0.3,0.2,0.4,0.5,0.4,0.9c0,0.5-0.3,0.9-0.9,1.3l0.8,0.9c0.1-0.1,0.1-0.3,0.2-0.4c0-0.1,0.1-0.3,0.1-0.5H29c0,0.4-0.1,0.7-0.2,1
	c-0.1,0.3-0.2,0.5-0.4,0.6l1,1.2H28l-0.4-0.5c-0.2,0.2-0.4,0.3-0.7,0.4c-0.2,0.1-0.5,0.2-0.8,0.2c-0.5,0-0.9-0.1-1.2-0.4
	c-0.3-0.3-0.5-0.7-0.5-1.1C24.5,37.9,24.8,37.4,25.6,37z M26.1,37.6c-0.4,0.3-0.6,0.6-0.6,0.9c0,0.2,0.1,0.4,0.2,0.6
	c0.2,0.1,0.3,0.2,0.5,0.2c0.1,0,0.2,0,0.4-0.1c0.1,0,0.3-0.1,0.5-0.3L26.1,37.6z M26.5,36.5c0.3-0.2,0.5-0.4,0.5-0.7
	c0-0.1,0-0.3-0.1-0.3c-0.1-0.1-0.2-0.1-0.3-0.1c-0.1,0-0.2,0-0.3,0.1c-0.1,0.1-0.1,0.2-0.1,0.3C26.1,36,26.2,36.2,26.5,36.5z"/>
<path d="M30,38.8c0.2-0.3,0.6-0.7,1.2-1.1c0.5-0.4,0.8-0.6,0.9-0.8c0.1-0.2,0.2-0.4,0.2-0.6c0-0.2-0.1-0.4-0.2-0.5
	c-0.1-0.2-0.3-0.2-0.6-0.2c-0.3,0-0.5,0.1-0.6,0.3c-0.1,0.2-0.2,0.4-0.2,0.7h-1.1v-0.2c0-0.5,0.1-0.9,0.4-1.2
	c0.3-0.3,0.7-0.5,1.3-0.5c0.5,0,0.9,0.1,1.3,0.4c0.4,0.3,0.5,0.7,0.5,1.2c0,0.4-0.1,0.7-0.3,1c-0.2,0.3-0.5,0.6-1,0.9
	c-0.6,0.4-0.9,0.7-1,0.8h2.3V40h-3.6C29.7,39.5,29.8,39.2,30,38.8z"/>
<path d="M43.2,38.3c0,0.6,0.3,0.9,0.8,0.9c0.2,0,0.4-0.1,0.6-0.2s0.2-0.4,0.2-0.6c0-0.3-0.1-0.5-0.3-0.6c-0.2-0.1-0.5-0.2-0.9-0.2
	v-0.7h0.2c0.6,0,0.9-0.2,0.9-0.7c0-0.2-0.1-0.4-0.2-0.5c-0.1-0.1-0.3-0.2-0.5-0.2c-0.5,0-0.7,0.3-0.7,0.9h-1c0-0.5,0.2-0.9,0.5-1.2
	c0.3-0.3,0.7-0.5,1.3-0.5c0.5,0,0.9,0.1,1.2,0.4c0.3,0.3,0.5,0.6,0.5,1.1c0,0.5-0.2,0.8-0.7,1c0.5,0.2,0.8,0.6,0.8,1.2
	c0,0.5-0.2,0.9-0.5,1.2c-0.3,0.3-0.8,0.5-1.3,0.5c-0.6,0-1-0.1-1.3-0.4c-0.3-0.3-0.5-0.7-0.5-1.3H43.2z"/>
<path d="M47.7,37c-0.3-0.4-0.5-0.8-0.5-1.1c0-0.4,0.1-0.6,0.4-0.9c0.3-0.2,0.6-0.4,1-0.4c0.4,0,0.7,0.1,1,0.4
	c0.3,0.2,0.4,0.5,0.4,0.9c0,0.5-0.3,0.9-0.9,1.3l0.8,0.9c0.1-0.1,0.1-0.3,0.2-0.4c0-0.1,0.1-0.3,0.1-0.5h0.9c0,0.4-0.1,0.7-0.2,1
	c-0.1,0.3-0.2,0.5-0.4,0.6l1,1.2h-1.3l-0.4-0.5c-0.2,0.2-0.4,0.3-0.7,0.4c-0.2,0.1-0.5,0.2-0.8,0.2c-0.5,0-0.9-0.1-1.2-0.4
	c-0.3-0.3-0.5-0.7-0.5-1.1C46.6,37.9,46.9,37.4,47.7,37z M48.2,37.6c-0.4,0.3-0.6,0.6-0.6,0.9c0,0.2,0.1,0.4,0.2,0.6
	c0.2,0.1,0.3,0.2,0.5,0.2c0.1,0,0.2,0,0.4-0.1c0.1,0,0.3-0.1,0.5-0.3L48.2,37.6z M48.6,36.5c0.3-0.2,0.5-0.4,0.5-0.7
	c0-0.1,0-0.3-0.1-0.3c-0.1-0.1-0.2-0.1-0.3-0.1c-0.1,0-0.2,0-0.3,0.1c-0.1,0.1-0.1,0.2-0.1,0.3C48.2,36,48.3,36.2,48.6,36.5z"/>
<path d="M51.8,37.9l2-3.2h1.2V38h0.6v0.8h-0.6V40h-1.1v-1.2h-2.1V37.9z M52.6,38h1.3v-2.3L52.6,38z"/>
<path d="M99.5,67.3c0.1,1.3,0.9,1.9,2.5,1.9c1.5,0,2.3-0.5,2.3-1.5c0-0.6-0.5-1.1-1.6-1.3l-2.8-0.7c-0.9-0.2-1.5-0.6-1.9-1.1
	s-0.6-1.2-0.6-2c0-1.1,0.4-1.9,1.1-2.6s1.8-1,3.3-1c1.3,0,2.4,0.3,3.2,1s1.2,1.6,1.3,2.8h-2.3c-0.2-1.2-0.9-1.8-2.3-1.8
	c-0.6,0-1.1,0.1-1.5,0.4c-0.4,0.2-0.5,0.6-0.5,1c0,0.3,0.1,0.6,0.3,0.8c0.2,0.2,0.5,0.4,0.9,0.5l2.8,0.7c1.2,0.3,1.9,0.7,2.4,1.2
	c0.4,0.5,0.6,1.2,0.6,2c0,1.1-0.4,2-1.2,2.7c-0.8,0.7-1.9,1-3.4,1c-1.4,0-2.5-0.3-3.4-1c-0.9-0.7-1.3-1.6-1.3-2.9H99.5z"/>
<polyline points="108.3,71.6 108.3,59 107.9,59 107.9,71.6 "/>
<polyline fill-rule="evenodd" clip-rule="evenodd" points="109.1,62 108.1,58.6 107.1,62 109.1,62 "/>
<polygon points="109.1,62 109.4,61.9 108.1,57.8 106.8,62.2 109.4,62.2 109.4,61.9 109.1,62 109.1,61.8 107.4,61.8 108.1,59.4 
	108.9,62.1 109.1,62 109.1,61.8 "/>
<polyline points="337.9,48 350.4,48 350.4,47.6 337.9,47.6 "/>
<polygon points="349.3,46.3 349.3,46.7 349.2,49.3 355.1,47.9 "/>
<path d="M426.4,59.3h9.4v2h-3.5v9.5h-2.4v-9.5h-3.5V59.3z"/>
<path d="M435.6,74.2V67h3.5c0.7,0,1.2,0.2,1.6,0.5c0.4,0.3,0.6,0.8,0.6,1.4c0,0.7-0.3,1.2-0.9,1.4c0.7,0.3,1.1,0.9,1.1,1.7
	c0,0.7-0.3,1.3-0.7,1.6c-0.4,0.4-1.2,0.5-2.2,0.5H435.6z M437.1,69.8h1.8c0.7,0,1.1-0.3,1.1-0.8c0-0.5-0.4-0.7-1.1-0.7h-1.7V69.8z
	 M437.1,72.9h1.9c0.8,0,1.2-0.3,1.2-1c0-0.6-0.4-0.9-1.1-0.9h-1.9V72.9z"/>
<path d="M425.6,37.9l2-3.2h1.2V38h0.6v0.8h-0.6V40h-1.1v-1.2h-2.1V37.9z M426.4,38h1.3v-2.3L426.4,38z"/>
<path d="M432.2,35.6c0.5,0,0.9-0.1,1.1-0.3s0.3-0.4,0.4-0.6h0.9V40h-1.1v-3.7h-1.3V35.6z"/>
<path d="M314.3,46.8c0.5,0,0.9-0.1,1.1-0.3c0.2-0.2,0.3-0.4,0.4-0.6h0.9v5.3h-1.1v-3.7h-1.3V46.8z"/>
<path d="M318.7,47.3h1.1v1.1h-1.1V47.3z M318.7,50.1h1.1v1.1h-1.1V50.1z"/>
<path d="M314.1,69.3l2-3.2h1.2v3.3h0.6v0.8h-0.6v1.2h-1.1v-1.2h-2.1V69.3z M314.9,69.4h1.3v-2.3L314.9,69.4z"/>
<path d="M318.7,67.6h1.1v1.1h-1.1V67.6z M318.7,70.3h1.1v1.1h-1.1V70.3z"/>
<polyline points="355.2,69 342.7,69 342.7,69.5 355.2,69.5 "/>
<polygon points="343.8,67.8 343.8,68.2 343.8,70.7 338,69.4 "/>
<path d="M260.7,35.6c0.5,0,0.9-0.1,1.1-0.3s0.3-0.4,0.4-0.6h0.9V40H262v-3.7h-1.3V35.6z"/>
<path d="M266.7,37.9l2-3.2h1.2V38h0.6v0.8h-0.6V40h-1.1v-1.2h-2.1V37.9z M267.5,38h1.3v-2.3L267.5,38z"/>
<path d="M260.1,70.8l4.1-11.5h2.8l4.1,11.5h-2.6l-0.7-2.4h-4.3l-0.8,2.4H260.1z M264.1,66.4h2.9l-1.4-4.5L264.1,66.4z"/>
<path d="M143.3,40l1.9-5.4h1.3l1.9,5.4h-1.2l-0.3-1.1h-2l-0.4,1.1H143.3z M145.2,37.9h1.4l-0.7-2.1L145.2,37.9z"/>
<path d="M149.1,34.6h1.1V39h2.7V40h-3.8V34.6z"/>
<path d="M153.7,34.6h1.1V39h2.7V40h-3.8V34.6z"/>
<path d="M94.2,40l1.9-5.4h1.3l1.9,5.4h-1.2l-0.3-1.1h-2L95.4,40H94.2z M96.1,37.9h1.4l-0.7-2.1L96.1,37.9z"/>
<path d="M100,34.6h1.1V39h2.7V40H100V34.6z"/>
<path d="M104.6,34.6h1.1V39h2.7V40h-3.8V34.6z"/>
<path d="M188,35.6c0.5,0,0.9-0.1,1.1-0.3s0.3-0.4,0.4-0.6h0.9V40h-1.1v-3.7H188V35.6z"/>
<path d="M193.3,37c-0.3-0.4-0.5-0.8-0.5-1.1c0-0.4,0.1-0.6,0.4-0.9c0.3-0.2,0.6-0.4,1-0.4c0.4,0,0.7,0.1,1,0.4
	c0.3,0.2,0.4,0.5,0.4,0.9c0,0.5-0.3,0.9-0.9,1.3l0.8,0.9c0.1-0.1,0.1-0.3,0.2-0.4c0-0.1,0.1-0.3,0.1-0.5h0.9c0,0.4-0.1,0.7-0.2,1
	c-0.1,0.3-0.2,0.5-0.4,0.6l1,1.2h-1.3l-0.4-0.5c-0.2,0.2-0.4,0.3-0.7,0.4c-0.2,0.1-0.5,0.2-0.8,0.2c-0.5,0-0.9-0.1-1.2-0.4
	c-0.3-0.3-0.5-0.7-0.5-1.1C192.1,37.9,192.5,37.4,193.3,37z M193.8,37.6c-0.4,0.3-0.6,0.6-0.6,0.9c0,0.2,0.1,0.4,0.2,0.6
	c0.2,0.1,0.3,0.2,0.5,0.2c0.1,0,0.2,0,0.4-0.1c0.1,0,0.3-0.1,0.5-0.3L193.8,37.6z M194.1,36.5c0.3-0.2,0.5-0.4,0.5-0.7
	c0-0.1,0-0.3-0.1-0.3c-0.1-0.1-0.2-0.1-0.3-0.1c-0.1,0-0.2,0-0.3,0.1c-0.1,0.1-0.1,0.2-0.1,0.3C193.7,36,193.9,36.2,194.1,36.5z"/>
<path d="M197.6,38.8c0.2-0.3,0.6-0.7,1.2-1.1c0.5-0.4,0.8-0.6,0.9-0.8c0.1-0.2,0.2-0.4,0.2-0.6c0-0.2-0.1-0.4-0.2-0.5
	c-0.1-0.2-0.3-0.2-0.6-0.2c-0.3,0-0.5,0.1-0.6,0.3c-0.1,0.2-0.2,0.4-0.2,0.7h-1.1v-0.2c0-0.5,0.1-0.9,0.4-1.2
	c0.3-0.3,0.7-0.5,1.3-0.5c0.5,0,0.9,0.1,1.3,0.4c0.4,0.3,0.5,0.7,0.5,1.2c0,0.4-0.1,0.7-0.3,1c-0.2,0.3-0.5,0.6-1,0.9
	c-0.6,0.4-0.9,0.7-1,0.8h2.3V40h-3.6C197.3,39.5,197.4,39.2,197.6,38.8z"/>
<path d="M208.8,38.3c0,0.6,0.3,0.9,0.8,0.9c0.2,0,0.4-0.1,0.6-0.2s0.2-0.4,0.2-0.6c0-0.3-0.1-0.5-0.3-0.6c-0.2-0.1-0.5-0.2-0.9-0.2
	v-0.7h0.2c0.6,0,0.9-0.2,0.9-0.7c0-0.2-0.1-0.4-0.2-0.5c-0.1-0.1-0.3-0.2-0.5-0.2c-0.5,0-0.7,0.3-0.7,0.9h-1c0-0.5,0.2-0.9,0.5-1.2
	c0.3-0.3,0.7-0.5,1.3-0.5c0.5,0,0.9,0.1,1.2,0.4c0.3,0.3,0.5,0.6,0.5,1.1c0,0.5-0.2,0.8-0.7,1c0.5,0.2,0.8,0.6,0.8,1.2
	c0,0.5-0.2,0.9-0.5,1.2c-0.3,0.3-0.8,0.5-1.3,0.5c-0.6,0-1-0.1-1.3-0.4c-0.3-0.3-0.5-0.7-0.5-1.3H208.8z"/>
<path d="M213.3,37c-0.3-0.4-0.5-0.8-0.5-1.1c0-0.4,0.1-0.6,0.4-0.9c0.3-0.2,0.6-0.4,1-0.4c0.4,0,0.7,0.1,1,0.4
	c0.3,0.2,0.4,0.5,0.4,0.9c0,0.5-0.3,0.9-0.9,1.3l0.8,0.9c0.1-0.1,0.1-0.3,0.2-0.4c0-0.1,0.1-0.3,0.1-0.5h0.9c0,0.4-0.1,0.7-0.2,1
	c-0.1,0.3-0.2,0.5-0.4,0.6l1,1.2h-1.3l-0.4-0.5c-0.2,0.2-0.4,0.3-0.7,0.4c-0.2,0.1-0.5,0.2-0.8,0.2c-0.5,0-0.9-0.1-1.2-0.4
	c-0.3-0.3-0.5-0.7-0.5-1.1C212.1,37.9,212.5,37.4,213.3,37z M213.8,37.6c-0.4,0.3-0.6,0.6-0.6,0.9c0,0.2,0.1,0.4,0.2,0.6
	c0.2,0.1,0.3,0.2,0.5,0.2c0.1,0,0.2,0,0.4-0.1c0.1,0,0.3-0.1,0.5-0.3L213.8,37.6z M214.1,36.5c0.3-0.2,0.5-0.4,0.5-0.7
	c0-0.1,0-0.3-0.1-0.3c-0.1-0.1-0.2-0.1-0.3-0.1c-0.1,0-0.2,0-0.3,0.1c-0.1,0.1-0.1,0.2-0.1,0.3C213.7,36,213.9,36.2,214.1,36.5z"/>
<path d="M217.3,37.9l2-3.2h1.2V38h0.6v0.8h-0.6V40h-1.1v-1.2h-2.1V37.9z M218.1,38h1.3v-2.3L218.1,38z"/>
<circle fill="#FFFFFF" cx="149.1" cy="62.3" r="4.1"/>
<path d="M153.2,62.3h-0.2c0,1.1-0.4,2-1.1,2.7c-0.7,0.7-1.7,1.1-2.7,1.1s-2-0.4-2.7-1.1c-0.7-0.7-1.1-1.7-1.1-2.7s0.4-2,1.1-2.7
	c0.7-0.7,1.7-1.1,2.7-1.1s2,0.4,2.7,1.1c0.7,0.7,1.1,1.7,1.1,2.7H153.2h0.2c0-2.4-1.9-4.3-4.3-4.3s-4.3,1.9-4.3,4.3
	c0,2.4,1.9,4.3,4.3,4.3s4.3-1.9,4.3-4.3H153.2z"/>
<rect x="145.1" y="67.6" fill="#FFFFFF" width="8.1" height="8.1"/>
<polygon points="145.1,67.6 145.1,67.8 153,67.8 153,75.5 145.3,75.5 145.3,67.6 145.1,67.6 145.1,67.8 145.1,67.6 144.8,67.6 
	144.8,75.9 153.4,75.9 153.4,67.4 144.8,67.4 144.8,67.6 "/>
<path d="M141.5,69.4c0.2,0.4,0.4,0.7,0.6,1.1l0.5-0.3c-0.2-0.4-0.4-0.7-0.6-1.1L141.5,69.4z M140.5,67.2c0.1,0.4,0.3,0.8,0.5,1.1
	l0.5-0.2c-0.2-0.4-0.3-0.8-0.5-1.1L140.5,67.2z M139.7,64.8c0.1,0.4,0.2,0.8,0.3,1.2l0.5-0.2c-0.1-0.4-0.2-0.8-0.3-1.2L139.7,64.8z
	 M139.3,62.3c0,0.4,0.1,0.8,0.2,1.2l0.6-0.1c-0.1-0.4-0.1-0.8-0.1-1.2L139.3,62.3z M139.3,59.8c-0.1,0.4-0.1,0.8-0.1,1.3l0.6,0
	c0-0.4,0-0.8,0.1-1.2L139.3,59.8z M140,57.4c-0.2,0.4-0.3,0.8-0.4,1.2l0.5,0.1c0.1-0.4,0.2-0.8,0.4-1.1L140,57.4z M141.2,55.2
	c-0.3,0.3-0.5,0.7-0.7,1.1l0.5,0.3c0.2-0.4,0.4-0.7,0.7-1L141.2,55.2z M143,53.4c-0.3,0.3-0.7,0.5-1,0.8l0.4,0.4
	c0.3-0.3,0.6-0.5,0.9-0.8L143,53.4z M145.2,52.1c-0.4,0.2-0.8,0.3-1.1,0.6l0.3,0.5c0.3-0.2,0.7-0.4,1.1-0.5L145.2,52.1z M147.6,51.5
	c-0.4,0.1-0.8,0.1-1.2,0.2l0.1,0.5c0.4-0.1,0.8-0.2,1.2-0.2L147.6,51.5z M150.1,51.4c-0.3,0-0.6,0-1,0c-0.1,0-0.2,0-0.3,0l0,0.6
	c0.1,0,0.2,0,0.3,0c0.3,0,0.6,0,0.9,0L150.1,51.4z M152.6,51.9c-0.4-0.1-0.8-0.2-1.2-0.3l-0.1,0.6c0.4,0.1,0.8,0.2,1.2,0.3
	L152.6,51.9z M155,52.8c-0.4-0.2-0.8-0.4-1.1-0.5l-0.2,0.5c0.4,0.1,0.7,0.3,1.1,0.5L155,52.8z M157.1,54.1c-0.3-0.3-0.7-0.5-1-0.7
	l-0.3,0.5c0.3,0.2,0.7,0.4,1,0.7L157.1,54.1z M158.9,55.8c-0.3-0.3-0.6-0.6-0.9-0.9l-0.4,0.4c0.3,0.3,0.6,0.6,0.9,0.9L158.9,55.8z
	 M160.4,57.8c-0.2-0.3-0.5-0.7-0.7-1l-0.4,0.3c0.2,0.3,0.5,0.6,0.7,1L160.4,57.8z M161.7,60c-0.2-0.4-0.4-0.7-0.6-1.1l-0.5,0.3
	c0.2,0.3,0.4,0.7,0.6,1.1L161.7,60z M162.6,62.3c-0.1-0.4-0.3-0.8-0.4-1.2l-0.5,0.2c0.2,0.4,0.3,0.8,0.4,1.1L162.6,62.3z
	 M163.3,64.7c-0.1-0.4-0.2-0.8-0.3-1.2l-0.5,0.2c0.1,0.4,0.2,0.8,0.3,1.2L163.3,64.7z M163.7,67.1c0-0.4-0.1-0.8-0.1-1.2L163,66
	c0.1,0.4,0.1,0.8,0.1,1.2L163.7,67.1z M163.7,69.6c0-0.3,0-0.5,0-0.8c0-0.1,0-0.3,0-0.4l-0.6,0c0,0.1,0,0.3,0,0.4c0,0.3,0,0.5,0,0.8
	L163.7,69.6z M163.5,72.1c0.1-0.4,0.1-0.8,0.2-1.2l-0.6-0.1c0,0.4-0.1,0.8-0.2,1.2L163.5,72.1z M162.8,74.5c0.1-0.4,0.2-0.8,0.3-1.2
	l-0.5-0.1c-0.1,0.4-0.2,0.8-0.3,1.2L162.8,74.5z M161.9,76.8c0.2-0.4,0.4-0.8,0.5-1.1l-0.5-0.2c-0.2,0.4-0.3,0.7-0.5,1.1L161.9,76.8
	z M160.6,79c0.3-0.3,0.5-0.7,0.7-1l-0.5-0.3c-0.2,0.3-0.4,0.7-0.7,1L160.6,79z M158.9,80.8c0.3-0.3,0.6-0.6,0.9-0.9l-0.4-0.4
	c-0.3,0.3-0.5,0.6-0.8,0.9L158.9,80.8z M156.9,82.4c0.4-0.2,0.7-0.5,1-0.7l-0.4-0.4c-0.3,0.2-0.6,0.5-1,0.7L156.9,82.4z M154.8,83.6
	c0.4-0.2,0.8-0.4,1.1-0.6l-0.3-0.5c-0.3,0.2-0.7,0.4-1.1,0.6L154.8,83.6z M152.4,84.5c0.4-0.1,0.8-0.3,1.2-0.4l-0.2-0.5
	c-0.4,0.1-0.8,0.3-1.1,0.4L152.4,84.5z M150,85.1c0.4-0.1,0.8-0.2,1.2-0.3l-0.1-0.6c-0.4,0.1-0.8,0.2-1.2,0.3L150,85.1z M147.5,85.4
	c0.4,0,0.8-0.1,1.2-0.1l-0.1-0.6c-0.4,0.1-0.8,0.1-1.2,0.1L147.5,85.4z"/>
<path d="M148.8,46.3c-5.7,0.5-9.8,2.6-12.4,5.7c-2.6,3.1-3.8,7-3.8,10.9c0,4.3,1.4,8.7,3.9,11.9c2.5,3.3,6.2,5.5,10.6,5.5
	c0.1,0,0.3,0,0.4,0l0-0.3v0.3h0c2.3,0,4.7-0.9,6.5-2.6c1.8-1.7,3-4.2,3-7.3c0-2.7-0.9-5.8-3-9.4l-0.5,0.3c2.1,3.5,2.9,6.6,2.9,9.1
	c0,6-4.6,9.3-9,9.4h0h0h0c-0.1,0-0.3,0-0.4,0c-4.2,0-7.7-2.1-10.2-5.3c-2.4-3.2-3.8-7.4-3.8-11.6c0-3.8,1.1-7.6,3.7-10.5
	c2.5-2.9,6.4-5,12-5.5L148.8,46.3z"/>
<polyline points="148.4,47.7 147.9,48.9 150.7,46.1 147,44.9 148.9,46.6 148.4,47.7 "/>
<polygon points="148.4,47.7 147.9,48.9 147.9,48.9 150.7,46.1 150.7,46.1 147,44.9 147,44.9 148.9,46.6 148.4,47.7 148.4,47.7 
	148.9,46.6 148.9,46.6 147,44.9 150.7,46.1 147.9,48.9 148.4,47.7 "/>
<polyline points="148.2,84.3 148.8,83.2 146,85.9 149.7,87.1 147.7,85.5 148.2,84.3 "/>
<polygon points="148.2,84.3 148.8,83.2 148.8,83.2 146,85.9 146,85.9 149.7,87.1 149.7,87.1 147.7,85.5 148.2,84.3 148.2,84.3 
	147.7,85.5 147.7,85.5 149.7,87.1 146,85.9 148.8,83.2 148.2,84.3 "/>
<polyline points="149.4,58.2 149.4,54.9 148.8,54.9 148.8,58.2 "/>
<polyline points="149.4,79.1 149.4,75.7 148.8,75.7 148.8,79.1 "/>
<path d="M33.7,59.3h5.2c1.1,0,2,0.3,2.6,1c0.6,0.7,0.9,1.5,0.9,2.6c0,1.1-0.3,2.1-1,2.7c-0.7,0.7-1.5,1-2.6,1h-2.7v4.1h-2.4V59.3z
	 M36.1,61.4v3.3h2.2c1.2,0,1.8-0.6,1.8-1.7c0-0.6-0.2-1-0.5-1.3s-0.9-0.3-1.6-0.3H36.1z"/>
</svg>
