<?xml version="1.0" encoding="UTF-8"?>
<!-- Created with Inkscape (http://www.inkscape.org/) -->
<svg width="710" height="181" version="1.1" viewBox="0 0 710 181" xmlns="http://www.w3.org/2000/svg" xmlns:cc="http://creativecommons.org/ns#" xmlns:dc="http://purl.org/dc/elements/1.1/" xmlns:rdf="http://www.w3.org/1999/02/22-rdf-syntax-ns#">
 <metadata>
  <rdf:RDF>
   <cc:Work rdf:about="">
    <dc:format>image/svg+xml</dc:format>
    <dc:type rdf:resource="http://purl.org/dc/dcmitype/StillImage"/>
    <dc:title/>
   </cc:Work>
  </rdf:RDF>
 </metadata>
 <path d="m9.7867 76.337v-72.73h693.61v145.46h-693.61zm163.44 15.243v-54.874h-161.44v109.75h161.44zm-48.832 39.779v-6.3846l3.5478 0.10288c1.9513 0.0566 3.9624 0.6759 4.4693 1.3762 2.2841 3.1563 0.15904 7.806-3.5676 7.806-1.792 0-2.4564 0.47117-2.4564 1.742 0 0.95812-0.44845 1.742-0.99656 1.742-0.57374 0-0.99656-2.7089-0.99656-6.3846zm5.9338 0.77092c1.8467-1.9448 0.89043-5.2309-1.6129-5.5426-2.6396-0.32866-3.9324 2.4387-2.348 5.0262 1.2842 2.0973 2.3302 2.2337 3.9609 0.51634zm5.0283-4.403c0-3.7744 0.42076-6.5326 0.99656-6.5326 0.57579 0 0.99656 2.7582 0.99656 6.5326s-0.42077 6.5326-0.99656 6.5326c-0.5758 0-0.99656-2.7582-0.99656-6.5326zm4.3341 5.1976c-0.73636-1.6772 1.2106-3.7117 3.8818-4.0566 1.1505-0.14852 2.2764-0.75999 2.5021-1.3588 0.52556-1.3948-2.9551-1.4282-4.5393-0.0436-0.93013 0.81295-1.1959 0.71986-1.1959-0.41891 0-1.5633 4.0163-2.8789 6.3745-2.088 0.85665 0.28732 1.5314 2.1058 1.7462 4.7059l0.35004 4.2377-4.2743 0.16124c-2.998 0.11309-4.4447-0.22702-4.8452-1.139zm6.4405-1.5058c0.35679-1.6192-1.4283-1.9723-3.6773-0.72731-0.75536 0.41817-1.0499 1.2178-0.65451 1.7769 1.0256 1.4503 3.9363 0.74503 4.3318-1.0496zm6.2209 1.5912c-0.65262-0.68729-1.0439-2.542-0.86944-4.1216 0.39674-3.5929 4.7786-5.4745 7.4044-3.1794 1.0725 0.93738 1.2264 1.5646 0.48262 1.9664-0.60071 0.32449-1.0922 0.14763-1.0922-0.39302 0-0.54066-1.009-0.85775-2.2423-0.70467-1.696 0.21053-2.316 0.94085-2.5451 2.998-0.36747 3.3006 2.4786 4.8178 4.5016 2.3997 0.69393-0.82946 1.5545-1.2522 1.9123-0.93948 1.1151 0.97465-1.7579 3.2238-4.118 3.2238-1.236 0-2.7813-0.56233-3.4339-1.2496zm9.9466-0.43514c-1.5381-2.5119-1.2531-4.8382 0.79083-6.4549 2.2888-1.8104 4.5603-1.8355 6.5771-0.0728 2.8054 2.452 1.9236 3.8574-2.4202 3.8574-4.2199 0-4.973 0.81296-2.4492 2.6437 1.1642 0.84451 1.8169 0.87038 2.6907 0.10665 0.6345-0.55457 1.7915-1.0083 2.5712-1.0083 1.1471 0 1.1808 0.24932 0.17695 1.3065-1.799 1.8946-6.6884 1.6616-7.9374-0.37825zm6.9409-4.4397c0-0.49411-0.67268-1.124-1.4948-1.3997-1.9958-0.66939-4.7702 0.31844-3.9906 1.4209 0.81616 1.1542 5.4854 1.1362 5.4854-0.0212zm-151.07-26.103 0.09467-16.114 2.9579-4.6676c3.8213-6.0301 9.1691-9.972 16.121-11.883 15.394-4.2321 31.338 3.2106 35.834 16.728 3.7595 11.303-2.3926 23.124-14.987 28.797-6.1647 2.777-16.646 3.106-22.838 0.71681-4.9734-1.9191-13.015-8.5125-14.74-12.086-1.2923-2.6763-1.3766-2.4201-1.9438 5.9126-0.43686 6.4173-0.56803 4.4684-0.49828-7.4036zm39.116 12.039c14.079-5.7841 19.951-20.458 12.785-31.949-3.6583-5.8664-8.9974-9.901-15.55-11.751-10.442-2.9476-19.449-0.9981-27.368 5.9235-10.575 9.2431-10.947 22.126-0.93933 32.521 6.5903 6.8454 21.191 9.3146 31.073 5.2549zm-9.6226-11.996c0-2.5172-0.11676-2.5749-5.7302-2.8308-4.3511-0.19835-5.7067-0.57566-5.6323-1.5677 0.1505-2.0076 11.498-15.678 13.014-15.678 1.0155 0 1.3386 1.7873 1.3386 7.4036 0 6.0003 0.28334 7.4036 1.4948 7.4036 0.82216 0 1.4948 0.58794 1.4948 1.3065 0 0.71859-0.67268 1.3065-1.4948 1.3065-0.99656 0-1.4948 0.87102-1.4948 2.613 0 1.742-0.49828 2.6131-1.4948 2.6131-0.99094 0-1.4948-0.8662-1.4948-2.5696zm-0.03584-10.278-0.03584-5.0083-2.2317 2.3819c-1.2274 1.3101-3.0305 3.5638-4.0067 5.0083l-1.7751 2.6264h8.0852zm43.032 13.722c-6.3607-7.5789-9.9529-12.604-9.4952-13.283 2.1076-3.1258 19.584-23.296 20.15-23.256 0.36396 0.02561 3.3524 3.3487 6.6411 7.3846 3.2886 4.0359 6.5399 7.3466 7.2251 7.3571 0.68514 0.01045 1.2457 0.6331 1.2457 1.3836 0 0.75055 1.1709 2.7063 2.6019 4.3462 1.484 1.7005 2.3461 3.5643 2.0065 4.3378-0.54136 1.233-19.45 23.921-19.936 23.921-0.11429 0-4.812-5.486-10.439-12.191zm20.277-0.95324 9.6217-11.402-2.6998-3.405c-2.3507-2.9648-3.1977-3.405-6.5505-3.405h-3.8507v10.017c0 8.2237-0.26174 10.017-1.4622 10.017-1.1819 0-1.5162-1.8786-1.744-9.7989l-0.28177-9.7989-4.2354-0.26784c-2.8255-0.17868-4.2354-0.67478-4.2354-1.4904 0-0.93314 1.9948-1.2821 8.427-1.4742l8.4269-0.25166-5.5481-6.4046c-4.5853-5.2932-5.7682-6.2001-6.816-5.2261-0.69732 0.64818-5.0956 5.733-9.7739 11.3l-8.506 10.121 9.6237 11.437c5.293 6.2902 9.7045 11.437 9.8033 11.437 0.0988 0 4.5093-5.131 9.8012-11.402zm34.595 6.8294 0.2928-6.3149h3.4423c2.6796 0 3.7705 0.50849 4.9235 2.2949 1.3312 2.0625 1.3083 2.5256-0.22648 4.5728-1.0808 1.4417-2.6138 2.2779-4.1761 2.2779-1.804 0-2.4684 0.46887-2.4684 1.742 0 0.95812-0.46809 1.742-1.0402 1.742-0.65385 0-0.93147-2.3455-0.74742-6.3149zm6.7597 0.66457c0.7193-0.75751 0.96219-2.2274 0.58509-3.5406-0.48716-1.6965-1.1843-2.1783-2.8518-1.9711-2.5522 0.31719-3.5308 3.5816-1.6632 5.5483 1.514 1.5944 2.389 1.5862 3.93-0.0366zm-29.047-1.9711c-0.26262-6.881 0.27722-9.114 1.8673-7.7242 0.39209 0.34269 0.61354 2.6187 0.49212 5.0578s0.28537 4.9677 0.90397 5.6192c0.8882 0.93538 0.67991 1.1845-0.9904 1.1845-1.8368 0-2.1359-0.54446-2.273-4.1373zm6.1913 2.8877c-0.65262-0.68729-1.0439-2.542-0.86944-4.1216 0.24924-2.2572 0.92616-3.058 3.162-3.7412 2.4453-0.74711 3.1101-0.58284 4.7337 1.1695 1.0388 1.1213 1.8888 2.7512 1.8888 3.6221 0 3.6232-6.3226 5.8014-8.915 3.0712zm5.9146-0.9166c0.7193-0.75751 0.96219-2.2274 0.58508-3.5406-0.93859-3.2685-4.9332-2.6593-5.3878 0.82173-0.45859 3.5113 2.4739 5.1714 4.8027 2.7189zm22.484 1.0775c-1.2207-3.4526-1.2109-8.554 0.0192-9.9718 1.2192-1.4053 1.3647-1.4175 1.3931-0.11748 0.0174 0.79843 0.59225 1.6803 1.2774 1.9598 0.99656 0.40647 0.99656 0.60971 0 1.0162-1.473 0.6008-1.699 6.46-0.24912 6.46 0.54811 0 0.99656 0.39195 0.99656 0.87101 0 1.261-2.9811 1.0722-3.4372-0.21775zm5.5481-3.2941c-0.11104-4.5416 0.0253-4.8287 2.3736-4.9986 1.3703-0.0991 2.4914 0.20734 2.4914 0.68104 0 0.47369-0.62417 0.86126-1.387 0.86126-0.85187 0-1.7677 1.5963-2.3736 4.1373l-0.98656 4.1373zm-10.083-21.852v-7.9438l6.0586 0.38303c6.1394 0.38814 7.8475 1.3438 7.878 4.4077 8e-3 0.84304-0.84947 2.1799-1.9064 2.9709-1.8887 1.4134-1.8802 1.4856 0.49828 4.211 2.7289 3.1271 2.9717 3.9297 1.1742 3.882-0.68514-0.01821-2.4747-1.586-3.9768-3.4841-1.9545-2.4698-3.4422-3.451-5.232-3.451-2.2533 0-2.5009 0.34489-2.5009 3.4841 0 1.9162-0.44845 3.4841-0.99656 3.4841-0.59153 0-0.99656-3.2286-0.99656-7.9438zm10.962-2.0728c1.9962-2.1023-0.56741-4.0631-4.8975-3.7459-3.0683 0.2248-3.6178 0.60028-3.8886 2.6571-0.29684 2.2547-0.0847 2.3953 3.6151 2.3953 2.278 0 4.452-0.54931 5.171-1.3065zm-25.911-6.0971v-10.017h-3.9862c-2.879 0-3.9862-0.36292-3.9862-1.3065 0-1.0743 1.7717-1.3065 9.9656-1.3065 8.194 0 9.9656 0.23227 9.9656 1.3065 0 0.9436-1.1073 1.3065-3.9862 1.3065h-3.9862v10.017c0 9.436-0.11554 10.017-1.9931 10.017s-1.9931-0.58068-1.9931-10.017zm-105.47-29.456c-0.15956-4.8263-0.27407-5.0384-2.4098-4.4646-2.2138 0.59475-2.2106 0.57238 0.24914-1.7633l2.4914-2.3656 0.30773 3.587c0.16925 1.9729 0.13252 5.0465-0.08162 6.8303-0.2816 2.3458-0.4357 1.8411-0.55687-1.8238zm11.791 3.3693c0-0.69421 1.5696-2.3086 3.488-3.5874 3.8762-2.5841 4.8941-6.4736 1.6942-6.4736-0.9866 0-2.3245 0.46382-2.9731 1.0307-0.6486 0.56688-1.5224 0.73082-1.9417 0.36429-0.94432-0.82535 2.524-3.137 4.7066-3.137 4.7456 0 5.178 4.5119 0.80991 8.4509l-3.1852 2.8723h3.1852c1.7518 0 3.1852 0.39196 3.1852 0.87102 0 0.47906-2.018 0.87102-4.4845 0.87102-3.2519 0-4.4845-0.34694-4.4845-1.2622zm87.697-3.5011c0-3.8762-0.2784-4.6699-1.4948-4.2619-2.3404 0.78494-1.6927-0.82581 1.0279-2.5565l2.4601-1.5649v6.5733c0 3.8015-0.42022 6.5733-0.99656 6.5733-0.54811 0-0.99656-2.1435-0.99656-4.7633zm-26.121-0.23761c3.4472-0.17057 8.8286-0.16916 11.959 0.0035 3.1301 0.1723 0.30974 0.31186-6.2676 0.31013-6.5773-0.0017-9.1383-0.14269-5.6912-0.31326zm39.862 0c3.4472-0.17057 8.8286-0.16916 11.959 0.0035 3.1301 0.1723 0.30974 0.31186-6.2676 0.31013-6.5773-0.0017-9.1383-0.14269-5.6912-0.31326zm136.74 41.584v-54.874h-107.63v109.75h107.63zm-6.4268 49.24c0.79419-1.6613 1.444-4.0257 1.444-5.2541s-0.6498-3.5928-1.444-5.2541c-0.7942-1.6613-1.0671-3.0206-0.60649-3.0206 0.94837 0 4.0436 6.334 4.0436 8.2747s-3.0952 8.2747-4.0436 8.2747c-0.46063 0-0.18771-1.3593 0.60649-3.0206zm-96.219-1.7257c0-0.69421 1.5696-2.3086 3.488-3.5874 3.8762-2.5841 4.8941-6.4736 1.6942-6.4736-0.98659 0-2.3245 0.46382-2.9731 1.0307-0.6486 0.5669-1.5224 0.73082-1.9417 0.3643-0.94431-0.82535 2.524-3.137 4.7066-3.137 4.7456 0 5.178 4.5119 0.80991 8.451l-3.1852 2.8723h3.1852c1.7518 0 3.1852 0.39196 3.1852 0.87102 0 0.47905-2.018 0.87101-4.4845 0.87101-3.2519 0-4.4845-0.34693-4.4845-1.2622zm11.874-0.16293c-1.2692-1.3629-1.2109-1.4446 0.58316-0.81873 3.0326 1.058 4.7263 1.0408 5.17-0.0524 0.22093-0.54438-0.99681-1.4159-2.7061-1.9367-2.431-0.74068-3.0376-1.3787-2.7858-2.9298 0.39419-2.4281 4.8291-3.1871 6.7572-1.1565 1.1245 1.1843 0.89989 1.2832-1.8293 0.80618-4.0645-0.71049-4.1015 0.9438-0.0487 2.1786 2.3876 0.72747 2.9915 1.37 2.7406 2.916-0.41977 2.5857-5.7702 3.26-7.881 0.9933zm15.79-3.1477c-0.27743-2.9332 0.0536-5.2755 0.92335-6.5326 1.363-1.9701 4.2996-2.7137 4.2996-1.0888 0 0.47906-0.67267 0.87101-1.4948 0.87101-1.8118 0-1.9775 1.4-0.24914 2.105 0.99656 0.40647 0.99656 0.60972 0 1.0162-0.72078 0.29399-1.2457 2.1292-1.2457 4.3551 0 5.3757-1.7087 4.8203-2.2333-0.72585zm5.2133 3.2562c-1.6333-1.7201 0.19058-3.706 3.7428-4.0755 1.4249-0.1482 2.7976-0.81922 3.0505-1.4912 0.36112-0.95966-0.33446-1.1091-3.2429-0.69655-3.1586 0.44799-3.5264 0.33954-2.5031-0.73808 1.4549-1.5322 5.097-1.6501 6.7355-0.21802 0.65773 0.57487 1.1959 2.6664 1.1959 4.6478 0 3.5822-0.0219 3.6033-3.8738 3.7353-2.373 0.0813-4.3507-0.3696-5.1048-1.1637zm5.7897-0.59959c0.65773-0.57488 1.1959-1.3588 1.1959-1.742 0-1.1443-3.655-0.78864-4.8521 0.4721-1.99 2.0957 1.3744 3.2643 3.6563 1.2699zm6.0594-0.14236c-2.4198-4.6419 2.5217-9.6076 6.6099-6.6422 2.129 1.5444 1.8299 2.8084-0.37921 1.6026-1.0236-0.55872-2.5932-0.77033-3.488-0.47023-2.0482 0.68695-2.1199 4.3845-0.11332 5.84 1.2411 0.90024 1.8898 0.80184 3.6038-0.54661 2.0539-1.6159 2.0838-1.6142 1.7171 0.0975-0.2656 1.24-1.3021 1.8206-3.5966 2.0145-2.6248 0.22186-3.4334-0.13021-4.3537-1.8956zm10.12 0.37382c-1.5381-2.5119-1.2531-4.8382 0.79083-6.4549 2.2888-1.8104 4.5603-1.8355 6.5771-0.0728 2.8054 2.452 1.9236 3.8574-2.4202 3.8574-4.2199 0-4.973 0.81295-2.4492 2.6437 1.1642 0.84451 1.8169 0.87038 2.6907 0.10666 0.6345-0.55457 1.7915-1.0083 2.5712-1.0083 1.1471 0 1.1808 0.24931 0.17695 1.3065-1.799 1.8946-6.6884 1.6616-7.9374-0.37825zm6.9409-4.4397c0-0.4941-0.67268-1.124-1.4948-1.3997-1.9958-0.6694-4.7702 0.31844-3.9906 1.4209 0.81616 1.1542 5.4854 1.1362 5.4854-0.0212zm10.277 3.8199c-1.5185-2.0256-1.5382-2.4813-0.19676-4.5462 1.0457-1.6095 2.2929-2.2847 4.1761-2.2606 2.1647 0.0277 2.6852-0.36211 2.6852-2.0112 0-1.1419 0.44024-1.8077 0.99656-1.5072 0.54811 0.29608 0.99657 3.1954 0.99657 6.4429v5.9046l-3.485 0.11451c-2.7291 0.0897-3.851-0.3738-5.1727-2.1368zm5.6224 0.17493c1.8675-1.9668 0.88897-5.2311-1.6632-5.5483-1.6675-0.20724-2.3647 0.2746-2.8518 1.9711-0.37711 1.3132-0.13422 2.7831 0.58508 3.5406 1.541 1.6229 2.416 1.631 3.93 0.0366zm5.2254-2.35c0.28577-4.2498 0.45216-4.4934 3.2446-4.7501 1.6189-0.14878 3.5248 0.15122 4.2354 0.66665 1.5082 1.094 1.7658 8.563 0.2954 8.563-0.54811 0-0.99656-1.7911-0.99656-3.9802 0-3.6294-0.19763-3.9556-2.2423-3.7018-1.864 0.23137-2.294 0.90283-2.5487 3.9802-0.16854 2.036-0.75254 3.7018-1.2978 3.7018-0.56795 0-0.8627-1.9132-0.69012-4.4796zm8e-3 -15.772 0.2928-6.3149h3.4423c2.6796 0 3.7705 0.50848 4.9235 2.2949 1.3312 2.0625 1.3083 2.5256-0.22648 4.5728-1.0804 1.4417-2.6134 2.2779-4.1756 2.2779-1.804 0-2.4684 0.46887-2.4684 1.742 0 0.95812-0.46809 1.742-1.0402 1.742-0.65385 0-0.93147-2.3455-0.74742-6.3149zm6.7597 0.66458c0.71929-0.75751 0.96219-2.2274 0.58508-3.5406-0.48716-1.6965-1.1843-2.1784-2.8518-1.9711-2.5522 0.3172-3.5308 3.5816-1.6632 5.5484 1.514 1.5944 2.389 1.5862 3.93-0.0366zm-84.697-2.6831c0-4.6083-0.11144-4.8224-2.2423-4.309l-2.2423 0.54023 2.331-1.7727c2.1133-1.6072 2.1856-1.8998 0.77409-3.1335-0.85631-0.74843-2.0839-2.8982-2.7281-4.7773-0.98089-2.8615-0.89088-4.0579 0.55404-7.3647 2.1875-5.0062 3.8318-5.2251 1.7795-0.23692-1.8175 4.4175-1.0428 9.505 1.8295 12.016 1.55 1.3547 1.9375 2.9131 1.9375 7.7906 0 3.4841-0.42709 6.0971-0.99656 6.0971-0.54811 0-0.99656-2.1822-0.99656-4.8493zm6.891 3.4242c-1.2692-1.3629-1.2109-1.4446 0.58316-0.81873 3.0326 1.058 4.7263 1.0408 5.17-0.0524 0.22093-0.54438-0.99681-1.4159-2.7061-1.9366-2.431-0.74068-3.0376-1.3787-2.7858-2.9298 0.39419-2.4281 4.8291-3.1871 6.7572-1.1565 1.1245 1.1842 0.89989 1.2832-1.8293 0.80618-4.0645-0.71049-4.1015 0.9438-0.0487 2.1786 2.3876 0.72748 2.9915 1.37 2.7406 2.916-0.41977 2.5857-5.7702 3.26-7.881 0.9933zm15.79-3.1477c-0.27743-2.9332 0.0536-5.2755 0.92335-6.5326 1.363-1.97 4.2996-2.7137 4.2996-1.0888 0 0.47906-0.67267 0.87102-1.4948 0.87102-1.8118 0-1.9775 1.4-0.24914 2.105 0.99656 0.40647 0.99656 0.60971 0 1.0162-0.72078 0.29399-1.2457 2.1292-1.2457 4.3551 0 5.3757-1.7087 4.8203-2.2333-0.72584zm5.2133 3.2562c-1.6333-1.7201 0.19058-3.706 3.7428-4.0755 1.4249-0.14821 2.7976-0.81923 3.0505-1.4912 0.36112-0.95966-0.33446-1.1091-3.2429-0.69654-3.1586 0.44799-3.5264 0.33953-2.5031-0.73808 1.4549-1.5322 5.097-1.6501 6.7355-0.21803 0.65773 0.57487 1.1959 2.6664 1.1959 4.6478 0 3.5822-0.0219 3.6033-3.8738 3.7352-2.373 0.0813-4.3507-0.3696-5.1048-1.1637zm5.7897-0.59959c0.65773-0.57487 1.1959-1.3588 1.1959-1.742 0-1.1443-3.655-0.78865-4.8521 0.4721-1.99 2.0957 1.3744 3.2643 3.6563 1.2699zm6.0594-0.14236c-2.4198-4.6419 2.5217-9.6076 6.6099-6.6422 2.129 1.5444 1.8299 2.8084-0.37921 1.6026-1.0236-0.55873-2.5932-0.77033-3.488-0.47023-2.0482 0.68694-2.1199 4.3844-0.11332 5.84 1.2411 0.90023 1.8898 0.80184 3.6038-0.54662 2.0539-1.6159 2.0838-1.6142 1.7171 0.0975-0.2656 1.24-1.3021 1.8206-3.5966 2.0145-2.6248 0.22187-3.4334-0.13021-4.3537-1.8956zm10.12 0.37382c-1.5381-2.5119-1.2531-4.8382 0.79083-6.4549 2.2888-1.8104 4.5603-1.8355 6.5771-0.0728 2.8054 2.452 1.9236 3.8574-2.4202 3.8574-4.2199 0-4.973 0.81296-2.4492 2.6437 1.1642 0.84451 1.8169 0.87038 2.6907 0.10665 0.6345-0.55456 1.7915-1.0083 2.5712-1.0083 1.1471 0 1.1808 0.24931 0.17695 1.3065-1.799 1.8946-6.6884 1.6616-7.9374-0.37825zm6.9409-4.4397c0-0.4941-0.67268-1.124-1.4948-1.3997-1.9958-0.66939-4.7702 0.31845-3.9906 1.4209 0.81616 1.1542 5.4854 1.1362 5.4854-0.0212zm10.617 5.5323c-1.0543-0.92147-0.74434-8.989 0.34535-8.989 0.5481 0 0.99656 1.7407 0.99656 3.8682s0.46809 4.121 1.0402 4.4301c1.9308 1.043 3.9426-1.4942 3.9426-4.9722 0-2.0641 0.39665-3.2146 0.99656-2.8905 0.54811 0.29608 0.99657 2.4107 0.99657 4.6992v4.1609l-3.8333 0.13129c-2.1083 0.0722-4.1264-0.12486-4.4845-0.4379zm-64.377-17.207c-0.65262-0.68729-1.0439-2.542-0.86944-4.1216 0.24924-2.2572 0.92615-3.0581 3.162-3.7412 2.4453-0.74711 3.1101-0.58284 4.7337 1.1695 1.0388 1.1213 1.8888 2.7512 1.8888 3.6221 0 3.6232-6.3226 5.8013-8.915 3.0712zm5.9146-0.9166c0.7193-0.75751 0.96219-2.2274 0.58508-3.5406-0.93859-3.2685-4.9332-2.6593-5.3878 0.82173-0.4586 3.5113 2.4739 5.1714 4.8027 2.7189zm4.9936-2.4346v-4.6009l3.7371 0.02805 3.7371 0.02805 0.14394 4.7906c0.0791 2.6348-0.0463 3.8107-0.27899 2.613-1.0423-5.3665-1.4464-6.0971-3.3719-6.0971-1.6754 0-1.9741 0.59324-1.9741 3.9196 0 2.1558-0.44845 3.9196-0.99656 3.9196s-0.99656-2.0704-0.99656-4.6009zm16.942-1.9317c0-3.7744 0.42077-6.5326 0.99656-6.5326 0.54811 0 0.99656 0.9432 0.99656 2.096 0 1.669 0.4071 2.003 1.9984 1.6392 2.8538-0.65226 4.9775 1.2558 4.9775 4.4719 0 3.5297-1.5532 4.8582-5.6804 4.8582h-3.2886zm6.7804 1.8486c-0.22832-2.0507-0.793-2.7196-2.2959-2.7196-1.4577 0-2.0815 0.67651-2.3221 2.5185-0.34788 2.6636 1.2158 4.1634 3.531 3.3868 0.87903-0.29482 1.2785-1.4655 1.0869-3.1857zm4.552 3.3999c-0.95354-2.1718 0.32884-3.7978 3.2312-4.0969 1.4974-0.15432 2.9294-0.83034 3.1823-1.5023 0.36113-0.95966-0.33445-1.1091-3.2429-0.69654-3.1586 0.44799-3.5264 0.33953-2.5031-0.73808 1.2648-1.332 3.7256-1.6165 6.355-0.73455 1.1246 0.37717 1.5759 1.6878 1.5749 4.5728l-1e-3 4.0441-4.0062 0.24017c-2.8573 0.1713-4.1736-0.14095-4.5897-1.0888zm5.0294-0.11561c2.2294-0.7477 1.962-2.9554-0.35795-2.9554-2.1901 0-3.4704 1.3118-2.5502 2.6131 0.72247 1.0217 0.84091 1.0357 2.9082 0.34231zm6.5592-3.2136c0-4.4874 0.0748-4.6093 2.7405-4.4674 3.8458 0.20475 4.0441 0.3731 1.4948 1.2687-1.8056 0.63433-2.2423 1.4717-2.2423 4.2999 0 1.9317-0.44845 3.5121-0.99656 3.5121s-0.99656-2.076-0.99656-4.6133zm11.959 3.3511c0-0.69421 1.5696-2.3086 3.488-3.5874 3.8762-2.5841 4.8941-6.4736 1.6942-6.4736-0.98659 0-2.3245 0.46382-2.9731 1.0307-0.6486 0.56689-1.5224 0.73082-1.9417 0.36429-0.94431-0.82535 2.524-3.137 4.7066-3.137 4.7456 0 5.178 4.5119 0.80991 8.4509l-3.1852 2.8723h3.1852c1.7518 0 3.1852 0.39195 3.1852 0.87101s-2.018 0.87102-4.4845 0.87102c-3.2519 0-4.4845-0.34694-4.4845-1.2622zm-70.756-24.868c0-10.743 0.10221-11.323 1.9931-11.323 1.7795 0 1.9931 0.58068 1.9931 5.4187v5.4187l6.2553-5.4187c4.2351-3.6686 7.0403-5.4187 8.6859-5.4187 2.2202 0 1.9703 0.40728-2.8863 4.7055-3.6065 3.1918-5.0617 5.0831-4.5237 5.8794 0.43625 0.64562 2.732 3.3978 5.1018 6.116 2.3697 2.7182 4.3086 5.1679 4.3086 5.4438 0 0.27592-0.85754 0.50167-1.9056 0.50167-1.2089 0-3.6129-2.0911-6.5752-5.7194-4.4947-5.5052-4.7406-5.6633-6.5651-4.2201-1.3662 1.0806-1.8956 2.6779-1.8956 5.7194 0 3.6394-0.27426 4.2201-1.9931 4.2201-1.8909 0-1.9931-0.58068-1.9931-11.323zm24.914 0c0-9.2931 0.25819-11.323 1.4401-11.323 0.79204 0 4.209 3.5334 7.5932 7.852 3.3842 4.3186 6.548 8.0653 7.0307 8.3261 0.48266 0.26072 0.87757-3.2727 0.87757-7.852 0-6.8203 0.27034-8.3261 1.4948-8.3261 1.2521 0 1.4948 1.8388 1.4948 11.323 0 14.467-0.86572 14.711-9.9656 2.8102l-6.4776-8.4718-0.28523 8.4924c-0.22708 6.7612-0.5826 8.4924-1.744 8.4924-1.2058 0-1.4588-1.9633-1.4588-11.323zm30.113 9.9638c-4.9639-3.0389-6.7632-10.89-3.6871-16.089 3.3066-5.5887 13.081-7.0074 18.597-2.6994 2.8688 2.2404 3.2423 3.0929 3.6188 8.2612 0.41017 5.6301 0.33908 5.8336-3.0836 8.825-3.0491 2.665-4.1337 3.0621-8.3641 3.0621-2.7918 0-5.8059-0.57862-7.0813-1.3594zm11.672-2.0914c4.5849-2.1446 5.1298-10.626 0.93348-14.53-3.1169-2.8999-8.6712-2.8088-11.9 0.19507-1.8698 1.7395-2.416 3.2006-2.416 6.4625 0 3.2619 0.54622 4.7229 2.416 6.4625 2.5602 2.3819 7.5242 3.0201 10.966 1.41zm17.013-6.5659v-10.017h-3.9862c-2.879 0-3.9862-0.36292-3.9862-1.3065 0-1.3029 6.1831-1.8771 14.699-1.365 2.2573 0.13572 3.2388-0.18525 3.2388-1.0591 0-0.85552-0.76351-1.1263-2.4033-0.85231-1.803 0.30124-2.8462-0.18918-4.1761-1.9632-1.5992-2.1332-1.6277-2.5895-0.29158-4.6597 1.153-1.7864 2.2439-2.2949 4.9235-2.2949h3.4423l0.16684 6.7038 0.16684 6.7038-4.1531 0.26432-4.1531 0.26432-0.28177 9.7989c-0.22777 7.9204-0.5621 9.7989-1.744 9.7989-1.2005 0-1.4622-1.793-1.4622-10.017zm9.4673-19.162c0-1.9999-0.4964-2.675-2.1154-2.8769-2.4-0.29929-3.7395 1.7818-2.8044 4.3569 0.40015 1.1019 1.3402 1.5787 2.7631 1.4016 1.6636-0.20714 2.1567-0.86588 2.1567-2.8816zm-87.318 2.732c-2.4198-4.6419 2.5217-9.6076 6.6099-6.6422 2.129 1.5444 1.8299 2.8084-0.37921 1.6026-1.0236-0.55872-2.5932-0.77032-3.488-0.47022-2.0482 0.68694-2.1199 4.3844-0.11332 5.84 1.2411 0.90024 1.8898 0.80184 3.6038-0.54661 2.0539-1.6159 2.0838-1.6142 1.7171 0.09754-0.26559 1.24-1.3021 1.8206-3.5966 2.0145-2.6248 0.22186-3.4334-0.13021-4.3537-1.8956zm10.085-2.732c0-2.6348 0.44846-4.7906 0.99656-4.7906 0.54811 0 0.99657 2.1558 0.99657 4.7906 0 2.6348-0.44846 4.7906-0.99657 4.7906-0.5481 0-0.99656-2.1558-0.99656-4.7906zm4.1833 0.2872c0.2794-4.1773 0.49966-4.5263 3.0418-4.8204 3.141-0.36331 3.7495 1.0509 0.74742 1.737-1.5836 0.36196-1.9931 1.1881-1.9931 4.0212 0 1.9611-0.47189 3.5656-1.0486 3.5656-0.63744 0-0.93052-1.7659-0.74742-4.5034zm7.8294 3.2538c-0.65262-0.6873-1.0439-2.542-0.86944-4.1216 0.39674-3.5929 4.7786-5.4745 7.4044-3.1794 1.0725 0.93739 1.2264 1.5646 0.48262 1.9664-0.60071 0.32449-1.0922 0.14762-1.0922-0.39303 0-0.54065-1.009-0.85775-2.2423-0.70467-1.696 0.21053-2.316 0.94085-2.545 2.998-0.36748 3.3006 2.4786 4.8178 4.5016 2.3997 0.69393-0.82946 1.5545-1.2522 1.9123-0.93947 1.1151 0.97464-1.7579 3.2238-4.118 3.2238-1.236 0-2.7813-0.56233-3.4339-1.2496zm10.595 0.68535c-0.37573-0.3284-0.62701-2.5895-0.5584-5.0248l0.12473-4.4277 0.69231 3.7191c1.2148 6.5259 5.0376 7.339 5.0376 1.0715 0-1.8597 0.44845-3.6235 0.99656-3.9196 0.61698-0.33328 0.99656 1.2381 0.99656 4.1257 0 4.6608-2e-3 4.6641-3.3031 4.8584-1.8167 0.10694-3.6105-0.07426-3.9862-0.40265zm10.279-5.9684c0-3.7744 0.42076-6.5326 0.99656-6.5326 0.57579 0 0.99656 2.7582 0.99656 6.5326s-0.42077 6.5326-0.99656 6.5326c-0.5758 0-0.99656-2.7582-0.99656-6.5326zm4.3341 5.1976c-0.73636-1.6772 1.2106-3.7117 3.8818-4.0566 1.1505-0.14852 2.2764-0.75999 2.5021-1.3588 0.52556-1.3948-2.9551-1.4282-4.5394-0.04355-0.93012 0.81295-1.1959 0.71986-1.1959-0.41891 0-1.5633 4.0163-2.8789 6.3745-2.0879 0.85665 0.28731 1.5314 2.1058 1.7462 4.7059l0.35004 4.2377-4.2743 0.16124c-2.998 0.11309-4.4447-0.22702-4.8452-1.139zm6.4405-1.5058c0.35678-1.6192-1.4283-1.9723-3.6773-0.7273-0.75535 0.41816-1.0499 1.2178-0.6545 1.7769 1.0256 1.4503 3.9363 0.74504 4.3318-1.0496zm6.009-1.2965c-0.26261-6.881 0.27722-9.114 1.8674-7.7242 0.39209 0.34269 0.61354 2.6187 0.49212 5.0578-0.12142 2.4391 0.28537 4.9677 0.90397 5.6192 0.8882 0.93538 0.6799 1.1845-0.9904 1.1845-1.8368 0-2.1359-0.54446-2.273-4.1373zm5.1407-0.65326c0-2.6348 0.44846-4.7906 0.99656-4.7906 0.54811 0 0.99657 2.1558 0.99657 4.7906 0 2.6348-0.44846 4.7906-0.99657 4.7906-0.5481 0-0.99656-2.1558-0.99656-4.7906zm4.1833 0.31102c0.28577-4.2499 0.45216-4.4934 3.2446-4.7501 1.6189-0.14878 3.5248 0.15122 4.2354 0.66665 1.5082 1.094 1.7658 8.563 0.2954 8.563-0.54811 0-0.99656-1.7911-0.99656-3.9802 0-3.6294-0.19763-3.9556-2.2423-3.7018-1.864 0.23138-2.294 0.90283-2.5487 3.9802-0.16854 2.036-0.75254 3.7018-1.2978 3.7018-0.56795 0-0.8627-1.9132-0.69012-4.4796zm-58.994-7.7147c0-0.47906 0.44846-0.87102 0.99656-0.87102 0.54811 0 0.99657 0.39196 0.99657 0.87102s-0.44846 0.87102-0.99657 0.87102c-0.5481 0-0.99656-0.39196-0.99656-0.87102zm54.811 0c0-0.47906 0.44846-0.87102 0.99656-0.87102 0.54811 0 0.99657 0.39196 0.99657 0.87102s-0.44846 0.87102-0.99657 0.87102c-0.5481 0-0.99656-0.39196-0.99656-0.87102zm-38.866-6.5913c0-4.6193-0.10632-4.8219-2.2423-4.2717-2.107 0.54272-2.0796 0.44118 0.45479-1.6833 1.4834-1.2435 2.9408-2.2609 3.2388-2.2609 0.29797 0 0.54177 2.9397 0.54177 6.5326 0 3.7744-0.42077 6.5326-0.99657 6.5326-0.5481 0-0.99656-2.1822-0.99656-4.8493zm11.959 4.229c0-0.34116 1.8546-2.2719 4.1212-4.2905 2.6673-2.3754 3.9088-4.1539 3.5192-5.0413-0.78741-1.7934-4.3008-1.763-5.4599 0.0473-0.52544 0.82065-1.1664 1.0532-1.5209 0.55192-1.0877-1.5382 3.0208-3.9682 5.7114-3.378 4.2845 0.93987 4.2862 3.7637 5e-3 7.5961l-3.7909 3.3928h3.6902c2.0296 0 3.6902 0.39196 3.6902 0.87102s-2.2423 0.87102-4.9828 0.87102c-2.7406 0-4.9828-0.27914-4.9828-0.6203zm253.38 85.327 0.32579-8.4924 0.20857 8.4924 0.20857 8.4924h44.845v-109.75h-44.845l-0.20493 7.6214-0.20492 7.6214-0.33216-7.6214-0.33215-7.6214h-123.75l0.62038 2.8308c0.34121 1.5569 1.9739 3.9087 3.6282 5.2261l3.0079 2.3953h24.4c23.071 0 24.509 0.09486 26.393 1.742 1.9344 1.6907 2.7684 5.2261 1.2329 5.2261-0.41813 0-1.2029-0.8819-1.744-1.9598-0.97254-1.9375-1.2672-1.9654-25.898-2.4487-13.703-0.26889-25.011-0.56286-25.128-0.65326-0.11796-0.09039-1.7933-1.3759-3.723-2.8568l-3.5085-2.6924-2.9907 2.6139c-1.8816 1.6446-4.5044 2.8374-7.0726 3.2167-3.8119 0.5629-4.0382 0.75522-3.4201 2.9075 0.92783 3.231 1.192 3.2974 3.9878 1.0018 3.2352-2.6565 4.5342-1.5211 1.4948 1.3065-3.0901 2.8749-2.2554 3.3406 2.8474 1.5887 2.9503-1.0129 4.5107-1.1675 5.2514-0.52016 0.74061 0.64732-0.084 1.2411-2.7751 1.9984-2.1059 0.59255-5.0923 1.7127-6.6364 2.4893-2.6587 1.3371-2.868 1.3196-3.9476-0.33009-0.627-0.95812-1.2259-2.2086-1.3309-2.7788-0.10498-0.57025-0.72074-2.4401-1.3684-4.1551l-1.1775-3.1183-20.096 0.23556c-19.764 0.23166-20.113 0.268-21.08 2.1953-1.172 2.3349-2.5103 2.5691-2.489 0.43551 0.0491-4.9054 2.9796-5.4439 29.63-5.4439h23.797l2.6601-2.4268c1.4631-1.3347 2.9484-3.6865 3.3007-5.2261l0.64055-2.7993h-67.019v109.75h192.26zm-125.82 0.4355 2e-3 -6.3149 3.1662-0.19493c4.1068-0.25284 5.7989 1.0551 5.7989 4.4825 0 3.2729-1.5284 4.8582-4.6838 4.8582-1.6277 0-2.2921 0.50494-2.2921 1.742 0 0.95812-0.44845 1.742-0.99656 1.742-0.57292 0-0.99572-2.6845-0.99458-6.3149zm6.974-2.1136c0-2.6294-0.28736-2.9803-2.2423-2.7376-1.6371 0.20322-2.331 0.95802-2.5712 2.7969-0.18092 1.3852 0.22687 2.8188 0.90619 3.1857 2.2513 1.2161 3.9073-0.15921 3.9073-3.245zm61.829 7.1664c-0.79017-0.83217-0.87584-1.351-0.22307-1.351 0.58287 0 1.3369 0.39195 1.6757 0.87101 1.0228 1.4465 3.3501 0.9817 4.5017-0.89907 0.97643-1.5946 0.84593-1.7179-1.3165-1.2435-4.2771 0.93824-7.3158-3.8248-4.7246-7.4054 0.50682-0.70034 2.5361-1.3202 4.5095-1.3774l3.588-0.10405-0.2894 6.168-0.28941 6.168-3.0746 0.26223c-1.8716 0.15963-3.5765-0.26638-4.3574-1.0888zm6.3909-5.5834c0.91669-2.5244-0.44119-4.6032-2.8126-4.3061-3.6822 0.46141-3.4356 5.9254 0.26736 5.9254 1.0765 0 2.2219-0.72871 2.5453-1.6193zm5.9584 5.5156c1.8769-1.2409 1.8814-1.4025 0.17061-6.146-2.1315-5.9101-1.4598-7.155 1.0963-2.0318l1.853 3.714 1.3729-3.6358c0.75509-1.9997 1.7496-3.6359 2.2099-3.6359 1.1366 0 1.1303 0.0276-1.3295 5.8019-2.5841 6.0661-3.5309 7.2724-5.6788 7.2357-1.3652-0.0233-1.3168-0.22949 0.3056-1.3021zm9.5329-5.0548v-6.3846l3.5478 0.10289c1.9513 0.0566 3.9624 0.6759 4.4693 1.3762 2.2841 3.1563 0.15904 7.806-3.5676 7.806-1.792 0-2.4563 0.47118-2.4563 1.742 0 0.95812-0.44845 1.742-0.99656 1.742-0.57374 0-0.99656-2.7089-0.99656-6.3846zm5.9338 0.77092c1.8467-1.9448 0.89044-5.2309-1.6129-5.5426-2.6396-0.32866-3.9324 2.4387-2.348 5.0262 1.2842 2.0973 2.3302 2.2337 3.9609 0.51635zm16.423 4.2838c1.8769-1.2409 1.8814-1.4025 0.17061-6.146-2.1315-5.9101-1.4598-7.155 1.0963-2.0318l1.853 3.714 1.3729-3.6358c0.75509-1.9997 1.7496-3.6359 2.2099-3.6359 1.1366 0 1.1303 0.0276-1.3295 5.8019-2.5841 6.0661-3.5309 7.2724-5.6788 7.2357-1.3652-0.0233-1.3168-0.22949 0.3056-1.3021zm-176.77-3.4039c-0.65261-0.68729-1.0439-2.542-0.86944-4.1216 0.39674-3.5929 4.7786-5.4745 7.4044-3.1794 1.0725 0.93738 1.2264 1.5646 0.48262 1.9664-0.60071 0.32449-1.0922 0.14763-1.0922-0.39302s-1.009-0.85775-2.2423-0.70467c-1.696 0.21054-2.316 0.94086-2.545 2.998-0.36748 3.3006 2.4786 4.8178 4.5016 2.3997 0.69393-0.82946 1.5545-1.2522 1.9123-0.93948 1.1151 0.97464-1.7579 3.2238-4.118 3.2238-1.236 0-2.7813-0.56233-3.4339-1.2496zm9.9466-0.43514c-3.2021-5.2294 2.7848-10.533 7.368-6.5277 1.8533 1.6198 2.0633 5.6873 0.37015 7.1672-1.8949 1.6562-6.5689 1.2699-7.7381-0.63955zm5.8988-0.44483c0.65729-0.69222 1.0485-2.1621 0.86944-3.2663-0.24085-1.485-0.97429-2.0077-2.817-2.0077s-2.5762 0.52272-2.817 2.0077c-0.31587 1.9474 1.2888 4.5249 2.817 4.5249 0.41388 0 1.2903-0.56636 1.9476-1.2586zm5.0283-2.4837c0-4.4874 0.0748-4.6093 2.7405-4.4674 3.8458 0.20475 4.0441 0.3731 1.4948 1.2687-1.8056 0.63433-2.2423 1.4717-2.2423 4.2999 0 1.9317-0.44845 3.5121-0.99656 3.5121s-0.99656-2.076-0.99656-4.6133zm7.9725 0.0125v-4.6009l3.7371 0.028 3.7371 0.0281 0.14394 4.7906c0.0791 2.6348-0.0463 3.8107-0.27899 2.613-1.0423-5.3665-1.4464-6.0971-3.3719-6.0971-1.6754 0-1.9741 0.59324-1.9741 3.9196 0 2.1558-0.44845 3.9196-0.99656 3.9196s-0.99656-2.0704-0.99656-4.6009zm11.342 2.3877c-1.3362-1.7824-1.4394-2.6349-0.52987-4.3795 0.62112-1.1915 1.8345-2.4028 2.6963-2.6919 2.3741-0.79626 6.4227 1.1697 6.4227 3.1187 0 1.3746-0.7931 1.7632-4.0373 1.9785-3.8524 0.25558-3.9693 0.34761-2.5521 2.0099 1.2677 1.4869 1.784 1.5826 3.5255 0.65327 2.7395-1.4619 3.5784-1.3735 2.0673 0.21775-1.9378 2.0407-5.7218 1.5888-7.5926-0.90669zm6.596-4.3194c0-0.81294-0.94119-1.3065-2.4914-1.3065s-2.4914 0.49358-2.4914 1.3065c0 0.81295 0.9412 1.3065 2.4914 1.3065s2.4914-0.49358 2.4914-1.3065zm4.1833 2.0292c0.27941-4.1773 0.49967-4.5264 3.0418-4.8204 3.141-0.36331 3.7495 1.0508 0.74742 1.737-1.5836 0.36196-1.9931 1.1881-1.9931 4.0212 0 1.9611-0.47189 3.5656-1.0486 3.5656-0.63744 0-0.93052-1.7659-0.74743-4.5034zm24.068 3.1684c-0.73635-1.6772 1.2106-3.7117 3.8818-4.0566 1.1505-0.14852 2.2764-0.75999 2.5021-1.3588 0.52555-1.3948-2.9551-1.4282-4.5394-0.0436-0.93012 0.81294-1.1959 0.71986-1.1959-0.41892 0-1.5633 4.0163-2.8789 6.3745-2.088 0.85665 0.28733 1.5314 2.1058 1.7462 4.7059l0.35004 4.2377-4.2743 0.16124c-2.998 0.11308-4.4448-0.22702-4.8452-1.139zm6.4405-1.5058c0.35679-1.6193-1.4283-1.9723-3.6773-0.72731-0.75535 0.41816-1.0499 1.2178-0.6545 1.7769 1.0256 1.4503 3.9363 0.74504 4.3318-1.0496zm5.0854 1.4157c-1.2692-1.3629-1.2109-1.4446 0.58316-0.81873 3.0326 1.058 4.7263 1.0408 5.17-0.0524 0.22093-0.54437-0.99681-1.4159-2.7061-1.9366-2.431-0.74068-3.0376-1.3787-2.7858-2.9298 0.39419-2.4281 4.8291-3.1871 6.7572-1.1565 1.1245 1.1842 0.89988 1.2832-1.8293 0.80618-4.0645-0.71049-4.1015 0.9438-0.0487 2.1786 2.3876 0.72748 2.9915 1.37 2.7405 2.916-0.41977 2.5857-5.7702 3.26-7.881 0.9933zm10.543 0.54525c-1.0535-1.4898 0.26619-2.1194 1.9231-0.91747 1.0363 0.75169 1.9939 0.80382 3.2629 0.17762 1.5779-0.77863 1.342-1.053-1.9409-2.258-5.9741-2.1928-3.9357-6.9817 2.2423-5.2679 3.1402 0.8711 2.3234 2.1917-0.99656 1.6114-3.9612-0.69244-3.9056 0.98769 0.0727 2.1998 2.3876 0.72748 2.9915 1.37 2.7405 2.916-0.24563 1.513-1.0673 2.0462-3.4672 2.2498-1.7299 0.14676-3.4565-0.17328-3.8369-0.71122zm16.603-0.20532c-1.5065-1.3167-1.4634-3.5179 0.0956-4.8844 0.68513-0.60056 1.2457-2.3448 1.2457-3.876 0-2.1594 0.46682-2.8424 2.0803-3.0439 3.192-0.39861 4.7216 1.7334 3.2579 4.541-0.91661 1.7583-0.92354 2.5388-0.0294 3.3202 0.89407 0.78144 1.1688 0.77589 1.1688-0.0236 0-0.57487 0.50076-1.0452 1.1128-1.0452 0.62197 0 0.88301 0.76797 0.59183 1.7412-0.28652 0.95765-0.1146 1.9607 0.38205 2.229 1.9859 1.0727 0.6679 1.7001-3.9266 1.8693-2.6559 0.0978-5.3464-0.27459-5.979-0.82746zm5.8258-1.9499c0-1.5325-2.6785-3.3329-3.9426-2.6501-1.4482 0.7823-1.3039 3.7176 0.20549 4.1778 1.8 0.54878 3.7371-0.2431 3.7371-1.5277zm-0.22838-7.2538c0.21696-0.56888-0.31557-1.0343-1.1834-1.0343-0.86783 0-1.5779 0.6206-1.5779 1.3791 0 1.5382 2.1454 1.2703 2.7613-0.34478zm45.985 8.8638c-1.2692-1.3629-1.2109-1.4446 0.58316-0.81873 3.0326 1.058 4.7263 1.0408 5.17-0.0524 0.22093-0.54437-0.99681-1.4159-2.7061-1.9366-2.431-0.74068-3.0376-1.3787-2.7858-2.9298 0.39419-2.4281 4.8291-3.1871 6.7572-1.1565 1.1245 1.1842 0.89988 1.2832-1.8293 0.80618-4.0645-0.71049-4.1015 0.9438-0.0487 2.1786 2.3876 0.72748 2.9915 1.37 2.7405 2.916-0.41977 2.5857-5.7702 3.26-7.881 0.9933zm-90.605-11.101c-4.3179-1.2321-7.9711-5.8325-7.9661-10.032 8e-3 -7.002 7.6116-12.513 14.516-10.521 3.0863 0.89025 6.7269 3.8653 7.631 6.2358 0.63587 1.6673 6.6171-1.7571 9.8405-5.634l3.052-3.6706-2.5733-0.2756c-1.4153-0.15159-2.5733-0.68603-2.5733-1.1876 0-0.51796 1.2921-0.74627 2.9905-0.52842 2.7147 0.34825 3.0818 0.0963 3.9807-2.7319 1.3675-4.3026 1.2481-7.4459-0.415-10.925-2.3735-4.965-12.074-7.8579-13.243-3.9494-0.28667 0.95812-1.1896 1.742-2.0064 1.742-0.9208 0-1.2639-0.50417-0.90275-1.3267 0.84982-1.9356-2.9941-0.02552-4.3261 2.1496-1.0533 1.7201-4.0791 12.242-3.5205 12.242 0.17512 0 1.5928-1.7631 3.1504-3.918 1.5576-2.1549 3.22-3.9187 3.6941-3.9196 0.47413-8.63e-4 0.0605 1.0763-0.91917 2.3937-0.97966 1.3174-3.1614 4.25-4.8483 6.517-1.6869 2.2669-3.3504 4.1287-3.6966 4.1373-0.77875 0.0193-2.2517-14.741-1.5337-15.369 0.28539-0.24943 0.81202 1.4442 1.1703 3.7636 0.91343 5.9133 1.148 6.3124 1.9666 3.3461 2.1409-7.758 2.6904-9.1064 4.5562-11.18 3.8391-4.2658 13.022-4.8363 18.298-1.1367 1.4621 1.0252 3.2382 3.3463 3.9469 5.1581l1.2886 3.2941 4.8809-6.3427 4.8809-6.3427 0.68021 4.3551c1.0322 6.6084 0.97008 11.759-0.14173 11.759-0.54811 0-0.99656-1.2543-0.99656-2.7873 0-3.469-1.267-2.3314-2.8617 2.5695-0.71061 2.1838-1.8012 3.7018-2.6594 3.7018-1.7892 0-1.7897 0.0421 0.04-3.7852 2.154-4.5057 1.9993-6.9057-0.25571-3.9682-0.95558 1.2448-2.298 2.094-2.9831 1.8872-0.83338-0.25156-1.246 0.58501-1.2465 2.5274-2e-3 6.3021-9.6858 19.017-14.484 19.017-0.90795 0-1.4602 0.85609-1.4602 2.2637 0 2.5553-2.5083 7.6261-4.4797 9.0561-2.4888 1.8053-6.9761 2.4112-10.471 1.4138zm8.2738-2.0636 3.1893-1.5243-5.4811-0.43551-5.4811-0.43551 4.348-4.1237c2.6927-2.5539 4.1273-4.6263 3.7684-5.4438-0.78162-1.7803-3.6064-1.6701-5.2342 0.20416-1.114 1.2826-1.3289 1.3103-1.3556 0.17421-0.0815-3.474 4.7315-4.5035 7.9408-1.6985 1.0962 0.95812 1.9931 1.3323 1.9931 0.83143 0-0.50083-1.1008-1.8727-2.4461-3.0486-4.6737-4.0849-12.306-2.2337-15.128 3.6693-2.723 5.696 2.0315 13.355 8.2902 13.355 1.3236 0 3.8417-0.68593 5.5958-1.5243zm4.6689-7.8392c8e-3 -1.5569-0.20896-2.8308-0.48302-2.8308-0.27405 0-2.2665 1.5455-4.4278 3.4344l-3.9295 3.4344 3.6803 0.26738c4.2686 0.31012 5.139-0.4161 5.1599-4.3055zm-79.026 7.607c-4.0468-1.0617-5.5114-2.3795-6.7899-6.1092-0.98486-2.8731-0.84626-3.8209 1.0627-7.2675 2.372-4.2826 7.2138-7.5133 11.26-7.5133 2.2328 0 2.5487-0.42933 3.0232-4.1086 0.86367-6.6972 7.183-10.261 13.866-7.8207 4.314 1.5754 7.2549 6.4461 6.373 10.555-0.67913 3.164-4.8459 6.9782-8.459 7.7432-3.1586 0.66877-8.5993-1.374-10.074-3.7823-2.6847-4.3844-14.164 1.2234-15.53 7.5866-1.4941 6.9608 2.3868 9.8832 13.355 10.056 8.3126 0.13126 10.394-0.83153 14.141-6.5415 3.9906-6.0817 3.7708-6.6608-1.0756-2.8339-2.2412 1.7697-4.3215 3.002-4.623 2.7385-0.525-0.45885 7.8554-7.4682 11.993-10.031 1.845-1.1427 1.9431-1.0816 1.3986 0.87102-0.32205 1.155-0.8963 4.5585-1.2761 7.5633-0.3798 3.0048-1.1185 5.6945-1.6415 5.977-0.58898 0.31816-0.70848-1.4299-0.31393-4.5923l0.63705-5.106-3.2919 5.2261c-3.9921 6.3377-7.7721 8.3054-15.749 8.1984-3.0146-0.0404-6.743-0.40458-8.2853-0.80923zm24.307-18.21c3.9865-3.4843 3.738-10.007-0.47498-12.466-2.2206-1.2959-2.5953-0.53446-2.7798 5.6483-0.18377 6.1584-0.19739 6.1897-0.54954 1.262-0.33911-4.7451-0.49452-5.017-2.5521-4.4646-2.1527 0.57788-2.1487 0.54818 0.22496-1.6976l2.416-2.2857h-2.4434c-3.5284 0-6.5512 2.1698-7.8632 5.6444-0.96249 2.549-0.85669 3.475 0.67116 5.8744 3.6916 5.7976 8.53 6.698 13.351 2.4844zm167.4 15.233c-0.65262-0.68729-1.0439-2.542-0.86944-4.1216 0.39674-3.5929 4.7786-5.4745 7.4044-3.1794 1.0725 0.93737 1.2264 1.5646 0.48261 1.9664-0.6007 0.32448-1.0922 0.14762-1.0922-0.39303s-1.009-0.85775-2.2423-0.70467c-1.696 0.21054-2.316 0.94086-2.5451 2.998-0.36747 3.3006 2.4786 4.8178 4.5016 2.3997 0.69392-0.82946 1.5545-1.2522 1.9123-0.93948 1.1151 0.97464-1.7579 3.2238-4.118 3.2238-1.236 0-2.7813-0.56233-3.4339-1.2496zm10.029-3.1332c-0.11105-4.5416 0.0253-4.8287 2.3736-4.9986 1.3703-0.0991 2.4914 0.20734 2.4914 0.68104 0 0.47369-0.62416 0.86126-1.387 0.86126-0.85187 0-1.7677 1.5963-2.3736 4.1373l-0.98656 4.1373zm6.8601-0.18998c2e-3 -4.5156 0.0417-4.5753 3.1682-4.7678 4.3814-0.26974 5.7989 1.0815 5.7989 5.5277 0 4.8962-1.7814 4.9868-2.185 0.11111-0.25099-3.0319-0.66716-3.7018-2.2996-3.7018-1.6324 0-2.0486 0.66996-2.2996 3.7018-0.43754 5.2855-2.1854 4.5881-2.183-0.87102zm-62.944 1.2182c-2.756-2.1522-3.2352-3.169-3.5919-7.6214-0.3459-4.3173-0.0395-5.614 1.9188-8.1192 3.0855-3.9473 7.01-5.079 11.346-3.2717l3.2839 1.3687 1.0753-2.6961c1.564-3.9212 1.4869-4.0047-3.2633-3.5368-5.2001 0.51228-8.0553-0.66595-10.659-4.3988-3.7771-5.4142-1.4354-12.651 5.2064-16.091 2.4588-1.2732 2.9786-1.2568 6.7049 0.21188 6.5209 2.5701 8.8208 7.1577 7.0503 14.063-0.57288 2.2343-0.91426 4.1543-0.7586 4.2668 0.15564 0.11246 3.0791 0.47121 6.4966 0.79722l6.2136 0.59272-2.0032-4.0846c-2.7422-5.5914-1.6838-5.9055 1.4846-0.44061 1.4164 2.4429 2.998 4.4417 3.5147 4.4417 0.51672 0 1.0906-3.2336 1.2752-7.1859l0.33574-7.1859 0.20284 8.2021c0.11157 4.5111-0.0769 7.9575-0.41893 7.6586-0.34199-0.2989-2.4602 0.98541-4.7071 2.854-4.6897 3.9001-6.4178 3.9099-2.1453 0.0121 1.5644-1.4272 2.6528-2.7495 2.4188-2.9384-0.23411-0.18895-3.447-0.50526-7.1397-0.70292l-6.714-0.35937-1.5704 4.1325c-1.1661 3.0686-1.2977 4.578-0.51104 5.8627 1.5278 2.4951 1.3022 8.489-0.42974 11.416-3.3384 5.6425-9.442 6.7919-14.615 2.7522zm11.333-0.77333c0.93856-0.71985 2.2162-2.6588 2.8393-4.3088 1.1605-3.0733 0.51134-8.9836-0.98669-8.9836-0.45935 0-1.0644-0.76607-1.3445-1.7024-1.0832-3.6205-9.477-3.3321-12.292 0.42224-6.7075 8.9473 3.1781 21.173 11.784 14.573zm-4.0303-7.4718c-0.15956-4.8263-0.27407-5.0384-2.4098-4.4646-2.2138 0.59476-2.2106 0.57238 0.24914-1.7632l2.4914-2.3656 0.30772 3.587c0.16925 1.9728 0.13253 5.0465-0.0816 6.8303-0.2816 2.3458-0.4357 1.8411-0.55687-1.8238zm5.3414-17.313c4.9758-1.9815 7.0189-9.0873 3.9584-13.767l-1.4242-2.1775-0.0353 2.8308c-0.025 2.0051-0.50186 2.8308-1.6348 2.8308-1.2651 0-1.52-0.72846-1.2194-3.4841 0.21647-1.9839-0.0603-3.5238-0.64274-3.5764-3.2887-0.29674-7.2304 0.4286-8.7407 1.6084-2.1846 1.7066-3.6687 6.2685-3.0137 9.2633 0.40189 1.8375 1.0635 2.2858 3.3734 2.2858 3.1127 0 3.883 1.4581 1.2388 2.345-1.4768 0.49533-1.4585 0.66087 0.19047 1.7147 2.2556 1.4416 4.5544 1.478 7.9497 0.12584zm-158.98 26.551c0-0.34116 1.8546-2.2719 4.1212-4.2905 2.6673-2.3754 3.9088-4.1539 3.5192-5.0413-0.78742-1.7934-4.3008-1.763-5.4599 0.0473-0.52545 0.82064-1.1664 1.0532-1.5209 0.55191-1.0877-1.5382 3.0208-3.9682 5.7114-3.378 4.2845 0.93987 4.2862 3.7637 5e-3 7.5961l-3.7909 3.3928h3.6902c2.0296 0 3.6902 0.39196 3.6902 0.87102s-2.2423 0.87102-4.9828 0.87102c-2.7406 0-4.9828-0.27914-4.9828-0.6203zm181.74-7.6544c-3e-3 -4.7906 0.16262-6.8615 0.36717-4.602 0.20454 2.2595 0.20667 6.179 5e-3 8.7102-0.20194 2.5311-0.36929 0.68246-0.37189-4.1081zm15.306-7.3565c-0.3945-1.3185-1.3463-1.7892-3.6183-1.7892-1.6956 0-3.083-0.19507-3.083-0.43349s1.6817-2.4851 3.7371-4.9925l3.7371-4.559 0.31766 3.8867c0.17471 2.1377 0.66222 4.2863 1.0834 4.7748 0.42113 0.48845 0.22473 1.7912-0.43646 2.8951-1.1729 1.9581-1.2152 1.9634-1.7375 0.21775zm0.27464-5.2733c0-1.4372-0.19369-2.613-0.43042-2.613s-1.3884 1.1759-2.5593 2.613l-2.1288 2.6131h2.5593c2.1792 0 2.5593-0.388 2.5593-2.6131zm6.5572 6.2096c-0.84111-1.1895-1.0834-10.413-0.29164-11.105 1.4024-1.2258 2.1323 0.7024 1.9154 5.06-0.12142 2.4391 0.28537 4.9677 0.90397 5.6192 0.86671 0.91276 0.76731 1.1845-0.4333 1.1845-0.85692 0-1.7994-0.34134-2.0944-0.75852zm5.4015-5.8255c0-4.1676 0.36576-6.3865 0.99656-6.0457 0.54811 0.29608 0.99656 1.2166 0.99656 2.0455 0 1.0719 0.79157 1.4973 2.7405 1.4729 2.6469-0.03319 2.745 0.12942 2.8704 4.7563 0.12804 4.7242 0.12113 4.7363-0.49828 0.87101-0.51258-3.1986-1.0406-3.9708-2.8704-4.1979-2.0446-0.2538-2.2423 0.0725-2.2423 3.7018 0 2.1891-0.44845 3.9802-0.99656 3.9802-0.57648 0-0.99656-2.7754-0.99656-6.584zm-129.95-4.3823c-0.83-1.8905 0.39409-3.5007 1.5008-1.9742 1.1224 1.5482 1.1209 3.3593-3e-3 3.3593-0.48947 0-1.1636-0.62331-1.4981-1.3851zm-46.23-16.688 0.28522-8.4924 9.7165-0.2493 9.7165-0.2493v17.483h-20.003zm18.722 2.4885c0-3.7591-0.4001-5.2671-1.4948-5.6343-0.82216-0.27575-1.4948-0.90562-1.4948-1.3997 0-0.4941 0.67268-0.89835 1.4948-0.89835 0.82217 0 1.4948-0.39196 1.4948-0.87102 0-0.47906-1.5696-0.87102-3.488-0.87102h-3.488v6.0971c0 3.4841-0.4271 6.0971-0.99656 6.0971-0.54811 0-0.99657-2.1822-0.99657-4.8493 0-4.6083-0.11143-4.8224-2.2423-4.309l-2.2423 0.54024 2.3527-1.7881 2.3527-1.7881h-8.1933v14.807h16.942zm135.63 2.4534c-0.67853-1.9794-1.4739-4.1461-1.7675-4.8148-0.2936-0.66872-0.0459-1.2159 0.55038-1.2159 0.5963 0 1.379 1.0779 1.7392 2.3953 1.0717 3.919 1.6751 4.1929 2.8005 1.2715 1.3888-3.6052 2.8126-3.6118 3.9182-0.01806l0.88725 2.8839 1.7939-3.4841c2.1079-4.0938 2.4348-2.9427 0.7385 2.6006-1.4649 4.7869-3.0927 5.0319-4.4239 0.66576l-0.9958-3.2663-0.96972 2.9893c-1.3613 4.1964-2.831 4.194-4.2712-7e-3zm13.857-1.2401c0-2.6348 0.44845-4.7906 0.99656-4.7906s0.99656 2.1558 0.99656 4.7906c0 2.6348-0.44845 4.7906-0.99656 4.7906s-0.99656-2.1558-0.99656-4.7906zm5.5606 4.0321c-0.84111-1.1895-1.0833-10.413-0.29163-11.105 1.4024-1.2258 2.1323 0.7024 1.9154 5.06-0.12142 2.4391 0.28536 4.9677 0.90397 5.6192 0.86671 0.91276 0.7673 1.1845-0.43331 1.1845-0.85692 0-1.7994-0.34133-2.0944-0.75852zm4.405-5.2872c0-3.3251 0.44845-6.288 0.99656-6.584 0.56775-0.30669 0.99656 0.44603 0.99656 1.7493 0 1.9091 0.3377 2.194 2.041 1.7215 3.1446-0.87232 4.935 1.0672 4.935 5.346 0 2.0971-0.44845 3.8129-0.99656 3.8129s-0.99656-1.7911-0.99656-3.9802c0-3.6294-0.19763-3.9556-2.2423-3.7018-1.864 0.23138-2.294 0.90283-2.5487 3.9802-0.4988 6.0255-2.185 4.2167-2.185-2.3439zm-88.629-3.8435c-3.5888-6.9911-3.2311-8.3808 3.375-13.112 5.8096-4.1608 7.1832-3.3771 2.0826 1.1883-4.5604 4.0819-5.2251 7.6204-2.355 12.537 1.3777 2.3604 1.6599 3.6621 0.93184 4.2984-0.72809 0.63637-1.9498-0.85118-4.0345-4.9122zm15.88 3.3566c0-1.3549 0.56472-2.1775 1.4948-2.1775s1.4948 0.82263 1.4948 2.1775-0.56472 2.1775-1.4948 2.1775-1.4948-0.82263-1.4948-2.1775zm1.5049-5.6474c-0.34427-0.48687-1.4964-0.88522-2.5603-0.88522s-1.9343-0.58794-1.9343-1.3065c0-1.402 1.1775-1.5905 4.7337-0.75754 1.2332 0.28886 2.2423 1.0443 2.2423 1.6787 0 1.5265-1.6889 2.3912-2.4814 1.2706zm61.278-0.01421c0-0.47906 0.44845-0.87102 0.99656-0.87102s0.99656 0.39196 0.99656 0.87102c0 0.47906-0.44845 0.87102-0.99656 0.87102s-0.99656-0.39196-0.99656-0.87102zm-138.99-0.82732c-0.51006-0.72133 2.3236-2.6568 3.8898-2.6568 1.2861 0 0.44049 2.468-1.0126 2.9554-2.0574 0.69003-2.1878 0.6765-2.8773-0.29862zm23.388-0.80807c0-1.1138 2.9303-3.062 3.6541-2.4294s-1.5052 3.1937-2.7795 3.1937c-0.481 0-0.87454-0.34396-0.87454-0.76436zm96.034-9.2523c-3e-3 -4.7906 0.16262-6.8615 0.36717-4.602 0.20454 2.2595 0.20667 6.179 5e-3 8.7102-0.20221 2.5311-0.36956 0.68246-0.37215-4.1081zm-35.244 6.0874c0-0.80254 0.94952-1.2968 2.4914-1.2968 1.3703 0 2.4914 0.50245 2.4914 1.1165 0 0.6141-1.1211 1.1976-2.4914 1.2968-1.6342 0.11821-2.4914-0.26595-2.4914-1.1166zm-50.077-0.16125-2.7405-0.38021v-19.047h18.935v19.162l-4.7337 0.01189c-2.6035 0.0065-5.6306 0.1516-6.7268 0.32235-1.0962 0.17075-3.2264 0.13937-4.7337-0.06975zm15.198-3.1169c0-1.7902-0.39264-1.9839-3.4-1.677-2.6757 0.27303-3.6385-0.04256-4.5196-1.4814-1.3397-2.1879-0.39522-2.3691 2.0922-0.40162 1.4705 1.1631 2.0834 1.2239 3.3173 0.32886 2.1214-1.5388 1.884-3.576-0.47958-4.1163-2.3226-0.53085-2.6882-1.9944-0.49828-1.9944 0.83046 0 1.4948-0.77424 1.4948-1.742 0-1.9642-2.8572-2.3804-4.7835-0.69681-0.77914 0.68098-1.1959 0.71815-1.1959 0.10665 0-2.0377 2.9376-3.1943 5.5106-2.1696 2.0139 0.80199 2.4619 0.74604 2.4619-0.30745 0-1.0354-1.6602-1.2879-8.4708-1.2879h-8.4708v17.049l8.4708 0.20701c8.2676 0.20205 8.4708 0.15847 8.4708-1.8169zm82.715-8.4708v-11.323l7.2251 0.0128c8.2755 0.01472 11.78 1.2212 13.104 4.511 1.0962 2.7244-1.1674 6.4214-4.6913 7.662-1.2013 0.42292-1.6871 0.7938-1.0796 0.82416 0.60754 0.03036 2.7423 2.211 4.7438 4.8458 3.5 4.6073 3.5531 4.7894 1.3868 4.7591-1.5829-0.02215-3.2939-1.3814-5.7563-4.5728-3.0481-3.9507-3.9878-4.5765-7.2251-4.8117l-3.7212-0.27033v4.8432c0 4.2625-0.23896 4.8432-1.9931 4.8432-1.8909 0-1.9931-0.58068-1.9931-11.323zm13.952-1.6468c1.5546-0.37573 2.6138-1.3437 2.817-2.5742 0.53546-3.2426-1.5259-4.4892-7.4236-4.4892h-5.3591v7.8391l3.7371-0.08682c2.0554-0.04775 4.8582-0.35779 6.2285-0.68897zm-144.25 9.7801c-1.2637-0.44566-1.7786-2.9072-0.60814-2.9072 0.35065 0 1.1473 0.60927 1.7703 1.3539 1.484 1.7739 4.5681 0.74181 4.5681-1.5287 0-1.0323-0.85515-1.9258-2.1198-2.2149l-2.1197-0.48449 2.2631-1.492c1.257-0.82869 1.9517-1.9324 1.5626-2.4825-0.94067-1.3303-4.2919-1.2624-4.8478 0.09824-0.24469 0.59882-0.79441 0.80428-1.2216 0.45656-1.1121-0.90517 1.4195-3.2874 3.4936-3.2874 2.4144 0 4.3275 2.2495 3.6991 4.3496-0.28729 0.96019-0.11599 1.9653 0.38067 2.2336 1.3004 0.70244 1.1115 4.2094-0.29287 5.4369-1.2091 1.0568-4.2419 1.2744-6.5275 0.46836zm8.7199-1.8924c0-1.6165 1.2026-3.6279 2.1691-3.6279 1.3857 0 0.55737 3.7155-0.92336 4.1417-0.68513 0.19721-1.2457-0.034-1.2457-0.5138zm67.766-11.467v-10.452h18.935v20.904h-18.935zm4.3466 8.2747c0.31549-0.71859 1.0362-1.3065 1.6015-1.3065s1.0278 0.58794 1.0278 1.3065c0 1.003 1.2734 1.3065 5.4811 1.3065h5.4811v-19.162h-16.942v9.5812c0 7.6089 0.28576 9.5812 1.3882 9.5812 0.76353 0 1.6464-0.58794 1.9618-1.3065zm4.6224-6.0698c0-3.8762-0.2784-4.6699-1.4948-4.2619-2.3404 0.78495-1.6927-0.82581 1.0279-2.5565l2.4601-1.5649v6.5733c0 3.8015-0.42022 6.5733-0.99656 6.5733-0.54811 0-0.99656-2.1435-0.99656-4.7633zm-79.432-2.4954c-1.3745-0.64796-1.9128-1.4408-1.4361-2.115 0.60034-0.84899 1.1503-0.83065 2.5849 0.08623 2.6231 1.6764 1.6708 3.358-1.1488 2.0287zm-16.238-3.9714c0-1.0158 2.9108-1.9807 4.0762-1.3511 1.7564 0.94878 0.87792 2.129-1.5848 2.129-1.3703 0-2.4914-0.35003-2.4914-0.77783zm351.79 39.974v-54.874h-54.811v6.5326c0 3.7744-0.42077 6.5326-0.99656 6.5326-0.5758 0-0.99656-2.7582-0.99656-6.5326v-6.5326h-119.59v109.75h176.39zm-56.14 53.422c-1.0647-0.93057-0.76509-14.94 0.33219-15.533 0.63783-0.34454 0.99656 2.4588 0.99656 7.7878 0 8.3276-0.0864 8.8312-1.3288 7.7454zm-47.503-9.8715v-7.8392h4.9828c7.5497 0 11.333 3.9575 7.0337 7.3579-1.9131 1.5132-1.9103 1.5646 0.24914 4.4793 1.2015 1.6217 2.4613 2.9534 2.7996 2.9593 0.33832 6e-3 2.0538-3.3208 3.8122-7.3929 1.7584-4.072 3.7569-7.4036 4.4412-7.4036 0.68425 0 2.8512 3.5276 4.8154 7.8392 2.3564 5.1725 3.1486 7.8392 2.3287 7.8392-0.68341 0-1.7534-0.97989-2.3777-2.1775-0.92932-1.7827-1.8423-2.1775-5.0347-2.1775-3.3284 0-3.9912 0.31893-4.5249 2.1775-0.48389 1.6851-1.2672 2.1775-3.4636 2.1775-2.2073 0-3.4247-0.77456-5.4762-3.4841-1.902-2.512-3.3291-3.4841-5.1152-3.4841-2.2258 0-2.4773 0.35371-2.4773 3.4841 0 1.9162-0.44845 3.4841-0.99656 3.4841-0.59056 0-0.99656-3.1937-0.99656-7.8392zm25.911 0.97102c0-0.42405-0.61001-2.039-1.3556-3.5888l-1.3556-2.8178-1.1358 2.8478c-1.5822 3.967-1.4686 4.3299 1.3556 4.3299 1.3703 0 2.4914-0.34697 2.4914-0.77102zm-15.108-3.9152c0.44894-2.0664-1.4248-3.1225-5.5706-3.1396-2.9512-0.0121-3.2388 0.22318-3.2388 2.6498 0 2.5937 0.11025 2.6561 4.2268 2.3953 3.2044-0.20305 4.3129-0.66398 4.5826-1.9055zm-77.572 2.0732v-7.8392h4.9828c7.5497 0 11.333 3.9575 7.0337 7.3579-1.9131 1.5132-1.9103 1.5646 0.24914 4.4793 1.2014 1.6217 2.4613 2.9533 2.7996 2.9593 0.33832 6e-3 2.0538-3.3209 3.8122-7.3929 1.7584-4.072 3.7569-7.4036 4.4412-7.4036 0.68425 0 2.8512 3.5276 4.8154 7.8392 2.3564 5.1725 3.1486 7.8392 2.3287 7.8392-0.68342 0-1.7534-0.9799-2.3777-2.1776-0.92931-1.7827-1.8423-2.1775-5.0347-2.1775-3.3284 0-3.9912 0.31893-4.5249 2.1775-0.48389 1.6851-1.2672 2.1776-3.4636 2.1776-2.2073 0-3.4247-0.77456-5.4762-3.4841-1.902-2.512-3.3291-3.4841-5.1152-3.4841-2.2258 0-2.4773 0.35371-2.4773 3.4841 0 1.9162-0.44845 3.4841-0.99656 3.4841-0.59055 0-0.99656-3.1937-0.99656-7.8392zm25.911 0.97101c0-0.42405-0.61-2.039-1.3556-3.5888l-1.3556-2.8178-1.1358 2.8478c-1.5822 3.967-1.4686 4.3299 1.3556 4.3299 1.3703 0 2.4914-0.34696 2.4914-0.77102zm-15.108-3.9152c0.44894-2.0664-1.4248-3.1225-5.5706-3.1396-2.9512-0.0121-3.2388 0.22318-3.2388 2.6498 0 2.5937 0.11025 2.6561 4.2268 2.3953 3.2043-0.20305 4.3129-0.66399 4.5826-1.9055zm-4.0632-8.0005c-7.6782-3.6413-7.3646-16.377 0.48346-19.638 2.3912-0.99348 10.429-14.71 8.6197-14.71-0.55644 0-0.74638-0.37523-0.4221-0.83382 0.32429-0.45861-1.2238-3.9862-3.4403-7.8391-4.027-7.0003-4.0328-7.0053-8.005-7.0053h-3.9751v-21.775h22.921v21.775h-12.978l4.0085 6.9681c3.8595 6.7092 4.1377 6.9681 7.4853 6.9681h3.4768v-10.452h23.917v20.904h-23.917v-4.7906c0-4.929-0.62838-5.5279-4.454-4.2448-1.3169 0.44168-8.5012 11.343-8.5012 12.9 0 0.23302 1.7109 0.82634 3.802 1.3185 2.0911 0.49214 4.8462 1.8663 6.1225 3.0537 3.0737 2.8597 3.89 9.5601 1.63 13.38-2.9254 4.9444-10.831 6.8399-16.774 4.0216zm11.231-0.82881c7.3239-3.3102 7.7445-13.069 0.7479-17.353-4.9282-3.017-12.912-0.68203-15.39 4.5009-2.3899 4.9992-0.77355 9.442 4.6163 12.689 3.0459 1.8348 6.2128 1.8863 10.026 0.16303zm-11.991-4.5251c0-0.34116 1.8546-2.2719 4.1212-4.2905 2.6673-2.3754 3.9088-4.1539 3.5192-5.0413-0.78741-1.7934-4.3008-1.763-5.4599 0.0473-0.52544 0.82065-1.1664 1.0532-1.5209 0.55192-1.0877-1.5382 3.0208-3.9682 5.7114-3.378 4.2845 0.93987 4.2862 3.7637 5e-3 7.5961l-3.7909 3.3928h3.6902c2.0296 0 3.6902 0.39196 3.6902 0.87102s-2.2423 0.87101-4.9828 0.87101c-2.7405 0-4.9828-0.27913-4.9828-0.62029zm40.859-30.736v-9.5812h-19.931v19.162h19.931zm-8.969 2.2049c0-3.8761-0.2784-4.6699-1.4948-4.2619-2.3404 0.78495-1.6927-0.82581 1.0279-2.5565l2.4601-1.5649v6.5733c0 3.8015-0.42022 6.5733-0.99656 6.5733-0.54811 0-0.99656-2.1435-0.99656-4.7633zm-16.942-26.593v-9.5812h-19.931v19.162h19.931zm-13.952 4.7711c0-0.25023 1.8445-2.2039 4.0988-4.3415 2.522-2.3914 3.8758-4.3944 3.5192-5.2066-0.78075-1.7783-3.5899-1.6702-5.3058 0.20416-1.3166 1.4382-1.3791 1.4311-1.1064-0.1244 0.45226-2.5802 3.1739-3.6617 6.191-2.4602 3.6154 1.4398 3.2603 4.2042-0.99013 7.7079l-3.5589 2.9337h3.5589c1.9574 0 3.5589 0.39196 3.5589 0.87102s-2.2423 0.87102-4.9828 0.87102c-2.7406 0-4.9828-0.20474-4.9828-0.45497zm88.952 53.86c-3.3625-0.59053-8.071-5.179-8.8002-8.5759-0.962-4.4819 0.27489-7.3998 4.6943-11.074l3.9726-3.303-3.1528-4.8163-3.1528-4.8163-5.0722 0.26021c-4.7437 0.24336-5.1238 0.43535-5.8694 2.9643-0.43846 1.4873-1.9727 3.7315-3.4094 4.9872-10.215 8.9278-26.201-3.7344-18.055-14.3 5.7804-7.497 17.223-6.4989 21.038 1.835 1.5476 3.3806 1.7093 3.4673 6.4604 3.4673h4.8731l4.0124-5.8794 4.0124-5.8794-7.8809-0.25298-7.8809-0.25298v-21.705h22.921v21.775h-2.7596c-2.3488 0-3.276 0.80802-6.2285 5.428-4.5215 7.0751-4.4126 6.7508-2.3062 6.8673 1.7377 0.0961 1.7391 0.12097 0.0279 0.50866-0.98953 0.22419-1.6596 0.66867-1.4891 0.98773s1.5482 2.6379 3.0616 5.153c2.4115 4.0076 3.1314 4.5728 5.8242 4.5728 4.1262 0 9.2974 4.5295 10.248 8.9764 1.5924 7.4478-6.6176 14.56-15.09 13.072zm10.306-4.1056c2.6155-2.286 3.3883-3.6865 3.3883-6.1404 0-9.6578-11.664-14.324-18.376-7.351-4.3605 4.5293-3.0244 12.541 2.541 15.237 4.3734 2.1186 8.7236 1.5084 12.447-1.7459zm-10.564-4.8777c-1.2924-2.1106-0.30763-2.2554 2.1451-0.3153 1.4705 1.1631 2.0834 1.2239 3.3173 0.32886 2.1214-1.5388 1.884-3.576-0.47958-4.1163-2.3226-0.53086-2.6882-1.9944-0.49828-1.9944 0.83046 0 1.4948-0.77424 1.4948-1.742 0-1.9642-2.8572-2.3804-4.7835-0.69682-0.77914 0.68098-1.1959 0.71815-1.1959 0.10665 0-2.0892 2.9342-3.1956 5.6287-2.1226 2.1396 0.85207 2.484 1.4469 2.0176 3.4851-0.30931 1.3517-0.0607 2.8962 0.55247 3.4321 0.8221 0.71853 0.81354 1.5524-0.0326 3.1756-1.4685 2.8169-6.5476 3.1024-8.1662 0.45914zm-21.352-16.875c2.7318-2.3877 3.3418-3.5723 3.2516-6.3149-0.20147-6.1211-4.4863-10.199-10.717-10.199-6.9228 0-12.194 6.5689-10.122 12.614 2.4771 7.2262 11.494 9.2257 17.587 3.8999zm-9.5414-5.3083c0-3.8761-0.2784-4.6699-1.4948-4.2619-2.3404 0.78495-1.6927-0.82581 1.0279-2.5565l2.4601-1.5649v6.5733c0 3.8015-0.42022 6.5733-0.99657 6.5733-0.5481 0-0.99656-2.1435-0.99656-4.7633zm38.65-25.505-0.28286-9.3634h-19.931l-0.28286 9.3634-0.28285 9.3634h21.063zm-9.501 7.0445c-1.2637-0.44566-1.7786-2.9072-0.60814-2.9072 0.35065 0 1.1473 0.60927 1.7703 1.3539 1.484 1.7739 4.5681 0.74181 4.5681-1.5287 0-1.0323-0.85515-1.9258-2.1198-2.2149l-2.1197-0.48449 2.2631-1.492c1.257-0.82869 1.9517-1.9324 1.5626-2.4825-0.94066-1.3303-4.2919-1.2624-4.8478 0.09824-0.24469 0.59882-0.79442 0.80428-1.2216 0.45656-1.1121-0.90517 1.4195-3.2874 3.4935-3.2874 2.4144 0 4.3275 2.2495 3.6991 4.3496-0.28729 0.96019-0.11599 1.9653 0.38067 2.2336 1.3004 0.70244 1.1115 4.2094-0.29287 5.4369-1.2091 1.0568-4.242 1.2744-6.5275 0.46836zm19.682 41.515c0-4.6454 0.406-7.8392 0.99656-7.8392 0.59055 0 0.99656 3.1937 0.99656 7.8392s-0.40601 7.8392-0.99656 7.8392c-0.59056 0-0.99656-3.1937-0.99656-7.8392zm0.66437-16.259c-1.0647-0.93057-0.76509-14.94 0.33219-15.533 0.63783-0.34454 0.99656 2.4588 0.99656 7.7877 0 8.3276-0.0864 8.8312-1.3288 7.7454zm22.257-10.307v-3.0486h-6.9759c-3.9862 0-6.9759-0.37329-6.9759-0.87102 0-0.49772 2.9897-0.87102 6.9759-0.87102h6.9759v-14.807h6.5432c9.5933 0 12.35 1.5766 12.376 7.0792 0.02 4.1414-1.7717 5.3328-9.8286 6.5361l-6.5994 0.98555 11.71 0.10322c7.0633 0.06227 11.71 0.44884 11.71 0.97424 0 0.53018-4.4845 0.87102-11.46 0.87102h-11.46v3.0486c0 2.1291-0.45083 3.0486-1.4948 3.0486-1.044 0-1.4948-0.91941-1.4948-3.0486zm14.749-10.191c0.65773-0.57487 1.1959-1.7227 1.1959-2.5508 0-2.7352-2.8584-4.2431-8.0437-4.2431h-4.9116v7.8392h5.2818c2.905 0 5.8199-0.47035 6.4776-1.0452zm-37.006-3.0195c-1.0876-0.95055-0.77514-15.969 0.33219-15.969 0.59444 0 0.99656 3.3389 0.99656 8.2747 0 8.2769-0.0868 8.7795-1.3288 7.694zm26.243-25.087c0-3.8762-0.2784-4.6699-1.4948-4.2619-2.3404 0.78494-1.6927-0.82581 1.0279-2.5565l2.4601-1.5649v6.5733c0 3.8015-0.42022 6.5733-0.99656 6.5733-0.54811 0-0.99656-2.1435-0.99656-4.7633zm14.201 4.1864c-1.2637-0.44566-1.7786-2.9072-0.60814-2.9072 0.35065 0 1.1473 0.60927 1.7703 1.3539 1.484 1.7739 4.5681 0.74181 4.5681-1.5287 0-1.0323-0.85514-1.9258-2.1197-2.2149l-2.1198-0.48449 2.2631-1.492c1.257-0.82868 1.9517-1.9324 1.5626-2.4825-0.94066-1.3303-4.2919-1.2624-4.8478 0.09824-0.2447 0.59882-0.79442 0.80427-1.2216 0.45655-1.1121-0.90516 1.4195-3.2874 3.4935-3.2874 2.4144 0 4.3275 2.2495 3.6991 4.3496-0.28729 0.96019-0.11599 1.9653 0.38066 2.2336 1.3004 0.70244 1.1115 4.2094-0.29287 5.4369-1.2091 1.0568-4.2419 1.2744-6.5275 0.46836zm-40.691-17.937c0.46133-0.86293 0.69792-0.86192 1.1608 0.0052 0.44434 0.83219 7.0202 1.0888 27.904 1.0888l27.322-2.7e-5v-29.615h-689.62v29.616l316.33-0.0061c251.31-0.0044 316.45-0.22856 316.91-1.0896zm-623.27-7.3987c0.55352-0.83835 2.3613-4.2264 4.0174-7.529 1.656-3.3026 3.2158-5.8257 3.4662-5.6068 0.25038 0.21884 1.823 3.297 3.4948 6.8403 1.6717 3.5433 3.5868 6.7463 4.2558 7.1178 0.71835 0.39892-0.1337 0.68086-2.0814 0.68874-1.9673 0.0078-3.0469-0.3412-2.6762-0.86547 0.34178-0.48334 0.33803-1.6592-0.0084-2.6131-0.46443-1.279-1.51-1.7342-3.9834-1.7342s-3.519 0.4552-3.9834 1.7342c-0.34637 0.95383-0.35012 2.1297-0.0084 2.6131 0.34181 0.48334-0.30572 0.87881-1.4389 0.87881-1.6813 0-1.8752-0.28046-1.054-1.5243zm8.9761-4.9674c0-0.21699-0.53163-1.4143-1.1814-2.6608l-1.1814-2.2663-1.2747 2.0075c-1.8167 2.8611-1.6601 3.3141 1.1461 3.3141 1.3703 0 2.4914-0.17754 2.4914-0.39453zm17.014 4.1966c-2.8753-3.1949-2.7028-7.6794 0.39988-10.391 2.0365-1.78 3.3366-2.1278 7.4742-1.9998 4.6656 0.14434 5.0089 0.30799 5.0089 2.3882v2.2332l-1.5514-1.9358c-1.9154-2.3901-6.4544-2.5679-8.7581-0.34297-2.2763 2.1984-2.1732 8.175 0.17316 10.031 2.1581 1.707 6.1836 1.8814 8.1449 0.35275 1.1884-0.92625 1.2-0.86124 0.07728 0.43551-2.1428 2.475-8.4464 2.0321-10.969-0.77073zm17.891 0.57512c-2.7231-2.3801-3.4701-5.6692-1.9947-8.7825 2.31-4.8743 9.1851-5.9165 13.596-2.0611 2.1908 1.9148 2.4856 2.7754 2.0106 5.8705-0.34399 2.2415-1.3839 4.2123-2.7229 5.1599-2.9212 2.0674-8.418 1.9732-10.889-0.1867zm9.9052-0.83591c0.56739-0.92662 1.0316-3.1082 1.0316-4.8479 0-4.5333-1.5185-6.5326-4.9614-6.5326-3.4999 0-6.0008 2.7226-6.0008 6.5326 0 1.4635 0.69811 3.5321 1.5514 4.5968 1.9914 2.4849 6.9209 2.6326 8.3792 0.25107zm9.2034 1.5106c-0.66873-0.58449-1.1959-3.3873-1.1959-6.3584s-0.52714-5.7739-1.1959-6.3584c-0.93012-0.81296-0.65331-1.0456 1.2457-1.047 2.3767-0.0017 2.4327 0.14952 2.1055 5.6986-0.2116 3.5895 0.11037 6.1705 0.86945 6.97 1.7698 1.8638 6.6643 1.6066 7.9023-0.41523 1.4811-2.4189 1.3213-11.133-0.21408-11.675-0.68514-0.24163-0.3488-0.4711 0.74742-0.50992 1.8358-0.06498 1.9666 0.39348 1.6568 5.8106-0.21492 3.7585-0.90011 6.4313-1.8984 7.4055-1.8093 1.7655-8.2016 2.071-10.023 0.47906zm16.244-6.3584v-7.4036h4.0809c5.3862 0 8.2341 2.4585 6.5624 5.6651-0.73299 1.4061-1.9329 2.1647-3.3969 2.1475-2.0171-0.0236-2.0737-0.12317-0.51965-0.9143 3.0109-1.5328 1.5491-6.0273-1.9604-6.0273-0.99862 0-1.249 1.6672-1.0464 6.9691 0.24703 6.4663 0.12244 6.9691-1.7269 6.9681-1.8367-8.71e-4 -1.9931-0.58203-1.9931-7.4047zm14.251 6.3584c0.66873-0.58449 1.1959-3.3873 1.1959-6.3584s-0.52714-5.7739-1.1959-6.3584c-0.93012-0.81296-0.43184-1.0299 2.2423-0.97646 1.891 0.0378 2.8776 0.26647 2.1924 0.5081-0.83941 0.29603-1.2457 2.5463-1.2457 6.8994v6.46h3.2887c1.8088 0 3.8268-0.47035 4.4845-1.0452 0.93012-0.81296 1.1959-0.71617 1.1959 0.43551 0 1.2463-1.0571 1.4807-6.677 1.4807-5.1932 0-6.4112-0.23227-5.4811-1.0452zm15.945 0c1.6437-1.4366 1.6015-12.603-0.0498-13.185-0.68514-0.24163 1.5571-0.47027 4.9828-0.5081 3.4257-0.0378 6.2285 0.23557 6.2285 0.60752 0 0.37196-1.7938 0.52676-3.9862 0.34402-3.9838-0.33206-3.9862-0.3303-3.9862 2.8078 0 2.6959 0.32422 3.14 2.2921 3.14 1.2606 0 2.8302-0.47035 3.488-1.0452 0.93012-0.81296 1.1959-0.65826 1.1959 0.69612 0 1.4772-0.52905 1.6874-3.488 1.3854-3.4172-0.34868-3.488-0.29214-3.488 2.788 0 2.976 0.17559 3.1439 3.2887 3.1439 1.8088 0 3.8268-0.47035 4.4845-1.0452 0.93012-0.81296 1.1959-0.71617 1.1959 0.43551 0 1.2463-1.0571 1.4807-6.677 1.4807-5.1932 0-6.4112-0.23227-5.4811-1.0452zm23.294-0.9707c-3.0397-2.828-2.969-8.345 0.13966-10.897 3.364-2.7622 8.8987-2.5704 11.573 0.40115 4.5675 5.0751 1.1167 12.512-5.8056 12.512-2.6211 0-4.3886-0.6032-5.907-2.0159zm9.5926 0.09969c1.467-1.2822 1.5742-8.0326 0.16425-10.335-1.2627-2.0622-6.1457-2.2652-7.9815-0.33184-0.70657 0.74412-1.2847 3.075-1.2847 5.1797 0 2.1047 0.5781 4.4356 1.2847 5.1797 1.524 1.605 6.1258 1.7861 7.8172 0.30772zm7.6735-5.5244v-7.4406l5.4024 0.25472c3.7507 0.17685 5.5407 0.65416 5.8548 1.5613 0.36514 1.0544 0.19765 1.0964-0.86801 0.21775-0.72624-0.59882-2.5761-1.0888-4.1108-1.0888-2.5406 0-2.7904 0.28135-2.7904 3.143 0 2.9176 0.17867 3.1038 2.4914 2.5964 1.4367-0.31516 2.4914-0.17076 2.4914 0.34109 0 0.48818-1.1682 0.88761-2.5961 0.88761-2.4277 0-2.5714 0.22592-2.2159 3.4841 0.33037 3.0278 0.11571 3.4841-1.6393 3.4841-1.8706 0-2.0195-0.54834-2.0195-7.4406zm20.18 6.8638c0.83762-0.29541 1.2457-2.5318 1.2457-6.8268 0-4.295-0.40808-6.5314-1.2457-6.8268-0.68514-0.24163 0.32388-0.43933 2.2423-0.43933s2.9274 0.1977 2.2423 0.43933c-1.3573 0.47869-1.7551 5.5203-0.43558 5.5203 1.3594 0 6.2401-4.8708 5.5154-5.5043-0.37308-0.32607 0.50018-0.59287 1.9406-0.59287 2.5773 0 2.5547 0.05235-1.4184 3.2916l-4.0373 3.2916 5.0298 4.1121 5.0298 4.1121h-3.5041c-1.9272 0-3.2708-0.32985-2.9858-0.733 0.28507-0.40315-1.0338-2.0479-2.9309-3.6549l-3.4492-2.9219v3.1468c0 1.7308 0.56057 3.3445 1.2457 3.5862 0.68514 0.24163-0.32388 0.43932-2.2423 0.43932s-2.9274-0.1977-2.2423-0.43932zm18.984-0.46836c1.6437-1.4366 1.6015-12.603-0.0498-13.185-0.68513-0.24163 1.5571-0.47027 4.9828-0.5081 3.4257-0.0378 6.2285 0.23557 6.2285 0.60752 0 0.37196-1.7938 0.52676-3.9862 0.34402-3.9838-0.33206-3.9862-0.3303-3.9862 2.8078 0 2.6959 0.32421 3.14 2.2921 3.14 1.2606 0 2.8302-0.47035 3.488-1.0452 0.93012-0.81296 1.1959-0.65826 1.1959 0.69612 0 1.4772-0.52905 1.6874-3.488 1.3854-3.4172-0.34868-3.488-0.29214-3.488 2.788 0 2.976 0.17558 3.1439 3.2886 3.1439 1.8088 0 3.8268-0.47035 4.4845-1.0452 0.93012-0.81296 1.1959-0.71617 1.1959 0.43551 0 1.2463-1.0571 1.4807-6.677 1.4807-5.1932 0-6.4112-0.23227-5.4811-1.0452zm15.646-6.3225v-7.4396h5.7302c4.823 0 5.7178 0.24134 5.6516 1.5243-0.047 0.9106-0.28104 1.0859-0.58133 0.43551-0.27645-0.59882-2.0349-1.0888-3.9076-1.0888-3.227 0-3.4049 0.15933-3.4049 3.0486 0 3.2656 1.3916 3.8574 5.0483 2.1469 1.5801-0.73913 1.9276-0.61365 1.9276 0.69612 0 1.3131-0.62136 1.5344-3.488 1.2419-3.4172-0.34868-3.488-0.29214-3.488 2.788 0 2.976 0.17558 3.1439 3.2886 3.1439 1.8088 0 3.8828-0.48995 4.6091-1.0888 1.0657-0.87869 1.2331-0.83667 0.86764 0.21776-0.32197 0.929-2.1577 1.3798-6.3531 1.5602l-5.9003 0.25366zm15.281 6.6046c0.96978-0.5373 1.2393-2.5366 0.99656-7.3923l-0.33272-6.6559 3.3043 0.0017c4.8532 0.0026 7.1596 1.3865 7.1596 4.2946 0 2.6267-1.4428 3.5466-5.5626 3.5466-2.0786 0-2.4099 0.40912-2.4099 2.976 0 1.6368 0.56056 3.1737 1.2457 3.4153 0.68513 0.24163-0.32389 0.46427-2.2423 0.49476-2.2658 0.03597-3.0222-0.20262-2.1587-0.68106zm8.3898-8.6943c0.67223-2.2468-0.9678-4.4788-3.2909-4.4788-1.5569 0-1.9436 0.60657-1.9436 3.0486 0 2.6313 0.32506 3.0486 2.3752 3.0486 1.4765 0 2.5584-0.61229 2.8594-1.6183zm6.2259 2.0897v-7.4396h5.7302c4.823 0 5.7178 0.24134 5.6516 1.5243-0.047 0.9106-0.28104 1.0859-0.58133 0.43551-0.27645-0.59882-2.0349-1.0888-3.9076-1.0888-3.227 0-3.4049 0.15933-3.4049 3.0486 0 3.2656 1.3916 3.8574 5.0483 2.1469 1.5802-0.73913 1.9276-0.61365 1.9276 0.69612 0 1.3131-0.62135 1.5344-3.488 1.2419-3.4172-0.34868-3.488-0.29214-3.488 2.788 0 2.976 0.17559 3.1439 3.2887 3.1439 1.8088 0 3.8828-0.48995 4.6091-1.0888 1.0657-0.87869 1.2331-0.83667 0.86764 0.21776-0.32197 0.929-2.1577 1.3798-6.3531 1.5602l-5.9003 0.25366zm15.945-0.03589v-7.4036h3.8026c7.1754 0 9.94 3.2999 5.6744 6.7733-1.971 1.6049-1.9623 1.6352 1.3801 4.8245 2.7327 2.6075 3.0233 3.2095 1.5497 3.2095-0.99756 0-3.0761-1.5595-4.6189-3.4655-1.5428-1.906-3.1886-3.4738-3.6573-3.4841-0.46865-0.01019-0.68102 1.5492-0.47194 3.4655 0.33037 3.0278 0.11571 3.4841-1.6393 3.4841-1.8698 0-2.0195-0.5485-2.0195-7.4036zm7.9725-3.4841c0-2.0467-0.486-2.6734-2.2423-2.8914-1.9729-0.24489-2.2423 0.10248-2.2423 2.8914 0 2.7889 0.2694 3.1363 2.2423 2.8914 1.7563-0.21801 2.2423-0.8447 2.2423-2.8914zm8.4708 8.5164v-2.3714l1.5912 1.9856c1.1121 1.3877 2.3873 1.905 4.2354 1.7181 3.9482-0.3994 3.3406-3.0451-1.337-5.8216-6.4665-3.8383-5.6332-7.9466 1.6118-7.9466 3.3122 0 3.8642 0.27264 3.8642 1.9085 0 1.7839-0.085 1.807-1.3015 0.35279-1.541-1.8419-6.0138-1.5974-6.4339 0.35175-0.16506 0.76589 1.5833 2.2888 4.2252 3.6804 3.2733 1.7241 4.5068 2.928 4.5068 4.3986 0 2.9704-1.8575 4.1152-6.677 4.1152-3.9999 0-4.2852-0.15788-4.2852-2.3714zm125.32 1.7945c0.83762-0.29541 1.2457-2.5318 1.2457-6.8268 0-4.295-0.40808-6.5314-1.2457-6.8268-0.68513-0.24163 0.32388-0.43933 2.2423-0.43933s2.9274 0.1977 2.2423 0.43933c-0.68514 0.24163-1.2457 1.7785-1.2457 3.4153 0 2.904 0.0989 2.976 4.0909 2.976h4.0909l-0.38015-3.4841c-0.33037-3.0278-0.11571-3.4841 1.6393-3.4841 1.8698 0 2.0195 0.5485 2.0195 7.4036s-0.14961 7.4036-2.0195 7.4036c-1.755 0-1.9697-0.45623-1.6393-3.4841l0.38015-3.4841h-4.0909c-3.992 0-4.0909 0.07203-4.0909 2.976 0 1.6368 0.56056 3.1737 1.2457 3.4153 0.68513 0.24163-0.32389 0.43932-2.2423 0.43932s-2.9274-0.1977-2.2423-0.43932zm19.383-0.46836c-1.7057-1.4909-1.4786-6.4223 0.37015-8.0382 1.8651-1.6301 4.552-1.7702 6.2072-0.32352 2.3584 2.0613 1.3179 3.3099-2.7583 3.3099-3.6855 0-3.897 0.13314-3.1127 1.9598 0.61971 1.4434 1.6403 1.9587 3.8734 1.9556 2.3191-0.0035 2.7879 0.25278 1.9941 1.0888-1.3166 1.3865-5.0114 1.4134-6.5738 0.04773zm5.1251-7.2722c-0.67809-1.5445-3.4592-1.3669-4.0792 0.26051-0.25954 0.68129 0.53704 1.0888 2.1284 1.0888 1.887 0 2.3903-0.34814 1.9508-1.3493zm5.1395 3.5364c0-3.0213 0.4585-4.9347 1.2457-5.1988 0.68514-0.22979 1.2457 0.0098 1.2457 0.53253 0 0.61527 0.54193 0.55723 1.5371-0.16463 1.1642-0.8445 1.8169-0.87038 2.6907-0.10665 0.6345 0.55457 0.72761 1.0535 0.20691 1.1088-0.5207 0.05522-1.6194 0.15325-2.4416 0.21776-1.9795 0.1553-2.6694 6.6097-0.81638 7.6367 0.90915 0.50385 0.54619 0.7327-1.1767 0.74191-2.3568 0.01263-2.4914-0.24505-2.4914-4.7676zm10.179 4.2416c-0.39138-0.34207-0.71161-3.2772-0.71161-6.5225 0-3.3736-0.47235-6.1557-1.103-6.4963-0.76888-0.41533-0.69342-0.8226 0.24914-1.3446 2.3188-1.2842 2.8469-0.87247 2.8469 2.2193 0 2.7082 0.25558 2.9791 2.6709 2.8308 6.6741-0.40976 6.4556 9.1032-0.2222 9.6762-1.6602 0.14247-3.3388-0.02082-3.7302-0.36293zm5.766-4.2512c0-2.9034-0.33218-3.4841-1.9931-3.4841-1.6383 0-2.0484 0.67106-2.3034 3.7694-0.28828 3.5029-0.14738 3.7492 1.9931 3.4841 1.9684-0.24384 2.3033-0.79189 2.3033-3.7694zm6.7219 3.7846c-1.9152-1.6739-1.504-6.355 0.71218-8.108 4.475-3.5396 10.484 1.3835 7.7669 6.3635-1.4156 2.5947-6.3458 3.609-8.479 1.7445zm6.5329-3.4309c0.19271-2.0045-0.24708-3.5124-1.233-4.2275-2.4282-1.7614-4.5476-0.45585-4.5476 2.8013 0 5.6047 5.2543 6.9011 5.7806 1.4263zm5.6798-2.9571c0-4.8796 0.40007-7.5282 1.1765-7.7886 0.83652-0.28056 1.2685 1.8566 1.4948 7.396 0.26435 6.4686 0.0648 7.7903-1.1765 7.7886-1.2112-0.0017-1.4948-1.4051-1.4948-7.396zm7.6591 6.3362c-1.803-1.5759-1.4205-6.3223 0.641-7.9529 1.0024-0.79284 2.7962-1.4415 3.9862-1.4415 2.2699 0 2.9772-2.0709 1.0608-3.106-0.76888-0.41533-0.69342-0.8226 0.24914-1.3446 2.5684-1.4224 2.8469-0.74528 2.8469 6.9209v7.6964l-3.8014 0.13019c-2.0907 0.0716-4.333-0.3345-4.9828-0.90244zm6.5923-3.3791c0.36313-3.7775-1.8825-6.0166-4.2858-4.2733-1.8056 1.3097-1.965 5.3378-0.26988 6.8193 2.1832 1.9082 4.2378 0.75986 4.5556-2.5461zm11.502 3.0861c-0.66163-1.507 2.2718-4.7463 4.298-4.7463 0.7372 0 1.3404-0.78392 1.3404-1.742 0-2.1437-2.5387-2.2917-3.862-0.22501-0.53424 0.83436-1.2931 1.2358-1.6864 0.89206-1.3271-1.1599 1.8534-3.3719 4.4665-3.1064 2.3166 0.23536 2.6074 0.67947 2.8804 4.3991 0.16856 2.2959 0.79691 4.1373 1.4118 4.1373 2.8984 0-0.80758 1.2819-4.2963 1.4861-2.8168 0.16486-4.1391-0.15313-4.5525-1.0948zm5.4586-1.9838c0.21375-1.2696-0.20611-1.8916-1.277-1.8916-1.829 0-3.0318 2.0689-2.0281 3.4883 1.0302 1.4569 2.9469 0.53089 3.3051-1.5968zm5.6609-1.4561c0-2.6348 0.33634-4.7906 0.74742-4.7906s1.0838-0.09799 1.4948-0.21775c0.41108-0.11976 0.97699 2.036 1.2576 4.7906 0.46706 4.5853 0.3408 5.0083-1.4948 5.0083-1.7659 0-2.005-0.57122-2.005-4.7906zm7.3212 0.43605c0.29513-3.7225 0.0851-4.3556-1.445-4.3556-1.3334 0-1.5022-0.25178-0.66144-0.98668 2.3205-2.0282 4.0516-0.12328 4.4055 4.8478 0.2752 3.866 0.0418 4.8512-1.1495 4.8507-1.1754-5.05e-4 -1.4211-0.93134-1.1495-4.3563zm5.9552 2.1851c-2.0553-3.9426 2.6337-9.7502 6.2814-7.7798 0.79294 0.42832 1.0013-0.20652 0.68541-2.0879-0.29251-1.742 0.0142-2.8604 0.86267-3.1449 1.0179-0.3414 1.3166 1.0182 1.3166 5.9925 0 3.5387 0.25018 7.0039 0.55596 7.7003 0.43387 0.98823-0.44967 1.2839-4.0238 1.3466-3.9226 0.06881-4.7374-0.22205-5.6783-2.0268zm6.6548-3.1293c0-3.2663-0.30086-3.847-1.9931-3.847-1.5286 0-2.067 0.67307-2.3102 2.8877-0.3315 3.0185 1.3294 5.6727 3.2072 5.1256 0.60287-0.17564 1.0961-2.0505 1.0961-4.1663zm14.489 3.3924c-2.7122-2.5444-2.6798-7.5912 0.0684-10.645 1.8254-2.0283 2.7386-2.3083 6.9759-2.1393 4.1475 0.16542 4.8756 0.45619 4.8756 1.9473 0 1.6476-0.0774 1.6603-1.2897 0.21129-0.90587-1.0828-2.3146-1.4564-4.7337-1.2552-2.9358 0.24407-3.6085 0.73133-4.5593 3.3024-1.2125 3.2789-0.29501 7.6989 1.8446 8.8858 1.915 1.0624 6.1717 0.86395 7.7433-0.36093 1.1884-0.92625 1.2-0.86124 0.0773 0.43551-1.9549 2.258-8.428 2.0332-11.002-0.38199zm16.15 0.90032c-1.9152-1.6739-1.504-6.355 0.71217-8.108 4.475-3.5396 10.484 1.3835 7.7669 6.3635-1.4155 2.5947-6.3458 3.609-8.479 1.7445zm6.5329-3.4309c0.1927-2.0045-0.24708-3.5124-1.233-4.2275-2.4282-1.7614-4.5476-0.45585-4.5476 2.8013 0 5.6047 5.2543 6.9011 5.7806 1.4263zm6.8897 3.8975c-0.39138-0.34207-0.71161-3.2772-0.71161-6.5225 0-3.3736-0.47235-6.1557-1.103-6.4963-0.76888-0.41533-0.69342-0.8226 0.24914-1.3446 2.3188-1.2842 2.8469-0.87247 2.8469 2.2193 0 2.7082 0.25558 2.9791 2.6709 2.8308 6.6741-0.40976 6.4556 9.1032-0.2222 9.6762-1.6602 0.14247-3.3388-0.02082-3.7302-0.36293zm5.766-4.2512c0-2.9034-0.33218-3.4841-1.9931-3.4841-1.6383 0-2.0484 0.67106-2.3034 3.7694-0.28828 3.5029-0.14738 3.7492 1.9931 3.4841 1.9684-0.24384 2.3033-0.79189 2.3033-3.7694zm5.9918 3.7018c-0.23279-0.59882-0.55506-3.9272-0.71614-7.3963-0.20624-4.4417 0.0756-6.4304 0.95282-6.723 0.8683-0.28964 1.2457 0.64101 1.2457 3.0718 0 3.2175 0.15426 3.4152 1.9931 2.5551 3.1904-1.4924 5.9794 0.32109 5.9794 3.888 0 1.6256-0.70471 3.5716-1.566 4.3244-1.8668 1.6316-7.2886 1.824-7.8888 0.27997zm7.2635-2.905c0.33266-2.9796-1.8418-5.2213-4.2736-4.4057-0.93236 0.3127-1.5075 1.6238-1.5075 3.4363 0 3.461 0.69961 4.2548 3.447 3.9111 1.4631-0.18304 2.1184-1.0089 2.3342-2.9417zm42.084 2.034c0.0271-1.7502 0.13892-1.7968 1.0461-0.43551 0.59677 0.89552 2.2043 1.5243 3.8971 1.5243 5.4984 0 5.0054-2.8986-1.0044-5.9054-3.1746-1.5883-3.9691-2.485-3.9691-4.4796 0-2.7853 1.4148-3.5512 6.5592-3.5512 3.0434 0 3.4064 0.25272 3.4064 2.3713v2.3714l-1.5513-1.9358c-1.9891-2.4821-6.4212-2.6543-6.4212-0.24954 0 1.0625 1.4862 2.4164 4.0178 3.6599 7.2265 3.5499 6.2593 8.59-1.6484 8.59-3.8687 0-4.3591-0.22185-4.3322-1.9598zm13.922 1.1781c0-0.42993 1.4575-0.7239 3.2388-0.65326 2.8378 0.11253 3.278-0.16892 3.5549-2.2733 0.23798-1.8086-0.21434-2.5732-1.8316-3.0961-1.9282-0.62343-1.986-0.81165-0.56518-1.8422 3.494-2.5345 0.2929-6.6521-3.2775-4.2159-1.4387 0.98166-1.4663 0.93513-0.24995-0.42047 3.0527-3.4021 8.8919-0.74382 6.3084 2.8719-0.85321 1.1941-0.7745 1.7952 0.341 2.6043 2.0023 1.4524 1.8163 4.6342-0.37223 6.3653-1.9163 1.5158-7.1466 1.9987-7.1466 0.65983zm14.912-2.3636c3.6343-3.6178 5.2149-6.7188 4.3864-8.6058-0.69915-1.5924-4.4478-1.7272-6.2658-0.22531-1.0876 0.89852-1.1163 0.74633-0.16425-0.87102 2.1544-3.6599 9.056-1.9289 9.056 2.2713 0 0.47386-1.5666 2.6554-3.4814 4.8479l-3.4814 3.9863h3.4814c1.9148 0 3.4814 0.39196 3.4814 0.87102 0 0.47906-2.2887 0.87102-5.086 0.87102h-5.086zm-315.87-4.9813v-6.3846l3.5478 0.10288c1.9513 0.05662 3.9624 0.6759 4.4693 1.3762 2.2841 3.1563 0.15904 7.806-3.5676 7.806-1.792 0-2.4563 0.47117-2.4563 1.742 0 0.95812-0.44846 1.742-0.99656 1.742-0.57375 0-0.99657-2.7089-0.99657-6.3846zm5.9338 0.77092c1.8467-1.9448 0.89044-5.2309-1.6129-5.5426-2.6396-0.32866-3.9324 2.4387-2.348 5.0262 1.2842 2.0973 2.3302 2.2337 3.9609 0.51636zm-32.861 0.80202c-1.7594-1.8529-0.43184-2.6758 1.5386-0.95366 2.0719 1.8109 3.1756 1.7816 4.2911-0.11406 1.1249-1.9116 0.44388-3.7018-1.4082-3.7018-1.9076 0-1.7774-0.87843 0.33219-2.2406 1.4153-0.91392 1.5045-1.3383 0.4734-2.2518-1.0386-0.92012-1.6476-0.9198-3.3359 0.0017-2.6292 1.4351-3.4602 0.77781-1.3492-1.0672 3.252-2.8423 6.6568-1.1564 7.1124 3.5217 0.56624 5.8142 0.46888 6.6529-0.85772 7.3884-2.0679 1.1465-5.4284 0.85841-6.7967-0.58261zm17.016 0.07796c-0.65261-0.68729-1.0439-2.542-0.86944-4.1216 0.39675-3.5929 4.7786-5.4745 7.4044-3.1795 1.0725 0.93739 1.2264 1.5646 0.48261 1.9664-0.60071 0.32449-1.0922 0.14763-1.0922-0.39303 0-0.54065-1.009-0.85775-2.2423-0.70466-1.696 0.21052-2.316 0.94086-2.5451 2.998-0.36747 3.3006 2.4786 4.8178 4.5016 2.3997 0.69393-0.82945 1.5545-1.2522 1.9123-0.93947 1.1151 0.97464-1.7579 3.2238-4.118 3.2238-1.236 0-2.7813-0.56234-3.434-1.2496zm20.874-5.283c0-3.7744 0.42077-6.5326 0.99656-6.5326s0.99656 2.7582 0.99656 6.5326c0 3.7744-0.42077 6.5326-0.99656 6.5326s-0.99656-2.7582-0.99656-6.5326zm10.458 5.6528c-1.0534-1.4898 0.26619-2.1194 1.9231-0.91748 1.0363 0.7517 1.9939 0.80383 3.2629 0.17761 1.5779-0.77862 1.342-1.053-1.9409-2.258-5.9741-2.1928-3.9357-6.9817 2.2423-5.2679 3.1402 0.8711 2.3234 2.1917-0.99656 1.6114-3.9612-0.69244-3.9056 0.98769 0.0728 2.1998 2.3876 0.72747 2.9915 1.37 2.7405 2.916-0.24563 1.513-1.0673 2.0462-3.4672 2.2498-1.7299 0.14676-3.4565-0.17329-3.8369-0.71121zm10.505-0.8049c-1.5381-2.5119-1.2531-4.8382 0.79083-6.4549 2.2888-1.8104 4.5603-1.8355 6.5771-0.07282 2.8054 2.452 1.9236 3.8574-2.4202 3.8574-4.2199 0-4.973 0.81295-2.4492 2.6437 1.1642 0.84451 1.8169 0.87038 2.6907 0.10666 0.6345-0.55457 1.7915-1.0083 2.5712-1.0083 1.1471 0 1.1808 0.24931 0.17694 1.3065-1.799 1.8946-6.6884 1.6616-7.9374-0.37825zm6.9409-4.4397c0-0.49409-0.67268-1.124-1.4948-1.3997-1.9958-0.66939-4.7702 0.31844-3.9906 1.4209 0.81617 1.1542 5.4854 1.1362 5.4854-0.02117zm4.8249 1.9871c-0.26261-6.881 0.27723-9.114 1.8674-7.7242 0.39209 0.3427 0.61354 2.6187 0.49212 5.0578s0.28537 4.9677 0.90397 5.6192c0.8882 0.93538 0.67991 1.1845-0.9904 1.1845-1.8368 0-2.1359-0.54446-2.273-4.1373z" stroke-width=".93168"/>
</svg>
