<?xml version="1.0" encoding="UTF-8"?>
<!-- Created with Inkscape (http://www.inkscape.org/) -->
<svg width="708" height="312" version="1.1" viewBox="0 0 708 312" xmlns="http://www.w3.org/2000/svg" xmlns:cc="http://creativecommons.org/ns#" xmlns:dc="http://purl.org/dc/elements/1.1/" xmlns:rdf="http://www.w3.org/1999/02/22-rdf-syntax-ns#">
 <metadata>
  <rdf:RDF>
   <cc:Work rdf:about="">
    <dc:format>image/svg+xml</dc:format>
    <dc:type rdf:resource="http://purl.org/dc/dcmitype/StillImage"/>
    <dc:title/>
   </cc:Work>
  </rdf:RDF>
 </metadata>
 <path d="m3.5331 157.97v-148.5h695v297h-695zm334 81.5v-63h-178v2.4233c0 4.8244 6.4643 10.32 15.5 13.178 2.2 0.69576 3.1 1.2907 2 1.3222-3.5316 0.10087-11.913-4.4908-15.357-8.413-3.4697-3.9517-3.5246-3.9459-6.1678 0.65708-1.2093 2.1059-12.599 7.8548-15.385 7.7656-1.2357-0.0395-0.45492-0.58409 1.9097-1.3319 9.0357-2.8576 15.5-8.3535 15.5-13.178v-2.4233h-152v126h332zm-97 56c0-2.75 0.45-5 1-5s1 2.25 1 5-0.45 5-1 5-1-2.25-1-5zm-187 1.3144c0-0.37705 1.0125-1.7991 2.25-3.1601 2.0879-2.2963 2.1059-2.4188 0.25-1.701-4.1177 1.5927-5.5 1.7473-5.5 0.61504 0-0.6407 1.4625-1.8006 3.25-2.5775l3.25-1.4126-3.75-0.0391c-2.0625-0.0215-3.75-0.42797-3.75-0.90322 0-1.0266 7.4163-2.1494 13.89-2.1027l4.6104 0.0332-6.5 5.9335c-6.1865 5.6473-8 6.852-8 5.3144zm161.3-2.2146c-6.5323-4.1042-8.1622-13.423-3.2603-18.641l2.2022-2.3442-3.1202-3.7854c-4.4125-5.3531-3.8357-6.719 0.6596-1.562 3.5572 4.0807 3.871 4.2237 7.165 3.2639 8.2054-2.3908 17.055 4.1045 17.055 12.518 0 3.6836-0.59284 5.1268-3.3352 8.1193-2.8985 3.1628-4.0443 3.692-8.75 4.041-4.1882 0.31064-6.1399-0.054-8.6162-1.6098zm13.804-1.3872c6.7524-4.5454 7.5189-11.827 1.8198-17.288-2.5981-2.4891-3.8513-2.9252-8.407-2.9252-4.2731 0-5.8688 0.48386-7.9053 2.397-5.8934 5.5365-5.1561 13.97 1.5802 18.077 4.3431 2.6479 8.7218 2.5592 12.912-0.2617zm-7.8521-1.375c-1.268-0.51166-1.7847-3.3377-0.61024-3.3377 0.35186 0 1.1512 0.69949 1.7764 1.5544 1.4892 2.0365 4.5839 0.85165 4.5839-1.755 0-1.1852-0.8581-2.211-2.1271-2.5429l-2.1271-0.55624 2.2709-1.7129c1.2613-0.95141 1.9584-2.2185 1.568-2.8502-0.94391-1.5273-4.3067-1.4493-4.8646 0.11279-0.24554 0.6875-0.79716 0.92337-1.2258 0.52417-1.1159-1.0392 1.4244-3.7742 3.5056-3.7742 2.4227 0 4.3424 2.5826 3.7119 4.9937-0.28828 1.1024-0.11639 2.2563 0.38198 2.5643 1.3049 0.80646 1.1153 4.8328-0.29388 6.242-1.2133 1.2133-4.2566 1.4631-6.55 0.53772zm32.765 2.4713c-4.6271-3.1451-6.1916-6.3553-5.6702-11.635 1.0653-10.789 15.194-15.617 22.608-7.725l2.3035 2.452 5.8722-3.9877c3.2297-2.1933 5.8722-3.5847 5.8722-3.0921 0 0.49262-2.363 2.4646-5.2512 4.3822l-5.2512 3.4866 0.34198 5.0706c0.31058 4.6052 0.0275 5.4137-3.0841 8.8091-2.983 3.255-4.1264 3.7947-8.8408 4.1735-4.4932 0.36097-6.008 0.0318-8.9002-1.9341zm13.748-0.80595c4.0065-2.4428 6.7555-7.8014 5.851-11.405-0.36073-1.4373-1.9595-4.0723-3.5529-5.8555-2.6022-2.9124-3.4567-3.2423-8.3984-3.2423-4.4289 0-5.9989 0.46732-8.053 2.397-5.8934 5.5365-5.1561 13.97 1.5802 18.077 4.1921 2.5559 8.4124 2.5655 12.573 0.0287zm-10.763-3.4522c0-0.79701 1.575-2.6504 3.5-4.1187 3.8896-2.9667 4.911-7.4322 1.7-7.4322-0.99 0-2.3325 0.5325-2.9833 1.1833-0.65084 0.65084-1.5276 0.83904-1.9484 0.41824-0.94757-0.94757 2.5327-3.6016 4.7229-3.6016 4.762 0 5.1959 5.1801 0.8127 9.7024l-3.1962 3.2976h3.1962c1.7579 0 3.1962 0.45 3.1962 1s-2.025 1-4.5 1c-3.2631 0-4.5-0.39831-4.5-1.4491zm-212.78 4.2833c0.24184-0.73378 1.4671-1.4845 2.7228-1.6683 1.5513-0.22704 2.1421 0.0935 1.8433 1-0.24184 0.73378-1.4671 1.4845-2.7228 1.6683-1.5513 0.22704-2.1421-0.0935-1.8433-1zm-13.159-2.586c-1.3717-1.1107-1.952-2.1956-1.3677-2.5567 1.3937-0.86133 4.6822 1.691 4.1677 3.2346-0.30084 0.90253-1.0817 0.71349-2.7999-0.67786zm73.942-0.74811c0-0.93333 0.94444-1.5 2.5-1.5s2.5 0.56667 2.5 1.5-0.94444 1.5-2.5 1.5-2.5-0.56667-2.5-1.5zm-13.25-0.18933c-0.9625-0.25152-1.75-1.1475-1.75-1.991 0-0.98766 0.56313-1.3176 1.5818-0.92668 0.86999 0.33385 1.995 0.60699 2.5 0.60699 0.50502 0 0.91822 0.675 0.91822 1.5 0 1.5386-0.23768 1.5979-3.25 0.81067zm27.89-4.0038c-0.87384-0.87385 1.3204-3.3068 2.9823-3.3068 0.75766 0 1.3776 0.43417 1.3776 0.96482 0 1.2497-3.5469 3.155-4.3598 2.342zm-51.64-16.307v-14h26v28h-26zm9.3616 10.5c-0.72402-1.8868 0.56048-1.8735 3.0795 0.0318 1.1407 0.8628 4.1302 1.4682 7.25 1.4682h5.3089l-8e-3 -10.75c-8e-3 -10.691-0.0225-10.757-2.6994-12-1.5449-0.71747-6.6539-1.25-11.992-1.25h-9.3006v3.0657c0 1.6862 0.48847 3.9785 1.0855 5.094 1.0796 2.0172 1.0987 2.0159 3.5-0.24005l2.4145-2.2683-0.18909 7.9243c-0.1651 6.919-0.23486 7.1949-0.5499 2.1743-0.19845-3.1625-0.61244-5.75-0.91997-5.75s-1.6273 1.0125-2.9328 2.25c-1.8423 1.7463-2.3775 3.3133-2.391 7l-0.0173 4.75h4.4686c3.5613 0 4.3517-0.30458 3.893-1.5zm-56.886-0.57536c-0.36228-1.1414-0.35581-2.3782 0.01437-2.7484 0.87333-0.87333 3.6106 2.8512 2.9185 3.9711-0.91651 1.4829-2.2507 0.92675-2.9329-1.2227zm7.5239-0.63679c0-0.39168 1.8609-2.6083 4.1354-4.9258 2.6765-2.7272 3.9223-4.769 3.5314-5.7879-0.79012-2.059-4.3156-2.0241-5.4788 0.0543-0.52726 0.94217-1.1704 1.2092-1.5261 0.63364-1.0915-1.766 3.0313-4.5559 5.7311-3.8783 4.2993 1.079 4.301 4.3211 0.0046 8.721l-3.8036 3.8952h3.7029c2.0366 0 3.7029 0.45 3.7029 1s-2.25 1-5 1-5-0.32047-5-0.71215zm85-1.2878c-1.2968-2.4232-0.30869-2.5893 2.1525-0.36199 1.4756 1.3354 2.0906 1.4051 3.3287 0.37756 2.1287-1.7666 1.8905-4.1056-0.48124-4.7258-2.3306-0.60947-2.6975-2.2898-0.5-2.2898 0.83333 0 1.5-0.88889 1.5-2 0-2.255-2.8671-2.7329-4.8-0.8-0.78182 0.78182-1.2 0.82449-1.2 0.12244 0-2.3985 2.9443-3.6689 5.6481-2.4369 2.147 0.97825 2.4926 1.6611 2.0246 4.0012-0.31038 1.5519-0.0609 3.325 0.55438 3.9403 0.82494 0.82494 0.81635 1.7823-0.0327 3.6458-1.4735 3.234-6.5702 3.5619-8.1943 0.52713zm17.648-2.761c-0.7435-1.203 2.104-4.5105 3.2653-3.7928 0.71171 0.43986 0.65609 1.2709-0.17402 2.6001-1.2866 2.0602-2.3109 2.4553-3.0913 1.1926zm110.35-7.739c0-5 0.41176-8.5 1-8.5s1 3.5 1 8.5-0.41176 8.5-1 8.5-1-3.5-1-8.5zm-222.35-1.2583c-0.93989-1.5208 0.31584-4.2417 1.9576-4.2417 1.7546 0 1.7692 1.1033 0.04565 3.4604-0.84847 1.1604-1.5902 1.4497-2.0032 0.78137zm193.35-10.242v-9h5c7.6046 0 11.371 4.5443 7.0257 8.4767-1.9168 1.7347-1.9216 1.863-0.16396 4.405 3.1075 4.4944 3.3306 5.1183 1.8302 5.1183-0.78437 0-2.6173-1.8-4.0732-4-1.9085-2.884-3.3406-4-5.1329-4-2.2334 0-2.4858 0.40609-2.4858 4 0 2.2-0.45 4-1 4-0.59259 0-1-3.6667-1-9zm10.84-3.3802c0.45049-2.3724-1.4298-3.5849-5.5898-3.6045-2.9614-0.0139-3.25 0.25623-3.25 3.0422 0 2.9777 0.11063 3.0495 4.2414 2.75 3.2154-0.23312 4.3277-0.76231 4.5984-2.1877zm52.16 2.3802c0-5.3333 0.40741-9 1-9 0.58333 0 1 3.3333 1 8v8h4.5c2.475 0 4.5 0.45 4.5 1s-2.475 1-5.5 1h-5.5zm-142.39 4.4182c-1.499-3.9064 0.37602-4.187 2.4228-0.36252 0.80485 1.5039 0.71704 1.9443-0.38764 1.9443-0.7855 0-1.7013-0.7118-2.0352-1.5818zm-72.164-2.8364c-1.0668-0.78003-1.6413-1.7165-1.2768-2.081 0.84279-0.84279 4.8341 1.2498 4.8341 2.5344 0 1.3633-1.2992 1.1977-3.5573-0.45342zm136.56-11.082v-11.5h-4c-2.8889 0-4-0.41667-4-1.5 0-1.2333 1.7778-1.5 10-1.5 8.0451 0 10 0.282 10 1.4425 0 0.98216-1.3563 1.5406-4.25 1.75l-4.25 0.3075-0.28275 11.25c-0.22855 9.0932-0.56404 11.25-1.75 11.25-1.2046 0-1.4672-2.0585-1.4672-11.5zm-167.76 9.25c0.48933-1.4858 4.755-2.317 4.755-0.92654 0 0.96982-2.3092 2.1765-4.1651 2.1765-0.55085 0-0.8163-0.5625-0.58988-1.25zm230.76-10.25v-11.5h-4c-2.8889 0-4-0.41667-4-1.5 0-1.2333 1.7778-1.5 10-1.5s10 0.26667 10 1.5c0 1.0833-1.1111 1.5-4 1.5h-4v11.5c0 10.833-0.11594 11.5-2 11.5s-2-0.66667-2-11.5zm-158 8.607c0-0.89317 2.3515-2.107 4.0818-2.107 0.50501 0 0.91821 0.675 0.91821 1.5 0 0.93333-0.94444 1.5-2.5 1.5-1.375 0-2.5-0.40186-2.5-0.89301zm17.75 0.14375c-2.6458-0.60081-2.096-2.2507 0.75-2.2507 1.375 0 2.5 0.42344 2.5 0.94098 0 1.3032-1.1817 1.7794-3.25 1.3098zm-75.75-1.2507c0-0.55 1.125-1 2.5-1s2.5 0.45 2.5 1-1.125 1-2.5 1-2.5-0.45-2.5-1zm250.5-11 5.9374-6h-11.437v-27h29v27h-15.563l-5.9374 6c-3.2656 3.3-6.3874 6-6.9374 6s1.6718-2.7 4.9374-6zm21.5-20v-12h-25v24h25zm-15.75 9.3377c-1.268-0.51166-1.7847-3.3377-0.61024-3.3377 0.35186 0 1.1512 0.69949 1.7764 1.5544 1.4892 2.0365 4.5839 0.85165 4.5839-1.755 0-1.1852-0.8581-2.211-2.1271-2.5429l-2.1271-0.55624 2.2709-1.7129c1.2613-0.95141 1.9584-2.2185 1.568-2.8502-0.94391-1.5273-4.3067-1.4493-4.8646 0.11279-0.24554 0.6875-0.79716 0.92337-1.2258 0.52417-1.1159-1.0392 1.4244-3.7742 3.5056-3.7742 2.4227 0 4.3424 2.5826 3.7119 4.9937-0.28828 1.1024-0.11639 2.2563 0.38198 2.5643 1.3049 0.80646 1.1153 4.8328-0.29388 6.242-1.2133 1.2133-4.2566 1.4631-6.55 0.53772zm-59.25 6.1623c0-5 0.41176-8.5 1-8.5s1 3.5 1 8.5-0.41176 8.5-1 8.5-1-3.5-1-8.5zm-176.42 1.9895c-3.6355-2.4671-3.7907-2.484-8.977-0.97629-11.911 3.4628-27.094 1.2566-32.073-4.6605-6.6602-7.9152 0.59332-22.068 15.557-30.355 4.8886-2.7072 6.2851-2.9977 14.413-2.9977 7.7059 0 9.8353 0.39134 14.809 2.7217 7.8892 3.6963 15.709 11.901 20.039 21.025 1.8932 3.9896 4.2935 8.0241 5.334 8.9656 3.8954 3.5251 9.5886 5.1268 18.384 5.1724 7.5433 0.039 9.274-0.30947 14.5-2.92 11.894-5.941 13.696-15.597 5.0555-27.086-4.0209-5.3465-8.5778-8.2675-14.969-9.595-4.6828-0.97267-5.7899-0.81794-12.152 1.6984-9.2412 3.655-9.9561 4.5242-3.1424 3.8209 3.6933-0.38119 5.6424-0.21397 5.6424 0.48407 0 0.87488-16.483 2.2839-17.859 1.5266-0.19734-0.10861 2.2777-2.6821 5.5-5.7189l5.8588-5.5214-38 0.02c-40.71 0.0214-43.858 0.35522-46.275 4.9071-0.94964 1.7885-1.2416 1.961-1.0261 0.60598 0.16572-1.0417 1.5714-2.8417 3.1238-4 2.7933-2.0842 3.4292-2.1064 61.5-2.1456 32.273-0.0218 50.547 0.10054 40.609 0.27185l-18.068 0.31148-3.9316 4.035-3.9316 4.035 7.4446-3.163c9.3296-3.9638 16.148-3.8446 23.407 0.40946 8.4434 4.9481 14.355 16.931 12.566 25.47-2.2119 10.557-20.985 17.199-36.151 12.79-7.4855-2.1761-10.968-5.3174-14.673-13.234-4.0091-8.5672-7.8266-13.283-14.317-17.686-10.641-7.2188-21.761-8.2847-32.476-3.1131-10.262 4.9529-19.182 16.9-17.864 23.926 1.6805 8.9576 17.971 13.088 33.326 8.4496l4.2629-1.2877-0.61395-4.6282c-0.79909-6.0238 1.3957-11.35 5.7779-14.022 6.5863-4.0156 15.52-1.3584 18.37 5.4642 5.4252 12.984-7.6462 24.691-18.981 17zm12.154-0.16746c4.3076-2.0441 7.6994-8.6916 6.6494-13.032-1.788-7.3915-8.2994-11.463-14.866-9.2956-5.7337 1.8923-9.5339 9.2002-7.5279 14.476 0.83474 2.1955 1.3006 2.4446 2.9359 1.5694 3.1517-1.6867 3.7745-1.1492 1.0752 0.928-2.7547 2.1198-2.3843 2.9293 2.5 5.4631 3.7942 1.9683 4.8826 1.9554 9.2338-0.10934zm-4.7338-5.8894c0-5.3034-0.1067-5.5359-2.25-4.9043-2.1143 0.62309-2.0868 0.50651 0.45635-1.9326 1.4885-1.4276 2.951-2.5957 3.25-2.5957 0.29901 0 0.54365 3.375 0.54365 7.5 0 4.3333-0.42223 7.5-1 7.5-0.55 0-1-2.5053-1-5.5674zm108.26 3.0636c-3.714-4.8089-4.6831-5.4962-7.75-5.4962h-3.5052v-24h26v24h-17.241l3.4412 4.25c4.2216 5.2138 5.1579 6.7511 4.1088 6.7462-0.44496-2e-3 -2.7192-2.4771-5.0538-5.5zm12.745-17.496v-10h-23v20h23zm-18 6.4777c0-0.28729 1.8508-2.5303 4.113-4.9844 2.5307-2.7455 3.8892-5.0451 3.5314-5.9777-0.78345-2.0416-3.6023-1.9175-5.3241 0.2344-1.3211 1.6511-1.3838 1.6431-1.1102-0.14282 0.45382-2.9623 3.1848-4.2039 6.2123-2.8245 3.6278 1.653 3.2715 4.8268-0.99354 8.8493l-3.5712 3.3681h3.5712c1.9642 0 3.5712 0.45 3.5712 1s-2.25 1-5 1-5-0.23505-5-0.52234zm-142 5.8102c0-0.39168 1.8609-2.6083 4.1354-4.9258 2.6765-2.7272 3.9223-4.769 3.5314-5.7879-0.79012-2.059-4.3156-2.0241-5.4788 0.0543-0.52726 0.94217-1.1704 1.2092-1.5261 0.63364-1.0915-1.766 3.0313-4.5559 5.7311-3.8783 4.2993 1.079 4.301 4.3211 0.0046 8.721l-3.8036 3.8952h3.7029c2.0366 0 3.7029 0.45 3.7029 1s-2.25 1-5 1-5-0.32047-5-0.71215zm78.98-3.812c-1.7655-2.1273-0.43333-3.0721 1.5439-1.0949 2.0791 2.0791 3.1866 2.0454 4.3059-0.13095 1.1288-2.1947 0.44541-4.25-1.413-4.25-1.9142 0-1.7835-1.0085 0.33333-2.5724 1.4202-1.0493 1.5097-1.5365 0.47504-2.5852-1.0422-1.0564-1.6533-1.056-3.3474 2e-3 -2.6383 1.6476-3.4721 0.89299-1.3538-1.2253 3.2632-3.2632 6.6798-1.3277 7.137 4.0432 0.5682 6.6752 0.4705 7.6381-0.86068 8.4824-2.0751 1.3162-5.4471 0.98553-6.8202-0.66888zm129.02-16.476c0-2.75 0.45-5 1-5s1 2.25 1 5-0.45 5-1 5-1-2.25-1-5zm60.639-11.499c-0.33451-0.87172-2.0776-2.2235-3.8735-3.004-1.7959-0.78047-2.5029-1.4366-1.5711-1.4582 1.9898-0.046 7.5946 4.5011 6.6793 5.4189-0.34456 0.34551-0.90015-0.085-1.2347-0.95676zm-93.389-5.2507c15.812-0.15471 41.688-0.15471 57.5 0 15.812 0.1547 2.875 0.28128-28.75 0.28128s-44.562-0.12658-28.75-0.28128zm487.75 45.749v-63h-355v126h355zm-198.69 54.354c-1.5238-2.3256-1.5436-2.8488-0.19744-5.2194 1.0493-1.8479 2.3008-2.623 4.1905-2.5954 2.1722 0.0318 2.6944-0.41574 2.6944-2.309 0-1.311 0.44176-2.0754 1-1.7304 0.55 0.33992 1 3.6686 1 7.397v6.779l-3.497 0.13147c-2.7385 0.10294-3.8643-0.42916-5.1905-2.4532zm5.6418 0.20084c1.874-2.258 0.89204-6.0058-1.669-6.37-1.6733-0.23793-2.3728 0.31527-2.8617 2.263-0.37841 1.5077-0.13468 3.1952 0.5871 4.0649 1.5463 1.8632 2.4244 1.8726 3.9435 0.0421zm5.3948 0.91229c-0.7389-1.9255 1.2147-4.2614 3.8952-4.6573 1.1545-0.17051 2.2843-0.87253 2.5107-1.56 0.52737-1.6014-2.9653-1.6397-4.555-0.05-0.93333 0.93333-1.2 0.82646-1.2-0.48095 0-1.7948 4.0302-3.3052 6.3965-2.3971 0.85961 0.32987 1.5367 2.4177 1.7522 5.4028l0.35125 4.8652-4.289 0.18512c-3.0083 0.12983-4.4601-0.26064-4.8619-1.3077zm6.4628-1.7288c0.35802-1.859-1.4332-2.2644-3.69-0.83501-0.75796 0.48009-1.0535 1.3981-0.65676 2.0401 1.0291 1.6651 3.9499 0.85536 4.3467-1.205zm5.1902-1.9885c2e-3 -5.1843 0.0417-5.2528 3.1791-5.4738 4.3965-0.30969 5.8189 1.2416 5.8189 6.3462 0 5.6212-1.7875 5.7252-2.1925 0.12756-0.25185-3.4808-0.66946-4.25-2.3075-4.25s-2.0556 0.76917-2.3075 4.25c-0.43905 6.0682-2.1929 5.2676-2.1905-1zm11.878 2.8866c-2.4282-5.3293 2.5304-11.03 6.6327-7.6258 2.1364 1.773 1.8362 3.2243-0.38052 1.8399-1.0272-0.64146-2.6022-0.8844-3.5-0.53986-2.0552 0.78867-2.1272 5.0337-0.11371 6.7048 1.2454 1.0336 1.8963 0.92058 3.6162-0.62756 2.061-1.8552 2.091-1.8532 1.723 0.11199-0.26651 1.4236-1.3066 2.0902-3.609 2.3128-2.6338 0.25472-3.4453-0.14949-4.3687-2.1763zm10.501-0.17752c-1.3408-2.0464-1.4443-3.0251-0.5317-5.0281 0.62326-1.3679 1.8408-2.7586 2.7056-3.0905 2.3823-0.91417 6.4449 1.3429 6.4449 3.5806 0 1.5781-0.79584 2.0244-4.0512 2.2714-3.8657 0.29342-3.983 0.39908-2.5609 2.3075 1.2721 1.7071 1.7902 1.8169 3.5377 0.75 2.749-1.6784 3.5907-1.5769 2.0745 0.25-1.9444 2.3429-5.7415 1.8241-7.6188-1.041zm6.6188-4.959c0-0.93333-0.94444-1.5-2.5-1.5s-2.5 0.56667-2.5 1.5 0.94444 1.5 2.5 1.5 2.5-0.56667 2.5-1.5zm11.329 6.7247c-2.2977-1.4616-2.5533-5.7265-0.49548-8.2678 1.6909-2.0882 2.3448-2.281 4.8115-1.4187 5.0803 1.7759 4.2319 10.484-1.0178 10.446-1.1702-8e-3 -2.6544-0.35043-3.2983-0.76002zm4.5008-1.0985c0.75546-0.47892 1.1875-2.0924 1-3.7347-0.45622-3.9965-4.4646-4.696-5.4064-0.94342-0.37841 1.5077-0.13468 3.1952 0.5871 4.0649 1.4113 1.7005 1.9641 1.7893 3.8193 0.61319zm6.1699-3.4084v-5.2822l3.75 0.0322 3.75 0.0322 0.14444 5.5c0.0794 3.025-0.0465 4.375-0.27995 3-1.0459-6.1612-1.4514-7-3.3835-7-1.6811 0-1.981 0.68109-1.981 4.5 0 2.475-0.45 4.5-1 4.5s-1-2.377-1-5.2822zm11.997 3.7791c-1.7176-2.0696-1.5647-6.3582 0.29292-8.2159 1.9641-1.9641 6.7096-0.94707 6.7096 1.438 0 1.3074-0.26667 1.4143-1.2 0.48095-3.2202-3.2202-7.0614 0.57463-4.8202 4.7622 1.2987 2.4267 2.3583 2.5569 4.3774 0.53777 2.1083-2.1083 2.9085-1.8648 1.6429 0.5-1.2654 2.3643-5.2198 2.645-7.0026 0.49692zm10.057 0.0684c-0.65487-0.78907-1.0475-2.9184-0.87244-4.7319 0.2501-2.5914 0.92935-3.5109 3.1729-4.2952 2.4537-0.85774 3.1209-0.66915 4.75 1.3427 2.7476 3.3931 2.3766 4.1191-2.1047 4.1191-2.7524 0-4 0.4345-4 1.393 0 1.9374 2.9641 2.8817 4.6509 1.4817 1.577-1.3088 2.8966-0.56968 1.8902 1.0587-0.96196 1.5565-6.0992 1.3039-7.4869-0.36815zm5.9458-6.1349c0-1.0423-0.72946-1.4622-2.1717-1.25-3.2015 0.47108-3.5444 2.8196-0.41166 2.8196 1.6805 0 2.5833-0.54853 2.5833-1.5696zm11.118 2.5377c-0.11143-5.2142 0.0254-5.5438 2.3818-5.7388 1.375-0.1138 2.5 0.23805 2.5 0.78189s-0.62632 0.9888-1.3918 0.9888c-0.85481 0-1.7738 1.8327-2.3818 4.75l-0.98997 4.75zm6.936 3.5972c-0.65487-0.78907-1.0475-2.9184-0.87244-4.7319 0.2501-2.5914 0.92935-3.5109 3.1729-4.2952 2.4537-0.85774 3.1209-0.66915 4.75 1.3427 1.0424 1.2874 1.8953 3.1586 1.8953 4.1584 0 4.1598-6.3444 6.6604-8.9458 3.526zm5.935-1.0523c0.72178-0.86969 0.96551-2.5572 0.5871-4.0649-0.94183-3.7525-4.9502-3.0531-5.4064 0.94342-0.46018 4.0313 2.4824 5.9372 4.8193 3.1215zm5.6642 1.8071c-1.0579-1.0579-0.74691-10.32 0.34654-10.32 0.55 0 1 1.9984 1 4.441s0.46971 4.7313 1.0438 5.0861c1.9375 1.1974 3.9562-1.7155 3.9562-5.7085 0-2.3697 0.39802-3.6906 1-3.3185 0.55 0.33992 1 2.7677 1 5.3951v4.777l-3.8465 0.15073c-2.1156 0.0829-4.1406-0.14334-4.5-0.50274zm10.544-4.463c0.28676-4.8792 0.45372-5.1588 3.2558-5.4535 1.6245-0.17081 3.537 0.17361 4.25 0.76537 1.5134 1.256 1.7719 9.831 0.29642 9.831-0.55 0-1-2.0563-1-4.5696 0-4.1668-0.19831-4.5414-2.25-4.25-1.8704 0.26564-2.3019 1.0365-2.5575 4.5696-0.16912 2.3375-0.75514 4.25-1.3023 4.25-0.56991 0-0.86567-2.1965-0.6925-5.1429zm11.837 3.2087c-2.3134-4.3227 0.24188-9.7496 4.1139-8.737 1.308 0.34204 1.8509-0.0579 1.8509-1.3633 0-1.016 0.45-2.1255 1-2.4654 0.63298-0.3912 1 2.1563 1 6.941v7.559h-3.4648c-2.4021 0-3.7823-0.59327-4.5-1.9343zm5.985-1.1035c1.5898-2.9707 0.2926-6.1479-2.3561-5.7705-2.5119 0.35785-3.4715 4.1306-1.6184 6.3633 1.6363 1.9716 2.6859 1.8151 3.9745-0.59281zm-62.52-13.695c-9.6587-2.4184-12.677-15.051-5.2277-21.878 1.8676-1.7116 3.9048-3.2868 4.5271-3.5006 0.62226-0.21376 1.3936-3.0887 1.7141-6.3887l0.58275-6-2.1204 3.8444c-3.3761 6.1209-3.3161 3.5957 0.0939-3.9504l3.1152-6.8939 1.8928 6c2.2184 7.0321 2.4966 11.953 0.34358 6.0751-2.103-5.7409-2.4213-5.5755-2.4213 1.2582 0 5.6272 0.18649 6.1667 2.132 6.1667 3.3031 0 8.4992 3.6953 9.8786 7.0254 1.6222 3.9163 0.7454 11.473-1.6423 14.153-1.9783 2.221-7.436 4.8999-9.5861 4.7054-0.70517-0.0638-2.1821-0.34135-3.2821-0.61676zm9.7298-3.2334c5.6131-4.4152 6.0371-12.488 0.91387-17.396-9.7306-9.3225-24.161 3.6385-16.503 14.823 3.2193 4.7016 11.207 6.0204 15.589 2.5737zm-9.2298-5.0339c-1.2968-2.4232-0.30869-2.5893 2.1525-0.36199 1.4756 1.3354 2.0906 1.4051 3.3287 0.37756 2.1287-1.7666 1.8905-4.1056-0.48124-4.7258-2.3306-0.60947-2.6975-2.2898-0.5-2.2898 0.83333 0 1.5-0.88889 1.5-2 0-2.255-2.8671-2.7329-4.8-0.8-0.78182 0.78182-1.2 0.82449-1.2 0.12244 0-2.3985 2.9443-3.6689 5.6481-2.4369 2.147 0.97825 2.4926 1.6611 2.0246 4.0012-0.31038 1.5519-0.0609 3.325 0.55438 3.9403 0.82494 0.82494 0.81635 1.7823-0.0327 3.6458-1.4735 3.234-6.5702 3.5619-8.1943 0.52713zm-54.237 5.4346c-3.4462-1.8699-5.7626-6.2718-5.7626-10.951 0-4.4132 1.3565-7.2829 4.8234-10.204l2.635-2.2204-3.2292-6.5486c-3.751-7.6067-4.3018-11.156-0.69984-4.5107l2.439 4.5-0.62095-7c-0.74113-8.3548 0.34838-8.2813 1.4921 0.10064l0.80497 5.8994 1.2434-4.3509c1.716-6.0045 2.6011-4.4525 1.1674 2.047-2.3797 10.788-2.6198 9.804 2.3908 9.804 3.5898 0 5.1893 0.61905 8.019 3.1036 1.9441 1.707 3.5348 3.6452 3.5348 4.3072 0 0.662 3.2625 2.0318 7.25 3.0439s7.6529 2.0658 8.1452 2.3416c1.1615 0.65039-11.426 6.3776-12.829 5.8373-0.58619-0.22568 0.62169-1.1416 2.6842-2.0354s3.75-1.7434 3.75-1.888c0-0.14465-1.8302-0.0885-4.0671 0.12486-3.0844 0.29415-4.2717 0.92601-4.9139 2.6151-0.46573 1.225-2.2701 3.4248-4.0096 4.8886-3.6544 3.0749-9.7371 3.5429-14.247 1.0959zm13.837-2.8346c3.4849-3.4849 4.3192-5.6 2.2089-5.6-0.65512 0-0.38756-0.58759 0.59458-1.3058 1.636-1.1963 1.6622-1.6014 0.31231-4.8321-2.9282-7.0081-9.4136-9.6211-15.748-6.3452-7.6168 3.9388-7.739 15.83-0.2047 19.918 4.768 2.5871 9.024 1.9788 12.837-1.8346zm-14.6-2.0491c0-0.79701 1.575-2.6504 3.5-4.1187 3.8896-2.9667 4.911-7.4322 1.7-7.4322-0.99 0-2.3325 0.5325-2.9833 1.1833-0.65084 0.65084-1.5276 0.83904-1.9484 0.41824-0.94757-0.94757 2.5327-3.6016 4.7229-3.6016 4.762 0 5.1959 5.1801 0.8127 9.7024l-3.1962 3.2976h3.1962c1.7579 0 3.1962 0.45 3.1962 1s-2.025 1-4.5 1c-3.2631 0-4.5-0.39831-4.5-1.4491zm27-6.2082c-6.527-2.1733-7-2.2267-7-0.79062 0 1.0492 1.1704 1.4262 4.25 1.369 2.3375-0.0434 3.575-0.3037 2.75-0.57841zm-191.79-17.012c0.19432-5.8306 0.69823-8.8049 1.5389-9.0833 0.93105-0.30839 1.25 1.6485 1.25 7.6693v8.0833h4.5c2.475 0 4.5 0.45 4.5 1 0 0.55627-2.6796 1-6.0389 1h-6.0389zm22.197 4.1693c-1.2111-1.8484-2.5856-2.5343-5.273-2.6316l-3.635-0.13164 3.3735-0.61836c2.7464-0.50342 3.5829-1.265 4.5-4.0969 1.3659-4.2177 5.1927-5.9958 9.0862-4.2218 1.3972 0.63659 2.5403 1.9118 2.5403 2.8339 0 1.5608-0.12618 1.5622-1.8287 0.0214-3.5383-3.2021-8.1713-1.4756-8.1713 3.045 0 2.1641 0.38406 2.3 6.5 2.3h6.5v-4.5c0-2.475 0.45-4.5 1-4.5s1 1.35 1 3c0 2.8333 0.22222 3 4 3 3.7949 0 4-0.15683 4-3.059 0-1.7847 0.41658-2.8016 1-2.441 0.55 0.33992 1 2.3915 1 4.559 0 3.2172 0.35201 3.941 1.9167 3.941 1.3615 0 2.321-1.2129 3.3125-4.1875 0.7677-2.3031 1.8974-4.3547 2.5104-4.559 0.61303-0.20434 2.0221 1.68 3.1313 4.1875 1.9924 4.5041 2.0746 4.5588 6.8229 4.5443 4.5207-0.0139 4.6582-0.0896 2.3151-1.2751-4.4133-2.2329-3.4028-7.7101 1.4225-7.7101 2.6418 0 6.3692 2.5328 5.3004 3.6016-0.4208 0.4208-1.2976 0.2326-1.9484-0.41824-1.2417-1.2417-5.0252-1.6081-6.0478-0.58556-1.0479 1.0479 0.41726 3.402 2.1214 3.4084 0.90365 3e-3 2.9634 0.69472 4.5773 1.5363 4.1229 2.15 5.5658 1.2397 5.5658-3.5111v-4.0314h5c2.75 0 5 0.45 5 1s-1.8313 1-4.0696 1c-3.6483 0-4.0365 0.23291-3.75 2.25 0.25242 1.7773 1.1599 2.3778 4.3196 2.8581l4 0.6081-4.5 0.32528c-3.5466 0.25637-2.8051 0.45945 3.5 0.95853l8 0.63324-7.75 0.18338c-6.1407 0.1453-7.75 0.49485-7.75 1.6834 0 1.0796 1.1046 1.5 3.941 1.5 2.1675 0 4.2191 0.45 4.559 1 0.38335 0.62028-1.4664 1-4.8714 1-4.8694 0-5.5256-0.24532-5.809-2.1717-0.42656-2.8989-2.4869-3.4517-3.3013-0.8857-1.2413 3.911-9.7816 3.9537-11.019 0.055-0.34872-1.0987-1.2945-1.9976-2.1018-1.9976-1.178 0-1.2474 0.41177-0.35159 2.0856 0.61391 1.1471 0.88468 2.3172 0.60171 2.6001-0.84121 0.84122-2.6476-0.69034-2.6476-2.2448 0-0.98732-1.1314-1.441-3.5936-1.441-2.7526 0-3.716 0.46805-4.1166 2-0.28766 1.1-1.1614 2-1.9416 2-1.0926 0-1.1807-0.44445-0.38336-1.9343 1.3825-2.5833 1.3094-3.0657-0.46482-3.0657-0.93333 0-1.5 0.94444-1.5 2.5 0 3.111-1.7457 3.3112-2.1804 0.25-0.25668-1.8073-1.0573-2.3111-4.0696-2.5604-3.4377-0.28452-3.75-0.0971-3.75 2.25 0 1.4082-0.45 2.5604-1 2.5604s-1-1.125-1-2.5-0.39825-2.5-0.88499-2.5-1.6221 1.125-2.523 2.5c-1.2239 1.8679-2.5113 2.5-5.092 2.5s-3.868-0.63206-5.092-2.5zm8.592-1.5352c0-0.53065-1.7859-0.96482-3.9686-0.96482-3.0472 0-3.84 0.33503-3.4148 1.4431 1.0216 2.6621 7.3835 2.25 7.3835-0.47825zm42.756 0.28518c0.28328-0.86291-0.85414-1.25-3.673-1.25-3.8666 0-4.9702 0.7798-3.3693 2.3807 1.1286 1.1286 6.5884 0.25197 7.0423-1.1307zm-29.995-2.9371c-0.95609-0.25029-2.7561-0.25937-4-0.0202-1.2439 0.23919-0.46166 0.44398 1.7383 0.45508s3.2178-0.18461 2.2617-0.4349zm14.168-0.56292c-0.0387-0.6875-0.41798-2.14-0.84295-3.2277-0.75516-1.9329-0.7989-1.9287-1.9297 0.18426-1.6656 3.1122-1.4336 4.2934 0.84296 4.2934 1.1 0 1.9684-0.5625 1.9297-1.25zm-71.93-10.25v-11.5h-4c-2.8889 0-4-0.41667-4-1.5 0-1.2333 1.7778-1.5 10-1.5 8.0451 0 10 0.282 10 1.4425 0 0.98216-1.3563 1.5406-4.25 1.75l-4.25 0.3075-0.28275 11.25c-0.22855 9.0932-0.56404 11.25-1.75 11.25-1.2046 0-1.4672-2.0585-1.4672-11.5zm172-17.5v-12h24v24h-24zm23 0v-11h-21v22h21zm-18 7.4777c0-0.28729 1.8508-2.5303 4.113-4.9844 2.5307-2.7455 3.8892-5.0451 3.5314-5.9777-0.78345-2.0416-3.6023-1.9175-5.3241 0.2344-1.3211 1.6511-1.3838 1.6431-1.1102-0.14282 0.45382-2.9623 3.1848-4.2039 6.2123-2.8245 3.6278 1.653 3.2715 4.8268-0.99354 8.8493l-3.5712 3.3681h3.5712c1.9642 0 3.5712 0.45 3.5712 1s-2.25 1-5 1-5-0.23505-5-0.52234zm46-1.9777v-5.5l-6.75 0.0789-6.75 0.0789 5.8125 2.0252c3.1969 1.1139 5.5892 2.2486 5.3162 2.5215-0.5406 0.5406-15.666-3.6308-16.865-4.6514-0.40521-0.34469 3.0823-2.255 7.75-4.2451 4.6677-1.9901 8.4867-3.2665 8.4867-2.8364 0 0.43009-2.2937 1.7687-5.0971 2.9747-2.8034 1.206-4.9409 2.3235-4.75 2.4834 0.19091 0.15987 3.1596 0.0745 6.5971-0.18976l6.25-0.48044v-11.76h24v25h-24v-5.5zm23-7v-10.5h-22v5c0 4.0836 0.32072 5.0056 1.75 5.0304 1.6667 0.029 1.6667 0.0789 0 1.0497-1.2518 0.72912-1.75 2.2862-1.75 5.4696v4.4503h22zm-13.02 5.9758c-1.7655-2.1273-0.43333-3.0721 1.5439-1.0949 2.0791 2.0791 3.1866 2.0454 4.3059-0.13095 1.1288-2.1947 0.44541-4.25-1.413-4.25-1.9142 0-1.7835-1.0085 0.33333-2.5724 1.4202-1.0493 1.5097-1.5365 0.47504-2.5852-1.0422-1.0564-1.6533-1.056-3.3474 2e-3 -2.6383 1.6476-3.4721 0.89299-1.3538-1.2253 3.2632-3.2632 6.6798-1.3277 7.137 4.0432 0.5682 6.6752 0.4705 7.6381-0.86068 8.4824-2.0751 1.3162-5.4471 0.98553-6.8202-0.66888zm-184.98-3.9444c0-4.4501-0.27936-5.3614-1.5-4.893-2.3484 0.90119-1.6986-0.9481 1.0314-2.935l2.4686-1.7967v7.5467c0 4.3644-0.42167 7.5467-1 7.5467-0.55 0-1-2.4609-1-5.4686zm-47.75-2.279c7.5625-0.16988 19.938-0.16988 27.5 0 7.5625 0.16989 1.375 0.30888-13.75 0.30888s-21.312-0.13899-13.75-0.30888zm71-1c7.5625-0.16988 19.938-0.16988 27.5 0 7.5625 0.16989 1.375 0.30888-13.75 0.30888s-21.312-0.13899-13.75-0.30888zm236.83-10.517c-0.0434-0.97058-1.5414-2.6564-3.329-3.7463s-2.7126-1.9832-2.0558-1.9853c2.084-7e-3 6.6221 4.5616 6.0276 6.0676-0.41978 1.0635-0.58414 0.97756-0.6429-0.33599zm-320.07-1.57c2.5271-5.141 3.2291-5.1938 69.138-5.1968 33.631-2e-3 61.38 0.22991 61.664 0.51434 0.28443 0.28444-27.204 0.51716-61.084 0.51716-40.622 0-62.56 0.35806-64.417 1.0514-1.5483 0.57825-3.6328 2.0408-4.6322 3.25l-1.8171 2.1986zm189.16-4.6761c0.6795-0.6795 122.95-0.69724 123.63-0.0179 0.29076 0.29072-27.521 0.52862-61.805 0.52862s-62.104-0.22983-61.823-0.51072zm-54.927-1.1786c0.9625-0.25152 2.5375-0.25152 3.5 0 0.9625 0.25153 0.175 0.45733-1.75 0.45733s-2.7125-0.2058-1.75-0.45733zm48.512-0.0179c1.2439-0.23919 3.0439-0.23011 4 0.0202 0.95609 0.25029-0.0617 0.446-2.2617 0.4349-2.2-0.0111-2.9822-0.21589-1.7383-0.45508zm-39.262-1.6916c8.6527-2.7365 15.5-8.3371 15.5-12.678 0-1.0578 0.45-1.9233 1-1.9233s1 0.86547 1 1.9233c0 2.2314 4.2573 7.6089 7.3228 9.2495 1.1589 0.62022 4.3728 1.9438 7.1421 2.9414 2.7693 0.99754 4.2604 1.8299 3.3136 1.8498-3.4784 0.0729-12.376-4.7419-15.647-8.4666-2.9244-3.3307-3.4881-3.6121-4.3066-2.1495-2.4575 4.3912-12.8 10.705-17.325 10.576-1.1-0.0314-0.2-0.6264 2-1.3222zm-126.5-86.601v-63h-360v126h360zm-228.37 42.632c-4.3288-2.7783-7.3818-5.2144-6.7846-5.4135 0.59726-0.19908 3.1825 1.0805 5.745 2.8436 5.2933 3.6419 5.1524 3.2826-3.09-7.8794-3.6352-4.9229-6.5282-7.9383-7.3402-7.6507-2.0501 0.72609-3.4291-0.50239-2.2112-1.9698 0.77454-0.93327-1.0498-4.0432-7.0355-11.994-4.4446-5.9035-7.8704-10.944-7.6127-11.202 0.43836-0.43835 13.511 15.81 20.2 25.107 5.8462 8.1257 12.999 17.362 13.25 17.11 0.14027-0.14028-0.62189-2.8039-1.6937-5.9191-1.0718-3.1152-1.5502-5.6641-1.0631-5.6641 0.83649 0 6.4874 16.937 5.8202 17.445-0.17248 0.13121-3.8553-2.0346-8.1841-4.8129zm-29.38-0.8818c0.22891-0.6875 1.2646-1.4144 2.3015-1.6153 1.6311-0.31608 1.7046-0.14754 0.54469 1.25-1.5862 1.9113-3.4402 2.1492-2.8462 0.36534zm7.7505-9.75c1.1019-2.059 2.1747-2.492 3.3247-1.342 0.91067 0.91068-1.259 3.342-2.9823 3.342-1.1029 0-1.178-0.43869-0.34237-2zm-74-12v-9h5c7.6045 0 11.371 4.5443 7.0257 8.4767-1.9168 1.7347-1.9216 1.863-0.16397 4.405 3.1075 4.4944 3.3306 5.1183 1.8302 5.1183-0.78437 0-2.6173-1.8-4.0732-4-1.9085-2.884-3.3406-4-5.1329-4-2.2334 0-2.4858 0.40609-2.4858 4 0 2.2-0.45 4-1 4-0.59259 0-1-3.6667-1-9zm10.84-3.3802c0.4505-2.3724-1.4298-3.5849-5.5898-3.6045-2.9614-0.0139-3.25 0.25623-3.25 3.0422 0 2.9777 0.11063 3.0495 4.2414 2.75 3.2154-0.23312 4.3277-0.76231 4.5984-2.1877zm207.16 2.3802v-9h5c7.6046 0 11.371 4.5443 7.0257 8.4767-1.9168 1.7347-1.9216 1.863-0.16396 4.405 3.1075 4.4944 3.3306 5.1183 1.8302 5.1183-0.78437 0-2.6173-1.8-4.0732-4-1.9085-2.884-3.3406-4-5.1329-4-2.2334 0-2.4858 0.40609-2.4858 4 0 2.2-0.45 4-1 4-0.59259 0-1-3.6667-1-9zm10.84-3.3802c0.45049-2.3724-1.4298-3.5849-5.5898-3.6045-2.9614-0.0139-3.25 0.25623-3.25 3.0422 0 2.9777 0.11063 3.0495 4.2414 2.75 3.2154-0.23312 4.3277-0.76231 4.5984-2.1877zm78.371 1.7109c0.19432-5.8306 0.69823-8.8049 1.5389-9.0833 0.93105-0.30839 1.25 1.6485 1.25 7.6693v8.0833h4.5c2.475 0 4.5 0.45 4.5 1 0 0.55627-2.6796 1-6.0389 1h-6.0389zm-242.21-0.8307c0-5 0.41176-8.5 1-8.5 0.57778 0 1 3.1667 1 7.5v7.5h4c2.2 0 4 0.45 4 1s-2.25 1-5 1h-5zm49.758 6.5241c-3.3253-2.6156-4.2669-6.0241-1.6642-6.0241 1.0485 0 1.9064 0.41786 1.9064 0.92857 0 3.1485 6.8362 5.2227 11.418 3.4644 1.8843-0.72309 2.1006-4.7323 0.33179-6.1498-0.6875-0.55094-3.8267-1.7405-6.976-2.6434-8.0031-2.2945-9.9955-6.4691-5.3194-11.145 1.8932-1.8932 3.5045-2.4546 7.0454-2.4546s5.1523 0.56136 7.0454 2.4546c2.6541 2.6541 3.0467 4.0615 1.4144 5.0703-0.57208 0.35356-1.9547-0.51988-3.0726-1.941-3.2234-4.0979-10.887-3.3974-10.887 0.99522 0 2.0262 0.82387 2.5954 5.75 3.9724 9.4364 2.6378 12.704 8.0851 7.7954 12.994-3.2084 3.2085-10.997 3.4606-14.788 0.47867zm51.697-0.47867c-2.5458-2.5458-3.2752-5.5454-1.3485-5.5454 0.60834 0 1.991 1.125 3.0726 2.5 3.6364 4.6229 13.596 2.8899 12.654-2.202-0.22351-1.2084-2.3376-2.4539-6.4465-3.798-3.3626-1.1-6.8502-2.6176-7.75-3.3724-2.247-1.8849-2.0546-6.709 0.3639-9.1276 2.7578-2.7578 9.8157-2.7194 13.365 0.0726 2.855 2.2457 3.5599 5.9274 1.1349 5.9274-0.825 0-1.5-0.41786-1.5-0.92857 0-3.6356-8.5266-5.5517-11.07-2.4876-2.0858 2.5132 0.0628 4.6467 6.6481 6.6016 6.4622 1.9184 8.4215 3.764 8.4215 7.9331 0 6.5387-12.324 9.6482-17.545 4.4269zm-137.7-1.5213c-3.3253-2.6156-4.2669-6.0241-1.6642-6.0241 1.0485 0 1.9064 0.41786 1.9064 0.92857 0 3.1485 6.8362 5.2227 11.418 3.4644 1.8843-0.72309 2.1006-4.7323 0.33179-6.1498-0.6875-0.55094-3.8267-1.7405-6.976-2.6434-8.0031-2.2945-9.9955-6.4691-5.3194-11.145 1.8932-1.8932 3.5045-2.4546 7.0455-2.4546 3.541 0 5.1523 0.56136 7.0454 2.4546 2.6541 2.6541 3.0467 4.0615 1.4144 5.0703-0.57207 0.35356-1.9547-0.51988-3.0726-1.941-3.2234-4.0979-10.887-3.3974-10.887 0.99522 0 2.0262 0.82387 2.5954 5.75 3.9724 9.4364 2.6378 12.704 8.0851 7.7954 12.994-3.2084 3.2085-10.997 3.4606-14.788 0.47867zm-54.13-1.2741c0.41018-0.6875 2.4617-3.5409 4.559-6.3409 2.0973-2.8 3.8132-5.4397 3.8132-5.866 0-0.42634-1.5034-2.8604-3.341-5.4091-4.888-6.7797-5.0314-7.134-2.8876-7.134 1.102 0 3.2762 1.931 5.2169 4.6333l3.3274 4.6333 4.1479-4.7814c5.8277-6.7176 7.7233-5.4684 2.5867 1.7047-2.2277 3.111-4.0504 5.9478-4.0504 6.304 0 0.35621 2.0645 3.5408 4.5878 7.0769 4.0844 5.7238 4.3585 6.4292 2.4983 6.4292-1.3617 0-3.3405-1.7414-5.6816-5-1.9757-2.75-3.8874-4.9884-4.2483-4.9742-0.36091 0.0142-2.1746 2.2642-4.0304 5-2.0954 3.0891-4.1075 4.9742-5.309 4.9742-1.2789 0-1.682-0.42374-1.189-1.25zm219.22-2.5c1.0922-1.5125 3.3278-4.5325 4.968-6.7111l2.9821-3.9611-4.4877-6.2889c-3.9284-5.5052-4.2352-6.2889-2.462-6.2889 1.2553 0 3.2546 1.7113 5.2573 4.5 1.7774 2.475 3.5291 4.5 3.8926 4.5s2.1152-2.025 3.8926-4.5 3.8787-4.5 4.6695-4.5c2.1447 0 1.827 0.80291-2.6796 6.7718l-4.1174 5.4535 3.9383 5.6374c5.7005 8.1598 5.6912 8.1374 3.3632 8.1374-1.358 0-3.1524-1.6838-5.309-4.982-1.7917-2.7401-3.5569-4.9901-3.9225-5-0.36566-0.01-2.3165 2.232-4.3352 4.982-2.2646 3.085-4.4298 5-5.6533 5-1.9765 0-1.9765-9e-3 3e-3 -2.75zm65.15-2.8174c0-5.3034-0.10669-5.5359-2.25-4.9043-2.1143 0.62309-2.0867 0.50651 0.45636-1.9326 1.4885-1.4276 2.951-2.5957 3.25-2.5957 0.299 0 0.54364 3.375 0.54364 7.5 0 4.3333-0.42222 7.5-1 7.5-0.55 0-1-2.5053-1-5.5674zm24.85 1.8174c1.0922-1.5125 3.3278-4.5325 4.968-6.7111l2.9821-3.9611-4.4877-6.2889c-3.9284-5.5052-4.2352-6.2889-2.462-6.2889 1.2553 0 3.2546 1.7113 5.2573 4.5 1.7774 2.475 3.5291 4.5 3.8926 4.5s2.1152-2.025 3.8926-4.5 3.8787-4.5 4.6695-4.5c2.1447 0 1.827 0.80291-2.6796 6.7718l-4.1174 5.4535 3.9383 5.6374c5.7005 8.1598 5.6912 8.1374 3.3632 8.1374-1.358 0-3.1524-1.6838-5.309-4.982-1.7917-2.7401-3.5569-4.9901-3.9225-5-0.36566-0.01-2.3165 2.232-4.3352 4.982-2.2646 3.085-4.4298 5-5.6533 5-1.9765 0-1.9765-9e-3 3e-3 -2.75zm-8.8012-2.9716c-1.4706-5.8402-7.3862-11.876-12.598-12.854-9.9522-1.867-19.127 2.0353-21.469 9.1312-1.3354 4.0463-0.76529 5.3394 1.5185 3.444 0.85158-0.70675 1.7884-1.045 2.0817-0.75159 0.29338 0.29337-0.90571 1.5582-2.6646 2.8106-3.1319 2.2301-3.2277 2.2376-4.6308 0.35909-3.6352-4.8665-3.931-7.6709-0.3416-3.2381l1.7652 2.18 0.64993-3.4644c0.90367-4.817 3.077-7.5662 7.9563-10.065 12.073-6.1825 26.914 0.63118 29.228 13.419 0.96431 5.3294-0.0797 4.6511-1.4955-0.97162zm-185.36 2.0257c-0.8833-1.4292 2.1963-4.8199 3.3394-3.6767 0.69317 0.69317 0.40344 1.5778-0.90447 2.7614-1.0584 0.95783-2.1541 1.3697-2.435 0.91534zm7.9066-10.151c-0.2879-0.46583 0.81054-2.125 2.441-3.6871 3.6372-3.4846 3.8732-5.1075 0.41309-2.8403-1.7542 1.1494-2.8739 1.3492-3.5837 0.63932s1.3564-2.351 6.6136-5.2531c4.2053-2.3214 7.7909-4.0612 7.9681-3.8663 0.62257 0.68501-5.6264 15.854-6.5311 15.854-1.1782 0-1.1564-1.1926 0.0858-4.6849 0.94116-2.6461 0.8061-2.59-2.25 0.93494-3.3442 3.8573-4.2513 4.3679-5.1567 2.903zm-43.595-29.72c0-5.3034-0.1067-5.5359-2.25-4.9043-2.1143 0.62309-2.0868 0.50651 0.45635-1.9326 1.4885-1.4276 2.951-2.5957 3.25-2.5957 0.29901 0 0.54365 3.375 0.54365 7.5 0 4.3333-0.42223 7.5-1 7.5-0.55 0-1-2.5053-1-5.5674zm13-0.43261c0-0.64615 11.5-1 32.5-1s32.5 0.35385 32.5 1-11.5 1-32.5 1-32.5-0.35385-32.5-1zm164-0.44911c0-0.79701 1.575-2.6504 3.5-4.1187 3.8896-2.9667 4.911-7.4322 1.7-7.4322-0.99 0-2.3325 0.5325-2.9833 1.1833-0.65084 0.65083-1.5276 0.83904-1.9484 0.41824-0.94757-0.94757 2.5327-3.6016 4.7229-3.6016 4.762 0 5.1959 5.1801 0.8127 9.7024l-3.1962 3.2976h3.1962c1.7579 0 3.1962 0.45 3.1962 1s-2.025 1-4.5 1c-3.2631 0-4.5-0.39831-4.5-1.4491zm-240.75-1.2992c9.2125-0.16503 24.288-0.16503 33.5 0 9.2125 0.16503 1.675 0.30005-16.75 0.30005-18.425 0-25.962-0.13502-16.75-0.30005zm185 0c9.2125-0.16503 24.288-0.16503 33.5 0s1.675 0.30005-16.75 0.30005-25.962-0.13502-16.75-0.30005zm90.064-2.88e-4c9.2474-0.16519 24.097-0.16488 33 6.9e-4 8.9026 0.16557 1.3365 0.30072-16.814 0.30034s-25.434-0.13584-16.186-0.30103zm48.558-10.292c-0.75458-1.1224-3.172-2.6776-5.372-3.4561-2.2-0.77849-3.1902-1.4352-2.2003-1.4593 2.66-0.06488 7.4869 2.6887 8.7059 4.9665 1.3908 2.5987 0.62467 2.5642-1.1336-0.05101zm-345.87 0.21709c0-1.5881 5.9527-5.1799 8.5-5.1288 1.1346 0.02278 0.27483 0.65448-1.9868 1.4598-2.1927 0.78082-4.5552 2.1971-5.25 3.1472-0.69745 0.95382-1.2632 1.1875-1.2632 0.52174zm45.25-5.926c19.113-0.15199 50.388-0.15199 69.5 0 19.112 0.15199 3.475 0.27634-34.75 0.27634-38.225 0-53.863-0.12436-34.75-0.27634zm187 0c19.112-0.15199 50.388-0.15199 69.5 0 19.112 0.15199 3.475 0.27634-34.75 0.27634s-53.862-0.12436-34.75-0.27634zm-81.5-0.91271c0.6875-0.27741 1.8125-0.27741 2.5 0 0.6875 0.27741 0.125 0.50439-1.25 0.50439s-1.9375-0.22697-1.25-0.50439zm38.75-0.73654c-6.1698-1.9512-9.935-4.1937-13.106-7.8056l-2.9032-3.3066-2.9782 3.4094c-2.8979 3.3176-11.493 8.0962-14.512 8.0681-0.825-0.0077 1.2-1.1158 4.5-2.4625 6.5812-2.6857 12.454-8.1669 12.579-11.739 0.0678-1.9437 0.22799-1.8395 1.1305 0.73532 2.06 5.877 7.4366 9.8179 17.214 12.618 3.342 0.95695 5.1764 1.7419 4.0764 1.7443-1.1 0.0024-3.8-0.56492-6-1.2607zm496.5 44.399v-63h-328v126h328zm-130 41v-11h6.893c5.4595 0 7.0236-0.34026 7.5208-1.6361 0.58129-1.5148 0.76187-1.5148 2.4357 0 0.99434 0.89987 2.56 1.6361 3.4792 1.6361 1.4604 0 1.6713 1.3879 1.6713 11v11h-22zm12 3.4326c0-5.3118-0.10328-5.5356-2.25-4.8758-2.2212 0.68273-2.2179 0.65684 0.25-2.0191l2.5-2.7108 0.29206 7.5865 0.29207 7.5865h6.9159v-19h-19v19h11zm44.98 4.0432c-1.7655-2.1273-0.43333-3.0721 1.5439-1.0949 2.0791 2.0791 3.1866 2.0454 4.3059-0.13095 1.1288-2.1947 0.44541-4.25-1.413-4.25-1.9142 0-1.7835-1.0085 0.33333-2.5724 1.4202-1.0493 1.5097-1.5365 0.47504-2.5852-1.0422-1.0564-1.6533-1.056-3.3474 2e-3 -2.6383 1.6476-3.4721 0.89299-1.3538-1.2253 3.2632-3.2632 6.6798-1.3277 7.137 4.0432 0.5682 6.6752 0.4705 7.6381-0.86068 8.4824-2.0751 1.3162-5.4471 0.98553-6.8202-0.66888zm-27.009-5.9305c3.5591-3.5999 6.8216-6.5454 7.25-6.5454 1.493 0 0.76298 2.3884-1.4711 4.8128l-2.25 2.4417 3.5-1.7478c1.925-0.9613 4.2428-2.3979 5.1507-3.1924 1.1089-0.97042 1.8668-1.095 2.309-0.37941 1.0242 1.6573-0.33054 3.0851-4.8241 5.0841l-4.1356 1.8398 3.25 0.0706c1.7875 0.0388 3.25 0.51207 3.25 1.0516 0 1.1941-2.3784 1.7117-11.5 2.5027l-7 0.60702 6.4711-6.5454zm-57.971 0.93231c0-0.28729 1.8508-2.5303 4.113-4.9844 2.5307-2.7455 3.8892-5.0451 3.5314-5.9777-0.78345-2.0416-3.6023-1.9175-5.3241 0.2344-1.3211 1.6511-1.3838 1.6431-1.1102-0.14282 0.45382-2.9623 3.1848-4.2039 6.2123-2.8245 3.6278 1.653 3.2715 4.8268-0.99354 8.8493l-3.5712 3.3681h3.5712c1.9642 0 3.5712 0.45 3.5712 1s-2.25 1-5 1-5-0.23505-5-0.52234zm-101-16.19c0-0.39168 1.861-2.6083 4.1354-4.9258 2.6765-2.7272 3.9223-4.769 3.5314-5.7879-0.76708-1.999-4.5447-2.0559-5.303-0.0799-0.31537 0.82184-1.0056 1.2272-1.5338 0.90072-0.55169-0.34097-0.25541-1.3725 0.69626-2.4241 1.5709-1.7358 1.4837-1.8518-1.6849-2.2407-1.8378-0.22558 1.1585-0.41147 6.6585-0.41308 7.7971-2e-3 8.8986 0.14814 5 0.68286-2.75 0.37719-4.4678 0.75649-3.8174 0.8429 0.65044 0.0864 1.4832 1.1042 1.8506 2.2619 0.50717 1.5979-0.2479 3.0428-3.1356 6l-3.8036 3.8952h3.703c2.0366 0 3.703 0.45 3.703 1s-2.25 1-5 1-5-0.32047-5-0.71215zm173.47-0.33574c-0.35619-0.57633-0.35854-1.8012-5e-3 -2.722 0.55289-1.4408 0.77213-1.469 1.5733-0.20211 0.51199 0.80958 0.93779 2.0345 0.94621 2.722 0.0186 1.5186-1.6193 1.6502-2.5143 0.20211zm-130.02-4.4067c-2.7879-2.7879-3.1554-5.0625-0.95455-5.9071 0.825-0.31658 1.5-0.13972 1.5 0.39301 0 0.53274 0.9 1.8686 2 2.9686 2.3953 2.3953 9.1468 2.7329 10.96 0.54804 2.4176-2.913 0.72477-4.9759-5.9665-7.271-6.844-2.3475-8.9937-4.2347-8.9937-7.8956 0-7.464 16.368-8.7291 18.281-1.413 0.83244 3.1833-1.3818 3.614-3.5161 0.68406-1.5038-2.0644-2.7734-2.6525-5.7263-2.6525-4.4567 0-6.9956 2.2599-5.3932 4.8004 0.56645 0.89801 3.5946 2.3941 6.7293 3.3247 7.2648 2.1566 8.6248 3.3389 8.6248 7.4974 0 5.1813-2.8416 7.3776-9.5454 7.3776-4.5544 0-5.9841-0.43865-8-2.4546zm-82.455-7.5454v-9h5c7.6046 0 11.371 4.5443 7.0257 8.4767-1.9168 1.7347-1.9216 1.863-0.16396 4.405 3.1075 4.4944 3.3306 5.1183 1.8302 5.1183-0.78437 0-2.6173-1.8-4.0732-4-1.9085-2.884-3.3406-4-5.1329-4-2.2334 0-2.4858 0.40609-2.4858 4 0 2.2-0.45 4-1 4-0.59259 0-1-3.6667-1-9zm10.84-3.3802c0.45049-2.3724-1.4298-3.5849-5.5898-3.6045-2.9614-0.0139-3.25 0.25623-3.25 3.0422 0 2.9777 0.11063 3.0495 4.2414 2.75 3.2154-0.23312 4.3277-0.76231 4.5984-2.1877zm169.92 6.8046c-0.86085-0.86084 0.97349-4.4244 2.2774-4.4244 1.3275 0 1.2081 1.2851-0.31263 3.3648-0.70259 0.96085-1.5868 1.4377-1.9648 1.0596zm-154.76-6.893c0-4.4501-0.27936-5.3614-1.5-4.893-2.3484 0.90119-1.6986-0.9481 1.0314-2.935l2.4686-1.7967v7.5467c0 4.3644-0.42167 7.5467-1 7.5467-0.55 0-1-2.4609-1-5.4686zm-41-7.0314v-11.5h-4c-2.8889 0-4-0.41667-4-1.5 0-1.2333 1.7778-1.5 10-1.5 8.0451 0 10 0.282 10 1.4425 0 0.98216-1.3563 1.5406-4.25 1.75l-4.25 0.3075-0.28275 11.25c-0.22855 9.0932-0.56404 11.25-1.75 11.25-1.2046 0-1.4672-2.0585-1.4672-11.5zm221.07 9.089c-0.83662-1.0081-0.85908-1.6038-0.0786-2.0861 1.16-0.71695 4.0048 1.1438 4.0048 2.6195 0 1.3819-2.6335 1.0241-3.9261-0.53341zm-14.074-3.982c0-1.7657 3.4927-2.2368 4.5-0.60699 0.33992 0.55 0.17828 1-0.3592 1-0.53747 0-1.689 0.27314-2.559 0.60699-1.038 0.39831-1.5818 0.0545-1.5818-1zm-148-7.0756c0-4.4501-0.27936-5.3614-1.5-4.893-2.3484 0.90119-1.6986-0.9481 1.0314-2.935l2.4686-1.7967v7.5467c0 4.3644-0.42167 7.5467-1 7.5467-0.55 0-1-2.4609-1-5.4686zm141.42-13.372c-6.1727-2.8882-8.6532-6.6148-8.2519-12.397 0.18178-2.6199-7e-3 -4.7631-0.41949-4.7628-0.4125 3.42e-4 -0.75 1.3506-0.75 3.0006s-0.45 3-1 3-1.0028-1.4625-1.0063-3.25c-5e-3 -2.5389-0.64259-3.612-2.9142-4.9043-12.092-6.8788-7.1993-24.83 6.7705-24.842 3.5791-0.0031 4.9242 0.57221 7.5898 3.2463 2.7092 2.7177 3.8803 3.2057 7.15 2.9796 2.1506-0.14874 6.6102 0.13388 9.9102 0.62806l6 0.8985-6 0.20081-6 0.20082 5 2.3819c7.6513 3.645 9.5 6.3376 9.5 13.837 0 7.2543-3.6387 15.671-8.2085 18.987-3.8993 2.8294-12.211 3.2105-17.37 0.79644zm14.617-1.4097c5.3904-2.7182 8.7977-8.7587 9.6614-17.128 0.71892-6.9657-0.85661-9.6546-7.6843-13.114-6.7016-3.396-7.0759-3.1782-2.5332 1.4739 2.1384 2.1899 3.5674 4.3022 3.1756 4.694s-3.5626-2.1126-7.0463-5.5652l-6.3339-6.2776 0.42278 4.8336c0.51845 5.9275-1.9764 11.043-6.4827 13.292-8.4236 4.2036-5.9476 14.923 4.2824 18.54 5.5286 1.9547 7.4 1.843 12.538-0.74799zm-15.533-20.754c5.6225-5.2821 4.9357-14.444-1.4025-18.709-8.1148-5.4607-17.102 0.19577-17.102 10.764 0 3.3532 0.62737 4.777 3.2686 7.4183 2.8611 2.8611 3.8588 3.244 8.0031 3.0714 3.4068-0.14192 5.4352-0.85548 7.2329-2.5443zm-7.5047-9.563c0-5.3034-0.10669-5.5359-2.25-4.9043-2.1143 0.62309-2.0867 0.50651 0.45636-1.9326 1.4885-1.4276 2.951-2.5957 3.25-2.5957 0.299 0 0.54364 3.375 0.54364 7.5 0 4.3333-0.42222 7.5-1 7.5-0.55 0-1-2.5053-1-5.5674zm55.98 8.0432c-1.7655-2.1273-0.43333-3.0721 1.5439-1.0949 2.0791 2.0791 3.1866 2.0454 4.3059-0.13095 1.1288-2.1947 0.44541-4.25-1.413-4.25-1.9142 0-1.7835-1.0085 0.33333-2.5724 1.4202-1.0493 1.5097-1.5365 0.47504-2.5852-1.0422-1.0564-1.6533-1.056-3.3474 2e-3 -2.6383 1.6476-3.4721 0.89299-1.3538-1.2253 3.2632-3.2632 6.6798-1.3277 7.137 4.0432 0.5682 6.6752 0.4705 7.6381-0.86068 8.4824-2.0751 1.3162-5.4471 0.98553-6.8202-0.66888zm-92.98-2.9982c0-0.28729 1.8508-2.5303 4.113-4.9844 2.5307-2.7455 3.8892-5.0451 3.5314-5.9777-0.78345-2.0416-3.6023-1.9175-5.3241 0.2344-1.3211 1.6511-1.3838 1.6431-1.1102-0.14282 0.45382-2.9623 3.1848-4.2039 6.2123-2.8245 3.6278 1.653 3.2715 4.8268-0.99354 8.8493l-3.5712 3.3681h3.5712c1.9642 0 3.5712 0.45 3.5712 1s-2.25 1-5 1-5-0.23505-5-0.52234zm158-44.479v-18.001l-344.75 0.25143-344.75 0.25144-0.27307 17.75-0.27307 17.75h690.05zm-681 6.8464c0-2.0608 0.08385-2.0791 1.9175-0.41964 2.3372 2.1151 6.4393 1.7184 6.8939-0.66681 0.21617-1.1342-0.92246-2.4815-3.2656-3.864-4.532-2.6739-5.9872-5.2013-4.5458-7.8945 1.4337-2.6788 9-2.931 9-0.3 0 1.3222-0.26667 1.4333-1.2 0.5-1.532-1.532-5.4631-1.5542-6.4012-0.03621-0.4215 0.68201 0.48551 2.1079 2.191 3.4444 5.0111 3.9269 7.4102 6.2854 7.4102 7.2847 0 2.2911-3.3478 4.1072-7.5714 4.1072-3.8681 0-4.4286-0.27274-4.4286-2.155zm18.75 1.4927c0.8423-0.33988 1.25-2.9234 1.25-7.9211 0-6.4753-0.22846-7.4167-1.8-7.4167-0.99 0-2.34 0.54-3 1.2-0.93333 0.93333-1.2 0.82222-1.2-0.5 0-1.4381 1.0784-1.7 7-1.7s7 0.2619 7 1.7c0 1.3222-0.26667 1.4333-1.2 0.5-0.66-0.66-2.01-1.2-3-1.2-1.5715 0-1.8 0.94136-1.8 7.4167 0 4.9977 0.4077 7.5812 1.25 7.9211 0.6875 0.27741-0.325 0.50439-2.25 0.50439s-2.9375-0.22697-2.25-0.50439zm13.323-1.9726c-6.0366-7.6743 2.3525-17.954 10.913-13.373 2.2687 1.2142 4.3153 7.0086 3.3925 9.6051-2.3624 6.6472-10.38 8.7588-14.306 3.7678zm10.055-0.01884c0.75484-0.90953 1.3724-3.5404 1.3724-5.8463 0-5.0868-1.7977-7.5-5.5873-7.5-3.3845 0-4.9127 2.333-4.9127 7.5 0 1.9973 0.46583 4.5019 1.0352 5.5657 1.2923 2.4147 6.1805 2.5842 8.0924 0.28056zm7.3724-5.8051v-8.5412l3 0.07895c1.65 0.04342 2.4375 0.30592 1.75 0.58333-0.84231 0.33987-1.25 2.9234-1.25 7.921v7.4167h3.3c1.815 0 3.8962-0.5625 4.625-1.25 1.0693-1.0088 1.2373-0.96057 0.87063 0.25-0.32308 1.0666-2.1652 1.5842-6.375 1.7912l-5.9206 0.29123zm16 0v-8.5412h5.75c4.8396 0 5.7375 0.27708 5.671 1.75-0.0472 1.0454-0.28202 1.2467-0.58334 0.5-0.27741-0.6875-2.0419-1.25-3.921-1.25-3.2381 0-3.4167 0.18293-3.4167 3.5 0 3.7492 1.3964 4.4286 5.0657 2.4648 1.5856-0.84858 1.9343-0.70452 1.9343 0.7992 0 1.5076-0.6235 1.7616-3.5 1.4258-3.429-0.40032-3.5-0.3354-3.5 3.2008 0 3.4167 0.17618 3.6094 3.3 3.6094 1.815 0 3.8962-0.5625 4.625-1.25 1.0693-1.0088 1.2373-0.96057 0.87063 0.25-0.32308 1.0666-2.1652 1.5842-6.375 1.7912l-5.9206 0.29123zm15.25 7.7965c0.82967-0.33478 1.25-2.8135 1.25-7.3714 0-5.485-0.35219-7.0721-1.75-7.8863-1.5254-0.88849-1.4292-1.0221 0.75-1.0415 1.8784-0.0167 3.7433 1.5299 7.5 6.2196l5 6.2418 0.30765-5.4054c0.20758-3.6472-0.11767-5.6751-1-6.2347-0.94559-0.59971-0.75389-0.83422 0.69235-0.84698 1.874-0.01653 1.9791 0.53393 1.6689 8.7347l-0.33108 8.7523-2.6689-3.0203c-1.4679-1.6612-4.1163-4.8112-5.8854-7l-3.2165-3.9797-0.0335 6.1667c-0.0219 4.0248 0.40064 6.3419 1.2165 6.6711 0.6875 0.27741-0.1 0.50439-1.75 0.50439s-2.4375-0.22697-1.75-0.50439zm25 0c0.84051-0.33915 1.25-2.9067 1.25-7.8377s-0.40949-7.4986-1.25-7.8377c-0.6875-0.27741-0.125-0.52782 1.25-0.55645 2.1352-0.04447 2.9352 0.92151 5.4826 6.62l2.9826 6.6721 2.9514-6.6989c1.8297-4.153 3.5465-6.6998 4.5174-6.7013 1.314-2e-3 1.5123 1.2273 1.2322 7.6391-0.24357 5.5748 0.0269 7.8702 1 8.487 0.87731 0.55612 0.15298 0.85078-2.1161 0.86085-2.6833 0.01191-3.1833-0.25135-2.25-1.1847 1.367-1.367 1.6558-10.8 0.33071-10.8-0.47811 0-2.1046 2.8125-3.6145 6.25l-2.7452 6.25-3.3019-7-3.3019-7-0.0836 6.1667c-0.0551 4.065 0.34244 6.3386 1.1664 6.6711 0.6875 0.27741-0.1 0.50439-1.75 0.50439s-2.4375-0.22697-1.75-0.50439zm24.323-1.9726c-6.0366-7.6743 2.3525-17.954 10.913-13.373 2.2687 1.2142 4.3153 7.0086 3.3925 9.6051-2.3624 6.6472-10.38 8.7588-14.306 3.7678zm10.055-0.01884c0.75484-0.90953 1.3724-3.5404 1.3724-5.8463 0-5.0868-1.7977-7.5-5.5873-7.5-3.3846 0-4.9127 2.333-4.9127 7.5 0 1.9973 0.46583 4.5019 1.0352 5.5657 1.2923 2.4147 6.1805 2.5842 8.0924 0.28056zm7.8373 0.71944c0.56935-1.0638 1.0352-4.0184 1.0352-6.5657s-0.46583-5.5019-1.0352-6.5657c-0.87143-1.6283-0.7014-1.9343 1.0748-1.9343 1.6246 0 2.7056 1.3803 4.6989 6 1.4239 3.3 2.9037 6 3.2886 6s1.9114-2.7 3.3924-6c1.7557-3.9122 3.2821-6 4.3866-6 1.459 0 1.6939 1.1786 1.6939 8.5 0 7.8326-0.15703 8.5002-2 8.5021-1.8273 0.0019-1.9785-0.58081-1.7505-6.75l0.2495-6.7521-3.1809 6.8573-3.1809 6.8573-3.3264-6.3573-3.3264-6.3573 0.25779 6.2518c0.22395 5.4312 0.0235 6.2516-1.5274 6.25-1.455-0.0015-1.5937-0.35962-0.75-1.9361zm22.535-6.5245v-8.5412h5.75c4.8396 0 5.7375 0.27708 5.671 1.75-0.0472 1.0454-0.28201 1.2467-0.58333 0.5-0.27741-0.6875-2.0419-1.25-3.921-1.25-3.2381 0-3.4167 0.18293-3.4167 3.5 0 3.7492 1.3964 4.4286 5.0657 2.4648 1.5856-0.84858 1.9343-0.70452 1.9343 0.7992 0 1.5076-0.6235 1.7616-3.5 1.4258-3.429-0.40032-3.5-0.3354-3.5 3.2008 0 3.4167 0.17619 3.6094 3.3 3.6094 1.815 0 3.8962-0.5625 4.625-1.25 1.0693-1.0088 1.2373-0.96057 0.87063 0.25-0.32308 1.0666-2.1652 1.5842-6.375 1.7912l-5.9206 0.29123zm15.25 7.7965c0.82968-0.33478 1.25-2.8135 1.25-7.3714 0-5.485-0.35218-7.0721-1.75-7.8863-1.5254-0.88849-1.4292-1.0221 0.75-1.0415 1.8784-0.0167 3.7433 1.5299 7.5 6.2196l5 6.2418 0.30765-5.4054c0.20758-3.6472-0.11767-5.6751-1-6.2347-0.94559-0.59971-0.75389-0.83422 0.69235-0.84698 1.874-0.01653 1.9791 0.53393 1.6689 8.7347l-0.33108 8.7523-2.6689-3.0203c-1.4679-1.6612-4.1163-4.8112-5.8854-7l-3.2165-3.9797-0.0335 6.1667c-0.0219 4.0248 0.40064 6.3419 1.2165 6.6711 0.6875 0.27741-0.1 0.50439-1.75 0.50439s-2.4375-0.22697-1.75-0.50439zm23.08-7.4673 0.33029-8.1343-2.5803 0.49325c-1.4192 0.27129-2.5803 0.10566-2.5803-0.36808 0-0.47373 3.15-0.86133 7-0.86133 5.9216 0 7 0.2619 7 1.7 0 1.3222-0.26667 1.4333-1.2 0.5-0.66-0.66-2.0443-1.2-3.0762-1.2-1.7057 0-1.8465 0.72686-1.55 8.0023 0.30341 7.4444 0.1867 8.0023-1.6738 8.0023-1.8632 0-1.9774-0.55657-1.6697-8.1343zm11.17 5.4071v-2.7225l1.5967 2.2796c1.116 1.5932 2.3956 2.1871 4.25 1.9725 3.9618-0.45854 3.3521-3.4961-1.3416-6.6837-6.4888-4.4067-5.6526-9.1234 1.6174-9.1234 3.3236 0 3.8776 0.31301 3.8776 2.1911 0 2.0481-0.0853 2.0745-1.306 0.40503-1.5463-2.1146-6.0346-1.8339-6.4561 0.40384-0.16563 0.87931 1.5888 2.6277 4.2398 4.2254 3.2846 1.9794 4.5223 3.3616 4.5223 5.05 0 3.4102-1.8639 4.7246-6.7 4.7246-4.0137 0-4.3-0.18126-4.3-2.7225zm250.8 1.5225c1.5664-1.5664 1.5664-13.034 0-14.6-0.93333-0.93333 0.0322-1.2 4.345-1.2 4.1019 0 5.9757 0.47593 7.2 1.8287 2.0654 2.2823 2.088 3.567 0.0918 5.2237-1.4176 1.1765-1.4176 1.3788 0 2.1721 2.1958 1.2288 1.9611 5.4921-0.37107 6.7402-1.0638 0.56935-4.3038 1.0352-7.2 1.0352-4.0956 0-4.9991-0.26667-4.0657-1.2zm9.7-3.3c0-2.6537-0.37519-3.0362-3.25-3.3134-3.1268-0.30148-3.25-0.17594-3.25 3.3134s0.12315 3.6148 3.25 3.3134c2.8748-0.27718 3.25-0.65969 3.25-3.3134zm-0.43043-6.0838c1.7861-2.1521 0.0428-4.8189-3.4204-5.2326-2.4295-0.29018-2.6491-0.02069-2.6491 3.25 0 3.0885 0.31858 3.5664 2.3776 3.5664 1.3076 0 2.9691-0.71272 3.692-1.5838zm7.9304 9.5838c0-0.55 0.70156-1 1.559-1s1.2809 0.45 0.94098 1-1.0415 1-1.559 1-0.94098-0.45-0.94098-1zm12.8-0.2c0.67104-0.67104 1.2-3.8889 1.2-7.3s-0.52896-6.629-1.2-7.3c-0.93333-0.93333-0.64968-1.2 1.2764-1.2 2.2861 0 2.4471 0.30746 2.095 4l-0.38146 4h4.105c4.0057 0 4.105-0.08265 4.105-3.4167 0-1.8792-0.5625-3.6436-1.25-3.9211-0.6875-0.27741 0.325-0.50439 2.25-0.50439s2.9375 0.22697 2.25 0.50439c-0.84051 0.33915-1.25 2.9067-1.25 7.8377s0.40949 7.4986 1.25 7.8377c0.6875 0.27741-0.325 0.50439-2.25 0.50439s-2.9375-0.22697-2.25-0.50439c0.6875-0.27741 1.25-2.0419 1.25-3.9211 0-3.3194-0.11382-3.4167-4-3.4167s-4 0.09722-4 3.4167c0 1.8792 0.5625 3.6436 1.25 3.9211 0.6875 0.27741-0.3025 0.53991-2.2 0.58333-2.6833 0.0614-3.1833-0.18772-2.25-1.1211zm18.613-1.2927c-3.2524-4.9639 1.0737-10.974 6.2137-8.6316 3.9245 1.7881 3.0032 4.1243-1.6265 4.1243-4.3412 0-4.5114 0.17599-2.9648 3.0657 1.1804 2.2055 3.9387 2.5261 5.8872 0.68426 1.0913-1.0316 1.1201-0.85685 0.16481 1-1.5872 3.085-5.5767 2.9588-7.6744-0.24272zm5.5872-6.4483c0-1.8659-2.226-2.2616-3.8102-0.67734-1.4911 1.4911-1.4049 1.6183 1.096 1.6183 1.4929 0 2.7143-0.42344 2.7143-0.94098zm5.8465 3.9416c0.25543-3.6862-7e-3 -5.0086-1-5.031-0.82684-0.01867-0.62516-0.4495 0.52257-1.1163 1.3843-0.80428 2.0651-0.76871 2.625 0.13717 0.53918 0.8724 0.95205 0.90576 1.4399 0.11633 0.96116-1.5552 2.566-1.3787 2.566 0.28213 0 0.76389-0.7875 1.3264-1.75 1.25-1.4406-0.11434-1.75 0.70114-1.75 4.6127 0 3.5574-0.37698 4.7514-1.5 4.7506-1.1795-7.85e-4 -1.426-1.0696-1.1535-5.0016zm8.666 3.7494c-0.2336-0.6875-0.55698-4.5087-0.71862-8.4915-0.20695-5.0994 0.0759-7.3827 0.95611-7.7186 0.8713-0.33253 1.25 0.73592 1.25 3.5267 0 3.6939 0.15479 3.921 2 2.9334 3.2014-1.7134 6 0.36864 6 4.4638 0 1.8664-0.70714 4.1005-1.5714 4.9648-1.8732 1.8732-7.3137 2.0941-7.9161 0.32143zm7.2886-3.3352c0.33381-3.4208-1.8482-5.9945-4.2883-5.0581-0.93557 0.35901-1.5127 1.8642-1.5127 3.9452 0 3.9735 0.70203 4.8849 3.4588 4.4902 1.4681-0.21015 2.1257-1.1583 2.3422-3.3774zm5.5562 2.0077c-2.2121-3.3761-0.86105-7.5213 2.8803-8.8371 4.9968-1.7573 8.5732 4.1627 5.7273 9.4803-1.5688 2.9314-6.5072 2.5624-8.6076-0.64324zm7.4368-1.9225c0.36417-3.7153-1.8798-7.0648-4.1494-6.1939-1.1336 0.435-1.6446 1.832-1.6446 4.4958 0 4.4738 0.63782 5.3941 3.4588 4.9902 1.4532-0.20802 2.1258-1.1563 2.3352-3.2922zm6.0321-3.4977c0.25019-6.1387 0.0173-8.0059-1-8.0177-0.98542-0.01138-0.94076-0.26437 0.17385-0.98469 0.825-0.53316 1.8056-0.97626 2.179-0.98469 0.37347-0.0084 0.82347 4.0357 1 8.987 0.26662 7.478 0.067 9.0023-1.179 9.0023-1.2355 4.3e-5 -1.4425-1.4108-1.1738-8.0023zm5.9961 5.507c-2.0624-4.5265 2.6428-11.194 6.3031-8.9318 0.79567 0.49175 1.0048-0.2371 0.68777-2.3971-0.29352-1.9999 0.0143-3.284 0.86565-3.6107 1.0214-0.39196 1.3212 1.169 1.3212 6.8798 0 4.0628 0.25104 8.041 0.55788 8.8406 0.43537 1.1346-0.45122 1.4741-4.0377 1.546-3.9361 0.07901-4.7538-0.25494-5.6979-2.327zm6.6777-3.5927c0-3.75-0.30189-4.4167-2-4.4167-1.5338 0-2.0742 0.77274-2.3182 3.3153-0.33264 3.4655 1.3339 6.5128 3.2183 5.8846 0.60495-0.20165 1.0999-2.3541 1.0999-4.7833zm43.3 4.8833c0.67104-0.67104 1.2-3.8889 1.2-7.3s-0.52896-6.629-1.2-7.3c-0.93333-0.93333-0.0889-1.2 3.8-1.2 2.75 0 5.54 0.54 6.2 1.2 1.7358 1.7358 1.4729 5.5479-0.45715 6.628-1.5097 0.84486-1.4615 1.2439 0.54114 4.4843 1.2091 1.9563 2.9673 3.7591 3.9072 4.0063 1.0569 0.27796 0.71044 0.49366-0.90825 0.5654-2.0082 0.08901-3.233-0.81461-5.2642-3.884-1.4559-2.2-3.0907-4-3.6329-4-1.4471 0-1.2042 6.7452 0.26419 7.3377 0.6875 0.27741-0.3025 0.53991-2.2 0.58333-2.6833 0.0614-3.1833-0.18772-2.25-1.1211zm8.08-9.5758c1.2486-2.3329-0.37284-5.2242-2.9297-5.2242-1.5623 0-1.9503 0.69639-1.9503 3.5 0 2.8124 0.38598 3.5 1.9648 3.5 1.0806 0 2.3925-0.79912 2.9152-1.7758zm8.12 9.8387c0-0.51542 1.5284-0.68911 3.3964-0.38597 2.9097 0.47218 3.5011 0.22126 4.127-1.7508 0.54101-1.7045 0.19647-2.7345-1.3276-3.9686-1.9198-1.5545-1.9463-1.7786-0.39398-3.3308 2.1465-2.1465 0.40177-5.2399-2.7515-4.8782-1.2364 0.14181-1.9016-0.1802-1.5495-0.75 0.3394-0.54918 1.9102-0.9985 3.4907-0.9985 3.0817 0 5.1154 3.293 3.2102 5.1982-0.66248 0.66248-0.4621 1.9286 0.59737 3.7746 1.47 2.5614 1.4602 2.9823-0.12553 5.4025-1.3104 1.9999-2.5474 2.6247-5.1967 2.6247-1.9123 0-3.477-0.42171-3.477-0.93713zm15.881-3.5493c3.1959-3.4671 4.1664-5.2713 3.9313-7.3085-0.26611-2.3065-0.7789-2.7043-3.481-2.7002-2.4286 0.0037-2.9257-0.28835-2.1276-1.25 1.1232-1.3534 3.6812-1.62 6.2147-0.64783 2.6218 1.0061 1.9004 5.9605-1.4182 9.7402-1.65 1.8792-3 3.7441-3 4.1442s1.5827 0.54262 3.5171 0.31679c2.1753-0.25396 3.3852-0.0096 3.1714 0.64059-0.19012 0.57816-2.7544 1.19-5.6984 1.3597l-5.3527 0.30855z"/>
</svg>
