<?xml version='1.0' encoding='utf-8' standalone='no'?>
<!DOCTYPE svg PUBLIC '-//W3C//DTD SVG 1.1//EN' 'http://www.w3.org/Graphics/SVG/1.1/DTD/svg11.dtd'>
<svg version="1.1" viewBox="-2322.5 1801.5 470 106" xmlns='http://www.w3.org/2000/svg'>
<rect x="-2322.5" y="1801.5" fill="#FFFFFF" width="468.541" height="104.746"/>
<path d="M-2316.864,1818.864l4.375-11.5h1.773l4.125,11.5h-1.695l-1.117-3.359h-4.648l-1.211,3.359H-2316.864z M-2313.543,1814.145
	h3.586l-1.703-5.116L-2313.543,1814.145z"/>
<path d="M-2300.676,1818.864v-11.5h4.641c1.495,0,2.667,0.505,3.516,1.516c0.849,1.011,1.273,2.395,1.273,4.148
	c0,1.703-0.427,3.102-1.281,4.194c-0.854,1.095-2.047,1.642-3.578,1.642H-2300.676z M-2299.121,1817.504h2.992
	c0.963,0,1.75-0.359,2.359-1.078c0.614-0.719,0.922-1.855,0.922-3.414c0-1.358-0.294-2.414-0.883-3.164
	c-0.583-0.75-1.425-1.125-2.523-1.125h-2.867V1817.504z"/>
<path d="M-2290.191,1818.864l4.375-11.5h1.772l4.125,11.5h-1.695l-1.117-3.359h-4.648l-1.211,3.359H-2290.191z M-2286.871,1814.145
	h3.586l-1.703-5.116L-2286.871,1814.145z"/>
<path d="M-2279.614,1807.364h1.82l3.328,5.477l3.336-5.477h1.82l-4.375,6.875v4.625h-1.555v-4.625L-2279.614,1807.364z"/>
<path d="M-2263.989,1813.114c0-1.729,0.495-3.169,1.484-4.32c0.995-1.151,2.372-1.727,4.133-1.727c1.75,0,3.122,0.583,4.117,1.75
	c0.995,1.161,1.492,2.563,1.492,4.202c0,1.809-0.495,3.284-1.484,4.431c-0.99,1.141-2.367,1.711-4.133,1.711
	c-1.651,0-3-0.542-4.047-1.625C-2263.468,1816.447-2263.989,1814.973-2263.989,1813.114z M-2262.387,1813.114
	c0,1.344,0.352,2.461,1.055,3.352c0.708,0.892,1.695,1.336,2.961,1.336c1.156,0,2.112-0.417,2.867-1.25
	c0.76-0.839,1.141-1.983,1.141-3.438c0-1.392-0.357-2.52-1.07-3.383c-0.714-0.87-1.695-1.306-2.945-1.306
	c-1.183,0-2.146,0.419-2.891,1.258C-2262.015,1810.523-2262.387,1811.665-2262.387,1813.114z"/>
<path d="M-2250.918,1807.364h1.555v7.258c0,1.089,0.258,1.891,0.773,2.406c0.521,0.516,1.255,0.772,2.203,0.772
	c0.942,0,1.672-0.25,2.188-0.75c0.521-0.505,0.781-1.302,0.781-2.391v-7.297h1.555v7.469c0,1.255-0.386,2.292-1.156,3.109
	c-0.766,0.813-1.938,1.219-3.516,1.219c-1.245,0-2.287-0.35-3.125-1.047c-0.839-0.703-1.258-1.737-1.258-3.103V1807.364z"/>
<path d="M-2240.371,1807.364h9.305v1.358h-3.875v10.142h-1.555v-10.142h-3.875V1807.364z"/>
<line fill="none" stroke="#000000" stroke-width="1.1112" stroke-miterlimit="10" x1="-2203.548" y1="1826.581" x2="-2203.548" y2="1893.066"/>
<path d="M-1910.787,1815.403c0.017,0.808,0.211,1.425,0.586,1.852c0.381,0.422,0.978,0.633,1.789,0.633
	c0.684,0,1.267-0.183,1.75-0.547c0.489-0.37,0.734-0.911,0.734-1.625c0-0.62-0.208-1.108-0.625-1.469s-1.042-0.539-1.875-0.539
	c-0.177,0-0.448,0.008-0.813,0.023v-1.228c0.358,0.026,0.582,0.039,0.672,0.039c1.469,0,2.203-0.612,2.203-1.836
	c0-0.566-0.186-1.021-0.556-1.359c-0.364-0.339-0.866-0.508-1.508-0.508c-0.698,0-1.222,0.195-1.57,0.586
	c-0.348,0.392-0.547,0.981-0.594,1.773h-1.383c0.005-1.141,0.31-2.028,0.914-2.664c0.608-0.641,1.519-0.961,2.727-0.961
	c1.048,0,1.886,0.277,2.517,0.836c0.636,0.552,0.953,1.284,0.953,2.195c0,1.203-0.492,1.986-1.478,2.352
	c0.714,0.255,1.211,0.599,1.492,1.031c0.28,0.427,0.422,0.956,0.422,1.586c0,1.063-0.358,1.925-1.078,2.586
	c-0.719,0.661-1.683,0.992-2.891,0.992c-1.104,0-1.997-0.276-2.681-0.828c-0.677-0.559-1.064-1.531-1.164-2.922L-1910.787,1815.403
	L-1910.787,1815.403z"/>
<path d="M-1903.709,1818.864l2.906-4.353l-2.75-4.022h1.805l1.906,2.914l1.898-2.914h1.733l-2.797,4.022l2.906,4.353h-1.781
	l-2.063-3.142l-1.983,3.142H-1903.709z"/>
<path d="M-1893.889,1815.403c0.016,0.808,0.211,1.425,0.586,1.852c0.38,0.422,0.977,0.633,1.789,0.633
	c0.683,0,1.266-0.183,1.75-0.547c0.489-0.37,0.734-0.911,0.734-1.625c0-0.62-0.209-1.108-0.625-1.469
	c-0.418-0.36-1.043-0.539-1.875-0.539c-0.178,0-0.448,0.008-0.813,0.023v-1.228c0.359,0.026,0.583,0.039,0.672,0.039
	c1.47,0,2.203-0.612,2.203-1.836c0-0.566-0.185-1.021-0.555-1.359c-0.364-0.339-0.867-0.508-1.509-0.508
	c-0.697,0-1.222,0.195-1.569,0.586c-0.349,0.392-0.547,0.981-0.595,1.773h-1.383c0.006-1.141,0.311-2.028,0.914-2.664
	c0.609-0.641,1.52-0.961,2.728-0.961c1.047,0,1.886,0.277,2.516,0.836c0.636,0.552,0.953,1.284,0.953,2.195
	c0,1.203-0.492,1.986-1.478,2.352c0.715,0.255,1.212,0.599,1.492,1.031c0.281,0.427,0.422,0.956,0.422,1.586
	c0,1.063-0.358,1.925-1.077,2.586c-0.72,0.661-1.684,0.992-2.892,0.992c-1.104,0-1.996-0.276-2.68-0.828
	c-0.677-0.559-1.064-1.531-1.164-2.922L-1893.889,1815.403L-1893.889,1815.403z"/>
<path d="M-1885.803,1816.122c0.434-0.661,1.023-1.208,1.773-1.641l2.289-1.359c0.521-0.308,0.888-0.625,1.102-0.953
	c0.214-0.333,0.32-0.737,0.32-1.211c0-0.651-0.206-1.167-0.617-1.547c-0.406-0.38-0.958-0.57-1.656-0.57
	c-0.781,0-1.349,0.231-1.703,0.695c-0.349,0.458-0.55,1.138-0.602,2.039h-1.383c0-1.198,0.314-2.164,0.944-2.898
	c0.63-0.733,1.597-1.102,2.898-1.102c1.052,0,1.917,0.305,2.594,0.914c0.683,0.604,1.022,1.43,1.022,2.477
	c0,0.703-0.16,1.306-0.483,1.806c-0.323,0.494-0.82,0.93-1.492,1.305l-1.905,1.109c-0.673,0.396-1.184,0.766-1.531,1.108
	c-0.344,0.339-0.594,0.755-0.75,1.25h6.164v1.32h-7.75C-1886.49,1817.692-1886.236,1816.778-1885.803,1816.122z"/>
<path d="M-1871.443,1815.161c0.082,1.761,1.166,2.641,3.25,2.641c0.953,0,1.677-0.161,2.172-0.483
	c0.494-0.328,0.742-0.84,0.742-1.531c0-0.442-0.139-0.811-0.414-1.102c-0.271-0.298-0.945-0.573-2.023-0.828l-2.375-0.531
	c-0.755-0.188-1.349-0.497-1.781-0.93c-0.433-0.438-0.647-1.045-0.647-1.82c0-1.059,0.352-1.906,1.055-2.547
	c0.708-0.642,1.719-0.961,3.031-0.961c1.203,0,2.2,0.283,2.991,0.852c0.798,0.567,1.229,1.492,1.298,2.773h-1.453
	c-0.151-1.512-1.103-2.267-2.853-2.267c-0.766,0-1.386,0.167-1.858,0.5c-0.47,0.333-0.703,0.823-0.703,1.47
	c0,0.375,0.112,0.688,0.336,0.938s0.647,0.442,1.272,0.578l3.023,0.727c0.87,0.192,1.521,0.539,1.953,1.039
	c0.438,0.495,0.656,1.169,0.656,2.023c0,1.12-0.411,1.977-1.234,2.57c-0.822,0.593-1.945,0.891-3.367,0.891
	c-1.483,0-2.608-0.362-3.375-1.086c-0.766-0.725-1.147-1.695-1.147-2.914L-1871.443,1815.161L-1871.443,1815.161z"/>
<path fill="none" stroke="#000000" stroke-width="1.1339" stroke-miterlimit="10" d="M-2322,1801.5h468.04v91.581H-2322V1801.5z"/>
<line fill="none" stroke="#000000" stroke-width="1.1339" stroke-miterlimit="10" x1="-2322.5" y1="1827.08" x2="-1854.46" y2="1827.08"/>
<polyline fill="none" stroke="#000000" stroke-width="0.2835" stroke-linejoin="bevel" stroke-miterlimit="10" points="
	-2155.74,1840.295 -2155.715,1840.271 -2155.641,1840.197 -2155.443,1840.024 -2155.222,1839.803 -2155,1839.63 -2154.803,1839.458 
	-2154.63,1839.311 -2154.433,1839.188 -2154.31,1839.112 -2154.162,1839.014 -2153.99,1838.94 -2153.768,1838.842 
	-2153.497,1838.768 -2153.177,1838.719 -2152.832,1838.645 -2152.412,1838.62 -2151.943,1838.596 -2151.402,1838.596 
	-2150.836,1838.596 -2150.195,1838.645 -2149.777,1838.669 -2149.308,1838.694 -2148.84,1838.743 -2148.322,1838.792 
	-2147.757,1838.842 -2147.188,1838.891 -2146.572,1838.965 -2145.958,1839.039 -2145.315,1839.089 -2144.676,1839.162 
	-2144.035,1839.237 -2143.396,1839.286 -2142.779,1839.336 -2142.188,1839.41 -2141.622,1839.434 -2141.08,1839.482 
	-2140.586,1839.508 -2140.117,1839.532 -2139.699,1839.557 -2139.279,1839.557 -2138.688,1839.532 -2138.171,1839.508 
	-2137.703,1839.458 -2137.309,1839.36 -2136.965,1839.286 -2136.668,1839.188 -2136.422,1839.089 -2136.225,1839.014 
	-2136.076,1838.916 -2135.953,1838.866 -2135.88,1838.842 -2135.781,1838.817 -2135.684,1838.842 -2135.609,1838.866 
	-2135.486,1838.916 -2135.338,1839.014 -2135.14,1839.089 -2134.895,1839.188 -2134.598,1839.286 -2134.255,1839.36 
	-2133.859,1839.458 -2133.392,1839.508 -2132.875,1839.532 -2132.259,1839.557 -2131.863,1839.557 -2131.445,1839.532 
	-2130.978,1839.508 -2130.484,1839.482 -2129.941,1839.434 -2129.375,1839.41 -2128.783,1839.336 -2128.169,1839.286 
	-2127.527,1839.237 -2126.887,1839.162 -2126.247,1839.089 -2125.605,1839.039 -2124.99,1838.965 -2124.374,1838.891 
	-2123.807,1838.842 -2123.24,1838.792 -2122.723,1838.743 -2122.256,1838.694 -2121.785,1838.669 -2121.367,1838.645 
	-2120.728,1838.596 -2120.16,1838.596 -2119.619,1838.596 -2119.149,1838.62 -2118.731,1838.645 -2118.387,1838.719 
	-2118.066,1838.768 -2117.795,1838.842 -2117.574,1838.94 -2117.4,1839.014 -2117.254,1839.112 -2117.106,1839.188 
	-2116.934,1839.311 -2116.761,1839.458 -2116.563,1839.63 -2116.341,1839.803 -2116.119,1840.024 -2115.924,1840.197 
	-2115.848,1840.271 -2115.824,1840.295 "/>
<path d="M-2155.27,1845.061c0.702,0,1.195-0.116,1.482-0.349c0.287-0.23,0.449-0.519,0.485-0.862h1.16v7.121h-1.405v-4.927h-1.724
	L-2155.27,1845.061L-2155.27,1845.061z"/>
<line fill="none" stroke="#000000" stroke-width="1.1019" stroke-miterlimit="10" x1="-2026.714" y1="1827.37" x2="-2026.714" y2="1892.747"/>
<g>
	<path d="M-2010.141,1874.36l3.758-5.884l-3.531-5.616h2.867l2.039,3.727l2.109-3.727h2.758l-3.516,5.477l3.741,6.023h-2.875
		l-2.211-3.906l-2.344,3.906H-2010.141z"/>
</g>
<g>
	<path d="M-1992.915,1877.716h-1.655c-0.102-0.387-0.154-0.813-0.16-1.272l-0.01-0.537c-0.008-0.359-0.088-0.613-0.24-0.769
		c-0.152-0.151-0.463-0.229-0.932-0.229h-1.572v2.807h-1.49v-7.188h3.668c0.689,0,1.241,0.188,1.654,0.563
		c0.414,0.371,0.621,0.873,0.621,1.509c0,0.811-0.373,1.375-1.119,1.688c0.403,0.16,0.656,0.379,0.758,0.66
		c0.101,0.278,0.15,0.717,0.15,1.313v0.289c0,0.273,0.019,0.49,0.055,0.654c0.039,0.158,0.13,0.266,0.272,0.315V1877.716z
		 M-1994.546,1872.745c0-0.637-0.352-0.957-1.055-0.957h-1.886v1.92h1.769C-1994.937,1873.708-1994.546,1873.388-1994.546,1872.745z
		"/>
</g>
<g>
	<path d="M-1949.64,1874.36l3.758-5.884l-3.53-5.616h2.866l2.039,3.727l2.109-3.727h2.758l-3.517,5.477l3.742,6.023h-2.875
		l-2.211-3.906l-2.344,3.906H-1949.64z"/>
</g>
<g>
	<path d="M-1932.415,1877.716h-1.653c-0.103-0.387-0.155-0.813-0.162-1.272l-0.01-0.537c-0.006-0.359-0.086-0.613-0.238-0.769
		c-0.153-0.151-0.465-0.229-0.934-0.229h-1.572v2.807h-1.488v-7.188h3.666c0.689,0,1.242,0.188,1.656,0.563
		c0.412,0.371,0.619,0.873,0.619,1.509c0,0.811-0.373,1.375-1.117,1.688c0.402,0.16,0.654,0.379,0.756,0.66
		c0.102,0.278,0.152,0.717,0.152,1.313v0.289c0,0.273,0.018,0.49,0.053,0.654c0.039,0.158,0.131,0.266,0.272,0.315V1877.716z
		 M-1934.046,1872.745c0-0.637-0.352-0.957-1.055-0.957h-1.886v1.92h1.769C-1934.437,1873.708-1934.046,1873.388-1934.046,1872.745z
		"/>
</g>
<path d="M-1930.387,1902.358c0.009,0.454,0.119,0.802,0.33,1.042c0.213,0.236,0.549,0.355,1.006,0.355
	c0.384,0,0.712-0.103,0.984-0.309c0.274-0.207,0.412-0.512,0.412-0.914c0-0.348-0.116-0.623-0.352-0.826
	c-0.234-0.201-0.586-0.303-1.055-0.303c-0.1,0-0.252,0.004-0.457,0.014v-0.689c0.202,0.015,0.328,0.021,0.378,0.021
	c0.826,0,1.239-0.345,1.239-1.033c0-0.318-0.104-0.574-0.313-0.765c-0.206-0.19-0.488-0.286-0.849-0.286
	c-0.394,0-0.688,0.11-0.884,0.33c-0.196,0.22-0.308,0.553-0.334,0.998h-0.777c0.003-0.643,0.174-1.143,0.514-1.499
	c0.344-0.36,0.854-0.54,1.534-0.54c0.589,0,1.062,0.156,1.415,0.47c0.357,0.312,0.536,0.724,0.536,1.235
	c0,0.676-0.276,1.117-0.831,1.322c0.401,0.144,0.682,0.337,0.84,0.58c0.158,0.239,0.237,0.537,0.237,0.893
	c0,0.598-0.202,1.082-0.606,1.454c-0.403,0.372-0.945,0.558-1.625,0.558c-0.621,0-1.125-0.154-1.508-0.465
	c-0.382-0.313-0.6-0.861-0.654-1.645L-1930.387,1902.358L-1930.387,1902.358z"/>
<path d="M-1921.206,1901.941h0.85c-0.15,0.844-0.468,1.477-0.954,1.897s-1.112,0.633-1.876,0.633c-0.877,0-1.582-0.305-2.119-0.913
	c-0.535-0.612-0.804-1.441-0.804-2.487c0-1.034,0.271-1.859,0.816-2.476c0.549-0.617,1.289-0.927,2.225-0.927
	c0.705,0,1.289,0.176,1.748,0.527c0.464,0.349,0.761,0.876,0.894,1.582h-0.849c-0.227-0.896-0.825-1.345-1.799-1.345
	c-0.636,0-1.149,0.228-1.547,0.682c-0.393,0.454-0.588,1.113-0.588,1.977c0,0.798,0.176,1.435,0.527,1.908
	c0.352,0.472,0.874,0.707,1.568,0.707c0.504,0,0.914-0.148,1.233-0.448C-1921.557,1902.958-1921.332,1902.52-1921.206,1901.941z"/>
<path d="M-1920.156,1904.473l2.216-6.803h0.598l-2.215,6.803H-1920.156z"/>
<path d="M-1916.381,1902.358c0.009,0.454,0.119,0.802,0.33,1.042c0.213,0.236,0.549,0.355,1.006,0.355
	c0.385,0,0.712-0.103,0.984-0.309c0.275-0.207,0.413-0.512,0.413-0.914c0-0.348-0.117-0.623-0.353-0.826
	c-0.233-0.201-0.586-0.303-1.055-0.303c-0.1,0-0.252,0.004-0.457,0.014v-0.689c0.202,0.015,0.328,0.021,0.378,0.021
	c0.826,0,1.239-0.345,1.239-1.033c0-0.318-0.104-0.574-0.313-0.765c-0.205-0.19-0.487-0.286-0.849-0.286
	c-0.394,0-0.688,0.11-0.884,0.33c-0.196,0.22-0.307,0.553-0.334,0.998h-0.777c0.003-0.643,0.174-1.143,0.514-1.499
	c0.345-0.36,0.854-0.54,1.534-0.54c0.589,0,1.062,0.156,1.415,0.47c0.357,0.312,0.536,0.724,0.536,1.235
	c0,0.676-0.276,1.117-0.831,1.322c0.401,0.144,0.682,0.337,0.84,0.58c0.158,0.239,0.237,0.537,0.237,0.893
	c0,0.598-0.202,1.082-0.606,1.454c-0.403,0.372-0.945,0.558-1.625,0.558c-0.621,0-1.125-0.154-1.508-0.465
	c-0.382-0.313-0.6-0.861-0.654-1.645L-1916.381,1902.358L-1916.381,1902.358z"/>
<path d="M-1907.199,1901.941h0.849c-0.15,0.844-0.468,1.477-0.954,1.897s-1.112,0.633-1.876,0.633c-0.877,0-1.582-0.305-2.119-0.913
	c-0.535-0.612-0.804-1.441-0.804-2.487c0-1.034,0.271-1.859,0.816-2.476c0.549-0.617,1.289-0.927,2.225-0.927
	c0.706,0,1.289,0.176,1.749,0.527c0.463,0.349,0.76,0.876,0.893,1.582h-0.849c-0.227-0.896-0.825-1.345-1.798-1.345
	c-0.636,0-1.15,0.228-1.548,0.682c-0.393,0.454-0.588,1.113-0.588,1.977c0,0.798,0.177,1.435,0.527,1.908
	c0.352,0.472,0.874,0.707,1.568,0.707c0.504,0,0.915-0.148,1.234-0.448C-1907.551,1902.958-1907.326,1902.52-1907.199,1901.941z"/>
<path d="M-1902.894,1904.306v-6.469h0.791v6.469H-1902.894z"/>
<path d="M-1901.193,1901.968c0-0.747,0.201-1.354,0.604-1.818c0.4-0.47,0.934-0.703,1.6-0.703c0.642,0,1.168,0.228,1.582,0.681
	c0.412,0.455,0.619,1.063,0.619,1.824c0,0.718-0.199,1.314-0.598,1.793c-0.398,0.475-0.928,0.712-1.586,0.712
	c-0.648,0-1.18-0.229-1.596-0.687C-1900.984,1903.311-1901.193,1902.709-1901.193,1901.968z M-1900.375,1901.95
	c0,0.513,0.119,0.942,0.355,1.287c0.24,0.347,0.583,0.52,1.029,0.52c0.387,0,0.713-0.151,0.979-0.453
	c0.27-0.305,0.404-0.756,0.404-1.354c0-0.513-0.117-0.941-0.353-1.287s-0.579-0.521-1.032-0.521c-0.41,0-0.744,0.156-1.002,0.468
	C-1900.248,1900.921-1900.375,1901.367-1900.375,1901.95z"/>
<path d="M-1895.914,1904.306v-4.711h0.742v0.694c0.396-0.563,0.893-0.844,1.49-0.844c0.504,0,0.895,0.148,1.169,0.447
	c0.274,0.297,0.413,0.697,0.413,1.204v3.208h-0.791v-2.927c0-0.475-0.084-0.798-0.25-0.972c-0.165-0.176-0.409-0.264-0.734-0.264
	c-0.369,0-0.67,0.139-0.899,0.414c-0.232,0.274-0.349,0.662-0.349,1.163v2.584h-0.791V1904.306z"/>
<path d="M-1890.988,1904.842h0.791c0.104,0.479,0.459,0.717,1.067,0.717c0.442,0,0.775-0.112,0.998-0.339
	c0.224-0.226,0.334-0.605,0.334-1.143v-0.313c-0.284,0.461-0.714,0.69-1.287,0.69c-0.618,0-1.114-0.237-1.485-0.712
	c-0.373-0.475-0.559-1.111-0.559-1.912c0-0.688,0.171-1.258,0.516-1.709c0.342-0.451,0.817-0.677,1.428-0.677
	c0.318,0,0.59,0.066,0.813,0.202c0.224,0.132,0.433,0.338,0.625,0.618v-0.672h0.742v4.289c0,0.882-0.185,1.497-0.554,1.847
	c-0.369,0.346-0.905,0.519-1.608,0.519c-0.498,0-0.908-0.107-1.229-0.321C-1890.718,1905.71-1890.914,1905.35-1890.988,1904.842z
	 M-1890.311,1901.866c0,0.593,0.111,1.055,0.334,1.389c0.226,0.334,0.536,0.502,0.932,0.502c0.407,0,0.723-0.15,0.945-0.453
	c0.225-0.302,0.338-0.725,0.338-1.27c0-1.26-0.436-1.892-1.305-1.892C-1889.896,1900.145-1890.311,1900.719-1890.311,1901.866z"/>
<path d="M-1886.359,1899.595h0.865l0.879,3.735l0.928-3.735h0.879l0.953,3.735l0.928-3.735h0.791l-1.336,4.711h-0.817l-0.989-3.659
	l-0.927,3.659h-0.816L-1886.359,1899.595z"/>
<path d="M-1879.376,1897.846h0.791v0.905h-0.791V1897.846z M-1879.376,1899.595h0.791v4.711h-0.791V1899.595z"/>
<path d="M-1876.932,1902.838c0.021,0.612,0.429,0.919,1.217,0.919c0.344,0,0.612-0.065,0.809-0.198c0.199-0.135,0.3-0.32,0.3-0.558
	c0-0.17-0.066-0.305-0.197-0.404c-0.133-0.091-0.379-0.182-0.738-0.272l-0.924-0.229c-0.729-0.176-1.094-0.563-1.094-1.164
	c0-0.431,0.155-0.784,0.466-1.063c0.313-0.281,0.761-0.422,1.341-0.422c0.507,0,0.919,0.122,1.238,0.364
	c0.319,0.243,0.498,0.613,0.537,1.111h-0.778c-0.038-0.519-0.395-0.777-1.066-0.777c-0.641,0-0.959,0.225-0.959,0.673
	c0,0.195,0.074,0.334,0.225,0.413c0.148,0.075,0.357,0.146,0.629,0.211l0.781,0.196c0.478,0.123,0.815,0.277,1.016,0.462
	c0.202,0.193,0.303,0.457,0.303,0.791c0,0.463-0.164,0.84-0.496,1.131c-0.328,0.289-0.805,0.435-1.428,0.435
	c-0.578,0-1.041-0.122-1.389-0.364c-0.35-0.243-0.538-0.661-0.567-1.253L-1876.932,1902.838L-1876.932,1902.838z"/>
<path d="M-1872.305,1902.196c0,0.491,0.111,0.876,0.334,1.15c0.227,0.272,0.563,0.409,1.011,0.409
	c0.319-0.003,0.599-0.094,0.835-0.272c0.24-0.182,0.383-0.396,0.426-0.646h0.778c-0.103,0.495-0.325,0.89-0.668,1.183
	c-0.343,0.289-0.793,0.436-1.349,0.436c-0.663,0-1.193-0.208-1.592-0.624c-0.396-0.416-0.594-1.017-0.594-1.802
	c0-0.76,0.193-1.378,0.58-1.858c0.391-0.483,0.936-0.726,1.635-0.726c0.659,0,1.16,0.228,1.504,0.681
	c0.346,0.452,0.526,1.142,0.545,2.07H-1872.305z M-1872.305,1901.572h2.628c-0.056-0.524-0.19-0.895-0.404-1.107
	s-0.504-0.32-0.87-0.32c-0.387,0-0.703,0.133-0.948,0.396C-1872.146,1900.801-1872.281,1901.145-1872.305,1901.572z"/>
<path d="M-1864.926,1902.838c0.021,0.612,0.43,0.919,1.217,0.919c0.344,0,0.612-0.065,0.81-0.198
	c0.198-0.135,0.299-0.32,0.299-0.558c0-0.17-0.066-0.305-0.197-0.404c-0.133-0.091-0.379-0.182-0.737-0.272l-0.925-0.229
	c-0.729-0.176-1.094-0.563-1.094-1.164c0-0.431,0.155-0.784,0.466-1.063c0.313-0.281,0.762-0.422,1.342-0.422
	c0.506,0,0.918,0.122,1.237,0.364c0.319,0.243,0.498,0.613,0.537,1.111h-0.778c-0.038-0.519-0.395-0.777-1.066-0.777
	c-0.641,0-0.959,0.225-0.959,0.673c0,0.195,0.074,0.334,0.225,0.413c0.148,0.075,0.357,0.146,0.629,0.211l0.781,0.196
	c0.479,0.123,0.816,0.277,1.016,0.462c0.202,0.193,0.303,0.457,0.303,0.791c0,0.463-0.164,0.84-0.496,1.131
	c-0.327,0.289-0.805,0.435-1.428,0.435c-0.578,0-1.041-0.122-1.389-0.364c-0.35-0.243-0.538-0.661-0.566-1.253L-1864.926,1902.838
	L-1864.926,1902.838z"/>
<path d="M-1860.299,1902.196c0,0.491,0.111,0.876,0.334,1.15c0.227,0.272,0.563,0.409,1.012,0.409
	c0.318-0.003,0.598-0.094,0.834-0.272c0.24-0.182,0.383-0.396,0.427-0.646h0.778c-0.104,0.495-0.326,0.89-0.669,1.183
	c-0.343,0.289-0.793,0.436-1.349,0.436c-0.663,0-1.193-0.208-1.592-0.624c-0.396-0.416-0.594-1.017-0.594-1.802
	c0-0.76,0.193-1.378,0.58-1.858c0.391-0.483,0.936-0.726,1.636-0.726c0.659,0,1.159,0.228,1.503,0.681
	c0.346,0.452,0.527,1.142,0.545,2.07H-1860.299z M-1860.299,1901.572h2.628c-0.056-0.524-0.19-0.895-0.403-1.107
	c-0.215-0.213-0.504-0.32-0.871-0.32c-0.387,0-0.702,0.133-0.948,0.396C-1860.141,1900.801-1860.275,1901.145-1860.299,1901.572z"/>
<path d="M-1856.344,1900.254v-0.659h0.643v-1.336h0.791v1.336h0.773v0.659h-0.773v3.059c0,0.253,0.159,0.379,0.479,0.379h0.276
	v0.629c-0.297,0.04-0.518,0.061-0.664,0.061c-0.588,0-0.883-0.338-0.883-1.015v-3.111L-1856.344,1900.254L-1856.344,1900.254z"/>
<path d="M-2318.016,1903.37l1.871-5.533h0.984l-2.391,6.469h-0.927l-2.391-6.469h0.967L-2318.016,1903.37z"/>
<path d="M-2314.47,1897.846h0.791v0.905h-0.791V1897.846z M-2314.47,1899.595h0.791v4.711h-0.791V1899.595z"/>
<path d="M-2312.47,1904.306v-6.469h0.791v3.744l2.021-1.986h1.002l-1.793,1.749l1.903,2.962h-1.016l-1.459-2.391l-0.659,0.682v1.71
	L-2312.47,1904.306L-2312.47,1904.306z"/>
<path d="M-2308.449,1900.254v-0.659h0.643v-1.336h0.791v1.336h0.773v0.659h-0.773v3.059c0,0.253,0.159,0.379,0.479,0.379h0.277
	v0.629c-0.297,0.04-0.518,0.061-0.664,0.061c-0.589,0-0.883-0.338-0.883-1.015v-3.111L-2308.449,1900.254L-2308.449,1900.254z"/>
<path d="M-2305.769,1901.968c0-0.747,0.2-1.354,0.603-1.818c0.4-0.47,0.935-0.703,1.601-0.703c0.641,0,1.168,0.228,1.582,0.681
	c0.412,0.455,0.619,1.063,0.619,1.824c0,0.718-0.199,1.314-0.598,1.793c-0.398,0.475-0.928,0.712-1.586,0.712
	c-0.648,0-1.18-0.229-1.596-0.687C-2305.561,1903.311-2305.769,1902.709-2305.769,1901.968z M-2304.951,1901.95
	c0,0.513,0.119,0.942,0.355,1.287c0.24,0.347,0.583,0.52,1.029,0.52c0.387,0,0.713-0.151,0.979-0.453
	c0.271-0.305,0.404-0.756,0.404-1.354c0-0.513-0.117-0.941-0.352-1.287s-0.579-0.521-1.032-0.521c-0.411,0-0.745,0.156-1.002,0.468
	C-2304.824,1900.921-2304.951,1901.367-2304.951,1901.95z"/>
<path d="M-2300.376,1904.306v-4.711h0.743v0.787c0.216-0.36,0.426-0.606,0.628-0.737c0.205-0.134,0.438-0.198,0.698-0.198
	c0.053,0,0.119,0.011,0.198,0.03v0.813h-0.299c-0.349,0-0.633,0.125-0.853,0.374c-0.217,0.249-0.325,0.548-0.325,0.896v2.746
	L-2300.376,1904.306L-2300.376,1904.306z"/>
<path d="M-2294.891,1897.837h0.874v5.704h3.305v0.766h-4.179V1897.837z"/>
<path d="M-2289.389,1902.196c0,0.491,0.111,0.876,0.334,1.15c0.226,0.272,0.563,0.409,1.011,0.409
	c0.319-0.003,0.598-0.094,0.835-0.272c0.24-0.182,0.383-0.396,0.426-0.646h0.778c-0.103,0.495-0.325,0.89-0.668,1.183
	c-0.343,0.289-0.793,0.436-1.349,0.436c-0.663,0-1.193-0.208-1.592-0.624c-0.395-0.416-0.593-1.017-0.593-1.802
	c0-0.76,0.193-1.378,0.58-1.858c0.39-0.483,0.936-0.726,1.635-0.726c0.659,0,1.16,0.228,1.503,0.681
	c0.346,0.452,0.527,1.142,0.545,2.07H-2289.389z M-2289.389,1901.572h2.628c-0.056-0.524-0.19-0.895-0.404-1.107
	c-0.214-0.213-0.504-0.32-0.87-0.32c-0.387,0-0.703,0.133-0.949,0.396C-2289.23,1900.801-2289.366,1901.145-2289.389,1901.572z"/>
<path d="M-2284.98,1897.837h0.791v2.382c0.354-0.516,0.835-0.772,1.44-0.772c0.504,0,0.895,0.148,1.169,0.448
	c0.275,0.296,0.413,0.696,0.413,1.203v3.208h-0.791v-3.106c0-0.389-0.076-0.661-0.229-0.816c-0.152-0.158-0.384-0.238-0.694-0.238
	c-0.413,0-0.735,0.135-0.967,0.4c-0.229,0.264-0.343,0.656-0.343,1.178v2.584h-0.791L-2284.98,1897.837L-2284.98,1897.837z"/>
<path d="M-2279.975,1899.595h0.742v0.694c0.4-0.563,0.881-0.844,1.438-0.844c0.548,0,0.958,0.258,1.23,0.772
	c0.39-0.516,0.853-0.772,1.389-0.772c0.434,0,0.788,0.138,1.063,0.413c0.275,0.274,0.413,0.67,0.413,1.182v3.266h-0.791v-3.071
	c0-0.727-0.277-1.09-0.83-1.09c-0.294,0-0.555,0.114-0.783,0.344c-0.226,0.226-0.338,0.534-0.338,0.927v2.892h-0.791v-3.282
	c0-0.585-0.245-0.88-0.734-0.88c-0.354,0-0.646,0.137-0.874,0.404c-0.229,0.271-0.343,0.661-0.343,1.174v2.584h-0.791V1899.595z"/>
<path d="M-2272.5,1900.992c0.023-1.031,0.655-1.547,1.896-1.547c0.521,0,0.947,0.113,1.279,0.343c0.334,0.229,0.5,0.556,0.5,0.979
	v2.742c0,0.111,0.021,0.187,0.063,0.225c0.04,0.038,0.104,0.058,0.188,0.058c0.053,0,0.142-0.014,0.269-0.04v0.575
	c-0.193,0.059-0.347,0.088-0.457,0.088c-0.276,0-0.475-0.061-0.598-0.184c-0.121-0.123-0.189-0.306-0.207-0.546
	c-0.448,0.514-1.005,0.77-1.67,0.77c-0.396,0-0.744-0.116-1.046-0.347c-0.302-0.234-0.452-0.583-0.452-1.047
	c0-0.847,0.473-1.331,1.419-1.454l1.234-0.163c0.188-0.022,0.313-0.078,0.377-0.166c0.067-0.088,0.103-0.222,0.103-0.4
	c0-0.516-0.359-0.772-1.076-0.772c-0.369,0-0.632,0.074-0.787,0.225c-0.155,0.148-0.257,0.37-0.303,0.663L-2272.5,1900.992
	L-2272.5,1900.992z M-2269.617,1901.901c-0.12,0.095-0.366,0.169-0.738,0.225c-0.372,0.053-0.562,0.079-0.566,0.079
	c-0.665,0.091-0.998,0.354-0.998,0.791c0,0.533,0.284,0.8,0.854,0.8c0.374,0,0.71-0.104,1.006-0.315s0.443-0.479,0.443-0.801
	L-2269.617,1901.901L-2269.617,1901.901z"/>
<path d="M-2267.473,1904.306v-4.711h0.742v0.694c0.396-0.563,0.893-0.844,1.49-0.844c0.504,0,0.894,0.148,1.169,0.447
	c0.275,0.297,0.413,0.697,0.413,1.204v3.208h-0.791v-2.927c0-0.475-0.084-0.798-0.25-0.972c-0.165-0.176-0.409-0.264-0.734-0.264
	c-0.369,0-0.67,0.139-0.9,0.414c-0.231,0.274-0.348,0.662-0.348,1.163v2.584h-0.791V1904.306z"/>
<path d="M-2262.467,1904.306v-4.711h0.742v0.694c0.396-0.563,0.893-0.844,1.49-0.844c0.504,0,0.894,0.148,1.169,0.447
	c0.274,0.297,0.413,0.697,0.413,1.204v3.208h-0.791v-2.927c0-0.475-0.084-0.798-0.25-0.972c-0.165-0.176-0.409-0.264-0.734-0.264
	c-0.369,0-0.67,0.139-0.9,0.414c-0.232,0.274-0.348,0.662-0.348,1.163v2.584h-0.791V1904.306z"/>
<path d="M-2257.25,1905.225c0.312-0.048,0.471-0.354,0.479-0.919h-0.479v-0.983h0.94v0.896c0,0.82-0.313,1.295-0.94,1.425V1905.225z
	"/>
<path d="M-2252.373,1902.763c0.243-0.37,0.576-0.679,0.998-0.922l1.287-0.766c0.293-0.172,0.499-0.353,0.619-0.535
	c0.12-0.188,0.181-0.415,0.181-0.682c0-0.366-0.116-0.656-0.347-0.87c-0.229-0.214-0.54-0.321-0.932-0.321
	c-0.439,0-0.76,0.131-0.959,0.392c-0.196,0.259-0.309,0.642-0.338,1.147h-0.777c0-0.674,0.177-1.218,0.531-1.631
	s0.897-0.619,1.631-0.619c0.591,0,1.077,0.171,1.459,0.514c0.383,0.341,0.575,0.806,0.575,1.394c0,0.396-0.091,0.733-0.272,1.016
	c-0.182,0.278-0.461,0.523-0.84,0.734l-1.072,0.623c-0.377,0.224-0.665,0.432-0.861,0.625c-0.193,0.189-0.334,0.425-0.422,0.703
	h3.468v0.741h-4.359C-2252.76,1903.646-2252.616,1903.132-2252.373,1902.763z"/>
<path d="M-2247.701,1901.238c0-1.008,0.185-1.807,0.554-2.396c0.372-0.591,0.92-0.887,1.644-0.887c0.662,0,1.188,0.271,1.578,0.816
	c0.389,0.543,0.584,1.347,0.584,2.412c0,1.021-0.184,1.822-0.549,2.408c-0.367,0.583-0.91,0.874-1.631,0.874
	c-0.665,0-1.195-0.271-1.591-0.813C-2247.505,1903.113-2247.701,1902.309-2247.701,1901.238z M-2246.857,1901.212
	c0,1.696,0.441,2.545,1.327,2.545c0.896,0,1.345-0.849,1.345-2.545s-0.445-2.545-1.336-2.545
	C-2246.413,1898.667-2246.857,1899.516-2246.857,1901.212z"/>
<path d="M-2242.116,1899.217c0.574-0.022,0.971-0.118,1.191-0.286c0.222-0.166,0.392-0.47,0.51-0.909h0.619v6.284h-0.844v-4.456
	h-1.477L-2242.116,1899.217L-2242.116,1899.217z"/>
<path d="M-2237.566,1902.78h0.776c0.08,0.649,0.447,0.977,1.104,0.977c0.498,0,0.873-0.23,1.125-0.694
	c0.252-0.466,0.396-1.019,0.436-1.656c-0.281,0.519-0.786,0.777-1.512,0.777c-0.598,0-1.082-0.188-1.451-0.563
	c-0.369-0.374-0.553-0.869-0.553-1.484c0-0.649,0.191-1.177,0.575-1.577c0.387-0.401,0.898-0.603,1.538-0.603
	c1.497,0,2.246,0.975,2.246,2.926c0,1.06-0.203,1.921-0.607,2.589c-0.401,0.665-0.997,0.997-1.788,0.997
	c-0.557,0-1.004-0.147-1.341-0.446C-2237.354,1903.722-2237.537,1903.309-2237.566,1902.78z M-2236.797,1900.122
	c0,0.899,0.424,1.35,1.273,1.35c0.379,0,0.685-0.118,0.919-0.355c0.237-0.24,0.355-0.597,0.355-1.067
	c0-0.419-0.109-0.753-0.33-1.002c-0.217-0.252-0.531-0.379-0.945-0.379c-0.387,0-0.695,0.131-0.927,0.393
	C-2236.683,1899.321-2236.797,1899.674-2236.797,1900.122z"/>
<path d="M-2313.49,1870.714c0.067,1.263,0.891,1.892,2.469,1.892c1.521,0,2.281-0.486,2.281-1.461c0-0.619-0.534-1.06-1.602-1.32
	l-2.82-0.719c-0.864-0.207-1.5-0.56-1.906-1.056c-0.406-0.494-0.609-1.151-0.609-1.977c0-1.051,0.378-1.91,1.133-2.578
	c0.755-0.666,1.847-1,3.273-1c1.313,0,2.364,0.32,3.156,0.961s1.229,1.57,1.313,2.789h-2.313c-0.172-1.176-0.938-1.767-2.297-1.767
	c-0.62,0-1.114,0.121-1.484,0.359c-0.364,0.24-0.547,0.568-0.547,0.984c0,0.303,0.094,0.555,0.281,0.758
	c0.192,0.203,0.5,0.357,0.922,0.461l2.797,0.688c1.15,0.277,1.939,0.664,2.367,1.164c0.433,0.5,0.648,1.154,0.648,1.961
	c0,1.109-0.396,2.013-1.188,2.703c-0.786,0.688-1.93,1.031-3.43,1.031c-1.401,0-2.544-0.328-3.43-0.984
	c-0.886-0.659-1.328-1.625-1.328-2.891L-2313.49,1870.714L-2313.49,1870.714z"/>
<path fill="none" stroke="#000000" stroke-width="0.5572" stroke-miterlimit="10" d="M-2298.099,1870.001
	c-0.088-0.396-0.133-0.801-0.133-1.207c0-3.031,2.459-5.49,5.49-5.49c3.029,0,5.488,2.459,5.488,5.49
	c0,1.019-0.281,2.015-0.813,2.879"/>
<polygon stroke="#000000" stroke-width="0.2786" stroke-miterlimit="10" points="-2288.576,1868.317 -2287.758,1872.852 
	-2286.347,1868.466 "/>
<path d="M-2295.35,1866.759c0.702,0,1.196-0.114,1.483-0.348c0.287-0.233,0.449-0.521,0.485-0.861h1.16v7.119h-1.405v-4.926h-1.724
	L-2295.35,1866.759L-2295.35,1866.759z"/>
<polyline fill="none" stroke="#000000" stroke-width="0.2835" stroke-linejoin="bevel" stroke-miterlimit="10" points="
	-2274.351,1841.154 -2274.316,1841.122 -2274.217,1841.02 -2273.949,1840.785 -2273.646,1840.483 -2273.344,1840.248 
	-2273.075,1840.013 -2272.839,1839.813 -2272.571,1839.645 -2272.403,1839.542 -2272.201,1839.408 -2271.967,1839.307 
	-2271.665,1839.173 -2271.295,1839.072 -2270.857,1839.005 -2270.388,1838.904 -2269.816,1838.87 -2269.178,1838.837 
	-2268.439,1838.837 -2267.667,1838.837 -2266.793,1838.904 -2266.223,1838.938 -2265.584,1838.971 -2264.947,1839.039 
	-2264.241,1839.105 -2263.469,1839.173 -2262.696,1839.24 -2261.855,1839.341 -2261.017,1839.442 -2260.143,1839.51 
	-2259.269,1839.609 -2258.396,1839.711 -2257.523,1839.779 -2256.683,1839.846 -2255.878,1839.947 -2255.104,1839.98 
	-2254.366,1840.047 -2253.694,1840.081 -2253.056,1840.114 -2252.486,1840.148 -2251.914,1840.148 -2251.106,1840.114 
	-2250.403,1840.081 -2249.764,1840.013 -2249.227,1839.88 -2248.757,1839.779 -2248.354,1839.645 -2248.017,1839.51 
	-2247.749,1839.408 -2247.548,1839.274 -2247.38,1839.206 -2247.279,1839.173 -2247.144,1839.139 -2247.011,1839.173 
	-2246.91,1839.206 -2246.741,1839.274 -2246.54,1839.408 -2246.27,1839.51 -2245.935,1839.645 -2245.532,1839.779 
	-2245.062,1839.88 -2244.524,1840.013 -2243.886,1840.081 -2243.182,1840.114 -2242.341,1840.148 -2241.804,1840.148 
	-2241.232,1840.114 -2240.595,1840.081 -2239.923,1840.047 -2239.183,1839.98 -2238.411,1839.947 -2237.604,1839.846 
	-2236.766,1839.779 -2235.892,1839.711 -2235.02,1839.609 -2234.146,1839.51 -2233.272,1839.442 -2232.433,1839.341 
	-2231.593,1839.24 -2230.821,1839.173 -2230.047,1839.105 -2229.343,1839.039 -2228.705,1838.971 -2228.065,1838.938 
	-2227.496,1838.904 -2226.621,1838.837 -2225.849,1838.837 -2225.111,1838.837 -2224.472,1838.87 -2223.902,1838.904 
	-2223.431,1839.005 -2222.995,1839.072 -2222.625,1839.173 -2222.323,1839.307 -2222.088,1839.408 -2221.887,1839.542 
	-2221.685,1839.645 -2221.45,1839.813 -2221.214,1840.013 -2220.945,1840.248 -2220.643,1840.483 -2220.342,1840.785 
	-2220.074,1841.02 -2219.971,1841.122 -2219.938,1841.154 "/>
<g>
	<path fill="none" stroke="#000000" stroke-width="0.4647" stroke-miterlimit="10" d="M-2128.063,1847.99
		c0,2.31-1.874,4.183-4.183,4.183c-2.31,0-4.184-1.873-4.184-4.183c0-2.309,1.874-4.182,4.184-4.182
		C-2129.938,1843.809-2128.063,1845.682-2128.063,1847.99L-2128.063,1847.99z"/>
</g>
<g>
	
		<rect x="-2125.134" y="1843.977" fill="none" stroke="#000000" stroke-width="0.4645" stroke-miterlimit="10" width="8.363" height="8.359"/>
</g>
<g>
	
		<rect x="-2261.467" y="1842.477" fill="none" stroke="#000000" stroke-width="0.4645" stroke-miterlimit="10" width="8.363" height="8.359"/>
</g>
<g>
	<path d="M-2258.182,1847.395c0.02,0.609,0.276,0.916,0.77,0.916c0.236,0,0.428-0.073,0.575-0.221
		c0.147-0.146,0.22-0.354,0.22-0.626c0-0.264-0.094-0.456-0.282-0.575c-0.187-0.122-0.495-0.183-0.927-0.183v-0.747h0.168
		c0.583,0,0.875-0.232,0.875-0.696c0-0.208-0.062-0.376-0.184-0.505c-0.122-0.132-0.292-0.198-0.509-0.198
		c-0.479,0-0.72,0.286-0.725,0.857h-0.952c0-0.525,0.15-0.938,0.451-1.242c0.302-0.305,0.729-0.458,1.281-0.458
		c0.506,0,0.916,0.129,1.23,0.389c0.314,0.259,0.473,0.614,0.473,1.068c0,0.477-0.219,0.825-0.655,1.047
		c0.546,0.226,0.82,0.637,0.82,1.238c0,0.496-0.169,0.902-0.506,1.22c-0.334,0.314-0.783,0.472-1.348,0.472
		c-0.591,0-1.036-0.148-1.336-0.446c-0.3-0.3-0.464-0.737-0.491-1.312h1.052V1847.395z"/>
</g>
<g>
	
		<rect x="-2271.967" y="1842.477" fill="none" stroke="#000000" stroke-width="0.4645" stroke-miterlimit="10" width="8.363" height="8.359"/>
</g>
<g>
	<path d="M-2269.462,1844.622c0.525,0,0.896-0.087,1.11-0.26c0.214-0.173,0.335-0.389,0.362-0.646h0.868v5.325h-1.051v-3.684h-1.289
		V1844.622z"/>
</g>
<g>
	<path fill="none" stroke="#000000" stroke-width="0.4647" stroke-miterlimit="10" d="M-2221.48,1846.489
		c0,2.31-1.874,4.183-4.182,4.183c-2.31,0-4.184-1.873-4.184-4.183c0-2.309,1.874-4.181,4.184-4.181
		C-2223.354,1842.309-2221.48,1844.182-2221.48,1846.489L-2221.48,1846.489z"/>
</g>
<g>
	<path d="M-2227.176,1847.627c0.205-0.33,0.599-0.709,1.183-1.139c0.483-0.354,0.786-0.621,0.908-0.803
		c0.122-0.181,0.185-0.366,0.185-0.561c0-0.214-0.063-0.396-0.188-0.549c-0.122-0.154-0.307-0.231-0.553-0.231
		c-0.269,0-0.457,0.084-0.563,0.252c-0.108,0.169-0.161,0.417-0.161,0.744h-1.051v-0.153c0-0.465,0.146-0.867,0.437-1.209
		c0.293-0.342,0.729-0.513,1.307-0.513c0.508,0,0.938,0.145,1.292,0.433c0.354,0.285,0.531,0.695,0.531,1.229
		c0,0.364-0.088,0.681-0.264,0.952c-0.173,0.27-0.518,0.581-1.033,0.938c-0.564,0.392-0.9,0.67-1.007,0.84h2.304v0.934h-3.633
		C-2227.482,1848.345-2227.381,1847.957-2227.176,1847.627z"/>
</g>
<g>
	<path fill="none" stroke="#000000" stroke-width="0.4647" stroke-miterlimit="10" d="M-2232.23,1846.489
		c0,2.31-1.874,4.183-4.182,4.183c-2.31,0-4.184-1.873-4.184-4.183c0-2.309,1.874-4.181,4.184-4.181
		C-2234.104,1842.309-2232.23,1844.182-2232.23,1846.489L-2232.23,1846.489z"/>
</g>
<g>
	<path d="M-2237.962,1844.372c0.525,0,0.896-0.087,1.11-0.26c0.214-0.173,0.335-0.389,0.362-0.646h0.868v5.325h-1.051v-3.684h-1.289
		V1844.372z"/>
</g>
<path d="M-2274.795,1870.964c0.067,1.263,0.891,1.892,2.469,1.892c1.521,0,2.281-0.486,2.281-1.461c0-0.619-0.534-1.06-1.602-1.32
	l-2.82-0.719c-0.864-0.207-1.5-0.56-1.906-1.056c-0.406-0.494-0.608-1.151-0.608-1.977c0-1.051,0.378-1.91,1.133-2.578
	c0.755-0.666,1.847-1,3.273-1c1.313,0,2.364,0.32,3.156,0.961s1.229,1.57,1.313,2.789h-2.313c-0.172-1.176-0.938-1.767-2.297-1.767
	c-0.62,0-1.114,0.121-1.484,0.359c-0.364,0.24-0.547,0.568-0.547,0.984c0,0.303,0.094,0.555,0.281,0.758
	c0.192,0.203,0.5,0.357,0.922,0.461l2.797,0.688c1.151,0.277,1.94,0.664,2.367,1.164c0.433,0.5,0.648,1.154,0.648,1.961
	c0,1.109-0.396,2.013-1.188,2.703c-0.786,0.688-1.93,1.031-3.43,1.031c-1.401,0-2.544-0.328-3.43-0.984
	c-0.886-0.659-1.328-1.625-1.328-2.891L-2274.795,1870.964L-2274.795,1870.964z"/>
<path d="M-2259.295,1868.065c-0.698-0.813-1.047-1.609-1.047-2.392c0-0.75,0.284-1.375,0.852-1.875
	c0.573-0.504,1.292-0.758,2.156-0.758c0.854,0,1.552,0.25,2.094,0.75c0.547,0.496,0.82,1.123,0.82,1.883
	c0,1.09-0.646,2.008-1.938,2.758l1.625,2.017c0.172-0.275,0.308-0.566,0.406-0.875c0.099-0.313,0.167-0.652,0.203-1.023h1.978
	c-0.089,0.797-0.263,1.496-0.523,2.095c-0.261,0.594-0.531,1.053-0.813,1.375l2.086,2.522h-2.719l-0.789-0.983
	c-0.433,0.411-0.906,0.729-1.422,0.952c-0.511,0.22-1.112,0.328-1.805,0.328c-1.042,0-1.906-0.307-2.594-0.922
	c-0.688-0.613-1.031-1.426-1.031-2.438C-2261.756,1870.12-2260.936,1868.983-2259.295,1868.065z M-2258.162,1869.495
	c-0.906,0.594-1.359,1.207-1.359,1.836c0,0.496,0.159,0.889,0.477,1.18c0.323,0.293,0.711,0.438,1.164,0.438
	c0.245,0,0.521-0.051,0.828-0.156c0.308-0.104,0.646-0.316,1.016-0.641L-2258.162,1869.495z M-2257.451,1867.097
	c0.729-0.463,1.094-0.938,1.094-1.43c0-0.307-0.083-0.535-0.25-0.688c-0.167-0.155-0.409-0.233-0.728-0.233
	c-0.271,0-0.5,0.078-0.688,0.233c-0.183,0.156-0.273,0.375-0.273,0.656C-2258.295,1866.007-2258.014,1866.493-2257.451,1867.097z"/>
<path d="M-2245.389,1863.042h2.383v9.484h5.75v2.016h-8.133V1863.042z"/>
<path d="M-2235.834,1863.042h2.383v11.5h-2.383V1863.042z"/>
<path d="M-2231.28,1863.042h2.531l4.594,7.992v-7.992h2.234v11.5h-2.383l-4.742-8.18v8.18h-2.234V1863.042z"/>
<path d="M-2219.467,1874.542v-11.5h2.383v4.672l4.406-4.672h3.094l-4.734,4.767l4.992,6.733h-3.094l-3.539-5.031l-1.125,1.125v3.906
	H-2219.467z"/>
<path fill="none" stroke="#000000" stroke-width="0.5572" stroke-linejoin="bevel" stroke-miterlimit="10" d="M-2189.679,1846.112
	c3.689,0,6.685,2.996,6.685,6.688c0,3.689-2.996,6.687-6.685,6.687c-3.691,0-6.688-2.997-6.688-6.687
	C-2196.366,1849.108-2193.37,1846.112-2189.679,1846.112L-2189.679,1846.112z M-2176.305,1846.112c3.689,0,6.686,2.996,6.686,6.688
	c0,3.689-2.996,6.687-6.686,6.687c-3.691,0-6.687-2.997-6.687-6.687C-2182.992,1849.108-2179.996,1846.112-2176.305,1846.112
	L-2176.305,1846.112z"/>
<line fill="none" stroke="#000000" stroke-width="0.5572" stroke-miterlimit="10" x1="-2183.196" y1="1854.748" x2="-2176.511" y2="1866.45"/>
<path fill="none" stroke="#000000" stroke-width="0.5572" stroke-linejoin="bevel" stroke-miterlimit="10" d="M-2189.679,1872.126
	c3.689,0,6.685,2.996,6.685,6.688c0,3.688-2.996,6.686-6.685,6.686c-3.691,0-6.688-2.996-6.688-6.686
	C-2196.366,1875.122-2193.37,1872.126-2189.679,1872.126L-2189.679,1872.126z M-2176.305,1872.126c3.689,0,6.686,2.996,6.686,6.688
	c0,3.688-2.996,6.686-6.686,6.686c-3.691,0-6.687-2.996-6.687-6.686C-2182.992,1875.122-2179.996,1872.126-2176.305,1872.126
	L-2176.305,1872.126z"/>
<line fill="none" stroke="#000000" stroke-width="0.5572" stroke-miterlimit="10" x1="-2189.447" y1="1865.749" x2="-2182.762" y2="1877.45"/>
<path d="M-2154.738,1870.714c0.066,1.263,0.891,1.892,2.469,1.892c1.521,0,2.281-0.486,2.281-1.461c0-0.619-0.534-1.06-1.603-1.32
	l-2.819-0.719c-0.864-0.207-1.5-0.56-1.906-1.056c-0.406-0.494-0.609-1.151-0.609-1.977c0-1.051,0.378-1.91,1.133-2.578
	c0.755-0.666,1.848-1,3.273-1c1.313,0,2.363,0.32,3.156,0.961c0.791,0.641,1.229,1.57,1.313,2.789h-2.313
	c-0.172-1.176-0.938-1.767-2.297-1.767c-0.621,0-1.114,0.121-1.484,0.359c-0.364,0.24-0.547,0.568-0.547,0.984
	c0,0.303,0.094,0.555,0.281,0.758c0.191,0.203,0.5,0.357,0.922,0.461l2.797,0.688c1.15,0.277,1.939,0.664,2.367,1.164
	c0.433,0.5,0.647,1.154,0.647,1.961c0,1.109-0.396,2.013-1.188,2.703c-0.785,0.688-1.93,1.031-3.43,1.031
	c-1.4,0-2.544-0.328-3.43-0.984c-0.886-0.659-1.328-1.625-1.328-2.891L-2154.738,1870.714L-2154.738,1870.714z"/>
<g>
	<path d="M-2135.533,1862.442h9.384v2.016h-3.5v9.484h-2.384v-9.484h-3.5V1862.442z"/>
</g>
<g>
	<path d="M-2126.391,1877.3v-7.188h3.55c0.661,0,1.198,0.166,1.611,0.498c0.417,0.327,0.625,0.791,0.625,1.387
		c0,0.688-0.294,1.164-0.884,1.42c0.746,0.301,1.117,0.867,1.117,1.699c-0.049,0.729-0.291,1.276-0.728,1.641
		c-0.437,0.361-1.173,0.543-2.212,0.543H-2126.391z M-2124.902,1872.915h1.783c0.713,0,1.068-0.271,1.068-0.807
		c0-0.49-0.371-0.736-1.113-0.736h-1.738V1872.915z M-2124.902,1876.04h1.881c0.774,0,1.162-0.34,1.162-1.021
		c0-0.603-0.365-0.902-1.094-0.902h-1.949V1876.04z"/>
</g>
<path fill="none" stroke="#000000" stroke-width="0.9921" stroke-miterlimit="10" d="M-2075.419,1862.845
	c0,5.941-4.823,10.765-10.769,10.765c-5.941,0-10.764-4.822-10.764-10.765c0-5.941,4.821-10.764,10.764-10.764
	C-2080.242,1852.081-2075.419,1856.903-2075.419,1862.845L-2075.419,1862.845z"/>
<path d="M-2087.272,1862.104c0.304-0.411,0.754-0.617,1.352-0.617c0.634,0,1.154,0.209,1.563,0.627
	c0.408,0.418,0.611,0.966,0.611,1.646c0,0.723-0.211,1.325-0.632,1.813c-0.421,0.482-1.008,0.725-1.758,0.725
	c-1.695,0-2.542-1.19-2.542-3.574c0-1.336,0.232-2.283,0.7-2.846c0.467-0.563,1.096-0.847,1.886-0.847
	c0.62,0,1.124,0.142,1.514,0.426c0.392,0.284,0.625,0.742,0.699,1.376h-1.404c-0.076-0.45-0.342-0.676-0.799-0.676
	c-0.361,0-0.637,0.141-0.822,0.421C-2087.091,1860.852-2087.214,1861.362-2087.272,1862.104z M-2087.253,1863.832
	c0,0.393,0.103,0.714,0.304,0.965c0.207,0.248,0.475,0.372,0.805,0.372c0.3,0,0.54-0.116,0.72-0.348
	c0.183-0.235,0.274-0.564,0.274-0.989c0-0.365-0.094-0.659-0.279-0.882c-0.184-0.226-0.436-0.338-0.755-0.338
	s-0.577,0.105-0.773,0.317C-2087.154,1863.145-2087.253,1863.443-2087.253,1863.832z"/>
<line fill="none" stroke="#000000" stroke-width="0.9921" stroke-miterlimit="10" x1="-2096.761" y1="1860.181" x2="-2099.906" y2="1872.411"/>
<path d="M-2070.412,1861.583c-0.187,0.424-0.277,1.012-0.277,1.767c0,0.594,0.078,1.1,0.234,1.518
	c0.153,0.416,0.459,0.805,0.913,1.166l-0.059,0.104c-1.114-0.68-1.672-1.625-1.672-2.838c0-1.176,0.551-2.135,1.648-2.879
	l0.081,0.117C-2069.938,1860.811-2070.229,1861.157-2070.412,1861.583z"/>
<path d="M-2068.361,1861.034c0.015,0,0.023,0.006,0.029,0.02c0.008,0.011,0.01,0.046,0.01,0.103v0.768h0.681v0.215h-0.681v1.927
	c0,0.401,0.111,0.604,0.334,0.604c0.078,0,0.154-0.02,0.229-0.061c0.074-0.046,0.136-0.101,0.187-0.168l0.088,0.075
	c-0.073,0.134-0.185,0.248-0.329,0.351c-0.145,0.1-0.298,0.149-0.46,0.149c-0.405,0-0.607-0.293-0.607-0.875v-2.002h-0.284
	c-0.063,0-0.095-0.018-0.095-0.049c0-0.027,0.025-0.059,0.078-0.096c0.174-0.117,0.324-0.264,0.451-0.438
	C-2068.604,1861.38-2068.479,1861.206-2068.361,1861.034z"/>
<path d="M-2067.296,1863.423c0-0.44,0.131-0.813,0.394-1.112c0.264-0.3,0.609-0.449,1.041-0.449c0.467,0,0.832,0.141,1.101,0.42
	c0.271,0.279,0.405,0.652,0.405,1.121c0,0.449-0.141,0.832-0.418,1.145c-0.277,0.313-0.627,0.469-1.053,0.469
	c-0.438,0-0.791-0.151-1.063-0.459S-2067.296,1863.872-2067.296,1863.423z M-2066.708,1863.091c0,0.47,0.084,0.875,0.253,1.222
	c0.168,0.344,0.399,0.516,0.698,0.516c0.25,0,0.447-0.102,0.595-0.307c0.146-0.207,0.219-0.515,0.219-0.92
	c0-0.445-0.088-0.814-0.266-1.111c-0.177-0.295-0.408-0.443-0.697-0.443c-0.254,0-0.449,0.101-0.593,0.297
	C-2066.638,1862.542-2066.708,1862.79-2066.708,1863.091z"/>
<path d="M-2063.949,1860.538l0.082-0.117c1.1,0.744,1.648,1.703,1.648,2.879c0,1.213-0.559,2.158-1.671,2.838l-0.06-0.104
	c0.455-0.361,0.76-0.75,0.914-1.166c0.156-0.418,0.234-0.924,0.234-1.518c0-0.755-0.093-1.343-0.277-1.767
	C-2063.263,1861.157-2063.554,1860.811-2063.949,1860.538z"/>
<line fill="none" stroke="#000000" stroke-width="0.4514" stroke-miterlimit="10" x1="-2050.345" y1="1848.456" x2="-2048.433" y2="1848.456"/>
<rect x="-2058.929" y="1872.977" fill="none" stroke="#000000" stroke-width="0.4647" stroke-miterlimit="10" width="8.363" height="8.364"/>
<path fill="none" stroke="#000000" stroke-width="0.4647" stroke-miterlimit="10" d="M-2050.563,1848.406
	c0,2.31-1.874,4.183-4.183,4.183c-2.31,0-4.184-1.873-4.184-4.183c0-2.309,1.874-4.182,4.184-4.182
	C-2052.438,1844.227-2050.563,1846.1-2050.563,1848.406L-2050.563,1848.406z"/>
<rect x="-2042.096" y="1872.977" fill="none" stroke="#000000" stroke-width="0.4645" stroke-miterlimit="10" width="8.363" height="8.358"/>
<path fill="none" stroke="#000000" stroke-width="0.4646" stroke-miterlimit="10" d="M-2033.733,1848.407
	c0,2.308-1.871,4.181-4.182,4.181c-2.308,0-4.182-1.874-4.182-4.181c0-2.308,1.874-4.183,4.182-4.183
	C-2035.604,1844.227-2033.733,1846.1-2033.733,1848.407L-2033.733,1848.407z"/>
<path d="M-2056.326,1878.454c0.205-0.33,0.599-0.709,1.182-1.14c0.484-0.354,0.787-0.621,0.908-0.803
	c0.123-0.181,0.184-0.367,0.184-0.561c0-0.215-0.063-0.397-0.188-0.549c-0.121-0.154-0.307-0.23-0.554-0.23
	c-0.268,0-0.456,0.084-0.563,0.252c-0.108,0.169-0.162,0.416-0.162,0.744h-1.052v-0.154c0-0.464,0.146-0.867,0.437-1.209
	c0.293-0.342,0.729-0.512,1.308-0.512c0.508,0,0.938,0.145,1.293,0.432c0.354,0.285,0.53,0.695,0.53,1.23
	c0,0.363-0.088,0.682-0.264,0.952c-0.173,0.269-0.519,0.581-1.032,0.938c-0.563,0.392-0.898,0.67-1.007,0.839h2.303v0.935h-3.633
	C-2056.636,1879.171-2056.531,1878.783-2056.326,1878.454z"/>
<path d="M-2056.326,1849.704c0.205-0.33,0.599-0.709,1.182-1.139c0.484-0.354,0.787-0.621,0.908-0.803
	c0.123-0.181,0.184-0.366,0.184-0.561c0-0.214-0.063-0.397-0.188-0.549c-0.121-0.154-0.307-0.231-0.554-0.231
	c-0.268,0-0.456,0.084-0.563,0.252c-0.108,0.169-0.162,0.417-0.162,0.744h-1.052v-0.154c0-0.464,0.146-0.867,0.437-1.208
	c0.293-0.342,0.729-0.513,1.308-0.513c0.508,0,0.938,0.145,1.293,0.432c0.354,0.286,0.53,0.696,0.53,1.23
	c0,0.364-0.088,0.681-0.264,0.952c-0.173,0.269-0.519,0.581-1.032,0.938c-0.563,0.392-0.898,0.67-1.007,0.839h2.303v0.935h-3.633
	C-2056.636,1850.421-2056.531,1850.033-2056.326,1849.704z"/>
<path d="M-2038.751,1849.22c0.021,0.61,0.275,0.916,0.771,0.916c0.236,0,0.428-0.073,0.574-0.22
	c0.146-0.146,0.221-0.355,0.221-0.626c0-0.264-0.096-0.456-0.282-0.575c-0.187-0.122-0.495-0.183-0.927-0.183v-0.747h0.168
	c0.584,0,0.876-0.232,0.876-0.696c0-0.208-0.062-0.376-0.185-0.505c-0.121-0.132-0.291-0.198-0.509-0.198
	c-0.479,0-0.721,0.286-0.725,0.857h-0.953c0-0.525,0.149-0.938,0.451-1.242c0.303-0.305,0.729-0.458,1.28-0.458
	c0.507,0,0.916,0.129,1.23,0.388s0.473,0.615,0.473,1.069c0,0.476-0.219,0.825-0.654,1.047c0.546,0.225,0.82,0.637,0.82,1.238
	c0,0.496-0.17,0.902-0.507,1.22c-0.335,0.314-0.782,0.472-1.348,0.472c-0.591,0-1.036-0.148-1.337-0.446
	c-0.301-0.3-0.463-0.737-0.49-1.312L-2038.751,1849.22L-2038.751,1849.22z"/>
<path d="M-2038.751,1877.97c0.021,0.611,0.275,0.916,0.771,0.916c0.236,0,0.428-0.073,0.574-0.22
	c0.146-0.146,0.221-0.355,0.221-0.626c0-0.264-0.096-0.455-0.282-0.575c-0.187-0.122-0.495-0.183-0.927-0.183v-0.748h0.168
	c0.584,0,0.876-0.231,0.876-0.695c0-0.207-0.062-0.376-0.185-0.506c-0.121-0.131-0.291-0.197-0.509-0.197
	c-0.479,0-0.721,0.285-0.725,0.857h-0.953c0-0.525,0.149-0.939,0.451-1.242c0.303-0.305,0.729-0.457,1.28-0.457
	c0.507,0,0.916,0.129,1.23,0.388c0.314,0.26,0.473,0.615,0.473,1.069c0,0.478-0.219,0.825-0.654,1.047
	c0.546,0.226,0.82,0.638,0.82,1.238c0,0.496-0.17,0.901-0.507,1.22c-0.335,0.314-0.782,0.473-1.348,0.473
	c-0.591,0-1.036-0.148-1.337-0.446c-0.301-0.3-0.463-0.737-0.49-1.313H-2038.751L-2038.751,1877.97z"/>
<g>
	
		<rect x="-2058.869" y="1858.227" fill="none" stroke="#000000" stroke-width="0.4645" stroke-miterlimit="10" width="8.363" height="8.358"/>
</g>
<g>
	<path d="M-2056.365,1860.372c0.525,0,0.896-0.087,1.11-0.26c0.214-0.175,0.335-0.39,0.362-0.646h0.867v5.324h-1.051v-3.684h-1.289
		V1860.372L-2056.365,1860.372z"/>
</g>
<g>
	<path fill="none" stroke="#000000" stroke-width="0.4647" stroke-miterlimit="10" d="M-2033.73,1862.406
		c0,2.31-1.874,4.183-4.182,4.183c-2.311,0-4.185-1.873-4.185-4.183c0-2.309,1.874-4.182,4.185-4.182
		C-2035.604,1858.227-2033.73,1860.1-2033.73,1862.406L-2033.73,1862.406z"/>
</g>
<g>
	<path d="M-2039.462,1860.289c0.525,0,0.896-0.087,1.109-0.261c0.215-0.173,0.336-0.388,0.362-0.646h0.867v5.325h-1.051v-3.685
		h-1.289L-2039.462,1860.289L-2039.462,1860.289z"/>
</g>
<line fill="none" stroke="#000000" stroke-width="0.4514" stroke-miterlimit="10" x1="-2050.345" y1="1862.581" x2="-2048.433" y2="1862.581"/>
<line fill="none" stroke="#000000" stroke-width="0.4514" stroke-miterlimit="10" x1="-2050.345" y1="1877.206" x2="-2048.433" y2="1877.206"/>
<line fill="none" stroke="#000000" stroke-width="0.4514" stroke-miterlimit="10" x1="-2044.095" y1="1848.456" x2="-2042.183" y2="1848.456"/>
<line fill="none" stroke="#000000" stroke-width="0.4514" stroke-miterlimit="10" x1="-2043.97" y1="1862.581" x2="-2042.058" y2="1862.581"/>
<line fill="none" stroke="#000000" stroke-width="0.4514" stroke-miterlimit="10" x1="-2044.22" y1="1877.206" x2="-2042.308" y2="1877.206"/>
<path d="M-2019.27,1848.289l2.585-7.208h1.729l2.584,7.208h-1.636l-0.465-1.503h-2.703l-0.51,1.503H-2019.27z M-2016.758,1845.522
	h1.842l-0.906-2.807L-2016.758,1845.522z"/>
<path d="M-2011.469,1841.081h1.494v5.945h3.604v1.264h-5.099L-2011.469,1841.081L-2011.469,1841.081z"/>
<path d="M-2005.343,1841.081h1.494v5.945h3.604v1.264h-5.1L-2005.343,1841.081L-2005.343,1841.081z"/>
<path d="M-2020.24,1870.714c0.068,1.263,0.892,1.892,2.47,1.892c1.521,0,2.28-0.486,2.28-1.461c0-0.619-0.532-1.06-1.602-1.32
	l-2.82-0.719c-0.862-0.207-1.5-0.56-1.906-1.056c-0.405-0.494-0.608-1.151-0.608-1.977c0-1.051,0.379-1.91,1.133-2.578
	c0.756-0.666,1.849-1,3.273-1c1.313,0,2.364,0.32,3.155,0.961c0.793,0.641,1.23,1.57,1.313,2.789h-2.313
	c-0.172-1.176-0.938-1.767-2.297-1.767c-0.619,0-1.112,0.121-1.483,0.359c-0.363,0.24-0.548,0.568-0.548,0.984
	c0,0.303,0.095,0.555,0.281,0.758c0.193,0.203,0.5,0.357,0.922,0.461l2.797,0.688c1.152,0.277,1.941,0.664,2.367,1.164
	c0.435,0.5,0.648,1.154,0.648,1.961c0,1.109-0.395,2.013-1.188,2.703c-0.785,0.688-1.931,1.031-3.431,1.031
	c-1.399,0-2.543-0.328-3.43-0.984c-0.886-0.659-1.328-1.625-1.328-2.891L-2020.24,1870.714L-2020.24,1870.714z"/>
<path d="M-1948.471,1847.914c0.273-0.441,0.802-0.949,1.582-1.523c0.646-0.473,1.051-0.83,1.214-1.071
	c0.164-0.242,0.245-0.491,0.245-0.749c0-0.288-0.083-0.532-0.25-0.735c-0.163-0.206-0.409-0.309-0.739-0.309
	c-0.358,0-0.61,0.112-0.754,0.338s-0.216,0.557-0.216,0.994h-1.405v-0.206c0-0.62,0.194-1.159,0.583-1.616
	c0.393-0.457,0.975-0.687,1.748-0.687c0.68,0,1.255,0.193,1.729,0.578c0.475,0.383,0.711,0.931,0.711,1.646
	c0,0.486-0.117,0.911-0.354,1.273c-0.23,0.358-0.691,0.776-1.381,1.254c-0.754,0.521-1.203,0.896-1.347,1.121h3.079v1.248h-4.856
	C-1948.882,1848.873-1948.744,1848.354-1948.471,1847.914z"/>
<path d="M-1936.324,1847.268c0.025,0.816,0.369,1.225,1.027,1.225c0.316,0,0.573-0.098,0.77-0.294
	c0.195-0.196,0.294-0.476,0.294-0.837c0-0.354-0.125-0.609-0.378-0.77c-0.247-0.164-0.66-0.245-1.238-0.245v-0.999h0.226
	c0.78,0,1.171-0.31,1.171-0.93c0-0.278-0.082-0.503-0.244-0.676c-0.164-0.177-0.392-0.266-0.682-0.266
	c-0.64,0-0.963,0.383-0.97,1.146h-1.272c0-0.702,0.2-1.255,0.603-1.66c0.403-0.408,0.977-0.611,1.714-0.611
	c0.676,0,1.225,0.173,1.646,0.519c0.42,0.346,0.632,0.823,0.632,1.43c0,0.638-0.292,1.104-0.878,1.4
	c0.731,0.301,1.099,0.852,1.099,1.655c0,0.662-0.226,1.207-0.676,1.631c-0.448,0.421-1.05,0.632-1.804,0.632
	c-0.789,0-1.386-0.199-1.787-0.599c-0.4-0.4-0.619-0.985-0.655-1.752H-1936.324L-1936.324,1847.268z"/>
<path fill="none" stroke="#000000" stroke-width="0.5572" stroke-miterlimit="10" d="M-1984.767,1870.084
	c-0.088-0.396-0.133-0.801-0.133-1.207c0-3.031,2.459-5.49,5.489-5.49c3.029,0,5.488,2.459,5.488,5.49
	c0,1.018-0.281,2.014-0.814,2.879"/>
<polygon stroke="#000000" stroke-width="0.2786" stroke-miterlimit="10" points="-1975.242,1868.401 -1974.425,1872.936 
	-1973.015,1868.55 "/>
<g>
	<path d="M-1982.017,1866.842c0.701,0,1.194-0.115,1.481-0.348c0.287-0.231,0.449-0.52,0.486-0.861h1.16v7.12h-1.406v-4.927h-1.723
		L-1982.017,1866.842L-1982.017,1866.842z"/>
</g>
<path fill="none" stroke="#000000" stroke-width="0.5572" stroke-miterlimit="10" d="M-1955.48,1870.084
	c0.088-0.396,0.133-0.801,0.133-1.207c0-3.031-2.459-5.49-5.49-5.49c-3.029,0-5.488,2.459-5.488,5.49
	c0,1.018,0.281,2.014,0.814,2.879"/>
<polygon stroke="#000000" stroke-width="0.2786" stroke-miterlimit="10" points="-1965.004,1868.401 -1965.822,1872.936 
	-1967.232,1868.55 "/>
<g>
	<path d="M-1962.851,1866.842c0.703,0,1.196-0.115,1.483-0.348c0.287-0.231,0.449-0.52,0.484-0.861h1.16v7.12h-1.404v-4.927h-1.725
		L-1962.851,1866.842L-1962.851,1866.842z"/>
</g>
<line fill="none" stroke="#000000" stroke-width="0.5572" stroke-miterlimit="10" x1="-2199.191" y1="1852.385" x2="-2167.434" y2="1852.385"/>
<line fill="none" stroke="#000000" stroke-width="0.5572" stroke-miterlimit="10" x1="-2199.191" y1="1879.052" x2="-2167.434" y2="1879.052"/>
<g>
	
		<rect x="-1966.883" y="1842.227" fill="none" stroke="#000000" stroke-width="0.4645" stroke-miterlimit="10" width="8.363" height="8.359"/>
</g>
<g>
	<path d="M-1964.378,1844.372c0.525,0,0.896-0.087,1.11-0.26c0.214-0.173,0.335-0.389,0.361-0.646h0.868v5.325h-1.052v-3.684h-1.289
		L-1964.378,1844.372L-1964.378,1844.372z"/>
</g>
<g>
	<path fill="none" stroke="#000000" stroke-width="0.4647" stroke-miterlimit="10" d="M-1974.146,1846.489
		c0,2.31-1.874,4.183-4.182,4.183c-2.311,0-4.185-1.873-4.185-4.183c0-2.309,1.874-4.181,4.185-4.181
		C-1976.021,1842.309-1974.146,1844.182-1974.146,1846.489L-1974.146,1846.489z"/>
</g>
<g>
	<path d="M-1979.878,1844.372c0.525,0,0.896-0.087,1.109-0.26s0.336-0.389,0.362-0.646h0.867v5.325h-1.051v-3.684h-1.289
		L-1979.878,1844.372L-1979.878,1844.372z"/>
</g>
<path d="M-1921.853,1848.289l2.584-7.208h1.729l2.584,7.208h-1.635l-0.465-1.503h-2.703l-0.51,1.503H-1921.853z M-1919.341,1845.522
	h1.842l-0.905-2.807L-1919.341,1845.522z"/>
<path d="M-1914.052,1841.081h1.494v5.945h3.604v1.264h-5.099V1841.081z"/>
<path d="M-1907.927,1841.081h1.494v5.945h3.604v1.264h-5.1L-1907.927,1841.081L-1907.927,1841.081z"/>
<path d="M-1915.49,1870.714c0.068,1.263,0.892,1.892,2.47,1.892c1.521,0,2.28-0.486,2.28-1.461c0-0.619-0.532-1.06-1.602-1.32
	l-2.82-0.719c-0.862-0.207-1.5-0.56-1.906-1.056c-0.405-0.494-0.608-1.151-0.608-1.977c0-1.051,0.379-1.91,1.133-2.578
	c0.756-0.666,1.849-1,3.273-1c1.313,0,2.364,0.32,3.155,0.961c0.793,0.641,1.23,1.57,1.313,2.789h-2.313
	c-0.172-1.176-0.938-1.767-2.297-1.767c-0.619,0-1.112,0.121-1.483,0.359c-0.363,0.24-0.548,0.568-0.548,0.984
	c0,0.303,0.095,0.555,0.281,0.758c0.193,0.203,0.5,0.357,0.922,0.461l2.797,0.688c1.152,0.277,1.941,0.664,2.367,1.164
	c0.435,0.5,0.648,1.154,0.648,1.961c0,1.109-0.395,2.013-1.188,2.703c-0.785,0.688-1.931,1.031-3.431,1.031
	c-1.399,0-2.543-0.328-3.43-0.984c-0.886-0.659-1.328-1.625-1.328-2.891L-1915.49,1870.714L-1915.49,1870.714z"/>
<polyline fill="none" stroke="#000000" stroke-width="0.2835" stroke-linejoin="bevel" stroke-miterlimit="10" points="
	-1984.9,1841.154 -1984.865,1841.122 -1984.767,1841.02 -1984.498,1840.785 -1984.197,1840.483 -1983.894,1840.248 
	-1983.624,1840.013 -1983.389,1839.813 -1983.119,1839.645 -1982.951,1839.542 -1982.751,1839.408 -1982.517,1839.307 
	-1982.214,1839.173 -1981.845,1839.072 -1981.406,1839.005 -1980.938,1838.904 -1980.365,1838.87 -1979.728,1838.837 
	-1978.99,1838.837 -1978.216,1838.837 -1977.343,1838.904 -1976.772,1838.938 -1976.134,1838.971 -1975.496,1839.039 
	-1974.791,1839.105 -1974.019,1839.173 -1973.244,1839.24 -1972.406,1839.341 -1971.566,1839.442 -1970.693,1839.51 
	-1969.818,1839.609 -1968.947,1839.711 -1968.074,1839.779 -1967.233,1839.846 -1966.428,1839.947 -1965.654,1839.98 
	-1964.915,1840.047 -1964.242,1840.081 -1963.605,1840.114 -1963.035,1840.148 -1962.464,1840.148 -1961.656,1840.114 
	-1960.951,1840.081 -1960.313,1840.013 -1959.777,1839.88 -1959.307,1839.779 -1958.904,1839.645 -1958.568,1839.51 
	-1958.298,1839.408 -1958.098,1839.274 -1957.929,1839.206 -1957.828,1839.173 -1957.695,1839.139 -1957.56,1839.173 
	-1957.46,1839.206 -1957.291,1839.274 -1957.089,1839.408 -1956.82,1839.51 -1956.484,1839.645 -1956.081,1839.779 
	-1955.613,1839.88 -1955.074,1840.013 -1954.436,1840.081 -1953.731,1840.114 -1952.891,1840.148 -1952.354,1840.148 
	-1951.781,1840.114 -1951.145,1840.081 -1950.473,1840.047 -1949.733,1839.98 -1948.961,1839.947 -1948.156,1839.846 
	-1947.315,1839.779 -1946.443,1839.711 -1945.57,1839.609 -1944.695,1839.51 -1943.822,1839.442 -1942.983,1839.341 
	-1942.143,1839.24 -1941.369,1839.173 -1940.597,1839.105 -1939.892,1839.039 -1939.255,1838.971 -1938.615,1838.938 
	-1938.046,1838.904 -1937.171,1838.837 -1936.399,1838.837 -1935.66,1838.837 -1935.021,1838.87 -1934.451,1838.904 
	-1933.981,1839.005 -1933.545,1839.072 -1933.175,1839.173 -1932.871,1839.307 -1932.638,1839.408 -1932.437,1839.542 
	-1932.236,1839.645 -1931.999,1839.813 -1931.763,1840.013 -1931.494,1840.248 -1931.193,1840.483 -1930.892,1840.785 
	-1930.623,1841.02 -1930.521,1841.122 -1930.488,1841.154 "/>
<g>
	<path fill="none" stroke="#000000" stroke-width="0.9921" stroke-miterlimit="10" d="M-1865.252,1862.845
		c0,5.941-4.824,10.765-10.769,10.765c-5.941,0-10.765-4.822-10.765-10.765c0-5.941,4.822-10.764,10.765-10.764
		C-1870.076,1852.081-1865.252,1856.903-1865.252,1862.845L-1865.252,1862.845z"/>
</g>
<g>
	<path d="M-1877.105,1862.104c0.304-0.411,0.754-0.617,1.352-0.617c0.635,0,1.154,0.209,1.563,0.627s0.612,0.966,0.612,1.646
		c0,0.723-0.212,1.325-0.633,1.813c-0.421,0.482-1.008,0.725-1.758,0.725c-1.695,0-2.542-1.19-2.542-3.574
		c0-1.336,0.233-2.283,0.7-2.846c0.467-0.563,1.096-0.847,1.886-0.847c0.62,0,1.124,0.142,1.513,0.426
		c0.393,0.284,0.625,0.742,0.7,1.376h-1.405c-0.074-0.45-0.341-0.676-0.798-0.676c-0.362,0-0.637,0.141-0.823,0.421
		C-1876.924,1860.852-1877.047,1861.362-1877.105,1862.104z M-1877.086,1863.832c0,0.393,0.102,0.714,0.305,0.965
		c0.205,0.248,0.474,0.372,0.804,0.372c0.3,0,0.54-0.116,0.72-0.348c0.184-0.235,0.273-0.564,0.273-0.989
		c0-0.365-0.094-0.659-0.278-0.882c-0.185-0.226-0.435-0.338-0.755-0.338c-0.319,0-0.577,0.105-0.773,0.317
		C-1876.988,1863.145-1877.086,1863.443-1877.086,1863.832z"/>
</g>
<line fill="none" stroke="#000000" stroke-width="1.1019" stroke-miterlimit="10" x1="-1897.631" y1="1827.703" x2="-1897.631" y2="1893.08"/>
</svg>
