<?xml version="1.0" encoding="UTF-8" standalone="no"?>
<svg
   xmlns:dc="http://purl.org/dc/elements/1.1/"
   xmlns:cc="http://creativecommons.org/ns#"
   xmlns:rdf="http://www.w3.org/1999/02/22-rdf-syntax-ns#"
   xmlns:svg="http://www.w3.org/2000/svg"
   xmlns="http://www.w3.org/2000/svg"
   xmlns:sodipodi="http://sodipodi.sourceforge.net/DTD/sodipodi-0.dtd"
   xmlns:inkscape="http://www.inkscape.org/namespaces/inkscape"
   viewBox="-1 -18  272  116.73"
   version="1.1"
   id="svg2"
   inkscape:version="0.48.5 r10040"
   width="100%"
   height="100%"
   sodipodi:docname="twelvesome-reel-v4.svg"
   inkscape:export-filename="C:\Users\zotyo\Downloads\twelvesome-reel.png"
   inkscape:export-xdpi="600"
   inkscape:export-ydpi="600">
  <metadata
     id="metadata330">
    <rdf:RDF>
      <cc:Work
         rdf:about="">
        <dc:format>image/svg+xml</dc:format>
        <dc:type
           rdf:resource="http://purl.org/dc/dcmitype/StillImage" />
        <dc:title>TWELVESOME REEL _ 6x32 R</dc:title>
      </cc:Work>
    </rdf:RDF>
  </metadata>
  <defs
     id="defs328" />
  <sodipodi:namedview
     pagecolor="#ffffff"
     bordercolor="#666666"
     borderopacity="1"
     objecttolerance="10"
     gridtolerance="10"
     guidetolerance="10"
     inkscape:pageopacity="0"
     inkscape:pageshadow="2"
     inkscape:window-width="1280"
     inkscape:window-height="972"
     id="namedview326"
     showgrid="false"
     inkscape:zoom="4.2529586"
     inkscape:cx="136"
     inkscape:cy="57.77961"
     inkscape:window-x="-8"
     inkscape:window-y="-8"
     inkscape:window-maximized="1"
     inkscape:current-layer="g8" />
  <title
     id="title4">TWELVESOME REEL _ 6x32 R</title>
  <rect
     x="0"
     y="-18"
     width="270"
     height="118.10078"
     id="rect6"
     style="fill:#ffffff;stroke:none" />
  <g
     id="g8"
     font-family="Helvetica"
     stroke-width=".4"
     stroke="black"
     fill="black">
    <rect
       x="0"
       y="-18"
       width="270"
       height="18"
       id="rect10"
       fill="white" />
    <text
       x="5"
       y="-5"
       font-size="10"
       font-weight="bold"
       id="text12"
       style="font-size:10px;font-weight:bold;stroke-width:0.001">TWELVESOME REEL</text>
    <text
       x="265"
       y="-5"
       font-size="10"
       font-weight="bold"
       id="text14"
       style="font-size:10px;font-weight:bold;text-anchor:end;stroke-width:0.001">6x32 R</text>
    <rect
       x="2.9802321e-009"
       y="4.0634816e-008"
       width="270"
       height="45"
       id="rect16"
       style="fill:#ffffff" />
    <rect
       x="0"
       y="45"
       width="270"
       height="45"
       id="rect18"
       inkscape:export-filename="C:\Users\zotyo\Downloads\twelvesome_reel_r32.png"
       inkscape:export-xdpi="595.59003"
       inkscape:export-ydpi="595.59003"
       fill="white" />
    <text
       x="47.162296"
       y="8.6064997"
       font-size="6.5"
       style="font-size:6.5px;fill:#000000;stroke-width:0.001"
       id="text42">1 2 3 4</text>
    <text
       x="77.790298"
       y="8.5896406"
       font-size="6.5"
       style="font-size:6.5px;fill:#000000;stroke-width:0.001"
       id="text70">---- 5 6 ----</text>
    <line
       style="stroke:#000000;stroke-dasharray:3, 2"
       x1="115.89425"
       y1="0"
       x2="115.89425"
       y2="45"
       id="line72" />
    <circle
       cx="126"
       cy="33.75"
       r="4.5"
       id="circle98"
       sodipodi:cx="126"
       sodipodi:cy="33.75"
       sodipodi:rx="4.5"
       sodipodi:ry="4.5"
       transform="translate(110.98157,-5.8782609)"
       style="fill:#ffffff;stroke:#000000"
       d="m 130.5,33.75 c 0,2.485281 -2.01472,4.5 -4.5,4.5 -2.48528,0 -4.5,-2.014719 -4.5,-4.5 0,-2.485281 2.01472,-4.5 4.5,-4.5 2.48528,0 4.5,2.014719 4.5,4.5 z" />
    <circle
       cx="135"
       cy="33.75"
       r="4.5"
       id="circle100"
       sodipodi:cx="135"
       sodipodi:cy="33.75"
       sodipodi:rx="4.5"
       sodipodi:ry="4.5"
       transform="translate(110.98157,-5.8782609)"
       style="fill:#ffffff;stroke:#000000"
       d="m 139.5,33.75 c 0,2.485281 -2.01472,4.5 -4.5,4.5 -2.48528,0 -4.5,-2.014719 -4.5,-4.5 0,-2.485281 2.01472,-4.5 4.5,-4.5 2.48528,0 4.5,2.014719 4.5,4.5 z" />
    <circle
       cx="117"
       cy="33.75"
       r="4.5"
       id="circle102"
       sodipodi:cx="117"
       sodipodi:cy="33.75"
       sodipodi:rx="4.5"
       sodipodi:ry="4.5"
       transform="translate(110.98157,-5.8782609)"
       style="fill:#ffffff;stroke:#000000"
       d="m 121.5,33.75 c 0,2.485281 -2.01472,4.5 -4.5,4.5 -2.48528,0 -4.5,-2.014719 -4.5,-4.5 0,-2.485281 2.01472,-4.5 4.5,-4.5 2.48528,0 4.5,2.014719 4.5,4.5 z" />
    <line
       x1="201.46939"
       y1="-3.7080049e-006"
       x2="201.46939"
       y2="45"
       id="line106"
       style="stroke:#000000" />
    <circle
       cx="191.25"
       cy="22.5"
       r="4.5"
       id="circle132"
       sodipodi:cx="191.25"
       sodipodi:cy="22.5"
       sodipodi:rx="4.5"
       sodipodi:ry="4.5"
       transform="translate(-174.23165,43.969392)"
       style="fill:#ffffff;stroke:#000000"
       d="m 195.75,22.5 c 0,2.485281 -2.01472,4.5 -4.5,4.5 -2.48528,0 -4.5,-2.014719 -4.5,-4.5 0,-2.485281 2.01472,-4.5 4.5,-4.5 2.48528,0 4.5,2.014719 4.5,4.5 z" />
    <circle
       cx="191.25"
       cy="13.5"
       r="4.5"
       id="circle134"
       sodipodi:cx="191.25"
       sodipodi:cy="13.5"
       sodipodi:rx="4.5"
       sodipodi:ry="4.5"
       transform="translate(-174.23165,43.969392)"
       style="fill:#ffffff;stroke:#000000"
       d="m 195.75,13.5 c 0,2.485281 -2.01472,4.5 -4.5,4.5 -2.48528,0 -4.5,-2.014719 -4.5,-4.5 0,-2.485281 2.01472,-4.5 4.5,-4.5 2.48528,0 4.5,2.014719 4.5,4.5 z" />
    <circle
       cx="191.25"
       cy="31.5"
       r="4.5"
       id="circle136"
       sodipodi:cx="191.25"
       sodipodi:cy="31.5"
       sodipodi:rx="4.5"
       sodipodi:ry="4.5"
       transform="translate(-174.23165,43.969392)"
       style="fill:#ffffff;stroke:#000000"
       d="m 195.75,31.5 c 0,2.485281 -2.01472,4.5 -4.5,4.5 -2.48528,0 -4.5,-2.014719 -4.5,-4.5 0,-2.485281 2.01472,-4.5 4.5,-4.5 2.48528,0 4.5,2.014719 4.5,4.5 z" />
    <text
       x="81.205429"
       y="27.375458"
       font-size="10"
       font-weight="bold"
       style="font-size:10px;font-weight:bold;fill:#000000;stroke-width:0.001"
       id="text270">S</text>
    <text
       x="94.661697"
       y="27.375458"
       font-size="10"
       font-weight="bold"
       style="font-size:10px;font-weight:bold;fill:#000000;stroke-width:0.001"
       id="text272">S</text>
    <line
       x1="42.96167"
       y1="4.5263076"
       x2="44.761673"
       y2="2.7263081"
       id="line274"
       style="stroke:#000000" />
    <line
       x1="44.630241"
       y1="2.6679468"
       x2="74.403702"
       y2="2.6679468"
       id="line276"
       style="stroke:#000000;stroke-width:0.40515944" />
    <line
       x1="74.507355"
       y1="2.6679487"
       x2="76.317352"
       y2="0.86794859"
       id="line278"
       style="stroke:#000000" />
    <line
       x1="109.44136"
       y1="4.4408107"
       x2="107.64135"
       y2="2.64081"
       id="line280"
       style="stroke:#000000" />
    <line
       x1="107.82547"
       y1="2.6679487"
       x2="78.117355"
       y2="2.6679487"
       id="line282"
       style="stroke:#000000;stroke-width:0.40471452" />
    <line
       x1="78.117355"
       y1="2.6679487"
       x2="76.317352"
       y2="0.86794859"
       id="line284"
       style="stroke:#000000" />
    <text
       x="0"
       y="95.651306"
       font-size="5"
       id="text322"
       style="font-size:5px;stroke-width:0.001">Barry Priddey, Twelvesome Reel and 4 more</text>
    <text
       xml:space="preserve"
       x="270"
       y="95.695015"
       font-size="5"
       id="text324"
       style="font-size:5px;text-anchor:end;stroke-width:0.001">6C square set</text>
    <text
       x="88.32943"
       y="40.50383"
       font-size="5"
       style="font-size:4.99999475px;fill:#000000;stroke-width:0.001"
       id="text58-1"
       transform="scale(0.99999891,1.0000011)">opposite</text>
    <text
       x="92.887314"
       y="34.445286"
       font-size="5"
       style="font-size:5px;fill:#000000;stroke-width:0.001"
       id="text58-1-7">diag.</text>
    <circle
       style="fill:none;stroke:#000000"
       sodipodi:ry="9"
       sodipodi:rx="9"
       sodipodi:cy="22.5"
       sodipodi:cx="254.25"
       transform="translate(-198.01222,3.1070932)"
       cx="254.25"
       cy="22.5"
       r="9"
       id="circle112"
       d="m 263.25,22.5 c 0,4.970563 -4.02944,9 -9,9 -4.97056,0 -9,-4.029437 -9,-9 0,-4.970563 4.02944,-9 9,-9 4.97056,0 9,4.029437 9,9 z" />
    <text
       x="54.285877"
       y="28.05629"
       font-size="7.5"
       font-weight="bold"
       style="font-size:7.5px;font-weight:bold;fill:#000000;stroke-width:0.001"
       id="text114">8</text>
    <polyline
       style="fill:none;stroke:#000000"
       transform="matrix(0.69587598,0,0,1,15.206559,3.3422232)"
       points="42.75,22.5 74.25,22.5 "
       id="polyline44" />
    <polyline
       style="fill:none;stroke:#000000"
       transform="translate(33.567692,0.77391936)"
       points="13.5,31.5 13.5,24.75 "
       id="polyline22" />
    <text
       x="125.57187"
       y="8.6064997"
       font-size="6.5"
       style="font-size:6.5px;fill:#000000;stroke-width:0.001"
       id="text42-4">-- 1 2 3 4 --</text>
    <text
       x="163.95193"
       y="8.5896406"
       font-size="6.5"
       style="font-size:6.5px;fill:#000000;stroke-width:0.001"
       id="text70-0">--- 5 6 ---</text>
    <line
       x1="125.73068"
       y1="4.6749544"
       x2="127.53069"
       y2="2.8749554"
       id="line274-9"
       style="stroke:#000000" />
    <line
       x1="127.40981"
       y1="2.8749535"
       x2="157.00967"
       y2="2.8749535"
       id="line276-4"
       style="stroke:#000000;stroke-width:0.40397662" />
    <line
       style="stroke:#000000"
       x1="156.84856"
       y1="2.8749554"
       x2="158.65855"
       y2="1.0749543"
       id="line278-8" />
    <line
       x1="191.74881"
       y1="4.5579181"
       x2="189.94881"
       y2="2.7579191"
       id="line280-8"
       style="stroke:#000000" />
    <line
       x1="190.05566"
       y1="2.8749554"
       x2="160.46204"
       y2="2.8749554"
       id="line282-2"
       style="stroke:#000000;stroke-width:0.40393406" />
    <line
       style="stroke:#000000"
       x1="160.45856"
       y1="2.8749554"
       x2="158.65855"
       y2="1.0749543"
       id="line284-4" />
    <text
       x="123.91453"
       y="28.066591"
       font-size="10"
       font-weight="bold"
       style="font-size:10px;font-weight:bold;fill:#000000;stroke-width:0.001"
       id="text20">S</text>
    <polyline
       style="fill:none;stroke:#000000"
       transform="translate(118.21452,0.35323427)"
       points="13.5,31.5 13.5,24.75 "
       id="polyline22-5" />
    <path
       style="fill:#000000;stroke-width:0.001"
       inkscape:connector-curvature="0"
       d="m 130.72652,27.247235 0.988,-0.744 1.976,1.489 -1.976,-3.064 -1.976,3.064 0.988,-0.744"
       id="path24" />
    <text
       style="font-size:7.5px;font-weight:bold;stroke-width:0.001"
       x="143.28888"
       y="30.990469"
       font-size="7.5"
       font-weight="bold"
       id="text22">1</text>
    <path
       style="fill:none"
       inkscape:connector-curvature="0"
       d="m 140.70889,25.590467 c 0,-6.3 9,-6.3 9,0"
       id="path24-5" />
    <path
       style="fill:#000000;stroke-width:0.001"
       inkscape:connector-curvature="0"
       d="m 150.15389,23.271467 -0.781,0.96 -2.276,-0.971 2.654,2.5 1.183,-3.448 -0.781,0.96"
       id="path26" />
    <text
       x="170.50203"
       y="27.953531"
       font-size="10"
       font-weight="bold"
       style="font-size:10px;font-weight:bold;fill:#000000;stroke-width:0.001"
       id="text122">LA</text>
    <circle
       cx="126"
       cy="33.75"
       r="4.5"
       id="circle98-1"
       sodipodi:cx="126"
       sodipodi:cy="33.75"
       sodipodi:rx="4.5"
       sodipodi:ry="4.5"
       transform="translate(110.48174,-19.196697)"
       style="fill:#ffffff;stroke:#000000"
       d="m 130.5,33.75 c 0,2.485281 -2.01472,4.5 -4.5,4.5 -2.48528,0 -4.5,-2.014719 -4.5,-4.5 0,-2.485281 2.01472,-4.5 4.5,-4.5 2.48528,0 4.5,2.014719 4.5,4.5 z" />
    <circle
       cx="135"
       cy="33.75"
       r="4.5"
       id="circle100-7"
       sodipodi:cx="135"
       sodipodi:cy="33.75"
       sodipodi:rx="4.5"
       sodipodi:ry="4.5"
       transform="translate(110.48174,-19.196697)"
       style="fill:#ffffff;stroke:#000000"
       d="m 139.5,33.75 c 0,2.485281 -2.01472,4.5 -4.5,4.5 -2.48528,0 -4.5,-2.014719 -4.5,-4.5 0,-2.485281 2.01472,-4.5 4.5,-4.5 2.48528,0 4.5,2.014719 4.5,4.5 z" />
    <circle
       cx="117"
       cy="33.75"
       r="4.5"
       id="circle102-1"
       sodipodi:cx="117"
       sodipodi:cy="33.75"
       sodipodi:rx="4.5"
       sodipodi:ry="4.5"
       transform="translate(110.48174,-19.196697)"
       style="fill:#ffffff;stroke:#000000"
       d="m 121.5,33.75 c 0,2.485281 -2.01472,4.5 -4.5,4.5 -2.48528,0 -4.5,-2.014719 -4.5,-4.5 0,-2.485281 2.01472,-4.5 4.5,-4.5 2.48528,0 4.5,2.014719 4.5,4.5 z" />
    <text
       x="219.51256"
       y="8.5896406"
       font-size="6.5"
       style="font-size:6.5px;fill:#000000;stroke-width:0.001"
       id="text42-4-1">--- 3 5 6 1---</text>
    <text
       x="214.96353"
       y="39.800037"
       font-size="5"
       style="font-size:5px;fill:#000000;stroke-width:0.001"
       id="text58-1-7-5">5c+6c omit last pass</text>
    <circle
       cx="191.25"
       cy="22.5"
       r="4.5"
       id="circle132-6"
       sodipodi:cx="191.25"
       sodipodi:cy="22.5"
       sodipodi:rx="4.5"
       sodipodi:ry="4.5"
       transform="translate(-158.39121,44.017129)"
       style="fill:#ffffff;stroke:#000000"
       d="m 195.75,22.5 c 0,2.485281 -2.01472,4.5 -4.5,4.5 -2.48528,0 -4.5,-2.014719 -4.5,-4.5 0,-2.485281 2.01472,-4.5 4.5,-4.5 2.48528,0 4.5,2.014719 4.5,4.5 z" />
    <circle
       cx="191.25"
       cy="13.5"
       r="4.5"
       id="circle134-1"
       sodipodi:cx="191.25"
       sodipodi:cy="13.5"
       sodipodi:rx="4.5"
       sodipodi:ry="4.5"
       transform="translate(-158.39121,44.017129)"
       style="fill:#ffffff;stroke:#000000"
       d="m 195.75,13.5 c 0,2.485281 -2.01472,4.5 -4.5,4.5 -2.48528,0 -4.5,-2.014719 -4.5,-4.5 0,-2.485281 2.01472,-4.5 4.5,-4.5 2.48528,0 4.5,2.014719 4.5,4.5 z" />
    <circle
       cx="191.25"
       cy="31.5"
       r="4.5"
       id="circle136-4"
       sodipodi:cx="191.25"
       sodipodi:cy="31.5"
       sodipodi:rx="4.5"
       sodipodi:ry="4.5"
       transform="translate(-158.39121,44.017129)"
       style="fill:#ffffff;stroke:#000000"
       d="m 195.75,31.5 c 0,2.485281 -2.01472,4.5 -4.5,4.5 -2.48528,0 -4.5,-2.014719 -4.5,-4.5 0,-2.485281 2.01472,-4.5 4.5,-4.5 2.48528,0 4.5,2.014719 4.5,4.5 z" />
    <text
       x="7.0411825"
       y="51.989639"
       font-size="6.5"
       style="font-size:6.5px;fill:#000000;stroke-width:0.001"
       id="text42-4-1-3">--- 4 5 6 2 ---</text>
    <text
       x="6.2070518"
       y="86.736343"
       font-size="5"
       style="font-size:5px;fill:#000000;stroke-width:0.001"
       id="text58-1-7-5-2">5c,6c omit last pass</text>
    <line
       style="stroke:#000000"
       x1="55.196167"
       y1="44.957649"
       x2="55.196167"
       y2="89.957649"
       id="line236-2" />
    <polygon
       points="176.62,21.38 176.63,14.63 169.88,14.62 169.87,21.37 "
       id="polygon120-1"
       transform="translate(-89.132778,34.174171)"
       style="fill:#ffffff;stroke:#000000" />
    <text
       x="84.117218"
       y="54.584175"
       font-size="6.5"
       id="text124-6"
       style="font-size:6.5px;text-anchor:middle;fill:#000000;stroke:#000000;stroke-width:0.001">4</text>
    <polygon
       points="176.62,21.38 176.63,14.63 169.88,14.62 169.87,21.37 "
       id="polygon120-8"
       transform="translate(-89.132778,44.28478)"
       style="fill:#ffffff;stroke:#000000" />
    <text
       x="84.117218"
       y="64.694786"
       font-size="6.5"
       id="text124-5"
       style="font-size:6.5px;text-anchor:middle;fill:#000000;stroke:#000000;stroke-width:0.001">6</text>
    <polygon
       points="169.87,21.37 176.62,21.38 176.63,14.63 169.88,14.62 "
       id="polygon120-7"
       transform="translate(-80.197826,54.63052)"
       style="fill:#ffffff;stroke:#000000" />
    <text
       x="93.05217"
       y="75.040527"
       font-size="6.5"
       id="text124-61"
       style="font-size:6.5px;text-anchor:middle;fill:#000000;stroke:#000000;stroke-width:0.001">5</text>
    <polygon
       points="169.87,21.37 176.62,21.38 176.63,14.63 169.88,14.62 "
       id="polygon120-89"
       transform="translate(-80.197826,64.505998)"
       style="fill:#ffffff;stroke:#000000" />
    <text
       x="93.05217"
       y="84.916"
       font-size="6.5"
       id="text124-2"
       style="font-size:6.5px;text-anchor:middle;fill:#000000;stroke:#000000;stroke-width:0.001">2</text>
    <polygon
       points="169.88,14.62 169.87,21.37 176.62,21.38 176.63,14.63 "
       id="polygon120-79"
       transform="translate(-58.800956,44.755041)"
       style="fill:#ffffff;stroke:#000000" />
    <text
       x="114.44902"
       y="65.165047"
       font-size="6.5"
       id="text124-54"
       style="font-size:6.5px;text-anchor:middle;fill:#000000;stroke:#000000;stroke-width:0.001">1</text>
    <polygon
       points="176.63,14.63 169.88,14.62 169.87,21.37 176.62,21.38 "
       id="polygon120-3"
       transform="translate(-110.76478,54.160259)"
       style="fill:#ffffff;stroke:#000000" />
    <text
       x="62.485218"
       y="74.570259"
       font-size="6.5"
       id="text124-1"
       style="font-size:6.5px;text-anchor:middle;fill:#000000;stroke:#000000;stroke-width:0.001">3</text>
    <circle
       cx="173.25"
       cy="4.5"
       r="3.5"
       id="circle128-2"
       sodipodi:cx="173.25"
       sodipodi:cy="4.5"
       sodipodi:rx="3.5"
       sodipodi:ry="3.5"
       transform="translate(-80.197826,57.54965)"
       style="fill:#ffffff;stroke:#000000"
       d="m 176.75,4.5 c 0,1.9329966 -1.567,3.5 -3.5,3.5 -1.933,0 -3.5,-1.5670034 -3.5,-3.5 0,-1.9329966 1.567,-3.5 3.5,-3.5 1.933,0 3.5,1.5670034 3.5,3.5 z" />
    <text
       x="93.05217"
       y="64.459648"
       font-size="6.5"
       id="text130-3"
       style="font-size:6.5px;text-anchor:middle;fill:#000000;stroke:#000000;stroke-width:0.001">5</text>
    <circle
       cx="173.25"
       cy="4.5"
       r="3.5"
       id="circle128-3"
       sodipodi:cx="173.25"
       sodipodi:cy="4.5"
       sodipodi:rx="3.5"
       sodipodi:ry="3.5"
       transform="translate(-79.962696,47.909302)"
       style="fill:#ffffff;stroke:#000000"
       d="m 176.75,4.5 c 0,1.9329966 -1.567,3.5 -3.5,3.5 -1.933,0 -3.5,-1.5670034 -3.5,-3.5 0,-1.9329966 1.567,-3.5 3.5,-3.5 1.933,0 3.5,1.5670034 3.5,3.5 z" />
    <text
       x="93.287308"
       y="54.819302"
       font-size="6.5"
       id="text130-4"
       style="font-size:6.5px;text-anchor:middle;fill:#000000;stroke:#000000;stroke-width:0.001">4</text>
    <circle
       cx="173.25"
       cy="4.5"
       r="3.5"
       id="circle128-1"
       sodipodi:cx="173.25"
       sodipodi:cy="4.5"
       sodipodi:rx="3.5"
       sodipodi:ry="3.5"
       transform="translate(-59.036087,67.895388)"
       style="fill:#ffffff;stroke:#000000"
       d="m 176.75,4.5 c 0,1.9329966 -1.567,3.5 -3.5,3.5 -1.933,0 -3.5,-1.5670034 -3.5,-3.5 0,-1.9329966 1.567,-3.5 3.5,-3.5 1.933,0 3.5,1.5670034 3.5,3.5 z" />
    <text
       x="114.21391"
       y="74.805389"
       font-size="6.5"
       id="text130-1"
       style="font-size:6.5px;text-anchor:middle;fill:#000000;stroke:#000000;stroke-width:0.001">1</text>
    <circle
       cx="173.25"
       cy="4.5"
       r="3.5"
       id="circle128-38"
       sodipodi:cx="173.25"
       sodipodi:cy="4.5"
       sodipodi:rx="3.5"
       sodipodi:ry="3.5"
       transform="translate(-88.897648,68.36565)"
       style="fill:#ffffff;stroke:#000000"
       d="m 176.75,4.5 c 0,1.9329966 -1.567,3.5 -3.5,3.5 -1.933,0 -3.5,-1.5670034 -3.5,-3.5 0,-1.9329966 1.567,-3.5 3.5,-3.5 1.933,0 3.5,1.5670034 3.5,3.5 z" />
    <text
       x="84.352348"
       y="75.27565"
       font-size="6.5"
       id="text130-7"
       style="font-size:6.5px;text-anchor:middle;fill:#000000;stroke:#000000;stroke-width:0.001">6</text>
    <circle
       cx="173.25"
       cy="4.5"
       r="3.5"
       id="circle128-4"
       sodipodi:cx="173.25"
       sodipodi:cy="4.5"
       sodipodi:rx="3.5"
       sodipodi:ry="3.5"
       transform="translate(-88.897648,78.241128)"
       style="fill:#ffffff;stroke:#000000"
       d="m 176.75,4.5 c 0,1.9329966 -1.567,3.5 -3.5,3.5 -1.933,0 -3.5,-1.5670034 -3.5,-3.5 0,-1.9329966 1.567,-3.5 3.5,-3.5 1.933,0 3.5,1.5670034 3.5,3.5 z" />
    <text
       x="84.352348"
       y="85.151131"
       font-size="6.5"
       id="text130-2"
       style="font-size:6.5px;text-anchor:middle;fill:#000000;stroke:#000000;stroke-width:0.001">2</text>
    <circle
       cx="173.25"
       cy="4.5"
       r="3.5"
       id="circle128-7"
       sodipodi:cx="173.25"
       sodipodi:cy="4.5"
       sodipodi:rx="3.5"
       sodipodi:ry="3.5"
       transform="translate(-110.29452,56.373998)"
       style="fill:#ffffff;stroke:#000000"
       d="m 176.75,4.5 c 0,1.9329966 -1.567,3.5 -3.5,3.5 -1.933,0 -3.5,-1.5670034 -3.5,-3.5 0,-1.9329966 1.567,-3.5 3.5,-3.5 1.933,0 3.5,1.5670034 3.5,3.5 z" />
    <text
       x="62.955482"
       y="63.283997"
       font-size="6.5"
       id="text130-79"
       style="font-size:6.5px;text-anchor:middle;fill:#000000;stroke:#000000;stroke-width:0.001">3</text>
    <text
       x="98.316994"
       y="59.504738"
       font-size="10"
       font-weight="bold"
       style="font-size:8px;font-weight:bold;fill:#000000;stroke-width:0.001"
       id="text122-3">RA</text>
    <text
       x="98.694656"
       y="80.259735"
       font-size="10"
       font-weight="bold"
       style="font-size:8px;font-weight:bold;fill:#000000;stroke-width:0.001"
       id="text122-3-1">RA</text>
    <text
       x="68.068138"
       y="80.259735"
       font-size="10"
       font-weight="bold"
       style="font-size:8px;font-weight:bold;fill:#000000;stroke-width:0.001"
       id="text122-3-9">RA</text>
    <text
       x="68.368134"
       y="59.504932"
       font-size="10"
       font-weight="bold"
       style="font-size:8px;font-weight:bold;fill:#000000;stroke-width:0.001"
       id="text122-3-8">RA</text>
    <text
       x="136.28535"
       y="36.13007"
       font-size="5"
       style="font-size:5px;fill:#000000;stroke-width:0.001"
       id="text58-1-6">cast back</text>
    <line
       style="stroke:#000000;stroke-width:0.4371593"
       x1="66.021149"
       y1="71.528969"
       x2="67.583992"
       y2="73.091812"
       id="line48" />
    <line
       style="stroke:#000000;stroke-width:0.4371593"
       x1="96.823242"
       y1="51.863018"
       x2="98.386086"
       y2="53.425854"
       id="line48-8" />
    <line
       style="stroke:#000000;stroke-width:0.43715838"
       x1="109.45648"
       y1="61.243191"
       x2="111.01933"
       y2="62.80603"
       id="line48-6" />
    <line
       style="stroke:#000000;stroke-width:0.4371593"
       x1="96.588104"
       y1="72.554489"
       x2="98.150948"
       y2="74.117332"
       id="line48-5" />
    <line
       style="stroke:#000000;stroke-width:0.43784958"
       x1="79.308144"
       y1="61.26841"
       x2="80.870293"
       y2="62.830551"
       id="line48-6-0" />
    <line
       style="stroke:#000000;stroke-width:0.43715745"
       x1="79.188438"
       y1="81.019188"
       x2="80.751282"
       y2="82.582031"
       id="line48-6-06" />
    <line
       style="stroke:#000000;stroke-width:0.4371576"
       x1="68.054245"
       y1="59.067055"
       x2="66.491394"
       y2="60.629898"
       id="line120" />
    <line
       style="stroke:#000000;stroke-width:0.4371576"
       x1="80.66629"
       y1="52.098145"
       x2="79.103439"
       y2="53.660988"
       id="line120-8" />
    <line
       style="stroke:#000000;stroke-width:0.4371576"
       x1="98.065956"
       y1="60.797966"
       x2="96.503105"
       y2="62.360809"
       id="line120-9" />
    <line
       style="stroke:#000000;stroke-width:0.4371576"
       x1="97.830818"
       y1="81.254318"
       x2="96.267967"
       y2="82.817162"
       id="line120-3" />
    <line
       style="stroke:#000000;stroke-width:0.4371576"
       x1="110.76299"
       y1="71.849098"
       x2="109.20014"
       y2="73.411942"
       id="line120-4" />
    <line
       style="stroke:#000000;stroke-width:0.4371576"
       x1="80.666298"
       y1="72.319359"
       x2="79.103447"
       y2="73.882202"
       id="line120-8-4" />
    <text
       x="130.5096"
       y="54.068871"
       font-size="6.5"
       style="font-size:6.5px;fill:#000000;stroke-width:0.001"
       id="text42-4-6">3 4 1 2</text>
    <text
       x="172.8869"
       y="54.071781"
       font-size="6.5"
       style="font-size:6.5px;fill:#000000;stroke-width:0.001"
       id="text70-0-0">6 5</text>
    <line
       x1="126.59598"
       y1="49.787384"
       x2="128.39597"
       y2="47.987381"
       id="line274-9-1"
       style="stroke:#000000" />
    <line
       style="stroke:#000000"
       x1="157.78909"
       y1="47.964607"
       x2="159.59909"
       y2="46.164604"
       id="line278-8-5" />
    <line
       style="stroke:#000000"
       x1="161.39909"
       y1="47.964607"
       x2="159.59909"
       y2="46.164604"
       id="line284-4-4" />
    <text
       x="248.3302"
       y="71.729996"
       font-size="10"
       font-weight="bold"
       style="font-size:10px;font-weight:bold;fill:#000000;stroke-width:0.001"
       id="text122-0">RA</text>
    <text
       x="225.60616"
       y="71.729996"
       font-size="10"
       font-weight="bold"
       style="font-size:10px;font-weight:bold;fill:#000000;stroke-width:0.001"
       id="text122-0-0">RA</text>
    <text
       x="125.91086"
       y="71.603043"
       font-size="10"
       font-weight="bold"
       style="font-size:10px;font-weight:bold;fill:#000000;stroke-width:0.001"
       id="text122-0-0-1">CHASE</text>
    <polyline
       style="fill:none;stroke:#000000"
       transform="matrix(1.1840114,0,0,0.6001659,74.485122,55.107689)"
       points="42.75,22.5 74.25,22.5 "
       id="polyline44-2-4" />
    <text
       x="208.10985"
       y="71.729675"
       font-size="10"
       font-weight="bold"
       style="font-size:10px;font-weight:bold;fill:#000000;stroke-width:0.001"
       id="text32">T</text>
    <text
       x="214.20985"
       y="74.757996"
       font-size="6.5"
       style="font-size:6.5px;fill:#000000;stroke-width:0.001"
       id="text34">R</text>
    <text
       x="206.22159"
       y="53.826557"
       font-size="6.5"
       style="font-size:6.5px;fill:#000000;stroke-width:0.001"
       id="text42-4-6-6">3 1</text>
    <text
       x="251.18532"
       y="53.850651"
       font-size="6.5"
       style="font-size:6.5px;fill:#000000;stroke-width:0.001"
       id="text70-0-0-0">6 4</text>
    <line
       x1="200.21382"
       y1="49.495049"
       x2="202.01382"
       y2="47.695045"
       id="line274-9-1-7"
       style="stroke:#000000" />
    <line
       x1="201.85237"
       y1="47.695042"
       x2="231.4772"
       y2="47.695042"
       id="line276-4-6-1"
       style="stroke:#000000;stroke-width:0.40414685" />
    <line
       style="stroke:#000000"
       x1="231.3849"
       y1="47.72261"
       x2="233.1949"
       y2="45.922607"
       id="line278-8-5-7" />
    <line
       x1="266.27625"
       y1="49.550182"
       x2="264.47626"
       y2="47.750179"
       id="line280-8-7-7"
       style="stroke:#000000" />
    <line
       x1="264.54504"
       y1="47.72261"
       x2="234.92442"
       y2="47.72261"
       id="line282-2-5-7"
       style="stroke:#000000;stroke-width:0.4041183" />
    <line
       style="stroke:#000000"
       x1="234.9949"
       y1="47.72261"
       x2="233.1949"
       y2="45.922607"
       id="line284-4-4-7" />
    <line
       style="stroke:#000000;stroke-dasharray:3, 2"
       x1="122.67861"
       y1="44.776997"
       x2="122.67861"
       y2="89.777"
       id="line72-3" />
    <text
       x="228.89703"
       y="53.847477"
       font-size="6.5"
       style="font-size:6.5px;fill:#000000;stroke-width:0.001"
       id="text42-4-6-6-3">2 5</text>
    <polyline
       style="fill:none;stroke:#000000"
       transform="matrix(0.5179699,0,0,1.1463089,202.16534,42.773047)"
       points="42.75,22.5 74.25,22.5 "
       id="polyline44-2-5" />
    <polyline
       style="fill:none;stroke:#000000"
       transform="matrix(0.5179699,0,0,1.1463089,224.75581,42.773047)"
       points="42.75,22.5 74.25,22.5 "
       id="polyline44-2-5-9" />
    <text
       x="128.22353"
       y="86.971474"
       font-size="5"
       style="font-size:5px;fill:#000000;stroke-width:0.001"
       id="text58-1-7-5-2-8">one place clk.</text>
    <text
       x="138.63666"
       y="41.195011"
       font-size="5"
       style="font-size:5px;fill:#000000;stroke-width:0.001"
       id="text58-1-2">to place</text>
    <line
       x1="36.495949"
       y1="0.16012108"
       x2="36.495949"
       y2="45.160126"
       id="line106-1"
       style="stroke:#000000" />
    <text
       x="12.177084"
       y="9.0220165"
       font-size="6.5"
       id="text124-6-4"
       style="font-size:6.5px;text-anchor:middle;fill:#000000;stroke:#000000;stroke-width:0.001">2</text>
    <polygon
       points="169.87,21.37 176.62,21.38 176.63,14.63 169.88,14.62 "
       id="polygon120-8-0"
       transform="translate(-161.11176,-1.2773773)"
       style="fill:#ffffff;stroke:#000000" />
    <text
       x="12.138238"
       y="19.132627"
       font-size="6.5"
       id="text124-5-9"
       style="font-size:6.5px;text-anchor:middle;fill:#000000;stroke:#000000;stroke-width:0.001">5</text>
    <polygon
       points="169.88,14.62 169.87,21.37 176.62,21.38 176.63,14.63 "
       id="polygon120-7-4"
       transform="translate(-152.297,10.244015)"
       style="fill:#ffffff;stroke:#000000" />
    <text
       x="21.073189"
       y="30.65402"
       font-size="6.5"
       id="text124-61-8"
       style="font-size:6.5px;text-anchor:middle;fill:#000000;stroke:#000000;stroke-width:0.001">6</text>
    <text
       x="21.150583"
       y="40.529495"
       font-size="6.5"
       id="text124-2-2"
       style="font-size:6.5px;text-anchor:middle;fill:#000000;stroke:#000000;stroke-width:0.001">4</text>
    <text
       x="3.4593129"
       y="30.783998"
       font-size="6.5"
       id="text124-1-5"
       style="font-size:6.5px;text-anchor:middle;fill:#000000;stroke:#000000;stroke-width:0.001">1</text>
    <circle
       cx="173.25"
       cy="4.5"
       r="3.5"
       id="circle128-2-1"
       sodipodi:cx="173.25"
       sodipodi:cy="4.5"
       sodipodi:rx="3.5"
       sodipodi:ry="3.5"
       transform="translate(-152.17681,11.987493)"
       style="fill:#ffffff;stroke:#000000"
       d="m 176.75,4.5 c 0,1.9329966 -1.567,3.5 -3.5,3.5 -1.933,0 -3.5,-1.5670034 -3.5,-3.5 0,-1.9329966 1.567,-3.5 3.5,-3.5 1.933,0 3.5,1.5670034 3.5,3.5 z" />
    <text
       x="21.073189"
       y="18.89749"
       font-size="6.5"
       id="text130-3-7"
       style="font-size:6.5px;text-anchor:middle;fill:#000000;stroke:#000000;stroke-width:0.001">6</text>
    <text
       x="21.144085"
       y="9.257143"
       font-size="6.5"
       id="text130-4-1"
       style="font-size:6.5px;text-anchor:middle;fill:#000000;stroke:#000000;stroke-width:0.001">2</text>
    <circle
       cx="173.25"
       cy="4.5"
       r="3.5"
       id="circle128-38-7"
       sodipodi:cx="173.25"
       sodipodi:cy="4.5"
       sodipodi:rx="3.5"
       sodipodi:ry="3.5"
       transform="translate(-160.992,23.979145)"
       style="fill:#ffffff;stroke:#000000"
       d="m 176.75,4.5 c 0,1.9329966 -1.567,3.5 -3.5,3.5 -1.933,0 -3.5,-1.5670034 -3.5,-3.5 0,-1.9329966 1.567,-3.5 3.5,-3.5 1.933,0 3.5,1.5670034 3.5,3.5 z" />
    <text
       x="12.138084"
       y="30.643641"
       font-size="6.5"
       id="text130-7-6"
       style="font-size:6.5px;text-anchor:middle;fill:#000000;stroke:#000000;stroke-width:0.001">5</text>
    <text
       x="12.183584"
       y="40.764626"
       font-size="6.5"
       id="text130-2-4"
       style="font-size:6.5px;text-anchor:middle;fill:#000000;stroke:#000000;stroke-width:0.001">4</text>
    <text
       x="3.9295774"
       y="19.272999"
       font-size="6.5"
       id="text130-79-3"
       style="font-size:6.5px;text-anchor:middle;fill:#000000;stroke:#000000;stroke-width:0.001">1</text>
    <text
       x="29.851963"
       y="30.6605"
       font-size="6.5"
       id="text124-1-5-1"
       style="font-size:6.5px;text-anchor:middle;fill:#000000;stroke:#000000;stroke-width:0.001">3</text>
    <text
       x="30.322227"
       y="19.1495"
       font-size="6.5"
       id="text130-79-3-2"
       style="font-size:6.5px;text-anchor:middle;fill:#000000;stroke:#000000;stroke-width:0.001">3</text>
    <line
       x1="35.210087"
       y1="0.15999116"
       x2="35.210087"
       y2="45.16"
       id="line106-1-3"
       style="stroke:#000000" />
    <line
       style="stroke:#000000;stroke-width:0.23577589"
       x1="12.280684"
       y1="24.83111"
       x2="12.280684"
       y2="23.510942"
       id="line76" />
    <line
       style="stroke:#000000;stroke-width:0.23612772"
       x1="12.280488"
       y1="21.631517"
       x2="12.280488"
       y2="20.295507"
       id="line76-3" />
    <line
       style="stroke:#000000;stroke-width:0.23636127"
       x1="21.120892"
       y1="21.505962"
       x2="21.120892"
       y2="20.159346"
       id="line76-4" />
    <line
       style="stroke:#000000;stroke-width:0.2358095"
       x1="21.121788"
       y1="24.680414"
       x2="21.121788"
       y2="23.358742"
       id="line76-1" />
    <text
       id="text3348"
       style="font-size:6.5px;fill:#000000;stroke-width:0.001"
       font-size="6.5"
       y="54.0065"
       x="130.5096">3 4 1 2</text>
    <text
       id="text3350"
       style="font-size:6.5px;fill:#000000;stroke-width:0.001"
       font-size="6.5"
       y="53.989639"
       x="172.8869">6 5</text>
    <line
       style="stroke:#000000;stroke-width:0.4044311"
       id="line3352"
       y2="47.977913"
       x2="157.90494"
       y1="47.977913"
       x1="128.23842" />
    <line
       id="line3354"
       y2="46.164604"
       x2="159.59909"
       y1="47.964607"
       x1="157.78909"
       style="stroke:#000000" />
    <line
       style="stroke:#000000"
       id="line3356"
       y2="47.788082"
       x2="190.73766"
       y1="49.588085"
       x1="192.53766" />
    <line
       style="stroke:#000000;stroke-width:0.40381664"
       id="line3358"
       y2="47.88773"
       x2="161.35141"
       y1="47.88773"
       x1="190.92783" />
    <line
       id="line3360"
       y2="46.164604"
       x2="159.59909"
       y1="47.964607"
       x1="161.39909"
       style="stroke:#000000" />
    <text
       id="text3362"
       style="font-size:10px;font-weight:bold;fill:#000000;stroke-width:0.001"
       font-weight="bold"
       font-size="10"
       y="71.729996"
       x="170.26691">LA</text>
    <polyline
       id="polyline3364"
       points="42.75,22.5 74.25,22.5 "
       transform="matrix(0.51048743,0,0,1.2346031,147.03191,40.80457)"
       style="fill:none;stroke:#000000" />
    <text
       id="text3374"
       style="font-size:10px;font-weight:bold;fill:#000000;stroke-width:0.001"
       font-weight="bold"
       font-size="10"
       y="71.729675"
       x="208.10985">T</text>
    <text
       id="text3376"
       style="font-size:6.5px;fill:#000000;stroke-width:0.001"
       font-size="6.5"
       y="74.757996"
       x="214.20985">R</text>
    <text
       id="text3378"
       style="font-size:6.5px;fill:#000000;stroke-width:0.001"
       font-size="6.5"
       y="54.0065"
       x="206.22159">3 1</text>
    <text
       id="text3380"
       style="font-size:6.5px;fill:#000000;stroke-width:0.001"
       font-size="6.5"
       y="54.000408"
       x="251.18532">6 4</text>
    <text
       id="text3394"
       style="font-size:6.5px;fill:#000000;stroke-width:0.001"
       font-size="6.5"
       y="53.989639"
       x="228.89703">2 5</text>
    <text
       id="text3400"
       style="font-size:5px;fill:#000000;stroke-width:0.001"
       font-size="5"
       y="86.971474"
       x="128.22353">one place clk.</text>
  </g>
</svg>
