<?xml version='1.0' encoding='utf-8' standalone='no'?>
<!DOCTYPE svg PUBLIC '-//W3C//DTD SVG 1.1//EN' 'http://www.w3.org/Graphics/SVG/1.1/DTD/svg11.dtd'>
<svg version="1.1" viewBox="0 0 470 171" xmlns='http://www.w3.org/2000/svg'>
<defs>
</defs>
<rect fill="#FFFFFF" width="470" height="171"/>
<path d="M419,122.2h-0.5c0,2.8-1.2,5.4-3,7.3c-1.9,1.9-4.4,3-7.3,3c-2.8,0-5.4-1.2-7.3-3c-1.9-1.9-3-4.4-3-7.3s1.2-5.4,3-7.3
	c1.9-1.9,4.4-3,7.3-3c2.8,0,5.4,1.2,7.3,3c1.9,1.9,3,4.4,3,7.3H419h0.5c0-6.2-5.1-11.3-11.3-11.3c-6.2,0-11.3,5.1-11.3,11.3
	c0,6.2,5.1,11.3,11.3,11.3c6.2,0,11.3-5.1,11.3-11.3H419z"/>
<path d="M407.1,121.4c0.3-0.4,0.8-0.6,1.4-0.6c0.6,0,1.2,0.2,1.6,0.6c0.4,0.4,0.6,1,0.6,1.6c0,0.7-0.2,1.3-0.6,1.8
	c-0.4,0.5-1,0.7-1.8,0.7c-1.7,0-2.5-1.2-2.5-3.6c0-1.3,0.2-2.3,0.7-2.9c0.5-0.6,1.1-0.8,1.9-0.8c0.6,0,1.1,0.1,1.5,0.4
	c0.4,0.3,0.6,0.7,0.7,1.4h-1.4c-0.1-0.5-0.3-0.7-0.8-0.7c-0.4,0-0.6,0.1-0.8,0.4C407.3,120.2,407.2,120.7,407.1,121.4z M407.2,123.2
	c0,0.4,0.1,0.7,0.3,1c0.2,0.2,0.5,0.4,0.8,0.4c0.3,0,0.5-0.1,0.7-0.3c0.2-0.2,0.3-0.6,0.3-1c0-0.4-0.1-0.7-0.3-0.9
	c-0.2-0.2-0.4-0.3-0.8-0.3c-0.3,0-0.6,0.1-0.8,0.3C407.3,122.5,407.2,122.8,407.2,123.2z"/>
<circle fill="#FFFFFF" cx="114.2" cy="123.5" r="6.7"/>
<path d="M114.2,116.8v0.3c1.8,0,3.4,0.7,4.5,1.9c1.2,1.2,1.9,2.8,1.9,4.5c0,1.8-0.7,3.4-1.9,4.5c-1.2,1.2-2.8,1.9-4.5,1.9
	c-1.8,0-3.4-0.7-4.5-1.9c-1.2-1.2-1.9-2.8-1.9-4.5c0-1.8,0.7-3.4,1.9-4.5c1.2-1.2,2.8-1.9,4.5-1.9V116.8v-0.3c-3.9,0-7,3.1-7,7
	c0,3.9,3.1,7,7,7c3.9,0,7-3.1,7-7c0-3.9-3.1-7-7-7V116.8z"/>
<circle fill="#FFFFFF" cx="104.7" cy="114" r="6.7"/>
<path d="M104.7,107.3v0.3c1.8,0,3.4,0.7,4.5,1.9c1.2,1.2,1.9,2.8,1.9,4.5s-0.7,3.4-1.9,4.5s-2.8,1.9-4.5,1.9c-1.8,0-3.4-0.7-4.5-1.9
	c-1.2-1.2-1.9-2.8-1.9-4.5s0.7-3.4,1.9-4.5c1.2-1.2,2.8-1.9,4.5-1.9V107.3V107c-3.9,0-7,3.1-7,7c0,3.9,3.1,7,7,7c3.9,0,7-3.1,7-7
	c0-3.9-3.1-7-7-7V107.3z"/>
<circle fill="#FFFFFF" cx="123.6" cy="132.9" r="6.7"/>
<path d="M123.6,126.2v0.3c1.8,0,3.4,0.7,4.5,1.9c1.2,1.2,1.9,2.8,1.9,4.5c0,1.8-0.7,3.4-1.9,4.5c-1.2,1.2-2.8,1.9-4.5,1.9
	c-1.8,0-3.4-0.7-4.5-1.9c-1.2-1.2-1.9-2.8-1.9-4.5c0-1.8,0.7-3.4,1.9-4.5c1.2-1.2,2.8-1.9,4.5-1.9V126.2V126c-3.9,0-7,3.1-7,7
	c0,3.9,3.1,7,7,7c3.9,0,7-3.1,7-7c0-3.9-3.1-7-7-7V126.2z"/>
<polyline points="97.9,107.6 130.1,139.8 130.5,139.4 98.3,107.2 "/>
<circle fill="#FFFFFF" cx="39.3" cy="123.5" r="6.7"/>
<path d="M39.3,116.8v-0.3c-3.9,0-7,3.1-7,7c0,3.9,3.1,7,7,7c3.9,0,7-3.1,7-7c0-3.9-3.1-7-7-7V116.8v0.3c1.8,0,3.4,0.7,4.5,1.9
	c1.2,1.2,1.9,2.8,1.9,4.5c0,1.8-0.7,3.4-1.9,4.5c-1.2,1.2-2.8,1.9-4.5,1.9s-3.4-0.7-4.5-1.9c-1.2-1.2-1.9-2.8-1.9-4.5
	c0-1.8,0.7-3.4,1.9-4.5c1.2-1.2,2.8-1.9,4.5-1.9V116.8z"/>
<circle fill="#FFFFFF" cx="48.7" cy="114" r="6.7"/>
<path d="M48.7,107.3V107c-3.9,0-7,3.1-7,7c0,3.9,3.1,7,7,7c3.9,0,7-3.1,7-7c0-3.9-3.1-7-7-7V107.3v0.3c1.8,0,3.4,0.7,4.5,1.9
	c1.2,1.2,1.9,2.8,1.9,4.5s-0.7,3.4-1.9,4.5c-1.2,1.2-2.8,1.9-4.5,1.9c-1.8,0-3.4-0.7-4.5-1.9c-1.2-1.2-1.9-2.8-1.9-4.5
	s0.7-3.4,1.9-4.5c1.2-1.2,2.8-1.9,4.5-1.9V107.3z"/>
<circle fill="#FFFFFF" cx="29.8" cy="132.9" r="6.7"/>
<path d="M29.8,126.2V126c-3.9,0-7,3.1-7,7c0,3.9,3.1,7,7,7c3.9,0,7-3.1,7-7c0-3.9-3.1-7-7-7V126.2v0.3c1.8,0,3.4,0.7,4.5,1.9
	c1.2,1.2,1.9,2.8,1.9,4.5c0,1.8-0.7,3.4-1.9,4.5c-1.2,1.2-2.8,1.9-4.5,1.9c-1.8,0-3.4-0.7-4.5-1.9c-1.2-1.2-1.9-2.8-1.9-4.5
	c0-1.8,0.7-3.4,1.9-4.5c1.2-1.2,2.8-1.9,4.5-1.9V126.2z"/>
<polyline points="55.2,107.2 23,139.4 23.4,139.8 55.6,107.6 "/>
<polygon points="0.6,0.6 0.6,1.1 468.9,1.1 468.9,157.5 1.1,157.5 1.1,0.6 0.6,0.6 0.6,1.1 0.6,0.6 0,0.6 0,158.7 470,158.7 470,0 
	0,0 0,0.6 "/>
<polygon fill="#1A171B" points="5.7,6.4 15.1,6.4 15.1,7.8 11.2,7.8 11.2,18 9.6,18 9.6,7.8 5.7,7.8 "/>
<polygon fill="#1A171B" points="16.5,6.4 18.1,6.4 18.1,11.2 24,11.2 24,6.4 25.6,6.4 25.6,18 24,18 24,12.6 18.1,12.6 18.1,18 
	16.5,18 "/>
<polygon fill="#1A171B" points="28.2,18 28.2,6.4 36.7,6.4 36.7,7.8 29.8,7.8 29.8,11.4 36.2,11.4 36.2,12.7 29.8,12.7 29.8,16.6 
	36.8,16.6 36.8,18 "/>
<path fill="#1A171B" d="M42.3,14.3h1.5v0.8c0,0.7,0.1,1.2,0.4,1.4c0.3,0.3,0.7,0.4,1.3,0.4c1.2,0,1.8-0.7,1.8-2V6.4h1.6v8.4
	c0,1.1-0.3,1.9-0.9,2.5c-0.6,0.6-1.4,0.9-2.5,0.9c-0.9,0-1.7-0.2-2.3-0.7c-0.6-0.5-0.9-1.2-0.9-2.2V14.3z"/>
<polygon fill="#1A171B" points="51.4,18 51.4,6.4 59.8,6.4 59.8,7.8 53,7.8 53,11.4 59.3,11.4 59.3,12.7 53,12.7 53,16.6 60,16.6 
	60,18 "/>
<path fill="#1A171B" d="M62.9,14.3c0.1,1.8,1.2,2.6,3.3,2.6c1,0,1.7-0.2,2.2-0.5c0.5-0.3,0.7-0.8,0.7-1.5c0-0.4-0.1-0.8-0.4-1.1
	c-0.3-0.3-0.9-0.6-2-0.8l-2.4-0.5c-0.8-0.2-1.4-0.5-1.8-0.9c-0.4-0.4-0.6-1-0.6-1.8c0-1.1,0.4-1.9,1.1-2.6c0.7-0.6,1.7-1,3-1
	c1.2,0,2.2,0.3,3,0.9c0.8,0.6,1.2,1.5,1.3,2.8h-1.5c-0.2-1.5-1.1-2.3-2.9-2.3c-0.8,0-1.4,0.2-1.9,0.5c-0.5,0.3-0.7,0.8-0.7,1.5
	c0,0.4,0.1,0.7,0.3,0.9c0.2,0.3,0.6,0.4,1.3,0.6l3,0.7c0.9,0.2,1.5,0.5,2,1c0.4,0.5,0.7,1.2,0.7,2c0,1.1-0.4,2-1.2,2.6
	c-0.8,0.6-1.9,0.9-3.4,0.9c-1.5,0-2.6-0.4-3.4-1.1c-0.8-0.7-1.2-1.7-1.2-2.9H62.9z"/>
<polygon fill="#1A171B" points="71.6,6.4 81,6.4 81,7.8 77.1,7.8 77.1,18 75.5,18 75.5,7.8 71.6,7.8 "/>
<polygon fill="#1A171B" points="82.6,18 82.6,6.4 91,6.4 91,7.8 84.1,7.8 84.1,11.4 90.5,11.4 90.5,12.7 84.1,12.7 84.1,16.6 
	91.1,16.6 91.1,18 "/>
<path fill="#1A171B" d="M102.8,18h-1.9c-0.2-0.8-0.3-1.7-0.3-2.7c0-0.8-0.2-1.4-0.5-1.7c-0.3-0.3-0.8-0.5-1.6-0.5h-3.7V18h-1.6V6.4
	h5.3c1.3,0,2.2,0.3,2.8,0.8c0.6,0.5,0.9,1.3,0.9,2.4c0,1.3-0.5,2.2-1.6,2.7c0.5,0.2,0.8,0.4,1,0.8c0.2,0.3,0.3,0.8,0.4,1.6l0.1,1.9
	c0,0.2,0,0.4,0.1,0.6c0,0.2,0.2,0.4,0.5,0.5V18z M100.8,9.7c0-0.7-0.2-1.1-0.5-1.5c-0.3-0.3-0.9-0.5-1.5-0.5h-3.9v3.9h3.6
	C100,11.7,100.8,11.1,100.8,9.7z"/>
<polyline points="172.7,91.5 172.7,158.1 173.8,158.1 173.8,91.5 "/>
<path fill="#1A171B" d="M415.7,12c-1-0.4-1.5-1.2-1.5-2.2c0-0.9,0.3-1.7,0.9-2.2c0.6-0.6,1.5-0.9,2.5-0.9c1,0,1.8,0.3,2.5,0.8
	c0.7,0.5,1,1.3,1,2.2c0,1.1-0.5,1.9-1.4,2.3c1.2,0.6,1.8,1.5,1.8,2.8c0,1-0.3,1.9-1,2.5c-0.7,0.7-1.6,1-2.7,1
	c-1.1,0-2.1-0.3-2.8-0.9c-0.7-0.6-1.1-1.4-1.1-2.5C413.8,13.4,414.4,12.5,415.7,12z M415.3,14.8c0,0.6,0.2,1.2,0.6,1.6
	c0.4,0.4,1,0.6,1.8,0.6c0.7,0,1.2-0.2,1.6-0.6c0.4-0.4,0.6-0.9,0.6-1.5c0-0.7-0.2-1.2-0.6-1.6c-0.4-0.4-1-0.6-1.7-0.6
	c-0.7,0-1.2,0.2-1.7,0.6C415.5,13.6,415.3,14.1,415.3,14.8z M415.7,9.7c0,0.4,0.2,0.9,0.5,1.2c0.3,0.4,0.8,0.6,1.4,0.6
	c0.5,0,1-0.2,1.4-0.5c0.4-0.3,0.6-0.8,0.6-1.3c0-0.5-0.2-1-0.6-1.3c-0.4-0.3-0.9-0.4-1.4-0.4c-0.6,0-1,0.2-1.3,0.5
	C415.8,8.7,415.7,9.1,415.7,9.7z"/>
<polygon fill="#1A171B" points="422.3,18 425.2,13.6 422.4,9.6 424.2,9.6 426.1,12.5 428,9.6 429.8,9.6 427,13.6 429.9,18 428.1,18 
	426,14.8 424.1,18 "/>
<path fill="#1A171B" d="M430.5,13.9l5.2-7.1h1.2V14h1.7v1.2h-1.7V18h-1.4v-2.8h-5V13.9z M431.8,14h3.7V8.9L431.8,14z"/>
<path fill="#1A171B" d="M439.6,12.5c0-1.8,0.3-3.2,1-4.3c0.7-1.1,1.6-1.6,2.9-1.6c1.2,0,2.1,0.5,2.8,1.5c0.7,1,1,2.4,1,4.3
	c0,1.8-0.3,3.2-1,4.3c-0.7,1-1.6,1.6-2.9,1.6c-1.2,0-2.1-0.5-2.8-1.4C440,15.8,439.6,14.4,439.6,12.5z M441.1,12.5
	c0,3,0.8,4.5,2.4,4.5c1.6,0,2.4-1.5,2.4-4.5c0-3-0.8-4.5-2.4-4.5C441.9,7.9,441.1,9.4,441.1,12.5z"/>
<path fill="#1A171B" d="M452.7,14.3h1.5v0.8c0,0.7,0.1,1.2,0.4,1.4c0.3,0.3,0.7,0.4,1.3,0.4c1.2,0,1.8-0.7,1.8-2V6.4h1.6v8.4
	c0,1.1-0.3,1.9-0.9,2.5c-0.6,0.6-1.4,0.9-2.5,0.9c-0.9,0-1.7-0.2-2.3-0.7c-0.6-0.5-0.9-1.2-0.9-2.2V14.3z"/>
<polyline points="0.1,26.8 468.9,26.8 468.9,25.6 0.1,25.6 "/>
<path fill="#1A171B" d="M392.9,166.7c0,0.5,0.1,0.8,0.3,1c0.2,0.2,0.5,0.4,1,0.4c0.4,0,0.7-0.1,1-0.3c0.3-0.2,0.4-0.5,0.4-0.9
	c0-0.3-0.1-0.6-0.4-0.8c-0.2-0.2-0.6-0.3-1.1-0.3c-0.1,0-0.3,0-0.5,0v-0.7c0.2,0,0.3,0,0.4,0c0.8,0,1.2-0.3,1.2-1
	c0-0.3-0.1-0.6-0.3-0.8c-0.2-0.2-0.5-0.3-0.9-0.3c-0.4,0-0.7,0.1-0.9,0.3c-0.2,0.2-0.3,0.6-0.3,1h-0.8c0-0.6,0.2-1.1,0.5-1.5
	c0.3-0.4,0.9-0.5,1.5-0.5c0.6,0,1.1,0.2,1.4,0.5c0.4,0.3,0.5,0.7,0.5,1.2c0,0.7-0.3,1.1-0.8,1.3c0.4,0.1,0.7,0.3,0.8,0.6
	c0.2,0.2,0.2,0.5,0.2,0.9c0,0.6-0.2,1.1-0.6,1.5c-0.4,0.4-0.9,0.6-1.6,0.6c-0.6,0-1.1-0.2-1.5-0.5c-0.4-0.3-0.6-0.9-0.7-1.6H392.9z"
	/>
<path fill="#1A171B" d="M402.1,166.3h0.9c-0.2,0.8-0.5,1.5-1,1.9s-1.1,0.6-1.9,0.6c-0.9,0-1.6-0.3-2.1-0.9c-0.5-0.6-0.8-1.4-0.8-2.5
	c0-1,0.3-1.9,0.8-2.5c0.5-0.6,1.3-0.9,2.2-0.9c0.7,0,1.3,0.2,1.8,0.5c0.5,0.3,0.8,0.9,0.9,1.6H402c-0.2-0.9-0.8-1.3-1.8-1.3
	c-0.6,0-1.2,0.2-1.5,0.7c-0.4,0.5-0.6,1.1-0.6,2c0,0.8,0.2,1.4,0.5,1.9c0.4,0.5,0.9,0.7,1.6,0.7c0.5,0,0.9-0.2,1.2-0.5
	C401.7,167.3,401.9,166.9,402.1,166.3z"/>
<polygon fill="#1A171B" points="403.1,168.8 405.3,162 405.9,162 403.7,168.8 "/>
<path fill="#1A171B" d="M406,166.4l2.9-4h0.7v4.1h0.9v0.7h-0.9v1.5h-0.8v-1.5H406V166.4z M406.7,166.4h2.1v-2.9L406.7,166.4z"/>
<path fill="#1A171B" d="M416.1,166.3h0.9c-0.2,0.8-0.5,1.5-1,1.9c-0.5,0.4-1.1,0.6-1.9,0.6c-0.9,0-1.6-0.3-2.1-0.9
	c-0.5-0.6-0.8-1.4-0.8-2.5c0-1,0.3-1.9,0.8-2.5c0.5-0.6,1.3-0.9,2.2-0.9c0.7,0,1.3,0.2,1.8,0.5c0.5,0.3,0.8,0.9,0.9,1.6H416
	c-0.2-0.9-0.8-1.3-1.8-1.3c-0.6,0-1.2,0.2-1.5,0.7c-0.4,0.5-0.6,1.1-0.6,2c0,0.8,0.2,1.4,0.5,1.9c0.4,0.5,0.9,0.7,1.6,0.7
	c0.5,0,0.9-0.2,1.2-0.5C415.7,167.3,416,166.9,416.1,166.3z"/>
<rect x="420.4" y="162.2" fill="#1A171B" width="0.8" height="6.5"/>
<path fill="#1A171B" d="M422.1,166.3c0-0.8,0.2-1.4,0.6-1.8c0.4-0.5,0.9-0.7,1.6-0.7c0.6,0,1.2,0.2,1.6,0.7c0.4,0.5,0.6,1.1,0.6,1.8
	c0,0.7-0.2,1.3-0.6,1.8c-0.4,0.5-0.9,0.7-1.6,0.7c-0.6,0-1.2-0.2-1.6-0.7C422.3,167.7,422.1,167.1,422.1,166.3z M422.9,166.3
	c0,0.5,0.1,0.9,0.4,1.3c0.2,0.3,0.6,0.5,1,0.5c0.4,0,0.7-0.2,1-0.5c0.3-0.3,0.4-0.8,0.4-1.4c0-0.5-0.1-0.9-0.4-1.3
	c-0.2-0.3-0.6-0.5-1-0.5c-0.4,0-0.7,0.2-1,0.5C423.1,165.3,422.9,165.7,422.9,166.3z"/>
<path fill="#1A171B" d="M427.4,168.7V164h0.7v0.7c0.4-0.6,0.9-0.8,1.5-0.8c0.5,0,0.9,0.2,1.2,0.5c0.3,0.3,0.4,0.7,0.4,1.2v3.2h-0.8
	v-2.9c0-0.5-0.1-0.8-0.3-1c-0.2-0.2-0.4-0.3-0.7-0.3c-0.4,0-0.7,0.1-0.9,0.4c-0.2,0.3-0.3,0.7-0.3,1.2v2.6H427.4z"/>
<path fill="#1A171B" d="M432.3,169.2h0.8c0.1,0.5,0.5,0.7,1.1,0.7c0.4,0,0.8-0.1,1-0.3c0.2-0.2,0.3-0.6,0.3-1.1v-0.3
	c-0.3,0.5-0.7,0.7-1.3,0.7c-0.6,0-1.1-0.2-1.5-0.7s-0.6-1.1-0.6-1.9c0-0.7,0.2-1.3,0.5-1.7c0.3-0.5,0.8-0.7,1.4-0.7
	c0.3,0,0.6,0.1,0.8,0.2c0.2,0.1,0.4,0.3,0.6,0.6V164h0.7v4.3c0,0.9-0.2,1.5-0.6,1.8c-0.4,0.3-0.9,0.5-1.6,0.5
	c-0.5,0-0.9-0.1-1.2-0.3C432.6,170.1,432.4,169.7,432.3,169.2z M433,166.2c0,0.6,0.1,1.1,0.3,1.4c0.2,0.3,0.5,0.5,0.9,0.5
	c0.4,0,0.7-0.2,0.9-0.5c0.2-0.3,0.3-0.7,0.3-1.3c0-1.3-0.4-1.9-1.3-1.9C433.4,164.5,433,165.1,433,166.2z"/>
<polygon fill="#1A171B" points="437,164 437.8,164 438.7,167.7 439.7,164 440.5,164 441.5,167.7 442.4,164 443.2,164 441.9,168.7 
	441.1,168.7 440.1,165 439.1,168.7 438.3,168.7 "/>
<path fill="#1A171B" d="M444,162.2h0.8v0.9H444V162.2z M444,164h0.8v4.7H444V164z"/>
<path fill="#1A171B" d="M446.4,167.2c0,0.6,0.4,0.9,1.2,0.9c0.3,0,0.6-0.1,0.8-0.2c0.2-0.1,0.3-0.3,0.3-0.6c0-0.2-0.1-0.3-0.2-0.4
	c-0.1-0.1-0.4-0.2-0.7-0.3l-0.9-0.2c-0.7-0.2-1.1-0.6-1.1-1.2c0-0.4,0.2-0.8,0.5-1.1c0.3-0.3,0.8-0.4,1.3-0.4c0.5,0,0.9,0.1,1.2,0.4
	c0.3,0.2,0.5,0.6,0.5,1.1h-0.8c0-0.5-0.4-0.8-1.1-0.8c-0.6,0-1,0.2-1,0.7c0,0.2,0.1,0.3,0.2,0.4c0.1,0.1,0.4,0.1,0.6,0.2l0.8,0.2
	c0.5,0.1,0.8,0.3,1,0.5c0.2,0.2,0.3,0.5,0.3,0.8c0,0.5-0.2,0.8-0.5,1.1c-0.3,0.3-0.8,0.4-1.4,0.4c-0.6,0-1-0.1-1.4-0.4
	c-0.4-0.2-0.5-0.7-0.6-1.3H446.4z"/>
<path fill="#1A171B" d="M451.1,166.6c0,0.5,0.1,0.9,0.3,1.2c0.2,0.3,0.6,0.4,1,0.4c0.3,0,0.6-0.1,0.8-0.3c0.2-0.2,0.4-0.4,0.4-0.6
	h0.8c-0.1,0.5-0.3,0.9-0.7,1.2c-0.3,0.3-0.8,0.4-1.4,0.4c-0.7,0-1.2-0.2-1.6-0.6c-0.4-0.4-0.6-1-0.6-1.8c0-0.8,0.2-1.4,0.6-1.9
	c0.4-0.5,0.9-0.7,1.6-0.7c0.7,0,1.2,0.2,1.5,0.7c0.3,0.5,0.5,1.1,0.5,2.1H451.1z M451.1,165.9h2.6c-0.1-0.5-0.2-0.9-0.4-1.1
	c-0.2-0.2-0.5-0.3-0.9-0.3c-0.4,0-0.7,0.1-1,0.4C451.2,165.2,451.1,165.5,451.1,165.9z"/>
<path fill="#1A171B" d="M458.4,167.2c0,0.6,0.4,0.9,1.2,0.9c0.3,0,0.6-0.1,0.8-0.2c0.2-0.1,0.3-0.3,0.3-0.6c0-0.2-0.1-0.3-0.2-0.4
	c-0.1-0.1-0.4-0.2-0.7-0.3l-0.9-0.2c-0.7-0.2-1.1-0.6-1.1-1.2c0-0.4,0.2-0.8,0.5-1.1c0.3-0.3,0.8-0.4,1.3-0.4c0.5,0,0.9,0.1,1.2,0.4
	c0.3,0.2,0.5,0.6,0.5,1.1h-0.8c0-0.5-0.4-0.8-1.1-0.8c-0.6,0-1,0.2-1,0.7c0,0.2,0.1,0.3,0.2,0.4c0.1,0.1,0.4,0.1,0.6,0.2l0.8,0.2
	c0.5,0.1,0.8,0.3,1,0.5c0.2,0.2,0.3,0.5,0.3,0.8c0,0.5-0.2,0.8-0.5,1.1c-0.3,0.3-0.8,0.4-1.4,0.4c-0.6,0-1-0.1-1.4-0.4
	c-0.4-0.2-0.5-0.7-0.6-1.3H458.4z"/>
<path fill="#1A171B" d="M463.1,166.6c0,0.5,0.1,0.9,0.3,1.2c0.2,0.3,0.6,0.4,1,0.4c0.3,0,0.6-0.1,0.8-0.3c0.2-0.2,0.4-0.4,0.4-0.6
	h0.8c-0.1,0.5-0.3,0.9-0.7,1.2c-0.3,0.3-0.8,0.4-1.4,0.4c-0.7,0-1.2-0.2-1.6-0.6c-0.4-0.4-0.6-1-0.6-1.8c0-0.8,0.2-1.4,0.6-1.9
	c0.4-0.5,0.9-0.7,1.6-0.7c0.7,0,1.2,0.2,1.5,0.7c0.3,0.5,0.5,1.1,0.5,2.1H463.1z M463.1,165.9h2.6c-0.1-0.5-0.2-0.9-0.4-1.1
	c-0.2-0.2-0.5-0.3-0.9-0.3c-0.4,0-0.7,0.1-1,0.4C463.2,165.2,463.1,165.5,463.1,165.9z"/>
<path fill="#1A171B" d="M467,164.6V164h0.6v-1.3h0.8v1.3h0.8v0.7h-0.8v3.1c0,0.3,0.2,0.4,0.5,0.4h0.3v0.6c-0.3,0-0.5,0.1-0.7,0.1
	c-0.6,0-0.9-0.3-0.9-1v-3.1H467z"/>
<path fill="#1A171B" d="M1.6,168.7l2.5-6.5h1l2.3,6.5h-1l-0.6-1.9H3.2l-0.7,1.9H1.6z M3.5,166h2l-1-2.9L3.5,166z"/>
<path fill="#1A171B" d="M8.1,168.7V164h0.7v0.7c0.4-0.6,0.9-0.8,1.5-0.8c0.5,0,0.9,0.2,1.2,0.5c0.3,0.3,0.4,0.7,0.4,1.2v3.2h-0.8
	v-2.9c0-0.5-0.1-0.8-0.3-1c-0.2-0.2-0.4-0.3-0.7-0.3c-0.4,0-0.7,0.1-0.9,0.4c-0.2,0.3-0.3,0.7-0.3,1.2v2.6H8.1z"/>
<path fill="#1A171B" d="M13.1,162.2h0.8v0.9h-0.8V162.2z M13.1,164h0.8v4.7h-0.8V164z"/>
<polygon fill="#1A171B" points="15.1,168.7 15.1,162.2 15.9,162.2 15.9,165.9 17.9,164 19,164 17.2,165.7 19.1,168.7 18,168.7 
	16.6,166.3 15.9,167 15.9,168.7 "/>
<path fill="#1A171B" d="M19.6,165.3c0-1,0.7-1.5,1.9-1.5c0.5,0,0.9,0.1,1.3,0.3c0.3,0.2,0.5,0.6,0.5,1v2.7c0,0.1,0,0.2,0.1,0.2
	l0.2,0.1c0.1,0,0.1,0,0.3,0v0.6c-0.2,0.1-0.3,0.1-0.5,0.1c-0.3,0-0.5-0.1-0.6-0.2c-0.1-0.1-0.2-0.3-0.2-0.5c-0.4,0.5-1,0.8-1.7,0.8
	c-0.4,0-0.7-0.1-1-0.3c-0.3-0.2-0.5-0.6-0.5-1c0-0.8,0.5-1.3,1.4-1.5l1.2-0.2c0.2,0,0.3-0.1,0.4-0.2c0.1-0.1,0.1-0.2,0.1-0.4
	c0-0.5-0.4-0.8-1.1-0.8c-0.4,0-0.6,0.1-0.8,0.2c-0.2,0.1-0.3,0.4-0.3,0.7H19.6z M22.5,166.3c-0.1,0.1-0.4,0.2-0.7,0.2
	c-0.4,0.1-0.6,0.1-0.6,0.1c-0.7,0.1-1,0.4-1,0.8c0,0.5,0.3,0.8,0.9,0.8c0.4,0,0.7-0.1,1-0.3c0.3-0.2,0.4-0.5,0.4-0.8V166.3z"/>
<polygon fill="#1A171B" points="27.2,162.2 28.1,162.2 28.1,167.9 31.4,167.9 31.4,168.7 27.2,168.7 "/>
<path fill="#1A171B" d="M32.1,165.3c0-1,0.7-1.5,1.9-1.5c0.5,0,0.9,0.1,1.3,0.3c0.3,0.2,0.5,0.6,0.5,1v2.7c0,0.1,0,0.2,0.1,0.2
	l0.2,0.1c0.1,0,0.1,0,0.3,0v0.6c-0.2,0.1-0.3,0.1-0.5,0.1c-0.3,0-0.5-0.1-0.6-0.2c-0.1-0.1-0.2-0.3-0.2-0.5c-0.4,0.5-1,0.8-1.7,0.8
	c-0.4,0-0.7-0.1-1-0.3c-0.3-0.2-0.5-0.6-0.5-1c0-0.8,0.5-1.3,1.4-1.5l1.2-0.2c0.2,0,0.3-0.1,0.4-0.2c0.1-0.1,0.1-0.2,0.1-0.4
	c0-0.5-0.4-0.8-1.1-0.8c-0.4,0-0.6,0.1-0.8,0.2c-0.2,0.1-0.3,0.4-0.3,0.7H32.1z M35,166.3c-0.1,0.1-0.4,0.2-0.7,0.2
	c-0.4,0.1-0.6,0.1-0.6,0.1c-0.7,0.1-1,0.4-1,0.8c0,0.5,0.3,0.8,0.9,0.8c0.4,0,0.7-0.1,1-0.3c0.3-0.2,0.4-0.5,0.4-0.8V166.3z"/>
<path fill="#1A171B" d="M37.2,168.7V164h0.7v0.7c0.4-0.6,0.9-0.8,1.5-0.8c0.5,0,0.9,0.2,1.2,0.5c0.3,0.3,0.4,0.7,0.4,1.2v3.2h-0.8
	v-2.9c0-0.5-0.1-0.8-0.3-1c-0.2-0.2-0.4-0.3-0.7-0.3c-0.4,0-0.7,0.1-0.9,0.4c-0.2,0.3-0.3,0.7-0.3,1.2v2.6H37.2z"/>
<path fill="#1A171B" d="M42.1,169.2h0.8c0.1,0.5,0.5,0.7,1.1,0.7c0.4,0,0.8-0.1,1-0.3c0.2-0.2,0.3-0.6,0.3-1.1v-0.3
	c-0.3,0.5-0.7,0.7-1.3,0.7c-0.6,0-1.1-0.2-1.5-0.7S42,167,42,166.2c0-0.7,0.2-1.3,0.5-1.7c0.3-0.5,0.8-0.7,1.4-0.7
	c0.3,0,0.6,0.1,0.8,0.2c0.2,0.1,0.4,0.3,0.6,0.6V164h0.7v4.3c0,0.9-0.2,1.5-0.6,1.8c-0.4,0.3-0.9,0.5-1.6,0.5
	c-0.5,0-0.9-0.1-1.2-0.3C42.4,170.1,42.2,169.7,42.1,169.2z M42.8,166.2c0,0.6,0.1,1.1,0.3,1.4c0.2,0.3,0.5,0.5,0.9,0.5
	c0.4,0,0.7-0.2,0.9-0.5c0.2-0.3,0.3-0.7,0.3-1.3c0-1.3-0.4-1.9-1.3-1.9C43.2,164.5,42.8,165.1,42.8,166.2z"/>
<path fill="#1A171B" d="M47.8,166.6c0,0.5,0.1,0.9,0.3,1.2c0.2,0.3,0.6,0.4,1,0.4c0.3,0,0.6-0.1,0.8-0.3c0.2-0.2,0.4-0.4,0.4-0.6
	h0.8c-0.1,0.5-0.3,0.9-0.7,1.2c-0.3,0.3-0.8,0.4-1.4,0.4c-0.7,0-1.2-0.2-1.6-0.6c-0.4-0.4-0.6-1-0.6-1.8c0-0.8,0.2-1.4,0.6-1.9
	c0.4-0.5,0.9-0.7,1.6-0.7c0.7,0,1.2,0.2,1.5,0.7c0.3,0.5,0.5,1.1,0.5,2.1H47.8z M47.8,165.9h2.6c-0.1-0.5-0.2-0.9-0.4-1.1
	c-0.2-0.2-0.5-0.3-0.9-0.3c-0.4,0-0.7,0.1-1,0.4C47.9,165.2,47.8,165.5,47.8,165.9z"/>
<path fill="#1A171B" d="M52.4,169.6c0.3,0,0.5-0.4,0.5-0.9h-0.5v-1h0.9v0.9c0,0.8-0.3,1.3-0.9,1.4V169.6z"/>
<path fill="#1A171B" d="M57.3,167.1c0.2-0.4,0.6-0.7,1-0.9l1.3-0.8c0.3-0.2,0.5-0.4,0.6-0.5c0.1-0.2,0.2-0.4,0.2-0.7
	c0-0.4-0.1-0.7-0.3-0.9c-0.2-0.2-0.5-0.3-0.9-0.3c-0.4,0-0.8,0.1-1,0.4c-0.2,0.3-0.3,0.6-0.3,1.2H57c0-0.7,0.2-1.2,0.5-1.6
	c0.4-0.4,0.9-0.6,1.6-0.6c0.6,0,1.1,0.2,1.5,0.5c0.4,0.3,0.6,0.8,0.6,1.4c0,0.4-0.1,0.7-0.3,1c-0.2,0.3-0.5,0.5-0.8,0.7l-1.1,0.6
	c-0.4,0.2-0.7,0.4-0.9,0.6c-0.2,0.2-0.3,0.4-0.4,0.7h3.5v0.7h-4.4C56.9,168,57.1,167.5,57.3,167.1z"/>
<path fill="#1A171B" d="M62,165.6c0-1,0.2-1.8,0.6-2.4c0.4-0.6,0.9-0.9,1.6-0.9c0.7,0,1.2,0.3,1.6,0.8c0.4,0.5,0.6,1.3,0.6,2.4
	c0,1-0.2,1.8-0.5,2.4c-0.4,0.6-0.9,0.9-1.6,0.9c-0.7,0-1.2-0.3-1.6-0.8C62.2,167.5,62,166.7,62,165.6z M62.8,165.6
	c0,1.7,0.4,2.5,1.3,2.5c0.9,0,1.3-0.9,1.3-2.5c0-1.7-0.4-2.5-1.3-2.5S62.8,163.9,62.8,165.6z"/>
<path fill="#1A171B" d="M67.6,163.6c0.6,0,1-0.1,1.2-0.3c0.2-0.2,0.4-0.5,0.5-0.9h0.6v6.3h-0.8v-4.5h-1.5V163.6z"/>
<path fill="#1A171B" d="M72.6,163.6c0.6,0,1-0.1,1.2-0.3c0.2-0.2,0.4-0.5,0.5-0.9h0.6v6.3h-0.8v-4.5h-1.5V163.6z"/>
<polyline points="0.6,92.5 469.4,92.5 469.4,91.3 0.6,91.3 "/>
<polyline points="341,91.8 341,157.3 342.1,157.3 342.1,91.8 "/>
<polyline points="121.3,26.1 121.3,91.9 122.4,91.9 122.4,26.1 "/>
<path d="M55.4,86.6v3.3h0.6v-3.3H55.4z M55.4,80v3.3h0.6V80H55.4z M55.4,73.3v3.3h0.6v-3.3H55.4z M55.4,66.7V70h0.6v-3.3H55.4z
	 M55.4,60v3.3h0.6V60H55.4z M55.4,53.4v3.3h0.6v-3.3H55.4z M55.4,46.7v3.3h0.6v-3.3H55.4z M55.4,40.1v3.3h0.6v-3.3H55.4z M55.4,33.4
	v3.3h0.6v-3.3H55.4z M55.4,26.8v3.3h0.6v-3.3H55.4z"/>
<path d="M23.7,58.7c-0.1-0.4-0.1-0.8-0.1-1.1c0-1.4,0.6-2.5,1.5-3.2c0.9-0.7,2.2-1.1,3.7-1.1c1.5,0,2.8,0.4,3.7,1.1
	c0.9,0.7,1.5,1.8,1.5,3.2c0,1-0.3,1.9-0.8,2.7l0.5,0.3c0.6-0.9,0.9-2,0.9-3c0-1.6-0.7-2.9-1.7-3.7c-1.1-0.8-2.5-1.2-4.1-1.2
	c-1.6,0-3,0.4-4.1,1.2C23.7,54.7,23,56,23,57.6c0,0.4,0,0.9,0.1,1.3L23.7,58.7z"/>
<polygon fill-rule="evenodd" clip-rule="evenodd" points="33,57.1 33.8,61.6 35.2,57.2 "/>
<polygon points="33,57.1 32.8,57.1 33.7,62.2 35.4,57.1 32.8,56.9 32.8,57.1 33,57.1 33,57.2 35,57.4 33.8,61 33.1,57.1 33,57.1 
	33,57.2 "/>
<path d="M26.5,56.2c0.7,0,1.2-0.1,1.5-0.3c0.3-0.2,0.5-0.5,0.5-0.9h1.2v7.1h-1.4v-4.9h-1.7V56.2z"/>
<path d="M224.6,61.8h-0.2c0,1.1-0.4,2-1.1,2.7c-0.7,0.7-1.7,1.1-2.7,1.1c-1.1,0-2-0.4-2.7-1.1c-0.7-0.7-1.1-1.7-1.1-2.7
	c0-1.1,0.4-2,1.1-2.7c0.7-0.7,1.7-1.1,2.7-1.1c1.1,0,2,0.4,2.7,1.1c0.7,0.7,1.1,1.7,1.1,2.7H224.6h0.2c0-2.4-1.9-4.3-4.3-4.3
	c-2.4,0-4.3,1.9-4.3,4.3c0,2.4,1.9,4.3,4.3,4.3c2.4,0,4.3-1.9,4.3-4.3H224.6z"/>
<path d="M218.7,63.4c0.2-0.4,0.7-0.8,1.3-1.2c0.5-0.4,0.9-0.7,1-0.9c0.1-0.2,0.2-0.4,0.2-0.6c0-0.2-0.1-0.4-0.2-0.6
	c-0.1-0.2-0.3-0.3-0.6-0.3c-0.3,0-0.5,0.1-0.6,0.3c-0.1,0.2-0.2,0.5-0.2,0.8h-1.2v-0.2c0-0.5,0.2-0.9,0.5-1.3
	c0.3-0.4,0.8-0.6,1.5-0.6c0.6,0,1.1,0.2,1.5,0.5c0.4,0.3,0.6,0.8,0.6,1.3c0,0.4-0.1,0.7-0.3,1c-0.2,0.3-0.6,0.6-1.2,1
	c-0.6,0.4-1,0.7-1.1,0.9h2.6v1h-4.1C218.3,64.1,218.4,63.7,218.7,63.4z"/>
<polygon points="258.3,31.8 258.3,32 266.2,32 266.2,39.7 258.5,39.7 258.5,31.8 258.3,31.8 258.3,32 258.3,31.8 258,31.8 258,40.2 
	266.6,40.2 266.6,31.6 258,31.6 258,31.8 "/>
<path d="M261.5,37.1c0,0.7,0.3,1,0.8,1c0.3,0,0.5-0.1,0.6-0.2c0.2-0.2,0.2-0.4,0.2-0.7c0-0.3-0.1-0.5-0.3-0.6
	c-0.2-0.1-0.5-0.2-1-0.2v-0.8h0.2c0.6,0,0.9-0.3,0.9-0.8c0-0.2-0.1-0.4-0.2-0.5c-0.1-0.1-0.3-0.2-0.6-0.2c-0.5,0-0.8,0.3-0.8,0.9h-1
	c0-0.6,0.2-1,0.5-1.3c0.3-0.3,0.8-0.5,1.4-0.5c0.5,0,1,0.1,1.3,0.4c0.3,0.3,0.5,0.7,0.5,1.2c0,0.5-0.2,0.9-0.7,1.1
	c0.6,0.2,0.9,0.7,0.9,1.3c0,0.5-0.2,1-0.5,1.3c-0.4,0.3-0.9,0.5-1.5,0.5c-0.6,0-1.1-0.2-1.5-0.5c-0.3-0.3-0.5-0.8-0.5-1.4H261.5z"/>
<path d="M7.7,74.8c-0.2,0.4-0.3,1-0.3,1.8c0,0.6,0.1,1.1,0.2,1.5c0.2,0.4,0.5,0.8,0.9,1.2l-0.1,0.1c-1.1-0.7-1.7-1.6-1.7-2.8
	c0-1.2,0.6-2.1,1.7-2.9l0.1,0.1C8.2,74,7.9,74.3,7.7,74.8z"/>
<path d="M9.9,75.6c0.3-0.3,0.6-0.5,1-0.5c0.3,0,0.6,0.1,0.8,0.4c0.2,0.3,0.3,0.6,0.3,1.1c0,0.5-0.1,0.9-0.4,1.2
	c-0.3,0.3-0.6,0.5-1,0.5c-0.3,0-0.5-0.1-0.7-0.3V79c0,0.2,0,0.4,0.1,0.4c0.1,0.1,0.2,0.1,0.5,0.1v0.1H8.8v-0.1
	c0.2,0,0.3-0.1,0.4-0.1c0.1-0.1,0.1-0.2,0.1-0.3v-3.2c0-0.2,0-0.3-0.1-0.3L9,75.5l-0.2,0v-0.1c0.2-0.1,0.6-0.2,1-0.4l0,0V75.6z
	 M9.9,77.6c0,0.1,0.1,0.2,0.2,0.3c0.1,0.1,0.3,0.2,0.5,0.2c0.2,0,0.4-0.1,0.6-0.3c0.2-0.2,0.2-0.5,0.2-1c0-0.3-0.1-0.6-0.2-0.9
	c-0.1-0.2-0.4-0.4-0.6-0.4c-0.1,0-0.3,0-0.4,0.1c-0.1,0.1-0.2,0.2-0.2,0.3V77.6z"/>
<path d="M12.3,76.6c0-0.4,0.1-0.8,0.4-1.1c0.3-0.3,0.6-0.5,1-0.5c0.5,0,0.8,0.1,1.1,0.4c0.3,0.3,0.4,0.7,0.4,1.1
	c0,0.5-0.1,0.8-0.4,1.1c-0.3,0.3-0.6,0.5-1.1,0.5c-0.4,0-0.8-0.2-1.1-0.5C12.5,77.4,12.3,77.1,12.3,76.6z M12.9,76.3
	c0,0.5,0.1,0.9,0.3,1.2c0.2,0.3,0.4,0.5,0.7,0.5c0.3,0,0.4-0.1,0.6-0.3c0.1-0.2,0.2-0.5,0.2-0.9c0-0.4-0.1-0.8-0.3-1.1
	c-0.2-0.3-0.4-0.4-0.7-0.4c-0.3,0-0.4,0.1-0.6,0.3C13,75.7,12.9,76,12.9,76.3z"/>
<path d="M15.5,78c0.2,0,0.4-0.1,0.4-0.1c0.1-0.1,0.1-0.2,0.1-0.3v-3.3c0-0.2,0-0.3-0.1-0.3c0,0-0.1-0.1-0.2-0.1l-0.2,0v-0.1
	c0.4-0.1,0.8-0.2,1-0.3l0,0v2.8l0.5-0.4c0.2-0.2,0.4-0.4,0.5-0.4l0.1-0.2l-0.1-0.1c0,0-0.1,0-0.3,0v-0.1h1.4v0.1
	c-0.2,0-0.5,0.1-0.7,0.3c-0.2,0.2-0.4,0.3-0.6,0.5l-0.3,0.3l1,1.3c0.2,0.3,0.5,0.5,0.8,0.5v0.1h-1.5V78h0.1l0.2,0l0-0.1l0-0.1
	l-0.1-0.1l-0.9-1.3v1.2c0,0.1,0,0.2,0.1,0.3c0.1,0.1,0.2,0.1,0.4,0.1v0.1h-1.6V78z"/>
<path d="M19.5,76.3c0,0.4,0.1,0.8,0.3,1c0.2,0.3,0.4,0.4,0.8,0.4c0.4,0,0.8-0.2,1-0.7l0.1,0c-0.1,0.3-0.3,0.5-0.5,0.8
	c-0.3,0.2-0.5,0.3-0.9,0.3c-0.4,0-0.7-0.1-0.9-0.4S19,77.2,19,76.7c0-0.5,0.1-0.9,0.4-1.2c0.3-0.3,0.6-0.4,1-0.4
	c0.3,0,0.6,0.1,0.8,0.3c0.2,0.2,0.3,0.5,0.4,0.9H19.5z M19.5,76.1h1.4c-0.1-0.5-0.3-0.8-0.6-0.8c-0.2,0-0.4,0.1-0.5,0.2
	S19.5,75.8,19.5,76.1z"/>
<path d="M24.3,77.6h1.6c0.2,0,0.3,0,0.4-0.1c0.1-0.1,0.2-0.2,0.3-0.3l0.1,0l-0.4,0.9h-2.6v-0.1l1.2-1.3c0.6-0.6,0.9-1.2,0.9-1.7
	c0-0.3-0.1-0.5-0.2-0.7c-0.2-0.2-0.4-0.3-0.7-0.3c-0.2,0-0.4,0.1-0.6,0.2c-0.2,0.1-0.3,0.4-0.4,0.7l-0.1,0c0.1-0.4,0.2-0.7,0.5-1
	c0.2-0.2,0.6-0.4,1-0.4c0.3,0,0.6,0.1,0.8,0.3c0.2,0.2,0.3,0.5,0.3,0.9c0,0.5-0.3,1.1-0.9,1.7L24.3,77.6z"/>
<path d="M27.2,77.1h0.1c0.1,0.3,0.2,0.6,0.3,0.7c0.1,0.2,0.3,0.2,0.6,0.2c0.1,0,0.3,0,0.4-0.1c0.1-0.1,0.2-0.2,0.2-0.3
	c0-0.2-0.1-0.3-0.2-0.4c-0.1-0.1-0.3-0.2-0.5-0.3c-0.3-0.2-0.5-0.3-0.6-0.5c-0.1-0.2-0.2-0.3-0.2-0.5c0-0.2,0.1-0.4,0.3-0.6
	c0.2-0.2,0.4-0.2,0.7-0.2c0.1,0,0.2,0,0.4,0.1c0.1,0,0.2,0.1,0.2,0.1l0.1-0.1h0.1l0,0.9h-0.1c-0.1-0.6-0.4-0.8-0.7-0.8
	c-0.2,0-0.3,0-0.4,0.1s-0.1,0.2-0.1,0.3c0,0.2,0.1,0.3,0.2,0.4c0.1,0.1,0.3,0.2,0.6,0.4c0.3,0.2,0.5,0.3,0.6,0.4
	c0.1,0.1,0.2,0.3,0.2,0.5c0,0.3-0.1,0.5-0.3,0.6c-0.2,0.2-0.4,0.2-0.7,0.2c-0.1,0-0.2,0-0.4-0.1c-0.2,0-0.3-0.1-0.4-0.1l-0.1,0.1
	h-0.1V77.1z"/>
<path d="M32.1,74.2L32.1,74.2l0,0.1v0.8h0.7v0.2h-0.7v1.9c0,0.4,0.1,0.6,0.3,0.6l0.2-0.1l0.2-0.2l0.1,0.1c-0.1,0.1-0.2,0.2-0.3,0.4
	c-0.1,0.1-0.3,0.2-0.5,0.2c-0.4,0-0.6-0.3-0.6-0.9v-2h-0.3l-0.1,0l0.1-0.1c0.2-0.1,0.3-0.3,0.5-0.4C31.9,74.6,32,74.4,32.1,74.2z"/>
<path d="M33.2,76.6c0-0.4,0.1-0.8,0.4-1.1c0.3-0.3,0.6-0.5,1-0.5c0.5,0,0.8,0.1,1.1,0.4c0.3,0.3,0.4,0.7,0.4,1.1
	c0,0.5-0.1,0.8-0.4,1.1c-0.3,0.3-0.6,0.5-1.1,0.5c-0.4,0-0.8-0.2-1.1-0.5C33.3,77.4,33.2,77.1,33.2,76.6z M33.8,76.3
	c0,0.5,0.1,0.9,0.3,1.2c0.2,0.3,0.4,0.5,0.7,0.5c0.3,0,0.4-0.1,0.6-0.3c0.1-0.2,0.2-0.5,0.2-0.9c0-0.4-0.1-0.8-0.3-1.1
	c-0.2-0.3-0.4-0.4-0.7-0.4c-0.3,0-0.4,0.1-0.6,0.3C33.8,75.7,33.8,76,33.8,76.3z"/>
<path d="M39,74.2L39,74.2l0,0.1v0.8h0.7v0.2H39v1.9c0,0.4,0.1,0.6,0.3,0.6l0.2-0.1l0.2-0.2l0.1,0.1c-0.1,0.1-0.2,0.2-0.3,0.4
	c-0.1,0.1-0.3,0.2-0.5,0.2c-0.4,0-0.6-0.3-0.6-0.9v-2h-0.3l-0.1,0l0.1-0.1c0.2-0.1,0.3-0.3,0.5-0.4C38.7,74.6,38.9,74.4,39,74.2z"/>
<path d="M39.9,75.2v-0.1h1v2.2c0,0.2,0,0.3,0.1,0.4c0.1,0.1,0.2,0.1,0.4,0.1c0.1,0,0.3,0,0.4-0.1c0.1-0.1,0.2-0.1,0.2-0.2l0.1-0.1
	c0,0,0-0.1,0-0.2v-1.6c0-0.1,0-0.2-0.1-0.3c-0.1-0.1-0.2-0.1-0.4-0.1v-0.1h1v2.3c0,0.1,0,0.2,0.1,0.3c0.1,0,0.2,0.1,0.4,0.1v0.1
	c-0.1,0-0.5,0.1-1,0.3h0v-0.6l-0.3,0.3c-0.2,0.2-0.4,0.3-0.7,0.3c-0.2,0-0.4-0.1-0.6-0.2c-0.2-0.2-0.2-0.4-0.2-0.6v-1.7
	c0-0.2,0-0.3-0.1-0.3C40.2,75.3,40.1,75.2,39.9,75.2z"/>
<path d="M43.3,78.1V78c0.2,0,0.3-0.1,0.4-0.1c0.1-0.1,0.1-0.2,0.1-0.4v-1.7c0-0.3-0.1-0.4-0.2-0.4l-0.2,0v-0.1
	c0.3-0.1,0.7-0.2,1-0.4l0,0v0.6c0.3-0.4,0.5-0.6,0.8-0.6c0.1,0,0.2,0,0.3,0.1c0.1,0.1,0.1,0.2,0.1,0.3c0,0.1,0,0.2-0.1,0.2l-0.2,0.1
	c-0.1,0-0.2,0-0.2-0.1l-0.2-0.1c-0.1,0-0.2,0.1-0.3,0.2c-0.1,0.1-0.2,0.2-0.2,0.4v1.5c0,0.2,0,0.3,0.1,0.4c0.1,0.1,0.2,0.1,0.5,0.1
	v0.1H43.3z"/>
<path d="M45.5,78c0.2,0,0.3,0,0.3-0.1c0.1-0.1,0.1-0.2,0.1-0.4v-1.6c0-0.2,0-0.3-0.1-0.4l-0.2-0.1l-0.2,0v-0.1
	c0.5-0.2,0.8-0.3,1-0.4l0,0v0.5c0.2-0.2,0.4-0.3,0.5-0.4c0.1-0.1,0.3-0.1,0.4-0.1c0.2,0,0.4,0.1,0.6,0.3c0.1,0.2,0.2,0.4,0.2,0.7
	v1.5c0,0.2,0,0.3,0.1,0.4c0.1,0.1,0.2,0.1,0.4,0.1v0.1h-1.5V78c0.1,0,0.2,0,0.3-0.1c0.1-0.1,0.1-0.2,0.1-0.5v-1.3
	c0-0.3,0-0.5-0.1-0.6c-0.1-0.1-0.2-0.2-0.4-0.2c-0.1,0-0.2,0-0.3,0.1c-0.1,0.1-0.2,0.2-0.4,0.3v1.9c0,0.2,0.2,0.4,0.5,0.4v0.1h-1.5
	V78z"/>
<path d="M49,73.7l0.1-0.1c1.1,0.7,1.7,1.7,1.7,2.9c0,1.2-0.6,2.2-1.7,2.8L49,79.2c0.5-0.4,0.8-0.8,0.9-1.2c0.2-0.4,0.2-0.9,0.2-1.5
	c0-0.8-0.1-1.3-0.3-1.8C49.7,74.3,49.4,74,49,73.7z"/>
<path d="M69.7,59.2c-0.1,0.4-0.1,0.8-0.1,1.3c0,1.6,0.7,2.9,1.7,3.7c1.1,0.8,2.5,1.2,4.1,1.2c1.6,0,3-0.4,4.1-1.2
	c1.1-0.8,1.7-2.1,1.7-3.7c0-1.1-0.3-2.1-0.9-3l-0.5,0.3c0.5,0.8,0.8,1.8,0.8,2.7c0,1.4-0.6,2.5-1.5,3.2c-0.9,0.7-2.2,1.1-3.7,1.1
	c-1.5,0-2.8-0.4-3.7-1.1c-0.9-0.7-1.5-1.8-1.5-3.2c0-0.4,0-0.8,0.1-1.1L69.7,59.2z"/>
<polygon fill-rule="evenodd" clip-rule="evenodd" points="79.5,60.9 80.3,56.4 81.7,60.7 "/>
<polygon points="79.5,60.9 79.6,60.9 80.3,56.9 81.5,60.6 79.5,60.8 79.5,60.9 79.6,60.9 79.5,60.9 79.5,61 81.9,60.9 80.3,55.8 
	79.3,61 79.5,61 "/>
<path d="M73.1,56.9c0.7,0,1.2-0.1,1.5-0.3S75,56,75,55.6h1.2v7.1h-1.4v-4.9h-1.7V56.9z"/>
<path d="M108.1,59.4c0.1-0.4,0.1-0.8,0.1-1.3c0-1.6-0.7-2.9-1.7-3.7c-1.1-0.8-2.5-1.2-4.1-1.2c-1.6,0-3,0.4-4.1,1.2
	c-1.1,0.8-1.7,2.1-1.7,3.7c0,1.1,0.3,2.1,0.9,3l0.5-0.3c-0.5-0.8-0.8-1.8-0.8-2.7c0-1.4,0.6-2.5,1.5-3.2c0.9-0.7,2.2-1.1,3.7-1.1
	c1.5,0,2.8,0.4,3.7,1.1c0.9,0.7,1.5,1.8,1.5,3.2c0,0.4,0,0.8-0.1,1.1L108.1,59.4z"/>
<polygon fill-rule="evenodd" clip-rule="evenodd" points="98.3,57.7 97.5,62.2 96.1,57.8 "/>
<polygon points="98.3,57.7 98.2,57.7 97.5,61.7 96.3,58 98.3,57.8 98.3,57.7 98.2,57.7 98.3,57.7 98.3,57.5 95.9,57.7 97.5,62.8 
	98.5,57.5 98.3,57.5 "/>
<path d="M100.2,56.9c0.7,0,1.2-0.1,1.5-0.3s0.5-0.5,0.5-0.9h1.2v7.1h-1.4v-4.9h-1.7V56.9z"/>
<path d="M69,74.8c-0.2,0.4-0.3,1-0.3,1.8c0,0.6,0.1,1.1,0.2,1.5c0.2,0.4,0.5,0.8,0.9,1.2l-0.1,0.1c-1.1-0.7-1.7-1.6-1.7-2.8
	c0-1.2,0.6-2.1,1.7-2.9l0.1,0.1C69.5,74,69.2,74.3,69,74.8z"/>
<path d="M71.1,75.6c0.3-0.3,0.6-0.5,1-0.5c0.3,0,0.6,0.1,0.8,0.4c0.2,0.3,0.3,0.6,0.3,1.1c0,0.5-0.1,0.9-0.4,1.2
	c-0.3,0.3-0.6,0.5-1,0.5c-0.3,0-0.5-0.1-0.7-0.3V79c0,0.2,0,0.4,0.1,0.4c0.1,0.1,0.2,0.1,0.5,0.1v0.1h-1.6v-0.1
	c0.2,0,0.3-0.1,0.4-0.1c0.1-0.1,0.1-0.2,0.1-0.3v-3.2c0-0.2,0-0.3-0.1-0.3l-0.2-0.1l-0.2,0v-0.1c0.2-0.1,0.6-0.2,1-0.4l0,0V75.6z
	 M71.1,77.6c0,0.1,0.1,0.2,0.2,0.3c0.1,0.1,0.3,0.2,0.5,0.2c0.2,0,0.4-0.1,0.6-0.3c0.2-0.2,0.2-0.5,0.2-1c0-0.3-0.1-0.6-0.2-0.9
	c-0.1-0.2-0.4-0.4-0.6-0.4c-0.1,0-0.3,0-0.4,0.1c-0.1,0.1-0.2,0.2-0.2,0.3V77.6z"/>
<path d="M73.6,76.6c0-0.4,0.1-0.8,0.4-1.1c0.3-0.3,0.6-0.5,1-0.5c0.5,0,0.8,0.1,1.1,0.4c0.3,0.3,0.4,0.7,0.4,1.1
	c0,0.5-0.1,0.8-0.4,1.1c-0.3,0.3-0.6,0.5-1.1,0.5c-0.4,0-0.8-0.2-1.1-0.5C73.8,77.4,73.6,77.1,73.6,76.6z M74.2,76.3
	c0,0.5,0.1,0.9,0.3,1.2c0.2,0.3,0.4,0.5,0.7,0.5c0.3,0,0.4-0.1,0.6-0.3c0.1-0.2,0.2-0.5,0.2-0.9c0-0.4-0.1-0.8-0.3-1.1
	c-0.2-0.3-0.4-0.4-0.7-0.4c-0.3,0-0.4,0.1-0.6,0.3C74.3,75.7,74.2,76,74.2,76.3z"/>
<path d="M76.8,78c0.2,0,0.4-0.1,0.4-0.1c0.1-0.1,0.1-0.2,0.1-0.3v-3.3c0-0.2,0-0.3-0.1-0.3c0,0-0.1-0.1-0.2-0.1l-0.2,0v-0.1
	c0.4-0.1,0.8-0.2,1-0.3l0,0v2.8l0.5-0.4c0.2-0.2,0.4-0.4,0.5-0.4l0.1-0.2l-0.1-0.1c0,0-0.1,0-0.3,0v-0.1H80v0.1
	c-0.2,0-0.5,0.1-0.7,0.3c-0.2,0.2-0.4,0.3-0.6,0.5l-0.3,0.3l1,1.3c0.2,0.3,0.5,0.5,0.8,0.5v0.1h-1.5V78h0.1l0.2,0l0-0.1l0-0.1
	l-0.1-0.1l-0.9-1.3v1.2c0,0.1,0,0.2,0.1,0.3C78,78,78.2,78,78.4,78v0.1h-1.6V78z"/>
<path d="M80.8,76.3c0,0.4,0.1,0.8,0.3,1c0.2,0.3,0.4,0.4,0.8,0.4c0.4,0,0.8-0.2,1-0.7l0.1,0c-0.1,0.3-0.3,0.5-0.5,0.8
	c-0.3,0.2-0.5,0.3-0.9,0.3c-0.4,0-0.7-0.1-0.9-0.4c-0.2-0.3-0.3-0.6-0.3-1.1c0-0.5,0.1-0.9,0.4-1.2c0.3-0.3,0.6-0.4,1-0.4
	c0.3,0,0.6,0.1,0.8,0.3c0.2,0.2,0.3,0.5,0.4,0.9H80.8z M80.8,76.1h1.4c-0.1-0.5-0.3-0.8-0.6-0.8c-0.2,0-0.4,0.1-0.5,0.2
	C80.9,75.6,80.8,75.8,80.8,76.1z"/>
<path d="M85.8,75.8c0.7-0.2,1.1-0.6,1.1-1.1c0-0.2-0.1-0.4-0.2-0.5c-0.1-0.1-0.3-0.2-0.5-0.2c-0.4,0-0.8,0.2-1,0.7l-0.1,0
	c0.1-0.3,0.3-0.6,0.5-0.8c0.2-0.2,0.5-0.3,0.8-0.3c0.3,0,0.6,0.1,0.8,0.3c0.2,0.2,0.3,0.4,0.3,0.7c0,0.3-0.2,0.7-0.6,0.9
	c0.6,0.2,0.8,0.6,0.8,1.2c0,0.5-0.2,0.9-0.5,1.1c-0.3,0.3-0.8,0.4-1.3,0.4c-0.2,0-0.4,0-0.5-0.1c-0.1-0.1-0.2-0.2-0.2-0.3
	c0-0.2,0.1-0.2,0.3-0.2c0.1,0,0.2,0.1,0.4,0.2c0.2,0.1,0.4,0.2,0.5,0.2c0.3,0,0.5-0.1,0.6-0.3c0.2-0.2,0.2-0.4,0.2-0.8
	c0-0.4-0.2-0.7-0.5-0.9c-0.2-0.1-0.3-0.1-0.6-0.1L85.8,75.8L85.8,75.8z"/>
<path d="M88.5,77.1h0.1c0.1,0.3,0.2,0.6,0.3,0.7C89,78,89.2,78,89.4,78c0.1,0,0.3,0,0.4-0.1c0.1-0.1,0.2-0.2,0.2-0.3
	c0-0.2-0.1-0.3-0.2-0.4c-0.1-0.1-0.3-0.2-0.5-0.3c-0.3-0.2-0.5-0.3-0.6-0.5c-0.1-0.2-0.2-0.3-0.2-0.5c0-0.2,0.1-0.4,0.3-0.6
	c0.2-0.2,0.4-0.2,0.7-0.2c0.1,0,0.2,0,0.4,0.1c0.1,0,0.2,0.1,0.2,0.1l0.1-0.1h0.1l0,0.9h-0.1c-0.1-0.6-0.4-0.8-0.7-0.8
	c-0.2,0-0.3,0-0.4,0.1c-0.1,0.1-0.1,0.2-0.1,0.3c0,0.2,0.1,0.3,0.2,0.4c0.1,0.1,0.3,0.2,0.6,0.4c0.3,0.2,0.5,0.3,0.6,0.4
	c0.1,0.1,0.2,0.3,0.2,0.5c0,0.3-0.1,0.5-0.3,0.6c-0.2,0.2-0.4,0.2-0.7,0.2c-0.1,0-0.2,0-0.4-0.1c-0.2,0-0.3-0.1-0.4-0.1l-0.1,0.1
	h-0.1V77.1z"/>
<path d="M93.4,74.2L93.4,74.2l0,0.1v0.8h0.7v0.2h-0.7v1.9c0,0.4,0.1,0.6,0.3,0.6l0.2-0.1l0.2-0.2l0.1,0.1c-0.1,0.1-0.2,0.2-0.3,0.4
	c-0.1,0.1-0.3,0.2-0.5,0.2c-0.4,0-0.6-0.3-0.6-0.9v-2h-0.3l-0.1,0l0.1-0.1c0.2-0.1,0.3-0.3,0.5-0.4C93.1,74.6,93.3,74.4,93.4,74.2z"
	/>
<path d="M94.5,76.6c0-0.4,0.1-0.8,0.4-1.1c0.3-0.3,0.6-0.5,1-0.5c0.5,0,0.8,0.1,1.1,0.4c0.3,0.3,0.4,0.7,0.4,1.1
	c0,0.5-0.1,0.8-0.4,1.1c-0.3,0.3-0.6,0.5-1.1,0.5c-0.4,0-0.8-0.2-1.1-0.5C94.6,77.4,94.5,77.1,94.5,76.6z M95,76.3
	c0,0.5,0.1,0.9,0.3,1.2c0.2,0.3,0.4,0.5,0.7,0.5c0.3,0,0.4-0.1,0.6-0.3c0.1-0.2,0.2-0.5,0.2-0.9c0-0.4-0.1-0.8-0.3-1.1
	c-0.2-0.3-0.4-0.4-0.7-0.4c-0.3,0-0.4,0.1-0.6,0.3C95.1,75.7,95,76,95,76.3z"/>
<path d="M100.3,74.2L100.3,74.2l0,0.1v0.8h0.7v0.2h-0.7v1.9c0,0.4,0.1,0.6,0.3,0.6l0.2-0.1l0.2-0.2l0.1,0.1
	c-0.1,0.1-0.2,0.2-0.3,0.4c-0.1,0.1-0.3,0.2-0.5,0.2c-0.4,0-0.6-0.3-0.6-0.9v-2h-0.3l-0.1,0l0.1-0.1c0.2-0.1,0.3-0.3,0.5-0.4
	C100,74.6,100.2,74.4,100.3,74.2z"/>
<path d="M101.2,75.2v-0.1h1v2.2c0,0.2,0,0.3,0.1,0.4c0.1,0.1,0.2,0.1,0.4,0.1c0.1,0,0.3,0,0.4-0.1c0.1-0.1,0.2-0.1,0.2-0.2l0.1-0.1
	c0,0,0-0.1,0-0.2v-1.6c0-0.1,0-0.2-0.1-0.3c-0.1-0.1-0.2-0.1-0.4-0.1v-0.1h1v2.3c0,0.1,0,0.2,0.1,0.3c0.1,0,0.2,0.1,0.4,0.1v0.1
	c-0.1,0-0.5,0.1-1,0.3h0v-0.6l-0.3,0.3c-0.2,0.2-0.4,0.3-0.7,0.3c-0.2,0-0.4-0.1-0.6-0.2s-0.2-0.4-0.2-0.6v-1.7c0-0.2,0-0.3-0.1-0.3
	C101.5,75.3,101.4,75.2,101.2,75.2z"/>
<path d="M104.5,78.1V78c0.2,0,0.3-0.1,0.4-0.1c0.1-0.1,0.1-0.2,0.1-0.4v-1.7c0-0.3-0.1-0.4-0.2-0.4l-0.2,0v-0.1
	c0.3-0.1,0.7-0.2,1-0.4l0,0v0.6c0.3-0.4,0.5-0.6,0.8-0.6c0.1,0,0.2,0,0.3,0.1c0.1,0.1,0.1,0.2,0.1,0.3c0,0.1,0,0.2-0.1,0.2l-0.2,0.1
	c-0.1,0-0.2,0-0.2-0.1l-0.2-0.1c-0.1,0-0.2,0.1-0.3,0.2c-0.1,0.1-0.2,0.2-0.2,0.4v1.5c0,0.2,0,0.3,0.1,0.4c0.1,0.1,0.2,0.1,0.5,0.1
	v0.1H104.5z"/>
<path d="M106.8,78c0.2,0,0.3,0,0.3-0.1c0.1-0.1,0.1-0.2,0.1-0.4v-1.6c0-0.2,0-0.3-0.1-0.4l-0.2-0.1l-0.2,0v-0.1
	c0.5-0.2,0.8-0.3,1-0.4l0,0v0.5c0.2-0.2,0.4-0.3,0.5-0.4c0.1-0.1,0.3-0.1,0.4-0.1c0.2,0,0.4,0.1,0.6,0.3c0.1,0.2,0.2,0.4,0.2,0.7
	v1.5c0,0.2,0,0.3,0.1,0.4c0.1,0.1,0.2,0.1,0.4,0.1v0.1h-1.5V78c0.1,0,0.2,0,0.3-0.1c0.1-0.1,0.1-0.2,0.1-0.5v-1.3
	c0-0.3,0-0.5-0.1-0.6c-0.1-0.1-0.2-0.2-0.4-0.2c-0.1,0-0.2,0-0.3,0.1c-0.1,0.1-0.2,0.2-0.4,0.3v1.9c0,0.2,0.2,0.4,0.5,0.4v0.1h-1.5
	V78z"/>
<path d="M110.3,73.7l0.1-0.1c1.1,0.7,1.7,1.7,1.7,2.9c0,1.2-0.6,2.2-1.7,2.8l-0.1-0.1c0.5-0.4,0.8-0.8,0.9-1.2
	c0.2-0.4,0.2-0.9,0.2-1.5c0-0.8-0.1-1.3-0.3-1.8C111,74.3,110.7,74,110.3,73.7z"/>
<path d="M181.3,67.3H181c0,0.5-0.1,1-0.3,1.5h0c-0.2,0.5-0.5,0.9-0.8,1.2s-0.8,0.6-1.2,0.8h0h0c-0.5,0.2-1,0.3-1.5,0.3
	s-1-0.1-1.5-0.3h0l0,0c-0.5-0.2-0.9-0.5-1.2-0.8c-0.3-0.3-0.6-0.8-0.8-1.2l0,0l0,0c-0.2-0.5-0.3-1-0.3-1.5s0.1-1,0.3-1.5l0,0l0,0
	c0.2-0.5,0.5-0.9,0.8-1.2l0,0c0.3-0.3,0.8-0.6,1.2-0.8l0,0l0,0c0.5-0.2,1-0.3,1.5-0.3s1,0.1,1.5,0.3l0,0l0,0
	c0.5,0.2,0.9,0.5,1.2,0.8l0,0l0,0c0.3,0.3,0.6,0.8,0.8,1.2l0,0l0,0c0.2,0.5,0.3,1,0.3,1.5H181.3h0.2c0-0.6-0.1-1.2-0.3-1.7l0,0
	c-0.2-0.5-0.5-1-0.9-1.4l0,0l0,0c-0.4-0.4-0.9-0.7-1.4-0.9l0,0l0,0c-0.5-0.2-1.1-0.3-1.7-0.3s-1.2,0.1-1.7,0.3l0,0
	c-0.5,0.2-1,0.5-1.4,0.9l0,0c-0.4,0.4-0.7,0.8-0.9,1.4l0,0c-0.2,0.5-0.3,1.1-0.3,1.7s0.1,1.2,0.3,1.7h0c0.2,0.5,0.5,1,0.9,1.4
	c0.4,0.4,0.9,0.7,1.4,0.9h0h0c0.5,0.2,1.1,0.3,1.7,0.3s1.2-0.1,1.7-0.3h0c0.5-0.2,1-0.5,1.4-0.9c0.4-0.4,0.7-0.9,0.9-1.4h0
	c0.2-0.5,0.3-1.1,0.3-1.7H181.3z"/>
<path d="M176.1,68.3c0,0.7,0.3,1,0.9,1c0.3,0,0.5-0.1,0.6-0.2c0.2-0.2,0.2-0.4,0.2-0.7c0-0.3-0.1-0.5-0.3-0.6
	c-0.2-0.1-0.6-0.2-1-0.2v-0.8h0.2c0.7,0,1-0.3,1-0.8c0-0.2-0.1-0.4-0.2-0.5c-0.1-0.1-0.3-0.2-0.6-0.2c-0.5,0-0.8,0.3-0.8,0.9h-1.1
	c0-0.6,0.2-1,0.5-1.3c0.3-0.3,0.8-0.5,1.4-0.5c0.6,0,1,0.1,1.4,0.4c0.4,0.3,0.5,0.7,0.5,1.2c0,0.5-0.2,0.9-0.7,1.1
	c0.6,0.2,0.9,0.7,0.9,1.3c0,0.5-0.2,1-0.6,1.3c-0.4,0.3-0.9,0.5-1.5,0.5c-0.7,0-1.2-0.2-1.5-0.5c-0.3-0.3-0.5-0.8-0.6-1.4H176.1z"/>
<path d="M142.6,68.2c0.2-0.4,0.7-0.8,1.3-1.2c0.5-0.4,0.9-0.7,1-0.9c0.1-0.2,0.2-0.4,0.2-0.6c0-0.2-0.1-0.4-0.2-0.6
	c-0.1-0.2-0.3-0.3-0.6-0.3c-0.3,0-0.5,0.1-0.6,0.3c-0.1,0.2-0.2,0.5-0.2,0.8h-1.2v-0.2c0-0.5,0.2-0.9,0.5-1.3
	c0.3-0.4,0.8-0.6,1.5-0.6c0.6,0,1.1,0.2,1.5,0.5c0.4,0.3,0.6,0.8,0.6,1.3c0,0.4-0.1,0.7-0.3,1c-0.2,0.3-0.6,0.6-1.2,1
	c-0.6,0.4-1,0.7-1.1,0.9h2.6v1h-4.1C142.3,69,142.4,68.6,142.6,68.2z"/>
<polygon points="141.3,30.2 141.3,30.4 149.2,30.4 149.2,38.1 141.5,38.1 141.5,30.2 141.3,30.2 141.3,30.4 141.3,30.2 141,30.2 
	141,38.5 149.6,38.5 149.6,29.9 141,29.9 141,30.2 "/>
<path d="M143.7,35.9c0.2-0.4,0.6-0.8,1.3-1.2c0.5-0.4,0.9-0.7,1-0.9c0.1-0.2,0.2-0.4,0.2-0.6c0-0.2-0.1-0.4-0.2-0.6
	c-0.1-0.2-0.3-0.3-0.6-0.3c-0.3,0-0.5,0.1-0.6,0.3c-0.1,0.2-0.2,0.5-0.2,0.8h-1.1v-0.2c0-0.5,0.2-0.9,0.5-1.3
	c0.3-0.4,0.8-0.6,1.4-0.6c0.6,0,1,0.2,1.4,0.5c0.4,0.3,0.6,0.8,0.6,1.3c0,0.4-0.1,0.7-0.3,1c-0.2,0.3-0.6,0.6-1.1,1
	c-0.6,0.4-1,0.7-1.1,0.9h2.5v1h-3.9C143.3,36.7,143.4,36.3,143.7,35.9z"/>
<path d="M176.3,35.4c0,0.7,0.3,1,0.8,1c0.3,0,0.5-0.1,0.6-0.2c0.2-0.2,0.2-0.4,0.2-0.7c0-0.3-0.1-0.5-0.3-0.6
	c-0.2-0.1-0.5-0.2-1-0.2v-0.8h0.2c0.6,0,1-0.3,1-0.8c0-0.2-0.1-0.4-0.2-0.5c-0.1-0.1-0.3-0.2-0.6-0.2c-0.5,0-0.8,0.3-0.8,0.9h-1
	c0-0.6,0.2-1,0.5-1.3c0.3-0.3,0.8-0.5,1.4-0.5c0.5,0,1,0.1,1.3,0.4c0.3,0.3,0.5,0.7,0.5,1.2c0,0.5-0.2,0.9-0.7,1.1
	c0.6,0.2,0.9,0.7,0.9,1.3c0,0.5-0.2,1-0.5,1.3c-0.4,0.3-0.9,0.5-1.5,0.5c-0.6,0-1.1-0.2-1.5-0.5c-0.3-0.3-0.5-0.8-0.5-1.4H176.3z"/>
<path fill="#FFFFFF" d="M165.3,67.3c0,2.2-1.8,4.1-4.1,4.1s-4.1-1.8-4.1-4.1c0-2.2,1.8-4.1,4.1-4.1S165.3,65.1,165.3,67.3z"/>
<path d="M165.3,67.3h-0.2c0,1.1-0.4,2-1.1,2.7c-0.7,0.7-1.7,1.1-2.7,1.1s-2-0.4-2.7-1.1c-0.7-0.7-1.1-1.7-1.1-2.7
	c0-1.1,0.4-2,1.1-2.7c0.7-0.7,1.7-1.1,2.7-1.1s2,0.4,2.7,1.1c0.7,0.7,1.1,1.7,1.1,2.7H165.3h0.2c0-2.4-1.9-4.3-4.3-4.3
	c-2.4,0-4.3,1.9-4.3,4.3c0,2.4,1.9,4.3,4.3,4.3c2.4,0,4.3-1.9,4.3-4.3H165.3z"/>
<path d="M159.3,65.3c0.6,0,1-0.1,1.3-0.3c0.2-0.2,0.4-0.4,0.4-0.7h1v5.8h-1.2v-4h-1.5V65.3z"/>
<rect x="157.2" y="30.2" fill="#FFFFFF" width="8.1" height="8.1"/>
<polygon points="157.2,30.2 157.2,30.4 165.1,30.4 165.1,38.1 157.4,38.1 157.4,30.2 157.2,30.2 157.2,30.4 157.2,30.2 157,30.2 
	157,38.5 165.6,38.5 165.6,29.9 157,29.9 157,30.2 "/>
<path d="M159.6,32.4c0.6,0,1-0.1,1.2-0.3c0.2-0.2,0.4-0.4,0.4-0.7h0.9v5.8H161v-4h-1.4V32.4z"/>
<polyline points="157.7,59.3 150.2,49.3 149.9,49.6 157.4,59.6 "/>
<polygon points="149.5,51.2 149.8,51 151.9,49.5 147.3,45.6 "/>
<polyline points="165.8,42.4 173.2,52.4 173.6,52.2 166.1,42.1 "/>
<polygon points="173.9,50.5 173.7,50.7 171.6,52.3 176.2,56.2 "/>
<polyline points="151.7,40.5 161.3,48.6 161.6,48.2 152,40.2 "/>
<polygon points="161.5,46.5 161.3,46.8 159.6,48.8 164.9,51.5 "/>
<polyline points="169,61.6 159.4,53.5 159.1,53.9 168.7,61.9 "/>
<polygon points="159.1,55.5 159.4,55.3 161.1,53.3 155.7,50.6 "/>
<path d="M240.7,49h-0.2c0,0.5-0.1,1-0.3,1.5l0,0c-0.2,0.5-0.5,0.9-0.8,1.2l0,0c-0.3,0.3-0.8,0.6-1.2,0.8l0,0c-0.5,0.2-1,0.3-1.5,0.3
	c-0.5,0-1-0.1-1.5-0.3l0,0l0,0c-0.5-0.2-0.9-0.5-1.2-0.8l0,0c-0.3-0.3-0.6-0.8-0.8-1.2l0,0c-0.2-0.5-0.3-1-0.3-1.5
	c0-0.5,0.1-1,0.3-1.5l0,0c0.2-0.5,0.5-0.9,0.8-1.2c0.3-0.3,0.8-0.6,1.2-0.8h0c0.5-0.2,1-0.3,1.5-0.3c0.5,0,1,0.1,1.5,0.3h0
	c0.5,0.2,0.9,0.5,1.2,0.8c0.3,0.3,0.6,0.8,0.8,1.2l0,0l0,0c0.2,0.5,0.3,1,0.3,1.5H240.7h0.2c0-0.6-0.1-1.2-0.3-1.7l0,0
	c-0.2-0.5-0.5-1-0.9-1.4c-0.4-0.4-0.9-0.7-1.4-0.9h0c-0.5-0.2-1.1-0.3-1.7-0.3c-0.6,0-1.2,0.1-1.7,0.3h0c-0.5,0.2-1,0.5-1.4,0.9
	c-0.4,0.4-0.7,0.8-0.9,1.4l0,0c-0.2,0.5-0.3,1.1-0.3,1.7c0,0.6,0.1,1.2,0.3,1.7l0,0c0.2,0.5,0.5,1,0.9,1.4l0,0l0,0
	c0.4,0.4,0.9,0.7,1.4,0.9l0,0l0,0c0.5,0.2,1.1,0.3,1.7,0.3c0.6,0,1.2-0.1,1.7-0.3l0,0c0.5-0.2,1-0.5,1.4-0.9l0,0l0,0
	c0.4-0.4,0.7-0.9,0.9-1.4l0,0l0,0c0.2-0.5,0.3-1.1,0.3-1.7H240.7z"/>
<path d="M235.6,50c0,0.7,0.3,1,0.9,1c0.3,0,0.5-0.1,0.6-0.2c0.2-0.2,0.2-0.4,0.2-0.7c0-0.3-0.1-0.5-0.3-0.6c-0.2-0.1-0.6-0.2-1-0.2
	v-0.8h0.2c0.7,0,1-0.3,1-0.8c0-0.2-0.1-0.4-0.2-0.5c-0.1-0.1-0.3-0.2-0.6-0.2c-0.5,0-0.8,0.3-0.8,0.9h-1.1c0-0.6,0.2-1,0.5-1.3
	c0.3-0.3,0.8-0.5,1.4-0.5c0.6,0,1,0.1,1.4,0.4c0.4,0.3,0.5,0.7,0.5,1.2c0,0.5-0.2,0.9-0.7,1.1c0.6,0.2,0.9,0.7,0.9,1.3
	c0,0.5-0.2,1-0.6,1.3c-0.4,0.3-0.9,0.5-1.5,0.5c-0.7,0-1.2-0.2-1.5-0.5c-0.3-0.3-0.5-0.8-0.6-1.4H235.6z"/>
<polygon points="243.7,44.8 243.7,45 251.6,45 251.6,52.7 243.9,52.7 243.9,44.8 243.7,44.8 243.7,45 243.7,44.8 243.4,44.8 
	243.4,53.2 252,53.2 252,44.6 243.4,44.6 243.4,44.8 "/>
<path d="M246.1,50.6c0.2-0.4,0.6-0.8,1.3-1.2c0.5-0.4,0.9-0.7,1-0.9c0.1-0.2,0.2-0.4,0.2-0.6c0-0.2-0.1-0.4-0.2-0.6
	c-0.1-0.2-0.3-0.3-0.6-0.3c-0.3,0-0.5,0.1-0.6,0.3c-0.1,0.2-0.2,0.5-0.2,0.8h-1.1v-0.2c0-0.5,0.2-0.9,0.5-1.3
	c0.3-0.4,0.8-0.6,1.4-0.6c0.6,0,1,0.2,1.4,0.5c0.4,0.3,0.6,0.8,0.6,1.3c0,0.4-0.1,0.7-0.3,1c-0.2,0.3-0.6,0.6-1.1,1
	c-0.6,0.4-1,0.7-1.1,0.9h2.5v1h-3.9C245.7,51.4,245.9,50.9,246.1,50.6z"/>
<path fill="#FFFFFF" d="M225.6,35.4c0,2.2-1.8,4.1-4.1,4.1s-4.1-1.8-4.1-4.1c0-2.2,1.8-4.1,4.1-4.1S225.6,33.2,225.6,35.4z"/>
<path d="M225.6,35.4h-0.2c0,1.1-0.4,2-1.1,2.7c-0.7,0.7-1.7,1.1-2.7,1.1s-2-0.4-2.7-1.1c-0.7-0.7-1.1-1.7-1.1-2.7
	c0-1.1,0.4-2,1.1-2.7c0.7-0.7,1.7-1.1,2.7-1.1s2,0.4,2.7,1.1c0.7,0.7,1.1,1.7,1.1,2.7H225.6h0.2c0-2.4-1.9-4.3-4.3-4.3
	c-2.4,0-4.3,1.9-4.3,4.3c0,2.4,1.9,4.3,4.3,4.3c2.4,0,4.3-1.9,4.3-4.3H225.6z"/>
<path d="M219.6,33.4c0.6,0,1-0.1,1.3-0.3c0.2-0.2,0.4-0.4,0.4-0.7h1v5.8h-1.2v-4h-1.5V33.4z"/>
<rect x="257.7" y="58" fill="#FFFFFF" width="8.1" height="8.1"/>
<polygon points="257.7,58 257.7,58.3 265.6,58.3 265.6,65.9 257.9,65.9 257.9,58 257.7,58 257.7,58.3 257.7,58 257.5,58 257.5,66.4 
	266.1,66.4 266.1,57.8 257.5,57.8 257.5,58 "/>
<path d="M260.1,60.3c0.6,0,1-0.1,1.2-0.3s0.4-0.4,0.4-0.7h0.9v5.8h-1.1v-4h-1.4V60.3z"/>
<polygon points="230.9,76.1 233.3,76.1 233.3,85.6 239.1,85.6 239.1,87.6 230.9,87.6 "/>
<path d="M239.8,87.6l4.1-11.5h2.8l4.1,11.5h-2.6l-0.7-2.4h-4.3l-0.8,2.4H239.8z M243.8,83.2h2.9l-1.4-4.5L243.8,83.2z"/>
<polyline points="224.8,82.1 256.7,82.1 256.7,81.6 224.8,81.6 "/>
<polyline points="225.8,48.2 221.9,57.7 222.3,57.9 226.2,48.4 "/>
<polyline points="222.1,39.6 225.8,48.4 226.2,48.2 222.5,39.4 "/>
<polyline points="232.5,48.6 226,48.1 226,48.5 232.5,49.1 "/>
<polyline points="258.5,49.5 262.4,40 262,39.9 258.1,49.3 "/>
<polyline points="262.2,58.1 258.5,49.3 258.1,49.5 261.7,58.3 "/>
<polyline points="251.8,49.1 258.2,49.6 258.3,49.2 251.8,48.6 "/>
<path d="M314.2,69h-0.2c0,0.5-0.1,1-0.3,1.5s-0.5,0.9-0.8,1.2l0,0l0,0c-0.3,0.3-0.8,0.6-1.2,0.8h0c-0.5,0.2-1,0.3-1.5,0.3
	s-1-0.1-1.5-0.3h0c-0.5-0.2-0.9-0.5-1.2-0.8l0,0c-0.3-0.3-0.6-0.8-0.8-1.2s-0.3-1-0.3-1.5s0.1-1,0.3-1.5c0.2-0.5,0.5-0.9,0.8-1.2
	c0.3-0.3,0.8-0.6,1.2-0.8l0,0c0.5-0.2,1-0.3,1.5-0.3s1,0.1,1.5,0.3l0,0c0.5,0.2,0.9,0.5,1.2,0.8c0.3,0.3,0.6,0.8,0.8,1.2
	c0.2,0.5,0.3,1,0.3,1.5H314.2h0.2c0-0.6-0.1-1.2-0.3-1.7c-0.2-0.5-0.5-1-0.9-1.4c-0.4-0.4-0.9-0.7-1.4-0.9l0,0l0,0
	c-0.5-0.2-1.1-0.3-1.7-0.3s-1.2,0.1-1.7,0.3l0,0c-0.5,0.2-1,0.5-1.4,0.9c-0.4,0.4-0.7,0.9-0.9,1.4c-0.2,0.5-0.3,1.1-0.3,1.7
	s0.1,1.2,0.3,1.7c0.2,0.5,0.5,1,0.9,1.4l0,0c0.4,0.4,0.9,0.7,1.4,0.9l0,0l0,0c0.5,0.2,1.1,0.3,1.7,0.3s1.2-0.1,1.7-0.3l0,0l0,0
	c0.5-0.2,1-0.5,1.4-0.9l0,0c0.4-0.4,0.7-0.9,0.9-1.4c0.2-0.5,0.3-1.1,0.3-1.7H314.2z"/>
<path d="M309.1,70c0,0.7,0.3,1,0.9,1c0.3,0,0.5-0.1,0.6-0.2c0.2-0.2,0.2-0.4,0.2-0.7c0-0.3-0.1-0.5-0.3-0.6c-0.2-0.1-0.6-0.2-1-0.2
	v-0.8h0.2c0.7,0,1-0.3,1-0.8c0-0.2-0.1-0.4-0.2-0.5c-0.1-0.1-0.3-0.2-0.6-0.2c-0.5,0-0.8,0.3-0.8,0.9H308c0-0.6,0.2-1,0.5-1.3
	c0.3-0.3,0.8-0.5,1.4-0.5c0.6,0,1,0.1,1.4,0.4c0.4,0.3,0.5,0.7,0.5,1.2c0,0.5-0.2,0.9-0.7,1.1c0.6,0.2,0.9,0.7,0.9,1.3
	c0,0.5-0.2,1-0.6,1.3c-0.4,0.3-0.9,0.5-1.5,0.5c-0.7,0-1.2-0.2-1.5-0.5c-0.3-0.3-0.5-0.8-0.6-1.4H309.1z"/>
<path d="M308.2,37.8c0.2-0.4,0.7-0.8,1.3-1.2c0.5-0.4,0.9-0.7,1-0.9c0.1-0.2,0.2-0.4,0.2-0.6c0-0.2-0.1-0.4-0.2-0.6
	c-0.1-0.2-0.3-0.3-0.6-0.3c-0.3,0-0.5,0.1-0.6,0.3c-0.1,0.2-0.2,0.5-0.2,0.8h-1.2v-0.2c0-0.5,0.2-0.9,0.5-1.3
	c0.3-0.4,0.8-0.6,1.5-0.6c0.6,0,1.1,0.2,1.5,0.5c0.4,0.3,0.6,0.8,0.6,1.3c0,0.4-0.1,0.7-0.3,1c-0.2,0.3-0.6,0.6-1.2,1
	c-0.6,0.4-1,0.7-1.1,0.9h2.6v1h-4.1C307.9,38.6,308,38.2,308.2,37.8z"/>
<polygon points="337.5,32.3 337.5,32.5 345.4,32.5 345.4,40.2 337.7,40.2 337.7,32.3 337.5,32.3 337.5,32.5 337.5,32.3 337.3,32.3 
	337.3,40.7 345.8,40.7 345.8,32.1 337.3,32.1 337.3,32.3 "/>
<path d="M339.9,38.1c0.2-0.4,0.6-0.8,1.3-1.2c0.5-0.4,0.9-0.7,1-0.9c0.1-0.2,0.2-0.4,0.2-0.6c0-0.2-0.1-0.4-0.2-0.6
	c-0.1-0.2-0.3-0.3-0.6-0.3c-0.3,0-0.5,0.1-0.6,0.3c-0.1,0.2-0.2,0.5-0.2,0.8h-1.1v-0.2c0-0.5,0.2-0.9,0.5-1.3
	c0.3-0.4,0.8-0.6,1.4-0.6c0.6,0,1,0.2,1.4,0.5c0.4,0.3,0.6,0.8,0.6,1.3c0,0.4-0.1,0.7-0.3,1c-0.2,0.3-0.6,0.6-1.1,1
	c-0.6,0.4-1,0.7-1.1,0.9h2.5v1h-3.9C339.6,38.8,339.7,38.4,339.9,38.1z"/>
<path d="M342,71.3c0,0.7,0.3,1,0.8,1c0.3,0,0.5-0.1,0.6-0.2c0.2-0.2,0.2-0.4,0.2-0.7c0-0.3-0.1-0.5-0.3-0.6c-0.2-0.1-0.5-0.2-1-0.2
	v-0.8h0.2c0.6,0,0.9-0.3,0.9-0.8c0-0.2-0.1-0.4-0.2-0.5c-0.1-0.1-0.3-0.2-0.6-0.2c-0.5,0-0.8,0.3-0.8,0.9h-1c0-0.6,0.2-1,0.5-1.3
	c0.3-0.3,0.8-0.5,1.4-0.5c0.5,0,1,0.1,1.3,0.4c0.3,0.3,0.5,0.7,0.5,1.2c0,0.5-0.2,0.9-0.7,1.1c0.6,0.2,0.9,0.7,0.9,1.3
	c0,0.5-0.2,1-0.5,1.3c-0.4,0.3-0.9,0.5-1.5,0.5c-0.6,0-1.1-0.2-1.5-0.5c-0.3-0.3-0.5-0.8-0.5-1.4H342z"/>
<path fill="#FFFFFF" d="M326.1,51.1c0,2.2-1.8,4.1-4.1,4.1c-2.2,0-4.1-1.8-4.1-4.1c0-2.2,1.8-4.1,4.1-4.1
	C324.3,47,326.1,48.8,326.1,51.1z"/>
<path d="M326.1,51.1h-0.2c0,1.1-0.4,2-1.1,2.7c-0.7,0.7-1.7,1.1-2.7,1.1c-1.1,0-2-0.4-2.7-1.1c-0.7-0.7-1.1-1.7-1.1-2.7
	c0-1.1,0.4-2,1.1-2.7c0.7-0.7,1.7-1.1,2.7-1.1c1.1,0,2,0.4,2.7,1.1c0.7,0.7,1.1,1.7,1.1,2.7H326.1h0.2c0-2.4-1.9-4.3-4.3-4.3
	c-2.4,0-4.3,1.9-4.3,4.3c0,2.4,1.9,4.3,4.3,4.3c2.4,0,4.3-1.9,4.3-4.3H326.1z"/>
<path d="M320.1,49.1c0.6,0,1-0.1,1.3-0.3c0.2-0.2,0.4-0.4,0.4-0.7h1v5.8h-1.2v-4h-1.5V49.1z"/>
<rect x="328.7" y="50.5" fill="#FFFFFF" width="8.1" height="8.1"/>
<polygon points="328.7,50.5 328.7,50.8 336.6,50.8 336.6,58.4 329,58.4 329,50.5 328.7,50.5 328.7,50.8 328.7,50.5 328.5,50.5 
	328.5,58.9 337.1,58.9 337.1,50.3 328.5,50.3 328.5,50.5 "/>
<path d="M331.1,52.8c0.6,0,1-0.1,1.2-0.3s0.4-0.4,0.4-0.7h0.9v5.8h-1.1v-4h-1.4V52.8z"/>
<polyline points="334.8,36.5 327.5,40.6 327.8,41 335,36.9 "/>
<polygon points="329.3,41.5 329.2,41.2 327.9,39 323.5,43.1 "/>
<polyline points="325.1,48.5 330.1,44.7 329.9,44.4 324.8,48.1 "/>
<polygon points="328.2,44.1 328.4,44.3 330,46.4 333.9,41.8 "/>
<polyline points="399.7,48.9 395.8,58.4 396.2,58.6 400.1,49.1 "/>
<polyline points="396,40.3 399.7,49.1 400.1,48.9 396.4,40.1 "/>
<polyline points="406.4,49.3 399.9,48.8 399.9,49.2 406.3,49.8 "/>
<polyline points="432.3,50.2 436.2,40.7 435.8,40.6 431.9,50 "/>
<polyline points="436,58.8 432.3,50 431.9,50.2 435.6,59 "/>
<polyline points="425.7,49.8 432.1,50.3 432.2,49.9 425.7,49.3 "/>
<path d="M415.3,86.9h-2.7c-0.2-0.6-0.2-1.3-0.3-2l0-0.9c0-0.6-0.1-1-0.4-1.2c-0.2-0.2-0.7-0.4-1.5-0.4h-2.5v4.5h-2.4V75.4h5.9
	c1.1,0,2,0.3,2.7,0.9c0.7,0.6,1,1.4,1,2.4c0,1.3-0.6,2.2-1.8,2.7c0.6,0.3,1.1,0.6,1.2,1.1c0.2,0.4,0.2,1.2,0.2,2.1V85
	c0,0.4,0,0.8,0.1,1c0.1,0.3,0.2,0.4,0.4,0.5V86.9z M412.7,79c0-1-0.6-1.5-1.7-1.5h-3v3.1h2.8C412,80.5,412.7,80,412.7,79z"/>
<path d="M416.2,86.9l4.1-11.5h2.8l4.1,11.5h-2.6l-0.7-2.4h-4.3l-0.8,2.4H416.2z M420.3,82.5h2.9l-1.4-4.5L420.3,82.5z"/>
<polyline points="400.6,81.5 432.4,81.5 432.4,80.9 400.6,80.9 "/>
<path d="M398,36.9h-0.2c0,1.1-0.4,2-1.1,2.7c-0.7,0.7-1.7,1.1-2.7,1.1s-2-0.4-2.7-1.1c-0.7-0.7-1.1-1.7-1.1-2.7c0-1.1,0.4-2,1.1-2.7
	c0.7-0.7,1.7-1.1,2.7-1.1s2,0.4,2.7,1.1c0.7,0.7,1.1,1.7,1.1,2.7H398h0.2c0-2.4-1.9-4.3-4.3-4.3c-2.4,0-4.3,1.9-4.3,4.3
	c0,2.4,1.9,4.3,4.3,4.3c2.4,0,4.3-1.9,4.3-4.3H398z"/>
<path d="M392.1,38.4c0.2-0.4,0.7-0.8,1.3-1.2c0.5-0.4,0.9-0.7,1-0.9c0.1-0.2,0.2-0.4,0.2-0.6c0-0.2-0.1-0.4-0.2-0.6
	c-0.1-0.2-0.3-0.3-0.6-0.3c-0.3,0-0.5,0.1-0.6,0.3c-0.1,0.2-0.2,0.5-0.2,0.8h-1.2v-0.2c0-0.5,0.2-0.9,0.5-1.3
	c0.3-0.4,0.8-0.6,1.5-0.6c0.6,0,1.1,0.2,1.5,0.5c0.4,0.3,0.6,0.8,0.6,1.3c0,0.4-0.1,0.7-0.3,1c-0.2,0.3-0.6,0.6-1.2,1
	c-0.6,0.4-1,0.7-1.1,0.9h2.6v1h-4.1C391.7,39.2,391.9,38.8,392.1,38.4z"/>
<polygon points="432.1,58.7 432.1,58.9 440,58.9 440,66.6 432.4,66.6 432.4,58.7 432.1,58.7 432.1,58.9 432.1,58.7 431.9,58.7 
	431.9,67 440.5,67 440.5,58.5 431.9,58.5 431.9,58.7 "/>
<path d="M435.3,63.9c0,0.7,0.3,1,0.8,1c0.3,0,0.5-0.1,0.6-0.2c0.2-0.2,0.2-0.4,0.2-0.7c0-0.3-0.1-0.5-0.3-0.6
	c-0.2-0.1-0.5-0.2-1-0.2v-0.8h0.2c0.6,0,1-0.3,1-0.8c0-0.2-0.1-0.4-0.2-0.5c-0.1-0.1-0.3-0.2-0.6-0.2c-0.5,0-0.8,0.3-0.8,0.9h-1
	c0-0.6,0.2-1,0.5-1.3c0.3-0.3,0.8-0.5,1.4-0.5c0.5,0,1,0.1,1.3,0.4c0.3,0.3,0.5,0.7,0.5,1.2c0,0.5-0.2,0.9-0.7,1.1
	c0.6,0.2,0.9,0.7,0.9,1.3c0,0.5-0.2,1-0.5,1.3c-0.4,0.3-0.9,0.5-1.5,0.5c-0.6,0-1.1-0.2-1.5-0.5c-0.3-0.3-0.5-0.8-0.5-1.4H435.3z"/>
<path d="M426,49.3h-0.2c0,0.5-0.1,1-0.3,1.5l0,0c-0.2,0.5-0.5,0.9-0.8,1.2l0,0l0,0c-0.3,0.3-0.8,0.6-1.2,0.8l0,0
	c-0.5,0.2-1,0.3-1.5,0.3s-1-0.1-1.5-0.3l0,0l0,0c-0.5-0.2-0.9-0.5-1.2-0.8l0,0l0,0c-0.3-0.3-0.6-0.8-0.8-1.2l0,0l0,0
	c-0.2-0.5-0.3-1-0.3-1.5c0-0.5,0.1-1,0.3-1.5l0,0l0,0c0.2-0.5,0.5-0.9,0.8-1.2c0.3-0.3,0.8-0.6,1.2-0.8h0c0.5-0.2,1-0.3,1.5-0.3
	s1,0.1,1.5,0.3h0c0.5,0.2,0.9,0.5,1.2,0.8c0.3,0.3,0.6,0.8,0.8,1.2l0,0c0.2,0.5,0.3,1,0.3,1.5H426h0.2c0-0.6-0.1-1.2-0.3-1.7l0,0
	l0,0c-0.2-0.5-0.5-1-0.9-1.4c-0.4-0.4-0.9-0.7-1.4-0.9h0c-0.5-0.2-1.1-0.3-1.7-0.3s-1.2,0.1-1.7,0.3h0c-0.5,0.2-1,0.5-1.4,0.9
	c-0.4,0.4-0.7,0.9-0.9,1.4l0,0l0,0c-0.2,0.5-0.3,1.1-0.3,1.7c0,0.6,0.1,1.2,0.3,1.7l0,0c0.2,0.5,0.5,1,0.9,1.4l0,0
	c0.4,0.4,0.9,0.7,1.4,0.9l0,0l0,0c0.5,0.2,1.1,0.3,1.7,0.3s1.2-0.1,1.7-0.3l0,0c0.5-0.2,1-0.5,1.4-0.9l0,0c0.4-0.4,0.7-0.8,0.9-1.4
	l0,0c0.2-0.5,0.3-1.1,0.3-1.7H426z"/>
<path d="M420.9,50.3c0,0.7,0.3,1,0.9,1c0.3,0,0.5-0.1,0.6-0.2c0.2-0.2,0.2-0.4,0.2-0.7c0-0.3-0.1-0.5-0.3-0.6
	c-0.2-0.1-0.6-0.2-1-0.2v-0.8h0.2c0.7,0,1-0.3,1-0.8c0-0.2-0.1-0.4-0.2-0.5c-0.1-0.1-0.3-0.2-0.6-0.2c-0.5,0-0.8,0.3-0.8,0.9h-1.1
	c0-0.6,0.2-1,0.5-1.3c0.3-0.3,0.8-0.5,1.4-0.5c0.6,0,1,0.1,1.4,0.4c0.4,0.3,0.5,0.7,0.5,1.2c0,0.5-0.2,0.9-0.7,1.1
	c0.6,0.2,0.9,0.7,0.9,1.3c0,0.5-0.2,1-0.6,1.3c-0.4,0.3-0.9,0.5-1.5,0.5c-0.7,0-1.2-0.2-1.5-0.5c-0.3-0.3-0.5-0.8-0.6-1.4H420.9z"/>
<polygon points="406.4,45.7 406.4,45.9 414.3,45.9 414.3,53.6 406.7,53.6 406.7,45.7 406.4,45.7 406.4,45.9 406.4,45.7 406.2,45.7 
	406.2,54.1 414.8,54.1 414.8,45.5 406.2,45.5 406.2,45.7 "/>
<path d="M408.8,51.5c0.2-0.4,0.6-0.8,1.3-1.2c0.5-0.4,0.9-0.7,1-0.9c0.1-0.2,0.2-0.4,0.2-0.6c0-0.2-0.1-0.4-0.2-0.6
	c-0.1-0.2-0.3-0.3-0.6-0.3c-0.3,0-0.5,0.1-0.6,0.3c-0.1,0.2-0.2,0.5-0.2,0.8h-1.1v-0.2c0-0.5,0.2-0.9,0.5-1.3
	c0.3-0.4,0.8-0.6,1.4-0.6c0.6,0,1,0.2,1.4,0.5c0.4,0.3,0.6,0.8,0.6,1.3c0,0.4-0.1,0.7-0.3,1c-0.2,0.3-0.6,0.6-1.1,1
	c-0.6,0.4-1,0.7-1.1,0.9h2.5v1h-3.9C408.5,52.2,408.6,51.8,408.8,51.5z"/>
<path fill="#FFFFFF" d="M440.3,36.9c0,2.2-1.8,4.1-4.1,4.1s-4.1-1.8-4.1-4.1c0-2.2,1.8-4.1,4.1-4.1S440.3,34.7,440.3,36.9z"/>
<path d="M440.3,36.9H440c0,1.1-0.4,2-1.1,2.7c-0.7,0.7-1.7,1.1-2.7,1.1s-2-0.4-2.7-1.1c-0.7-0.7-1.1-1.7-1.1-2.7
	c0-1.1,0.4-2,1.1-2.7c0.7-0.7,1.7-1.1,2.7-1.1s2,0.4,2.7,1.1c0.7,0.7,1.1,1.7,1.1,2.7H440.3h0.2c0-2.4-1.9-4.3-4.3-4.3
	c-2.4,0-4.3,1.9-4.3,4.3c0,2.4,1.9,4.3,4.3,4.3c2.4,0,4.3-1.9,4.3-4.3H440.3z"/>
<path d="M434.3,34.9c0.6,0,1-0.1,1.3-0.3c0.2-0.2,0.4-0.4,0.4-0.7h1v5.8h-1.2v-4h-1.5V34.9z"/>
<rect x="391.2" y="57.7" fill="#FFFFFF" width="8.1" height="8.1"/>
<polygon points="391.2,57.7 391.2,57.9 399.1,57.9 399.1,65.6 391.4,65.6 391.4,57.7 391.2,57.7 391.2,57.9 391.2,57.7 391,57.7 
	391,66.1 399.6,66.1 399.6,57.5 391,57.5 391,57.7 "/>
<path d="M393.6,59.9c0.6,0,1-0.1,1.2-0.3c0.2-0.2,0.4-0.4,0.4-0.7h0.9v5.8H395v-4h-1.4V59.9z"/>
<polyline points="315.8,69.2 323.1,65.1 322.8,64.7 315.5,68.8 "/>
<polygon points="321.3,64.2 321.4,64.5 322.7,66.7 327.1,62.6 "/>
<polyline points="328.5,55.4 323.4,59.1 323.7,59.5 328.8,55.7 "/>
<polygon points="325.4,59.8 325.1,59.5 323.6,57.4 319.7,62 "/>
<path d="M282.4,86.6v3.3h0.6v-3.3H282.4z M282.4,80v3.3h0.6V80H282.4z M282.4,73.3v3.3h0.6v-3.3H282.4z M282.4,66.7V70h0.6v-3.3
	H282.4z M282.4,60v3.3h0.6V60H282.4z M282.4,53.4v3.3h0.6v-3.3H282.4z M282.4,46.7v3.3h0.6v-3.3H282.4z M282.4,40.1v3.3h0.6v-3.3
	H282.4z M282.4,33.4v3.3h0.6v-3.3H282.4z M282.4,26.8v3.3h0.6v-3.3H282.4z"/>
<circle fill="#FFFFFF" cx="300.6" cy="123.5" r="6.7"/>
<path d="M300.6,116.8v0.3c1.8,0,3.4,0.7,4.5,1.9c1.2,1.2,1.9,2.8,1.9,4.5c0,1.8-0.7,3.4-1.9,4.5c-1.2,1.2-2.8,1.9-4.5,1.9
	c-1.8,0-3.4-0.7-4.5-1.9c-1.2-1.2-1.9-2.8-1.9-4.5c0-1.8,0.7-3.4,1.9-4.5c1.2-1.2,2.8-1.9,4.5-1.9V116.8v-0.3c-3.9,0-7,3.1-7,7
	c0,3.9,3.1,7,7,7s7-3.1,7-7c0-3.9-3.1-7-7-7V116.8z"/>
<circle fill="#FFFFFF" cx="291.1" cy="114" r="6.7"/>
<path d="M291.1,107.3v0.3c1.8,0,3.4,0.7,4.5,1.9c1.2,1.2,1.9,2.8,1.9,4.5s-0.7,3.4-1.9,4.5c-1.2,1.2-2.8,1.9-4.5,1.9
	c-1.8,0-3.4-0.7-4.5-1.9c-1.2-1.2-1.9-2.8-1.9-4.5s0.7-3.4,1.9-4.5c1.2-1.2,2.8-1.9,4.5-1.9V107.3V107c-3.9,0-7,3.1-7,7
	c0,3.9,3.1,7,7,7c3.9,0,7-3.1,7-7c0-3.9-3.1-7-7-7V107.3z"/>
<circle fill="#FFFFFF" cx="310.1" cy="132.9" r="6.7"/>
<path d="M310.1,126.2v0.3c1.8,0,3.4,0.7,4.5,1.9c1.2,1.2,1.9,2.8,1.9,4.5c0,1.8-0.7,3.4-1.9,4.5c-1.2,1.2-2.8,1.9-4.5,1.9
	c-1.8,0-3.4-0.7-4.5-1.9s-1.9-2.8-1.9-4.5c0-1.8,0.7-3.4,1.9-4.5s2.8-1.9,4.5-1.9V126.2V126c-3.9,0-7,3.1-7,7c0,3.9,3.1,7,7,7
	c3.9,0,7-3.1,7-7c0-3.9-3.1-7-7-7V126.2z"/>
<polyline points="284.3,107.6 316.5,139.8 316.9,139.4 284.7,107.2 "/>
<circle fill="#FFFFFF" cx="211.5" cy="123.5" r="6.7"/>
<path d="M211.5,116.8v-0.3c-3.9,0-7,3.1-7,7c0,3.9,3.1,7,7,7c3.9,0,7-3.1,7-7c0-3.9-3.1-7-7-7V116.8v0.3c1.8,0,3.4,0.7,4.5,1.9
	c1.2,1.2,1.9,2.8,1.9,4.5c0,1.8-0.7,3.4-1.9,4.5c-1.2,1.2-2.8,1.9-4.5,1.9c-1.8,0-3.4-0.7-4.5-1.9c-1.2-1.2-1.9-2.8-1.9-4.5
	c0-1.8,0.7-3.4,1.9-4.5c1.2-1.2,2.8-1.9,4.5-1.9V116.8z"/>
<circle fill="#FFFFFF" cx="221" cy="114" r="6.7"/>
<path d="M221,107.3V107c-3.9,0-7,3.1-7,7c0,3.9,3.1,7,7,7c3.9,0,7-3.1,7-7c0-3.9-3.1-7-7-7V107.3v0.3c1.8,0,3.4,0.7,4.5,1.9
	c1.2,1.2,1.9,2.8,1.9,4.5s-0.7,3.4-1.9,4.5c-1.2,1.2-2.8,1.9-4.5,1.9c-1.8,0-3.4-0.7-4.5-1.9s-1.9-2.8-1.9-4.5s0.7-3.4,1.9-4.5
	c1.2-1.2,2.8-1.9,4.5-1.9V107.3z"/>
<circle fill="#FFFFFF" cx="202" cy="132.9" r="6.7"/>
<path d="M202,126.2V126c-3.9,0-7,3.1-7,7c0,3.9,3.1,7,7,7c3.9,0,7-3.1,7-7c0-3.9-3.1-7-7-7V126.2v0.3c1.8,0,3.4,0.7,4.5,1.9
	c1.2,1.2,1.9,2.8,1.9,4.5c0,1.8-0.7,3.4-1.9,4.5c-1.2,1.2-2.8,1.9-4.5,1.9c-1.8,0-3.4-0.7-4.5-1.9c-1.2-1.2-1.9-2.8-1.9-4.5
	c0-1.8,0.7-3.4,1.9-4.5c1.2-1.2,2.8-1.9,4.5-1.9V126.2z"/>
<polyline points="227.4,107.2 195.2,139.4 195.6,139.8 227.8,107.6 "/>
<path d="M38.9,146c-0.2,0.4-0.3,1-0.3,1.8c0,0.6,0.1,1.1,0.2,1.5c0.2,0.4,0.5,0.8,0.9,1.2l-0.1,0.1c-1.1-0.7-1.7-1.6-1.7-2.8
	c0-1.2,0.6-2.1,1.7-2.9l0.1,0.1C39.4,145.2,39.1,145.6,38.9,146z"/>
<path d="M41.9,147.4V147c0-0.4-0.2-0.5-0.5-0.5c-0.1,0-0.2,0-0.3,0.1c-0.1,0.1-0.1,0.1-0.1,0.2l0,0.1l0,0.1l-0.1,0.2l-0.2,0.1
	l-0.2-0.1l-0.1-0.2c0-0.2,0.1-0.3,0.3-0.5c0.2-0.2,0.5-0.2,0.8-0.2c0.4,0,0.6,0.1,0.8,0.2s0.2,0.4,0.2,0.8v1.4c0,0.1,0,0.2,0,0.3
	l0.1,0.1l0.2,0l0.1-0.1v0.2c-0.1,0.1-0.2,0.2-0.3,0.3c-0.1,0.1-0.2,0.1-0.3,0.1c-0.3,0-0.4-0.2-0.4-0.5c-0.3,0.3-0.7,0.5-1,0.5
	c-0.2,0-0.4-0.1-0.5-0.2c-0.1-0.1-0.2-0.3-0.2-0.5c0-0.3,0.1-0.6,0.4-0.8C41,147.8,41.4,147.6,41.9,147.4z M41.9,147.6
	c-0.4,0.2-0.7,0.3-0.8,0.5c-0.1,0.1-0.2,0.3-0.2,0.5c0,0.2,0,0.3,0.1,0.4c0.1,0.1,0.2,0.1,0.3,0.1c0.1,0,0.2,0,0.3-0.1
	c0.1,0,0.2-0.1,0.2-0.2l0.1-0.1c0,0,0-0.1,0-0.2V147.6z"/>
<path d="M43.1,149.4v-0.1c0.1,0,0.2,0,0.3-0.1c0.1-0.1,0.1-0.2,0.1-0.4v-3.2c0-0.2,0-0.3-0.1-0.3c0,0-0.1-0.1-0.2-0.1l-0.2,0v-0.1
	c0.4-0.1,0.7-0.2,1-0.3l0,0v4c0,0.2,0,0.3,0.1,0.4s0.2,0.1,0.4,0.1v0.1H43.1z"/>
<path d="M45,149.4v-0.1c0.1,0,0.2,0,0.3-0.1c0.1-0.1,0.1-0.2,0.1-0.4v-3.2c0-0.2,0-0.3-0.1-0.3c0,0-0.1-0.1-0.2-0.1l-0.2,0v-0.1
	c0.4-0.1,0.7-0.2,1-0.3l0,0v4c0,0.2,0,0.3,0.1,0.4c0.1,0.1,0.2,0.1,0.4,0.1v0.1H45z"/>
<path d="M49.3,145.4L49.3,145.4l0,0.1v0.8H50v0.2h-0.7v1.9c0,0.4,0.1,0.6,0.3,0.6l0.2-0.1l0.2-0.2l0.1,0.1c-0.1,0.1-0.2,0.2-0.3,0.4
	c-0.1,0.1-0.3,0.2-0.5,0.2c-0.4,0-0.6-0.3-0.6-0.9v-2h-0.3l-0.1,0l0.1-0.1c0.2-0.1,0.3-0.3,0.5-0.4
	C49.1,145.8,49.2,145.6,49.3,145.4z"/>
<path d="M54.8,146.4l-0.2,0.1l-0.1,0.2l-0.9,2.4c0,0.1-0.1,0.2-0.1,0.2l-0.1,0.1l-0.1-0.1c0-0.1-0.1-0.1-0.1-0.3l-0.6-1.5l-0.7,1.6
	c0,0.1-0.1,0.2-0.1,0.2l-0.1,0.1l-0.1-0.1l-0.1-0.2l-0.9-2.3c-0.1-0.2-0.2-0.4-0.2-0.4l-0.2-0.1v-0.1h1.2v0.1c-0.1,0-0.2,0-0.2,0.1
	l-0.1,0.2c0,0.1,0,0.1,0.1,0.3c0,0.1,0.1,0.3,0.2,0.5l0.5,1.2l0.6-1.3l-0.1-0.4c-0.1-0.2-0.1-0.3-0.2-0.4c-0.1-0.1-0.2-0.1-0.3-0.1
	v-0.1h1.4v0.1c-0.3,0-0.4,0.1-0.4,0.2l0,0.1c0,0.1,0.1,0.2,0.1,0.4l0.5,1.4l0.6-1.5l0.1-0.2l0-0.2c0-0.1-0.1-0.2-0.3-0.2v-0.1
	L54.8,146.4L54.8,146.4z"/>
<path d="M55.3,149.4v-0.1c0.2,0,0.3,0,0.4-0.1c0.1-0.1,0.1-0.2,0.1-0.5v-1.6c0-0.1,0-0.2-0.1-0.3l-0.1-0.1l-0.1,0l-0.1,0v-0.1
	c0.3-0.1,0.7-0.2,1-0.4l0,0v2.4c0,0.2,0,0.4,0.1,0.5c0.1,0.1,0.2,0.1,0.4,0.1v0.1H55.3z M55.6,145.1c0-0.1,0-0.2,0.1-0.2
	c0.1-0.1,0.1-0.1,0.2-0.1c0.1,0,0.2,0,0.2,0.1l0.1,0.2c0,0.1,0,0.2-0.1,0.3c-0.1,0.1-0.1,0.1-0.2,0.1c-0.1,0-0.2,0-0.2-0.1
	C55.7,145.3,55.6,145.2,55.6,145.1z"/>
<path d="M56.9,149.4v-0.1c0.2,0,0.3-0.1,0.4-0.1c0.1-0.1,0.1-0.2,0.1-0.4v-1.7c0-0.3-0.1-0.4-0.2-0.4l-0.2,0v-0.1
	c0.3-0.1,0.7-0.2,1-0.4l0,0v0.6c0.3-0.4,0.5-0.6,0.8-0.6c0.1,0,0.2,0,0.3,0.1c0.1,0.1,0.1,0.2,0.1,0.3c0,0.1,0,0.2-0.1,0.2l-0.2,0.1
	c-0.1,0-0.2,0-0.2-0.1l-0.2-0.1c-0.1,0-0.2,0.1-0.3,0.2c-0.1,0.1-0.2,0.2-0.2,0.4v1.5c0,0.2,0,0.3,0.1,0.4c0.1,0.1,0.2,0.1,0.5,0.1
	v0.1H56.9z"/>
<path d="M59.3,149.4v-0.1c0.1,0,0.2,0,0.3-0.1c0.1-0.1,0.1-0.2,0.1-0.4v-3.2c0-0.2,0-0.3-0.1-0.3c0,0-0.1-0.1-0.2-0.1l-0.2,0v-0.1
	c0.4-0.1,0.7-0.2,1-0.3l0,0v4c0,0.2,0,0.3,0.1,0.4c0.1,0.1,0.2,0.1,0.4,0.1v0.1H59.3z"/>
<path d="M64.2,146.8c-0.2-0.4-0.2-0.8-0.2-1c0-0.3,0.1-0.5,0.3-0.7c0.2-0.2,0.4-0.3,0.7-0.3c0.3,0,0.5,0.1,0.7,0.2
	c0.2,0.1,0.3,0.3,0.3,0.6c0,0.3-0.1,0.5-0.3,0.7c-0.2,0.2-0.4,0.4-0.8,0.5c0.3,0.5,0.6,1,0.9,1.4c0.4-0.5,0.6-1,0.6-1.2
	c0-0.1,0-0.2-0.1-0.2c-0.1-0.1-0.2-0.1-0.4-0.1v-0.1h1.5v0.1c-0.2,0-0.4,0.1-0.5,0.2c-0.1,0.1-0.2,0.3-0.3,0.5
	c-0.2,0.4-0.4,0.7-0.7,1c0.1,0.1,0.2,0.2,0.4,0.4c0.2,0.2,0.4,0.2,0.6,0.2c0.1,0,0.3,0,0.4-0.1c0.1-0.1,0.2-0.2,0.3-0.3l0.1,0.1
	c-0.1,0.2-0.2,0.4-0.4,0.5c-0.2,0.2-0.4,0.2-0.6,0.2c-0.4,0-0.8-0.2-1.2-0.6c-0.3,0.2-0.5,0.4-0.7,0.5c-0.2,0.1-0.5,0.1-0.8,0.1
	c-0.3,0-0.6-0.1-0.8-0.3c-0.2-0.2-0.3-0.4-0.3-0.8c0-0.5,0.3-1,0.9-1.4L64.2,146.8z M64.3,147.1c-0.3,0.2-0.5,0.4-0.6,0.6
	c-0.1,0.2-0.2,0.3-0.2,0.5c0,0.3,0.1,0.5,0.3,0.7s0.4,0.3,0.6,0.3c0.3,0,0.6-0.1,0.9-0.4C65,148.3,64.7,147.8,64.3,147.1z
	 M64.8,146.6c0.5-0.3,0.8-0.6,0.8-1c0-0.2-0.1-0.3-0.2-0.4c-0.1-0.1-0.2-0.2-0.4-0.2c-0.4,0-0.5,0.2-0.5,0.6
	C64.5,145.9,64.6,146.2,64.8,146.6z"/>
<path d="M72.2,148.3L72.2,148.3c0,0.3-0.2,0.6-0.4,0.8c-0.2,0.2-0.5,0.3-0.8,0.3c-0.4,0-0.7-0.1-0.9-0.4c-0.2-0.3-0.4-0.6-0.4-1.1
	c0-0.5,0.1-0.9,0.4-1.2c0.3-0.3,0.6-0.5,1.1-0.5c0.3,0,0.5,0.1,0.7,0.2c0.2,0.1,0.3,0.3,0.3,0.5c0,0.1,0,0.2-0.1,0.2l-0.2,0.1
	c-0.1,0-0.2-0.1-0.3-0.2c-0.1-0.1-0.1-0.2-0.1-0.3l-0.1-0.2c0-0.1-0.2-0.1-0.3-0.1c-0.2,0-0.4,0.1-0.6,0.3c-0.2,0.2-0.3,0.5-0.3,0.9
	c0,0.4,0.1,0.7,0.3,0.9c0.2,0.2,0.4,0.4,0.7,0.4c0.2,0,0.4-0.1,0.5-0.2C71.9,148.7,72.1,148.6,72.2,148.3z"/>
<path d="M72.7,149.4v-0.1c0.1,0,0.2,0,0.3-0.1c0.1-0.1,0.1-0.2,0.1-0.4v-3.2c0-0.2,0-0.3-0.1-0.3c0,0-0.1-0.1-0.2-0.1l-0.2,0v-0.1
	c0.4-0.1,0.7-0.2,1-0.3l0,0v4c0,0.2,0,0.3,0.1,0.4c0.1,0.1,0.2,0.1,0.4,0.1v0.1H72.7z"/>
<path d="M76.3,147.4V147c0-0.4-0.2-0.5-0.5-0.5c-0.1,0-0.2,0-0.3,0.1c-0.1,0.1-0.1,0.1-0.1,0.2l0,0.1l0,0.1l-0.1,0.2l-0.2,0.1
	l-0.2-0.1l-0.1-0.2c0-0.2,0.1-0.3,0.3-0.5c0.2-0.2,0.5-0.2,0.8-0.2c0.4,0,0.6,0.1,0.8,0.2c0.2,0.2,0.2,0.4,0.2,0.8v1.4
	c0,0.1,0,0.2,0,0.3L77,149l0.2,0l0.1-0.1v0.2c-0.1,0.1-0.2,0.2-0.3,0.3c-0.1,0.1-0.2,0.1-0.3,0.1c-0.3,0-0.4-0.2-0.4-0.5
	c-0.3,0.3-0.7,0.5-1,0.5c-0.2,0-0.4-0.1-0.5-0.2c-0.1-0.1-0.2-0.3-0.2-0.5c0-0.3,0.1-0.6,0.4-0.8C75.4,147.8,75.8,147.6,76.3,147.4z
	 M76.3,147.6c-0.4,0.2-0.7,0.3-0.8,0.5c-0.1,0.1-0.2,0.3-0.2,0.5c0,0.2,0,0.3,0.1,0.4c0.1,0.1,0.2,0.1,0.3,0.1c0.1,0,0.2,0,0.3-0.1
	c0.1,0,0.2-0.1,0.2-0.2l0.1-0.1c0,0,0-0.1,0-0.2V147.6z"/>
<path d="M78.4,146.8c0.3-0.3,0.6-0.5,1-0.5c0.3,0,0.6,0.1,0.8,0.4c0.2,0.3,0.3,0.6,0.3,1.1c0,0.5-0.1,0.9-0.4,1.2
	c-0.3,0.3-0.6,0.5-1,0.5c-0.3,0-0.5-0.1-0.7-0.3v1.1c0,0.2,0,0.4,0.1,0.4c0.1,0.1,0.2,0.1,0.5,0.1v0.1h-1.6v-0.1
	c0.2,0,0.3-0.1,0.4-0.1c0.1-0.1,0.1-0.2,0.1-0.3v-3.2c0-0.2,0-0.3-0.1-0.3l-0.2-0.1l-0.2,0v-0.1c0.2-0.1,0.6-0.2,1-0.4l0,0V146.8z
	 M78.4,148.8c0,0.1,0.1,0.2,0.2,0.3c0.1,0.1,0.3,0.2,0.5,0.2c0.2,0,0.4-0.1,0.6-0.3c0.2-0.2,0.2-0.5,0.2-1c0-0.3-0.1-0.6-0.2-0.9
	c-0.1-0.2-0.4-0.4-0.6-0.4c-0.1,0-0.3,0-0.4,0.1c-0.1,0.1-0.2,0.2-0.2,0.3V148.8z"/>
<path d="M82.6,149.4v-0.1c0.2,0,0.3,0,0.4-0.1c0.1-0.1,0.1-0.2,0.1-0.5v-1.6c0-0.1,0-0.2-0.1-0.3l-0.1-0.1l-0.1,0l-0.1,0v-0.1
	c0.3-0.1,0.7-0.2,1-0.4l0,0v2.4c0,0.2,0,0.4,0.1,0.5c0.1,0.1,0.2,0.1,0.4,0.1v0.1H82.6z M83,145.1c0-0.1,0-0.2,0.1-0.2
	c0.1-0.1,0.1-0.1,0.2-0.1c0.1,0,0.2,0,0.2,0.1l0.1,0.2c0,0.1,0,0.2-0.1,0.3c-0.1,0.1-0.2,0.1-0.2,0.1c-0.1,0-0.2,0-0.2-0.1
	C83,145.3,83,145.2,83,145.1z"/>
<path d="M84.3,149.3c0.2,0,0.3,0,0.3-0.1c0.1-0.1,0.1-0.2,0.1-0.4v-1.6c0-0.2,0-0.3-0.1-0.4l-0.2-0.1l-0.2,0v-0.1
	c0.5-0.2,0.8-0.3,1-0.4l0,0v0.5c0.2-0.2,0.4-0.3,0.5-0.4c0.1-0.1,0.3-0.1,0.4-0.1c0.2,0,0.4,0.1,0.6,0.3c0.1,0.2,0.2,0.4,0.2,0.7
	v1.5c0,0.2,0,0.3,0.1,0.4c0.1,0.1,0.2,0.1,0.4,0.1v0.1h-1.5v-0.1c0.1,0,0.2,0,0.3-0.1c0.1-0.1,0.1-0.2,0.1-0.5v-1.3
	c0-0.3,0-0.5-0.1-0.6c-0.1-0.1-0.2-0.2-0.4-0.2c-0.1,0-0.2,0-0.3,0.1c-0.1,0.1-0.2,0.2-0.4,0.3v1.9c0,0.2,0.2,0.4,0.5,0.4v0.1h-1.5
	V149.3z"/>
<path d="M90.3,145.4L90.3,145.4l0,0.1v0.8H91v0.2h-0.7v1.9c0,0.4,0.1,0.6,0.3,0.6l0.2-0.1l0.2-0.2l0.1,0.1c-0.1,0.1-0.2,0.2-0.3,0.4
	c-0.1,0.1-0.3,0.2-0.5,0.2c-0.4,0-0.6-0.3-0.6-0.9v-2h-0.3l-0.1,0l0.1-0.1c0.2-0.1,0.3-0.3,0.5-0.4C90,145.8,90.1,145.6,90.3,145.4z
	"/>
<path d="M91.2,149.3c0.2,0,0.3-0.1,0.4-0.1c0.1-0.1,0.1-0.2,0.1-0.4v-3.2c0-0.2,0-0.2-0.1-0.3c-0.1,0-0.1,0-0.2,0l-0.1,0v-0.1
	c0.4-0.1,0.8-0.2,1-0.3l0,0v2.1c0.3-0.4,0.6-0.6,1-0.6c0.5,0,0.8,0.4,0.8,1.1v1.4c0,0.2,0,0.3,0.1,0.4c0.1,0.1,0.2,0.1,0.4,0.1v0.1
	h-1.5v-0.1c0.2,0,0.3-0.1,0.4-0.1c0.1-0.1,0.1-0.2,0.1-0.4v-1.3c0-0.5-0.2-0.7-0.5-0.7c-0.2,0-0.4,0.1-0.7,0.4v1.6
	c0,0.3,0,0.4,0.1,0.5c0.1,0.1,0.2,0.1,0.4,0.1v0.1h-1.5V149.3z"/>
<path d="M95.1,147.5c0,0.4,0.1,0.8,0.3,1c0.2,0.3,0.4,0.4,0.8,0.4c0.4,0,0.8-0.2,1-0.7l0.1,0c-0.1,0.3-0.3,0.5-0.5,0.8
	c-0.3,0.2-0.5,0.3-0.9,0.3c-0.4,0-0.7-0.1-0.9-0.4c-0.2-0.3-0.3-0.6-0.3-1.1c0-0.5,0.1-0.9,0.4-1.2c0.3-0.3,0.6-0.4,1-0.4
	c0.3,0,0.6,0.1,0.8,0.3c0.2,0.2,0.3,0.5,0.4,0.9H95.1z M95.1,147.3h1.4c-0.1-0.5-0.3-0.8-0.6-0.8c-0.2,0-0.4,0.1-0.5,0.2
	C95.2,146.9,95.2,147.1,95.1,147.3z"/>
<path d="M101.8,148.3L101.8,148.3c0,0.3-0.2,0.6-0.4,0.8c-0.2,0.2-0.5,0.3-0.8,0.3c-0.4,0-0.7-0.1-0.9-0.4c-0.2-0.3-0.4-0.6-0.4-1.1
	c0-0.5,0.1-0.9,0.4-1.2c0.3-0.3,0.6-0.5,1.1-0.5c0.3,0,0.5,0.1,0.7,0.2c0.2,0.1,0.3,0.3,0.3,0.5c0,0.1,0,0.2-0.1,0.2l-0.2,0.1
	c-0.1,0-0.2-0.1-0.3-0.2c-0.1-0.1-0.1-0.2-0.1-0.3l-0.1-0.2c0-0.1-0.2-0.1-0.3-0.1c-0.2,0-0.4,0.1-0.6,0.3c-0.2,0.2-0.3,0.5-0.3,0.9
	c0,0.4,0.1,0.7,0.3,0.9c0.2,0.2,0.4,0.4,0.7,0.4c0.2,0,0.4-0.1,0.5-0.2C101.5,148.7,101.7,148.6,101.8,148.3z"/>
<path d="M102.7,147.5c0,0.4,0.1,0.8,0.3,1c0.2,0.3,0.4,0.4,0.8,0.4c0.4,0,0.8-0.2,1-0.7l0.1,0c-0.1,0.3-0.3,0.5-0.5,0.8
	c-0.3,0.2-0.5,0.3-0.9,0.3c-0.4,0-0.7-0.1-0.9-0.4c-0.2-0.3-0.3-0.6-0.3-1.1c0-0.5,0.1-0.9,0.4-1.2c0.3-0.3,0.6-0.4,1-0.4
	c0.3,0,0.6,0.1,0.8,0.3c0.2,0.2,0.3,0.5,0.4,0.9H102.7z M102.7,147.3h1.4c-0.1-0.5-0.3-0.8-0.6-0.8c-0.2,0-0.4,0.1-0.5,0.2
	C102.9,146.9,102.8,147.1,102.7,147.3z"/>
<path d="M105.1,149.3c0.2,0,0.3,0,0.3-0.1c0.1-0.1,0.1-0.2,0.1-0.4v-1.6c0-0.2,0-0.3-0.1-0.4l-0.2-0.1l-0.2,0v-0.1
	c0.5-0.2,0.8-0.3,1-0.4l0,0v0.5c0.2-0.2,0.4-0.3,0.5-0.4c0.1-0.1,0.3-0.1,0.4-0.1c0.2,0,0.4,0.1,0.6,0.3c0.1,0.2,0.2,0.4,0.2,0.7
	v1.5c0,0.2,0,0.3,0.1,0.4c0.1,0.1,0.2,0.1,0.4,0.1v0.1h-1.5v-0.1c0.1,0,0.2,0,0.3-0.1c0.1-0.1,0.1-0.2,0.1-0.5v-1.3
	c0-0.3,0-0.5-0.1-0.6c-0.1-0.1-0.2-0.2-0.4-0.2c-0.1,0-0.2,0-0.3,0.1c-0.1,0.1-0.2,0.2-0.4,0.3v1.9c0,0.2,0.2,0.4,0.5,0.4v0.1h-1.5
	V149.3z"/>
<path d="M109.4,145.4L109.4,145.4l0,0.1v0.8h0.7v0.2h-0.7v1.9c0,0.4,0.1,0.6,0.3,0.6l0.2-0.1l0.2-0.2l0.1,0.1
	c-0.1,0.1-0.2,0.2-0.3,0.4c-0.1,0.1-0.3,0.2-0.5,0.2c-0.4,0-0.6-0.3-0.6-0.9v-2h-0.3l-0.1,0l0.1-0.1c0.2-0.1,0.3-0.3,0.5-0.4
	C109.2,145.8,109.3,145.6,109.4,145.4z"/>
<path d="M110.3,149.4v-0.1c0.2,0,0.3-0.1,0.4-0.1c0.1-0.1,0.1-0.2,0.1-0.4v-1.7c0-0.3-0.1-0.4-0.2-0.4l-0.2,0v-0.1
	c0.3-0.1,0.7-0.2,1-0.4l0,0v0.6c0.3-0.4,0.5-0.6,0.8-0.6c0.1,0,0.2,0,0.3,0.1c0.1,0.1,0.1,0.2,0.1,0.3c0,0.1,0,0.2-0.1,0.2l-0.2,0.1
	c-0.1,0-0.2,0-0.2-0.1l-0.2-0.1c-0.1,0-0.2,0.1-0.3,0.2c-0.1,0.1-0.2,0.2-0.2,0.4v1.5c0,0.2,0,0.3,0.1,0.4c0.1,0.1,0.2,0.1,0.5,0.1
	v0.1H110.3z"/>
<path d="M113.1,147.5c0,0.4,0.1,0.8,0.3,1c0.2,0.3,0.4,0.4,0.8,0.4c0.4,0,0.8-0.2,1-0.7l0.1,0c-0.1,0.3-0.3,0.5-0.5,0.8
	c-0.3,0.2-0.5,0.3-0.9,0.3c-0.4,0-0.7-0.1-0.9-0.4c-0.2-0.3-0.3-0.6-0.3-1.1c0-0.5,0.1-0.9,0.4-1.2c0.3-0.3,0.6-0.4,1-0.4
	c0.3,0,0.6,0.1,0.8,0.3c0.2,0.2,0.3,0.5,0.4,0.9H113.1z M113.2,147.3h1.4c-0.1-0.5-0.3-0.8-0.6-0.8c-0.2,0-0.4,0.1-0.5,0.2
	C113.3,146.9,113.2,147.1,113.2,147.3z"/>
<path d="M115.7,145l0.1-0.1c1.1,0.7,1.7,1.7,1.7,2.9c0,1.2-0.6,2.2-1.7,2.8l-0.1-0.1c0.5-0.4,0.8-0.8,0.9-1.2
	c0.2-0.4,0.2-0.9,0.2-1.5c0-0.8-0.1-1.3-0.3-1.8C116.4,145.6,116.1,145.2,115.7,145z"/>
<path d="M219.6,146c-0.2,0.4-0.3,1-0.3,1.8c0,0.6,0.1,1.1,0.2,1.5c0.2,0.4,0.5,0.8,0.9,1.2l-0.1,0.1c-1.1-0.7-1.7-1.6-1.7-2.8
	c0-1.2,0.6-2.1,1.7-2.9l0.1,0.1C220.1,145.2,219.8,145.6,219.6,146z"/>
<path d="M222.6,147.4V147c0-0.4-0.2-0.5-0.5-0.5c-0.1,0-0.2,0-0.3,0.1c-0.1,0.1-0.1,0.1-0.1,0.2l0,0.1l0,0.1l-0.1,0.2l-0.2,0.1
	l-0.2-0.1l-0.1-0.2c0-0.2,0.1-0.3,0.3-0.5c0.2-0.2,0.5-0.2,0.8-0.2c0.4,0,0.6,0.1,0.8,0.2c0.2,0.2,0.2,0.4,0.2,0.8v1.4
	c0,0.1,0,0.2,0,0.3l0.1,0.1l0.2,0l0.1-0.1v0.2c-0.1,0.1-0.2,0.2-0.3,0.3c-0.1,0.1-0.2,0.1-0.3,0.1c-0.3,0-0.4-0.2-0.4-0.5
	c-0.3,0.3-0.7,0.5-1,0.5c-0.2,0-0.4-0.1-0.5-0.2c-0.1-0.1-0.2-0.3-0.2-0.5c0-0.3,0.1-0.6,0.4-0.8
	C221.7,147.8,222.1,147.6,222.6,147.4z M222.6,147.6c-0.4,0.2-0.7,0.3-0.8,0.5c-0.1,0.1-0.2,0.3-0.2,0.5c0,0.2,0,0.3,0.1,0.4
	c0.1,0.1,0.2,0.1,0.3,0.1c0.1,0,0.2,0,0.3-0.1c0.1,0,0.2-0.1,0.2-0.2l0.1-0.1c0,0,0-0.1,0-0.2V147.6z"/>
<path d="M223.9,149.4v-0.1c0.1,0,0.2,0,0.3-0.1c0.1-0.1,0.1-0.2,0.1-0.4v-3.2c0-0.2,0-0.3-0.1-0.3c0,0-0.1-0.1-0.2-0.1l-0.2,0v-0.1
	c0.4-0.1,0.7-0.2,1-0.3l0,0v4c0,0.2,0,0.3,0.1,0.4c0.1,0.1,0.2,0.1,0.4,0.1v0.1H223.9z"/>
<path d="M225.7,149.4v-0.1c0.1,0,0.2,0,0.3-0.1c0.1-0.1,0.1-0.2,0.1-0.4v-3.2c0-0.2,0-0.3-0.1-0.3c0,0-0.1-0.1-0.2-0.1l-0.2,0v-0.1
	c0.4-0.1,0.7-0.2,1-0.3l0,0v4c0,0.2,0,0.3,0.1,0.4s0.2,0.1,0.4,0.1v0.1H225.7z"/>
<path d="M230,145.4L230,145.4l0,0.1v0.8h0.7v0.2h-0.7v1.9c0,0.4,0.1,0.6,0.3,0.6l0.2-0.1l0.2-0.2l0.1,0.1c-0.1,0.1-0.2,0.2-0.3,0.4
	c-0.1,0.1-0.3,0.2-0.5,0.2c-0.4,0-0.6-0.3-0.6-0.9v-2h-0.3l-0.1,0l0.1-0.1c0.2-0.1,0.3-0.3,0.5-0.4
	C229.8,145.8,229.9,145.6,230,145.4z"/>
<path d="M235.6,146.4l-0.2,0.1l-0.1,0.2l-0.9,2.4c0,0.1-0.1,0.2-0.1,0.2l-0.1,0.1l-0.1-0.1c0-0.1-0.1-0.1-0.1-0.3l-0.6-1.5l-0.7,1.6
	c0,0.1-0.1,0.2-0.1,0.2l-0.1,0.1l-0.1-0.1l-0.1-0.2l-0.9-2.3c-0.1-0.2-0.2-0.4-0.2-0.4l-0.2-0.1v-0.1h1.2v0.1c-0.1,0-0.2,0-0.2,0.1
	l-0.1,0.2c0,0.1,0,0.1,0.1,0.3c0,0.1,0.1,0.3,0.2,0.5l0.5,1.2l0.6-1.3l-0.1-0.4c-0.1-0.2-0.1-0.3-0.2-0.4c-0.1-0.1-0.2-0.1-0.3-0.1
	v-0.1h1.4v0.1c-0.3,0-0.4,0.1-0.4,0.2l0,0.1c0,0.1,0.1,0.2,0.1,0.4l0.5,1.4l0.6-1.5l0.1-0.2l0-0.2c0-0.1-0.1-0.2-0.3-0.2v-0.1
	L235.6,146.4L235.6,146.4z"/>
<path d="M236,149.4v-0.1c0.2,0,0.3,0,0.4-0.1c0.1-0.1,0.1-0.2,0.1-0.5v-1.6c0-0.1,0-0.2-0.1-0.3l-0.1-0.1l-0.1,0l-0.1,0v-0.1
	c0.3-0.1,0.7-0.2,1-0.4l0,0v2.4c0,0.2,0,0.4,0.1,0.5c0.1,0.1,0.2,0.1,0.4,0.1v0.1H236z M236.3,145.1c0-0.1,0-0.2,0.1-0.2
	c0.1-0.1,0.1-0.1,0.2-0.1c0.1,0,0.2,0,0.2,0.1l0.1,0.2c0,0.1,0,0.2-0.1,0.3c-0.1,0.1-0.2,0.1-0.2,0.1c-0.1,0-0.2,0-0.2-0.1
	C236.4,145.3,236.3,145.2,236.3,145.1z"/>
<path d="M237.7,149.4v-0.1c0.2,0,0.3-0.1,0.4-0.1c0.1-0.1,0.1-0.2,0.1-0.4v-1.7c0-0.3-0.1-0.4-0.2-0.4l-0.2,0v-0.1
	c0.3-0.1,0.7-0.2,1-0.4l0,0v0.6c0.3-0.4,0.5-0.6,0.8-0.6c0.1,0,0.2,0,0.3,0.1c0.1,0.1,0.1,0.2,0.1,0.3c0,0.1,0,0.2-0.1,0.2l-0.2,0.1
	c-0.1,0-0.2,0-0.2-0.1l-0.2-0.1c-0.1,0-0.2,0.1-0.3,0.2c-0.1,0.1-0.2,0.2-0.2,0.4v1.5c0,0.2,0,0.3,0.1,0.4c0.1,0.1,0.2,0.1,0.5,0.1
	v0.1H237.7z"/>
<path d="M240,149.4v-0.1c0.1,0,0.2,0,0.3-0.1c0.1-0.1,0.1-0.2,0.1-0.4v-3.2c0-0.2,0-0.3-0.1-0.3c0,0-0.1-0.1-0.2-0.1l-0.2,0v-0.1
	c0.4-0.1,0.7-0.2,1-0.3l0,0v4c0,0.2,0,0.3,0.1,0.4c0.1,0.1,0.2,0.1,0.4,0.1v0.1H240z"/>
<path d="M244.9,146.8c-0.2-0.4-0.2-0.8-0.2-1c0-0.3,0.1-0.5,0.3-0.7c0.2-0.2,0.4-0.3,0.7-0.3c0.3,0,0.5,0.1,0.7,0.2
	c0.2,0.1,0.3,0.3,0.3,0.6c0,0.3-0.1,0.5-0.3,0.7c-0.2,0.2-0.4,0.4-0.8,0.5c0.3,0.5,0.6,1,0.9,1.4c0.4-0.5,0.6-1,0.6-1.2
	c0-0.1,0-0.2-0.1-0.2c-0.1-0.1-0.2-0.1-0.4-0.1v-0.1h1.5v0.1c-0.2,0-0.4,0.1-0.5,0.2c-0.1,0.1-0.2,0.3-0.3,0.5
	c-0.2,0.4-0.4,0.7-0.7,1c0.1,0.1,0.2,0.2,0.4,0.4c0.2,0.2,0.4,0.2,0.6,0.2c0.1,0,0.3,0,0.4-0.1c0.1-0.1,0.2-0.2,0.3-0.3l0.1,0.1
	c-0.1,0.2-0.2,0.4-0.4,0.5c-0.2,0.2-0.4,0.2-0.6,0.2c-0.4,0-0.8-0.2-1.2-0.6c-0.3,0.2-0.5,0.4-0.7,0.5c-0.2,0.1-0.5,0.1-0.8,0.1
	c-0.3,0-0.6-0.1-0.8-0.3c-0.2-0.2-0.3-0.4-0.3-0.8c0-0.5,0.3-1,0.9-1.4L244.9,146.8z M245.1,147.1c-0.3,0.2-0.5,0.4-0.6,0.6
	c-0.1,0.2-0.2,0.3-0.2,0.5c0,0.3,0.1,0.5,0.3,0.7c0.2,0.2,0.4,0.3,0.6,0.3c0.3,0,0.6-0.1,0.9-0.4
	C245.8,148.3,245.4,147.8,245.1,147.1z M245.5,146.6c0.5-0.3,0.8-0.6,0.8-1c0-0.2-0.1-0.3-0.2-0.4c-0.1-0.1-0.2-0.2-0.4-0.2
	c-0.4,0-0.5,0.2-0.5,0.6C245.2,145.9,245.3,146.2,245.5,146.6z"/>
<path d="M252.9,148.3L252.9,148.3c0,0.3-0.2,0.6-0.4,0.8c-0.2,0.2-0.5,0.3-0.8,0.3c-0.4,0-0.7-0.1-0.9-0.4c-0.2-0.3-0.4-0.6-0.4-1.1
	c0-0.5,0.1-0.9,0.4-1.2c0.3-0.3,0.6-0.5,1.1-0.5c0.3,0,0.5,0.1,0.7,0.2c0.2,0.1,0.3,0.3,0.3,0.5c0,0.1,0,0.2-0.1,0.2l-0.2,0.1
	c-0.1,0-0.2-0.1-0.3-0.2c-0.1-0.1-0.1-0.2-0.1-0.3l-0.1-0.2c0-0.1-0.2-0.1-0.3-0.1c-0.2,0-0.4,0.1-0.6,0.3c-0.2,0.2-0.3,0.5-0.3,0.9
	c0,0.4,0.1,0.7,0.3,0.9c0.2,0.2,0.4,0.4,0.7,0.4c0.2,0,0.4-0.1,0.5-0.2C252.7,148.7,252.8,148.6,252.9,148.3z"/>
<path d="M253.4,149.4v-0.1c0.1,0,0.2,0,0.3-0.1c0.1-0.1,0.1-0.2,0.1-0.4v-3.2c0-0.2,0-0.3-0.1-0.3c0,0-0.1-0.1-0.2-0.1l-0.2,0v-0.1
	c0.4-0.1,0.7-0.2,1-0.3l0,0v4c0,0.2,0,0.3,0.1,0.4c0.1,0.1,0.2,0.1,0.4,0.1v0.1H253.4z"/>
<path d="M257,147.4V147c0-0.4-0.2-0.5-0.5-0.5c-0.1,0-0.2,0-0.3,0.1c-0.1,0.1-0.1,0.1-0.1,0.2l0,0.1l0,0.1l-0.1,0.2l-0.2,0.1
	l-0.2-0.1l-0.1-0.2c0-0.2,0.1-0.3,0.3-0.5c0.2-0.2,0.5-0.2,0.8-0.2c0.4,0,0.6,0.1,0.8,0.2c0.2,0.2,0.2,0.4,0.2,0.8v1.4
	c0,0.1,0,0.2,0,0.3l0.1,0.1l0.2,0l0.1-0.1v0.2c-0.1,0.1-0.2,0.2-0.3,0.3c-0.1,0.1-0.2,0.1-0.3,0.1c-0.3,0-0.4-0.2-0.4-0.5
	c-0.3,0.3-0.7,0.5-1,0.5c-0.2,0-0.4-0.1-0.5-0.2c-0.1-0.1-0.2-0.3-0.2-0.5c0-0.3,0.1-0.6,0.4-0.8C256.1,147.8,256.5,147.6,257,147.4
	z M257,147.6c-0.4,0.2-0.7,0.3-0.8,0.5c-0.1,0.1-0.2,0.3-0.2,0.5c0,0.2,0,0.3,0.1,0.4c0.1,0.1,0.2,0.1,0.3,0.1c0.1,0,0.2,0,0.3-0.1
	c0.1,0,0.2-0.1,0.2-0.2l0.1-0.1c0,0,0-0.1,0-0.2V147.6z"/>
<path d="M259.1,146.8c0.3-0.3,0.6-0.5,1-0.5c0.3,0,0.6,0.1,0.8,0.4c0.2,0.3,0.3,0.6,0.3,1.1c0,0.5-0.1,0.9-0.4,1.2
	c-0.3,0.3-0.6,0.5-1,0.5c-0.3,0-0.5-0.1-0.7-0.3v1.1c0,0.2,0,0.4,0.1,0.4c0.1,0.1,0.2,0.1,0.5,0.1v0.1h-1.6v-0.1
	c0.2,0,0.3-0.1,0.4-0.1c0.1-0.1,0.1-0.2,0.1-0.3v-3.2c0-0.2,0-0.3-0.1-0.3l-0.2-0.1l-0.2,0v-0.1c0.2-0.1,0.6-0.2,1-0.4l0,0V146.8z
	 M259.1,148.8c0,0.1,0.1,0.2,0.2,0.3c0.1,0.1,0.3,0.2,0.5,0.2c0.2,0,0.4-0.1,0.6-0.3c0.2-0.2,0.2-0.5,0.2-1c0-0.3-0.1-0.6-0.2-0.9
	c-0.1-0.2-0.4-0.4-0.6-0.4c-0.1,0-0.3,0-0.4,0.1c-0.1,0.1-0.2,0.2-0.2,0.3V148.8z"/>
<path d="M263.3,149.4v-0.1c0.2,0,0.3,0,0.4-0.1c0.1-0.1,0.1-0.2,0.1-0.5v-1.6c0-0.1,0-0.2-0.1-0.3l-0.1-0.1l-0.1,0l-0.1,0v-0.1
	c0.3-0.1,0.7-0.2,1-0.4l0,0v2.4c0,0.2,0,0.4,0.1,0.5c0.1,0.1,0.2,0.1,0.4,0.1v0.1H263.3z M263.7,145.1c0-0.1,0-0.2,0.1-0.2
	c0.1-0.1,0.1-0.1,0.2-0.1c0.1,0,0.2,0,0.2,0.1l0.1,0.2c0,0.1,0,0.2-0.1,0.3c-0.1,0.1-0.1,0.1-0.2,0.1c-0.1,0-0.2,0-0.2-0.1
	C263.7,145.3,263.7,145.2,263.7,145.1z"/>
<path d="M265,149.3c0.2,0,0.3,0,0.3-0.1c0.1-0.1,0.1-0.2,0.1-0.4v-1.6c0-0.2,0-0.3-0.1-0.4l-0.2-0.1l-0.2,0v-0.1
	c0.5-0.2,0.8-0.3,1-0.4l0,0v0.5c0.2-0.2,0.4-0.3,0.5-0.4c0.1-0.1,0.3-0.1,0.4-0.1c0.2,0,0.4,0.1,0.6,0.3c0.1,0.2,0.2,0.4,0.2,0.7
	v1.5c0,0.2,0,0.3,0.1,0.4c0.1,0.1,0.2,0.1,0.4,0.1v0.1h-1.5v-0.1c0.1,0,0.2,0,0.3-0.1c0.1-0.1,0.1-0.2,0.1-0.5v-1.3
	c0-0.3,0-0.5-0.1-0.6c-0.1-0.1-0.2-0.2-0.4-0.2c-0.1,0-0.2,0-0.3,0.1c-0.1,0.1-0.2,0.2-0.4,0.3v1.9c0,0.2,0.2,0.4,0.5,0.4v0.1H265
	V149.3z"/>
<path d="M271,145.4L271,145.4l0,0.1v0.8h0.7v0.2H271v1.9c0,0.4,0.1,0.6,0.3,0.6l0.2-0.1l0.2-0.2l0.1,0.1c-0.1,0.1-0.2,0.2-0.3,0.4
	c-0.1,0.1-0.3,0.2-0.5,0.2c-0.4,0-0.6-0.3-0.6-0.9v-2h-0.3l-0.1,0l0.1-0.1c0.2-0.1,0.3-0.3,0.5-0.4
	C270.7,145.8,270.8,145.6,271,145.4z"/>
<path d="M271.9,149.3c0.2,0,0.3-0.1,0.4-0.1c0.1-0.1,0.1-0.2,0.1-0.4v-3.2c0-0.2,0-0.2-0.1-0.3c-0.1,0-0.1,0-0.2,0l-0.1,0v-0.1
	c0.4-0.1,0.8-0.2,1-0.3l0,0v2.1c0.3-0.4,0.6-0.6,1-0.6c0.5,0,0.8,0.4,0.8,1.1v1.4c0,0.2,0,0.3,0.1,0.4c0.1,0.1,0.2,0.1,0.4,0.1v0.1
	h-1.5v-0.1c0.2,0,0.3-0.1,0.4-0.1c0.1-0.1,0.1-0.2,0.1-0.4v-1.3c0-0.5-0.2-0.7-0.5-0.7c-0.2,0-0.4,0.1-0.7,0.4v1.6
	c0,0.3,0,0.4,0.1,0.5c0.1,0.1,0.2,0.1,0.4,0.1v0.1h-1.5V149.3z"/>
<path d="M275.8,147.5c0,0.4,0.1,0.8,0.3,1c0.2,0.3,0.4,0.4,0.8,0.4c0.4,0,0.8-0.2,1-0.7l0.1,0c-0.1,0.3-0.3,0.5-0.5,0.8
	c-0.3,0.2-0.5,0.3-0.9,0.3c-0.4,0-0.7-0.1-0.9-0.4c-0.2-0.3-0.3-0.6-0.3-1.1c0-0.5,0.1-0.9,0.4-1.2c0.3-0.3,0.6-0.4,1-0.4
	c0.3,0,0.6,0.1,0.8,0.3c0.2,0.2,0.3,0.5,0.4,0.9H275.8z M275.8,147.3h1.4c-0.1-0.5-0.3-0.8-0.6-0.8c-0.2,0-0.4,0.1-0.5,0.2
	C275.9,146.9,275.9,147.1,275.8,147.3z"/>
<path d="M282.5,148.3L282.5,148.3c0,0.3-0.2,0.6-0.4,0.8c-0.2,0.2-0.5,0.3-0.8,0.3c-0.4,0-0.7-0.1-0.9-0.4c-0.2-0.3-0.4-0.6-0.4-1.1
	c0-0.5,0.1-0.9,0.4-1.2c0.3-0.3,0.6-0.5,1.1-0.5c0.3,0,0.5,0.1,0.7,0.2c0.2,0.1,0.3,0.3,0.3,0.5c0,0.1,0,0.2-0.1,0.2l-0.2,0.1
	c-0.1,0-0.2-0.1-0.3-0.2c-0.1-0.1-0.1-0.2-0.1-0.3l-0.1-0.2c0-0.1-0.2-0.1-0.3-0.1c-0.2,0-0.4,0.1-0.6,0.3c-0.2,0.2-0.3,0.5-0.3,0.9
	c0,0.4,0.1,0.7,0.3,0.9c0.2,0.2,0.4,0.4,0.7,0.4c0.2,0,0.4-0.1,0.5-0.2C282.2,148.7,282.4,148.6,282.5,148.3z"/>
<path d="M283.4,147.5c0,0.4,0.1,0.8,0.3,1c0.2,0.3,0.4,0.4,0.8,0.4c0.4,0,0.8-0.2,1-0.7l0.1,0c-0.1,0.3-0.3,0.5-0.5,0.8
	c-0.3,0.2-0.5,0.3-0.9,0.3c-0.4,0-0.7-0.1-0.9-0.4c-0.2-0.3-0.3-0.6-0.3-1.1c0-0.5,0.1-0.9,0.4-1.2c0.3-0.3,0.6-0.4,1-0.4
	c0.3,0,0.6,0.1,0.8,0.3c0.2,0.2,0.3,0.5,0.4,0.9H283.4z M283.5,147.3h1.4c-0.1-0.5-0.3-0.8-0.6-0.8c-0.2,0-0.4,0.1-0.5,0.2
	C283.6,146.9,283.5,147.1,283.5,147.3z"/>
<path d="M285.9,149.3c0.2,0,0.3,0,0.3-0.1c0.1-0.1,0.1-0.2,0.1-0.4v-1.6c0-0.2,0-0.3-0.1-0.4l-0.2-0.1l-0.2,0v-0.1
	c0.5-0.2,0.8-0.3,1-0.4l0,0v0.5c0.2-0.2,0.4-0.3,0.5-0.4c0.1-0.1,0.3-0.1,0.4-0.1c0.2,0,0.4,0.1,0.6,0.3c0.1,0.2,0.2,0.4,0.2,0.7
	v1.5c0,0.2,0,0.3,0.1,0.4c0.1,0.1,0.2,0.1,0.4,0.1v0.1h-1.5v-0.1c0.1,0,0.2,0,0.3-0.1c0.1-0.1,0.1-0.2,0.1-0.5v-1.3
	c0-0.3,0-0.5-0.1-0.6c-0.1-0.1-0.2-0.2-0.4-0.2c-0.1,0-0.2,0-0.3,0.1c-0.1,0.1-0.2,0.2-0.4,0.3v1.9c0,0.2,0.2,0.4,0.5,0.4v0.1h-1.5
	V149.3z"/>
<path d="M290.1,145.4L290.1,145.4l0,0.1v0.8h0.7v0.2h-0.7v1.9c0,0.4,0.1,0.6,0.3,0.6l0.2-0.1l0.2-0.2l0.1,0.1
	c-0.1,0.1-0.2,0.2-0.3,0.4c-0.1,0.1-0.3,0.2-0.5,0.2c-0.4,0-0.6-0.3-0.6-0.9v-2h-0.3l-0.1,0l0.1-0.1c0.2-0.1,0.3-0.3,0.5-0.4
	C289.9,145.8,290,145.6,290.1,145.4z"/>
<path d="M291,149.4v-0.1c0.2,0,0.3-0.1,0.4-0.1c0.1-0.1,0.1-0.2,0.1-0.4v-1.7c0-0.3-0.1-0.4-0.2-0.4l-0.2,0v-0.1
	c0.3-0.1,0.7-0.2,1-0.4l0,0v0.6c0.3-0.4,0.5-0.6,0.8-0.6c0.1,0,0.2,0,0.3,0.1c0.1,0.1,0.1,0.2,0.1,0.3c0,0.1,0,0.2-0.1,0.2L293,147
	c-0.1,0-0.2,0-0.2-0.1l-0.2-0.1c-0.1,0-0.2,0.1-0.3,0.2c-0.1,0.1-0.2,0.2-0.2,0.4v1.5c0,0.2,0,0.3,0.1,0.4c0.1,0.1,0.2,0.1,0.5,0.1
	v0.1H291z"/>
<path d="M293.9,147.5c0,0.4,0.1,0.8,0.3,1c0.2,0.3,0.4,0.4,0.8,0.4c0.4,0,0.8-0.2,1-0.7l0.1,0c-0.1,0.3-0.3,0.5-0.5,0.8
	c-0.3,0.2-0.5,0.3-0.9,0.3c-0.4,0-0.7-0.1-0.9-0.4c-0.2-0.3-0.3-0.6-0.3-1.1c0-0.5,0.1-0.9,0.4-1.2c0.3-0.3,0.6-0.4,1-0.4
	c0.3,0,0.6,0.1,0.8,0.3c0.2,0.2,0.3,0.5,0.4,0.9H293.9z M293.9,147.3h1.4c-0.1-0.5-0.3-0.8-0.6-0.8c-0.2,0-0.4,0.1-0.5,0.2
	C294,146.9,293.9,147.1,293.9,147.3z"/>
<path d="M296.4,145l0.1-0.1c1.1,0.7,1.7,1.7,1.7,2.9c0,1.2-0.6,2.2-1.7,2.8l-0.1-0.1c0.5-0.4,0.8-0.8,0.9-1.2
	c0.2-0.4,0.2-0.9,0.2-1.5c0-0.8-0.1-1.3-0.3-1.8C297.1,145.6,296.8,145.2,296.4,145z"/>
<path d="M28.5,83c0.7-0.2,1.1-0.6,1.1-1.1c0-0.2-0.1-0.4-0.2-0.5c-0.1-0.1-0.3-0.2-0.5-0.2c-0.4,0-0.8,0.2-1,0.7l-0.1,0
	c0.1-0.3,0.3-0.6,0.5-0.8c0.2-0.2,0.5-0.3,0.8-0.3c0.3,0,0.6,0.1,0.8,0.3c0.2,0.2,0.3,0.4,0.3,0.7c0,0.4-0.2,0.7-0.6,0.9
	c0.6,0.2,0.8,0.6,0.8,1.2c0,0.5-0.2,0.9-0.5,1.1c-0.3,0.3-0.8,0.4-1.3,0.4c-0.2,0-0.4,0-0.5-0.1s-0.2-0.2-0.2-0.3
	c0-0.2,0.1-0.2,0.3-0.2c0.1,0,0.2,0.1,0.4,0.2c0.2,0.1,0.4,0.2,0.5,0.2c0.3,0,0.5-0.1,0.6-0.3c0.2-0.2,0.2-0.4,0.2-0.8
	c0-0.4-0.2-0.7-0.5-0.9c-0.2-0.1-0.3-0.1-0.6-0.1L28.5,83L28.5,83z"/>
<rect x="31.1" y="83.6" width="1.6" height="0.4"/>
<path d="M33.1,83.8l2.1-3h0.3v3h0.7v0.4h-0.7v1.1H35v-1.1h-1.9V83.8z M33.4,83.8H35v-2.3L33.4,83.8z"/>
<path d="M40.4,82.8c-0.1,0.4-0.1,0.9,0,1.3v0.1h-0.6l-0.7,0l-0.2-0.4l-0.2-0.3l0-0.1c0,0,0.1-0.2,0.2-0.4l0.2-0.3L40.4,82.8
	 M41.5,80.6l-0.2,0.1c-0.3,0.3-0.6,0.6-0.8,1.1c0,0.1-0.1,0.3-0.1,0.3l0,0.1h-0.5c-0.3,0-0.5,0-0.5,0c0,0,0.1-0.2,0.3-0.5
	c0.2-0.3,0.3-0.6,0.3-0.6V81c0-0.2-0.1-0.3-0.2-0.3h-0.2c-0.1,0,0,0-0.7,1.4c-0.6,1.1-0.6,1.3-0.7,1.3c0,0.1-0.1,0,0.7,1.4
	c0.6,1.1,0.7,1.3,0.7,1.3c0.1,0.1,0.4,0.1,0.4-0.1l0-0.2c0,0-0.1-0.3-0.3-0.6c-0.2-0.3-0.3-0.5-0.3-0.5s0.2,0,0.5,0h0.5l0,0l0,0.2
	c0.2,0.5,0.5,0.9,0.8,1.3c0.1,0.1,0.2,0.1,0.2,0.1c0.2,0,0.3-0.2,0.3-0.3c0-0.1,0-0.2-0.1-0.2c-0.4-0.4-0.7-0.9-0.8-1.6
	c0-0.2,0-0.4,0-0.7c0-0.3,0-0.5,0-0.7c0.1-0.7,0.4-1.3,0.8-1.6c0.1-0.1,0.1-0.2,0.1-0.2c0-0.2,0-0.3-0.2-0.3H41.5z"/>
<path d="M44.1,82c-0.2,0.4-0.3,1-0.3,1.8c0,0.6,0.1,1.1,0.2,1.5c0.2,0.4,0.5,0.8,0.9,1.2l-0.1,0.1c-1.1-0.7-1.7-1.6-1.7-2.8
	c0-1.2,0.6-2.1,1.7-2.9l0.1,0.1C44.6,81.2,44.3,81.5,44.1,82z"/>
<path d="M46,84.8h1.6c0.2,0,0.3,0,0.4-0.1c0.1-0.1,0.2-0.2,0.3-0.3l0.1,0L48,85.3h-2.6v-0.1l1.2-1.3c0.6-0.6,0.9-1.2,0.9-1.7
	c0-0.3-0.1-0.5-0.2-0.7c-0.2-0.2-0.4-0.3-0.7-0.3c-0.2,0-0.4,0.1-0.6,0.2c-0.2,0.1-0.3,0.4-0.4,0.7l-0.1,0c0.1-0.4,0.2-0.7,0.5-1
	c0.2-0.2,0.6-0.4,1-0.4c0.3,0,0.6,0.1,0.8,0.3S48,81.7,48,82c0,0.5-0.3,1.1-0.9,1.7L46,84.8z"/>
<path d="M48.7,80.9l0.1-0.1c1.1,0.7,1.7,1.7,1.7,2.9c0,1.2-0.6,2.2-1.7,2.8l-0.1-0.1c0.5-0.4,0.8-0.8,0.9-1.2
	c0.2-0.4,0.2-0.9,0.2-1.5c0-0.8-0.1-1.3-0.3-1.8C49.4,81.5,49.1,81.2,48.7,80.9z"/>
<path d="M79.4,125.8c-1.1,1-2.6,1.4-4,1.4c-1,0-2.1-0.2-2.8-0.4c-0.4-0.1-0.7-0.2-0.9-0.3c-0.2-0.1-0.4-0.2-0.4-0.2l-0.3,0.5
	c0.1,0,0.2,0.1,0.5,0.2c0.8,0.3,2.3,0.7,4,0.7c1.5,0,3.1-0.3,4.3-1.5L79.4,125.8z"/>
<path d="M78.8,123.6c0.2,0.1,0.3,0.1,0.3,0.1l0.3-0.5c-0.1,0-0.2-0.1-0.4-0.2L78.8,123.6z M76.1,123c0.5,0.1,1,0.2,1.4,0.2l0.1-0.5
	c-0.4-0.1-0.9-0.2-1.4-0.3L76.1,123z M73.3,123c0.4-0.1,0.9-0.1,1.4-0.2l0-0.6c-0.5,0-1,0.1-1.5,0.2L73.3,123z M71,124.2
	c0.3-0.3,0.7-0.6,1.1-0.8l-0.2-0.5c-0.4,0.2-0.9,0.5-1.2,0.8L71,124.2z"/>
<polygon fill-rule="evenodd" clip-rule="evenodd" points="72.5,126.4 70,125.6 71.8,127.5 "/>
<polygon points="72.5,126.4 72.5,126.3 69.5,125.3 71.9,127.7 72.7,126.3 72.5,126.3 72.5,126.4 72.4,126.3 71.8,127.2 70.6,126 
	72.4,126.6 72.5,126.4 72.4,126.3 "/>
<polygon fill-rule="evenodd" clip-rule="evenodd" points="78.1,123.7 80.6,124.5 78.8,122.6 "/>
<polygon points="78.1,123.7 78.1,123.8 81.1,124.8 78.8,122.4 77.9,123.8 78.1,123.8 78.1,123.7 78.3,123.7 78.8,122.9 80,124.1 
	78.2,123.5 78.1,123.7 78.3,123.7 "/>
<path d="M149.5,120.9c1,1.1,1.4,2.6,1.4,4c0,1-0.2,2.1-0.4,2.8c-0.1,0.4-0.2,0.7-0.3,0.9c-0.1,0.2-0.2,0.4-0.2,0.4l0.5,0.3
	c0-0.1,0.1-0.2,0.2-0.5c0.3-0.8,0.7-2.3,0.7-4c0-1.5-0.3-3.1-1.5-4.3L149.5,120.9z"/>
<path d="M147.4,121.6c0.1-0.2,0.1-0.3,0.1-0.3L147,121c0,0.1-0.1,0.2-0.2,0.4L147.4,121.6z M146.7,124.3c0.1-0.5,0.1-1,0.2-1.4
	l-0.5-0.1c-0.1,0.4-0.2,0.9-0.3,1.4L146.7,124.3z M146.8,127c-0.1-0.4-0.1-0.9-0.2-1.4l-0.6,0c0,0.5,0.1,1,0.2,1.5L146.8,127z
	 M148,129.4c-0.3-0.3-0.6-0.7-0.8-1.1l-0.5,0.2c0.2,0.4,0.5,0.9,0.8,1.2L148,129.4z"/>
<polygon fill-rule="evenodd" clip-rule="evenodd" points="150.2,127.9 149.4,130.3 151.2,128.5 "/>
<polygon points="150.2,127.9 150,127.8 149,130.9 151.5,128.5 150.1,127.6 150,127.8 150.2,127.9 150.1,128 151,128.5 149.7,129.7 
	150.3,127.9 150.2,127.9 150.1,128 "/>
<polygon fill-rule="evenodd" clip-rule="evenodd" points="147.4,122.2 148.2,119.8 146.4,121.5 "/>
<polygon points="147.4,122.2 147.6,122.3 148.6,119.2 146.1,121.6 147.5,122.4 147.6,122.3 147.4,122.2 147.5,122.1 146.6,121.5 
	147.9,120.3 147.3,122.2 147.4,122.2 147.5,122.1 "/>
<path d="M252.3,124.3c1.1-1,2.6-1.4,4-1.4c1,0,2.1,0.2,2.8,0.4c0.4,0.1,0.7,0.2,0.9,0.3c0.2,0.1,0.4,0.2,0.4,0.2l0.3-0.5
	c-0.1,0-0.2-0.1-0.5-0.2c-0.8-0.3-2.3-0.7-4-0.7c-1.5,0-3.1,0.3-4.3,1.5L252.3,124.3z"/>
<path d="M252.9,126.5c-0.2-0.1-0.3-0.1-0.3-0.1l-0.3,0.5c0.1,0,0.2,0.1,0.4,0.2L252.9,126.5z M255.6,127.1c-0.5-0.1-1-0.1-1.4-0.2
	l-0.1,0.5c0.4,0.1,0.9,0.2,1.4,0.3L255.6,127.1z M258.3,127c-0.4,0.1-0.9,0.1-1.4,0.2l0,0.6c0.5,0,1-0.1,1.5-0.2L258.3,127z
	 M260.7,125.8c-0.3,0.3-0.7,0.6-1.1,0.8l0.2,0.5c0.4-0.2,0.9-0.5,1.2-0.8L260.7,125.8z"/>
<polygon fill-rule="evenodd" clip-rule="evenodd" points="259.2,123.7 261.6,124.4 259.8,122.6 "/>
<polygon points="259.2,123.7 259.1,123.8 262.2,124.8 259.8,122.4 258.9,123.7 259.1,123.8 259.2,123.7 259.3,123.7 259.9,122.9 
	261.1,124.1 259.2,123.5 259.2,123.7 259.3,123.7 "/>
<polygon fill-rule="evenodd" clip-rule="evenodd" points="253.5,126.4 251.1,125.6 252.9,127.4 "/>
<polygon points="253.5,126.4 253.6,126.2 250.5,125.3 252.9,127.7 253.8,126.3 253.6,126.2 253.5,126.4 253.4,126.3 252.8,127.2 
	251.6,126 253.5,126.5 253.5,126.4 253.4,126.3 "/>
<path d="M158.9,84.5c0.1,1.3,0.9,1.9,2.5,1.9c1.5,0,2.3-0.5,2.3-1.5c0-0.6-0.5-1.1-1.6-1.3l-2.8-0.7c-0.9-0.2-1.5-0.6-1.9-1.1
	c-0.4-0.5-0.6-1.2-0.6-2c0-1.1,0.4-1.9,1.1-2.6c0.8-0.7,1.8-1,3.3-1c1.3,0,2.4,0.3,3.2,1s1.2,1.6,1.3,2.8h-2.3
	c-0.2-1.2-0.9-1.8-2.3-1.8c-0.6,0-1.1,0.1-1.5,0.4c-0.4,0.2-0.5,0.6-0.5,1c0,0.3,0.1,0.6,0.3,0.8c0.2,0.2,0.5,0.4,0.9,0.5l2.8,0.7
	c1.2,0.3,1.9,0.7,2.4,1.2c0.4,0.5,0.6,1.2,0.6,2c0,1.1-0.4,2-1.2,2.7c-0.8,0.7-1.9,1-3.4,1c-1.4,0-2.5-0.3-3.4-1
	c-0.9-0.7-1.3-1.6-1.3-2.9H158.9z"/>
<polyline points="167.8,88.9 167.8,76.3 167.4,76.3 167.4,88.9 "/>
<polyline fill-rule="evenodd" clip-rule="evenodd" points="168.6,79.2 167.6,75.9 166.6,79.2 168.6,79.2 "/>
<polygon points="168.6,79.2 168.8,79.2 167.6,75.1 166.2,79.5 168.9,79.5 168.8,79.2 168.6,79.2 168.6,79 166.9,79 167.6,76.7 
	168.3,79.3 168.6,79.2 168.6,79 "/>
<path d="M323.1,84.5c0.1,1.3,0.9,1.9,2.5,1.9c1.5,0,2.3-0.5,2.3-1.5c0-0.6-0.5-1.1-1.6-1.3l-2.8-0.7c-0.9-0.2-1.5-0.6-1.9-1.1
	c-0.4-0.5-0.6-1.2-0.6-2c0-1.1,0.4-1.9,1.1-2.6c0.8-0.7,1.9-1,3.3-1c1.3,0,2.4,0.3,3.2,1c0.8,0.6,1.2,1.6,1.3,2.8h-2.3
	c-0.2-1.2-0.9-1.8-2.3-1.8c-0.6,0-1.1,0.1-1.5,0.4c-0.4,0.2-0.5,0.6-0.5,1c0,0.3,0.1,0.6,0.3,0.8c0.2,0.2,0.5,0.4,0.9,0.5l2.8,0.7
	c1.2,0.3,1.9,0.7,2.4,1.2c0.4,0.5,0.6,1.2,0.6,2c0,1.1-0.4,2-1.2,2.7c-0.8,0.7-1.9,1-3.4,1c-1.4,0-2.5-0.3-3.4-1
	c-0.9-0.7-1.3-1.6-1.3-2.9H323.1z"/>
<polyline points="332,88.9 332,76.3 331.6,76.3 331.6,88.9 "/>
<polyline fill-rule="evenodd" clip-rule="evenodd" points="332.8,79.2 331.8,75.9 330.8,79.2 332.8,79.2 "/>
<polygon points="332.8,79.2 333,79.1 331.8,75 330.5,79.4 333.1,79.4 333,79.1 332.8,79.2 332.8,79 331.1,79 331.8,76.7 332.6,79.3 
	332.8,79.2 332.8,79 "/>
</svg>
