<?xml version="1.0" standalone="no"?>
<!DOCTYPE svg PUBLIC "-//W3C//DTD SVG 1.1//EN"
"http://www.w3.org/Graphics/SVG/1.1/DTD/svg11.dtd">
<!-- Creator: fig2dev Version 3.2 Patchlevel 5d -->
<!-- CreationDate: Thu Feb 21 11:17:21 2013 -->
<!-- Magnification: 1.050 -->
<svg	xmlns="http://www.w3.org/2000/svg"
	xmlns:xlink="http://www.w3.org/1999/xlink"
	viewBox="-23 -23 6140 2880">
<g style="stroke-width:.025in; fill:none">
<!-- Text -->
<text xml:space="preserve" x="5433" y="2645" fill="#000000"  font-family="Helvetica" font-style="normal" font-weight="bold" font-size="126" text-anchor="middle">(to 231)</text>
<!-- Text -->
<text xml:space="preserve" x="3921" y="1133" fill="#000000"  font-family="Helvetica" font-style="normal" font-weight="bold" font-size="227" text-anchor="middle">T</text>
<!-- Line -->
<polyline points="4204,1181
4299,992
" style="stroke:#000000;stroke-width:8;
stroke-linejoin:miter; stroke-linecap:round;
"/>
<!-- Text -->
<text xml:space="preserve" x="4204" y="1086" fill="#000000"  font-family="Helvetica" font-style="normal" font-weight="bold" font-size="114" text-anchor="middle">3</text>
<!-- Text -->
<text xml:space="preserve" x="4299" y="1181" fill="#000000"  font-family="Helvetica" font-style="normal" font-weight="bold" font-size="114" text-anchor="middle">4</text>
<!-- Line -->
<polyline points="5007,1228
5007,1101
" style="stroke:#000000;stroke-width:16;
stroke-linejoin:miter; stroke-linecap:butt;
"/>
<!-- Arrowhead on XXXpoint 5007 1228 - 5007 1007-->
<polygon points="5039 1080
5007 1017
4976 1080
5039 1080

" style="stroke:#000000;stroke-width:8;stroke-miterlimit:8;
fill:#000000;"/>
<!-- Text -->
<text xml:space="preserve" x="4866" y="1133" fill="#000000"  font-family="Helvetica" font-style="normal" font-weight="bold" font-size="227" text-anchor="middle">S</text>
<!-- Text -->
<text xml:space="preserve" x="4866" y="803" fill="#000000"  font-family="Helvetica" font-style="normal" font-weight="bold" font-size="114" text-anchor="middle">1</text>
<!-- Line: box -->
<rect x="4488" y="944" width="188" height="188" rx="0" 
style="stroke:#000000;stroke-width:16;
stroke-linejoin:miter; stroke-linecap:butt;
"/>
<!-- Text -->
<text xml:space="preserve" x="4582" y="1086" fill="#000000"  font-family="Helvetica" font-style="normal" font-weight="bold" font-size="114" text-anchor="middle">1</text>
<!-- Circle -->
<circle cx="5196" cy="1039" r="94"
 style="stroke:#000000;stroke-width:16;"/>
<!-- Text -->
<text xml:space="preserve" x="5196" y="1086" fill="#000000"  font-family="Helvetica" font-style="normal" font-weight="bold" font-size="114" text-anchor="middle">1</text>
<!-- Line -->
<polyline points="5055,1039
5102,1039
" style="stroke:#000000;stroke-width:16;
stroke-linejoin:miter; stroke-linecap:round;
"/>
<!-- Line -->
<polyline points="4677,1039
4724,1039
" style="stroke:#000000;stroke-width:16;
stroke-linejoin:miter; stroke-linecap:round;
"/>
<!-- Text -->
<text xml:space="preserve" x="5574" y="1133" fill="#000000"  font-family="Helvetica" font-style="normal" font-weight="bold" font-size="227" text-anchor="middle">S</text>
<!-- Text -->
<text xml:space="preserve" x="5574" y="1322" fill="#000000"  font-family="Helvetica" font-style="normal" font-weight="normal" font-size="126" text-anchor="middle">diag.</text>
<!-- Text -->
<text xml:space="preserve" x="5574" y="803" fill="#000000"  font-family="Helvetica" font-style="normal" font-weight="bold" font-size="114" text-anchor="middle">2 3</text>
<!-- Line -->
<polyline points="5763,1417
5763,1419
5761,1422
5759,1428
5756,1436
5751,1444
5744,1453
5737,1460
5728,1466
5717,1471
5704,1476
5691,1478
5673,1480
5653,1480
5637,1480
5619,1479
5601,1478
5581,1477
5559,1476
5534,1474
5510,1471
5485,1469
5459,1466
5433,1464
5406,1462
5380,1459
5355,1457
5331,1455
5307,1453
5285,1451
5265,1450
5246,1449
5228,1448
5212,1448
5192,1448
5174,1450
5161,1453
5148,1457
5138,1462
5128,1468
5121,1476
5114,1484
5109,1492
5106,1500
5104,1506
5102,1509
5102,1511
" style="stroke:#000000;stroke-width:16;
stroke-linejoin:bevel; stroke-linecap:butt;
"/>
<!-- Line -->
<polyline points="4440,1417
4440,1419
4443,1422
4445,1428
4448,1436
4453,1444
4459,1453
4467,1460
4476,1466
4487,1471
4499,1476
4513,1478
4531,1480
4551,1480
4566,1480
4584,1479
4603,1478
4623,1477
4645,1476
4669,1474
4693,1471
4719,1469
4745,1466
4771,1464
4797,1462
4824,1459
4849,1457
4873,1455
4897,1453
4919,1451
4939,1450
4958,1449
4976,1448
4992,1448
5012,1448
5029,1450
5043,1453
5056,1457
5066,1462
5076,1468
5083,1476
5089,1484
5095,1492
5098,1500
5100,1506
5102,1509
5102,1511
" style="stroke:#000000;stroke-width:16;
stroke-linejoin:bevel; stroke-linecap:butt;
"/>
<!-- Circle -->
<circle cx="1629" cy="1158" r="100"
 style="stroke:#000000;stroke-width:16;"/>
<!-- Circle -->
<circle cx="1771" cy="1016" r="100"
 style="stroke:#000000;stroke-width:16;"/>
<!-- Circle -->
<circle cx="1912" cy="874" r="100"
 style="stroke:#000000;stroke-width:16;"/>
<!-- Line -->
<polyline points="1511,1275
2031,755
" style="stroke:#000000;stroke-width:16;
stroke-linejoin:miter; stroke-linecap:round;
"/>
<!-- Circle -->
<circle cx="2929" cy="1228" r="94"
 style="stroke:#000000;stroke-width:16;"/>
<!-- Circle -->
<circle cx="3307" cy="661" r="94"
 style="stroke:#000000;stroke-width:16;"/>
<!-- Circle -->
<circle cx="3307" cy="1370" r="94"
 style="stroke:#000000;stroke-width:16;"/>
<!-- Line -->
<polyline points="2929,897
2929,944
" style="stroke:#000000;stroke-width:16;
stroke-linejoin:miter; stroke-linecap:round;
"/>
<!-- Line -->
<polyline points="2929,1133
2929,1086
" style="stroke:#000000;stroke-width:16;
stroke-linejoin:miter; stroke-linecap:round;
"/>
<!-- Line: box -->
<rect x="2834" y="708" width="188" height="188" rx="0" 
style="stroke:#000000;stroke-width:16;
stroke-linejoin:miter; stroke-linecap:butt;
"/>
<!-- Line: box -->
<rect x="2456" y="566" width="188" height="188" rx="0" 
style="stroke:#000000;stroke-width:16;
stroke-linejoin:miter; stroke-linecap:butt;
"/>
<!-- Line: box -->
<rect x="2456" y="1275" width="188" height="188" rx="0" 
style="stroke:#000000;stroke-width:16;
stroke-linejoin:miter; stroke-linecap:butt;
"/>
<!-- Line -->
<polyline points="2267,519
2266,520
2263,523
2259,529
2254,537
2248,548
2243,561
2239,578
2235,597
2233,621
2229,649
2228,685
2227,704
2226,726
2225,748
2225,773
2224,800
2224,827
2223,856
2223,887
2222,917
2222,950
2222,982
2222,1016
2222,1048
2222,1081
2222,1113
2223,1144
2223,1174
2224,1204
2224,1231
2225,1257
2225,1282
2226,1304
2227,1327
2228,1346
2229,1381
2233,1409
2235,1434
2239,1453
2243,1469
2248,1483
2254,1493
2259,1502
2263,1507
2266,1510
2267,1511
" style="stroke:#000000;stroke-width:16;
stroke-linejoin:bevel; stroke-linecap:round;
"/>
<!-- Line -->
<polyline points="3448,519
3449,520
3453,523
3457,529
3462,537
3467,548
3472,561
3477,578
3481,597
3483,621
3486,649
3488,685
3488,704
3489,726
3490,748
3490,773
3491,800
3491,827
3492,856
3492,887
3493,917
3493,950
3493,982
3493,1016
3493,1048
3493,1081
3493,1113
3492,1144
3492,1174
3491,1204
3491,1231
3490,1257
3490,1282
3489,1304
3488,1327
3488,1346
3486,1381
3483,1409
3481,1434
3477,1453
3472,1469
3467,1483
3462,1493
3457,1502
3453,1507
3449,1510
3448,1511
" style="stroke:#000000;stroke-width:16;
stroke-linejoin:bevel; stroke-linecap:round;
"/>
<!-- Text -->
<text xml:space="preserve" x="2362" y="1086" fill="#000000"  font-family="Helvetica" font-style="normal" font-weight="normal" font-size="126" text-anchor="middle">to</text>
<!-- Text -->
<text xml:space="preserve" x="2929" y="850" fill="#000000"  font-family="Helvetica" font-style="normal" font-weight="bold" font-size="114" text-anchor="middle">1</text>
<!-- Text -->
<text xml:space="preserve" x="2929" y="1275" fill="#000000"  font-family="Helvetica" font-style="normal" font-weight="bold" font-size="114" text-anchor="middle">1</text>
<!-- Text -->
<text xml:space="preserve" x="2551" y="708" fill="#000000"  font-family="Helvetica" font-style="normal" font-weight="bold" font-size="114" text-anchor="middle">2</text>
<!-- Text -->
<text xml:space="preserve" x="2551" y="1417" fill="#000000"  font-family="Helvetica" font-style="normal" font-weight="bold" font-size="114" text-anchor="middle">3</text>
<!-- Text -->
<text xml:space="preserve" x="3307" y="708" fill="#000000"  font-family="Helvetica" font-style="normal" font-weight="bold" font-size="114" text-anchor="middle">2</text>
<!-- Text -->
<text xml:space="preserve" x="3307" y="1417" fill="#000000"  font-family="Helvetica" font-style="normal" font-weight="bold" font-size="114" text-anchor="middle">3</text>
<!-- Text -->
<text xml:space="preserve" x="1086" y="1133" fill="#000000"  font-family="Helvetica" font-style="normal" font-weight="bold" font-size="227" text-anchor="middle">S</text>
<!-- Text -->
<text xml:space="preserve" x="1086" y="1322" fill="#000000"  font-family="Helvetica" font-style="normal" font-weight="normal" font-size="126" text-anchor="middle">diag.</text>
<!-- Text -->
<text xml:space="preserve" x="1086" y="803" fill="#000000"  font-family="Helvetica" font-style="normal" font-weight="bold" font-size="114" text-anchor="middle">2 3</text>
<!-- Line -->
<polyline points="755,1228
755,1101
" style="stroke:#000000;stroke-width:16;
stroke-linejoin:miter; stroke-linecap:butt;
"/>
<!-- Arrowhead on XXXpoint 755 1228 - 755 1007-->
<polygon points="787 1080
755 1017
724 1080
787 1080

" style="stroke:#000000;stroke-width:8;stroke-miterlimit:8;
fill:#000000;"/>
<!-- Text -->
<text xml:space="preserve" x="614" y="1133" fill="#000000"  font-family="Helvetica" font-style="normal" font-weight="bold" font-size="227" text-anchor="middle">S</text>
<!-- Line -->
<polyline points="1275,1417
1275,1419
1274,1422
1273,1428
1271,1436
1268,1444
1265,1453
1260,1460
1255,1466
1249,1471
1241,1476
1233,1478
1224,1480
1212,1480
1198,1480
1184,1478
1167,1477
1148,1474
1128,1470
1107,1467
1086,1464
1065,1461
1044,1458
1024,1455
1005,1451
988,1450
974,1448
960,1448
949,1448
939,1450
931,1453
923,1457
917,1462
912,1468
908,1476
904,1484
901,1492
899,1500
898,1506
897,1509
897,1511
" style="stroke:#000000;stroke-width:16;
stroke-linejoin:bevel; stroke-linecap:butt;
"/>
<!-- Line -->
<polyline points="519,1417
519,1419
520,1422
521,1428
523,1436
527,1444
530,1453
534,1460
539,1466
545,1471
553,1476
561,1478
571,1480
582,1480
596,1480
611,1478
627,1477
646,1474
666,1470
687,1467
708,1464
729,1461
750,1458
770,1455
789,1451
806,1450
820,1448
834,1448
846,1448
855,1450
864,1453
871,1457
877,1462
882,1468
887,1476
890,1484
893,1492
895,1500
896,1506
897,1509
897,1511
" style="stroke:#000000;stroke-width:16;
stroke-linejoin:bevel; stroke-linecap:butt;
"/>
<!-- Text -->
<text xml:space="preserve" x="614" y="803" fill="#000000"  font-family="Helvetica" font-style="normal" font-weight="bold" font-size="114" text-anchor="middle">1</text>
<!-- Arc -->
<path style="stroke:#000000;stroke-width:16;stroke-linecap:butt;"
d="M 141,992 A 94 94  0  0  1  330  992 " />
<!-- Arrowhead on XXXpoint 324 957 - 330 992-->
<polygon points="292 960
329 986
354 950
292 960

" style="stroke:#000000;stroke-width:8;stroke-miterlimit:8;
fill:#000000;"/>
<!-- Line -->
<polyline points="1748,708
2078,708
2078,1039
" style="stroke:#000000;stroke-width:16;
stroke-linejoin:miter; stroke-linecap:butt;
"/>
<!-- Text -->
<text xml:space="preserve" x="236" y="1039" fill="#000000"  font-family="Helvetica" font-style="normal" font-weight="bold" font-size="114" text-anchor="middle">1</text>
<!-- Circle -->
<circle cx="3496" cy="1795" r="47"
 style="stroke:#000000;stroke-width:8;"/>
<!-- Circle -->
<circle cx="3493" cy="1794" r="18"
 style="fill:#000000;stroke:#000000;stroke-width:8;"/>
<!-- Circle -->
<circle cx="3118" cy="2101" r="118"
 style="stroke:#000000;stroke-width:16;"/>
<!-- Circle -->
<circle cx="3118" cy="2339" r="118"
 style="stroke:#000000;stroke-width:16;"/>
<!-- Circle -->
<circle cx="3496" cy="2102" r="118"
 style="stroke:#000000;stroke-width:16;"/>
<!-- Circle -->
<circle cx="3496" cy="2339" r="117"
 style="stroke:#000000;stroke-width:16;"/>
<!-- Line -->
<polyline points="3307,2314
3165,2220
" style="stroke:#000000;stroke-width:16;
stroke-linejoin:miter; stroke-linecap:butt;
"/>
<!-- Line -->
<polyline points="3307,2125
3448,2220
" style="stroke:#000000;stroke-width:16;
stroke-linejoin:miter; stroke-linecap:butt;
"/>
<!-- Line -->
<polyline points="3496,1937
3496,2503
" style="stroke:#000000;stroke-width:16;
stroke-linejoin:miter; stroke-linecap:round;
"/>
<!-- Line -->
<polyline points="3118,2503
3118,1937
" style="stroke:#000000;stroke-width:16;
stroke-linejoin:miter; stroke-linecap:round;
"/>
<!-- Circle -->
<circle cx="353" cy="2101" r="100"
 style="stroke:#000000;stroke-width:16;"/>
<!-- Circle -->
<circle cx="495" cy="2243" r="100"
 style="stroke:#000000;stroke-width:16;"/>
<!-- Circle -->
<circle cx="637" cy="2385" r="100"
 style="stroke:#000000;stroke-width:16;"/>
<!-- Line -->
<polyline points="236,1984
755,2503
" style="stroke:#000000;stroke-width:16;
stroke-linejoin:miter; stroke-linecap:round;
"/>
<!-- Line -->
<polyline points="188,2267
188,1937
519,1937
" style="stroke:#000000;stroke-width:16;
stroke-linejoin:miter; stroke-linecap:butt;
"/>
<!-- Circle -->
<circle cx="1511" cy="1889" r="94"
 style="stroke:#000000;stroke-width:16;"/>
<!-- Circle -->
<circle cx="2267" cy="1889" r="94"
 style="stroke:#000000;stroke-width:16;"/>
<!-- Circle -->
<circle cx="2125" cy="2267" r="94"
 style="stroke:#000000;stroke-width:16;"/>
<!-- Line: box -->
<rect x="1559" y="2078" width="188" height="188" rx="0" 
style="stroke:#000000;stroke-width:16;
stroke-linejoin:miter; stroke-linecap:butt;
"/>
<!-- Line -->
<polyline points="1748,2173
" style="stroke:#000000;stroke-width:16;
stroke-linejoin:miter; stroke-linecap:round;
"/>
<!-- Line -->
<polyline points="1748,2173
1795,2173
" style="stroke:#000000;stroke-width:16;
stroke-linejoin:miter; stroke-linecap:round;
"/>
<!-- Line -->
<polyline points="1984,2267
2031,2267
" style="stroke:#000000;stroke-width:16;
stroke-linejoin:miter; stroke-linecap:round;
"/>
<!-- Line: box -->
<rect x="1417" y="2456" width="188" height="188" rx="0" 
style="stroke:#000000;stroke-width:16;
stroke-linejoin:miter; stroke-linecap:butt;
"/>
<!-- Line: box -->
<rect x="2173" y="2456" width="188" height="188" rx="0" 
style="stroke:#000000;stroke-width:16;
stroke-linejoin:miter; stroke-linecap:butt;
"/>
<!-- Line -->
<polyline points="1937,2267
1935,2267
1932,2269
1924,2272
1909,2279
1890,2287
1869,2296
1846,2304
1823,2312
1802,2320
1781,2325
1761,2330
1741,2333
1721,2337
1700,2339
1685,2339
1669,2340
1652,2340
1634,2340
1615,2339
1596,2337
1576,2333
1556,2330
1535,2326
1516,2321
1496,2314
1476,2307
1457,2299
1439,2289
1422,2279
1406,2267
1392,2256
1378,2242
1365,2227
1354,2213
1344,2197
1336,2180
1328,2162
1321,2143
1315,2123
1310,2102
1304,2080
1301,2057
1298,2034
1296,2010
1296,1986
1296,1962
1297,1939
1299,1916
1302,1893
1307,1872
1311,1851
1316,1833
1322,1816
1330,1799
1337,1784
1346,1772
1356,1758
1367,1745
1380,1735
1393,1727
1407,1718
1423,1711
1439,1706
1457,1701
1474,1698
1492,1696
1510,1695
1529,1696
1547,1697
1565,1699
1583,1701
1600,1706
1616,1710
1632,1714
1647,1718
1661,1724
1678,1731
1695,1739
1711,1748
1728,1757
1744,1769
1762,1781
1781,1796
1800,1811
1820,1827
1839,1844
1856,1859
1843,1847
" style="stroke:#000000;stroke-width:16;
stroke-linejoin:bevel; stroke-linecap:butt;
"/>
<!-- Arrowhead on XXXpoint 1856 1859 - 1912 1910-->
<polygon points="1838 1884
1906 1904
1880 1838
1838 1884

" style="stroke:#000000;stroke-width:8;stroke-miterlimit:8;
fill:#000000;"/>
<!-- Line -->
<polyline points="1842,2173
1843,2173
1846,2171
1855,2167
1869,2161
1888,2153
1909,2144
1932,2136
1955,2128
1976,2120
1997,2115
2017,2110
2037,2107
2057,2103
2078,2102
2094,2101
2110,2100
2127,2100
2144,2100
2163,2101
2182,2103
2202,2107
2222,2110
2243,2114
2263,2119
2283,2125
2303,2133
2322,2141
2340,2151
2356,2161
2372,2173
2387,2184
2401,2198
2413,2213
2425,2228
2434,2243
2443,2260
2451,2278
2457,2297
2464,2317
2469,2338
2474,2360
2477,2383
2480,2406
2482,2430
2482,2454
2482,2478
2481,2501
2479,2524
2476,2546
2472,2567
2468,2588
2462,2607
2456,2624
2449,2641
2441,2656
2433,2669
2422,2684
2409,2697
2394,2708
2380,2718
2363,2726
2345,2732
2326,2738
2307,2742
2286,2744
2266,2745
2245,2744
2225,2743
2205,2740
2186,2737
2167,2732
2151,2727
2134,2722
2118,2717
2100,2709
2083,2701
2068,2692
2051,2683
2034,2671
2016,2659
1997,2644
1979,2629
1959,2613
1940,2596
1923,2581
1934,2592
" style="stroke:#000000;stroke-width:16;
stroke-linejoin:bevel; stroke-linecap:butt;
stroke-dasharray:20 20;"/>
<!-- Arrowhead on XXXpoint 1923 2581 - 1865 2529-->
<polygon points="1939 2554
1871 2535
1897 2600
1939 2554

" style="stroke:#000000;stroke-width:8;stroke-miterlimit:8;
fill:#000000;"/>
<!-- Text -->
<text xml:space="preserve" x="1511" y="1937" fill="#000000"  font-family="Helvetica" font-style="normal" font-weight="bold" font-size="114" text-anchor="middle">3</text>
<!-- Text -->
<text xml:space="preserve" x="2267" y="1937" fill="#000000"  font-family="Helvetica" font-style="normal" font-weight="bold" font-size="114" text-anchor="middle">2</text>
<!-- Text -->
<text xml:space="preserve" x="1653" y="2220" fill="#000000"  font-family="Helvetica" font-style="normal" font-weight="bold" font-size="114" text-anchor="middle">1</text>
<!-- Text -->
<text xml:space="preserve" x="2125" y="2314" fill="#000000"  font-family="Helvetica" font-style="normal" font-weight="bold" font-size="114" text-anchor="middle">1</text>
<!-- Text -->
<text xml:space="preserve" x="1511" y="2598" fill="#000000"  font-family="Helvetica" font-style="normal" font-weight="bold" font-size="114" text-anchor="middle">3</text>
<!-- Text -->
<text xml:space="preserve" x="2267" y="2598" fill="#000000"  font-family="Helvetica" font-style="normal" font-weight="bold" font-size="114" text-anchor="middle">2</text>
<!-- Text -->
<text xml:space="preserve" x="4393" y="2362" fill="#000000"  font-family="Helvetica" font-style="normal" font-weight="bold" font-size="227" text-anchor="middle">P</text>
<!-- Text -->
<text xml:space="preserve" x="4393" y="2031" fill="#000000"  font-family="Helvetica" font-style="normal" font-weight="bold" font-size="114" text-anchor="middle">1 2</text>
<!-- Line -->
<polyline points="4251,2267
4535,2267
" style="stroke:#000000;stroke-width:16;
stroke-linejoin:miter; stroke-linecap:round;
"/>
<!-- Text -->
<text xml:space="preserve" x="5433" y="2362" fill="#000000"  font-family="Helvetica" font-style="normal" font-weight="bold" font-size="227" text-anchor="middle">P</text>
<!-- Text -->
<text xml:space="preserve" x="5433" y="2031" fill="#000000"  font-family="Helvetica" font-style="normal" font-weight="bold" font-size="114" text-anchor="middle">3 2</text>
<!-- Line -->
<polyline points="5291,2267
5574,2267
" style="stroke:#000000;stroke-width:16;
stroke-linejoin:miter; stroke-linecap:round;
"/>
<!-- Line -->
<polyline points="0,377
6094,377
" style="stroke:#000000;stroke-width:16;
stroke-linejoin:miter; stroke-linecap:butt;
"/>
<!-- Line -->
<polyline points="0,1606
6094,1606
" style="stroke:#000000;stroke-width:16;
stroke-linejoin:miter; stroke-linecap:butt;
"/>
<!-- Line: box -->
<rect x="0" y="0" width="6094" height="2834" rx="0" 
style="stroke:#000000;stroke-width:16;
stroke-linejoin:miter; stroke-linecap:butt;
"/>
<!-- Line -->
<polyline points="3685,377
3685,1606
" style="stroke:#000000;stroke-width:16;
stroke-linejoin:miter; stroke-linecap:butt;
"/>
<!-- Line -->
<polyline points="5858,377
5858,1606
" style="stroke:#000000;stroke-width:16;
stroke-linejoin:miter; stroke-linecap:butt;
stroke-dasharray:62 62;"/>
<!-- Line -->
<polyline points="1039,1606
1039,2834
" style="stroke:#000000;stroke-width:16;
stroke-linejoin:miter; stroke-linecap:butt;
"/>
<!-- Line -->
<polyline points="2740,1606
2740,2834
" style="stroke:#000000;stroke-width:16;
stroke-linejoin:miter; stroke-linecap:butt;
stroke-dasharray:62 62;"/>
<!-- Line -->
<polyline points="3874,1606
3874,2834
" style="stroke:#000000;stroke-width:16;
stroke-linejoin:miter; stroke-linecap:butt;
"/>
<!-- Line -->
<polyline points="4913,1606
4913,2834
" style="stroke:#000000;stroke-width:16;
stroke-linejoin:miter; stroke-linecap:butt;
stroke-dasharray:62 62;"/>
<!-- Text -->
<text xml:space="preserve" x="141" y="283" fill="#000000"  font-family="Helvetica" font-style="normal" font-weight="normal" font-size="227" text-anchor="start">Three Gentlemen</text>
<!-- Text -->
<text xml:space="preserve" x="6000" y="283" fill="#000000"  font-family="Helvetica" font-style="normal" font-weight="normal" font-size="227" text-anchor="end">S3x32</text>
<!-- Text -->
<text xml:space="preserve" x="4771" y="283" fill="#000000"  font-family="Helvetica" font-style="normal" font-weight="normal" font-size="177" text-anchor="end">Heiko A Schmidt</text>
<!-- Text -->
<text xml:space="preserve" x="4393" y="2645" fill="#000000"  font-family="Helvetica" font-style="normal" font-weight="bold" font-size="126" text-anchor="middle">(to 321)</text>
<!-- Text -->
<text xml:space="preserve" x="4062" y="1181" fill="#000000"  font-family="Helvetica" font-style="normal" font-weight="bold" font-size="152" text-anchor="middle">R</text>
</g>
</svg>
