<?xml version='1.0' encoding='utf-8' standalone='no'?>
<!DOCTYPE svg PUBLIC '-//W3C//DTD SVG 1.1//EN' 'http://www.w3.org/Graphics/SVG/1.1/DTD/svg11.dtd'>
<svg version="1.1" viewBox="0 0 470 106" xmlns='http://www.w3.org/2000/svg'>
<defs>
</defs>
<rect fill="#FFFFFF" width="470" height="106"/>
<path fill="#1A171B" d="M5.7,6.4h9.3v1.4h-3.9V18H9.6V7.8H5.7V6.4z"/>
<path fill="#1A171B" d="M16.5,6.4h1.6v4.8h6V6.4h1.6V18H24v-5.4h-6V18h-1.6V6.4z"/>
<path fill="#1A171B" d="M28.2,18V6.4h8.4v1.4h-6.9v3.6h6.4v1.4h-6.4v3.9h7V18H28.2z"/>
<path fill="#1A171B" d="M43.2,18V6.4h5.1c1,0,1.8,0.3,2.4,0.8c0.6,0.5,0.9,1.2,0.9,2.1c0,1-0.5,1.8-1.5,2.4c0.8,0.3,1.3,0.7,1.6,1.1
	s0.5,1,0.5,1.7c0,1-0.3,1.8-1,2.5c-0.7,0.7-1.6,1-2.9,1H43.2z M44.8,11.3h2.8c1.6,0,2.4-0.6,2.4-1.8c0-1.1-0.8-1.7-2.4-1.7h-2.8
	V11.3z M44.8,16.6h3.3c0.7,0,1.3-0.2,1.8-0.5c0.4-0.3,0.7-0.9,0.7-1.6c0-1.3-0.9-1.9-2.7-1.9h-3V16.6z"/>
<path fill="#1A171B" d="M53.3,12.2c0-1.7,0.5-3.2,1.5-4.3c1-1.2,2.4-1.7,4.1-1.7c1.8,0,3.1,0.6,4.1,1.8c1,1.2,1.5,2.6,1.5,4.2
	c0,1.8-0.5,3.3-1.5,4.4c-1,1.1-2.4,1.7-4.1,1.7c-1.7,0-3-0.5-4.1-1.6C53.8,15.5,53.3,14.1,53.3,12.2z M54.9,12.2
	c0,1.3,0.4,2.5,1.1,3.4c0.7,0.9,1.7,1.3,3,1.3c1.2,0,2.1-0.4,2.9-1.3c0.8-0.8,1.1-2,1.1-3.4c0-1.4-0.4-2.5-1.1-3.4
	c-0.7-0.9-1.7-1.3-3-1.3c-1.2,0-2.1,0.4-2.9,1.3C55.3,9.6,54.9,10.8,54.9,12.2z"/>
<path fill="#1A171B" d="M65.8,12.2c0-1.7,0.5-3.2,1.5-4.3c1-1.2,2.4-1.7,4.1-1.7c1.8,0,3.1,0.6,4.1,1.8c1,1.2,1.5,2.6,1.5,4.2
	c0,1.8-0.5,3.3-1.5,4.4c-1,1.1-2.4,1.7-4.1,1.7c-1.7,0-3-0.5-4.1-1.6C66.3,15.5,65.8,14.1,65.8,12.2z M67.4,12.2
	c0,1.3,0.4,2.5,1.1,3.4c0.7,0.9,1.7,1.3,3,1.3c1.2,0,2.1-0.4,2.9-1.3c0.8-0.8,1.1-2,1.1-3.4c0-1.4-0.4-2.5-1.1-3.4
	c-0.7-0.9-1.7-1.3-3-1.3c-1.2,0-2.1,0.4-2.9,1.3C67.8,9.6,67.4,10.8,67.4,12.2z"/>
<path fill="#1A171B" d="M78.8,18V6.4h1.6V12L86,6.4h2.1L83.4,11l4.9,6.9h-2l-4-5.8l-1.8,1.7v4H78.8z"/>
<path fill="#1A171B" d="M88.6,6.4h1.7l2.2,9.4l2.7-9.4h1.7l2.7,9.4l2.1-9.4h1.7l-3,11.5h-1.6L96,8.4L93.2,18h-1.6L88.6,6.4z"/>
<path fill="#1A171B" d="M104.1,12.2c0-1.7,0.5-3.2,1.5-4.3c1-1.2,2.4-1.7,4.1-1.7c1.8,0,3.1,0.6,4.1,1.8c1,1.2,1.5,2.6,1.5,4.2
	c0,1.8-0.5,3.3-1.5,4.4c-1,1.1-2.4,1.7-4.1,1.7c-1.7,0-3-0.5-4.1-1.6C104.6,15.5,104.1,14.1,104.1,12.2z M105.7,12.2
	c0,1.3,0.4,2.5,1.1,3.4c0.7,0.9,1.7,1.3,3,1.3c1.2,0,2.1-0.4,2.9-1.3c0.8-0.8,1.1-2,1.1-3.4c0-1.4-0.4-2.5-1.1-3.4
	c-0.7-0.9-1.7-1.3-3-1.3c-1.2,0-2.1,0.4-2.9,1.3C106.1,9.6,105.7,10.8,105.7,12.2z"/>
<path fill="#1A171B" d="M126.8,18h-1.9c-0.2-0.8-0.3-1.7-0.3-2.7c0-0.8-0.2-1.4-0.5-1.7c-0.3-0.3-0.8-0.5-1.6-0.5h-3.7V18h-1.6V6.4
	h5.3c1.3,0,2.2,0.3,2.8,0.8c0.6,0.5,0.9,1.3,0.9,2.4c0,1.3-0.5,2.2-1.6,2.7c0.5,0.2,0.8,0.4,1,0.8c0.2,0.3,0.3,0.8,0.4,1.6l0.1,1.9
	c0,0.2,0,0.4,0.1,0.6c0,0.2,0.2,0.4,0.5,0.5V18z M124.8,9.7c0-0.7-0.2-1.1-0.5-1.5c-0.3-0.3-0.9-0.5-1.5-0.5h-3.9v3.9h3.6
	C124,11.7,124.8,11.1,124.8,9.7z"/>
<path fill="#1A171B" d="M128.7,6.4h2.2l3.3,9.7l3.3-9.7h2.2V18h-1.5V8.3l-3.2,9.7h-1.5l-3.2-9.7V18h-1.5V6.4z"/>
<polyline points="67.6,25.7 67.6,92.3 68.7,92.3 68.7,25.7 "/>
<path fill="#1A171B" d="M412.1,12c-1-0.4-1.5-1.2-1.5-2.2c0-0.9,0.3-1.7,0.9-2.2c0.6-0.6,1.5-0.9,2.5-0.9c1,0,1.8,0.3,2.5,0.8
	c0.7,0.5,1,1.3,1,2.2c0,1.1-0.5,1.9-1.4,2.3c1.2,0.6,1.8,1.5,1.8,2.8c0,1-0.3,1.9-1,2.5c-0.7,0.7-1.6,1-2.7,1
	c-1.1,0-2.1-0.3-2.8-0.9c-0.7-0.6-1.1-1.4-1.1-2.5C410.2,13.4,410.9,12.5,412.1,12z M411.7,14.8c0,0.6,0.2,1.2,0.6,1.6
	c0.4,0.4,1,0.6,1.8,0.6c0.7,0,1.2-0.2,1.6-0.6c0.4-0.4,0.6-0.9,0.6-1.5c0-0.7-0.2-1.2-0.6-1.6c-0.4-0.4-1-0.6-1.7-0.6
	c-0.7,0-1.2,0.2-1.7,0.6C412,13.6,411.7,14.1,411.7,14.8z M412.1,9.7c0,0.4,0.2,0.9,0.5,1.2c0.3,0.4,0.8,0.6,1.4,0.6
	c0.5,0,1-0.2,1.4-0.5c0.4-0.3,0.6-0.8,0.6-1.3c0-0.5-0.2-1-0.6-1.3c-0.4-0.3-0.9-0.4-1.4-0.4c-0.6,0-1,0.2-1.3,0.5
	C412.3,8.7,412.1,9.1,412.1,9.7z"/>
<path fill="#1A171B" d="M418.7,18l2.9-4.4l-2.8-4h1.8l1.9,2.9l1.9-2.9h1.7l-2.8,4l2.9,4.4h-1.8l-2.1-3.1l-2,3.1H418.7z"/>
<path fill="#1A171B" d="M428.5,14.5c0,0.8,0.2,1.4,0.6,1.9c0.4,0.4,1,0.6,1.8,0.6c0.7,0,1.3-0.2,1.8-0.5c0.5-0.4,0.7-0.9,0.7-1.6
	c0-0.6-0.2-1.1-0.6-1.5c-0.4-0.4-1-0.5-1.9-0.5c-0.2,0-0.4,0-0.8,0v-1.2c0.4,0,0.6,0,0.7,0c1.5,0,2.2-0.6,2.2-1.8
	c0-0.6-0.2-1-0.6-1.4c-0.4-0.3-0.9-0.5-1.5-0.5c-0.7,0-1.2,0.2-1.6,0.6c-0.3,0.4-0.5,1-0.6,1.8h-1.4c0-1.1,0.3-2,0.9-2.7
	c0.6-0.6,1.5-1,2.7-1c1,0,1.9,0.3,2.5,0.8c0.6,0.6,1,1.3,1,2.2c0,1.2-0.5,2-1.5,2.4c0.7,0.3,1.2,0.6,1.5,1c0.3,0.4,0.4,1,0.4,1.6
	c0,1.1-0.4,1.9-1.1,2.6c-0.7,0.7-1.7,1-2.9,1c-1.1,0-2-0.3-2.7-0.8c-0.7-0.6-1.1-1.5-1.2-2.9H428.5z"/>
<path fill="#1A171B" d="M436.6,15.2c0.4-0.7,1-1.2,1.8-1.6l2.3-1.4c0.5-0.3,0.9-0.6,1.1-1c0.2-0.3,0.3-0.7,0.3-1.2
	c0-0.7-0.2-1.2-0.6-1.5c-0.4-0.4-1-0.6-1.7-0.6c-0.8,0-1.4,0.2-1.7,0.7c-0.3,0.5-0.6,1.1-0.6,2h-1.4c0-1.2,0.3-2.2,0.9-2.9
	c0.6-0.7,1.6-1.1,2.9-1.1c1.1,0,1.9,0.3,2.6,0.9c0.7,0.6,1,1.4,1,2.5c0,0.7-0.2,1.3-0.5,1.8c-0.3,0.5-0.8,0.9-1.5,1.3l-1.9,1.1
	c-0.7,0.4-1.2,0.8-1.5,1.1c-0.3,0.3-0.6,0.8-0.8,1.3h6.2V18h-7.8C436,16.8,436.2,15.9,436.6,15.2z"/>
<path fill="#1A171B" d="M459.7,18h-1.9c-0.2-0.8-0.3-1.7-0.3-2.7c0-0.8-0.2-1.4-0.5-1.7c-0.3-0.3-0.8-0.5-1.6-0.5h-3.7V18h-1.6V6.4
	h5.3c1.3,0,2.2,0.3,2.8,0.8c0.6,0.5,0.9,1.3,0.9,2.4c0,1.3-0.5,2.2-1.6,2.7c0.5,0.2,0.8,0.4,1,0.8c0.2,0.3,0.3,0.8,0.4,1.6l0.1,1.9
	c0,0.2,0,0.4,0.1,0.6c0,0.2,0.2,0.4,0.5,0.5V18z M457.7,9.7c0-0.7-0.2-1.1-0.5-1.5c-0.3-0.3-0.9-0.5-1.5-0.5h-3.9v3.9h3.6
	C456.9,11.7,457.7,11.1,457.7,9.7z"/>
<polygon points="0.6,0.6 0.6,1.1 117.8,1.1 235,1.1 352.2,1.1 468.9,1.1 468.9,23.5 468.9,46.4 468.9,69.4 468.9,91.7 352.2,91.7 
	235,91.7 117.8,91.7 1.1,91.7 1.1,69.4 1.1,46.4 1.1,23.5 1.1,0.6 0.6,0.6 0.6,1.1 0.6,0.6 0,0.6 0,23.5 0,46.4 0,69.4 0,92.9 
	117.8,92.9 235,92.9 352.2,92.9 470,92.9 470,69.4 470,46.4 470,23.5 470,0 352.2,0 235,0 117.8,0 0,0 0,0.6 "/>
<polyline points="0.1,26.8 468.9,26.8 468.9,25.6 0.1,25.6 "/>
<polyline points="241.9,26.5 241.9,92 243,92 243,26.5 "/>
<path d="M213.9,73.6l3.8-5.9l-3.5-5.6h2.9l2,3.7l2.1-3.7h2.8l-3.5,5.5l3.7,6h-2.9l-2.2-3.9l-2.3,3.9H213.9z"/>
<path d="M225.1,69.7h1.5v5.9h3.6v1.3h-5.1V69.7z"/>
<path fill="#1A171B" d="M392.9,101.6c0,0.5,0.1,0.8,0.3,1c0.2,0.2,0.5,0.4,1,0.4c0.4,0,0.7-0.1,1-0.3c0.3-0.2,0.4-0.5,0.4-0.9
	c0-0.3-0.1-0.6-0.4-0.8c-0.2-0.2-0.6-0.3-1.1-0.3c-0.1,0-0.3,0-0.5,0V100c0.2,0,0.3,0,0.4,0c0.8,0,1.2-0.3,1.2-1
	c0-0.3-0.1-0.6-0.3-0.8c-0.2-0.2-0.5-0.3-0.9-0.3c-0.4,0-0.7,0.1-0.9,0.3c-0.2,0.2-0.3,0.6-0.3,1h-0.8c0-0.6,0.2-1.1,0.5-1.5
	c0.3-0.4,0.9-0.5,1.5-0.5c0.6,0,1.1,0.2,1.4,0.5c0.4,0.3,0.5,0.7,0.5,1.2c0,0.7-0.3,1.1-0.8,1.3c0.4,0.1,0.7,0.3,0.8,0.6
	c0.2,0.2,0.2,0.5,0.2,0.9c0,0.6-0.2,1.1-0.6,1.5c-0.4,0.4-0.9,0.6-1.6,0.6c-0.6,0-1.1-0.2-1.5-0.5c-0.4-0.3-0.6-0.9-0.7-1.6H392.9z"
	/>
<path fill="#1A171B" d="M402.1,101.2h0.9c-0.2,0.8-0.5,1.5-1,1.9c-0.5,0.4-1.1,0.6-1.9,0.6c-0.9,0-1.6-0.3-2.1-0.9
	c-0.5-0.6-0.8-1.4-0.8-2.5c0-1,0.3-1.9,0.8-2.5c0.5-0.6,1.3-0.9,2.2-0.9c0.7,0,1.3,0.2,1.8,0.5c0.5,0.3,0.8,0.9,0.9,1.6H402
	c-0.2-0.9-0.8-1.3-1.8-1.3c-0.6,0-1.2,0.2-1.5,0.7c-0.4,0.5-0.6,1.1-0.6,2c0,0.8,0.2,1.4,0.5,1.9c0.4,0.5,0.9,0.7,1.6,0.7
	c0.5,0,0.9-0.1,1.2-0.4C401.7,102.2,401.9,101.8,402.1,101.2z"/>
<path fill="#1A171B" d="M403.1,103.7l2.2-6.8h0.6l-2.2,6.8H403.1z"/>
<path fill="#1A171B" d="M406,101.2l2.9-4h0.7v4.1h0.9v0.7h-0.9v1.5h-0.8V102H406V101.2z M406.7,101.3h2.1v-2.9L406.7,101.3z"/>
<path fill="#1A171B" d="M416.1,101.2h0.8c-0.1,0.8-0.5,1.5-1,1.9c-0.5,0.4-1.1,0.6-1.9,0.6c-0.9,0-1.6-0.3-2.1-0.9
	c-0.5-0.6-0.8-1.4-0.8-2.5c0-1,0.3-1.9,0.8-2.5c0.5-0.6,1.3-0.9,2.2-0.9c0.7,0,1.3,0.2,1.8,0.5c0.5,0.3,0.8,0.9,0.9,1.6H416
	c-0.2-0.9-0.8-1.3-1.8-1.3c-0.6,0-1.2,0.2-1.5,0.7c-0.4,0.5-0.6,1.1-0.6,2c0,0.8,0.2,1.4,0.5,1.9c0.4,0.5,0.9,0.7,1.6,0.7
	c0.5,0,0.9-0.1,1.2-0.4C415.7,102.2,416,101.8,416.1,101.2z"/>
<path fill="#1A171B" d="M420.4,103.6v-6.5h0.8v6.5H420.4z"/>
<path fill="#1A171B" d="M422.1,101.2c0-0.7,0.2-1.4,0.6-1.8c0.4-0.5,0.9-0.7,1.6-0.7c0.6,0,1.2,0.2,1.6,0.7c0.4,0.5,0.6,1.1,0.6,1.8
	c0,0.7-0.2,1.3-0.6,1.8c-0.4,0.5-0.9,0.7-1.6,0.7c-0.6,0-1.2-0.2-1.6-0.7C422.3,102.6,422.1,102,422.1,101.2z M422.9,101.2
	c0,0.5,0.1,0.9,0.4,1.3c0.2,0.3,0.6,0.5,1,0.5c0.4,0,0.7-0.2,1-0.5c0.3-0.3,0.4-0.8,0.4-1.4c0-0.5-0.1-0.9-0.4-1.3s-0.6-0.5-1-0.5
	c-0.4,0-0.7,0.2-1,0.5C423.1,100.2,422.9,100.6,422.9,101.2z"/>
<path fill="#1A171B" d="M427.4,103.6v-4.7h0.7v0.7c0.4-0.6,0.9-0.8,1.5-0.8c0.5,0,0.9,0.1,1.2,0.4c0.3,0.3,0.4,0.7,0.4,1.2v3.2h-0.8
	v-2.9c0-0.5-0.1-0.8-0.3-1c-0.2-0.2-0.4-0.3-0.7-0.3c-0.4,0-0.7,0.1-0.9,0.4c-0.2,0.3-0.3,0.7-0.3,1.2v2.6H427.4z"/>
<path fill="#1A171B" d="M432.3,104.1h0.8c0.1,0.5,0.5,0.7,1.1,0.7c0.4,0,0.8-0.1,1-0.3c0.2-0.2,0.3-0.6,0.3-1.1V103
	c-0.3,0.5-0.7,0.7-1.3,0.7c-0.6,0-1.1-0.2-1.5-0.7c-0.4-0.5-0.6-1.1-0.6-1.9c0-0.7,0.2-1.3,0.5-1.7c0.3-0.5,0.8-0.7,1.4-0.7
	c0.3,0,0.6,0.1,0.8,0.2c0.2,0.1,0.4,0.3,0.6,0.6v-0.7h0.7v4.3c0,0.9-0.2,1.5-0.6,1.8c-0.4,0.3-0.9,0.5-1.6,0.5
	c-0.5,0-0.9-0.1-1.2-0.3C432.6,105,432.4,104.6,432.3,104.1z M433,101.1c0,0.6,0.1,1.1,0.3,1.4c0.2,0.3,0.5,0.5,0.9,0.5
	c0.4,0,0.7-0.2,0.9-0.5c0.2-0.3,0.3-0.7,0.3-1.3c0-1.3-0.4-1.9-1.3-1.9C433.4,99.4,433,100,433,101.1z"/>
<path fill="#1A171B" d="M437,98.8h0.9l0.9,3.7l0.9-3.7h0.9l1,3.7l0.9-3.7h0.8l-1.3,4.7H441l-1-3.7l-0.9,3.7h-0.8L437,98.8z"/>
<path fill="#1A171B" d="M444,97.1h0.8V98H444V97.1z M444,98.8h0.8v4.7H444V98.8z"/>
<path fill="#1A171B" d="M446.4,102.1c0,0.6,0.4,0.9,1.2,0.9c0.3,0,0.6-0.1,0.8-0.2c0.2-0.1,0.3-0.3,0.3-0.6c0-0.2-0.1-0.3-0.2-0.4
	c-0.1-0.1-0.4-0.2-0.7-0.3l-0.9-0.2c-0.7-0.2-1.1-0.6-1.1-1.2c0-0.4,0.2-0.8,0.5-1.1c0.3-0.3,0.8-0.4,1.3-0.4c0.5,0,0.9,0.1,1.2,0.4
	c0.3,0.2,0.5,0.6,0.5,1.1h-0.8c0-0.5-0.4-0.8-1.1-0.8c-0.6,0-1,0.2-1,0.7c0,0.2,0.1,0.3,0.2,0.4c0.1,0.1,0.4,0.1,0.6,0.2l0.8,0.2
	c0.5,0.1,0.8,0.3,1,0.5c0.2,0.2,0.3,0.5,0.3,0.8c0,0.5-0.2,0.8-0.5,1.1c-0.3,0.3-0.8,0.4-1.4,0.4c-0.6,0-1-0.1-1.4-0.4
	c-0.4-0.2-0.5-0.7-0.6-1.3H446.4z"/>
<path fill="#1A171B" d="M451.1,101.4c0,0.5,0.1,0.9,0.3,1.2c0.2,0.3,0.6,0.4,1,0.4c0.3,0,0.6-0.1,0.8-0.3c0.2-0.2,0.4-0.4,0.4-0.6
	h0.8c-0.1,0.5-0.3,0.9-0.7,1.2c-0.3,0.3-0.8,0.4-1.4,0.4c-0.7,0-1.2-0.2-1.6-0.6c-0.4-0.4-0.6-1-0.6-1.8c0-0.8,0.2-1.4,0.6-1.9
	c0.4-0.5,0.9-0.7,1.6-0.7c0.7,0,1.2,0.2,1.5,0.7c0.3,0.5,0.5,1.1,0.5,2.1H451.1z M451.1,100.8h2.6c-0.1-0.5-0.2-0.9-0.4-1.1
	c-0.2-0.2-0.5-0.3-0.9-0.3c-0.4,0-0.7,0.1-1,0.4C451.2,100,451.1,100.4,451.1,100.8z"/>
<path fill="#1A171B" d="M458.4,102.1c0,0.6,0.4,0.9,1.2,0.9c0.3,0,0.6-0.1,0.8-0.2c0.2-0.1,0.3-0.3,0.3-0.6c0-0.2-0.1-0.3-0.2-0.4
	c-0.1-0.1-0.4-0.2-0.7-0.3l-0.9-0.2c-0.7-0.2-1.1-0.6-1.1-1.2c0-0.4,0.2-0.8,0.5-1.1c0.3-0.3,0.8-0.4,1.3-0.4c0.5,0,0.9,0.1,1.2,0.4
	c0.3,0.2,0.5,0.6,0.5,1.1h-0.8c0-0.5-0.4-0.8-1.1-0.8c-0.6,0-1,0.2-1,0.7c0,0.2,0.1,0.3,0.2,0.4c0.1,0.1,0.4,0.1,0.6,0.2l0.8,0.2
	c0.5,0.1,0.8,0.3,1,0.5c0.2,0.2,0.3,0.5,0.3,0.8c0,0.5-0.2,0.8-0.5,1.1c-0.3,0.3-0.8,0.4-1.4,0.4c-0.6,0-1-0.1-1.4-0.4
	c-0.4-0.2-0.5-0.7-0.6-1.3H458.4z"/>
<path fill="#1A171B" d="M463.1,101.4c0,0.5,0.1,0.9,0.3,1.2c0.2,0.3,0.6,0.4,1,0.4c0.3,0,0.6-0.1,0.8-0.3c0.2-0.2,0.4-0.4,0.4-0.6
	h0.8c-0.1,0.5-0.3,0.9-0.7,1.2c-0.3,0.3-0.8,0.4-1.4,0.4c-0.7,0-1.2-0.2-1.6-0.6c-0.4-0.4-0.6-1-0.6-1.8c0-0.8,0.2-1.4,0.6-1.9
	c0.4-0.5,0.9-0.7,1.6-0.7c0.7,0,1.2,0.2,1.5,0.7c0.3,0.5,0.5,1.1,0.5,2.1H463.1z M463.1,100.8h2.6c-0.1-0.5-0.2-0.9-0.4-1.1
	c-0.2-0.2-0.5-0.3-0.9-0.3c-0.4,0-0.7,0.1-1,0.4C463.2,100,463.1,100.4,463.1,100.8z"/>
<path fill="#1A171B" d="M467,99.5v-0.7h0.6v-1.3h0.8v1.3h0.8v0.7h-0.8v3.1c0,0.3,0.2,0.4,0.5,0.4h0.3v0.6c-0.3,0-0.5,0.1-0.7,0.1
	c-0.6,0-0.9-0.3-0.9-1v-3.1H467z"/>
<path fill="#1A171B" d="M1.6,103.6l2.5-6.5h1l2.3,6.5h-1l-0.6-1.9H3.2l-0.7,1.9H1.6z M3.5,100.9h2l-1-2.9L3.5,100.9z"/>
<path fill="#1A171B" d="M8.1,103.6v-4.7h0.7v0.7c0.4-0.6,0.9-0.8,1.5-0.8c0.5,0,0.9,0.1,1.2,0.4c0.3,0.3,0.4,0.7,0.4,1.2v3.2h-0.8
	v-2.9c0-0.5-0.1-0.8-0.3-1c-0.2-0.2-0.4-0.3-0.7-0.3c-0.4,0-0.7,0.1-0.9,0.4c-0.2,0.3-0.3,0.7-0.3,1.2v2.6H8.1z"/>
<path fill="#1A171B" d="M13.1,97.1h0.8V98h-0.8V97.1z M13.1,98.8h0.8v4.7h-0.8V98.8z"/>
<path fill="#1A171B" d="M15.1,103.6v-6.5h0.8v3.8l2-2h1l-1.8,1.8l1.9,3h-1l-1.5-2.4l-0.7,0.7v1.7H15.1z"/>
<path fill="#1A171B" d="M19.6,100.2c0-1,0.7-1.5,1.9-1.5c0.5,0,0.9,0.1,1.3,0.3c0.3,0.2,0.5,0.6,0.5,1v2.7c0,0.1,0,0.2,0.1,0.2
	c0,0,0.1,0.1,0.2,0.1c0.1,0,0.1,0,0.3,0v0.6c-0.2,0.1-0.3,0.1-0.5,0.1c-0.3,0-0.5-0.1-0.6-0.2c-0.1-0.1-0.2-0.3-0.2-0.5
	c-0.4,0.5-1,0.8-1.7,0.8c-0.4,0-0.7-0.1-1-0.3c-0.3-0.2-0.5-0.6-0.5-1c0-0.8,0.5-1.3,1.4-1.5l1.2-0.2c0.2,0,0.3-0.1,0.4-0.2
	c0.1-0.1,0.1-0.2,0.1-0.4c0-0.5-0.4-0.8-1.1-0.8c-0.4,0-0.6,0.1-0.8,0.2c-0.2,0.1-0.3,0.4-0.3,0.7H19.6z M22.5,101.1
	c-0.1,0.1-0.4,0.2-0.7,0.2c-0.4,0.1-0.6,0.1-0.6,0.1c-0.7,0.1-1,0.4-1,0.8c0,0.5,0.3,0.8,0.9,0.8c0.4,0,0.7-0.1,1-0.3
	s0.4-0.5,0.4-0.8V101.1z"/>
<path fill="#1A171B" d="M27.2,97.1h0.9v5.7h3.3v0.8h-4.2V97.1z"/>
<path fill="#1A171B" d="M32.1,100.2c0-1,0.7-1.5,1.9-1.5c0.5,0,0.9,0.1,1.3,0.3c0.3,0.2,0.5,0.6,0.5,1v2.7c0,0.1,0,0.2,0.1,0.2
	c0,0,0.1,0.1,0.2,0.1c0.1,0,0.1,0,0.3,0v0.6c-0.2,0.1-0.3,0.1-0.5,0.1c-0.3,0-0.5-0.1-0.6-0.2c-0.1-0.1-0.2-0.3-0.2-0.5
	c-0.4,0.5-1,0.8-1.7,0.8c-0.4,0-0.7-0.1-1-0.3c-0.3-0.2-0.5-0.6-0.5-1c0-0.8,0.5-1.3,1.4-1.5l1.2-0.2c0.2,0,0.3-0.1,0.4-0.2
	c0.1-0.1,0.1-0.2,0.1-0.4c0-0.5-0.4-0.8-1.1-0.8c-0.4,0-0.6,0.1-0.8,0.2c-0.2,0.1-0.3,0.4-0.3,0.7H32.1z M35,101.1
	c-0.1,0.1-0.4,0.2-0.7,0.2c-0.4,0.1-0.6,0.1-0.6,0.1c-0.7,0.1-1,0.4-1,0.8c0,0.5,0.3,0.8,0.9,0.8c0.4,0,0.7-0.1,1-0.3
	c0.3-0.2,0.4-0.5,0.4-0.8V101.1z"/>
<path fill="#1A171B" d="M37.2,103.6v-4.7h0.7v0.7c0.4-0.6,0.9-0.8,1.5-0.8c0.5,0,0.9,0.1,1.2,0.4c0.3,0.3,0.4,0.7,0.4,1.2v3.2h-0.8
	v-2.9c0-0.5-0.1-0.8-0.3-1c-0.2-0.2-0.4-0.3-0.7-0.3c-0.4,0-0.7,0.1-0.9,0.4c-0.2,0.3-0.3,0.7-0.3,1.2v2.6H37.2z"/>
<path fill="#1A171B" d="M42.1,104.1h0.8c0.1,0.5,0.5,0.7,1.1,0.7c0.4,0,0.8-0.1,1-0.3c0.2-0.2,0.3-0.6,0.3-1.1V103
	c-0.3,0.5-0.7,0.7-1.3,0.7c-0.6,0-1.1-0.2-1.5-0.7c-0.4-0.5-0.6-1.1-0.6-1.9c0-0.7,0.2-1.3,0.5-1.7c0.3-0.5,0.8-0.7,1.4-0.7
	c0.3,0,0.6,0.1,0.8,0.2c0.2,0.1,0.4,0.3,0.6,0.6v-0.7h0.7v4.3c0,0.9-0.2,1.5-0.6,1.8c-0.4,0.3-0.9,0.5-1.6,0.5
	c-0.5,0-0.9-0.1-1.2-0.3C42.4,105,42.2,104.6,42.1,104.1z M42.8,101.1c0,0.6,0.1,1.1,0.3,1.4c0.2,0.3,0.5,0.5,0.9,0.5
	c0.4,0,0.7-0.2,0.9-0.5c0.2-0.3,0.3-0.7,0.3-1.3c0-1.3-0.4-1.9-1.3-1.9C43.2,99.4,42.8,100,42.8,101.1z"/>
<path fill="#1A171B" d="M47.8,101.4c0,0.5,0.1,0.9,0.3,1.2c0.2,0.3,0.6,0.4,1,0.4c0.3,0,0.6-0.1,0.8-0.3c0.2-0.2,0.4-0.4,0.4-0.6
	h0.8c-0.1,0.5-0.3,0.9-0.7,1.2c-0.3,0.3-0.8,0.4-1.4,0.4c-0.7,0-1.2-0.2-1.6-0.6c-0.4-0.4-0.6-1-0.6-1.8c0-0.8,0.2-1.4,0.6-1.9
	c0.4-0.5,0.9-0.7,1.6-0.7c0.7,0,1.2,0.2,1.5,0.7c0.3,0.5,0.5,1.1,0.5,2.1H47.8z M47.8,100.8h2.6c-0.1-0.5-0.2-0.9-0.4-1.1
	c-0.2-0.2-0.5-0.3-0.9-0.3c-0.4,0-0.7,0.1-1,0.4C47.9,100,47.8,100.4,47.8,100.8z"/>
<path fill="#1A171B" d="M52.4,104.5c0.3,0,0.5-0.4,0.5-0.9h-0.5v-1h0.9v0.9c0,0.8-0.3,1.3-0.9,1.4V104.5z"/>
<path fill="#1A171B" d="M57.3,102c0.2-0.4,0.6-0.7,1-0.9l1.3-0.8c0.3-0.2,0.5-0.4,0.6-0.5c0.1-0.2,0.2-0.4,0.2-0.7
	c0-0.4-0.1-0.7-0.3-0.9c-0.2-0.2-0.5-0.3-0.9-0.3c-0.4,0-0.8,0.1-1,0.4c-0.2,0.3-0.3,0.6-0.3,1.1H57c0-0.7,0.2-1.2,0.5-1.6
	c0.4-0.4,0.9-0.6,1.6-0.6c0.6,0,1.1,0.2,1.5,0.5c0.4,0.3,0.6,0.8,0.6,1.4c0,0.4-0.1,0.7-0.3,1c-0.2,0.3-0.5,0.5-0.8,0.7l-1.1,0.6
	c-0.4,0.2-0.7,0.4-0.9,0.6c-0.2,0.2-0.3,0.4-0.4,0.7h3.5v0.7h-4.4C56.9,102.9,57.1,102.4,57.3,102z"/>
<path fill="#1A171B" d="M62,100.5c0-1,0.2-1.8,0.6-2.4c0.4-0.6,0.9-0.9,1.6-0.9c0.7,0,1.2,0.3,1.6,0.8c0.4,0.5,0.6,1.3,0.6,2.4
	c0,1-0.2,1.8-0.6,2.4c-0.4,0.6-0.9,0.9-1.6,0.9c-0.7,0-1.2-0.3-1.6-0.8C62.2,102.4,62,101.6,62,100.5z M62.8,100.5
	c0,1.7,0.4,2.5,1.3,2.5c0.9,0,1.3-0.9,1.3-2.5s-0.4-2.5-1.3-2.5S62.8,98.8,62.8,100.5z"/>
<path fill="#1A171B" d="M67.6,98.5c0.6,0,1-0.1,1.2-0.3c0.2-0.2,0.4-0.5,0.5-0.9h0.6v6.3h-0.8v-4.5h-1.5V98.5z"/>
<path fill="#1A171B" d="M72.1,102h0.8c0.1,0.7,0.4,1,1.1,1c0.5,0,0.9-0.2,1.1-0.7c0.3-0.5,0.4-1,0.4-1.7c-0.3,0.5-0.8,0.8-1.5,0.8
	c-0.6,0-1.1-0.2-1.5-0.6c-0.4-0.4-0.6-0.9-0.6-1.5c0-0.7,0.2-1.2,0.6-1.6c0.4-0.4,0.9-0.6,1.5-0.6c1.5,0,2.3,1,2.3,2.9
	c0,1.1-0.2,1.9-0.6,2.6c-0.4,0.7-1,1-1.8,1c-0.6,0-1-0.1-1.3-0.4S72.2,102.6,72.1,102z M72.9,99.4c0,0.9,0.4,1.4,1.3,1.4
	c0.4,0,0.7-0.1,0.9-0.4c0.2-0.2,0.4-0.6,0.4-1.1c0-0.4-0.1-0.8-0.3-1c-0.2-0.3-0.5-0.4-0.9-0.4c-0.4,0-0.7,0.1-0.9,0.4
	C73,98.6,72.9,98.9,72.9,99.4z"/>
<path d="M206.2,45.2c0,0.8,0.4,1.2,1,1.2c0.3,0,0.6-0.1,0.8-0.3c0.2-0.2,0.3-0.5,0.3-0.8c0-0.4-0.1-0.6-0.4-0.8
	c-0.2-0.2-0.7-0.2-1.2-0.2v-1h0.2c0.8,0,1.2-0.3,1.2-0.9c0-0.3-0.1-0.5-0.2-0.7c-0.2-0.2-0.4-0.3-0.7-0.3c-0.6,0-1,0.4-1,1.1h-1.3
	c0-0.7,0.2-1.3,0.6-1.7c0.4-0.4,1-0.6,1.7-0.6c0.7,0,1.2,0.2,1.6,0.5c0.4,0.3,0.6,0.8,0.6,1.4c0,0.6-0.3,1.1-0.9,1.4
	c0.7,0.3,1.1,0.9,1.1,1.7c0,0.7-0.2,1.2-0.7,1.6c-0.4,0.4-1.1,0.6-1.8,0.6c-0.8,0-1.4-0.2-1.8-0.6c-0.4-0.4-0.6-1-0.7-1.8H206.2z"/>
<path d="M213.5,41.5c0.7,0,1.2-0.1,1.5-0.3c0.3-0.2,0.5-0.5,0.5-0.9h1.2v7.1h-1.4v-4.9h-1.7V41.5z"/>
<path d="M222,45.9c0.3-0.4,0.8-1,1.6-1.5c0.6-0.5,1.1-0.8,1.2-1.1c0.2-0.2,0.2-0.5,0.2-0.8c0-0.3-0.1-0.5-0.3-0.7
	c-0.2-0.2-0.4-0.3-0.7-0.3c-0.4,0-0.6,0.1-0.8,0.3c-0.1,0.2-0.2,0.6-0.2,1h-1.4v-0.2c0-0.6,0.2-1.2,0.6-1.6c0.4-0.5,1-0.7,1.8-0.7
	c0.7,0,1.3,0.2,1.7,0.6c0.5,0.4,0.7,0.9,0.7,1.6c0,0.5-0.1,0.9-0.4,1.3c-0.2,0.4-0.7,0.8-1.4,1.3c-0.8,0.5-1.2,0.9-1.3,1.1h3.1v1.3
	h-4.9C221.5,46.8,221.7,46.3,222,45.9z"/>
<path d="M203.8,69.9c0.1,1.3,0.9,1.9,2.5,1.9c1.5,0,2.3-0.5,2.3-1.5c0-0.6-0.5-1.1-1.6-1.3l-2.8-0.7c-0.9-0.2-1.5-0.6-1.9-1.1
	c-0.4-0.5-0.6-1.2-0.6-2c0-1.1,0.4-1.9,1.1-2.6s1.9-1,3.3-1c1.3,0,2.4,0.3,3.2,1s1.2,1.6,1.3,2.8h-2.3c-0.2-1.2-0.9-1.8-2.3-1.8
	c-0.6,0-1.1,0.1-1.5,0.4c-0.4,0.2-0.5,0.6-0.5,1c0,0.3,0.1,0.6,0.3,0.8c0.2,0.2,0.5,0.4,0.9,0.5l2.8,0.7c1.2,0.3,1.9,0.7,2.4,1.2
	c0.4,0.5,0.6,1.2,0.6,2c0,1.1-0.4,2-1.2,2.7c-0.8,0.7-1.9,1-3.4,1c-1.4,0-2.5-0.3-3.4-1c-0.9-0.7-1.3-1.6-1.3-2.9H203.8z"/>
<polyline points="312.7,26.5 312.7,92 313.8,92 313.8,26.5 "/>
<path d="M110.3,68.8c0.1-0.4,0.1-0.8,0.1-1.3c0-1.6-0.7-2.9-1.7-3.7c-1.1-0.8-2.5-1.2-4.1-1.2c-1.6,0-3,0.4-4.1,1.2
	c-1.1,0.8-1.7,2.1-1.7,3.7c0,1.1,0.3,2.1,0.9,3l0.5-0.3c-0.5-0.8-0.8-1.8-0.8-2.7c0-1.4,0.6-2.5,1.5-3.2c0.9-0.7,2.2-1.1,3.7-1.1
	c1.5,0,2.8,0.4,3.7,1.1c0.9,0.7,1.5,1.8,1.5,3.2c0,0.4,0,0.8-0.1,1.1L110.3,68.8z"/>
<polygon fill-rule="evenodd" clip-rule="evenodd" points="100.5,67.1 99.6,71.6 98.2,67.2 "/>
<polygon points="100.5,67.1 100.3,67 99.6,71 98.4,67.3 100.5,67.2 100.5,67.1 100.3,67 100.5,67.1 100.5,66.9 98,67.1 99.7,72.2 
	100.6,66.9 100.5,66.9 "/>
<path d="M102.6,66.2c0.7,0,1.2-0.1,1.5-0.3s0.5-0.5,0.5-0.9h1.2v7.1h-1.4v-4.9h-1.7V66.2z"/>
<path d="M162.9,39.7c0,0.8,0.4,1.2,1,1.2c0.3,0,0.6-0.1,0.8-0.3c0.2-0.2,0.3-0.5,0.3-0.8c0-0.4-0.1-0.6-0.4-0.8
	c-0.2-0.2-0.7-0.2-1.2-0.2v-1h0.2c0.8,0,1.2-0.3,1.2-0.9c0-0.3-0.1-0.5-0.2-0.7c-0.2-0.2-0.4-0.3-0.7-0.3c-0.6,0-1,0.4-1,1.1h-1.3
	c0-0.7,0.2-1.3,0.6-1.7c0.4-0.4,1-0.6,1.7-0.6c0.7,0,1.2,0.2,1.6,0.5c0.4,0.3,0.6,0.8,0.6,1.4c0,0.6-0.3,1.1-0.9,1.4
	c0.7,0.3,1.1,0.9,1.1,1.7c0,0.7-0.2,1.2-0.7,1.6c-0.4,0.4-1.1,0.6-1.8,0.6c-0.8,0-1.4-0.2-1.8-0.6c-0.4-0.4-0.6-1-0.7-1.8H162.9z"/>
<path d="M90.8,36c0.7,0,1.2-0.1,1.5-0.3c0.3-0.2,0.4-0.5,0.5-0.9H94v7.1h-1.4V37h-1.7V36z"/>
<path d="M127.8,40.4c0.3-0.4,0.8-1,1.6-1.5c0.6-0.5,1.1-0.8,1.2-1.1c0.2-0.2,0.2-0.5,0.2-0.8c0-0.3-0.1-0.5-0.3-0.7
	c-0.2-0.2-0.4-0.3-0.7-0.3c-0.4,0-0.6,0.1-0.8,0.3c-0.1,0.2-0.2,0.6-0.2,1h-1.4v-0.2c0-0.6,0.2-1.2,0.6-1.6c0.4-0.5,1-0.7,1.8-0.7
	c0.7,0,1.3,0.2,1.7,0.6c0.5,0.4,0.7,0.9,0.7,1.6c0,0.5-0.1,0.9-0.4,1.3c-0.2,0.4-0.7,0.8-1.4,1.3c-0.8,0.5-1.2,0.9-1.3,1.1h3.1v1.3
	h-4.9C127.4,41.3,127.6,40.8,127.8,40.4z"/>
<path d="M120.5,70.2c0.1,1.3,0.9,1.9,2.5,1.9c1.5,0,2.3-0.5,2.3-1.5c0-0.6-0.5-1.1-1.6-1.3l-2.8-0.7c-0.9-0.2-1.5-0.6-1.9-1.1
	c-0.4-0.5-0.6-1.2-0.6-2c0-1.1,0.4-1.9,1.1-2.6c0.8-0.7,1.9-1,3.3-1c1.3,0,2.4,0.3,3.2,1c0.8,0.6,1.2,1.6,1.3,2.8h-2.3
	c-0.2-1.2-0.9-1.8-2.3-1.8c-0.6,0-1.1,0.1-1.5,0.4c-0.4,0.2-0.5,0.6-0.5,1c0,0.3,0.1,0.6,0.3,0.8c0.2,0.2,0.5,0.4,0.9,0.5l2.8,0.7
	c1.2,0.3,1.9,0.7,2.4,1.2c0.4,0.5,0.6,1.2,0.6,2c0,1.1-0.4,2-1.2,2.7c-0.8,0.7-1.9,1-3.4,1c-1.4,0-2.5-0.3-3.4-1
	c-0.9-0.7-1.3-1.6-1.3-2.9H120.5z"/>
<polyline fill="#1A171B" points="130.2,72.3 138.3,64.3 138.2,64.2 130.1,72.2 "/>
<polygon fill="#000106" points="130.3,72.4 138.5,64.3 138.3,64.1 138.2,64 130,72.1 130.2,72.3 138.3,64.3 138.2,64.2 138.1,64.3 
	138.1,64.4 138.3,64.3 138.1,64.2 130.1,72.2 "/>
<polyline fill="#1A171B" points="136.2,65 137.3,65.1 137.6,67.3 138.4,64 135.1,64.8 136.2,65 "/>
<polygon fill="#000106" points="136.2,65.1 137.2,65.2 137.6,68.1 138.6,63.8 134.4,64.9 136.2,65.1 136.2,64.8 135.9,64.8 
	138.2,64.2 137.7,66.6 137.5,65 136.2,64.8 "/>
<polygon fill="#1A171B" points="136.2,65 137.3,65.1 137.6,67.3 138.4,64 135.1,64.8 136.2,65 135.1,64.8 138.4,64 137.6,67.3 
	137.3,65.1 "/>
<polygon fill="#000106" points="136.2,65 136.2,65.1 137.2,65.2 137.6,68.1 138.6,63.8 134.4,64.9 136.2,65.1 136.2,64.8 
	135.9,64.8 138.2,64.2 137.7,66.6 137.5,65 136.2,64.8 136.2,65.1 136.2,65 136.2,65.1 137.2,65.2 137.6,68.1 138.6,63.8 
	134.4,64.9 136.2,65.1 136.2,64.8 135.9,64.8 138.2,64.2 137.7,66.6 137.5,65 136.2,64.8 136.2,65.1 "/>
<path fill="#1A171B" d="M137.5,71.7l0.4,0.4L138,72L137.5,71.7L137.5,71.7z M136.9,71l0.4,0.4l0.1-0.1L136.9,71L136.9,71z
	 M136.2,70.3l0.4,0.4l0.1-0.1L136.2,70.3L136.2,70.3z M135.5,69.7l0.4,0.4L136,70L135.5,69.7L135.5,69.7z M134.8,69l0.4,0.4l0.1-0.1
	L134.8,69L134.8,69z M134.2,68.3l0.4,0.4l0.1-0.1L134.2,68.3L134.2,68.3z M133.5,67.6l0.4,0.4L134,68L133.5,67.6L133.5,67.6z
	 M132.8,67l0.4,0.4l0.1-0.1L132.8,67L132.8,67z M132.1,66.3l0.4,0.4l0.1-0.1L132.1,66.3L132.1,66.3z M131.5,65.6l0.4,0.4L132,66
	L131.5,65.6L131.5,65.6z M130.8,65l0.4,0.4l0.1-0.1L130.8,65L130.8,65z M130.1,64.3l0.4,0.4l0.1-0.1L130.1,64.3L130.1,64.3z"/>
<path fill="#000106" d="M137.5,71.7l-0.1,0.1l0.4,0.4l0.1,0.1l0.2-0.2l0.1-0.1l-0.5-0.5l-0.1-0.1l-0.2,0.2l-0.1,0.1l0.1,0.1
	L137.5,71.7l0.1,0.1l0.1-0.1L137.5,71.7L137.5,71.7l0.4,0.4L138,72l-0.1-0.1l-0.1,0.1l0.1,0.1L138,72l-0.4-0.4L137.5,71.7l0.1,0.1
	L137.5,71.7z M136.9,71l-0.1,0.1l0.4,0.4l0.1,0.1l0.2-0.2l0.1-0.1l-0.5-0.5l-0.1-0.1l-0.2,0.2l-0.1,0.1l0.1,0.1L136.9,71l0.1,0.1
	L137,71L136.9,71L136.9,71l0.4,0.4l0.1-0.1l-0.1-0.1l-0.1,0.1l0.1,0.1l0.1-0.1l-0.4-0.4L136.9,71l0.1,0.1L136.9,71z M136.2,70.3
	l-0.1,0.1l0.4,0.4l0.1,0.1l0.2-0.2l0.1-0.1l-0.5-0.5l-0.1-0.1l-0.2,0.2l-0.1,0.1l0.1,0.1L136.2,70.3l0.1,0.1l0.1-0.1L136.2,70.3
	L136.2,70.3l0.4,0.4l0.1-0.1l-0.1-0.1l-0.1,0.1l0.1,0.1l0.1-0.1l-0.4-0.4L136.2,70.3l0.1,0.1L136.2,70.3z M135.5,69.7l-0.1,0.1
	l0.4,0.4l0.1,0.1l0.2-0.2l0.1-0.1l-0.5-0.5l-0.1-0.1l-0.2,0.2l-0.1,0.1l0.1,0.1L135.5,69.7l0.1,0.1l0.1-0.1L135.5,69.7L135.5,69.7
	l0.4,0.4L136,70l-0.1-0.1l-0.1,0.1l0.1,0.1L136,70l-0.4-0.4L135.5,69.7l0.1,0.1L135.5,69.7z M134.8,69l-0.1,0.1l0.4,0.4l0.1,0.1
	l0.2-0.2l0.1-0.1l-0.5-0.5l-0.1-0.1l-0.2,0.2l-0.1,0.1l0.1,0.1L134.8,69l0.1,0.1L135,69L134.8,69L134.8,69l0.4,0.4l0.1-0.1l-0.1-0.1
	l-0.1,0.1l0.1,0.1l0.1-0.1l-0.4-0.4L134.8,69l0.1,0.1L134.8,69z M134.2,68.3l-0.1,0.1l0.4,0.4l0.1,0.1l0.2-0.2l0.1-0.1l-0.5-0.5
	l-0.1-0.1l-0.2,0.2l-0.1,0.1l0.1,0.1L134.2,68.3l0.1,0.1l0.1-0.1L134.2,68.3L134.2,68.3l0.4,0.4l0.1-0.1l-0.1-0.1l-0.1,0.1l0.1,0.1
	l0.1-0.1l-0.4-0.4L134.2,68.3l0.1,0.1L134.2,68.3z M133.5,67.6l-0.1,0.1l0.4,0.4l0.1,0.1l0.2-0.2l0.1-0.1l-0.5-0.5l-0.1-0.1
	l-0.2,0.2l-0.1,0.1l0.1,0.1L133.5,67.6l0.1,0.1l0.1-0.1L133.5,67.6L133.5,67.6l0.4,0.4L134,68l-0.1-0.1l-0.1,0.1l0.1,0.1L134,68
	l-0.4-0.4L133.5,67.6l0.1,0.1L133.5,67.6z M132.8,67l-0.1,0.1l0.4,0.4l0.1,0.1l0.2-0.2l0.1-0.1l-0.5-0.5l-0.1-0.1l-0.2,0.2l-0.1,0.1
	l0.1,0.1L132.8,67l0.1,0.1L133,67L132.8,67L132.8,67l0.4,0.4l0.1-0.1l-0.1-0.1l-0.1,0.1l0.1,0.1l0.1-0.1l-0.4-0.4L132.8,67l0.1,0.1
	L132.8,67z M132.1,66.3l-0.1,0.1l0.4,0.4l0.1,0.1l0.2-0.2l0.1-0.1l-0.5-0.5l-0.1-0.1l-0.2,0.2l-0.1,0.1l0.1,0.1L132.1,66.3l0.1,0.1
	l0.1-0.1L132.1,66.3L132.1,66.3l0.4,0.4l0.1-0.1l-0.1-0.1l-0.1,0.1l0.1,0.1l0.1-0.1l-0.4-0.4L132.1,66.3l0.1,0.1L132.1,66.3z
	 M131.5,65.6l-0.1,0.1l0.4,0.4l0.1,0.1l0.2-0.2l0.1-0.1l-0.5-0.5l-0.1-0.1l-0.2,0.2l-0.1,0.1l0.1,0.1L131.5,65.6l0.1,0.1l0.1-0.1
	L131.5,65.6L131.5,65.6l0.4,0.4L132,66l-0.1-0.1l-0.1,0.1l0.1,0.1l0.1-0.1l-0.4-0.4L131.5,65.6l0.1,0.1L131.5,65.6z M130.8,65
	l-0.1,0.1l0.4,0.4l0.1,0.1l0.2-0.2l0.1-0.1l-0.5-0.5l-0.1-0.1l-0.2,0.2l-0.1,0.1l0.1,0.1L130.8,65l0.1,0.1L131,65L130.8,65L130.8,65
	l0.4,0.4l0.1-0.1l-0.1-0.1l-0.1,0.1l0.1,0.1l0.1-0.1l-0.4-0.4L130.8,65l0.1,0.1L130.8,65z M130.1,64.3l-0.1,0.1l0.4,0.4l0.1,0.1
	l0.2-0.2l0.1-0.1l-0.5-0.5l-0.1-0.1l-0.2,0.2l-0.1,0.1l0.1,0.1L130.1,64.3l0.1,0.1l0.1-0.1L130.1,64.3L130.1,64.3l0.4,0.4l0.1-0.1
	l-0.1-0.1l-0.1,0.1l0.1,0.1l0.1-0.1l-0.4-0.4L130.1,64.3l0.1,0.1L130.1,64.3z"/>
<polyline fill="#1A171B" points="137.5,70.3 137.3,71.4 135.1,71.7 138.4,72.5 137.6,69.2 137.5,70.3 "/>
<polygon fill="#000106" points="137.3,70.3 137.2,71.3 134.4,71.7 138.6,72.7 137.6,68.5 137.3,70.3 137.6,70.3 137.7,70 
	138.2,72.3 135.9,71.7 137.5,71.5 137.6,70.3 "/>
<polygon fill="#1A171B" points="137.5,70.3 137.3,71.4 135.1,71.7 138.4,72.5 137.6,69.2 137.5,70.3 137.6,69.2 138.4,72.5 
	135.1,71.7 137.3,71.4 "/>
<polygon fill="#000106" points="137.5,70.3 137.3,70.3 137.2,71.3 134.4,71.7 138.6,72.7 137.6,68.5 137.3,70.3 137.6,70.3 
	137.7,70 138.2,72.3 135.9,71.7 137.5,71.5 137.6,70.3 137.3,70.3 137.5,70.3 137.3,70.3 137.2,71.3 134.4,71.7 138.6,72.7 
	137.6,68.5 137.3,70.3 137.6,70.3 137.7,70 138.2,72.3 135.9,71.7 137.5,71.5 137.6,70.3 137.3,70.3 "/>
<path d="M162.3,68.7c0.1-0.4,0.1-0.8,0.1-1.3c0-1.6-0.7-2.9-1.7-3.7c-1.1-0.8-2.5-1.2-4.1-1.2c-1.6,0-3,0.4-4.1,1.2
	c-1.1,0.8-1.7,2.1-1.7,3.7c0,1.1,0.3,2.1,0.9,3l0.5-0.3c-0.5-0.8-0.8-1.8-0.8-2.7c0-1.4,0.6-2.5,1.5-3.2c0.9-0.7,2.2-1.1,3.7-1.1
	c1.5,0,2.8,0.4,3.7,1.1c0.9,0.7,1.5,1.8,1.5,3.2c0,0.4,0,0.8-0.1,1.1L162.3,68.7z"/>
<polygon fill-rule="evenodd" clip-rule="evenodd" points="152.5,67 151.7,71.5 150.3,67.1 "/>
<polygon points="152.5,67 152.4,66.9 151.7,70.9 150.5,67.2 152.5,67.1 152.5,67 152.4,66.9 152.5,67 152.5,66.8 150.1,67 
	151.7,72.1 152.7,66.8 152.5,66.8 "/>
<path d="M154.7,69.8c0.3-0.4,0.8-1,1.6-1.5c0.6-0.5,1.1-0.8,1.2-1.1c0.2-0.2,0.2-0.5,0.2-0.8c0-0.3-0.1-0.5-0.3-0.7
	c-0.2-0.2-0.4-0.3-0.7-0.3c-0.4,0-0.6,0.1-0.8,0.3c-0.1,0.2-0.2,0.6-0.2,1h-1.4v-0.2c0-0.6,0.2-1.2,0.6-1.6c0.4-0.5,1-0.7,1.8-0.7
	c0.7,0,1.3,0.2,1.7,0.6c0.5,0.4,0.7,0.9,0.7,1.6c0,0.5-0.1,0.9-0.4,1.3c-0.2,0.4-0.7,0.8-1.4,1.3c-0.8,0.5-1.2,0.9-1.3,1.1h3.1v1.3
	h-4.9C154.3,70.7,154.4,70.2,154.7,69.8z"/>
<path d="M165.2,73.9L169,68l-3.5-5.6h2.9l2,3.7l2.1-3.7h2.8l-3.5,5.5l3.7,6h-2.9l-2.2-3.9l-2.3,3.9H165.2z"/>
<path d="M182.5,77.2h-1.7c-0.1-0.4-0.2-0.8-0.2-1.3l0-0.5c0-0.4-0.1-0.6-0.2-0.8c-0.2-0.2-0.5-0.2-0.9-0.2h-1.6v2.8h-1.5V70h3.7
	c0.7,0,1.2,0.2,1.7,0.6c0.4,0.4,0.6,0.9,0.6,1.5c0,0.8-0.4,1.4-1.1,1.7c0.4,0.2,0.7,0.4,0.8,0.7c0.1,0.3,0.2,0.7,0.2,1.3v0.3
	c0,0.3,0,0.5,0.1,0.7c0,0.2,0.1,0.3,0.3,0.3V77.2z M180.9,72.2c0-0.6-0.4-1-1.1-1h-1.9v1.9h1.8C180.5,73.2,180.9,72.9,180.9,72.2z"
	/>
<polyline points="23.4,69.7 44.4,69.7 44.4,69.3 23.4,69.3 "/>
<path d="M44.8,63.3c-10.7,0-12.6,0-22.3,0v0.4c9.8,0,11.7,0,22.3,0V63.3z"/>
<path d="M22.5,63.3c-2.4,0-4.2,0.5-5.4,1.2c-1.2,0.7-1.9,1.7-1.9,2.7c0,0.9,0.5,1.7,1.4,2.3c0.9,0.6,2.2,1,4,1
	c0.8,0,1.8-0.1,2.8-0.3l-0.1-0.4c-1,0.2-1.9,0.3-2.7,0.3c-1.7,0-3-0.4-3.8-0.9c-0.8-0.5-1.2-1.2-1.2-1.9c0-0.8,0.5-1.7,1.7-2.4
	c1.1-0.7,2.9-1.2,5.2-1.2V63.3z"/>
<path d="M44.8,78.1c2.7,0,4.8-0.9,6.2-2.3c1.4-1.4,2.1-3.2,2.1-5.1c0-1.9-0.7-3.7-2.1-5.1c-1.4-1.4-3.4-2.3-6.2-2.3v0.4
	c5.3,0,7.8,3.5,7.8,7c0,3.5-2.6,7-7.8,7V78.1z"/>
<polyline points="35.5,78.1 44.8,78.1 44.8,77.7 35.5,77.7 "/>
<polyline points="43.5,77.7 35.5,77.7 35.5,78.1 43.5,78.1 "/>
<polyline points="42.5,78.1 43.5,78.1 43.5,77.7 42.5,77.7 "/>
<polyline points="44.7,76.9 45.5,75.9 42.1,77.9 45.5,80 43.9,77.9 44.7,76.9 "/>
<polygon points="44.7,76.9 45.5,75.9 45.5,75.9 42.1,77.9 42.1,77.9 45.5,80 45.5,80 43.9,77.9 44.7,76.9 44.7,76.9 43.9,77.9 
	43.9,77.9 45.5,80 42.1,77.9 45.5,75.9 44.7,76.9 "/>
<polyline points="33.2,78.1 42.5,78.1 42.5,77.7 33.2,77.7 "/>
<polyline points="35.4,76.9 36.2,75.9 32.8,77.9 36.2,80 34.6,77.9 35.4,76.9 "/>
<polygon points="35.4,76.9 36.2,75.9 36.2,75.9 32.8,77.9 32.8,77.9 36.2,80 36.2,80 34.6,77.9 35.4,76.9 35.4,76.9 34.6,77.9 
	34.6,77.9 36.2,80 32.8,77.9 36.2,75.9 35.4,76.9 "/>
<polyline points="23.9,78.1 33.2,78.1 33.2,77.7 23.9,77.7 "/>
<polyline points="26.1,76.9 26.9,75.9 23.5,77.9 26.9,80 25.3,77.9 26.1,76.9 "/>
<polygon points="26.1,76.9 26.9,75.9 26.9,75.9 23.5,77.9 23.5,77.9 26.9,80 26.9,80 25.3,77.9 26.1,76.9 26.1,76.9 25.3,77.9 
	25.3,77.9 26.9,80 23.5,77.9 26.9,75.9 26.1,76.9 "/>
<path d="M43.2,46.1h1.1v-0.4h-1.1V46.1z M39.9,46.1h2v-0.4h-2V46.1z M36.6,46.1h2v-0.4h-2V46.1z M33.3,46.1h2v-0.4h-2V46.1z
	 M30,46.1h2v-0.4h-2V46.1z M26.7,46.1h2v-0.4h-2V46.1z M23.4,46.1h2v-0.4h-2V46.1z"/>
<path d="M19.9,46.3c0.6,0,1.3,0.1,2,0.2l0.1-0.4c-0.7-0.1-1.4-0.2-2-0.2L19.9,46.3z M16.8,46.6c0.6-0.2,1.2-0.3,1.9-0.3l0-0.4
	c-0.8,0-1.4,0.1-2,0.3L16.8,46.6z M14.4,48.4c0.2-0.5,0.6-0.9,1.3-1.3l-0.2-0.4c-0.7,0.4-1.2,0.9-1.5,1.5L14.4,48.4z M15.2,51
	c-0.5-0.5-0.8-1-0.9-1.6l-0.4,0.1c0.1,0.6,0.5,1.3,1.1,1.8L15.2,51z M17.9,52.3c-0.7-0.2-1.3-0.4-1.8-0.7L15.9,52
	c0.5,0.3,1.2,0.5,1.9,0.7L17.9,52.3z M21.1,52.7c-0.7,0-1.4,0-2-0.1L19,53c0.6,0.1,1.3,0.1,2,0.1V52.7z"/>
<path d="M24.2,52.7c-0.6,0-1.3,0-2,0v0.4c0.7,0,1.4,0,2,0V52.7z M27.4,52.7c-0.6,0-1.3,0-2,0v0.4c0.7,0,1.4,0,2,0V52.7z M30.6,52.7
	c-0.7,0-1.3,0-2,0v0.4c0.7,0,1.3,0,2,0V52.7z M33.8,52.7c-0.7,0-1.3,0-2,0v0.4c0.7,0,1.3,0,2,0V52.7z M37,52.7c-0.7,0-1.4,0-2,0v0.4
	c0.6,0,1.3,0,2,0V52.7z M40.2,52.7c-0.7,0-1.4,0-2,0v0.4c0.6,0,1.3,0,2,0V52.7z M43.4,52.7c-0.7,0-1.4,0-2,0v0.4c0.6,0,1.3,0,2,0
	V52.7z"/>
<path d="M45.1,52.6c-0.5,0.1-1.1,0.1-1.7,0.1v0.4c0.6,0,1.2,0,1.8-0.1L45.1,52.6z M48,51.5c-0.5,0.3-1.1,0.6-1.8,0.8l0.1,0.4
	c0.7-0.2,1.3-0.5,1.9-0.8L48,51.5z M50.2,49.3c-0.3,0.5-0.8,1-1.2,1.5l0.3,0.3c0.5-0.5,1-1,1.3-1.6L50.2,49.3z M51.2,46.4
	c-0.1,0.6-0.2,1.3-0.5,1.9l0.4,0.1c0.3-0.6,0.4-1.3,0.5-2L51.2,46.4z M50.8,43.3c0.2,0.6,0.3,1.3,0.4,1.9l0.4,0c0-0.7-0.2-1.4-0.4-2
	L50.8,43.3z M49.2,40.7c0.5,0.5,0.9,1,1.2,1.5l0.3-0.2c-0.3-0.6-0.8-1.1-1.3-1.6L49.2,40.7z M46.5,39.1c0.6,0.2,1.2,0.5,1.7,0.9
	l0.2-0.3c-0.5-0.4-1.2-0.7-1.8-0.9L46.5,39.1z M43.4,38.7c0.7,0,1.4,0.1,2,0.2l0.1-0.4c-0.6-0.1-1.3-0.2-2-0.2V38.7z"/>
<rect x="42.6" y="38.3" width="0.8" height="0.4"/>
<rect x="42.1" y="38.3" width="0.5" height="0.4"/>
<rect x="41.1" y="38.3" width="1.1" height="0.4"/>
<polyline points="43.3,37.4 44.1,36.4 40.7,38.5 44.1,40.5 42.5,38.5 43.3,37.4 "/>
<polygon points="43.3,37.4 44.1,36.4 44.1,36.4 40.7,38.5 40.7,38.5 44.1,40.5 44.1,40.5 42.5,38.5 43.3,37.4 43.3,37.4 42.5,38.5 
	42.5,38.5 44.1,40.5 40.7,38.5 44.1,36.4 43.3,37.4 "/>
<path d="M38.4,38.7h2v-0.4h-2V38.7z M35.1,38.7h2v-0.4h-2V38.7z M31.8,38.7h2v-0.4h-2V38.7z"/>
<polyline points="34,37.4 34.8,36.4 31.4,38.5 34.8,40.5 33.2,38.5 34,37.4 "/>
<polygon points="34,37.4 34.8,36.4 34.8,36.4 31.4,38.5 31.4,38.5 34.8,40.5 34.8,40.5 33.2,38.5 34,37.4 34,37.4 33.2,38.5 
	33.2,38.5 34.8,40.5 31.4,38.5 34.8,36.4 34,37.4 "/>
<path d="M29.1,38.7h2v-0.4h-2V38.7z M25.8,38.7h2v-0.4h-2V38.7z M22.5,38.7h2v-0.4h-2V38.7z"/>
<polyline points="24.7,37.4 25.5,36.4 22.1,38.5 25.5,40.5 23.9,38.5 24.7,37.4 "/>
<polygon points="24.7,37.4 25.5,36.4 25.4,36.4 22.1,38.5 22.1,38.5 25.4,40.5 25.5,40.5 23.9,38.5 24.7,37.4 24.7,37.4 23.9,38.5 
	23.9,38.5 25.4,40.5 22.1,38.5 25.4,36.4 24.7,37.4 "/>
<path d="M25.2,59v-2.3c0-0.4-0.1-0.6-0.2-0.7c-0.1-0.1-0.3-0.1-0.5-0.1v-0.1h1.5v0.1c-0.3,0-0.4,0.1-0.5,0.2
	c-0.1,0.1-0.1,0.3-0.1,0.6v3.6h-0.1l-3-3.7v2.6c0,0.3,0,0.5,0.1,0.7c0.1,0.1,0.3,0.2,0.5,0.2v0.1h-1.5v-0.1c0.3,0,0.5-0.1,0.5-0.2
	c0.1-0.1,0.1-0.3,0.1-0.6v-3c-0.1-0.2-0.2-0.2-0.3-0.3c-0.1,0-0.2-0.1-0.3-0.1h-0.1v-0.1h1.1L25.2,59z"/>
<path d="M190.5,86.1v3.3h0.6v-3.3H190.5z M190.5,79.4v3.3h0.6v-3.3H190.5z M190.5,72.8v3.3h0.6v-3.3H190.5z M190.5,66.1v3.3h0.6
	v-3.3H190.5z M190.5,59.5v3.3h0.6v-3.3H190.5z M190.5,52.8v3.3h0.6v-3.3H190.5z M190.5,46.2v3.3h0.6v-3.3H190.5z M190.5,39.6v3.3
	h0.6v-3.3H190.5z M190.5,32.9v3.3h0.6v-3.3H190.5z M190.5,26.3v3.3h0.6v-3.3H190.5z"/>
<path d="M267.5,75.5h-0.2c0,0.5-0.1,1-0.3,1.5h0c-0.2,0.5-0.5,0.9-0.8,1.2c-0.3,0.3-0.8,0.6-1.2,0.8s-1,0.3-1.5,0.3s-1-0.1-1.5-0.3
	c-0.5-0.2-0.9-0.5-1.2-0.8c-0.3-0.3-0.6-0.8-0.8-1.2h0c-0.2-0.5-0.3-1-0.3-1.5s0.1-1,0.3-1.5c0.2-0.5,0.5-0.9,0.8-1.2
	c0.3-0.3,0.8-0.6,1.2-0.8c0.5-0.2,1-0.3,1.5-0.3s1,0.1,1.5,0.3c0.5,0.2,0.9,0.5,1.2,0.8s0.6,0.8,0.8,1.2c0.2,0.5,0.3,1,0.3,1.5
	H267.5h0.2c0-0.6-0.1-1.2-0.3-1.7c-0.2-0.5-0.5-1-0.9-1.4c-0.4-0.4-0.9-0.7-1.4-0.9c-0.5-0.2-1.1-0.3-1.7-0.3s-1.2,0.1-1.7,0.3
	c-0.5,0.2-1,0.5-1.4,0.9c-0.4,0.4-0.7,0.9-0.9,1.4c-0.2,0.5-0.3,1.1-0.3,1.7s0.1,1.2,0.3,1.7h0c0.2,0.5,0.5,1,0.9,1.4
	c0.4,0.4,0.9,0.7,1.4,0.9c0.5,0.2,1.1,0.3,1.7,0.3s1.2-0.1,1.7-0.3c0.5-0.2,1-0.5,1.4-0.9c0.4-0.4,0.7-0.9,0.9-1.4h0
	c0.2-0.5,0.3-1.1,0.3-1.7H267.5z"/>
<path d="M262.4,76.5c0,0.7,0.3,1,0.9,1c0.3,0,0.5-0.1,0.6-0.2c0.2-0.2,0.2-0.4,0.2-0.7c0-0.3-0.1-0.5-0.3-0.6
	c-0.2-0.1-0.6-0.2-1-0.2v-0.8h0.2c0.7,0,1-0.3,1-0.8c0-0.2-0.1-0.4-0.2-0.5c-0.1-0.1-0.3-0.2-0.6-0.2c-0.5,0-0.8,0.3-0.8,0.9h-1.1
	c0-0.6,0.2-1,0.5-1.3c0.3-0.3,0.8-0.5,1.4-0.5c0.6,0,1,0.1,1.4,0.4c0.4,0.3,0.5,0.7,0.5,1.2c0,0.5-0.2,0.9-0.7,1.1
	c0.6,0.2,0.9,0.7,0.9,1.3c0,0.5-0.2,1-0.6,1.3c-0.4,0.3-0.9,0.5-1.5,0.5c-0.7,0-1.2-0.2-1.5-0.5c-0.3-0.3-0.5-0.8-0.6-1.4H262.4z"/>
<path d="M297.3,75.5h-0.2c0,1.1-0.4,2-1.1,2.7c-0.7,0.7-1.7,1.1-2.7,1.1s-2-0.4-2.7-1.1c-0.7-0.7-1.1-1.7-1.1-2.7
	c0-1.1,0.4-2,1.1-2.7c0.7-0.7,1.7-1.1,2.7-1.1s2,0.4,2.7,1.1c0.7,0.7,1.1,1.7,1.1,2.7H297.3h0.2c0-2.4-1.9-4.3-4.3-4.3
	c-2.4,0-4.3,1.9-4.3,4.3c0,2.4,1.9,4.3,4.3,4.3c2.4,0,4.3-1.9,4.3-4.3H297.3z"/>
<path d="M291.3,77c0.2-0.4,0.7-0.8,1.3-1.2c0.5-0.4,0.9-0.7,1-0.9c0.1-0.2,0.2-0.4,0.2-0.6c0-0.2-0.1-0.4-0.2-0.6
	c-0.1-0.2-0.3-0.3-0.6-0.3c-0.3,0-0.5,0.1-0.6,0.3c-0.1,0.2-0.2,0.5-0.2,0.8h-1.2v-0.2c0-0.5,0.2-0.9,0.5-1.3
	c0.3-0.4,0.8-0.6,1.5-0.6c0.6,0,1.1,0.2,1.5,0.5c0.4,0.3,0.6,0.8,0.6,1.3c0,0.4-0.1,0.7-0.3,1c-0.2,0.3-0.6,0.6-1.2,1
	c-0.6,0.4-1,0.7-1.1,0.9h2.6v1H291C291,77.8,291.1,77.3,291.3,77z"/>
<polygon points="289.1,38.9 289.1,39.1 297.1,39.1 297.1,46.8 289.4,46.8 289.4,38.9 289.1,38.9 289.1,39.1 289.1,38.9 288.9,38.9 
	288.9,47.3 297.5,47.3 297.5,38.7 288.9,38.7 288.9,38.9 "/>
<path d="M291.6,44.7c0.2-0.4,0.6-0.8,1.3-1.2c0.5-0.4,0.9-0.7,1-0.9c0.1-0.2,0.2-0.4,0.2-0.6c0-0.2-0.1-0.4-0.2-0.6
	c-0.1-0.2-0.3-0.3-0.6-0.3c-0.3,0-0.5,0.1-0.6,0.3s-0.2,0.5-0.2,0.8h-1.1v-0.2c0-0.5,0.2-0.9,0.5-1.3c0.3-0.4,0.8-0.6,1.4-0.6
	c0.6,0,1,0.2,1.4,0.5c0.4,0.3,0.6,0.8,0.6,1.3c0,0.4-0.1,0.7-0.3,1c-0.2,0.3-0.6,0.6-1.1,1c-0.6,0.4-1,0.7-1.1,0.9h2.5v1h-3.9
	C291.2,45.5,291.3,45.1,291.6,44.7z"/>
<polygon points="259.4,38.9 259.4,39.1 267.3,39.1 267.3,46.8 259.6,46.8 259.6,38.9 259.4,38.9 259.4,39.1 259.4,38.9 259.2,38.9 
	259.2,47.3 267.8,47.3 267.8,38.7 259.2,38.7 259.2,38.9 "/>
<path d="M262.6,44.2c0,0.7,0.3,1,0.8,1c0.3,0,0.5-0.1,0.6-0.2c0.2-0.2,0.2-0.4,0.2-0.7c0-0.3-0.1-0.5-0.3-0.6
	c-0.2-0.1-0.5-0.2-1-0.2v-0.8h0.2c0.6,0,0.9-0.3,0.9-0.8c0-0.2-0.1-0.4-0.2-0.5c-0.1-0.1-0.3-0.2-0.6-0.2c-0.5,0-0.8,0.3-0.8,0.9h-1
	c0-0.6,0.2-1,0.5-1.3c0.3-0.3,0.8-0.5,1.4-0.5c0.5,0,1,0.1,1.3,0.4c0.3,0.3,0.5,0.7,0.5,1.2c0,0.5-0.2,0.9-0.7,1.1
	c0.6,0.2,0.9,0.7,0.9,1.3c0,0.5-0.2,1-0.5,1.3c-0.4,0.3-0.9,0.5-1.5,0.5c-0.6,0-1.1-0.2-1.5-0.5c-0.3-0.3-0.5-0.8-0.5-1.4H262.6z"/>
<path d="M280.9,80.5c2.4,1.1,5.7,2.8,10.8,2.8c0.7,0,1.4,0,2.2-0.1c2-0.2,3.8-0.9,5.1-2.3c1.3-1.4,2.1-3.5,2.1-6.3
	c0-1.8-0.5-3.6-1.8-4.9c-1.3-1.3-3.4-2.1-6.6-2.1c-2.5,0-4.8,1.2-7.1,2.8c-2.3,1.5-4.5,3.4-6.8,4.8c-3.7,2.3-7.9,7.5-16.3,7.5v0.2
	l0-0.2c-1.7-0.1-3.4-0.6-4.7-1.8c-1.3-1.2-2.1-2.9-2.1-5.5v-0.1v0c0-2.6,0.7-4.1,2.3-5.3c1.6-1.2,4-2.1,7.4-3.2
	c9.5-3.2,11.1-3.2,15.4-4.5l-0.1-0.4c-4.3,1.3-6,1.4-15.4,4.5c-3.4,1.1-5.9,2-7.5,3.3c-1.7,1.3-2.5,3-2.5,5.6v0l0,0.1
	c0,2.6,0.9,4.6,2.3,5.8c1.4,1.3,3.2,1.9,5,1.9l0,0h0c8.6,0,12.9-5.4,16.5-7.6c2.3-1.4,4.6-3.3,6.8-4.9c2.3-1.5,4.5-2.7,6.8-2.7
	c3.1,0,5.1,0.8,6.3,2c1.2,1.2,1.7,2.8,1.7,4.6c0,2.8-0.8,4.7-2,6c-1.2,1.3-2.9,2-4.8,2.2c-0.7,0.1-1.5,0.1-2.1,0.1
	c-5,0-8.1-1.7-10.6-2.8L280.9,80.5z"/>
<circle fill="#FFFFFF" cx="278.9" cy="75.5" r="4.1"/>
<path d="M282.9,75.5h-0.2c0,1.1-0.4,2-1.1,2.7c-0.7,0.7-1.7,1.1-2.7,1.1c-1.1,0-2-0.4-2.7-1.1c-0.7-0.7-1.1-1.7-1.1-2.7
	c0-1.1,0.4-2,1.1-2.7c0.7-0.7,1.7-1.1,2.7-1.1c1.1,0,2,0.4,2.7,1.1c0.7,0.7,1.1,1.7,1.1,2.7H282.9h0.2c0-2.4-1.9-4.3-4.3-4.3
	c-2.4,0-4.3,1.9-4.3,4.3c0,2.4,1.9,4.3,4.3,4.3c2.4,0,4.3-1.9,4.3-4.3H282.9z"/>
<path d="M276.9,73.4c0.6,0,1-0.1,1.3-0.3c0.2-0.2,0.4-0.4,0.4-0.7h1v5.8h-1.2v-4h-1.5V73.4z"/>
<path d="M273.9,56l-0.3,0.1l0.1,0.4l0.3-0.1L273.9,56z M277,55.1c-0.7,0.2-1.3,0.3-1.9,0.5l0.1,0.4c0.6-0.2,1.3-0.4,1.9-0.5
	L277,55.1z M280.1,54.3c-0.7,0.2-1.3,0.3-1.9,0.5l0.1,0.4c0.6-0.1,1.3-0.3,1.9-0.5L280.1,54.3z M283.2,53.6
	c-0.7,0.2-1.3,0.3-1.9,0.5l0.1,0.4c0.6-0.1,1.2-0.3,1.9-0.5L283.2,53.6z M286.3,52.7c-0.7,0.2-1.3,0.4-1.9,0.6l0.1,0.4
	c0.6-0.2,1.2-0.4,1.9-0.6L286.3,52.7z M289.3,51.7c-0.7,0.2-1.3,0.4-1.9,0.6l0.1,0.4c0.6-0.2,1.2-0.4,1.9-0.6L289.3,51.7z
	 M292.4,50.7c-0.6,0.2-1.2,0.4-1.8,0.6l-0.1,0l0.1,0.4l0.1,0c0.6-0.2,1.3-0.4,1.8-0.6L292.4,50.7z M295.3,49.6
	c-0.6,0.2-1.2,0.5-1.8,0.7l0.1,0.4c0.7-0.2,1.3-0.5,1.9-0.7L295.3,49.6z M298.1,48c-0.5,0.4-1,0.7-1.6,1.1l0.2,0.4
	c0.7-0.3,1.2-0.7,1.7-1.1L298.1,48z M299.8,45.5c-0.2,0.6-0.5,1.2-0.9,1.7l0.3,0.3c0.4-0.5,0.8-1.1,1-1.8L299.8,45.5z M300.2,42.5
	c0,0.1,0,0.2,0,0.3v0.1l0,0c0,0.6,0,1.1-0.1,1.6l0.4,0.1c0.1-0.5,0.1-1.1,0.1-1.7l0,0v-0.1c0-0.1,0-0.2,0-0.3L300.2,42.5z
	 M299.6,39.4c0.2,0.6,0.4,1.2,0.5,1.9l0.4-0.1c-0.1-0.7-0.3-1.4-0.5-2L299.6,39.4z M297.8,37c0.5,0.4,0.9,0.9,1.3,1.4l0.3-0.2
	c-0.4-0.6-0.9-1.1-1.4-1.5L297.8,37z M295,35.6c0.6,0.1,1.2,0.4,1.8,0.7L297,36c-0.6-0.3-1.3-0.6-1.9-0.7L295,35.6z M291.9,35.5
	c0.5,0,1-0.1,1.6-0.1v-0.2l0,0.2c0.1,0,0.3,0,0.4,0l0-0.4c-0.1,0-0.3,0-0.4,0h0h0c-0.6,0-1.1,0-1.6,0.1L291.9,35.5z M288.7,36
	c0.6-0.2,1.3-0.3,1.9-0.4l-0.1-0.4c-0.7,0.1-1.4,0.2-2,0.4L288.7,36z M285.8,37.1c0.6-0.3,1.2-0.5,1.8-0.7l-0.1-0.4
	c-0.7,0.2-1.3,0.5-1.9,0.8L285.8,37.1z M283,38.7c0.5-0.4,1.1-0.7,1.7-1l-0.2-0.4c-0.6,0.3-1.2,0.7-1.7,1L283,38.7z M280.4,40.5
	c0.5-0.4,1-0.8,1.6-1.2l-0.2-0.3c-0.6,0.4-1.1,0.8-1.6,1.2L280.4,40.5z M277.9,42.5c0.5-0.4,1.1-0.8,1.6-1.2l-0.2-0.3
	c-0.6,0.4-1.1,0.8-1.6,1.2L277.9,42.5z M275.2,44.3c0.5-0.4,1.1-0.8,1.6-1.1l-0.2-0.3c-0.6,0.4-1.1,0.7-1.7,1.1L275.2,44.3z
	 M272.6,46.2c0.5-0.4,1.1-0.8,1.6-1.2l-0.2-0.3c-0.5,0.4-1.1,0.8-1.6,1.2L272.6,46.2z M270,48c0.6-0.4,1.1-0.8,1.6-1.2l-0.2-0.3
	c-0.5,0.4-1.1,0.8-1.6,1.1L270,48z M267.2,49.6c0.6-0.3,1.2-0.6,1.8-0.9l-0.2-0.3c-0.6,0.3-1.2,0.7-1.7,0.9L267.2,49.6z M264.1,50.5
	c0.7-0.1,1.3-0.2,2-0.5l-0.1-0.4c-0.6,0.2-1.3,0.4-1.9,0.4L264.1,50.5z M260.8,50.4c0.6,0.1,1.3,0.2,2,0.2l0-0.4
	c-0.7,0-1.4-0.1-2-0.2L260.8,50.4L260.8,50.4z M257.7,49.3c0.5,0.3,1.2,0.6,1.9,0.8l0.1-0.4c-0.7-0.2-1.3-0.5-1.8-0.8L257.7,49.3z
	 M255.5,46.9c0.3,0.6,0.7,1.2,1.2,1.7l0.3-0.3c-0.5-0.5-0.9-1-1.1-1.5L255.5,46.9z M254.8,43.7c0,0.7,0.1,1.4,0.3,2l0.4-0.1
	c-0.2-0.6-0.2-1.3-0.2-1.9L254.8,43.7z M255.2,40.5c-0.2,0.6-0.3,1.3-0.3,2l0.4,0c0.1-0.7,0.2-1.3,0.3-1.9L255.2,40.5L255.2,40.5z
	 M256.7,37.6c-0.4,0.5-0.8,1.1-1.1,1.8l0.4,0.2c0.3-0.6,0.6-1.2,1-1.7L256.7,37.6z M259.3,35.7c-0.6,0.3-1.2,0.6-1.8,1l0.3,0.3
	c0.5-0.4,1.1-0.7,1.7-1L259.3,35.7z M262.5,35c-0.2,0-0.3,0-0.5,0c-0.5,0-1,0.1-1.5,0.3l0.1,0.4c0.5-0.1,0.9-0.2,1.4-0.2
	c0.2,0,0.3,0,0.5,0L262.5,35z M265.7,35c-0.5,0-1-0.1-1.6-0.1c-0.1,0-0.3,0-0.4,0l0,0.4c0.1,0,0.3,0,0.4,0c0.5,0,1.1,0,1.6,0.1
	L265.7,35z M268.9,35.5c-0.6-0.2-1.3-0.3-2-0.4l-0.1,0.4c0.7,0.1,1.3,0.2,1.9,0.4L268.9,35.5z M272,36.5c-0.6-0.2-1.2-0.5-1.9-0.7
	l-0.1,0.4c0.7,0.2,1.3,0.4,1.9,0.7L272,36.5z M274.9,37.8c-0.6-0.2-1.2-0.5-1.8-0.8l-0.2,0.4c0.7,0.3,1.3,0.6,1.8,0.8L274.9,37.8z"
	/>
<rect x="274.8" y="38.9" fill="#FFFFFF" width="8.1" height="8.1"/>
<polygon points="274.8,38.9 274.8,39.1 282.7,39.1 282.7,46.8 275,46.8 275,38.9 274.8,38.9 274.8,39.1 274.8,38.9 274.6,38.9 
	274.6,47.3 283.2,47.3 283.2,38.7 274.6,38.7 274.6,38.9 "/>
<path d="M277.2,41.2c0.6,0,1-0.1,1.2-0.3c0.2-0.2,0.4-0.4,0.4-0.7h0.9V46h-1.1v-4h-1.4V41.2z"/>
<polygon points="323.9,35.1 323.9,30.8 353.3,30.8 368.9,30.8 368.9,35.1 369.3,35.1 369.3,30.6 369.1,30.4 353.3,30.4 323.7,30.4 
	323.5,30.6 323.5,35.1 "/>
<path d="M347.1,73.5h-2.7c-0.2-0.6-0.2-1.3-0.3-2l0-0.9c0-0.6-0.1-1-0.4-1.2c-0.2-0.2-0.7-0.4-1.5-0.4h-2.5v4.5h-2.4V62h5.9
	c1.1,0,2,0.3,2.7,0.9c0.7,0.6,1,1.4,1,2.4c0,1.3-0.6,2.2-1.8,2.7c0.6,0.3,1.1,0.6,1.2,1.1c0.2,0.4,0.2,1.2,0.2,2.1v0.5
	c0,0.4,0,0.8,0.1,1c0.1,0.3,0.2,0.4,0.4,0.5V73.5z M344.5,65.5c0-1-0.6-1.5-1.7-1.5h-3v3.1h2.8C343.9,67.1,344.5,66.6,344.5,65.5z"
	/>
<path d="M348.1,73.5l4.1-11.5h2.8l4.1,11.5h-2.6l-0.7-2.4h-4.3l-0.8,2.4H348.1z M352.1,69.1h2.9l-1.4-4.5L352.1,69.1z"/>
<path d="M329.3,39.7c0,0.8,0.4,1.2,1,1.2c0.3,0,0.6-0.1,0.8-0.3c0.2-0.2,0.3-0.5,0.3-0.8c0-0.4-0.1-0.6-0.4-0.8
	c-0.2-0.2-0.7-0.2-1.2-0.2v-1h0.2c0.8,0,1.2-0.3,1.2-0.9c0-0.3-0.1-0.5-0.2-0.7c-0.2-0.2-0.4-0.3-0.7-0.3c-0.6,0-1,0.4-1,1.1H328
	c0-0.7,0.2-1.3,0.6-1.7c0.4-0.4,1-0.6,1.7-0.6c0.7,0,1.2,0.2,1.6,0.5c0.4,0.3,0.6,0.8,0.6,1.4c0,0.6-0.3,1.1-0.9,1.4
	c0.7,0.3,1.1,0.9,1.1,1.7c0,0.7-0.2,1.2-0.7,1.6c-0.4,0.4-1.1,0.6-1.8,0.6c-0.8,0-1.4-0.2-1.8-0.6c-0.4-0.4-0.6-1-0.7-1.8H329.3z"/>
<path d="M361.8,40.4c0.3-0.4,0.8-1,1.6-1.5c0.6-0.5,1.1-0.8,1.2-1.1c0.2-0.2,0.2-0.5,0.2-0.8c0-0.3-0.1-0.5-0.3-0.7
	c-0.2-0.2-0.4-0.3-0.7-0.3c-0.4,0-0.6,0.1-0.8,0.3c-0.1,0.2-0.2,0.6-0.2,1h-1.4v-0.2c0-0.6,0.2-1.2,0.6-1.6c0.4-0.5,1-0.7,1.8-0.7
	c0.7,0,1.3,0.2,1.7,0.6c0.5,0.4,0.7,0.9,0.7,1.6c0,0.5-0.1,0.9-0.4,1.3c-0.2,0.4-0.7,0.8-1.4,1.3c-0.8,0.5-1.2,0.9-1.3,1.1h3.1v1.3
	h-4.9C361.4,41.3,361.6,40.8,361.8,40.4z"/>
<rect x="334.3" y="34.4" fill="#FFFFFF" width="8.1" height="8.1"/>
<polygon points="334.3,34.4 334.3,34.6 342.2,34.6 342.2,42.3 334.5,42.3 334.5,34.4 334.3,34.4 334.3,34.6 334.3,34.4 334.1,34.4 
	334.1,42.7 342.6,42.7 342.6,34.1 334.1,34.1 334.1,34.4 "/>
<path d="M336.6,36.6c0.6,0,1-0.1,1.2-0.3c0.2-0.2,0.4-0.4,0.4-0.7h0.9v5.8H338v-4h-1.4V36.6z"/>
<path fill="#FFFFFF" d="M360.6,38.4c0,2.2-1.8,4.1-4.1,4.1s-4.1-1.8-4.1-4.1c0-2.2,1.8-4.1,4.1-4.1S360.6,36.1,360.6,38.4z"/>
<path d="M360.6,38.4h-0.2c0,1.1-0.4,2-1.1,2.7c-0.7,0.7-1.7,1.1-2.7,1.1s-2-0.4-2.7-1.1c-0.7-0.7-1.1-1.7-1.1-2.7
	c0-1.1,0.4-2,1.1-2.7c0.7-0.7,1.7-1.1,2.7-1.1s2,0.4,2.7,1.1c0.7,0.7,1.1,1.7,1.1,2.7H360.6h0.2c0-2.4-1.9-4.3-4.3-4.3
	c-2.4,0-4.3,1.9-4.3,4.3c0,2.4,1.9,4.3,4.3,4.3c2.4,0,4.3-1.9,4.3-4.3H360.6z"/>
<path d="M354.6,36.3c0.6,0,1-0.1,1.3-0.3s0.4-0.4,0.4-0.7h1v5.8H356v-4h-1.5V36.3z"/>
<path d="M380.8,86.1v3.3h0.6v-3.3H380.8z M380.8,79.4v3.3h0.6v-3.3H380.8z M380.8,72.8v3.3h0.6v-3.3H380.8z M380.8,66.1v3.3h0.6
	v-3.3H380.8z M380.8,59.5v3.3h0.6v-3.3H380.8z M380.8,52.8v3.3h0.6v-3.3H380.8z M380.8,46.2v3.3h0.6v-3.3H380.8z M380.8,39.6v3.3
	h0.6v-3.3H380.8z M380.8,32.9v3.3h0.6v-3.3H380.8z M380.8,26.3v3.3h0.6v-3.3H380.8z"/>
<path d="M385.7,33.5h0.2c0.3,0.8,0.8,1.2,1.4,1.2c0.2,0,0.4-0.1,0.6-0.2c0.2-0.1,0.2-0.3,0.2-0.6c0-0.2-0.1-0.4-0.2-0.6
	c-0.2-0.2-0.4-0.3-0.8-0.6c-0.5-0.3-0.8-0.5-0.9-0.7c-0.1-0.2-0.2-0.4-0.2-0.6c0-0.3,0.1-0.6,0.3-0.8c0.2-0.2,0.5-0.3,0.9-0.3
	c0.2,0,0.3,0,0.5,0.1c0.2,0.1,0.3,0.1,0.4,0.1c0.1,0,0.1,0,0.2-0.1c0,0,0.1-0.1,0.1-0.2h0.1l0.1,1.4h-0.1c-0.1-0.3-0.2-0.5-0.4-0.8
	s-0.5-0.4-0.8-0.4c-0.2,0-0.4,0.1-0.5,0.2c-0.1,0.1-0.2,0.3-0.2,0.5c0,0.2,0.1,0.4,0.3,0.5c0.2,0.2,0.4,0.4,0.8,0.5
	c0.5,0.3,0.8,0.5,1,0.7c0.2,0.2,0.2,0.4,0.2,0.7c0,0.3-0.1,0.6-0.4,0.9c-0.3,0.2-0.6,0.4-1,0.4c-0.2,0-0.4,0-0.7-0.1
	c-0.2-0.1-0.3-0.1-0.4-0.1c-0.1,0-0.2,0.1-0.2,0.2h-0.2L385.7,33.5z"/>
<path d="M389.3,34.8c0.2,0,0.3,0,0.3-0.1c0.1-0.1,0.1-0.2,0.1-0.4v-1.6c0-0.2,0-0.3-0.1-0.4c0-0.1-0.1-0.1-0.2-0.1
	c-0.1,0-0.1,0-0.2,0v-0.1c0.5-0.2,0.8-0.3,1-0.4l0,0v0.5c0.2-0.2,0.4-0.3,0.5-0.4c0.1-0.1,0.3-0.1,0.4-0.1c0.2,0,0.4,0.1,0.6,0.3
	c0.1,0.2,0.2,0.4,0.2,0.7v1.5c0,0.2,0,0.3,0.1,0.4c0.1,0.1,0.2,0.1,0.4,0.1v0.1h-1.5v-0.1c0.1,0,0.2,0,0.3-0.1
	c0.1-0.1,0.1-0.2,0.1-0.5v-1.3c0-0.3,0-0.5-0.1-0.6c-0.1-0.1-0.2-0.2-0.4-0.2c-0.1,0-0.2,0-0.3,0.1c-0.1,0.1-0.2,0.2-0.4,0.3v1.9
	c0,0.2,0.2,0.4,0.5,0.4v0.1h-1.5V34.8z"/>
<path d="M394.4,32.9v-0.4c0-0.4-0.2-0.5-0.5-0.5c-0.1,0-0.2,0-0.3,0.1c-0.1,0.1-0.1,0.1-0.1,0.2c0,0,0,0.1,0,0.1c0,0,0,0.1,0,0.1
	c0,0.1,0,0.2-0.1,0.2c-0.1,0.1-0.1,0.1-0.2,0.1c-0.1,0-0.2,0-0.2-0.1c-0.1-0.1-0.1-0.1-0.1-0.2c0-0.2,0.1-0.3,0.3-0.5
	c0.2-0.2,0.5-0.2,0.8-0.2c0.4,0,0.6,0.1,0.8,0.2c0.2,0.2,0.2,0.4,0.2,0.8v1.4c0,0.1,0,0.2,0,0.3c0,0.1,0.1,0.1,0.1,0.1
	c0.1,0,0.1,0,0.2,0c0.1,0,0.1-0.1,0.1-0.1v0.2c-0.1,0.1-0.2,0.2-0.3,0.3c-0.1,0-0.2,0.1-0.3,0.1c-0.3,0-0.4-0.2-0.4-0.5
	c-0.3,0.3-0.7,0.5-1,0.5c-0.2,0-0.4-0.1-0.5-0.2c-0.1-0.1-0.2-0.3-0.2-0.5c0-0.3,0.1-0.6,0.4-0.8C393.5,33.3,393.9,33.1,394.4,32.9z
	 M394.4,33c-0.4,0.2-0.7,0.3-0.8,0.5c-0.1,0.1-0.2,0.3-0.2,0.5c0,0.2,0,0.3,0.1,0.4c0.1,0.1,0.2,0.1,0.3,0.1c0.1,0,0.2,0,0.3-0.1
	c0.1,0,0.2-0.1,0.2-0.2c0,0,0,0,0.1-0.1c0,0,0-0.1,0-0.2V33z"/>
<path d="M395.6,34.8c0.2,0,0.4-0.1,0.4-0.1c0.1-0.1,0.1-0.2,0.1-0.3V31c0-0.2,0-0.3-0.1-0.3c0,0-0.1-0.1-0.2-0.1c-0.1,0-0.1,0-0.2,0
	v-0.1c0.4-0.1,0.8-0.2,1-0.3l0,0v2.8l0.5-0.4c0.2-0.2,0.4-0.4,0.5-0.4c0.1-0.1,0.1-0.1,0.1-0.2c0,0,0-0.1-0.1-0.1c0,0-0.1,0-0.3,0
	v-0.1h1.4v0.1c-0.2,0-0.5,0.1-0.7,0.3c-0.2,0.2-0.4,0.3-0.6,0.5l-0.3,0.3l1,1.3c0.2,0.3,0.5,0.5,0.8,0.5v0.1h-1.5v-0.1h0.1
	c0.1,0,0.1,0,0.1,0c0,0,0,0,0-0.1c0,0,0,0,0-0.1c0,0,0-0.1-0.1-0.1l-0.9-1.3v1.2c0,0.1,0,0.2,0.1,0.3c0.1,0.1,0.2,0.1,0.4,0.1v0.1
	h-1.6V34.8z"/>
<path d="M399.5,33c0,0.4,0.1,0.8,0.3,1c0.2,0.3,0.4,0.4,0.8,0.4c0.4,0,0.8-0.2,1.1-0.7l0.1,0c-0.1,0.3-0.3,0.5-0.5,0.8
	s-0.5,0.3-0.9,0.3c-0.4,0-0.7-0.1-0.9-0.4c-0.2-0.3-0.3-0.6-0.3-1.1c0-0.5,0.1-0.9,0.4-1.2c0.3-0.3,0.6-0.4,1-0.4
	c0.3,0,0.6,0.1,0.8,0.3c0.2,0.2,0.3,0.5,0.4,0.9H399.5z M399.5,32.8h1.4c-0.1-0.5-0.3-0.8-0.6-0.8c-0.2,0-0.4,0.1-0.5,0.2
	C399.6,32.3,399.6,32.5,399.5,32.8z"/>
<polygon points="75.8,35.1 75.8,30.8 105.2,30.8 183.2,30.8 183.2,35.1 183.7,35.1 183.7,30.6 183.5,30.4 105.2,30.4 75.6,30.4 
	75.4,30.6 75.4,35.1 "/>
<path fill="#FFFFFF" d="M47.5,69.5c0,0.6-0.1,1.1-0.3,1.6c-0.2,0.5-0.5,0.9-0.9,1.3c-0.4,0.4-0.8,0.7-1.3,0.9
	c-0.5,0.2-1,0.3-1.6,0.3s-1.1-0.1-1.6-0.3c-0.5-0.2-0.9-0.5-1.3-0.9c-0.4-0.4-0.7-0.8-0.9-1.3c-0.2-0.5-0.3-1-0.3-1.6
	c0-0.6,0.1-1.1,0.3-1.6c0.2-0.5,0.5-0.9,0.9-1.3c0.4-0.4,0.8-0.7,1.3-0.9c0.5-0.2,1-0.3,1.6-0.3s1.1,0.1,1.6,0.3
	c0.5,0.2,0.9,0.5,1.3,0.9c0.4,0.4,0.7,0.8,0.9,1.3C47.4,68.4,47.5,68.9,47.5,69.5z"/>
<path d="M47.5,69.5h-0.2c0,0.5-0.1,1-0.3,1.5l0,0l0,0c-0.2,0.5-0.5,0.9-0.8,1.2c-0.3,0.3-0.8,0.6-1.2,0.8h0c-0.5,0.2-1,0.3-1.5,0.3
	c-0.5,0-1-0.1-1.5-0.3h0c-0.5-0.2-0.9-0.5-1.2-0.8c-0.3-0.3-0.6-0.8-0.8-1.2c-0.2-0.5-0.3-1-0.3-1.5c0-0.5,0.1-1,0.3-1.5h0
	c0.2-0.5,0.5-0.9,0.8-1.2l0,0l0,0c0.3-0.3,0.8-0.6,1.2-0.8l0,0l0,0c0.5-0.2,1-0.3,1.5-0.3c0.5,0,1,0.1,1.5,0.3h0
	c0.5,0.2,0.9,0.5,1.2,0.8l0,0l0,0c0.3,0.3,0.6,0.8,0.8,1.2h0c0.2,0.5,0.3,1,0.3,1.5H47.5h0.2c0-0.6-0.1-1.2-0.3-1.7h0
	c-0.2-0.5-0.5-1-0.9-1.4l0,0l0,0c-0.4-0.4-0.9-0.7-1.4-0.9l0,0l0,0c-0.5-0.2-1.1-0.3-1.7-0.3c-0.6,0-1.2,0.1-1.7,0.3h0
	c-0.5,0.2-1,0.5-1.4,0.9l0,0l0,0c-0.4,0.4-0.7,0.9-0.9,1.4h0c-0.2,0.5-0.3,1.1-0.3,1.7c0,0.6,0.1,1.2,0.3,1.7c0.2,0.5,0.5,1,0.9,1.4
	c0.4,0.4,0.9,0.7,1.4,0.9h0c0.5,0.2,1.1,0.3,1.7,0.3c0.6,0,1.2-0.1,1.7-0.3h0c0.5-0.2,1-0.5,1.4-0.9s0.7-0.9,0.9-1.4l0,0
	c0.2-0.5,0.3-1.1,0.3-1.7H47.5z"/>
<path d="M42.4,70.5c0,0.7,0.3,1,0.9,1c0.3,0,0.5-0.1,0.6-0.2c0.2-0.2,0.2-0.4,0.2-0.7c0-0.3-0.1-0.5-0.3-0.6c-0.2-0.1-0.6-0.2-1-0.2
	v-0.8H43c0.7,0,1-0.3,1-0.8c0-0.2-0.1-0.4-0.2-0.5c-0.1-0.1-0.3-0.2-0.6-0.2c-0.5,0-0.8,0.3-0.8,0.9h-1.1c0-0.6,0.2-1,0.5-1.3
	c0.3-0.3,0.8-0.5,1.4-0.5c0.6,0,1,0.1,1.4,0.4c0.4,0.3,0.5,0.7,0.5,1.2c0,0.5-0.2,0.9-0.7,1.1c0.6,0.2,0.9,0.7,0.9,1.3
	c0,0.5-0.2,1-0.6,1.3c-0.4,0.3-0.9,0.5-1.5,0.5c-0.7,0-1.2-0.2-1.5-0.5c-0.3-0.3-0.5-0.8-0.6-1.4H42.4z"/>
<path fill="#FFFFFF" d="M36.6,69.5c0,2.2-1.8,4.1-4.1,4.1s-4.1-1.8-4.1-4.1c0-2.2,1.8-4.1,4.1-4.1S36.6,67.2,36.6,69.5z"/>
<path d="M36.6,69.5h-0.2c0,1.1-0.4,2-1.1,2.7s-1.7,1.1-2.7,1.1c-1.1,0-2-0.4-2.7-1.1s-1.1-1.7-1.1-2.7c0-1.1,0.4-2,1.1-2.7
	c0.7-0.7,1.7-1.1,2.7-1.1c1.1,0,2,0.4,2.7,1.1c0.7,0.7,1.1,1.7,1.1,2.7H36.6h0.2c0-2.4-1.9-4.3-4.3-4.3c-2.4,0-4.3,1.9-4.3,4.3
	c0,2.4,1.9,4.3,4.3,4.3c2.4,0,4.3-1.9,4.3-4.3H36.6z"/>
<path d="M30.7,71c0.2-0.4,0.7-0.8,1.3-1.2c0.5-0.4,0.9-0.7,1-0.9c0.1-0.2,0.2-0.4,0.2-0.6c0-0.2-0.1-0.4-0.2-0.6
	c-0.1-0.2-0.3-0.3-0.6-0.3c-0.3,0-0.5,0.1-0.6,0.3c-0.1,0.2-0.2,0.5-0.2,0.8h-1.2v-0.2c0-0.5,0.2-0.9,0.5-1.3
	c0.3-0.4,0.8-0.6,1.5-0.6c0.6,0,1.1,0.2,1.5,0.5c0.4,0.3,0.6,0.8,0.6,1.3c0,0.4-0.1,0.7-0.3,1c-0.2,0.3-0.6,0.6-1.2,1
	c-0.6,0.4-1,0.7-1.1,0.9h2.6v1h-4.1C30.4,71.8,30.5,71.3,30.7,71z"/>
<rect x="28.5" y="41.2" fill="#FFFFFF" width="8.1" height="8.1"/>
<polygon points="28.5,41.2 28.5,41.4 36.4,41.4 36.4,49.1 28.7,49.1 28.7,41.2 28.5,41.2 28.5,41.4 28.5,41.2 28.3,41.2 28.3,49.5 
	36.9,49.5 36.9,40.9 28.3,40.9 28.3,41.2 "/>
<path d="M30.9,46.9c0.2-0.4,0.6-0.8,1.3-1.2c0.5-0.4,0.9-0.7,1-0.9c0.1-0.2,0.2-0.4,0.2-0.6c0-0.2-0.1-0.4-0.2-0.6
	c-0.1-0.2-0.3-0.3-0.6-0.3c-0.3,0-0.5,0.1-0.6,0.3c-0.1,0.2-0.2,0.5-0.2,0.8h-1.1v-0.2c0-0.5,0.2-0.9,0.5-1.3
	c0.3-0.4,0.8-0.6,1.4-0.6c0.6,0,1,0.2,1.4,0.5c0.4,0.3,0.6,0.8,0.6,1.3c0,0.4-0.1,0.7-0.3,1c-0.2,0.3-0.6,0.6-1.1,1
	c-0.6,0.4-1,0.7-1.1,0.9h2.5v1h-3.9C30.6,47.7,30.7,47.3,30.9,46.9z"/>
<rect x="39.4" y="41.2" fill="#FFFFFF" width="8.1" height="8.1"/>
<polygon points="39.4,41.2 39.4,41.4 47.3,41.4 47.3,49.1 39.6,49.1 39.6,41.2 39.4,41.2 39.4,41.4 39.4,41.2 39.1,41.2 39.1,49.5 
	47.7,49.5 47.7,40.9 39.1,40.9 39.1,41.2 "/>
<path d="M42.6,46.4c0,0.7,0.3,1,0.8,1c0.3,0,0.5-0.1,0.6-0.2c0.2-0.2,0.2-0.4,0.2-0.7c0-0.3-0.1-0.5-0.3-0.6c-0.2-0.1-0.5-0.2-1-0.2
	v-0.8h0.2c0.6,0,1-0.3,1-0.8c0-0.2-0.1-0.4-0.2-0.5c-0.1-0.1-0.3-0.2-0.6-0.2c-0.5,0-0.8,0.3-0.8,0.9h-1c0-0.6,0.2-1,0.5-1.3
	c0.3-0.3,0.8-0.5,1.4-0.5c0.5,0,1,0.1,1.3,0.4c0.3,0.3,0.5,0.7,0.5,1.2c0,0.5-0.2,0.9-0.7,1.1c0.6,0.2,0.9,0.7,0.9,1.3
	c0,0.5-0.2,1-0.5,1.3c-0.4,0.3-0.9,0.5-1.5,0.5c-0.6,0-1.1-0.2-1.5-0.5c-0.3-0.3-0.5-0.8-0.5-1.4H42.6z"/>
<path fill="#FFFFFF" d="M25.1,69.5c0,2.2-1.8,4.1-4.1,4.1S17,71.7,17,69.5c0-2.2,1.8-4.1,4.1-4.1S25.1,67.2,25.1,69.5z"/>
<path d="M25.1,69.5h-0.2c0,1.1-0.4,2-1.1,2.7c-0.7,0.7-1.7,1.1-2.7,1.1s-2-0.4-2.7-1.1c-0.7-0.7-1.1-1.7-1.1-2.7
	c0-1.1,0.4-2,1.1-2.7c0.7-0.7,1.7-1.1,2.7-1.1s2,0.4,2.7,1.1c0.7,0.7,1.1,1.7,1.1,2.7H25.1h0.2c0-2.4-1.9-4.3-4.3-4.3
	c-2.4,0-4.3,1.9-4.3,4.3c0,2.4,1.9,4.3,4.3,4.3c2.4,0,4.3-1.9,4.3-4.3H25.1z"/>
<path d="M19.1,67.4c0.6,0,1-0.1,1.3-0.3c0.2-0.2,0.4-0.4,0.4-0.7h1v5.8h-1.2v-4h-1.5V67.4z"/>
<rect x="17" y="41.2" fill="#FFFFFF" width="8.1" height="8.1"/>
<polygon points="17,41.2 17,41.4 24.9,41.4 24.9,49.1 17.2,49.1 17.2,41.2 17,41.2 17,41.4 17,41.2 16.8,41.2 16.8,49.5 25.4,49.5 
	25.4,40.9 16.8,40.9 16.8,41.2 "/>
<path d="M19.4,43.4c0.6,0,1-0.1,1.2-0.3c0.2-0.2,0.4-0.4,0.4-0.7h0.9v5.8h-1.1v-4h-1.4V43.4z"/>
<polyline points="279.8,61.5 280.7,62.3 279.6,64.6 282.5,62 278.9,60.6 279.8,61.5 "/>
<polygon points="279.8,61.5 280.7,62.3 279.6,64.6 279.6,64.6 282.5,62 282.5,62 278.9,60.6 278.9,60.6 279.8,61.5 279.8,61.5 
	278.9,60.6 282.5,62 279.6,64.6 280.7,62.3 280.7,62.3 279.8,61.5 "/>
<polyline points="283.4,80.3 283.7,81.5 281.5,82.8 285.4,82.2 283.1,79 283.4,80.3 "/>
<polygon points="283.4,80.3 283.7,81.5 281.5,82.8 281.5,82.8 285.4,82.2 285.4,82.2 283.1,79 283.1,79 283.4,80.3 283.4,80.3 
	283.1,79 285.4,82.2 281.5,82.8 283.7,81.5 283.7,81.5 283.4,80.3 "/>
<path d="M445.2,50.4c-0.1,0-0.3,0-0.4,0c-0.4,0-0.7,0-1.1,0.1l0,0.4c0.4,0,0.7-0.1,1-0.1c0.1,0,0.3,0,0.4,0L445.2,50.4z M448.4,51.3
	c-0.6-0.3-1.2-0.6-1.9-0.7l-0.1,0.4c0.7,0.1,1.3,0.4,1.8,0.7L448.4,51.3L448.4,51.3z M450.9,53.4c-0.4-0.5-0.9-1-1.4-1.5l-0.2,0.3
	c0.5,0.4,1,0.9,1.4,1.4L450.9,53.4z M452.4,56.3c-0.2-0.7-0.5-1.3-0.8-1.9l-0.3,0.2c0.3,0.6,0.6,1.2,0.8,1.8L452.4,56.3z M453,59.5
	c-0.1-0.7-0.2-1.4-0.3-2l-0.4,0.1c0.2,0.6,0.3,1.3,0.3,1.9L453,59.5z M452.9,62.7c0.1-0.7,0.2-1.3,0.2-2l-0.4,0c0,0.7-0.1,1.3-0.2,2
	L452.9,62.7z M452,65.8c0.3-0.6,0.5-1.3,0.7-1.9l-0.4-0.1c-0.2,0.6-0.4,1.3-0.7,1.9L452,65.8z M450.2,68.5c0.5-0.5,0.9-1,1.3-1.6
	l-0.3-0.2c-0.3,0.6-0.7,1.1-1.2,1.5L450.2,68.5z M447.4,70.3c0.7-0.3,1.3-0.6,1.8-1L449,69c-0.5,0.4-1.1,0.7-1.7,0.9L447.4,70.3z
	 M444.2,70.9c0.7,0,1.4-0.1,2-0.2l-0.1-0.4c-0.6,0.1-1.3,0.2-1.9,0.2V70.9z"/>
<path d="M408.4,49.1c-3,0-5.2,1.3-6.7,3.2c-1.5,1.9-2.2,4.5-2.2,7c0,2.5,0.7,5.1,2.1,7c1.4,1.9,3.5,3.2,6.2,3.2c0.4,0,0.7,0,1.1-0.1
	l0-0.4c-0.4,0-0.7,0.1-1,0.1c-2.6,0-4.5-1.2-5.9-3c-1.3-1.8-2-4.3-2-6.8c0-2.5,0.7-5,2.1-6.8c1.4-1.8,3.5-3.1,6.4-3.1V49.1z"/>
<polyline points="442.5,79.1 441.7,80.1 445,78.1 441.7,76.1 443.2,78.1 442.5,79.1 "/>
<polygon points="442.5,79.1 441.7,80.1 441.7,80.1 445,78.1 445,78.1 441.7,76.1 441.7,76.1 443.2,78.1 442.5,79.1 442.5,79.1 
	443.2,78.1 443.2,78.1 441.7,76.1 445,78.1 441.7,80.1 442.5,79.1 "/>
<path d="M444.7,77.9c-0.2,0-0.5,0-0.7,0c-4,0-7.4-1.8-10.5-4.5c-4.6-4.1-8.4-10.2-12-15.3c-1.8-2.6-3.6-4.9-5.5-6.6
	c-1.9-1.7-3.8-2.7-5.9-2.7c-0.6,0-1.1,0.1-1.7,0.2l0.1,0.4c0.6-0.1,1.1-0.2,1.6-0.2c2.6,0,5,1.8,7.4,4.5c3.6,4.1,7.1,10.2,11.3,15.3
	c4.1,5.1,9,9.3,15.2,9.3c0.2,0,0.5,0,0.7,0L444.7,77.9z"/>
<polyline points="445,40.3 445.8,39.3 442.5,41.4 445.8,43.4 444.3,41.4 445,40.3 "/>
<polygon points="445,40.3 445.8,39.3 445.8,39.3 442.5,41.4 442.5,41.4 445.8,43.4 445.8,43.4 444.3,41.4 445,40.3 445,40.3 
	444.3,41.4 444.3,41.4 445.8,43.4 442.5,41.4 445.8,39.3 445,40.3 "/>
<path d="M445.8,77.8c-0.4,0-0.7,0.1-1.1,0.1l0,0.4c0.4,0,0.7,0,1.1-0.1L445.8,77.8z M448.8,77.2c-0.6,0.2-1.3,0.4-1.9,0.5l0.1,0.4
	c0.7-0.1,1.3-0.3,2-0.5L448.8,77.2z M451.7,75.9c-0.6,0.3-1.1,0.6-1.8,0.9l0.2,0.4c0.6-0.3,1.2-0.6,1.8-0.9L451.7,75.9z M454.2,74
	c-0.5,0.4-1,0.9-1.5,1.2l0.2,0.3c0.6-0.4,1.1-0.8,1.6-1.3L454.2,74z M456.3,71.6c-0.4,0.5-0.8,1.1-1.2,1.5l0.3,0.3
	c0.5-0.5,0.9-1,1.3-1.6L456.3,71.6z M457.9,68.9c-0.3,0.6-0.6,1.2-0.9,1.7l0.3,0.2c0.4-0.6,0.7-1.2,1-1.8L457.9,68.9z M459,65.9
	c-0.2,0.6-0.4,1.3-0.6,1.9l0.4,0.1c0.2-0.6,0.5-1.3,0.7-1.9L459,65.9z M459.7,62.8c-0.1,0.7-0.2,1.3-0.4,2l0.4,0.1
	c0.2-0.7,0.3-1.3,0.4-2L459.7,62.8z M460,59.7c0,0.7,0,1.3-0.1,2l0.4,0c0.1-0.7,0.1-1.3,0.1-2L460,59.7z M459.8,56.5
	c0.1,0.7,0.1,1.3,0.2,2l0.4,0c0-0.7-0.1-1.3-0.2-2L459.8,56.5z M459.2,53.4c0.2,0.6,0.3,1.3,0.4,1.9l0.4-0.1c-0.1-0.7-0.3-1.3-0.4-2
	L459.2,53.4z M458.1,50.4c0.3,0.6,0.5,1.2,0.7,1.8l0.4-0.1c-0.2-0.6-0.5-1.3-0.7-1.9L458.1,50.4z M456.6,47.6c0.4,0.5,0.7,1.1,1,1.7
	l0.4-0.2c-0.3-0.6-0.7-1.2-1-1.7L456.6,47.6z M454.5,45.2c0.5,0.5,0.9,0.9,1.3,1.5l0.3-0.3c-0.4-0.5-0.9-1-1.4-1.5L454.5,45.2z
	 M452,43.3c0.6,0.3,1.1,0.7,1.6,1.1l0.3-0.3c-0.5-0.4-1.1-0.8-1.7-1.1L452,43.3z M449.1,42.1c0.6,0.2,1.3,0.4,1.8,0.7l0.2-0.4
	c-0.6-0.3-1.2-0.5-1.9-0.7L449.1,42.1z M446,41.5c0.7,0.1,1.3,0.1,2,0.3l0.1-0.4c-0.6-0.1-1.3-0.2-2-0.3L446,41.5z M442.8,41.6
	c0.7-0.1,1.3-0.1,1.9-0.1l0.1,0l0-0.4h-0.1c-0.6,0-1.3,0-1.9,0.1L442.8,41.6z"/>
<polyline points="409.7,40.8 410.5,39.8 407.1,41.8 410.5,43.9 408.9,41.8 409.7,40.8 "/>
<polygon points="409.7,40.8 410.5,39.8 410.5,39.8 407.1,41.8 407.1,41.8 410.5,43.9 410.5,43.9 408.9,41.8 409.7,40.8 409.7,40.8 
	408.9,41.8 408.9,41.8 410.5,43.9 407.1,41.8 410.5,39.8 409.7,40.8 "/>
<path d="M407.5,42c0.2,0,0.5,0,0.7,0c4,0,7.5,1.8,10.6,4.5c4.7,4.1,8.5,10.2,12.2,15.3c1.9,2.6,3.7,4.9,5.6,6.6
	c1.9,1.7,3.8,2.7,6,2.7c0.6,0,1.1-0.1,1.7-0.2l-0.1-0.4c-0.6,0.1-1.1,0.2-1.6,0.2c-2.6,0-5.1-1.8-7.5-4.5
	c-3.7-4.1-7.3-10.2-11.5-15.3c-4.2-5.1-9.1-9.3-15.3-9.3c-0.2,0-0.5,0-0.7,0L407.5,42z"/>
<polyline points="407.6,79.6 406.8,80.6 410.2,78.6 406.8,76.5 408.4,78.6 407.6,79.6 "/>
<polygon points="407.6,79.6 406.8,80.6 406.8,80.6 410.2,78.6 410.2,78.6 406.8,76.5 406.8,76.5 408.4,78.6 407.6,79.6 407.6,79.6 
	408.4,78.6 408.4,78.6 406.8,76.5 410.2,78.6 406.8,80.6 407.6,79.6 "/>
<path d="M409.8,78.4c-0.1,0-0.3,0-0.4,0c-5.4,0-9.6-2.4-12.4-6c-2.8-3.6-4.3-8.4-4.3-13.1c0-4.3,1.2-8.5,3.6-11.7
	c2.4-3.2,6.1-5.3,11.1-5.6l0-0.4c-5.1,0.2-8.9,2.5-11.4,5.7c-2.5,3.3-3.7,7.5-3.7,11.9c0,4.8,1.5,9.7,4.3,13.4
	c2.9,3.7,7.1,6.2,12.7,6.2c0.1,0,0.3,0,0.4,0L409.8,78.4z"/>
<path d="M442.1,41.6h0.7v-0.4h-0.7V41.6z M438.8,41.6h2v-0.4h-2V41.6z M435.5,41.6h2v-0.4h-2V41.6z M432.2,41.6h2v-0.4h-2V41.6z
	 M428.9,41.6h2v-0.4h-2V41.6z"/>
<polyline points="431.1,40.3 431.9,39.3 428.5,41.4 431.9,43.4 430.3,41.4 431.1,40.3 "/>
<polygon points="431.1,40.3 431.9,39.3 431.9,39.3 428.5,41.4 428.5,41.4 431.9,43.4 431.9,43.4 430.3,41.4 431.1,40.3 431.1,40.3 
	430.3,41.4 430.3,41.4 431.9,43.4 428.5,41.4 431.9,39.3 431.1,40.3 "/>
<polyline points="423.8,78.4 409.8,78.4 409.8,78.8 423.8,78.8 "/>
<polyline points="421.5,79.6 420.8,80.6 424.1,78.6 420.8,76.5 422.3,78.6 421.5,79.6 "/>
<polygon points="421.5,79.6 420.8,80.6 420.8,80.6 424.1,78.6 424.1,78.6 420.8,76.5 420.8,76.5 422.3,78.6 421.5,79.6 421.5,79.6 
	422.3,78.6 422.3,78.6 420.8,76.5 424.1,78.6 420.8,80.6 421.5,79.6 "/>
<polygon fill="#FFFFFF" points="447.9,46.9 439.8,46.9 439.8,55 447.9,55 "/>
<polygon points="447.9,46.9 447.9,46.6 439.5,46.6 439.5,55.3 448.2,55.3 448.2,46.6 447.9,46.6 447.9,46.9 447.7,46.9 447.7,54.8 
	440.1,54.8 440.1,47.2 447.9,47.2 447.9,46.9 447.7,46.9 "/>
<circle fill="#FFFFFF" cx="443.7" cy="69.3" r="4.1"/>
<path d="M443.7,65.3v0.3c1.1,0,2,0.4,2.7,1.1c0.7,0.7,1.1,1.6,1.1,2.7c0,1.1-0.4,2-1.1,2.7c-0.7,0.7-1.6,1.1-2.7,1.1
	c-1.1,0-2-0.4-2.7-1.1c-0.7-0.7-1.1-1.6-1.1-2.7c0-2.1,1.7-3.8,3.8-3.8V65.3V65c-2.4,0-4.3,1.9-4.3,4.3c0,2.4,1.9,4.3,4.3,4.3
	c2.4,0,4.3-1.9,4.3-4.3c0-2.4-1.9-4.3-4.3-4.3V65.3z"/>
<circle fill="#FFFFFF" cx="431.9" cy="59.6" r="4.1"/>
<path d="M431.9,55.5v0.3c1.1,0,2,0.4,2.7,1.1s1.1,1.6,1.1,2.7c0,1.1-0.4,2-1.1,2.7c-0.7,0.7-1.6,1.1-2.7,1.1c-1.1,0-2-0.4-2.7-1.1
	c-0.7-0.7-1.1-1.6-1.1-2.7c0-2.1,1.7-3.8,3.8-3.8V55.5v-0.3c-2.4,0-4.3,1.9-4.3,4.3s1.9,4.3,4.3,4.3c2.4,0,4.3-1.9,4.3-4.3
	s-1.9-4.3-4.3-4.3V55.5z"/>
<circle fill="#FFFFFF" cx="409" cy="69.3" r="4.1"/>
<path d="M409,65.3v0.3c1.1,0,2,0.4,2.7,1.1c0.7,0.7,1.1,1.6,1.1,2.7c0,1.1-0.4,2-1.1,2.7c-0.7,0.7-1.6,1.1-2.7,1.1
	c-1.1,0-2-0.4-2.7-1.1c-0.7-0.7-1.1-1.6-1.1-2.7c0-1.1,0.4-2,1.1-2.7c0.7-0.7,1.6-1.1,2.7-1.1V65.3V65c-2.4,0-4.3,1.9-4.3,4.3
	s1.9,4.3,4.3,4.3c2.4,0,4.3-1.9,4.3-4.3S411.3,65,409,65V65.3z"/>
<rect x="404.9" y="46.9" transform="matrix(1 1.442046e-003 -1.442046e-003 1 7.388306e-002 -0.5897)" fill="#FFFFFF" width="8.1" height="8.1"/>
<polygon points="413,46.9 413.1,46.6 404.7,46.6 404.6,55.3 413.3,55.3 413.3,46.6 413.1,46.6 413,46.9 412.8,46.9 412.8,54.8 
	405.2,54.8 405.2,47.2 413,47.2 413,46.9 412.8,46.9 "/>
<polygon fill="#FFFFFF" points="426.5,58.9 419.1,55.5 415.8,62.9 423.2,66.3 "/>
<polygon points="426.5,58.9 426.6,58.6 419,55.2 415.4,63.1 423.3,66.6 426.9,58.8 426.6,58.6 426.5,58.9 426.3,58.8 423,65.9 
	416.1,62.8 419.2,55.9 426.4,59.1 426.5,58.9 426.3,58.8 "/>
<path d="M407.8,52c0,0.7,0.3,1,0.8,1c0.3,0,0.5-0.1,0.6-0.2c0.2-0.2,0.2-0.4,0.2-0.7c0-0.3-0.1-0.5-0.3-0.6c-0.2-0.1-0.5-0.2-1-0.2
	v-0.8h0.2c0.6,0,1-0.3,1-0.8c0-0.2-0.1-0.4-0.2-0.5c-0.1-0.1-0.3-0.2-0.6-0.2c-0.5,0-0.8,0.3-0.8,0.9h-1c0-0.6,0.2-1,0.5-1.3
	c0.3-0.3,0.8-0.5,1.4-0.5c0.5,0,1,0.1,1.3,0.4c0.3,0.3,0.5,0.7,0.5,1.2c0,0.5-0.2,0.9-0.7,1.1c0.6,0.2,0.9,0.7,0.9,1.3
	c0,0.5-0.2,1-0.5,1.3c-0.4,0.3-0.9,0.5-1.5,0.5c-0.6,0-1.1-0.2-1.5-0.5c-0.3-0.3-0.5-0.8-0.5-1.4H407.8z"/>
<path d="M408.1,70.3c0,0.7,0.3,1,0.8,1c0.3,0,0.5-0.1,0.6-0.2c0.2-0.2,0.2-0.4,0.2-0.7c0-0.3-0.1-0.5-0.3-0.6
	c-0.2-0.1-0.5-0.2-1-0.2v-0.8h0.2c0.6,0,1-0.3,1-0.8c0-0.2-0.1-0.4-0.2-0.5c-0.1-0.1-0.3-0.2-0.6-0.2c-0.5,0-0.8,0.3-0.8,0.9h-1
	c0-0.6,0.2-1,0.5-1.3c0.3-0.3,0.8-0.5,1.4-0.5c0.5,0,1,0.1,1.3,0.4c0.3,0.3,0.5,0.7,0.5,1.2c0,0.5-0.2,0.9-0.7,1.1
	c0.6,0.2,0.9,0.7,0.9,1.3c0,0.5-0.2,1-0.5,1.3c-0.4,0.3-0.9,0.5-1.5,0.5c-0.6,0-1.1-0.2-1.5-0.5c-0.3-0.3-0.5-0.8-0.5-1.4H408.1z"/>
<path d="M442.3,52.5c0.2-0.4,0.6-0.8,1.3-1.2c0.5-0.4,0.9-0.7,1-0.9c0.1-0.2,0.2-0.4,0.2-0.6c0-0.2-0.1-0.4-0.2-0.6
	c-0.1-0.2-0.3-0.3-0.6-0.3c-0.3,0-0.5,0.1-0.6,0.3c-0.1,0.2-0.2,0.5-0.2,0.8h-1.1v-0.2c0-0.5,0.2-0.9,0.5-1.3
	c0.3-0.4,0.8-0.6,1.4-0.6c0.6,0,1,0.2,1.4,0.5c0.4,0.3,0.6,0.8,0.6,1.3c0,0.4-0.1,0.7-0.3,1c-0.2,0.3-0.6,0.6-1.1,1
	c-0.6,0.4-1,0.7-1.1,0.9h2.5v1H442C442,53.3,442.1,52.9,442.3,52.5z"/>
<path d="M441.9,70.8c0.2-0.4,0.6-0.8,1.3-1.2c0.5-0.4,0.9-0.7,1-0.9c0.1-0.2,0.2-0.4,0.2-0.6c0-0.2-0.1-0.4-0.2-0.6
	c-0.1-0.2-0.3-0.3-0.6-0.3c-0.3,0-0.5,0.1-0.6,0.3c-0.1,0.2-0.2,0.5-0.2,0.8h-1.1v-0.2c0-0.5,0.2-0.9,0.5-1.3
	c0.3-0.4,0.8-0.6,1.4-0.6c0.6,0,1,0.2,1.4,0.5c0.4,0.3,0.6,0.8,0.6,1.3c0,0.4-0.1,0.7-0.3,1c-0.2,0.3-0.6,0.6-1.1,1
	c-0.6,0.4-1,0.7-1.1,0.9h2.5v1h-3.9C441.6,71.6,441.7,71.2,441.9,70.8z"/>
<path d="M429.9,57.8c0.6,0,1-0.1,1.2-0.3c0.2-0.2,0.4-0.4,0.4-0.7h0.9v5.8h-1.1v-4h-1.4V57.8z"/>
<path d="M419.3,59c0.6,0,1-0.1,1.2-0.3c0.2-0.2,0.4-0.4,0.4-0.7h0.9v5.8h-1.1v-4h-1.4V59z"/>
<polyline points="271.2,35.2 272.2,34.4 268.4,35.4 271.1,38.3 270.2,35.9 271.2,35.2 "/>
<polygon points="271.2,35.2 272.2,34.4 272.2,34.4 268.4,35.4 268.4,35.4 271.1,38.3 271.1,38.3 270.2,35.9 271.2,35.2 271.2,35.2 
	270.2,35.9 270.2,35.9 271.1,38.3 268.4,35.4 272.2,34.4 271.2,35.2 "/>
<polyline points="274.8,54.7 275.1,53.4 272.8,56.7 276.7,57.2 274.5,55.9 274.8,54.7 "/>
<polygon points="274.8,54.7 275.1,53.4 275.1,53.4 272.8,56.7 272.8,56.7 276.7,57.2 276.7,57.2 274.5,55.9 274.8,54.7 274.8,54.7 
	274.5,55.9 274.5,55.9 276.7,57.2 272.8,56.7 275.1,53.4 274.8,54.7 "/>
<path d="M75,67.7c-0.1,0.4-0.1,0.8-0.1,1.3c0,1.6,0.7,2.9,1.7,3.7c1.1,0.8,2.5,1.2,4.1,1.2c1.6,0,3-0.4,4.1-1.2
	c1.1-0.8,1.7-2.1,1.7-3.7c0-1.1-0.3-2.1-0.9-3l-0.5,0.3c0.5,0.8,0.8,1.8,0.8,2.7c0,1.4-0.6,2.5-1.5,3.2c-0.9,0.7-2.2,1.1-3.7,1.1
	c-1.5,0-2.8-0.4-3.7-1.1c-0.9-0.7-1.5-1.8-1.5-3.2c0-0.4,0-0.8,0.1-1.1L75,67.7z"/>
<polygon fill-rule="evenodd" clip-rule="evenodd" points="84.8,69.4 85.6,64.9 87,69.3 "/>
<polygon points="84.8,69.4 84.9,69.5 85.7,65.5 86.9,69.2 84.8,69.3 84.8,69.4 84.9,69.5 84.8,69.4 84.8,69.6 87.2,69.4 85.6,64.3 
	84.6,69.6 84.8,69.6 "/>
<path d="M78.4,69.9c0.3-0.4,0.8-1,1.6-1.5c0.6-0.5,1.1-0.8,1.2-1.1c0.2-0.2,0.2-0.5,0.2-0.8c0-0.3-0.1-0.5-0.3-0.7
	c-0.2-0.2-0.4-0.3-0.7-0.3c-0.4,0-0.6,0.1-0.8,0.3c-0.1,0.2-0.2,0.6-0.2,1h-1.4v-0.2c0-0.6,0.2-1.2,0.6-1.6c0.4-0.5,1-0.7,1.8-0.7
	c0.7,0,1.3,0.2,1.7,0.6c0.5,0.4,0.7,0.9,0.7,1.6c0,0.5-0.1,0.9-0.4,1.3c-0.2,0.4-0.7,0.8-1.4,1.3c-0.8,0.5-1.2,0.9-1.3,1.1h3.1v1.3
	H78C78,70.8,78.2,70.3,78.4,69.9z"/>
<path d="M78.1,79.5c0.3,0,0.4-0.1,0.5-0.2c0.1-0.1,0.1-0.3,0.1-0.5v-2.9c0-0.2,0-0.4-0.1-0.4c-0.1-0.1-0.2-0.1-0.4-0.2l-0.2,0v-0.1
	H80c0.5,0,1,0.1,1.2,0.3c0.3,0.2,0.4,0.5,0.4,0.9c0,0.3-0.1,0.6-0.3,0.8c-0.2,0.2-0.5,0.3-0.9,0.4l1.3,1.6c0.1,0.1,0.2,0.2,0.3,0.3
	c0.1,0.1,0.2,0.1,0.4,0.1v0.1h-1.1l-1.6-2.1l-0.4,0v1.3c0,0.2,0,0.4,0.1,0.5c0.1,0.1,0.2,0.2,0.5,0.2v0.1h-1.9V79.5z M79.4,77.3
	L79.4,77.3c1.1,0,1.6-0.3,1.6-1c0-0.6-0.4-0.9-1.1-0.9h-0.1c-0.1,0-0.2,0-0.3,0.1c0,0-0.1,0.1-0.1,0.2V77.3z"/>
<path d="M87.4,73.8l3.8-5.9l-3.5-5.6h2.9l2,3.7l2.1-3.7h2.8l-3.5,5.5l3.7,6h-2.9l-2.2-3.9l-2.3,3.9H87.4z"/>
<path d="M132.4,79.5c0.3,0,0.4-0.1,0.5-0.2c0.1-0.1,0.1-0.3,0.1-0.5v-2.9c0-0.2,0-0.4-0.1-0.4c-0.1-0.1-0.2-0.1-0.4-0.2l-0.2,0v-0.1
	h1.9c0.5,0,1,0.1,1.2,0.3c0.3,0.2,0.4,0.5,0.4,0.9c0,0.3-0.1,0.6-0.3,0.8c-0.2,0.2-0.5,0.3-0.9,0.4l1.3,1.6c0.1,0.1,0.2,0.2,0.3,0.3
	c0.1,0.1,0.2,0.1,0.4,0.1v0.1h-1.1l-1.6-2.1l-0.4,0v1.3c0,0.2,0,0.4,0.1,0.5c0.1,0.1,0.2,0.2,0.5,0.2v0.1h-1.9V79.5z M133.7,77.3
	L133.7,77.3c1.1,0,1.6-0.3,1.6-1c0-0.6-0.4-0.9-1.1-0.9h-0.1c-0.1,0-0.2,0-0.3,0.1c0,0-0.1,0.1-0.1,0.2V77.3z"/>
</svg>
