<?xml version='1.0' encoding='utf-8' standalone='no'?>
<!DOCTYPE svg PUBLIC '-//W3C//DTD SVG 1.1//EN' 'http://www.w3.org/Graphics/SVG/1.1/DTD/svg11.dtd'>
<svg version="1.1" viewBox="-0.028 -0.352 470 106" xmlns='http://www.w3.org/2000/svg'>
<defs>
</defs>
<path fill="#1A171B" d="M5.734,6.431h9.305V7.79h-3.875v10.141H9.609V7.79H5.734V6.431z"/>
<path fill="#1A171B" d="M16.711,6.431h1.555v11.5h-1.555V6.431z"/>
<path fill="#1A171B" d="M29.125,13.728h1.508c-0.266,1.5-0.831,2.625-1.695,3.375c-0.865,0.75-1.977,1.125-3.336,1.125
	c-1.558,0-2.813-0.542-3.766-1.625c-0.953-1.089-1.43-2.563-1.43-4.422c0-1.839,0.484-3.305,1.453-4.398
	c0.974-1.099,2.292-1.648,3.953-1.648c1.255,0,2.292,0.313,3.109,0.938c0.823,0.62,1.352,1.558,1.586,2.813H29
	c-0.401-1.594-1.466-2.391-3.195-2.391c-1.13,0-2.047,0.403-2.75,1.211c-0.698,0.808-1.047,1.979-1.047,3.516
	c0,1.417,0.313,2.547,0.938,3.391c0.625,0.839,1.555,1.258,2.789,1.258c0.896,0,1.627-0.266,2.195-0.797
	C28.502,15.535,28.901,14.754,29.125,13.728z"/>
<path fill="#1A171B" d="M32.469,17.931v-11.5h1.555v5.57l5.617-5.57h2.133l-4.766,4.586l4.891,6.914h-2.016l-4.016-5.75
	l-1.844,1.711v4.039H32.469z"/>
<path fill="#1A171B" d="M46.625,6.431h9.305V7.79h-3.875v10.141H50.5V7.79h-3.875V6.431z"/>
<path fill="#1A171B" d="M56.781,12.181c0-1.729,0.495-3.169,1.484-4.32c0.995-1.151,2.372-1.727,4.133-1.727
	c1.75,0,3.122,0.583,4.117,1.75c0.995,1.161,1.492,2.563,1.492,4.203c0,1.808-0.495,3.284-1.484,4.43
	c-0.99,1.141-2.367,1.711-4.133,1.711c-1.651,0-3-0.542-4.047-1.625C57.302,15.514,56.781,14.04,56.781,12.181z M58.383,12.181
	c0,1.344,0.352,2.461,1.055,3.352c0.708,0.891,1.695,1.336,2.961,1.336c1.156,0,2.112-0.417,2.867-1.25
	c0.76-0.839,1.141-1.984,1.141-3.438c0-1.391-0.357-2.519-1.07-3.383c-0.714-0.87-1.695-1.305-2.945-1.305
	c-1.183,0-2.146,0.419-2.891,1.258C58.755,9.59,58.383,10.732,58.383,12.181z"/>
<path fill="#1A171B" d="M78.016,13.728h1.508c-0.266,1.5-0.831,2.625-1.695,3.375c-0.865,0.75-1.977,1.125-3.336,1.125
	c-1.558,0-2.813-0.542-3.766-1.625c-0.953-1.089-1.43-2.563-1.43-4.422c0-1.839,0.484-3.305,1.453-4.398
	c0.974-1.099,2.292-1.648,3.953-1.648c1.255,0,2.292,0.313,3.109,0.938c0.823,0.62,1.352,1.558,1.586,2.813h-1.508
	c-0.401-1.594-1.466-2.391-3.195-2.391c-1.13,0-2.047,0.403-2.75,1.211c-0.698,0.808-1.047,1.979-1.047,3.516
	c0,1.417,0.313,2.547,0.938,3.391c0.625,0.839,1.555,1.258,2.789,1.258c0.896,0,1.627-0.266,2.195-0.797
	C77.393,15.535,77.792,14.754,78.016,13.728z"/>
<path fill="#1A171B" d="M81.359,17.931v-11.5h1.555v5.57l5.617-5.57h2.133l-4.766,4.586l4.891,6.914h-2.016l-4.016-5.75
	l-1.844,1.711v4.039H81.359z"/>
<path fill="#1A171B" d="M101.438,13.095v-1.336h5.078v6.172H105.5l-0.367-1.453c-0.365,0.479-0.875,0.891-1.531,1.234
	s-1.438,0.516-2.344,0.516c-1.537,0-2.792-0.558-3.766-1.672c-0.969-1.114-1.453-2.526-1.453-4.234c0-1.771,0.477-3.245,1.43-4.422
	s2.271-1.766,3.953-1.766c1.25,0,2.331,0.325,3.242,0.977c0.911,0.651,1.463,1.575,1.656,2.773h-1.508
	c-0.245-0.833-0.651-1.44-1.219-1.82c-0.563-0.38-1.269-0.57-2.117-0.57c-1.13,0-2.052,0.409-2.766,1.227
	c-0.714,0.817-1.07,1.995-1.07,3.531c0,1.433,0.313,2.56,0.938,3.383c0.63,0.823,1.594,1.234,2.891,1.234
	c1.047,0,1.906-0.308,2.578-0.922c0.677-0.62,1.016-1.57,1.016-2.852H101.438z"/>
<path fill="#1A171B" d="M108.344,12.181c0-1.729,0.495-3.169,1.484-4.32c0.995-1.151,2.372-1.727,4.133-1.727
	c1.75,0,3.122,0.583,4.117,1.75c0.995,1.161,1.492,2.563,1.492,4.203c0,1.808-0.495,3.284-1.484,4.43
	c-0.99,1.141-2.367,1.711-4.133,1.711c-1.651,0-3-0.542-4.047-1.625C108.864,15.514,108.344,14.04,108.344,12.181z M109.945,12.181
	c0,1.344,0.352,2.461,1.055,3.352c0.708,0.891,1.695,1.336,2.961,1.336c1.156,0,2.112-0.417,2.867-1.25
	c0.76-0.839,1.141-1.984,1.141-3.438c0-1.391-0.357-2.519-1.07-3.383c-0.714-0.87-1.695-1.305-2.945-1.305
	c-1.183,0-2.146,0.419-2.891,1.258C110.317,9.59,109.945,10.732,109.945,12.181z"/>
<path fill="#1A171B" d="M121.539,17.931v-11.5h8.43V7.79h-6.875v3.57h6.344v1.359h-6.344v3.852h7v1.359H121.539z"/>
<path fill="#1A171B" d="M133.031,14.228c0.083,1.761,1.167,2.641,3.25,2.641c0.953,0,1.677-0.161,2.172-0.484
	c0.495-0.328,0.742-0.839,0.742-1.531c0-0.442-0.138-0.81-0.414-1.102c-0.271-0.297-0.945-0.573-2.023-0.828l-2.375-0.531
	c-0.755-0.188-1.349-0.497-1.781-0.93c-0.433-0.438-0.648-1.044-0.648-1.82c0-1.058,0.352-1.906,1.055-2.547
	c0.708-0.641,1.719-0.961,3.031-0.961c1.203,0,2.2,0.284,2.992,0.852c0.797,0.567,1.229,1.492,1.297,2.773h-1.453
	c-0.151-1.511-1.102-2.266-2.852-2.266c-0.766,0-1.386,0.167-1.859,0.5c-0.469,0.333-0.703,0.823-0.703,1.469
	c0,0.375,0.112,0.688,0.336,0.938c0.224,0.25,0.648,0.442,1.273,0.578l3.023,0.727c0.87,0.192,1.521,0.539,1.953,1.039
	c0.438,0.495,0.656,1.169,0.656,2.023c0,1.12-0.412,1.977-1.234,2.57c-0.823,0.594-1.945,0.891-3.367,0.891
	c-1.484,0-2.609-0.362-3.375-1.086s-1.148-1.695-1.148-2.914H133.031z"/>
<path fill="#1A171B" d="M146.195,6.431h9.305V7.79h-3.875v10.141h-1.555V7.79h-3.875V6.431z"/>
<path fill="#1A171B" d="M156.953,6.431h1.555v4.75h5.945v-4.75h1.555v11.5h-1.555V12.54h-5.945v5.391h-1.555V6.431z"/>
<path fill="#1A171B" d="M168.656,17.931v-11.5h8.43V7.79h-6.875v3.57h6.344v1.359h-6.344v3.852h7v1.359H168.656z"/>
<path fill="#1A171B" d="M191.813,13.728h1.508c-0.266,1.5-0.831,2.625-1.695,3.375c-0.865,0.75-1.977,1.125-3.336,1.125
	c-1.558,0-2.813-0.542-3.766-1.625c-0.953-1.089-1.43-2.563-1.43-4.422c0-1.839,0.484-3.305,1.453-4.398
	c0.974-1.099,2.292-1.648,3.953-1.648c1.255,0,2.292,0.313,3.109,0.938c0.823,0.62,1.352,1.558,1.586,2.813h-1.508
	c-0.401-1.594-1.466-2.391-3.195-2.391c-1.13,0-2.047,0.403-2.75,1.211c-0.698,0.808-1.047,1.979-1.047,3.516
	c0,1.417,0.313,2.547,0.938,3.391c0.625,0.839,1.555,1.258,2.789,1.258c0.896,0,1.627-0.266,2.195-0.797
	C191.19,15.535,191.588,14.754,191.813,13.728z"/>
<path fill="#1A171B" d="M195.156,6.431h1.555v10.141h5.875v1.359h-7.43V6.431z"/>
<path fill="#1A171B" d="M203.477,12.181c0-1.729,0.495-3.169,1.484-4.32c0.995-1.151,2.372-1.727,4.133-1.727
	c1.75,0,3.122,0.583,4.117,1.75c0.995,1.161,1.492,2.563,1.492,4.203c0,1.808-0.495,3.284-1.484,4.43
	c-0.99,1.141-2.367,1.711-4.133,1.711c-1.651,0-3-0.542-4.047-1.625C203.997,15.514,203.477,14.04,203.477,12.181z M205.078,12.181
	c0,1.344,0.352,2.461,1.055,3.352c0.708,0.891,1.695,1.336,2.961,1.336c1.156,0,2.112-0.417,2.867-1.25
	c0.76-0.839,1.141-1.984,1.141-3.438c0-1.391-0.357-2.519-1.07-3.383c-0.714-0.87-1.695-1.305-2.945-1.305
	c-1.183,0-2.146,0.419-2.891,1.258C205.45,9.59,205.078,10.732,205.078,12.181z"/>
<path fill="#1A171B" d="M224.711,13.728h1.508c-0.266,1.5-0.831,2.625-1.695,3.375c-0.865,0.75-1.977,1.125-3.336,1.125
	c-1.558,0-2.813-0.542-3.766-1.625c-0.953-1.089-1.43-2.563-1.43-4.422c0-1.839,0.484-3.305,1.453-4.398
	c0.974-1.099,2.292-1.648,3.953-1.648c1.255,0,2.292,0.313,3.109,0.938c0.823,0.62,1.352,1.558,1.586,2.813h-1.508
	c-0.401-1.594-1.466-2.391-3.195-2.391c-1.13,0-2.047,0.403-2.75,1.211c-0.698,0.808-1.047,1.979-1.047,3.516
	c0,1.417,0.313,2.547,0.938,3.391c0.625,0.839,1.555,1.258,2.789,1.258c0.896,0,1.627-0.266,2.195-0.797
	C224.088,15.535,224.487,14.754,224.711,13.728z"/>
<path fill="#1A171B" d="M228.055,17.931v-11.5h1.555v5.57l5.617-5.57h2.133l-4.766,4.586l4.891,6.914h-2.016l-4.016-5.75
	l-1.844,1.711v4.039H228.055z"/>
<line fill="none" stroke="#000000" stroke-width="1.1112" stroke-miterlimit="10" x1="283.186" y1="26.109" x2="283.186" y2="92.595"/>
<path d="M184.124,88.799l-0.059-0.127c0.209-0.136,0.354-0.263,0.434-0.382c0.083-0.122,0.124-0.223,0.124-0.301
	c0-0.039-0.009-0.065-0.026-0.078c-0.015-0.016-0.038-0.023-0.069-0.023c-0.011,0-0.031,0.005-0.062,0.014
	c-0.028,0.006-0.063,0.01-0.104,0.01c-0.133,0-0.237-0.027-0.313-0.082c-0.074-0.057-0.111-0.141-0.111-0.251
	c0-0.124,0.038-0.219,0.114-0.284c0.076-0.067,0.169-0.102,0.278-0.102c0.152,0,0.282,0.056,0.388,0.167
	c0.107,0.108,0.16,0.26,0.16,0.453c0,0.198-0.085,0.398-0.255,0.602C184.456,88.617,184.29,88.745,184.124,88.799z M185.691,88.799
	l-0.059-0.127c0.218-0.138,0.365-0.268,0.441-0.392c0.079-0.125,0.118-0.222,0.118-0.291c0-0.039-0.009-0.065-0.026-0.078
	c-0.015-0.016-0.038-0.023-0.068-0.023c-0.011,0-0.032,0.005-0.062,0.014c-0.028,0.006-0.063,0.01-0.104,0.01
	c-0.133,0-0.237-0.027-0.313-0.082c-0.074-0.057-0.111-0.141-0.111-0.251c0-0.124,0.038-0.219,0.114-0.284
	c0.076-0.067,0.168-0.102,0.277-0.102c0.157,0,0.287,0.057,0.392,0.17s0.157,0.264,0.157,0.45c0,0.205-0.085,0.407-0.254,0.607
	C186.023,88.619,185.856,88.745,185.691,88.799z"/>
<path d="M186.723,84.594l0.042-1.149h3.731l0.042,1.149h-0.15c-0.072-0.37-0.177-0.61-0.316-0.722
	c-0.137-0.11-0.341-0.166-0.61-0.166h-0.49v3.425c0,0.234,0.036,0.392,0.107,0.47c0.074,0.078,0.179,0.124,0.313,0.138l0.196,0.02
	v0.127h-1.917v-0.127l0.17-0.02c0.179-0.022,0.297-0.073,0.356-0.154c0.061-0.082,0.091-0.251,0.091-0.506v-3.372h-0.467
	c-0.351,0-0.586,0.082-0.708,0.248c-0.122,0.163-0.202,0.376-0.242,0.64H186.723z"/>
<path d="M190.918,87.885v-0.102c0.159-0.009,0.275-0.041,0.35-0.098c0.076-0.059,0.114-0.218,0.114-0.477v-1.587
	c0-0.144-0.018-0.245-0.052-0.304c-0.033-0.059-0.082-0.088-0.147-0.088c-0.042,0-0.081,0.002-0.118,0.007
	c-0.037,0.004-0.086,0.011-0.147,0.02v-0.102c0.335-0.113,0.668-0.233,0.999-0.362l0.026,0.02v2.396
	c0,0.232,0.032,0.384,0.098,0.454c0.067,0.067,0.189,0.107,0.366,0.12v0.102H190.918z M191.268,83.667
	c0-0.092,0.032-0.171,0.098-0.238c0.067-0.067,0.149-0.102,0.245-0.102c0.093,0,0.174,0.032,0.241,0.098s0.102,0.142,0.102,0.229
	c0,0.109-0.034,0.196-0.102,0.262c-0.067,0.063-0.15,0.095-0.248,0.095c-0.096,0-0.176-0.033-0.242-0.099
	C191.299,83.844,191.268,83.763,191.268,83.667z"/>
<path d="M195.215,86.85l0.098,0.059c-0.113,0.257-0.285,0.494-0.516,0.712c-0.229,0.218-0.505,0.327-0.829,0.327
	c-0.373,0-0.676-0.142-0.911-0.425c-0.235-0.283-0.353-0.639-0.353-1.067c0-0.479,0.143-0.875,0.428-1.188
	c0.285-0.315,0.644-0.474,1.077-0.474c0.259,0,0.49,0.065,0.692,0.196c0.205,0.128,0.307,0.292,0.307,0.492
	c0,0.099-0.03,0.174-0.091,0.226c-0.061,0.053-0.135,0.078-0.222,0.078c-0.107,0-0.191-0.061-0.251-0.183
	c-0.059-0.124-0.097-0.232-0.114-0.326c-0.011-0.055-0.041-0.116-0.088-0.187c-0.045-0.069-0.161-0.104-0.346-0.104
	c-0.226,0-0.429,0.104-0.607,0.311c-0.176,0.207-0.265,0.504-0.265,0.892c0,0.376,0.098,0.688,0.294,0.934
	c0.198,0.243,0.439,0.365,0.725,0.365c0.205,0,0.382-0.051,0.532-0.153C194.926,87.229,195.073,87.068,195.215,86.85z"/>
<path d="M195.551,87.784c0.229-0.025,0.369-0.069,0.421-0.13c0.052-0.063,0.079-0.177,0.079-0.34v-3.265
	c0-0.157-0.024-0.259-0.072-0.307c-0.046-0.048-0.125-0.072-0.235-0.072c-0.059,0-0.123,0.004-0.192,0.013v-0.101
	c0.409-0.106,0.754-0.205,1.035-0.294l0.026,0.022v2.821l0.477-0.422c0.242-0.215,0.399-0.36,0.473-0.438
	c0.076-0.076,0.114-0.139,0.114-0.188c0-0.048-0.024-0.081-0.072-0.099c-0.048-0.02-0.136-0.029-0.264-0.029v-0.101h1.361v0.101
	c-0.233,0.016-0.466,0.104-0.699,0.265c-0.233,0.159-0.447,0.329-0.643,0.51l-0.284,0.261l1.009,1.29
	c0.242,0.317,0.503,0.485,0.784,0.502v0.102h-1.456v-0.102h0.068c0.072,0,0.122-0.006,0.15-0.02
	c0.028-0.013,0.042-0.038,0.042-0.075c0-0.021-0.012-0.049-0.036-0.081c-0.021-0.033-0.05-0.074-0.085-0.124l-0.94-1.28v1.215
	c0,0.137,0.031,0.231,0.095,0.284c0.065,0.052,0.2,0.079,0.405,0.081v0.102h-1.561V87.784z"/>
<path d="M200.647,84.594l0.042-1.149h3.731l0.042,1.149h-0.15c-0.072-0.37-0.177-0.61-0.316-0.722
	c-0.137-0.11-0.341-0.166-0.61-0.166h-0.49v3.425c0,0.234,0.036,0.392,0.107,0.47c0.074,0.078,0.179,0.124,0.313,0.138l0.196,0.02
	v0.127h-1.917v-0.127l0.17-0.02c0.179-0.022,0.297-0.073,0.356-0.154c0.061-0.082,0.091-0.251,0.091-0.506v-3.372h-0.467
	c-0.351,0-0.586,0.082-0.708,0.248c-0.122,0.163-0.202,0.376-0.242,0.64H200.647z"/>
<path d="M204.796,86.357c0-0.441,0.131-0.813,0.392-1.113c0.263-0.3,0.61-0.45,1.042-0.45c0.466,0,0.833,0.141,1.1,0.421
	c0.27,0.279,0.405,0.652,0.405,1.12c0,0.45-0.139,0.833-0.418,1.146c-0.276,0.312-0.626,0.468-1.051,0.468
	c-0.438,0-0.792-0.152-1.064-0.458C204.932,87.183,204.796,86.806,204.796,86.357z M205.384,86.024c0,0.469,0.084,0.875,0.251,1.222
	c0.167,0.344,0.4,0.516,0.699,0.516c0.25,0,0.448-0.103,0.594-0.307c0.146-0.207,0.219-0.514,0.219-0.921
	c0-0.444-0.088-0.814-0.265-1.11s-0.409-0.443-0.699-0.443c-0.252,0-0.449,0.099-0.591,0.297
	C205.454,85.475,205.384,85.724,205.384,86.024z"/>
<path d="M210.625,86.85l0.098,0.059c-0.113,0.257-0.285,0.494-0.516,0.712c-0.229,0.218-0.505,0.327-0.829,0.327
	c-0.373,0-0.676-0.142-0.911-0.425c-0.235-0.283-0.353-0.639-0.353-1.067c0-0.479,0.143-0.875,0.428-1.188
	c0.285-0.315,0.644-0.474,1.077-0.474c0.259,0,0.49,0.065,0.692,0.196c0.205,0.128,0.307,0.292,0.307,0.492
	c0,0.099-0.03,0.174-0.091,0.226c-0.061,0.053-0.135,0.078-0.222,0.078c-0.107,0-0.191-0.061-0.251-0.183
	c-0.059-0.124-0.097-0.232-0.114-0.326c-0.011-0.055-0.041-0.116-0.088-0.187c-0.045-0.069-0.161-0.104-0.346-0.104
	c-0.226,0-0.429,0.104-0.607,0.311c-0.176,0.207-0.265,0.504-0.265,0.892c0,0.376,0.098,0.688,0.294,0.934
	c0.198,0.243,0.439,0.365,0.725,0.365c0.205,0,0.382-0.051,0.532-0.153C210.336,87.229,210.483,87.068,210.625,86.85z"/>
<path d="M210.961,87.784c0.229-0.025,0.369-0.069,0.421-0.13c0.052-0.063,0.079-0.177,0.079-0.34v-3.265
	c0-0.157-0.024-0.259-0.072-0.307c-0.046-0.048-0.125-0.072-0.235-0.072c-0.059,0-0.123,0.004-0.192,0.013v-0.101
	c0.409-0.106,0.754-0.205,1.035-0.294l0.026,0.022v2.821l0.477-0.422c0.242-0.215,0.399-0.36,0.473-0.438
	c0.076-0.076,0.114-0.139,0.114-0.188c0-0.048-0.024-0.081-0.072-0.099c-0.048-0.02-0.136-0.029-0.264-0.029v-0.101h1.361v0.101
	c-0.233,0.016-0.466,0.104-0.699,0.265c-0.233,0.159-0.447,0.329-0.643,0.51l-0.284,0.261l1.009,1.29
	c0.242,0.317,0.503,0.485,0.784,0.502v0.102h-1.456v-0.102h0.068c0.072,0,0.122-0.006,0.15-0.02
	c0.028-0.013,0.042-0.038,0.042-0.075c0-0.021-0.012-0.049-0.036-0.081c-0.021-0.033-0.05-0.074-0.085-0.124l-0.94-1.28v1.215
	c0,0.137,0.031,0.231,0.095,0.284c0.065,0.052,0.2,0.079,0.405,0.081v0.102h-1.561V87.784z"/>
<path d="M215.264,83.354l0.059,0.127c-0.218,0.138-0.365,0.268-0.441,0.392c-0.078,0.124-0.118,0.222-0.118,0.291
	c0,0.039,0.009,0.065,0.026,0.078c0.015,0.016,0.038,0.022,0.068,0.022c0.011,0,0.032-0.004,0.062-0.013
	c0.028-0.007,0.063-0.01,0.104-0.01c0.133,0,0.237,0.027,0.313,0.082c0.074,0.057,0.111,0.14,0.111,0.251
	c0,0.124-0.038,0.219-0.114,0.284c-0.076,0.067-0.168,0.102-0.277,0.102c-0.157,0-0.287-0.057-0.392-0.17s-0.157-0.264-0.157-0.451
	c0-0.204,0.085-0.406,0.254-0.606C214.932,83.535,215.099,83.408,215.264,83.354z M216.831,83.354l0.059,0.127
	c-0.209,0.135-0.354,0.263-0.434,0.382c-0.083,0.122-0.124,0.223-0.124,0.301c0,0.039,0.009,0.065,0.026,0.078
	c0.015,0.016,0.038,0.022,0.069,0.022c0.011,0,0.031-0.004,0.062-0.013c0.028-0.007,0.063-0.01,0.104-0.01
	c0.133,0,0.237,0.027,0.313,0.082c0.074,0.057,0.111,0.14,0.111,0.251c0,0.124-0.038,0.219-0.114,0.284
	c-0.076,0.067-0.169,0.102-0.277,0.102c-0.152,0-0.282-0.056-0.389-0.167c-0.107-0.108-0.16-0.26-0.16-0.454
	c0-0.197,0.085-0.398,0.255-0.601C216.499,83.537,216.666,83.408,216.831,83.354z"/>
<path fill="#1A171B" d="M414.959,11.962c-1.011-0.442-1.516-1.177-1.516-2.203c0-0.917,0.308-1.664,0.922-2.242
	c0.62-0.583,1.45-0.875,2.492-0.875c0.979,0,1.8,0.269,2.461,0.805c0.667,0.531,1,1.258,1,2.18c0,1.094-0.477,1.867-1.43,2.32
	c1.203,0.599,1.805,1.521,1.805,2.766c0,1.016-0.339,1.854-1.016,2.516c-0.672,0.661-1.583,0.992-2.734,0.992
	c-1.125,0-2.052-0.3-2.781-0.898s-1.094-1.44-1.094-2.523C413.068,13.418,413.698,12.473,414.959,11.962z M414.568,14.759
	c0,0.636,0.2,1.161,0.602,1.578c0.401,0.411,0.995,0.617,1.781,0.617c0.698,0,1.245-0.195,1.641-0.586
	c0.401-0.391,0.602-0.894,0.602-1.508c0-0.667-0.2-1.198-0.602-1.594c-0.401-0.401-0.972-0.602-1.711-0.602
	c-0.672,0-1.227,0.19-1.664,0.57C414.784,13.61,414.568,14.118,414.568,14.759z M414.943,9.657c0,0.442,0.169,0.852,0.508,1.227
	c0.339,0.37,0.82,0.555,1.445,0.555c0.542,0,0.997-0.164,1.367-0.492s0.555-0.771,0.555-1.328c0-0.547-0.192-0.969-0.578-1.266
	c-0.38-0.297-0.859-0.445-1.438-0.445c-0.552,0-1,0.153-1.344,0.461C415.115,8.67,414.943,9.1,414.943,9.657z"/>
<path fill="#1A171B" d="M421.529,17.931l2.906-4.352l-2.75-4.023h1.805l1.906,2.914l1.898-2.914h1.734l-2.797,4.023l2.906,4.352
	h-1.781l-2.063-3.141l-1.984,3.141H421.529z"/>
<path fill="#1A171B" d="M431.35,14.47c0.016,0.808,0.211,1.425,0.586,1.852c0.38,0.422,0.977,0.633,1.789,0.633
	c0.683,0,1.266-0.183,1.75-0.547c0.489-0.37,0.734-0.911,0.734-1.625c0-0.62-0.208-1.109-0.625-1.469s-1.042-0.539-1.875-0.539
	c-0.177,0-0.448,0.008-0.813,0.023v-1.227c0.359,0.026,0.583,0.039,0.672,0.039c1.469,0,2.203-0.612,2.203-1.836
	c0-0.567-0.185-1.021-0.555-1.359c-0.364-0.339-0.867-0.508-1.508-0.508c-0.698,0-1.222,0.195-1.57,0.586s-0.547,0.981-0.594,1.773
	h-1.383c0.005-1.141,0.31-2.028,0.914-2.664c0.609-0.641,1.519-0.961,2.727-0.961c1.047,0,1.886,0.278,2.516,0.836
	c0.636,0.552,0.953,1.284,0.953,2.195c0,1.203-0.492,1.987-1.477,2.352c0.714,0.255,1.211,0.599,1.492,1.031
	c0.281,0.427,0.422,0.956,0.422,1.586c0,1.063-0.359,1.925-1.078,2.586s-1.683,0.992-2.891,0.992c-1.104,0-1.997-0.276-2.68-0.828
	c-0.677-0.558-1.065-1.531-1.164-2.922H431.35z"/>
<path fill="#1A171B" d="M439.436,15.188c0.433-0.661,1.023-1.208,1.773-1.641l2.289-1.359c0.521-0.308,0.888-0.625,1.102-0.953
	c0.214-0.333,0.32-0.737,0.32-1.211c0-0.651-0.206-1.167-0.617-1.547c-0.406-0.38-0.958-0.57-1.656-0.57
	c-0.781,0-1.349,0.231-1.703,0.695c-0.349,0.458-0.55,1.138-0.602,2.039h-1.383c0-1.198,0.315-2.164,0.945-2.898
	s1.597-1.102,2.898-1.102c1.052,0,1.917,0.305,2.594,0.914c0.683,0.604,1.023,1.43,1.023,2.477c0,0.703-0.161,1.305-0.484,1.805
	c-0.323,0.495-0.82,0.93-1.492,1.305l-1.906,1.109c-0.672,0.396-1.183,0.766-1.531,1.109c-0.344,0.339-0.594,0.755-0.75,1.25h6.164
	v1.32h-7.75C438.748,16.759,439.003,15.845,439.436,15.188z"/>
<path fill="#1A171B" d="M451.857,14.228h1.453v0.797c0,0.677,0.148,1.153,0.445,1.43s0.734,0.414,1.313,0.414
	c1.208,0,1.813-0.667,1.813-2V6.431h1.555v8.391c0,1.094-0.289,1.935-0.867,2.523c-0.573,0.589-1.406,0.883-2.5,0.883
	c-0.933,0-1.7-0.245-2.305-0.734s-0.906-1.208-0.906-2.156V14.228z"/>
<path fill="none" stroke="#000000" stroke-width="1.1339" stroke-miterlimit="10" d="M0.567,0.567h468.04v91.581H0.567V0.567z"/>
<line fill="none" stroke="#000000" stroke-width="0.4565" stroke-miterlimit="10" x1="170.371" y1="48.618" x2="170.371" y2="78.962"/>
<line fill="none" stroke="#000000" stroke-width="1.1339" stroke-miterlimit="10" x1="0.067" y1="26.146" x2="468.106" y2="26.146"/>
<line fill="none" stroke="#000000" stroke-width="1.1019" stroke-miterlimit="10" x1="367.854" y1="26.648" x2="367.854" y2="92.025"/>
<path fill="#1A171B" d="M392.18,101.425c0.009,0.455,0.119,0.802,0.33,1.042c0.213,0.237,0.549,0.356,1.006,0.356
	c0.384,0,0.712-0.103,0.984-0.309c0.275-0.207,0.413-0.512,0.413-0.914c0-0.348-0.117-0.623-0.352-0.826
	c-0.234-0.201-0.586-0.303-1.055-0.303c-0.1,0-0.252,0.004-0.457,0.014v-0.69c0.202,0.015,0.328,0.022,0.378,0.022
	c0.826,0,1.239-0.345,1.239-1.033c0-0.319-0.104-0.574-0.312-0.765c-0.206-0.19-0.488-0.286-0.849-0.286
	c-0.393,0-0.688,0.11-0.884,0.33s-0.307,0.553-0.334,0.998h-0.777c0.003-0.643,0.174-1.142,0.514-1.499
	c0.344-0.36,0.854-0.54,1.534-0.54c0.589,0,1.061,0.156,1.415,0.47c0.357,0.311,0.536,0.723,0.536,1.235
	c0,0.676-0.276,1.117-0.831,1.322c0.401,0.144,0.682,0.337,0.84,0.58c0.158,0.24,0.237,0.538,0.237,0.893
	c0,0.598-0.202,1.082-0.606,1.454s-0.946,0.558-1.626,0.558c-0.621,0-1.124-0.155-1.507-0.465c-0.382-0.313-0.6-0.861-0.655-1.645
	H392.18z"/>
<path fill="#1A171B" d="M401.36,101.008h0.849c-0.15,0.844-0.468,1.477-0.954,1.898s-1.112,0.633-1.876,0.633
	c-0.877,0-1.582-0.305-2.119-0.914c-0.535-0.612-0.804-1.441-0.804-2.487c0-1.034,0.272-1.859,0.817-2.475
	c0.548-0.617,1.289-0.927,2.224-0.927c0.706,0,1.289,0.176,1.749,0.527c0.463,0.349,0.76,0.876,0.893,1.582h-0.849
	c-0.226-0.896-0.825-1.345-1.798-1.345c-0.636,0-1.15,0.228-1.547,0.682c-0.393,0.454-0.588,1.113-0.588,1.977
	c0,0.798,0.176,1.434,0.527,1.908c0.352,0.472,0.874,0.707,1.568,0.707c0.504,0,0.915-0.149,1.234-0.448
	C401.01,102.025,401.234,101.585,401.36,101.008z"/>
<path fill="#1A171B" d="M402.411,103.54l2.215-6.803h0.598l-2.215,6.803H402.411z"/>
<path fill="#1A171B" d="M405.285,101.066l2.931-3.978h0.655v4.048h0.927v0.689h-0.927v1.547h-0.791v-1.547h-2.795V101.066z
	 M406.027,101.136h2.053v-2.861L406.027,101.136z"/>
<path fill="#1A171B" d="M415.366,101.008h0.849c-0.15,0.844-0.468,1.477-0.954,1.898s-1.112,0.633-1.876,0.633
	c-0.877,0-1.582-0.305-2.119-0.914c-0.535-0.612-0.804-1.441-0.804-2.487c0-1.034,0.272-1.859,0.817-2.475
	c0.548-0.617,1.289-0.927,2.224-0.927c0.706,0,1.289,0.176,1.749,0.527c0.463,0.349,0.76,0.876,0.893,1.582h-0.849
	c-0.226-0.896-0.825-1.345-1.798-1.345c-0.636,0-1.15,0.228-1.547,0.682c-0.393,0.454-0.588,1.113-0.588,1.977
	c0,0.798,0.176,1.434,0.527,1.908c0.352,0.472,0.874,0.707,1.568,0.707c0.504,0,0.915-0.149,1.234-0.448
	C415.016,102.025,415.24,101.585,415.366,101.008z"/>
<path fill="#1A171B" d="M419.673,103.373v-6.469h0.791v6.469H419.673z"/>
<path fill="#1A171B" d="M421.374,101.035c0-0.747,0.2-1.354,0.603-1.819c0.4-0.469,0.934-0.703,1.6-0.703
	c0.641,0,1.168,0.228,1.582,0.681c0.412,0.455,0.619,1.063,0.619,1.824c0,0.718-0.199,1.315-0.598,1.793
	c-0.398,0.475-0.928,0.712-1.586,0.712c-0.648,0-1.18-0.229-1.596-0.686C421.582,102.376,421.374,101.776,421.374,101.035z
	 M422.191,101.017c0,0.513,0.119,0.942,0.355,1.287c0.24,0.347,0.583,0.52,1.029,0.52c0.387,0,0.713-0.151,0.979-0.453
	c0.27-0.305,0.404-0.756,0.404-1.354c0-0.513-0.117-0.941-0.352-1.287s-0.579-0.52-1.032-0.52c-0.411,0-0.745,0.156-1.002,0.467
	C422.318,99.988,422.191,100.434,422.191,101.017z"/>
<path fill="#1A171B" d="M426.652,103.373v-4.711h0.742v0.694c0.396-0.563,0.893-0.844,1.49-0.844c0.504,0,0.894,0.149,1.169,0.448
	c0.275,0.296,0.413,0.697,0.413,1.204v3.208h-0.791v-2.927c0-0.475-0.084-0.798-0.25-0.972c-0.165-0.176-0.409-0.264-0.734-0.264
	c-0.369,0-0.67,0.139-0.9,0.414c-0.232,0.275-0.348,0.663-0.348,1.164v2.584H426.652z"/>
<path fill="#1A171B" d="M431.579,103.909h0.791c0.103,0.478,0.458,0.716,1.067,0.716c0.442,0,0.775-0.112,0.998-0.338
	s0.334-0.606,0.334-1.143v-0.313c-0.284,0.461-0.714,0.69-1.287,0.69c-0.619,0-1.114-0.237-1.486-0.712s-0.558-1.111-0.558-1.912
	c0-0.688,0.171-1.258,0.515-1.709c0.342-0.451,0.818-0.677,1.428-0.677c0.319,0,0.59,0.067,0.813,0.202
	c0.223,0.132,0.432,0.338,0.625,0.619v-0.672h0.742v4.289c0,0.882-0.185,1.497-0.554,1.846c-0.369,0.346-0.905,0.519-1.608,0.519
	c-0.498,0-0.908-0.107-1.23-0.321C431.849,104.777,431.652,104.416,431.579,103.909z M432.256,100.933
	c0,0.593,0.111,1.055,0.334,1.389c0.226,0.334,0.536,0.502,0.932,0.502c0.407,0,0.722-0.151,0.945-0.453
	c0.225-0.302,0.338-0.725,0.338-1.27c0-1.26-0.436-1.891-1.305-1.891C432.67,99.21,432.256,99.786,432.256,100.933z"/>
<path fill="#1A171B" d="M436.207,98.662h0.865l0.879,3.735l0.928-3.735h0.879l0.953,3.735l0.928-3.735h0.791l-1.336,4.711h-0.817
	l-0.989-3.66l-0.927,3.66h-0.817L436.207,98.662z"/>
<path fill="#1A171B" d="M443.19,96.913h0.791v0.905h-0.791V96.913z M443.19,98.662h0.791v4.711h-0.791V98.662z"/>
<path fill="#1A171B" d="M445.635,101.905c0.022,0.612,0.429,0.919,1.217,0.919c0.343,0,0.612-0.066,0.809-0.198
	c0.199-0.135,0.299-0.321,0.299-0.558c0-0.17-0.066-0.305-0.197-0.404c-0.133-0.091-0.379-0.182-0.738-0.273l-0.924-0.229
	c-0.729-0.176-1.094-0.563-1.094-1.164c0-0.431,0.155-0.785,0.466-1.063c0.313-0.281,0.761-0.422,1.341-0.422
	c0.506,0,0.919,0.122,1.238,0.364c0.319,0.244,0.498,0.614,0.537,1.112h-0.778c-0.038-0.519-0.395-0.778-1.067-0.778
	c-0.64,0-0.959,0.225-0.959,0.673c0,0.196,0.075,0.334,0.225,0.413c0.149,0.076,0.358,0.146,0.629,0.211l0.781,0.197
	c0.478,0.123,0.816,0.277,1.016,0.462c0.202,0.193,0.303,0.457,0.303,0.791c0,0.463-0.165,0.839-0.496,1.13
	c-0.328,0.289-0.805,0.435-1.428,0.435c-0.578,0-1.041-0.122-1.389-0.364c-0.35-0.243-0.538-0.661-0.567-1.253H445.635z"/>
<path fill="#1A171B" d="M450.262,101.263c0,0.492,0.111,0.876,0.334,1.151c0.226,0.272,0.563,0.409,1.011,0.409
	c0.319-0.003,0.598-0.094,0.835-0.273c0.24-0.181,0.383-0.396,0.426-0.646h0.778c-0.103,0.495-0.325,0.89-0.668,1.183
	c-0.343,0.289-0.793,0.435-1.349,0.435c-0.663,0-1.193-0.208-1.592-0.624c-0.395-0.416-0.593-1.017-0.593-1.802
	c0-0.759,0.193-1.378,0.58-1.858c0.39-0.484,0.935-0.726,1.635-0.726c0.659,0,1.16,0.228,1.503,0.681
	c0.346,0.452,0.527,1.142,0.545,2.07H450.262z M450.262,100.639h2.628c-0.056-0.524-0.19-0.894-0.404-1.107s-0.504-0.321-0.87-0.321
	c-0.387,0-0.703,0.133-0.949,0.396C450.42,99.868,450.285,100.211,450.262,100.639z"/>
<path fill="#1A171B" d="M457.641,101.905c0.022,0.612,0.429,0.919,1.217,0.919c0.343,0,0.612-0.066,0.809-0.198
	c0.199-0.135,0.299-0.321,0.299-0.558c0-0.17-0.066-0.305-0.197-0.404c-0.133-0.091-0.379-0.182-0.738-0.273l-0.924-0.229
	c-0.729-0.176-1.094-0.563-1.094-1.164c0-0.431,0.155-0.785,0.466-1.063c0.313-0.281,0.761-0.422,1.341-0.422
	c0.506,0,0.919,0.122,1.238,0.364c0.319,0.244,0.498,0.614,0.537,1.112h-0.778c-0.038-0.519-0.395-0.778-1.067-0.778
	c-0.64,0-0.959,0.225-0.959,0.673c0,0.196,0.075,0.334,0.225,0.413c0.149,0.076,0.358,0.146,0.629,0.211l0.781,0.197
	c0.478,0.123,0.816,0.277,1.016,0.462c0.202,0.193,0.303,0.457,0.303,0.791c0,0.463-0.165,0.839-0.496,1.13
	c-0.328,0.289-0.805,0.435-1.428,0.435c-0.578,0-1.041-0.122-1.389-0.364c-0.35-0.243-0.538-0.661-0.567-1.253H457.641z"/>
<path fill="#1A171B" d="M462.268,101.263c0,0.492,0.111,0.876,0.334,1.151c0.226,0.272,0.563,0.409,1.011,0.409
	c0.319-0.003,0.598-0.094,0.835-0.273c0.24-0.181,0.383-0.396,0.426-0.646h0.778c-0.103,0.495-0.325,0.89-0.668,1.183
	c-0.343,0.289-0.793,0.435-1.349,0.435c-0.663,0-1.193-0.208-1.592-0.624c-0.395-0.416-0.593-1.017-0.593-1.802
	c0-0.759,0.193-1.378,0.58-1.858c0.39-0.484,0.935-0.726,1.635-0.726c0.659,0,1.16,0.228,1.503,0.681
	c0.346,0.452,0.527,1.142,0.545,2.07H462.268z M462.268,100.639h2.628c-0.056-0.524-0.19-0.894-0.404-1.107s-0.504-0.321-0.87-0.321
	c-0.387,0-0.703,0.133-0.949,0.396C462.426,99.868,462.291,100.211,462.268,100.639z"/>
<path fill="#1A171B" d="M466.223,99.321v-0.659h0.643v-1.336h0.791v1.336h0.773v0.659h-0.773v3.059c0,0.252,0.159,0.378,0.479,0.378
	h0.277v0.629c-0.297,0.04-0.518,0.061-0.664,0.061c-0.589,0-0.883-0.338-0.883-1.015v-3.111H466.223z"/>
<path fill="#1A171B" d="M4.551,102.437l1.871-5.533h0.984l-2.391,6.469H4.089l-2.391-6.469h0.967L4.551,102.437z"/>
<path fill="#1A171B" d="M8.097,96.913h0.791v0.905H8.097V96.913z M8.097,98.662h0.791v4.711H8.097V98.662z"/>
<path fill="#1A171B" d="M10.097,103.373v-6.469h0.791v3.744l2.021-1.986h1.002l-1.793,1.749l1.903,2.962h-1.016l-1.459-2.391
	l-0.659,0.682v1.709H10.097z"/>
<path fill="#1A171B" d="M14.117,99.321v-0.659h0.643v-1.336h0.791v1.336h0.773v0.659h-0.773v3.059c0,0.252,0.159,0.378,0.479,0.378
	h0.277v0.629c-0.297,0.04-0.518,0.061-0.664,0.061c-0.589,0-0.883-0.338-0.883-1.015v-3.111H14.117z"/>
<path fill="#1A171B" d="M16.798,101.035c0-0.747,0.2-1.354,0.603-1.819c0.4-0.469,0.934-0.703,1.6-0.703
	c0.641,0,1.168,0.228,1.582,0.681c0.412,0.455,0.619,1.063,0.619,1.824c0,0.718-0.199,1.315-0.598,1.793
	c-0.398,0.475-0.928,0.712-1.586,0.712c-0.648,0-1.18-0.229-1.596-0.686C17.006,102.376,16.798,101.776,16.798,101.035z
	 M17.615,101.017c0,0.513,0.119,0.942,0.355,1.287c0.24,0.347,0.583,0.52,1.029,0.52c0.387,0,0.713-0.151,0.979-0.453
	c0.27-0.305,0.404-0.756,0.404-1.354c0-0.513-0.117-0.941-0.352-1.287S19.453,99.21,19,99.21c-0.411,0-0.745,0.156-1.002,0.467
	C17.742,99.988,17.615,100.434,17.615,101.017z"/>
<path fill="#1A171B" d="M22.19,103.373v-4.711h0.743v0.787c0.216-0.361,0.426-0.607,0.628-0.738
	c0.205-0.133,0.438-0.198,0.698-0.198c0.053,0,0.119,0.011,0.198,0.03v0.813h-0.299c-0.349,0-0.633,0.125-0.853,0.374
	c-0.217,0.249-0.325,0.548-0.325,0.896v2.746H22.19z"/>
<path fill="#1A171B" d="M27.676,96.904h0.874v5.704h3.305v0.765h-4.179V96.904z"/>
<path fill="#1A171B" d="M33.178,101.263c0,0.492,0.111,0.876,0.334,1.151c0.226,0.272,0.563,0.409,1.011,0.409
	c0.319-0.003,0.598-0.094,0.835-0.273c0.24-0.181,0.383-0.396,0.426-0.646h0.778c-0.103,0.495-0.325,0.89-0.668,1.183
	c-0.343,0.289-0.793,0.435-1.349,0.435c-0.663,0-1.193-0.208-1.592-0.624c-0.395-0.416-0.593-1.017-0.593-1.802
	c0-0.759,0.193-1.378,0.58-1.858c0.39-0.484,0.935-0.726,1.635-0.726c0.659,0,1.16,0.228,1.503,0.681
	c0.346,0.452,0.527,1.142,0.545,2.07H33.178z M33.178,100.639h2.628c-0.056-0.524-0.19-0.894-0.404-1.107s-0.504-0.321-0.87-0.321
	c-0.387,0-0.703,0.133-0.949,0.396C33.336,99.868,33.201,100.211,33.178,100.639z"/>
<path fill="#1A171B" d="M37.586,96.904h0.791v2.382c0.354-0.516,0.835-0.773,1.441-0.773c0.504,0,0.894,0.149,1.169,0.448
	c0.275,0.296,0.413,0.697,0.413,1.204v3.208h-0.791v-3.107c0-0.389-0.076-0.661-0.229-0.816c-0.152-0.158-0.384-0.238-0.694-0.238
	c-0.413,0-0.735,0.134-0.967,0.4c-0.229,0.264-0.343,0.656-0.343,1.178v2.584h-0.791V96.904z"/>
<path fill="#1A171B" d="M42.592,98.662h0.742v0.694c0.401-0.563,0.881-0.844,1.438-0.844c0.548,0,0.958,0.258,1.23,0.773
	c0.39-0.516,0.853-0.773,1.389-0.773c0.434,0,0.788,0.138,1.063,0.413s0.413,0.67,0.413,1.182v3.266h-0.791V100.3
	c0-0.726-0.277-1.09-0.83-1.09c-0.294,0-0.555,0.115-0.783,0.344c-0.226,0.226-0.338,0.534-0.338,0.927v2.892h-0.791v-3.283
	c0-0.585-0.245-0.879-0.734-0.879c-0.354,0-0.646,0.136-0.874,0.404c-0.229,0.271-0.343,0.661-0.343,1.174v2.584h-0.791V98.662z"/>
<path fill="#1A171B" d="M50.066,100.059c0.023-1.031,0.655-1.547,1.895-1.547c0.521,0,0.947,0.114,1.279,0.343
	c0.334,0.229,0.5,0.556,0.5,0.98v2.742c0,0.111,0.021,0.186,0.063,0.224c0.04,0.038,0.104,0.058,0.188,0.058
	c0.053,0,0.142-0.014,0.269-0.04v0.575c-0.193,0.059-0.347,0.088-0.457,0.088c-0.276,0-0.475-0.061-0.598-0.184
	c-0.121-0.123-0.189-0.305-0.207-0.545c-0.448,0.513-1.005,0.769-1.67,0.769c-0.396,0-0.744-0.116-1.046-0.347
	c-0.302-0.234-0.452-0.583-0.452-1.047c0-0.846,0.473-1.331,1.419-1.454l1.235-0.163c0.187-0.022,0.313-0.078,0.377-0.166
	c0.067-0.088,0.102-0.222,0.102-0.4c0-0.516-0.359-0.773-1.076-0.773c-0.369,0-0.632,0.074-0.787,0.225
	c-0.155,0.148-0.257,0.37-0.303,0.663H50.066z M52.949,100.968c-0.12,0.095-0.366,0.169-0.738,0.225
	c-0.372,0.053-0.561,0.079-0.566,0.079c-0.665,0.091-0.998,0.354-0.998,0.791c0,0.533,0.284,0.8,0.854,0.8
	c0.374,0,0.71-0.105,1.006-0.316s0.443-0.478,0.443-0.8V100.968z"/>
<path fill="#1A171B" d="M55.094,103.373v-4.711h0.742v0.694c0.396-0.563,0.893-0.844,1.49-0.844c0.504,0,0.894,0.149,1.169,0.448
	c0.275,0.296,0.413,0.697,0.413,1.204v3.208h-0.791v-2.927c0-0.475-0.084-0.798-0.25-0.972c-0.165-0.176-0.409-0.264-0.734-0.264
	c-0.369,0-0.67,0.139-0.9,0.414c-0.232,0.275-0.348,0.663-0.348,1.164v2.584H55.094z"/>
<path fill="#1A171B" d="M60.1,103.373v-4.711h0.742v0.694c0.396-0.563,0.893-0.844,1.49-0.844c0.504,0,0.894,0.149,1.169,0.448
	c0.275,0.296,0.413,0.697,0.413,1.204v3.208h-0.791v-2.927c0-0.475-0.084-0.798-0.25-0.972c-0.165-0.176-0.409-0.264-0.734-0.264
	c-0.369,0-0.67,0.139-0.9,0.414c-0.232,0.275-0.348,0.663-0.348,1.164v2.584H60.1z"/>
<path fill="#1A171B" d="M65.316,104.291c0.311-0.047,0.471-0.353,0.479-0.918h-0.479v-0.984h0.94v0.896
	c0,0.82-0.313,1.295-0.94,1.424V104.291z"/>
<path fill="#1A171B" d="M70.193,101.83c0.243-0.371,0.576-0.679,0.998-0.922l1.287-0.766c0.293-0.172,0.499-0.352,0.619-0.535
	c0.12-0.188,0.181-0.415,0.181-0.682c0-0.366-0.116-0.656-0.347-0.87c-0.229-0.214-0.54-0.321-0.932-0.321
	c-0.439,0-0.76,0.131-0.959,0.392c-0.196,0.258-0.309,0.641-0.338,1.147h-0.777c0-0.674,0.177-1.218,0.531-1.631
	s0.897-0.619,1.631-0.619c0.591,0,1.077,0.171,1.459,0.514c0.383,0.34,0.575,0.805,0.575,1.393c0,0.396-0.091,0.734-0.272,1.016
	c-0.182,0.278-0.461,0.523-0.84,0.734l-1.072,0.623c-0.377,0.224-0.665,0.432-0.861,0.625c-0.193,0.19-0.334,0.425-0.422,0.703
	h3.468v0.742h-4.359C69.807,102.713,69.95,102.199,70.193,101.83z"/>
<path fill="#1A171B" d="M74.865,100.305c0-1.008,0.185-1.806,0.554-2.396c0.372-0.591,0.92-0.887,1.644-0.887
	c0.662,0,1.188,0.271,1.578,0.816c0.389,0.543,0.584,1.347,0.584,2.413c0,1.02-0.184,1.822-0.549,2.408
	c-0.367,0.583-0.91,0.874-1.631,0.874c-0.665,0-1.195-0.271-1.591-0.813C75.062,102.18,74.865,101.375,74.865,100.305z
	 M75.709,100.279c0,1.696,0.442,2.545,1.327,2.545c0.896,0,1.345-0.849,1.345-2.545s-0.445-2.545-1.336-2.545
	S75.709,98.583,75.709,100.279z"/>
<path fill="#1A171B" d="M80.451,98.284c0.574-0.023,0.971-0.118,1.191-0.286c0.222-0.166,0.392-0.47,0.51-0.909h0.619v6.284h-0.844
	v-4.456h-1.477V98.284z"/>
<path fill="#1A171B" d="M85,101.847h0.777c0.08,0.65,0.447,0.977,1.104,0.977c0.498,0,0.873-0.231,1.125-0.695
	c0.252-0.465,0.396-1.018,0.436-1.656c-0.281,0.519-0.786,0.777-1.512,0.777c-0.598,0-1.082-0.187-1.451-0.563
	c-0.369-0.374-0.553-0.869-0.553-1.484c0-0.65,0.191-1.177,0.575-1.578c0.387-0.401,0.899-0.602,1.538-0.602
	c1.497,0,2.246,0.975,2.246,2.926c0,1.059-0.203,1.921-0.607,2.589c-0.401,0.665-0.997,0.997-1.788,0.997
	c-0.557,0-1.004-0.148-1.341-0.447S85.029,102.375,85,101.847z M85.77,99.189c0,0.899,0.424,1.35,1.273,1.35
	c0.379,0,0.685-0.119,0.919-0.356c0.237-0.24,0.356-0.596,0.356-1.067c0-0.419-0.11-0.753-0.33-1.002
	c-0.217-0.252-0.531-0.379-0.945-0.379c-0.387,0-0.695,0.131-0.927,0.392S85.77,98.741,85.77,99.189z"/>
<path fill="none" stroke="#000000" stroke-width="0.9921" stroke-miterlimit="10" d="M398.317,60.89
	c0,5.941-4.824,10.764-10.768,10.764c-5.941,0-10.764-4.822-10.764-10.764c0-5.942,4.822-10.764,10.764-10.764
	C393.493,50.126,398.317,54.948,398.317,60.89L398.317,60.89z"/>
<path d="M386.464,60.149c0.305-0.411,0.754-0.617,1.352-0.617c0.635,0,1.154,0.209,1.563,0.627s0.613,0.966,0.613,1.646
	c0,0.722-0.211,1.325-0.633,1.812c-0.42,0.483-1.008,0.725-1.758,0.725c-1.695,0-2.541-1.191-2.541-3.574
	c0-1.336,0.232-2.284,0.699-2.846c0.467-0.564,1.096-0.847,1.887-0.847c0.619,0,1.123,0.142,1.512,0.426
	c0.393,0.284,0.625,0.742,0.701,1.376h-1.406c-0.074-0.45-0.34-0.676-0.797-0.676c-0.363,0-0.637,0.141-0.824,0.421
	C386.646,58.898,386.522,59.408,386.464,60.149z M386.483,61.877c0,0.392,0.102,0.714,0.305,0.965
	c0.205,0.248,0.473,0.372,0.803,0.372c0.301,0,0.541-0.116,0.721-0.348c0.182-0.235,0.273-0.564,0.273-0.989
	c0-0.365-0.094-0.659-0.279-0.882c-0.184-0.225-0.434-0.338-0.754-0.338s-0.578,0.106-0.773,0.318
	C386.583,61.189,386.483,61.489,386.483,61.877z"/>
<line fill="none" stroke="#000000" stroke-width="0.9921" stroke-miterlimit="10" x1="376.976" y1="58.226" x2="373.829" y2="70.457"/>
<rect x="182.706" y="43.05" fill="none" stroke="#000000" stroke-width="0.4647" stroke-miterlimit="10" width="8.363" height="8.365"/>
<path d="M185.308,48.528c0.205-0.33,0.599-0.709,1.183-1.139c0.483-0.354,0.786-0.621,0.908-0.802s0.184-0.367,0.184-0.561
	c0-0.214-0.063-0.397-0.187-0.549c-0.122-0.154-0.307-0.231-0.553-0.231c-0.269,0-0.457,0.084-0.563,0.252
	c-0.108,0.169-0.161,0.417-0.161,0.744h-1.051v-0.154c0-0.464,0.145-0.867,0.436-1.208c0.293-0.342,0.729-0.513,1.307-0.513
	c0.508,0,0.938,0.144,1.292,0.432c0.354,0.286,0.531,0.696,0.531,1.23c0,0.364-0.088,0.681-0.264,0.952
	c-0.173,0.269-0.518,0.581-1.033,0.938c-0.564,0.391-0.9,0.67-1.007,0.839h2.304v0.934H185
	C185,49.246,185.103,48.858,185.308,48.528z"/>
<line fill="none" stroke="#000000" stroke-width="1.1019" stroke-miterlimit="10" x1="221.435" y1="26.103" x2="221.435" y2="91.48"/>
<line fill="none" stroke="#000000" stroke-width="0.5528" stroke-miterlimit="10" stroke-dasharray="1.4173" x1="56.841" y1="26.321" x2="56.841" y2="92.14"/>
<path fill="none" stroke="#000000" stroke-width="0.5572" stroke-miterlimit="10" d="M5.8,56.817
	c-0.088-0.396-0.133-0.801-0.133-1.207c0-3.031,2.459-5.49,5.49-5.49c3.029,0,5.488,2.459,5.488,5.49
	c0,1.018-0.281,2.014-0.814,2.879"/>
<polygon fill-rule="evenodd" clip-rule="evenodd" stroke="#000000" stroke-width="0.2786" stroke-miterlimit="10" points="
	15.324,55.135 16.142,59.667 17.552,55.283 15.324,55.135 "/>
<path d="M8.549,53.575c0.702,0,1.196-0.115,1.483-0.348c0.287-0.231,0.449-0.519,0.485-0.861h1.16v7.12h-1.405V54.56H8.549V53.575z"
	/>
<path fill="none" stroke="#000000" stroke-width="0.4647" stroke-miterlimit="10" d="M202.836,47.056
	c0,2.31-1.875,4.183-4.182,4.183c-2.311,0-4.184-1.873-4.184-4.183c0-2.308,1.873-4.181,4.184-4.181
	C200.961,42.875,202.836,44.749,202.836,47.056L202.836,47.056z"/>
<path d="M197.884,47.711c0.02,0.61,0.276,0.916,0.77,0.916c0.236,0,0.428-0.073,0.575-0.22s0.22-0.355,0.22-0.626
	c0-0.264-0.094-0.456-0.282-0.575c-0.186-0.122-0.495-0.183-0.927-0.183v-0.747h0.168c0.583,0,0.875-0.232,0.875-0.696
	c0-0.208-0.062-0.376-0.184-0.505c-0.122-0.132-0.292-0.198-0.509-0.198c-0.479,0-0.72,0.286-0.725,0.857h-0.952
	c0-0.525,0.15-0.938,0.451-1.242c0.302-0.305,0.729-0.458,1.281-0.458c0.506,0,0.916,0.129,1.23,0.388
	c0.315,0.259,0.473,0.615,0.473,1.069c0,0.476-0.219,0.825-0.655,1.047c0.546,0.225,0.82,0.637,0.82,1.238
	c0,0.496-0.169,0.902-0.506,1.22c-0.334,0.314-0.783,0.472-1.348,0.472c-0.591,0-1.036-0.149-1.336-0.447
	c-0.3-0.3-0.464-0.737-0.491-1.311H197.884z"/>
<line fill="none" stroke="#000000" stroke-width="0.5528" stroke-miterlimit="10" stroke-dasharray="1.4173" x1="251.841" y1="26.404" x2="251.841" y2="92.223"/>
<line fill="none" stroke="#000000" stroke-width="0.5528" stroke-miterlimit="10" stroke-dasharray="1.4173" x1="328.424" y1="26.321" x2="328.424" y2="92.14"/>
<line fill="none" stroke="#000000" stroke-width="0.4514" stroke-miterlimit="10" x1="72.182" y1="72.633" x2="73.139" y2="70.978"/>
<line fill="none" stroke="#000000" stroke-width="0.4514" stroke-miterlimit="10" x1="85.73" y1="54.088" x2="86.688" y2="52.431"/>
<rect x="88.957" y="39.717" transform="matrix(-0.866 -0.5 0.5 -0.866 151.8492 128.482)" fill="none" stroke="#000000" stroke-width="0.4645" stroke-miterlimit="10" width="8.363" height="8.36"/>
<path d="M92.301,44.711c0.02,0.61,0.276,0.916,0.77,0.916c0.236,0,0.428-0.073,0.575-0.22s0.22-0.355,0.22-0.626
	c0-0.264-0.094-0.456-0.282-0.575c-0.186-0.122-0.495-0.183-0.927-0.183v-0.747h0.168c0.583,0,0.875-0.232,0.875-0.696
	c0-0.208-0.062-0.376-0.184-0.505c-0.122-0.132-0.292-0.198-0.509-0.198c-0.479,0-0.72,0.286-0.725,0.857h-0.952
	c0-0.525,0.15-0.938,0.451-1.242c0.302-0.305,0.729-0.458,1.281-0.458c0.506,0,0.916,0.129,1.23,0.388
	c0.315,0.259,0.473,0.615,0.473,1.069c0,0.476-0.219,0.825-0.655,1.047c0.546,0.225,0.82,0.637,0.82,1.238
	c0,0.496-0.169,0.902-0.506,1.22c-0.334,0.314-0.783,0.472-1.348,0.472c-0.591,0-1.036-0.149-1.336-0.447
	c-0.3-0.3-0.464-0.737-0.491-1.311H92.301z"/>
<rect x="71.184" y="63.042" transform="matrix(-0.866 -0.5 0.5 -0.866 107.0197 163.1223)" fill="none" stroke="#000000" stroke-width="0.4645" stroke-miterlimit="10" width="8.363" height="8.36"/>
<path d="M73.689,65.189c0.525,0,0.895-0.088,1.11-0.261c0.214-0.173,0.335-0.388,0.362-0.645h0.868v5.325h-1.051v-3.685h-1.289
	V65.189z"/>
<path fill="none" stroke="#000000" stroke-width="0.4647" stroke-miterlimit="10" d="M87.336,57.14c0,2.309-1.874,4.182-4.182,4.182
	c-2.31,0-4.184-1.873-4.184-4.182c0-2.308,1.874-4.181,4.184-4.181C85.462,52.959,87.336,54.832,87.336,57.14L87.336,57.14z"/>
<path d="M81.604,55.022c0.525,0,0.895-0.087,1.11-0.26c0.214-0.173,0.335-0.388,0.362-0.645h0.868v5.325h-1.051v-3.685h-1.289
	V55.022z"/>
<path fill="none" stroke="#000000" stroke-width="0.4647" stroke-miterlimit="10" d="M69.419,81.306c0,2.31-1.875,4.183-4.182,4.183
	c-2.311,0-4.184-1.873-4.184-4.183c0-2.308,1.873-4.181,4.184-4.181C67.544,77.125,69.419,78.999,69.419,81.306L69.419,81.306z"/>
<path d="M63.724,82.445c0.205-0.33,0.599-0.709,1.183-1.14c0.483-0.354,0.786-0.621,0.908-0.802s0.184-0.367,0.184-0.561
	c0-0.215-0.063-0.397-0.187-0.549c-0.122-0.154-0.307-0.23-0.553-0.23c-0.269,0-0.457,0.084-0.563,0.252
	c-0.108,0.169-0.161,0.416-0.161,0.744h-1.051v-0.154c0-0.464,0.145-0.867,0.436-1.209c0.293-0.342,0.729-0.512,1.307-0.512
	c0.508,0,0.938,0.144,1.292,0.432c0.354,0.285,0.531,0.695,0.531,1.23c0,0.363-0.088,0.682-0.264,0.952
	c-0.173,0.269-0.518,0.581-1.033,0.938c-0.564,0.391-0.9,0.67-1.007,0.839h2.304v0.934h-3.633
	C63.417,83.162,63.519,82.774,63.724,82.445z"/>
<line fill="none" stroke="#000000" stroke-width="0.4514" stroke-miterlimit="10" x1="89.682" y1="49.05" x2="90.639" y2="47.395"/>
<line fill="none" stroke="#000000" stroke-width="0.4514" stroke-miterlimit="10" x1="67.638" y1="77.564" x2="68.595" y2="75.91"/>
<polyline fill="none" stroke="#000000" stroke-width="0.3132" stroke-linejoin="bevel" stroke-miterlimit="10" points="
	78.968,51.51 78.96,51.49 78.973,51.417 78.99,51.249 79.014,50.942 79.05,50.56 79.09,50.131 79.14,49.676 79.198,49.239 
	79.245,48.83 79.318,48.479 79.4,48.146 79.471,47.84 79.549,47.554 79.675,47.271 79.774,46.976 79.918,46.683 80.063,46.391 
	80.246,46.082 80.439,45.745 80.642,45.427 80.89,45.112 81.13,44.778 81.388,44.481 81.664,44.177 81.95,43.891 82.223,43.633 
	82.497,43.375 82.808,43.146 83.08,42.935 83.359,42.743 83.658,42.542 84.005,42.343 84.389,42.128 84.812,41.896 85.291,41.638 
	85.798,41.391 86.344,41.127 86.87,40.872 87.377,40.625 87.778,40.447 88.343,40.175 "/>
<polygon fill-rule="evenodd" clip-rule="evenodd" stroke="#000000" stroke-width="0.3132" stroke-miterlimit="10" points="
	85.746,42.099 87.74,40.464 85.209,40.989 85.746,42.099 "/>
<polyline fill="none" stroke="#000000" stroke-width="0.3132" stroke-linejoin="bevel" stroke-miterlimit="10" stroke-dasharray="1.8795" points="
	99.182,47.342 99.19,47.361 99.178,47.435 99.16,47.603 99.137,47.91 99.099,48.292 99.06,48.72 99.01,49.176 98.953,49.612 
	98.905,50.021 98.832,50.374 98.751,50.706 98.681,51.011 98.601,51.297 98.503,51.592 98.377,51.875 98.232,52.168 98.087,52.46 
	97.905,52.77 97.711,53.106 97.508,53.424 97.26,53.739 97.02,54.073 96.762,54.37 96.486,54.675 96.202,54.96 95.928,55.218 
	95.653,55.476 95.352,55.724 95.071,55.917 94.791,56.108 94.492,56.309 94.146,56.508 93.761,56.724 93.339,56.956 92.859,57.213 
	92.353,57.46 91.806,57.724 91.28,57.98 90.773,58.226 90.372,58.404 89.807,58.676 "/>
<polygon fill-rule="evenodd" clip-rule="evenodd" stroke="#000000" stroke-width="0.3132" stroke-miterlimit="10" points="
	92.377,56.742 90.41,58.386 92.913,57.851 92.377,56.742 "/>
<polyline fill="none" stroke="#000000" stroke-width="0.3132" stroke-linejoin="bevel" stroke-miterlimit="10" points="
	61.203,75.848 61.195,75.829 61.208,75.755 61.225,75.587 61.249,75.281 61.285,74.898 61.325,74.47 61.375,74.014 61.433,73.578 
	61.48,73.168 61.553,72.817 61.635,72.484 61.706,72.179 61.784,71.892 61.91,71.609 62.009,71.314 62.153,71.021 62.298,70.73 
	62.48,70.42 62.674,70.083 62.876,69.765 63.125,69.451 63.365,69.117 63.623,68.82 63.899,68.515 64.185,68.229 64.458,67.971 
	64.732,67.712 65.042,67.485 65.314,67.273 65.594,67.082 65.893,66.88 66.24,66.681 66.624,66.466 67.047,66.234 67.526,65.976 
	68.033,65.73 68.579,65.465 69.104,65.21 69.612,64.962 70.013,64.786 70.578,64.513 "/>
<polygon fill-rule="evenodd" clip-rule="evenodd" stroke="#000000" stroke-width="0.3132" stroke-miterlimit="10" points="
	67.981,66.437 69.975,64.802 67.444,65.328 67.981,66.437 "/>
<polyline fill="none" stroke="#000000" stroke-width="0.3132" stroke-linejoin="bevel" stroke-miterlimit="10" stroke-dasharray="1.8795" points="
	81.417,71.68 81.425,71.699 81.413,71.773 81.395,71.941 81.372,72.248 81.333,72.63 81.295,73.058 81.245,73.514 81.188,73.951 
	81.14,74.36 81.066,74.712 80.986,75.044 80.916,75.349 80.836,75.636 80.738,75.93 80.612,76.214 80.467,76.506 80.322,76.798 
	80.14,77.108 79.946,77.445 79.743,77.762 79.495,78.078 79.255,78.412 78.997,78.708 78.721,79.013 78.437,79.298 78.163,79.556 
	77.888,79.814 77.587,80.062 77.306,80.255 77.026,80.447 76.727,80.648 76.381,80.846 75.996,81.062 75.574,81.294 75.094,81.552 
	74.587,81.798 74.041,82.063 73.515,82.318 73.008,82.565 72.607,82.742 72.042,83.015 "/>
<polygon fill-rule="evenodd" clip-rule="evenodd" stroke="#000000" stroke-width="0.3132" stroke-miterlimit="10" points="
	74.612,81.08 72.645,82.725 75.148,82.19 74.612,81.08 "/>
<polyline fill="none" stroke="#000000" stroke-width="0.4502" stroke-linejoin="bevel" stroke-miterlimit="10" points="
	68.674,37.172 68.764,37.051 69.024,36.674 69.729,35.803 70.523,34.685 71.316,33.814 72.025,32.942 72.64,32.199 73.345,31.577 
	73.789,31.196 74.313,30.701 74.929,30.327 75.723,29.83 76.692,29.456 77.841,29.206 79.073,28.832 80.573,28.706 82.25,28.584 
	84.185,28.584 86.217,28.584 88.509,28.832 90.003,28.962 91.681,29.083 93.355,29.332 95.204,29.58 97.231,29.83 99.259,30.078 
	101.467,30.451 103.667,30.826 105.958,31.077 108.254,31.446 110.543,31.824 112.833,32.074 115.04,32.324 117.153,32.698 
	119.181,32.819 121.124,33.067 122.885,33.192 124.56,33.316 126.056,33.442 127.554,33.442 129.671,33.316 131.524,33.192 
	133.197,32.942 134.605,32.448 135.84,32.074 136.899,31.577 137.778,31.077 138.487,30.701 139.012,30.203 139.457,29.953 
	139.716,29.83 140.07,29.703 140.425,29.83 140.687,29.953 141.129,30.203 141.659,30.701 142.368,31.077 143.247,31.577 
	144.306,32.074 145.537,32.448 146.949,32.942 148.624,33.192 150.471,33.316 152.679,33.442 154.083,33.442 155.586,33.316 
	157.259,33.192 159.022,33.067 160.965,32.819 162.989,32.698 165.106,32.324 167.311,32.074 169.598,31.824 171.89,31.446 
	174.184,31.077 176.477,30.826 178.679,30.451 180.887,30.078 182.91,29.83 184.942,29.58 186.791,29.332 188.461,29.083 
	190.142,28.962 191.636,28.832 193.935,28.584 195.955,28.584 197.891,28.584 199.574,28.706 201.067,28.832 202.301,29.206 
	203.446,29.456 204.419,29.83 205.211,30.327 205.829,30.701 206.356,31.196 206.884,31.577 207.505,32.199 208.125,32.942 
	208.825,33.814 209.621,34.685 210.409,35.803 211.115,36.674 211.383,37.051 211.472,37.172 "/>
<rect x="124.122" y="52.384" transform="matrix(-0.866 -0.5 0.5 -0.866 211.1316 169.7052)" fill="none" stroke="#000000" stroke-width="0.4645" stroke-miterlimit="10" width="8.363" height="8.36"/>
<path d="M127.467,57.379c0.02,0.611,0.276,0.916,0.77,0.916c0.236,0,0.428-0.073,0.575-0.22s0.22-0.355,0.22-0.626
	c0-0.264-0.094-0.456-0.282-0.575c-0.186-0.122-0.495-0.183-0.927-0.183v-0.747h0.168c0.583,0,0.875-0.232,0.875-0.696
	c0-0.208-0.062-0.376-0.184-0.505c-0.122-0.132-0.292-0.198-0.509-0.198c-0.479,0-0.72,0.286-0.725,0.857h-0.952
	c0-0.525,0.15-0.938,0.451-1.242c0.302-0.305,0.729-0.458,1.281-0.458c0.506,0,0.916,0.129,1.23,0.388
	c0.315,0.259,0.473,0.615,0.473,1.069c0,0.476-0.219,0.825-0.655,1.047c0.546,0.225,0.82,0.637,0.82,1.238
	c0,0.496-0.169,0.902-0.506,1.22c-0.334,0.314-0.783,0.472-1.348,0.472c-0.591,0-1.036-0.148-1.336-0.446
	c-0.3-0.3-0.464-0.737-0.491-1.311H127.467z"/>
<path fill="none" stroke="#000000" stroke-width="0.4647" stroke-miterlimit="10" d="M126.419,65.973
	c0,2.31-1.875,4.183-4.182,4.183c-2.311,0-4.184-1.873-4.184-4.183c0-2.308,1.873-4.181,4.184-4.181
	C124.544,61.792,126.419,63.666,126.419,65.973L126.419,65.973z"/>
<path d="M120.724,67.111c0.205-0.329,0.599-0.709,1.183-1.139c0.483-0.354,0.786-0.621,0.908-0.802s0.184-0.367,0.184-0.561
	c0-0.214-0.063-0.397-0.187-0.549c-0.122-0.154-0.307-0.231-0.553-0.231c-0.269,0-0.457,0.085-0.563,0.253
	c-0.108,0.169-0.161,0.417-0.161,0.743h-1.051v-0.153c0-0.464,0.145-0.866,0.436-1.208c0.293-0.342,0.729-0.514,1.307-0.514
	c0.508,0,0.938,0.145,1.292,0.433c0.354,0.286,0.531,0.696,0.531,1.23c0,0.364-0.088,0.681-0.264,0.952
	c-0.173,0.269-0.518,0.581-1.033,0.938c-0.564,0.391-0.9,0.67-1.007,0.839h2.304v0.934h-3.633
	C120.417,67.83,120.519,67.441,120.724,67.111z"/>
<line fill="none" stroke="#000000" stroke-width="0.4514" stroke-miterlimit="10" x1="118.888" y1="71.066" x2="119.845" y2="69.41"/>
<line fill="none" stroke="#000000" stroke-width="0.4514" stroke-miterlimit="10" x1="130.181" y1="52.721" x2="131.138" y2="51.065"/>
<path fill="none" stroke="#000000" stroke-width="0.4647" stroke-miterlimit="10" d="M142.003,41.806
	c0,2.31-1.874,4.183-4.182,4.183c-2.31,0-4.184-1.873-4.184-4.183c0-2.308,1.874-4.181,4.184-4.181
	C140.129,37.625,142.003,39.499,142.003,41.806L142.003,41.806z"/>
<path d="M136.271,39.689c0.525,0,0.895-0.087,1.11-0.26c0.214-0.173,0.335-0.388,0.362-0.645h0.868v5.325h-1.051v-3.684h-1.289
	V39.689z"/>
<rect x="108.851" y="74.042" transform="matrix(-0.866 -0.5 0.5 -0.866 171.8053 202.4829)" fill="none" stroke="#000000" stroke-width="0.4645" stroke-miterlimit="10" width="8.363" height="8.36"/>
<path d="M111.356,76.189c0.525,0,0.895-0.088,1.11-0.261c0.214-0.173,0.335-0.388,0.362-0.645h0.868v5.325h-1.051v-3.685h-1.289
	V76.189z"/>
<path d="M99.05,82.989c0.06,1.103,0.779,1.654,2.16,1.654c1.331,0,1.996-0.426,1.996-1.278c0-0.542-0.467-0.928-1.401-1.155
	l-2.468-0.629c-0.757-0.183-1.313-0.49-1.668-0.923s-0.533-1.01-0.533-1.729c0-0.921,0.33-1.673,0.991-2.256
	s1.615-0.875,2.864-0.875c1.148,0,2.069,0.28,2.762,0.841s1.075,1.374,1.148,2.44h-2.023c-0.15-1.03-0.82-1.545-2.01-1.545
	c-0.542,0-0.976,0.104-1.299,0.314c-0.319,0.21-0.479,0.497-0.479,0.861c0,0.265,0.082,0.485,0.246,0.663
	c0.169,0.178,0.438,0.313,0.807,0.403l2.447,0.602c1.007,0.241,1.697,0.581,2.071,1.019c0.378,0.438,0.567,1.01,0.567,1.716
	c0,0.971-0.347,1.759-1.039,2.365c-0.688,0.602-1.688,0.902-3.001,0.902c-1.226,0-2.227-0.287-3.001-0.861
	c-0.774-0.579-1.162-1.422-1.162-2.529H99.05z"/>
<path d="M146.466,44.239c0.06,1.103,0.779,1.654,2.16,1.654c1.331,0,1.996-0.426,1.996-1.278c0-0.542-0.467-0.928-1.401-1.155
	l-2.468-0.629c-0.757-0.183-1.313-0.49-1.668-0.923s-0.533-1.01-0.533-1.729c0-0.921,0.33-1.673,0.991-2.256
	s1.615-0.875,2.864-0.875c1.148,0,2.069,0.28,2.762,0.841s1.075,1.374,1.148,2.44h-2.023c-0.15-1.03-0.82-1.545-2.01-1.545
	c-0.542,0-0.976,0.104-1.299,0.314c-0.319,0.21-0.479,0.497-0.479,0.861c0,0.265,0.082,0.485,0.246,0.663
	c0.169,0.178,0.438,0.313,0.807,0.403l2.447,0.602c1.007,0.241,1.697,0.581,2.071,1.019c0.378,0.438,0.567,1.01,0.567,1.716
	c0,0.971-0.347,1.759-1.039,2.365c-0.688,0.602-1.688,0.902-3.001,0.902c-1.226,0-2.227-0.287-3.001-0.861
	c-0.774-0.579-1.162-1.422-1.162-2.529H146.466z"/>
<path d="M144.55,67.156c0.06,1.102,0.779,1.654,2.16,1.654c1.331,0,1.996-0.426,1.996-1.279c0-0.541-0.467-0.928-1.401-1.154
	l-2.468-0.629c-0.757-0.184-1.313-0.49-1.668-0.924c-0.355-0.432-0.533-1.01-0.533-1.729c0-0.922,0.33-1.674,0.991-2.256
	c0.661-0.584,1.615-0.875,2.864-0.875c1.148,0,2.069,0.279,2.762,0.84s1.075,1.375,1.148,2.441h-2.023
	c-0.15-1.031-0.82-1.545-2.01-1.545c-0.542,0-0.976,0.104-1.299,0.314c-0.319,0.209-0.479,0.496-0.479,0.861
	c0,0.264,0.082,0.484,0.246,0.662c0.169,0.178,0.438,0.313,0.807,0.404l2.447,0.602c1.007,0.24,1.697,0.58,2.071,1.018
	c0.378,0.438,0.567,1.01,0.567,1.717c0,0.971-0.347,1.758-1.039,2.365c-0.688,0.602-1.688,0.902-3.001,0.902
	c-1.226,0-2.227-0.287-3.001-0.861c-0.774-0.58-1.162-1.422-1.162-2.529H144.55z"/>
<path d="M137.719,71.702h0.1c0.546,0.002,0.842-0.181,0.886-0.548l0.666,0.002l-0.01,3.376l-0.792-0.003l0.007-2.335l-0.858-0.003
	L137.719,71.702z M138.574,76.849l3.382-5.672l0.616,0.002l-3.382,5.672L138.574,76.849z M140.936,75.447l1.369-2.047l0.842,0.002
	l-0.006,2.102l0.394,0.001l-0.001,0.536l-0.394-0.001l-0.002,0.724l-0.743-0.003l0.002-0.723l-1.462-0.005L140.936,75.447z
	 M141.518,75.499l0.881,0.003l0.004-1.371L141.518,75.499z"/>
<path d="M149.271,75.302l0.677,0.002c-0.057,0.463-0.223,0.844-0.497,1.144c-0.271,0.298-0.659,0.446-1.162,0.444
	c-0.559-0.001-1.001-0.189-1.327-0.563c-0.323-0.375-0.483-0.895-0.482-1.555c0.002-0.685,0.179-1.23,0.529-1.638
	c0.351-0.407,0.823-0.61,1.415-0.608c0.421,0.001,0.763,0.118,1.025,0.352c0.262,0.232,0.43,0.607,0.502,1.123l-0.677-0.002
	c-0.114-0.575-0.429-0.863-0.947-0.865c-0.36,0-0.638,0.139-0.835,0.416c-0.197,0.274-0.297,0.668-0.298,1.178
	c-0.001,0.47,0.087,0.846,0.265,1.131c0.178,0.281,0.446,0.422,0.803,0.423C148.776,76.285,149.113,75.958,149.271,75.302z"/>
<path d="M150.687,76.769l0.016-5.635l0.689,0.002l-0.016,5.635L150.687,76.769z"/>
<path d="M152.02,72.669l0.754,0.002l0.756,3.256l0.817-3.252l0.766,0.002l0.822,3.257l0.817-3.251l0.689,0.002l-1.175,4.1
	l-0.712-0.002l-0.852-3.191l-0.817,3.188l-0.712-0.002L152.02,72.669z"/>
<path fill="none" stroke="#000000" stroke-width="0.5669" stroke-miterlimit="10" stroke-dasharray="1.2266" d="M134.971,68.649
	c3.667-5,2.667-7-1-8.667"/>
<polygon fill-rule="evenodd" clip-rule="evenodd" stroke="#000000" stroke-width="0.2411" stroke-miterlimit="10" points="
	135.165,66.376 134.485,70.304 136.933,67.157 135.165,66.376 "/>
<path fill="none" stroke="#000000" stroke-width="0.5669" stroke-miterlimit="10" d="M115.604,56.305c-3.667,5-2.667,7,1,8.667"/>
<polygon fill-rule="evenodd" clip-rule="evenodd" stroke="#000000" stroke-width="0.2411" stroke-miterlimit="10" points="
	115.41,58.578 116.09,54.649 113.643,57.797 115.41,58.578 "/>
<path d="M241.9,54.953h-2.648c-0.161-0.62-0.247-1.3-0.258-2.039l-0.016-0.859c-0.011-0.573-0.138-0.981-0.383-1.227
	s-0.742-0.367-1.492-0.367h-2.516v4.492h-2.383v-11.5h5.867c1.104,0,1.987,0.3,2.648,0.898c0.661,0.594,0.992,1.398,0.992,2.414
	c0,1.297-0.597,2.198-1.789,2.703c0.646,0.255,1.05,0.606,1.211,1.055s0.242,1.148,0.242,2.102v0.461
	c0,0.438,0.028,0.786,0.086,1.047c0.063,0.255,0.208,0.425,0.438,0.508V54.953z M239.291,47c0-1.021-0.563-1.531-1.688-1.531h-3.016
	v3.07h2.828C238.666,48.539,239.291,48.026,239.291,47z"/>
<path d="M232.727,65.857c0-0.441,0.131-0.813,0.392-1.113c0.263-0.3,0.61-0.45,1.042-0.45c0.466,0,0.833,0.141,1.1,0.421
	c0.27,0.279,0.405,0.652,0.405,1.12c0,0.45-0.139,0.833-0.418,1.146c-0.276,0.312-0.626,0.468-1.051,0.468
	c-0.438,0-0.792-0.152-1.064-0.458C232.862,66.683,232.727,66.306,232.727,65.857z M233.315,65.524c0,0.469,0.084,0.875,0.251,1.222
	c0.167,0.344,0.4,0.516,0.699,0.516c0.25,0,0.448-0.103,0.594-0.307c0.146-0.207,0.219-0.514,0.219-0.921
	c0-0.444-0.088-0.814-0.265-1.11s-0.409-0.443-0.699-0.443c-0.252,0-0.449,0.099-0.591,0.297
	C233.385,64.975,233.315,65.224,233.315,65.524z"/>
<path d="M235.95,67.284c0.155-0.004,0.27-0.034,0.346-0.091c0.078-0.059,0.118-0.186,0.118-0.379v-1.639
	c0-0.194-0.021-0.315-0.062-0.366c-0.042-0.052-0.103-0.078-0.183-0.078c-0.065,0-0.138,0.009-0.219,0.026v-0.102
	c0.461-0.161,0.783-0.281,0.963-0.362l0.045,0.013v0.51c0.224-0.202,0.404-0.34,0.539-0.411c0.137-0.074,0.287-0.111,0.447-0.111
	c0.244,0,0.439,0.087,0.584,0.261c0.148,0.173,0.223,0.417,0.223,0.735v1.524c0,0.188,0.037,0.312,0.111,0.372
	c0.076,0.059,0.193,0.092,0.352,0.098v0.102h-1.481v-0.102c0.135-0.004,0.245-0.039,0.329-0.104c0.086-0.064,0.128-0.222,0.128-0.47
	v-1.339c0-0.27-0.045-0.456-0.134-0.558c-0.087-0.104-0.218-0.157-0.392-0.157c-0.106,0-0.214,0.03-0.323,0.092
	c-0.106,0.061-0.229,0.152-0.365,0.274v1.896c0,0.235,0.152,0.356,0.457,0.365v0.102h-1.482V67.284z"/>
<path d="M226.938,73.35h0.104c0.063,0.324,0.165,0.563,0.304,0.715c0.142,0.152,0.331,0.229,0.568,0.229
	c0.148,0,0.274-0.043,0.379-0.13c0.106-0.087,0.16-0.204,0.16-0.35c0-0.159-0.063-0.287-0.189-0.386
	c-0.124-0.1-0.294-0.207-0.509-0.323c-0.301-0.16-0.512-0.317-0.634-0.47c-0.122-0.154-0.183-0.333-0.183-0.535
	c0-0.223,0.085-0.411,0.255-0.568c0.169-0.159,0.392-0.238,0.666-0.238c0.113,0,0.234,0.022,0.362,0.068
	c0.128,0.044,0.211,0.065,0.248,0.065c0.035,0,0.073-0.024,0.114-0.075h0.072l0.026,0.934h-0.098
	c-0.12-0.559-0.364-0.839-0.731-0.839c-0.166,0-0.291,0.047-0.375,0.141s-0.127,0.191-0.127,0.294c0,0.163,0.053,0.289,0.16,0.379
	c0.109,0.089,0.306,0.215,0.591,0.378c0.307,0.173,0.52,0.32,0.637,0.444c0.12,0.122,0.18,0.286,0.18,0.493
	c0,0.259-0.097,0.469-0.291,0.63c-0.191,0.161-0.42,0.242-0.686,0.242c-0.103,0-0.241-0.021-0.415-0.06
	c-0.174-0.041-0.292-0.062-0.353-0.062c-0.067,0-0.116,0.027-0.146,0.081h-0.088V73.35z"/>
<path d="M229.827,72.524c0.013,0.405,0.11,0.75,0.291,1.035c0.183,0.285,0.441,0.428,0.777,0.428c0.424,0,0.774-0.229,1.048-0.688
	l0.098,0.046c-0.096,0.291-0.273,0.548-0.532,0.771c-0.259,0.222-0.545,0.333-0.859,0.333c-0.4,0-0.715-0.131-0.943-0.393
	c-0.229-0.263-0.343-0.642-0.343-1.136c0-0.507,0.133-0.904,0.398-1.191c0.268-0.29,0.597-0.435,0.989-0.435
	c0.344,0,0.615,0.105,0.813,0.316c0.198,0.209,0.315,0.514,0.353,0.914H229.827z M229.843,72.309h1.388
	c-0.059-0.516-0.265-0.774-0.617-0.774c-0.244,0-0.424,0.069-0.542,0.206S229.878,72.067,229.843,72.309z"/>
<path d="M234.842,73.35l0.098,0.059c-0.113,0.257-0.285,0.494-0.516,0.712c-0.229,0.218-0.505,0.327-0.829,0.327
	c-0.373,0-0.676-0.142-0.911-0.425c-0.235-0.283-0.353-0.639-0.353-1.067c0-0.479,0.143-0.875,0.428-1.188
	c0.285-0.315,0.644-0.474,1.077-0.474c0.259,0,0.49,0.065,0.692,0.196c0.205,0.128,0.307,0.292,0.307,0.492
	c0,0.099-0.03,0.174-0.091,0.226c-0.061,0.053-0.135,0.078-0.222,0.078c-0.107,0-0.191-0.061-0.251-0.183
	c-0.059-0.124-0.097-0.232-0.114-0.326c-0.011-0.055-0.041-0.116-0.088-0.187c-0.045-0.069-0.161-0.104-0.346-0.104
	c-0.226,0-0.429,0.104-0.607,0.311c-0.176,0.207-0.265,0.504-0.265,0.892c0,0.376,0.098,0.688,0.294,0.934
	c0.198,0.243,0.439,0.365,0.725,0.365c0.205,0,0.382-0.051,0.532-0.153C234.553,73.729,234.7,73.568,234.842,73.35z"/>
<path d="M235.325,72.857c0-0.441,0.131-0.813,0.392-1.113c0.263-0.3,0.61-0.45,1.042-0.45c0.466,0,0.833,0.141,1.1,0.421
	c0.27,0.279,0.404,0.652,0.404,1.12c0,0.45-0.139,0.833-0.417,1.146c-0.276,0.312-0.626,0.468-1.051,0.468
	c-0.438,0-0.792-0.152-1.064-0.458C235.46,73.683,235.325,73.306,235.325,72.857z M235.913,72.524c0,0.469,0.084,0.875,0.251,1.222
	c0.167,0.344,0.4,0.516,0.699,0.516c0.25,0,0.448-0.103,0.594-0.307c0.146-0.207,0.219-0.514,0.219-0.921
	c0-0.444-0.088-0.814-0.265-1.11s-0.409-0.443-0.699-0.443c-0.252,0-0.449,0.099-0.591,0.297
	C235.982,71.975,235.913,72.224,235.913,72.524z"/>
<path d="M238.547,74.284c0.155-0.004,0.271-0.034,0.347-0.091c0.078-0.059,0.117-0.186,0.117-0.379v-1.639
	c0-0.194-0.021-0.315-0.063-0.366c-0.041-0.052-0.102-0.078-0.183-0.078c-0.065,0-0.138,0.009-0.219,0.026v-0.102
	c0.462-0.161,0.782-0.281,0.964-0.362l0.045,0.013v0.51c0.225-0.202,0.404-0.34,0.539-0.411c0.137-0.074,0.286-0.111,0.447-0.111
	c0.244,0,0.438,0.087,0.584,0.261c0.148,0.173,0.223,0.417,0.223,0.735v1.524c0,0.188,0.037,0.312,0.11,0.372
	c0.076,0.059,0.194,0.092,0.353,0.098v0.102h-1.482v-0.102c0.135-0.004,0.245-0.039,0.33-0.104c0.085-0.064,0.127-0.222,0.127-0.47
	v-1.339c0-0.27-0.045-0.456-0.133-0.558c-0.088-0.104-0.219-0.157-0.393-0.157c-0.106,0-0.215,0.03-0.323,0.092
	c-0.106,0.061-0.229,0.152-0.365,0.274v1.896c0,0.235,0.152,0.356,0.457,0.365v0.102h-1.482V74.284z"/>
<path d="M244.124,74.448l-0.033-0.021V74.03c-0.203,0.278-0.491,0.418-0.865,0.418c-0.34,0-0.629-0.127-0.869-0.379
	c-0.236-0.255-0.355-0.626-0.355-1.113c0-0.462,0.135-0.854,0.402-1.176c0.27-0.324,0.602-0.486,0.995-0.486
	c0.257,0,0.487,0.104,0.692,0.313v-1.058c0-0.159-0.025-0.261-0.075-0.304c-0.05-0.046-0.136-0.068-0.258-0.068
	c-0.048,0-0.092,0.002-0.131,0.006v-0.101c0.39-0.092,0.716-0.189,0.976-0.294l0.05,0.017v3.882c0,0.13,0.028,0.216,0.085,0.258
	c0.059,0.041,0.137,0.062,0.234,0.062c0.051,0,0.099-0.002,0.145-0.006v0.101L244.124,74.448z M244.091,73.664v-1.485
	c0-0.176-0.064-0.334-0.193-0.474c-0.128-0.142-0.292-0.212-0.492-0.212c-0.24,0-0.436,0.105-0.588,0.316s-0.229,0.518-0.229,0.918
	c0,0.398,0.08,0.727,0.238,0.985c0.158,0.26,0.385,0.389,0.676,0.389c0.161,0,0.299-0.045,0.414-0.134
	C244.033,73.878,244.091,73.777,244.091,73.664z"/>
<path d="M226.671,81.448l-0.033-0.021V81.03c-0.203,0.278-0.491,0.418-0.865,0.418c-0.34,0-0.629-0.127-0.869-0.379
	c-0.237-0.255-0.356-0.626-0.356-1.113c0-0.462,0.134-0.854,0.402-1.176c0.27-0.324,0.602-0.486,0.996-0.486
	c0.257,0,0.488,0.104,0.692,0.313v-1.058c0-0.159-0.025-0.261-0.075-0.304c-0.05-0.046-0.136-0.068-0.258-0.068
	c-0.048,0-0.092,0.002-0.131,0.006v-0.101c0.39-0.092,0.715-0.189,0.976-0.294l0.049,0.017v3.882c0,0.13,0.028,0.216,0.085,0.258
	c0.059,0.041,0.137,0.062,0.235,0.062c0.05,0,0.098-0.002,0.144-0.006v0.101L226.671,81.448z M226.639,80.664v-1.485
	c0-0.176-0.064-0.334-0.193-0.474c-0.128-0.142-0.292-0.212-0.493-0.212c-0.24,0-0.436,0.105-0.588,0.316s-0.229,0.518-0.229,0.918
	c0,0.398,0.08,0.727,0.238,0.985c0.159,0.26,0.384,0.389,0.676,0.389c0.161,0,0.299-0.045,0.415-0.134
	C226.581,80.878,226.639,80.777,226.639,80.664z"/>
<path d="M227.948,81.385v-0.102c0.159-0.009,0.275-0.041,0.35-0.098c0.076-0.059,0.114-0.218,0.114-0.477v-1.587
	c0-0.144-0.018-0.245-0.052-0.304c-0.033-0.059-0.082-0.088-0.147-0.088c-0.042,0-0.081,0.002-0.118,0.007
	c-0.037,0.004-0.086,0.011-0.147,0.02v-0.102c0.335-0.113,0.668-0.233,0.999-0.362l0.026,0.02v2.396
	c0,0.232,0.032,0.384,0.098,0.454c0.067,0.067,0.189,0.107,0.366,0.12v0.102H227.948z M228.297,77.167
	c0-0.092,0.032-0.171,0.098-0.238c0.067-0.067,0.149-0.102,0.245-0.102c0.093,0,0.174,0.032,0.241,0.098s0.102,0.142,0.102,0.229
	c0,0.109-0.034,0.196-0.102,0.262c-0.067,0.063-0.15,0.095-0.248,0.095c-0.096,0-0.176-0.033-0.242-0.099
	C228.329,77.344,228.297,77.263,228.297,77.167z"/>
<path d="M231.457,79.414v-0.389c0-0.363-0.165-0.545-0.496-0.545c-0.124,0-0.234,0.031-0.33,0.095
	c-0.096,0.061-0.144,0.135-0.144,0.222c0,0.032,0.005,0.074,0.016,0.124c0.013,0.048,0.02,0.094,0.02,0.137
	c0,0.083-0.029,0.15-0.088,0.203c-0.059,0.052-0.127,0.078-0.206,0.078c-0.089,0-0.161-0.026-0.215-0.078
	c-0.052-0.055-0.078-0.127-0.078-0.216c0-0.179,0.094-0.349,0.284-0.51c0.191-0.16,0.452-0.241,0.78-0.241
	c0.353,0,0.611,0.075,0.774,0.226c0.163,0.149,0.245,0.417,0.245,0.8v1.358c0,0.139,0.014,0.238,0.042,0.297
	c0.028,0.057,0.076,0.085,0.144,0.085c0.056,0,0.11-0.011,0.16-0.033c0.052-0.021,0.101-0.056,0.147-0.101v0.183
	c-0.115,0.124-0.219,0.212-0.31,0.265c-0.089,0.05-0.188,0.075-0.294,0.075c-0.276,0-0.423-0.157-0.441-0.471
	c-0.348,0.313-0.665,0.471-0.95,0.471c-0.207,0-0.377-0.066-0.509-0.199c-0.131-0.136-0.196-0.296-0.196-0.483
	c0-0.34,0.148-0.604,0.444-0.79C230.554,79.786,230.955,79.598,231.457,79.414z M231.457,79.574
	c-0.42,0.156-0.702,0.309-0.845,0.457c-0.142,0.146-0.212,0.31-0.212,0.492c0,0.161,0.042,0.291,0.124,0.389
	c0.085,0.099,0.187,0.147,0.307,0.147c0.108,0,0.209-0.021,0.3-0.063c0.093-0.043,0.172-0.095,0.235-0.153
	c0.026-0.021,0.048-0.049,0.065-0.082c0.018-0.034,0.026-0.104,0.026-0.209V79.574z"/>
<path d="M235.688,78.515v0.262h-0.555c0.083,0.193,0.124,0.399,0.124,0.617c0,0.296-0.113,0.534-0.339,0.715
	c-0.224,0.179-0.468,0.268-0.731,0.268c-0.091,0-0.171-0.004-0.238-0.013s-0.114-0.014-0.14-0.014c-0.063,0-0.143,0.055-0.238,0.163
	c-0.094,0.109-0.141,0.195-0.141,0.258c0,0.044,0.037,0.084,0.111,0.121c0.074,0.037,0.213,0.061,0.418,0.068l0.859,0.04
	c0.274,0.015,0.477,0.089,0.607,0.222c0.133,0.133,0.199,0.299,0.199,0.499c0,0.315-0.185,0.583-0.555,0.8
	c-0.37,0.218-0.754,0.327-1.153,0.327c-0.354,0-0.642-0.064-0.862-0.193c-0.218-0.128-0.327-0.279-0.327-0.453
	c0-0.235,0.227-0.509,0.679-0.819c-0.146-0.048-0.246-0.103-0.3-0.164c-0.054-0.063-0.082-0.134-0.082-0.212
	c0-0.076,0.036-0.158,0.108-0.248c0.074-0.089,0.229-0.248,0.467-0.477c-0.4-0.179-0.601-0.468-0.601-0.868
	c0-0.34,0.11-0.61,0.33-0.813c0.22-0.204,0.492-0.307,0.816-0.307c0.12,0,0.234,0.016,0.343,0.046
	c0.111,0.028,0.211,0.063,0.301,0.104c0.063,0.026,0.131,0.045,0.206,0.056c0.076,0.011,0.151,0.016,0.225,0.016H235.688z
	 M233.511,81.402c-0.213,0.232-0.32,0.43-0.32,0.591c0,0.131,0.086,0.242,0.258,0.336c0.174,0.092,0.428,0.138,0.761,0.138
	c0.368,0,0.665-0.063,0.891-0.187c0.227-0.126,0.34-0.282,0.34-0.467c0-0.126-0.053-0.208-0.16-0.245
	c-0.106-0.037-0.328-0.063-0.663-0.078c-0.122-0.005-0.296-0.011-0.522-0.02C233.871,81.461,233.676,81.439,233.511,81.402z
	 M233.534,79.061c0,0.315,0.058,0.583,0.173,0.803c0.116,0.218,0.29,0.326,0.522,0.326c0.329,0,0.493-0.209,0.493-0.626
	c0-0.271-0.062-0.519-0.186-0.745c-0.124-0.226-0.29-0.339-0.497-0.339c-0.148,0-0.27,0.05-0.365,0.149
	C233.581,78.73,233.534,78.874,233.534,79.061z"/>
<path d="M236.07,79.857c0-0.441,0.131-0.813,0.392-1.113c0.263-0.3,0.61-0.45,1.042-0.45c0.466,0,0.833,0.141,1.101,0.421
	c0.27,0.279,0.404,0.652,0.404,1.12c0,0.45-0.139,0.833-0.418,1.146c-0.276,0.312-0.626,0.468-1.051,0.468
	c-0.438,0-0.792-0.152-1.064-0.458C236.206,80.683,236.07,80.306,236.07,79.857z M236.658,79.524c0,0.469,0.084,0.875,0.251,1.222
	c0.167,0.344,0.4,0.516,0.699,0.516c0.25,0,0.448-0.103,0.594-0.307c0.146-0.207,0.219-0.514,0.219-0.921
	c0-0.444-0.088-0.814-0.264-1.11c-0.177-0.296-0.41-0.443-0.699-0.443c-0.252,0-0.449,0.099-0.591,0.297
	C236.728,78.975,236.658,79.224,236.658,79.524z"/>
<path d="M239.293,81.284c0.155-0.004,0.271-0.034,0.347-0.091c0.078-0.059,0.117-0.186,0.117-0.379v-1.639
	c0-0.194-0.021-0.315-0.063-0.366c-0.041-0.052-0.102-0.078-0.183-0.078c-0.065,0-0.138,0.009-0.219,0.026v-0.102
	c0.462-0.161,0.782-0.281,0.964-0.362l0.045,0.013v0.51c0.225-0.202,0.404-0.34,0.539-0.411c0.137-0.074,0.286-0.111,0.447-0.111
	c0.244,0,0.438,0.087,0.584,0.261c0.148,0.173,0.223,0.417,0.223,0.735v1.524c0,0.188,0.037,0.312,0.11,0.372
	c0.076,0.059,0.194,0.092,0.353,0.098v0.102h-1.482v-0.102c0.135-0.004,0.245-0.039,0.33-0.104c0.085-0.064,0.127-0.222,0.127-0.47
	v-1.339c0-0.27-0.045-0.456-0.133-0.558c-0.088-0.104-0.219-0.157-0.393-0.157c-0.106,0-0.215,0.03-0.323,0.092
	c-0.106,0.061-0.229,0.152-0.365,0.274v1.896c0,0.235,0.152,0.356,0.457,0.365v0.102h-1.482V81.284z"/>
<path d="M244.454,79.414v-0.389c0-0.363-0.165-0.545-0.496-0.545c-0.124,0-0.234,0.031-0.33,0.095
	c-0.096,0.061-0.143,0.135-0.143,0.222c0,0.032,0.005,0.074,0.016,0.124c0.014,0.048,0.02,0.094,0.02,0.137
	c0,0.083-0.029,0.15-0.088,0.203c-0.059,0.052-0.127,0.078-0.206,0.078c-0.089,0-0.161-0.026-0.216-0.078
	c-0.052-0.055-0.078-0.127-0.078-0.216c0-0.179,0.095-0.349,0.284-0.51c0.191-0.16,0.452-0.241,0.78-0.241
	c0.353,0,0.611,0.075,0.773,0.226c0.164,0.149,0.245,0.417,0.245,0.8v1.358c0,0.139,0.015,0.238,0.042,0.297
	c0.029,0.057,0.076,0.085,0.145,0.085c0.057,0,0.109-0.011,0.16-0.033c0.052-0.021,0.101-0.056,0.146-0.101v0.183
	c-0.115,0.124-0.219,0.212-0.311,0.265c-0.089,0.05-0.188,0.075-0.293,0.075c-0.277,0-0.424-0.157-0.441-0.471
	c-0.348,0.313-0.664,0.471-0.949,0.471c-0.207,0-0.377-0.066-0.51-0.199c-0.131-0.136-0.196-0.296-0.196-0.483
	c0-0.34,0.148-0.604,0.444-0.79C243.551,79.786,243.952,79.598,244.454,79.414z M244.454,79.574
	c-0.42,0.156-0.701,0.309-0.846,0.457c-0.141,0.146-0.212,0.31-0.212,0.492c0,0.161,0.042,0.291,0.124,0.389
	c0.085,0.099,0.188,0.147,0.307,0.147c0.109,0,0.209-0.021,0.301-0.063c0.094-0.043,0.172-0.095,0.234-0.153
	c0.027-0.021,0.049-0.049,0.066-0.082c0.018-0.034,0.025-0.104,0.025-0.209V79.574z"/>
<path d="M245.728,81.385v-0.102c0.133,0,0.242-0.028,0.33-0.085c0.089-0.059,0.134-0.204,0.134-0.438v-3.212
	c0-0.161-0.02-0.265-0.06-0.311c-0.039-0.046-0.109-0.068-0.211-0.068c-0.045,0-0.108,0.004-0.193,0.013v-0.101
	c0.367-0.085,0.701-0.183,0.999-0.294l0.026,0.02v4.006c0,0.183,0.031,0.304,0.095,0.362s0.187,0.095,0.368,0.107v0.102H245.728z"/>
<path d="M272.483,55.286h-2.648c-0.16-0.62-0.246-1.3-0.258-2.039l-0.016-0.859c-0.01-0.573-0.137-0.981-0.383-1.227
	c-0.244-0.245-0.742-0.367-1.492-0.367h-2.516v4.492h-2.383v-11.5h5.867c1.105,0,1.988,0.3,2.648,0.898
	c0.662,0.594,0.992,1.398,0.992,2.414c0,1.297-0.596,2.198-1.789,2.703c0.646,0.255,1.051,0.606,1.211,1.055
	c0.162,0.448,0.242,1.148,0.242,2.102v0.461c0,0.438,0.029,0.786,0.086,1.047c0.063,0.255,0.209,0.425,0.438,0.508V55.286z
	 M269.874,47.333c0-1.021-0.563-1.531-1.688-1.531h-3.016v3.07h2.828C269.249,48.872,269.874,48.359,269.874,47.333z"/>
<path d="M263.311,66.19c0-0.441,0.131-0.813,0.392-1.113c0.264-0.3,0.611-0.45,1.042-0.45c0.466,0,0.833,0.141,1.101,0.421
	c0.27,0.279,0.404,0.652,0.404,1.12c0,0.45-0.139,0.833-0.418,1.146c-0.276,0.312-0.627,0.468-1.051,0.468
	c-0.438,0-0.793-0.152-1.064-0.458C263.446,67.016,263.311,66.639,263.311,66.19z M263.898,65.857c0,0.469,0.084,0.875,0.251,1.222
	c0.168,0.344,0.4,0.516,0.699,0.516c0.25,0,0.448-0.103,0.594-0.307c0.146-0.207,0.219-0.514,0.219-0.921
	c0-0.444-0.088-0.814-0.264-1.11c-0.177-0.296-0.41-0.443-0.699-0.443c-0.252,0-0.449,0.099-0.591,0.297
	C263.968,65.308,263.898,65.557,263.898,65.857z"/>
<path d="M266.533,67.617c0.155-0.004,0.271-0.034,0.347-0.091c0.078-0.059,0.117-0.186,0.117-0.379v-1.639
	c0-0.194-0.021-0.315-0.063-0.366c-0.041-0.052-0.102-0.078-0.183-0.078c-0.065,0-0.138,0.009-0.219,0.026v-0.102
	c0.462-0.161,0.782-0.281,0.964-0.362l0.045,0.013v0.51c0.225-0.202,0.404-0.34,0.539-0.411c0.137-0.074,0.286-0.111,0.447-0.111
	c0.244,0,0.438,0.087,0.584,0.261c0.148,0.173,0.223,0.417,0.223,0.735v1.524c0,0.188,0.037,0.312,0.11,0.372
	c0.076,0.059,0.194,0.092,0.353,0.098v0.102h-1.482v-0.102c0.135-0.004,0.245-0.039,0.33-0.104c0.085-0.064,0.127-0.222,0.127-0.47
	v-1.339c0-0.27-0.045-0.456-0.133-0.558c-0.088-0.104-0.219-0.157-0.393-0.157c-0.106,0-0.215,0.03-0.323,0.092
	c-0.106,0.061-0.229,0.152-0.365,0.274v1.896c0,0.235,0.152,0.356,0.457,0.365v0.102h-1.482V67.617z"/>
<path d="M261.239,71.689h0.522c0-1.045,0.401-1.567,1.204-1.567c0.186,0,0.342,0.04,0.471,0.121c0.129,0.08,0.193,0.176,0.193,0.287
	c0,0.085-0.027,0.153-0.082,0.205c-0.055,0.051-0.123,0.075-0.206,0.075c-0.089,0-0.189-0.082-0.3-0.248
	c-0.111-0.17-0.219-0.255-0.324-0.255c-0.263,0-0.395,0.2-0.395,0.602v0.78h0.836v0.215h-0.836v2.139
	c0,0.227,0.033,0.374,0.102,0.444c0.067,0.069,0.172,0.108,0.313,0.117l0.219,0.013v0.102h-1.746v-0.102
	c0.198-0.004,0.34-0.037,0.424-0.098c0.086-0.063,0.128-0.222,0.128-0.477v-2.139h-0.522V71.689z"/>
<path d="M263.541,74.718v-0.102c0.159-0.009,0.275-0.041,0.35-0.098c0.076-0.059,0.114-0.218,0.114-0.477v-1.587
	c0-0.144-0.018-0.245-0.053-0.304c-0.032-0.059-0.082-0.088-0.146-0.088c-0.041,0-0.08,0.002-0.117,0.007
	c-0.037,0.004-0.086,0.011-0.147,0.02v-0.102c0.335-0.113,0.668-0.233,0.999-0.362l0.026,0.02v2.396
	c0,0.232,0.032,0.384,0.098,0.454c0.067,0.067,0.189,0.107,0.366,0.12v0.102H263.541z M263.891,70.5
	c0-0.092,0.032-0.171,0.098-0.238c0.067-0.067,0.149-0.102,0.245-0.102c0.094,0,0.174,0.032,0.241,0.098s0.102,0.142,0.102,0.229
	c0,0.109-0.034,0.196-0.102,0.262c-0.067,0.063-0.149,0.095-0.248,0.095c-0.096,0-0.177-0.033-0.241-0.099
	C263.922,70.677,263.891,70.596,263.891,70.5z"/>
<path d="M265.206,74.718v-0.102c0.17-0.025,0.289-0.067,0.359-0.124c0.07-0.059,0.104-0.181,0.104-0.365v-1.652
	c0-0.274-0.075-0.411-0.226-0.411c-0.082,0-0.162,0.009-0.238,0.026v-0.102c0.324-0.115,0.655-0.236,0.992-0.362l0.033,0.02v0.607
	c0.279-0.418,0.543-0.627,0.793-0.627c0.109,0,0.195,0.031,0.258,0.095c0.066,0.063,0.099,0.158,0.099,0.284
	c0,0.098-0.026,0.173-0.079,0.226c-0.052,0.05-0.11,0.074-0.176,0.074c-0.094,0-0.176-0.042-0.248-0.127
	c-0.072-0.087-0.141-0.131-0.205-0.131c-0.084,0-0.178,0.064-0.285,0.193c-0.104,0.128-0.156,0.245-0.156,0.353v1.479
	c0,0.202,0.036,0.34,0.107,0.411c0.074,0.072,0.229,0.117,0.464,0.134v0.102H265.206z"/>
<path d="M267.729,73.683h0.105c0.063,0.324,0.164,0.563,0.303,0.715c0.143,0.152,0.331,0.229,0.568,0.229
	c0.148,0,0.274-0.043,0.379-0.13c0.106-0.087,0.16-0.204,0.16-0.35c0-0.159-0.063-0.287-0.189-0.386
	c-0.124-0.1-0.294-0.207-0.51-0.323c-0.301-0.16-0.512-0.317-0.633-0.47c-0.122-0.154-0.184-0.333-0.184-0.535
	c0-0.223,0.086-0.411,0.256-0.568c0.169-0.159,0.391-0.238,0.666-0.238c0.112,0,0.233,0.022,0.361,0.068
	c0.129,0.044,0.211,0.065,0.248,0.065c0.035,0,0.073-0.024,0.115-0.075h0.071l0.026,0.934h-0.098
	c-0.12-0.559-0.364-0.839-0.732-0.839c-0.165,0-0.29,0.047-0.375,0.141s-0.127,0.191-0.127,0.294c0,0.163,0.053,0.289,0.16,0.379
	c0.108,0.089,0.305,0.215,0.59,0.378c0.308,0.173,0.52,0.32,0.637,0.444c0.12,0.122,0.18,0.286,0.18,0.493
	c0,0.259-0.096,0.469-0.29,0.63c-0.191,0.161-0.42,0.242-0.686,0.242c-0.103,0-0.241-0.021-0.415-0.06
	c-0.174-0.041-0.291-0.062-0.353-0.062c-0.067,0-0.116,0.027-0.146,0.081h-0.089V73.683z"/>
<path d="M270.976,70.8c0.013,0,0.022,0.007,0.029,0.02c0.006,0.011,0.01,0.045,0.01,0.102v0.768h0.679v0.215h-0.679v1.927
	c0,0.402,0.111,0.604,0.333,0.604c0.078,0,0.154-0.021,0.229-0.062c0.073-0.044,0.136-0.1,0.187-0.167l0.088,0.075
	c-0.074,0.133-0.185,0.249-0.33,0.35c-0.144,0.1-0.297,0.15-0.461,0.15c-0.404,0-0.607-0.292-0.607-0.875v-2.002h-0.283
	c-0.063,0-0.095-0.017-0.095-0.049c0-0.026,0.026-0.058,0.078-0.095c0.175-0.117,0.324-0.264,0.45-0.438
	C270.731,71.147,270.855,70.972,270.976,70.8z"/>
<path d="M257.255,81.781l-0.033-0.021v-0.397c-0.202,0.278-0.49,0.418-0.865,0.418c-0.34,0-0.629-0.127-0.868-0.379
	c-0.237-0.255-0.356-0.626-0.356-1.113c0-0.462,0.135-0.854,0.402-1.176c0.27-0.324,0.602-0.486,0.996-0.486
	c0.256,0,0.487,0.104,0.691,0.313v-1.058c0-0.159-0.025-0.261-0.074-0.304c-0.051-0.046-0.137-0.068-0.258-0.068
	c-0.049,0-0.092,0.002-0.131,0.006v-0.101c0.389-0.092,0.715-0.189,0.976-0.294l0.05,0.017v3.882c0,0.13,0.027,0.216,0.084,0.258
	c0.059,0.041,0.137,0.062,0.235,0.062c0.05,0,0.099-0.002,0.144-0.006v0.101L257.255,81.781z M257.222,80.997v-1.485
	c0-0.176-0.064-0.334-0.192-0.474c-0.128-0.142-0.292-0.212-0.493-0.212c-0.239,0-0.436,0.105-0.588,0.316s-0.229,0.518-0.229,0.918
	c0,0.398,0.08,0.727,0.238,0.985c0.159,0.26,0.385,0.389,0.676,0.389c0.162,0,0.3-0.045,0.415-0.134
	C257.165,81.211,257.222,81.11,257.222,80.997z"/>
<path d="M258.531,81.718v-0.102c0.159-0.009,0.275-0.041,0.35-0.098c0.076-0.059,0.114-0.218,0.114-0.477v-1.587
	c0-0.144-0.018-0.245-0.053-0.304c-0.032-0.059-0.082-0.088-0.146-0.088c-0.041,0-0.08,0.002-0.117,0.007
	c-0.037,0.004-0.086,0.011-0.147,0.02v-0.102c0.335-0.113,0.668-0.233,0.999-0.362l0.026,0.02v2.396
	c0,0.232,0.032,0.384,0.098,0.454c0.067,0.067,0.189,0.107,0.366,0.12v0.102H258.531z M258.881,77.5
	c0-0.092,0.032-0.171,0.098-0.238c0.067-0.067,0.149-0.102,0.245-0.102c0.094,0,0.174,0.032,0.241,0.098s0.102,0.142,0.102,0.229
	c0,0.109-0.034,0.196-0.102,0.262c-0.067,0.063-0.149,0.095-0.248,0.095c-0.096,0-0.177-0.033-0.241-0.099
	C258.912,77.677,258.881,77.596,258.881,77.5z"/>
<path d="M262.04,79.747v-0.389c0-0.363-0.164-0.545-0.496-0.545c-0.123,0-0.233,0.031-0.329,0.095
	c-0.096,0.061-0.144,0.135-0.144,0.222c0,0.032,0.006,0.074,0.016,0.124c0.014,0.048,0.02,0.094,0.02,0.137
	c0,0.083-0.029,0.15-0.088,0.203c-0.059,0.052-0.127,0.078-0.205,0.078c-0.09,0-0.162-0.026-0.216-0.078
	c-0.052-0.055-0.078-0.127-0.078-0.216c0-0.179,0.095-0.349,0.284-0.51c0.191-0.16,0.451-0.241,0.779-0.241
	c0.354,0,0.611,0.075,0.774,0.226c0.163,0.149,0.245,0.417,0.245,0.8v1.358c0,0.139,0.014,0.238,0.042,0.297
	c0.028,0.057,0.076,0.085,0.144,0.085c0.057,0,0.11-0.011,0.16-0.033c0.053-0.021,0.102-0.056,0.146-0.101v0.183
	c-0.115,0.124-0.219,0.212-0.31,0.265c-0.089,0.05-0.188,0.075-0.294,0.075c-0.276,0-0.424-0.157-0.441-0.471
	c-0.348,0.313-0.664,0.471-0.949,0.471c-0.207,0-0.377-0.066-0.51-0.199c-0.131-0.136-0.195-0.296-0.195-0.483
	c0-0.34,0.148-0.604,0.443-0.79C261.138,80.119,261.538,79.931,262.04,79.747z M262.04,79.907c-0.42,0.156-0.701,0.309-0.845,0.457
	c-0.142,0.146-0.212,0.31-0.212,0.492c0,0.161,0.041,0.291,0.123,0.389c0.086,0.099,0.188,0.147,0.308,0.147
	c0.108,0,0.209-0.021,0.3-0.063c0.094-0.043,0.172-0.095,0.235-0.153c0.026-0.021,0.048-0.049,0.065-0.082
	c0.018-0.034,0.025-0.104,0.025-0.209V79.907z"/>
<path d="M266.272,78.848v0.262h-0.556c0.083,0.193,0.124,0.399,0.124,0.617c0,0.296-0.113,0.534-0.34,0.715
	c-0.224,0.179-0.467,0.268-0.73,0.268c-0.092,0-0.172-0.004-0.238-0.013c-0.068-0.009-0.115-0.014-0.141-0.014
	c-0.063,0-0.143,0.055-0.238,0.163c-0.094,0.109-0.141,0.195-0.141,0.258c0,0.044,0.037,0.084,0.111,0.121s0.213,0.061,0.418,0.068
	l0.858,0.04c0.274,0.015,0.477,0.089,0.606,0.222c0.133,0.133,0.199,0.299,0.199,0.499c0,0.315-0.185,0.583-0.555,0.8
	c-0.369,0.218-0.754,0.327-1.152,0.327c-0.354,0-0.643-0.064-0.861-0.193c-0.219-0.128-0.327-0.279-0.327-0.453
	c0-0.235,0.227-0.509,0.679-0.819c-0.145-0.048-0.246-0.103-0.3-0.164c-0.054-0.063-0.081-0.134-0.081-0.212
	c0-0.076,0.035-0.158,0.107-0.248c0.074-0.089,0.229-0.248,0.467-0.477c-0.4-0.179-0.602-0.468-0.602-0.868
	c0-0.34,0.11-0.61,0.33-0.813c0.221-0.204,0.492-0.307,0.816-0.307c0.119,0,0.234,0.016,0.343,0.046
	c0.111,0.028,0.212,0.063,0.301,0.104c0.063,0.026,0.132,0.045,0.206,0.056c0.076,0.011,0.15,0.016,0.225,0.016H266.272z
	 M264.095,81.735c-0.214,0.232-0.32,0.43-0.32,0.591c0,0.131,0.086,0.242,0.258,0.336c0.174,0.092,0.428,0.138,0.761,0.138
	c0.368,0,0.665-0.063,0.892-0.187c0.227-0.126,0.34-0.282,0.34-0.467c0-0.126-0.054-0.208-0.16-0.245
	c-0.107-0.037-0.328-0.063-0.663-0.078c-0.122-0.005-0.296-0.011-0.522-0.02C264.454,81.794,264.26,81.772,264.095,81.735z
	 M264.117,79.394c0,0.315,0.058,0.583,0.173,0.803c0.115,0.218,0.289,0.326,0.522,0.326c0.329,0,0.493-0.209,0.493-0.626
	c0-0.271-0.063-0.519-0.186-0.745c-0.125-0.226-0.29-0.339-0.497-0.339c-0.147,0-0.27,0.05-0.365,0.149
	C264.164,79.063,264.117,79.207,264.117,79.394z"/>
<path d="M266.653,80.19c0-0.441,0.131-0.813,0.393-1.113c0.264-0.3,0.61-0.45,1.041-0.45c0.467,0,0.833,0.141,1.101,0.421
	c0.271,0.279,0.405,0.652,0.405,1.12c0,0.45-0.14,0.833-0.418,1.146c-0.277,0.312-0.627,0.468-1.052,0.468
	c-0.438,0-0.792-0.152-1.063-0.458C266.789,81.016,266.653,80.639,266.653,80.19z M267.241,79.857c0,0.469,0.084,0.875,0.252,1.222
	c0.168,0.344,0.4,0.516,0.699,0.516c0.25,0,0.447-0.103,0.594-0.307c0.146-0.207,0.219-0.514,0.219-0.921
	c0-0.444-0.088-0.814-0.265-1.11s-0.409-0.443-0.698-0.443c-0.253,0-0.449,0.099-0.592,0.297
	C267.312,79.308,267.241,79.557,267.241,79.857z"/>
<path d="M269.876,81.617c0.155-0.004,0.271-0.034,0.347-0.091c0.078-0.059,0.118-0.186,0.118-0.379v-1.639
	c0-0.194-0.021-0.315-0.063-0.366c-0.041-0.052-0.103-0.078-0.184-0.078c-0.064,0-0.138,0.009-0.219,0.026v-0.102
	c0.462-0.161,0.783-0.281,0.964-0.362l0.046,0.013v0.51c0.224-0.202,0.403-0.34,0.538-0.411c0.138-0.074,0.286-0.111,0.447-0.111
	c0.244,0,0.438,0.087,0.585,0.261c0.147,0.173,0.222,0.417,0.222,0.735v1.524c0,0.188,0.037,0.312,0.11,0.372
	c0.076,0.059,0.194,0.092,0.354,0.098v0.102h-1.482v-0.102c0.135-0.004,0.244-0.039,0.33-0.104c0.084-0.064,0.127-0.222,0.127-0.47
	v-1.339c0-0.27-0.045-0.456-0.134-0.558c-0.087-0.104-0.218-0.157-0.392-0.157c-0.107,0-0.215,0.03-0.324,0.092
	c-0.105,0.061-0.229,0.152-0.365,0.274v1.896c0,0.235,0.152,0.356,0.457,0.365v0.102h-1.482V81.617z"/>
<path d="M275.038,79.747v-0.389c0-0.363-0.166-0.545-0.496-0.545c-0.125,0-0.234,0.031-0.33,0.095
	c-0.096,0.061-0.144,0.135-0.144,0.222c0,0.032,0.005,0.074,0.017,0.124c0.013,0.048,0.02,0.094,0.02,0.137
	c0,0.083-0.029,0.15-0.088,0.203c-0.06,0.052-0.128,0.078-0.207,0.078c-0.089,0-0.16-0.026-0.215-0.078
	c-0.053-0.055-0.078-0.127-0.078-0.216c0-0.179,0.094-0.349,0.283-0.51c0.191-0.16,0.452-0.241,0.781-0.241
	c0.352,0,0.61,0.075,0.773,0.226c0.163,0.149,0.244,0.417,0.244,0.8v1.358c0,0.139,0.015,0.238,0.043,0.297
	c0.028,0.057,0.076,0.085,0.145,0.085c0.056,0,0.109-0.011,0.159-0.033c0.052-0.021,0.101-0.056,0.147-0.101v0.183
	c-0.115,0.124-0.219,0.212-0.311,0.265c-0.09,0.05-0.188,0.075-0.294,0.075c-0.276,0-0.423-0.157-0.44-0.471
	c-0.349,0.313-0.665,0.471-0.95,0.471c-0.207,0-0.377-0.066-0.509-0.199c-0.131-0.136-0.197-0.296-0.197-0.483
	c0-0.34,0.148-0.604,0.445-0.79C274.134,80.119,274.535,79.931,275.038,79.747z M275.038,79.907
	c-0.42,0.156-0.702,0.309-0.846,0.457c-0.142,0.146-0.213,0.31-0.213,0.492c0,0.161,0.042,0.291,0.125,0.389
	c0.084,0.099,0.187,0.147,0.307,0.147c0.108,0,0.209-0.021,0.301-0.063c0.093-0.043,0.172-0.095,0.234-0.153
	c0.026-0.021,0.048-0.049,0.065-0.082c0.018-0.034,0.026-0.104,0.026-0.209V79.907z"/>
<path d="M276.312,81.718v-0.102c0.133,0,0.242-0.028,0.329-0.085c0.089-0.059,0.134-0.204,0.134-0.438v-3.212
	c0-0.161-0.02-0.265-0.059-0.311s-0.109-0.068-0.212-0.068c-0.044,0-0.108,0.004-0.192,0.013v-0.101
	c0.367-0.085,0.7-0.183,0.998-0.294l0.027,0.02v4.006c0,0.183,0.031,0.304,0.094,0.362c0.063,0.059,0.187,0.095,0.369,0.107v0.102
	H276.312z"/>
<circle fill="#FFFFFF" stroke="#000000" stroke-width="0.5669" cx="307.35" cy="62.236" r="6.696"/>
<circle fill="#FFFFFF" stroke="#000000" stroke-width="0.5669" cx="297.888" cy="52.772" r="6.696"/>
<circle fill="#FFFFFF" stroke="#000000" stroke-width="0.5669" cx="316.813" cy="71.699" r="6.696"/>
<line fill="none" stroke="#000000" stroke-width="0.5669" x1="291.279" y1="46.166" x2="323.42" y2="78.306"/>
<rect x="288.793" y="30.389" fill="none" stroke="#000000" stroke-width="0.4647" stroke-miterlimit="10" width="8.363" height="8.365"/>
<path d="M292.138,35.384c0.02,0.61,0.275,0.916,0.77,0.916c0.236,0,0.428-0.073,0.574-0.22s0.221-0.355,0.221-0.626
	c0-0.264-0.095-0.456-0.282-0.575c-0.187-0.122-0.495-0.183-0.927-0.183v-0.747h0.168c0.584,0,0.876-0.232,0.876-0.696
	c0-0.208-0.062-0.376-0.184-0.505c-0.122-0.132-0.292-0.198-0.509-0.198c-0.479,0-0.721,0.286-0.725,0.857h-0.953
	c0-0.525,0.15-0.938,0.451-1.242c0.303-0.305,0.729-0.458,1.281-0.458c0.506,0,0.916,0.129,1.23,0.388
	c0.315,0.259,0.473,0.615,0.473,1.069c0,0.476-0.219,0.825-0.655,1.047c0.546,0.225,0.82,0.637,0.82,1.238
	c0,0.496-0.169,0.902-0.506,1.22c-0.335,0.314-0.783,0.472-1.348,0.472c-0.591,0-1.036-0.149-1.337-0.447
	c-0.3-0.3-0.463-0.737-0.49-1.311H292.138z"/>
<path fill="none" stroke="#000000" stroke-width="0.4647" stroke-miterlimit="10" d="M321.002,35.056
	c0,2.31-1.875,4.183-4.182,4.183c-2.311,0-4.184-1.873-4.184-4.183c0-2.308,1.873-4.181,4.184-4.181
	C319.127,30.875,321.002,32.749,321.002,35.056L321.002,35.056z"/>
<path d="M315.307,36.194c0.205-0.33,0.599-0.709,1.183-1.139c0.483-0.354,0.786-0.621,0.908-0.802s0.184-0.367,0.184-0.561
	c0-0.214-0.063-0.397-0.188-0.549c-0.121-0.154-0.307-0.231-0.553-0.231c-0.269,0-0.457,0.084-0.563,0.252
	c-0.108,0.169-0.161,0.417-0.161,0.744h-1.051v-0.154c0-0.464,0.145-0.867,0.436-1.208c0.293-0.342,0.729-0.513,1.307-0.513
	c0.508,0,0.939,0.144,1.293,0.432c0.354,0.286,0.531,0.696,0.531,1.23c0,0.364-0.088,0.681-0.264,0.952
	c-0.174,0.269-0.518,0.581-1.033,0.938c-0.563,0.391-0.899,0.67-1.007,0.839h2.304v0.934h-3.633
	C314.999,36.912,315.102,36.524,315.307,36.194z"/>
<path d="M303.688,32.605c0.524,0,0.895-0.087,1.109-0.26s0.336-0.388,0.362-0.645h0.868v5.325h-1.051v-3.684h-1.289V32.605z"/>
<path d="M333.46,36.54c0.205-0.33,0.599-0.709,1.182-1.139c0.484-0.354,0.787-0.621,0.908-0.802
	c0.123-0.181,0.184-0.367,0.184-0.561c0-0.214-0.063-0.397-0.187-0.549c-0.122-0.154-0.307-0.231-0.554-0.231
	c-0.268,0-0.456,0.084-0.563,0.252c-0.108,0.169-0.162,0.417-0.162,0.744h-1.051v-0.154c0-0.464,0.145-0.867,0.436-1.208
	c0.293-0.342,0.729-0.513,1.308-0.513c0.508,0,0.938,0.144,1.292,0.432c0.354,0.286,0.531,0.696,0.531,1.23
	c0,0.364-0.088,0.681-0.264,0.952c-0.173,0.269-0.518,0.581-1.032,0.938c-0.563,0.391-0.899,0.67-1.007,0.839h2.303v0.934h-3.633
	C333.151,37.258,333.255,36.87,333.46,36.54z"/>
<path d="M337.239,37.705l1.369-2.025l-1.322-1.959h1.279l0.691,1.168l0.678-1.168h1.23l-1.326,1.944l1.373,2.04h-1.296l-0.71-1.197
	l-0.703,1.197H337.239z"/>
<path d="M343.849,33.285c0.525,0,0.895-0.087,1.109-0.26s0.336-0.388,0.363-0.645h0.867v5.325h-1.051v-3.684h-1.289V33.285z"/>
<path d="M347.665,37.705l1.369-2.025l-1.322-1.959h1.279l0.691,1.168l0.678-1.168h1.23l-1.326,1.944l1.373,2.04h-1.296l-0.71-1.197
	l-0.703,1.197H347.665z"/>
<path d="M355.056,36.057c0.019,0.61,0.275,0.916,0.768,0.916c0.237,0,0.43-0.073,0.576-0.22s0.219-0.355,0.219-0.626
	c0-0.264-0.094-0.456-0.281-0.575c-0.186-0.122-0.494-0.183-0.927-0.183v-0.747h0.169c0.583,0,0.875-0.232,0.875-0.696
	c0-0.208-0.062-0.376-0.184-0.505c-0.122-0.132-0.291-0.198-0.509-0.198c-0.479,0-0.72,0.286-0.726,0.857h-0.951
	c0-0.525,0.15-0.938,0.449-1.242c0.303-0.305,0.73-0.458,1.283-0.458c0.504,0,0.914,0.129,1.23,0.388
	c0.314,0.259,0.472,0.615,0.472,1.069c0,0.476-0.219,0.825-0.655,1.047c0.547,0.225,0.82,0.637,0.82,1.238
	c0,0.496-0.168,0.902-0.506,1.22c-0.334,0.314-0.783,0.472-1.348,0.472c-0.591,0-1.036-0.149-1.336-0.447
	c-0.301-0.3-0.465-0.737-0.491-1.311H355.056z"/>
<path d="M358.091,37.705l1.369-2.025l-1.322-1.959h1.279l0.691,1.168l0.678-1.168h1.23l-1.326,1.944l1.373,2.04h-1.296l-0.71-1.197
	l-0.703,1.197H358.091z"/>
<path d="M335.584,62.792c0.067,1.261,0.891,1.891,2.469,1.891c1.521,0,2.281-0.487,2.281-1.461c0-0.62-0.534-1.06-1.602-1.32
	l-2.82-0.719c-0.864-0.208-1.5-0.56-1.906-1.055s-0.609-1.153-0.609-1.977c0-1.052,0.378-1.911,1.133-2.578s1.847-1,3.273-1
	c1.313,0,2.364,0.32,3.156,0.961s1.229,1.57,1.313,2.789h-2.313c-0.172-1.177-0.938-1.766-2.297-1.766
	c-0.62,0-1.114,0.12-1.484,0.359c-0.364,0.239-0.547,0.567-0.547,0.984c0,0.302,0.094,0.555,0.281,0.758
	c0.192,0.203,0.5,0.356,0.922,0.461l2.797,0.688c1.151,0.276,1.94,0.664,2.367,1.164c0.433,0.5,0.648,1.153,0.648,1.961
	c0,1.109-0.396,2.011-1.188,2.703c-0.786,0.688-1.93,1.031-3.43,1.031c-1.401,0-2.544-0.328-3.43-0.984
	c-0.886-0.661-1.328-1.625-1.328-2.891H335.584z"/>
<path d="M344.93,66.406l3.758-5.883l-3.531-5.618h2.867l2.039,3.727l2.109-3.727h2.758l-3.516,5.477l3.742,6.023h-2.875L350.07,62.5
	l-2.344,3.906H344.93z"/>
<path d="M362.155,69.761h-1.656c-0.101-0.387-0.154-0.813-0.16-1.273l-0.01-0.537c-0.007-0.359-0.087-0.613-0.24-0.768
	c-0.152-0.152-0.463-0.229-0.932-0.229h-1.572v2.807h-1.49v-7.188h3.668c0.689,0,1.241,0.188,1.654,0.563
	c0.414,0.371,0.621,0.873,0.621,1.508c0,0.811-0.373,1.375-1.119,1.689c0.404,0.16,0.656,0.379,0.758,0.66
	c0.101,0.279,0.15,0.717,0.15,1.313v0.289c0,0.273,0.019,0.49,0.055,0.654c0.039,0.158,0.13,0.266,0.273,0.316V69.761z
	 M360.524,64.791c0-0.637-0.352-0.957-1.055-0.957h-1.885v1.92h1.768C360.134,65.753,360.524,65.433,360.524,64.791z"/>
<path d="M382.735,74.71h0.121c0.672,0.002,1.037-0.224,1.09-0.676l0.82,0.002l-0.012,4.156l-0.975-0.004l0.008-2.873l-1.055-0.003
	L382.735,74.71z M383.786,81.044l4.16-6.979l0.76,0.003l-4.162,6.979L383.786,81.044z M387.454,79.863
	c0.219-0.26,0.498-0.5,0.842-0.718c0.32-0.206,0.549-0.385,0.689-0.535c0.141-0.153,0.213-0.353,0.213-0.598
	c0-0.126-0.053-0.234-0.158-0.325c-0.107-0.092-0.242-0.139-0.406-0.139c-0.395-0.001-0.604,0.221-0.623,0.663l-0.854-0.003
	c0.002-0.427,0.117-0.772,0.348-1.035c0.23-0.264,0.602-0.395,1.117-0.393c0.459,0.002,0.824,0.127,1.098,0.375
	c0.271,0.246,0.408,0.563,0.406,0.953c0,0.289-0.07,0.537-0.209,0.744s-0.33,0.395-0.576,0.563c-0.248,0.169-0.455,0.31-0.619,0.422
	c-0.16,0.11-0.283,0.212-0.369,0.306l1.781,0.005l-0.002,0.792l-3.029-0.009C387.122,80.476,387.239,80.121,387.454,79.863z"/>
<path d="M407.667,62.458c0.067,1.26,0.891,1.891,2.469,1.891c1.521,0,2.281-0.488,2.281-1.461c0-0.621-0.534-1.061-1.602-1.32
	l-2.82-0.719c-0.864-0.209-1.5-0.561-1.906-1.055c-0.406-0.496-0.609-1.154-0.609-1.977c0-1.052,0.378-1.912,1.133-2.579
	s1.847-1,3.273-1c1.313,0,2.364,0.32,3.156,0.961s1.229,1.57,1.313,2.79h-2.313c-0.172-1.177-0.938-1.766-2.297-1.766
	c-0.62,0-1.114,0.12-1.484,0.359c-0.364,0.239-0.547,0.567-0.547,0.984c0,0.301,0.094,0.555,0.281,0.758
	c0.192,0.203,0.5,0.355,0.922,0.461l2.797,0.688c1.151,0.275,1.94,0.664,2.367,1.164c0.433,0.5,0.648,1.152,0.648,1.961
	c0,1.109-0.396,2.01-1.188,2.703c-0.786,0.688-1.93,1.031-3.43,1.031c-1.401,0-2.544-0.328-3.43-0.984
	c-0.886-0.662-1.328-1.625-1.328-2.891H407.667z"/>
<line fill="none" stroke="#000000" stroke-width="0.5528" stroke-miterlimit="10" stroke-dasharray="1.4173" x1="425.091" y1="26.071" x2="425.091" y2="91.89"/>
<path d="M405.2,37.705l1.934-5.391h1.293l1.934,5.391h-1.223l-0.348-1.124h-2.021l-0.381,1.124H405.2z M407.079,35.635h1.377
	l-0.678-2.098L407.079,35.635z"/>
<path d="M411.034,32.314h1.117v4.446h2.695v0.945h-3.813V32.314z"/>
<path d="M415.616,32.314h1.116v4.446h2.695v0.945h-3.812V32.314z"/>
<path d="M438.95,37.205l1.934-5.391h1.293l1.934,5.391h-1.223l-0.348-1.124h-2.021l-0.381,1.124H438.95z M440.829,35.135h1.377
	l-0.678-2.098L440.829,35.135z"/>
<path d="M444.784,31.814h1.117v4.446h2.695v0.945h-3.813V31.814z"/>
<path d="M449.366,31.814h1.116v4.446h2.695v0.945h-3.812V31.814z"/>
<polyline fill="none" stroke="#000000" stroke-width="0.3132" stroke-linejoin="bevel" stroke-miterlimit="10" stroke-dasharray="1.8795" points="
	36.641,50.61 36.653,50.626 36.657,50.702 36.676,50.869 36.719,51.174 36.763,51.556 36.817,51.982 36.866,52.438 36.904,52.876 
	36.945,53.287 36.948,53.646 36.941,53.988 36.938,54.301 36.921,54.598 36.889,54.907 36.827,55.21 36.748,55.527 36.669,55.844 
	36.557,56.185 36.44,56.555 36.31,56.909 36.135,57.271 35.972,57.648 35.784,57.994 35.58,58.35 35.363,58.689 35.151,59 
	34.938,59.311 34.696,59.618 34.463,59.867 34.23,60.114 33.981,60.375 33.686,60.642 33.356,60.935 32.994,61.252 32.58,61.607 
	32.139,61.957 31.662,62.332 31.202,62.695 30.76,63.043 30.406,63.302 29.913,63.69 "/>
<polygon fill-rule="evenodd" clip-rule="evenodd" stroke="#000000" stroke-width="0.3132" stroke-miterlimit="10" points="
	32.008,61.25 30.44,63.278 32.77,62.218 32.008,61.25 "/>
<polyline fill="none" stroke="#000000" stroke-width="0.3132" stroke-linejoin="bevel" stroke-miterlimit="10" points="
	38.302,61.686 38.29,61.669 38.287,61.594 38.268,61.427 38.225,61.122 38.18,60.74 38.126,60.314 38.077,59.858 38.04,59.419 
	37.999,59.009 37.995,58.65 38.002,58.308 38.005,57.996 38.022,57.698 38.055,57.389 38.117,57.085 38.196,56.769 38.274,56.452 
	38.387,56.111 38.503,55.741 38.634,55.387 38.809,55.025 38.972,54.648 39.16,54.303 39.364,53.946 39.581,53.606 39.792,53.295 
	40.006,52.985 40.247,52.678 40.48,52.43 40.713,52.182 40.962,51.922 41.257,51.654 41.587,51.361 41.949,51.043 42.363,50.689 
	42.805,50.339 43.282,49.964 43.741,49.602 44.184,49.252 44.537,48.993 45.031,48.606 "/>
<polygon fill-rule="evenodd" clip-rule="evenodd" stroke="#000000" stroke-width="0.3132" stroke-miterlimit="10" points="
	42.935,51.046 44.503,49.018 42.173,50.077 42.935,51.046 "/>
<path d="M49.051,44.211c0.02,0.61,0.276,0.916,0.77,0.916c0.236,0,0.428-0.073,0.575-0.22s0.22-0.355,0.22-0.626
	c0-0.264-0.094-0.456-0.282-0.575c-0.186-0.122-0.495-0.183-0.927-0.183v-0.747h0.168c0.583,0,0.875-0.232,0.875-0.696
	c0-0.208-0.062-0.376-0.184-0.505c-0.122-0.132-0.292-0.198-0.509-0.198c-0.479,0-0.72,0.286-0.725,0.857h-0.952
	c0-0.525,0.15-0.938,0.451-1.242c0.302-0.305,0.729-0.458,1.281-0.458c0.506,0,0.916,0.129,1.23,0.388
	c0.315,0.259,0.473,0.615,0.473,1.069c0,0.476-0.219,0.825-0.655,1.047c0.546,0.225,0.82,0.637,0.82,1.238
	c0,0.496-0.169,0.902-0.506,1.22c-0.334,0.314-0.783,0.472-1.348,0.472c-0.591,0-1.036-0.149-1.336-0.447
	c-0.3-0.3-0.464-0.737-0.491-1.311H49.051z"/>
<path d="M23.474,68.445c0.205-0.33,0.599-0.709,1.183-1.14c0.483-0.354,0.786-0.621,0.908-0.802s0.184-0.367,0.184-0.561
	c0-0.215-0.063-0.397-0.187-0.549c-0.122-0.154-0.307-0.23-0.553-0.23c-0.269,0-0.457,0.084-0.563,0.252
	c-0.108,0.169-0.161,0.416-0.161,0.744h-1.051v-0.154c0-0.464,0.145-0.867,0.436-1.209c0.293-0.342,0.729-0.512,1.307-0.512
	c0.508,0,0.938,0.144,1.292,0.432c0.354,0.285,0.531,0.695,0.531,1.23c0,0.363-0.088,0.682-0.264,0.952
	c-0.173,0.269-0.518,0.581-1.033,0.938c-0.564,0.391-0.9,0.67-1.007,0.839h2.304v0.934h-3.633
	C23.167,69.162,23.269,68.774,23.474,68.445z"/>
<path d="M92.4,54.545h-0.967c-0.059-0.227-0.09-0.475-0.094-0.745l-0.006-0.314c-0.004-0.209-0.05-0.358-0.14-0.448
	c-0.09-0.089-0.271-0.134-0.545-0.134h-0.919v1.641h-0.871v-4.202h2.144c0.403,0,0.726,0.109,0.968,0.328
	c0.242,0.217,0.362,0.511,0.362,0.882c0,0.474-0.218,0.803-0.654,0.987c0.236,0.093,0.384,0.222,0.443,0.385
	c0.059,0.164,0.088,0.42,0.088,0.768v0.168c0,0.16,0.01,0.287,0.031,0.382c0.023,0.093,0.076,0.155,0.16,0.186V54.545z
	 M91.447,51.64c0-0.373-0.206-0.56-0.617-0.56h-1.102v1.122h1.033C91.219,52.202,91.447,52.015,91.447,51.64z"/>
<path d="M74.4,78.295h-0.967c-0.059-0.227-0.09-0.475-0.094-0.745l-0.006-0.314c-0.004-0.209-0.05-0.357-0.14-0.447
	c-0.09-0.09-0.271-0.135-0.545-0.135h-0.919v1.642h-0.871v-4.202h2.144c0.403,0,0.726,0.109,0.968,0.328
	c0.242,0.217,0.362,0.512,0.362,0.883c0,0.474-0.218,0.803-0.654,0.987c0.236,0.093,0.384,0.222,0.443,0.386
	c0.059,0.164,0.088,0.42,0.088,0.768v0.168c0,0.16,0.01,0.287,0.031,0.383c0.023,0.094,0.076,0.155,0.16,0.186V78.295z
	 M73.447,75.39c0-0.373-0.206-0.561-0.617-0.561h-1.102v1.123h1.033C73.219,75.953,73.447,75.765,73.447,75.39z"/>
<path fill="none" stroke="#000000" stroke-width="0.5669" stroke-miterlimit="10" d="M416.59,59.039
	c0.153-0.125,0.318-0.234,0.496-0.325c1.316-0.673,2.931-0.151,3.604,1.165c0.674,1.315,0.152,2.931-1.164,3.604
	c-0.442,0.227-0.938,0.326-1.432,0.287"/>
<polygon fill-rule="evenodd" clip-rule="evenodd" stroke="#000000" stroke-width="0.2411" stroke-miterlimit="10" points="
	419.485,62.471 416.161,64.673 420.13,64.292 419.485,62.471 "/>
<path fill="none" stroke="#000000" stroke-width="0.9921" stroke-miterlimit="10" d="M456.483,63.723
	c0,5.941-4.824,10.764-10.768,10.764c-5.941,0-10.764-4.822-10.764-10.764s4.822-10.764,10.764-10.764
	C451.659,52.959,456.483,57.782,456.483,63.723L456.483,63.723z"/>
<polygon fill-rule="evenodd" clip-rule="evenodd" stroke="#000000" stroke-width="0.3285" stroke-miterlimit="10" points="
	438.718,58.371 439.939,54.418 435.884,56.18 438.718,58.371 "/>
<polygon fill-rule="evenodd" clip-rule="evenodd" stroke="#000000" stroke-width="0.3285" stroke-miterlimit="10" points="
	453.69,68.335 452.469,72.287 456.524,70.525 453.69,68.335 "/>
<line fill="none" stroke="#000000" stroke-width="0.5669" stroke-miterlimit="10" x1="430.533" y1="63.63" x2="460.972" y2="63.63"/>
<path fill="none" stroke="#000000" stroke-width="0.9921" stroke-miterlimit="10" d="M203.15,66.39
	c0,5.941-4.824,10.764-10.768,10.764c-5.941,0-10.764-4.822-10.764-10.764s4.822-10.764,10.764-10.764
	C198.326,55.626,203.15,60.449,203.15,66.39L203.15,66.39z"/>
<polygon fill-rule="evenodd" clip-rule="evenodd" stroke="#000000" stroke-width="0.3285" stroke-miterlimit="10" points="
	185.384,61.037 186.606,57.085 182.55,58.847 185.384,61.037 "/>
<polygon fill-rule="evenodd" clip-rule="evenodd" stroke="#000000" stroke-width="0.3285" stroke-miterlimit="10" points="
	200.357,71.001 199.135,74.954 203.191,73.192 200.357,71.001 "/>
<line fill="none" stroke="#000000" stroke-width="0.5669" stroke-miterlimit="10" x1="177.2" y1="66.297" x2="207.638" y2="66.297"/>
</svg>
