<?xml version="1.0" standalone="no"?>
<!DOCTYPE svg PUBLIC "-//W3C//DTD SVG 1.1//EN"
"http://www.w3.org/Graphics/SVG/1.1/DTD/svg11.dtd">
<!-- Creator: fig2dev Version 3.2 Patchlevel 5d -->
<!-- CreationDate: Thu Feb 21 11:09:58 2013 -->
<!-- Magnification: 1.050 -->
<svg	xmlns="http://www.w3.org/2000/svg"
	xmlns:xlink="http://www.w3.org/1999/xlink"
	viewBox="-23 -23 6140 1463">
<g style="stroke-width:.025in; fill:none">
<!-- Text -->
<text xml:space="preserve" x="6047" y="283" fill="#000000"  font-family="Helvetica" font-style="normal" font-weight="normal" font-size="227" text-anchor="end">R8x32</text>
<!-- Line -->
<polyline points="875,1110
922,1158
" style="stroke:#000000;stroke-width:16;
stroke-linejoin:miter; stroke-linecap:butt;
"/>
<!-- Line: box -->
<rect x="330" y="472" width="188" height="188" rx="0" 
style="stroke:#000000;stroke-width:16;
stroke-linejoin:miter; stroke-linecap:butt;
"/>
<!-- Line -->
<polyline points="519,661
566,708
" style="stroke:#000000;stroke-width:16;
stroke-linejoin:miter; stroke-linecap:butt;
"/>
<!-- Text -->
<text xml:space="preserve" x="992" y="614" fill="#000000"  font-family="Helvetica" font-style="normal" font-weight="bold" font-size="114" text-anchor="middle">2</text>
<!-- Text -->
<text xml:space="preserve" x="425" y="1275" fill="#000000"  font-family="Helvetica" font-style="normal" font-weight="bold" font-size="114" text-anchor="middle">1</text>
<!-- Text -->
<text xml:space="preserve" x="992" y="1275" fill="#000000"  font-family="Helvetica" font-style="normal" font-weight="bold" font-size="114" text-anchor="middle">2</text>
<!-- Text -->
<text xml:space="preserve" x="425" y="614" fill="#000000"  font-family="Helvetica" font-style="normal" font-weight="bold" font-size="114" text-anchor="middle">1</text>
<!-- Text -->
<text xml:space="preserve" x="472" y="992" fill="#000000"  font-family="Helvetica" font-style="normal" font-weight="bold" font-size="227" text-anchor="middle">S</text>
<!-- Text -->
<text xml:space="preserve" x="614" y="1039" fill="#000000"  font-family="Helvetica" font-style="normal" font-weight="bold" font-size="152" text-anchor="middle">2</text>
<!-- Text -->
<text xml:space="preserve" x="755" y="992" fill="#000000"  font-family="Helvetica" font-style="normal" font-weight="bold" font-size="227" text-anchor="middle">T</text>
<!-- Text -->
<text xml:space="preserve" x="897" y="1039" fill="#000000"  font-family="Helvetica" font-style="normal" font-weight="bold" font-size="152" text-anchor="middle">R</text>
<!-- Circle -->
<circle cx="1842" cy="1228" r="94"
 style="stroke:#000000;stroke-width:16;"/>
<!-- Line: box -->
<rect x="2314" y="472" width="188" height="188" rx="0" 
style="stroke:#000000;stroke-width:16;
stroke-linejoin:miter; stroke-linecap:butt;
"/>
<!-- Line -->
<polyline points="2314,661
2267,708
" style="stroke:#000000;stroke-width:16;
stroke-linejoin:miter; stroke-linecap:butt;
"/>
<!-- Line -->
<polyline points="1963,1108
1916,1155
" style="stroke:#000000;stroke-width:16;
stroke-linejoin:miter; stroke-linecap:butt;
"/>
<!-- Text -->
<text xml:space="preserve" x="2409" y="614" fill="#000000"  font-family="Helvetica" font-style="normal" font-weight="bold" font-size="114" text-anchor="middle">2</text>
<!-- Text -->
<text xml:space="preserve" x="1842" y="1275" fill="#000000"  font-family="Helvetica" font-style="normal" font-weight="bold" font-size="114" text-anchor="middle">1</text>
<!-- Text -->
<text xml:space="preserve" x="1842" y="614" fill="#000000"  font-family="Helvetica" font-style="normal" font-weight="bold" font-size="114" text-anchor="middle">1</text>
<!-- Text -->
<text xml:space="preserve" x="2409" y="1275" fill="#000000"  font-family="Helvetica" font-style="normal" font-weight="bold" font-size="114" text-anchor="middle">2</text>
<!-- Text -->
<text xml:space="preserve" x="1937" y="992" fill="#000000"  font-family="Helvetica" font-style="normal" font-weight="bold" font-size="227" text-anchor="middle">S</text>
<!-- Text -->
<text xml:space="preserve" x="2078" y="1039" fill="#000000"  font-family="Helvetica" font-style="normal" font-weight="bold" font-size="152" text-anchor="middle">2</text>
<!-- Text -->
<text xml:space="preserve" x="2220" y="992" fill="#000000"  font-family="Helvetica" font-style="normal" font-weight="bold" font-size="227" text-anchor="middle">T</text>
<!-- Text -->
<text xml:space="preserve" x="2362" y="1039" fill="#000000"  font-family="Helvetica" font-style="normal" font-weight="bold" font-size="152" text-anchor="middle">L</text>
<!-- Circle -->
<circle cx="3259" cy="1181" r="94"
 style="stroke:#000000;stroke-width:16;"/>
<!-- Text -->
<text xml:space="preserve" x="3259" y="1228" fill="#000000"  font-family="Helvetica" font-style="normal" font-weight="bold" font-size="114" text-anchor="middle">1</text>
<!-- Line: box -->
<rect x="3165" y="519" width="188" height="188" rx="0" 
style="stroke:#000000;stroke-width:16;
stroke-linejoin:miter; stroke-linecap:butt;
"/>
<!-- Text -->
<text xml:space="preserve" x="3259" y="661" fill="#000000"  font-family="Helvetica" font-style="normal" font-weight="bold" font-size="114" text-anchor="middle">1</text>
<!-- Line -->
<polyline points="3662,1029
3658,1038
3670,1011
3682,978
3697,942
3712,906
3727,869
3740,834
3752,801
3763,771
3772,743
3779,719
3785,696
3790,675
3793,656
3794,638
3795,622
3795,605
3793,591
3791,576
3786,561
3782,548
3776,535
3770,522
3761,511
3753,499
3743,490
3733,480
3722,472
3712,466
3700,460
3689,455
3677,452
3665,450
3653,448
3641,448
3630,449
3618,450
3608,452
3596,455
3586,459
3574,464
3564,470
3553,476
3543,485
3532,493
3524,503
3516,514
3508,525
3502,538
3497,552
3492,565
3489,580
3488,595
3488,611
3490,626
3492,642
3498,659
3504,677
3511,695
3521,713
3531,733
3544,754
3558,775
3572,798
3588,822
3605,846
3623,870
3640,895
3658,919
3677,944
3694,970
3712,994
3728,1017
3742,1040
3757,1062
3770,1083
3780,1103
3790,1122
3797,1140
3803,1158
3806,1172
3808,1187
3809,1201
3809,1214
3807,1227
3804,1239
3799,1252
3794,1264
3786,1274
3778,1285
3770,1295
3759,1303
3749,1312
3737,1320
3725,1327
3713,1333
3700,1338
3688,1342
3675,1345
3662,1349
3650,1351
3637,1353
3626,1354
3614,1354
3596,1353
3580,1351
3562,1348
3544,1341
3525,1334
3505,1324
3484,1313
3461,1299
3438,1285
3415,1270
3394,1256
3377,1245
3364,1235
3357,1230
3354,1228
" style="stroke:#000000;stroke-width:16;
stroke-linejoin:bevel; stroke-linecap:butt;
"/>
<!-- Arrowhead on XXXpoint 3658 1038 - 3625 1114-->
<polygon points="3625 1036
3629 1106
3682 1061
3625 1036

" style="stroke:#000000;stroke-width:8;stroke-miterlimit:8;
fill:#000000;"/>
<!-- Line -->
<polyline points="3597,519
3610,534
3592,514
3574,495
3556,477
3541,464
3526,453
3512,446
3500,441
3488,440
3481,440
3474,441
3467,444
3460,447
3453,450
3446,454
3439,460
3433,467
3427,474
3422,482
3418,492
3414,502
3411,513
3408,525
3407,538
3407,552
3409,565
3412,580
3415,596
3420,612
3425,628
3433,645
3441,663
3451,683
3462,703
3475,724
3488,746
3503,769
3519,793
3535,818
3552,844
3570,869
3588,895
3606,920
3623,946
3639,971
3655,995
3670,1018
3683,1040
3696,1061
3708,1081
3717,1100
3725,1117
3732,1133
3737,1147
3740,1161
3742,1173
3743,1185
3743,1196
3742,1207
3740,1217
3737,1226
3733,1235
3728,1243
3721,1250
3714,1256
3707,1262
3698,1268
3690,1272
3681,1275
3672,1278
3662,1280
3653,1282
3643,1283
3633,1283
3624,1283
3615,1283
3606,1283
3590,1281
3575,1277
3561,1273
3545,1268
3530,1261
3514,1254
3500,1246
3486,1237
3472,1228
3460,1218
3447,1209
3437,1200
3426,1190
3417,1181
3406,1170
3396,1159
3386,1147
3376,1134
3366,1121
3357,1106
3349,1091
3340,1077
3333,1062
3327,1046
3320,1032
3315,1016
3310,1001
3306,985
3301,969
3296,950
3292,928
3287,902
3281,875
3276,846
3271,817
3266,792
3262,773
3260,762
3259,756
3259,755
" style="stroke:#000000;stroke-width:16;
stroke-linejoin:bevel; stroke-linecap:butt;
stroke-dasharray:20 20;"/>
<!-- Arrowhead on XXXpoint 3610 534 - 3657 590-->
<polygon points="3586 554
3651 582
3634 513
3586 554

" style="stroke:#000000;stroke-width:8;stroke-miterlimit:8;
fill:#000000;"/>
<!-- Text -->
<text xml:space="preserve" x="3637" y="1228" fill="#000000"  font-family="Helvetica" font-style="normal" font-weight="bold" font-size="114" text-anchor="middle">2</text>
<!-- Text -->
<text xml:space="preserve" x="3637" y="661" fill="#000000"  font-family="Helvetica" font-style="normal" font-weight="bold" font-size="114" text-anchor="middle">2</text>
<!-- Line -->
<polyline points="4913,519
4582,519
" style="stroke:#000000;stroke-width:8;
stroke-linejoin:miter; stroke-linecap:butt;
"/>
<!-- Line -->
<polyline points="5527,519
5196,519
" style="stroke:#000000;stroke-width:8;
stroke-linejoin:miter; stroke-linecap:butt;
"/>
<!-- Text -->
<text xml:space="preserve" x="5055" y="566" fill="#000000"  font-family="Helvetica" font-style="normal" font-weight="bold" font-size="114" text-anchor="middle">2 1</text>
<!-- Text -->
<text xml:space="preserve" x="4771" y="992" fill="#000000"  font-family="Helvetica" font-style="normal" font-weight="bold" font-size="227" text-anchor="middle">RA</text>
<!-- Text -->
<text xml:space="preserve" x="5338" y="992" fill="#000000"  font-family="Helvetica" font-style="normal" font-weight="bold" font-size="227" text-anchor="middle">LA</text>
<!-- Line -->
<polyline points="0,377
6094,377
" style="stroke:#000000;stroke-width:16;
stroke-linejoin:miter; stroke-linecap:butt;
"/>
<!-- Line -->
<polyline points="1417,377
1417,1417
" style="stroke:#000000;stroke-width:16;
stroke-linejoin:miter; stroke-linecap:butt;
"/>
<!-- Line -->
<polyline points="2834,377
2834,1417
" style="stroke:#000000;stroke-width:16;
stroke-linejoin:miter; stroke-linecap:butt;
"/>
<!-- Line -->
<polyline points="4157,377
4157,1417
" style="stroke:#000000;stroke-width:16;
stroke-linejoin:miter; stroke-linecap:butt;
"/>
<!-- Line: box -->
<rect x="0" y="0" width="6094" height="1417" rx="0" 
style="stroke:#000000;stroke-width:16;
stroke-linejoin:miter; stroke-linecap:butt;
"/>
<!-- Text -->
<text xml:space="preserve" x="94" y="283" fill="#000000"  font-family="Helvetica" font-style="normal" font-weight="normal" font-size="227" text-anchor="start">Mountain Stream</text>
<!-- Text -->
<text xml:space="preserve" x="4866" y="283" fill="#000000"  font-family="Helvetica" font-style="normal" font-weight="normal" font-size="177" text-anchor="end">Gr+Soc 3</text>
<!-- Circle -->
<circle cx="992" cy="1228" r="94"
 style="stroke:#000000;stroke-width:16;"/>
</g>
</svg>
