<?xml version="1.0" standalone="no"?>
<!DOCTYPE svg PUBLIC "-//W3C//DTD SVG 1.1//EN"
"http://www.w3.org/Graphics/SVG/1.1/DTD/svg11.dtd">
<!-- Creator: fig2dev Version 3.2 Patchlevel 5d -->
<!-- CreationDate: Thu Feb 21 11:12:09 2013 -->
<!-- Magnification: 1.050 -->
<svg	xmlns="http://www.w3.org/2000/svg"
	xmlns:xlink="http://www.w3.org/1999/xlink"
	viewBox="-23 -23 6140 1463">
<g style="stroke-width:.025in; fill:none">
<!-- Text -->
<text xml:space="preserve" x="5574" y="708" fill="#000000"  font-family="Helvetica" font-style="normal" font-weight="normal" font-size="126" text-anchor="middle">new partner</text>
<!-- Circle -->
<circle cx="236" cy="708" r="94"
 style="stroke:#000000;stroke-width:16;"/>
<!-- Line -->
<polyline points="377,708
330,708
" style="stroke:#000000;stroke-width:16;
stroke-linejoin:miter; stroke-linecap:butt;
"/>
<!-- Line -->
<polyline points="377,1039
330,1039
" style="stroke:#000000;stroke-width:16;
stroke-linejoin:miter; stroke-linecap:butt;
"/>
<!-- Line: box -->
<rect x="566" y="614" width="188" height="188" rx="0" 
style="stroke:#000000;stroke-width:16;
stroke-linejoin:miter; stroke-linecap:butt;
"/>
<!-- Line -->
<polyline points="566,708
519,708
" style="stroke:#000000;stroke-width:16;
stroke-linejoin:miter; stroke-linecap:butt;
"/>
<!-- Line -->
<polyline points="566,1039
519,1039
" style="stroke:#000000;stroke-width:16;
stroke-linejoin:miter; stroke-linecap:butt;
"/>
<!-- Line: box -->
<rect x="141" y="944" width="188" height="188" rx="0" 
style="stroke:#000000;stroke-width:16;
stroke-linejoin:miter; stroke-linecap:butt;
"/>
<!-- Text -->
<text xml:space="preserve" x="236" y="755" fill="#000000"  font-family="Helvetica" font-style="normal" font-weight="bold" font-size="114" text-anchor="middle">1</text>
<!-- Text -->
<text xml:space="preserve" x="236" y="1086" fill="#000000"  font-family="Helvetica" font-style="normal" font-weight="bold" font-size="114" text-anchor="middle">1</text>
<!-- Text -->
<text xml:space="preserve" x="661" y="755" fill="#000000"  font-family="Helvetica" font-style="normal" font-weight="bold" font-size="114" text-anchor="middle">2</text>
<!-- Text -->
<text xml:space="preserve" x="661" y="1086" fill="#000000"  font-family="Helvetica" font-style="normal" font-weight="bold" font-size="114" text-anchor="middle">2</text>
<!-- Text -->
<text xml:space="preserve" x="4488" y="708" fill="#000000"  font-family="Helvetica" font-style="normal" font-weight="bold" font-size="152" text-anchor="middle">R</text>
<!-- Text -->
<text xml:space="preserve" x="4346" y="661" fill="#000000"  font-family="Helvetica" font-style="normal" font-weight="bold" font-size="227" text-anchor="middle">T</text>
<!-- Line: box -->
<rect x="4677" y="472" width="188" height="188" rx="0" 
style="stroke:#000000;stroke-width:16;
stroke-linejoin:miter; stroke-linecap:butt;
"/>
<!-- Line -->
<polyline points="4677,566
4629,566
" style="stroke:#000000;stroke-width:16;
stroke-linejoin:miter; stroke-linecap:butt;
"/>
<!-- Text -->
<text xml:space="preserve" x="4771" y="614" fill="#000000"  font-family="Helvetica" font-style="normal" font-weight="bold" font-size="114" text-anchor="middle">2</text>
<!-- Text -->
<text xml:space="preserve" x="4488" y="1228" fill="#000000"  font-family="Helvetica" font-style="normal" font-weight="bold" font-size="152" text-anchor="middle">R</text>
<!-- Text -->
<text xml:space="preserve" x="4346" y="1181" fill="#000000"  font-family="Helvetica" font-style="normal" font-weight="bold" font-size="227" text-anchor="middle">T</text>
<!-- Circle -->
<circle cx="4771" cy="1086" r="94"
 style="stroke:#000000;stroke-width:16;"/>
<!-- Line -->
<polyline points="4677,1086
4629,1086
" style="stroke:#000000;stroke-width:16;
stroke-linejoin:miter; stroke-linecap:butt;
"/>
<!-- Text -->
<text xml:space="preserve" x="4771" y="1133" fill="#000000"  font-family="Helvetica" font-style="normal" font-weight="bold" font-size="114" text-anchor="middle">2</text>
<!-- Circle -->
<circle cx="4062" cy="566" r="94"
 style="stroke:#000000;stroke-width:16;"/>
<!-- Line -->
<polyline points="4204,566
4157,566
" style="stroke:#000000;stroke-width:16;
stroke-linejoin:miter; stroke-linecap:butt;
"/>
<!-- Line -->
<polyline points="4204,1086
4157,1086
" style="stroke:#000000;stroke-width:16;
stroke-linejoin:miter; stroke-linecap:butt;
"/>
<!-- Line: box -->
<rect x="3968" y="992" width="188" height="188" rx="0" 
style="stroke:#000000;stroke-width:16;
stroke-linejoin:miter; stroke-linecap:butt;
"/>
<!-- Line -->
<polyline points="3968,1275
3968,1277
3969,1280
3971,1287
3973,1294
3977,1302
3982,1311
3987,1318
3993,1324
4001,1330
4010,1334
4020,1336
4032,1338
4047,1338
4061,1338
4077,1337
4095,1335
4115,1334
4136,1331
4158,1329
4181,1325
4204,1322
4227,1319
4250,1316
4272,1314
4293,1311
4313,1310
4331,1308
4347,1307
4362,1307
4376,1307
4388,1309
4398,1311
4408,1315
4415,1320
4422,1327
4427,1334
4431,1342
4435,1351
4437,1358
4439,1364
4440,1367
4440,1370
" style="stroke:#000000;stroke-width:16;
stroke-linejoin:bevel; stroke-linecap:butt;
"/>
<!-- Line -->
<polyline points="4913,1275
4913,1277
4912,1280
4910,1287
4908,1294
4903,1302
4899,1311
4894,1318
4888,1324
4880,1330
4871,1334
4860,1336
4849,1338
4834,1338
4819,1338
4804,1337
4786,1335
4766,1334
4745,1331
4723,1329
4700,1325
4677,1322
4654,1319
4630,1316
4608,1314
4587,1311
4567,1310
4550,1308
4534,1307
4519,1307
4504,1307
4493,1309
4482,1311
4473,1315
4466,1320
4459,1327
4454,1334
4450,1342
4446,1351
4444,1358
4441,1364
4440,1367
4440,1370
" style="stroke:#000000;stroke-width:16;
stroke-linejoin:bevel; stroke-linecap:butt;
"/>
<!-- Text -->
<text xml:space="preserve" x="4062" y="614" fill="#000000"  font-family="Helvetica" font-style="normal" font-weight="bold" font-size="114" text-anchor="middle">1</text>
<!-- Text -->
<text xml:space="preserve" x="4062" y="1133" fill="#000000"  font-family="Helvetica" font-style="normal" font-weight="bold" font-size="114" text-anchor="middle">1</text>
<!-- Circle -->
<circle cx="1322" cy="897" r="236"
 style="stroke:#000000;stroke-width:16;"/>
<!-- Text -->
<text xml:space="preserve" x="1322" y="992" fill="#000000"  font-family="Helvetica" font-style="normal" font-weight="bold" font-size="227" text-anchor="middle">4</text>
<!-- Line: box -->
<rect x="3590" y="425" width="188" height="188" rx="0" 
style="stroke:#000000;stroke-width:16;
stroke-linejoin:miter; stroke-linecap:butt;
"/>
<!-- Line -->
<polyline points="3685,614
3685,661
" style="stroke:#000000;stroke-width:16;
stroke-linejoin:miter; stroke-linecap:butt;
"/>
<!-- Text -->
<text xml:space="preserve" x="3685" y="566" fill="#000000"  font-family="Helvetica" font-style="normal" font-weight="bold" font-size="114" text-anchor="middle">2</text>
<!-- Circle -->
<circle cx="3685" cy="1133" r="94"
 style="stroke:#000000;stroke-width:16;"/>
<!-- Line -->
<polyline points="3685,1039
3685,992
" style="stroke:#000000;stroke-width:16;
stroke-linejoin:miter; stroke-linecap:butt;
"/>
<!-- Text -->
<text xml:space="preserve" x="3685" y="1181" fill="#000000"  font-family="Helvetica" font-style="normal" font-weight="bold" font-size="114" text-anchor="middle">2</text>
<!-- Circle -->
<circle cx="3118" cy="519" r="94"
 style="stroke:#000000;stroke-width:16;"/>
<!-- Line -->
<polyline points="3118,661
3118,614
" style="stroke:#000000;stroke-width:16;
stroke-linejoin:miter; stroke-linecap:butt;
"/>
<!-- Line -->
<polyline points="3118,992
3118,1039
" style="stroke:#000000;stroke-width:16;
stroke-linejoin:miter; stroke-linecap:butt;
"/>
<!-- Line: box -->
<rect x="3023" y="1039" width="188" height="188" rx="0" 
style="stroke:#000000;stroke-width:16;
stroke-linejoin:miter; stroke-linecap:butt;
"/>
<!-- Text -->
<text xml:space="preserve" x="3118" y="566" fill="#000000"  font-family="Helvetica" font-style="normal" font-weight="bold" font-size="114" text-anchor="middle">1</text>
<!-- Text -->
<text xml:space="preserve" x="3118" y="944" fill="#000000"  font-family="Helvetica" font-style="normal" font-weight="bold" font-size="227" text-anchor="middle">D</text>
<!-- Text -->
<text xml:space="preserve" x="3685" y="944" fill="#000000"  font-family="Helvetica" font-style="normal" font-weight="bold" font-size="227" text-anchor="middle">D</text>
<!-- Text -->
<text xml:space="preserve" x="3118" y="1181" fill="#000000"  font-family="Helvetica" font-style="normal" font-weight="bold" font-size="114" text-anchor="middle">1</text>
<!-- Line -->
<polyline points="2976,1275
2976,1277
2977,1280
2978,1287
2981,1294
2984,1302
2988,1311
2993,1318
2999,1324
3005,1330
3014,1334
3023,1336
3034,1338
3047,1338
3060,1338
3075,1337
3090,1335
3108,1334
3127,1331
3147,1329
3167,1325
3189,1322
3210,1319
3230,1316
3250,1314
3269,1311
3287,1310
3302,1308
3317,1307
3331,1307
3345,1308
3357,1310
3367,1313
3376,1318
3383,1325
3388,1334
3394,1343
3397,1353
3399,1361
3401,1366
3401,1370
" style="stroke:#000000;stroke-width:16;
stroke-linejoin:bevel; stroke-linecap:butt;
"/>
<!-- Line -->
<polyline points="3826,1275
3826,1278
3824,1283
3822,1292
3819,1301
3814,1311
3808,1319
3801,1327
3793,1332
3782,1335
3771,1337
3756,1338
3742,1338
3728,1337
3712,1335
3694,1334
3675,1331
3655,1329
3635,1325
3614,1322
3592,1319
3572,1316
3552,1314
3533,1311
3516,1310
3500,1308
3485,1307
3472,1307
3459,1307
3448,1309
3439,1311
3430,1315
3424,1320
3418,1327
3414,1334
3409,1342
3406,1351
3403,1358
3402,1364
3401,1367
3401,1370
" style="stroke:#000000;stroke-width:16;
stroke-linejoin:bevel; stroke-linecap:butt;
"/>
<!-- Line -->
<polyline points="0,377
6094,377
" style="stroke:#000000;stroke-width:16;
stroke-linejoin:miter; stroke-linecap:butt;
"/>
<!-- Line: box -->
<rect x="0" y="0" width="6094" height="1417" rx="0" 
style="stroke:#000000;stroke-width:16;
stroke-linejoin:miter; stroke-linecap:butt;
"/>
<!-- Line -->
<polyline points="5007,377
5007,1417
" style="stroke:#000000;stroke-width:16;
stroke-linejoin:miter; stroke-linecap:butt;
"/>
<!-- Line -->
<polyline points="944,377
944,1417
" style="stroke:#000000;stroke-width:16;
stroke-linejoin:miter; stroke-linecap:butt;
"/>
<!-- Line -->
<polyline points="897,377
897,1417
" style="stroke:#000000;stroke-width:16;
stroke-linejoin:miter; stroke-linecap:butt;
"/>
<!-- Line -->
<polyline points="1700,377
1700,1417
" style="stroke:#000000;stroke-width:16;
stroke-linejoin:miter; stroke-linecap:butt;
"/>
<!-- Line -->
<polyline points="2881,377
2881,1417
" style="stroke:#000000;stroke-width:16;
stroke-linejoin:miter; stroke-linecap:butt;
"/>
<!-- Text -->
<text xml:space="preserve" x="425" y="1322" fill="#000000"  font-family="Helvetica" font-style="normal" font-weight="normal" font-size="126" text-anchor="middle">anywhere</text>
<!-- Text -->
<text xml:space="preserve" x="472" y="566" fill="#000000"  font-family="Helvetica" font-style="normal" font-weight="normal" font-size="126" text-anchor="middle">starting:</text>
<!-- Text -->
<text xml:space="preserve" x="141" y="283" fill="#000000"  font-family="Helvetica" font-style="normal" font-weight="normal" font-size="227" text-anchor="start">Scotch Mixer</text>
<!-- Text -->
<text xml:space="preserve" x="6000" y="283" fill="#000000"  font-family="Helvetica" font-style="normal" font-weight="normal" font-size="227" text-anchor="end">R32</text>
<!-- Text -->
<text xml:space="preserve" x="2031" y="992" fill="#000000"  font-family="Helvetica" font-style="normal" font-weight="bold" font-size="227" text-anchor="middle">RA</text>
<!-- Text -->
<text xml:space="preserve" x="2598" y="992" fill="#000000"  font-family="Helvetica" font-style="normal" font-weight="bold" font-size="227" text-anchor="middle">LA</text>
<!-- Text -->
<text xml:space="preserve" x="5574" y="1370" fill="#000000"  font-family="Helvetica" font-style="normal" font-weight="normal" font-size="126" text-anchor="middle">new couple</text>
<!-- Text -->
<text xml:space="preserve" x="5574" y="1228" fill="#000000"  font-family="Helvetica" font-style="normal" font-weight="normal" font-size="126" text-anchor="middle">to find a</text>
<!-- Text -->
<text xml:space="preserve" x="5574" y="1039" fill="#000000"  font-family="Helvetica" font-style="normal" font-weight="bold" font-size="227" text-anchor="middle">Prom</text>
<!-- Text -->
<text xml:space="preserve" x="5574" y="566" fill="#000000"  font-family="Helvetica" font-style="normal" font-weight="normal" font-size="126" text-anchor="middle">with the</text>
<!-- Circle -->
<circle cx="661" cy="1039" r="94"
 style="stroke:#000000;stroke-width:16;"/>
</g>
</svg>
