<?xml version="1.0" standalone="no"?>
<!DOCTYPE svg PUBLIC "-//W3C//DTD SVG 1.1//EN"
"http://www.w3.org/Graphics/SVG/1.1/DTD/svg11.dtd">
<!-- Creator: fig2dev Version 3.2 Patchlevel 5e -->
<!-- CreationDate: Tue Oct 31 01:03:42 2017 -->
<!-- Magnification: 1.050 -->
<svg	xmlns="http://www.w3.org/2000/svg"
	xmlns:xlink="http://www.w3.org/1999/xlink"
	viewBox="-23 -23 6140 1558">
<g style="stroke-width:.025in; fill:none">
<!-- Text -->
<text xml:space="preserve" x="3259" y="1133" fill="#000000"  font-family="Helvetica" font-style="normal" font-weight="bold" font-size="227" text-anchor="middle">RA</text>
<!-- Text -->
<text xml:space="preserve" x="566" y="1039" fill="#000000"  font-family="Helvetica" font-style="normal" font-weight="bold" font-size="227" text-anchor="middle">4</text>
<!-- Circle -->
<circle cx="1700" cy="1228" r="94"
 style="stroke:#000000;stroke-width:16;"/>
<!-- Text -->
<text xml:space="preserve" x="1700" y="1275" fill="#000000"  font-family="Helvetica" font-style="normal" font-weight="bold" font-size="114" text-anchor="middle">1</text>
<!-- Line: box -->
<rect x="1606" y="566" width="188" height="188" rx="0" 
style="stroke:#000000;stroke-width:16;
stroke-linejoin:miter; stroke-linecap:butt;
"/>
<!-- Text -->
<text xml:space="preserve" x="1700" y="708" fill="#000000"  font-family="Helvetica" font-style="normal" font-weight="bold" font-size="114" text-anchor="middle">1</text>
<!-- Line -->
<polyline points="2038,566
2051,581
2033,561
2015,542
1997,524
1982,511
1967,500
1953,493
1941,489
1929,488
1922,488
1914,489
1908,491
1901,494
1893,497
1887,501
1880,508
1874,514
1868,521
1863,530
1859,539
1855,550
1851,560
1849,573
1848,585
1848,599
1850,613
1853,627
1856,643
1861,659
1866,676
1874,692
1882,710
1892,730
1903,750
1916,771
1929,793
1944,816
1960,840
1976,866
1993,891
2011,916
2029,942
2047,967
2064,994
2080,1018
2096,1042
2111,1065
2124,1087
2137,1108
2149,1128
2158,1147
2166,1164
2173,1181
2178,1194
2181,1208
2183,1220
2184,1232
2184,1244
2183,1254
2181,1265
2178,1273
2174,1282
2169,1290
2162,1297
2155,1303
2148,1310
2139,1315
2131,1319
2122,1322
2113,1325
2103,1328
2094,1330
2083,1331
2074,1331
2065,1331
2056,1331
2047,1331
2031,1329
2016,1324
2002,1320
1986,1315
1971,1309
1955,1301
1941,1293
1927,1285
1913,1275
1901,1266
1888,1256
1878,1247
1867,1237
1858,1228
1847,1217
1837,1206
1827,1194
1817,1182
1807,1168
1798,1153
1790,1139
1781,1124
1774,1109
1767,1093
1761,1079
1756,1063
1751,1048
1746,1033
1742,1016
1737,997
1733,975
1728,950
1722,922
1717,893
1712,865
1707,839
1703,820
1701,809
1700,804
1700,803
" style="stroke:#000000;stroke-width:16;
stroke-linejoin:bevel; stroke-linecap:butt;
stroke-dasharray:20 20;"/>
<!-- Arrowhead on XXXpoint 2051 581 - 2098 637-->
<polygon points="2027 601
2092 629
2075 560
2027 601

" style="stroke:#000000;stroke-width:8;stroke-miterlimit:8;
fill:#000000;"/>
<!-- Line -->
<polyline points="2103,1077
2099,1085
2111,1058
2123,1025
2138,990
2153,953
2167,916
2181,881
2193,848
2204,818
2213,790
2220,766
2226,743
2230,722
2234,703
2235,685
2236,669
2236,653
2234,638
2232,623
2227,608
2223,595
2217,582
2211,570
2202,558
2194,546
2184,537
2174,528
2163,519
2153,513
2141,508
2130,502
2118,499
2106,497
2094,495
2082,495
2071,496
2059,497
2049,499
2037,502
2027,507
2015,511
2005,517
1994,523
1984,532
1973,540
1965,551
1956,561
1949,573
1943,585
1938,599
1933,613
1930,627
1929,642
1929,658
1931,674
1933,689
1939,706
1945,724
1952,742
1962,761
1972,781
1985,802
1998,823
2013,846
2029,869
2046,893
2064,917
2081,942
2099,966
2118,992
2135,1017
2153,1041
2169,1064
2183,1087
2198,1109
2211,1130
2221,1150
2230,1169
2238,1187
2244,1205
2247,1220
2249,1236
2250,1252
2249,1266
2246,1280
2242,1294
2236,1308
2227,1320
2218,1332
2207,1343
2195,1354
2181,1364
2167,1374
2152,1382
2136,1390
2119,1397
2102,1403
2086,1408
2068,1414
2051,1418
2033,1421
2015,1425
1993,1428
1971,1430
1948,1433
1925,1435
1901,1435
1877,1435
1851,1435
1827,1434
1802,1432
1778,1429
1755,1426
1733,1423
1713,1419
1693,1415
1675,1409
1658,1404
1644,1399
1630,1394
1613,1385
1598,1376
1586,1366
1574,1356
1564,1344
1554,1333
1547,1320
1541,1308
1535,1295
1532,1282
1530,1270
1528,1258
1527,1247
1527,1236
1527,1220
1529,1206
1531,1191
1534,1175
1540,1162
1545,1148
1551,1137
1559,1126
1566,1117
1574,1110
1586,1103
1598,1097
1613,1092
1628,1090
1643,1089
1656,1090
1668,1091
1677,1095
1683,1097
1689,1101
1693,1107
1696,1114
1698,1122
1699,1129
1700,1132
1700,1133
" style="stroke:#000000;stroke-width:16;
stroke-linejoin:bevel; stroke-linecap:butt;
"/>
<!-- Arrowhead on XXXpoint 2099 1085 - 2066 1162-->
<polygon points="2066 1083
2070 1153
2123 1108
2066 1083

" style="stroke:#000000;stroke-width:8;stroke-miterlimit:8;
fill:#000000;"/>
<!-- Text -->
<text xml:space="preserve" x="2078" y="1275" fill="#000000"  font-family="Helvetica" font-style="normal" font-weight="bold" font-size="114" text-anchor="middle">2</text>
<!-- Text -->
<text xml:space="preserve" x="2078" y="708" fill="#000000"  font-family="Helvetica" font-style="normal" font-weight="bold" font-size="114" text-anchor="middle">2</text>
<!-- Line -->
<polyline points="3448,614
3070,614
" style="stroke:#000000;stroke-width:8;
stroke-linejoin:miter; stroke-linecap:butt;
"/>
<!-- Line -->
<polyline points="4110,614
3732,614
" style="stroke:#000000;stroke-width:8;
stroke-linejoin:miter; stroke-linecap:butt;
"/>
<!-- Text -->
<text xml:space="preserve" x="3590" y="661" fill="#000000"  font-family="Helvetica" font-style="normal" font-weight="bold" font-size="114" text-anchor="middle">2 1</text>
<!-- Line -->
<polyline points="5149,614
4913,614
" style="stroke:#000000;stroke-width:8;
stroke-linejoin:miter; stroke-linecap:butt;
"/>
<!-- Line -->
<polyline points="5669,614
5433,614
" style="stroke:#000000;stroke-width:8;
stroke-linejoin:miter; stroke-linecap:butt;
"/>
<!-- Text -->
<text xml:space="preserve" x="5291" y="661" fill="#000000"  font-family="Helvetica" font-style="normal" font-weight="bold" font-size="114" text-anchor="middle">2 1</text>
<!-- Line -->
<polyline points="0,377
6094,377
" style="stroke:#000000;stroke-width:16;
stroke-linejoin:miter; stroke-linecap:butt;
"/>
<!-- Line: box -->
<rect x="0" y="0" width="6094" height="1511" rx="0" 
style="stroke:#000000;stroke-width:16;
stroke-linejoin:miter; stroke-linecap:butt;
"/>
<!-- Line -->
<polyline points="1133,377
1133,1511
" style="stroke:#000000;stroke-width:16;
stroke-linejoin:miter; stroke-linecap:butt;
"/>
<!-- Line -->
<polyline points="2645,377
2645,1511
" style="stroke:#000000;stroke-width:16;
stroke-linejoin:miter; stroke-linecap:butt;
"/>
<!-- Line -->
<polyline points="4535,377
4535,1511
" style="stroke:#000000;stroke-width:16;
stroke-linejoin:miter; stroke-linecap:butt;
"/>
<!-- Text -->
<text xml:space="preserve" x="94" y="283" fill="#000000"  font-family="Helvetica" font-style="normal" font-weight="normal" font-size="227" text-anchor="start">The Forest Prince</text>
<!-- Text -->
<text xml:space="preserve" x="5007" y="283" fill="#000000"  font-family="Helvetica" font-style="normal" font-weight="normal" font-size="177" text-anchor="end">Iain Boyd</text>
<!-- Text -->
<text xml:space="preserve" x="6047" y="283" fill="#000000"  font-family="Helvetica" font-style="normal" font-weight="normal" font-size="227" text-anchor="end">J8x32</text>
<!-- Text -->
<text xml:space="preserve" x="5291" y="1133" fill="#000000"  font-family="Helvetica" font-style="normal" font-weight="bold" font-size="227" text-anchor="middle">Prom</text>
<!-- Text -->
<text xml:space="preserve" x="3921" y="1133" fill="#000000"  font-family="Helvetica" font-style="normal" font-weight="bold" font-size="227" text-anchor="middle">LA</text>
<!-- Circle -->
<circle cx="566" cy="944" r="236"
 style="stroke:#000000;stroke-width:16;"/>
</g>
</svg>
