<?xml version="1.0" encoding="UTF-8"?>
<!-- Created with Inkscape (http://www.inkscape.org/) -->
<svg width="715" height="186" version="1.1" viewBox="0 0 715 186" xmlns="http://www.w3.org/2000/svg" xmlns:cc="http://creativecommons.org/ns#" xmlns:dc="http://purl.org/dc/elements/1.1/" xmlns:rdf="http://www.w3.org/1999/02/22-rdf-syntax-ns#">
 <metadata>
  <rdf:RDF>
   <cc:Work rdf:about="">
    <dc:format>image/svg+xml</dc:format>
    <dc:type rdf:resource="http://purl.org/dc/dcmitype/StillImage"/>
    <dc:title/>
   </cc:Work>
  </rdf:RDF>
 </metadata>
 <path d="m6.7355 92.241 0.25574-83.25 350.75-0.25141 350.75-0.25141v167h-702.01zm40.015 75 0.35504-6.25 0.19268 6.2622 0.19268 6.2622 37.25-0.26217 37.25-0.26217v-126h-74l-0.58701 5.5-0.587 5.5-0.163-5.7726-0.16299-5.7726-18.25 0.27256-18.25 0.27256-0.25927 62c-0.1426 34.1-0.04422 62.562 0.21862 63.25 0.35782 0.93595 4.9962 1.25 18.462 1.25h17.984zm30.443-24.131c-6.3122-2.3534-11.647-6.4622-14.756-11.364l-2.9465-4.6462v7.6958c0 4.8553-0.39959 7.6958-1.0826 7.6958-0.74782 0-0.97975-5.3344-0.75-17.25 0.33104-17.169 0.34716-17.276 3.4321-22.75 9.7319-17.269 32.548-19.64 45.917-4.7708 15.848 17.627 4.3643 45.088-19.417 46.432-4.1218 0.23299-8.0252-0.15848-10.397-1.0427zm17.233-1.287c6.5147-2.104 13.152-7.8928 16.122-14.061 3.1403-6.5214 3.2227-17.037 0.17945-22.887-5.3344-10.254-13.706-15.592-24.615-15.694-25.142-0.23653-36.813 30.65-17.879 47.316 7.4793 6.5836 16.574 8.4333 26.192 5.327zm-6.9354-15.332c0-2.9697-0.0556-3-5.5-3-4.5724 0-5.4996-0.29514-5.4974-1.75 3e-3 -2.2788 11.118-18.156 12.747-18.209 0.90517-0.0296 1.25 2.3039 1.25 8.4591 0 7.8333 0.15686 8.5 2 8.5 1.1111 0 2 0.66667 2 1.5s-0.88889 1.5-2 1.5c-1.5556 0-2 0.66667-2 3 0 2-0.5 3-1.5 3s-1.5-1-1.5-3zm0-11.5c0-3.025-0.16129-5.5-0.35842-5.5-0.19714 0-2.0017 2.475-4.0102 5.5l-3.6518 5.5h8.0204zm-40.615 16.5c0-6.875 0.15977-9.6875 0.35504-6.25s0.19527 9.0625 0 12.5-0.35504 0.625-0.35504-6.25zm-29.385-16.109v-13.109l7.6041 0.38399c7.0961 0.35834 7.7976 0.60052 10.5 3.6251 2.4552 2.7479 2.8959 4.0832 2.8959 8.775 0 10.22-3.4804 13.435-14.547 13.435h-6.4529zm14.952 8.3491c2.7527-2.229 3.7872-9.0404 2.0208-13.305-1.4202-3.4287-4.3311-4.9348-9.5381-4.9348h-3.4349v20h4.3892c2.7 0 5.2258-0.67745 6.563-1.7602zm14.433-35.24c0-6.875 0.15977-9.6875 0.35504-6.25s0.19527 9.0625 0 12.5-0.35504 0.625-0.35504-6.25zm-14.385-19.567c0-5.3034-0.1067-5.5359-2.25-4.9043-2.1143 0.62309-2.0868 0.50651 0.45635-1.9326 1.4885-1.4276 2.951-2.5957 3.25-2.5957 0.29901 0 0.54365 3.375 0.54365 7.5 0 4.3333-0.42223 7.5-1 7.5-0.55 0-1-2.5053-1-5.5674zm44-1.9012c0-4.4502-0.27936-5.3614-1.5-4.893-2.3484 0.90119-1.6986-0.9481 1.0314-2.935l2.4686-1.7967v7.5467c0 4.3644-0.42168 7.5467-1 7.5467-0.55 0-1-2.4609-1-5.4686zm12 4.7565c0-0.39168 1.8609-2.6083 4.1354-4.9258 2.6765-2.7272 3.9223-4.769 3.5314-5.7879-0.79012-2.059-4.3156-2.0241-5.4788 0.0543-0.52727 0.94217-1.1704 1.2092-1.5261 0.63365-1.0914-1.766 3.0313-4.5559 5.7311-3.8783 4.2993 1.079 4.301 4.3211 5e-3 8.721l-3.8036 3.8952h3.703c2.0366 0 3.703 0.45 3.703 1s-2.25 1-5 1-5-0.32047-5-0.71215zm208 38.207v-63.506l-86.25 0.25556-86.25 0.25555-0.25927 62c-0.1426 34.1-0.0442 62.562 0.21861 63.25 0.37719 0.98661 18.606 1.25 86.509 1.25h86.031zm-161.45 54.256c-1.2249-3.9639-1.2151-9.8207 0.0193-11.448 1.2234-1.6134 1.3694-1.6274 1.3979-0.13487 0.0175 0.91666 0.5943 1.9292 1.2818 2.25 1 0.46666 1 0.7 0 1.1667-1.4781 0.68977-1.7048 7.4167-0.24998 7.4167 0.55 0 1 0.45 1 1 0 1.4478-2.9914 1.2309-3.449-0.25zm6.7783 0.47467c-2.2977-1.4616-2.5533-5.7265-0.49548-8.2678 1.6909-2.0882 2.3448-2.281 4.8115-1.4187 5.0803 1.7759 4.2319 10.484-1.0178 10.446-1.1702-8e-3 -2.6544-0.35043-3.2983-0.76002zm4.5008-1.0985c0.75546-0.47892 1.1875-2.0924 1-3.7347-0.45622-3.9965-4.4646-4.696-5.4064-0.94342-0.37841 1.5077-0.13468 3.1952 0.5871 4.0649 1.4113 1.7005 1.9641 1.7893 3.8193 0.61319zm13.205-0.0604c-1.5434-2.8839-1.2574-5.5546 0.79356-7.4108 2.2967-2.0785 4.5761-2.1073 6.5998-0.0836 2.8151 2.815 1.9302 4.4286-2.4286 4.4286-4.2344 0-4.9902 0.93334-2.4576 3.0352 1.1683 0.96957 1.8232 0.99927 2.7 0.12245 0.63669-0.63669 1.7977-1.1576 2.5801-1.1576 1.151 0 1.1849 0.28623 0.17756 1.5-1.8053 2.1752-6.7114 1.9077-7.9648-0.43426zm6.9648-5.0972c0-0.56727-0.675-1.2904-1.5-1.607-2.0027-0.76852-4.7866 0.3656-4.0044 1.6313 0.81898 1.3251 5.5044 1.3044 5.5044-0.0243zm4.002 1.7814c2e-3 -5.1843 0.0418-5.2528 3.1791-5.4738 4.3965-0.30969 5.8189 1.2416 5.8189 6.3462 0 5.6212-1.7875 5.7252-2.1925 0.12756-0.25185-3.4808-0.66946-4.25-2.3075-4.25s-2.0556 0.76917-2.3075 4.25c-0.43905 6.0682-2.1929 5.2676-2.1905-1zm12.198 4.05c-1.6845-1.6845-1.496-7.3094 0.29467-8.7956 0.82207-0.68226 2.3971-1.0045 3.5-0.71606 1.5968 0.41758 2.0053 0.0342 2.0053-1.882 0-1.3235 0.45-2.4064 1-2.4064 0.57778 0 1 3.1667 1 7.5v7.5h-3.3c-1.815 0-3.84-0.54-4.5-1.2zm5.6038-4.1776c-0.22982-2.3617-0.85196-3.2002-2.5538-3.4419-1.9642-0.27896-2.25 0.12331-2.25 3.1667 0 3.464 1.3079 4.7974 3.8038 3.8779 0.78972-0.29093 1.184-1.7115 1-3.6027zm11.196 4.6655c0-0.39168 1.861-2.6083 4.1354-4.9258 2.6765-2.7272 3.9223-4.769 3.5314-5.7879-0.79013-2.059-4.3156-2.0241-5.4788 0.0543-0.52726 0.94217-1.1704 1.2092-1.5261 0.63364-1.0914-1.766 3.0313-4.5559 5.7311-3.8783 4.2993 1.079 4.301 4.3211 5e-3 8.721l-3.804 3.8952h3.703c2.0366 0 3.703 0.45 3.703 1s-2.25 1-5 1-5-0.32047-5-0.71215zm23.168-4.6052c-0.16011-5.541-0.27501-5.7845-2.4181-5.1258-2.2214 0.68283-2.2183 0.65714 0.25-2.0244l2.5-2.716 0.30879 4.1182c0.16983 2.265 0.13298 5.7938-0.0819 7.8418-0.28257 2.6931-0.4372 2.1137-0.55879-2.0938zm13.082 4.6551c-1.268-0.51166-1.7847-3.3377-0.61024-3.3377 0.35186 0 1.1512 0.69949 1.7764 1.5544 1.4892 2.0365 4.5839 0.85165 4.5839-1.755 0-1.1852-0.8581-2.211-2.1271-2.5429l-2.1271-0.55624 2.2709-1.7129c1.2613-0.95141 1.9584-2.2185 1.568-2.8502-0.94391-1.5273-4.3067-1.4493-4.8646 0.11279-0.24554 0.6875-0.79716 0.92337-1.2258 0.52417-1.1159-1.0392 1.4244-3.7742 3.5056-3.7742 2.4227 0 4.3424 2.5826 3.7119 4.9937-0.28828 1.1024-0.11639 2.2563 0.38198 2.5643 1.3049 0.80646 1.1153 4.8328-0.29388 6.242-1.2133 1.2133-4.2566 1.4631-6.55 0.53772zm1.752-26.588 2e-3 -7.25 3.1771-0.2238c4.121-0.29028 5.8189 1.2114 5.8189 5.1462 0 3.7575-1.5337 5.5776-4.7 5.5776-1.6333 0-2.3 0.57971-2.3 2 0 1.1-0.45 2-1 2-0.5749 0-0.99916-3.082-0.99801-7.25zm6.998-2.4265c0-3.0188-0.28835-3.4216-2.25-3.143-1.6428 0.23331-2.3391 1.0999-2.5801 3.211-0.18154 1.5903 0.22765 3.2362 0.90932 3.6575 2.259 1.3962 3.9208-0.18279 3.9208-3.7255zm-107.64 6.0806c-0.0793-1.3222 0.25818-2.404 0.75-2.404 1.0806 0 1.2031 3.6913 0.14421 4.345-0.4125 0.25469-0.8149-0.61876-0.89421-1.941zm-7.3558-5.9714c0-5.3034-0.10669-5.5359-2.25-4.9043-2.1143 0.62309-2.0867 0.50651 0.45636-1.9326 1.4885-1.4276 2.951-2.5957 3.25-2.5957 0.299 0 0.54364 3.375 0.54364 7.5 0 4.3333-0.42222 7.5-1 7.5-0.55 0-1-2.5053-1-5.5674zm12 4.1183c0-0.79701 1.575-2.6504 3.5-4.1187 3.8896-2.9667 4.911-7.4322 1.7-7.4322-0.99 0-2.3325 0.5325-2.9833 1.1833-0.65084 0.65084-1.5276 0.83904-1.9484 0.41824-0.94757-0.94757 2.5327-3.6016 4.7229-3.6016 4.762 0 5.1959 5.1801 0.8127 9.7024l-3.1962 3.2976h3.1962c1.7579 0 3.1962 0.45 3.1962 1s-2.025 1-4.5 1c-3.2631 0-4.5-0.39831-4.5-1.4491zm18.035-0.48515c-1.5434-2.8839-1.2574-5.5546 0.79356-7.4108 2.2967-2.0785 4.5761-2.1073 6.5998-0.0836 2.8151 2.8151 1.9302 4.4286-2.4286 4.4286-4.2344 0-4.9902 0.93334-2.4576 3.0352 1.1683 0.96957 1.8232 0.99927 2.7 0.12245 0.63669-0.63669 1.7977-1.1576 2.5801-1.1576 1.151 0 1.1849 0.28623 0.17756 1.5-1.8053 2.1752-6.7114 1.9077-7.9648-0.43426zm6.9648-5.0971c0-0.56727-0.675-1.2904-1.5-1.607-2.0027-0.76852-4.7866 0.3656-4.0044 1.6313 0.81898 1.3251 5.5044 1.3044 5.5044-0.0243zm3.942 4.378c1.9489-2.4776 1.9815-2.8145 0.49267-5.0868-1.9078-2.9117-1.0203-4.4431 0.98538-1.7002 1.373 1.8776 1.4388 1.8781 3.4897 0.022 2.3732-2.1477 2.7989-0.93305 0.68578 1.9568-1.2315 1.6842-1.1615 2.2621 0.5681 4.6911 1.0849 1.5237 1.5175 2.7703 0.96124 2.7703-0.55627 0-1.6768-0.95005-2.4902-2.1112l-1.4788-2.1112-1.3185 2.1112c-0.72516 1.1612-1.9179 2.1112-2.6505 2.1112-0.91966 0-0.68589-0.82143 0.75509-2.6533zm10.638 1.7825c-0.84401-1.3656-1.0871-11.955-0.29264-12.75 1.4073-1.4073 2.1397 0.80642 1.922 5.8093-0.12184 2.8003 0.28635 5.7034 0.90709 6.4513 0.8697 1.0479 0.76995 1.3599-0.4348 1.3599-0.85988 0-1.8056-0.39188-2.1016-0.87084zm5.5384-4.161c-0.11143-5.2142 0.0254-5.5438 2.3818-5.7388 1.375-0.1138 2.5 0.23805 2.5 0.78189s-0.62632 0.9888-1.3918 0.9888c-0.85481 0-1.7738 1.8327-2.3818 4.75l-0.98997 4.75zm6.2533 3.5576c-0.95683-2.4935 0.32998-4.3602 3.2423-4.7036 1.5026-0.17717 2.9395-0.9533 3.1933-1.7247 0.36237-1.1018-0.33561-1.2733-3.2541-0.79969-3.1694 0.51433-3.5385 0.38981-2.5118-0.84738 1.2692-1.5293 3.7384-1.8558 6.377-0.84332 1.1284 0.43302 1.5814 1.9377 1.5803 5.25l-1e-3 4.643-4.02 0.27574c-2.8671 0.19666-4.188-0.16183-4.6055-1.25zm5.0467-0.13273c2.237-0.85843 1.9687-3.393-0.35919-3.393-2.1976 0-3.4823 1.5061-2.559 3 0.72497 1.173 0.84382 1.189 2.9182 0.39301zm11.582-5.893c0-4.3333 0.42222-7.5 1-7.5s1 3.1667 1 7.5-0.42222 7.5-1 7.5-1-3.1667-1-7.5zm6.3293 6.7247c-2.2977-1.4616-2.5533-5.7265-0.49548-8.2678 1.6909-2.0882 2.3448-2.281 4.8115-1.4187 5.0803 1.7759 4.2319 10.484-1.0178 10.446-1.1702-8e-3 -2.6544-0.35043-3.2983-0.76002zm4.5008-1.0985c0.75546-0.47892 1.1875-2.0924 1-3.7347-0.45622-3.9965-4.4646-4.696-5.4064-0.94342-0.37841 1.5077-0.13468 3.1952 0.5871 4.0649 1.4113 1.7005 1.9641 1.7893 3.8193 0.61319zm6.2241 0.43914c-0.65487-0.78907-1.0475-2.9184-0.87244-4.7319 0.2501-2.5914 0.92935-3.5109 3.1729-4.2952 2.4537-0.85774 3.1209-0.66915 4.75 1.3427 1.0424 1.2874 1.8953 3.1586 1.8953 4.1584 0 4.1598-6.3444 6.6604-8.9458 3.526zm5.935-1.0523c0.72178-0.86969 0.96551-2.5572 0.5871-4.0649-0.94183-3.7525-4.9502-3.0531-5.4064 0.94342-0.46018 4.0313 2.4824 5.9372 4.8193 3.1215zm16.504 1.4768c-1.0571-1.7104 0.26711-2.4332 1.9298-1.0533 1.0399 0.86301 2.0008 0.92286 3.2742 0.20392 1.5834-0.89393 1.3467-1.209-1.9476-2.5924-5.9947-2.5175-3.9493-8.0156 2.25-6.048 3.151 1.0001 2.3314 2.5163-1 1.85-3.9749-0.79498-3.9191 1.134 0.073 2.5256 2.3959 0.8352 3.0018 1.5729 2.75 3.3478-0.24648 1.737-1.071 2.3492-3.4792 2.5829-1.7359 0.1685-3.4684-0.19894-3.8501-0.81653zm-98.072-16.886c-7.0185-3.1876-11.159-10.888-9.7961-18.218l0.62944-3.3854-5.6274 5.4658c-3.095 3.0062-5.6274 5.0218-5.6274 4.4792 0-1.9884 17.548-18.21 20.899-19.32 7.5377-2.4956 14.77-0.68466 19.442 4.8685 2.6267 3.1217 2.8109 3.1829 4.1715 1.386 0.78289-1.034 1.4377-2.1984 1.4552-2.5878 0.0175-0.38931 1.9838-1.8518 4.3697-3.25 14.955-8.7644 31.452 6.4542 24.006 22.146-4.7766 10.066-19.301 11.874-27.365 3.4067l-3.521-3.6974-1.979 3.0513c-2.3412 3.6097-9.656 7.5603-13.941 7.5294-1.671-0.0121-4.8735-0.85555-7.1167-1.8744zm15.579-1.9734c1.375-0.99778 3.5005-3.284 4.7234-5.0805 1.9076-2.8025 2.1425-4.1387 1.6542-9.408-0.50503-5.4496-0.99675-6.5568-4.3641-9.8259-6.6043-6.4116-15.378-6.1616-21.957 0.62585-7.6205 7.8623-3.9226 22.269 6.5628 25.568 3.9099 1.2301 10.341 0.32697 13.381-1.8791zm32.821-1.846c6.1438-4.587 8.003-14.282 3.905-20.363-5.073-7.5278-13.408-9.9671-20.742-6.0701-5.7247 3.0421-7.993 7.3177-7.5667 14.263 0.19919 3.2454 1.093 7.0162 1.9862 8.3794 4.6331 7.071 15.551 8.9171 22.417 3.7906zm15.505-7.7686c-3.1922-2.2359-4.3606-6.5276-2.7924-10.257 3.6411-8.6596 16.467-6.1349 16.467 3.2414 0 6.9135-7.977 11.006-13.674 7.0156zm10.22-1.9702c1.35-1.35 2.4546-3.6204 2.4546-5.0454 0-3.2582-4.1398-7.5-7.3197-7.5-3.9629 0-7.6803 3.6301-7.6803 7.5 0 2.4332 0.72383 3.9242 2.6349 5.4274 3.4953 2.7494 6.9109 2.6177 9.9106-0.38197zm-7.057-2.9302c-2.2333-1.633-1.5365-5.0336 1.1093-5.4135 2.5012-0.35911 4.6659 1.9476 3.8422 4.0942-0.84696 2.2072-2.9653 2.7716-4.9515 1.3193zm22.547-23.549c-2.2509-4.2059-0.12552-9.0657 3.9648-9.0657 4.1347 0 6.7794 6.8206 3.8 9.8-1.9015 1.9015-6.5916 1.458-7.7648-0.73426zm5.9191-0.5107c0.65956-0.79472 1.0522-2.4822 0.87244-3.75-0.24168-1.7049-0.97765-2.305-2.8268-2.305s-2.5851 0.60013-2.8268 2.305c-0.31696 2.2358 1.2932 5.195 2.8268 5.195 0.41531 0 1.2948-0.65023 1.9543-1.445zm5.6991 1.7651c-1.0579-1.0579-0.74691-10.32 0.34654-10.32 0.55 0 1 1.9984 1 4.441s0.46971 4.7313 1.0438 5.0861c1.9375 1.1974 3.9562-1.7155 3.9562-5.7085 0-2.3697 0.39802-3.6906 1-3.3185 0.55 0.33992 1 2.7677 1 5.3951v4.777l-3.8465 0.15073c-2.1156 0.0829-4.1406-0.14334-4.5-0.50274zm11.926-0.19096c-0.84401-1.3656-1.0871-11.955-0.29264-12.75 1.4073-1.4073 2.1397 0.80642 1.922 5.8093-0.12184 2.8003 0.28635 5.7034 0.90709 6.4513 0.8697 1.0479 0.76995 1.3599-0.4348 1.3599-0.85988 0-1.8056-0.39188-2.1016-0.87084zm-110.36-1.3849c-7.9808-1.6301-14.047-10.947-12.53-19.244 0.51737-2.8298 0.17289-2.6328-6.07 3.4711-3.6402 3.5591-6.6185 5.9913-6.6185 5.4048 0-0.58646 4.6555-5.5957 10.346-11.132 8.7318-8.4954 11.033-10.206 14.75-10.964 8.1165-1.6564 16.401 1.7028 19.07 7.7323 1.3669 3.0881 2.8343 3.9634 2.8343 1.6907 0-0.71338 1.6875-2.939 3.75-4.9458 6.7655-6.5828 17.27-6.6709 23.741-0.19914 10.735 10.734 3.3426 28.625-11.818 28.603-2.2953-3e-3 -5.3084-0.4408-6.6959-0.97214-3.0306-1.1606-8.9774-7.0417-8.9774-8.8783 0-2.2845-1.4641-1.4179-2.8343 1.6776-2.6506 5.9882-10.957 9.3886-18.948 7.7566zm12.363-2.7947c4.767-2.9462 7.4184-7.7532 7.4184-13.45 0-15.765-20.64-21.527-28.95-8.0816-2.4664 3.9906-2.722 11.382-0.53956 15.603 3.8121 7.3718 14.911 10.353 22.071 5.9286zm33.178 0.0558c4.7267-2.8819 7.2334-7.5622 7.2334-13.505 0-11.988-11.617-19.094-22.652-13.857-11.039 5.2384-11.139 22.265-0.16283 27.674 4.5995 2.2665 11.582 2.1268 15.582-0.31168zm25.241-17.579c0-6.5319 0.22925-7.5289 1.6671-7.25 1.033 0.20033 2.4176 2.5754 3.6401 6.2436l1.973 5.9203 2.1877-5.8629c3.1753-8.5095 4.5321-8.2284 4.5321 0.93896 0 4.3889-0.42125 7.5833-1 7.5833-0.55 0-1.0349-2.3625-1.0775-5.25l-0.0775-5.25-1.7383 4.9386c-0.95605 2.7162-2.2262 5.1012-2.8225 5.3-0.59633 0.19878-1.9937-2.2486-3.1053-5.4386l-2.0211-5.8-0.0789 5.75c-0.0435 3.1625-0.52899 5.75-1.079 5.75-0.57864 0-1-3.1911-1-7.5733zm22 2.0059c0-5.3034-0.10669-5.5359-2.25-4.9043-2.1143 0.62309-2.0867 0.50651 0.45636-1.9326 1.4885-1.4276 2.951-2.5957 3.25-2.5957 0.299 0 0.54364 3.375 0.54364 7.5 0 4.3333-0.42222 7.5-1 7.5-0.55 0-1-2.5053-1-5.5674zm12.782 0.31739c-0.53384-6.8125 0.51034-9.7592 3.4436-9.7182 2.2432 0.0314 2.2471 0.0527 0.27962 1.5395-1.7234 1.3023-1.7915 1.6489-0.5 2.5443 1.1254 0.78031 1.186 1.1621 0.24513 1.5438-0.73476 0.29814-1.25 2.3277-1.25 4.9239 0 6.1783-1.7196 5.5324-2.2184-0.83333zm4.5675 3.7173c-0.7389-1.9255 1.2147-4.2614 3.8952-4.6573 1.1545-0.17051 2.2843-0.87253 2.5107-1.56 0.52737-1.6014-2.9653-1.6397-4.555-0.05-0.93333 0.93333-1.2 0.82646-1.2-0.48095 0-1.7948 4.0302-3.3052 6.3965-2.3971 0.85961 0.32986 1.5367 2.4176 1.7522 5.4028l0.35125 4.8652-4.289 0.18512c-3.0083 0.12983-4.4601-0.26064-4.8619-1.3077zm6.4628-1.7288c0.35802-1.859-1.4332-2.2644-3.69-0.83501-0.75796 0.48009-1.0535 1.3981-0.65676 2.0401 1.0291 1.6651 3.9499 0.85536 4.3467-1.205zm6.1856 1.7584c-1.7176-2.0696-1.5647-6.3582 0.29292-8.2159 1.9641-1.9641 6.7096-0.94707 6.7096 1.438 0 1.3074-0.26667 1.4143-1.2 0.48095-3.2202-3.2202-7.0614 0.57463-4.8202 4.7622 1.2987 2.4267 2.3583 2.5569 4.3774 0.53777 2.1083-2.1083 2.9085-1.8648 1.6429 0.5-1.2654 2.3643-5.2198 2.645-7.0026 0.49692zm10.057 0.0684c-0.65487-0.78907-1.0475-2.9184-0.87244-4.7319 0.2501-2.5914 0.92935-3.5109 3.1729-4.2952 2.4537-0.85775 3.1209-0.66916 4.75 1.3427 2.7476 3.3931 2.3766 4.1191-2.1047 4.1191-2.7524 0-4 0.4345-4 1.393 0 1.9374 2.9641 2.8817 4.6509 1.4817 1.577-1.3088 2.8966-0.56968 1.8902 1.0587-0.96196 1.5565-6.0992 1.3039-7.4869-0.36815zm5.9458-6.1349c0-1.0423-0.72946-1.4622-2.1717-1.25-3.2015 0.47108-3.5444 2.8196-0.41166 2.8196 1.6805 0 2.5833-0.54853 2.5833-1.5696zm330 47.07v-63.5h-68v127h68zm-56-4.6093v-13.109l7.4965 0.37856c6.583 0.33243 7.8321 0.71409 10.25 3.132 2.4846 2.4846 2.7535 3.4429 2.7535 9.8128 0 6.709-0.16206 7.2041-3.2658 9.9773-2.9476 2.6337-3.9462 2.918-10.25 2.918h-6.9842zm14.032 9.0923c1.0452-0.55935 2.3665-2.7484 2.9363-4.8646 2.2564-8.3798-1.6468-14.118-9.603-14.118h-4.3651v20h4.5657c2.5112 0 5.4209-0.45765 6.466-1.017zm17.968-7.483v-11.5h-4c-2.8889 0-4-0.41667-4-1.5 0-1.2333 1.7778-1.5 10-1.5s10 0.26667 10 1.5c0 1.0833-1.1111 1.5-4 1.5h-4v11.5c0 10.833-0.11594 11.5-2 11.5s-2-0.66667-2-11.5zm107 3v-63.5h-81v127h81zm-76-0.5v-9h5.4286c5.786 0 8.5714 1.6249 8.5714 5 0 2.8888-2.6108 4.8191-7.512 5.5541-4.3014 0.64503-4.488 0.81388-4.488 4.0595 0 1.8626-0.45 3.3865-1 3.3865-0.59259 0-1-3.6667-1-9zm10.5-4c0-2.2263-0.46533-2.5337-4.25-2.8075-4.1562-0.30071-4.25-0.23877-4.25 2.8075s0.0938 3.1082 4.25 2.8075c3.7847-0.27383 4.25-0.58123 4.25-2.8075zm6.5 4v-9h5.8c3.19 0 6.34 0.54 7 1.2 1.8255 1.8255 1.4335 5.6372-0.71784 6.9808-1.8479 1.154-1.8097 1.355 1.048 5.5085 2.1579 3.1365 2.5627 4.3108 1.4859 4.3108-0.81397 0-2.5014-1.4625-3.7499-3.25-2.8126-4.0269-3.7745-4.7154-6.6163-4.7347-1.9609-0.0133-2.25 0.49867-2.25 3.9847 0 2.2-0.45 4-1 4-0.59259 0-1-3.6667-1-9zm10.471-2.3554c3.1961-2.337 1.2386-4.6446-3.94-4.6446-4.3682 0-4.5314 0.10803-4.5314 3 0 2.7289 0.29901 3 3.3089 3 1.8199 0 4.143-0.60993 5.1625-1.3554zm9.9832 8.9008c-1.7804-1.7804-2.4546-3.5432-2.4546-6.4182 0-5.3602 0.74403-6.9435 4.0715-8.6642 4.1961-2.1699 6.7478-1.7975 10.005 1.4601 6.0525 6.0525 2.5751 16.077-5.5769 16.077-2.4792 0-4.3508-0.75988-6.0454-2.4546zm10.082-0.94822c2.904-2.1235 2.6496-9.2186-0.41965-11.704-3.0955-2.5066-4.7126-2.3881-7.6619 0.56131-6.3665 6.3665 0.90406 16.391 8.0816 11.143zm7.4639-5.6668c0-8.7378 0.0794-9.0579 2.1699-8.75 1.6731 0.24639 2.6461 1.7344 4.25 6.4993 1.144 3.3989 2.3269 6.4206 2.6285 6.7151 0.30163 0.29444 1.6353-2.599 2.9637-6.4298 1.7752-5.1193 2.8886-6.9651 4.2016-6.9651 1.5828 0 1.7863 1.0255 1.7863 9 0 7.3333-0.27778 9-1.5 9-1.1775 0-1.5168-1.4514-1.5781-6.75l-0.0781-6.75-2.2571 6.5c-1.2534 3.6096-2.8484 6.5-3.5868 6.5s-2.3334-2.8904-3.5868-6.5l-2.2571-6.5-0.0781 6.75c-0.0613 5.2986-0.40061 6.75-1.5781 6.75-1.2231 0-1.5-1.6744-1.5-9.0696zm-39-42.643c0-0.39168 1.861-2.6083 4.1354-4.9258 2.6765-2.7272 3.9223-4.769 3.5314-5.7879-0.79013-2.059-4.3156-2.0241-5.4788 0.0543-0.52726 0.94217-1.1704 1.2092-1.5261 0.63365-1.0914-1.766 3.0313-4.5559 5.7311-3.8783 4.2993 1.079 4.301 4.3211 5e-3 8.721l-3.804 3.8952h3.703c2.0366 0 3.703 0.45 3.703 1s-2.25 1-5 1-5-0.32047-5-0.71215zm23.168-4.6052c-0.16011-5.541-0.27501-5.7845-2.4181-5.1258-2.2214 0.68283-2.2183 0.65714 0.25-2.0244l2.5-2.716 0.30879 4.1182c0.16983 2.265 0.13298 5.7938-0.0819 7.8417-0.28257 2.6931-0.4372 2.1137-0.55879-2.0938zm13.082 4.6551c-1.268-0.51166-1.7847-3.3377-0.61024-3.3377 0.35186 0 1.1512 0.69949 1.7764 1.5544 1.4892 2.0365 4.5839 0.85166 4.5839-1.755 0-1.1852-0.8581-2.211-2.1271-2.5429l-2.1271-0.55624 2.2709-1.7129c1.2613-0.95141 1.9584-2.2185 1.568-2.8501-0.94391-1.5273-4.3067-1.4493-4.8646 0.11278-0.24554 0.6875-0.79716 0.92338-1.2258 0.52417-1.1159-1.0392 1.4244-3.7742 3.5056-3.7742 2.4227 0 4.3424 2.5826 3.7119 4.9937-0.28828 1.1024-0.11639 2.2563 0.38198 2.5643 1.3049 0.80646 1.1153 4.8328-0.29388 6.242-1.2133 1.2133-4.2566 1.4631-6.55 0.53772zm-129.25 42.662v-63h-137l-0.1571 5.25-0.15711 5.25-0.59289-5-0.5929-5-57.75-0.25812-57.75-0.25813v126.02h254zm-140 56.5c0-3.025 0.45-5.5 1-5.5s1 2.475 1 5.5-0.45 5.5-1 5.5-1-2.475-1-5.5zm-110-8c0-9.4239 2.0168-10.295 4.6315-2 0.95355 3.025 2.0284 5.5 2.3887 5.5s1.4962-2.475 2.5245-5.5c2.7222-8.0087 4.4553-7.2307 4.4553 2 0 8.4961-1.7358 10.273-2.1977 2.25l-0.30226-5.25-1.8473 5.3009c-1.016 2.9155-2.3364 5.1379-2.9342 4.9386s-1.8692-2.5847-2.8252-5.3009l-1.7383-4.9386-0.0775 5.25c-0.0426 2.8875-0.52751 5.25-1.0775 5.25-0.57778 0-1-3.1667-1-7.5zm23.422-0.75235c0.0688-6.8122-0.13876-7.7521-1.7116-7.75-4.7274 6e-3 -14.71-8.0301-14.71-11.842 0-0.63559-0.62252-1.1556-1.3834-1.1556-1.5507 0-2.9913-4.131-1.7312-4.9642 0.44563-0.29468 1.0891-3.598 1.4299-7.3408 0.712-7.8191 4.2149-15.232 8.799-18.621 1.6088-1.1894 5.9162-2.9007 9.5719-3.8029 6.2189-1.5347 7.9898-1.5219 27.507 0.19907 18.7 1.6489 20.987 1.6809 22.083 0.30912 0.67278-0.84162 2.1232-2.062 3.2232-2.712 1.7041-1.0069 1.4452-1.0926-1.75-0.57901-2.9204 0.46942-3.75 0.27425-3.75-0.88218 0-0.98231 1.2693-1.6124 3.75-1.8616l3.75-0.37668-3.25-0.80869c-1.8409-0.45806-3.25-1.4512-3.25-2.2907 0-0.81509 0.5625-1.2701 1.25-1.0111s4.7174 1.2847 8.9554 2.2793c6.6258 1.5551 7.4665 1.9845 6 3.0647-1.9391 1.4284-2.0334 1.3731 6.1202 3.5881l4.8256 1.311-8.5756 4.2427c-4.7166 2.3335-8.5756 3.8258-8.5756 3.3161 0-0.50961 2.3625-2.083 5.25-3.4964l5.25-2.5699-5.2339 0.53603c-8.7764 0.89881-23.911 0.65126-35.927-0.58767-16.699-1.7217-28.728-0.98695-34.187 2.088-7.7573 4.3702-12.213 16.101-10.183 26.808 0.97595 5.1462 4.4784 11.599 5.8574 10.792 1.2727-0.74513 5.1735 1.3072 5.1735 2.722 0 1.8147 3.0957 2.6237 10 2.6132 6.6763-0.0101 12.607-2.5197 16.285-6.8918 2.6228-3.117 2.6512-3.2824 0.95863-5.5911-1.474-2.0106-1.916-2.1547-2.8543-0.93029-1.1785 1.5379-3.3898 1.9758-3.3898 0.67128 0-0.42763 0.61105-1.6651 1.3579-2.75 1.6338-2.3733 2.7586-11.282 1.5211-12.047-1.45-0.89616-0.99145-3.4252 0.62106-3.4252 0.825 0 1.5 0.46347 1.5 1.0299 0 0.56646 1.2809 0.0829 2.8465-1.0746 6.4648-4.7796 15.602-2.8383 19.326 4.1063 2.203 4.1077 2.2968 6.8789 0.38745 11.449-2.4489 5.8611-11.772 9.5386-16.539 6.5241-1.1037-0.6979-2.2061-0.0526-4.3467 2.5443-3.7123 4.5036-9.15 7.2247-16.061 8.0369l-5.5343 0.65046-0.36796 7.117-0.36796 7.117 0.0783-7.7524zm34.785-18.788c8.9803-2.4941 10.765-16.337 2.6481-20.534-6.1698-3.1906-13.462-0.88053-16.335 5.1748-1.4645 3.0863-1.5636 4.3102-0.60728 7.5021 1.308 4.3656 3.0876 6.036 3.0876 2.8981 0-1.2219 0.44336-1.844 1.0478-1.4704 0.57632 0.35619 0.91382 1.6013 0.75 2.7669-0.20136 1.4327 0.51204 2.5331 2.2022 3.3967 3.0235 1.5448 2.6523 1.5311 7.2069 0.26618zm-4.0388-9.2767c-0.16011-5.541-0.27501-5.7845-2.4181-5.1258-2.2214 0.68283-2.2183 0.65714 0.25-2.0244l2.5-2.716 0.30879 4.1182c0.16983 2.265 0.13298 5.7938-0.0819 7.8418-0.28257 2.6931-0.4372 2.1137-0.55879-2.0938zm33.141-26.645c4.5683-0.0453 4.0994-1.551-0.7674-2.464-2.5532-0.47899-4.4877-0.10446-7.261 1.4058l-3.7806 2.0588 4-0.48142c2.2-0.26478 5.7141-0.49841 7.809-0.51918zm-59.255 61.528c-0.65487-0.78907-1.0475-2.9184-0.87244-4.7319 0.2501-2.5914 0.92935-3.5109 3.1729-4.2952 2.4537-0.85774 3.1209-0.66915 4.75 1.3427 2.7476 3.3931 2.3766 4.1191-2.1047 4.1191-2.7524 0-4 0.4345-4 1.393 0 1.9374 2.9641 2.8817 4.6509 1.4817 1.577-1.3088 2.8966-0.56968 1.8902 1.0587-0.96196 1.5565-6.0992 1.3039-7.4869-0.36815zm5.9458-6.1349c0-1.0423-0.72946-1.4622-2.1717-1.25-3.2015 0.47108-3.5444 2.8196-0.41166 2.8196 1.6805 0 2.5833-0.54853 2.5833-1.5696zm4.3491 6.0369c-0.7389-1.9255 1.2147-4.2614 3.8952-4.6573 1.1545-0.17051 2.2843-0.87253 2.5107-1.56 0.52737-1.6014-2.9653-1.6397-4.555-0.05-0.93333 0.93333-1.2 0.82646-1.2-0.48095 0-1.7948 4.0302-3.3052 6.3965-2.3971 0.85961 0.32987 1.5367 2.4177 1.7522 5.4028l0.35125 4.8652-4.289 0.18512c-3.0083 0.12983-4.4601-0.26064-4.8619-1.3077zm6.4628-1.7288c0.35802-1.859-1.4332-2.2644-3.69-0.83501-0.75796 0.48009-1.0535 1.3981-0.65676 2.0401 1.0291 1.6651 3.9499 0.85536 4.3467-1.205zm5.5007 0.61568c-1.5238-2.3256-1.5436-2.8488-0.19744-5.2194 1.0493-1.8479 2.3008-2.623 4.1905-2.5954 2.1722 0.0318 2.6944-0.41574 2.6944-2.309 0-1.311 0.44176-2.0754 1-1.7304 0.55 0.33992 1 3.6686 1 7.397v6.779l-3.497 0.13147c-2.7385 0.10294-3.8643-0.42916-5.1905-2.4532zm5.6418 0.20084c1.874-2.258 0.89204-6.0058-1.669-6.37-1.6733-0.23793-2.3728 0.31527-2.8617 2.263-0.37841 1.5077-0.13468 3.1952 0.5871 4.0649 1.5463 1.8632 2.4244 1.8726 3.9435 0.042zm6.0457 0.94496c-1.4424-1.738 0.0464-2.0536 1.7328-0.36722 1.26 1.26 4.2672 0.49724 4.2672-1.0823 0-0.55679-1.1065-1.2901-2.459-1.6295-3.6044-0.90465-5.1049-3.0366-3.4991-4.9715 1.4699-1.7711 6.1001-1.5699 6.7113 0.29163 0.29249 0.89086-0.46177 1.0672-2.6729 0.625-4.1996-0.83992-3.9014 0.93527 0.41964 2.4978 1.925 0.69609 3.5 1.8215 3.5 2.5009 0 3.4-5.69 4.9187-8 2.1353zm66.055-6.188c-1.8284-6.4962-2.4601-11.68-1.339-10.987 0.56152 0.34703 1.3215 2.5105 1.6888 4.8078 1.0476 6.5511 1.8869 6.77 3.576 0.93273 0.86167-2.978 2.0794-5.5854 2.706-5.7942 0.65199-0.21733 1.8835 2.103 2.8792 5.4246l1.7399 5.8044 1.4547-5.75c0.80006-3.1625 1.8562-5.75 2.3469-5.75 1.217 0 1.1515 0.55485-0.93626 7.9415-1.0014 3.5428-2.2858 6.5966-2.8542 6.786s-1.8379-2.4842-2.8209-5.9415l-1.7874-6.286-1.6683 5.9379c-0.91754 3.2658-2.1732 6.1062-2.7904 6.312-0.61718 0.20573-1.6049-1.3413-2.195-3.4379zm24.287-3.812c4e-3 -4.4 0.17944-6.0756 0.39069-3.7236 0.21124 2.352 0.20827 5.952-7e-3 8-0.21487 2.048-0.38771 0.12357-0.38408-4.2764zm4.7114 6.0653c-0.65487-0.78907-1.0475-2.9184-0.87244-4.7319 0.2501-2.5914 0.92935-3.5109 3.1729-4.2952 2.4537-0.85774 3.1209-0.66915 4.75 1.3427 2.7476 3.3931 2.3766 4.1191-2.1047 4.1191-2.7524 0-4 0.4345-4 1.393 0 1.9374 2.9641 2.8817 4.6509 1.4817 1.577-1.3088 2.8966-0.56968 1.8902 1.0587-0.96196 1.5565-6.0992 1.3039-7.4869-0.36815zm5.9458-6.1349c0-1.0423-0.72946-1.4622-2.1717-1.25-3.2015 0.47108-3.5444 2.8196-0.41166 2.8196 1.6805 0 2.5833-0.54853 2.5833-1.5696zm4.3491 6.0369c-0.7389-1.9255 1.2147-4.2614 3.8952-4.6573 1.1545-0.17051 2.2843-0.87253 2.5107-1.56 0.52737-1.6014-2.9653-1.6397-4.555-0.05-0.93333 0.93333-1.2 0.82646-1.2-0.48095 0-1.7948 4.0302-3.3052 6.3965-2.3971 0.85961 0.32987 1.5367 2.4177 1.7522 5.4028l0.35125 4.8652-4.289 0.18512c-3.0083 0.12983-4.4601-0.26064-4.8619-1.3077zm6.4628-1.7288c0.35802-1.859-1.4332-2.2644-3.69-0.83501-0.75796 0.48009-1.0535 1.3981-0.65676 2.0401 1.0291 1.6651 3.9499 0.85536 4.3467-1.205zm6.3882 2.0615c-1.6845-1.6845-1.496-7.3094 0.29467-8.7956 0.82207-0.68226 2.3971-1.0045 3.5-0.71606 1.5968 0.41758 2.0053 0.0342 2.0053-1.882 0-1.3235 0.45-2.4064 1-2.4064 0.57778 0 1 3.1667 1 7.5v7.5h-3.3c-1.815 0-3.84-0.54-4.5-1.2zm5.6038-4.1776c-0.22982-2.3617-0.85196-3.2002-2.5538-3.4419-1.9642-0.27896-2.25 0.12331-2.25 3.1667 0 3.464 1.3079 4.7974 3.8038 3.8779 0.78972-0.29093 1.184-1.7115 1-3.6027zm5.1962 3.8776c-1.4424-1.738 0.0464-2.0536 1.7328-0.36722 1.26 1.26 4.2672 0.49724 4.2672-1.0823 0-0.55679-1.1065-1.2901-2.459-1.6295-3.6044-0.90465-5.1049-3.0366-3.4991-4.9715 1.4699-1.7711 6.1001-1.5699 6.7113 0.29163 0.29249 0.89086-0.46177 1.0672-2.6729 0.625-4.1996-0.83992-3.9014 0.93527 0.41964 2.4978 1.925 0.69609 3.5 1.8215 3.5 2.5009 0 3.4-5.69 4.9187-8 2.1353zm-163-14.465c0-1.6183 3.774-3.2098 4.5674-1.9261 0.72658 1.1756-1.2047 2.8497-3.3174 2.8756-0.6875 8e-3 -1.25-0.41886-1.25-0.94951zm83.385-16.035c0-6.875 0.15977-9.6875 0.35504-6.25s0.19527 9.0625 0 12.5-0.35504 0.625-0.35504-6.25zm-96.385 7.5509c0-0.79701 1.575-2.6504 3.5-4.1187 3.8896-2.9667 4.911-7.4322 1.7-7.4322-0.99 0-2.3325 0.5325-2.9833 1.1833-0.65084 0.65084-1.5276 0.83904-1.9484 0.41824-0.94757-0.94757 2.5327-3.6016 4.7229-3.6016 4.762 0 5.1959 5.1801 0.8127 9.7024l-3.1962 3.2976h3.1962c1.7579 0 3.1962 0.45 3.1962 1s-2.025 1-4.5 1c-3.2631 0-4.5-0.39831-4.5-1.4491zm79.25 0.78683c-1.268-0.51166-1.7847-3.3377-0.61024-3.3377 0.35186 0 1.1512 0.69949 1.7764 1.5544 1.4892 2.0365 4.5839 0.85165 4.5839-1.755 0-1.1852-0.8581-2.211-2.1271-2.5429l-2.1271-0.55624 2.2709-1.7129c1.2613-0.95141 1.9584-2.2185 1.568-2.8502-0.94391-1.5273-4.3067-1.4493-4.8646 0.11279-0.24554 0.6875-0.79716 0.92337-1.2258 0.52417-1.1159-1.0392 1.4244-3.7742 3.5056-3.7742 2.4227 0 4.3424 2.5826 3.7119 4.9937-0.28828 1.1024-0.11639 2.2563 0.38198 2.5643 1.3049 0.80646 1.1153 4.8328-0.29388 6.242-1.2133 1.2133-4.2566 1.4631-6.55 0.53772zm134.75-1.3377c-1.2968-2.4232-0.30869-2.5893 2.1525-0.36199 1.4756 1.3354 2.0906 1.4051 3.3287 0.37756 2.1287-1.7666 1.8905-4.1056-0.48124-4.7258-2.3306-0.60947-2.6975-2.2898-0.5-2.2898 0.83333 0 1.5-0.88889 1.5-2 0-2.255-2.8671-2.7329-4.8-0.8-0.78182 0.78182-1.2 0.82449-1.2 0.12244 0-2.3985 2.9443-3.6689 5.6481-2.4369 2.147 0.97825 2.4926 1.6611 2.0246 4.0012-0.31038 1.5519-0.0609 3.325 0.55438 3.9403 0.82494 0.82494 0.81635 1.7823-0.0327 3.6458-1.4735 3.234-6.5702 3.5619-8.1943 0.52713zm-97.25-1.2848c-4.2026-1.8451-6.4817-4.7152-3.7442-4.7152 0.5532 0-9e-3 -1.9651-1.25-4.3669-1.4524-2.8116-2.7491-4.1797-3.6409-3.8412-1.1312 0.42936-1.2534-0.55747-0.66677-5.3831 0.39506-3.2498 1.386-7.9802 2.2021-10.512 1.2666-3.9293 1.8766-4.6114 4.1668-4.6596 1.4756-0.0311 5.8468-0.95181 9.7138-2.0461 4.0189-1.1373 12.294-2.3038 19.317-2.723 8.7089-0.51979 11.976-1.0442 11.219-1.8008-1.4624-1.4624-1.3396-2.6675 0.272-2.6675 0.73672 0 1.8617-1.1462 2.5-2.547 1.7852-3.9181 1.3174-5.2213-0.91267-2.5429-1.2089 1.4519-2.3693 2.0475-2.9188 1.498-0.54949-0.54949 1.4369-3.4955 4.9964-7.4101l5.9085-6.498 0.0435 8.75c0.0354 7.1304-0.23414 8.75-1.4565 8.75-0.95172 0-1.5271-1.0052-1.5742-2.75-0.0697-2.5862-0.18446-2.5118-1.9258 1.25-1.0184 2.2-1.885 4.3375-1.9258 4.75-0.0408 0.4125 3.3008 0.75 7.4258 0.75 6 0 7.5-0.3 7.5-1.5 0-0.825-0.64844-1.5-1.441-1.5-2.3959 0-2.9108-2.0952-0.65964-2.6839 1.1961-0.3128 2.1006-1.3603 2.1006-2.4327 0-1.7249 0.88341-1.8834 10.5-1.8834h10.5v22h-21v-10h-17.558c-25.686 0-36.633 2.1826-42.442 8.4615-4.668 5.0461-2.23 16.17 5.5776 25.448 2.2518 2.6761 3.2758 3.1459 6.3054 2.8926 2.8032-0.23439 3.5509-0.69619 3.3231-2.0524-0.27378-1.6306 0.8767-2.1466 4.5119-2.024 1.9194 0.0648 8.9648-6.7633 7.5835-7.3496-0.90197-0.38287-0.92411-1.1108-0.0895-2.9426 1.3945-3.0607 3.2127-3.1968 2.4564-0.18386-0.5477 2.1818-0.50411 2.1743 1.4391-0.25 7.1249-8.8888 9.185-11 10.734-11 0.95811 0 3.7202 2.0156 6.1379 4.479 2.4177 2.4635 4.5667 4.3082 4.7754 4.0994 0.20879-0.20878-0.78323-2.6744-2.2045-5.479-1.4212-2.8047-2.1764-5.0994-1.6782-5.0994 1.0164 0 8.414 15.047 7.7325 15.729-0.23971 0.23971-4.1863-1.4043-8.7702-3.6534-8.1256-3.9868-8.3366-4.9927-0.33442-1.5936l4 1.6991-4.4092-4.5404c-5.4066-5.5675-5.9117-5.3866-13.641 4.883-6.2302 8.2781-12.185 13.632-17.745 15.955-4.4797 1.8717-5.0417 1.8326-10.955-0.76354zm74.25-37.754v-10.039l-8.75 0.28894-8.75 0.28893-0.29313 8.4164c-0.16122 4.629-0.0628 9.0165 0.21861 9.75 0.37117 0.96725 2.8553 1.3336 9.0431 1.3336h8.5314zm-5.8319 2.7215c-0.16011-5.541-0.27501-5.7845-2.4181-5.1258-2.2214 0.68283-2.2183 0.65714 0.25-2.0244l2.5-2.716 0.30879 4.1182c0.16983 2.265 0.13298 5.7938-0.0819 7.8417-0.28257 2.6931-0.4372 2.1137-0.55879-2.0938zm-64.168 26.605c0-0.39168 1.861-2.6083 4.1354-4.9258 2.6765-2.7272 3.9223-4.769 3.5314-5.7879-0.79013-2.059-4.3156-2.0241-5.4788 0.0543-0.52726 0.94217-1.1704 1.2092-1.5261 0.63364-1.0914-1.766 3.0313-4.5559 5.7311-3.8783 4.2993 1.079 4.301 4.3211 5e-3 8.721l-3.804 3.8952h3.703c2.0366 0 3.703 0.45 3.703 1s-2.25 1-5 1-5-0.32047-5-0.71215zm-134-7.7878c0-1.6295 0.55953-2.5 1.607-2.5 1.0545 0 1.3983 0.5438 1 1.5818-0.33385 0.86998-0.60699 1.995-0.60699 2.5 0 0.50501-0.45 0.91821-1 0.91821s-1-1.125-1-2.5zm227.45-9.0112c-3.1702-1.6064-6.4487-6.1275-6.4487-8.893 0-0.90636-0.82867-1.5957-1.9182-1.5957-1.055 0-2.7425-0.26689-3.75-0.59309-1.3082-0.42356-1.1172-1e-3 0.66821 1.4778 3.282 2.7186 2.3323 2.6406-4.093-0.33632-5.1784-2.3992-5.2363-2.4727-2.7061-3.4347 1.422-0.54067 4.3211-1.2379 6.4423-1.5495l3.8568-0.56644-3 1.456-3 1.456 3.6287 0.0451c3.0949 0.0385 3.8085-0.38902 4.8511-2.9062 2.3046-5.5638 8.8771-8.1595 14.229-5.6197 7.3109 3.4692 9.0212 12.207 3.5408 18.088-3.8398 4.121-8.0333 5.134-12.301 2.9714zm10.672-3.3052c2.597-2.3204 3.1521-3.5626 3.1521-7.0529 0-5.7604-4.022-10.131-9.3235-10.131-8.7329 0-12.578 11.183-5.9307 17.25 3.966 3.6199 8.0011 3.5977 12.102-0.0664zm-7.1206-4.6522c0-4.4502-0.27936-5.3614-1.5-4.893-2.3484 0.90119-1.6986-0.9481 1.0314-2.935l2.4686-1.7967v7.5467c0 4.3645-0.42167 7.5467-1 7.5467-0.55 0-1-2.4609-1-5.4686zm-71.274 7.8608c-0.87395-0.87395 1.524-4.3922 2.9936-4.3922 0.95763 0 0.98004 0.56619 0.0989 2.5-1.1453 2.5137-1.9678 3.0169-3.0925 1.8922zm-155.03-4.0324c-0.81298-0.81298 1.0923-4.3598 2.342-4.3598 0.53065 0 0.96482 0.6199 0.96482 1.3776 0 1.6619-2.433 3.8561-3.3068 2.9823zm45.057-7.1091c-2.6458-0.6008-2.096-2.2507 0.75-2.2507 1.375 0 2.5 0.42344 2.5 0.94098 0 1.3032-1.1817 1.7794-3.25 1.3098zm13.25-0.13416c0-0.48588 1.125-1.0985 2.5-1.3613 1.6764-0.32047 2.5-0.0294 2.5 0.88342 0 0.78542-1.0576 1.3613-2.5 1.3613-1.375 0-2.5-0.39754-2.5-0.88342zm46-11.617c0-7 0.3913-11.5 1-11.5s1 4.5 1 11.5-0.3913 11.5-1 11.5-1-4.5-1-11.5zm-92.43 9.6137c-0.62336-1.0086 3.3344-2.2906 4.6196-1.4964 0.46353 0.28647 0.58388 0.93976 0.26744 1.4518-0.73128 1.1832-4.1639 1.2146-4.887 0.0446zm15.43-0.61369c0-0.93333 0.94444-1.5 2.5-1.5s2.5 0.56667 2.5 1.5-0.94444 1.5-2.5 1.5-2.5-0.56667-2.5-1.5zm102.22-0.66585c0.24184-0.73378 1.4671-1.4845 2.7228-1.6683 1.5513-0.22704 2.1421 0.0935 1.8433 1-0.24184 0.73378-1.4671 1.4845-2.7228 1.6683-1.5513 0.22704-2.1421-0.0935-1.8433-1zm-83.528-5.205c-3.0279-6.6102-3.0329-6.6292-1.7725-6.6292 0.50416 0 1.3686 1.2375 1.921 2.75 0.95356 2.6108 1.0084 2.535 1.0833-1.5l0.0789-4.25h-11v-25h27v25h-15v3.5c0 4.2121 0.67248 4.4473 2.144 0.75 1.8889-4.7462 1.9108-1.0285 0.0309 5.25l-1.7965 6-2.6892-5.8708zm16.095-22.379-0.28383-10.75-11.75-0.28173-11.75-0.28174v22.063h24.068zm-13.784 2.1826c0-5.3034-0.10669-5.5359-2.25-4.9043-2.1143 0.62309-2.0867 0.50651 0.45636-1.9326 1.4885-1.4276 2.951-2.5957 3.25-2.5957 0.299 0 0.54364 3.375 0.54364 7.5 0 4.3333-0.42222 7.5-1 7.5-0.55 0-1-2.5053-1-5.5674zm97 23.567c0-0.55 1.125-1 2.5-1s2.5 0.45 2.5 1-1.125 1-2.5 1-2.5-0.45-2.5-1zm-139-18.522c0-0.28729 1.8508-2.5303 4.113-4.9844 2.5307-2.7455 3.8892-5.0451 3.5314-5.9777-0.78345-2.0416-3.6023-1.9175-5.3241 0.2344-1.3211 1.6511-1.3838 1.6431-1.1102-0.14282 0.45382-2.9623 3.1848-4.2039 6.2123-2.8245 3.6278 1.653 3.2715 4.8268-0.99354 8.8493l-3.5712 3.3681h3.5712c1.9642 0 3.5712 0.45 3.5712 1s-2.25 1-5 1-5-0.23505-5-0.52234zm82.98-1.0018c-1.7655-2.1273-0.43333-3.0721 1.5439-1.0949 2.0791 2.0791 3.1866 2.0454 4.3059-0.13095 1.1288-2.1947 0.44541-4.25-1.413-4.25-1.9142 0-1.7835-1.0085 0.33333-2.5724 1.4202-1.0493 1.5097-1.5365 0.47504-2.5852-1.0422-1.0564-1.6533-1.056-3.3474 2e-3 -2.6383 1.6476-3.4721 0.89299-1.3538-1.2253 3.2632-3.2632 6.6798-1.3277 7.137 4.0432 0.5682 6.6752 0.4705 7.6381-0.86068 8.4824-2.0751 1.3162-5.4471 0.98554-6.8202-0.66887zm41.02 1.0018c0-0.28729 1.8508-2.5303 4.113-4.9844 2.5307-2.7455 3.8892-5.0451 3.5314-5.9777-0.78345-2.0416-3.6023-1.9175-5.3241 0.2344-1.3211 1.6511-1.3838 1.6431-1.1102-0.14282 0.45382-2.9623 3.1848-4.2039 6.2123-2.8245 3.6278 1.653 3.2715 4.8268-0.99354 8.8493l-3.5712 3.3681h3.5712c1.9642 0 3.5712 0.45 3.5712 1s-2.25 1-5 1-5-0.23505-5-0.52234zm92-2.4777c-1.2968-2.4232-0.30869-2.5893 2.1525-0.36199 1.4756 1.3354 2.0906 1.4051 3.3287 0.37756 2.1287-1.7666 1.8905-4.1056-0.48124-4.7258-2.3306-0.60947-2.6975-2.2898-0.5-2.2898 0.83333 0 1.5-0.88889 1.5-2 0-2.255-2.8671-2.7329-4.8-0.8-0.78182 0.78182-1.2 0.82449-1.2 0.12245 0-2.3985 2.9443-3.6689 5.6481-2.4369 2.147 0.97825 2.4926 1.6611 2.0246 4.0012-0.31038 1.5519-0.0609 3.325 0.55438 3.9403 0.82494 0.82495 0.81635 1.7823-0.0327 3.6458-1.4735 3.234-6.5702 3.5619-8.1943 0.52713zm174-44v-17h-696v34h696zm-686.04 7.0657c0.56935-1.0638 1.0352-4.0184 1.0352-6.5657s-0.46583-5.5019-1.0352-6.5657c-0.87143-1.6283-0.7014-1.9343 1.0749-1.9343 1.6246 0 2.7056 1.3803 4.6989 6 1.4239 3.3 2.9037 6 3.2886 6 0.38484 0 1.9114-2.7 3.3924-6 1.7557-3.9122 3.2821-6 4.3866-6 1.459 0 1.6939 1.1786 1.6939 8.5 0 7.8326-0.15703 8.5002-2 8.5021-1.8273 2e-3 -1.9785-0.58082-1.7505-6.75l0.2495-6.7521-3.1809 6.8573-3.1809 6.8573-3.3264-6.3573-3.3264-6.3573 0.25779 6.2518c0.22395 5.4312 0.02347 6.2516-1.5274 6.25-1.455-1e-3 -1.5937-0.35962-0.75-1.9361zm22.246 0.58082c0.74439-0.74439 2.6481-4.5694 4.2304-8.5 1.5823-3.9306 3.1429-7.141 3.468-7.1342 0.32506 7e-3 1.8841 3.2693 3.4645 7.25 1.5804 3.9807 3.5789 7.8002 4.4411 8.4877 1.3359 1.0652 1.0871 1.25-1.6825 1.25-1.8664 0-2.9925-0.41695-2.6449-0.97933 0.3329-0.53864 0.11862-1.8886-0.47616-3-1.5627-2.92-6.7958-2.7684-7.9174 0.22933-0.54001 1.4432-0.43882 2.5134 0.28222 2.9847 0.62131 0.40607-0.13787 0.74153-1.6973 0.75-2.3722 0.0129-2.6059-0.20021-1.468-1.3381zm8.4683-8.6864c-1.0418-2.7602-1.2639-2.8806-2.4131-1.3089-1.9517 2.6691-1.5085 4.3487 1.1474 4.3487 2.2733 0 2.3466-0.1762 1.2657-3.0398zm10.155 9.1637c0.97312-0.61686 1.2436-2.9122 1-8.487-0.30964-7.0867-0.18868-7.6413 1.6661-7.6392 1.843 2e-3 2 0.66977 2 8.5023v8.5l-3-0.0153c-2.0235-0.0103-2.5658-0.29053-1.6661-0.86085zm8.9661-0.32384c0.67103-0.67104 1.2-3.8889 1.2-7.3s-0.52897-6.629-1.2-7.3c-0.93334-0.93333-0.0889-1.2 3.8-1.2 2.75 0 5.54 0.54 6.2 1.2 1.7358 1.7358 1.4729 5.5479-0.45715 6.628-1.5097 0.84485-1.4615 1.2439 0.54114 4.4843 1.209 1.9563 2.9673 3.7591 3.9071 4.0063 1.0569 0.27795 0.71044 0.49365-0.90825 0.5654-2.0082 0.089-3.233-0.81461-5.2642-3.884-1.4559-2.2-3.0907-4-3.6329-4-1.4471 0-1.2042 6.7452 0.26419 7.3377 0.6875 0.27741-0.3025 0.53991-2.2 0.58333-2.6833 0.0614-3.1833-0.18772-2.25-1.121zm8.08-9.5758c1.2486-2.333-0.37285-5.2242-2.9297-5.2242-1.5623 0-1.9503 0.69639-1.9503 3.5 0 2.8124 0.38597 3.5 1.9648 3.5 1.0806 0 2.3925-0.79912 2.9152-1.7758zm8.9538 9.8997c0.97312-0.61686 1.2436-2.9122 1-8.487l-0.33387-7.6415 4.1786 2e-3c6.533 4e-3 9.5726 4.3121 5.202 7.3735l-2.1195 1.4845 2.1739 3.0529c1.1956 1.6791 2.9369 3.4979 3.8695 4.0418 1.44 0.83983 1.3188 0.98774-0.80438 0.98133-1.7804-5e-3 -3.2889-1.148-5.2405-3.9696-1.5073-2.1791-3.1948-3.962-3.75-3.962-1.4635 0-1.2426 6.7393 0.2405 7.3377 0.6875 0.27741-0.325 0.53302-2.25 0.56802-2.2736 0.0413-3.0326-0.23263-2.1661-0.7819zm8.2357-9.7077c1.671-2.0134 0.12584-4.7823-2.9217-5.2357-1.8557-0.27608-2.1479 0.16602-2.1479 3.25 0 2.8253 0.39147 3.5696 1.8776 3.5696 1.0327 0 2.4691-0.71272 3.192-1.5838zm8.7643 9.7077c0.97312-0.61686 1.2436-2.9122 1-8.487-0.30963-7.0867-0.18867-7.6413 1.6661-7.6392 1.843 2e-3 2 0.66977 2 8.5023v8.5l-3-0.0153c-2.0235-0.0103-2.5658-0.29053-1.6661-0.86085zm12.996-7.2534 0.33029-8.1343-2.5803 0.49325c-1.4192 0.27129-2.5803 0.10566-2.5803-0.36807s3.15-0.86133 7-0.86133c5.9216 0 7 0.26191 7 1.7 0 1.3222-0.26667 1.4333-1.2 0.5-0.66-0.66-2.0443-1.2-3.0762-1.2-1.7057 0-1.8465 0.72686-1.55 8.0024 0.30341 7.4444 0.1867 8.0024-1.6738 8.0024-1.8632 0-1.9774-0.55657-1.6697-8.1343zm17.38 6.7761c0.74439-0.74439 2.6481-4.5694 4.2304-8.5s3.1429-7.141 3.468-7.1342c0.32506 7e-3 1.8841 3.2693 3.4645 7.25 1.5804 3.9807 3.5789 7.8002 4.4411 8.4877 1.3359 1.0652 1.0871 1.25-1.6825 1.25-1.8664 0-2.9924-0.41695-2.6449-0.97933 0.33289-0.53864 0.11862-1.8886-0.47617-3-1.5627-2.92-6.7957-2.7684-7.9174 0.22933-0.54001 1.4432-0.43881 2.5134 0.28222 2.9847 0.62132 0.40607-0.13786 0.74153-1.6973 0.75-2.3721 0.0129-2.6059-0.20021-1.468-1.3381zm8.4683-8.6864c-1.0418-2.7602-1.2639-2.8806-2.4131-1.3089-1.9517 2.6691-1.5085 4.3487 1.1474 4.3487 2.2733 0 2.3466-0.1762 1.2657-3.0398zm14.071 9.3776c0.8423-0.33988 1.25-2.9234 1.25-7.921 0-6.4753-0.22846-7.4167-1.8-7.4167-0.99 0-2.34 0.54-3 1.2-0.93333 0.93333-1.2 0.82222-1.2-0.5 0-1.4381 1.0784-1.7 7-1.7 3.85 0 7 0.37206 7 0.82681 0 0.45474-1.35 0.62867-3 0.3865l-3-0.44031v6.9135c0 4.0438 0.4981 7.4116 1.2 8.1135 0.93333 0.93333 0.43333 1.1825-2.25 1.121-1.8975-0.0434-2.8875-0.30592-2.2-0.58333zm19.05-0.53772c0.67104-0.67104 1.2-3.8889 1.2-7.3s-0.52896-6.629-1.2-7.3c-0.93333-0.93333-0.43333-1.1825 2.25-1.121 1.8975 0.0434 2.8875 0.30592 2.2 0.58333-0.8423 0.33988-1.25 2.9234-1.25 7.921v7.4167h3.3c1.815 0 3.84-0.54 4.5-1.2 0.93333-0.93333 1.2-0.82222 1.2 0.5 0 1.4308-1.0608 1.7-6.7 1.7-5.2111 0-6.4333-0.26667-5.5-1.2zm14.997-0.0554c0.57304-0.69047 2.592-4.628 4.4867-8.75l3.4448-7.4946 1.8302 4.4646c1.0066 2.4555 2.8065 6.393 3.9997 8.75l2.1695 4.2854-3.114-0.0153c-1.7127-8e-3 -2.6081-0.34592-1.9899-0.75 0.72103-0.47125 0.82223-1.5415 0.28222-2.9847-1.1216-2.9977-6.3547-3.1493-7.9174-0.22933-0.59479 1.1114-0.80906 2.4614-0.47617 3 0.3329 0.53863-0.37639 0.97933-1.5762 0.97933-1.6368 0-1.9213-0.31345-1.1396-1.2554zm9.203-7.0535c0-0.71988-0.56957-2.0878-1.2657-3.0398-1.1493-1.5717-1.3713-1.4513-2.4131 1.3089-1.0809 2.8636-1.0075 3.0398 1.2657 3.0398 1.3272 0 2.4131-0.58899 2.4131-1.3089zm10.03 6.0589c0.0272-2.0094 0.1394-2.0629 1.0497-0.5 0.59883 1.0281 2.2119 1.75 3.9106 1.75 5.5173 0 5.0226-3.3279-1.0078-6.7799-3.1855-1.8235-3.9828-2.853-3.9828-5.143 0-3.1977 1.4196-4.0771 6.5818-4.0771 3.0539 0 3.4182 0.29015 3.4182 2.7225v2.7225l-1.5567-2.2225c-1.996-2.8496-6.4433-3.0474-6.4433-0.28649 0 1.2199 1.4913 2.7742 4.0316 4.2019 7.2514 4.0755 6.2809 9.8621-1.6541 9.8621-3.882 0-4.3741-0.25469-4.3472-2.25zm17.72 1.5877c0.8423-0.33988 1.25-2.9234 1.25-7.921 0-6.4753-0.22846-7.4167-1.8-7.4167-0.99 0-2.34 0.54-3 1.2-0.93333 0.93333-1.2 0.82222-1.2-0.5 0-1.4381 1.0784-1.7 7-1.7 3.85 0 7 0.37206 7 0.82681 0 0.45474-1.35 0.62867-3 0.3865l-3-0.44031v6.9135c0 4.0438 0.4981 7.4116 1.2 8.1135 0.93333 0.93333 0.43333 1.1825-2.25 1.121-1.8975-0.0434-2.8875-0.30592-2.2-0.58333zm261.75-7.8377v-8.5h4.3157c2.3737 0 5.1862 0.46583 6.25 1.0352 2.1087 1.1286 2.6363 5.4129 0.80584 6.5442-0.77149 0.47681-0.61334 0.98564 0.5 1.6087 0.89563 0.50122 1.6284 1.7568 1.6284 2.7902 0 3.3432-2.7816 5.0217-8.3214 5.0217h-5.1786zm8.9182 6.893c0.86999-0.33384 1.5818-1.6357 1.5818-2.893 0-2.3405-1.6835-3.5-5.0818-3.5-1.5256 0-1.9182 0.71641-1.9182 3.5 0 3.6098 1.4846 4.4025 5.4182 2.893zm0.0104-8.9644c0.86425-0.86428 1.5714-1.8993 1.5714-2.3 0-1.4844-2.4701-3.1286-4.7-3.1286-1.9619 0-2.3 0.51449-2.3 3.5 0 2.7901 0.39116 3.5 1.9286 3.5 1.0607 0 2.6357-0.70714 3.5-1.5714zm8.5714 9.5714c0-0.55 0.45-1 1-1s1 0.45 1 1-0.45 1-1 1-1-0.45-1-1zm12.8-0.2c0.67104-0.67104 1.2-3.8889 1.2-7.3s-0.52896-6.629-1.2-7.3c-0.93333-0.93333-0.64968-1.2 1.2764-1.2 2.2861 0 2.4471 0.30746 2.095 4l-0.38146 4h4.105c4.0057 0 4.105-0.0827 4.105-3.4167 0-1.8792-0.5625-3.6436-1.25-3.921s0.325-0.50438 2.25-0.50438 2.9375 0.22697 2.25 0.50438c-0.84051 0.33915-1.25 2.9067-1.25 7.8377s0.40949 7.4986 1.25 7.8377c0.6875 0.27741-0.325 0.50439-2.25 0.50439s-2.9375-0.22698-2.25-0.50439 1.25-2.0419 1.25-3.921c0-3.3194-0.11382-3.4167-4-3.4167s-4 0.0972-4 3.4167c0 1.8792 0.5625 3.6436 1.25 3.921s-0.3025 0.53991-2.2 0.58333c-2.6833 0.0614-3.1833-0.18772-2.25-1.121zm18.266-0.67585c-1.6089-3.0062-1.2838-6.6175 0.7623-8.4692 2.2967-2.0785 4.5761-2.1073 6.5998-0.0836 2.508 2.508 1.856 3.4286-2.4286 3.4286-2.7309 0-4 0.43707-4 1.3776 0 2.1132 2.7512 3.9208 5.0518 3.3192 1.3116-0.343 1.9226-0.11294 1.6783 0.63198-0.21126 0.64422-1.7821 1.3101-3.4907 1.4797-2.2813 0.22648-3.3898-0.22093-4.173-1.6842zm5.6836-7.3742c-0.22917-0.6875-1.2417-1.25-2.25-1.25s-2.0208 0.5625-2.25 1.25c-0.26389 0.79167 0.56111 1.25 2.25 1.25s2.5139-0.45833 2.25-1.25zm6.0965 4.2506c0.25543-3.6862-7e-3 -5.0086-1-5.031-0.82684-0.0187-0.62516-0.4495 0.52257-1.1163 1.3843-0.80429 2.0651-0.76871 2.625 0.13717 0.53918 0.8724 0.95205 0.90576 1.4399 0.11633 0.96116-1.5552 2.566-1.3787 2.566 0.28213 0 0.76389-0.7875 1.3264-1.75 1.25-1.4406-0.11434-1.75 0.70113-1.75 4.6127 0 3.5574-0.37698 4.7514-1.5 4.7506-1.1795-7.8e-4 -1.426-1.0696-1.1535-5.0016zm8.8202 4.3327c-0.36667-0.36666-0.66667-3.9667-0.66667-8 0-5.1918-0.36503-7.3378-1.25-7.3486-0.83333-0.0102-0.75-0.33844 0.25-0.98469 2.5248-1.6317 3-1.1551 3 3.0085 0 3.7197 0.14005 3.921 1.9441 2.7944 4.444-2.7753 8.277 5.8771 4.2272 9.5422-1.832 1.658-6.2528 2.2402-7.5046 0.98832zm6.9615-2.9881c0.8045-3.2054-0.6575-5.8452-3.2372-5.8452-1.5098 0-1.953 0.85672-2.1985 4.25-0.28685 3.9646-0.13702 4.25 2.231 4.25 1.9132 0 2.7026-0.65395 3.2048-2.6548zm5.407 1.7205c-0.56935-1.0638-1.0352-2.8638-1.0352-4 0-2.4031 3.321-6.0657 5.5-6.0657 2.284 0 5.5 3.7101 5.5 6.345 0 4.9408-7.761 7.8386-9.9648 3.7207zm7.5012-1.3548c0.71963-2.8672-1.0466-7.711-2.8117-7.711-1.8984 0-3.7248 2.0916-3.7248 4.2657 0 5.1999 5.3838 8.0376 6.5364 3.4452zm6.2897-4.7086c0.25019-6.1387 0.0173-8.0059-1-8.0177-0.98542-0.0114-0.94076-0.26438 0.17385-0.98469 0.825-0.53316 1.8056-0.97626 2.179-0.98469 0.37347-8e-3 0.82347 4.0357 1 8.987 0.26662 7.478 0.067 9.0023-1.179 9.0024-1.2355 4e-5 -1.4425-1.4108-1.1738-8.0023zm6.3341 6.7579c-3.24-3.24 0.7403-11.543 4.9996-10.429 1.6952 0.4433 1.93 0.0788 1.6576-2.5734-0.18803-1.8304 0.19211-3.26 0.9326-3.5073 0.92601-0.30924 1.25 1.5269 1.25 7.0841 0 4.1258 0.25104 8.1558 0.55788 8.9554 0.43315 1.1288-0.42531 1.4735-3.8397 1.5421-2.4187 0.0486-4.9197-0.43386-5.5579-1.072zm6.6477-4.5281c0.33708-4.6526-1.5636-6.5098-4.3207-4.2216-2.8141 2.3355-0.93866 9.4108 2.3302 8.7911 1.2002-0.22751 1.7708-1.5376 1.9905-4.5695zm41.192 4.2678c0-1.827 1.164-1.9282 2.8727-0.25 1.0288 1.0105 1.2108-0.33133 0.95-7.0024-0.30082-7.6938-0.1873-8.2522 1.6773-8.2501 1.8624 2e-3 1.9652 0.50113 1.495 7.2524-0.27772 3.9876-0.86677 7.8126-1.309 8.5001-1.1536 1.7934-5.686 1.5941-5.686-0.25zm17-0.5c0-1.5466-0.66667-2-2.941-2-1.6175 0-3.2156-0.4444-3.5513-0.98755-0.63043-1.02 6.4087-11.907 7.7423-11.975 0.4125-0.0209 0.75 2.1897 0.75 4.9124 0 3.6736 0.45132 5.2037 1.75 5.9328 1.6667 0.93566 1.6667 1.0146 0 1.6567-0.9625 0.37083-1.75 1.5261-1.75 2.5672s-0.45 1.893-1 1.893-1-0.9-1-2zm0-8.2321v-4.2321l-2.5 3.6791c-1.375 2.0235-2.5 3.928-2.5 4.2321s1.125 0.55305 2.5 0.55305c2.2728 0 2.5-0.38452 2.5-4.2321zm7.449 6.7642c-0.79693-1.9073-1.449-4.1718-1.449-5.0321s0.65204-3.1248 1.449-5.0321c2.8484-6.8172 9.551-3.2858 9.551 5.0321s-6.7026 11.849-9.551 5.0321zm6.5158 0.53362c2.2128-4.1348 0.86322-13.066-1.9745-13.066-2.2149 0-2.9904 1.9448-2.9904 7.5 0 2.385 0.27314 5.0482 0.60699 5.9182 0.83293 2.1706 3.1059 1.9867 4.3578-0.35247z"/>
</svg>
