<?xml version="1.0" standalone="no"?>
<!DOCTYPE svg PUBLIC "-//W3C//DTD SVG 1.1//EN"
"http://www.w3.org/Graphics/SVG/1.1/DTD/svg11.dtd">
<!-- Creator: fig2dev Version 3.2 Patchlevel 5d -->
<!-- CreationDate: Thu Feb 21 11:03:52 2013 -->
<!-- Magnification: 1.050 -->
<svg	xmlns="http://www.w3.org/2000/svg"
	xmlns:xlink="http://www.w3.org/1999/xlink"
	viewBox="-23 -23 6140 1558">
<g style="stroke-width:.025in; fill:none">
<!-- Text -->
<text xml:space="preserve" x="141" y="283" fill="#000000"  font-family="Helvetica" font-style="normal" font-weight="normal" font-size="227" text-anchor="start">Caterpillar</text>
<!-- Text -->
<text xml:space="preserve" x="4110" y="1086" fill="#000000"  font-family="Helvetica" font-style="normal" font-weight="bold" font-size="114" text-anchor="middle">3</text>
<!-- Text -->
<text xml:space="preserve" x="4866" y="1133" fill="#000000"  font-family="Helvetica" font-style="normal" font-weight="bold" font-size="152" text-anchor="middle">R</text>
<!-- Text -->
<text xml:space="preserve" x="4724" y="1086" fill="#000000"  font-family="Helvetica" font-style="normal" font-weight="bold" font-size="227" text-anchor="middle">T</text>
<!-- Line -->
<polyline points="4440,377
4440,1511
" style="stroke:#000000;stroke-width:16;
stroke-linejoin:miter; stroke-linecap:butt;
stroke-dasharray:62 62;"/>
<!-- Line -->
<polyline points="3448,1086
3038,1086
" style="stroke:#000000;stroke-width:16;
stroke-linejoin:miter; stroke-linecap:butt;
"/>
<!-- Arrowhead on XXXpoint 3448 1086 - 2944 1086-->
<polygon points="3017 1055
2954 1086
3017 1118
3017 1055

" style="stroke:#000000;stroke-width:8;stroke-miterlimit:8;
fill:#000000;"/>
<!-- Line -->
<polyline points="3386,850
2976,850
" style="stroke:#000000;stroke-width:16;
stroke-linejoin:miter; stroke-linecap:butt;
"/>
<!-- Arrowhead on XXXpoint 2976 850 - 3480 850-->
<polygon points="3407 881
3470 850
3407 818
3407 881

" style="stroke:#000000;stroke-width:8;stroke-miterlimit:8;
fill:#000000;"/>
<!-- Line -->
<polyline points="188,566
283,566
" style="stroke:#000000;stroke-width:8;
stroke-linejoin:miter; stroke-linecap:butt;
"/>
<!-- Line -->
<polyline points="566,566
661,566
" style="stroke:#000000;stroke-width:8;
stroke-linejoin:miter; stroke-linecap:butt;
"/>
<!-- Text -->
<text xml:space="preserve" x="425" y="614" fill="#000000"  font-family="Helvetica" font-style="normal" font-weight="normal" font-size="126" text-anchor="middle">12</text>
<!-- Circle -->
<circle cx="425" cy="1039" r="236"
 style="stroke:#000000;stroke-width:16;"/>
<!-- Text -->
<text xml:space="preserve" x="425" y="1133" fill="#000000"  font-family="Helvetica" font-style="normal" font-weight="bold" font-size="227" text-anchor="middle">4</text>
<!-- Circle -->
<circle cx="1086" cy="1039" r="236"
 style="stroke:#000000;stroke-width:16;"/>
<!-- Text -->
<text xml:space="preserve" x="1086" y="1133" fill="#000000"  font-family="Helvetica" font-style="normal" font-weight="bold" font-size="227" text-anchor="middle">4</text>
<!-- Line -->
<polyline points="850,566
944,566
" style="stroke:#000000;stroke-width:8;
stroke-linejoin:miter; stroke-linecap:butt;
"/>
<!-- Line -->
<polyline points="1228,566
1322,566
" style="stroke:#000000;stroke-width:8;
stroke-linejoin:miter; stroke-linecap:butt;
"/>
<!-- Line -->
<polyline points="188,1322
188,1324
190,1328
192,1334
195,1341
199,1350
205,1358
212,1365
219,1372
228,1377
239,1381
251,1383
266,1385
283,1385
299,1385
316,1384
333,1383
353,1381
375,1380
398,1377
423,1375
447,1373
472,1370
497,1366
521,1364
545,1362
569,1359
591,1358
611,1356
628,1355
645,1354
661,1354
678,1354
692,1356
705,1358
716,1362
725,1367
732,1374
739,1381
745,1390
749,1398
752,1405
754,1412
755,1415
755,1417
" style="stroke:#000000;stroke-width:16;
stroke-linejoin:bevel; stroke-linecap:butt;
"/>
<!-- Line -->
<polyline points="1322,1322
1322,1324
1321,1328
1319,1334
1316,1341
1312,1350
1306,1358
1299,1365
1292,1372
1282,1377
1272,1381
1259,1383
1245,1385
1228,1385
1212,1385
1195,1384
1177,1383
1158,1381
1135,1380
1112,1377
1088,1375
1064,1373
1039,1370
1014,1366
990,1364
965,1362
942,1359
920,1358
900,1356
882,1355
866,1354
850,1354
833,1354
818,1356
806,1358
795,1362
786,1367
779,1374
772,1381
766,1390
762,1398
759,1405
756,1412
755,1415
755,1417
" style="stroke:#000000;stroke-width:16;
stroke-linejoin:bevel; stroke-linecap:butt;
"/>
<!-- Text -->
<text xml:space="preserve" x="1086" y="614" fill="#000000"  font-family="Helvetica" font-style="normal" font-weight="normal" font-size="126" text-anchor="middle">34</text>
<!-- Circle -->
<circle cx="1842" cy="1228" r="141"
 style="stroke:#000000;stroke-width:16;"/>
<!-- Circle -->
<circle cx="2125" cy="1228" r="141"
 style="stroke:#000000;stroke-width:16;"/>
<!-- Circle -->
<circle cx="2409" cy="1228" r="141"
 style="stroke:#000000;stroke-width:16;"/>
<!-- Circle -->
<circle cx="1842" cy="755" r="141"
 style="stroke:#000000;stroke-width:16;"/>
<!-- Circle -->
<circle cx="2125" cy="755" r="141"
 style="stroke:#000000;stroke-width:16;"/>
<!-- Circle -->
<circle cx="2409" cy="755" r="141"
 style="stroke:#000000;stroke-width:16;"/>
<!-- Line -->
<polyline points="0,377
6094,377
" style="stroke:#000000;stroke-width:16;
stroke-linejoin:miter; stroke-linecap:butt;
"/>
<!-- Line: box -->
<rect x="0" y="0" width="6094" height="1511" rx="0" 
style="stroke:#000000;stroke-width:16;
stroke-linejoin:miter; stroke-linecap:butt;
"/>
<!-- Line -->
<polyline points="3685,377
3685,1511
" style="stroke:#000000;stroke-width:16;
stroke-linejoin:miter; stroke-linecap:butt;
"/>
<!-- Line -->
<polyline points="1511,377
1511,1511
" style="stroke:#000000;stroke-width:16;
stroke-linejoin:miter; stroke-linecap:butt;
"/>
<!-- Line -->
<polyline points="2740,377
2740,1511
" style="stroke:#000000;stroke-width:16;
stroke-linejoin:miter; stroke-linecap:butt;
"/>
<!-- Text -->
<text xml:space="preserve" x="6000" y="283" fill="#000000"  font-family="Helvetica" font-style="normal" font-weight="normal" font-size="227" text-anchor="end">R32</text>
<!-- Text -->
<text xml:space="preserve" x="4346" y="283" fill="#000000"  font-family="Helvetica" font-style="normal" font-weight="normal" font-size="202" text-anchor="middle">D. Carr</text>
<!-- Arc -->
<path style="stroke:#000000;stroke-width:16;stroke-linecap:butt;"
d="M 4015,1039 A 94 94  0  0  1  4204  1039 " />
<!-- Arrowhead on XXXpoint 4198 1004 - 4204 1039-->
<polygon points="4166 1007
4203 1034
4228 997
4166 1007

" style="stroke:#000000;stroke-width:8;stroke-miterlimit:8;
fill:#000000;"/>
</g>
</svg>
