<?xml version="1.0" encoding="UTF-8"?>
<!-- Created with Inkscape (http://www.inkscape.org/) -->
<svg width="720" height="206" version="1.1" viewBox="0 0 720 206" xmlns="http://www.w3.org/2000/svg" xmlns:cc="http://creativecommons.org/ns#" xmlns:dc="http://purl.org/dc/elements/1.1/" xmlns:rdf="http://www.w3.org/1999/02/22-rdf-syntax-ns#">
 <metadata>
  <rdf:RDF>
   <cc:Work rdf:about="">
    <dc:format>image/svg+xml</dc:format>
    <dc:type rdf:resource="http://purl.org/dc/dcmitype/StillImage"/>
    <dc:title/>
   </cc:Work>
  </rdf:RDF>
 </metadata>
 <path d="m4.3061 181.54c0.36246-11.639 0.65902-55.064 0.65902-96.5v-75.339h708v193h-709.32zm705.66 7.1612v-12h-703v24h703zm-694.46 4.0424c-1.0227-1.13-1.5254-2.3887-1.1171-2.7969s1.3422 0.0781 2.0754 1.0808c0.87837 1.2012 2.3001 1.7123 4.1682 1.4984 3.9759-0.45526 3.6033-3.0764-0.63191-4.4452-6.4526-2.0856-6.684-7.5412-0.34689-8.1805 3.0216-0.30483 6.3415 2.1579 4.8196 3.5752-0.42867 0.3992-0.9803 0.16333-1.2258-0.52417s-1.7919-1.25-3.4364-1.25c-4.1547 0-3.4356 2.9554 1.0897 4.4782 1.8882 0.63537 3.9109 1.9127 4.4949 2.8385 2.8131 4.4597-6.1645 7.8418-9.8896 3.7257zm19.712 1.2953c-1.268-0.51166-1.7847-3.3377-0.61024-3.3377 0.35187 0 1.1512 0.69949 1.7764 1.5544 1.4892 2.0365 4.5839 0.85165 4.5839-1.755 0-1.1852-0.8581-2.211-2.1271-2.5429l-2.1271-0.55624 2.2709-1.7129c1.2613-0.95141 1.9584-2.2185 1.568-2.8502-0.94391-1.5273-4.3067-1.4493-4.8646 0.11279-0.24554 0.6875-0.79716 0.92337-1.2258 0.52417-1.1159-1.0392 1.4244-3.7742 3.5056-3.7742 2.4227 0 4.3424 2.5826 3.7119 4.9937-0.28828 1.1024-0.11639 2.2563 0.38198 2.5643 1.3049 0.80646 1.1153 4.8328-0.29388 6.242-1.2133 1.2133-4.2566 1.4631-6.55 0.53772zm9.75-0.0499c0-0.39168 1.8609-2.6083 4.1354-4.9258 2.6765-2.7272 3.9223-4.769 3.5314-5.7879-0.79012-2.059-4.3156-2.0241-5.4788 0.0543-0.52726 0.94217-1.1704 1.2092-1.5261 0.63364-1.0915-1.766 3.0313-4.5559 5.7311-3.8783 4.2993 1.079 4.301 4.3211 0.0046 8.721l-3.8036 3.8952h3.7029c2.0366 0 3.7029 0.45 3.7029 1s-2.25 1-5 1-5-0.32047-5-0.71215zm18.509-1.9424c1.6342-2.4942 1.6378-2.8265 0.05847-5.5-0.92446-1.565-1.2278-2.8454-0.674-2.8454s1.4423 0.77813 1.9745 1.7292c0.91718 1.6389 1.0674 1.6389 2.8784 0 2.8357-2.5663 3.7232-2.0954 1.7439 0.92536-1.6342 2.4942-1.6378 2.8265-0.05847 5.5 1.9684 3.3323 0.50388 3.8879-1.6595 0.6296l-1.4713-2.2158-1.1859 2.2158c-0.65224 1.2187-1.6718 2.2158-2.2657 2.2158-0.60747 0-0.31899-1.1612 0.6595-2.6546zm20.201 0.65458c-0.35342-1.3515-1.364-2-3.1166-2-1.4265 0-2.5936-0.2981-2.5936-0.66245 0-1.2858 6.2206-10.338 7.1042-10.338 0.49266 0 0.89575 2.25 0.89575 5s0.40766 5 0.90592 5 0.38575 1.1215-0.25 2.4922c-1.4003 3.019-2.2506 3.1656-2.9457 0.5078zm0.26751-6.25-0.02224-3.25-1.9555 2.5c-2.488 3.1807-2.488 4 0 4 1.5943 0 1.9955-0.65925 1.9778-3.25zm24.022 0.75v-7.5h4.0657c2.2362 0 4.9362 0.46583 6 1.0352 2.3078 1.2351 2.5238 4.2307 0.43037 5.968-1.3256 1.1002-1.2567 1.6481 0.58156 4.6224 2.7245 4.4084 1.4152 4.3033-2.7269-0.21891-3.8217-4.1723-5.7233-4.0427-6.1641 0.42025-0.61051 6.1819-2.1866 3.063-2.1866-4.327zm8.8957-1.4144c2.5017-1.5841 0.44184-4.0856-3.3643-4.0856-3.1001 0-3.5314 0.30529-3.5314 2.5 0 2.0643 0.47925 2.4973 2.75 2.4847 1.5125-8e-3 3.3781-0.41301 4.1457-0.89908zm12.104 6.9144c-1.2968-2.4232-0.30869-2.5893 2.1525-0.36199 1.4756 1.3354 2.0906 1.4051 3.3287 0.37756 2.1287-1.7666 1.8905-4.1056-0.48124-4.7258-2.3306-0.60947-2.6975-2.2898-0.5-2.2898 0.83333 0 1.5-0.88889 1.5-2 0-2.255-2.8671-2.7329-4.8-0.8-0.78182 0.78182-1.2 0.82449-1.2 0.12244 0-2.3985 2.9443-3.6689 5.6481-2.4369 2.147 0.97825 2.4926 1.6611 2.0246 4.0012-0.31038 1.5519-0.0609 3.325 0.55438 3.9403 0.82494 0.82494 0.81635 1.7823-0.0327 3.6458-1.4735 3.234-6.5702 3.5619-8.1943 0.52713zm10 1.4777c0-0.28729 1.8508-2.5303 4.113-4.9844 2.5307-2.7455 3.8892-5.0451 3.5314-5.9777-0.78345-2.0416-3.6023-1.9175-5.3241 0.2344-1.3211 1.6511-1.3838 1.6431-1.1102-0.14282 0.45382-2.9623 3.1848-4.2039 6.2123-2.8245 3.6278 1.653 3.2715 4.8268-0.99354 8.8493l-3.5712 3.3681h3.5712c1.9642 0 3.5712 0.45 3.5712 1s-2.25 1-5 1-5-0.23505-5-0.52234zm18.942-2.131c1.9489-2.4776 1.9815-2.8145 0.49267-5.0868-1.9078-2.9117-1.0203-4.4431 0.98538-1.7002 1.373 1.8776 1.4388 1.8781 3.4897 0.022 2.3732-2.1477 2.7989-0.93305 0.68578 1.9568-1.2315 1.6842-1.1615 2.2621 0.5681 4.6911 1.0849 1.5237 1.5175 2.7703 0.96124 2.7703-0.55627 0-1.6768-0.95005-2.4902-2.1112l-1.4788-2.1112-1.3185 2.1112c-0.72516 1.1612-1.9179 2.1112-2.6505 2.1112-0.91966 0-0.68589-0.82143 0.75509-2.6533zm20.782 0.70749c-0.39586-1.5138-1.351-2.0542-3.6308-2.0542-1.7015 0-3.0936-0.22396-3.0936-0.49769 0-0.27372 1.6875-2.853 3.75-5.7318l3.75-5.2342 0.31875 4.4622c0.17532 2.4542 0.66451 4.921 1.0871 5.4818s0.22551 2.0565-0.43796 3.3238c-1.177 2.2481-1.2194 2.2542-1.7435 0.25zm0.27559-6.0542c0-1.65-0.19436-3-0.43191-3-0.23754 0-1.3932 1.35-2.5681 3l-2.1362 3h2.5681c2.1868 0 2.5681-0.44545 2.5681-3zm23 7.2878c0-0.39168 1.861-2.6083 4.1354-4.9258 2.6765-2.7272 3.9223-4.769 3.5314-5.7879-0.79013-2.059-4.3156-2.0241-5.4788 0.0543-0.52726 0.94217-1.1704 1.2092-1.5261 0.63364-1.0914-1.766 3.0313-4.5559 5.7311-3.8783 4.2993 1.079 4.301 4.3211 5e-3 8.721l-3.804 3.8952h3.703c2.0366 0 3.703 0.45 3.703 1s-2.25 1-5 1-5-0.32047-5-0.71215zm13.25 0.0499c-1.268-0.51169-1.7847-3.3378-0.61024-3.3378 0.35186 0 1.1512 0.69949 1.7764 1.5544 1.7642 2.4127 4.7574 0.75362 4.388-2.4322-0.2628-2.2661-0.7455-2.6022-3.5541-2.4748-3.5176 0.15959-3.9232-0.74656-2.2748-5.0824 0.74429-1.9576 1.6776-2.5651 3.941-2.5651 4.1313 0 4.8408 1.801 0.86094 2.1852-2.1497 0.20751-3.3735 0.90986-3.5916 2.0613-0.22819 1.2046 0.13286 1.5686 1.1637 1.173 2.5827-0.99107 5.6508 1.4064 5.6508 4.4157 0 4.366-3.3152 6.292-7.75 4.5025zm12.032 0.0323c-1.5544-0.65782-2.6909-6.6034-1.8799-9.8346 0.34203-1.3627 1.5336-2.9656 2.6478-3.562 2.561-1.3706 5.9504-0.34874 5.9504 1.7939 0 1.2698-0.26667 1.3659-1.2 0.43261-1.6941-1.6941-4.4749-1.4897-5.193 0.38179-1.0805 2.8158-0.69992 3.5383 1.3002 2.4679 1.4566-0.77955 2.4558-0.57635 4.2298 0.86015 4.4651 3.6156-0.37331 9.7802-5.8553 7.4602zm4.6785-1.822c1.6912-2.0378 0.87738-5.048-1.3648-5.048-2.7318 0-4.3174 2.925-2.6649 4.9162 1.6283 1.962 2.4875 1.9901 4.0297 0.13186zm11.14-5.298c0.0587-4.5635 0.37723-6.7576 0.77472-5.3363 0.49359 1.7649 1.4233 2.4465 3.4588 2.5356 6.9583 0.30461 6.115 10.551-0.86836 10.551h-3.4648l0.0997-7.75zm5.8546 5.305c1.853-2.2328 0.89351-6.0055-1.6184-6.3633-2.6487-0.37733-3.946 2.7999-2.3561 5.7705 1.2887 2.4079 2.3382 2.5644 3.9745 0.59281zm5.4172 0.9707c-0.95683-2.4935 0.32998-4.3602 3.2423-4.7036 1.5026-0.17717 2.9395-0.9533 3.1933-1.7247 0.36237-1.1018-0.33561-1.2733-3.2541-0.79969-3.1694 0.51433-3.5385 0.38981-2.5118-0.84738 1.2692-1.5293 3.7384-1.8558 6.377-0.84332 1.1284 0.43302 1.5814 1.9377 1.5803 5.25l-1e-3 4.643-4.02 0.27574c-2.8671 0.19666-4.188-0.16183-4.6055-1.25zm5.0467-0.13273c2.237-0.85843 1.9687-3.393-0.35919-3.393-2.1976 0-3.4823 1.5061-2.559 3 0.72497 1.173 0.84382 1.189 2.9182 0.39301zm6.7-3.4249c-0.11143-5.2142 0.0254-5.5438 2.3818-5.7388 1.375-0.1138 2.5 0.23805 2.5 0.78189s-0.62632 0.9888-1.3918 0.9888c-0.85481 0-1.7738 1.8327-2.3818 4.75l-0.98997 4.75zm6.8818 3.5319c-1.4424-1.738 0.0464-2.0536 1.7328-0.36722 1.26 1.26 4.2672 0.49724 4.2672-1.0823 0-0.55679-1.1065-1.2901-2.459-1.6295-3.6044-0.90465-5.1049-3.0366-3.4991-4.9715 1.4699-1.7711 6.1001-1.5699 6.7113 0.29163 0.29249 0.89086-0.46177 1.0672-2.6729 0.625-4.1996-0.83992-3.9014 0.93527 0.41964 2.4978 1.925 0.69609 3.5 1.8215 3.5 2.5009 0 3.4-5.69 4.9187-8 2.1353zm-173-2.441c0-1.3924-0.64756-2.059-2-2.059-1.1 0-2-0.45-2-1s0.9-1 2-1c1.3333 0 2-0.66667 2-2 0-1.1 0.45-2 1-2s1 0.8687 1 1.9304c0 1.2041 0.84654 2.097 2.25 2.373l2.25 0.4426-2.25 0.74358c-1.2375 0.40897-2.25 1.3395-2.25 2.0679 0 0.7284-0.45 1.6025-1 1.9424s-1-0.30852-1-1.441zm91-1.059c0-0.55 2.025-1 4.5-1s4.5 0.45 4.5 1-2.025 1-4.5 1-4.5-0.45-4.5-1zm1.25-4.7162c1.5125-0.22913 3.9875-0.22913 5.5 0 1.5125 0.22912 0.275 0.41659-2.75 0.41659s-4.2625-0.18747-2.75-0.41659zm-79.061-17.034 0.18909-5.75 0.36082 5.75 0.36082 5.75h124.9v-126h-126l-0.18908 5.75-0.18909 5.75-0.36082-5.75-0.36082-5.75h-103.9v126h105zm102.81-4.58v-7.33l3.56 0.11812c1.958 0.065 3.9761 0.77599 4.4847 1.58 2.292 3.6236 0.15959 8.9619-3.5799 8.9619-1.7982 0-2.4648 0.54095-2.4648 2 0 1.1-0.45 2-1 2-0.57572 0-1-3.11-1-7.33zm5.9543 0.88508c1.853-2.2328 0.89351-6.0055-1.6184-6.3633-2.6487-0.37733-3.946 2.7999-2.3561 5.7705 1.2887 2.4079 2.3382 2.5644 3.9745 0.59281zm-68.192 2.8796c-3.3688-1.8279-5.7638-6.2508-5.7588-10.635 5e-3 -4.1028 3.1789-9.4701 6.494-10.981 3.1086-1.4164 3.3624-5.2884 0.44879-6.8477-2.8254-1.5121-5.9382-6.8921-5.9428-10.271-5e-3 -3.6054 2.2827-7.9939 5.4763-10.506 1.5416-1.2126 2.52-2.994 2.52-4.5883 0-2.4606-0.27906-2.6061-5-2.6061h-5v-24h10v-8h-9v-25.058l13.25 0.27903 13.25 0.27902 0.28078 12.25 0.28078 12.25h-16.062v8h14v24h-7c-6.6994 0-7 0.10186-7 2.3722 0 1.9833 0.63802 2.4742 3.8916 2.9945 2.7777 0.44417 4.8132 1.672 7.1117 4.2898 2.9006 3.3036 3.1737 4.1508 2.7521 8.5382-0.57736 6.0088-3.5636 9.4943-9.493 11.08-3.0074 0.80434-4.2624 1.6678-4.2624 2.9326 0 1.263 0.76677 1.7926 2.5956 1.7926 6.1552 0 11.291 7.4615 9.9724 14.489-0.90488 4.8234-6.5382 9.5231-11.353 9.4712-2.0434-0.022-4.947-0.70843-6.4526-1.5254zm13.487-3.4479c4.7981-5.2662 3.3377-13.662-2.9343-16.87-3.1894-1.6311-4.7302-1.3886-2.8872 0.45439 2.2967 2.2967 1.9822 3.4236-2.1315 7.6364l-3.703 3.7922h3.703c2.0366 0 3.703 0.45 3.703 1s-2.25 1-5 1-5-0.32047-5-0.71215 1.861-2.6083 4.1354-4.9258c2.9907-3.0473 3.9446-4.7109 3.4462-6.0098-0.58722-1.5303-0.82929-1.5782-1.6354-0.32414-0.83307 1.296-1.0594 1.296-1.8924 0-0.81184-1.263-1.0397-1.2283-1.6048 0.24425-0.36222 0.94393-1.0688 1.4627-1.5701 1.1529-0.50134-0.30985-0.5928-1.0948-0.20325-1.7443 0.40593-0.67681-0.012-0.59667-0.97909 0.18773-0.92805 0.75274-2.1913 3.0505-2.8072 5.1061-0.92252 3.0791-0.82274 4.3635 0.56639 7.2908 3.3507 7.0611 11.619 8.4008 16.794 2.7211zm0.0428-27.002c3.0814-2.4239 5.0404-7.8087 4.1424-11.387-0.6344-2.5275-5.6474-7.5977-7.512-7.5977-0.5078 0-0.92327 3.15-0.92327 7 0 4-0.42857 7-1 7-0.55 0-1-2.5053-1-5.5674 0-5.2217-0.13197-5.5255-2.1252-4.8929-1.3578 0.43094-1.8936 0.29968-1.4837-0.36352 1.5304-2.4762-1.8957-2.2909-4.0549 0.21929-3.5361 4.111-3.2677 10.827 0.58687 14.681 3.6139 3.6139 9.4273 4.0085 13.37 0.90744zm4.7072-38.014v-10.97h-24v21.838l12 0.051 12 0.051v-10.97zm-11.832 2.7123c-0.16011-5.541-0.27501-5.7845-2.4181-5.1258-2.2214 0.68283-2.2183 0.65714 0.25-2.0244l2.5-2.716 0.30879 4.1182c0.16983 2.265 0.13298 5.7938-0.0819 7.8417-0.28257 2.6931-0.4372 2.1137-0.55879-2.0938zm12.832-34.692v-10.991h-24v10.333c0 5.6833 0.25338 10.587 0.56306 10.896 0.30968 0.30968 5.7097 0.60562 12 0.65763l11.437 0.09458zm-21 7.5599c0-0.79701 1.575-2.6504 3.5-4.1187 3.8896-2.9667 4.911-7.4322 1.7-7.4322-0.99 0-2.3325 0.5325-2.9833 1.1833-0.65084 0.65084-1.5276 0.83904-1.9484 0.41824-0.94757-0.94757 2.5327-3.6016 4.7229-3.6016 4.762 0 5.1959 5.1801 0.8127 9.7024l-3.1962 3.2976h3.1962c1.7579 0 3.1962 0.45 3.1962 1s-2.025 1-4.5 1c-3.2631 0-4.5-0.39831-4.5-1.4491zm35 86.882c0-5.3034-0.10669-5.5359-2.25-4.9043-2.1143 0.62309-2.0867 0.50651 0.45636-1.9326 1.4885-1.4276 2.951-2.5957 3.25-2.5957 0.299 0 0.54364 3.375 0.54364 7.5 0 4.3333-0.42222 7.5-1 7.5-0.55 0-1-2.5053-1-5.5674zm6.9148 3.9312c-1.2735-1.5647-1.2151-1.6586 0.58517-0.93997 3.0431 1.2147 4.7426 1.195 5.1878-0.0602 0.22169-0.62499-1.0002-1.6255-2.7154-2.2234-2.4394-0.85036-3.0481-1.5829-2.7954-3.3637 0.39555-2.7876 4.8457-3.659 6.7806-1.3277 1.1284 1.3596 0.90299 1.4733-1.8356 0.92556-4.0785-0.8157-4.1156 1.0836-0.0489 2.5012 2.3959 0.8352 3.0018 1.5729 2.75 3.3478-0.42122 2.9686-5.7901 3.7428-7.9082 1.1404zm10.927-3.1138c-0.26352-7.8999 0.27818-10.464 1.8738-8.868 0.39344 0.39344 0.61566 3.0065 0.49382 5.8068s0.28635 5.7034 0.90709 6.4513c0.89126 1.0739 0.68225 1.3599-0.99382 1.3599-1.8431 0-2.1433-0.62509-2.2809-4.75zm22.158-2.75c0-4.3333 0.42222-7.5 1-7.5s1 3.1667 1 7.5-0.42222 7.5-1 7.5-1-3.1667-1-7.5zm-43-12.022c0-0.28729 1.8508-2.5303 4.113-4.9844 2.5307-2.7455 3.8892-5.0451 3.5314-5.9777-0.78345-2.0416-3.6023-1.9175-5.3241 0.2344-1.3211 1.6511-1.3838 1.6431-1.1102-0.14282 0.45382-2.9623 3.1848-4.2039 6.2123-2.8245 3.6278 1.653 3.2715 4.8268-0.99354 8.8493l-3.5712 3.3681h3.5712c1.9642 0 3.5712 0.45 3.5712 1s-2.25 1-5 1-5-0.23505-5-0.52234zm13-0.97766c-1.4424-1.738 0.0464-2.0536 1.7328-0.36722 1.26 1.26 4.2672 0.49724 4.2672-1.0823 0-0.55679-1.1065-1.2901-2.459-1.6295-3.6044-0.90465-5.1049-3.0366-3.4991-4.9715 1.4699-1.7711 6.1001-1.5699 6.7113 0.29163 0.29249 0.89086-0.46177 1.0672-2.6729 0.625-4.1996-0.83992-3.9014 0.93527 0.41964 2.4978 1.925 0.69609 3.5 1.8215 3.5 2.5009 0 3.4-5.69 4.9187-8 2.1353zm16.58 0.62916c-0.84401-1.3656-1.0871-11.955-0.29264-12.75 1.4073-1.4073 2.1397 0.80642 1.922 5.8093-0.12184 2.8003 0.28635 5.7034 0.90709 6.4513 0.8697 1.0479 0.76995 1.3599-0.4348 1.3599-0.85988 0-1.8056-0.39188-2.1016-0.87084zm5.4744-0.56384c-0.65487-0.78907-1.0475-2.9184-0.87244-4.7319 0.2501-2.5914 0.92935-3.5109 3.1729-4.2952 2.4537-0.85774 3.1209-0.66915 4.75 1.3427 1.0424 1.2874 1.8953 3.1586 1.8953 4.1584 0 4.1598-6.3444 6.6604-8.9458 3.526zm5.935-1.0523c0.72178-0.86969 0.96551-2.5572 0.5871-4.0649-0.94183-3.7525-4.9502-3.0531-5.4064 0.94342-0.46018 4.0313 2.4824 5.9372 4.8193 3.1215zm-112.18-12.515c-0.16984-6.601 0.0287-12.001 0.4412-12 0.4125 1e-3 0.75 5.4019 0.75 12.002s-0.19854 12-0.4412 12-0.58016-5.4008-0.75-12.002zm-49.307-11.123c1.2017-5.6674 4.7524-10.944 8.9875-13.355 5.6858-3.2374 8.9648-3.7754 15.165-2.4882 6.5776 1.3655 13.345 7.0728 13.345 11.254 0 3.2667 1.6454 4.4064 2.4954 1.7284 0.35166-1.108 1.0749-2.0145 1.6072-2.0145 1.0277 0 0.10792 2.11-2.2793 5.2288-1.2449 1.6265-1.5181 1.6043-4.6152-0.37475-3.6101-2.3069-3.7246-3.7361-0.14586-1.8208 2.147 1.149 2.2078 1.0669 1.5703-2.1209-1.9363-9.6815-16.272-14.244-26.296-8.3692-4.3908 2.5732-8.3362 8.422-8.3362 12.358 0 1.0895-0.49812 2.2887-1.1069 2.665-0.77527 0.47914-0.89251-0.32714-0.39128-2.691zm-27.502 1.1246c0-0.5216 1.4625-1.7474 3.25-2.724 3.2371-1.7686 3.1857-1.7768-13-2.0504-22.012-0.37219-21.601-2.2179 0.5-2.2482l16.75-0.023-3.75-2.1736c-6.2082-3.5984-4.2142-4.1157 2.196-0.56967 3.2703 1.8091 5.6328 3.585 5.25 3.9465-1.9406 1.8326-11.196 6.6624-11.196 5.8424zm88.661-1.9386c-2.6612-1.561-5.2397-3.2394-5.7301-3.7297-0.52213-0.52213 1.5865-2.2539 5.0885-4.1792 6.463-3.5531 8.3754-3.0763 2.2203 0.55353l-3.7402 2.2057 10.75 0.0443c6.4705 0.0267 10.75 0.44236 10.75 1.0443s-4.2795 1.0176-10.75 1.0442l-10.75 0.0442 3.75 1.9797c2.0625 1.0888 3.75 2.4189 3.75 2.9558 0 1.2401 0.32642 1.3601-5.3385-1.9628zm86.219-13.425c-2.4282-5.3293 2.5304-11.03 6.6327-7.6258 2.1364 1.7731 1.8362 3.2243-0.38052 1.8399-1.0272-0.64146-2.6022-0.8844-3.5-0.53986-2.0552 0.78866-2.1272 5.0337-0.11371 6.7048 1.2454 1.0336 1.8963 0.92058 3.6162-0.62756 2.061-1.8552 2.091-1.8532 1.723 0.11199-0.26651 1.4236-1.3066 2.0902-3.609 2.3128-2.6338 0.25472-3.4453-0.14949-4.3687-2.1763zm10.12-2.933c0-5.1519 0.0751-5.2919 2.75-5.1289 3.859 0.23507 4.0581 0.42835 1.5 1.4566-1.8118 0.72825-2.25 1.6897-2.25 4.9366 0 2.2177-0.45 4.0322-1 4.0322s-1-2.3834-1-5.2965zm7.1977 0.15355c0.28676-4.8792 0.45372-5.1588 3.2558-5.4535 1.6245-0.17081 3.537 0.17361 4.25 0.76537 1.5134 1.256 1.7719 9.831 0.29642 9.831-0.55 0-1-2.0563-1-4.5696 0-4.1668-0.19831-4.5414-2.25-4.25-1.8704 0.26565-2.3019 1.0365-2.5575 4.5696-0.16912 2.3375-0.75514 4.25-1.3023 4.25-0.56991 0-0.86567-2.1965-0.6925-5.1429zm-44.03-1.1745c-0.16011-5.541-0.27501-5.7845-2.4181-5.1258-2.2214 0.68283-2.2183 0.65714 0.25-2.0244l2.5-2.716 0.30879 4.1182c0.16983 2.265 0.13298 5.7938-0.0819 7.8417-0.28257 2.6931-0.4372 2.1137-0.55879-2.0938zm6.8319 3.8174c-1.4424-1.738 0.0464-2.0536 1.7328-0.36722 1.26 1.26 4.2672 0.49724 4.2672-1.0823 0-0.55679-1.1065-1.2901-2.459-1.6295-3.6044-0.90464-5.1049-3.0366-3.4991-4.9715 1.4699-1.7711 6.1001-1.5699 6.7113 0.29163 0.29249 0.89086-0.46177 1.0672-2.6729 0.625-4.1996-0.83992-3.9014 0.93527 0.41964 2.4978 1.925 0.69609 3.5 1.8215 3.5 2.5009 0 3.4-5.69 4.9187-8 2.1353zm10.551 0.25c-1.2249-3.9639-1.2151-9.8207 0.0193-11.448 1.2234-1.6134 1.3694-1.6274 1.3979-0.13487 0.0175 0.91666 0.5943 1.9292 1.2818 2.25 1 0.46666 1 0.7 0 1.1667-1.4781 0.68977-1.7048 7.4167-0.24998 7.4167 0.55 0 1 0.45 1 1 0 1.4478-2.9914 1.2309-3.449-0.25zm-89.166-17.75c0-6.875 0.15977-9.6875 0.35504-6.25s0.19527 9.0625 0 12.5-0.35504 0.625-0.35504-6.25zm-81.385 0.53138c0-4.4501-0.27936-5.3614-1.5-4.893-2.3484 0.90119-1.6986-0.9481 1.0314-2.935l2.4686-1.7967v7.5467c0 4.3644-0.42167 7.5467-1 7.5467-0.55 0-1-2.4609-1-5.4686zm44 4.9463c0-0.28729 1.8508-2.5303 4.113-4.9844 2.5307-2.7455 3.8892-5.0451 3.5314-5.9777-0.78345-2.0416-3.6023-1.9175-5.3241 0.2344-1.3211 1.6511-1.3838 1.6431-1.1102-0.14282 0.45382-2.9623 3.1848-4.2039 6.2123-2.8245 3.6278 1.653 3.2715 4.8268-0.99354 8.8493l-3.5712 3.3681h3.5712c1.9642 0 3.5712 0.45 3.5712 1s-2.25 1-5 1-5-0.23505-5-0.52234zm110.78-9.7277c-0.53384-6.8125 0.51034-9.7592 3.4436-9.7182 2.2432 0.0314 2.2471 0.0527 0.27962 1.5395-1.7234 1.3023-1.7915 1.6489-0.5 2.5443 1.1254 0.7803 1.186 1.1621 0.24513 1.5438-0.73476 0.29814-1.25 2.3277-1.25 4.9239 0 6.1783-1.7196 5.5324-2.2184-0.83333zm5.2087 3.7384c-1.6389-1.9748 0.19124-4.2548 3.7557-4.679 1.4298-0.17015 2.8073-0.94054 3.061-1.712 0.36237-1.1018-0.33561-1.2733-3.2541-0.79969-3.1694 0.51433-3.5385 0.38981-2.5118-0.84738 1.46-1.7592 5.1146-1.8945 6.7588-0.25031 0.66 0.66 1.2 3.0612 1.2 5.3361 0 4.1126-0.022 4.1369-3.8872 4.2884-2.3812 0.0933-4.3658-0.42433-5.1224-1.3361zm5.8096-0.68838c0.66-0.66 1.2-1.56 1.2-2 0-1.3137-3.6676-0.90543-4.8689 0.54201-1.9969 2.4061 1.3792 3.7477 3.6689 1.458zm6.2542 0.76532c-0.65487-0.78907-1.0475-2.9184-0.87244-4.7319 0.39811-4.125 4.795-6.2851 7.4299-3.6503 1.0762 1.0762 1.2307 1.7963 0.48428 2.2576-0.60278 0.37254-1.096 0.16949-1.096-0.45122 0-0.62072-1.0125-0.98477-2.25-0.80902-1.7019 0.2417-2.324 1.0802-2.5538 3.4419-0.36874 3.7894 2.4872 5.5312 4.5171 2.7551 0.69632-0.95229 1.5598-1.4376 1.9189-1.0786 1.119 1.119-1.7639 3.7012-4.1322 3.7012-1.2403 0-2.7909-0.6456-3.4458-1.4347zm9.981-0.49958c-1.5434-2.8839-1.2574-5.5546 0.79356-7.4108 2.2967-2.0785 4.5761-2.1073 6.5998-0.0836 2.8151 2.815 1.9302 4.4286-2.4286 4.4286-4.2344 0-4.9902 0.93334-2.4576 3.0352 1.1683 0.96957 1.8232 0.99927 2.7 0.12245 0.63669-0.63669 1.7977-1.1576 2.5801-1.1576 1.151 0 1.1849 0.28623 0.17756 1.5-1.8053 2.1752-6.7114 1.9077-7.9648-0.43426zm6.9648-5.0971c0-0.56726-0.675-1.2904-1.5-1.607-2.0027-0.76852-4.7866 0.3656-4.0044 1.6313 0.81898 1.3251 5.5044 1.3044 5.5044-0.0243zm-208.43-3.463c1.0773-5.473 1.2034-5.5056 21.329-5.5056 15.628 0 19.033-0.26458 20.983-1.6307 2.8893-2.0238 5.1169-7.1769 5.1169-11.837 0-1.9427 0.45-3.5321 1-3.5321 1.6423 0 1.1352 5.3444-0.90841 9.5743-3.775 7.8133-3.9347 7.8654-25.856 8.4257l-19.561 0.5-1.3465 3.5c-1.2196 3.1703-1.291 3.2179-0.75705 0.50559zm95.929-0.59374-1-3.4118-19.73-0.5c-19.432-0.49246-19.767-0.53772-22.147-3-1.3295-1.375-2.7028-3.625-3.0518-5-0.44083-1.7368-0.01181-1.3646 1.4053 1.2191 1.1219 2.0455 2.9067 4.183 3.9661 4.75 1.1239 0.60152 9.6492 1.0309 20.469 1.0309h18.543l1.6058 2.4508c0.88322 1.348 1.4561 3.2208 1.273 4.1618-0.20727 1.0657-0.70996 0.42418-1.3328-1.7008zm80.668-13.229c-0.16011-5.541-0.27501-5.7845-2.4181-5.1258-2.2214 0.68283-2.2183 0.65714 0.25-2.0244l2.5-2.716 0.30879 4.1182c0.16983 2.265 0.13298 5.7938-0.0819 7.8417-0.28257 2.6931-0.4372 2.1137-0.55879-2.0938zm6.8319 3.8174c-1.4424-1.738 0.0464-2.0536 1.7328-0.36722 1.26 1.26 4.2672 0.49724 4.2672-1.0823 0-0.55679-1.1065-1.2901-2.459-1.6295-3.6044-0.90464-5.1049-3.0366-3.4991-4.9715 1.4699-1.7711 6.1001-1.5699 6.7113 0.29163 0.29249 0.89086-0.46177 1.0672-2.6729 0.625-4.1996-0.83992-3.9014 0.93527 0.41964 2.4978 1.925 0.69609 3.5 1.8215 3.5 2.5009 0 3.4-5.69 4.9187-8 2.1353zm198 40.494v-63.006l-75.75 0.25628-75.75 0.25629-0.25751 62.75-0.25752 62.75h152.02zm-50 51.676v-7.33l3.56 0.11812c1.958 0.065 3.9761 0.77599 4.4847 1.58 2.292 3.6236 0.15959 8.9619-3.5799 8.9619-1.7982 0-2.4648 0.54095-2.4648 2 0 1.1-0.45 2-1 2-0.57572 0-1-3.11-1-7.33zm5.9543 0.88508c1.853-2.2328 0.89351-6.0055-1.6184-6.3633-2.6487-0.37733-3.946 2.7999-2.3561 5.7705 1.2887 2.4079 2.3382 2.5644 3.9745 0.59281zm6.375 1.6696c-2.2977-1.4616-2.5533-5.7265-0.49548-8.2678 1.6909-2.0882 2.3448-2.281 4.8115-1.4187 5.0803 1.7759 4.2319 10.484-1.0178 10.446-1.1702-8e-3 -2.6544-0.35043-3.2983-0.76002zm4.5008-1.0985c0.75546-0.47892 1.1875-2.0924 1-3.7347-0.45622-3.9965-4.4646-4.696-5.4064-0.94342-0.37841 1.5077-0.13468 3.1952 0.5871 4.0649 1.4113 1.7005 1.9641 1.7893 3.8193 0.61319zm6.1699 0.37382c-1.4424-1.738 0.0464-2.0536 1.7328-0.36722 1.26 1.26 4.2672 0.49724 4.2672-1.0823 0-0.55679-1.1065-1.2901-2.459-1.6295-3.6044-0.90465-5.1049-3.0366-3.4991-4.9715 1.4699-1.7711 6.1001-1.5699 6.7113 0.29163 0.29249 0.89086-0.46177 1.0672-2.6729 0.625-4.1996-0.83992-3.9014 0.93527 0.41964 2.4978 1.925 0.69609 3.5 1.8215 3.5 2.5009 0 3.4-5.69 4.9187-8 2.1353zm10.002-3.75c2e-3 -5.1843 0.0418-5.2528 3.1791-5.4738 4.3965-0.30969 5.8189 1.2416 5.8189 6.3462 0 5.6212-1.7875 5.7252-2.1925 0.12756-0.25185-3.4808-0.66946-4.25-2.3075-4.25s-2.0556 0.76917-2.3075 4.25c-0.43905 6.0682-2.1929 5.2676-2.1905-1zm-45.002-18.25v-7.5h4.4433c8.5506 0 9.6456 8.0888 1.1927 8.8104-3.2864 0.28052-3.636 0.59304-3.636 3.25 0 1.6168-0.45 2.9396-1 2.9396-0.57778 0-1-3.1667-1-7.5zm8.8196-2.75c-0.24492-1.7245-1.0786-2.3232-3.5696-2.5634-2.9029-0.27989-3.25-0.0396-3.25 2.25 0 2.2724 0.40517 2.5634 3.5696 2.5634 3.1298 0 3.5302-0.27721 3.25-2.25zm5.1804 2.75v-7.5h4.4286c6.5618 0 10.057 4.4307 5.6612 7.176-1.8486 1.1545-1.8287 1.2998 0.61868 4.5085 1.8304 2.3998 2.1285 3.3155 1.0792 3.3155-0.79734 0-2.0704-1.1598-2.8291-2.5774-1.5493-2.8948-4.4998-4.8242-5.9792-3.9098-0.53863 0.3329-0.97933 1.9287-0.97933 3.5462s-0.45 2.941-1 2.941c-0.57778 0-1-3.1667-1-7.5zm8.9636-1.9562c1.7772-2.1414 0.38321-3.5438-3.5227-3.5438-3.0037 0-3.441 0.31769-3.441 2.5 0 2.0875 0.47483 2.5 2.8776 2.5 1.5826 0 3.4214-0.65529 4.0861-1.4562zm7.4913 7.4065c-2.6868-2.9688-2.4499-8.7262 0.45579-11.079 5.0854-4.1179 11.089-0.88358 11.089 5.9738 0 2.455-0.66111 4.4433-1.8287 5.5-2.5403 2.2989-7.4594 2.0991-9.7163-0.39475zm9.3632-4.8791c0.38311-3.8546-1.2298-6.0712-4.4176-6.0712-3.1571 0-5.7026 3.9487-4.8178 7.4738 1.4558 5.8006 8.6278 4.7113 9.2354-1.4026zm5.1818-0.57119c0-9.4239 2.0168-10.295 4.6315-2 0.95355 3.025 2.0284 5.5 2.3887 5.5s1.4962-2.475 2.5245-5.5c2.7222-8.0087 4.4553-7.2307 4.4553 2 0 8.4961-1.7358 10.273-2.1977 2.25l-0.30226-5.25-1.8473 5.3009c-1.016 2.9155-2.3364 5.1379-2.9342 4.9386s-1.8692-2.5847-2.8252-5.3009l-1.7383-4.9386-0.0775 5.25c-0.0426 2.8875-0.52751 5.25-1.0775 5.25-0.57778 0-1-3.1667-1-7.5zm-69.774-41.25-0.22576-28.25 14.25 0.20554 14.25 0.20553-13.5 0.54447-13.5 0.54446-0.52424 27.5-0.52424 27.5zm59.396 25.946c-0.62927-1.0182-0.62875-7.5657 2e-3 -22.446l0.49788-11.75 5.1895 0.0147c7.388 0.021 10.189 1.6747 10.189 6.0148 0 2.5785-0.54589 3.7102-2.1238 4.4033-2.1115 0.92739-2.1072 0.95585 0.75 4.9 3.1721 4.379 3.5282 5.6672 1.5664 5.6672-0.71912 0-2.7348-2.025-4.4794-4.5-2.5148-3.5677-3.772-4.5-6.0687-4.5-2.8033 0-2.9125 0.18563-3.3848 5.75-0.30662 3.6125-0.0738 6.0571 0.62617 6.5761 0.80264 0.59511 0.76467 0.96797-0.13578 1.3333-1.4775 0.59946-1.7071 7.3406-0.25022 7.3406 0.55 0 1 0.45 1 1 0 1.191-2.668 1.3462-3.3786 0.19646zm12.879-28.196c0-2.3108-0.39727-2.5229-5.25-2.8023l-5.25-0.30226v6.209l5.25-0.30226c4.8527-0.27938 5.25-0.49143 5.25-2.8023zm-7.4648 27.066c-2.2509-4.2059-0.12552-9.0657 3.9648-9.0657 4.1347 0 6.7794 6.8206 3.8 9.8-1.9015 1.9015-6.5916 1.458-7.7648-0.73426zm5.9191-0.5107c0.65956-0.79472 1.0522-2.4822 0.87244-3.75-0.24168-1.7049-0.97765-2.305-2.8268-2.305s-2.5851 0.60013-2.8268 2.305c-0.31696 2.2358 1.2932 5.195 2.8268 5.195 0.41531 0 1.2948-0.65023 1.9543-1.445zm-99.954-26.531v-26.976l-16.75-0.30006-16.75-0.30005 17.25-0.22413 17.25-0.22412v27.5c0 15.125-0.225 27.5-0.5 27.5s-0.5-12.139-0.5-26.976zm-27.545 7.5213c-2.7879-2.7879-3.1554-5.0625-0.95455-5.9071 0.825-0.31658 1.5-0.13972 1.5 0.39302s0.9 1.8686 2 2.9686c2.3953 2.3953 9.1468 2.7329 10.96 0.54804 2.4176-2.913 0.72477-4.9759-5.9665-7.2709-6.844-2.3475-8.9937-4.2347-8.9937-7.8956 0-7.464 16.368-8.7291 18.281-1.413 0.83244 3.1833-1.3818 3.614-3.5161 0.68406-1.5038-2.0644-2.7734-2.6525-5.7263-2.6525-4.4567 0-6.9956 2.2599-5.3932 4.8004 0.56645 0.89801 3.5946 2.3941 6.7293 3.3247 7.2648 2.1566 8.6248 3.3389 8.6248 7.4974 0 5.1813-2.8416 7.3776-9.5454 7.3776-4.5544 0-5.9841-0.43865-8-2.4546zm65-1c-2.7879-2.7879-3.1554-5.0625-0.95455-5.9071 0.825-0.31658 1.5-0.13972 1.5 0.39301 0 0.53274 0.9 1.8686 2 2.9686 2.3953 2.3953 9.1468 2.7329 10.96 0.54804 2.4176-2.913 0.72477-4.9759-5.9665-7.2709-6.844-2.3475-8.9937-4.2347-8.9937-7.8956 0-7.464 16.368-8.7291 18.281-1.413 0.83244 3.1833-1.3818 3.614-3.5161 0.68406-1.5038-2.0644-2.7734-2.6525-5.7263-2.6525-4.4567 0-6.9956 2.2599-5.3932 4.8004 0.56645 0.89801 3.5946 2.3941 6.7293 3.3247 7.2648 2.1566 8.6248 3.3389 8.6248 7.4974 0 5.1813-2.8416 7.3776-9.5454 7.3776-4.5544 0-5.9841-0.43865-8-2.4546zm-29-1c-2.5458-2.5458-3.2752-5.5454-1.3485-5.5454 0.60834 0 1.991 1.125 3.0726 2.5 3.6364 4.6229 13.596 2.8899 12.654-2.202-0.22351-1.2084-2.3376-2.4539-6.4465-3.798-3.3626-1.1-6.8502-2.6176-7.75-3.3724-2.247-1.8849-2.0546-6.709 0.3639-9.1276 2.7578-2.7578 9.8157-2.7194 13.365 0.0726 2.855 2.2457 3.5599 5.9274 1.1349 5.9274-0.825 0-1.5-0.41786-1.5-0.92857 0-3.6356-8.5266-5.5517-11.07-2.4876-2.0858 2.5132 0.0628 4.6467 6.6481 6.6016 6.4622 1.9184 8.4215 3.764 8.4215 7.9331 0 6.5387-12.324 9.6482-17.545 4.4269zm65.328-10.795-0.28275-11.25-4.25-0.3075c-2.8937-0.20936-4.25-0.76784-4.25-1.75 0-1.1651 2.0194-1.4425 10.5-1.4425 8.6667 0 10.5 0.2619 10.5 1.5 0 1.1111-1.1667 1.5-4.5 1.5h-4.5v11.5c0 9.4415-0.26264 11.5-1.4672 11.5-1.186 0-1.5214-2.1567-1.75-11.25zm144.22 17.25v-63h-100v126h100zm-81.946 52.565c-0.65487-0.78907-1.0475-2.9184-0.87244-4.7319 0.2501-2.5914 0.92935-3.5109 3.1729-4.2952 2.4537-0.85774 3.1209-0.66915 4.75 1.3427 1.0424 1.2874 1.8953 3.1586 1.8953 4.1584 0 4.1598-6.3444 6.6604-8.9458 3.526zm5.935-1.0523c0.72178-0.86969 0.96551-2.5572 0.5871-4.0649-0.94183-3.7525-4.9502-3.0531-5.4064 0.94342-0.46018 4.0313 2.4824 5.9372 4.8193 3.1215zm5.6963 1.8392c-0.37703-0.37703-0.62918-2.973-0.56033-5.7688l0.12516-5.0833 0.6947 4.2699c1.219 7.4923 5.055 8.4258 5.055 1.2301 0-2.1351 0.45-4.1601 1-4.5 0.61911-0.38263 1 1.4215 1 4.7366 0 5.3509-2e-3 5.3548-3.3145 5.5778-1.823 0.12277-3.623-0.0853-4-0.46228zm10.865-0.60217c-1.2249-3.9639-1.2151-9.8207 0.0193-11.448 1.2234-1.6134 1.3694-1.6274 1.3979-0.13487 0.0175 0.91666 0.5943 1.9292 1.2818 2.25 1 0.46666 1 0.7 0 1.1667-1.4781 0.68977-1.7048 7.4167-0.24998 7.4167 0.55 0 1 0.45 1 1 0 1.4478-2.9914 1.2309-3.449-0.25zm-18.551-25.317c0-5.3034-0.10669-5.5359-2.25-4.9043-2.1143 0.62309-2.0867 0.50651 0.45636-1.9326 1.4885-1.4276 2.951-2.5957 3.25-2.5957 0.299 0 0.54364 3.375 0.54364 7.5 0 4.3333-0.42222 7.5-1 7.5-0.55 0-1-2.5053-1-5.5674zm7 4.0674c-1.4424-1.738 0.0464-2.0536 1.7328-0.36722 1.26 1.26 4.2672 0.49724 4.2672-1.0823 0-0.55679-1.1065-1.2901-2.459-1.6295-3.6044-0.90465-5.1049-3.0366-3.4991-4.9715 1.4699-1.7711 6.1001-1.5699 6.7113 0.29163 0.29249 0.89086-0.46177 1.0672-2.6729 0.625-4.1996-0.83992-3.9014 0.93527 0.41964 2.4978 1.925 0.69609 3.5 1.8215 3.5 2.5009 0 3.4-5.69 4.9187-8 2.1353zm15.782-3.75c-0.53384-6.8125 0.51034-9.7592 3.4436-9.7182 2.2432 0.0314 2.2471 0.0527 0.27962 1.5395-1.7234 1.3023-1.7915 1.6489-0.5 2.5443 1.1254 0.78031 1.186 1.1621 0.24513 1.5438-0.73476 0.29814-1.25 2.3277-1.25 4.9239 0 6.1783-1.7196 5.5324-2.2184-0.83333zm5.5899 3.7757c-0.95683-2.4935 0.32998-4.3602 3.2423-4.7036 1.5026-0.17717 2.9395-0.9533 3.1933-1.7247 0.36237-1.1018-0.33561-1.2733-3.2541-0.79969-3.1694 0.51433-3.5385 0.38981-2.5118-0.84738 1.2692-1.5293 3.7384-1.8558 6.377-0.84332 1.1284 0.43302 1.5814 1.9377 1.5803 5.25l-1e-3 4.643-4.02 0.27574c-2.8671 0.19666-4.188-0.16183-4.6055-1.25zm5.0467-0.13273c2.237-0.85843 1.9687-3.393-0.35919-3.393-2.1976 0-3.4823 1.5061-2.559 3 0.72497 1.173 0.84382 1.189 2.9182 0.39301zm7.5792 0.10391c-1.7176-2.0696-1.5647-6.3582 0.29292-8.2159 1.9641-1.9641 6.7096-0.94707 6.7096 1.438 0 1.3074-0.26667 1.4143-1.2 0.48095-3.2202-3.2202-7.0614 0.57463-4.8202 4.7622 1.2987 2.4267 2.3583 2.5569 4.3774 0.53777 2.1083-2.1083 2.9085-1.8648 1.6429 0.5-1.2654 2.3643-5.2198 2.645-7.0026 0.49692zm10.057 0.0684c-0.65487-0.78907-1.0475-2.9184-0.87244-4.7319 0.2501-2.5914 0.92935-3.5109 3.1729-4.2952 2.4537-0.85774 3.1209-0.66915 4.75 1.3427 2.7476 3.3931 2.3766 4.1191-2.1047 4.1191-2.7524 0-4 0.4345-4 1.393 0 1.9374 2.9641 2.8817 4.6509 1.4817 1.577-1.3088 2.8966-0.56968 1.8902 1.0587-0.96196 1.5565-6.0992 1.3039-7.4869-0.36815zm5.9458-6.1349c0-1.0423-0.72946-1.4622-2.1717-1.25-3.2015 0.47108-3.5444 2.8196-0.41166 2.8196 1.6805 0 2.5833-0.54853 2.5833-1.5696zm-77-29.43v-11h6.845c7.8346 0 10.155 1.5474 10.155 6.772 0 4.1406-3.0911 6.228-9.2225 6.228h-4.7775v4.5c0 3.3333-0.38889 4.5-1.5 4.5-1.2424 0-1.5-1.8889-1.5-11zm13.5-4.4552c0-2.6373-0.42577-3.0437-3.9573-3.7774-5.3848-1.1188-6.5427-0.4545-6.5427 3.7536v3.5836l5.25-0.30226c5.0808-0.29252 5.25-0.3975 5.25-3.2575zm7.5 4.4552v-11h7c5.6667 0 7.381 0.38095 9 2 2.6697 2.6697 2.524 5.6846-0.40075 8.2897l-2.4008 2.1384 2.9008 4.2161c3.298 4.7935 3.4549 5.3558 1.4946 5.3558-0.77341 0-3.0227-2.25-4.9983-5-2.9396-4.0917-4.1374-5-6.5938-5-2.9353 0-3.0017 0.1105-3.0017 5 0 3.7778-0.36667 5-1.5 5-1.2424 0-1.5-1.8889-1.5-11zm14.091-3.1134c1.2235-1.9319 1.1333-2.5191-0.66271-4.3151-0.95545-0.95545-3.3074-1.5714-6-1.5714h-4.4286v8.2545l5.1066-0.49068c2.8086-0.26987 5.5017-1.1146 5.9847-1.8772zm11.269 12.653c-4.7176-3.3043-5.683-13.662-1.6495-17.695 4.6473-4.6473 13.064-3.903 16.324 1.4437 3.3567 5.5052 1.8194 14.114-2.979 16.682-2.8 1.4985-9.2816 1.2599-11.695-0.43053zm10.779-2.4515c1.9308-1.5635 2.3608-2.8544 2.3608-7.0884s-0.42995-5.5248-2.3608-7.0883c-5.3383-4.3227-12.139-0.35147-12.139 7.0883 0 7.4398 6.8009 11.411 12.139 7.0884zm9.8608-7.0884c0-10.797 0.0423-11 2.2894-11 2.0021 0 2.6674 1.1557 5.3016 9.2102l3.0122 9.2102 3.321-9.2102c2.5831-7.1637 3.7382-9.2102 5.1984-9.2102 1.7227 0 1.8774 0.90617 1.8774 11 0 8.9756-0.26861 11-1.4596 11-1.1379 0-1.5236-1.8169-1.75-8.2445l-0.29044-8.2445-2.8618 8.2445c-1.6147 4.6517-3.4304 8.2445-4.1667 8.2445-0.74483 0-2.5943-3.7554-4.3092-8.75l-3.0044-8.75-0.0789 8.75c-0.0639 7.076-0.36592 8.75-1.579 8.75-1.2424 0-1.5-1.8889-1.5-11zm-38-36.567c0-5.3034-0.10669-5.5359-2.25-4.9043-2.1143 0.62309-2.0867 0.50651 0.45636-1.9326 1.4885-1.4276 2.951-2.5957 3.25-2.5957 0.299 0 0.54364 3.375 0.54364 7.5 0 4.3333-0.42222 7.5-1 7.5-0.55 0-1-2.5053-1-5.5674zm13 3.5674c-1.2968-2.4232-0.30869-2.5893 2.1525-0.36199 1.4756 1.3354 2.0906 1.4051 3.3287 0.37756 2.1287-1.7666 1.8905-4.1056-0.48124-4.7258-2.3306-0.60947-2.6975-2.2898-0.5-2.2898 0.83333 0 1.5-0.88889 1.5-2 0-2.255-2.8671-2.7329-4.8-0.8-0.78182 0.78182-1.2 0.82449-1.2 0.12245 0-2.3985 2.9443-3.6689 5.6481-2.4369 2.147 0.97825 2.4926 1.6611 2.0246 4.0012-0.31038 1.5519-0.0609 3.325 0.55438 3.9403 0.82494 0.82495 0.81635 1.7823-0.0327 3.6458-1.4735 3.234-6.5702 3.5619-8.1943 0.52713zm21.71 0c-0.35342-1.3515-1.364-2-3.1166-2-1.4265 0-2.5936-0.2981-2.5936-0.66245 0-1.2858 6.2206-10.338 7.1042-10.338 0.49266 0 0.89575 2.25 0.89575 5s0.40766 5 0.90591 5c0.49826 0 0.38576 1.1215-0.25 2.4922-1.4003 3.019-2.2506 3.1656-2.9457 0.5078zm0.26751-6.25-0.0222-3.25-1.9556 2.5c-2.488 3.1807-2.488 4 0 4 1.5943 0 1.9955-0.65925 1.9778-3.25zm118.38 104.75c-0.31659-0.825-0.11496-1.5 0.44805-1.5s1.1936 0.50971 1.4012 1.1327c0.50697 1.5209 4.7891 0.12477 4.7891-1.5614 0-0.82833-0.86779-1.128-2.4116-0.83292-1.8092 0.34584-2.856-0.2172-4.1905-2.2539-1.6047-2.449-1.6333-2.9729-0.29258-5.3497 1.157-2.051 2.2517-2.6348 4.9405-2.6348h3.4542l0.30122 5.22c0.16567 2.871-0.18766 6.1335-0.78518 7.25-1.0829 2.0234-0.96345 2.03 36.903 2.03h37.989l0.29569-6.75 0.29569-6.75h3.4542c2.6889 0 3.7835 0.58378 4.9405 2.6348 1.3358 2.3679 1.3128 2.8996-0.22726 5.25-1.0845 1.6552-2.6228 2.6152-4.1905 2.6152-1.5566 0-2.477 0.56847-2.477 1.5299 0 1.3078 1.8507 1.4892 12.75 1.25 12.554-0.27557 12.746-0.31455 12.512-2.5299-0.13102-1.2375 0.25894-2.25 0.86658-2.25 0.63921 0 0.90339 1.0535 0.62688 2.5l-0.47791 2.5h20.738l-0.25752-62.75-0.25751-62.75-106.75-0.25452-106.75-0.25453v126.01h41.469c36.45 0 41.399-0.18153 40.893-1.5zm44.638-3.5c-1.2968-2.4232-0.30869-2.5893 2.1525-0.36199 1.4756 1.3354 2.0906 1.4051 3.3287 0.37756 2.1287-1.7666 1.8905-4.1056-0.48124-4.7258-2.3306-0.60947-2.6975-2.2898-0.5-2.2898 0.83333 0 1.5-0.88889 1.5-2 0-2.255-2.8671-2.7329-4.8-0.8-0.78182 0.78182-1.2 0.82449-1.2 0.12244 0-2.3985 2.9443-3.6689 5.6481-2.4369 2.147 0.97825 2.4926 1.6611 2.0246 4.0012-0.31038 1.5519-0.0609 3.325 0.55438 3.9403 0.82494 0.82494 0.81635 1.7823-0.0327 3.6458-1.4735 3.234-6.5702 3.5619-8.1943 0.52713zm10.915 0.36383c-1.2735-1.5647-1.2151-1.6586 0.58517-0.93997 3.0431 1.2147 4.7426 1.195 5.1878-0.0602 0.22169-0.62499-1.0002-1.6255-2.7154-2.2234-2.4394-0.85036-3.0481-1.5829-2.7954-3.3637 0.39555-2.7876 4.8457-3.659 6.7806-1.3277 1.1284 1.3596 0.90299 1.4733-1.8356 0.92556-4.0785-0.8157-4.1156 1.0836-0.0489 2.5012 2.3959 0.8352 3.0018 1.5729 2.75 3.3478-0.42122 2.9686-5.7901 3.7428-7.9082 1.1404zm16.739 0.95629c-1.0579-1.0579-0.74691-10.32 0.34654-10.32 0.55 0 1 1.9984 1 4.441s0.46971 4.7313 1.0438 5.0861c1.9375 1.1974 3.9562-1.7155 3.9562-5.7085 0-2.3697 0.39802-3.6906 1-3.3185 0.55 0.33992 1 2.7677 1 5.3951v4.777l-3.8465 0.15073c-2.1156 0.0829-4.1406-0.14334-4.5-0.50274zm27.875-2.5701c0.37803-1.7875 1.5755-4.7125 2.661-6.5l1.9737-3.25h-3.5816c-1.9699 0-3.5816-0.45-3.5816-1 0-1.067 8.2516-1.415 9.2755-0.39117 0.33486 0.33486-0.48036 2.2547-1.8116 4.2664-1.3312 2.0116-2.7115 5.1127-3.0672 6.8912s-1.0762 3.2336-1.6012 3.2336c-0.55114 0-0.66402-1.3733-0.26712-3.25zm15.672 2.05c-1.5744-1.5744-1.5418-5.5183 0.05-6.054 0.99611-0.33526 0.99261-0.73266-0.0172-1.9566-2.6959-3.2673 1.7038-6.9641 5.7262-4.8113 1.4025 0.7506 2.0318 2.0881 2.0256 4.3054-5e-3 1.7691 0.0191 4.3011 0.0533 5.6266 0.0972 3.7594-5.0651 5.6628-7.8379 2.89zm5.6948-1.1732c1.666-2.0074 0.24564-4.7891-2.2619-4.4296-2.4555 0.35204-3.4542 3.6675-1.4813 4.9177 1.8536 1.1747 2.4251 1.1002 3.7432-0.48811zm0.10519-8.1581c0-0.84227-0.70525-1.802-1.5672-2.1328-1.8807-0.7217-3.9317 1.048-2.9866 2.577 1.0187 1.6483 4.5538 1.3034 4.5538-0.44425zm-199.02 8.0072c-1.7655-2.1273-0.43333-3.0721 1.5439-1.0949 2.0791 2.0791 3.1866 2.0454 4.3059-0.13095 1.1288-2.1947 0.44541-4.25-1.413-4.25-1.9142 0-1.7835-1.0085 0.33333-2.5724 1.4202-1.0493 1.5097-1.5365 0.47504-2.5852-1.0422-1.0564-1.6533-1.056-3.3474 2e-3 -2.6383 1.6476-3.4721 0.89299-1.3538-1.2253 3.2632-3.2632 6.6798-1.3277 7.137 4.0432 0.5682 6.6752 0.4705 7.6381-0.86068 8.4824-2.0751 1.3162-5.4471 0.98553-6.8202-0.66888zm10.02 1.082c0-1.8998 4.1804-14.711 4.6478-14.243 0.63564 0.63563-2.645 12.851-3.7965 14.136-0.46822 0.5225-0.85131 0.57102-0.85131 0.10781zm11.71-1.5578c-0.35342-1.3515-1.364-2-3.1166-2-1.4265 0-2.5936-0.2981-2.5936-0.66245 0-1.2858 6.2206-10.338 7.1042-10.338 0.49266 0 0.89575 2.25 0.89575 5s0.40766 5 0.90591 5c0.49826 0 0.38576 1.1215-0.25 2.4922-1.4003 3.019-2.2506 3.1656-2.9457 0.5078zm0.26751-6.25-0.0222-3.25-1.9556 2.5c-2.488 3.1807-2.488 4 0 4 1.5943 0 1.9955-0.65925 1.9778-3.25zm12.335 5.6042c-1.5238-2.3256-1.5436-2.8488-0.19744-5.2194 1.0493-1.8479 2.3008-2.623 4.1905-2.5954 2.1722 0.0318 2.6944-0.41574 2.6944-2.309 0-1.311 0.44176-2.0754 1-1.7304 0.55 0.33992 1 3.6686 1 7.397v6.779l-3.497 0.13147c-2.7385 0.10294-3.8643-0.42916-5.1905-2.4532zm5.6418 0.20084c1.874-2.258 0.89204-6.0058-1.669-6.37-1.6733-0.23793-2.3728 0.31527-2.8617 2.263-0.37841 1.5077-0.13468 3.1952 0.5871 4.0649 1.5463 1.8632 2.4244 1.8726 3.9435 0.042zm5.0457-4.5959c0-3.7626 0.45-7.1192 1-7.4591 0.56146-0.347 1 0.44339 1 1.8023 0 2.0188 0.40007 2.3439 2.4116 1.9593 1.8092-0.34584 2.856 0.2172 4.1905 2.2539 1.6011 2.4436 1.6313 2.9782 0.30202 5.3497-1.148 2.0481-2.3038 2.6682-5.1905 2.7849l-3.7136 0.1501zm7.0202 4.0031c1.5898-2.9707 0.2926-6.1479-2.3561-5.7705-2.5119 0.35785-3.4715 4.1306-1.6184 6.3633 1.6363 1.9716 2.6859 1.8151 3.9745-0.59281zm3.9798-4.4622c0-4.3333 0.42222-7.5 1-7.5s1 3.1667 1 7.5-0.42222 7.5-1 7.5-1-3.1667-1-7.5zm10.782 2.25c-0.58677-7.488 0.44742-9.8405 4.2002-9.5546 1.66 0.12649 3.0182 0.6324 3.0182 1.1243 0 0.49185-0.60331 0.66277-1.3407 0.37981-0.73738-0.28296-1.9749-0.1061-2.75 0.39301-1.2019 0.77391-1.1885 1.0659 0.0907 1.9836 1.1295 0.8103 1.1912 1.2014 0.25 1.5833-0.73476 0.29814-1.25 2.3277-1.25 4.9239 0 6.1783-1.7196 5.5324-2.2184-0.83333zm5.2184 0.30902c0-2.7175 0.45-5.2191 1-5.559 0.62086-0.38371 1 1.4896 1 4.941 0 3.0575-0.45 5.559-1 5.559s-1-2.2234-1-4.941zm23.2 3.741c-1.5744-1.5744-1.5418-5.5183 0.05-6.054 0.99611-0.33526 0.99261-0.73266-0.0172-1.9566-2.6959-3.2673 1.7038-6.9641 5.7262-4.8113 1.4025 0.7506 2.0318 2.0881 2.0256 4.3054-5e-3 1.7691 0.0191 4.3011 0.0533 5.6266 0.0972 3.7594-5.0651 5.6628-7.8379 2.89zm5.6948-1.1732c1.666-2.0074 0.24564-4.7891-2.2619-4.4296-2.4555 0.35204-3.4542 3.6675-1.4813 4.9177 1.8536 1.1747 2.4251 1.1002 3.7432-0.48811zm0.10519-8.1581c0-0.84227-0.70525-1.802-1.5672-2.1328-1.8807-0.7217-3.9317 1.048-2.9866 2.577 1.0187 1.6483 4.5538 1.3034 4.5538-0.44425zm-25-2.9206c0-0.24858 2.0566-1.867 4.5703-3.5964 5.2033-3.58 5.3018-4.3649 0.36349-2.8962-14.111 4.1968-21.827 2.8719-36.565-6.2779-3.5863-2.2265-6.7857-3.5549-7.7088-3.2007-2.5726 0.98719-8.4081-1.4882-11.128-4.7203-4.6794-5.5611-2.8055-16.113 3.4345-19.34 13.311-6.8832 24.856 9.6475 14.397 20.613l-2.5088 2.6303 3.0087 2.1424c5.7249 4.0765 16.469 8.46 21.824 8.9041 3.3097 0.27447 8.0252-0.26492 12.533-1.4336l7.2265-1.8736-6.4735-1.1279-6.4735-1.1279 5-0.0345c2.75-0.019 7.2228 0.2636 9.9396 0.62792l4.9396 0.66239-7.6031 5.25c-7.2194 4.9851-8.7762 5.8362-8.7762 4.7981zm-33.4-20.948c4.0274-4.0274 4.5608-9.184 1.4737-14.247-5.8091-9.5268-20.059-4.559-20.07 6.9969-3e-3 3.0479 0.70465 4.5584 3.3963 7.25 2.7873 2.7873 4.1569 3.4 7.6 3.4s4.8127-0.6127 7.6-3.4zm-8.6-5.0686c0-4.4501-0.27936-5.3614-1.5-4.893-2.3484 0.90119-1.6986-0.9481 1.0314-2.935l2.4686-1.7967v7.5467c0 4.3644-0.42167 7.5467-1 7.5467-0.55 0-1-2.4609-1-5.4686zm-29 5.9463c0-0.28729 1.8508-2.5303 4.113-4.9844 2.5307-2.7455 3.8892-5.0451 3.5314-5.9777-0.78345-2.0416-3.6023-1.9175-5.3241 0.2344-1.3211 1.6511-1.3838 1.6431-1.1102-0.14282 0.45382-2.9623 3.1848-4.2039 6.2123-2.8245 3.6278 1.653 3.2715 4.8268-0.99354 8.8493l-3.5712 3.3681h3.5712c1.9642 0 3.5712 0.45 3.5712 1s-2.25 1-5 1-5-0.23505-5-0.52234zm55-3.4777c-1.2968-2.4232-0.30869-2.5893 2.1525-0.36199 1.4756 1.3354 2.0906 1.4051 3.3287 0.37756 2.1287-1.7666 1.8905-4.1056-0.48124-4.7258-2.3306-0.60947-2.6975-2.2898-0.5-2.2898 0.83333 0 1.5-0.88889 1.5-2 0-2.255-2.8671-2.7329-4.8-0.8-0.78182 0.78182-1.2 0.82449-1.2 0.12244 0-2.3985 2.9443-3.6689 5.6481-2.4369 2.147 0.97825 2.4926 1.6611 2.0246 4.0012-0.31038 1.5519-0.0609 3.325 0.55438 3.9403 0.82494 0.82494 0.81635 1.7823-0.0327 3.6458-1.4735 3.234-6.5702 3.5619-8.1943 0.52713zm36.405 0.0262c-1.1523-0.46589-3.4671-2.5749-5.1441-4.6866s-8.1833-7.3417-14.459-11.622l-11.41-7.7826-7.8282 3.5674c-4.3055 1.9621-8.0253 3.3704-8.2662 3.1295s0.51527-2.3063 1.6803-4.59l2.1182-4.152-4.6473-6.5127c-2.556-3.582-4.4195-6.7405-4.141-7.0189 0.76006-0.76011 16.691 3.7293 16.691 4.7035 0 0.46344-2.1375 0.19401-4.75-0.59873-6.3356-1.9225-6.9913-1.834-3.9771 0.53701 1.3984 1.1 2.8862 2 3.3061 2s1.578 0.7371 2.5735 1.638c1.4497 1.3119 2.1036 1.3943 3.2849 0.41391 2.0131-1.6708 4.0709-0.36933 2.4686 1.5613-0.65508 0.78932-1.0144 1.6004-0.79856 1.8025 0.21587 0.20204 6.0175 4.2482 12.892 8.9916l12.5 8.6242 1.2296-4.1644c2.3149-7.8404 8.3253-11.737 15.234-9.8768 4.5572 1.2271 8.9879 5.9918 9.1471 9.8365 0.317 7.6558-0.81347 10.411-5.4245 13.223-3.3066 2.0162-8.6574 2.4416-12.281 0.97639zm10.628-1.5431c10.093-5.2192 6.195-21.483-5.1485-21.483-5.5432 0-10.884 5.0714-10.884 10.335 0 5.2432 1.5602 8.4264 5.2251 10.661 3.9232 2.392 6.8676 2.5248 10.808 0.48727zm-1.3225-5.4831c-0.35342-1.3515-1.364-2-3.1166-2-1.4265 0-2.5936-0.2981-2.5936-0.66245 0-1.2858 6.2206-10.338 7.1042-10.338 0.49266 0 0.89575 2.25 0.89575 5s0.40766 5 0.90591 5c0.49826 0 0.38576 1.1215-0.25 2.4922-1.4003 3.019-2.2506 3.1656-2.9457 0.5078zm0.26751-6.25-0.0222-3.25-1.9556 2.5c-2.488 3.1807-2.488 4 0 4 1.5943 0 1.9955-0.65925 1.9778-3.25zm-45.007-11.711c0.80907-0.51167 1.1359-1.2655 0.72619-1.6752-0.40967-0.40967-1.5056 0.0159-2.4353 0.94562-1.8074 1.8074-0.72543 2.2692 1.7091 0.72954zm-2.3803-3.7817c-0.6935-0.69349-2.5907 0.71555-2.5907 1.9241 0 0.6631 0.57378 0.58723 1.5242-0.20152 0.83829-0.69572 1.3182-1.4709 1.0665-1.7226zm-3.606-2.2918c8e-3 -0.29391-1.3894-1.3642-3.1062-2.3783-2.0917-1.2356-2.834-1.3865-2.25-0.45729 3.245 5.1631 3.8293 5.7484 4.5718 4.5801 0.42298-0.66557 0.77595-1.4506 0.78437-1.7445zm132.02 10.034v-9h5.0657c2.7862 0 5.9362 0.46584 7 1.0352 2.7258 1.4588 2.5988 6.5388-0.20084 8.0371-1.1743 0.62847-1.7151 1.4318-1.2018 1.7852 0.5133 0.35338 1.9547 2.105 3.2032 3.8925 1.7787 2.5467 1.9453 3.25 0.76992 3.25-0.825 0-2.5215-1.4625-3.7699-3.25-2.7054-3.8736-3.7916-4.7144-6.1163-4.7347-1.3776-0.0121-1.75 0.836-1.75 3.9847 0 2.8889-0.41667 4-1.5 4-1.2222 0-1.5-1.6667-1.5-9zm11.643-2.5127c0.91121-2.3746-1.568-4.4873-5.2657-4.4873-3.0862 0-3.3776 0.25881-3.3776 3 0 2.8372 0.21874 3 4.0314 3 2.676 0 4.2266-0.50858 4.6119-1.5127zm-73.611 1.2229c-0.0378-3.2313 2.9036-9.4406 5.6475-11.922 4.9905-4.513 15.201-6.1334 21.602-3.4281 4.6646 1.9715 8.5698 6.3339 9.3386 10.432l0.66934 3.5679 1.7652-2.18c3.5795-4.4205 3.296-1.631-0.32699 3.2182-1.3862 1.8554-1.4893 1.8562-4.5733 0.0344-1.7353-1.0251-3.1551-2.2685-3.1551-2.7632s1.1694-0.13316 2.5987 0.80335l2.5987 1.7028-0.7142-3.3377c-2.0409-9.5381-14.044-14.521-23.983-9.957-5.2348 2.4038-7.4129 4.9774-9.6202 11.367-1.4232 4.1197-1.8215 4.6507-1.8471 2.4625zm18.135-3.0276c-0.16011-5.541-0.27501-5.7845-2.4181-5.1258-2.2214 0.68282-2.2183 0.65713 0.25-2.0244l2.5-2.716 0.30879 4.1182c0.16983 2.265 0.13298 5.7938-0.0819 7.8417-0.28257 2.6931-0.4372 2.1137-0.55879-2.0938zm25.02 0.79154c1.8217-2.4892 3.7266-5.1366 4.2332-5.883 0.64544-0.95101-0.203-2.8884-2.8352-6.4742-3.1211-4.2518-3.4459-5.1134-1.9211-5.0957 1.0093 0.0117 3.1196 1.8365 4.6896 4.055l2.8544 4.0337 2.9821-4.055c1.6402-2.2303 3.6447-4.055 4.4546-4.055 1.6952 0 1.291 0.86479-2.957 6.3254l-2.9759 3.8254 4.1782 5.9246c3.4624 4.9096 3.8626 5.9246 2.3362 5.9246-1.0535 0-3.2356-1.9771-5.0977-4.6189l-3.2557-4.6189-3.1868 4.609c-1.7933 2.5936-3.9792 4.6133-4.9989 4.6189-1.5265 8e-3 -1.29-0.70357 1.5-4.5159zm-86.188-7.9742c0-4.3333 0.42222-7.5 1-7.5 0.5641 0 1 2.8333 1 6.5v6.5h3.5c1.925 0 3.5 0.45 3.5 1s-2.025 1-4.5 1h-4.5zm-13-5.3776c0-1.4757 2.8447-3.3364 4.0048-2.6195 0.78044 0.48233 0.75798 1.078-0.0786 2.0861-1.2927 1.5575-3.9262 1.9153-3.9262 0.53341zm20.532-5.0702c-0.84677-1.3701-0.94812-20.57-0.11568-21.917 0.45711-0.73963 4.6867-1.135 12.142-1.135h11.441v24h-11.441c-6.2925 0-11.705-0.42651-12.027-0.9478zm22.468-11.052v-10h-20.835l-0.0808 10-0.0808 10h20.996zm-6.2898 5c-0.35342-1.3515-1.364-2-3.1166-2-1.4265 0-2.5936-0.2981-2.5936-0.66245 0-1.2858 6.2206-10.338 7.1042-10.338 0.49266 0 0.89575 2.25 0.89575 5s0.40766 5 0.90591 5c0.49826 0 0.38576 1.1215-0.25 2.4922-1.4003 3.019-2.2506 3.1656-2.9457 0.5078zm0.26751-6.25-0.0222-3.25-1.9556 2.5c-2.488 3.1807-2.488 4 0 4 1.5943 0 1.9955-0.65926 1.9778-3.25zm-81.978-0.25c0-10.955 0.0978-11.5 2.0657-11.5 1.1362 0 2.9088-0.45122 3.9393-1.0027 1.2524-0.67028 2.079-0.67028 2.4933 0 0.34084 0.55148 3.9682 1.0027 8.0607 1.0027h7.441v23h-24zm22-0.0609v-10.561l-10.25 0.31086-10.25 0.31086-0.29142 8.9209c-0.16029 4.9065-0.0619 9.519 0.21861 10.25 0.37733 0.98329 3.1202 1.3291 10.541 1.3291h10.031zm-12 0.0922c0-4.4502-0.27936-5.3614-1.5-4.893-2.3484 0.90118-1.6986-0.9481 1.0314-2.9351l2.4686-1.7966v7.5467c0 4.3644-0.42167 7.5467-1 7.5467-0.55 0-1-2.4609-1-5.4686zm44.675 8.8106c-0.90126-0.90125 1.2511-3.342 2.9471-3.342 1.6968 0 1.7731 1.2044 0.17756 2.8-1.3562 1.3562-2.1694 1.4972-3.1247 0.54201zm-16.425-2.0042c-1.268-0.51166-1.7847-3.3377-0.61024-3.3377 0.35186 0 1.1512 0.69949 1.7764 1.5544 1.4892 2.0365 4.5839 0.85166 4.5839-1.755 0-1.1852-0.8581-2.211-2.1271-2.5429l-2.1271-0.55624 2.2709-1.7129c1.2613-0.95141 1.9584-2.2185 1.568-2.8501-0.94391-1.5273-4.3067-1.4493-4.8646 0.11278-0.24554 0.6875-0.79716 0.92338-1.2258 0.52417-1.1159-1.0392 1.4244-3.7742 3.5056-3.7742 2.4227 0 4.3424 2.5826 3.7119 4.9937-0.28828 1.1024-0.11639 2.2563 0.38198 2.5643 1.3049 0.80646 1.1153 4.8328-0.29388 6.242-1.2133 1.2133-4.2566 1.4631-6.55 0.53772zm-61.25-1.8601c0-0.28729 1.8508-2.5303 4.113-4.9844 2.5307-2.7455 3.8892-5.0451 3.5314-5.9777-0.78345-2.0416-3.6023-1.9175-5.3241 0.2344-1.3211 1.6511-1.3838 1.6431-1.1102-0.14282 0.45382-2.9623 3.1848-4.2039 6.2123-2.8245 3.6278 1.653 3.2715 4.8268-0.99354 8.8493l-3.5712 3.3681h3.5712c1.9642 0 3.5712 0.45 3.5712 1s-2.25 1-5 1-5-0.23505-5-0.52234zm180-4.9463c0-4.4501-0.27936-5.3614-1.5-4.893-2.3484 0.90119-1.6986-0.9481 1.0314-2.935l2.4686-1.7967v7.5467c0 4.3644-0.42167 7.5467-1 7.5467-0.55 0-1-2.4609-1-5.4686zm-42.276 0.52277c-0.39586-1.5138-1.351-2.0542-3.6308-2.0542-1.7015 0-3.0936-0.22396-3.0936-0.49769 0-0.27372 1.6875-2.853 3.75-5.7318l3.75-5.2342 0.31875 4.4622c0.17532 2.4542 0.66451 4.921 1.0871 5.4818s0.22551 2.0565-0.43796 3.3238c-1.177 2.2481-1.2194 2.2542-1.7435 0.25zm0.27559-6.0542c0-1.65-0.19436-3-0.43191-3-0.23754 0-1.3932 1.35-2.5681 3l-2.1362 3h2.5681c2.1868 0 2.5681-0.44545 2.5681-3zm-20-8.0657c0-0.58616 0.46583-1.9362 1.0352-3 0.95524-1.7849 2.2346-1.9343 16.566-1.9343 8.6076 0 16.377-0.45304 17.43-1.0163 1.0444-0.55897 2.4361-2.809 3.0925-5 1.3878-4.6319 2.877-5.2313 2.877-1.158 0 1.6607 0.95422 3.7221 2.3144 5 2.1706 2.0392 3.2769 2.1743 17.8 2.1743 16.223 0 17.951 0.43148 17.818 4.45-0.0646 1.9555-0.11772 1.9462-1.1528-0.2-1.0534-2.1841-1.5216-2.25-15.982-2.25-15.441 0-19.789-0.92984-21.169-4.5268-0.50854-1.3252-1.0305-1.1164-3.0323 1.213l-2.418 2.8138-16.201 0.32035c-15.018 0.29697-16.238 0.46122-16.706 2.25-0.53068 2.0293-2.2714 2.6914-2.2714 0.86391zm-54-3.9343c0-0.55 1.125-1 2.5-1 3.9613 0 2.9044-1.6797-1.5-2.384-2.6783-0.42827-4-1.1536-4-2.1952 0-1.0129 0.61051-1.3742 1.75-1.0357 0.9625 0.28594 3.1 0.79762 4.75 1.1371l3 0.61718-2.3263-2.0418c-1.2795-1.123-2.0466-2.4943-1.7047-3.0474 0.35496-0.57434 3.8513 1.2366 8.1516 4.2221l7.53 5.2278-4.3253 0.67588c-6.6091 1.0327-13.825 0.94094-13.825-0.17588zm-21.41-1.8538c-0.29021-0.46958 0.56716-1.3526 1.9053-1.9623 2.962-1.3496 4.4164 0.25755 1.5981 1.7659-2.3771 1.2722-2.8231 1.2972-3.5034 0.1964zm123.4 110.37c0.72178-0.86969 0.96551-2.5572 0.5871-4.0649-0.48884-1.9477-1.1884-2.5009-2.8617-2.263-2.561 0.36417-3.543 4.112-1.669 6.37 1.5192 1.8305 2.3972 1.8211 3.9435-0.042zm-83.489-4.013c0-2.296-0.49811-3.0711-2.1227-3.3029-2.4082-0.34361-3.7524 2.0456-2.8141 5.002 0.40153 1.2651 1.3448 1.8125 2.7727 1.6091 1.6694-0.23782 2.1641-0.99411 2.1641-3.3083zm125.5-134.5v-17h-703v34h703zm-325.79 7.75 0.29381-7.25h3.4542c2.6889 0 3.7835 0.58379 4.9405 2.6348 1.3358 2.3679 1.3128 2.8996-0.22726 5.25-1.0845 1.6552-2.6228 2.6152-4.1905 2.6152-1.8103 0-2.477 0.5383-2.477 2 0 1.1-0.46971 2-1.0438 2-0.65611 0-0.93468-2.6928-0.75-7.25zm6.783 0.76299c0.72178-0.86969 0.96551-2.5572 0.5871-4.0649-0.48884-1.9477-1.1884-2.5009-2.8617-2.263-2.561 0.36417-3.543 4.112-1.669 6.37 1.5192 1.8305 2.3972 1.8211 3.9435-0.0421zm-378.19 3.287c1.5664-1.5664 1.5664-13.034 0-14.6-0.93333-0.93333-0.43333-1.1825 2.25-1.121 1.8975 0.0434 2.8875 0.30592 2.2 0.58333-0.8423 0.33988-1.25 2.9234-1.25 7.921v7.4167h3.3c1.815 0 3.84-0.54 4.5-1.2 0.93333-0.93333 1.2-0.82222 1.2 0.5 0 1.4308-1.0608 1.7-6.7 1.7-5.2111 0-6.4333-0.26667-5.5-1.2zm17.225-0.77456c-2.7325-2.7325-3.4821-6.5087-2.0016-10.083 2.318-5.5961 9.2168-6.7926 13.643-2.3664 2.1984 2.1984 2.4941 3.1864 2.0175 6.7398-0.34518 2.5735-1.3887 4.836-2.7323 5.924-2.9313 2.3736-8.447 2.2654-10.927-0.21434zm9.9394-0.9597c0.56935-1.0638 1.0352-3.5684 1.0352-5.5657 0-5.2046-1.5237-7.5-4.9785-7.5-5.2936 0-7.9966 7.7352-4.4648 12.777 1.9982 2.8529 6.9448 3.0225 8.4081 0.28825zm6.7852 2.272c0.82968-0.33478 1.25-2.8134 1.25-7.3714 0-5.485-0.35218-7.0721-1.75-7.8863-1.5254-0.88849-1.4292-1.0221 0.75-1.0415 1.8784-0.0167 3.7433 1.5299 7.5 6.2196l5 6.2418 0.30765-5.4054c0.20758-3.6472-0.11767-5.6751-1-6.2347-0.94558-0.59971-0.75389-0.83422 0.69235-0.84698 1.874-0.0165 1.9791 0.53393 1.6689 8.7347l-0.33109 8.7523-2.6689-3.0203c-1.4679-1.6612-4.1163-4.8112-5.8854-7l-3.2165-3.9797-0.03353 6.1667c-0.02188 4.0248 0.40064 6.3419 1.2165 6.671 0.6875 0.27741-0.1 0.50439-1.75 0.50439s-2.4375-0.22698-1.75-0.50439zm20.466-1.6074c-3.1104-3.3108-2.9992-9.0383 0.23818-12.276 1.35-1.35 3.2625-2.426 4.25-2.3912 1.4786 0.0522 1.4139 0.21724-0.3666 0.93524-3.837 1.5473-4.8844 9.6351-1.7031 13.15 1.1764 1.2999 2.778 1.8487 4.814 1.6495 2.8299-0.27688 3.0428-0.57034 2.937-4.0485-0.08795-2.8916 0.27079-3.75 1.5672-3.75 1.4003 0 1.5865 0.7103 1.1141 4.25l-0.56723 4.25-5.0336 0.29476c-4.2167 0.24691-5.3934-0.0881-7.25-2.0645zm22.994 0.91626c0.74439-0.74439 2.6481-4.5694 4.2304-8.5s3.1429-7.141 3.468-7.1342c0.32506 7e-3 1.8841 3.2693 3.4645 7.25 1.5804 3.9807 3.5789 7.8002 4.4411 8.4877 1.3359 1.0652 1.0871 1.25-1.6825 1.25-1.8664 0-2.9924-0.41695-2.6449-0.97933 0.33289-0.53864 0.11862-1.8886-0.47617-3-1.5627-2.92-6.7957-2.7684-7.9174 0.22933-0.54001 1.4432-0.43881 2.5134 0.28222 2.9847 0.62132 0.40607-0.13786 0.74153-1.6973 0.75-2.3721 0.0129-2.6059-0.20021-1.468-1.3381zm8.4683-8.6864c-1.0418-2.7602-1.2639-2.8806-2.4131-1.3089-1.9517 2.6691-1.5085 4.3487 1.1474 4.3487 2.2733 0 2.3466-0.1762 1.2657-3.0398zm10.071 9.3776c0.82968-0.33478 1.25-2.8134 1.25-7.3714 0-5.485-0.35218-7.0721-1.75-7.8863-1.5254-0.88849-1.4292-1.0221 0.75-1.0415 1.8784-0.0167 3.7433 1.5299 7.5 6.2196l5 6.2418 0.30765-5.4054c0.20758-3.6472-0.11767-5.6751-1-6.2347-0.94559-0.59971-0.75389-0.83422 0.69235-0.84698 1.874-0.0165 1.9791 0.53393 1.6689 8.7347l-0.33108 8.7523-2.6689-3.0203c-1.4679-1.6612-4.1163-4.8112-5.8854-7l-3.2165-3.9797-0.0335 6.1667c-0.0219 4.0248 0.40064 6.3419 1.2165 6.671 0.6875 0.27741-0.1 0.50439-1.75 0.50439s-2.4375-0.22698-1.75-0.50439zm19.05-0.53772c0.67104-0.67104 1.2-3.8889 1.2-7.3s-0.52896-6.629-1.2-7.3c-0.93333-0.93333 0.0768-1.2 4.5454-1.2 7.1535 0 10.655 2.7931 10.655 8.5s-3.5011 8.5-10.655 8.5c-4.4687 0-5.4788-0.26667-4.5454-1.2zm9.9775-1.3567c1.7223-1.2064 2.2225-2.5439 2.2225-5.9433 0-4.8158-2.4059-7.5-6.7225-7.5-2.1675 0-2.2775 0.36206-2.2775 7.5s0.10995 7.5 2.2775 7.5c1.2526 0 3.2776-0.70052 4.5-1.5567zm14.223 0.40171c0-2.0608 0.0839-2.0791 1.9175-0.41964 2.3372 2.1151 6.4394 1.7184 6.8939-0.66681 0.21617-1.1342-0.92246-2.4815-3.2656-3.864-4.532-2.6739-5.9872-5.2012-4.5458-7.8945 1.4337-2.6788 9-2.931 9-0.3 0 1.3222-0.26667 1.4333-1.2 0.5-1.532-1.532-5.4631-1.5542-6.4012-0.0362-0.4215 0.68201 0.48551 2.1079 2.191 3.4444 5.0111 3.9269 7.4102 6.2854 7.4102 7.2846 0 2.2911-3.3478 4.1072-7.5714 4.1072-3.8681-1e-5 -4.4286-0.27275-4.4286-2.155zm14.75 1.4927c0.84051-0.33915 1.25-2.9067 1.25-7.8377s-0.40949-7.4986-1.25-7.8377c-0.6875-0.27741 0.325-0.50438 2.25-0.50438s2.9375 0.22697 2.25 0.50438-1.25 2.0419-1.25 3.921c0 3.334 0.0993 3.4167 4.105 3.4167h4.105l-0.38146-4c-0.33151-3.4762-0.11611-4 1.645-4 1.8763 0 2.0264 0.62972 2.0264 8.5s-0.15013 8.5-2.0264 8.5c-1.7611 0-1.9765-0.52378-1.645-4l0.38146-4h-4.105c-4.0057 0-4.105 0.0827-4.105 3.4167 0 1.8792 0.5625 3.6436 1.25 3.921s-0.325 0.50439-2.25 0.50439-2.9375-0.22698-2.25-0.50439zm20.424-1.6522c-3.0502-3.2468-2.9792-9.5807 0.14014-12.511 3.3756-3.1712 8.9294-2.951 11.613 0.46055 4.5832 5.8267 1.1205 14.365-5.8257 14.365-2.6301 0-4.4037-0.69252-5.9274-2.3144zm9.6257 0.11445c1.472-1.472 1.5797-9.2221 0.16482-11.866-1.2671-2.3676-6.1669-2.6007-8.009-0.38098-0.70901 0.85431-1.2891 3.5303-1.2891 5.9467s0.5801 5.0924 1.2891 5.9467c1.5292 1.8426 6.1469 2.0506 7.8442 0.35328zm7.7-6.3v-8.5h3.8157c7.2002 0 9.9743 3.7886 5.694 7.7763-1.9778 1.8426-1.969 1.8773 1.3849 5.539 2.7421 2.9937 3.0338 3.6848 1.5551 3.6848-1.001 0-3.0867-1.7904-4.6349-3.9786-1.5482-2.1882-3.1996-3.9882-3.6699-4-0.47026-0.0117-0.68337 1.7786-0.47357 3.9786 0.33151 3.4762 0.11611 4-1.645 4-1.8763 0-2.0264-0.62972-2.0264-8.5zm8-4c0-2.3498-0.48768-3.0693-2.25-3.3196-1.9797-0.28116-2.25 0.11765-2.25 3.3196s0.27032 3.6007 2.25 3.3196c1.7623-0.25029 2.25-0.96979 2.25-3.3196zm12.25 11.838c0.8423-0.33988 1.25-2.9234 1.25-7.921 0-6.4753-0.22846-7.4167-1.8-7.4167-0.99 0-2.34 0.54-3 1.2-0.93333 0.93333-1.2 0.82222-1.2-0.5 0-1.4381 1.0784-1.7 7-1.7 3.85 0 7 0.37206 7 0.82681 0 0.45474-1.35 0.62867-3 0.3865l-3-0.44031v6.9135c0 4.0438 0.4981 7.4116 1.2 8.1135 0.93333 0.93333 0.43333 1.1825-2.25 1.121-1.8975-0.0434-2.8875-0.30592-2.2-0.58333zm20.424-1.6522c-3.0502-3.2468-2.9792-9.5807 0.14014-12.511 3.3756-3.1712 8.9294-2.951 11.613 0.46055 4.5832 5.8267 1.1205 14.365-5.8257 14.365-2.6301 0-4.4037-0.69252-5.9274-2.3144zm9.6257 0.11445c1.472-1.472 1.5797-9.2221 0.16482-11.866-1.2671-2.3676-6.1669-2.6007-8.009-0.38098-0.70901 0.85431-1.2891 3.5303-1.2891 5.9467s0.5801 5.0924 1.2891 5.9467c1.5292 1.8426 6.1469 2.0506 7.8442 0.35328zm7.7-6.3424v-8.5424l5.421 0.29245c3.7637 0.20303 5.5598 0.75102 5.875 1.7924 0.3664 1.2106 0.19833 1.2588-0.871 0.25-0.72875-0.6875-2.585-1.25-4.125-1.25-2.5494 0-2.8 0.32301-2.8 3.6084 0 3.3496 0.17929 3.5634 2.5 2.981 1.4416-0.36183 2.5-0.19606 2.5 0.39159 0 0.56048-1.1723 1.019-2.605 1.019-2.4361 0-2.5803 0.25937-2.2236 4 0.33151 3.4762 0.11611 4-1.645 4-1.8771 0-2.0264-0.62953-2.0264-8.5424zm20.334 7.6663c0.97312-0.61686 1.2436-2.9122 1-8.487-0.30963-7.0867-0.18867-7.6413 1.6661-7.6392 1.843 2e-3 2 0.66977 2 8.5023v8.5l-3-0.0153c-2.0235-0.0103-2.5658-0.29053-1.6661-0.86085zm12.996-7.2534 0.33029-8.1343-2.5803 0.49325c-1.4192 0.27129-2.5803 0.10566-2.5803-0.36807s3.15-0.86133 7-0.86133c5.9216 0 7 0.26191 7 1.7 0 1.3222-0.26667 1.4333-1.2 0.5-0.66-0.66-2.0443-1.2-3.0762-1.2-1.7057 0-1.8465 0.72686-1.55 8.0024 0.30341 7.4444 0.1867 8.0024-1.6738 8.0024-1.8632 0-1.9774-0.55657-1.6697-8.1343zm193 7.2534c0.97312-0.61686 1.2436-2.9122 1-8.487l-0.33387-7.6415 4.6786 2e-3c6.3135 3e-3 9.8532 3.5706 6.6857 6.738-0.84762 0.84762-0.72079 1.5506 0.5 2.7714 4.0117 4.0117 0.30753 7.4989-7.943 7.4775-3.6168-9e-3 -5.4021-0.34438-4.5874-0.86085zm10.236-1.7077c1.8891-2.2762-0.0351-4.8429-3.9204-5.2295-3.0016-0.29868-3.1492-0.14646-3.1492 3.25 0 3.2589 0.24584 3.5634 2.8776 3.5634 1.5826 0 3.4691-0.71272 4.192-1.5838zm-1.2321-7.2946c0.73562-0.46628 1.1856-1.9219 1-3.2347-0.2651-1.8749-1.0346-2.4541-3.5875-2.7003-2.9908-0.28837-3.25-0.0823-3.25 2.5833 0 1.5932 0.3 3.1967 0.66667 3.5634 0.91787 0.91787 3.5594 0.80971 5.1708-0.21173zm8.1625 8.8784c0-0.55 0.70156-1 1.559-1s1.2809 0.45 0.94098 1-1.0415 1-1.559 1-0.94098-0.45-0.94098-1zm6.5-7.5c0-7.8703 0.15013-8.5 2.0264-8.5 1.7666 0 1.9767 0.52139 1.6386 4.067l-0.38785 4.067 3.8614-0.31701c3.1557-0.25907 3.9212-0.73828 4.1882-2.622 0.17972-1.2678-0.21288-2.9553-0.87244-3.75-0.9883-1.1908-0.78197-1.4454 1.1732-1.4473 2.3189-2e-3 2.3649 0.17011 2.0386 7.6392-0.24357 5.5748 0.0269 7.8702 1 8.487 0.87731 0.55612 0.15298 0.85078-2.1161 0.86085-2.6833 0.0119-3.1833-0.25136-2.25-1.1847 0.66-0.66 1.2-2.46 1.2-4 0-2.6119-0.27571-2.8-4.105-2.8h-4.105l0.38146 4c0.33151 3.4762 0.11611 4-1.645 4-1.8763 0-2.0264-0.62972-2.0264-8.5zm18.566 6.6242c-1.6089-3.0062-1.2838-6.6175 0.7623-8.4692 2.2967-2.0785 4.5761-2.1073 6.5998-0.0836 2.508 2.508 1.856 3.4286-2.4286 3.4286-2.7309 0-4 0.43707-4 1.3776 0 2.1132 2.7512 3.9208 5.0518 3.3192 1.3116-0.343 1.9226-0.11294 1.6783 0.63198-0.21126 0.64422-1.7821 1.3101-3.4907 1.4797-2.2813 0.22648-3.3898-0.22093-4.173-1.6842zm5.6836-7.3742c-0.22917-0.6875-1.2417-1.25-2.25-1.25s-2.0208 0.5625-2.25 1.25c-0.26389 0.79167 0.56111 1.25 2.25 1.25s2.5139-0.45833 2.25-1.25zm6.0965 4.2506c0.25543-3.6862-7e-3 -5.0086-1-5.031-0.82684-0.0187-0.62516-0.4495 0.52257-1.1163 1.3843-0.80429 2.0651-0.76871 2.625 0.13717 0.53918 0.8724 0.95205 0.90576 1.4399 0.11633 0.96116-1.5552 2.566-1.3787 2.566 0.28213 0 0.76389-0.7875 1.3264-1.75 1.25-1.4406-0.11434-1.75 0.70113-1.75 4.6127 0 3.5574-0.37698 4.7514-1.5 4.7506-1.1795-7.8e-4 -1.426-1.0696-1.1535-5.0016zm8.8202 4.3327c-0.36667-0.36666-0.66667-3.9667-0.66667-8 0-5.1918-0.36503-7.3378-1.25-7.3486-0.83333-0.0102-0.75-0.33844 0.25-0.98469 2.5248-1.6317 3-1.1551 3 3.0085 0 3.7197 0.14005 3.921 1.9441 2.7944 4.444-2.7753 8.277 5.8771 4.2272 9.5422-1.832 1.658-6.2528 2.2402-7.5046 0.98832zm6.9615-2.9881c0.8045-3.2054-0.6575-5.8452-3.2372-5.8452-1.5098 0-1.953 0.85672-2.1985 4.25-0.28685 3.9646-0.13702 4.25 2.231 4.25 1.9132 0 2.7026-0.65395 3.2048-2.6548zm5.407 1.7205c-0.56935-1.0638-1.0352-2.8638-1.0352-4 0-2.4031 3.321-6.0657 5.5-6.0657 2.284 0 5.5 3.7101 5.5 6.345 0 4.9408-7.761 7.8386-9.9648 3.7207zm7.5012-1.3548c0.71963-2.8672-1.0466-7.711-2.8117-7.711-1.8984 0-3.7248 2.0916-3.7248 4.2657 0 5.1999 5.3838 8.0376 6.5364 3.4452zm6.2897-4.7086c0.25019-6.1387 0.0173-8.0059-1-8.0177-0.98542-0.0114-0.94076-0.26438 0.17385-0.98469 0.825-0.53316 1.8056-0.97626 2.179-0.98469 0.37347-8e-3 0.82347 4.0357 1 8.987 0.26662 7.478 0.067 9.0023-1.179 9.0024-1.2355 4e-5 -1.4425-1.4108-1.1738-8.0023zm6.3341 6.7579c-3.24-3.24 0.7403-11.543 4.9996-10.429 1.6952 0.4433 1.93 0.0788 1.6576-2.5734-0.18803-1.8304 0.19211-3.26 0.9326-3.5073 0.92601-0.30924 1.25 1.5269 1.25 7.0841 0 4.1258 0.25104 8.1558 0.55788 8.9554 0.43315 1.1288-0.42531 1.4735-3.8397 1.5421-2.4187 0.0486-4.9197-0.43386-5.5579-1.072zm6.6477-4.5281c0.33708-4.6526-1.5636-6.5098-4.3207-4.2216-2.8141 2.3355-0.93866 9.4108 2.3302 8.7911 1.2002-0.22751 1.7708-1.5376 1.9905-4.5695zm24.73 2.8102c-1.0227-1.13-1.5254-2.3887-1.1171-2.7969 0.40826-0.40826 1.3422 0.0781 2.0754 1.0808 0.87837 1.2012 2.3001 1.7123 4.1682 1.4984 3.9759-0.45526 3.6033-3.0764-0.63191-4.4452-6.4526-2.0856-6.684-7.5412-0.34689-8.1805 3.0216-0.30483 6.3415 2.1579 4.8196 3.5752-0.42868 0.39921-0.9803 0.16333-1.2258-0.52417-0.24553-0.6875-1.7919-1.25-3.4364-1.25-4.1547 0-3.4356 2.9554 1.0897 4.4782 1.8882 0.63537 3.9109 1.9127 4.4949 2.8385 2.8131 4.4597-6.1645 7.8418-9.8896 3.7257zm13.442 0.43345c-1.7655-2.1273-0.43333-3.0721 1.5439-1.0949 2.0791 2.0791 3.1866 2.0454 4.3059-0.13095 1.1288-2.1947 0.44541-4.25-1.413-4.25-1.9142 0-1.7835-1.0085 0.33333-2.5724 1.4202-1.0493 1.5097-1.5365 0.47504-2.5852-1.0422-1.0564-1.6533-1.056-3.3474 2e-3 -2.6383 1.6476-3.4721 0.89299-1.3538-1.2253 3.2632-3.2632 6.6798-1.3277 7.137 4.0432 0.5682 6.6752 0.4705 7.6381-0.86068 8.4824-2.0751 1.3162-5.4471 0.98553-6.8202-0.66887zm10.02 1.0018c0-0.28729 1.8508-2.5303 4.113-4.9844 2.5307-2.7455 3.8892-5.0451 3.5314-5.9777-0.78345-2.0416-3.6023-1.9175-5.3241 0.2344-1.3211 1.6511-1.3838 1.6431-1.1102-0.14282 0.45382-2.9623 3.1848-4.2039 6.2123-2.8245 3.6278 1.653 3.2715 4.8268-0.99354 8.8493l-3.5712 3.3681h3.5712c1.9642 0 3.5712 0.45 3.5712 1s-2.25 1-5 1-5-0.23505-5-0.52234zm25-6.9777v-7.5h4.3c2.365 0 4.84 0.54 5.5 1.2 1.6823 1.6823 1.4967 5.7489-0.29365 6.4359-1.2583 0.48285-1.1623 1.0384 0.60909 3.5262 3.0937 4.3447 1.5092 4.6426-2.4372 0.4582-4.284-4.5424-5.6783-4.5719-5.6783-0.12033 0 1.925-0.45 3.5-1 3.5-0.57778 0-1-3.1667-1-7.5zm8.5-3c0-1.5255-0.77112-2.0744-3.25-2.3134-2.9213-0.28167-3.25-0.0477-3.25 2.3134 0 2.3611 0.32866 2.595 3.25 2.3134 2.4789-0.23901 3.25-0.78789 3.25-2.3134zm6.4799 8.9758c-1.7655-2.1273-0.43333-3.0721 1.5439-1.0949 2.0791 2.0791 3.1866 2.0454 4.3059-0.13095 1.1288-2.1947 0.44541-4.25-1.413-4.25-1.9142 0-1.7835-1.0085 0.33333-2.5724 1.4202-1.0493 1.5097-1.5365 0.47504-2.5852-1.0422-1.0564-1.6533-1.056-3.3474 2e-3 -2.6383 1.6476-3.4721 0.89299-1.3538-1.2253 3.2632-3.2632 6.6798-1.3277 7.137 4.0432 0.5682 6.6752 0.4705 7.6381-0.86068 8.4824-2.0751 1.3162-5.4471 0.98553-6.8202-0.66887zm10.02 0.81202c0-0.39168 1.861-2.6083 4.1354-4.9258 2.6765-2.7272 3.9223-4.769 3.5314-5.7879-0.79013-2.059-4.3156-2.0241-5.4788 0.0543-0.52726 0.94217-1.1704 1.2092-1.5261 0.63365-1.0914-1.766 3.0313-4.5559 5.7311-3.8783 4.2993 1.079 4.301 4.3211 5e-3 8.721l-3.804 3.8952h3.703c2.0366 0 3.703 0.45 3.703 1s-2.25 1-5 1-5-0.32047-5-0.71215zm-327.29-2.2878c-0.35342-1.3515-1.364-2-3.1166-2-1.4265 0-2.5936-0.2981-2.5936-0.66245 0-1.2858 6.2206-10.338 7.1042-10.338 0.49266 0 0.89575 2.25 0.89575 5s0.40766 5 0.90591 5c0.49826 0 0.38576 1.1215-0.25 2.4922-1.4003 3.019-2.2506 3.1656-2.9457 0.5078zm0.26751-6.25-0.0222-3.25-1.9556 2.5c-2.488 3.1807-2.488 4 0 4 1.5943 0 1.9955-0.65925 1.9778-3.25zm13.02 6.7469c-1.7176-2.0696-1.5647-6.3582 0.29292-8.2159 1.9641-1.9641 6.7096-0.94707 6.7096 1.438 0 1.3074-0.26667 1.4143-1.2 0.48095-3.2202-3.2202-7.0614 0.57463-4.8202 4.7622 1.2987 2.4267 2.3583 2.5569 4.3774 0.53777 2.1083-2.1083 2.9085-1.8648 1.6429 0.5-1.2654 2.3643-5.2198 2.645-7.0026 0.49692zm21.345-5.9969c4e-3 -4.4 0.17944-6.0756 0.39069-3.7236 0.21124 2.352 0.20827 5.952-7e-3 8-0.21448 2.048-0.38732 0.12357-0.38369-4.2764zm9.572 5.8638c-1.2735-1.5647-1.2151-1.6586 0.58517-0.93998 3.0431 1.2147 4.7426 1.195 5.1878-0.0602 0.22169-0.62499-1.0002-1.6255-2.7154-2.2234-2.4394-0.85036-3.0481-1.5829-2.7954-3.3637 0.39555-2.7876 4.8457-3.659 6.7806-1.3277 1.1284 1.3596 0.90299 1.4733-1.8356 0.92556-4.0785-0.8157-4.1156 1.0836-0.0489 2.5012 2.3959 0.8352 3.0018 1.5729 2.75 3.3478-0.42122 2.9686-5.7901 3.7428-7.9082 1.1404zm11.139 0.20148c-0.65487-0.78907-1.0475-2.9184-0.87244-4.7319 0.2501-2.5914 0.92935-3.5109 3.1729-4.2952 2.4537-0.85774 3.1209-0.66915 4.75 1.3427 2.7476 3.3931 2.3766 4.1191-2.1047 4.1191-2.7524 0-4 0.4345-4 1.393 0 1.9374 2.9641 2.8817 4.6509 1.4817 1.577-1.3088 2.8966-0.56968 1.8902 1.0587-0.96196 1.5565-6.0992 1.3039-7.4869-0.36815zm5.9458-6.1349c0-1.0423-0.72946-1.4622-2.1717-1.25-3.2015 0.47108-3.5444 2.8196-0.41166 2.8196 1.6805 0 2.5833-0.54853 2.5833-1.5696zm5.5798 6.6987c-0.84401-1.3656-1.0871-11.955-0.29264-12.75 1.4073-1.4073 2.1397 0.80642 1.922 5.8093-0.12184 2.8003 0.28635 5.7034 0.90709 6.4513 0.8697 1.0479 0.76995 1.3599-0.4348 1.3599-0.85988 0-1.8056-0.39188-2.1016-0.87084zm226.95-1.7867c-0.39568-1.1866-1.6903-2.4813-2.877-2.8769l-2.1576-0.71941 2.25-0.4426c1.4035-0.27608 2.25-1.1689 2.25-2.373 0-1.0618 0.45-1.9304 1-1.9304s1 0.8687 1 1.9304c0 1.2041 0.84654 2.097 2.25 2.373l2.25 0.4426-2.1938 0.72889c-1.2066 0.40089-2.387 1.6955-2.623 2.877l-0.42924 2.1481zm-577.08-9.4125c-0.36374-0.58854-1.6278-1.46-2.809-1.9366-1.878-0.75773-1.7396-0.8745 1.1023-0.92992 2.6045-0.0508 3.25 0.33386 3.25 1.9366 0 2.2213-0.54297 2.5485-1.5433 0.92992z"/>
</svg>
