<?xml version="1.0" encoding="UTF-8"?>
<!-- Created with Inkscape (http://www.inkscape.org/) -->
<svg width="721" height="184" version="1.1" viewBox="0 0 721 184" xmlns="http://www.w3.org/2000/svg" xmlns:cc="http://creativecommons.org/ns#" xmlns:dc="http://purl.org/dc/elements/1.1/" xmlns:rdf="http://www.w3.org/1999/02/22-rdf-syntax-ns#">
 <metadata>
  <rdf:RDF>
   <cc:Work rdf:about="">
    <dc:format>image/svg+xml</dc:format>
    <dc:type rdf:resource="http://purl.org/dc/dcmitype/StillImage"/>
    <dc:title/>
   </cc:Work>
  </rdf:RDF>
 </metadata>
 <path d="m13.205 179.87c-0.36744-0.36744-0.66807-37.943-0.66807-83.501v-82.833h704.77l0.68148 38.25c0.37481 21.038 0.53994 58.5 0.36695 83.25l-0.31452 45-352.08 0.2514c-193.65 0.13827-352.38-0.04923-352.75-0.41666zm92.512-7.0847 0.18024-4.75 0.37455 4.75 0.37454 4.75h81.89v-125h-173v125h90zm18.423-38c0.30453-9.7625 0.91719-18.65 1.3615-19.75s1.3975-3.9622 2.1182-6.3604c1.6948-5.639 8.6111-13.288 14.656-16.21 5.9784-2.889 17.682-3.1574 23.578-0.54075 5.463 2.4244 12.137 8.9363 14.765 14.406 3.0846 6.42 3.211 16.876 0.2814 23.274-2.5777 5.6295-8.1169 11.135-14.237 14.15-6.4704 3.1879-17.745 3.2076-24.167 0.0422-5.7417-2.8298-12.569-9.5404-14.148-13.905-0.66768-1.8464-1.5736-3.3572-2.0131-3.3572s-0.79911 5.85-0.79911 13c0 7.7819-0.39154 13-0.97546 13-0.6181 0-0.77261-6.5027-0.42175-17.75zm43.824 6.8946c15.695-8.8134 18.844-29.808 6.3458-42.306-8.2168-8.2168-21.143-10.634-31.167-5.829-16.133 7.7344-21.033 26.436-10.673 40.737 3.1363 4.3295 10.055 8.9804 15.4 10.352 5.6528 1.4507 14.59 0.13672 20.094-2.9546zm-12.426-14.145c0-2.9697-0.0556-3-5.5-3-4.2036 0-5.5-0.35089-5.5-1.4887 0-2.2589 12.007-18.675 13.337-18.235 0.72368 0.23945 1.2722 3.4686 1.453 8.5542 0.22618 6.3618 0.6134 8.1695 1.75 8.1695 0.80276 0 1.4596 0.675 1.4596 1.5s-0.675 1.5-1.5 1.5c-1 0-1.5 1-1.5 3 0 2.3333-0.44444 3-2 3s-2-0.66667-2-3zm0-11c0-2.75-0.20338-5-0.45196-5-0.55294 0-6.548 8.6338-6.548 9.4302 0 0.3134 1.575 0.56982 3.5 0.56982h3.5zm-65.513 22.882 0.72241-11.382-3.0993 4.2342c-10.597 14.478-32.501 15.522-44.547 2.1242-10.413-11.582-10.081-27.471 0.80207-38.354 6.6138-6.6138 13.002-8.9627 22.519-8.2795 8.3111 0.59663 13.515 3.2 19.334 9.672 4.6105 5.128 6.8669 10.696 6.9302 17.103 0.10233 10.362-1.5728 35.144-2.4105 35.662-0.62524 0.38642-0.71497-3.4688-0.25091-10.78zm-16.235 1.6914c5.152-1.8386 10.312-5.9575 13.502-10.777 3.5574-5.3757 4.8921-17.123 2.7072-23.828-4.3768-13.431-20.499-21.106-34.541-16.442-7.7516 2.5747-15.226 10.279-17.474 18.009-4.0193 13.826 3.2572 28.12 16.869 33.138 4.3145 1.5907 14.346 1.5374 18.936-0.10067zm-9.252-15.573c0-2.9697-0.05556-3-5.5-3-4.5724 0-5.4996-0.29514-5.4974-1.75 0.0033-2.2788 11.118-18.156 12.747-18.209 0.90517-0.0296 1.25 2.3039 1.25 8.4591 0 7.8333 0.15686 8.5 2 8.5 1.1111 0 2 0.66667 2 1.5s-0.88889 1.5-2 1.5c-1.5556 0-2 0.66667-2 3 0 2-0.5 3-1.5 3s-1.5-1-1.5-3zm0-11.5c0-3.025-0.16129-5.5-0.35842-5.5s-2.0017 2.475-4.0102 5.5l-3.6518 5.5h8.0204zm41.389 24c2e-3 -7.15 0.16103-9.9438 0.35396-6.2084 0.19292 3.7354 0.19149 9.5854-3e-3 13-0.19466 3.4146-0.35251 0.35841-0.35076-6.7916zm-3e-3 -42.5c0-6.875 0.15976-9.6875 0.35503-6.25 0.19528 3.4375 0.19528 9.0625 0 12.5-0.19527 3.4375-0.35503 0.625-0.35503-6.25zm29.615-23.469c0-4.4501-0.27936-5.3614-1.5-4.893-2.3484 0.90119-1.6986-0.9481 1.0314-2.9351l2.4686-1.7967v7.5467c0 4.3645-0.42167 7.5467-1 7.5467-0.55 0-1-2.4609-1-5.4686zm12 4.9463c0-0.28729 1.8508-2.5303 4.113-4.9844 2.5307-2.7455 3.8892-5.0451 3.5314-5.9777-0.78345-2.0416-3.6023-1.9175-5.3241 0.2344-1.3211 1.6511-1.3838 1.6431-1.1102-0.14282 0.45382-2.9623 3.1848-4.2039 6.2123-2.8245 3.6278 1.653 3.2715 4.8268-0.99354 8.8493l-3.5712 3.3681h3.5712c1.9642 0 3.5712 0.45 3.5712 1s-2.25 1-5 1-5-0.23505-5-0.52234zm-94.832-5.795c-0.16012-5.541-0.27501-5.7845-2.4181-5.1258-2.2214 0.68283-2.2183 0.65714 0.25-2.0244l2.5-2.716 0.30879 4.1182c0.16984 2.265 0.13298 5.7938-0.0819 7.8418-0.28257 2.6931-0.43721 2.1137-0.55879-2.0938zm11.832 3.8683c0-0.79701 1.575-2.6504 3.5-4.1187 3.8896-2.9667 4.911-7.4322 1.7-7.4322-0.99 0-2.3325 0.5325-2.9833 1.1833-0.65083 0.65084-1.5276 0.83904-1.9484 0.41824-0.94757-0.94757 2.5327-3.6016 4.7229-3.6016 4.762 0 5.1959 5.1801 0.8127 9.7024l-3.1962 3.2976h3.1962c1.7579 0 3.1962 0.45 3.1962 1s-2.025 1-4.5 1c-3.2631 0-4.5-0.39831-4.5-1.4491zm41.31-16.051c6e-3 -3.3 0.1923-4.5294 0.41486-2.7321s0.21797 4.4974-0.0102 6c-0.22818 1.5026-0.41028 0.0321-0.40466-3.2679zm257.69 56v-62.5h-173v125h173zm-94.737-4.5c3.7811-9.7488 5.477-13 6.7808-13 1.2842 0 3.0742 3.2481 6.8477 12.426 2.8099 6.8341 5.109 12.684 5.109 13 0 0.31588-0.82797 0.57433-1.8399 0.57433-1.2599 0-2.2561-1.261-3.1601-4l-1.3201-4h-5.348c-5.306 0-5.3606 0.0315-6.9485 4-1.0285 2.5705-2.237 4-3.3817 4-1.541 0-1.1014-1.7528 3.2609-13zm10.486 0.75c-0.25611-0.6875-1.0697-2.9375-1.8079-5-0.73822-2.0625-1.6306-3.75-1.983-3.75s-1.1913 1.6875-1.8641 3.75c-0.67279 2.0625-1.4565 4.3125-1.7416 5-0.36642 0.8836 0.70992 1.25 3.672 1.25 2.9339 0 4.0507-0.37479 3.7246-1.25zm-10.748-40.219c0-4.4501-0.27936-5.3614-1.5-4.893-2.3484 0.90119-1.6986-0.9481 1.0314-2.9351l2.4686-1.7967v7.5467c0 4.3645-0.42167 7.5467-1 7.5467-0.55 0-1-2.4609-1-5.4686zm12 4.9463c0-0.28729 1.8508-2.5303 4.113-4.9844 2.5307-2.7455 3.8892-5.0451 3.5314-5.9777-0.78345-2.0416-3.6023-1.9175-5.3241 0.2344-1.3211 1.6511-1.3838 1.6431-1.1102-0.14282 0.45382-2.9623 3.1848-4.2039 6.2123-2.8245 3.6278 1.653 3.2715 4.8268-0.99354 8.8493l-3.5712 3.3681h3.5712c1.9642 0 3.5712 0.45 3.5712 1s-2.25 1-5 1-5-0.23505-5-0.52234zm261 39.022v-62.5h-176v61.833c0 34.008 0.3 62.133 0.66667 62.5 0.36666 0.36667 39.967 0.66667 88 0.66667h87.333zm-65.68 42.301c-2.984-3.8456-1.9441-12.15 1.6649-13.296 2.1079-0.66902 6.0155 0.97463 6.0155 2.5303 0 1.2742-0.61368 1.2173-3.0745-0.28518-1.7421-1.0636-2.2619-0.9606-3.4864 0.69113-1.9185 2.5877-1.8232 3.8732 0.20293 2.7393 3.9146-2.1907 8.1104 2.7991 5.6544 6.7243-1.2725 2.0337-5.6569 2.5967-6.9768 0.89578zm5.4845-3.6783c-0.40716-3.511-4.1516-3.7008-4.6416-0.23534-0.36804 2.603 1.3447 4.2394 3.5509 3.3928 0.82569-0.31684 1.2707-1.6051 1.0907-3.1575zm10.196-2.1631c0-3.7626 0.45-7.1192 1-7.4591 0.56146-0.347 1 0.44339 1 1.8023 0 2.0188 0.40007 2.3439 2.4116 1.9593 1.8092-0.34584 2.856 0.2172 4.1905 2.2539 1.6011 2.4436 1.6313 2.9782 0.30202 5.3497-1.148 2.0481-2.3038 2.6682-5.1905 2.7849l-3.7136 0.1501zm7.0202 4.0031c1.5898-2.9707 0.2926-6.1479-2.3561-5.7705-2.5119 0.35785-3.4715 4.1306-1.6184 6.3633 1.6363 1.9716 2.6859 1.8151 3.9745-0.59281zm4.3289 1.5051c-0.7389-1.9255 1.2147-4.2614 3.8952-4.6573 1.1545-0.17051 2.2843-0.87253 2.5107-1.56 0.52737-1.6014-2.9653-1.6397-4.555-0.05-0.93333 0.93333-1.2 0.82646-1.2-0.48095 0-1.7948 4.0302-3.3052 6.3965-2.3971 0.85961 0.32987 1.5367 2.4177 1.7522 5.4028l0.35125 4.8652-4.289 0.18512c-3.0083 0.12983-4.4601-0.26064-4.8619-1.3077zm6.4628-1.7288c0.35802-1.859-1.4332-2.2644-3.69-0.83501-0.75796 0.48009-1.0535 1.3981-0.65676 2.0401 1.0291 1.6651 3.9499 0.85536 4.3467-1.205zm5.3859-1.9088c0.28037-4.7959 0.50139-5.1966 3.0523-5.5342 3.1518-0.41711 3.7624 1.2065 0.75 1.9942-1.5891 0.41556-2 1.364-2 4.6166 0 2.2515-0.47352 4.0936-1.0523 4.0936-0.63964 0-0.93373-2.0274-0.75-5.1703zm6.7171 3.5341c-1.2735-1.5647-1.2151-1.6586 0.58517-0.93997 3.0431 1.2147 4.7426 1.195 5.1878-0.0602 0.22169-0.62499-1.0002-1.6255-2.7154-2.2234-2.4394-0.85036-3.0481-1.5829-2.7954-3.3637 0.39555-2.7876 4.8457-3.659 6.7806-1.3277 1.1284 1.3596 0.90299 1.4733-1.8356 0.92556-4.0785-0.8157-4.1156 1.0836-0.0489 2.5012 2.3959 0.8352 3.0018 1.5729 2.75 3.3478-0.42122 2.9686-5.7901 3.7428-7.9082 1.1404zm-115.36-31.711c-1.1804-2.5802 0.14272-22.063 1.9843-29.217 2.9036-11.281 9.5966-18.731 14.212-15.819 4.1677 2.6289 5.4505 5.993 6.104 16.007l0.64345 9.8608 1.9347-5.992c1.0641-3.2956 2.0868-5.317 2.2729-4.492 0.18601 0.825-0.98289 5.1-2.5976 9.5-3.2822 8.944-2.5711 9.271-7.1203-3.274-2.7775-7.6592-2.0963-9.3565 0.80253-1.9998l2.0781 5.2737 0.0501-8.5c0.0681-11.547-2.466-16.084-8.183-14.649-5.96 1.4959-9.7683 12.623-10.661 31.149-0.42939 8.9105-0.98193 13.328-1.5199 12.152zm-28.102-5.107c-2.7879-2.7879-3.1554-5.0625-0.95455-5.9071 0.825-0.31658 1.5-0.13972 1.5 0.39301 0 0.53274 0.9 1.8686 2 2.9686 2.3953 2.3953 9.1468 2.7329 10.96 0.54804 2.4176-2.913 0.72477-4.9759-5.9665-7.271-6.844-2.3475-8.9937-4.2347-8.9937-7.8956 0-7.464 16.368-8.7291 18.281-1.413 0.83244 3.1833-1.3818 3.614-3.5161 0.68406-1.5038-2.0644-2.7734-2.6525-5.7263-2.6525-4.4567 0-6.9956 2.2599-5.3932 4.8004 0.56645 0.89801 3.5946 2.3941 6.7293 3.3247 7.2648 2.1566 8.6248 3.3389 8.6248 7.4974 0 5.1813-2.8416 7.3776-9.5454 7.3776-4.5544 0-5.9841-0.43865-8-2.4546zm102.55-11.655v-13.109l7.6041 0.38399c7.0961 0.35833 7.7976 0.60052 10.5 3.6251 2.4552 2.7479 2.8959 4.0832 2.8959 8.775 0 10.22-3.4804 13.435-14.547 13.435h-6.453zm14.952 8.3491c2.7527-2.229 3.7872-9.0404 2.0208-13.305-1.4202-3.4287-4.3311-4.9348-9.5381-4.9348h-3.4349v20h4.3892c2.6999 0 5.2258-0.67745 6.563-1.7602zm26.048-6.7398v-11.5h-4c-2.8889 0-4-0.41667-4-1.5 0-1.2333 1.7778-1.5 10-1.5 8.0451 0 10 0.282 10 1.4425 0 0.98216-1.3563 1.5406-4.25 1.75l-4.25 0.3075-0.28275 11.25c-0.22855 9.0932-0.56404 11.25-1.75 11.25-1.2046 0-1.4672-2.0585-1.4672-11.5zm194 5v-62.5h-172v125h172zm-140.77 18.75 0.226-18.75 0.29648 18.228 0.29647 18.228 18.228 0.29647 18.228 0.29648-18.75 0.226-18.75 0.22599zm58.986-6.5-0.21238-10.75-15.25-0.2092-15.25-0.2092 15-0.5408 15-0.5408 0.55233-11 0.55232-11 0.19768 11.223 0.19767 11.223 14.75 0.30561 14.75 0.30561-14.716 0.22113-14.716 0.22112-0.32145 10.75-0.32145 10.75zm50.788-29.228v-18.478l-18.75-0.29551-18.75-0.2955 19.25-0.22656 19.25-0.22656v19c0 10.45-0.225 19-0.5 19s-0.5-8.3151-0.5-18.478zm31-64.523v-17.999h-700v35.99l350 4e-3 350 4e-3v-17.999zm-690.2 6.8007c0.67104-0.67104 1.2-3.8889 1.2-7.3s-0.52896-6.629-1.2-7.3c-0.93333-0.93333-0.64968-1.2 1.2764-1.2 2.3071 0 2.4501 0.29055 2.0917 4.25l-0.38472 4.25 3.1083-2.9371c1.7096-1.6154 3.1083-3.5279 3.1083-4.25 0-0.75332 1.1286-1.3129 2.6479-1.3129h2.6479l-3.3041 2.25c-5.2579 3.5806-5.837 5.2126-2.9582 8.3381 1.3566 1.4729 3.8165 3.5164 5.4665 4.5412l3 1.8632-3.809 4e-3c-2.095 2e-3 -3.575-0.37496-3.2889-0.83781s-1.0374-2.3511-2.941-4.1962l-3.4611-3.3546v3.6128c0 1.9871 0.5625 3.8398 1.25 4.1172s-0.3025 0.53991-2.2 0.58333c-2.6833 0.0614-3.1833-0.18772-2.25-1.121zm18.7-7.3v-8.5h3.8157c7.2002 0 9.9743 3.7886 5.694 7.7763-1.9777 1.8426-1.9691 1.8773 1.3849 5.539 2.7421 2.9937 3.0338 3.6848 1.5551 3.6848-1.001 0-3.0867-1.7904-4.6349-3.9786s-3.1996-3.9883-3.6699-4c-0.47027-0.0117-0.68338 1.7786-0.47358 3.9786 0.33151 3.4762 0.11611 4-1.645 4-1.8763 0-2.0264-0.62972-2.0264-8.5zm8-4c0-2.3498-0.48768-3.0693-2.25-3.3196-1.9797-0.28116-2.25 0.11765-2.25 3.3196s0.27032 3.6007 2.25 3.3196c1.7623-0.25029 2.25-0.96979 2.25-3.3196zm9.25 11.838c0.84051-0.33915 1.25-2.9067 1.25-7.8377s-0.40949-7.4986-1.25-7.8377c-0.6875-0.27741 0.325-0.50439 2.25-0.50439 1.925 0 2.9375 0.22698 2.25 0.50439-0.84051 0.33915-1.25 2.9067-1.25 7.8377s0.40949 7.4986 1.25 7.8377c0.6875 0.27741-0.325 0.50438-2.25 0.50438-1.925 0-2.9375-0.22697-2.25-0.50438zm8.2804-1.5877c0.0272-2.0094 0.1394-2.0629 1.0497-0.5 0.59883 1.0281 2.2119 1.75 3.9106 1.75 5.5173 0 5.0226-3.3279-1.0079-6.7799-3.1855-1.8235-3.9828-2.853-3.9828-5.143 0-3.1977 1.4196-4.0771 6.5818-4.0771 3.0539 0 3.4182 0.29014 3.4182 2.7225v2.7225l-1.5567-2.2225c-1.9959-2.8496-6.4433-3.0474-6.4433-0.2865 0 1.2199 1.4913 2.7742 4.0316 4.2019 7.2514 4.0755 6.2809 9.8621-1.6541 9.8621-3.882 0-4.3741-0.25469-4.3471-2.25zm17.72 1.5877c0.8423-0.33988 1.25-2.9234 1.25-7.921 0-6.4753-0.22847-7.4167-1.8-7.4167-0.99 0-2.34 0.54-3 1.2-0.93334 0.93333-1.2 0.82222-1.2-0.5 0-1.4381 1.0784-1.7 7-1.7 3.85 0 7 0.37206 7 0.82681 0 0.45474-1.35 0.62867-3 0.3865l-3-0.44031v6.9135c0 4.0438 0.4981 7.4116 1.2 8.1135 0.93333 0.93333 0.43333 1.1825-2.25 1.121-1.8975-0.0434-2.8875-0.30592-2.2-0.58333zm12.084-0.21388c0.97312-0.61687 1.2436-2.9122 1-8.487-0.30963-7.0867-0.18868-7.6413 1.6661-7.6392 1.843 2e-3 2 0.66977 2 8.5023v8.5l-3-0.0153c-2.0235-0.0103-2.5658-0.29053-1.6661-0.86085zm17.166-1.8464v-2.7225l1.5967 2.2796c1.116 1.5932 2.3956 2.1871 4.25 1.9725 3.9618-0.45854 3.3521-3.4961-1.3416-6.6837-6.4888-4.4067-5.6526-9.1234 1.6174-9.1234 3.3236 0 3.8776 0.31301 3.8776 2.1911 0 2.0481-0.0853 2.0745-1.306 0.40503-1.5463-2.1146-6.0346-1.8339-6.4561 0.40384-0.16563 0.87931 1.5888 2.6277 4.2398 4.2254 3.2846 1.9794 4.5223 3.3616 4.5223 5.05 0 3.4102-1.8639 4.7246-6.7 4.7246-4.0137 0-4.3-0.18126-4.3-2.7225zm22.073 0.0876c-2.8853-3.668-2.7121-8.8165 0.40126-11.93 2.0435-2.0435 3.3481-2.4429 7.5-2.2959 4.6817 0.1657 5.0262 0.3536 5.0262 2.7418v2.5639l-1.5567-2.2225c-1.922-2.744-6.4766-2.9481-8.7883-0.39377-2.2842 2.524-2.1807 9.3856 0.17375 11.516 2.1656 1.9598 6.205 2.16 8.173 0.40499 1.1925-1.0634 1.2041-0.98877 0.0776 0.5-2.1502 2.8416-8.4755 2.3331-11.007-0.88486zm17.953 0.6603c-2.7325-2.7325-3.4821-6.5087-2.0016-10.083 2.318-5.5961 9.2168-6.7926 13.643-2.3664 2.1984 2.1984 2.4941 3.1864 2.0175 6.7398-0.34518 2.5735-1.3887 4.836-2.7323 5.924-2.9313 2.3736-8.447 2.2654-10.927-0.21434zm9.9394-0.9597c0.56935-1.0638 1.0352-3.5684 1.0352-5.5657 0-5.2046-1.5237-7.5-4.9785-7.5-3.5119 0-6.0215 3.1258-6.0215 7.5 0 1.6802 0.70052 4.0551 1.5567 5.2775 1.9982 2.8529 6.9448 3.0225 8.4081 0.28825zm6.7852 2.272c0.82968-0.33478 1.25-2.8134 1.25-7.3714 0-5.485-0.35218-7.0721-1.75-7.8863-1.5254-0.88849-1.4292-1.0221 0.75-1.0415 1.8784-0.0167 3.7433 1.5299 7.5 6.2196l5 6.2418 0.30765-5.4054c0.20758-3.6472-0.11767-5.6751-1-6.2347-0.94559-0.59971-0.75389-0.83422 0.69235-0.84698 1.874-0.0165 1.9791 0.53393 1.6689 8.7347l-0.33108 8.7523-2.6689-3.0203c-1.4679-1.6612-4.1163-4.8112-5.8854-7l-3.2165-3.9797-0.0335 6.1667c-0.0219 4.0248 0.40064 6.3418 1.2165 6.671 0.6875 0.27741-0.1 0.50438-1.75 0.50438s-2.4375-0.22697-1.75-0.50438zm21.251-0.3159c-1.0305-0.65144-1.6555-3.3029-2-8.4848-0.49649-7.4684-0.47869-7.5372 1.9489-7.5371 1.9056 7e-5 2.1833 0.26676 1.25 1.2001-1.4457 1.4457-1.5785 8.6743-0.22475 12.235 0.73768 1.9402 1.6822 2.5651 3.8776 2.5651 4.325 0 5.3697-1.9826 4.9844-9.4596-0.30975-6.0116-0.17435-6.538 1.6628-6.4635 1.1 0.0446 1.4375 0.30802 0.75 0.58543-0.81567 0.32913-1.25 2.7091-1.25 6.8496 0 4.4351-0.47306 6.8183-1.5714 7.9167-1.7356 1.7356-7.0876 2.0724-9.4275 0.59325zm15.749 0.3159c0.82968-0.33478 1.25-2.8134 1.25-7.3714 0-5.485-0.35218-7.0721-1.75-7.8863-1.5254-0.88849-1.4292-1.0221 0.75-1.0415 1.8784-0.0167 3.7433 1.5299 7.5 6.2196l5 6.2418 0.30765-5.4054c0.20758-3.6472-0.11767-5.6751-1-6.2347-0.94559-0.59971-0.75389-0.83422 0.69235-0.84698 1.874-0.0165 1.9791 0.53393 1.6689 8.7347l-0.33108 8.7523-2.6689-3.0203c-1.4679-1.6612-4.1163-4.8112-5.8854-7l-3.2165-3.9797-0.0335 6.1667c-0.0219 4.0248 0.40064 6.3418 1.2165 6.671 0.6875 0.27741-0.1 0.50438-1.75 0.50438s-2.4375-0.22697-1.75-0.50438zm19.05-0.53772c0.67104-0.67104 1.2-3.8889 1.2-7.3s-0.52896-6.629-1.2-7.3c-0.93333-0.93333 0.0768-1.2 4.5454-1.2 7.1535 0 10.655 2.7931 10.655 8.5s-3.5011 8.5-10.655 8.5c-4.4687 0-5.4788-0.26667-4.5454-1.2zm9.9775-1.3567c1.7223-1.2064 2.2225-2.5439 2.2225-5.9433 0-4.8158-2.4059-7.5-6.7225-7.5-2.1675 0-2.2775 0.36206-2.2775 7.5s0.10995 7.5 2.2775 7.5c1.2526 0 3.2776-0.70052 4.5-1.5567zm8.7225-5.9433v-8.5h3.8157c7.2002 0 9.9743 3.7886 5.694 7.7763-1.9778 1.8426-1.969 1.8773 1.3849 5.539 2.7421 2.9937 3.0338 3.6848 1.5551 3.6848-1.001 0-3.0867-1.7904-4.6349-3.9786s-3.1996-3.9883-3.6699-4c-0.47026-0.0117-0.68337 1.7786-0.47357 3.9786 0.33151 3.4762 0.11611 4-1.645 4-1.8763 0-2.0264-0.62972-2.0264-8.5zm8-4c0-2.3498-0.48768-3.0693-2.25-3.3196-1.9797-0.28116-2.25 0.11765-2.25 3.3196s0.27032 3.6007 2.25 3.3196c1.7623-0.25029 2.25-0.96979 2.25-3.3196zm11.501 11.522c-1.0305-0.65144-1.6555-3.3029-2-8.4848-0.49649-7.4684-0.47869-7.5372 1.9489-7.5371 1.9056 7e-5 2.1833 0.26676 1.25 1.2001-1.4457 1.4457-1.5785 8.6743-0.22475 12.235 0.73768 1.9402 1.6822 2.5651 3.8776 2.5651 4.325 0 5.3697-1.9826 4.9844-9.4596-0.30975-6.0116-0.17435-6.538 1.6628-6.4635 1.1 0.0446 1.4375 0.30802 0.75 0.58543-0.81567 0.32913-1.25 2.7091-1.25 6.8496 0 4.4351-0.47306 6.8183-1.5714 7.9167-1.7356 1.7356-7.0876 2.0724-9.4275 0.59325zm15.749 0.3159c0.84051-0.33915 1.25-2.9067 1.25-7.8377s-0.40949-7.4986-1.25-7.8377c-0.6875-0.27741-0.125-0.52781 1.25-0.55645 2.1352-0.0445 2.9352 0.92151 5.4826 6.62l2.9826 6.6721 2.9514-6.6989c1.8297-4.153 3.5465-6.6998 4.5174-6.7013 1.314-2e-3 1.5123 1.2273 1.2322 7.6392-0.24357 5.5748 0.0269 7.8702 1 8.487 0.87731 0.55612 0.15298 0.85078-2.1161 0.86085-2.6833 0.0119-3.1833-0.25136-2.25-1.1847 1.367-1.367 1.6558-10.8 0.33071-10.8-0.47811 0-2.1046 2.8125-3.6145 6.25l-2.7452 6.25-3.3019-7-3.3019-7-0.0836 6.1667c-0.0551 4.065 0.34244 6.3386 1.1664 6.671 0.6875 0.27741-0.1 0.50438-1.75 0.50438s-2.4375-0.22697-1.75-0.50438zm212.05-0.53772c1.5664-1.5664 1.5664-13.034 0-14.6-0.93333-0.93333 0.0322-1.2 4.345-1.2 4.1019 0 5.9757 0.47593 7.2 1.8287 2.0654 2.2823 2.088 3.567 0.0918 5.2237-1.4176 1.1765-1.4176 1.3788 0 2.1721 2.1958 1.2288 1.9611 5.4921-0.37107 6.7402-1.0638 0.56935-4.3038 1.0352-7.2 1.0352-4.0956 0-4.9991-0.26667-4.0657-1.2zm9.7-3.3c0-2.6537-0.37519-3.0362-3.25-3.3134-3.1268-0.30148-3.25-0.17593-3.25 3.3134s0.12315 3.6148 3.25 3.3134c2.8748-0.27719 3.25-0.65969 3.25-3.3134zm-0.43043-6.0838c1.7861-2.1521 0.0428-4.8189-3.4204-5.2326-2.4295-0.29019-2.6491-0.0207-2.6491 3.25 0 3.0885 0.31858 3.5664 2.3776 3.5664 1.3076 0 2.9691-0.71272 3.692-1.5838zm7.9304 9.5838c0-0.55 0.45-1 1-1s1 0.45 1 1-0.45 1-1 1-1-0.45-1-1zm12.8-0.2c0.67104-0.67104 1.2-3.8889 1.2-7.3s-0.52896-6.629-1.2-7.3c-0.93333-0.93333-0.64968-1.2 1.2764-1.2 2.2861 0 2.4471 0.30746 2.095 4l-0.38146 4h4.105c4.0057 0 4.105-0.0827 4.105-3.4167 0-1.8792-0.5625-3.6436-1.25-3.921s0.325-0.50439 2.25-0.50439 2.9375 0.22698 2.25 0.50439c-0.84051 0.33915-1.25 2.9067-1.25 7.8377s0.40949 7.4986 1.25 7.8377c0.6875 0.27741-0.325 0.50438-2.25 0.50438s-2.9375-0.22697-2.25-0.50438 1.25-2.0419 1.25-3.921c0-3.3194-0.11382-3.4167-4-3.4167s-4 0.0972-4 3.4167c0 1.8792 0.5625 3.6436 1.25 3.921s-0.3025 0.53991-2.2 0.58333c-2.6833 0.0614-3.1833-0.18772-2.25-1.121zm18.613-1.2927c-3.2524-4.9639 1.0737-10.974 6.2137-8.6316 3.9245 1.7881 3.0032 4.1243-1.6265 4.1243-4.3412 0-4.5114 0.17599-2.9648 3.0657 1.1804 2.2055 3.9387 2.5261 5.8872 0.68426 1.0913-1.0316 1.1201-0.85685 0.16481 1-1.5872 3.085-5.5767 2.9588-7.6744-0.24272zm5.5872-6.4483c0-1.8659-2.226-2.2616-3.8102-0.67734-1.4911 1.4911-1.4049 1.6183 1.096 1.6183 1.4929 0 2.7143-0.42344 2.7143-0.94098zm5.8465 3.9416c0.25543-3.6862-7e-3 -5.0086-1-5.031-0.82684-0.0187-0.62516-0.4495 0.52257-1.1163 1.3843-0.80429 2.0651-0.76871 2.625 0.13717 0.53918 0.8724 0.95205 0.90575 1.4399 0.11633 0.96116-1.5552 2.566-1.3787 2.566 0.28213 0 0.76389-0.7875 1.3264-1.75 1.25-1.4406-0.11434-1.75 0.70113-1.75 4.6127 0 3.5574-0.37698 4.7514-1.5 4.7506-1.1795-7.8e-4 -1.426-1.0696-1.1535-5.0016zm8.666 3.7494c-0.2336-0.6875-0.55698-4.5087-0.71862-8.4916-0.20695-5.0994 0.0759-7.3827 0.95611-7.7186 0.8713-0.33254 1.25 0.73592 1.25 3.5267 0 3.6939 0.15479 3.921 2 2.9334 3.2014-1.7134 6 0.36864 6 4.4638 0 1.8664-0.70714 4.1005-1.5714 4.9648-1.8732 1.8732-7.3137 2.0941-7.9161 0.32143zm7.2886-3.3352c0.33381-3.4208-1.8482-5.9945-4.2883-5.0581-0.93557 0.35901-1.5127 1.8642-1.5127 3.9452 0 3.9735 0.70203 4.8849 3.4588 4.4902 1.4681-0.21015 2.1257-1.1583 2.3422-3.3774zm5.2341 2.6509c-0.56935-1.0638-1.0352-2.8638-1.0352-4 0-2.4031 3.321-6.0657 5.5-6.0657 2.284 0 5.5 3.7101 5.5 6.345 0 4.9408-7.761 7.8386-9.9648 3.7207zm7.5012-1.3548c0.71963-2.8672-1.0466-7.711-2.8117-7.711-1.8984 0-3.7248 2.0916-3.7248 4.2657 0 5.1999 5.3838 8.0376 6.5364 3.4452zm6.2897-4.7086c0.25019-6.1387 0.0173-8.0059-1-8.0177-0.98542-0.0114-0.94076-0.26438 0.17385-0.98469 0.825-0.53316 1.8056-0.97627 2.179-0.98469 0.37347-8e-3 0.82347 4.0357 1 8.987 0.26662 7.478 0.067 9.0023-1.179 9.0023-1.2355 5e-5 -1.4425-1.4108-1.1738-8.0023zm5.9961 5.507c-2.0624-4.5265 2.6428-11.194 6.3031-8.9318 0.79567 0.49175 1.0048-0.2371 0.68777-2.3971-0.29352-1.9999 0.0143-3.284 0.86565-3.6107 1.0214-0.39195 1.3212 1.169 1.3212 6.8798 0 4.0628 0.25104 8.041 0.55788 8.8406 0.43537 1.1346-0.45122 1.474-4.0377 1.546-3.9361 0.079-4.7538-0.25493-5.6979-2.327zm6.6777-3.5926c0-3.75-0.30189-4.4167-2-4.4167-1.5338 0-2.0742 0.77274-2.3182 3.3153-0.33264 3.4655 1.3339 6.5128 3.2183 5.8846 0.60495-0.20165 1.0999-2.3541 1.0999-4.7833zm42.043 5.1524c-0.31644-0.512-0.14909-1.1943 0.37188-1.5163 0.52097-0.32198 1.2299-0.12807 1.5753 0.4309 1.6264 2.6316 2.5101 0.37852 2.5101-6.4004 0-4.9977-0.4077-7.5812-1.25-7.921-0.6875-0.27741-0.125-0.54093 1.25-0.58559 2.4742-0.0804 2.4965-6e-3 2.1607 7.1711-0.18663 3.9887-0.80423 7.8148-1.3724 8.5022-1.2105 1.4646-4.417 1.6596-5.2455 0.3191zm10.457-0.0881c0-0.60357 1.0827-0.74731 2.6556-0.35254 1.9381 0.48644 3.0083 0.18409 3.9612-1.1191 1.5973-2.1845 0.16288-5.4936-2.402-5.5411-1.6028-0.0297-1.6006-0.11855 0.0352-1.3602 1.8923-1.4365 2.3574-5.1145 0.77067-6.0952-0.53864-0.33289-2.0011-0.0608-3.25 0.60471-2.0609 1.0982-2.1439 1.0562-0.89823-0.45376 3.1266-3.7902 9.3556-0.82688 7.1043 3.3797-0.84037 1.5702-0.85958 2.4737-0.0694 3.2639 1.811 1.811 1.294 6.5145-0.84162 7.6575-2.4853 1.3301-7.0658 1.3405-7.0658 0.0161zm15.306-2.8976c5.8935-6.5234 6.1539-11.671 0.54891-10.849-1.799 0.26403-2.7734 0.0146-2.5545-0.65388 0.5122-1.5636 5.5702-1.9332 7.2603-0.53057 2.3987 1.9907 1.6341 5.3626-2.2432 9.8923l-3.6827 4.3025 4.1918-0.39976c2.5866-0.24667 4.0625-6e-3 3.8542 0.62754-0.18574 0.56501-2.7408 1.1659-5.678 1.3354l-5.3403 0.30811zm-560.35-8.2286c1.4737-1.7663 1.301-2.8547-0.45313-2.8547-0.825 0-1.5-0.45-1.5-1 0-1.6176 3.0075-1.144 3.6681 0.57754 0.33733 0.87906-0.14009 2.2316-1.0783 3.0547-0.92599 0.81243-1.2125 0.91254-0.63674 0.22246z"/>
</svg>
