<?xml version="1.0" encoding="UTF-8" standalone="no"?>
<svg
   xmlns:dc="http://purl.org/dc/elements/1.1/"
   xmlns:cc="http://creativecommons.org/ns#"
   xmlns:rdf="http://www.w3.org/1999/02/22-rdf-syntax-ns#"
   xmlns:svg="http://www.w3.org/2000/svg"
   xmlns="http://www.w3.org/2000/svg"
   xmlns:sodipodi="http://sodipodi.sourceforge.net/DTD/sodipodi-0.dtd"
   xmlns:inkscape="http://www.inkscape.org/namespaces/inkscape"
   viewBox="-1 -18  272  71.73"
   version="1.1"
   id="svg2"
   inkscape:version="0.48.5 r10040"
   width="100%"
   height="100%"
   sodipodi:docname="summer_rain_j32-v8.svg"
   inkscape:export-filename="C:\Users\zotyo\Documents\Skot\Tancaink\sajat-pilling\summer_rain_j32-V4.png"
   inkscape:export-xdpi="595.59003"
   inkscape:export-ydpi="595.59003">
  <metadata
     id="metadata196">
    <rdf:RDF>
      <cc:Work
         rdf:about="">
        <dc:format>image/svg+xml</dc:format>
        <dc:type
           rdf:resource="http://purl.org/dc/dcmitype/StillImage" />
        <dc:title>SUMMER RAIN - 8x32 J</dc:title>
      </cc:Work>
    </rdf:RDF>
  </metadata>
  <defs
     id="defs194" />
  <sodipodi:namedview
     pagecolor="#ffffff"
     bordercolor="#666666"
     borderopacity="1"
     objecttolerance="10"
     gridtolerance="10"
     guidetolerance="10"
     inkscape:pageopacity="0"
     inkscape:pageshadow="2"
     inkscape:window-width="1280"
     inkscape:window-height="972"
     id="namedview192"
     showgrid="false"
     inkscape:zoom="4.2529586"
     inkscape:cx="136"
     inkscape:cy="31.229998"
     inkscape:window-x="-8"
     inkscape:window-y="-8"
     inkscape:window-maximized="1"
     inkscape:current-layer="g8" />
  <title
     id="title4">SUMMER RAIN - 8x32 J</title>
  <rect
     x="0"
     y="-18"
     width="270"
     height="72.160263"
     id="rect6"
     inkscape:export-filename="C:\temp\summer_rain.png"
     inkscape:export-xdpi="595.59003"
     inkscape:export-ydpi="595.59003"
     style="fill:#ffffff;stroke:none" />
  <g
     id="g8"
     font-family="Helvetica"
     stroke-width=".4"
     stroke="black"
     fill="black">
    <rect
       x="0"
       y="-18"
       width="270"
       height="18"
       id="rect10"
       fill="white" />
    <text
       x="5"
       y="-5"
       font-size="10"
       font-weight="bold"
       id="text12"
       style="font-size:10px;font-weight:bold;stroke-width:0.001">SUMMER RAIN</text>
    <text
       x="265"
       y="-5"
       font-size="10"
       font-weight="bold"
       id="text14"
       style="font-size:10px;font-weight:bold;text-anchor:end;stroke-width:0.001">8x32 J</text>
    <rect
       x="0"
       y="0"
       width="270"
       height="45"
       id="rect16"
       fill="white" />
    <text
       x="6.3099999"
       y="24.75"
       font-size="10"
       font-weight="bold"
       style="font-size:10px;font-weight:bold;fill:#000000;stroke-width:0.001"
       id="text32" />
    <line
       style="stroke-dasharray: 3, 2;"
       x1="27"
       y1="0"
       x2="27"
       y2="45"
       id="line34"
       stroke="rgb(0,0,0)" />
    <line
       x1="57.06731"
       y1="0"
       x2="57.06731"
       y2="45"
       id="line38"
       style="stroke:#000000" />
    <text
       x="8.75"
       y="9"
       font-size="6.5"
       style="font-size:6.5px;fill:#000000;stroke-width:0.001"
       id="text40" />
    <text
       x="87.5"
       y="9"
       font-size="6.5"
       style="font-size:6.5px;fill:#000000;stroke-width:0.001"
       id="text42" />
    <text
       x="85.610001"
       y="27"
       font-size="10"
       font-weight="bold"
       style="font-size:10px;font-weight:bold;fill:#000000;stroke-width:0.001"
       id="text44" />
    <line
       style="stroke:#000000;stroke-dasharray:3, 2"
       x1="87.131172"
       y1="-3.1119584e-006"
       x2="87.131172"
       y2="45"
       id="line46" />
    <line
       x1="127.93301"
       y1="-3.2311677e-006"
       x2="127.93301"
       y2="45"
       id="line50"
       style="stroke:#000000" />
    <line
       x1="213.85681"
       y1="-5.2577257e-006"
       x2="213.85681"
       y2="45"
       id="line52"
       style="stroke:#000000" />
    <text
       x="217.2"
       y="27"
       font-size="10"
       font-weight="bold"
       style="fill:rgb(0, 0, 0);font-weight:bold;-inkscape-font-specification:Sans Bold"
       id="text54"
       stroke-width="0.001">S</text>
    <text
       x="230.7"
       y="27"
       font-size="10"
       font-weight="bold"
       style="fill:rgb(0, 0, 0);font-weight:bold;-inkscape-font-specification:Sans Bold"
       id="text56"
       stroke-width="0.001">S</text>
    <text
       x="244.2"
       y="27"
       font-size="10"
       font-weight="bold"
       style="fill:rgb(0, 0, 0);font-weight:bold;-inkscape-font-specification:Sans Bold"
       id="text58"
       stroke-width="0.001">S</text>
    <line
       x1="220.05"
       y1="15.3"
       x2="225.45"
       y2="15.3"
       id="line60"
       stroke="rgb(0,0,0)" />
    <line
       x1="225.45"
       y1="15.3"
       x2="225.45"
       y2="20.7"
       id="line62"
       stroke="rgb(0,0,0)" />
    <line
       x1="242.1"
       y1="14.85"
       x2="248.4"
       y2="14.85"
       id="line64"
       stroke="rgb(0,0,0)" />
    <line
       x1="242.1"
       y1="14.85"
       x2="242.1"
       y2="21.15"
       id="line66"
       stroke="rgb(0,0,0)" />
    <text
       x="255.46001"
       y="27"
       font-size="10"
       font-weight="bold"
       style="font-size:10px;font-weight:bold;fill:#000000;stroke-width:0.00100000000000000;-inkscape-font-specification:Sans Bold"
       id="text182">S</text>
    <text
       x="0"
       y="50.98954"
       font-size="5"
       id="text188"
       style="font-size:5px;stroke-width:0.001">Zoltán Gräff, 2002, A Reel Goulash</text>
    <text
       xml:space="preserve"
       x="270"
       y="50.625153"
       font-size="5"
       id="text190"
       style="font-size:5px;text-anchor:end;stroke-width:0.001">3C/4C longwise set</text>
    <text
       x="2.596576"
       y="27.007353"
       font-size="10"
       font-weight="bold"
       style="font-size:9.99978733000000020px;font-weight:bold;fill:#000000;stroke:#000000;stroke-width:0.00099998000000000;font-family:Helvetica;-inkscape-font-specification:Sans Bold"
       id="text18"
       transform="scale(0.99997871,1.0000213)">S</text>
    <text
       x="17.476501"
       y="26.933306"
       font-size="7.5"
       font-weight="bold"
       style="font-size:7.5px;font-weight:bold;fill:#000000;stroke:#000000;stroke-width:0.001;font-family:Helvetica"
       id="text20">1</text>
    <path
       d="m 14.896502,21.533307 c 0,-6.3 9,-6.3 9,0"
       style="fill:none;stroke:#000000;stroke-width:0.40000001;font-family:Helvetica"
       id="path22"
       inkscape:connector-curvature="0" />
    <path
       d="m 24.341502,19.214307 -0.781,0.96 -2.276,-0.971 2.654,2.5 1.183,-3.448 -0.781,0.96"
       id="path24"
       inkscape:connector-curvature="0"
       style="fill:#000000;stroke:#000000;stroke-width:0.001;font-family:Helvetica" />
    <g
       id="g3190"
       transform="translate(30.610264,2.6975489)">
      <path
         id="path3192"
         d="m 10.488189,11.692914 0,0.566929 -3.082677,0 c 0,-0.141733 0,-0.283465 0.070866,-0.425197 C 7.547244,11.657481 7.6889764,11.444882 7.8307087,11.232284 8.0078743,11.019685 8.2559058,10.807087 8.6102365,10.523622 9.1062995,10.098425 9.4251971,9.7795277 9.6023625,9.5314962 9.8149609,9.2834647 9.8858271,9.0708663 9.8858271,8.8582679 9.8858271,8.6456695 9.8149609,8.433071 9.6377956,8.2913387 9.4960633,8.1141734 9.2834648,8.0433072 9.0000003,8.0433072 c -0.2480315,0 -0.496063,0.070866 -0.6377953,0.2480315 C 8.1850396,8.4685041 8.1141735,8.6811025 8.1141735,9.0000002 L 7.5118112,8.929134 C 7.5472443,8.4685041 7.6889766,8.1496065 7.9724412,7.937008 8.2204727,7.6889765 8.5748034,7.5826773 9.0354333,7.5826773 c 0.4251969,0 0.7795276,0.1062992 1.0629927,0.3543307 0.248031,0.2480315 0.389763,0.5669292 0.389763,0.9212599 0,0.2125984 -0.03543,0.3897638 -0.141732,0.5669291 C 10.275591,9.6023624 10.169292,9.7795277 9.9921263,9.9921262 9.8149609,10.169292 9.4960633,10.452756 9.1062995,10.807087 8.7519688,11.090551 8.5393703,11.30315 8.4330711,11.374016 8.3267719,11.480315 8.2559058,11.586614 8.1850396,11.692914 z"
         style="fill:#000000;fill-opacity:1;fill-rule:nonzero;stroke:#000000;stroke-width:0.075px;stroke-linecap:butt;stroke-linejoin:miter;stroke-miterlimit:4;stroke-opacity:1;stroke-dasharray:none"
         inkscape:connector-curvature="0" />
      <path
         id="path3194"
         d="M 16.759843,1.2401575 16.582678,2.4448819 14.137796,2.7992127 17.681103,3.5787402 16.937008,0 16.759843,1.2401575 z"
         style="fill:#000000;fill-opacity:1;fill-rule:nonzero;stroke:#000000;stroke-width:0.075px;stroke-linecap:butt;stroke-linejoin:miter;stroke-miterlimit:4;stroke-opacity:1;stroke-dasharray:none"
         inkscape:connector-curvature="0" />
      <path
         id="path3196"
         d="M 20.267717,27.744095 C -17.078741,12.437008 7.2283467,-7.3346458 17.574804,3.4370079"
         style="fill:none;stroke:#000000;stroke-width:0.3897638px;stroke-linecap:butt;stroke-linejoin:miter;stroke-miterlimit:4;stroke-opacity:1;stroke-dasharray:none"
         inkscape:connector-curvature="0" />
      <path
         id="path3198"
         d="m 10.488189,11.692914 0,0.566929 -3.082677,0 c 0,-0.141733 0,-0.283465 0.070866,-0.425197 C 7.547244,11.657481 7.6889764,11.444882 7.8307087,11.232284 8.0078743,11.019685 8.2559058,10.807087 8.6102365,10.523622 9.1062995,10.098425 9.4251971,9.7795277 9.6023625,9.5314962 9.8149609,9.2834647 9.8858271,9.0708663 9.8858271,8.8582679 9.8858271,8.6456695 9.8149609,8.433071 9.6377956,8.2913387 9.4960633,8.1141734 9.2834648,8.0433072 9.0000003,8.0433072 c -0.2480315,0 -0.496063,0.070866 -0.6377953,0.2480315 C 8.1850396,8.4685041 8.1141735,8.6811025 8.1141735,9.0000002 L 7.5118112,8.929134 C 7.5472443,8.4685041 7.6889766,8.1496065 7.9724412,7.937008 8.2204727,7.6889765 8.5748034,7.5826773 9.0354333,7.5826773 c 0.4251969,0 0.7795276,0.1062992 1.0629927,0.3543307 0.248031,0.2480315 0.389763,0.5669292 0.389763,0.9212599 0,0.2125984 -0.03543,0.3897638 -0.141732,0.5669291 C 10.275591,9.6023624 10.169292,9.7795277 9.9921263,9.9921262 9.8149609,10.169292 9.4960633,10.452756 9.1062995,10.807087 8.7519688,11.090551 8.5393703,11.30315 8.4330711,11.374016 8.3267719,11.480315 8.2559058,11.586614 8.1850396,11.692914 z"
         style="fill:#000000;fill-opacity:1;fill-rule:nonzero;stroke:#000000;stroke-width:0.075px;stroke-linecap:butt;stroke-linejoin:miter;stroke-miterlimit:4;stroke-opacity:1;stroke-dasharray:none"
         inkscape:connector-curvature="0" />
      <path
         id="path3200"
         d="M 16.759843,1.2401575 16.582678,2.4448819 14.137796,2.7992127 17.681103,3.5787402 16.937008,0 16.759843,1.2401575 z"
         style="fill:#000000;fill-opacity:1;fill-rule:nonzero;stroke:#000000;stroke-width:0.075px;stroke-linecap:butt;stroke-linejoin:miter;stroke-miterlimit:4;stroke-opacity:1;stroke-dasharray:none"
         inkscape:connector-curvature="0" />
      <path
         id="path3202"
         d="M 20.267717,27.744095 C -17.078741,12.437008 7.2283467,-7.3346458 17.574804,3.4370079"
         style="fill:none;stroke:#000000;stroke-width:0.3897638px;stroke-linecap:butt;stroke-linejoin:miter;stroke-miterlimit:4;stroke-opacity:1;stroke-dasharray:none"
         inkscape:connector-curvature="0" />
      <path
         id="path3204"
         d="m 10.488189,29.692914 0,0.566929 -3.082677,0 c 0,-0.141732 0,-0.283464 0.070866,-0.425197 0.070866,-0.177165 0.2125984,-0.389764 0.3543307,-0.602362 0.1771654,-0.212598 0.4251969,-0.425197 0.7795276,-0.708661 0.496063,-0.425197 0.8149606,-0.744095 0.992126,-0.992126 0.2125984,-0.248032 0.2834646,-0.46063 0.2834646,-0.673229 0,-0.212598 -0.070866,-0.425197 -0.2480315,-0.566929 -0.1417323,-0.177165 -0.3543308,-0.248031 -0.6377953,-0.248031 -0.2480315,0 -0.496063,0.07087 -0.6377953,0.248031 -0.1771654,0.177165 -0.2480315,0.389764 -0.2480315,0.708662 L 7.511811,26.929131 c 0.035433,-0.46063 0.1771654,-0.779527 0.46063,-0.992126 0.2480315,-0.248031 0.6023622,-0.35433 1.0629921,-0.35433 0.4251969,0 0.7795276,0.106299 1.0629929,0.35433 0.248031,0.248032 0.389763,0.56693 0.389763,0.92126 0,0.212599 -0.03543,0.389764 -0.141732,0.566929 -0.07087,0.177166 -0.177165,0.354331 -0.3543309,0.56693 -0.1771654,0.177165 -0.496063,0.460629 -0.8858268,0.81496 -0.3543307,0.283465 -0.5669292,0.496063 -0.6732284,0.566929 -0.1062992,0.1063 -0.1771653,0.212599 -0.2480315,0.318898 z"
         style="fill:#000000;fill-opacity:1;fill-rule:nonzero;stroke:#000000;stroke-width:0.075px;stroke-linecap:butt;stroke-linejoin:miter;stroke-miterlimit:4;stroke-opacity:1;stroke-dasharray:none"
         inkscape:connector-curvature="0" />
      <path
         id="path3206"
         d="m 15.34252,34.866142 1.240158,0.177166 0.35433,2.444882 0.744095,-3.578741 -3.543307,0.779528 1.204724,0.177165 z"
         style="fill:#000000;fill-opacity:1;fill-rule:nonzero;stroke:#000000;stroke-width:0.075px;stroke-linecap:butt;stroke-linejoin:miter;stroke-miterlimit:4;stroke-opacity:1;stroke-dasharray:none"
         inkscape:connector-curvature="0" />
      <path
         id="path3208"
         d="M 20.267717,9.7440947 C -17.078741,25.051182 7.2283467,44.858269 17.574804,34.051182"
         style="fill:none;stroke:#000000;stroke-width:0.3897638px;stroke-linecap:butt;stroke-linejoin:miter;stroke-miterlimit:4;stroke-opacity:1;stroke-dasharray:1.984252, 1.1692914;stroke-dashoffset:0"
         inkscape:connector-curvature="0" />
      <path
         id="path3210"
         d="m 16.901575,13.110236 6.732284,0.03543 0,-6.7677171 -6.732284,0 z"
         style="fill:#ffffff;fill-opacity:1;fill-rule:nonzero;stroke:#000000;stroke-width:0.3897638px;stroke-linecap:butt;stroke-linejoin:miter;stroke-miterlimit:4;stroke-opacity:1;stroke-dasharray:none"
         inkscape:connector-curvature="0" />
      <path
         id="path3212"
         d="m 20.870079,12.153544 -0.566929,0 0,-3.6496068 C 20.161418,8.6456695 19.984253,8.7874017 19.771654,8.893701 19.559056,9.0354332 19.346457,9.1417325 19.169292,9.2125986 l 0,-0.5669291 C 19.48819,8.5039372 19.771654,8.3267718 20.019686,8.1141734 20.232284,7.901575 20.409449,7.6889765 20.515749,7.4763781 l 0.35433,0 z"
         style="fill:#000000;fill-opacity:1;fill-rule:nonzero;stroke:#000000;stroke-width:0.075px;stroke-linecap:butt;stroke-linejoin:miter;stroke-miterlimit:4;stroke-opacity:1;stroke-dasharray:none"
         inkscape:connector-curvature="0" />
      <path
         id="path3214"
         d="m 23.775591,27.744095 c 0,1.948819 -1.559055,3.507874 -3.507874,3.507874 -1.948819,0 -3.507874,-1.559055 -3.507874,-3.507874 0,-1.913386 1.559055,-3.507874 3.507874,-3.507874 1.948819,0 3.507874,1.594488 3.507874,3.507874 z"
         style="fill:#ffffff;fill-opacity:1;fill-rule:nonzero;stroke:#000000;stroke-width:0.3897638px;stroke-linecap:butt;stroke-linejoin:miter;stroke-miterlimit:4;stroke-opacity:1;stroke-dasharray:none"
         inkscape:connector-curvature="0" />
      <path
         id="path3216"
         d="m 20.870079,30.153544 -0.566929,0 0,-3.649606 c -0.141732,0.141732 -0.318897,0.283464 -0.531496,0.389763 -0.212598,0.141733 -0.425197,0.248032 -0.602362,0.318898 l 0,-0.566929 c 0.318898,-0.141732 0.602362,-0.318898 0.850394,-0.531496 0.212598,-0.212599 0.389763,-0.425197 0.496063,-0.637796 l 0.35433,0 z"
         style="fill:#000000;fill-opacity:1;fill-rule:nonzero;stroke:#000000;stroke-width:0.075px;stroke-linecap:butt;stroke-linejoin:miter;stroke-miterlimit:4;stroke-opacity:1;stroke-dasharray:none"
         inkscape:connector-curvature="0" />
    </g>
    <g
       id="g3240"
       transform="translate(62.678461,3.622044)" />
    <g
       id="g3281"
       transform="translate(91.222421,11.504801)">
      <path
         id="path3283"
         d="m 11.267716,7.15748 c 0,2.5157479 -2.019685,4.5 -4.4999998,4.5 -2.4803149,0 -4.4999998,-1.9842521 -4.4999998,-4.5 0,-2.4803149 2.0196849,-4.4999998 4.4999998,-4.4999998 2.4803148,0 4.4999998,2.0196849 4.4999998,4.4999998 z"
         style="fill:#ffffff;fill-opacity:1;fill-rule:nonzero;stroke:#000000;stroke-width:0.38976377px;stroke-linecap:butt;stroke-linejoin:miter;stroke-miterlimit:4;stroke-opacity:1;stroke-dasharray:none"
         inkscape:connector-curvature="0" />
      <path
         id="path3285"
         d="m 11.267716,16.15748 c 0,2.515748 -2.019685,4.499999 -4.4999998,4.499999 -2.4803149,0 -4.4999998,-1.984251 -4.4999998,-4.499999 0,-2.480315 2.0196849,-4.5 4.4999998,-4.5 2.4803148,0 4.4999998,2.019685 4.4999998,4.5 z"
         style="fill:#ffffff;fill-opacity:1;fill-rule:nonzero;stroke:#000000;stroke-width:0.38976377px;stroke-linecap:butt;stroke-linejoin:miter;stroke-miterlimit:4;stroke-opacity:1;stroke-dasharray:none"
         inkscape:connector-curvature="0" />
      <path
         id="path3287"
         d="M 0.31411064,16.258992 3.5030869,13.070015"
         style="fill:#000000;fill-opacity:1;fill-rule:nonzero;stroke:#000000;stroke-width:0.5669291px;stroke-linecap:butt;stroke-linejoin:miter;stroke-miterlimit:4;stroke-opacity:1;stroke-dasharray:none"
         inkscape:connector-curvature="0" />
      <path
         id="path3289"
         d="m 26.220471,16.653543 c 0,2.480314 -2.019685,4.499999 -4.5,4.499999 -2.515748,0 -4.5,-2.019685 -4.5,-4.499999 0,-2.480315 1.984252,-4.5 4.5,-4.5 2.480315,0 4.5,2.019685 4.5,4.5 z"
         style="fill:#ffffff;fill-opacity:1;fill-rule:nonzero;stroke:#000000;stroke-width:0.38976377px;stroke-linecap:butt;stroke-linejoin:miter;stroke-miterlimit:4;stroke-opacity:1;stroke-dasharray:none"
         inkscape:connector-curvature="0" />
      <path
         id="path3291"
         d="m 26.220471,7.653543 c 0,2.480315 -2.019685,4.5 -4.5,4.5 -2.515748,0 -4.5,-2.019685 -4.5,-4.5 0,-2.4803149 1.984252,-4.4999998 4.5,-4.4999998 2.480315,0 4.5,2.0196849 4.5,4.4999998 z"
         style="fill:#ffffff;fill-opacity:1;fill-rule:nonzero;stroke:#000000;stroke-width:0.38976377px;stroke-linecap:butt;stroke-linejoin:miter;stroke-miterlimit:4;stroke-opacity:1;stroke-dasharray:none"
         inkscape:connector-curvature="0" />
      <path
         id="path3293"
         d="M 28.445105,7.2790788 25.256129,10.432621"
         style="fill:#000000;fill-opacity:1;fill-rule:nonzero;stroke:#000000;stroke-width:0.5669291px;stroke-linecap:butt;stroke-linejoin:miter;stroke-miterlimit:4;stroke-opacity:1;stroke-dasharray:none"
         inkscape:connector-curvature="0" />
      <path
         id="path3295"
         d="m 33.129919,13.677165 c 0,1.240157 -1.027559,2.267716 -2.267716,2.267716 -1.240157,0 -2.232283,-1.027559 -2.232283,-2.267716 0,-1.240158 0.992126,-2.232284 2.232283,-2.232284 1.240157,0 2.267716,0.992126 2.267716,2.232284 z"
         style="fill:none;stroke:#000000;stroke-width:0.38976377px;stroke-linecap:butt;stroke-linejoin:miter;stroke-miterlimit:4;stroke-opacity:1;stroke-dasharray:none"
         inkscape:connector-curvature="0" />
      <path
         id="path3297"
         d="m 31.535431,13.677165 c 0,0.389764 -0.283464,0.673228 -0.673228,0.673228 -0.354331,0 -0.673228,-0.283464 -0.673228,-0.673228 0,-0.354331 0.318897,-0.673229 0.673228,-0.673229 0.389764,0 0.673228,0.318898 0.673228,0.673229 z"
         style="fill:#000000;fill-opacity:1;fill-rule:nonzero;stroke:#000000;stroke-width:0.38976377px;stroke-linecap:butt;stroke-linejoin:miter;stroke-miterlimit:4;stroke-opacity:1;stroke-dasharray:none"
         inkscape:connector-curvature="0" />
      <path
         id="path3299"
         d="M 6.6259839,22.464566 6.5551178,0.24803148"
         style="fill:#000000;fill-opacity:1;fill-rule:nonzero;stroke:#000000;stroke-width:0.46062991px;stroke-linecap:butt;stroke-linejoin:miter;stroke-miterlimit:4;stroke-opacity:1;stroke-dasharray:none"
         inkscape:connector-curvature="0" />
      <path
         id="path3301"
         d="M 21.685038,22.925196 21.614172,0.70866139"
         style="fill:#000000;fill-opacity:1;fill-rule:nonzero;stroke:#000000;stroke-width:0.46062991px;stroke-linecap:butt;stroke-linejoin:miter;stroke-miterlimit:4;stroke-opacity:1;stroke-dasharray:none"
         inkscape:connector-curvature="0" />
    </g>
    <g
       id="g3322"
       transform="translate(133.72743,5.7061259)">
      <path
         id="path3324"
         d="m 37.452757,3.7204725 0,27.0000005"
         style="fill:none;stroke:#000000;stroke-width:0.3897638px;stroke-linecap:butt;stroke-linejoin:miter;stroke-miterlimit:4;stroke-opacity:1;stroke-dasharray:none"
         inkscape:connector-curvature="0" />
      <path
         id="path3326"
         d="m 3.6850394,3.7204725 0,27.0000005"
         style="fill:none;stroke:#000000;stroke-width:0.3897638px;stroke-linecap:butt;stroke-linejoin:miter;stroke-miterlimit:4;stroke-opacity:1;stroke-dasharray:none"
         inkscape:connector-curvature="0" />
      <path
         id="path3340"
         d="m 3.6850394,3.7204725 5.42126,0"
         style="fill:#000000;fill-opacity:1;fill-rule:nonzero;stroke:#000000;stroke-width:0.3897638px;stroke-linecap:butt;stroke-linejoin:miter;stroke-miterlimit:4;stroke-opacity:1;stroke-dasharray:none"
         inkscape:connector-curvature="0" />
      <path
         id="path3342"
         d="m 7.1929135,3.7204725 c 0,1.948819 -1.5590551,3.5078741 -3.5078741,3.5078741 -1.9133858,0 -3.47244097,-1.5590551 -3.47244097,-3.5078741 0,-1.9488189 1.55905517,-3.50787407 3.47244097,-3.50787407 1.948819,0 3.5078741,1.55905517 3.5078741,3.50787407 z"
         style="fill:#ffffff;fill-opacity:1;fill-rule:nonzero;stroke:#000000;stroke-width:0.3897638px;stroke-linecap:butt;stroke-linejoin:miter;stroke-miterlimit:4;stroke-opacity:1;stroke-dasharray:none"
         inkscape:connector-curvature="0" />
      <path
         id="path3344"
         d="m 2.1614174,4.8897639 0.5669291,-0.070866 c 0.070866,0.3188976 0.1771654,0.5669291 0.3543307,0.7086614 0.1417323,0.1417323 0.3543307,0.2125984 0.5669292,0.2125984 0.2480315,0 0.496063,-0.1062992 0.6732283,-0.2834646 0.1771654,-0.1771653 0.2834646,-0.4251968 0.2834646,-0.6732283 0,-0.2834646 -0.070866,-0.496063 -0.2480315,-0.6732284 C 4.1811025,3.933071 3.968504,3.8622048 3.6850394,3.8622048 c -0.1062992,0 -0.2480315,0.035433 -0.3897637,0.070866 l 0.070866,-0.496063 c 0.035433,0 0.070866,0 0.070866,0 0.2480315,0 0.46063,-0.070866 0.6732284,-0.2125985 0.1771654,-0.1062992 0.2834646,-0.3188976 0.2834646,-0.5669291 0,-0.2125985 -0.070866,-0.3897638 -0.2125984,-0.5314961 C 4.0393702,1.984252 3.8622048,1.9133859 3.6496064,1.9133859 c -0.2480315,0 -0.4251969,0.070866 -0.5669292,0.2125984 C 2.9409449,2.2677166 2.8346457,2.480315 2.7992127,2.7637796 L 2.2322835,2.6574804 C 2.3031497,2.2677166 2.4448819,1.984252 2.6929134,1.7716536 2.9409449,1.5590552 3.2598426,1.4527559 3.6141733,1.4527559 c 0.2480315,0 0.496063,0.070866 0.7086614,0.1771654 0.2125985,0.1062992 0.3897638,0.2480315 0.496063,0.4251969 0.1062993,0.2125984 0.1771654,0.3897637 0.1771654,0.6023622 0,0.2125984 -0.070866,0.3897638 -0.1771654,0.5669291 -0.1062992,0.1417323 -0.2834645,0.2834646 -0.4606299,0.3897638 0.2480315,0.070866 0.4606299,0.1771654 0.6377953,0.3897638 0.1417323,0.2125984 0.2125984,0.4606299 0.2125984,0.7440945 0,0.4251969 -0.1417323,0.7440945 -0.4251968,1.0275591 C 4.464567,6.0590553 4.1102363,6.2007875 3.6496064,6.2007875 3.2244095,6.2007875 2.9055119,6.0944883 2.6220473,5.8464568 2.3385827,5.5984253 2.1968504,5.2795277 2.1614174,4.8897639 z"
         style="fill:#000000;fill-opacity:1;fill-rule:nonzero;stroke:#000000;stroke-width:0.075px;stroke-linecap:butt;stroke-linejoin:miter;stroke-miterlimit:4;stroke-opacity:1;stroke-dasharray:none"
         inkscape:connector-curvature="0" />
      <path
         id="path3346"
         d="m 7.0866143,13.854331 -6.76771666,0 0,6.732284 6.76771666,0 z"
         style="fill:#ffffff;fill-opacity:1;fill-rule:nonzero;stroke:#000000;stroke-width:0.3897638px;stroke-linecap:butt;stroke-linejoin:miter;stroke-miterlimit:4;stroke-opacity:1;stroke-dasharray:none"
         inkscape:connector-curvature="0" />
      <path
         id="path3348"
         d="m 7.0866143,17.220473 2.0196851,0"
         style="fill:#000000;fill-opacity:1;fill-rule:nonzero;stroke:#000000;stroke-width:0.3897638px;stroke-linecap:butt;stroke-linejoin:miter;stroke-miterlimit:4;stroke-opacity:1;stroke-dasharray:none"
         inkscape:connector-curvature="0" />
      <path
         id="path3350"
         d="m 4.3228347,19.629922 -0.5669291,0 0,-3.649607 C 3.6141733,16.122048 3.4370079,16.26378 3.1889764,16.370079 2.976378,16.511811 2.7637796,16.618111 2.5866142,16.688977 l 0,-0.566929 c 0.3188977,-0.141733 0.6023622,-0.318898 0.8503937,-0.531496 0.2480315,-0.212599 0.4251969,-0.425197 0.496063,-0.637796 l 0.3897638,0 z"
         style="fill:#000000;fill-opacity:1;fill-rule:nonzero;stroke:#000000;stroke-width:0.075px;stroke-linecap:butt;stroke-linejoin:miter;stroke-miterlimit:4;stroke-opacity:1;stroke-dasharray:none"
         inkscape:connector-curvature="0" />
      <path
         id="path3352"
         d="m 7.0866143,27.354331 -6.76771666,0 0,6.732284 6.76771666,0 z"
         style="fill:#ffffff;fill-opacity:1;fill-rule:nonzero;stroke:#000000;stroke-width:0.3897638px;stroke-linecap:butt;stroke-linejoin:miter;stroke-miterlimit:4;stroke-opacity:1;stroke-dasharray:none"
         inkscape:connector-curvature="0" />
      <path
         id="path3354"
         d="m 7.0866143,30.720473 2.0196851,0"
         style="fill:#000000;fill-opacity:1;fill-rule:nonzero;stroke:#000000;stroke-width:0.3897638px;stroke-linecap:butt;stroke-linejoin:miter;stroke-miterlimit:4;stroke-opacity:1;stroke-dasharray:none"
         inkscape:connector-curvature="0" />
      <path
         id="path3356"
         d="m 2.1614174,31.889765 0.5669291,-0.07087 c 0.070866,0.318898 0.1771654,0.56693 0.3543307,0.708662 0.1417323,0.141732 0.3543307,0.212598 0.5669292,0.212598 0.2480315,0 0.496063,-0.106299 0.6732283,-0.283464 0.1771654,-0.177166 0.2834646,-0.425197 0.2834646,-0.673229 0,-0.283464 -0.070866,-0.496063 -0.2480315,-0.673228 -0.1771653,-0.177165 -0.3897638,-0.248032 -0.6732284,-0.248032 -0.1062992,0 -0.2480315,0.03543 -0.3897637,0.07087 l 0.070866,-0.496063 c 0.035433,0 0.070866,0 0.070866,0 0.2480315,0 0.46063,-0.07087 0.6732284,-0.212599 0.1771654,-0.106299 0.2834646,-0.318897 0.2834646,-0.566929 0,-0.212598 -0.070866,-0.389764 -0.2125984,-0.531496 C 4.03937,28.984253 3.8622046,28.913387 3.6496062,28.913387 c -0.2480315,0 -0.4251969,0.07087 -0.5669292,0.212598 -0.1417323,0.141732 -0.2480315,0.354331 -0.2834645,0.637795 l -0.566929,-0.106299 c 0.070866,-0.389764 0.2125984,-0.673228 0.4606299,-0.885827 0.2480315,-0.212598 0.5669292,-0.318897 0.9212599,-0.318897 0.2480315,0 0.496063,0.07087 0.7086614,0.177165 0.2125985,0.106299 0.3897638,0.248031 0.496063,0.425197 0.1062993,0.212598 0.1771654,0.389764 0.1771654,0.602362 0,0.212598 -0.070866,0.389764 -0.1771654,0.566929 -0.1062992,0.141732 -0.2834645,0.283465 -0.4606299,0.389764 0.2480315,0.07087 0.4606299,0.177165 0.6377953,0.389764 0.1417323,0.212598 0.2125984,0.46063 0.2125984,0.744094 0,0.425197 -0.1417323,0.744095 -0.4251968,1.027559 -0.3188977,0.283465 -0.6732284,0.425197 -1.1338583,0.425197 -0.4251969,0 -0.7440945,-0.106299 -1.0275591,-0.354331 C 2.3385827,32.598426 2.1968504,32.279528 2.1614174,31.889765 z"
         style="fill:#000000;fill-opacity:1;fill-rule:nonzero;stroke:#000000;stroke-width:0.075px;stroke-linecap:butt;stroke-linejoin:miter;stroke-miterlimit:4;stroke-opacity:1;stroke-dasharray:none"
         inkscape:connector-curvature="0" />
      <path
         id="path3358"
         d="m 37.452757,3.7204725 -5.385827,0"
         style="fill:#000000;fill-opacity:1;fill-rule:nonzero;stroke:#000000;stroke-width:0.3897638px;stroke-linecap:butt;stroke-linejoin:miter;stroke-miterlimit:4;stroke-opacity:1;stroke-dasharray:none"
         inkscape:connector-curvature="0" />
      <path
         id="path3360"
         d="m 40.960631,3.7204725 c 0,1.948819 -1.594488,3.5078741 -3.507874,3.5078741 -1.948819,0 -3.507874,-1.5590551 -3.507874,-3.5078741 0,-1.9488189 1.559055,-3.50787407 3.507874,-3.50787407 1.913386,0 3.507874,1.55905517 3.507874,3.50787407 z"
         style="fill:#ffffff;fill-opacity:1;fill-rule:nonzero;stroke:#000000;stroke-width:0.3897638px;stroke-linecap:butt;stroke-linejoin:miter;stroke-miterlimit:4;stroke-opacity:1;stroke-dasharray:none"
         inkscape:connector-curvature="0" />
      <path
         id="path3362"
         d="m 38.905513,5.5629923 0,0.5669291 -3.082678,0 c 0,-0.1417323 0.03543,-0.2834646 0.07087,-0.3897638 C 36.000001,5.5275592 36.1063,5.3149608 36.283465,5.1023623 36.460631,4.925197 36.708662,4.6771655 37.02756,4.3937009 37.523623,4.0039371 37.877954,3.6496064 38.055119,3.437008 38.232284,3.1889765 38.30315,2.940945 38.30315,2.7283465 c 0,-0.2125984 -0.07087,-0.4251968 -0.212598,-0.5669291 -0.177165,-0.1417323 -0.389764,-0.2480315 -0.637795,-0.2480315 -0.283465,0 -0.496063,0.1062992 -0.673229,0.2480315 -0.177165,0.1771653 -0.248031,0.4251968 -0.248031,0.7086614 l -0.602362,-0.070866 c 0.07087,-0.4251969 0.212598,-0.7795276 0.46063,-0.992126 0.283464,-0.2480315 0.637795,-0.3543308 1.062992,-0.3543308 0.46063,0 0.81496,0.1417323 1.062992,0.3897638 0.248031,0.2480315 0.389764,0.5314961 0.389764,0.9212599 0,0.1771654 -0.03543,0.3543307 -0.1063,0.5314961 -0.07087,0.1771653 -0.212598,0.3897638 -0.389763,0.5669291 -0.177166,0.2125984 -0.46063,0.4606299 -0.885827,0.8149607 -0.318898,0.2834645 -0.566929,0.496063 -0.637795,0.6023622 -0.1063,0.1062992 -0.177166,0.2125984 -0.248032,0.2834646 z"
         style="fill:#000000;fill-opacity:1;fill-rule:nonzero;stroke:#000000;stroke-width:0.075px;stroke-linecap:butt;stroke-linejoin:miter;stroke-miterlimit:4;stroke-opacity:1;stroke-dasharray:none"
         inkscape:connector-curvature="0" />
      <path
         id="path3364"
         d="m 37.452757,17.220473 -5.385827,0"
         style="fill:#000000;fill-opacity:1;fill-rule:nonzero;stroke:#000000;stroke-width:0.3897638px;stroke-linecap:butt;stroke-linejoin:miter;stroke-miterlimit:4;stroke-opacity:1;stroke-dasharray:none"
         inkscape:connector-curvature="0" />
      <path
         id="path3366"
         d="m 40.960631,17.220473 c 0,1.948819 -1.594488,3.507874 -3.507874,3.507874 -1.948819,0 -3.507874,-1.559055 -3.507874,-3.507874 0,-1.948819 1.559055,-3.507874 3.507874,-3.507874 1.913386,0 3.507874,1.559055 3.507874,3.507874 z"
         style="fill:#ffffff;fill-opacity:1;fill-rule:nonzero;stroke:#000000;stroke-width:0.3897638px;stroke-linecap:butt;stroke-linejoin:miter;stroke-miterlimit:4;stroke-opacity:1;stroke-dasharray:none"
         inkscape:connector-curvature="0" />
      <path
         id="path3368"
         d="m 38.055119,19.629922 -0.566929,0 0,-3.649607 c -0.141733,0.141733 -0.318898,0.283465 -0.531496,0.389764 -0.212599,0.141732 -0.425197,0.248032 -0.602363,0.318898 l 0,-0.566929 c 0.318898,-0.141733 0.602363,-0.318898 0.814961,-0.531496 0.248032,-0.212599 0.425197,-0.425197 0.531496,-0.637796 l 0.354331,0 z"
         style="fill:#000000;fill-opacity:1;fill-rule:nonzero;stroke:#000000;stroke-width:0.075px;stroke-linecap:butt;stroke-linejoin:miter;stroke-miterlimit:4;stroke-opacity:1;stroke-dasharray:none"
         inkscape:connector-curvature="0" />
      <path
         id="path3370"
         d="m 34.086615,34.086615 6.732284,0 0,-6.732284 -6.732284,0 z"
         style="fill:#ffffff;fill-opacity:1;fill-rule:nonzero;stroke:#000000;stroke-width:0.3897638px;stroke-linecap:butt;stroke-linejoin:miter;stroke-miterlimit:4;stroke-opacity:1;stroke-dasharray:none"
         inkscape:connector-curvature="0" />
      <path
         id="path3372"
         d="m 34.086615,30.720473 -2.019685,0"
         style="fill:#000000;fill-opacity:1;fill-rule:nonzero;stroke:#000000;stroke-width:0.3897638px;stroke-linecap:butt;stroke-linejoin:miter;stroke-miterlimit:4;stroke-opacity:1;stroke-dasharray:none"
         inkscape:connector-curvature="0" />
      <path
         id="path3374"
         d="m 38.905513,32.562993 0,0.566929 -3.082678,0 c 0,-0.141732 0.03543,-0.283465 0.07087,-0.389764 0.106299,-0.212598 0.212598,-0.425197 0.389763,-0.637795 0.177166,-0.177165 0.425197,-0.425197 0.744095,-0.708661 0.496063,-0.389764 0.850394,-0.744095 1.027559,-0.956693 0.177165,-0.248032 0.248031,-0.496063 0.248031,-0.708662 0,-0.212598 -0.07087,-0.425197 -0.212598,-0.566929 -0.177165,-0.141732 -0.389764,-0.248031 -0.637795,-0.248031 -0.283465,0 -0.496063,0.106299 -0.673229,0.248031 -0.177165,0.177165 -0.248031,0.425197 -0.248031,0.708661 l -0.602362,-0.07087 c 0.07087,-0.425197 0.212598,-0.779527 0.46063,-0.992126 0.283464,-0.248031 0.637795,-0.35433 1.062992,-0.35433 0.46063,0 0.81496,0.141732 1.062992,0.389763 0.248031,0.248032 0.389764,0.531496 0.389764,0.92126 0,0.177166 -0.03543,0.354331 -0.1063,0.531496 -0.07087,0.177166 -0.212598,0.389764 -0.389763,0.566929 -0.177166,0.212599 -0.46063,0.46063 -0.885827,0.814961 -0.318898,0.283465 -0.566929,0.496063 -0.637795,0.602362 -0.1063,0.1063 -0.177166,0.212599 -0.248032,0.283465 z"
         style="fill:#000000;fill-opacity:1;fill-rule:nonzero;stroke:#000000;stroke-width:0.075px;stroke-linecap:butt;stroke-linejoin:miter;stroke-miterlimit:4;stroke-opacity:1;stroke-dasharray:none"
         inkscape:connector-curvature="0" />
    </g>
    <line
       style="stroke:#000000;stroke-dasharray:3, 2"
       x1="180.94606"
       y1="2.1845102e-007"
       x2="180.94606"
       y2="45"
       id="line46-4" />
    <circle
       style="fill:#ffffff;stroke:#000000;stroke-width:0.40000001;font-family:Helvetica"
       sodipodi:ry="4.5"
       sodipodi:rx="4.5"
       sodipodi:cy="31.49999"
       sodipodi:cx="42.75"
       transform="translate(150.62787,1.4774023)"
       cx="42.75"
       cy="31.49999"
       r="4.5"
       id="circle42"
       d="m 47.25,31.49999 c 0,2.485282 -2.014719,4.5 -4.5,4.5 -2.485281,0 -4.5,-2.014718 -4.5,-4.5 0,-2.485281 2.014719,-4.5 4.5,-4.5 2.485281,0 4.5,2.014719 4.5,4.5 z" />
    <circle
       style="fill:#ffffff;stroke:#000000;stroke-width:0.40000001;font-family:Helvetica"
       sodipodi:ry="4.5"
       sodipodi:rx="4.5"
       sodipodi:cy="31.50001"
       sodipodi:cx="51.75"
       transform="translate(150.62787,1.4774023)"
       cx="51.75"
       cy="31.50001"
       r="4.5"
       id="circle44"
       d="m 56.25,31.50001 c 0,2.485281 -2.014719,4.5 -4.5,4.5 -2.485281,0 -4.5,-2.014719 -4.5,-4.5 0,-2.485282 2.014719,-4.5 4.5,-4.5 2.485281,0 4.5,2.014718 4.5,4.5 z" />
    <line
       style="fill:#000000;stroke:#000000;stroke-width:0.40000001;font-family:Helvetica"
       x1="202.201"
       y1="39.202621"
       x2="199.021"
       y2="36.022621"
       id="line46-1" />
    <circle
       style="fill:#ffffff;stroke:#000000;stroke-width:0.40000001;font-family:Helvetica"
       sodipodi:ry="4.5"
       sodipodi:rx="4.5"
       sodipodi:cy="31.49999"
       sodipodi:cx="42.75"
       transform="translate(150.62787,-13.570945)"
       cx="42.75"
       cy="31.49999"
       r="4.5"
       id="circle42-5"
       d="m 47.25,31.49999 c 0,2.485282 -2.014719,4.5 -4.5,4.5 -2.485281,0 -4.5,-2.014718 -4.5,-4.5 0,-2.485281 2.014719,-4.5 4.5,-4.5 2.485281,0 4.5,2.014719 4.5,4.5 z" />
    <circle
       style="fill:#ffffff;stroke:#000000;stroke-width:0.40000001;font-family:Helvetica"
       sodipodi:ry="4.5"
       sodipodi:rx="4.5"
       sodipodi:cy="31.50001"
       sodipodi:cx="51.75"
       transform="translate(150.62787,-13.570945)"
       cx="51.75"
       cy="31.50001"
       r="4.5"
       id="circle44-1"
       d="m 56.25,31.50001 c 0,2.485281 -2.014719,4.5 -4.5,4.5 -2.485281,0 -4.5,-2.014719 -4.5,-4.5 0,-2.485282 2.014719,-4.5 4.5,-4.5 2.485281,0 4.5,2.014718 4.5,4.5 z" />
    <line
       style="fill:#000000;stroke:#000000;stroke-width:0.40000001;font-family:Helvetica"
       x1="196.55786"
       y1="14.749056"
       x2="193.37785"
       y2="11.569056"
       id="line46-1-7" />
    <line
       style="fill:#000000;stroke:#000000;stroke-width:0.48627746;font-family:Helvetica"
       x1="187.52643"
       y1="17.904264"
       x2="208.36386"
       y2="17.904264"
       id="line78" />
    <line
       style="fill:#000000;stroke:#000000;stroke-width:0.4718591;font-family:Helvetica"
       x1="187.45915"
       y1="33.174038"
       x2="208.29659"
       y2="33.174038"
       id="line78-1" />
    <circle
       style="fill:none;stroke:#000000;stroke-width:0.40000001;font-family:Helvetica"
       sodipodi:ry="2.25"
       sodipodi:rx="2.25"
       sodipodi:cy="9"
       sodipodi:cx="222.75"
       transform="translate(-24.87213,31.041843)"
       cx="222.75"
       cy="9"
       r="2.25"
       id="circle66-2"
       d="m 225,9 c 0,1.242641 -1.00736,2.25 -2.25,2.25 -1.24264,0 -2.25,-1.007359 -2.25,-2.25 0,-1.2426407 1.00736,-2.25 2.25,-2.25 1.24264,0 2.25,1.0073593 2.25,2.25 z" />
    <circle
       style="fill:#000000;stroke:#000000;stroke-width:0.40000001;font-family:Helvetica"
       sodipodi:ry="0.67000002"
       sodipodi:rx="0.67000002"
       sodipodi:cy="9"
       sodipodi:cx="222.75"
       transform="translate(-24.87213,31.041843)"
       cx="222.75"
       cy="9"
       r="0.67000002"
       id="circle68-4"
       d="m 223.42,9 c 0,0.3700308 -0.29997,0.67 -0.67,0.67 -0.37003,0 -0.67,-0.2999692 -0.67,-0.67 0,-0.3700308 0.29997,-0.67 0.67,-0.67 0.37003,0 0.67,0.2999692 0.67,0.67 z" />
    <text
       x="62.636654"
       y="26.963409"
       font-size="10"
       font-weight="bold"
       style="font-size:9.99978733000000020px;font-weight:bold;fill:#000000;stroke:#000000;stroke-width:0.00099998000000000;font-family:Helvetica;-inkscape-font-specification:Sans Bold"
       id="text18-1"
       transform="scale(0.99997871,1.0000213)">S &amp;</text>
    <text
       x="145.91045"
       y="26.963409"
       font-size="10"
       font-weight="bold"
       style="font-size:9.99978733000000020px;font-weight:bold;fill:#000000;stroke:#000000;stroke-width:0.00099998000000000;font-family:Helvetica;-inkscape-font-specification:Sans Bold"
       id="text18-1-7"
       transform="scale(0.99997871,1.0000213)">S &amp;</text>
    <text
       x="59.649208"
       y="37.48909"
       font-size="10"
       font-weight="bold"
       style="font-size:9.99978733000000020px;font-weight:bold;fill:#000000;stroke:#000000;stroke-width:0.00099998000000000;font-family:Helvetica;-inkscape-font-specification:Sans Bold"
       id="text18-1-9"
       transform="scale(0.99997871,1.0000213)">LINK</text>
    <text
       x="142.84299"
       y="37.489201"
       font-size="10"
       font-weight="bold"
       style="font-size:9.99978733000000020px;font-weight:bold;fill:#000000;stroke:#000000;stroke-width:0.00099998000000000;font-family:Helvetica;-inkscape-font-specification:Sans Bold"
       id="text18-1-9-8"
       transform="scale(0.99997871,1.0000213)">LINK</text>
    <text
       x="64.127251"
       y="8.6536407"
       font-size="10"
       font-weight="bold"
       style="font-size:6px;font-weight:normal;fill:#000000;stroke:#000000;stroke-width:0.00099998;font-family:Helvetica;-inkscape-font-specification:Sans"
       id="text18-1-2"
       transform="scale(0.99997871,1.0000213)">2 1x 3</text>
    <text
       x="190.49962"
       y="8.6536407"
       font-size="10"
       font-weight="bold"
       style="font-size:6px;font-weight:normal;fill:#000000;stroke:#000000;stroke-width:0.00099998;font-family:Helvetica;-inkscape-font-specification:Sans"
       id="text18-1-2-4"
       transform="scale(0.99997871,1.0000213)">3 1 2</text>
  </g>
</svg>
