<?xml version="1.0" standalone="no"?>
<!DOCTYPE svg PUBLIC "-//W3C//DTD SVG 1.1//EN"
"http://www.w3.org/Graphics/SVG/1.1/DTD/svg11.dtd">
<!-- Creator: fig2dev Version 3.2 Patchlevel 5d -->
<!-- CreationDate: Thu Feb 21 11:10:14 2013 -->
<!-- Magnification: 1.050 -->
<svg	xmlns="http://www.w3.org/2000/svg"
	xmlns:xlink="http://www.w3.org/1999/xlink"
	viewBox="-23 -23 6140 1605">
<g style="stroke-width:.025in; fill:none">
<!-- Text -->
<text xml:space="preserve" x="4866" y="283" fill="#000000"  font-family="Helvetica" font-style="normal" font-weight="normal" font-size="177" text-anchor="end">Yankee Sampler</text>
<!-- Line -->
<polyline points="566,566
472,566
" style="stroke:#000000;stroke-width:8;
stroke-linejoin:miter; stroke-linecap:butt;
"/>
<!-- Text -->
<text xml:space="preserve" x="330" y="614" fill="#000000"  font-family="Helvetica" font-style="normal" font-weight="bold" font-size="114" text-anchor="middle">1 2</text>
<!-- Text -->
<text xml:space="preserve" x="377" y="1039" fill="#000000"  font-family="Helvetica" font-style="normal" font-weight="bold" font-size="227" text-anchor="middle">RA</text>
<!-- Circle -->
<circle cx="755" cy="1228" r="94"
 style="stroke:#000000;stroke-width:16;"/>
<!-- Text -->
<text xml:space="preserve" x="755" y="1275" fill="#000000"  font-family="Helvetica" font-style="normal" font-weight="bold" font-size="114" text-anchor="middle">1</text>
<!-- Line: box -->
<rect x="661" y="566" width="188" height="188" rx="0" 
style="stroke:#000000;stroke-width:16;
stroke-linejoin:miter; stroke-linecap:butt;
"/>
<!-- Text -->
<text xml:space="preserve" x="755" y="708" fill="#000000"  font-family="Helvetica" font-style="normal" font-weight="bold" font-size="114" text-anchor="middle">1</text>
<!-- Line -->
<polyline points="755,566
755,565
755,562
758,554
760,540
763,524
768,508
773,492
781,478
789,467
800,456
811,448
827,440
836,436
848,432
860,429
873,426
887,423
902,422
918,420
934,419
951,420
966,423
983,426
1000,431
1016,437
1030,445
1045,453
1059,464
1071,475
1082,488
1092,502
1102,519
1109,534
1114,551
1120,570
1125,591
1129,613
1132,639
1134,667
1137,699
1139,733
1140,771
1141,812
1141,855
1141,900
1140,946
1139,992
1138,1035
1137,1074
1135,1108
1135,1135
1135,1118
" style="stroke:#000000;stroke-width:16;
stroke-linejoin:bevel; stroke-linecap:butt;
stroke-dasharray:20 20;"/>
<!-- Arrowhead on XXXpoint 1135 1135 - 1131 1211-->
<polygon points="1103 1137
1131 1202
1166 1140
1103 1137

" style="stroke:#000000;stroke-width:8;stroke-miterlimit:8;
fill:#000000;"/>
<!-- Line -->
<polyline points="755,1086
755,755
" style="stroke:#000000;stroke-width:16;
stroke-linejoin:bevel; stroke-linecap:butt;
"/>
<!-- Line -->
<polyline points="1133,614
1133,645
" style="stroke:#000000;stroke-width:16;
stroke-linejoin:bevel; stroke-linecap:butt;
"/>
<!-- Arrowhead on XXXpoint 1133 614 - 1133 740-->
<polygon points="1102 667
1133 730
1165 667
1102 667

" style="stroke:#000000;stroke-width:8;stroke-miterlimit:8;
fill:#000000;"/>
<!-- Text -->
<text xml:space="preserve" x="1039" y="1275" fill="#000000"  font-family="Helvetica" font-style="normal" font-weight="bold" font-size="114" text-anchor="middle">2</text>
<!-- Text -->
<text xml:space="preserve" x="1039" y="708" fill="#000000"  font-family="Helvetica" font-style="normal" font-weight="bold" font-size="114" text-anchor="middle">2</text>
<!-- Line -->
<polyline points="1292,1275
1261,1275
" style="stroke:#000000;stroke-width:16;
stroke-linejoin:miter; stroke-linecap:butt;
"/>
<!-- Arrowhead on XXXpoint 1417 1275 - 1196 1275-->
<polyline points="1271 1212
1208 1275
1271 1338
" style="stroke:#000000;stroke-width:16;stroke-miterlimit:8;
"/>
<!-- Arrowhead on XXXpoint 1228 1275 - 1448 1275-->
<polygon points="1441 1338
1441 1212

" style="stroke:#000000;stroke-width:16;stroke-miterlimit:8;
fill:#000000;"/>
<!-- Text -->
<text xml:space="preserve" x="1322" y="1464" fill="#000000"  font-family="Helvetica" font-style="normal" font-weight="normal" font-size="114" text-anchor="middle">5-6</text>
<!-- Text -->
<text xml:space="preserve" x="1322" y="1181" fill="#000000"  font-family="Helvetica" font-style="normal" font-weight="bold" font-size="114" text-anchor="middle">2</text>
<!-- Line -->
<polyline points="5480,661
5385,661
" style="stroke:#000000;stroke-width:8;
stroke-linejoin:miter; stroke-linecap:butt;
"/>
<!-- Line -->
<polyline points="5858,661
5763,661
" style="stroke:#000000;stroke-width:8;
stroke-linejoin:miter; stroke-linecap:butt;
"/>
<!-- Text -->
<text xml:space="preserve" x="5622" y="708" fill="#000000"  font-family="Helvetica" font-style="normal" font-weight="bold" font-size="114" text-anchor="middle">2 1</text>
<!-- Text -->
<text xml:space="preserve" x="5669" y="1133" fill="#000000"  font-family="Helvetica" font-style="normal" font-weight="bold" font-size="227" text-anchor="middle">RL</text>
<!-- Line -->
<polyline points="4944,1275
4973,1275
" style="stroke:#000000;stroke-width:16;
stroke-linejoin:miter; stroke-linecap:butt;
"/>
<!-- Arrowhead on XXXpoint 4818 1275 - 5039 1275-->
<polyline points="4964 1338
5027 1275
4964 1212
" style="stroke:#000000;stroke-width:16;stroke-miterlimit:8;
"/>
<!-- Arrowhead on XXXpoint 5007 1275 - 4787 1275-->
<polygon points="4795 1212
4795 1338

" style="stroke:#000000;stroke-width:16;stroke-miterlimit:8;
fill:#000000;"/>
<!-- Text -->
<text xml:space="preserve" x="4913" y="1464" fill="#000000"  font-family="Helvetica" font-style="normal" font-weight="normal" font-size="114" text-anchor="middle">23-24</text>
<!-- Text -->
<text xml:space="preserve" x="4913" y="1181" fill="#000000"  font-family="Helvetica" font-style="normal" font-weight="bold" font-size="114" text-anchor="middle">3</text>
<!-- Arc -->
<path style="stroke:#000000;stroke-width:16;stroke-linecap:butt;"
d="M 5007,897 A 94 94  0  0  0  4818  897 " />
<!-- Arrowhead on XXXpoint 4825 862 - 4818 897-->
<polygon points="4793 855
4819 892
4855 866
4793 855

" style="stroke:#000000;stroke-width:8;stroke-miterlimit:8;
fill:#000000;"/>
<!-- Text -->
<text xml:space="preserve" x="4913" y="944" fill="#000000"  font-family="Helvetica" font-style="normal" font-weight="bold" font-size="114" text-anchor="middle">1</text>
<!-- Arc -->
<path style="stroke:#000000;stroke-width:16;stroke-linecap:butt;"
d="M 3921,897 A 94 94  0  0  1  4110  897 " />
<!-- Arrowhead on XXXpoint 4103 862 - 4110 897-->
<polygon points="4072 866
4109 892
4134 855
4072 866

" style="stroke:#000000;stroke-width:8;stroke-miterlimit:8;
fill:#000000;"/>
<!-- Text -->
<text xml:space="preserve" x="4015" y="944" fill="#000000"  font-family="Helvetica" font-style="normal" font-weight="bold" font-size="114" text-anchor="middle">1</text>
<!-- Line -->
<polyline points="3779,850
3510,850
" style="stroke:#000000;stroke-width:16;
stroke-linejoin:miter; stroke-linecap:butt;
"/>
<!-- Arrowhead on XXXpoint 3779 850 - 3417 850-->
<polygon points="3489 818
3426 850
3489 881
3489 818

" style="stroke:#000000;stroke-width:8;stroke-miterlimit:8;
fill:#000000;"/>
<!-- Line -->
<polyline points="4299,850
4566,850
" style="stroke:#000000;stroke-width:16;
stroke-linejoin:miter; stroke-linecap:butt;
"/>
<!-- Arrowhead on XXXpoint 4299 850 - 4661 850-->
<polygon points="4588 881
4651 850
4588 818
4588 881

" style="stroke:#000000;stroke-width:8;stroke-miterlimit:8;
fill:#000000;"/>
<!-- Line -->
<polyline points="3040,1275
3009,1275
" style="stroke:#000000;stroke-width:16;
stroke-linejoin:miter; stroke-linecap:butt;
"/>
<!-- Arrowhead on XXXpoint 3165 1275 - 2944 1275-->
<polyline points="3019 1212
2956 1275
3019 1338
" style="stroke:#000000;stroke-width:16;stroke-miterlimit:8;
"/>
<!-- Arrowhead on XXXpoint 2976 1275 - 3196 1275-->
<polygon points="3189 1338
3189 1212

" style="stroke:#000000;stroke-width:16;stroke-miterlimit:8;
fill:#000000;"/>
<!-- Text -->
<text xml:space="preserve" x="3070" y="1464" fill="#000000"  font-family="Helvetica" font-style="normal" font-weight="normal" font-size="114" text-anchor="middle">13-14</text>
<!-- Text -->
<text xml:space="preserve" x="3070" y="1181" fill="#000000"  font-family="Helvetica" font-style="normal" font-weight="bold" font-size="114" text-anchor="middle">3</text>
<!-- Line -->
<polyline points="1795,566
1700,566
" style="stroke:#000000;stroke-width:8;
stroke-linejoin:miter; stroke-linecap:butt;
"/>
<!-- Line -->
<polyline points="2173,566
2078,566
" style="stroke:#000000;stroke-width:8;
stroke-linejoin:miter; stroke-linecap:butt;
"/>
<!-- Text -->
<text xml:space="preserve" x="1937" y="614" fill="#000000"  font-family="Helvetica" font-style="normal" font-weight="bold" font-size="114" text-anchor="middle">1 3</text>
<!-- Text -->
<text xml:space="preserve" x="1984" y="1039" fill="#000000"  font-family="Helvetica" font-style="normal" font-weight="bold" font-size="227" text-anchor="middle">LA</text>
<!-- Circle -->
<circle cx="2409" cy="566" r="94"
 style="stroke:#000000;stroke-width:16;"/>
<!-- Text -->
<text xml:space="preserve" x="2409" y="614" fill="#000000"  font-family="Helvetica" font-style="normal" font-weight="bold" font-size="114" text-anchor="middle">1</text>
<!-- Line: box -->
<rect x="2314" y="1039" width="188" height="188" rx="0" 
style="stroke:#000000;stroke-width:16;
stroke-linejoin:miter; stroke-linecap:butt;
"/>
<!-- Text -->
<text xml:space="preserve" x="2409" y="1181" fill="#000000"  font-family="Helvetica" font-style="normal" font-weight="bold" font-size="114" text-anchor="middle">1</text>
<!-- Line -->
<polyline points="2409,1039
2409,708
" style="stroke:#000000;stroke-width:16;
stroke-linejoin:bevel; stroke-linecap:butt;
"/>
<!-- Line -->
<polyline points="2409,1229
2409,1230
2409,1233
2411,1241
2413,1255
2416,1271
2422,1288
2427,1303
2434,1317
2443,1329
2453,1339
2465,1348
2480,1355
2491,1359
2503,1364
2518,1369
2533,1372
2550,1375
2566,1378
2584,1380
2603,1381
2623,1381
2642,1380
2661,1379
2680,1377
2698,1373
2714,1369
2730,1362
2745,1356
2759,1348
2771,1339
2784,1328
2796,1314
2807,1298
2816,1281
2826,1262
2834,1243
2841,1220
2848,1198
2853,1175
2858,1151
2862,1128
2866,1106
2868,1084
2870,1063
2872,1043
2874,1023
2875,1002
2876,981
2877,960
2878,940
2878,920
2879,901
2879,883
2879,867
2878,851
2878,836
2877,824
2876,813
2875,803
2874,795
2872,787
2869,780
2867,773
2864,768
2859,764
2855,761
2851,759
2847,758
2841,756
2836,755
2832,755
2827,755
2817,755
2808,755
2795,755
2780,755
2802,755
" style="stroke:#000000;stroke-width:16;
stroke-linejoin:bevel; stroke-linecap:butt;
stroke-dasharray:20 20;"/>
<!-- Arrowhead on XXXpoint 2780 755 - 2708 755-->
<polygon points="2781 724
2718 755
2781 787
2781 724

" style="stroke:#000000;stroke-width:8;stroke-miterlimit:8;
fill:#000000;"/>
<!-- Line -->
<polyline points="2881,992
2880,991
2872,983
2859,973
2848,963
2836,957
2827,953
2817,950
2808,949
2795,946
2780,945
2802,945
" style="stroke:#000000;stroke-width:16;
stroke-linejoin:bevel; stroke-linecap:butt;
"/>
<!-- Arrowhead on XXXpoint 2780 945 - 2708 943-->
<polygon points="2781 913
2718 943
2780 976
2781 913

" style="stroke:#000000;stroke-width:8;stroke-miterlimit:8;
fill:#000000;"/>
<!-- Text -->
<text xml:space="preserve" x="2692" y="1181" fill="#000000"  font-family="Helvetica" font-style="normal" font-weight="bold" font-size="114" text-anchor="middle">3</text>
<!-- Text -->
<text xml:space="preserve" x="2692" y="614" fill="#000000"  font-family="Helvetica" font-style="normal" font-weight="bold" font-size="114" text-anchor="middle">3</text>
<!-- Line -->
<polyline points="0,377
6094,377
" style="stroke:#000000;stroke-width:16;
stroke-linejoin:miter; stroke-linecap:butt;
"/>
<!-- Line: box -->
<rect x="0" y="0" width="6094" height="1511" rx="0" 
style="stroke:#000000;stroke-width:16;
stroke-linejoin:miter; stroke-linecap:butt;
"/>
<!-- Line -->
<polyline points="1511,377
1511,1511
" style="stroke:#000000;stroke-width:16;
stroke-linejoin:miter; stroke-linecap:butt;
"/>
<!-- Line -->
<polyline points="5196,377
5196,1511
" style="stroke:#000000;stroke-width:16;
stroke-linejoin:miter; stroke-linecap:butt;
"/>
<!-- Line -->
<polyline points="3307,425
3307,1559
" style="stroke:#000000;stroke-width:16;
stroke-linejoin:miter; stroke-linecap:butt;
"/>
<!-- Text -->
<text xml:space="preserve" x="6047" y="283" fill="#000000"  font-family="Helvetica" font-style="normal" font-weight="normal" font-size="227" text-anchor="end">R8x32</text>
<!-- Text -->
<text xml:space="preserve" x="94" y="283" fill="#000000"  font-family="Helvetica" font-style="normal" font-weight="normal" font-size="227" text-anchor="start">Nessie's Reel</text>
<!-- Line -->
<polyline points="188,566
94,566
" style="stroke:#000000;stroke-width:8;
stroke-linejoin:miter; stroke-linecap:butt;
"/>
</g>
</svg>
