<?xml version="1.0" standalone="no"?>
<!DOCTYPE svg PUBLIC "-//W3C//DTD SVG 20010904//EN"
 "http://www.w3.org/TR/2001/REC-SVG-20010904/DTD/svg10.dtd">
<svg version="1.0" xmlns="http://www.w3.org/2000/svg"
 width="1278.000000pt" height="450.000000pt" viewBox="0 0 1278.000000 450.000000"
 preserveAspectRatio="xMidYMid meet">

<g transform="translate(0.000000,450.000000) scale(0.100000,-0.100000)"
fill="#000000" stroke="none">
<path d="M210 2250 l0 -2100 6180 0 6180 0 0 2100 0 2100 -6180 0 -6180 0 0
-2100z m12340 1600 l0 -490 -6160 0 -6160 0 -2 403 c-2 221 -2 441 0 490 l3
87 6159 0 6160 0 0 -490z m-9962 -1722 l2 -1218 -1180 0 -1180 0 -2 1133 c-2
622 -2 1171 0 1220 l3 87 1177 -2 1177 -3 3 -1217z m2602 2 l0 -1220 -1295 0
-1295 0 0 1220 0 1220 1295 0 1295 0 0 -1220z m3248 -2 l2 -1218 -1620 0
-1620 0 0 1213 c0 668 3 1217 7 1220 3 4 731 6 1617 5 l1611 -3 3 -1217z
m4112 2 l0 -1220 -2050 0 -2050 0 0 1220 0 1220 2050 0 2050 0 0 -1220z m0
-1600 l0 -370 -6160 0 -6159 0 -3 283 c-2 155 -2 321 0 370 l3 87 6159 0 6160
0 0 -370z"/>
<path d="M3657 4048 c-21 -6 -54 -26 -72 -44 -86 -86 -65 -277 35 -329 72 -37
205 -24 258 25 20 19 23 30 20 93 l-3 72 -87 3 -88 3 0 -35 c0 -35 1 -35 48
-38 47 -3 49 -5 43 -47 -2 -13 -58 -31 -95 -31 -17 0 -42 7 -54 16 -76 53 -66
214 16 245 41 16 94 4 118 -27 19 -23 27 -26 58 -20 42 8 42 10 16 53 -35 58
-129 85 -213 61z"/>
<path d="M4238 4051 c-47 -15 -90 -53 -109 -95 -25 -54 -25 -148 0 -202 56
-124 231 -140 298 -27 21 37 24 47 12 54 -8 5 -19 9 -26 9 -6 0 -18 2 -26 6
-9 3 -19 -6 -27 -26 -20 -48 -73 -65 -122 -39 -42 23 -62 127 -37 198 23 64
117 79 157 24 16 -23 23 -25 55 -19 21 4 37 10 37 13 0 18 -46 76 -71 88 -36
19 -106 27 -141 16z"/>
<path d="M4990 4049 c-70 -21 -102 -81 -76 -142 16 -40 49 -60 132 -82 64 -16
84 -30 84 -55 0 -51 -93 -68 -135 -25 -14 13 -25 29 -25 35 0 5 -18 10 -41 10
-40 0 -41 -1 -35 -27 22 -90 117 -133 227 -103 74 21 108 100 72 169 -18 35
-38 46 -152 82 -55 18 -74 44 -47 65 29 20 82 18 106 -6 11 -11 20 -25 20 -30
0 -10 67 -4 79 6 11 10 -32 75 -58 89 -41 20 -108 27 -151 14z"/>
<path d="M430 3855 l0 -195 35 0 35 0 0 122 c0 86 3 119 11 111 5 -5 40 -59
77 -119 67 -109 68 -109 110 -112 l42 -3 0 195 0 196 -35 0 -35 0 0 -126 c0
-75 -4 -123 -9 -119 -5 3 -42 59 -82 125 -73 119 -73 120 -111 120 l-38 0 0
-195z"/>
<path d="M821 3933 c0 -162 9 -208 46 -245 26 -26 40 -31 95 -35 49 -4 74 -1
102 12 59 28 69 58 74 233 l5 152 -42 0 -41 0 0 -129 c0 -126 -9 -178 -33
-193 -22 -14 -75 -8 -98 11 -23 18 -24 26 -27 165 l-3 146 -40 0 -39 0 1 -117z"/>
<path d="M1220 3855 l0 -195 150 0 150 0 0 30 0 30 -110 0 -110 0 0 55 0 55
95 0 95 0 0 35 0 35 -95 0 -95 0 0 40 0 40 105 0 105 0 0 35 0 35 -145 0 -145
0 0 -195z"/>
<path d="M1590 3855 l0 -196 38 3 c41 3 39 0 41 96 l1 63 33 -3 c27 -3 40 -14
87 -80 54 -76 56 -78 97 -78 24 0 43 3 43 7 0 14 -84 135 -103 148 -19 13 -18
14 17 29 69 29 83 129 25 182 -18 16 -40 20 -150 23 l-129 3 0 -197z m225 81
c0 -37 -3 -40 -33 -48 -19 -5 -52 -8 -75 -6 -38 3 -41 5 -43 32 -3 63 2 67 80
64 l71 -3 0 -39z"/>
<path d="M1980 3856 l0 -196 40 0 39 0 3 121 3 120 74 -120 c74 -120 75 -121
113 -121 49 0 50 4 46 215 l-3 170 -37 3 -37 3 -3 -127 -3 -127 -76 124 -75
124 -42 3 -42 3 0 -195z"/>
<path d="M2380 3855 l0 -197 134 4 c126 3 136 5 160 27 34 32 43 84 23 126 -9
18 -25 36 -37 40 -20 6 -20 7 5 37 34 40 32 79 -4 120 l-29 33 -126 3 -126 4
0 -197z m225 85 c0 -31 -4 -36 -30 -41 -16 -4 -49 -7 -72 -8 l-43 -1 0 45 0
46 73 -3 72 -3 0 -35z m11 -135 c18 -24 18 -36 0 -60 -11 -15 -30 -20 -85 -23
l-71 -4 0 57 0 57 71 -4 c55 -3 74 -8 85 -23z"/>
<path d="M2780 3855 l0 -195 150 0 150 0 0 30 0 30 -110 0 -110 0 0 55 0 55
95 0 95 0 0 35 0 35 -95 0 -95 0 0 40 0 40 105 0 105 0 0 35 0 35 -145 0 -145
0 0 -195z"/>
<path d="M3140 3855 l0 -195 40 0 40 0 0 80 c0 78 1 80 24 80 43 0 56 -11 107
-86 49 -73 50 -74 94 -74 25 0 45 3 45 6 0 13 -92 144 -108 153 -13 7 -9 12
21 25 81 33 85 150 7 188 -27 14 -61 18 -152 18 l-118 0 0 -195z m228 113 c7
-7 12 -24 12 -40 0 -23 -6 -29 -41 -38 -22 -6 -57 -10 -77 -8 -37 3 -37 4 -40
51 l-3 47 68 0 c40 0 74 -5 81 -12z"/>
<path d="M4636 4042 c-6 -10 -146 -373 -146 -379 0 -2 19 -3 42 -1 39 3 42 5
56 46 l14 42 78 0 78 0 18 -45 c16 -44 18 -45 60 -45 l44 0 -14 33 c-7 17 -42
105 -77 194 l-64 163 -42 0 c-23 0 -44 -4 -47 -8z m73 -162 c12 -30 21 -58 21
-62 0 -5 -23 -8 -51 -8 -35 0 -49 4 -47 13 17 61 43 126 49 120 4 -5 17 -33
28 -63z"/>
<path d="M5250 4015 l0 -35 60 0 60 0 0 -160 0 -160 40 0 40 0 0 160 0 160 55
0 55 0 0 35 0 35 -155 0 -155 0 0 -35z"/>
<path d="M5617 4043 c-4 -3 -7 -91 -7 -195 l0 -188 140 0 140 0 0 30 0 29 -97
3 -98 3 -3 163 -2 162 -34 0 c-18 0 -36 -3 -39 -7z"/>
<path d="M5950 3855 l0 -195 150 0 150 0 0 30 0 30 -110 0 -110 0 0 55 0 55
100 0 100 0 0 35 0 35 -100 0 -100 0 0 40 0 40 105 0 105 0 0 35 0 35 -145 0
-145 0 0 -195z"/>
<path d="M10645 4032 c-16 -11 -35 -33 -41 -50 -11 -30 -11 -31 18 -38 26 -5
34 -2 53 21 17 22 27 27 47 22 45 -12 43 -77 -3 -87 -17 -4 -25 -14 -27 -33
-3 -23 0 -27 21 -27 55 0 79 -85 32 -116 -31 -20 -63 -10 -76 23 -8 22 -14 25
-41 19 -43 -9 -45 -12 -24 -51 33 -62 121 -83 183 -45 68 41 82 132 27 177
l-27 21 22 27 c24 31 27 62 9 100 -24 53 -115 72 -173 37z"/>
<path d="M11254 4031 c-17 -11 -36 -33 -42 -49 -10 -29 -9 -31 21 -38 26 -5
34 -2 50 20 21 29 48 34 67 12 19 -23 8 -59 -22 -74 -37 -17 -40 -62 -5 -62
31 0 57 -29 57 -63 0 -29 -31 -67 -55 -67 -16 0 -50 30 -57 50 -5 15 -68 4
-68 -11 0 -26 33 -68 64 -83 74 -35 157 -5 184 66 18 45 10 82 -24 113 l-26
24 21 27 c31 40 27 80 -13 120 -28 28 -41 34 -77 34 -26 0 -57 -8 -75 -19z"/>
<path d="M11574 4041 c-30 -13 -64 -59 -64 -87 0 -20 5 -24 33 -24 25 0 36 6
49 30 18 32 37 37 69 20 13 -7 19 -21 19 -45 0 -29 -11 -45 -76 -111 -68 -68
-104 -122 -104 -154 0 -6 47 -10 130 -10 l130 0 0 35 0 35 -70 0 c-38 0 -70 3
-70 8 0 4 25 31 56 60 88 84 107 156 56 213 -24 27 -37 33 -83 35 -30 2 -64 0
-75 -5z"/>
<path d="M12120 3902 c0 -162 -7 -187 -51 -180 -16 2 -29 14 -39 35 -9 20 -20
31 -28 28 -8 -3 -23 -5 -34 -5 -18 0 -20 -4 -15 -37 4 -20 18 -48 32 -62 22
-22 34 -26 85 -26 54 0 63 3 92 33 l33 32 3 165 3 165 -40 0 -41 0 0 -148z"/>
<path d="M10890 3934 c0 -3 20 -33 44 -68 l45 -62 -50 -72 -50 -72 44 0 c41 0
47 3 71 40 14 22 28 40 30 40 2 0 15 -18 30 -40 24 -37 30 -40 72 -40 l45 0
-51 74 -52 74 46 63 47 64 -43 3 c-43 3 -46 2 -82 -53 -12 -18 -14 -18 -37 18
-21 33 -29 37 -66 37 -24 0 -43 -3 -43 -6z"/>
<path d="M1213 3083 c-3 -10 -15 -40 -26 -68 -45 -117 -47 -125 -31 -125 8 0
20 14 25 30 10 28 15 30 58 30 43 0 48 -3 58 -30 6 -16 18 -30 27 -30 17 0 21
-12 -44 153 -17 41 -28 57 -42 57 -10 0 -21 -8 -25 -17z m42 -49 c21 -50 19
-54 -15 -54 -16 0 -30 3 -30 6 0 11 23 84 26 84 2 0 11 -16 19 -36z"/>
<path d="M1360 2995 l0 -105 70 0 c40 0 70 4 70 10 0 6 -25 10 -55 10 l-55 0
0 95 c0 78 -3 95 -15 95 -12 0 -15 -18 -15 -105z"/>
<path d="M1530 2995 l0 -105 70 0 c40 0 70 4 70 10 0 6 -25 10 -55 10 l-55 0
0 95 c0 78 -3 95 -15 95 -12 0 -15 -18 -15 -105z"/>
<path d="M509 2318 c-49 -13 -79 -47 -86 -95 -9 -66 46 -110 169 -137 28 -6
58 -31 58 -47 0 -21 -42 -49 -74 -49 -48 0 -65 8 -82 41 -12 24 -21 29 -51 29
-35 0 -35 -1 -29 -32 14 -71 67 -108 155 -108 103 0 155 44 153 128 0 39 -5
51 -31 74 -16 15 -49 32 -73 39 -87 23 -113 36 -116 58 -7 48 105 53 126 6 11
-25 41 -32 75 -19 12 4 13 11 6 34 -14 38 -47 66 -94 79 -46 13 -57 12 -106
-1z"/>
<path d="M2037 2316 c-50 -18 -64 -31 -77 -71 -9 -26 -8 -41 4 -68 16 -40 44
-57 131 -82 69 -20 85 -30 85 -55 0 -28 -33 -50 -78 -50 -42 0 -66 15 -77 50
-5 15 -15 20 -40 20 -44 0 -50 -12 -28 -58 28 -56 74 -82 148 -82 101 0 161
53 151 135 -6 54 -47 88 -134 115 -74 22 -96 38 -86 63 14 38 116 28 129 -12
7 -22 47 -29 73 -12 21 13 -10 76 -45 94 -44 23 -113 29 -156 13z"/>
<path d="M1072 2288 c3 -33 4 -33 60 -36 l58 -3 2 -162 3 -162 35 0 35 0 3
162 2 162 58 3 c56 3 57 4 57 33 l0 30 -158 3 -158 3 3 -33z"/>
<path d="M1420 2015 c0 -96 3 -115 15 -115 11 0 15 12 15 50 0 49 1 50 29 50
29 0 53 -21 91 -79 10 -14 23 -22 34 -20 16 4 14 10 -17 51 l-36 47 25 16 c21
13 25 23 22 53 -4 47 -31 62 -115 62 l-63 0 0 -115z m138 76 c8 -4 12 -19 10
-32 -3 -22 -9 -24 -60 -27 l-58 -3 0 36 0 35 48 0 c26 0 53 -4 60 -9z"/>
<path d="M3677 3033 c-14 -38 -33 -85 -41 -105 -16 -36 -15 -38 3 -38 13 0 20
9 25 30 5 28 8 30 55 30 46 0 50 -2 60 -30 5 -17 17 -30 27 -30 9 0 14 6 11
13 -92 234 -99 239 -140 130z m62 -4 c16 -46 14 -49 -19 -49 -34 0 -34 1 -18
47 15 41 23 42 37 2z"/>
<path d="M3850 2995 l0 -105 65 0 c78 0 88 18 13 22 l-53 3 -2 85 c-1 47 -2
88 -2 93 -1 4 -5 7 -11 7 -6 0 -10 -42 -10 -105z"/>
<path d="M4011 2995 l0 -105 70 0 c80 0 94 18 17 22 l-53 3 -3 93 c-2 72 -6
92 -17 92 -12 0 -15 -20 -14 -105z"/>
<path d="M3187 2319 c-55 -13 -93 -46 -116 -100 -38 -88 -20 -200 40 -256 74
-67 203 -54 256 26 29 43 29 57 -1 65 -13 3 -31 9 -40 12 -11 4 -16 1 -16 -10
0 -9 -11 -28 -25 -41 -32 -33 -87 -34 -119 -2 -45 45 -45 163 -1 215 41 48
127 32 147 -28 3 -11 78 6 78 18 0 4 -9 22 -20 40 -31 51 -112 78 -183 61z"/>
<path d="M3462 2123 l3 -198 38 -3 37 -3 0 91 0 91 78 -3 77 -3 3 -87 3 -88
34 0 35 0 0 200 0 200 -35 0 -34 0 -3 -77 -3 -78 -75 0 -75 0 -3 78 -3 77 -40
0 -39 0 2 -197z"/>
<path d="M3963 2288 c-6 -18 -39 -103 -72 -188 -34 -85 -61 -160 -61 -167 0
-8 13 -13 36 -13 32 0 37 4 55 45 l20 45 78 0 78 0 19 -42 c17 -38 23 -43 57
-46 25 -2 37 1 37 10 0 7 -34 96 -74 198 l-74 185 -44 3 c-42 3 -45 1 -55 -30z
m75 -120 c11 -29 23 -61 27 -70 6 -16 1 -18 -44 -18 -28 0 -51 4 -51 8 0 12
41 132 45 132 2 0 12 -24 23 -52z"/>
<path d="M4242 2123 l3 -198 38 -3 37 -3 0 200 0 201 -40 0 -40 0 2 -197z"/>
<path d="M4403 2123 l2 -198 35 0 35 0 5 124 5 123 78 -126 79 -127 36 3 37 3
3 198 2 197 -39 0 -40 0 -3 -125 -3 -124 -75 122 -75 122 -42 3 -42 3 2 -198z"/>
<path d="M6549 3110 c-60 -10 -112 -49 -147 -109 -19 -32 -27 -123 -14 -159 9
-27 8 -30 -6 -25 -9 3 -25 14 -35 25 -10 10 -25 18 -33 18 -20 0 1 -21 86 -86
113 -86 119 -89 190 -89 54 0 72 5 107 28 24 15 55 46 69 69 25 39 28 41 38
24 62 -107 174 -152 271 -107 152 70 181 263 55 369 -49 42 -142 56 -213 33
-38 -13 -100 -75 -112 -111 -7 -22 -8 -22 -28 11 -55 88 -132 125 -228 109z
m116 -29 c93 -43 137 -141 106 -237 -19 -59 -36 -84 -73 -108 -66 -43 -176
-39 -230 8 -76 67 -91 199 -32 273 36 46 105 83 154 83 19 0 53 -9 75 -19z
m416 -4 c24 -13 57 -42 73 -65 26 -36 30 -52 30 -110 1 -53 -4 -75 -22 -104
-81 -131 -267 -122 -339 15 -26 50 -23 134 7 182 59 98 159 130 251 82z"/>
<path d="M6504 2261 c-86 -39 -131 -120 -121 -221 3 -33 3 -60 0 -60 -2 0 -20
12 -39 26 -49 38 -42 15 9 -28 91 -77 104 -87 145 -108 63 -33 157 -26 209 16
21 17 49 47 62 68 l25 37 14 -28 c38 -74 118 -117 207 -111 73 4 119 33 163
101 22 35 27 53 27 112 0 59 -5 76 -28 112 -15 24 -46 55 -69 70 -36 24 -52
28 -112 28 -61 0 -77 -4 -110 -27 -22 -15 -52 -45 -66 -66 -21 -31 -28 -36
-38 -26 -7 7 -12 17 -12 22 0 16 -65 71 -102 86 -50 21 -114 20 -164 -3z m174
-20 c77 -40 121 -143 96 -226 -25 -85 -77 -132 -162 -148 -39 -8 -119 20 -151
52 -81 81 -84 205 -6 288 49 53 155 69 223 34z m404 -2 c57 -28 87 -67 100
-132 23 -108 -32 -201 -136 -232 -177 -53 -314 162 -200 313 54 70 154 92 236
51z"/>
<path d="M6754 1674 c-40 -20 -59 -55 -57 -107 2 -33 9 -48 34 -71 26 -23 38
-27 69 -23 39 5 80 33 80 54 0 7 5 22 11 32 18 28 -15 95 -58 115 -41 19 -40
19 -79 0z m93 -36 c27 -26 31 -82 7 -116 -19 -27 -88 -31 -116 -5 -24 21 -24
91 0 121 23 29 78 29 109 0z"/>
<path d="M6765 1600 c-18 -20 -18 -21 3 -43 18 -17 26 -19 40 -11 24 16 27 45
6 61 -24 17 -28 17 -49 -7z"/>
<path d="M5402 1354 c-23 -16 -30 -44 -12 -44 6 0 13 6 16 14 15 39 74 28 74
-13 0 -19 -15 -42 -55 -81 -30 -30 -55 -60 -55 -67 0 -9 20 -13 70 -13 56 0
70 3 70 15 0 11 -13 15 -52 15 l-53 0 53 49 c41 38 52 54 52 79 0 34 -29 62
-65 62 -11 0 -31 -7 -43 -16z"/>
<path d="M5820 1336 c0 -34 0 -34 -39 -29 -32 4 -41 2 -55 -18 -23 -33 -21
-94 4 -119 22 -22 60 -26 78 -8 9 9 12 9 12 0 0 -7 5 -12 10 -12 6 0 10 43 10
110 0 67 -4 110 -10 110 -5 0 -10 -15 -10 -34z m-6 -77 c19 -55 -22 -109 -59
-79 -18 15 -20 81 -3 98 20 20 52 10 62 -19z"/>
<path d="M6300 1260 c0 -67 4 -110 10 -110 6 0 10 43 10 110 0 67 -4 110 -10
110 -6 0 -10 -43 -10 -110z"/>
<path d="M7040 1356 c0 -9 7 -16 16 -16 9 0 14 5 12 12 -6 18 -28 21 -28 4z"/>
<path d="M7638 1353 c0 -10 -1 -25 0 -35 1 -13 -6 -15 -36 -11 -29 4 -41 0
-56 -16 -24 -26 -24 -96 0 -122 19 -21 64 -25 82 -7 9 9 12 9 12 0 0 -7 5 -12
10 -12 6 0 10 43 10 110 0 67 -4 110 -10 110 -5 0 -11 -8 -12 -17z m-14 -85
c21 -30 20 -51 -3 -79 -16 -20 -23 -22 -38 -13 -26 16 -37 54 -24 87 13 33 44
36 65 5z"/>
<path d="M6611 1346 c-11 -13 -14 -39 -13 -88 3 -80 14 -108 42 -108 23 0 27
18 5 26 -11 5 -15 21 -15 60 0 41 4 54 15 54 8 0 15 5 15 10 0 6 -6 10 -14 10
-8 0 -16 12 -18 27 -3 24 -4 25 -17 9z"/>
<path d="M6967 1353 c-4 -3 -7 -15 -7 -25 0 -14 -8 -18 -37 -19 -21 -1 -46 -1
-55 0 -16 2 -18 -8 -18 -78 0 -65 3 -81 15 -81 12 0 15 13 15 59 0 64 4 70 51
78 l29 4 0 -66 c0 -69 11 -85 48 -70 16 6 16 7 0 16 -22 12 -26 114 -5 123 10
5 10 7 0 12 -7 3 -13 17 -13 30 0 23 -10 31 -23 17z"/>
<path d="M5550 1228 c0 -62 3 -78 15 -78 10 0 15 16 17 61 3 65 19 88 52 76
12 -5 16 -20 16 -72 0 -51 3 -65 15 -65 12 0 15 13 15 61 0 88 -9 100 -75 97
l-55 -2 0 -78z"/>
<path d="M5984 1289 c-11 -13 -19 -35 -19 -59 0 -50 27 -80 71 -80 25 0 38 7
50 25 22 33 10 45 -16 17 -25 -26 -43 -28 -64 -6 -18 18 -21 56 -6 85 13 23
56 25 68 3 5 -9 14 -15 21 -13 8 3 7 11 -4 27 -21 29 -75 30 -101 1z"/>
<path d="M6124 1295 c-11 -26 1 -198 14 -203 8 -2 12 8 12 32 0 34 2 36 24 30
35 -8 61 3 74 32 17 35 15 75 -4 102 -13 19 -24 22 -66 21 -27 -1 -52 -7 -54
-14z m94 -17 c7 -7 12 -28 12 -48 0 -56 -47 -84 -70 -41 -31 59 16 131 58 89z"/>
<path d="M6452 1298 c-30 -30 -2 -68 61 -84 19 -4 27 -12 25 -23 -4 -21 -51
-26 -68 -7 -16 20 -30 20 -30 1 0 -36 86 -48 114 -16 27 29 12 57 -37 74 -45
15 -64 47 -28 47 12 0 30 -5 41 -12 24 -15 37 -4 20 17 -15 18 -81 20 -98 3z"/>
<path d="M6697 1292 c-21 -23 -21 -32 -3 -32 8 0 17 7 20 16 8 21 60 15 64 -8
2 -12 -5 -19 -25 -23 -55 -12 -73 -24 -73 -48 0 -43 45 -61 91 -37 13 7 19 7
19 0 0 -5 6 -10 13 -10 16 0 11 127 -5 148 -16 19 -82 15 -101 -6z m87 -70 c8
-14 -24 -52 -43 -52 -10 0 -24 6 -30 14 -16 19 7 36 61 45 4 0 9 -3 12 -7z"/>
<path d="M7040 1230 c0 -64 3 -80 15 -80 12 0 15 16 15 80 0 64 -3 80 -15 80
-12 0 -15 -16 -15 -80z"/>
<path d="M7110 1229 c0 -60 3 -80 13 -77 7 3 14 29 17 63 5 61 22 84 54 72 12
-5 16 -20 16 -72 0 -51 3 -65 15 -65 22 0 21 122 -1 144 -18 19 -65 21 -82 4
-9 -9 -12 -9 -12 0 0 7 -4 12 -10 12 -6 0 -10 -34 -10 -81z"/>
<path d="M7285 1287 c-23 -33 -19 -84 10 -112 26 -27 54 -32 73 -13 9 9 12 8
12 -8 0 -41 -59 -62 -78 -28 -5 9 -14 15 -21 13 -25 -9 19 -49 53 -49 59 0 69
16 74 122 l4 94 -56 2 c-47 1 -58 -2 -71 -21z m83 -9 c17 -17 15 -74 -4 -92
-18 -19 -20 -19 -45 -6 -14 8 -19 21 -19 48 0 40 14 62 40 62 9 0 21 -5 28
-12z"/>
<path d="M7715 1290 c-27 -29 -24 -99 5 -122 53 -43 120 -9 120 62 0 27 -7 47
-20 60 -26 26 -81 26 -105 0z m83 -12 c17 -17 15 -83 -3 -98 -23 -19 -62 -4
-69 26 -15 60 34 110 72 72z"/>
<path d="M7860 1303 c0 -31 45 -153 57 -153 15 0 16 3 34 70 l12 45 17 -55
c22 -76 39 -71 67 19 13 41 21 76 19 78 -10 11 -24 -9 -36 -52 -13 -47 -30
-69 -30 -39 0 33 -23 94 -36 94 -7 0 -20 -26 -30 -57 l-17 -58 -17 55 c-10 30
-22 56 -29 58 -6 2 -11 0 -11 -5z"/>
<path d="M8092 1233 c2 -50 7 -78 16 -81 8 -2 12 11 12 48 0 60 13 90 40 90
27 0 40 -30 40 -89 0 -28 5 -51 10 -51 14 0 13 133 -2 148 -7 7 -24 12 -38 12
-14 0 -31 -5 -38 -12 -9 -9 -12 -9 -12 0 0 7 -7 12 -15 12 -13 0 -15 -13 -13
-77z"/>
<path d="M8676 3074 c-40 -35 -44 -54 -8 -35 12 6 23 11 25 11 2 0 5 -35 6
-77 1 -43 4 -79 7 -82 11 -12 14 15 12 112 l-3 105 -39 -34z"/>
<path d="M9521 3074 c-36 -36 -37 -53 -2 -34 20 10 21 9 21 -70 0 -64 3 -80
15 -80 12 0 15 18 15 104 0 58 -3 107 -7 109 -5 2 -23 -11 -42 -29z"/>
<path d="M10882 3079 c-31 -28 -41 -49 -23 -49 6 0 13 5 16 10 17 27 25 3 25
-71 0 -60 3 -80 13 -77 13 5 22 204 9 212 -4 2 -22 -9 -40 -25z"/>
<path d="M8896 3084 c-18 -17 -21 -44 -6 -44 5 0 14 9 20 20 13 23 52 27 70 5
18 -22 4 -50 -49 -94 -27 -23 -51 -50 -54 -61 -5 -19 0 -20 69 -20 43 0 74 4
74 10 0 6 -26 10 -57 10 l-57 0 52 53 c54 54 68 97 40 125 -17 17 -84 15 -102
-4z"/>
<path d="M11102 3088 c-14 -14 -16 -38 -3 -38 5 0 14 7 21 15 16 19 44 19 59
1 15 -18 5 -43 -20 -49 -26 -7 -24 -25 4 -29 18 -2 22 -9 22 -38 0 -32 -3 -35
-32 -38 -24 -2 -33 1 -38 17 -7 22 -20 27 -30 11 -9 -14 40 -60 63 -60 11 0
31 9 46 21 30 23 35 69 11 89 -11 9 -13 16 -5 24 14 14 13 59 -2 74 -7 7 -28
12 -48 12 -20 0 -41 -5 -48 -12z"/>
<path d="M11980 3071 c-36 -31 -37 -51 -1 -31 25 13 24 16 21 -77 -1 -60 1
-73 14 -73 14 0 16 16 16 105 0 58 -3 105 -7 105 -5 0 -24 -14 -43 -29z"/>
<path d="M12120 2408 c-47 -11 -87 -22 -89 -24 -2 -2 3 -12 12 -22 10 -10 17
-23 17 -28 0 -5 -36 -40 -81 -77 l-80 -68 -32 24 c-18 14 -75 61 -127 105 -88
75 -96 80 -112 65 -10 -9 -17 -17 -16 -19 2 -1 56 -47 121 -102 65 -55 118
-103 118 -106 0 -4 -51 -50 -113 -103 -62 -52 -114 -101 -116 -108 -2 -6 3
-17 10 -23 10 -8 38 11 118 79 161 138 136 132 230 53 44 -37 80 -70 80 -73 0
-4 -7 -17 -16 -29 -9 -13 -14 -24 -13 -26 7 -4 184 -44 186 -42 3 3 -66 167
-73 175 -2 3 -14 -5 -27 -17 l-23 -22 -77 66 c-42 36 -77 69 -76 72 0 7 99 91
141 121 18 13 22 12 38 -9 10 -14 20 -23 22 -20 4 5 64 140 75 168 6 15 7 15
-97 -10z"/>
<path d="M9745 2406 c-27 -8 -63 -16 -79 -20 l-29 -7 22 -23 c11 -12 21 -25
21 -28 0 -7 -157 -138 -166 -138 -4 0 -58 44 -121 98 -154 131 -146 125 -161
102 -10 -17 1 -30 114 -126 68 -59 123 -110 122 -114 -2 -4 -52 -49 -113 -100
-60 -51 -114 -96 -120 -101 -6 -6 -3 -15 8 -26 15 -15 18 -15 34 -1 230 197
235 200 251 186 10 -8 45 -38 79 -67 l63 -53 -19 -27 -19 -27 90 -22 c50 -12
93 -20 96 -17 3 2 -6 28 -18 57 -13 29 -29 68 -37 87 l-14 33 -24 -22 -24 -22
-75 62 -75 62 81 69 82 69 23 -21 22 -22 29 65 c44 97 47 108 25 107 -10 0
-40 -6 -68 -13z"/>
<path d="M8703 2344 c-45 -22 -68 -74 -53 -119 11 -34 46 -70 78 -79 9 -3 43
-12 74 -21 61 -17 78 -38 59 -73 -13 -24 -69 -36 -106 -22 -16 6 -32 23 -38
41 -9 23 -16 29 -32 25 -11 -3 -28 -6 -39 -6 -15 0 -17 -5 -12 -26 22 -84 103
-125 205 -103 70 15 106 55 106 119 0 68 -26 93 -132 125 -48 15 -87 33 -90
41 -8 21 15 42 54 50 28 5 37 2 62 -25 29 -31 82 -43 96 -21 10 17 -18 63 -54
87 -41 28 -129 31 -178 7z"/>
<path d="M10903 2340 c-39 -24 -53 -48 -53 -95 0 -45 29 -76 90 -97 25 -9 63
-22 85 -30 34 -12 40 -18 40 -43 0 -66 -118 -70 -145 -6 -11 27 -15 29 -48 24
-21 -3 -38 -7 -40 -8 -8 -6 28 -72 49 -92 45 -41 153 -49 216 -14 30 15 53 62
53 105 0 58 -38 92 -135 121 -83 26 -106 45 -84 71 28 34 111 24 124 -15 5
-17 15 -21 46 -21 29 0 39 4 39 15 0 32 -32 77 -65 91 -50 21 -133 18 -172 -6z"/>
<path d="M9604 646 c-45 -20 -64 -53 -64 -109 0 -53 20 -101 49 -117 11 -5 38
-10 61 -10 33 0 48 6 71 29 16 16 29 34 29 40 0 21 -37 11 -48 -13 -20 -45
-98 -39 -121 11 -45 99 44 199 115 128 28 -28 44 -32 44 -12 0 21 -43 56 -75
62 -17 3 -44 -1 -61 -9z"/>
<path d="M9820 618 c-12 -47 -49 -176 -55 -195 -3 -7 1 -13 8 -13 10 0 77 205
77 238 0 29 -20 8 -30 -30z"/>
<path d="M10143 653 c-81 -16 -110 -149 -46 -215 38 -39 108 -40 147 -2 27 28
34 54 14 54 -7 0 -22 -12 -34 -27 -26 -33 -76 -36 -106 -5 -16 16 -22 34 -22
72 -1 45 3 55 27 76 42 36 94 28 109 -18 3 -7 12 -9 22 -5 14 6 15 10 6 28
-11 19 -69 51 -87 48 -4 -1 -18 -4 -30 -6z"/>
<path d="M11959 649 c-14 -5 -32 -22 -38 -36 -18 -39 11 -73 78 -93 58 -17 75
-34 60 -62 -7 -13 -22 -18 -54 -18 -36 0 -48 5 -61 25 -19 30 -34 32 -34 6 0
-31 47 -61 95 -61 46 0 79 21 89 56 8 27 -25 70 -61 78 -54 13 -83 29 -83 45
0 45 57 55 96 16 27 -28 44 -32 44 -12 0 17 -37 57 -53 57 -7 0 -21 2 -32 5
-11 2 -32 -1 -46 -6z"/>
<path d="M9370 630 c-24 -24 -26 -40 -5 -40 8 0 15 5 15 10 0 6 11 15 25 22
19 8 28 8 40 -2 23 -19 18 -49 -10 -62 -32 -15 -32 -21 5 -35 22 -8 30 -18 30
-36 0 -26 -23 -57 -41 -57 -20 0 -49 21 -49 35 0 8 -7 15 -15 15 -21 0 -19
-26 5 -50 12 -12 33 -20 55 -20 45 0 75 29 75 74 0 18 -7 39 -15 46 -11 9 -13
16 -5 24 16 16 12 61 -8 79 -25 23 -78 21 -102 -3z"/>
<path d="M9890 623 c-27 -34 -8 -44 25 -13 32 30 65 20 65 -20 0 -23 -5 -31
-25 -36 -32 -8 -32 -20 0 -28 51 -13 53 -76 3 -92 -17 -5 -28 0 -46 21 -17 20
-26 25 -35 16 -8 -8 -5 -17 13 -36 32 -34 82 -34 115 0 30 29 32 55 6 86 -17
21 -17 26 -4 45 12 18 12 27 2 46 -16 31 -28 38 -66 38 -23 0 -38 -8 -53 -27z"/>
<path d="M10402 533 l3 -118 78 -3 c61 -2 78 0 75 10 -3 8 -26 14 -61 16 l-57
3 0 104 c0 99 -1 105 -20 105 -20 0 -21 -5 -18 -117z"/>
<path d="M11390 635 c0 -8 7 -15 15 -15 8 0 15 7 15 15 0 8 -7 15 -15 15 -8 0
-15 -7 -15 -15z"/>
<path d="M12337 633 c-4 -3 -7 -15 -7 -25 0 -10 -4 -18 -10 -18 -5 0 -10 -7
-10 -15 0 -8 5 -15 10 -15 6 0 10 -26 10 -59 0 -33 3 -66 6 -75 8 -21 54 -21
54 -1 0 8 -7 15 -15 15 -12 0 -15 13 -15 60 0 47 3 60 15 60 8 0 15 7 15 15 0
8 -7 15 -15 15 -9 0 -15 9 -15 25 0 24 -10 32 -23 18z"/>
<path d="M10623 580 c-49 -20 -60 -104 -18 -145 55 -56 135 -18 135 64 0 70
-53 107 -117 81z m77 -41 c23 -43 0 -109 -38 -109 -27 0 -52 32 -52 65 0 65
63 96 90 44z"/>
<path d="M10780 499 c0 -68 3 -90 13 -87 7 3 14 31 17 74 5 67 6 69 34 72 38
5 46 -10 46 -85 0 -49 3 -63 15 -63 12 0 15 14 15 70 0 57 -4 74 -20 90 -23
23 -60 26 -79 8 -11 -10 -14 -10 -18 0 -13 35 -23 2 -23 -79z"/>
<path d="M10975 565 c-19 -18 -25 -35 -25 -65 0 -30 6 -47 25 -65 26 -27 46
-31 76 -15 16 9 19 7 19 -15 0 -18 -7 -28 -25 -35 -26 -10 -55 -4 -55 11 0 5
-7 9 -15 9 -24 0 -17 -29 9 -41 32 -15 93 -3 106 21 13 23 13 220 1 220 -5 0
-11 -6 -14 -12 -4 -10 -7 -10 -18 0 -21 19 -58 14 -84 -13z m93 -59 c4 -44
-11 -66 -44 -66 -44 0 -60 74 -23 111 18 18 23 19 42 6 15 -9 23 -27 25 -51z"/>
<path d="M11130 584 c0 -3 12 -44 26 -91 31 -103 49 -107 74 -18 l18 60 18
-63 c12 -44 22 -62 32 -60 15 3 62 125 62 160 0 39 -21 15 -37 -42 -9 -33 -19
-60 -23 -60 -3 0 -13 26 -21 58 -20 76 -38 74 -63 -8 l-19 -65 -20 68 c-12 40
-25 67 -33 67 -8 0 -14 -3 -14 -6z"/>
<path d="M11390 501 c0 -75 3 -91 15 -91 13 0 15 14 13 87 -2 58 -7 88 -15 91
-10 3 -13 -19 -13 -87z"/>
<path d="M11476 577 c-12 -9 -17 -23 -14 -42 2 -25 10 -32 48 -45 33 -11 45
-21 45 -35 0 -27 -39 -31 -63 -7 -27 27 -47 13 -26 -17 13 -18 24 -22 62 -19
38 2 49 8 59 27 16 34 1 58 -47 72 -54 16 -68 34 -40 49 17 9 26 8 46 -5 35
-23 53 -14 26 13 -25 25 -69 29 -96 9z"/>
<path d="M11658 575 c-46 -25 -49 -119 -5 -150 31 -22 83 -19 108 6 17 17 19
23 8 30 -9 5 -20 1 -32 -12 -23 -24 -42 -24 -67 1 -33 33 -24 40 46 40 l67 0
-7 33 c-11 59 -62 82 -118 52z m75 -27 l22 -23 -27 -3 c-16 -2 -40 -2 -55 0
l-28 3 23 23 c12 12 27 22 32 22 6 0 20 -10 33 -22z"/>
<path d="M12155 565 c-32 -31 -34 -91 -4 -129 16 -20 29 -26 58 -26 42 0 83
32 65 50 -7 7 -17 4 -29 -10 -23 -25 -47 -26 -68 -2 -31 34 -21 42 48 42 36 0
65 4 65 9 0 27 -25 70 -46 80 -38 17 -63 13 -89 -14z m88 -17 l22 -23 -49 -3
c-59 -4 -68 4 -37 29 30 24 36 24 64 -3z"/>
</g>
</svg>
