<?xml version="1.0" standalone="no"?>
<!DOCTYPE svg PUBLIC "-//W3C//DTD SVG 1.1//EN"
"http://www.w3.org/Graphics/SVG/1.1/DTD/svg11.dtd">
<!-- Creator: fig2dev Version 3.2 Patchlevel 5d -->
<!-- CreationDate: Mon Dec  1 01:10:03 2014 -->
<!-- Magnification: 1.050 -->
<svg	xmlns="http://www.w3.org/2000/svg"
	xmlns:xlink="http://www.w3.org/1999/xlink"
	viewBox="-23 -23 6140 1746">
<g style="stroke-width:.025in; fill:none">
<!-- Text -->
<text xml:space="preserve" x="4913" y="283" fill="#000000"  font-family="Helvetica" font-style="normal" font-weight="normal" font-size="177" text-anchor="end">Carola Tress</text>
<!-- Text -->
<text xml:space="preserve" x="4116" y="969" fill="#000000"  font-family="Helvetica" font-style="normal" font-weight="bold" font-size="114" text-anchor="middle">T</text>
<!-- Line -->
<polygon points="4488,755
4346,897
4488,1039
4629,897
4488,755
" style="stroke:#000000;stroke-width:16;
stroke-linejoin:miter; stroke-linecap:butt;
"/>
<!-- Text -->
<text xml:space="preserve" x="4494" y="969" fill="#000000"  font-family="Helvetica" font-style="normal" font-weight="bold" font-size="114" text-anchor="middle">T</text>
<!-- Text -->
<text xml:space="preserve" x="5149" y="1086" fill="#000000"  font-family="Helvetica" font-style="normal" font-weight="bold" font-size="152" text-anchor="middle">R1</text>
<!-- Text -->
<text xml:space="preserve" x="5007" y="1039" fill="#000000"  font-family="Helvetica" font-style="normal" font-weight="bold" font-size="227" text-anchor="middle">T</text>
<!-- Line -->
<polyline points="5291,1086
5385,897
" style="stroke:#000000;stroke-width:8;
stroke-linejoin:miter; stroke-linecap:round;
"/>
<!-- Text -->
<text xml:space="preserve" x="5291" y="992" fill="#000000"  font-family="Helvetica" font-style="normal" font-weight="bold" font-size="114" text-anchor="middle">1</text>
<!-- Text -->
<text xml:space="preserve" x="5385" y="1086" fill="#000000"  font-family="Helvetica" font-style="normal" font-weight="bold" font-size="114" text-anchor="middle">2</text>
<!-- Circle -->
<circle cx="236" cy="1275" r="94"
 style="stroke:#000000;stroke-width:16;"/>
<!-- Line -->
<polyline points="236,1181
236,1133
" style="stroke:#000000;stroke-width:16;
stroke-linejoin:miter; stroke-linecap:round;
"/>
<!-- Line -->
<polyline points="236,708
236,755
" style="stroke:#000000;stroke-width:16;
stroke-linejoin:miter; stroke-linecap:round;
"/>
<!-- Line: box -->
<rect x="141" y="519" width="188" height="188" rx="0" 
style="stroke:#000000;stroke-width:16;
stroke-linejoin:miter; stroke-linecap:butt;
"/>
<!-- Line -->
<polyline points="236,803
236,804
238,808
241,819
246,838
254,862
261,891
268,918
276,944
280,966
284,986
286,1003
286,1017
285,1028
283,1039
280,1046
276,1054
270,1059
264,1064
258,1068
250,1072
242,1075
234,1077
225,1077
216,1077
207,1077
200,1075
192,1072
185,1069
178,1066
173,1063
165,1056
159,1046
154,1035
150,1020
146,1002
144,982
145,1006
" style="stroke:#000000;stroke-width:16;
stroke-linejoin:bevel; stroke-linecap:butt;
stroke-dasharray:20 20;"/>
<!-- Arrowhead on XXXpoint 144 982 - 138 913-->
<polygon points="176 982
139 922
113 987
176 982

" style="stroke:#000000;stroke-width:8;stroke-miterlimit:8;
fill:#000000;"/>
<!-- Text -->
<text xml:space="preserve" x="236" y="1322" fill="#000000"  font-family="Helvetica" font-style="normal" font-weight="bold" font-size="114" text-anchor="middle">1</text>
<!-- Text -->
<text xml:space="preserve" x="236" y="661" fill="#000000"  font-family="Helvetica" font-style="normal" font-weight="bold" font-size="114" text-anchor="middle">1</text>
<!-- Text -->
<text xml:space="preserve" x="1700" y="1039" fill="#000000"  font-family="Helvetica" font-style="normal" font-weight="bold" font-size="227" text-anchor="middle">S</text>
<!-- Text -->
<text xml:space="preserve" x="1653" y="661" fill="#000000"  font-family="Helvetica" font-style="normal" font-weight="bold" font-size="114" text-anchor="middle">2</text>
<!-- Text -->
<text xml:space="preserve" x="1748" y="661" fill="#000000"  font-family="Helvetica" font-style="normal" font-weight="bold" font-size="114" text-anchor="middle">1</text>
<!-- Line -->
<polyline points="708,755
708,803
" style="stroke:#000000;stroke-width:16;
stroke-linejoin:miter; stroke-linecap:round;
"/>
<!-- Line: box -->
<rect x="614" y="803" width="188" height="188" rx="0" 
style="stroke:#000000;stroke-width:16;
stroke-linejoin:miter; stroke-linecap:butt;
"/>
<!-- Text -->
<text xml:space="preserve" x="708" y="944" fill="#000000"  font-family="Helvetica" font-style="normal" font-weight="bold" font-size="114" text-anchor="middle">1</text>
<!-- Circle -->
<circle cx="850" cy="1275" r="94"
 style="stroke:#000000;stroke-width:16;"/>
<!-- Line -->
<polyline points="850,1181
850,1133
" style="stroke:#000000;stroke-width:16;
stroke-linejoin:miter; stroke-linecap:round;
"/>
<!-- Text -->
<text xml:space="preserve" x="850" y="1322" fill="#000000"  font-family="Helvetica" font-style="normal" font-weight="bold" font-size="114" text-anchor="middle">1</text>
<!-- Line -->
<polyline points="850,1086
850,1082
850,1075
850,1060
850,1040
850,1015
850,986
850,956
850,925
850,896
850,869
850,844
850,822
850,801
850,782
850,764
850,748
850,732
850,714
850,698
851,680
851,663
852,646
854,630
857,615
860,599
866,584
871,571
877,558
886,546
894,536
904,527
916,518
929,512
943,504
959,499
977,494
997,490
1018,487
1040,485
1063,482
1086,481
1109,481
1132,482
1154,485
1175,487
1195,490
1213,494
1229,498
1244,503
1258,510
1270,518
1280,528
1290,538
1297,552
1303,566
1309,584
1313,602
1317,621
1314,599
" style="stroke:#000000;stroke-width:16;
stroke-linejoin:bevel; stroke-linecap:butt;
"/>
<!-- Arrowhead on XXXpoint 1317 621 - 1325 691-->
<polygon points="1286 622
1324 682
1348 615
1286 622

" style="stroke:#000000;stroke-width:8;stroke-miterlimit:8;
fill:#000000;"/>
<!-- Line -->
<polyline points="708,708
708,707
708,704
709,697
711,682
713,664
718,641
723,617
728,593
735,570
744,550
753,532
764,516
776,502
791,491
807,480
827,472
844,466
862,460
882,455
904,451
928,447
953,444
979,441
1005,439
1034,438
1061,437
1089,438
1117,439
1144,441
1169,444
1193,447
1216,451
1237,455
1257,460
1275,466
1291,472
1306,479
1318,487
1330,495
1340,503
1349,514
1357,524
1363,537
1369,550
1374,563
1377,577
1379,593
1381,607
1382,623
1382,640
1382,656
1382,672
1381,689
1380,706
1379,723
1378,740
1377,758
1376,775
1375,794
1374,815
1374,837
1373,861
1372,888
1372,916
1372,948
1371,980
1371,1014
1371,1048
1370,1081
1370,1111
1370,1137
1370,1118
" style="stroke:#000000;stroke-width:16;
stroke-linejoin:bevel; stroke-linecap:butt;
stroke-dasharray:20 20;"/>
<!-- Arrowhead on XXXpoint 1370 1137 - 1370 1212-->
<polygon points="1338 1140
1370 1203
1401 1140
1338 1140

" style="stroke:#000000;stroke-width:8;stroke-miterlimit:8;
fill:#000000;"/>
<!-- Text -->
<text xml:space="preserve" x="1228" y="661" fill="#000000"  font-family="Helvetica" font-style="normal" font-weight="bold" font-size="114" text-anchor="middle">2</text>
<!-- Text -->
<text xml:space="preserve" x="1228" y="1322" fill="#000000"  font-family="Helvetica" font-style="normal" font-weight="bold" font-size="114" text-anchor="middle">2</text>
<!-- Circle -->
<circle cx="2173" cy="614" r="94"
 style="stroke:#000000;stroke-width:16;"/>
<!-- Line: box -->
<rect x="2078" y="1181" width="188" height="188" rx="0" 
style="stroke:#000000;stroke-width:16;
stroke-linejoin:miter; stroke-linecap:butt;
"/>
<!-- Line -->
<polyline points="2173,1181
2173,1133
" style="stroke:#000000;stroke-width:16;
stroke-linejoin:miter; stroke-linecap:round;
"/>
<!-- Line -->
<polyline points="2173,708
2173,755
" style="stroke:#000000;stroke-width:16;
stroke-linejoin:miter; stroke-linecap:round;
"/>
<!-- Text -->
<text xml:space="preserve" x="2173" y="1322" fill="#000000"  font-family="Helvetica" font-style="normal" font-weight="bold" font-size="114" text-anchor="middle">1</text>
<!-- Text -->
<text xml:space="preserve" x="2173" y="661" fill="#000000"  font-family="Helvetica" font-style="normal" font-weight="bold" font-size="114" text-anchor="middle">1</text>
<!-- Line -->
<polyline points="2173,803
2173,804
2171,808
2167,819
2162,838
2155,862
2148,891
2140,918
2133,944
2129,966
2124,986
2122,1003
2122,1017
2123,1028
2125,1039
2129,1046
2133,1054
2138,1059
2144,1064
2151,1068
2158,1072
2166,1075
2175,1077
2183,1077
2193,1077
2201,1077
2208,1075
2217,1072
2223,1069
2230,1066
2236,1063
2243,1056
2249,1046
2255,1035
2259,1020
2262,1002
2264,982
2262,1006
" style="stroke:#000000;stroke-width:16;
stroke-linejoin:bevel; stroke-linecap:butt;
"/>
<!-- Arrowhead on XXXpoint 2264 982 - 2269 913-->
<polygon points="2295 987
2268 922
2232 982
2295 987

" style="stroke:#000000;stroke-width:8;stroke-miterlimit:8;
fill:#000000;"/>
<!-- Line -->
<polyline points="3070,1133
3070,1181
" style="stroke:#000000;stroke-width:16;
stroke-linejoin:miter; stroke-linecap:round;
"/>
<!-- Line: box -->
<rect x="2976" y="1181" width="188" height="188" rx="0" 
style="stroke:#000000;stroke-width:16;
stroke-linejoin:miter; stroke-linecap:butt;
"/>
<!-- Text -->
<text xml:space="preserve" x="3070" y="1322" fill="#000000"  font-family="Helvetica" font-style="normal" font-weight="bold" font-size="114" text-anchor="middle">1</text>
<!-- Circle -->
<circle cx="3212" cy="992" r="94"
 style="stroke:#000000;stroke-width:16;"/>
<!-- Line -->
<polyline points="3212,897
3212,850
" style="stroke:#000000;stroke-width:16;
stroke-linejoin:miter; stroke-linecap:round;
"/>
<!-- Text -->
<text xml:space="preserve" x="3212" y="1039" fill="#000000"  font-family="Helvetica" font-style="normal" font-weight="bold" font-size="114" text-anchor="middle">1</text>
<!-- Line -->
<polyline points="3212,803
3212,802
3212,797
3211,787
3209,768
3207,743
3203,713
3197,681
3192,648
3185,619
3176,591
3167,566
3156,545
3144,528
3129,513
3113,499
3095,488
3077,479
3058,472
3038,466
3016,459
2993,454
2967,450
2941,446
2915,443
2887,441
2859,440
2831,439
2804,440
2776,441
2751,444
2727,447
2704,451
2683,455
2663,460
2645,466
2629,472
2615,479
2602,487
2591,495
2580,503
2572,514
2563,524
2557,537
2552,550
2546,563
2543,577
2541,593
2539,607
2538,623
2538,640
2538,656
2538,672
2539,689
2540,706
2541,723
2543,740
2543,758
2544,775
2545,794
2546,815
2546,837
2548,861
2549,888
2549,916
2549,948
2550,980
2550,1014
2550,1048
2551,1081
2551,1111
2551,1137
2551,1118
" style="stroke:#000000;stroke-width:16;
stroke-linejoin:bevel; stroke-linecap:butt;
"/>
<!-- Arrowhead on XXXpoint 2551 1137 - 2551 1212-->
<polygon points="2519 1140
2551 1203
2582 1140
2519 1140

" style="stroke:#000000;stroke-width:8;stroke-miterlimit:8;
fill:#000000;"/>
<!-- Line -->
<polyline points="3070,1086
3070,1082
3070,1075
3070,1060
3070,1040
3070,1015
3070,986
3070,956
3070,925
3070,896
3070,869
3070,844
3070,822
3070,801
3070,782
3070,764
3070,748
3070,732
3070,714
3070,698
3069,680
3069,663
3068,646
3066,630
3063,615
3060,599
3055,584
3049,571
3043,558
3035,546
3026,536
3016,527
3004,518
2992,512
2977,504
2961,499
2943,494
2923,490
2902,487
2880,485
2857,482
2834,481
2811,481
2788,482
2766,485
2745,487
2725,490
2707,494
2691,498
2677,503
2662,510
2650,518
2640,528
2630,538
2623,552
2617,566
2612,584
2607,602
2603,621
2605,599
" style="stroke:#000000;stroke-width:16;
stroke-linejoin:bevel; stroke-linecap:butt;
stroke-dasharray:20 20;"/>
<!-- Arrowhead on XXXpoint 2603 621 - 2594 691-->
<polygon points="2572 615
2595 682
2634 623
2572 615

" style="stroke:#000000;stroke-width:8;stroke-miterlimit:8;
fill:#000000;"/>
<!-- Text -->
<text xml:space="preserve" x="2692" y="1322" fill="#000000"  font-family="Helvetica" font-style="normal" font-weight="bold" font-size="114" text-anchor="middle">2</text>
<!-- Text -->
<text xml:space="preserve" x="2692" y="755" fill="#000000"  font-family="Helvetica" font-style="normal" font-weight="bold" font-size="114" text-anchor="middle">2</text>
<!-- Text -->
<text xml:space="preserve" x="3637" y="1039" fill="#000000"  font-family="Helvetica" font-style="normal" font-weight="bold" font-size="227" text-anchor="middle">S</text>
<!-- Text -->
<text xml:space="preserve" x="3590" y="661" fill="#000000"  font-family="Helvetica" font-style="normal" font-weight="bold" font-size="114" text-anchor="middle">1</text>
<!-- Text -->
<text xml:space="preserve" x="3685" y="661" fill="#000000"  font-family="Helvetica" font-style="normal" font-weight="bold" font-size="114" text-anchor="middle">2</text>
<!-- Line -->
<polyline points="0,377
6094,377
" style="stroke:#000000;stroke-width:16;
stroke-linejoin:miter; stroke-linecap:butt;
"/>
<!-- Line -->
<polyline points="5574,377
5574,1700
" style="stroke:#000000;stroke-width:16;
stroke-linejoin:miter; stroke-linecap:butt;
"/>
<!-- Line -->
<polyline points="4771,377
4771,1700
" style="stroke:#000000;stroke-width:16;
stroke-linejoin:miter; stroke-linecap:butt;
stroke-dasharray:62 62;"/>
<!-- Line -->
<polyline points="3826,377
3826,1700
" style="stroke:#000000;stroke-width:16;
stroke-linejoin:miter; stroke-linecap:butt;
"/>
<!-- Line: box -->
<rect x="0" y="0" width="6094" height="1700" rx="0" 
style="stroke:#000000;stroke-width:16;
stroke-linejoin:miter; stroke-linecap:butt;
"/>
<!-- Line -->
<polyline points="472,377
472,1700
" style="stroke:#000000;stroke-width:16;
stroke-linejoin:miter; stroke-linecap:butt;
stroke-dasharray:31 31;"/>
<!-- Line -->
<polyline points="1056,1464
1008,1464
" style="stroke:#000000;stroke-width:8;
stroke-linejoin:miter; stroke-linecap:butt;
"/>
<!-- Arrowhead on XXXpoint 1181 1464 - 976 1464-->
<polyline points="1045 1401
982 1464
1045 1527
" style="stroke:#000000;stroke-width:8;stroke-miterlimit:8;
"/>
<!-- Arrowhead on XXXpoint 992 1464 - 1196 1464-->
<polygon points="1192 1527
1192 1401

" style="stroke:#000000;stroke-width:8;stroke-miterlimit:8;
fill:#000000;"/>
<!-- Line -->
<polyline points="2409,377
2409,1700
" style="stroke:#000000;stroke-width:16;
stroke-linejoin:miter; stroke-linecap:butt;
stroke-dasharray:31 31;"/>
<!-- Line -->
<polyline points="2771,1464
2816,1464
" style="stroke:#000000;stroke-width:8;
stroke-linejoin:miter; stroke-linecap:butt;
"/>
<!-- Arrowhead on XXXpoint 2645 1464 - 2850 1464-->
<polyline points="2781 1527
2844 1464
2781 1401
" style="stroke:#000000;stroke-width:8;stroke-miterlimit:8;
"/>
<!-- Arrowhead on XXXpoint 2834 1464 - 2629 1464-->
<polygon points="2634 1401
2634 1527

" style="stroke:#000000;stroke-width:8;stroke-miterlimit:8;
fill:#000000;"/>
<!-- Line -->
<polyline points="3448,377
3448,1700
" style="stroke:#000000;stroke-width:16;
stroke-linejoin:miter; stroke-linecap:butt;
stroke-dasharray:31 31;"/>
<!-- Line -->
<polyline points="1937,377
1937,1700
" style="stroke:#000000;stroke-width:16;
stroke-linejoin:miter; stroke-linecap:butt;
"/>
<!-- Line -->
<polyline points="1511,377
1511,1700
" style="stroke:#000000;stroke-width:16;
stroke-linejoin:miter; stroke-linecap:butt;
stroke-dasharray:31 31;"/>
<!-- Text -->
<text xml:space="preserve" x="6047" y="283" fill="#000000"  font-family="Helvetica" font-style="normal" font-weight="normal" font-size="227" text-anchor="end">R8x32</text>
<!-- Text -->
<text xml:space="preserve" x="94" y="283" fill="#000000"  font-family="Helvetica" font-style="normal" font-weight="normal" font-size="227" text-anchor="start">Knotted</text>
<!-- Text -->
<text xml:space="preserve" x="5858" y="1039" fill="#000000"  font-family="Helvetica" font-style="normal" font-weight="bold" font-size="227" text-anchor="middle">P</text>
<!-- Text -->
<text xml:space="preserve" x="5905" y="661" fill="#000000"  font-family="Helvetica" font-style="normal" font-weight="bold" font-size="114" text-anchor="middle">2</text>
<!-- Text -->
<text xml:space="preserve" x="5811" y="661" fill="#000000"  font-family="Helvetica" font-style="normal" font-weight="bold" font-size="114" text-anchor="middle">1</text>
<!-- Text -->
<text xml:space="preserve" x="1133" y="1653" fill="#000000"  font-family="Helvetica" font-style="normal" font-weight="bold" font-size="114" text-anchor="middle">2</text>
<!-- Text -->
<text xml:space="preserve" x="2692" y="1653" fill="#000000"  font-family="Helvetica" font-style="normal" font-weight="bold" font-size="114" text-anchor="middle">2</text>
<!-- Line -->
<polygon points="4110,755
3968,897
4110,1039
4251,897
4110,755
" style="stroke:#000000;stroke-width:16;
stroke-linejoin:miter; stroke-linecap:butt;
"/>
</g>
</svg>
