<?xml version="1.0" standalone="no"?>
<!DOCTYPE svg PUBLIC "-//W3C//DTD SVG 1.1//EN"
"http://www.w3.org/Graphics/SVG/1.1/DTD/svg11.dtd">
<!-- Creator: fig2dev Version 3.2 Patchlevel 5e -->
<!-- CreationDate: Wed Jan 24 01:13:03 2018 -->
<!-- Magnification: 1.050 -->
<svg	xmlns="http://www.w3.org/2000/svg"
	xmlns:xlink="http://www.w3.org/1999/xlink"
	viewBox="-23 -23 6140 1558">
<g style="stroke-width:.025in; fill:none">
<!-- Text -->
<text xml:space="preserve" x="4771" y="1181" fill="#000000"  font-family="Helvetica" font-style="normal" font-weight="bold" font-size="114" text-anchor="middle">2 3 4</text>
<!-- Text -->
<text xml:space="preserve" x="5527" y="1039" fill="#000000"  font-family="Helvetica" font-style="normal" font-weight="bold" font-size="227" text-anchor="middle">T</text>
<!-- Line -->
<polyline points="5811,1086
5905,897
" style="stroke:#000000;stroke-width:8;
stroke-linejoin:miter; stroke-linecap:round;
"/>
<!-- Text -->
<text xml:space="preserve" x="5811" y="992" fill="#000000"  font-family="Helvetica" font-style="normal" font-weight="bold" font-size="114" text-anchor="middle">1</text>
<!-- Text -->
<text xml:space="preserve" x="5905" y="1086" fill="#000000"  font-family="Helvetica" font-style="normal" font-weight="bold" font-size="114" text-anchor="middle">2</text>
<!-- Line -->
<polyline points="4110,1086
4204,897
" style="stroke:#000000;stroke-width:8;
stroke-linejoin:miter; stroke-linecap:round;
"/>
<!-- Text -->
<text xml:space="preserve" x="4110" y="992" fill="#000000"  font-family="Helvetica" font-style="normal" font-weight="bold" font-size="114" text-anchor="middle">1</text>
<!-- Text -->
<text xml:space="preserve" x="4204" y="1086" fill="#000000"  font-family="Helvetica" font-style="normal" font-weight="bold" font-size="114" text-anchor="middle">2</text>
<!-- Text -->
<text xml:space="preserve" x="3968" y="1086" fill="#000000"  font-family="Helvetica" font-style="normal" font-weight="bold" font-size="152" text-anchor="middle">L</text>
<!-- Text -->
<text xml:space="preserve" x="3826" y="1039" fill="#000000"  font-family="Helvetica" font-style="normal" font-weight="bold" font-size="227" text-anchor="middle">T</text>
<!-- Line -->
<polyline points="2582,566
2393,566
" style="stroke:#000000;stroke-width:8;
stroke-linejoin:miter; stroke-linecap:butt;
"/>
<!-- Line -->
<polyline points="3433,566
3244,566
" style="stroke:#000000;stroke-width:8;
stroke-linejoin:miter; stroke-linecap:butt;
"/>
<!-- Text -->
<text xml:space="preserve" x="2913" y="614" fill="#000000"  font-family="Helvetica" font-style="normal" font-weight="bold" font-size="114" text-anchor="middle">12 &#38; 34</text>
<!-- Text -->
<text xml:space="preserve" x="2598" y="1039" fill="#000000"  font-family="Helvetica" font-style="normal" font-weight="bold" font-size="227" text-anchor="middle">RA</text>
<!-- Text -->
<text xml:space="preserve" x="3259" y="1039" fill="#000000"  font-family="Helvetica" font-style="normal" font-weight="bold" font-size="227" text-anchor="middle">LA</text>
<!-- Text -->
<text xml:space="preserve" x="944" y="1276" fill="#000000"  font-family="Helvetica" font-style="normal" font-weight="bold" font-size="114" text-anchor="middle">3</text>
<!-- Text -->
<text xml:space="preserve" x="944" y="709" fill="#000000"  font-family="Helvetica" font-style="normal" font-weight="bold" font-size="114" text-anchor="middle">3</text>
<!-- Circle -->
<circle cx="236" cy="1229" r="94"
 style="stroke:#000000;stroke-width:16;"/>
<!-- Text -->
<text xml:space="preserve" x="236" y="1276" fill="#000000"  font-family="Helvetica" font-style="normal" font-weight="bold" font-size="114" text-anchor="middle">1</text>
<!-- Line: box -->
<rect x="141" y="567" width="188" height="188" rx="0" 
style="stroke:#000000;stroke-width:16;
stroke-linejoin:miter; stroke-linecap:butt;
"/>
<!-- Text -->
<text xml:space="preserve" x="236" y="709" fill="#000000"  font-family="Helvetica" font-style="normal" font-weight="bold" font-size="114" text-anchor="middle">1</text>
<!-- Text -->
<text xml:space="preserve" x="614" y="1276" fill="#000000"  font-family="Helvetica" font-style="normal" font-weight="bold" font-size="114" text-anchor="middle">2</text>
<!-- Text -->
<text xml:space="preserve" x="614" y="709" fill="#000000"  font-family="Helvetica" font-style="normal" font-weight="bold" font-size="114" text-anchor="middle">2</text>
<!-- Line -->
<polyline points="425,1181
426,1181
430,1177
439,1170
456,1160
478,1146
502,1131
528,1118
552,1105
574,1097
595,1091
613,1088
629,1089
645,1095
661,1102
672,1110
685,1120
698,1131
710,1145
724,1160
738,1175
751,1192
766,1209
781,1227
794,1245
809,1261
824,1278
837,1293
852,1307
866,1319
878,1330
892,1339
906,1346
917,1351
929,1354
941,1356
954,1356
966,1355
979,1352
992,1349
1004,1343
1016,1337
1027,1330
1038,1321
1047,1312
1056,1302
1064,1293
1070,1282
1077,1271
1081,1260
1084,1250
1085,1238
1086,1228
1085,1217
1084,1206
1081,1195
1077,1185
1070,1173
1064,1163
1056,1153
1047,1144
1038,1134
1027,1126
1016,1119
1004,1112
992,1107
979,1104
966,1101
954,1100
941,1100
929,1102
917,1105
906,1110
892,1117
878,1126
866,1137
852,1149
837,1163
824,1179
809,1194
794,1212
781,1230
766,1248
751,1266
738,1283
724,1299
710,1315
698,1329
685,1341
672,1353
661,1362
645,1371
629,1378
613,1381
595,1381
574,1379
552,1374
528,1366
502,1357
478,1348
456,1337
480,1348
" style="stroke:#000000;stroke-width:16;
stroke-linejoin:bevel; stroke-linecap:butt;
"/>
<!-- Arrowhead on XXXpoint 456 1337 - 395 1309-->
<polygon points="474 1311
404 1313
447 1367
474 1311

" style="stroke:#000000;stroke-width:8;stroke-miterlimit:8;
fill:#000000;"/>
<!-- Line -->
<polyline points="425,614
426,614
430,611
439,603
456,593
478,579
502,564
528,551
552,538
574,530
595,524
613,521
629,522
645,528
661,535
672,543
685,553
698,564
710,578
724,593
738,608
751,625
766,642
781,660
794,678
809,695
824,711
837,726
852,740
866,752
878,763
892,772
906,780
917,784
929,787
941,789
954,789
966,788
979,785
992,782
1004,776
1016,770
1027,763
1038,754
1047,745
1056,735
1064,726
1070,716
1077,704
1081,693
1084,683
1085,671
1086,661
1085,650
1084,639
1081,628
1077,618
1070,606
1064,596
1056,586
1047,577
1038,567
1027,559
1016,552
1004,545
992,540
979,537
966,534
954,533
941,533
929,535
917,538
906,543
892,550
878,559
866,570
852,582
837,596
824,612
809,627
794,645
781,663
766,681
751,699
738,717
724,732
710,748
698,762
685,774
672,786
661,795
645,804
629,811
613,814
595,814
574,812
552,807
528,800
502,790
478,781
456,770
480,781
" style="stroke:#000000;stroke-width:16;
stroke-linejoin:bevel; stroke-linecap:butt;
stroke-dasharray:20 20;"/>
<!-- Arrowhead on XXXpoint 456 770 - 395 742-->
<polygon points="474 744
404 746
447 801
474 744

" style="stroke:#000000;stroke-width:8;stroke-miterlimit:8;
fill:#000000;"/>
<!-- Circle -->
<circle cx="1487" cy="709" r="118"
 style="stroke:#000000;stroke-width:16;"/>
<!-- Circle -->
<circle cx="1723" cy="709" r="118"
 style="stroke:#000000;stroke-width:16;"/>
<!-- Circle -->
<circle cx="1960" cy="709" r="118"
 style="stroke:#000000;stroke-width:16;"/>
<!-- Circle -->
<circle cx="1487" cy="1182" r="118"
 style="stroke:#000000;stroke-width:16;"/>
<!-- Circle -->
<circle cx="1723" cy="1182" r="118"
 style="stroke:#000000;stroke-width:16;"/>
<!-- Circle -->
<circle cx="1960" cy="1182" r="118"
 style="stroke:#000000;stroke-width:16;"/>
<!-- Circle -->
<circle cx="4535" cy="582" r="94"
 style="stroke:#000000;stroke-width:16;"/>
<!-- Line -->
<polyline points="4582,488
4724,582
4629,724
" style="stroke:#000000;stroke-width:16;
stroke-linejoin:round; stroke-linecap:round;
"/>
<!-- Line -->
<polyline points="4582,677
4724,771
4629,913
" style="stroke:#000000;stroke-width:16;
stroke-linejoin:round; stroke-linecap:round;
"/>
<!-- Line: box -->
<rect x="4440" y="724" width="188" height="188" rx="0" 
style="stroke:#000000;stroke-width:16;
stroke-linejoin:miter; stroke-linecap:butt;
"/>
<!-- Text -->
<text xml:space="preserve" x="4535" y="866" fill="#000000"  font-family="Helvetica" font-style="normal" font-weight="bold" font-size="114" text-anchor="middle">1</text>
<!-- Text -->
<text xml:space="preserve" x="4535" y="629" fill="#000000"  font-family="Helvetica" font-style="normal" font-weight="bold" font-size="114" text-anchor="middle">1</text>
<!-- Line -->
<polyline points="4771,708
5039,708
" style="stroke:#000000;stroke-width:16;
stroke-linejoin:miter; stroke-linecap:butt;
"/>
<!-- Arrowhead on XXXpoint 4771 708 - 5133 708-->
<polygon points="5061 740
5124 708
5061 677
5061 740

" style="stroke:#000000;stroke-width:8;stroke-miterlimit:8;
fill:#000000;"/>
<!-- Line -->
<polyline points="4866,1275
4677,1275
" style="stroke:#000000;stroke-width:16;
stroke-linejoin:miter; stroke-linecap:butt;
"/>
<!-- Line -->
<polyline points="4866,1228
4866,1322
" style="stroke:#000000;stroke-width:16;
stroke-linejoin:miter; stroke-linecap:butt;
"/>
<!-- Line -->
<polyline points="4724,1228
4677,1275
4724,1322
" style="stroke:#000000;stroke-width:16;
stroke-linejoin:miter; stroke-linecap:butt;
"/>
<!-- Line -->
<polyline points="0,377
6094,377
" style="stroke:#000000;stroke-width:16;
stroke-linejoin:miter; stroke-linecap:butt;
"/>
<!-- Line: box -->
<rect x="0" y="0" width="6094" height="1511" rx="0" 
style="stroke:#000000;stroke-width:16;
stroke-linejoin:miter; stroke-linecap:butt;
"/>
<!-- Line -->
<polyline points="5291,377
5291,1511
" style="stroke:#000000;stroke-width:16;
stroke-linejoin:miter; stroke-linecap:butt;
stroke-dasharray:62 62;"/>
<!-- Line -->
<polyline points="3590,377
3590,1511
" style="stroke:#000000;stroke-width:16;
stroke-linejoin:miter; stroke-linecap:butt;
"/>
<!-- Line -->
<polyline points="1228,377
1228,1511
" style="stroke:#000000;stroke-width:16;
stroke-linejoin:miter; stroke-linecap:butt;
"/>
<!-- Line -->
<polyline points="2220,377
2220,1511
" style="stroke:#000000;stroke-width:16;
stroke-linejoin:miter; stroke-linecap:butt;
"/>
<!-- Text -->
<text xml:space="preserve" x="94" y="283" fill="#000000"  font-family="Helvetica" font-style="normal" font-weight="normal" font-size="227" text-anchor="start">Salute to Robert Burns</text>
<!-- Text -->
<text xml:space="preserve" x="5007" y="283" fill="#000000"  font-family="Helvetica" font-style="normal" font-weight="normal" font-size="177" text-anchor="end">Ann Campbell</text>
<!-- Text -->
<text xml:space="preserve" x="6047" y="283" fill="#000000"  font-family="Helvetica" font-style="normal" font-weight="normal" font-size="227" text-anchor="end">R4x32</text>
<!-- Text -->
<text xml:space="preserve" x="4771" y="1464" fill="#000000"  font-family="Helvetica" font-style="normal" font-weight="normal" font-size="114" text-anchor="middle">27-28</text>
<!-- Text -->
<text xml:space="preserve" x="5669" y="1086" fill="#000000"  font-family="Helvetica" font-style="normal" font-weight="bold" font-size="152" text-anchor="middle">R1</text>
</g>
</svg>
