<?xml version='1.0' encoding='utf-8' standalone='no'?>
<!DOCTYPE svg PUBLIC '-//W3C//DTD SVG 1.1//EN' 'http://www.w3.org/Graphics/SVG/1.1/DTD/svg11.dtd'>
<svg version="1.1" viewBox="-0.028 -0.352 470 106" xmlns='http://www.w3.org/2000/svg'>
<defs>
</defs>
<path fill="#1A171B" d="M5.734,6.431h1.672l2.18,9.391l2.648-9.391h1.695l2.648,9.391l2.133-9.391h1.719l-3,11.5h-1.625
	l-2.703-9.523l-2.742,9.523H8.734L5.734,6.431z"/>
<path fill="#1A171B" d="M21.82,6.431h1.555v4.75h5.945v-4.75h1.555v11.5H29.32V12.54h-5.945v5.391H21.82V6.431z"/>
<path fill="#1A171B" d="M32.359,17.931l4.375-11.5h1.773l4.125,11.5h-1.695l-1.117-3.359h-4.648l-1.211,3.359H32.359z M35.68,13.212
	h3.586l-1.703-5.117L35.68,13.212z"/>
<path fill="#1A171B" d="M43.063,6.431h9.305V7.79h-3.875v10.141h-1.555V7.79h-3.875V6.431z"/>
<path fill="#1A171B" d="M58.32,17.931v-11.5h4.641c1.495,0,2.667,0.505,3.516,1.516c0.849,1.011,1.273,2.394,1.273,4.148
	c0,1.703-0.427,3.102-1.281,4.195c-0.854,1.094-2.047,1.641-3.578,1.641H58.32z M59.875,16.571h2.992
	c0.963,0,1.75-0.359,2.359-1.078c0.614-0.719,0.922-1.856,0.922-3.414c0-1.359-0.294-2.414-0.883-3.164
	c-0.583-0.75-1.425-1.125-2.523-1.125h-2.867V16.571z"/>
<path fill="#1A171B" d="M69.586,6.431h1.164v4.125h-1.164V6.431z"/>
<path fill="#1A171B" d="M71.766,6.431h1.82l3.328,5.477l3.336-5.477h1.82l-4.375,6.875v4.625h-1.555v-4.625L71.766,6.431z"/>
<path fill="#1A171B" d="M82.531,17.931l4.375-11.5h1.773l4.125,11.5h-1.695l-1.117-3.359h-4.648l-1.211,3.359H82.531z
	 M85.852,13.212h3.586l-1.703-5.117L85.852,13.212z"/>
<path fill="#1A171B" d="M97.68,6.431h1.672l2.18,9.391l2.648-9.391h1.695l2.648,9.391l2.133-9.391h1.719l-3,11.5h-1.625
	l-2.703-9.523l-2.742,9.523h-1.625L97.68,6.431z"/>
<path fill="#1A171B" d="M112.75,17.931l4.375-11.5h1.773l4.125,11.5h-1.695l-1.117-3.359h-4.648l-1.211,3.359H112.75z
	 M116.07,13.212h3.586l-1.703-5.117L116.07,13.212z"/>
<path fill="#1A171B" d="M124.414,6.431h1.844l5.781,9.344V6.431h1.508v11.5h-1.75l-5.875-9.344v9.344h-1.508V6.431z"/>
<path fill="#1A171B" d="M135.008,6.431h9.305V7.79h-3.875v10.141h-1.555V7.79h-3.875V6.431z"/>
<path fill="#1A171B" d="M150.359,17.931v-11.5h7.93V7.79h-6.375v3.57h5.602v1.359h-5.602v5.211H150.359z"/>
<path fill="#1A171B" d="M169.648,17.931h-1.914c-0.177-0.755-0.266-1.651-0.266-2.688c0-0.833-0.154-1.411-0.461-1.734
	c-0.308-0.328-0.828-0.492-1.563-0.492h-3.734v4.914h-1.555v-11.5h5.305c1.255,0,2.192,0.258,2.813,0.773
	c0.625,0.511,0.938,1.302,0.938,2.375c0,1.25-0.534,2.161-1.602,2.734c0.469,0.188,0.807,0.438,1.016,0.75
	c0.208,0.313,0.325,0.841,0.352,1.586l0.086,1.875c0.01,0.208,0.039,0.417,0.086,0.625c0.047,0.203,0.213,0.378,0.5,0.523V17.931z
	 M167.609,9.712c0-0.661-0.177-1.146-0.531-1.453c-0.349-0.313-0.854-0.469-1.516-0.469h-3.852v3.93h3.57
	C166.833,11.72,167.609,11.051,167.609,9.712z"/>
<path fill="#1A171B" d="M170.938,12.181c0-1.729,0.495-3.169,1.484-4.32c0.995-1.151,2.372-1.727,4.133-1.727
	c1.75,0,3.122,0.583,4.117,1.75c0.995,1.161,1.492,2.563,1.492,4.203c0,1.808-0.495,3.284-1.484,4.43
	c-0.99,1.141-2.367,1.711-4.133,1.711c-1.651,0-3-0.542-4.047-1.625C171.458,15.514,170.938,14.04,170.938,12.181z M172.539,12.181
	c0,1.344,0.352,2.461,1.055,3.352c0.708,0.891,1.695,1.336,2.961,1.336c1.156,0,2.112-0.417,2.867-1.25
	c0.76-0.839,1.141-1.984,1.141-3.438c0-1.391-0.357-2.519-1.07-3.383c-0.714-0.87-1.695-1.305-2.945-1.305
	c-1.183,0-2.146,0.419-2.891,1.258C172.911,9.59,172.539,10.732,172.539,12.181z"/>
<path fill="#1A171B" d="M183.914,6.431h2.234l3.289,9.703l3.273-9.703h2.234v11.5h-1.508V8.274l-3.242,9.656h-1.531l-3.242-9.703
	v9.703h-1.508V6.431z"/>
<path fill="#1A171B" d="M201.688,6.431h2.234l3.289,9.703l3.273-9.703h2.234v11.5h-1.508V8.274l-3.242,9.656h-1.531l-3.242-9.703
	v9.703h-1.508V6.431z"/>
<path fill="#1A171B" d="M215.234,17.931v-11.5h8.43V7.79h-6.875v3.57h6.344v1.359h-6.344v3.852h7v1.359H215.234z"/>
<path fill="#1A171B" d="M225.422,9.985c0.026-1.271,0.375-2.211,1.047-2.82c0.677-0.609,1.536-0.914,2.578-0.914
	c1.01,0,1.831,0.294,2.461,0.883c0.63,0.589,0.945,1.347,0.945,2.273c0,0.547-0.133,1.016-0.398,1.406
	c-0.261,0.386-0.638,0.813-1.133,1.281c-0.714,0.661-1.128,1.2-1.242,1.617c-0.115,0.417-0.172,0.859-0.172,1.328h-1.406
	c0-0.792,0.109-1.438,0.328-1.938c0.224-0.5,0.755-1.141,1.594-1.922c0.328-0.323,0.563-0.617,0.703-0.883
	c0.146-0.266,0.219-0.567,0.219-0.906c0-0.599-0.172-1.067-0.516-1.406c-0.339-0.344-0.826-0.516-1.461-0.516
	c-0.683,0-1.208,0.206-1.578,0.617c-0.365,0.411-0.552,1.044-0.563,1.898H225.422z M228.078,16.29h1.563v1.641h-1.563V16.29z"/>
<line fill="none" stroke="#000000" stroke-width="1.1112" stroke-miterlimit="10" x1="100.352" y1="25.981" x2="100.352" y2="92.466"/>
<path fill="#1A171B" d="M411.404,11.962c-1.011-0.442-1.516-1.177-1.516-2.203c0-0.917,0.308-1.664,0.922-2.242
	c0.62-0.583,1.45-0.875,2.492-0.875c0.979,0,1.8,0.269,2.461,0.805c0.667,0.531,1,1.258,1,2.18c0,1.094-0.477,1.867-1.43,2.32
	c1.203,0.599,1.805,1.521,1.805,2.766c0,1.016-0.339,1.854-1.016,2.516c-0.672,0.661-1.583,0.992-2.734,0.992
	c-1.125,0-2.052-0.3-2.781-0.898s-1.094-1.44-1.094-2.523C409.514,13.418,410.144,12.473,411.404,11.962z M411.014,14.759
	c0,0.636,0.2,1.161,0.602,1.578c0.401,0.411,0.995,0.617,1.781,0.617c0.698,0,1.245-0.195,1.641-0.586
	c0.401-0.391,0.602-0.894,0.602-1.508c0-0.667-0.2-1.198-0.602-1.594c-0.401-0.401-0.972-0.602-1.711-0.602
	c-0.672,0-1.227,0.19-1.664,0.57C411.229,13.61,411.014,14.118,411.014,14.759z M411.389,9.657c0,0.442,0.169,0.852,0.508,1.227
	c0.339,0.37,0.82,0.555,1.445,0.555c0.542,0,0.997-0.164,1.367-0.492s0.555-0.771,0.555-1.328c0-0.547-0.192-0.969-0.578-1.266
	c-0.38-0.297-0.859-0.445-1.438-0.445c-0.552,0-1,0.153-1.344,0.461C411.561,8.67,411.389,9.1,411.389,9.657z"/>
<path fill="#1A171B" d="M417.975,17.931l2.906-4.352l-2.75-4.023h1.805l1.906,2.914l1.898-2.914h1.734l-2.797,4.023l2.906,4.352
	h-1.781l-2.063-3.141l-1.984,3.141H417.975z"/>
<path fill="#1A171B" d="M427.795,14.47c0.016,0.808,0.211,1.425,0.586,1.852c0.38,0.422,0.977,0.633,1.789,0.633
	c0.683,0,1.266-0.183,1.75-0.547c0.489-0.37,0.734-0.911,0.734-1.625c0-0.62-0.208-1.109-0.625-1.469s-1.042-0.539-1.875-0.539
	c-0.177,0-0.448,0.008-0.813,0.023v-1.227c0.359,0.026,0.583,0.039,0.672,0.039c1.469,0,2.203-0.612,2.203-1.836
	c0-0.567-0.185-1.021-0.555-1.359c-0.364-0.339-0.867-0.508-1.508-0.508c-0.698,0-1.222,0.195-1.57,0.586s-0.547,0.981-0.594,1.773
	h-1.383c0.005-1.141,0.31-2.028,0.914-2.664c0.609-0.641,1.519-0.961,2.727-0.961c1.047,0,1.886,0.278,2.516,0.836
	c0.636,0.552,0.953,1.284,0.953,2.195c0,1.203-0.492,1.987-1.477,2.352c0.714,0.255,1.211,0.599,1.492,1.031
	c0.281,0.427,0.422,0.956,0.422,1.586c0,1.063-0.359,1.925-1.078,2.586s-1.683,0.992-2.891,0.992c-1.104,0-1.997-0.276-2.68-0.828
	c-0.677-0.558-1.065-1.531-1.164-2.922H427.795z"/>
<path fill="#1A171B" d="M435.881,15.188c0.433-0.661,1.023-1.208,1.773-1.641l2.289-1.359c0.521-0.308,0.888-0.625,1.102-0.953
	c0.214-0.333,0.32-0.737,0.32-1.211c0-0.651-0.206-1.167-0.617-1.547c-0.406-0.38-0.958-0.57-1.656-0.57
	c-0.781,0-1.349,0.231-1.703,0.695c-0.349,0.458-0.55,1.138-0.602,2.039h-1.383c0-1.198,0.315-2.164,0.945-2.898
	s1.597-1.102,2.898-1.102c1.052,0,1.917,0.305,2.594,0.914c0.683,0.604,1.023,1.43,1.023,2.477c0,0.703-0.161,1.305-0.484,1.805
	c-0.323,0.495-0.82,0.93-1.492,1.305l-1.906,1.109c-0.672,0.396-1.183,0.766-1.531,1.109c-0.344,0.339-0.594,0.755-0.75,1.25h6.164
	v1.32h-7.75C435.193,16.759,435.448,15.845,435.881,15.188z"/>
<path fill="#1A171B" d="M458.936,17.931h-1.914c-0.177-0.755-0.266-1.651-0.266-2.688c0-0.833-0.153-1.411-0.461-1.734
	c-0.308-0.328-0.828-0.492-1.563-0.492h-3.734v4.914h-1.555v-11.5h5.305c1.255,0,2.192,0.258,2.813,0.773
	c0.625,0.511,0.938,1.302,0.938,2.375c0,1.25-0.534,2.161-1.602,2.734c0.469,0.188,0.808,0.438,1.016,0.75s0.325,0.841,0.352,1.586
	l0.086,1.875c0.011,0.208,0.039,0.417,0.086,0.625c0.047,0.203,0.214,0.378,0.5,0.523V17.931z M456.896,9.712
	c0-0.661-0.177-1.146-0.531-1.453c-0.349-0.313-0.854-0.469-1.516-0.469h-3.852v3.93h3.57
	C456.12,11.72,456.896,11.051,456.896,9.712z"/>
<path fill="none" stroke="#000000" stroke-width="1.1339" stroke-miterlimit="10" d="M0.567,0.567h468.04v91.581H0.567V0.567z"/>
<line fill="none" stroke="#000000" stroke-width="0.4514" stroke-miterlimit="10" x1="364.182" y1="44.47" x2="365.139" y2="42.815"/>
<line fill="none" stroke="#000000" stroke-width="0.4514" stroke-miterlimit="10" x1="370.147" y1="75.921" x2="371.104" y2="74.265"/>
<line fill="none" stroke="#000000" stroke-width="0.4514" stroke-miterlimit="10" x1="349.389" y1="75.565" x2="350.345" y2="73.91"/>
<line fill="none" stroke="#000000" stroke-width="0.4514" stroke-miterlimit="10" x1="382.672" y1="44.945" x2="383.628" y2="43.29"/>
<line fill="none" stroke="#000000" stroke-width="1.1339" stroke-miterlimit="10" x1="0.067" y1="26.146" x2="468.106" y2="26.146"/>
<line fill="none" stroke="#000000" stroke-width="1.1019" stroke-miterlimit="10" x1="223.52" y1="25.854" x2="223.52" y2="91.231"/>
<path fill="#1A171B" d="M392.18,101.425c0.009,0.455,0.119,0.802,0.33,1.042c0.213,0.237,0.549,0.356,1.006,0.356
	c0.384,0,0.712-0.103,0.984-0.309c0.275-0.207,0.413-0.512,0.413-0.914c0-0.348-0.117-0.623-0.352-0.826
	c-0.234-0.201-0.586-0.303-1.055-0.303c-0.1,0-0.252,0.004-0.457,0.014v-0.69c0.202,0.015,0.328,0.022,0.378,0.022
	c0.826,0,1.239-0.345,1.239-1.033c0-0.319-0.104-0.574-0.312-0.765c-0.206-0.19-0.488-0.286-0.849-0.286
	c-0.393,0-0.688,0.11-0.884,0.33s-0.307,0.553-0.334,0.998h-0.777c0.003-0.643,0.174-1.142,0.514-1.499
	c0.344-0.36,0.854-0.54,1.534-0.54c0.589,0,1.061,0.156,1.415,0.47c0.357,0.311,0.536,0.723,0.536,1.235
	c0,0.676-0.276,1.117-0.831,1.322c0.401,0.144,0.682,0.337,0.84,0.58c0.158,0.24,0.237,0.538,0.237,0.893
	c0,0.598-0.202,1.082-0.606,1.454s-0.946,0.558-1.626,0.558c-0.621,0-1.124-0.155-1.507-0.465c-0.382-0.313-0.6-0.861-0.655-1.645
	H392.18z"/>
<path fill="#1A171B" d="M401.36,101.008h0.849c-0.15,0.844-0.468,1.477-0.954,1.898s-1.112,0.633-1.876,0.633
	c-0.877,0-1.582-0.305-2.119-0.914c-0.535-0.612-0.804-1.441-0.804-2.487c0-1.034,0.272-1.859,0.817-2.475
	c0.548-0.617,1.289-0.927,2.224-0.927c0.706,0,1.289,0.176,1.749,0.527c0.463,0.349,0.76,0.876,0.893,1.582h-0.849
	c-0.226-0.896-0.825-1.345-1.798-1.345c-0.636,0-1.15,0.228-1.547,0.682c-0.393,0.454-0.588,1.113-0.588,1.977
	c0,0.798,0.176,1.434,0.527,1.908c0.352,0.472,0.874,0.707,1.568,0.707c0.504,0,0.915-0.149,1.234-0.448
	C401.01,102.025,401.234,101.585,401.36,101.008z"/>
<path fill="#1A171B" d="M402.411,103.54l2.215-6.803h0.598l-2.215,6.803H402.411z"/>
<path fill="#1A171B" d="M405.285,101.066l2.931-3.978h0.655v4.048h0.927v0.689h-0.927v1.547h-0.791v-1.547h-2.795V101.066z
	 M406.027,101.136h2.053v-2.861L406.027,101.136z"/>
<path fill="#1A171B" d="M415.366,101.008h0.849c-0.15,0.844-0.468,1.477-0.954,1.898s-1.112,0.633-1.876,0.633
	c-0.877,0-1.582-0.305-2.119-0.914c-0.535-0.612-0.804-1.441-0.804-2.487c0-1.034,0.272-1.859,0.817-2.475
	c0.548-0.617,1.289-0.927,2.224-0.927c0.706,0,1.289,0.176,1.749,0.527c0.463,0.349,0.76,0.876,0.893,1.582h-0.849
	c-0.226-0.896-0.825-1.345-1.798-1.345c-0.636,0-1.15,0.228-1.547,0.682c-0.393,0.454-0.588,1.113-0.588,1.977
	c0,0.798,0.176,1.434,0.527,1.908c0.352,0.472,0.874,0.707,1.568,0.707c0.504,0,0.915-0.149,1.234-0.448
	C415.016,102.025,415.24,101.585,415.366,101.008z"/>
<path fill="#1A171B" d="M419.673,103.373v-6.469h0.791v6.469H419.673z"/>
<path fill="#1A171B" d="M421.374,101.035c0-0.747,0.2-1.354,0.603-1.819c0.4-0.469,0.934-0.703,1.6-0.703
	c0.641,0,1.168,0.228,1.582,0.681c0.412,0.455,0.619,1.063,0.619,1.824c0,0.718-0.199,1.315-0.598,1.793
	c-0.398,0.475-0.928,0.712-1.586,0.712c-0.648,0-1.18-0.229-1.596-0.686C421.582,102.376,421.374,101.776,421.374,101.035z
	 M422.191,101.017c0,0.513,0.119,0.942,0.355,1.287c0.24,0.347,0.583,0.52,1.029,0.52c0.387,0,0.713-0.151,0.979-0.453
	c0.27-0.305,0.404-0.756,0.404-1.354c0-0.513-0.117-0.941-0.352-1.287s-0.579-0.52-1.032-0.52c-0.411,0-0.745,0.156-1.002,0.467
	C422.318,99.988,422.191,100.434,422.191,101.017z"/>
<path fill="#1A171B" d="M426.652,103.373v-4.711h0.742v0.694c0.396-0.563,0.893-0.844,1.49-0.844c0.504,0,0.894,0.149,1.169,0.448
	c0.275,0.296,0.413,0.697,0.413,1.204v3.208h-0.791v-2.927c0-0.475-0.084-0.798-0.25-0.972c-0.165-0.176-0.409-0.264-0.734-0.264
	c-0.369,0-0.67,0.139-0.9,0.414c-0.232,0.275-0.348,0.663-0.348,1.164v2.584H426.652z"/>
<path fill="#1A171B" d="M431.579,103.909h0.791c0.103,0.478,0.458,0.716,1.067,0.716c0.442,0,0.775-0.112,0.998-0.338
	s0.334-0.606,0.334-1.143v-0.313c-0.284,0.461-0.714,0.69-1.287,0.69c-0.619,0-1.114-0.237-1.486-0.712s-0.558-1.111-0.558-1.912
	c0-0.688,0.171-1.258,0.515-1.709c0.342-0.451,0.818-0.677,1.428-0.677c0.319,0,0.59,0.067,0.813,0.202
	c0.223,0.132,0.432,0.338,0.625,0.619v-0.672h0.742v4.289c0,0.882-0.185,1.497-0.554,1.846c-0.369,0.346-0.905,0.519-1.608,0.519
	c-0.498,0-0.908-0.107-1.23-0.321C431.849,104.777,431.652,104.416,431.579,103.909z M432.256,100.933
	c0,0.593,0.111,1.055,0.334,1.389c0.226,0.334,0.536,0.502,0.932,0.502c0.407,0,0.722-0.151,0.945-0.453
	c0.225-0.302,0.338-0.725,0.338-1.27c0-1.26-0.436-1.891-1.305-1.891C432.67,99.21,432.256,99.786,432.256,100.933z"/>
<path fill="#1A171B" d="M436.207,98.662h0.865l0.879,3.735l0.928-3.735h0.879l0.953,3.735l0.928-3.735h0.791l-1.336,4.711h-0.817
	l-0.989-3.66l-0.927,3.66h-0.817L436.207,98.662z"/>
<path fill="#1A171B" d="M443.19,96.913h0.791v0.905h-0.791V96.913z M443.19,98.662h0.791v4.711h-0.791V98.662z"/>
<path fill="#1A171B" d="M445.635,101.905c0.022,0.612,0.429,0.919,1.217,0.919c0.343,0,0.612-0.066,0.809-0.198
	c0.199-0.135,0.299-0.321,0.299-0.558c0-0.17-0.066-0.305-0.197-0.404c-0.133-0.091-0.379-0.182-0.738-0.273l-0.924-0.229
	c-0.729-0.176-1.094-0.563-1.094-1.164c0-0.431,0.155-0.785,0.466-1.063c0.313-0.281,0.761-0.422,1.341-0.422
	c0.506,0,0.919,0.122,1.238,0.364c0.319,0.244,0.498,0.614,0.537,1.112h-0.778c-0.038-0.519-0.395-0.778-1.067-0.778
	c-0.64,0-0.959,0.225-0.959,0.673c0,0.196,0.075,0.334,0.225,0.413c0.149,0.076,0.358,0.146,0.629,0.211l0.781,0.197
	c0.478,0.123,0.816,0.277,1.016,0.462c0.202,0.193,0.303,0.457,0.303,0.791c0,0.463-0.165,0.839-0.496,1.13
	c-0.328,0.289-0.805,0.435-1.428,0.435c-0.578,0-1.041-0.122-1.389-0.364c-0.35-0.243-0.538-0.661-0.567-1.253H445.635z"/>
<path fill="#1A171B" d="M450.262,101.263c0,0.492,0.111,0.876,0.334,1.151c0.226,0.272,0.563,0.409,1.011,0.409
	c0.319-0.003,0.598-0.094,0.835-0.273c0.24-0.181,0.383-0.396,0.426-0.646h0.778c-0.103,0.495-0.325,0.89-0.668,1.183
	c-0.343,0.289-0.793,0.435-1.349,0.435c-0.663,0-1.193-0.208-1.592-0.624c-0.395-0.416-0.593-1.017-0.593-1.802
	c0-0.759,0.193-1.378,0.58-1.858c0.39-0.484,0.935-0.726,1.635-0.726c0.659,0,1.16,0.228,1.503,0.681
	c0.346,0.452,0.527,1.142,0.545,2.07H450.262z M450.262,100.639h2.628c-0.056-0.524-0.19-0.894-0.404-1.107s-0.504-0.321-0.87-0.321
	c-0.387,0-0.703,0.133-0.949,0.396C450.42,99.868,450.285,100.211,450.262,100.639z"/>
<path fill="#1A171B" d="M457.641,101.905c0.022,0.612,0.429,0.919,1.217,0.919c0.343,0,0.612-0.066,0.809-0.198
	c0.199-0.135,0.299-0.321,0.299-0.558c0-0.17-0.066-0.305-0.197-0.404c-0.133-0.091-0.379-0.182-0.738-0.273l-0.924-0.229
	c-0.729-0.176-1.094-0.563-1.094-1.164c0-0.431,0.155-0.785,0.466-1.063c0.313-0.281,0.761-0.422,1.341-0.422
	c0.506,0,0.919,0.122,1.238,0.364c0.319,0.244,0.498,0.614,0.537,1.112h-0.778c-0.038-0.519-0.395-0.778-1.067-0.778
	c-0.64,0-0.959,0.225-0.959,0.673c0,0.196,0.075,0.334,0.225,0.413c0.149,0.076,0.358,0.146,0.629,0.211l0.781,0.197
	c0.478,0.123,0.816,0.277,1.016,0.462c0.202,0.193,0.303,0.457,0.303,0.791c0,0.463-0.165,0.839-0.496,1.13
	c-0.328,0.289-0.805,0.435-1.428,0.435c-0.578,0-1.041-0.122-1.389-0.364c-0.35-0.243-0.538-0.661-0.567-1.253H457.641z"/>
<path fill="#1A171B" d="M462.268,101.263c0,0.492,0.111,0.876,0.334,1.151c0.226,0.272,0.563,0.409,1.011,0.409
	c0.319-0.003,0.598-0.094,0.835-0.273c0.24-0.181,0.383-0.396,0.426-0.646h0.778c-0.103,0.495-0.325,0.89-0.668,1.183
	c-0.343,0.289-0.793,0.435-1.349,0.435c-0.663,0-1.193-0.208-1.592-0.624c-0.395-0.416-0.593-1.017-0.593-1.802
	c0-0.759,0.193-1.378,0.58-1.858c0.39-0.484,0.935-0.726,1.635-0.726c0.659,0,1.16,0.228,1.503,0.681
	c0.346,0.452,0.527,1.142,0.545,2.07H462.268z M462.268,100.639h2.628c-0.056-0.524-0.19-0.894-0.404-1.107s-0.504-0.321-0.87-0.321
	c-0.387,0-0.703,0.133-0.949,0.396C462.426,99.868,462.291,100.211,462.268,100.639z"/>
<path fill="#1A171B" d="M466.223,99.321v-0.659h0.643v-1.336h0.791v1.336h0.773v0.659h-0.773v3.059c0,0.252,0.159,0.378,0.479,0.378
	h0.277v0.629c-0.297,0.04-0.518,0.061-0.664,0.061c-0.589,0-0.883-0.338-0.883-1.015v-3.111H466.223z"/>
<path fill="#1A171B" d="M4.551,102.437l1.871-5.533h0.984l-2.391,6.469H4.089l-2.391-6.469h0.967L4.551,102.437z"/>
<path fill="#1A171B" d="M8.097,96.913h0.791v0.905H8.097V96.913z M8.097,98.662h0.791v4.711H8.097V98.662z"/>
<path fill="#1A171B" d="M10.097,103.373v-6.469h0.791v3.744l2.021-1.986h1.002l-1.793,1.749l1.903,2.962h-1.016l-1.459-2.391
	l-0.659,0.682v1.709H10.097z"/>
<path fill="#1A171B" d="M14.117,99.321v-0.659h0.643v-1.336h0.791v1.336h0.773v0.659h-0.773v3.059c0,0.252,0.159,0.378,0.479,0.378
	h0.277v0.629c-0.297,0.04-0.518,0.061-0.664,0.061c-0.589,0-0.883-0.338-0.883-1.015v-3.111H14.117z"/>
<path fill="#1A171B" d="M16.798,101.035c0-0.747,0.2-1.354,0.603-1.819c0.4-0.469,0.934-0.703,1.6-0.703
	c0.641,0,1.168,0.228,1.582,0.681c0.412,0.455,0.619,1.063,0.619,1.824c0,0.718-0.199,1.315-0.598,1.793
	c-0.398,0.475-0.928,0.712-1.586,0.712c-0.648,0-1.18-0.229-1.596-0.686C17.006,102.376,16.798,101.776,16.798,101.035z
	 M17.615,101.017c0,0.513,0.119,0.942,0.355,1.287c0.24,0.347,0.583,0.52,1.029,0.52c0.387,0,0.713-0.151,0.979-0.453
	c0.27-0.305,0.404-0.756,0.404-1.354c0-0.513-0.117-0.941-0.352-1.287S19.453,99.21,19,99.21c-0.411,0-0.745,0.156-1.002,0.467
	C17.742,99.988,17.615,100.434,17.615,101.017z"/>
<path fill="#1A171B" d="M22.19,103.373v-4.711h0.743v0.787c0.216-0.361,0.426-0.607,0.628-0.738
	c0.205-0.133,0.438-0.198,0.698-0.198c0.053,0,0.119,0.011,0.198,0.03v0.813h-0.299c-0.349,0-0.633,0.125-0.853,0.374
	c-0.217,0.249-0.325,0.548-0.325,0.896v2.746H22.19z"/>
<path fill="#1A171B" d="M27.676,96.904h0.874v5.704h3.305v0.765h-4.179V96.904z"/>
<path fill="#1A171B" d="M33.178,101.263c0,0.492,0.111,0.876,0.334,1.151c0.226,0.272,0.563,0.409,1.011,0.409
	c0.319-0.003,0.598-0.094,0.835-0.273c0.24-0.181,0.383-0.396,0.426-0.646h0.778c-0.103,0.495-0.325,0.89-0.668,1.183
	c-0.343,0.289-0.793,0.435-1.349,0.435c-0.663,0-1.193-0.208-1.592-0.624c-0.395-0.416-0.593-1.017-0.593-1.802
	c0-0.759,0.193-1.378,0.58-1.858c0.39-0.484,0.935-0.726,1.635-0.726c0.659,0,1.16,0.228,1.503,0.681
	c0.346,0.452,0.527,1.142,0.545,2.07H33.178z M33.178,100.639h2.628c-0.056-0.524-0.19-0.894-0.404-1.107s-0.504-0.321-0.87-0.321
	c-0.387,0-0.703,0.133-0.949,0.396C33.336,99.868,33.201,100.211,33.178,100.639z"/>
<path fill="#1A171B" d="M37.586,96.904h0.791v2.382c0.354-0.516,0.835-0.773,1.441-0.773c0.504,0,0.894,0.149,1.169,0.448
	c0.275,0.296,0.413,0.697,0.413,1.204v3.208h-0.791v-3.107c0-0.389-0.076-0.661-0.229-0.816c-0.152-0.158-0.384-0.238-0.694-0.238
	c-0.413,0-0.735,0.134-0.967,0.4c-0.229,0.264-0.343,0.656-0.343,1.178v2.584h-0.791V96.904z"/>
<path fill="#1A171B" d="M42.592,98.662h0.742v0.694c0.401-0.563,0.881-0.844,1.438-0.844c0.548,0,0.958,0.258,1.23,0.773
	c0.39-0.516,0.853-0.773,1.389-0.773c0.434,0,0.788,0.138,1.063,0.413s0.413,0.67,0.413,1.182v3.266h-0.791V100.3
	c0-0.726-0.277-1.09-0.83-1.09c-0.294,0-0.555,0.115-0.783,0.344c-0.226,0.226-0.338,0.534-0.338,0.927v2.892h-0.791v-3.283
	c0-0.585-0.245-0.879-0.734-0.879c-0.354,0-0.646,0.136-0.874,0.404c-0.229,0.271-0.343,0.661-0.343,1.174v2.584h-0.791V98.662z"/>
<path fill="#1A171B" d="M50.066,100.059c0.023-1.031,0.655-1.547,1.895-1.547c0.521,0,0.947,0.114,1.279,0.343
	c0.334,0.229,0.5,0.556,0.5,0.98v2.742c0,0.111,0.021,0.186,0.063,0.224c0.04,0.038,0.104,0.058,0.188,0.058
	c0.053,0,0.142-0.014,0.269-0.04v0.575c-0.193,0.059-0.347,0.088-0.457,0.088c-0.276,0-0.475-0.061-0.598-0.184
	c-0.121-0.123-0.189-0.305-0.207-0.545c-0.448,0.513-1.005,0.769-1.67,0.769c-0.396,0-0.744-0.116-1.046-0.347
	c-0.302-0.234-0.452-0.583-0.452-1.047c0-0.846,0.473-1.331,1.419-1.454l1.235-0.163c0.187-0.022,0.313-0.078,0.377-0.166
	c0.067-0.088,0.102-0.222,0.102-0.4c0-0.516-0.359-0.773-1.076-0.773c-0.369,0-0.632,0.074-0.787,0.225
	c-0.155,0.148-0.257,0.37-0.303,0.663H50.066z M52.949,100.968c-0.12,0.095-0.366,0.169-0.738,0.225
	c-0.372,0.053-0.561,0.079-0.566,0.079c-0.665,0.091-0.998,0.354-0.998,0.791c0,0.533,0.284,0.8,0.854,0.8
	c0.374,0,0.71-0.105,1.006-0.316s0.443-0.478,0.443-0.8V100.968z"/>
<path fill="#1A171B" d="M55.094,103.373v-4.711h0.742v0.694c0.396-0.563,0.893-0.844,1.49-0.844c0.504,0,0.894,0.149,1.169,0.448
	c0.275,0.296,0.413,0.697,0.413,1.204v3.208h-0.791v-2.927c0-0.475-0.084-0.798-0.25-0.972c-0.165-0.176-0.409-0.264-0.734-0.264
	c-0.369,0-0.67,0.139-0.9,0.414c-0.232,0.275-0.348,0.663-0.348,1.164v2.584H55.094z"/>
<path fill="#1A171B" d="M60.1,103.373v-4.711h0.742v0.694c0.396-0.563,0.893-0.844,1.49-0.844c0.504,0,0.894,0.149,1.169,0.448
	c0.275,0.296,0.413,0.697,0.413,1.204v3.208h-0.791v-2.927c0-0.475-0.084-0.798-0.25-0.972c-0.165-0.176-0.409-0.264-0.734-0.264
	c-0.369,0-0.67,0.139-0.9,0.414c-0.232,0.275-0.348,0.663-0.348,1.164v2.584H60.1z"/>
<path fill="#1A171B" d="M65.316,104.291c0.311-0.047,0.471-0.353,0.479-0.918h-0.479v-0.984h0.94v0.896
	c0,0.82-0.313,1.295-0.94,1.424V104.291z"/>
<path fill="#1A171B" d="M70.193,101.83c0.243-0.371,0.576-0.679,0.998-0.922l1.287-0.766c0.293-0.172,0.499-0.352,0.619-0.535
	c0.12-0.188,0.181-0.415,0.181-0.682c0-0.366-0.116-0.656-0.347-0.87c-0.229-0.214-0.54-0.321-0.932-0.321
	c-0.439,0-0.76,0.131-0.959,0.392c-0.196,0.258-0.309,0.641-0.338,1.147h-0.777c0-0.674,0.177-1.218,0.531-1.631
	s0.897-0.619,1.631-0.619c0.591,0,1.077,0.171,1.459,0.514c0.383,0.34,0.575,0.805,0.575,1.393c0,0.396-0.091,0.734-0.272,1.016
	c-0.182,0.278-0.461,0.523-0.84,0.734l-1.072,0.623c-0.377,0.224-0.665,0.432-0.861,0.625c-0.193,0.19-0.334,0.425-0.422,0.703
	h3.468v0.742h-4.359C69.807,102.713,69.95,102.199,70.193,101.83z"/>
<path fill="#1A171B" d="M74.865,100.305c0-1.008,0.185-1.806,0.554-2.396c0.372-0.591,0.92-0.887,1.644-0.887
	c0.662,0,1.188,0.271,1.578,0.816c0.389,0.543,0.584,1.347,0.584,2.413c0,1.02-0.184,1.822-0.549,2.408
	c-0.367,0.583-0.91,0.874-1.631,0.874c-0.665,0-1.195-0.271-1.591-0.813C75.062,102.18,74.865,101.375,74.865,100.305z
	 M75.709,100.279c0,1.696,0.442,2.545,1.327,2.545c0.896,0,1.345-0.849,1.345-2.545s-0.445-2.545-1.336-2.545
	S75.709,98.583,75.709,100.279z"/>
<path fill="#1A171B" d="M80.451,98.284c0.574-0.023,0.971-0.118,1.191-0.286c0.222-0.166,0.392-0.47,0.51-0.909h0.619v6.284h-0.844
	v-4.456h-1.477V98.284z"/>
<path fill="#1A171B" d="M85,101.847h0.777c0.08,0.65,0.447,0.977,1.104,0.977c0.498,0,0.873-0.231,1.125-0.695
	c0.252-0.465,0.396-1.018,0.436-1.656c-0.281,0.519-0.786,0.777-1.512,0.777c-0.598,0-1.082-0.187-1.451-0.563
	c-0.369-0.374-0.553-0.869-0.553-1.484c0-0.65,0.191-1.177,0.575-1.578c0.387-0.401,0.899-0.602,1.538-0.602
	c1.497,0,2.246,0.975,2.246,2.926c0,1.059-0.203,1.921-0.607,2.589c-0.401,0.665-0.997,0.997-1.788,0.997
	c-0.557,0-1.004-0.148-1.341-0.447S85.029,102.375,85,101.847z M85.77,99.189c0,0.899,0.424,1.35,1.273,1.35
	c0.379,0,0.685-0.119,0.919-0.356c0.237-0.24,0.356-0.596,0.356-1.067c0-0.419-0.11-0.753-0.33-1.002
	c-0.217-0.252-0.531-0.379-0.945-0.379c-0.387,0-0.695,0.131-0.927,0.392S85.77,98.741,85.77,99.189z"/>
<rect x="342.766" y="74.543" transform="matrix(-0.866 -0.5 0.5 -0.866 608.058 320.3671)" fill="none" stroke="#000000" stroke-width="0.4645" stroke-miterlimit="10" width="8.364" height="8.36"/>
<path d="M346.052,79.461c0.02,0.61,0.275,0.915,0.77,0.915c0.236,0,0.428-0.072,0.574-0.219s0.221-0.355,0.221-0.627
	c0-0.264-0.095-0.455-0.282-0.574c-0.187-0.123-0.495-0.184-0.927-0.184v-0.747h0.168c0.584,0,0.876-0.231,0.876-0.696
	c0-0.207-0.062-0.375-0.184-0.505c-0.122-0.132-0.292-0.198-0.509-0.198c-0.479,0-0.721,0.286-0.725,0.857h-0.953
	c0-0.525,0.15-0.938,0.451-1.242c0.303-0.305,0.729-0.457,1.281-0.457c0.506,0,0.916,0.129,1.23,0.389
	c0.315,0.258,0.473,0.615,0.473,1.068c0,0.477-0.219,0.826-0.655,1.048c0.546,0.225,0.82,0.638,0.82,1.237
	c0,0.496-0.169,0.902-0.506,1.221c-0.335,0.314-0.783,0.472-1.348,0.472c-0.591,0-1.036-0.149-1.337-0.446
	c-0.3-0.301-0.463-0.738-0.49-1.312H346.052z"/>
<line fill="none" stroke="#000000" stroke-width="1.1019" stroke-miterlimit="10" x1="331.935" y1="26.103" x2="331.935" y2="91.48"/>
<line fill="none" stroke="#000000" stroke-width="0.5528" stroke-miterlimit="10" stroke-dasharray="1.4173" x1="39.841" y1="26.571" x2="39.841" y2="92.39"/>
<path d="M11.784,54.594h9.383v2.016h-3.5v9.484h-2.383v-9.484h-3.5V54.594z"/>
<path d="M26.986,69.451h-1.655c-0.101-0.389-0.155-0.813-0.161-1.275l-0.01-0.537c-0.006-0.357-0.086-0.613-0.239-0.766
	c-0.153-0.154-0.464-0.23-0.933-0.23h-1.572v2.809h-1.489v-7.188h3.667c0.69,0,1.242,0.188,1.655,0.561
	c0.414,0.371,0.62,0.875,0.62,1.51c0,0.811-0.373,1.373-1.118,1.689c0.404,0.158,0.656,0.379,0.757,0.658
	c0.101,0.281,0.151,0.719,0.151,1.314v0.287c0,0.273,0.018,0.492,0.054,0.654c0.039,0.16,0.13,0.266,0.273,0.318V69.451z
	 M25.355,64.48c0-0.639-0.352-0.957-1.055-0.957h-1.885v1.918h1.768C24.964,65.441,25.355,65.121,25.355,64.48z"/>
<path fill="none" stroke="#000000" stroke-width="0.5572" stroke-miterlimit="10" d="M51.05,62.568
	c-0.088-0.396-0.133-0.801-0.133-1.207c0-3.031,2.459-5.491,5.49-5.491c3.029,0,5.488,2.459,5.488,5.491
	c0,1.018-0.281,2.014-0.814,2.879"/>
<polygon fill-rule="evenodd" clip-rule="evenodd" stroke="#000000" stroke-width="0.2786" stroke-miterlimit="10" points="
	60.574,60.884 61.392,65.417 62.802,61.033 60.574,60.884 "/>
<path d="M53.799,59.326c0.702,0,1.196-0.115,1.483-0.348s0.449-0.52,0.485-0.861h1.16v7.119h-1.405V60.31h-1.724V59.326z"/>
<rect x="363.268" y="35.213" transform="matrix(-0.866 -0.5 0.5 -0.866 665.9652 257.2429)" fill="none" stroke="#000000" stroke-width="0.4645" stroke-miterlimit="10" width="8.363" height="8.36"/>
<path d="M365.772,37.359c0.525,0,0.895-0.087,1.109-0.26s0.336-0.388,0.363-0.645h0.867v5.325h-1.051v-3.684h-1.289V37.359z"/>
<rect x="447.934" y="73.712" transform="matrix(-0.866 0.5 -0.5 -0.866 882.5995 -80.7254)" fill="none" stroke="#000000" stroke-width="0.4645" stroke-miterlimit="10" width="8.363" height="8.361"/>
<path d="M450.476,79.115c0.205-0.33,0.599-0.709,1.182-1.14c0.484-0.354,0.787-0.621,0.908-0.802
	c0.123-0.181,0.184-0.367,0.184-0.561c0-0.215-0.063-0.397-0.187-0.549c-0.122-0.154-0.307-0.23-0.554-0.23
	c-0.268,0-0.456,0.084-0.563,0.252c-0.108,0.169-0.162,0.416-0.162,0.744h-1.051v-0.154c0-0.464,0.145-0.867,0.436-1.209
	c0.293-0.342,0.729-0.512,1.308-0.512c0.508,0,0.938,0.144,1.292,0.432c0.354,0.285,0.531,0.695,0.531,1.23
	c0,0.363-0.088,0.682-0.264,0.952c-0.173,0.269-0.518,0.581-1.032,0.938c-0.563,0.391-0.899,0.67-1.007,0.839h2.303v0.934h-3.633
	C450.167,79.832,450.271,79.444,450.476,79.115z"/>
<path fill="none" stroke="#000000" stroke-width="0.4647" stroke-miterlimit="10" d="M371.503,78.973
	c0,2.31-1.874,4.183-4.182,4.183c-2.31,0-4.184-1.873-4.184-4.183c0-2.308,1.874-4.181,4.184-4.181
	C369.629,74.792,371.503,76.666,371.503,78.973L371.503,78.973z"/>
<path d="M365.771,76.856c0.524,0,0.895-0.087,1.11-0.261c0.214-0.173,0.335-0.388,0.361-0.645h0.869v5.325h-1.052v-3.685h-1.289
	V76.856z"/>
<path d="M71.7,55.26h9.383v2.016h-3.5v9.484H75.2v-9.484h-3.5V55.26z"/>
<path d="M80.842,62.929h1.489v5.928h3.594v1.26h-5.083V62.929z"/>
<path fill="none" stroke="#000000" stroke-width="0.4647" stroke-miterlimit="10" d="M417.42,38.973c0,2.31-1.875,4.183-4.183,4.183
	c-2.31,0-4.184-1.873-4.184-4.183c0-2.308,1.874-4.181,4.184-4.181C415.545,34.792,417.42,36.666,417.42,38.973L417.42,38.973z"/>
<path d="M412.468,39.628c0.02,0.61,0.275,0.916,0.77,0.916c0.236,0,0.428-0.073,0.574-0.22s0.22-0.355,0.22-0.626
	c0-0.264-0.095-0.456-0.282-0.575c-0.186-0.122-0.494-0.183-0.926-0.183v-0.747h0.168c0.584,0,0.875-0.232,0.875-0.696
	c0-0.208-0.061-0.376-0.184-0.505c-0.121-0.132-0.291-0.198-0.508-0.198c-0.479,0-0.721,0.286-0.726,0.857h-0.952
	c0-0.525,0.15-0.938,0.451-1.242c0.302-0.305,0.729-0.458,1.281-0.458c0.506,0,0.916,0.129,1.23,0.388s0.473,0.615,0.473,1.069
	c0,0.476-0.219,0.825-0.656,1.047c0.547,0.225,0.82,0.637,0.82,1.238c0,0.496-0.168,0.902-0.506,1.22
	c-0.334,0.314-0.783,0.472-1.348,0.472c-0.59,0-1.035-0.149-1.336-0.447c-0.301-0.3-0.464-0.737-0.49-1.311H412.468z"/>
<path fill="none" stroke="#000000" stroke-width="0.4647" stroke-miterlimit="10" d="M390.17,39.473c0,2.31-1.875,4.183-4.182,4.183
	c-2.311,0-4.184-1.873-4.184-4.183c0-2.308,1.873-4.181,4.184-4.181C388.295,35.292,390.17,37.166,390.17,39.473L390.17,39.473z"/>
<path d="M384.475,40.611c0.205-0.33,0.599-0.709,1.183-1.139c0.483-0.354,0.786-0.621,0.908-0.802s0.184-0.367,0.184-0.561
	c0-0.214-0.063-0.397-0.188-0.549c-0.121-0.154-0.307-0.231-0.553-0.231c-0.269,0-0.457,0.084-0.563,0.252
	c-0.108,0.169-0.161,0.417-0.161,0.744h-1.051v-0.154c0-0.464,0.145-0.867,0.436-1.208c0.293-0.342,0.729-0.513,1.307-0.513
	c0.508,0,0.939,0.144,1.293,0.432c0.354,0.286,0.531,0.696,0.531,1.23c0,0.364-0.088,0.681-0.264,0.952
	c-0.174,0.269-0.518,0.581-1.033,0.938c-0.563,0.391-0.899,0.67-1.007,0.839h2.304v0.934h-3.633
	C384.167,41.329,384.27,40.941,384.475,40.611z"/>
<line fill="none" stroke="#000000" stroke-width="0.5528" stroke-miterlimit="10" stroke-dasharray="1.4173" x1="283.507" y1="26.071" x2="283.507" y2="91.89"/>
<polyline fill="none" stroke="#000000" stroke-width="0.1949" stroke-linejoin="bevel" stroke-miterlimit="10" points="
	229.499,34.805 229.522,34.782 229.591,34.712 229.775,34.551 229.983,34.343 230.191,34.182 230.377,34.02 230.538,33.882 
	230.723,33.767 230.839,33.696 230.977,33.604 231.138,33.535 231.346,33.442 231.6,33.373 231.9,33.327 232.224,33.257 
	232.616,33.234 233.056,33.211 233.563,33.211 234.095,33.211 234.695,33.257 235.087,33.281 235.526,33.304 235.965,33.35 
	236.449,33.396 236.98,33.442 237.512,33.488 238.09,33.558 238.666,33.627 239.267,33.674 239.868,33.742 240.468,33.813 
	241.067,33.859 241.646,33.905 242.199,33.975 242.73,33.997 243.239,34.043 243.701,34.066 244.14,34.089 244.531,34.113 
	244.924,34.113 245.479,34.089 245.964,34.066 246.402,34.02 246.771,33.928 247.095,33.859 247.372,33.767 247.603,33.674 
	247.788,33.604 247.926,33.512 248.042,33.465 248.11,33.442 248.203,33.419 248.296,33.442 248.364,33.465 248.48,33.512 
	248.619,33.604 248.805,33.674 249.035,33.767 249.313,33.859 249.635,33.928 250.005,34.02 250.443,34.066 250.928,34.089 
	251.506,34.113 251.874,34.113 252.268,34.089 252.706,34.066 253.168,34.043 253.677,33.997 254.207,33.975 254.762,33.905 
	255.339,33.859 255.938,33.813 256.539,33.742 257.14,33.674 257.74,33.627 258.317,33.558 258.896,33.488 259.426,33.442 
	259.958,33.396 260.442,33.35 260.88,33.304 261.32,33.281 261.712,33.257 262.313,33.211 262.844,33.211 263.351,33.211 
	263.791,33.234 264.183,33.257 264.506,33.327 264.806,33.373 265.061,33.442 265.269,33.535 265.43,33.604 265.568,33.696 
	265.706,33.767 265.869,33.882 266.031,34.02 266.215,34.182 266.423,34.343 266.63,34.551 266.814,34.712 266.885,34.782 
	266.908,34.805 "/>
<path fill="none" stroke="#000000" stroke-width="0.5572" stroke-linejoin="bevel" stroke-miterlimit="10" d="M268.683,68.138
	c0,3.691-2.996,6.688-6.688,6.688c-3.689,0-6.686-2.996-6.686-6.688c0-3.689,2.996-6.686,6.686-6.686
	C265.687,61.453,268.683,64.449,268.683,68.138L268.683,68.138z M268.683,54.764c0,3.69-2.996,6.687-6.688,6.687
	c-3.689,0-6.686-2.996-6.686-6.687c0-3.689,2.996-6.686,6.686-6.686C265.687,48.079,268.683,51.075,268.683,54.764L268.683,54.764z"
	/>
<line fill="none" stroke="#000000" stroke-width="0.5572" stroke-miterlimit="10" x1="260.046" y1="61.656" x2="248.345" y2="54.97"/>
<path fill="none" stroke="#000000" stroke-width="0.5572" stroke-linejoin="bevel" stroke-miterlimit="10" d="M245.169,68.138
	c0,3.691-2.996,6.688-6.688,6.688c-3.689,0-6.686-2.996-6.686-6.688c0-3.689,2.996-6.686,6.686-6.686
	C242.173,61.453,245.169,64.449,245.169,68.138L245.169,68.138z M245.169,54.764c0,3.69-2.996,6.687-6.688,6.687
	c-3.689,0-6.686-2.996-6.686-6.687c0-3.689,2.996-6.686,6.686-6.686C242.173,48.079,245.169,51.075,245.169,54.764L245.169,54.764z"
	/>
<line fill="none" stroke="#000000" stroke-width="0.5572" stroke-miterlimit="10" x1="251.546" y1="67.906" x2="239.845" y2="61.22"/>
<line fill="none" stroke="#000000" stroke-width="0.5572" stroke-miterlimit="10" x1="262.409" y1="77.652" x2="262.409" y2="45.894"/>
<line fill="none" stroke="#000000" stroke-width="0.5572" stroke-miterlimit="10" x1="238.243" y1="77.652" x2="238.243" y2="45.894"/>
<path fill-rule="evenodd" clip-rule="evenodd" stroke="#000000" stroke-width="0.2786" stroke-miterlimit="10" d="M273.139,61.025
	c0.472,0,0.854,0.383,0.854,0.854c0,0.473-0.383,0.855-0.854,0.855s-0.854-0.383-0.854-0.855
	C272.284,61.408,272.667,61.025,273.139,61.025L273.139,61.025z"/>
<path fill="none" stroke="#000000" stroke-width="0.5572" stroke-miterlimit="10" d="M273.209,59.423
	c1.395,0,2.526,1.133,2.526,2.525c0,1.396-1.132,2.527-2.526,2.527c-1.394,0-2.525-1.131-2.525-2.527
	C270.684,60.556,271.815,59.423,273.209,59.423L273.209,59.423z"/>
<path fill="none" stroke="#000000" stroke-width="0.5572" stroke-linejoin="bevel" stroke-miterlimit="10" d="M313.473,56.616
	c-3.689,0-6.686-2.996-6.686-6.688c0-3.689,2.996-6.686,6.686-6.686c3.691,0,6.688,2.996,6.688,6.686
	C320.16,53.62,317.164,56.616,313.473,56.616L313.473,56.616z M300.099,56.616c-3.689,0-6.686-2.996-6.686-6.688
	c0-3.689,2.996-6.686,6.686-6.686c3.69,0,6.687,2.996,6.687,6.686C306.785,53.62,303.789,56.616,300.099,56.616L300.099,56.616z"/>
<line fill="none" stroke="#000000" stroke-width="0.5572" stroke-miterlimit="10" x1="306.99" y1="47.979" x2="300.305" y2="36.278"/>
<path fill="none" stroke="#000000" stroke-width="0.5572" stroke-linejoin="bevel" stroke-miterlimit="10" d="M313.723,77.038
	c-3.689,0-6.686-2.996-6.686-6.688c0-3.689,2.996-6.686,6.686-6.686c3.691,0,6.688,2.996,6.688,6.686
	C320.41,74.042,317.414,77.038,313.723,77.038L313.723,77.038z M300.349,77.038c-3.689,0-6.686-2.996-6.686-6.688
	c0-3.689,2.996-6.686,6.686-6.686c3.69,0,6.687,2.996,6.687,6.686C307.035,74.042,304.039,77.038,300.349,77.038L300.349,77.038z"/>
<line fill="none" stroke="#000000" stroke-width="0.5572" stroke-miterlimit="10" x1="313.49" y1="83.415" x2="306.805" y2="71.713"/>
<line fill="none" stroke="#000000" stroke-width="0.5572" stroke-miterlimit="10" x1="322.986" y1="50.342" x2="291.228" y2="50.342"/>
<line fill="none" stroke="#000000" stroke-width="0.5572" stroke-miterlimit="10" x1="323.236" y1="70.112" x2="291.478" y2="70.112"/>
<path d="M346.302,40.131c0.02,0.61,0.275,0.916,0.77,0.916c0.236,0,0.428-0.073,0.574-0.22s0.221-0.355,0.221-0.626
	c0-0.264-0.095-0.456-0.282-0.575c-0.187-0.122-0.495-0.183-0.927-0.183v-0.747h0.168c0.584,0,0.876-0.232,0.876-0.696
	c0-0.208-0.062-0.376-0.184-0.505c-0.122-0.132-0.292-0.198-0.509-0.198c-0.479,0-0.721,0.286-0.725,0.857h-0.953
	c0-0.525,0.15-0.938,0.451-1.242c0.303-0.305,0.729-0.458,1.281-0.458c0.506,0,0.916,0.129,1.23,0.388
	c0.315,0.259,0.473,0.615,0.473,1.069c0,0.476-0.219,0.825-0.655,1.047c0.546,0.225,0.82,0.637,0.82,1.238
	c0,0.496-0.169,0.902-0.506,1.22c-0.335,0.314-0.783,0.472-1.348,0.472c-0.591,0-1.036-0.149-1.337-0.447
	c-0.3-0.3-0.463-0.737-0.49-1.311H346.302z"/>
<path d="M385.56,79.865c0.205-0.33,0.599-0.709,1.182-1.14c0.484-0.354,0.787-0.621,0.908-0.802
	c0.123-0.181,0.184-0.367,0.184-0.561c0-0.215-0.063-0.397-0.187-0.549c-0.122-0.154-0.307-0.23-0.554-0.23
	c-0.268,0-0.456,0.084-0.563,0.252c-0.108,0.169-0.162,0.416-0.162,0.744h-1.051v-0.154c0-0.464,0.145-0.867,0.436-1.209
	c0.293-0.342,0.729-0.512,1.308-0.512c0.508,0,0.938,0.144,1.292,0.432c0.354,0.285,0.531,0.695,0.531,1.23
	c0,0.363-0.088,0.682-0.264,0.952c-0.173,0.269-0.518,0.581-1.032,0.938c-0.563,0.391-0.899,0.67-1.007,0.839h2.303v0.934h-3.633
	C385.251,80.582,385.354,80.194,385.56,79.865z"/>
<line fill="none" stroke="#000000" stroke-width="0.4514" stroke-miterlimit="10" x1="429.098" y1="72.66" x2="430.055" y2="74.315"/>
<line fill="none" stroke="#000000" stroke-width="0.4514" stroke-miterlimit="10" x1="433.598" y1="43.158" x2="434.555" y2="44.815"/>
<line fill="none" stroke="#000000" stroke-width="0.4514" stroke-miterlimit="10" x1="415.849" y1="42.41" x2="416.805" y2="44.065"/>
<line fill="none" stroke="#000000" stroke-width="0.4514" stroke-miterlimit="10" x1="448.849" y1="72.41" x2="449.805" y2="74.065"/>
<line fill="none" stroke="#000000" stroke-width="0.5528" stroke-miterlimit="10" stroke-dasharray="1.4173" x1="399.424" y1="25.988" x2="399.424" y2="91.806"/>
<path fill="none" stroke="#000000" stroke-width="0.4647" stroke-miterlimit="10" d="M436.419,39.223
	c0,2.31-1.874,4.183-4.182,4.183c-2.31,0-4.184-1.873-4.184-4.183c0-2.308,1.874-4.181,4.184-4.181
	C434.545,35.042,436.419,36.916,436.419,39.223L436.419,39.223z"/>
<path d="M430.688,37.106c0.524,0,0.895-0.087,1.11-0.26c0.214-0.173,0.335-0.388,0.361-0.645h0.869v5.325h-1.052v-3.684h-1.289
	V37.106z"/>
<rect x="427.934" y="73.962" transform="matrix(-0.866 0.5 -0.5 -0.866 845.4035 -70.258)" fill="none" stroke="#000000" stroke-width="0.4645" stroke-miterlimit="10" width="8.363" height="8.36"/>
<path d="M430.438,76.109c0.525,0,0.895-0.087,1.109-0.26c0.215-0.174,0.336-0.389,0.363-0.645h0.867v5.324h-1.051v-3.684h-1.289
	V76.109z"/>
<path d="M412.226,79.115c0.205-0.33,0.599-0.709,1.182-1.14c0.484-0.354,0.787-0.621,0.908-0.802
	c0.123-0.181,0.184-0.367,0.184-0.561c0-0.215-0.063-0.397-0.187-0.549c-0.122-0.154-0.307-0.23-0.554-0.23
	c-0.268,0-0.456,0.084-0.563,0.252c-0.108,0.169-0.162,0.416-0.162,0.744h-1.051v-0.154c0-0.464,0.145-0.867,0.436-1.209
	c0.293-0.342,0.729-0.512,1.308-0.512c0.508,0,0.938,0.144,1.292,0.432c0.354,0.285,0.531,0.695,0.531,1.23
	c0,0.363-0.088,0.682-0.264,0.952c-0.173,0.269-0.518,0.581-1.032,0.938c-0.563,0.391-0.899,0.67-1.007,0.839h2.303v0.934h-3.633
	C411.917,79.832,412.021,79.444,412.226,79.115z"/>
<path d="M450.218,39.378c0.02,0.61,0.275,0.916,0.77,0.916c0.236,0,0.428-0.073,0.574-0.22s0.221-0.355,0.221-0.626
	c0-0.264-0.095-0.456-0.282-0.575c-0.187-0.122-0.495-0.183-0.927-0.183v-0.747h0.168c0.584,0,0.876-0.232,0.876-0.696
	c0-0.208-0.062-0.376-0.184-0.505c-0.122-0.132-0.292-0.198-0.509-0.198c-0.479,0-0.721,0.286-0.725,0.857h-0.953
	c0-0.525,0.15-0.938,0.451-1.242c0.303-0.305,0.729-0.458,1.281-0.458c0.506,0,0.916,0.129,1.23,0.388
	c0.315,0.259,0.473,0.615,0.473,1.069c0,0.476-0.219,0.825-0.655,1.047c0.546,0.225,0.82,0.637,0.82,1.238
	c0,0.496-0.169,0.902-0.506,1.22c-0.335,0.314-0.783,0.472-1.348,0.472c-0.591,0-1.036-0.149-1.337-0.447
	c-0.3-0.3-0.463-0.737-0.49-1.311H450.218z"/>
<path d="M369.647,63.86h-2.648c-0.16-0.62-0.246-1.3-0.258-2.039l-0.016-0.859c-0.01-0.573-0.137-0.981-0.383-1.227
	c-0.244-0.245-0.742-0.367-1.492-0.367h-2.516v4.492h-2.383v-11.5h5.867c1.105,0,1.988,0.3,2.648,0.898
	c0.662,0.594,0.992,1.398,0.992,2.414c0,1.297-0.596,2.198-1.789,2.703c0.646,0.255,1.051,0.606,1.211,1.055
	c0.162,0.448,0.242,1.148,0.242,2.102v0.461c0,0.438,0.029,0.786,0.086,1.047c0.063,0.255,0.209,0.425,0.438,0.508V63.86z
	 M367.038,55.907c0-1.021-0.563-1.531-1.688-1.531h-3.016v3.07h2.828C366.413,57.446,367.038,56.933,367.038,55.907z"/>
<path d="M371.507,52.36h2.383v9.484h5.75v2.016h-8.133V52.36z"/>
<line fill="none" stroke="#000000" stroke-width="0.5669" stroke-miterlimit="10" x1="354.451" y1="58.13" x2="379.139" y2="58.13"/>
<path d="M435.813,65.11h-2.648c-0.16-0.62-0.246-1.3-0.258-2.039l-0.016-0.859c-0.01-0.573-0.137-0.981-0.383-1.227
	c-0.244-0.245-0.742-0.367-1.492-0.367h-2.516v4.492h-2.383v-11.5h5.867c1.105,0,1.988,0.3,2.648,0.898
	c0.662,0.594,0.992,1.398,0.992,2.414c0,1.297-0.596,2.198-1.789,2.703c0.646,0.255,1.051,0.606,1.211,1.055
	c0.162,0.448,0.242,1.148,0.242,2.102v0.461c0,0.438,0.029,0.786,0.086,1.047c0.063,0.255,0.209,0.425,0.438,0.508V65.11z
	 M433.204,57.157c0-1.021-0.563-1.531-1.688-1.531h-3.016v3.07h2.828C432.579,58.696,433.204,58.183,433.204,57.157z"/>
<path d="M437.673,53.61h2.383v9.484h5.75v2.016h-8.133V53.61z"/>
<line fill="none" stroke="#000000" stroke-width="0.5669" stroke-miterlimit="10" x1="420.617" y1="59.38" x2="445.305" y2="59.38"/>
<polyline fill="none" stroke="#000000" stroke-width="0.5572" stroke-miterlimit="10" points="118.005,49.197 106.304,49.197 
	106.304,60.898 "/>
<path d="M110.118,54.593h9.383v2.016H116v9.484h-2.383v-9.484h-3.5V54.593z"/>
<path d="M125.319,69.45h-1.655c-0.101-0.388-0.155-0.813-0.161-1.274l-0.01-0.537c-0.006-0.358-0.086-0.613-0.239-0.767
	s-0.464-0.229-0.933-0.229h-1.572v2.808h-1.489v-7.188h3.667c0.69,0,1.242,0.188,1.655,0.562c0.414,0.371,0.62,0.874,0.62,1.509
	c0,0.811-0.373,1.374-1.118,1.689c0.404,0.159,0.656,0.379,0.757,0.659s0.151,0.718,0.151,1.313v0.288
	c0,0.273,0.018,0.491,0.054,0.654c0.039,0.159,0.13,0.266,0.273,0.317V69.45z M123.688,64.479c0-0.638-0.352-0.957-1.055-0.957
	h-1.885v1.919h1.768C123.298,65.441,123.688,65.121,123.688,64.479z"/>
<path d="M135.034,54.176h9.383v2.016h-3.5v9.484h-2.383v-9.484h-3.5V54.176z"/>
<path d="M144.176,61.845h1.489v5.928h3.594v1.26h-5.083V61.845z"/>
<path d="M150.906,64.826c0.01,0.192,0.07,0.345,0.179,0.459c0.111,0.113,0.281,0.168,0.508,0.164
	c0.21-0.005,0.364-0.055,0.463-0.151c0.102-0.099,0.15-0.249,0.146-0.45c-0.004-0.211-0.072-0.358-0.206-0.443
	c-0.131-0.086-0.317-0.125-0.56-0.121l-0.188,0.004l-0.012-0.617l0.117-0.002c0.23-0.005,0.4-0.047,0.512-0.129
	c0.114-0.084,0.17-0.215,0.166-0.395c-0.007-0.335-0.187-0.5-0.538-0.492c-0.207,0.004-0.356,0.068-0.447,0.193
	c-0.088,0.121-0.131,0.271-0.127,0.453l-0.819,0.018c0.019-0.904,0.494-1.367,1.426-1.387c0.428-0.008,0.771,0.089,1.029,0.291
	c0.262,0.202,0.396,0.473,0.403,0.811c0.008,0.391-0.169,0.669-0.53,0.836c0.458,0.133,0.693,0.449,0.703,0.953
	c0.008,0.37-0.125,0.685-0.396,0.945c-0.271,0.26-0.651,0.395-1.142,0.404c-0.427,0.008-0.782-0.085-1.065-0.279
	c-0.28-0.196-0.438-0.545-0.475-1.047L150.906,64.826z M151.648,68.939l4-7.074l0.757-0.016l-3.998,7.074L151.648,68.939z
	 M154.516,67.147l1.625-2.56l1.037-0.021l0.052,2.586l0.484-0.01l0.014,0.659l-0.484,0.01l0.019,0.891l-0.914,0.019l-0.019-0.891
	l-1.799,0.036L154.516,67.147z M155.232,67.193l1.083-0.021l-0.034-1.687L155.232,67.193z"/>
<path fill-rule="evenodd" clip-rule="evenodd" stroke="#000000" stroke-width="0.2786" stroke-miterlimit="10" d="M306.493,80.461
	c0.472,0,0.854,0.383,0.854,0.854c0,0.473-0.383,0.855-0.854,0.855s-0.854-0.383-0.854-0.855
	C305.639,80.844,306.021,80.461,306.493,80.461L306.493,80.461z"/>
<path fill="none" stroke="#000000" stroke-width="0.5572" stroke-miterlimit="10" d="M306.563,78.86
	c1.395,0,2.526,1.133,2.526,2.525c0,1.396-1.132,2.527-2.526,2.527c-1.394,0-2.525-1.131-2.525-2.527
	C304.038,79.993,305.17,78.86,306.563,78.86L306.563,78.86z"/>
<polyline fill="none" stroke="#000000" stroke-width="0.5572" stroke-miterlimit="10" points="183.505,61.314 183.505,49.613 
	171.804,49.613 "/>
<path d="M165.951,53.343h9.383v2.016h-3.5v9.484h-2.383v-9.484h-3.5V53.343z"/>
<path d="M181.153,68.2h-1.655c-0.101-0.388-0.155-0.813-0.161-1.274l-0.01-0.537c-0.006-0.358-0.086-0.613-0.239-0.767
	s-0.464-0.229-0.933-0.229h-1.572V68.2h-1.489v-7.188h3.667c0.69,0,1.242,0.188,1.655,0.562c0.414,0.371,0.62,0.874,0.62,1.509
	c0,0.811-0.373,1.374-1.118,1.689c0.404,0.159,0.656,0.379,0.757,0.659s0.151,0.718,0.151,1.313v0.288
	c0,0.273,0.018,0.491,0.054,0.654c0.039,0.159,0.13,0.266,0.273,0.317V68.2z M179.522,63.229c0-0.638-0.352-0.957-1.055-0.957
	h-1.885v1.919h1.768C179.131,64.191,179.522,63.871,179.522,63.229z"/>
<path d="M194.95,53.51h9.383v2.016h-3.5v9.484h-2.383v-9.484h-3.5V53.51z"/>
<path d="M204.092,61.179h1.489v5.928h3.594v1.26h-5.083V61.179z"/>
<path d="M210.823,64.16c0.01,0.191,0.07,0.344,0.179,0.459c0.111,0.113,0.281,0.168,0.508,0.163c0.21-0.005,0.364-0.055,0.463-0.151
	c0.102-0.099,0.15-0.248,0.146-0.449c-0.004-0.211-0.072-0.359-0.206-0.444c-0.131-0.085-0.317-0.125-0.56-0.12l-0.188,0.004
	l-0.012-0.617L211.27,63c0.23-0.005,0.4-0.047,0.512-0.128c0.114-0.084,0.17-0.215,0.166-0.395c-0.007-0.336-0.187-0.5-0.538-0.492
	c-0.207,0.004-0.356,0.068-0.447,0.192c-0.088,0.121-0.131,0.272-0.127,0.454l-0.819,0.017c0.019-0.904,0.494-1.366,1.426-1.386
	c0.428-0.009,0.771,0.088,1.029,0.29c0.262,0.202,0.396,0.473,0.403,0.812c0.008,0.39-0.169,0.668-0.53,0.836
	c0.458,0.132,0.693,0.449,0.703,0.952c0.008,0.37-0.125,0.685-0.396,0.945c-0.271,0.26-0.651,0.395-1.142,0.405
	c-0.427,0.008-0.782-0.086-1.065-0.28c-0.28-0.196-0.438-0.544-0.475-1.046L210.823,64.16z M211.565,68.273l4-7.074l0.757-0.016
	l-3.998,7.074L211.565,68.273z M214.433,66.48l1.625-2.559l1.037-0.021l0.052,2.586l0.484-0.01l0.014,0.66l-0.484,0.01l0.019,0.891
	l-0.914,0.018l-0.019-0.891l-1.799,0.037L214.433,66.48z M215.149,66.527l1.083-0.021l-0.034-1.688L215.149,66.527z"/>
<path d="M86.906,66.326c0.01,0.192,0.07,0.345,0.179,0.459c0.111,0.113,0.281,0.168,0.508,0.164c0.21-0.005,0.364-0.055,0.463-0.151
	c0.102-0.099,0.15-0.249,0.146-0.45c-0.004-0.211-0.072-0.358-0.206-0.443c-0.131-0.086-0.317-0.125-0.56-0.121l-0.188,0.004
	l-0.012-0.617l0.117-0.002c0.23-0.005,0.4-0.047,0.512-0.129c0.114-0.084,0.17-0.215,0.166-0.395
	c-0.007-0.335-0.187-0.5-0.538-0.492c-0.207,0.004-0.356,0.068-0.447,0.193c-0.088,0.121-0.131,0.271-0.127,0.453l-0.819,0.018
	c0.019-0.904,0.494-1.367,1.426-1.387c0.428-0.008,0.771,0.089,1.029,0.291c0.262,0.202,0.396,0.473,0.403,0.811
	c0.008,0.391-0.169,0.669-0.53,0.836c0.458,0.133,0.693,0.449,0.703,0.953c0.008,0.37-0.125,0.685-0.396,0.945
	c-0.271,0.26-0.651,0.395-1.142,0.404c-0.427,0.008-0.782-0.085-1.065-0.279c-0.28-0.196-0.438-0.545-0.475-1.047L86.906,66.326z
	 M87.648,70.439l4-7.074l0.757-0.016l-3.998,7.074L87.648,70.439z M90.516,68.647l1.625-2.56l1.037-0.021l0.052,2.586l0.484-0.01
	l0.014,0.659l-0.484,0.01l0.019,0.891l-0.914,0.019l-0.019-0.891l-1.799,0.036L90.516,68.647z M91.232,68.693l1.083-0.021
	l-0.034-1.687L91.232,68.693z"/>
</svg>
