<?xml version="1.0" encoding="UTF-8"?>
<!-- Created with Inkscape (http://www.inkscape.org/) -->
<svg width="713" height="182" version="1.1" viewBox="0 0 713 182" xmlns="http://www.w3.org/2000/svg" xmlns:cc="http://creativecommons.org/ns#" xmlns:dc="http://purl.org/dc/elements/1.1/" xmlns:rdf="http://www.w3.org/1999/02/22-rdf-syntax-ns#">
 <metadata>
  <rdf:RDF>
   <cc:Work rdf:about="">
    <dc:format>image/svg+xml</dc:format>
    <dc:type rdf:resource="http://purl.org/dc/dcmitype/StillImage"/>
    <dc:title/>
   </cc:Work>
  </rdf:RDF>
 </metadata>
 <path d="m9.1524 175.82c-0.36745-0.36745-0.66809-37.943-0.66809-83.501v-82.833h695.01l-0.25575 83.25-0.25574 83.25-346.58 0.25142c-190.62 0.13829-346.88-0.04921-347.25-0.41666zm172.33-65.335v-63h-79l-0.1987 7.25-0.19869 7.25-0.34512-7.25-0.34511-7.25h-89.912v126h170zm-158 50.67v-7.33l3.56 0.11812c1.958 0.065 3.9761 0.77599 4.4847 1.58 2.292 3.6236 0.1596 8.9619-3.5799 8.9619-1.7981 0-2.4648 0.54095-2.4648 2 0 1.1-0.45 2-1 2-0.57572 0-1-3.11-1-7.33zm5.9543 0.88508c1.853-2.2328 0.89351-6.0055-1.6184-6.3633-2.6487-0.37733-3.946 2.7999-2.3561 5.7705 1.2887 2.4079 2.3382 2.5644 3.9745 0.59281zm57.046-0.88508v-7.33l3.56 0.11812c1.958 0.065 3.9761 0.77599 4.4847 1.58 2.292 3.6236 0.1596 8.9619-3.5799 8.9619-1.7981 0-2.4648 0.54095-2.4648 2 0 1.1-0.45 2-1 2-0.57572 0-1-3.11-1-7.33zm5.9543 0.88508c1.853-2.2328 0.89351-6.0055-1.6184-6.3633-2.6487-0.37733-3.946 2.7999-2.3561 5.7705 1.2887 2.4079 2.3382 2.5644 3.9745 0.59281zm52.061 4.7768c-8e-3 -0.64252-0.28845-1.88-0.6223-2.75-0.39831-1.038-0.0545-1.5818 1-1.5818 0.88385 0 1.6001 0.5625 1.5917 1.25-0.0199 1.6215-1.949 4.6402-1.9694 3.0818zm-109.46-3.5818c-1.2249-3.9639-1.2151-9.8207 0.01932-11.448 1.2234-1.6134 1.3694-1.6274 1.3979-0.13487 0.01749 0.91666 0.5943 1.9292 1.2818 2.25 1 0.46666 1 0.7 0 1.1667-1.4781 0.68977-1.7048 7.4167-0.25 7.4167 0.55 0 1 0.45 1 1 0 1.4478-2.9914 1.2309-3.449-0.25zm5.449-4.0322v-5.2822l3.75 0.0322 3.75 0.0322 0.14444 5.5c0.07944 3.025-0.04654 4.375-0.27995 3-1.0459-6.1612-1.4514-7-3.3835-7-1.6811-2e-5 -1.9809 0.68107-1.9809 4.5 0 2.475-0.45 4.5-1 4.5s-1-2.377-1-5.2822zm11.198 0.11192c0.28037-4.7959 0.50138-5.1966 3.0523-5.5342 3.1518-0.41711 3.7624 1.2065 0.75 1.9942-1.5891 0.41556-2 1.364-2 4.6166 0 2.2515-0.47352 4.0936-1.0523 4.0936-0.63964 0-0.93374-2.0274-0.75-5.1703zm6.7171 3.5341c-1.2735-1.5647-1.2151-1.6586 0.58518-0.93997 3.0431 1.2147 4.7426 1.195 5.1878-0.0602 0.22169-0.62499-1.0002-1.6255-2.7154-2.2234-2.4393-0.85036-3.0481-1.5829-2.7954-3.3637 0.39555-2.7876 4.8457-3.659 6.7806-1.3277 1.1284 1.3596 0.90299 1.4733-1.8356 0.92556-4.0785-0.8157-4.1156 1.0836-0.0489 2.5012 2.3959 0.8352 3.0018 1.5729 2.75 3.3478-0.42122 2.9686-5.7901 3.7428-7.9082 1.1404zm17.249 0.39958c-1.4229-1.4229-1.5461-8.4088-0.16341-9.2634 0.60947-0.37667 1 1.1206 1 3.834 0 4.3859 1.1157 5.8543 3.75 4.9354 0.74551-0.26005 1.25-2.2186 1.25-4.8527 0-2.4292 0.45-4.4167 1-4.4167s1 2.4021 1 5.338v5.338l-3.3366 0.12544c-1.8351 0.069-3.8601-0.3981-4.5-1.038zm20.837 0.56423c0-0.58979 1.125-4.5187 2.5-8.7309 1.5634-4.7892 2.5734-10.363 2.6959-14.878l0.19586-7.2191 0.3634 7c0.26267 5.0598-0.25005 9.2174-1.8498 15-2.0226 7.3109-3.9053 11.567-3.9053 8.8276zm7.3125-1.9734c-1.5238-2.3256-1.5436-2.8488-0.19744-5.2194 1.0493-1.8479 2.3008-2.623 4.1905-2.5954 2.1722 0.0318 2.6944-0.41574 2.6944-2.309 0-1.311 0.44176-2.0754 1-1.7304 0.55 0.33992 1 3.6686 1 7.397v6.779l-3.497 0.13147c-2.7385 0.10294-3.8643-0.42916-5.1905-2.4532zm5.6418 0.20084c1.874-2.258 0.89204-6.0058-1.669-6.37-1.6733-0.23793-2.3728 0.31527-2.8617 2.263-0.37841 1.5077-0.13468 3.1952 0.5871 4.0649 1.5463 1.8632 2.4244 1.8726 3.9435 0.042zm5.2434-2.698c0.28676-4.8792 0.45372-5.1588 3.2558-5.4535 1.6245-0.17081 3.537 0.17361 4.25 0.76537 1.5134 1.256 1.7719 9.831 0.29642 9.831-0.55 0-1-2.0563-1-4.5696 0-4.1668-0.19831-4.5414-2.25-4.25-1.8704 0.26564-2.3019 1.0365-2.5575 4.5696-0.16912 2.3375-0.75514 4.25-1.3023 4.25-0.56991 0-0.86567-2.1965-0.6925-5.1429zm19.4 2.3929c0.34992-1.5125 1.4835-4.2382 2.519-6.0572s1.8828-3.5064 1.8828-3.75-1.6016-0.44284-3.559-0.44284c-2.118 0-3.3088-0.40488-2.941-1 0.67465-1.0916 7.7777-1.389 8.7983-0.36834 0.34741 0.34742-0.42436 2.4849-1.715 4.75-1.2907 2.2651-2.6335 5.3558-2.984 6.8683s-1.0873 2.75-1.6373 2.75c-0.57848 0-0.73182-1.1592-0.36377-2.75zm15.391 0.73026c-0.6289-1.1751-0.80546-2.8889-0.39236-3.8084 0.41309-0.91952 0.78524-2.9674 0.827-4.5509 0.0941-3.5695 2.8046-5.6026 5.3259-3.9949 0.9625 0.61372 1.7842 2.4114 1.8259 3.9949 0.0418 1.5835 0.45087 3.7277 0.90915 4.765 2.0058 4.5398-6.1442 7.988-8.4956 3.5943zm5.859 0.1346c2.0241-1.2828 0.94985-4.5694-1.6131-4.935-2.6873-0.38334-4.0065 2.1859-2.2247 4.3329 1.4142 1.7041 1.9631 1.7902 3.8378 0.60213zm0.15161-9.1149c0-1.3333-0.66667-2-2-2s-2 0.66667-2 2 0.66667 2 2 2 2-0.66667 2-2zm-22.249-6.5715c-1.512-0.82029-3.8821-3.7273-5.2668-6.46-1.3848-2.7327-2.7774-4.9685-3.0947-4.9685-0.31735 0-0.25889 2.3625 0.12991 5.25s0.36528 4.9218-0.0523 4.5206c-0.6796-0.65298-3.2822-13.291-3.4143-16.58-0.0289-0.72008 3.0974 1.2822 6.9474 4.4494 3.85 3.1673 7 6.174 7 6.6817 0 0.99899-1.9247-0.29719-6.25-4.209-3.5383-3.2-3.4718-2.118 0.27176 4.4251 3.6765 6.4259 6.1285 7.462 17.66 7.462 12.617 0 16.989-2.5491 21.458-12.512 2.7115-6.0443 3.7746-21.187 1.8887-26.901-2.6454-8.0158-8.8389-12.586-17.056-12.586-4.3329 0-5.5791 0.45255-8.0497 2.9231-4.1317 4.1317-4.0169 8.9185 0.32692 13.636 3.0559 3.3185 3.4423 3.4617 6.4701 2.3979 7.2411-2.544 15.28 3.5772 15.28 11.635 0 3.6588-0.60095 5.0937-3.4232 8.1733-3.1046 3.3878-3.9027 3.7353-8.5768 3.7353s-5.4722-0.34756-8.5768-3.7353c-2.8079-3.064-3.4232-4.5225-3.4232-8.1152 0-2.8782 0.69166-5.2591 2.0173-6.9444l2.0173-2.5646-2.5302-2.7301c-6.9069-7.4527-3.6702-18.163 6.0394-19.985 4.6355-0.86961 11.474 1.1086 14.939 4.3212 11.974 11.103 8.4378 41.501-5.6833 48.848-3.8209 1.988-23.298 1.8681-27.049-0.16651zm29.483-13.346c2.8038-2.5052 3.2658-3.5777 3.2658-7.582s-0.46196-5.0768-3.2658-7.582c-2.593-2.3169-4.138-2.8941-7.5-2.802-2.3288 0.0638-3.3342 0.33723-2.2342 0.60761 5.412 1.3303 5.9197 5.2164 1.3038 9.9788l-3.1962 3.2976h3.1962c1.7579 0 3.1962 0.45 3.1962 1s-2.025 1-4.5 1c-5.6078 0-5.9321-1.8059-1-5.5678 3.9876-3.0414 4.9086-7.4322 1.559-7.4322-1.0675 0-2.2191 0.45-2.559 1-1.0599 1.7149-2.7508 1.098-2.0558-0.75 0.50074-1.3315 0.10781-1.2053-1.643 0.52778-1.7312 1.7137-2.3012 3.4057-2.3012 6.832 0 3.8803 0.48327 4.986 3.2658 7.4722 2.4456 2.1851 4.2624 2.918 7.2342 2.918s4.7886-0.73283 7.2342-2.918zm-87.847 7.6336c-2.8402-2.6029-3.6913-4.238-4.1019-7.8805-0.28493-2.5279-0.05112-5.4305 0.51957-6.4503 0.85367-1.5254 0.23284-2.7961-3.5019-7.1677-2.4967-2.9225-4.3093-5.5438-4.028-5.8251 0.28135-0.28136 2.4237 1.7083 4.7608 4.4215l4.2492 4.933 3.4973-2.3733c13.178-8.9432 26.336 10.777 14.075 21.094-4.5766 3.851-10.776 3.5498-15.47-0.75162zm14.507-0.27993c9.1613-7.7088 2.8826-23.117-8.5462-20.973-3.9471 0.74048-9.3478 7.2612-9.3478 11.286 0 9.823 10.79 15.664 17.894 9.6868zm-11.894-2.1479c0-0.39168 1.8609-2.6083 4.1354-4.9258 2.6765-2.7272 3.9223-4.769 3.5314-5.7879-0.79012-2.059-4.3156-2.0241-5.4788 0.0543-0.52726 0.94217-1.1704 1.2092-1.5261 0.63364-1.0915-1.766 3.0313-4.5559 5.7311-3.8783 4.2993 1.079 4.301 4.3211 0.0046 8.721l-3.8036 3.8952h3.7029c2.0366 0 3.7029 0.45 3.7029 1s-2.25 1-5 1-5-0.32047-5-0.71215zm37-4.7565c0-4.4501-0.27936-5.3614-1.5-4.893-2.3484 0.90119-1.6986-0.9481 1.0314-2.935l2.4686-1.7967v7.5467c0 4.3644-0.42167 7.5467-1 7.5467-0.55 0-1-2.4609-1-5.4686zm-12.651-14.531c0-4.675 0.17226-6.5875 0.3828-4.25 0.21053 2.3375 0.21053 6.1625 0 8.5-0.21054 2.3375-0.3828 0.425-0.3828-4.25zm24.651-9.9326c0-1.075 3.8902-2.5105 4.6755-1.7252 0.28862 0.28863 0.22815 1.0047-0.13438 1.5913-0.81061 1.3116-4.5411 1.4216-4.5411 0.13392zm-13.02-1.5916c-0.69572-0.83829-1.0144-1.7748-0.70809-2.081 0.89227-0.89226 4.8444 1.6081 4.1971 2.6554-0.84568 1.3683-2.0399 1.1718-3.489-0.57434zm-66.98-10.476v-11h6.5455c5.5668 0 6.9025 0.35708 8.9337 2.3883 3.0928 3.0928 3.9816 8.0811 2.3312 13.084-1.6278 4.9346-4.5149 6.4937-12.06 6.513l-5.75 0.0147zm14.586 4.4473c1.5799-3.7811 1.0925-9.644-0.94106-11.32-0.62997-0.51924-3.1704-1.0978-5.6454-1.2856l-4.5-0.34156-0.29044 8.25-0.29044 8.25h5.0915c4.888 0 5.1508-0.14199 6.5759-3.5527zm40.763-4.4473c0-4.675 0.17226-6.5875 0.3828-4.25 0.21053 2.3375 0.21053 6.1625 0 8.5-0.21054 2.3375-0.3828 0.425-0.3828-4.25zm32.651-0.58333c0-3.1327 2.3485-2.7898 2.8196 0.41166 0.21221 1.4422-0.20766 2.1717-1.25 2.1717-1.021 0-1.5696-0.90282-1.5696-2.5833zm-29.289-1.4157c-0.28751-1.0994-0.0851-2.2695 0.4499-2.6001 1.1863-0.73319 1.4042-0.50898 2.2828 2.3491 0.4971 1.6172 0.2836 2.25-0.75914 2.25-0.79792 0-1.686-0.89955-1.9735-1.999zm-69.68-11.96c-4.9141-6.6287-5.4488-7.0414-9.1253-7.0414h-3.9053v-25.06l12.75 0.27988 12.75 0.27987 0.28078 12.25 0.28078 12.25h-16.237l4.6867 6.5678c6.3485 8.8967 5.0676 9.3064-1.4805 0.47358zm10.969-19.036v-11.005h-23v10.333c0 5.6833 0.26339 10.597 0.58531 10.919s5.4969 0.62411 11.5 0.67154l10.915 0.0862zm-14-0.47349c0-4.4502-0.27936-5.3614-1.5-4.893-2.3484 0.90118-1.6986-0.9481 1.0314-2.9351l2.4686-1.7967v7.5467c0 4.3645-0.42167 7.5467-1 7.5467-0.55 0-1-2.4609-1-5.4686zm94.554 22.556c-0.38642-0.62525-3.8333-1.0871-8.1129-1.0871h-7.441v-23h23v11.5c0 11.333-0.0333 11.5-2.3 11.5-1.265 0-2.7892 0.48921-3.3871 1.0871-0.78285 0.78284-1.2752 0.78284-1.759 0zm5.4462-12.772v-10.315h-12v7c0 4-0.42857 7-1 7-0.55 0-1-2.4609-1-5.4686 0-4.4502-0.27936-5.3614-1.5-4.893-2.0494 0.78641-1.8929-0.61965 0.25-2.2463 1.5703-1.192 1.4162-1.3317-1.5-1.3602l-3.25-0.0318v21.037l10-0.20328 10-0.20327zm-30.651 1.6846c0-4.675 0.17226-6.5875 0.3828-4.25 0.21053 2.3375 0.21053 6.1625 0 8.5-0.21054 2.3375-0.3828 0.425-0.3828-4.25zm1.6506 6.0818c0-1.7303 1.2138-4.0818 2.107-4.0818 0.49115 0 0.89301 1.125 0.89301 2.5 0 1.5556-0.56667 2.5-1.5 2.5-0.825 0-1.5-0.41319-1.5-0.91821zm46.215-14.365c-3.449-3.4799-5.9519-6.646-5.5621-7.0358 0.38981-0.38982 2.032 0.53504 3.6493 2.0552l2.9406 2.764-1.695-3.3429c-0.93224-1.8386-1.4397-3.5982-1.1276-3.9103 0.31206-0.31206-0.32976-1.1958-1.4263-1.9638-2.1279-1.4904-2.6584-3.283-0.97162-3.283 0.56212 0 2.3288 2.0606 3.926 4.579 2.8783 4.5386 2.9068 4.554 3.228 1.75 0.63704-5.5615 2.3369-2.6898 3.0608 5.171 0.40524 4.4 0.62696 8.3473 0.49273 8.7718-0.13423 0.42449-3.0659-2.0754-6.5149-5.5552zm12.785 4.8343c0-0.79701 1.575-2.6504 3.5-4.1187 3.8896-2.9667 4.911-7.4322 1.7-7.4322-0.99 0-2.3325 0.5325-2.9833 1.1833-0.65084 0.65083-1.5276 0.83904-1.9484 0.41824-0.94757-0.94758 2.5327-3.6016 4.7229-3.6016 4.762 0 5.1959 5.1801 0.8127 9.7024l-3.1962 3.2976h3.1962c1.7579 0 3.1962 0.45 3.1962 1s-2.025 1-4.5 1c-3.2631 0-4.5-0.39831-4.5-1.4491zm-56-5.1166c0-1.483 2.1989-4.4294 2.9563-3.9613 1.2987 0.80266 5e-3 4.527-1.5729 4.527-0.76085 0-1.3834-0.25458-1.3834-0.56574zm8.531-12.384c-0.64725-1.0473 3.3049-3.5476 4.1971-2.6554 0.66236 0.66236-1.6163 3.6052-2.7916 3.6052-0.45019 0-1.0827-0.42742-1.4056-0.94982zm14.469-3.0502c0-0.55 1.125-1 2.5-1s2.5 0.45 2.5 1-1.125 1-2.5 1-2.5-0.45-2.5-1zm224 59v-63h-77l-0.20124 7.75-0.20125 7.75-0.34082-7.75-0.34082-7.75h-91.916v126h170zm-157 50.75 2e-3 -7.25 3.1771-0.2238c4.121-0.29028 5.8189 1.2114 5.8189 5.1462 0 3.7575-1.5337 5.5776-4.7 5.5776-1.6333 0-2.3 0.57971-2.3 2 0 1.1-0.45 2-1 2-0.5749 0-0.99916-3.082-0.99801-7.25zm6.998-2.4265c0-3.0188-0.28835-3.4216-2.25-3.143-1.6428 0.23331-2.3391 1.0999-2.5801 3.211-0.18154 1.5903 0.22765 3.2362 0.90932 3.6575 2.259 1.3962 3.9208-0.18279 3.9208-3.7255zm56.002 2.4265 2e-3 -7.25 3.1771-0.2238c4.121-0.29028 5.8189 1.2114 5.8189 5.1462 0 3.7575-1.5337 5.5776-4.7 5.5776-1.6333 0-2.3 0.57971-2.3 2 0 1.1-0.45 2-1 2-0.5749 0-0.99916-3.082-0.99801-7.25zm6.998-2.4265c0-3.0188-0.28835-3.4216-2.25-3.143-1.6428 0.23331-2.3391 1.0999-2.5801 3.211-0.18154 1.5903 0.22765 3.2362 0.90932 3.6575 2.259 1.3962 3.9208-0.18279 3.9208-3.7255zm51.25 6.1583c0-1.365 0.39375-2.4818 0.875-2.4818s0.875 0.87344 0.875 1.941-0.39375 2.1843-0.875 2.4818c-0.48125 0.29742-0.875-0.57602-0.875-1.941zm-109.41-5.2318c-0.26352-7.8999 0.27818-10.464 1.8738-8.868 0.39344 0.39344 0.61566 3.0065 0.49382 5.8068s0.28635 5.7034 0.90709 6.4513c0.89126 1.0739 0.68225 1.3599-0.99382 1.3599-1.8431 0-2.1433-0.62509-2.2809-4.75zm5.3562-0.39292c0.28676-4.8792 0.45372-5.1588 3.2558-5.4535 1.6245-0.17081 3.537 0.17361 4.25 0.76537 1.5134 1.256 1.7719 9.831 0.29642 9.831-0.55 0-1-2.0563-1-4.5696 0-4.1668-0.19831-4.5414-2.25-4.25-1.8704 0.26564-2.3019 1.0365-2.5575 4.5696-0.16912 2.3375-0.75514 4.25-1.3023 4.25-0.56991 0-0.86567-2.1965-0.6925-5.1429zm11.92 0.11103c-0.11143-5.2142 0.0254-5.5438 2.3818-5.7388 1.375-0.1138 2.5 0.23805 2.5 0.78189s-0.62632 0.9888-1.3918 0.9888c-0.85481 0-1.7738 1.8327-2.3818 4.75l-0.98997 4.75zm6.8818 3.5319c-1.4424-1.738 0.0464-2.0536 1.7328-0.36722 1.26 1.26 4.2672 0.49724 4.2672-1.0823 0-0.55679-1.1065-1.2901-2.459-1.6295-3.6044-0.90465-5.1049-3.0366-3.4991-4.9715 1.4699-1.7711 6.1001-1.5699 6.7113 0.29163 0.29249 0.89086-0.46177 1.0672-2.6729 0.625-4.1996-0.83992-3.9014 0.93527 0.41964 2.4978 1.925 0.69609 3.5 1.8215 3.5 2.5009 0 3.4-5.69 4.9187-8 2.1353zm16.686 0.85217c-0.37703-0.37703-0.62918-2.973-0.56033-5.7688l0.12516-5.0833 0.6947 4.2699c1.219 7.4923 5.055 8.4258 5.055 1.2301 0-2.1351 0.45-4.1601 1-4.5 0.61911-0.38263 1 1.4215 1 4.7366 0 5.3509-2e-3 5.3548-3.3145 5.5778-1.823 0.12277-3.623-0.0853-4-0.46228zm21.314-0.53657c0-2.119 3.3334-13.301 4.1267-13.843 0.42447-0.2902 0.93147-3.6652 1.1267-7.5l0.3549-6.9724 0.19586 7.2636c0.10772 3.995-0.24536 8.045-0.78462 9-0.53927 0.95504-1.6962 4.3239-2.571 7.4864-1.5051 5.4415-2.4486 7.2006-2.4486 4.5656zm7.2-0.0156c-1.6845-1.6845-1.496-7.3094 0.29467-8.7956 0.82207-0.68226 2.3971-1.0045 3.5-0.71606 1.5968 0.41758 2.0053 0.0342 2.0053-1.882 0-1.3235 0.45-2.4064 1-2.4064 0.57778 0 1 3.1667 1 7.5v7.5h-3.3c-1.815 0-3.84-0.54-4.5-1.2zm5.6038-4.1776c-0.22982-2.3617-0.85196-3.2002-2.5538-3.4419-1.9642-0.27896-2.25 0.12331-2.25 3.1667 0 3.464 1.3079 4.7974 3.8038 3.8779 0.78972-0.29093 1.184-1.7115 1-3.6027zm5.1962 0.0955v-5.2822l3.75 0.0322 3.75 0.0322 0.14444 5.5c0.0794 3.025-0.0465 4.375-0.27995 3-1.0459-6.1612-1.4514-7-3.3835-7-1.6811 0-1.981 0.68109-1.981 4.5 0 2.475-0.45 4.5-1 4.5s-1-2.377-1-5.2822zm19 3.2424c0-1.1219 0.9-3.804 2-5.9602 2.5551-5.0085 2.5568-5-1-5-1.65 0-3-0.45-3-1s0.77513-1 1.7225-1c1.4032 0 1.3034-0.29358-0.53879-1.5839-1.2437-0.87113-3.6368-4.0211-5.318-7-3.0953-5.4845-4.4074-6.8565-3.5062-3.6661 1.1227 3.9745 1.7031 10.715 0.79646 9.25-1.1856-1.916-3.5409-15.948-2.8011-16.688 0.30671-0.3067 3.513 2.037 7.1251 5.2082 7.4551 6.5452 8.1141 8.7164 0.86253 2.8419l-4.7671-3.8619 2.8105 5c4.998 8.8915 6.165 9.5 18.219 9.5 14.105 0 17.797-2.0465 22.573-12.512 1.8998-4.1634 2.2797-6.7226 2.2988-15.488 0.0204-9.3577-0.24904-10.99-2.4771-15-4.2037-7.5666-14.072-11.083-21.02-7.4897-5.5786 2.8848-6.6876 9.562-2.5 15.052 2.4094 3.1588 2.6469 3.2362 8.3447 2.7196 4.5791-0.41522 6.458-0.14306 8.5712 1.2415 3.5003 2.2934 5.6042 6.4396 5.6042 11.044 0 5.2501-6.1819 11.432-11.432 11.432-4.3525 0-8.8444-2.1289-11.007-5.2168-2.2189-3.168-2.0291-10.983 0.33773-13.906 1.8866-2.3298 1.8806-2.3647-0.95068-5.5894-6.6353-7.5572-3.8343-17.171 5.6245-19.304 4.639-1.0463 12.683 0.96829 15.888 3.9788 7.0549 6.6278 9.1943 23.334 4.5509 35.537-2.5147 6.6091-9.624 14.5-13.064 14.5-1.7286 0-1.8594 0.29568-0.91305 2.0639 0.8287 1.5484 0.7911 2.4416-0.15051 3.5762-1.0079 1.2144-1.0043 1.6673 0.0181 2.2992 1.6692 1.0316 1.0335 5.0837-0.99701 6.3558-0.87738 0.54966-2.7937 0.69858-4.2585 0.33094-2.5829-0.64827-2.6544-0.86394-2.3686-7.1473l0.2947-6.4788h-4.1273c-3.9103 0-4.267 0.25683-6.7862 4.8853-1.4624 2.6869-2.6589 5.8369-2.6589 7s-0.45 2.1147-1 2.1147-1-0.91793-1-2.0398zm21.5-1.9739c0-1.7724-0.60948-2.5733-2.1227-2.7892-2.5417-0.36265-3.9357 2.4251-2.2365 4.4725 1.793 2.1604 4.3592 1.1694 4.3592-1.6833zm0.25029-6.7358c0.54676-1.6421-2.5865-2.8143-3.9304-1.4704-0.5751 0.5751-0.7279 1.5598-0.33954 2.1882 0.88355 1.4296 3.7133 0.95397 4.2699-0.71771zm7.3552-18.852c7.3136-7.0069 1.682-19.186-8.4192-18.208-2.0704 0.20053-3.0844 0.78937-2.8954 1.6813 0.17812 0.84049-0.27009 1.1574-1.156 0.81744-2.0287-0.7785-4.6162 2.42-5.2833 6.5311-1.6425 10.122 10.316 16.304 17.754 9.1778zm-8.9374-7.7163c-0.16011-5.541-0.27501-5.7845-2.4181-5.1258-2.2214 0.68283-2.2183 0.65714 0.25-2.0244l2.5-2.716 0.30879 4.1182c0.16983 2.265 0.13298 5.7938-0.0819 7.8418-0.28257 2.6931-0.4372 2.1137-0.55879-2.0938zm-84.073 18.744c-3.9747-3.3445-5.8018-9.2159-4.345-13.963 1.0244-3.3378 0.86581-3.7508-3.3262-8.6619-5.5976-6.5577-4.9194-7.6476 0.81645-1.3121l4.3065 4.7566 3.4768-2.1195c1.9122-1.1657 4.8268-2.1195 6.4768-2.1195 8.9343 0 15.226 10.821 11.02 18.954-3.7654 7.2814-12.549 9.4098-18.425 4.4649zm12.82 0.11775c3.798-1.964 6.4602-7.7316 5.6246-12.185-0.35566-1.8958-1.9356-4.8896-3.511-6.6528-2.4159-2.7038-3.5654-3.2058-7.3414-3.2058-5.1152 0-7.6482 1.7912-10.231 7.2348-1.3958 2.9413-1.4909 4.2041-0.55273 7.3354 2.2264 7.4311 9.5154 10.833 16.012 7.4739zm-4.7467-8.8614c-0.16011-5.541-0.27501-5.7845-2.4181-5.1258-2.2214 0.68283-2.2183 0.65714 0.25-2.0244l2.5-2.716 0.30879 4.1182c0.16983 2.265 0.13298 5.7938-0.0819 7.8418-0.28257 2.6931-0.4372 2.1137-0.55879-2.0938zm31.832 2.6052c0-0.39168 1.861-2.6083 4.1354-4.9258 2.6765-2.7272 3.9223-4.769 3.5314-5.7879-0.79013-2.059-4.3156-2.0241-5.4788 0.0543-0.52726 0.94217-1.1704 1.2092-1.5261 0.63364-1.0914-1.766 3.0313-4.5559 5.7311-3.8783 4.2993 1.079 4.301 4.3211 5e-3 8.721l-3.804 3.8952h3.703c2.0366 0 3.703 0.45 3.703 1s-2.25 1-5 1-5-0.32047-5-0.71215zm-7.6572-18.788c4e-3 -4.4 0.17944-6.0756 0.39069-3.7236 0.21124 2.352 0.20827 5.952-7e-3 8-0.21487 2.048-0.38771 0.12357-0.38408-4.2764zm-60.343-19.5v-11h5.9442c4.8419 0 6.4645 0.44755 8.75 2.4134 2.5107 2.1596 2.8058 3.0626 2.8058 8.5866 0 5.524-0.29505 6.427-2.8058 8.5866-2.2855 1.9659-3.9081 2.4134-8.75 2.4134h-5.9442zm13.443 5.7775c2.0799-2.9694 1.9787-9.0562-0.1933-11.628-1.1176-1.3233-3.1955-2.1764-5.75-2.3608l-4-0.28867-0.29044 8.25-0.29044 8.25h4.4837c3.4998 0 4.8254-0.48774 6.0404-2.2225zm71.557 3.8391c0-1.4005 3.9563-2.9936 4.9548-1.9952 0.59004 0.59005-2.8318 3.3786-4.1459 3.3786-0.44488 0-0.80887-0.62252-0.80887-1.3834zm-12.447-0.9539c-2.6321-1.9246-1.6766-3.8553 1.1528-2.3292 1.3792 0.7439 1.9194 1.6541 1.441 2.4281-0.60241 0.97471-1.1543 0.95365-2.5938-0.099zm-12.211-11.163c4e-3 -4.4 0.17944-6.0756 0.39069-3.7236 0.21124 2.352 0.20827 5.952-7e-3 8-0.21487 2.048-0.38771 0.12357-0.38408-4.2764zm32.657-1c0-1.375 0.45-2.5 1-2.5s1 0.4132 1 0.91822c0 0.50501 0.27314 1.63 0.60699 2.5 0.39831 1.038 0.0545 1.5818-1 1.5818-1.0475 0-1.607-0.87047-1.607-2.5zm-29 0.66512c0-0.55085-0.27314-1.7134-0.60699-2.5833-0.39831-1.038-0.0545-1.5818 1-1.5818 0.88385 0 1.607 0.675 1.607 1.5v2.25c0 0.4125-0.45 0.9-1 1.0833-0.55 0.18333-1-0.11737-1-0.66822zm-75.596-11.149c-4.7543-6.771-5.0332-6.9842-9.1537-7l-4.25-0.0163v-25h26v25h-7.5c-4.125 0-7.5 0.25687-7.5 0.57081s2.0645 3.4639 4.5878 7 4.1674 6.4292 3.6537 6.4292-3.1408-3.1427-5.8378-6.9838zm11.38-19.266 0.28383-10.75h-23.068v21.832l11.25-0.16609 11.25-0.1661zm-19.784 4.7277c0-0.28729 1.8508-2.5303 4.113-4.9844 2.5307-2.7455 3.8892-5.0451 3.5314-5.9776-0.78345-2.0416-3.6023-1.9175-5.3241 0.23439-1.3211 1.6511-1.3838 1.6431-1.1102-0.14281 0.45382-2.9623 3.1848-4.204 6.2123-2.8245 3.6278 1.653 3.2715 4.8268-0.99354 8.8493l-3.5712 3.3681h3.5712c1.9642 0 3.5712 0.45 3.5712 1s-2.25 1-5 1-5-0.23505-5-0.52234zm104.99 14.496c-0.8204-0.51868-4.7541-0.94994-8.7416-0.95836l-7.25-0.0153v-23h24v11.5c0 11.333-0.0333 11.5-2.3 11.5-1.265 0-2.7313 0.43127-3.2584 0.95836-0.60276 0.60276-1.5118 0.60844-2.45 0.0153zm6.0084-12.066v-9.9075h-5c-4.4865 0-5 0.22619-5 2.2024 0 1.2113-1.4383 3.6863-3.1962 5.5l-3.1962 3.2976h3.1962c1.7579 0 3.1962 0.45 3.1962 1s-2.025 1-4.5 1c-5.6078 0-5.9321-1.8059-1-5.5678 2.2728-1.7335 3.5-3.5046 3.5-5.0509 0-2.6439-2.7015-3.2798-4.8416-1.1397-0.98886 0.98886-1.4336 0.93796-2.1847-0.25-0.62687-0.99153-0.94818 1.9481-0.95836 8.7679l-0.0153 10.26 10-0.10198 10-0.10199zm-30.657 1.5925c4e-3 -4.4 0.17944-6.0756 0.39069-3.7236 0.21124 2.352 0.20827 5.952-7e-3 8-0.21448 2.048-0.38732 0.12356-0.38369-4.2764zm2.2967 6.8062c-1.2362-1.2362-0.62273-4.3062 0.86052-4.3062 0.825 0 1.5 0.87345 1.5 1.941 0 2.0872-1.3179 3.4078-2.3605 2.3652zm45.582-14.583c-3.4216-3.4523-6.2211-6.6023-6.2211-7 0-1.2955 2.2989-0.76255 4.2234 0.97904 1.8126 1.6404 1.8424 1.6011 0.82159-1.0839-0.58259-1.5323-0.75889-3.3108-0.39178-3.9521 0.36711-0.64135 0.29924-0.83249-0.15084-0.42476-1.0383 0.94065-3.5023-1.052-3.5023-2.8324 0-2.6452 3.109-0.12009 5.4972 4.4648l2.4097 4.6262 0.0466-3.25c0.0256-1.7875 0.47617-3.25 1.0012-3.25 0.52507 0 1.1812 1.4625 1.458 3.25 0.90606 5.8511 1.7389 14.75 1.3804 14.75-0.19297 0-3.1504-2.8246-6.572-6.2769zm17.779-0.29048c0-5.3034-0.10669-5.536-2.25-4.9043-2.1143 0.62309-2.0867 0.5065 0.45636-1.9326 1.4885-1.4276 2.951-2.5957 3.25-2.5957 0.299 0 0.54364 3.375 0.54364 7.5 0 4.3333-0.42222 7.5-1 7.5-0.55 0-1-2.5053-1-5.5674zm-61-0.2675c0-1.8559 1.2067-4.1651 2.1765-4.1651 1.3905 0 0.55929 4.2657-0.92654 4.755-0.6875 0.22641-1.25-0.039-1.25-0.58989zm8-13.13c0-1.6183 3.774-3.2098 4.5674-1.9261 0.72658 1.1756-1.2047 2.8497-3.3174 2.8756-0.6875 8e-3 -1.25-0.41885-1.25-0.9495zm16.75-1.7844c-2.6458-0.6008-2.096-2.2507 0.75-2.2507 1.375 0 2.5 0.42345 2.5 0.94099 0 1.3032-1.1817 1.7794-3.25 1.3098zm296.25 56.749v-63l-53.75-2e-3 -53.75-2e-3 0.32097 9.0023c0.21151 5.9324-0.0442 9.0023-0.75 9.0023-0.68196 0-1.071-3.2691-1.071-9v-9h-138v126h247zm-109 51.941c0-5.7847 0.36144-8.8356 1-8.441 0.55 0.33992 1 4.4165 1 9.059 0 4.9606-0.41231 8.441-1 8.441-0.59308 0-1-3.6863-1-9.059zm-119.14-10.389c-3.6589-2.4863-6.8818-8.5283-6.8395-12.822 0.0338-3.4279 3.4899-10.274 6.1198-12.122 13.546-9.5198 30.487 4.6831 23.107 19.372-3.9807 7.9231-14.92 10.646-22.387 5.5718zm16.718-1.0117c3.6052-2.3622 6.7455-9.7392 5.8914-13.839-1.9848-9.5275-12.108-14.525-20.564-10.152-9.3143 4.8166-9.0999 20.041 0.35011 24.863 3.9082 1.9939 10.569 1.5888 14.323-0.87103zm-11.579-12.108c0-5.3034-0.10669-5.5359-2.25-4.9043-2.1143 0.62309-2.0867 0.50651 0.45636-1.9326 1.4885-1.4276 2.951-2.5957 3.25-2.5957 0.299 0 0.54364 3.375 0.54364 7.5 0 4.3333-0.42222 7.5-1 7.5-0.55 0-1-2.5053-1-5.5674zm114-2.4326c0-5.3333 0.40741-9 1-9s1 3.6667 1 9-0.40741 9-1 9-1-3.6667-1-9zm-91.804-13.072c-0.23844-21.404 0.65416-24.924 8.2305-32.454 7.962-7.9136 17.785-10.269 28.455-6.8235 6.2574 2.0209 12.229 6.9799 15.876 13.183 2.4429 4.1557 2.7425 5.6504 2.7392 13.666-4e-3 9.8198-0.95645 12.538-6.6749 19.051-5.2113 5.9353-12.024 8.836-20.821 8.8649-6.4427 0.0212-8.2554-0.38958-12.859-2.9136-5.7911-3.1753-11.784-9.4223-12.928-13.475-0.45648-1.6176-0.91247 1.2513-1.2673 7.9732-0.49397 9.3578-0.57555 8.5885-0.75-7.0719zm38.268 12.522c4.8642-2.0324 11.222-7.9494 13.841-12.882 3.0875-5.8144 3.0716-18.351-0.0306-24.196-4.4353-8.3573-15.512-15.372-24.275-15.372-5.3538 0-12.746 3.0244-17.396 7.1172-7.0397 6.1966-9.0661 10.742-9.0869 20.383-0.015 6.9173 0.3497 8.6243 2.6945 12.613 7.4747 12.715 21.371 17.72 34.252 12.338zm-17.392-14.085c-2.5972-3.3018-2.6149-4.3651-0.0726-4.3651 1.1 0 2 0.65917 2 1.4648 0 1.9804 3.6177 3.7913 6.0388 3.0228 6.0813-1.9301 4.0152-10.601-2.2888-9.6061-0.4125 0.0651-0.75-0.55658-0.75-1.3816s0.64948-1.5 1.4433-1.5c2.3642 0 4.6246-4.0046 3.474-6.1546-1.3144-2.456-5.5765-2.3639-7.1493 0.15461-1.4445 2.3131-3.7679 2.6654-3.7679 0.57143 0-2.0179 2.6811-4.4533 5.7506-5.2237 5.687-1.4273 11.498 5.5101 7.9237 9.4597-1.5928 1.7601-1.5745 1.973 0.3176 3.6853 2.5888 2.3428 2.5614 6.5342-0.0645 9.8725-1.6722 2.1258-2.9139 2.6349-6.4274 2.6349s-4.7552-0.50903-6.4274-2.6349zm112.43 15.752c-5.9222-1.5263-10.609-4.4441-15.022-9.353-16.211-18.03-3.3219-46.792 20.954-46.758 13.022 0.0178 24.88 9.4753 27.388 21.843 0.54412 2.6835 0.63941 11.21 0.22522 20.152-0.62708 13.538-0.74423 14.298-0.92561 6l-0.20765-9.5-1.9026 3.5997c-5.1906 9.8205-20.141 16.689-30.509 14.017zm14.736-2.3059c5.2784-1.5814 13.013-8.6812 15.711-14.422 8.0454-17.116-5.5019-38.389-24.447-38.389-9.6148 0-20.27 6.8246-24.558 15.73-3.5187 7.3073-3.291 17.079 0.56217 24.126 5.0703 9.2732 12.778 13.91 23.379 14.066 2.9612 0.0434 7.1695-0.45601 9.3518-1.1098zm-7.2358-14.811c0-2.9697-0.0556-3-5.5-3-4.5724 0-5.4996-0.29514-5.4974-1.75 3e-3 -2.2788 11.118-18.156 12.747-18.209 0.90517-0.0296 1.25 2.3039 1.25 8.4591 0 7.8333 0.15686 8.5 2 8.5 1.1111 0 2 0.66667 2 1.5s-0.88889 1.5-2 1.5c-1.5556 0-2 0.66667-2 3 0 2-0.5 3-1.5 3s-1.5-1-1.5-3zm0-11.5c0-3.025-0.16129-5.5-0.35842-5.5s-2.0017 2.475-4.0102 5.5l-3.6518 5.5h8.0204zm-49 0.44098c0-5.7847 0.36144-8.8356 1-8.441 0.55 0.33992 1 4.4165 1 9.059 0 4.9606-0.41231 8.441-1 8.441-0.59308 0-1-3.6863-1-9.059zm0-25.882c0-5.3727 0.40692-9.059 1-9.059 0.58769 0 1 3.4803 1 8.441 0 4.6425-0.45 8.7191-1 9.059-0.63856 0.39465-1-2.6563-1-8.441zm-126-10.559v-13.5h30v27h-30zm28.782 0.25 0.28173-11.75h-27.063v24.058l13.25-0.27902 13.25-0.27903zm-16.782-0.31738c0-5.3034-0.10669-5.536-2.25-4.9043-2.1143 0.62309-2.0867 0.5065 0.45636-1.9326 1.4885-1.4276 2.951-2.5957 3.25-2.5957 0.299 0 0.54364 3.375 0.54364 7.5 0 4.3333-0.42222 7.5-1 7.5-0.55 0-1-2.5053-1-5.5674zm70-0.93262v-13.5h30v27h-30zm28.5 0v-12l-13.25-0.27902-13.25-0.27903v25.116l13.25-0.27902 13.25-0.27903zm-20.5 6.7879c0-0.39169 1.861-2.6083 4.1354-4.9259 2.6765-2.7272 3.9223-4.769 3.5314-5.7878-0.79013-2.059-4.3156-2.0241-5.4788 0.0543-0.52726 0.94217-1.1704 1.2092-1.5261 0.63364-1.0914-1.766 3.0313-4.5559 5.7311-3.8783 4.2993 1.0791 4.301 4.3211 5e-3 8.721l-3.804 3.8952h3.703c2.0366 0 3.703 0.45 3.703 1s-2.25 1-5 1-5-0.32046-5-0.71214zm74.168-10.605c-0.16011-5.541-0.27501-5.7845-2.4181-5.1258-2.2214 0.68282-2.2183 0.65713 0.25-2.0244l2.5-2.716 0.30879 4.1182c0.16983 2.265 0.13298 5.7938-0.0819 7.8418-0.28257 2.6931-0.4372 2.1137-0.55879-2.0938zm10.832 4.795c0-0.28729 1.8508-2.5303 4.113-4.9844 2.5307-2.7455 3.8892-5.0451 3.5314-5.9776-0.78345-2.0416-3.6023-1.9175-5.3241 0.23439-1.3211 1.6511-1.3838 1.6431-1.1102-0.14281 0.45382-2.9623 3.1848-4.204 6.2123-2.8245 3.6278 1.653 3.2715 4.8268-0.99354 8.8493l-3.5712 3.3681h3.5712c1.9642 0 3.5712 0.45 3.5712 1s-2.25 1-5 1-5-0.23505-5-0.52234zm159 37.522v-63h-98v126h98zm-51.78 3.25 0.27988-12.75h7.647c9.0529 0 11.853 1.6903 11.853 7.155 0 4.909-2.758 7.1052-9.944 7.9182l-6.056 0.68515v4.8708c0 4.2281-0.26787 4.8708-2.0299 4.8708-1.9483 0-2.0186-0.51219-1.75-12.75zm15.816-3.3171c0.86054-1.6079 0.75218-2.6074-0.48787-4.5-1.3352-2.0378-2.4024-2.4329-6.5711-2.4329h-4.977v9h5.4648c4.5004 0 5.66-0.36477 6.5711-2.0671zm-21.036-40.402c0-4.4502-0.27936-5.3614-1.5-4.893-2.3484 0.90118-1.6986-0.9481 1.0314-2.9351l2.4686-1.7967v7.5467c0 4.3645-0.42167 7.5467-1 7.5467-0.55 0-1-2.4609-1-5.4686zm12 4.9463c0-0.28729 1.8508-2.5303 4.113-4.9844 2.5307-2.7455 3.8892-5.0451 3.5314-5.9776-0.78345-2.0416-3.6023-1.9175-5.3241 0.23439-1.3211 1.6511-1.3838 1.6431-1.1102-0.14281 0.45382-2.9623 3.1848-4.204 6.2123-2.8245 3.6278 1.653 3.2715 4.8268-0.99354 8.8493l-3.5712 3.3681h3.5712c1.9642 0 3.5712 0.45 3.5712 1s-2.25 1-5 1-5-0.23505-5-0.52234zm45-46.478v-17h-689v34h689zm-676.25 8.3377c0.8423-0.33987 1.25-2.9234 1.25-7.921 0-6.4753-0.22846-7.4167-1.8-7.4167-0.99 0-2.34 0.54-3 1.2-0.93333 0.93334-1.2 0.82223-1.2-0.5 0-1.4381 1.0784-1.7 7-1.7 3.85 0 7 0.37207 7 0.82681s-1.35 0.62867-3 0.3865l-3-0.44031v6.9135c0 4.0438 0.4981 7.4116 1.2 8.1135 0.93333 0.93334 0.43333 1.1825-2.25 1.1211-1.8975-0.0434-2.8875-0.30592-2.2-0.58334zm12 0c0.84051-0.33915 1.25-2.9067 1.25-7.8377 0-4.931-0.40949-7.4986-1.25-7.8377-0.6875-0.27741 0.325-0.50438 2.25-0.50438s2.9375 0.22697 2.25 0.50438c-0.6875 0.27742-1.25 2.0419-1.25 3.9211 0 3.334 0.0993 3.4167 4.105 3.4167h4.105l-0.38146-4c-0.33151-3.4762-0.11611-4 1.645-4 1.8763 0 2.0264 0.62972 2.0264 8.5 0 7.8703-0.15013 8.5-2.0264 8.5-1.7611 0-1.9765-0.52378-1.645-4l0.38146-4h-4.105c-4.0057 0-4.105 0.0827-4.105 3.4167 0 1.8792 0.5625 3.6436 1.25 3.921 0.6875 0.27742-0.325 0.50439-2.25 0.50439s-2.9375-0.22697-2.25-0.50439zm20.424-1.6522c-3.0502-3.2468-2.9793-9.5807 0.14014-12.511 3.3756-3.1713 8.9294-2.951 11.613 0.46054 4.5833 5.8267 1.1205 14.365-5.8257 14.365-2.6301 0-4.4037-0.69252-5.9274-2.3144zm9.6257 0.11445c1.472-1.472 1.5797-9.2221 0.16482-11.866-1.2671-2.3676-6.1669-2.6006-8.009-0.38097-0.70901 0.8543-1.2891 3.5303-1.2891 5.9467 0 2.4164 0.5801 5.0924 1.2891 5.9467 1.5292 1.8426 6.1469 2.0506 7.8442 0.35328zm7.2-0.5225v-2.7225l1.5967 2.2796c1.116 1.5932 2.3956 2.1871 4.25 1.9725 3.9618-0.45854 3.3521-3.4961-1.3416-6.6837-6.4888-4.4067-5.6526-9.1234 1.6174-9.1234 3.3236 0 3.8776 0.31301 3.8776 2.1911 0 2.0481-0.08526 2.0745-1.306 0.40503-1.5463-2.1146-6.0346-1.8339-6.4561 0.40384-0.16563 0.87931 1.5888 2.6278 4.2398 4.2254 3.2846 1.9794 4.5223 3.3616 4.5223 5.05 0 3.4102-1.8639 4.7246-6.7 4.7246-4.0137 0-4.3-0.18126-4.3-2.7225zm14.8 1.5225c1.6494-1.6494 1.607-14.469-0.05-15.138-0.6875-0.27741 1.5625-0.53991 5-0.58333 3.4375-0.0434 6.25 0.27045 6.25 0.69748s-1.8 0.60477-4 0.39496c-3.9975-0.38122-4-0.37921-4 3.2236 0 3.0951 0.32533 3.605 2.3 3.605 1.265 0 2.84-0.54 3.5-1.2 0.93333-0.93333 1.2-0.75573 1.2 0.7992 0 1.696-0.53088 1.9372-3.5 1.5906-3.429-0.40032-3.5-0.3354-3.5 3.2008 0 3.4167 0.17618 3.6094 3.3 3.6094 1.815 0 3.84-0.54 4.5-1.2 0.93333-0.93333 1.2-0.82222 1.2 0.5 0 1.4308-1.0608 1.7-6.7 1.7-5.2111 0-6.4333-0.26666-5.5-1.2zm22 0c1.6494-1.6494 1.607-14.469-0.05-15.138-0.6875-0.27741 1.5625-0.53991 5-0.58333 3.4375-0.0434 6.25 0.27045 6.25 0.69748s-1.8 0.60477-4 0.39496c-3.9975-0.38122-4-0.37921-4 3.2236 0 3.0951 0.32533 3.605 2.3 3.605 1.265 0 2.84-0.54 3.5-1.2 0.93333-0.93333 1.2-0.75573 1.2 0.7992 0 1.696-0.53088 1.9372-3.5 1.5906-3.429-0.40032-3.5-0.3354-3.5 3.2008 0 3.4167 0.17619 3.6094 3.3 3.6094 1.815 0 3.84-0.54 4.5-1.2 0.93333-0.93333 1.2-0.82222 1.2 0.5 0 1.4308-1.0608 1.7-6.7 1.7-5.2111 0-6.4333-0.26666-5.5-1.2zm21 0c0.66-0.66 1.2-2.1305 1.2-3.2679 0-2.2077-4.2336-9.2097-6.8214-11.282-1.3343-1.0685-1.1218-1.25 1.4636-1.25 1.7917 0 3.0245 0.52205 3.0245 1.2808 0 2.0011 3.449 6.7657 4.4498 6.1472 1.4254-0.88093 3.868-6.1102 3.177-6.8012-0.34473-0.34473 0.42666-0.62679 1.7142-0.62679h2.341l-1.9897 2.25c-5.0432 5.7029-7.1328 12.868-4.1089 14.088 0.6875 0.27742-0.3025 0.53992-2.2 0.58334-2.6833 0.0614-3.1833-0.18772-2.25-1.1211zm13.7-7.2588v-8.5412h5.75c4.8396 0 5.7375 0.27708 5.671 1.75-0.0472 1.0454-0.28201 1.2467-0.58333 0.5-0.27741-0.6875-2.0419-1.25-3.921-1.25-3.2381 0-3.4167 0.18293-3.4167 3.5 0 3.7492 1.3964 4.4286 5.0657 2.4648 1.5856-0.84859 1.9343-0.70452 1.9343 0.7992 0 1.5076-0.6235 1.7616-3.5 1.4258-3.429-0.40032-3.5-0.3354-3.5 3.2008 0 3.4167 0.17619 3.6094 3.3 3.6094 1.815 0 3.8962-0.5625 4.625-1.25 1.0693-1.0088 1.2373-0.96056 0.87063 0.25-0.32308 1.0666-2.1652 1.5842-6.375 1.7912l-5.9206 0.29123zm15.53 6.2088c0.0272-2.0094 0.1394-2.0629 1.0497-0.5 0.59883 1.0281 2.2119 1.75 3.9106 1.75 5.5173 0 5.0226-3.3279-1.0078-6.7799-3.1855-1.8235-3.9828-2.853-3.9828-5.143 0-3.1977 1.4196-4.0771 6.5818-4.0771 3.0539 0 3.4182 0.29015 3.4182 2.7225v2.7225l-1.5567-2.2225c-1.996-2.8496-6.4433-3.0474-6.4433-0.28649 0 1.2199 1.4913 2.7742 4.0316 4.2019 7.2514 4.0755 6.2809 9.8621-1.6541 9.8621-3.882 0-4.3741-0.25469-4.3472-2.25zm330.47-6.25v-8.5h4.3157c2.3737 0 5.1862 0.46584 6.25 1.0352 2.1087 1.1285 2.6363 5.4129 0.80584 6.5442-0.77149 0.47681-0.61334 0.98565 0.5 1.6087 0.89563 0.50122 1.6284 1.7568 1.6284 2.7902 0 3.3432-2.7816 5.0217-8.3214 5.0217h-5.1786zm8.9182 6.893c0.86999-0.33384 1.5818-1.6357 1.5818-2.893 0-2.3405-1.6835-3.5-5.0818-3.5-1.5256 0-1.9182 0.71641-1.9182 3.5 0 3.6098 1.4846 4.4025 5.4182 2.893zm0.0104-8.9644c0.86425-0.86428 1.5714-1.8993 1.5714-2.3 0-1.4844-2.4701-3.1286-4.7-3.1286-1.9619 0-2.3 0.5145-2.3 3.5 0 2.7901 0.39116 3.5 1.9286 3.5 1.0607 0 2.6357-0.70714 3.5-1.5714zm7.5714 9.5714c0-0.55 0.675-1 1.5-1s1.5 0.45 1.5 1-0.675 1-1.5 1-1.5-0.45-1.5-1zm13.5-7.5c0-7.8703 0.15013-8.5 2.0264-8.5 1.7666 0 1.9767 0.52139 1.6386 4.067l-0.38785 4.067 3.8614-0.31701c3.1557-0.25907 3.9212-0.73828 4.1882-2.622 0.17972-1.2678-0.21288-2.9553-0.87244-3.75-0.9883-1.1908-0.78197-1.4454 1.1732-1.4473 2.3189-2e-3 2.3649 0.17011 2.0386 7.6391-0.24357 5.5748 0.0269 7.8702 1 8.487 0.87731 0.55612 0.15298 0.85078-2.1161 0.86085-2.6833 0.0119-3.1833-0.25135-2.25-1.1847 0.66-0.66 1.2-2.46 1.2-4 0-2.6119-0.27571-2.8-4.105-2.8h-4.105l0.38146 4c0.33151 3.4762 0.11611 4-1.645 4-1.8763 0-2.0264-0.62971-2.0264-8.5zm18.566 6.6242c-1.6089-3.0062-1.2838-6.6175 0.7623-8.4692 2.2967-2.0785 4.5761-2.1073 6.5998-0.0836 2.508 2.508 1.856 3.4286-2.4286 3.4286-2.7309 0-4 0.43708-4 1.3776 0 2.1132 2.7512 3.9208 5.0518 3.3192 1.3116-0.343 1.9226-0.11294 1.6783 0.63198-0.21126 0.64422-1.7821 1.3101-3.4907 1.4797-2.2813 0.22648-3.3898-0.22093-4.173-1.6843zm5.6836-7.3742c-0.22917-0.6875-1.2417-1.25-2.25-1.25s-2.0208 0.5625-2.25 1.25c-0.26389 0.79167 0.56111 1.25 2.25 1.25s2.5139-0.45833 2.25-1.25zm4.75 3.75c0-3.025 0.225-5.5453 0.5-5.6007 2.5928-0.52231 5.5-0.20836 5.5 0.59394 0 0.54626-0.60797 0.8536-1.351 0.68296-1.0317-0.23693-1.2681 0.88744-1 4.7574 0.31297 4.5182 0.13417 5.0676-1.649 5.067-1.7575-5.5e-4 -2-0.6675-2-5.5006zm10.167 4.8333c-0.36667-0.36667-0.66667-3.9667-0.66667-8 0-5.1918-0.36503-7.3378-1.25-7.3486-0.83333-0.0102-0.75-0.33844 0.25-0.98469 2.5248-1.6317 3-1.1551 3 3.0085 0 3.7197 0.14005 3.921 1.9441 2.7944 4.444-2.7753 8.277 5.8771 4.2272 9.5422-1.832 1.658-6.2528 2.2402-7.5046 0.98832zm6.9615-2.9881c0.8045-3.2054-0.6575-5.8452-3.2372-5.8452-1.5098 0-1.953 0.85672-2.1985 4.25-0.28685 3.9646-0.13702 4.25 2.231 4.25 1.9132 0 2.7026-0.65395 3.2048-2.6548zm5.6169 2.4998c-1.9218-1.9218-1.5092-7.296 0.71463-9.3086 4.4904-4.0638 10.52 1.5883 7.7937 7.3058-1.4204 2.9789-6.3677 4.1434-8.5083 2.0028zm6.5555-3.939c0.19337-2.3014-0.24793-4.0325-1.2373-4.8536-2.4366-2.0222-4.5633-0.52335-4.5633 3.2161 0 6.4347 5.2724 7.923 5.8006 1.6375zm5.6994-3.395c0-5.8687 0.38584-8.637 1.25-8.9686 0.93389-0.35837 1.25 1.4849 1.25 7.289 0 4.7089 0.47262 8.2412 1.2 8.9686 0.93333 0.93334 0.65556 1.2-1.25 1.2-2.4076 0-2.45-0.14693-2.45-8.4889zm7.6603 7.2492c-3.24-3.24 0.7403-11.543 4.9996-10.429 1.6952 0.44331 1.93 0.0788 1.6576-2.5734-0.18803-1.8304 0.19211-3.26 0.9326-3.5073 0.92601-0.30925 1.25 1.5269 1.25 7.0841 0 4.1258 0.25104 8.1558 0.55788 8.9554 0.43315 1.1288-0.42531 1.4735-3.8397 1.5421-2.4187 0.0486-4.9197-0.43386-5.5579-1.072zm6.6477-4.5281c0.33708-4.6527-1.5636-6.5098-4.3207-4.2217-2.8141 2.3355-0.93866 9.4108 2.3302 8.7911 1.2002-0.22752 1.7708-1.5376 1.9905-4.5695zm41.192 4.2678c0-1.8269 1.164-1.9282 2.8727-0.25 1.0288 1.0105 1.2108-0.33132 0.95-7.0024-0.30082-7.6938-0.1873-8.2522 1.6773-8.2501 1.8624 2e-3 1.9652 0.50113 1.495 7.2524-0.27772 3.9876-0.86677 7.8126-1.309 8.5001-1.1536 1.7934-5.686 1.5941-5.686-0.25zm11 0.60256c0-0.4936 1.4625-0.8311 3.25-0.75 2.8476 0.12919 3.2893-0.19394 3.5671-2.61 0.23881-2.0764-0.21508-2.9543-1.8379-3.5546-1.9349-0.71576-1.9928-0.93184-0.56713-2.115 3.5061-2.9098 0.29391-7.6372-3.2888-4.8402-1.4436 1.127-1.4714 1.0736-0.25081-0.48275 3.0632-3.9059 8.9226-0.85396 6.3302 3.2972-0.85615 1.3709-0.77717 2.061 0.34218 2.99 2.0092 1.6675 1.8225 5.3205-0.37352 7.3078-1.9229 1.7402-7.1713 2.2946-7.1713 0.75754zm14.963-2.7136c3.6468-4.1535 5.2329-7.7138 4.4016-9.8802-0.70156-1.8282-4.4632-1.983-6.2874-0.25869-1.0913 1.0316-1.1201 0.85685-0.16481-1 2.1618-4.2018 9.0872-2.2145 9.0872 2.6077 0 0.54403-1.572 3.0486-3.4934 5.5657l-3.4934 4.5766h3.4934c1.9214 0 3.4934 0.45 3.4934 1s-2.2966 1-5.1036 1h-5.1036z"/>
</svg>
