<?xml version="1.0" encoding="UTF-8" standalone="no"?>
<!-- Creator: fig2dev Version 3.2.8b -->
<!-- CreationDate: 2023-10-23 12:01:33 -->
<!-- Magnification: 1.05 -->
<svg	xmlns="http://www.w3.org/2000/svg"
	xmlns:xlink="http://www.w3.org/1999/xlink"
	viewBox="-22 -22 5849 1709">
<g fill="none">
<!-- Text -->
<text xml:space="preserve" x="4860" y="630" fill="#000000" font-family="Helvetica" font-style="normal" font-weight="bold" font-size="108" text-anchor="middle">1</text>
<!-- Line -->
<rect x="1440" y="630" width="180" height="180"
	stroke="#000000" stroke-width="15px"/>
<!-- Line -->
<polyline points=" 1395,1215 1393,1214 1389,1213 1382,1210 1373,1206 1362,1201
 1351,1194 1339,1186 1326,1176 1311,1164 1294,1150 1275,1133 1262,1121 1248,1108
 1233,1093 1217,1078 1201,1061 1183,1043 1165,1024 1147,1004 1128,983 1110,961
 1092,939 1075,918 1058,896 1043,874 1029,853 1016,833 1006,813 996,794 989,775
 983,758 979,743 976,729 975,715 974,701 975,688 977,675 980,662 984,650 989,638
 996,626 1003,616 1011,606 1020,597 1029,589 1040,581 1050,575 1062,570 1073,566
 1085,563 1097,560 1110,559 1122,559 1135,560 1148,563 1162,566 1176,571 1191,577
 1206,584 1221,592 1236,602 1251,613 1266,625 1280,638 1294,652 1307,667 1319,683
 1329,699 1339,715 1347,732 1353,749 1358,766 1362,782 1363,799 1363,815 1361,832
 1358,848 1351,865 1343,883 1332,900 1319,918 1305,937 1289,955 1271,974 1252,993
 1232,1012 1212,1031 1191,1049 1171,1068 1151,1085 1132,1103 1115,1119 1098,1135
 1083,1150 1070,1165 1059,1179 1050,1193 1043,1206 1037,1219 1034,1232 1032,1245
 1032,1258 1033,1270 1036,1283 1040,1295 1046,1307 1053,1319 1060,1330 1069,1341
 1078,1351 1088,1361 1098,1369 1108,1377 1118,1384 1128,1391 1138,1397 1148,1403
 1163,1410 1177,1417 1192,1423 1206,1428 1219,1431 1232,1434 1244,1435 1256,1436
 1266,1436 1275,1435 1283,1434 1290,1433 1300,1430 1309,1426 1317,1421 1325,1415
 1333,1409 1339,1402 1345,1395 1350,1388 1355,1379 1361,1370 1368,1358 1375,1343
 1395,1305"
	stroke="#000000" stroke-width="15px" stroke-linejoin="bevel"/>
<!-- Line -->
<polyline points=" 1395,765 1393,767 1389,771 1382,777 1373,785 1362,795 1351,805
 1339,816 1326,827 1311,840 1294,854 1275,870 1262,881 1248,892 1233,905 1217,918
 1201,933 1183,949 1165,965 1147,982 1128,1000 1110,1019 1092,1038 1075,1057 1058,1076
 1043,1094 1029,1113 1016,1131 1006,1149 996,1166 989,1183 983,1200 979,1214 976,1227
 975,1241 974,1254 975,1268 977,1281 980,1294 984,1307 989,1319 995,1331 1002,1343
 1010,1354 1018,1364 1028,1373 1037,1382 1048,1389 1059,1395 1070,1401 1081,1405
 1093,1408 1104,1410 1116,1411 1128,1411 1140,1410 1153,1407 1167,1404 1180,1398
 1194,1392 1208,1384 1222,1375 1235,1364 1249,1353 1261,1340 1274,1326 1285,1311
 1296,1295 1305,1279 1314,1262 1321,1245 1326,1228 1330,1211 1333,1193 1334,1176
 1333,1159 1331,1142 1328,1125 1321,1106 1313,1088 1303,1069 1291,1049 1277,1029
 1262,1009 1245,989 1228,969 1209,948 1190,928 1171,908 1153,888 1134,869 1117,851
 1101,833 1086,816 1072,801 1061,786 1051,771 1043,758 1036,744 1032,732 1029,719
 1028,707 1028,695 1030,683 1034,671 1038,660 1044,650 1052,639 1060,630 1069,621
 1078,612 1088,604 1098,597 1108,590 1118,584 1128,579 1138,574 1148,570 1166,562
 1183,556 1200,551 1217,548 1232,545 1247,544 1260,544 1271,544 1281,546 1290,548
 1300,550 1309,554 1317,559 1325,565 1333,571 1339,578 1345,585 1350,593 1355,601
 1361,610 1368,622 1375,637 1395,675"
	stroke="#000000" stroke-width="15px" stroke-linejoin="bevel" stroke-dasharray="20 20"/>
<!-- Text -->
<text xml:space="preserve" x="1530" y="1305" fill="#000000" font-family="Helvetica" font-style="normal" font-weight="bold" font-size="108" text-anchor="middle">2</text>
<!-- Text -->
<text xml:space="preserve" x="1530" y="765" fill="#000000" font-family="Helvetica" font-style="normal" font-weight="bold" font-size="108" text-anchor="middle">2</text>
<!-- Text -->
<text xml:space="preserve" x="1170" y="1305" fill="#000000" font-family="Helvetica" font-style="normal" font-weight="bold" font-size="108" text-anchor="middle">1</text>
<!-- Text -->
<text xml:space="preserve" x="1170" y="765" fill="#000000" font-family="Helvetica" font-style="normal" font-weight="bold" font-size="108" text-anchor="middle">1</text>
<!-- Circle -->
<circle cx="1905" cy="1261" r="90"
	stroke="#000000" stroke-width="15px"/>
<!-- Line -->
<rect x="1815" y="631" width="180" height="180"
	stroke="#000000" stroke-width="15px"/>
<!-- Line -->
<polyline points=" 2040,1216 2042,1215 2046,1214 2053,1211 2062,1207 2073,1202
 2084,1195 2096,1187 2109,1177 2124,1165 2141,1151 2160,1134 2173,1122 2187,1109
 2202,1094 2218,1079 2234,1062 2252,1044 2270,1025 2288,1005 2307,984 2325,962
 2343,940 2360,919 2377,897 2392,875 2406,854 2419,834 2429,814 2439,795 2446,776
 2453,759 2456,744 2459,730 2460,716 2461,702 2460,689 2458,676 2455,663 2451,651
 2446,639 2439,627 2432,617 2424,607 2415,598 2406,590 2395,582 2385,576 2373,571
 2362,567 2350,564 2338,561 2325,560 2313,560 2300,561 2288,564 2273,567 2259,572
 2244,578 2229,585 2214,593 2199,603 2184,614 2169,626 2155,639 2141,653 2128,668
 2116,684 2106,700 2096,716 2088,733 2082,750 2077,767 2073,783 2072,800 2072,816
 2074,833 2078,849 2084,866 2092,884 2103,901 2116,919 2130,938 2146,956 2164,975
 2183,994 2203,1013 2223,1032 2244,1050 2264,1069 2284,1086 2303,1104 2320,1120
 2337,1136 2352,1151 2365,1166 2376,1180 2385,1194 2392,1207 2398,1220 2401,1233
 2403,1246 2403,1259 2402,1271 2399,1284 2395,1296 2389,1308 2382,1320 2375,1331
 2366,1342 2357,1352 2347,1362 2337,1370 2327,1378 2317,1385 2307,1392 2297,1398
 2288,1404 2272,1411 2258,1418 2243,1424 2229,1429 2216,1432 2203,1435 2191,1436
 2179,1437 2169,1437 2160,1436 2152,1435 2145,1434 2135,1431 2126,1427 2118,1422
 2110,1416 2102,1410 2096,1403 2090,1396 2085,1389 2080,1380 2074,1371 2067,1359
 2060,1344 2040,1306"
	stroke="#000000" stroke-width="15px" stroke-linejoin="bevel"/>
<!-- Line -->
<polyline points=" 2040,766 2042,768 2046,772 2053,778 2062,786 2073,796 2084,806
 2096,817 2109,828 2124,841 2141,855 2160,871 2173,882 2187,893 2202,906 2218,919
 2234,934 2252,950 2270,966 2288,983 2307,1001 2325,1020 2343,1039 2360,1058 2377,1077
 2392,1095 2406,1114 2419,1132 2429,1150 2439,1167 2446,1184 2453,1201 2456,1215
 2459,1228 2460,1242 2461,1255 2460,1269 2458,1282 2455,1295 2451,1308 2446,1320
 2440,1332 2433,1344 2425,1355 2417,1365 2407,1374 2398,1383 2387,1390 2376,1396
 2365,1402 2354,1406 2342,1409 2331,1411 2319,1412 2307,1412 2295,1411 2282,1408
 2268,1405 2255,1399 2241,1393 2227,1385 2213,1376 2200,1365 2186,1354 2174,1341
 2161,1327 2150,1312 2139,1296 2130,1280 2121,1263 2114,1246 2109,1229 2105,1212
 2102,1194 2101,1177 2102,1160 2104,1143 2108,1126 2114,1107 2122,1089 2132,1070
 2144,1050 2158,1030 2173,1010 2190,990 2207,970 2226,949 2245,929 2264,909 2282,889
 2301,870 2318,852 2334,834 2349,817 2363,802 2374,787 2384,772 2393,759 2399,745
 2403,733 2406,720 2407,708 2407,696 2405,684 2401,672 2397,661 2391,651 2383,640
 2375,631 2366,622 2357,613 2347,605 2337,598 2327,591 2317,585 2307,580 2297,575
 2288,571 2272,565 2258,559 2243,555 2229,551 2216,548 2203,546 2191,545 2179,545
 2169,545 2160,546 2152,547 2145,549 2135,551 2126,555 2118,560 2110,566 2102,572
 2096,579 2090,586 2085,594 2080,602 2074,611 2067,623 2060,638 2040,676"
	stroke="#000000" stroke-width="15px" stroke-linejoin="bevel" stroke-dasharray="20 20"/>
<!-- Text -->
<text xml:space="preserve" x="2265" y="1306" fill="#000000" font-family="Helvetica" font-style="normal" font-weight="bold" font-size="108" text-anchor="middle">4</text>
<!-- Text -->
<text xml:space="preserve" x="2265" y="766" fill="#000000" font-family="Helvetica" font-style="normal" font-weight="bold" font-size="108" text-anchor="middle">4</text>
<!-- Text -->
<text xml:space="preserve" x="1905" y="1306" fill="#000000" font-family="Helvetica" font-style="normal" font-weight="bold" font-size="108" text-anchor="middle">3</text>
<!-- Text -->
<text xml:space="preserve" x="1905" y="766" fill="#000000" font-family="Helvetica" font-style="normal" font-weight="bold" font-size="108" text-anchor="middle">3</text>
<!-- Text -->
<text xml:space="preserve" x="5400" y="1035" fill="#000000" font-family="Helvetica" font-style="normal" font-weight="bold" font-size="216" text-anchor="middle">X</text>
<!-- Text -->
<text xml:space="preserve" x="5535" y="1080" fill="#000000" font-family="Helvetica" font-style="normal" font-weight="bold" font-size="144" text-anchor="middle">R</text>
<!-- Text -->
<text xml:space="preserve" x="4185" y="1035" fill="#000000" font-family="Helvetica" font-style="normal" font-weight="bold" font-size="216" text-anchor="middle">X</text>
<!-- Text -->
<text xml:space="preserve" x="4320" y="1080" fill="#000000" font-family="Helvetica" font-style="normal" font-weight="bold" font-size="144" text-anchor="middle">R</text>
<!-- Line -->
<defs>
<clipPath id="cp0">
	<path clip-rule="evenodd" d="M -22,-22 H 5827 V 1687 H -22 z
		M 5456,1455 5396,1395 5456,1335 5375,1385 5375,1406z
		M 5558,1335 5558,1455 5576,1406 5576,1385z"/>
</clipPath>
</defs>
<polyline points=" 5565,1395 5385,1395" clip-path="url(#cp0)"
	stroke="#000000" stroke-width="15px"/>
<!-- Forward arrow to point 5385,1395 -->
<polyline points=" 5456,1455 5396,1395 5456,1335"
	stroke="#000000" stroke-width="15px" stroke-miterlimit="8"/>
<!-- Backward arrow to point 5565,1395 -->
<polyline points=" 5558,1335 5558,1455"
	stroke="#000000" stroke-width="15px" stroke-miterlimit="8"/>
<!-- Text -->
<text xml:space="preserve" x="5475" y="1620" fill="#000000" font-family="Helvetica" font-style="normal" font-weight="normal" font-size="108" text-anchor="middle">31-32</text>
<!-- Text -->
<text xml:space="preserve" x="5475" y="1305" fill="#000000" font-family="Helvetica" font-style="normal" font-weight="bold" font-size="108" text-anchor="middle">2 3 4</text>
<!-- Arc -->
<defs>
<clipPath id="cp1">
	<path clip-rule="evenodd" d="M -22,-22 H 5827 V 1687 H -22 z
		M 5243,905 5184,916 5212,957 5232,953z
		M 5558,1335 5558,1455 5576,1406 5576,1385z"/>
</clipPath>
</defs>
<path d="M 5040,945 A 90 90 0 0 1 5220 945" clip-path="url(#cp1)"
	stroke="#000000" stroke-width="15px"/>
<!-- Forward arrow to point 5220,945 -->
<polygon points=" 5184,916 5219,940 5243,905 5184,916"
	stroke="#000000" stroke-width="8px" stroke-miterlimit="8" fill="#000000"/>
<!-- Arc -->
<defs>
<clipPath id="cp2">
	<path clip-rule="evenodd" d="M -22,-22 H 5827 V 1687 H -22 z
		M 4914,974 4973,985 4962,937 4942,933z
		M 5558,1335 5558,1455 5576,1406 5576,1385z"/>
</clipPath>
</defs>
<path d="M 4770,945 A 90 90 0 0 0 4950 945" clip-path="url(#cp2)"
	stroke="#000000" stroke-width="15px"/>
<!-- Forward arrow to point 4950,945 -->
<polygon points=" 4973,985 4949,950 4914,974 4973,985"
	stroke="#000000" stroke-width="8px" stroke-miterlimit="8" fill="#000000"/>
<!-- Arc -->
<defs>
<clipPath id="cp3">
	<path clip-rule="evenodd" d="M -22,-22 H 5827 V 1687 H -22 z
		M 4703,905 4644,916 4672,957 4692,953z
		M 5558,1335 5558,1455 5576,1406 5576,1385z"/>
</clipPath>
</defs>
<path d="M 4500,945 A 90 90 0 0 1 4680 945" clip-path="url(#cp3)"
	stroke="#000000" stroke-width="15px"/>
<!-- Forward arrow to point 4680,945 -->
<polygon points=" 4644,916 4679,940 4703,905 4644,916"
	stroke="#000000" stroke-width="8px" stroke-miterlimit="8" fill="#000000"/>
<!-- Line -->
<polyline points=" 0,360 5805,360"
	stroke="#000000" stroke-width="15px"/>
<!-- Line -->
<rect x="0" y="0" width="5805" height="1665"
	stroke="#000000" stroke-width="15px"/>
<!-- Line -->
<defs>
<clipPath id="cp4">
	<path clip-rule="evenodd" d="M -22,-22 H 5827 V 1687 H -22 z
		M 300,1011 240,1011 260,1091 281,1091z
		M 240,834 300,834 281,755 260,755z"/>
</clipPath>
</defs>
<polyline points=" 270,765 270,1080" clip-path="url(#cp4)"
	stroke="#000000" stroke-width="15px"/>
<!-- Forward arrow to point 270,1080 -->
<polygon points=" 240,1011 270,1071 300,1011 240,1011"
	stroke="#000000" stroke-width="8px" stroke-miterlimit="8" fill="#000000"/>
<!-- Backward arrow to point 270,765 -->
<polygon points=" 300,834 270,774 240,834 300,834"
	stroke="#000000" stroke-width="8px" stroke-miterlimit="8" fill="#000000"/>
<!-- Line -->
<polyline points=" 810,360 810,1665"
	stroke="#000000" stroke-width="15px"/>
<!-- Line -->
<polyline points=" 2655,360 2655,1665"
	stroke="#000000" stroke-width="15px"/>
<!-- Line -->
<polyline points=" 2925,585 2835,585"
	stroke="#000000" stroke-width="8px"/>
<!-- Line -->
<polyline points=" 3735,585 3645,585"
	stroke="#000000" stroke-width="8px"/>
<!-- Line -->
<polyline points=" 3915,360 3915,1665"
	stroke="#000000" stroke-width="15px"/>
<!-- Line -->
<polyline points=" 5625,585 4995,585"
	stroke="#000000" stroke-width="8px"/>
<!-- Line -->
<polyline points=" 4725,585 4095,585"
	stroke="#000000" stroke-width="8px"/>
<!-- Line -->
<polyline points=" 990,1440 991,1442 992,1445 994,1451 998,1458 1004,1466 1011,1474
 1019,1481 1029,1487 1040,1492 1054,1496 1070,1498 1088,1500 1110,1500 1128,1500
 1147,1499 1167,1498 1190,1497 1214,1496 1239,1494 1266,1492 1293,1490 1322,1487
 1351,1485 1379,1483 1408,1480 1435,1478 1462,1476 1487,1474 1511,1473 1534,1472
 1554,1471 1573,1470 1591,1470 1613,1470 1631,1472 1647,1474 1661,1478 1672,1483
 1682,1489 1690,1496 1697,1504 1703,1512 1707,1519 1709,1525 1710,1528 1711,1530
"
	stroke="#000000" stroke-width="15px" stroke-linejoin="bevel" stroke-linecap="round"/>
<!-- Line -->
<polyline points=" 2430,1440 2429,1442 2428,1445 2426,1451 2422,1458 2416,1466
 2409,1474 2401,1481 2391,1487 2380,1492 2366,1496 2351,1498 2332,1500 2310,1500
 2293,1500 2274,1499 2253,1498 2231,1497 2207,1496 2181,1494 2155,1492 2127,1490
 2099,1487 2070,1485 2041,1483 2013,1480 1985,1478 1959,1476 1933,1474 1909,1473
 1887,1472 1866,1471 1847,1470 1830,1470 1808,1470 1789,1472 1774,1474 1760,1478
 1749,1483 1739,1489 1731,1496 1724,1504 1718,1512 1714,1519 1712,1525 1711,1528
 1710,1530"
	stroke="#000000" stroke-width="15px" stroke-linejoin="bevel" stroke-linecap="round"/>
<!-- Text -->
<text xml:space="preserve" x="90" y="270" fill="#000000" font-family="Helvetica" font-style="normal" font-weight="normal" font-size="216" text-anchor="start">Fiona's Fancy</text>
<!-- Text -->
<text xml:space="preserve" x="4770" y="270" fill="#000000" font-family="Helvetica" font-style="normal" font-weight="normal" font-size="168" text-anchor="end">Sheila Gradon</text>
<!-- Text -->
<text xml:space="preserve" x="5760" y="270" fill="#000000" font-family="Helvetica" font-style="normal" font-weight="normal" font-size="216" text-anchor="end">R4x32</text>
<!-- Text -->
<text xml:space="preserve" x="405" y="630" fill="#000000" font-family="Helvetica" font-style="normal" font-weight="bold" font-size="108" text-anchor="middle">1 2 3 4</text>
<!-- Text -->
<text xml:space="preserve" x="540" y="1035" fill="#000000" font-family="Helvetica" font-style="normal" font-weight="bold" font-size="216" text-anchor="middle">D</text>
<!-- Text -->
<text xml:space="preserve" x="3015" y="1035" fill="#000000" font-family="Helvetica" font-style="normal" font-weight="bold" font-size="216" text-anchor="middle">RA</text>
<!-- Text -->
<text xml:space="preserve" x="3555" y="1035" fill="#000000" font-family="Helvetica" font-style="normal" font-weight="bold" font-size="216" text-anchor="middle">LA</text>
<!-- Text -->
<text xml:space="preserve" x="3285" y="630" fill="#000000" font-family="Helvetica" font-style="normal" font-weight="bold" font-size="108" text-anchor="middle">1 2 &amp; 3 4</text>
<!-- Text -->
<text xml:space="preserve" x="5130" y="990" fill="#000000" font-family="Helvetica" font-style="normal" font-weight="bold" font-size="108" text-anchor="middle">1</text>
<!-- Text -->
<text xml:space="preserve" x="4860" y="990" fill="#000000" font-family="Helvetica" font-style="normal" font-weight="bold" font-size="108" text-anchor="middle">1</text>
<!-- Text -->
<text xml:space="preserve" x="4590" y="990" fill="#000000" font-family="Helvetica" font-style="normal" font-weight="bold" font-size="108" text-anchor="middle">1</text>
<!-- Circle -->
<circle cx="1530" cy="1260" r="90"
	stroke="#000000" stroke-width="15px"/>
</g>
</svg>
