<?xml version='1.0' encoding='utf-8' standalone='no'?>
<!DOCTYPE svg PUBLIC '-//W3C//DTD SVG 1.1//EN' 'http://www.w3.org/Graphics/SVG/1.1/DTD/svg11.dtd'>
<svg version="1.1" viewBox="-0.028 -0.352 470 106" xmlns='http://www.w3.org/2000/svg'>
<defs>
</defs>
<path fill="none" stroke="#000000" stroke-width="0.5584" stroke-miterlimit="10" stroke-dasharray="1.43" d="M329.222,55.398
	c-8-0.25-0.406-0.5-18.156-0.25"/>
<line fill="none" stroke="#000000" stroke-width="0.557" stroke-miterlimit="10" x1="204.805" y1="47.815" x2="197.921" y2="55.477"/>
<rect x="326.972" y="49.898" fill="#FFFFFF" width="12.25" height="12.25"/>
<path d="M5.609,6.431h1.82l3.328,5.477l3.336-5.477h1.82l-4.375,6.875v4.625H9.984v-4.625L5.609,6.431z"/>
<path d="M17.367,17.931v-11.5h1.555v5.57l5.617-5.57h2.133l-4.766,4.586l4.891,6.914h-2.016l-4.016-5.75l-1.844,1.711v4.039H17.367z
	"/>
<path d="M29.031,14.228c0.083,1.761,1.167,2.641,3.25,2.641c0.953,0,1.677-0.161,2.172-0.484c0.495-0.328,0.742-0.839,0.742-1.531
	c0-0.442-0.138-0.81-0.414-1.102c-0.271-0.297-0.945-0.573-2.023-0.828l-2.375-0.531c-0.755-0.188-1.349-0.497-1.781-0.93
	c-0.433-0.438-0.648-1.044-0.648-1.82c0-1.058,0.352-1.906,1.055-2.547c0.708-0.641,1.719-0.961,3.031-0.961
	c1.203,0,2.2,0.284,2.992,0.852c0.797,0.567,1.229,1.492,1.297,2.773h-1.453c-0.151-1.511-1.102-2.266-2.852-2.266
	c-0.766,0-1.386,0.167-1.859,0.5c-0.469,0.333-0.703,0.823-0.703,1.469c0,0.375,0.112,0.688,0.336,0.938
	c0.224,0.25,0.648,0.442,1.273,0.578l3.023,0.727c0.87,0.192,1.521,0.539,1.953,1.039c0.438,0.495,0.656,1.169,0.656,2.023
	c0,1.12-0.412,1.977-1.234,2.57c-0.823,0.594-1.945,0.891-3.367,0.891c-1.484,0-2.609-0.362-3.375-1.086s-1.148-1.695-1.148-2.914
	H29.031z"/>
<path d="M38.953,6.431h1.555v11.5h-1.555V6.431z"/>
<path d="M47.602,17.931v-11.5h1.555v5.57l5.617-5.57h2.133l-4.766,4.586l4.891,6.914h-2.016L51,12.181l-1.844,1.711v4.039H47.602z"
	/>
<path d="M57.281,17.931l4.375-11.5h1.773l4.125,11.5h-1.695l-1.117-3.359h-4.648l-1.211,3.359H57.281z M60.602,13.212h3.586
	l-1.703-5.117L60.602,13.212z"/>
<path d="M68.945,17.931v-11.5H70.5v5.57l5.617-5.57h2.133l-4.766,4.586l4.891,6.914h-2.016l-4.016-5.75L70.5,13.892v4.039H68.945z"
	/>
<path d="M80.609,14.228c0.083,1.761,1.167,2.641,3.25,2.641c0.953,0,1.677-0.161,2.172-0.484c0.495-0.328,0.742-0.839,0.742-1.531
	c0-0.442-0.138-0.81-0.414-1.102c-0.271-0.297-0.945-0.573-2.023-0.828l-2.375-0.531c-0.755-0.188-1.349-0.497-1.781-0.93
	c-0.433-0.438-0.648-1.044-0.648-1.82c0-1.058,0.352-1.906,1.055-2.547c0.708-0.641,1.719-0.961,3.031-0.961
	c1.203,0,2.2,0.284,2.992,0.852c0.797,0.567,1.229,1.492,1.297,2.773h-1.453c-0.151-1.511-1.102-2.266-2.852-2.266
	c-0.766,0-1.386,0.167-1.859,0.5c-0.469,0.333-0.703,0.823-0.703,1.469c0,0.375,0.112,0.688,0.336,0.938
	c0.224,0.25,0.648,0.442,1.273,0.578l3.023,0.727c0.87,0.192,1.521,0.539,1.953,1.039c0.438,0.495,0.656,1.169,0.656,2.023
	c0,1.12-0.412,1.977-1.234,2.57c-0.823,0.594-1.945,0.891-3.367,0.891c-1.484,0-2.609-0.362-3.375-1.086s-1.148-1.695-1.148-2.914
	H80.609z"/>
<path d="M90.531,6.431h1.555v11.5h-1.555V6.431z"/>
<path d="M99.18,17.931v-11.5h1.555v5.57l5.617-5.57h2.133l-4.766,4.586l4.891,6.914h-2.016l-4.016-5.75l-1.844,1.711v4.039H99.18z"
	/>
<path d="M109.273,12.181c0-1.729,0.495-3.169,1.484-4.32c0.995-1.151,2.372-1.727,4.133-1.727c1.75,0,3.122,0.583,4.117,1.75
	c0.995,1.161,1.492,2.563,1.492,4.203c0,1.808-0.495,3.284-1.484,4.43c-0.99,1.141-2.367,1.711-4.133,1.711
	c-1.651,0-3-0.542-4.047-1.625C109.794,15.514,109.273,14.04,109.273,12.181z M110.875,12.181c0,1.344,0.352,2.461,1.055,3.352
	c0.708,0.891,1.695,1.336,2.961,1.336c1.156,0,2.112-0.417,2.867-1.25c0.76-0.839,1.141-1.984,1.141-3.438
	c0-1.391-0.357-2.519-1.07-3.383c-0.714-0.87-1.695-1.305-2.945-1.305c-1.183,0-2.146,0.419-2.891,1.258
	C111.247,9.59,110.875,10.732,110.875,12.181z"/>
<path d="M122.297,6.431h1.555v10.141h5.875v1.359h-7.43V6.431z"/>
<path d="M131.148,6.431h2.234l3.289,9.703l3.273-9.703h2.234v11.5h-1.508V8.274l-3.242,9.656h-1.531l-3.242-9.703v9.703h-1.508
	V6.431z"/>
<path d="M144.695,17.931v-11.5h8.43V7.79h-6.875v3.57h6.344v1.359h-6.344v3.852h7v1.359H144.695z"/>
<path d="M411.404,11.962c-1.011-0.442-1.516-1.177-1.516-2.203c0-0.917,0.308-1.664,0.922-2.242c0.62-0.583,1.45-0.875,2.492-0.875
	c0.979,0,1.8,0.269,2.461,0.805c0.667,0.531,1,1.258,1,2.18c0,1.094-0.477,1.867-1.43,2.32c1.203,0.599,1.805,1.521,1.805,2.766
	c0,1.016-0.339,1.854-1.016,2.516c-0.672,0.661-1.583,0.992-2.734,0.992c-1.125,0-2.052-0.3-2.781-0.898s-1.094-1.44-1.094-2.523
	C409.514,13.418,410.144,12.473,411.404,11.962z M411.014,14.759c0,0.636,0.2,1.161,0.602,1.578
	c0.401,0.411,0.995,0.617,1.781,0.617c0.698,0,1.245-0.195,1.641-0.586c0.401-0.391,0.602-0.894,0.602-1.508
	c0-0.667-0.2-1.198-0.602-1.594c-0.401-0.401-0.972-0.602-1.711-0.602c-0.672,0-1.227,0.19-1.664,0.57
	C411.229,13.61,411.014,14.118,411.014,14.759z M411.389,9.657c0,0.442,0.169,0.852,0.508,1.227c0.339,0.37,0.82,0.555,1.445,0.555
	c0.542,0,0.997-0.164,1.367-0.492s0.555-0.771,0.555-1.328c0-0.547-0.192-0.969-0.578-1.266c-0.38-0.297-0.859-0.445-1.438-0.445
	c-0.552,0-1,0.153-1.344,0.461C411.561,8.67,411.389,9.1,411.389,9.657z"/>
<path d="M417.975,17.931l2.906-4.352l-2.75-4.023h1.805l1.906,2.914l1.898-2.914h1.734l-2.797,4.023l2.906,4.352h-1.781
	l-2.063-3.141l-1.984,3.141H417.975z"/>
<path d="M426.193,13.829l5.211-7.07h1.164v7.195h1.648v1.227h-1.648v2.75h-1.406v-2.75h-4.969V13.829z M427.514,13.954h3.648V8.868
	L427.514,13.954z"/>
<path d="M435.287,12.478c0-1.792,0.328-3.211,0.984-4.258c0.661-1.052,1.636-1.578,2.922-1.578c1.177,0,2.112,0.484,2.805,1.453
	c0.692,0.964,1.039,2.394,1.039,4.289c0,1.813-0.325,3.239-0.977,4.281c-0.651,1.036-1.617,1.555-2.898,1.555
	c-1.183,0-2.125-0.481-2.828-1.445C435.636,15.811,435.287,14.379,435.287,12.478z M436.787,12.431c0,3.016,0.786,4.523,2.359,4.523
	c1.594,0,2.391-1.508,2.391-4.523s-0.792-4.523-2.375-4.523S436.787,9.415,436.787,12.431z"/>
<path d="M458.936,17.931h-1.914c-0.177-0.755-0.266-1.651-0.266-2.688c0-0.833-0.153-1.411-0.461-1.734
	c-0.308-0.328-0.828-0.492-1.563-0.492h-3.734v4.914h-1.555v-11.5h5.305c1.255,0,2.192,0.258,2.813,0.773
	c0.625,0.511,0.938,1.302,0.938,2.375c0,1.25-0.534,2.161-1.602,2.734c0.469,0.188,0.808,0.438,1.016,0.75s0.325,0.841,0.352,1.586
	l0.086,1.875c0.011,0.208,0.039,0.417,0.086,0.625c0.047,0.203,0.214,0.378,0.5,0.523V17.931z M456.896,9.712
	c0-0.661-0.177-1.146-0.531-1.453c-0.349-0.313-0.854-0.469-1.516-0.469h-3.852v3.93h3.57
	C456.12,11.72,456.896,11.051,456.896,9.712z"/>
<path fill="none" stroke="#000000" stroke-width="1.1339" stroke-miterlimit="10" d="M0.567,0.567h468.04v91.581H0.567V0.567z"/>
<line fill="none" stroke="#000000" stroke-width="1.1339" stroke-miterlimit="10" x1="0.067" y1="26.146" x2="468.106" y2="26.146"/>
<line fill="none" stroke="#000000" stroke-width="1.1019" stroke-miterlimit="10" x1="87.52" y1="25.854" x2="87.52" y2="91.231"/>
<path d="M392.18,101.425c0.009,0.455,0.119,0.802,0.33,1.042c0.213,0.237,0.549,0.356,1.006,0.356c0.384,0,0.712-0.103,0.984-0.309
	c0.275-0.207,0.413-0.512,0.413-0.914c0-0.348-0.117-0.623-0.352-0.826c-0.234-0.201-0.586-0.303-1.055-0.303
	c-0.1,0-0.252,0.004-0.457,0.014v-0.69c0.202,0.015,0.328,0.022,0.378,0.022c0.826,0,1.239-0.345,1.239-1.033
	c0-0.319-0.104-0.574-0.312-0.765c-0.206-0.19-0.488-0.286-0.849-0.286c-0.393,0-0.688,0.11-0.884,0.33s-0.307,0.553-0.334,0.998
	h-0.777c0.003-0.643,0.174-1.142,0.514-1.499c0.344-0.36,0.854-0.54,1.534-0.54c0.589,0,1.061,0.156,1.415,0.47
	c0.357,0.311,0.536,0.723,0.536,1.235c0,0.676-0.276,1.117-0.831,1.322c0.401,0.144,0.682,0.337,0.84,0.58
	c0.158,0.24,0.237,0.538,0.237,0.893c0,0.598-0.202,1.082-0.606,1.454s-0.946,0.558-1.626,0.558c-0.621,0-1.124-0.155-1.507-0.465
	c-0.382-0.313-0.6-0.861-0.655-1.645H392.18z"/>
<path d="M401.36,101.008h0.849c-0.15,0.844-0.468,1.477-0.954,1.898s-1.112,0.633-1.876,0.633c-0.877,0-1.582-0.305-2.119-0.914
	c-0.535-0.612-0.804-1.441-0.804-2.487c0-1.034,0.272-1.859,0.817-2.475c0.548-0.617,1.289-0.927,2.224-0.927
	c0.706,0,1.289,0.176,1.749,0.527c0.463,0.349,0.76,0.876,0.893,1.582h-0.849c-0.226-0.896-0.825-1.345-1.798-1.345
	c-0.636,0-1.15,0.228-1.547,0.682c-0.393,0.454-0.588,1.113-0.588,1.977c0,0.798,0.176,1.434,0.527,1.908
	c0.352,0.472,0.874,0.707,1.568,0.707c0.504,0,0.915-0.149,1.234-0.448C401.01,102.025,401.234,101.585,401.36,101.008z"/>
<path d="M402.411,103.54l2.215-6.803h0.598l-2.215,6.803H402.411z"/>
<path d="M405.285,101.066l2.931-3.978h0.655v4.048h0.927v0.689h-0.927v1.547h-0.791v-1.547h-2.795V101.066z M406.027,101.136h2.053
	v-2.861L406.027,101.136z"/>
<path d="M415.366,101.008h0.849c-0.15,0.844-0.468,1.477-0.954,1.898s-1.112,0.633-1.876,0.633c-0.877,0-1.582-0.305-2.119-0.914
	c-0.535-0.612-0.804-1.441-0.804-2.487c0-1.034,0.272-1.859,0.817-2.475c0.548-0.617,1.289-0.927,2.224-0.927
	c0.706,0,1.289,0.176,1.749,0.527c0.463,0.349,0.76,0.876,0.893,1.582h-0.849c-0.226-0.896-0.825-1.345-1.798-1.345
	c-0.636,0-1.15,0.228-1.547,0.682c-0.393,0.454-0.588,1.113-0.588,1.977c0,0.798,0.176,1.434,0.527,1.908
	c0.352,0.472,0.874,0.707,1.568,0.707c0.504,0,0.915-0.149,1.234-0.448C415.016,102.025,415.24,101.585,415.366,101.008z"/>
<path d="M419.673,103.373v-6.469h0.791v6.469H419.673z"/>
<path d="M421.374,101.035c0-0.747,0.2-1.354,0.603-1.819c0.4-0.469,0.934-0.703,1.6-0.703c0.641,0,1.168,0.228,1.582,0.681
	c0.412,0.455,0.619,1.063,0.619,1.824c0,0.718-0.199,1.315-0.598,1.793c-0.398,0.475-0.928,0.712-1.586,0.712
	c-0.648,0-1.18-0.229-1.596-0.686C421.582,102.376,421.374,101.776,421.374,101.035z M422.191,101.017
	c0,0.513,0.119,0.942,0.355,1.287c0.24,0.347,0.583,0.52,1.029,0.52c0.387,0,0.713-0.151,0.979-0.453
	c0.27-0.305,0.404-0.756,0.404-1.354c0-0.513-0.117-0.941-0.352-1.287s-0.579-0.52-1.032-0.52c-0.411,0-0.745,0.156-1.002,0.467
	C422.318,99.988,422.191,100.434,422.191,101.017z"/>
<path d="M426.652,103.373v-4.711h0.742v0.694c0.396-0.563,0.893-0.844,1.49-0.844c0.504,0,0.894,0.149,1.169,0.448
	c0.275,0.296,0.413,0.697,0.413,1.204v3.208h-0.791v-2.927c0-0.475-0.084-0.798-0.25-0.972c-0.165-0.176-0.409-0.264-0.734-0.264
	c-0.369,0-0.67,0.139-0.9,0.414c-0.232,0.275-0.348,0.663-0.348,1.164v2.584H426.652z"/>
<path d="M431.579,103.909h0.791c0.103,0.478,0.458,0.716,1.067,0.716c0.442,0,0.775-0.112,0.998-0.338s0.334-0.606,0.334-1.143
	v-0.313c-0.284,0.461-0.714,0.69-1.287,0.69c-0.619,0-1.114-0.237-1.486-0.712s-0.558-1.111-0.558-1.912
	c0-0.688,0.171-1.258,0.515-1.709c0.342-0.451,0.818-0.677,1.428-0.677c0.319,0,0.59,0.067,0.813,0.202
	c0.223,0.132,0.432,0.338,0.625,0.619v-0.672h0.742v4.289c0,0.882-0.185,1.497-0.554,1.846c-0.369,0.346-0.905,0.519-1.608,0.519
	c-0.498,0-0.908-0.107-1.23-0.321C431.849,104.777,431.652,104.416,431.579,103.909z M432.256,100.933
	c0,0.593,0.111,1.055,0.334,1.389c0.226,0.334,0.536,0.502,0.932,0.502c0.407,0,0.722-0.151,0.945-0.453
	c0.225-0.302,0.338-0.725,0.338-1.27c0-1.26-0.436-1.891-1.305-1.891C432.67,99.21,432.256,99.786,432.256,100.933z"/>
<path d="M436.207,98.662h0.865l0.879,3.735l0.928-3.735h0.879l0.953,3.735l0.928-3.735h0.791l-1.336,4.711h-0.817l-0.989-3.66
	l-0.927,3.66h-0.817L436.207,98.662z"/>
<path d="M443.19,96.913h0.791v0.905h-0.791V96.913z M443.19,98.662h0.791v4.711h-0.791V98.662z"/>
<path d="M445.635,101.905c0.022,0.612,0.429,0.919,1.217,0.919c0.343,0,0.612-0.066,0.809-0.198
	c0.199-0.135,0.299-0.321,0.299-0.558c0-0.17-0.066-0.305-0.197-0.404c-0.133-0.091-0.379-0.182-0.738-0.273l-0.924-0.229
	c-0.729-0.176-1.094-0.563-1.094-1.164c0-0.431,0.155-0.785,0.466-1.063c0.313-0.281,0.761-0.422,1.341-0.422
	c0.506,0,0.919,0.122,1.238,0.364c0.319,0.244,0.498,0.614,0.537,1.112h-0.778c-0.038-0.519-0.395-0.778-1.067-0.778
	c-0.64,0-0.959,0.225-0.959,0.673c0,0.196,0.075,0.334,0.225,0.413c0.149,0.076,0.358,0.146,0.629,0.211l0.781,0.197
	c0.478,0.123,0.816,0.277,1.016,0.462c0.202,0.193,0.303,0.457,0.303,0.791c0,0.463-0.165,0.839-0.496,1.13
	c-0.328,0.289-0.805,0.435-1.428,0.435c-0.578,0-1.041-0.122-1.389-0.364c-0.35-0.243-0.538-0.661-0.567-1.253H445.635z"/>
<path d="M450.262,101.263c0,0.492,0.111,0.876,0.334,1.151c0.226,0.272,0.563,0.409,1.011,0.409
	c0.319-0.003,0.598-0.094,0.835-0.273c0.24-0.181,0.383-0.396,0.426-0.646h0.778c-0.103,0.495-0.325,0.89-0.668,1.183
	c-0.343,0.289-0.793,0.435-1.349,0.435c-0.663,0-1.193-0.208-1.592-0.624c-0.395-0.416-0.593-1.017-0.593-1.802
	c0-0.759,0.193-1.378,0.58-1.858c0.39-0.484,0.935-0.726,1.635-0.726c0.659,0,1.16,0.228,1.503,0.681
	c0.346,0.452,0.527,1.142,0.545,2.07H450.262z M450.262,100.639h2.628c-0.056-0.524-0.19-0.894-0.404-1.107s-0.504-0.321-0.87-0.321
	c-0.387,0-0.703,0.133-0.949,0.396C450.42,99.868,450.285,100.211,450.262,100.639z"/>
<path d="M457.641,101.905c0.022,0.612,0.429,0.919,1.217,0.919c0.343,0,0.612-0.066,0.809-0.198
	c0.199-0.135,0.299-0.321,0.299-0.558c0-0.17-0.066-0.305-0.197-0.404c-0.133-0.091-0.379-0.182-0.738-0.273l-0.924-0.229
	c-0.729-0.176-1.094-0.563-1.094-1.164c0-0.431,0.155-0.785,0.466-1.063c0.313-0.281,0.761-0.422,1.341-0.422
	c0.506,0,0.919,0.122,1.238,0.364c0.319,0.244,0.498,0.614,0.537,1.112h-0.778c-0.038-0.519-0.395-0.778-1.067-0.778
	c-0.64,0-0.959,0.225-0.959,0.673c0,0.196,0.075,0.334,0.225,0.413c0.149,0.076,0.358,0.146,0.629,0.211l0.781,0.197
	c0.478,0.123,0.816,0.277,1.016,0.462c0.202,0.193,0.303,0.457,0.303,0.791c0,0.463-0.165,0.839-0.496,1.13
	c-0.328,0.289-0.805,0.435-1.428,0.435c-0.578,0-1.041-0.122-1.389-0.364c-0.35-0.243-0.538-0.661-0.567-1.253H457.641z"/>
<path d="M462.268,101.263c0,0.492,0.111,0.876,0.334,1.151c0.226,0.272,0.563,0.409,1.011,0.409
	c0.319-0.003,0.598-0.094,0.835-0.273c0.24-0.181,0.383-0.396,0.426-0.646h0.778c-0.103,0.495-0.325,0.89-0.668,1.183
	c-0.343,0.289-0.793,0.435-1.349,0.435c-0.663,0-1.193-0.208-1.592-0.624c-0.395-0.416-0.593-1.017-0.593-1.802
	c0-0.759,0.193-1.378,0.58-1.858c0.39-0.484,0.935-0.726,1.635-0.726c0.659,0,1.16,0.228,1.503,0.681
	c0.346,0.452,0.527,1.142,0.545,2.07H462.268z M462.268,100.639h2.628c-0.056-0.524-0.19-0.894-0.404-1.107s-0.504-0.321-0.87-0.321
	c-0.387,0-0.703,0.133-0.949,0.396C462.426,99.868,462.291,100.211,462.268,100.639z"/>
<path d="M466.223,99.321v-0.659h0.643v-1.336h0.791v1.336h0.773v0.659h-0.773v3.059c0,0.252,0.159,0.378,0.479,0.378h0.277v0.629
	c-0.297,0.04-0.518,0.061-0.664,0.061c-0.589,0-0.883-0.338-0.883-1.015v-3.111H466.223z"/>
<path d="M2.213,103.373v-6.469h2.609c0.841,0,1.5,0.284,1.979,0.853c0.477,0.568,0.716,1.347,0.716,2.333
	c0,0.959-0.24,1.745-0.721,2.36s-1.151,0.923-2.013,0.923H2.213z M3.087,102.608H4.77c0.542,0,0.984-0.202,1.328-0.606
	c0.345-0.404,0.518-1.044,0.518-1.92c0-0.766-0.165-1.358-0.496-1.78c-0.328-0.422-0.802-0.633-1.42-0.633H3.087V102.608z"/>
<path d="M8.593,96.913h0.791v0.905H8.593V96.913z M8.593,98.662h0.791v4.711H8.593V98.662z"/>
<path d="M11.164,101.263c0,0.492,0.111,0.876,0.334,1.151c0.226,0.272,0.563,0.409,1.011,0.409c0.319-0.003,0.598-0.094,0.835-0.273
	c0.24-0.181,0.383-0.396,0.426-0.646h0.778c-0.103,0.495-0.325,0.89-0.668,1.183c-0.343,0.289-0.793,0.435-1.349,0.435
	c-0.663,0-1.193-0.208-1.592-0.624c-0.395-0.416-0.593-1.017-0.593-1.802c0-0.759,0.193-1.378,0.58-1.858
	c0.39-0.484,0.935-0.726,1.635-0.726c0.659,0,1.16,0.228,1.503,0.681c0.346,0.452,0.527,1.142,0.545,2.07H11.164z M11.164,100.639
	h2.628c-0.056-0.524-0.19-0.894-0.404-1.107s-0.504-0.321-0.87-0.321c-0.387,0-0.703,0.133-0.949,0.396
	C11.322,99.868,11.188,100.211,11.164,100.639z"/>
<path d="M15.119,99.321v-0.659h0.643v-1.336h0.791v1.336h0.773v0.659h-0.773v3.059c0,0.252,0.159,0.378,0.479,0.378h0.277v0.629
	c-0.297,0.04-0.518,0.061-0.664,0.061c-0.589,0-0.883-0.338-0.883-1.015v-3.111H15.119z"/>
<path d="M18.072,98.662h0.742v0.694c0.401-0.563,0.881-0.844,1.438-0.844c0.548,0,0.958,0.258,1.23,0.773
	c0.39-0.516,0.853-0.773,1.389-0.773c0.434,0,0.788,0.138,1.063,0.413s0.413,0.67,0.413,1.182v3.266h-0.791V100.3
	c0-0.726-0.277-1.09-0.83-1.09c-0.294,0-0.555,0.115-0.783,0.344c-0.226,0.226-0.338,0.534-0.338,0.927v2.892h-0.791v-3.283
	c0-0.585-0.245-0.879-0.734-0.879c-0.354,0-0.646,0.136-0.874,0.404c-0.229,0.271-0.343,0.661-0.343,1.174v2.584h-0.791V98.662z"/>
<path d="M25.547,100.059c0.023-1.031,0.655-1.547,1.895-1.547c0.521,0,0.947,0.114,1.279,0.343c0.334,0.229,0.5,0.556,0.5,0.98
	v2.742c0,0.111,0.021,0.186,0.063,0.224c0.04,0.038,0.104,0.058,0.188,0.058c0.053,0,0.142-0.014,0.269-0.04v0.575
	c-0.193,0.059-0.347,0.088-0.457,0.088c-0.276,0-0.475-0.061-0.598-0.184c-0.121-0.123-0.189-0.305-0.207-0.545
	c-0.448,0.513-1.005,0.769-1.67,0.769c-0.396,0-0.744-0.116-1.046-0.347c-0.302-0.234-0.452-0.583-0.452-1.047
	c0-0.846,0.473-1.331,1.419-1.454l1.235-0.163c0.187-0.022,0.313-0.078,0.377-0.166c0.067-0.088,0.102-0.222,0.102-0.4
	c0-0.516-0.359-0.773-1.076-0.773c-0.369,0-0.632,0.074-0.787,0.225c-0.155,0.148-0.257,0.37-0.303,0.663H25.547z M28.43,100.968
	c-0.12,0.095-0.366,0.169-0.738,0.225c-0.372,0.053-0.561,0.079-0.566,0.079c-0.665,0.091-0.998,0.354-0.998,0.791
	c0,0.533,0.284,0.8,0.854,0.8c0.374,0,0.71-0.105,1.006-0.316s0.443-0.478,0.443-0.8V100.968z"/>
<path d="M30.688,103.373v-4.711h0.743v0.787c0.216-0.361,0.426-0.607,0.628-0.738c0.205-0.133,0.438-0.198,0.698-0.198
	c0.053,0,0.119,0.011,0.198,0.03v0.813h-0.299c-0.349,0-0.633,0.125-0.853,0.374c-0.217,0.249-0.325,0.548-0.325,0.896v2.746H30.688
	z"/>
<path d="M36.187,96.904h0.874v2.672h3.345v-2.672h0.874v6.469h-0.874v-3.032h-3.345v3.032h-0.874V96.904z"/>
<path d="M42.551,100.059c0.022-1.031,0.654-1.547,1.894-1.547c0.521,0,0.947,0.114,1.278,0.343c0.334,0.229,0.502,0.556,0.502,0.98
	v2.742c0,0.111,0.02,0.186,0.061,0.224s0.104,0.058,0.189,0.058c0.053,0,0.142-0.014,0.268-0.04v0.575
	c-0.193,0.059-0.346,0.088-0.457,0.088c-0.275,0-0.475-0.061-0.598-0.184c-0.12-0.123-0.188-0.305-0.206-0.545
	c-0.448,0.513-1.005,0.769-1.67,0.769c-0.396,0-0.744-0.116-1.046-0.347c-0.302-0.234-0.453-0.583-0.453-1.047
	c0-0.846,0.474-1.331,1.42-1.454l1.234-0.163c0.188-0.022,0.313-0.078,0.379-0.166c0.066-0.088,0.101-0.222,0.101-0.4
	c0-0.516-0.359-0.773-1.077-0.773c-0.369,0-0.631,0.074-0.786,0.225c-0.155,0.148-0.257,0.37-0.304,0.663H42.551z M45.434,100.968
	c-0.121,0.095-0.367,0.169-0.738,0.225c-0.373,0.053-0.562,0.079-0.567,0.079c-0.665,0.091-0.997,0.354-0.997,0.791
	c0,0.533,0.283,0.8,0.852,0.8c0.375,0,0.711-0.105,1.007-0.316s0.444-0.478,0.444-0.8V100.968z"/>
<path d="M47.578,96.904h0.791v2.382c0.354-0.516,0.835-0.773,1.441-0.773c0.504,0,0.894,0.149,1.169,0.448
	c0.275,0.296,0.413,0.697,0.413,1.204v3.208h-0.791v-3.107c0-0.389-0.076-0.661-0.229-0.816c-0.152-0.158-0.384-0.238-0.694-0.238
	c-0.413,0-0.735,0.134-0.967,0.4c-0.229,0.264-0.343,0.656-0.343,1.178v2.584h-0.791V96.904z"/>
<path d="M52.584,98.662h0.742v0.694c0.401-0.563,0.881-0.844,1.438-0.844c0.548,0,0.958,0.258,1.23,0.773
	c0.39-0.516,0.853-0.773,1.389-0.773c0.434,0,0.788,0.138,1.063,0.413s0.413,0.67,0.413,1.182v3.266h-0.791V100.3
	c0-0.726-0.277-1.09-0.83-1.09c-0.294,0-0.555,0.115-0.783,0.344c-0.226,0.226-0.338,0.534-0.338,0.927v2.892h-0.791v-3.283
	c0-0.585-0.245-0.879-0.734-0.879c-0.354,0-0.646,0.136-0.874,0.404c-0.229,0.271-0.343,0.661-0.343,1.174v2.584h-0.791V98.662z"/>
<line fill="none" stroke="#000000" stroke-width="1.1019" stroke-miterlimit="10" x1="287.935" y1="26.103" x2="287.935" y2="91.48"/>
<line fill="none" stroke="#000000" stroke-width="0.5528" stroke-miterlimit="10" stroke-dasharray="1.4173" x1="153.341" y1="25.987" x2="153.341" y2="91.806"/>
<line fill="none" stroke="#000000" stroke-width="0.5528" stroke-miterlimit="10" stroke-dasharray="1.4173" x1="357.424" y1="25.988" x2="357.424" y2="91.806"/>
<path d="M107.96,74.656c0.222-0.357,0.648-0.768,1.281-1.234c0.523-0.383,0.852-0.672,0.983-0.868
	c0.133-0.196,0.198-0.397,0.198-0.606c0-0.233-0.067-0.432-0.202-0.596c-0.132-0.166-0.332-0.25-0.599-0.25
	c-0.291,0-0.495,0.092-0.611,0.273c-0.116,0.184-0.175,0.451-0.175,0.806h-1.139v-0.167c0-0.502,0.158-0.938,0.473-1.309
	c0.317-0.37,0.789-0.556,1.416-0.556c0.55,0,1.018,0.156,1.4,0.468c0.384,0.311,0.575,0.754,0.575,1.334
	c0,0.394-0.095,0.737-0.285,1.031c-0.188,0.291-0.561,0.629-1.119,1.016c-0.61,0.423-0.975,0.726-1.091,0.908h2.495v1.012h-3.936
	C107.626,75.433,107.738,75.013,107.96,74.656z"/>
<path d="M140.682,43.917c0.021,0.661,0.299,0.992,0.833,0.992c0.257,0,0.465-0.079,0.623-0.238c0.159-0.159,0.238-0.385,0.238-0.679
	c0-0.286-0.102-0.493-0.306-0.623c-0.201-0.132-0.535-0.199-1.004-0.199v-0.809h0.183c0.632,0,0.948-0.251,0.948-0.754
	c0-0.225-0.066-0.407-0.198-0.547c-0.132-0.143-0.316-0.214-0.552-0.214c-0.519,0-0.78,0.31-0.785,0.928h-1.031
	c0-0.568,0.162-1.017,0.487-1.345c0.328-0.331,0.791-0.496,1.389-0.496c0.548,0,0.992,0.141,1.333,0.421
	c0.342,0.28,0.512,0.667,0.512,1.158c0,0.516-0.236,0.894-0.71,1.135c0.593,0.243,0.889,0.69,0.889,1.341
	c0,0.537-0.183,0.978-0.547,1.321c-0.363,0.341-0.85,0.512-1.46,0.512c-0.641,0-1.123-0.162-1.448-0.484
	c-0.325-0.326-0.503-0.799-0.532-1.42H140.682z"/>
<path d="M140.682,74.132c0.021,0.661,0.299,0.992,0.833,0.992c0.257,0,0.465-0.08,0.623-0.238c0.159-0.158,0.238-0.385,0.238-0.679
	c0-0.286-0.102-0.493-0.306-0.622c-0.201-0.133-0.535-0.199-1.004-0.199v-0.809h0.183c0.632,0,0.948-0.252,0.948-0.754
	c0-0.225-0.066-0.408-0.198-0.548c-0.132-0.144-0.316-0.214-0.552-0.214c-0.519,0-0.78,0.309-0.785,0.928h-1.031
	c0-0.568,0.162-1.017,0.487-1.345c0.328-0.331,0.791-0.496,1.389-0.496c0.548,0,0.992,0.141,1.333,0.421
	c0.342,0.28,0.512,0.666,0.512,1.158c0,0.516-0.236,0.895-0.71,1.135c0.593,0.243,0.889,0.69,0.889,1.341
	c0,0.537-0.183,0.978-0.547,1.321c-0.363,0.341-0.85,0.512-1.46,0.512c-0.641,0-1.123-0.162-1.448-0.484
	c-0.325-0.325-0.503-0.799-0.532-1.42H140.682z"/>
<path d="M107.96,44.44c0.222-0.357,0.648-0.768,1.281-1.234c0.523-0.383,0.852-0.673,0.983-0.869
	c0.133-0.196,0.198-0.398,0.198-0.607c0-0.233-0.067-0.431-0.202-0.595c-0.132-0.167-0.332-0.25-0.599-0.25
	c-0.291,0-0.495,0.091-0.611,0.274s-0.175,0.451-0.175,0.805h-1.139v-0.167c0-0.502,0.158-0.939,0.473-1.309
	c0.317-0.37,0.789-0.556,1.416-0.556c0.55,0,1.018,0.156,1.4,0.468c0.384,0.31,0.575,0.754,0.575,1.333
	c0,0.394-0.095,0.738-0.285,1.032c-0.188,0.291-0.561,0.629-1.119,1.016c-0.61,0.423-0.975,0.726-1.091,0.908h2.495v1.012h-3.936
	C107.626,45.218,107.738,44.797,107.96,44.44z"/>
<path fill="none" stroke="#000000" stroke-width="0.4514" stroke-miterlimit="10" d="M130.594,72.945
	c0,2.244-1.82,4.063-4.063,4.063s-4.063-1.819-4.063-4.063c0-2.242,1.82-4.062,4.063-4.062S130.594,70.703,130.594,72.945
	L130.594,72.945z"/>
<path d="M124.772,71.179c0.568,0,0.97-0.094,1.202-0.281s0.363-0.421,0.393-0.699h0.94v5.77h-1.139v-3.992h-1.396V71.179z"/>
<rect x="122.469" y="38.572" fill="none" stroke="#000000" stroke-width="0.4514" stroke-miterlimit="10" width="8.125" height="8.125"/>
<path d="M124.829,41.06c0.568,0,0.97-0.094,1.202-0.282c0.232-0.188,0.363-0.42,0.393-0.698h0.94v5.769h-1.139v-3.991h-1.396V41.06z
	"/>
<path fill="none" stroke="#000000" stroke-width="0.5584" stroke-miterlimit="10" d="M126.387,80.148
	c-0.083,7.25-20.416,5.917-26.083,1.25c-4.962-4.086-5.196-12.932,0.167-17c7.25-5.5,17.25-4.75,28.833-5"/>
<line fill="none" stroke="#000000" stroke-width="0.5584" stroke-miterlimit="10" stroke-dasharray="1.474" x1="126.722" y1="47.898" x2="126.722" y2="68.148"/>
<path fill-rule="evenodd" clip-rule="evenodd" fill="none" stroke="#000000" stroke-width="0.5584" stroke-miterlimit="10" stroke-dasharray="1.4879" d="
	M97.177,68.273c-0.706-3.625-0.104-10.136,4.044-9.375"/>
<polygon fill-rule="evenodd" clip-rule="evenodd" stroke="#000000" stroke-width="0.2786" stroke-miterlimit="10" points="
	129.131,60.607 133.618,59.564 129.169,58.375 129.131,60.607 "/>
<polygon fill-rule="evenodd" clip-rule="evenodd" stroke="#000000" stroke-width="0.2786" stroke-miterlimit="10" points="
	99.717,60.167 104.125,58.83 99.607,57.937 99.717,60.167 "/>
<path fill="none" stroke="#000000" stroke-width="0.5572" stroke-linejoin="bevel" stroke-miterlimit="10" d="M250.788,67.082
	c0,3.691-2.996,6.688-6.688,6.688c-3.689,0-6.686-2.996-6.686-6.688c0-3.689,2.996-6.686,6.686-6.686
	C247.792,60.396,250.788,63.392,250.788,67.082L250.788,67.082z M250.788,53.708c0,3.69-2.996,6.687-6.688,6.687
	c-3.689,0-6.686-2.996-6.686-6.687c0-3.689,2.996-6.686,6.686-6.686C247.792,47.022,250.788,50.018,250.788,53.708L250.788,53.708z"
	/>
<line fill="none" stroke="#000000" stroke-width="0.5572" stroke-miterlimit="10" x1="242.151" y1="60.599" x2="230.45" y2="53.914"/>
<path fill-rule="evenodd" clip-rule="evenodd" stroke="#000000" stroke-width="0.2786" stroke-miterlimit="10" d="M266.867,81.544
	c0.472,0,0.854,0.383,0.854,0.854c0,0.473-0.383,0.855-0.854,0.855s-0.854-0.383-0.854-0.855
	C266.013,81.927,266.396,81.544,266.867,81.544L266.867,81.544z"/>
<path fill="none" stroke="#000000" stroke-width="0.5572" stroke-miterlimit="10" d="M266.938,79.943
	c1.395,0,2.526,1.133,2.526,2.525c0,1.396-1.132,2.527-2.526,2.527c-1.394,0-2.525-1.131-2.525-2.527
	C264.412,81.076,265.544,79.943,266.938,79.943L266.938,79.943z"/>
<path fill="none" stroke="#000000" stroke-width="0.5572" stroke-linejoin="bevel" stroke-miterlimit="10" d="M273.955,67.416
	c0,3.691-2.996,6.688-6.688,6.688c-3.689,0-6.686-2.996-6.686-6.688c0-3.689,2.996-6.686,6.686-6.686
	C270.959,60.73,273.955,63.726,273.955,67.416L273.955,67.416z M273.955,54.041c0,3.691-2.996,6.687-6.688,6.687
	c-3.689,0-6.686-2.996-6.686-6.687c0-3.689,2.996-6.686,6.686-6.686C270.959,47.355,273.955,50.352,273.955,54.041L273.955,54.041z"
	/>
<line fill="none" stroke="#000000" stroke-width="0.5572" stroke-miterlimit="10" x1="265.317" y1="60.933" x2="253.616" y2="54.247"/>
<polyline fill="none" stroke="#000000" stroke-width="0.4252" stroke-linejoin="bevel" stroke-miterlimit="10" points="
	228.722,38.398 228.722,33.898 255.306,33.898 276.889,33.898 276.889,38.398 "/>
<path d="M299.96,71.802c0.223-0.357,0.648-0.768,1.281-1.234c0.523-0.383,0.852-0.672,0.984-0.868s0.197-0.397,0.197-0.606
	c0-0.233-0.066-0.432-0.201-0.596c-0.133-0.166-0.332-0.25-0.6-0.25c-0.291,0-0.494,0.092-0.611,0.273
	c-0.115,0.184-0.174,0.451-0.174,0.806h-1.139V69.16c0-0.502,0.158-0.938,0.473-1.309c0.316-0.37,0.789-0.556,1.416-0.556
	c0.549,0,1.018,0.156,1.4,0.468c0.383,0.311,0.574,0.754,0.574,1.334c0,0.394-0.094,0.737-0.285,1.031
	c-0.188,0.291-0.561,0.629-1.119,1.016c-0.609,0.423-0.975,0.726-1.09,0.908h2.494v1.012h-3.936
	C299.626,72.58,299.737,72.16,299.96,71.802z"/>
<path d="M332.683,41.063c0.021,0.661,0.299,0.992,0.832,0.992c0.258,0,0.465-0.079,0.623-0.238c0.16-0.159,0.238-0.385,0.238-0.679
	c0-0.286-0.102-0.493-0.305-0.623c-0.201-0.132-0.535-0.199-1.004-0.199v-0.809h0.182c0.633,0,0.949-0.251,0.949-0.754
	c0-0.225-0.066-0.407-0.199-0.547c-0.131-0.143-0.316-0.214-0.551-0.214c-0.52,0-0.781,0.31-0.785,0.928h-1.031
	c0-0.568,0.162-1.017,0.486-1.345c0.328-0.331,0.791-0.496,1.389-0.496c0.549,0,0.992,0.141,1.334,0.421s0.512,0.667,0.512,1.158
	c0,0.516-0.236,0.894-0.711,1.135c0.594,0.243,0.889,0.69,0.889,1.341c0,0.537-0.182,0.978-0.547,1.321
	c-0.363,0.341-0.85,0.512-1.459,0.512c-0.641,0-1.123-0.162-1.449-0.484c-0.324-0.326-0.502-0.799-0.531-1.42H332.683z"/>
<path d="M332.683,71.279c0.021,0.661,0.299,0.992,0.832,0.992c0.258,0,0.465-0.08,0.623-0.238c0.16-0.158,0.238-0.385,0.238-0.679
	c0-0.286-0.102-0.493-0.305-0.622c-0.201-0.133-0.535-0.199-1.004-0.199v-0.809h0.182c0.633,0,0.949-0.252,0.949-0.754
	c0-0.225-0.066-0.408-0.199-0.548c-0.131-0.144-0.316-0.214-0.551-0.214c-0.52,0-0.781,0.309-0.785,0.928h-1.031
	c0-0.568,0.162-1.017,0.486-1.345c0.328-0.331,0.791-0.496,1.389-0.496c0.549,0,0.992,0.141,1.334,0.421s0.512,0.666,0.512,1.158
	c0,0.516-0.236,0.895-0.711,1.135c0.594,0.243,0.889,0.69,0.889,1.341c0,0.537-0.182,0.978-0.547,1.321
	c-0.363,0.341-0.85,0.512-1.459,0.512c-0.641,0-1.123-0.162-1.449-0.484c-0.324-0.325-0.502-0.799-0.531-1.42H332.683z"/>
<path d="M299.96,41.586c0.223-0.357,0.648-0.768,1.281-1.234c0.523-0.383,0.852-0.673,0.984-0.869s0.197-0.398,0.197-0.607
	c0-0.233-0.066-0.431-0.201-0.595c-0.133-0.167-0.332-0.25-0.6-0.25c-0.291,0-0.494,0.091-0.611,0.274
	c-0.115,0.183-0.174,0.451-0.174,0.805h-1.139v-0.167c0-0.502,0.158-0.939,0.473-1.309c0.316-0.37,0.789-0.556,1.416-0.556
	c0.549,0,1.018,0.156,1.4,0.468c0.383,0.31,0.574,0.754,0.574,1.333c0,0.394-0.094,0.738-0.285,1.032
	c-0.188,0.291-0.561,0.629-1.119,1.016c-0.609,0.423-0.975,0.726-1.09,0.908h2.494v1.012h-3.936
	C299.626,42.364,299.737,41.944,299.96,41.586z"/>
<path fill="none" stroke="#000000" stroke-width="0.4514" stroke-miterlimit="10" d="M336.844,55.591
	c0,2.244-1.82,4.063-4.063,4.063s-4.063-1.819-4.063-4.063c0-2.242,1.82-4.062,4.063-4.062S336.844,53.35,336.844,55.591
	L336.844,55.591z"/>
<path d="M331.022,53.826c0.568,0,0.969-0.094,1.201-0.282c0.232-0.188,0.363-0.42,0.393-0.698h0.941v5.769h-1.139v-3.992h-1.396
	V53.826z"/>
<rect x="298.469" y="51.968" fill="none" stroke="#000000" stroke-width="0.4514" stroke-miterlimit="10" width="8.125" height="8.125"/>
<path d="M300.829,54.456c0.568,0,0.969-0.094,1.201-0.282c0.232-0.188,0.363-0.42,0.393-0.698h0.941v5.769h-1.139v-3.991h-1.396
	V54.456z"/>
<line fill="none" stroke="#000000" stroke-width="0.5584" stroke-miterlimit="10" x1="318.722" y1="45.044" x2="318.722" y2="71.773"/>
<polygon fill-rule="evenodd" clip-rule="evenodd" stroke="#000000" stroke-width="0.2786" stroke-miterlimit="10" points="
	319.866,77.707 318.72,73.246 317.633,77.72 319.866,77.707 "/>
<polygon fill-rule="evenodd" clip-rule="evenodd" stroke="#000000" stroke-width="0.2786" stroke-miterlimit="10" points="
	319.819,44.899 318.766,40.415 317.587,44.867 319.819,44.899 "/>
<line fill="none" stroke="#000000" stroke-width="0.4514" stroke-miterlimit="10" x1="336.722" y1="55.398" x2="338.565" y2="55.906"/>
<line fill="none" stroke="#000000" stroke-width="0.4514" stroke-miterlimit="10" x1="309.134" y1="55.631" x2="307.222" y2="55.648"/>
<path d="M7.709,51.755h9.383v2.016h-3.5v9.484h-2.383v-9.484h-3.5V51.755z"/>
<path d="M22.911,66.612h-1.655c-0.101-0.388-0.155-0.813-0.161-1.274l-0.01-0.537c-0.006-0.358-0.086-0.613-0.239-0.767
	s-0.464-0.229-0.933-0.229h-1.572v2.808h-1.489v-7.188h3.667c0.69,0,1.242,0.188,1.655,0.562c0.414,0.371,0.62,0.874,0.62,1.509
	c0,0.811-0.373,1.374-1.118,1.689c0.404,0.159,0.656,0.379,0.757,0.659s0.151,0.718,0.151,1.313v0.288
	c0,0.273,0.018,0.491,0.054,0.654c0.039,0.159,0.13,0.266,0.273,0.317V66.612z M21.28,61.641c0-0.638-0.352-0.957-1.055-0.957
	h-1.885v1.919h1.768C20.89,62.603,21.28,62.283,21.28,61.641z"/>
<path d="M60.709,53.005h9.383v2.016h-3.5v9.484h-2.383v-9.484h-3.5V53.005z"/>
<path d="M69.852,60.674h1.489v5.928h3.594v1.26h-5.083V60.674z"/>
<path d="M170.96,75.156c0.222-0.357,0.648-0.768,1.281-1.234c0.523-0.383,0.852-0.672,0.983-0.868
	c0.133-0.196,0.198-0.397,0.198-0.606c0-0.233-0.067-0.432-0.202-0.596c-0.132-0.166-0.332-0.25-0.599-0.25
	c-0.291,0-0.495,0.092-0.611,0.273c-0.116,0.184-0.175,0.451-0.175,0.806h-1.139v-0.167c0-0.502,0.158-0.938,0.473-1.309
	c0.317-0.37,0.789-0.556,1.416-0.556c0.55,0,1.018,0.156,1.4,0.468c0.384,0.311,0.575,0.754,0.575,1.334
	c0,0.394-0.095,0.737-0.285,1.031c-0.188,0.291-0.561,0.629-1.119,1.016c-0.61,0.423-0.975,0.726-1.091,0.908h2.495v1.012h-3.936
	C170.626,75.933,170.738,75.513,170.96,75.156z"/>
<path d="M203.682,44.417c0.021,0.661,0.299,0.992,0.833,0.992c0.257,0,0.465-0.079,0.623-0.238c0.159-0.159,0.238-0.385,0.238-0.679
	c0-0.286-0.102-0.493-0.306-0.623c-0.201-0.132-0.535-0.199-1.004-0.199v-0.809h0.183c0.632,0,0.948-0.251,0.948-0.754
	c0-0.225-0.066-0.407-0.198-0.547c-0.132-0.143-0.316-0.214-0.552-0.214c-0.519,0-0.78,0.31-0.785,0.928h-1.031
	c0-0.568,0.162-1.017,0.487-1.345c0.328-0.331,0.791-0.496,1.389-0.496c0.548,0,0.992,0.141,1.333,0.421
	c0.342,0.28,0.512,0.667,0.512,1.158c0,0.516-0.236,0.894-0.71,1.135c0.593,0.243,0.889,0.69,0.889,1.341
	c0,0.537-0.183,0.978-0.547,1.321c-0.363,0.341-0.85,0.512-1.46,0.512c-0.641,0-1.123-0.162-1.448-0.484
	c-0.325-0.326-0.503-0.799-0.532-1.42H203.682z"/>
<path d="M203.682,74.632c0.021,0.661,0.299,0.992,0.833,0.992c0.257,0,0.465-0.08,0.623-0.238c0.159-0.158,0.238-0.385,0.238-0.679
	c0-0.286-0.102-0.493-0.306-0.622c-0.201-0.133-0.535-0.199-1.004-0.199v-0.809h0.183c0.632,0,0.948-0.252,0.948-0.754
	c0-0.225-0.066-0.408-0.198-0.548c-0.132-0.144-0.316-0.214-0.552-0.214c-0.519,0-0.78,0.309-0.785,0.928h-1.031
	c0-0.568,0.162-1.017,0.487-1.345c0.328-0.331,0.791-0.496,1.389-0.496c0.548,0,0.992,0.141,1.333,0.421
	c0.342,0.28,0.512,0.666,0.512,1.158c0,0.516-0.236,0.895-0.71,1.135c0.593,0.243,0.889,0.69,0.889,1.341
	c0,0.537-0.183,0.978-0.547,1.321c-0.363,0.341-0.85,0.512-1.46,0.512c-0.641,0-1.123-0.162-1.448-0.484
	c-0.325-0.325-0.503-0.799-0.532-1.42H203.682z"/>
<path d="M170.96,44.94c0.222-0.357,0.648-0.768,1.281-1.234c0.523-0.383,0.852-0.673,0.983-0.869
	c0.133-0.196,0.198-0.398,0.198-0.607c0-0.233-0.067-0.431-0.202-0.595c-0.132-0.167-0.332-0.25-0.599-0.25
	c-0.291,0-0.495,0.091-0.611,0.274s-0.175,0.451-0.175,0.805h-1.139v-0.167c0-0.502,0.158-0.939,0.473-1.309
	c0.317-0.37,0.789-0.556,1.416-0.556c0.55,0,1.018,0.156,1.4,0.468c0.384,0.31,0.575,0.754,0.575,1.333
	c0,0.394-0.095,0.738-0.285,1.032c-0.188,0.291-0.561,0.629-1.119,1.016c-0.61,0.423-0.975,0.726-1.091,0.908h2.495v1.012h-3.936
	C170.626,45.718,170.738,45.297,170.96,44.94z"/>
<path fill="none" stroke="#000000" stroke-width="0.4514" stroke-miterlimit="10" d="M199.844,58.695
	c0,2.244-1.82,4.063-4.063,4.063s-4.063-1.819-4.063-4.063c0-2.242,1.82-4.062,4.063-4.062S199.844,56.453,199.844,58.695
	L199.844,58.695z"/>
<path d="M194.022,56.929c0.568,0,0.97-0.094,1.202-0.282c0.232-0.188,0.363-0.42,0.393-0.698h0.94v5.769h-1.139v-3.992h-1.396
	V56.929z"/>
<rect x="162.719" y="54.322" fill="none" stroke="#000000" stroke-width="0.4514" stroke-miterlimit="10" width="8.125" height="8.125"/>
<path d="M165.079,56.81c0.568,0,0.97-0.094,1.202-0.282c0.232-0.188,0.363-0.42,0.393-0.698h0.94v5.769h-1.139v-3.991h-1.396V56.81z
	"/>
<path d="M178.897,62.177c0.067,1.261,0.891,1.891,2.469,1.891c1.521,0,2.281-0.487,2.281-1.461c0-0.62-0.534-1.06-1.602-1.32
	l-2.82-0.719c-0.865-0.208-1.5-0.56-1.906-1.055s-0.609-1.153-0.609-1.977c0-1.052,0.377-1.911,1.133-2.578
	c0.755-0.667,1.846-1,3.273-1c1.313,0,2.364,0.32,3.156,0.961c0.792,0.641,1.229,1.57,1.313,2.789h-2.313
	c-0.172-1.177-0.938-1.766-2.297-1.766c-0.62,0-1.115,0.12-1.484,0.359c-0.365,0.239-0.547,0.567-0.547,0.984
	c0,0.302,0.094,0.555,0.281,0.758c0.192,0.203,0.5,0.356,0.922,0.461l2.797,0.688c1.151,0.276,1.94,0.664,2.367,1.164
	c0.432,0.5,0.648,1.153,0.648,1.961c0,1.109-0.396,2.011-1.188,2.703c-0.787,0.688-1.93,1.031-3.43,1.031
	c-1.401,0-2.544-0.328-3.43-0.984c-0.886-0.661-1.328-1.625-1.328-2.891H178.897z"/>
<path d="M187.259,67.559c0.273-0.439,0.799-0.945,1.577-1.519c0.645-0.472,1.048-0.828,1.211-1.069s0.244-0.49,0.244-0.747
	c0-0.286-0.083-0.53-0.249-0.732c-0.163-0.205-0.409-0.308-0.737-0.308c-0.358,0-0.609,0.112-0.752,0.337s-0.215,0.555-0.215,0.991
	h-1.401v-0.205c0-0.618,0.194-1.155,0.581-1.611c0.391-0.456,0.972-0.684,1.743-0.684c0.677,0,1.251,0.192,1.724,0.576
	c0.472,0.381,0.708,0.928,0.708,1.641c0,0.485-0.117,0.908-0.352,1.27c-0.231,0.358-0.69,0.774-1.377,1.25
	c-0.752,0.521-1.2,0.894-1.343,1.118h3.071v1.245h-4.844C186.849,68.516,186.985,67.999,187.259,67.559z"/>
<rect x="168.719" y="39.572" fill="none" stroke="#000000" stroke-width="0.4514" stroke-miterlimit="10" width="8.125" height="8.125"/>
<rect x="200.469" y="39.572" fill="none" stroke="#000000" stroke-width="0.4514" stroke-miterlimit="10" width="8.125" height="8.125"/>
<path fill="none" stroke="#000000" stroke-width="0.4514" stroke-miterlimit="10" d="M176.594,73.945
	c0,2.244-1.82,4.063-4.063,4.063s-4.063-1.819-4.063-4.063c0-2.242,1.82-4.062,4.063-4.062S176.594,71.703,176.594,73.945
	L176.594,73.945z"/>
<path fill="none" stroke="#000000" stroke-width="0.4514" stroke-miterlimit="10" d="M208.594,73.945
	c0,2.244-1.82,4.063-4.063,4.063s-4.063-1.819-4.063-4.063c0-2.242,1.82-4.062,4.063-4.062S208.594,71.703,208.594,73.945
	L208.594,73.945z"/>
<line fill="none" stroke="#000000" stroke-width="0.558" stroke-miterlimit="10" x1="172.638" y1="47.815" x2="166.555" y2="54.398"/>
<line fill="none" stroke="#000000" stroke-width="0.558" stroke-miterlimit="10" x1="197.421" y1="62.482" x2="203.995" y2="69.742"/>
<line fill="none" stroke="#000000" stroke-width="0.558" stroke-miterlimit="10" x1="167.087" y1="62.482" x2="172.139" y2="69.898"/>
<line fill="none" stroke="#000000" stroke-width="1.1019" stroke-miterlimit="10" x1="219.27" y1="26.104" x2="219.27" y2="91.481"/>
<line fill="none" stroke="#000000" stroke-width="0.4514" stroke-miterlimit="10" x1="202.134" y1="58.13" x2="200.222" y2="58.148"/>
<line fill="none" stroke="#000000" stroke-width="0.4514" stroke-miterlimit="10" x1="173.222" y1="58.148" x2="171.31" y2="58.166"/>
<line fill="none" stroke="#000000" stroke-width="0.4514" stroke-miterlimit="10" x1="169.134" y1="43.631" x2="167.222" y2="43.648"/>
<line fill="none" stroke="#000000" stroke-width="0.4514" stroke-miterlimit="10" x1="167.884" y1="74.13" x2="165.972" y2="74.148"/>
<line fill="none" stroke="#000000" stroke-width="0.4514" stroke-miterlimit="10" x1="200.384" y1="43.881" x2="198.472" y2="43.898"/>
<line fill="none" stroke="#000000" stroke-width="0.4514" stroke-miterlimit="10" x1="200.884" y1="74.38" x2="198.972" y2="74.398"/>
<path d="M367.71,52.422h9.383v2.016h-3.5v9.484h-2.383v-9.484h-3.5V52.422z"/>
<path d="M382.912,67.279h-1.655c-0.102-0.388-0.154-0.813-0.161-1.274l-0.01-0.537c-0.007-0.358-0.087-0.613-0.239-0.767
	s-0.464-0.229-0.933-0.229h-1.572v2.808h-1.489v-7.188h3.667c0.69,0,1.241,0.188,1.655,0.562c0.414,0.371,0.62,0.874,0.62,1.509
	c0,0.811-0.372,1.374-1.118,1.689c0.404,0.159,0.656,0.379,0.757,0.659s0.151,0.718,0.151,1.313v0.288
	c0,0.273,0.018,0.491,0.054,0.654c0.039,0.159,0.13,0.266,0.273,0.317V67.279z M381.281,62.308c0-0.638-0.352-0.957-1.055-0.957
	h-1.885v1.919h1.768C380.891,63.27,381.281,62.95,381.281,62.308z"/>
<path d="M383.933,61.385c0.699,0,1.193-0.115,1.479-0.347s0.448-0.518,0.483-0.859h1.157v7.1h-1.401v-4.912h-1.719V61.385z"/>
<path d="M389.104,60.863h0.127c0.696,0,1.072-0.234,1.128-0.703h0.85v4.307h-1.011v-2.979h-1.094V60.863z M390.212,67.425
	l4.292-7.246h0.786l-4.292,7.246H390.212z M394.011,66.19c0.225-0.271,0.515-0.52,0.869-0.747c0.332-0.215,0.569-0.4,0.713-0.557
	c0.146-0.159,0.22-0.366,0.22-0.62c0-0.13-0.056-0.242-0.166-0.337s-0.251-0.142-0.42-0.142c-0.41,0-0.625,0.229-0.645,0.688h-0.884
	c0-0.442,0.119-0.801,0.356-1.074s0.623-0.41,1.157-0.41c0.476,0,0.854,0.129,1.138,0.386c0.283,0.254,0.425,0.583,0.425,0.986
	c0,0.3-0.071,0.557-0.215,0.771s-0.342,0.41-0.596,0.586c-0.257,0.176-0.471,0.322-0.64,0.439c-0.166,0.114-0.293,0.22-0.381,0.317
	h1.846v0.82h-3.14C393.669,66.827,393.789,66.457,394.011,66.19z"/>
<path d="M407.044,52.755h9.383v2.016h-3.5v9.484h-2.383v-9.484h-3.5V52.755z"/>
<path d="M422.245,67.612h-1.655c-0.101-0.388-0.155-0.813-0.161-1.274l-0.01-0.537c-0.006-0.358-0.086-0.613-0.239-0.767
	s-0.464-0.229-0.933-0.229h-1.572v2.808h-1.489v-7.188h3.667c0.689,0,1.242,0.188,1.655,0.562c0.413,0.371,0.62,0.874,0.62,1.509
	c0,0.811-0.373,1.374-1.118,1.689c0.403,0.159,0.655,0.379,0.757,0.659s0.151,0.718,0.151,1.313v0.288
	c0,0.273,0.019,0.491,0.054,0.654c0.039,0.159,0.131,0.266,0.273,0.317V67.612z M420.614,62.641c0-0.638-0.352-0.957-1.055-0.957
	h-1.885v1.919h1.768C420.224,63.603,420.614,63.283,420.614,62.641z"/>
<polyline fill="none" stroke="#000000" stroke-width="0.4252" stroke-linejoin="bevel" stroke-miterlimit="10" points="
	364.722,38.398 364.722,33.898 394.306,33.898 423.889,33.898 423.889,38.398 "/>
<path d="M407.097,41.064c0.273-0.441,0.801-0.949,1.582-1.523c0.646-0.473,1.051-0.831,1.213-1.072
	c0.164-0.242,0.246-0.491,0.246-0.749c0-0.288-0.084-0.532-0.25-0.735c-0.164-0.206-0.41-0.309-0.74-0.309
	c-0.359,0-0.609,0.113-0.754,0.338c-0.143,0.226-0.215,0.557-0.215,0.994h-1.406v-0.206c0-0.62,0.195-1.159,0.584-1.616
	c0.391-0.457,0.975-0.686,1.748-0.686c0.678,0,1.254,0.193,1.729,0.578c0.473,0.382,0.709,0.93,0.709,1.646
	c0,0.486-0.117,0.911-0.352,1.273c-0.232,0.359-0.691,0.777-1.381,1.254c-0.754,0.522-1.203,0.896-1.348,1.121h3.08v1.249h-4.857
	C406.685,42.024,406.821,41.505,407.097,41.064z"/>
<path d="M416.454,40.418c0.027,0.816,0.369,1.224,1.029,1.224c0.316,0,0.572-0.098,0.768-0.294c0.197-0.196,0.295-0.475,0.295-0.837
	c0-0.353-0.125-0.609-0.377-0.769c-0.248-0.164-0.662-0.245-1.24-0.245v-0.999h0.227c0.779,0,1.17-0.31,1.17-0.93
	c0-0.278-0.082-0.503-0.244-0.676c-0.164-0.177-0.391-0.265-0.682-0.265c-0.639,0-0.963,0.382-0.969,1.146h-1.273
	c0-0.702,0.201-1.255,0.602-1.66c0.404-0.408,0.977-0.612,1.715-0.612c0.676,0,1.225,0.173,1.645,0.519
	c0.422,0.346,0.633,0.823,0.633,1.43c0,0.637-0.293,1.104-0.877,1.4c0.73,0.301,1.098,0.852,1.098,1.655
	c0,0.663-0.227,1.207-0.676,1.631c-0.449,0.421-1.049,0.632-1.803,0.632c-0.791,0-1.387-0.199-1.787-0.598
	c-0.402-0.401-0.621-0.986-0.656-1.753H416.454z"/>
<path d="M378.048,36.71c0.701,0,1.195-0.116,1.482-0.348c0.287-0.231,0.449-0.519,0.486-0.862h1.16v7.121h-1.406v-4.927h-1.723
	V36.71z"/>
<path fill="none" stroke="#000000" stroke-width="0.5584" stroke-miterlimit="10" d="M318.65,77.294
	c0.083,7.25,19.821,8.354,26.665,0.854c4.332-4.748,3.156-18-3.594-20.75"/>
<line fill="none" stroke="#000000" stroke-width="0.5528" stroke-miterlimit="10" stroke-dasharray="1.4173" x1="49.545" y1="26.602" x2="49.545" y2="92.42"/>
<path fill="none" stroke="#000000" stroke-width="0.5572" stroke-miterlimit="10" d="M28.871,61.656
	c-0.088-0.396-0.133-0.801-0.133-1.207c0-3.032,2.459-5.491,5.49-5.491c3.029,0,5.488,2.459,5.488,5.491
	c0,1.018-0.281,2.014-0.814,2.879"/>
<polygon fill-rule="evenodd" clip-rule="evenodd" stroke="#000000" stroke-width="0.2786" stroke-miterlimit="10" points="
	38.394,59.972 39.212,64.505 40.623,60.121 38.394,59.972 "/>
<path d="M31.62,58.414c0.702,0,1.196-0.115,1.483-0.348s0.449-0.519,0.485-0.862h1.16v7.12h-1.405v-4.926H31.62V58.414z"/>
<path d="M18.082,85.385c0.745-0.229,1.117-0.605,1.117-1.133c0-0.193-0.069-0.356-0.206-0.489c-0.137-0.133-0.315-0.199-0.532-0.199
	c-0.425,0-0.755,0.231-0.993,0.695l-0.098-0.026c0.118-0.342,0.282-0.604,0.493-0.79c0.213-0.187,0.485-0.28,0.816-0.28
	c0.317,0,0.569,0.085,0.754,0.254c0.185,0.17,0.278,0.392,0.278,0.663c0,0.349-0.207,0.654-0.621,0.918
	c0.564,0.215,0.846,0.63,0.846,1.243c0,0.477-0.173,0.854-0.519,1.13s-0.784,0.415-1.313,0.415c-0.205,0-0.38-0.032-0.526-0.095
	c-0.146-0.063-0.219-0.161-0.219-0.294c0-0.159,0.089-0.238,0.268-0.238c0.089,0,0.234,0.065,0.434,0.195
	c0.196,0.129,0.359,0.193,0.49,0.193c0.252,0,0.46-0.093,0.624-0.278c0.166-0.187,0.248-0.438,0.248-0.751
	c0-0.417-0.171-0.72-0.513-0.907c-0.163-0.092-0.347-0.137-0.552-0.137h-0.268L18.082,85.385z"/>
<path d="M20.678,85.966h1.619v0.418h-1.619V85.966z"/>
<path d="M22.725,86.143l2.106-2.98h0.297v2.993h0.683v0.428h-0.683v1.11h-0.522v-1.11h-1.88V86.143z M22.996,86.156h1.609v-2.312
	L22.996,86.156z"/>
<path d="M29.965,85.201c-0.078,0.391-0.078,0.898,0,1.289v0.078H29.34l-0.664-0.039l-0.195-0.352l-0.156-0.313l0.04-0.078
	c0-0.039,0.077-0.195,0.155-0.352l0.156-0.273h1.289 M31.135,83.015c-0.039,0-0.078,0.039-0.155,0.117
	c-0.313,0.273-0.586,0.625-0.78,1.054c-0.039,0.118-0.078,0.273-0.078,0.313l-0.039,0.078h-0.547c-0.313,0-0.547,0-0.547-0.039
	c0,0,0.117-0.233,0.273-0.507c0.156-0.313,0.273-0.586,0.273-0.586c0-0.039,0-0.039,0-0.078c0-0.156-0.078-0.273-0.234-0.273
	c-0.078-0.039-0.156,0-0.195,0c-0.078,0.039,0,0-0.741,1.405c-0.586,1.132-0.625,1.249-0.664,1.327c0,0.078-0.078,0,0.664,1.406
	c0.585,1.131,0.663,1.287,0.702,1.326c0.117,0.117,0.352,0.117,0.43-0.078c0.039-0.078,0.039-0.156,0.039-0.194
	c0-0.04-0.117-0.313-0.273-0.586c-0.156-0.313-0.273-0.546-0.273-0.546s0.234,0,0.547,0h0.547l0.039,0.038
	c0,0.04,0,0.078,0.039,0.156c0.195,0.508,0.468,0.938,0.819,1.249c0.116,0.078,0.155,0.117,0.233,0.117
	c0.195,0,0.313-0.156,0.273-0.313c0-0.116,0-0.156-0.117-0.234c-0.429-0.39-0.702-0.936-0.819-1.6
	c-0.039-0.234-0.039-0.43-0.039-0.703c0-0.313,0-0.469,0.039-0.703c0.117-0.702,0.391-1.248,0.819-1.6
	c0.117-0.078,0.117-0.156,0.117-0.234c0.039-0.156-0.039-0.273-0.195-0.313C31.252,83.015,31.174,83.015,31.135,83.015z"/>
<path d="M33.677,84.326c-0.185,0.424-0.278,1.013-0.278,1.766c0,0.594,0.079,1.1,0.235,1.518c0.154,0.416,0.459,0.805,0.914,1.166
	l-0.059,0.104c-1.115-0.679-1.672-1.624-1.672-2.837c0-1.176,0.55-2.135,1.649-2.88l0.082,0.118
	C34.152,83.552,33.861,83.901,33.677,84.326z"/>
<path d="M35.6,87.185h1.57c0.166,0,0.292-0.033,0.379-0.102c0.087-0.069,0.173-0.18,0.258-0.33l0.091,0.033l-0.369,0.908h-2.585
	v-0.089l1.169-1.26c0.579-0.625,0.868-1.202,0.868-1.733c0-0.287-0.081-0.519-0.242-0.692c-0.161-0.177-0.392-0.265-0.692-0.265
	c-0.215,0-0.399,0.07-0.552,0.209c-0.152,0.137-0.285,0.355-0.398,0.656l-0.144-0.033c0.07-0.389,0.224-0.707,0.463-0.953
	c0.242-0.248,0.559-0.372,0.95-0.372c0.331,0,0.612,0.116,0.842,0.35c0.231,0.233,0.346,0.519,0.346,0.858
	c0,0.498-0.309,1.074-0.927,1.727L35.6,87.185z"/>
<path d="M38.283,83.281l0.082-0.118c1.099,0.745,1.649,1.704,1.649,2.88c0,1.213-0.557,2.158-1.671,2.837l-0.059-0.104
	c0.455-0.361,0.76-0.75,0.914-1.166c0.157-0.418,0.235-0.924,0.235-1.518c0-0.753-0.093-1.342-0.278-1.766
	C38.97,83.901,38.679,83.552,38.283,83.281z"/>
<path fill="none" stroke="#000000" stroke-width="0.9878" stroke-miterlimit="10" d="M461.984,60.984
	c0,5.889-4.824,10.669-10.769,10.669c-5.941,0-10.764-4.78-10.764-10.669s4.822-10.669,10.764-10.669
	C457.16,50.315,461.984,55.095,461.984,60.984L461.984,60.984z"/>
<path d="M450.131,60.25c0.304-0.407,0.754-0.611,1.352-0.611c0.634,0,1.154,0.207,1.563,0.621s0.612,0.958,0.612,1.631
	c0,0.716-0.211,1.314-0.632,1.796c-0.421,0.479-1.008,0.719-1.758,0.719c-1.695,0-2.542-1.181-2.542-3.543
	c0-1.324,0.233-2.264,0.7-2.82c0.467-0.561,1.096-0.84,1.886-0.84c0.62,0,1.124,0.141,1.513,0.422
	c0.392,0.281,0.625,0.736,0.7,1.364h-1.405c-0.075-0.446-0.341-0.67-0.798-0.67c-0.362,0-0.637,0.14-0.823,0.417
	C450.313,59.011,450.189,59.516,450.131,60.25z M450.15,61.964c0,0.389,0.102,0.707,0.304,0.956
	c0.206,0.246,0.474,0.369,0.804,0.369c0.3,0,0.54-0.115,0.72-0.345c0.183-0.233,0.274-0.56,0.274-0.98
	c0-0.362-0.094-0.653-0.279-0.874c-0.184-0.223-0.435-0.335-0.755-0.335c-0.319,0-0.577,0.105-0.773,0.315
	C450.249,61.282,450.15,61.58,450.15,61.964z"/>
<line fill="none" stroke="#000000" stroke-width="1.1019" stroke-miterlimit="10" x1="432.268" y1="26.103" x2="432.268" y2="91.48"/>
</svg>
