<?xml version='1.0' encoding='utf-8' standalone='no'?>
<!DOCTYPE svg PUBLIC '-//W3C//DTD SVG 1.1//EN' 'http://www.w3.org/Graphics/SVG/1.1/DTD/svg11.dtd'>
<svg version="1.1" viewBox="-0.028 -0.352 470 106" xmlns='http://www.w3.org/2000/svg'>
<defs>
</defs>
<rect x="0.567" y="0.567" fill="#FFFFFF" width="469" height="105"/>
<path d="M14.906,13.728h1.508c-0.266,1.5-0.831,2.625-1.695,3.375c-0.865,0.75-1.977,1.125-3.336,1.125
	c-1.558,0-2.813-0.542-3.766-1.625c-0.953-1.089-1.43-2.563-1.43-4.422c0-1.839,0.484-3.305,1.453-4.398
	c0.974-1.099,2.292-1.648,3.953-1.648c1.255,0,2.292,0.313,3.109,0.938c0.823,0.62,1.352,1.558,1.586,2.813h-1.508
	c-0.401-1.594-1.466-2.391-3.195-2.391c-1.13,0-2.047,0.403-2.75,1.211c-0.698,0.808-1.047,1.979-1.047,3.516
	c0,1.417,0.313,2.547,0.938,3.391c0.625,0.839,1.555,1.258,2.789,1.258c0.896,0,1.627-0.266,2.195-0.797
	C14.284,15.535,14.682,14.754,14.906,13.728z"/>
<path d="M17.258,17.931l4.375-11.5h1.773l4.125,11.5h-1.695l-1.117-3.359H20.07l-1.211,3.359H17.258z M20.578,13.212h3.586
	l-1.703-5.117L20.578,13.212z"/>
<path d="M29.094,17.931v-11.5h8.43V7.79h-6.875v3.57h6.344v1.359h-6.344v3.852h7v1.359H29.094z"/>
<path d="M49.281,17.931h-1.914c-0.177-0.755-0.266-1.651-0.266-2.688c0-0.833-0.154-1.411-0.461-1.734
	c-0.308-0.328-0.828-0.492-1.563-0.492h-3.734v4.914h-1.555v-11.5h5.305c1.255,0,2.192,0.258,2.813,0.773
	c0.625,0.511,0.938,1.302,0.938,2.375c0,1.25-0.534,2.161-1.602,2.734c0.469,0.188,0.807,0.438,1.016,0.75
	c0.208,0.313,0.325,0.841,0.352,1.586l0.086,1.875c0.01,0.208,0.039,0.417,0.086,0.625c0.047,0.203,0.213,0.378,0.5,0.523V17.931z
	 M47.242,9.712c0-0.661-0.177-1.146-0.531-1.453c-0.349-0.313-0.854-0.469-1.516-0.469h-3.852v3.93h3.57
	C46.466,11.72,47.242,11.051,47.242,9.712z"/>
<path d="M51.148,6.431h1.555v10.141h5.875v1.359h-7.43V6.431z"/>
<path d="M59.055,17.931l4.375-11.5h1.773l4.125,11.5h-1.695l-1.117-3.359h-4.648l-1.211,3.359H59.055z M62.375,13.212h3.586
	l-1.703-5.117L62.375,13.212z"/>
<path d="M74.953,16.267l3.328-9.836h1.75l-4.25,11.5h-1.648l-4.25-11.5h1.719L74.953,16.267z"/>
<path d="M81.563,17.931v-11.5h8.43V7.79h-6.875v3.57h6.344v1.359h-6.344v3.852h7v1.359H81.563z"/>
<path d="M101.75,17.931h-1.914c-0.177-0.755-0.266-1.651-0.266-2.688c0-0.833-0.154-1.411-0.461-1.734
	c-0.308-0.328-0.828-0.492-1.563-0.492h-3.734v4.914h-1.555v-11.5h5.305c1.255,0,2.192,0.258,2.813,0.773
	c0.625,0.511,0.938,1.302,0.938,2.375c0,1.25-0.534,2.161-1.602,2.734c0.469,0.188,0.807,0.438,1.016,0.75
	c0.208,0.313,0.325,0.841,0.352,1.586l0.086,1.875c0.01,0.208,0.039,0.417,0.086,0.625c0.047,0.203,0.213,0.378,0.5,0.523V17.931z
	 M99.711,9.712c0-0.661-0.177-1.146-0.531-1.453c-0.349-0.313-0.854-0.469-1.516-0.469h-3.852v3.93h3.57
	C98.935,11.72,99.711,11.051,99.711,9.712z"/>
<path d="M103.039,12.181c0-1.729,0.495-3.169,1.484-4.32c0.995-1.151,2.372-1.727,4.133-1.727c1.75,0,3.122,0.583,4.117,1.75
	c0.995,1.161,1.492,2.563,1.492,4.203c0,1.808-0.495,3.284-1.484,4.43c-0.99,1.141-2.367,1.711-4.133,1.711
	c-1.651,0-3-0.542-4.047-1.625C103.56,15.514,103.039,14.04,103.039,12.181z M104.641,12.181c0,1.344,0.352,2.461,1.055,3.352
	c0.708,0.891,1.695,1.336,2.961,1.336c1.156,0,2.112-0.417,2.867-1.25c0.76-0.839,1.141-1.984,1.141-3.438
	c0-1.391-0.357-2.519-1.07-3.383c-0.714-0.87-1.695-1.305-2.945-1.305c-1.183,0-2.146,0.419-2.891,1.258
	C105.013,9.59,104.641,10.732,104.641,12.181z"/>
<path d="M124.273,13.728h1.508c-0.266,1.5-0.831,2.625-1.695,3.375c-0.865,0.75-1.977,1.125-3.336,1.125
	c-1.558,0-2.813-0.542-3.766-1.625c-0.953-1.089-1.43-2.563-1.43-4.422c0-1.839,0.484-3.305,1.453-4.398
	c0.974-1.099,2.292-1.648,3.953-1.648c1.255,0,2.292,0.313,3.109,0.938c0.823,0.62,1.352,1.558,1.586,2.813h-1.508
	c-0.401-1.594-1.466-2.391-3.195-2.391c-1.13,0-2.047,0.403-2.75,1.211c-0.698,0.808-1.047,1.979-1.047,3.516
	c0,1.417,0.313,2.547,0.938,3.391c0.625,0.839,1.555,1.258,2.789,1.258c0.896,0,1.627-0.266,2.195-0.797
	C123.651,15.535,124.049,14.754,124.273,13.728z"/>
<path d="M127.617,17.931v-11.5h1.555v5.57l5.617-5.57h2.133l-4.766,4.586l4.891,6.914h-2.016l-4.016-5.75l-1.844,1.711v4.039
	H127.617z"/>
<path d="M150.945,13.728h1.508c-0.266,1.5-0.831,2.625-1.695,3.375c-0.865,0.75-1.977,1.125-3.336,1.125
	c-1.558,0-2.813-0.542-3.766-1.625c-0.953-1.089-1.43-2.563-1.43-4.422c0-1.839,0.484-3.305,1.453-4.398
	c0.974-1.099,2.292-1.648,3.953-1.648c1.255,0,2.292,0.313,3.109,0.938c0.823,0.62,1.352,1.558,1.586,2.813h-1.508
	c-0.401-1.594-1.466-2.391-3.195-2.391c-1.13,0-2.047,0.403-2.75,1.211c-0.698,0.808-1.047,1.979-1.047,3.516
	c0,1.417,0.313,2.547,0.938,3.391c0.625,0.839,1.555,1.258,2.789,1.258c0.896,0,1.627-0.266,2.195-0.797
	C150.323,15.535,150.721,14.754,150.945,13.728z"/>
<path d="M153.297,17.931l4.375-11.5h1.773l4.125,11.5h-1.695l-1.117-3.359h-4.648l-1.211,3.359H153.297z M156.617,13.212h3.586
	L158.5,8.095L156.617,13.212z"/>
<path d="M165.953,14.228c0.083,1.761,1.167,2.641,3.25,2.641c0.953,0,1.677-0.161,2.172-0.484c0.495-0.328,0.742-0.839,0.742-1.531
	c0-0.442-0.138-0.81-0.414-1.102c-0.271-0.297-0.945-0.573-2.023-0.828l-2.375-0.531c-0.755-0.188-1.349-0.497-1.781-0.93
	c-0.433-0.438-0.648-1.044-0.648-1.82c0-1.058,0.352-1.906,1.055-2.547c0.708-0.641,1.719-0.961,3.031-0.961
	c1.203,0,2.2,0.284,2.992,0.852c0.797,0.567,1.229,1.492,1.297,2.773h-1.453c-0.151-1.511-1.102-2.266-2.852-2.266
	c-0.766,0-1.386,0.167-1.859,0.5c-0.469,0.333-0.703,0.823-0.703,1.469c0,0.375,0.112,0.688,0.336,0.938
	c0.224,0.25,0.648,0.442,1.273,0.578l3.023,0.727c0.87,0.192,1.521,0.539,1.953,1.039c0.438,0.495,0.656,1.169,0.656,2.023
	c0,1.12-0.412,1.977-1.234,2.57c-0.823,0.594-1.945,0.891-3.367,0.891c-1.484,0-2.609-0.362-3.375-1.086s-1.148-1.695-1.148-2.914
	H165.953z"/>
<path d="M174.672,6.431h9.305V7.79h-3.875v10.141h-1.555V7.79h-3.875V6.431z"/>
<path d="M185.406,6.431h1.555v10.141h5.875v1.359h-7.43V6.431z"/>
<path d="M194.477,17.931v-11.5h8.43V7.79h-6.875v3.57h6.344v1.359h-6.344v3.852h7v1.359H194.477z"/>
<line fill="none" stroke="#000000" stroke-width="1.1112" stroke-miterlimit="10" x1="115.352" y1="25.905" x2="115.352" y2="92.391"/>
<path d="M411.779,14.47c0.016,0.808,0.211,1.425,0.586,1.852c0.38,0.422,0.977,0.633,1.789,0.633c0.683,0,1.266-0.183,1.75-0.547
	c0.489-0.37,0.734-0.911,0.734-1.625c0-0.62-0.208-1.109-0.625-1.469s-1.042-0.539-1.875-0.539c-0.177,0-0.448,0.008-0.813,0.023
	v-1.227c0.359,0.026,0.583,0.039,0.672,0.039c1.469,0,2.203-0.612,2.203-1.836c0-0.567-0.185-1.021-0.555-1.359
	c-0.364-0.339-0.867-0.508-1.508-0.508c-0.698,0-1.222,0.195-1.57,0.586s-0.547,0.981-0.594,1.773h-1.383
	c0.005-1.141,0.31-2.028,0.914-2.664c0.609-0.641,1.519-0.961,2.727-0.961c1.047,0,1.886,0.278,2.516,0.836
	c0.636,0.552,0.953,1.284,0.953,2.195c0,1.203-0.492,1.987-1.477,2.352c0.714,0.255,1.211,0.599,1.492,1.031
	c0.281,0.427,0.422,0.956,0.422,1.586c0,1.063-0.359,1.925-1.078,2.586s-1.683,0.992-2.891,0.992c-1.104,0-1.997-0.276-2.68-0.828
	c-0.677-0.558-1.065-1.531-1.164-2.922H411.779z"/>
<path d="M418.857,17.931l2.906-4.352l-2.75-4.023h1.805l1.906,2.914l1.898-2.914h1.734l-2.797,4.023l2.906,4.352h-1.781
	l-2.063-3.141l-1.984,3.141H418.857z"/>
<path d="M427.076,13.829l5.211-7.07h1.164v7.195h1.648v1.227h-1.648v2.75h-1.406v-2.75h-4.969V13.829z M428.396,13.954h3.648V8.868
	L428.396,13.954z"/>
<path d="M436.17,12.478c0-1.792,0.328-3.211,0.984-4.258c0.661-1.052,1.636-1.578,2.922-1.578c1.177,0,2.112,0.484,2.805,1.453
	c0.692,0.964,1.039,2.394,1.039,4.289c0,1.813-0.325,3.239-0.977,4.281c-0.651,1.036-1.617,1.555-2.898,1.555
	c-1.183,0-2.125-0.481-2.828-1.445C436.519,15.811,436.17,14.379,436.17,12.478z M437.67,12.431c0,3.016,0.786,4.523,2.359,4.523
	c1.594,0,2.391-1.508,2.391-4.523s-0.792-4.523-2.375-4.523S437.67,9.415,437.67,12.431z"/>
<path d="M451.123,14.228c0.083,1.761,1.167,2.641,3.25,2.641c0.953,0,1.677-0.161,2.172-0.484c0.495-0.328,0.742-0.839,0.742-1.531
	c0-0.442-0.138-0.81-0.414-1.102c-0.271-0.297-0.945-0.573-2.023-0.828l-2.375-0.531c-0.755-0.188-1.349-0.497-1.781-0.93
	c-0.433-0.438-0.648-1.044-0.648-1.82c0-1.058,0.352-1.906,1.055-2.547c0.708-0.641,1.719-0.961,3.031-0.961
	c1.203,0,2.2,0.284,2.992,0.852c0.797,0.567,1.229,1.492,1.297,2.773h-1.453c-0.151-1.511-1.102-2.266-2.852-2.266
	c-0.766,0-1.386,0.167-1.859,0.5c-0.469,0.333-0.703,0.823-0.703,1.469c0,0.375,0.112,0.688,0.336,0.938s0.648,0.442,1.273,0.578
	l3.023,0.727c0.87,0.192,1.521,0.539,1.953,1.039c0.438,0.495,0.656,1.169,0.656,2.023c0,1.12-0.411,1.977-1.234,2.57
	s-1.945,0.891-3.367,0.891c-1.484,0-2.609-0.362-3.375-1.086s-1.148-1.695-1.148-2.914H451.123z"/>
<path fill="none" stroke="#000000" stroke-width="1.1339" stroke-miterlimit="10" d="M0.567,0.567h468.04v91.581H0.567V0.567z"/>
<line fill="none" stroke="#000000" stroke-width="1.1339" stroke-miterlimit="10" x1="0.067" y1="26.146" x2="468.106" y2="26.146"/>
<line fill="none" stroke="#000000" stroke-width="1.1019" stroke-miterlimit="10" x1="262.307" y1="25.905" x2="262.307" y2="91.283"/>
<path d="M392.18,101.425c0.009,0.455,0.119,0.802,0.33,1.042c0.213,0.237,0.549,0.356,1.006,0.356c0.384,0,0.712-0.103,0.984-0.309
	c0.275-0.207,0.413-0.512,0.413-0.914c0-0.348-0.117-0.623-0.352-0.826c-0.234-0.201-0.586-0.303-1.055-0.303
	c-0.1,0-0.252,0.004-0.457,0.014v-0.69c0.202,0.015,0.328,0.022,0.378,0.022c0.826,0,1.239-0.345,1.239-1.033
	c0-0.319-0.104-0.574-0.312-0.765c-0.206-0.19-0.488-0.286-0.849-0.286c-0.393,0-0.688,0.11-0.884,0.33s-0.307,0.553-0.334,0.998
	h-0.777c0.003-0.643,0.174-1.142,0.514-1.499c0.344-0.36,0.854-0.54,1.534-0.54c0.589,0,1.061,0.156,1.415,0.47
	c0.357,0.311,0.536,0.723,0.536,1.235c0,0.676-0.276,1.117-0.831,1.322c0.401,0.144,0.682,0.337,0.84,0.58
	c0.158,0.24,0.237,0.538,0.237,0.893c0,0.598-0.202,1.082-0.606,1.454s-0.946,0.558-1.626,0.558c-0.621,0-1.124-0.155-1.507-0.465
	c-0.382-0.313-0.6-0.861-0.655-1.645H392.18z"/>
<path d="M401.36,101.008h0.849c-0.15,0.844-0.468,1.477-0.954,1.898s-1.112,0.633-1.876,0.633c-0.877,0-1.582-0.305-2.119-0.914
	c-0.535-0.612-0.804-1.441-0.804-2.487c0-1.034,0.272-1.859,0.817-2.475c0.548-0.617,1.289-0.927,2.224-0.927
	c0.706,0,1.289,0.176,1.749,0.527c0.463,0.349,0.76,0.876,0.893,1.582h-0.849c-0.226-0.896-0.825-1.345-1.798-1.345
	c-0.636,0-1.15,0.228-1.547,0.682c-0.393,0.454-0.588,1.113-0.588,1.977c0,0.798,0.176,1.434,0.527,1.908
	c0.352,0.472,0.874,0.707,1.568,0.707c0.504,0,0.915-0.149,1.234-0.448C401.01,102.025,401.234,101.585,401.36,101.008z"/>
<path d="M402.411,103.54l2.215-6.803h0.598l-2.215,6.803H402.411z"/>
<path d="M406.186,101.425c0.009,0.455,0.119,0.802,0.33,1.042c0.213,0.237,0.549,0.356,1.006,0.356c0.384,0,0.712-0.103,0.984-0.309
	c0.275-0.207,0.413-0.512,0.413-0.914c0-0.348-0.117-0.623-0.352-0.826c-0.234-0.201-0.586-0.303-1.055-0.303
	c-0.1,0-0.252,0.004-0.457,0.014v-0.69c0.202,0.015,0.328,0.022,0.378,0.022c0.826,0,1.239-0.345,1.239-1.033
	c0-0.319-0.104-0.574-0.312-0.765c-0.206-0.19-0.488-0.286-0.849-0.286c-0.393,0-0.688,0.11-0.884,0.33s-0.307,0.553-0.334,0.998
	h-0.777c0.003-0.643,0.174-1.142,0.514-1.499c0.344-0.36,0.854-0.54,1.534-0.54c0.589,0,1.061,0.156,1.415,0.47
	c0.357,0.311,0.536,0.723,0.536,1.235c0,0.676-0.276,1.117-0.831,1.322c0.401,0.144,0.682,0.337,0.84,0.58
	c0.158,0.24,0.237,0.538,0.237,0.893c0,0.598-0.202,1.082-0.606,1.454s-0.946,0.558-1.626,0.558c-0.621,0-1.124-0.155-1.507-0.465
	c-0.382-0.313-0.6-0.861-0.655-1.645H406.186z"/>
<path d="M415.366,101.008h0.849c-0.15,0.844-0.468,1.477-0.954,1.898s-1.112,0.633-1.876,0.633c-0.877,0-1.582-0.305-2.119-0.914
	c-0.535-0.612-0.804-1.441-0.804-2.487c0-1.034,0.272-1.859,0.817-2.475c0.548-0.617,1.289-0.927,2.224-0.927
	c0.706,0,1.289,0.176,1.749,0.527c0.463,0.349,0.76,0.876,0.893,1.582h-0.849c-0.226-0.896-0.825-1.345-1.798-1.345
	c-0.636,0-1.15,0.228-1.547,0.682c-0.393,0.454-0.588,1.113-0.588,1.977c0,0.798,0.176,1.434,0.527,1.908
	c0.352,0.472,0.874,0.707,1.568,0.707c0.504,0,0.915-0.149,1.234-0.448C415.016,102.025,415.24,101.585,415.366,101.008z"/>
<path d="M419.673,103.373v-6.469h0.791v6.469H419.673z"/>
<path d="M421.374,101.035c0-0.747,0.2-1.354,0.603-1.819c0.4-0.469,0.934-0.703,1.6-0.703c0.641,0,1.168,0.228,1.582,0.681
	c0.412,0.455,0.619,1.063,0.619,1.824c0,0.718-0.199,1.315-0.598,1.793c-0.398,0.475-0.928,0.712-1.586,0.712
	c-0.648,0-1.18-0.229-1.596-0.686C421.582,102.376,421.374,101.776,421.374,101.035z M422.191,101.017
	c0,0.513,0.119,0.942,0.355,1.287c0.24,0.347,0.583,0.52,1.029,0.52c0.387,0,0.713-0.151,0.979-0.453
	c0.27-0.305,0.404-0.756,0.404-1.354c0-0.513-0.117-0.941-0.352-1.287s-0.579-0.52-1.032-0.52c-0.411,0-0.745,0.156-1.002,0.467
	C422.318,99.988,422.191,100.434,422.191,101.017z"/>
<path d="M426.652,103.373v-4.711h0.742v0.694c0.396-0.563,0.893-0.844,1.49-0.844c0.504,0,0.894,0.149,1.169,0.448
	c0.275,0.296,0.413,0.697,0.413,1.204v3.208h-0.791v-2.927c0-0.475-0.084-0.798-0.25-0.972c-0.165-0.176-0.409-0.264-0.734-0.264
	c-0.369,0-0.67,0.139-0.9,0.414c-0.232,0.275-0.348,0.663-0.348,1.164v2.584H426.652z"/>
<path d="M431.579,103.909h0.791c0.103,0.478,0.458,0.716,1.067,0.716c0.442,0,0.775-0.112,0.998-0.338s0.334-0.606,0.334-1.143
	v-0.313c-0.284,0.461-0.714,0.69-1.287,0.69c-0.619,0-1.114-0.237-1.486-0.712s-0.558-1.111-0.558-1.912
	c0-0.688,0.171-1.258,0.515-1.709c0.342-0.451,0.818-0.677,1.428-0.677c0.319,0,0.59,0.067,0.813,0.202
	c0.223,0.132,0.432,0.338,0.625,0.619v-0.672h0.742v4.289c0,0.882-0.185,1.497-0.554,1.846c-0.369,0.346-0.905,0.519-1.608,0.519
	c-0.498,0-0.908-0.107-1.23-0.321C431.849,104.777,431.652,104.416,431.579,103.909z M432.256,100.933
	c0,0.593,0.111,1.055,0.334,1.389c0.226,0.334,0.536,0.502,0.932,0.502c0.407,0,0.722-0.151,0.945-0.453
	c0.225-0.302,0.338-0.725,0.338-1.27c0-1.26-0.436-1.891-1.305-1.891C432.67,99.21,432.256,99.786,432.256,100.933z"/>
<path d="M436.207,98.662h0.865l0.879,3.735l0.928-3.735h0.879l0.953,3.735l0.928-3.735h0.791l-1.336,4.711h-0.817l-0.989-3.66
	l-0.927,3.66h-0.817L436.207,98.662z"/>
<path d="M443.19,96.913h0.791v0.905h-0.791V96.913z M443.19,98.662h0.791v4.711h-0.791V98.662z"/>
<path d="M445.635,101.905c0.022,0.612,0.429,0.919,1.217,0.919c0.343,0,0.612-0.066,0.809-0.198
	c0.199-0.135,0.299-0.321,0.299-0.558c0-0.17-0.066-0.305-0.197-0.404c-0.133-0.091-0.379-0.182-0.738-0.273l-0.924-0.229
	c-0.729-0.176-1.094-0.563-1.094-1.164c0-0.431,0.155-0.785,0.466-1.063c0.313-0.281,0.761-0.422,1.341-0.422
	c0.506,0,0.919,0.122,1.238,0.364c0.319,0.244,0.498,0.614,0.537,1.112h-0.778c-0.038-0.519-0.395-0.778-1.067-0.778
	c-0.64,0-0.959,0.225-0.959,0.673c0,0.196,0.075,0.334,0.225,0.413c0.149,0.076,0.358,0.146,0.629,0.211l0.781,0.197
	c0.478,0.123,0.816,0.277,1.016,0.462c0.202,0.193,0.303,0.457,0.303,0.791c0,0.463-0.165,0.839-0.496,1.13
	c-0.328,0.289-0.805,0.435-1.428,0.435c-0.578,0-1.041-0.122-1.389-0.364c-0.35-0.243-0.538-0.661-0.567-1.253H445.635z"/>
<path d="M450.262,101.263c0,0.492,0.111,0.876,0.334,1.151c0.226,0.272,0.563,0.409,1.011,0.409
	c0.319-0.003,0.598-0.094,0.835-0.273c0.24-0.181,0.383-0.396,0.426-0.646h0.778c-0.103,0.495-0.325,0.89-0.668,1.183
	c-0.343,0.289-0.793,0.435-1.349,0.435c-0.663,0-1.193-0.208-1.592-0.624c-0.395-0.416-0.593-1.017-0.593-1.802
	c0-0.759,0.193-1.378,0.58-1.858c0.39-0.484,0.935-0.726,1.635-0.726c0.659,0,1.16,0.228,1.503,0.681
	c0.346,0.452,0.527,1.142,0.545,2.07H450.262z M450.262,100.639h2.628c-0.056-0.524-0.19-0.894-0.404-1.107s-0.504-0.321-0.87-0.321
	c-0.387,0-0.703,0.133-0.949,0.396C450.42,99.868,450.285,100.211,450.262,100.639z"/>
<path d="M457.641,101.905c0.022,0.612,0.429,0.919,1.217,0.919c0.343,0,0.612-0.066,0.809-0.198
	c0.199-0.135,0.299-0.321,0.299-0.558c0-0.17-0.066-0.305-0.197-0.404c-0.133-0.091-0.379-0.182-0.738-0.273l-0.924-0.229
	c-0.729-0.176-1.094-0.563-1.094-1.164c0-0.431,0.155-0.785,0.466-1.063c0.313-0.281,0.761-0.422,1.341-0.422
	c0.506,0,0.919,0.122,1.238,0.364c0.319,0.244,0.498,0.614,0.537,1.112h-0.778c-0.038-0.519-0.395-0.778-1.067-0.778
	c-0.64,0-0.959,0.225-0.959,0.673c0,0.196,0.075,0.334,0.225,0.413c0.149,0.076,0.358,0.146,0.629,0.211l0.781,0.197
	c0.478,0.123,0.816,0.277,1.016,0.462c0.202,0.193,0.303,0.457,0.303,0.791c0,0.463-0.165,0.839-0.496,1.13
	c-0.328,0.289-0.805,0.435-1.428,0.435c-0.578,0-1.041-0.122-1.389-0.364c-0.35-0.243-0.538-0.661-0.567-1.253H457.641z"/>
<path d="M462.268,101.263c0,0.492,0.111,0.876,0.334,1.151c0.226,0.272,0.563,0.409,1.011,0.409
	c0.319-0.003,0.598-0.094,0.835-0.273c0.24-0.181,0.383-0.396,0.426-0.646h0.778c-0.103,0.495-0.325,0.89-0.668,1.183
	c-0.343,0.289-0.793,0.435-1.349,0.435c-0.663,0-1.193-0.208-1.592-0.624c-0.395-0.416-0.593-1.017-0.593-1.802
	c0-0.759,0.193-1.378,0.58-1.858c0.39-0.484,0.935-0.726,1.635-0.726c0.659,0,1.16,0.228,1.503,0.681
	c0.346,0.452,0.527,1.142,0.545,2.07H462.268z M462.268,100.639h2.628c-0.056-0.524-0.19-0.894-0.404-1.107s-0.504-0.321-0.87-0.321
	c-0.387,0-0.703,0.133-0.949,0.396C462.426,99.868,462.291,100.211,462.268,100.639z"/>
<path d="M466.223,99.321v-0.659h0.643v-1.336h0.791v1.336h0.773v0.659h-0.773v3.059c0,0.252,0.159,0.378,0.479,0.378h0.277v0.629
	c-0.297,0.04-0.518,0.061-0.664,0.061c-0.589,0-0.883-0.338-0.883-1.015v-3.111H466.223z"/>
<path d="M1.637,101.29h0.817v0.448c0,0.381,0.083,0.649,0.251,0.805c0.166,0.155,0.412,0.232,0.738,0.232
	c0.679,0,1.02-0.375,1.02-1.125v-4.746h0.874v4.72c0,0.615-0.163,1.089-0.487,1.419c-0.323,0.331-0.791,0.497-1.406,0.497
	c-0.525,0-0.957-0.138-1.297-0.413s-0.51-0.68-0.51-1.213V101.29z"/>
<path d="M6.295,101.035c0-0.747,0.2-1.354,0.602-1.819c0.401-0.469,0.935-0.703,1.6-0.703c0.643,0,1.17,0.228,1.582,0.681
	c0.414,0.455,0.62,1.063,0.62,1.824c0,0.718-0.199,1.315-0.598,1.793c-0.398,0.475-0.927,0.712-1.587,0.712
	c-0.647,0-1.179-0.229-1.595-0.686C6.503,102.376,6.295,101.776,6.295,101.035z M7.112,101.017c0,0.513,0.118,0.942,0.356,1.287
	c0.239,0.347,0.582,0.52,1.027,0.52c0.387,0,0.714-0.151,0.98-0.453c0.27-0.305,0.404-0.756,0.404-1.354
	c0-0.513-0.117-0.941-0.352-1.287s-0.579-0.52-1.033-0.52c-0.41,0-0.744,0.156-1.002,0.467C7.24,99.988,7.112,100.434,7.112,101.017
	z"/>
<path d="M11.572,96.904h0.791v2.382c0.354-0.516,0.835-0.773,1.441-0.773c0.504,0,0.894,0.149,1.169,0.448
	c0.275,0.296,0.413,0.697,0.413,1.204v3.208h-0.791v-3.107c0-0.389-0.076-0.661-0.229-0.816c-0.152-0.158-0.384-0.238-0.694-0.238
	c-0.413,0-0.735,0.134-0.967,0.4c-0.229,0.264-0.343,0.656-0.343,1.178v2.584h-0.791V96.904z"/>
<path d="M16.578,103.373v-4.711h0.742v0.694c0.396-0.563,0.893-0.844,1.49-0.844c0.504,0,0.894,0.149,1.169,0.448
	c0.275,0.296,0.413,0.697,0.413,1.204v3.208h-0.791v-2.927c0-0.475-0.084-0.798-0.25-0.972c-0.165-0.176-0.409-0.264-0.734-0.264
	c-0.369,0-0.67,0.139-0.9,0.414c-0.232,0.275-0.348,0.663-0.348,1.164v2.584H16.578z"/>
<path d="M23.645,96.904h0.94l1.226,5.282l1.49-5.282h0.953l1.49,5.282l1.199-5.282h0.967l-1.688,6.469h-0.914l-1.52-5.357
	l-1.543,5.357h-0.914L23.645,96.904z"/>
<path d="M35.152,96.904h1.258l1.85,5.458l1.842-5.458h1.256v6.469H40.51v-5.432l-1.824,5.432h-0.861l-1.823-5.458v5.458h-0.849
	V96.904z"/>
<path d="M42.602,96.913h0.791v0.905h-0.791V96.913z M42.602,98.662h0.791v4.711h-0.791V98.662z"/>
<path d="M44.121,99.321v-0.659h0.643v-1.336h0.791v1.336h0.773v0.659h-0.773v3.059c0,0.252,0.159,0.378,0.479,0.378h0.277v0.629
	c-0.297,0.04-0.518,0.061-0.664,0.061c-0.589,0-0.883-0.338-0.883-1.015v-3.111H44.121z"/>
<path d="M49.971,101.694h0.777c-0.064,0.53-0.254,0.969-0.566,1.313c-0.312,0.344-0.755,0.515-1.332,0.515
	c-0.642,0-1.15-0.214-1.525-0.642c-0.372-0.431-0.558-1.025-0.558-1.784c0-0.785,0.2-1.412,0.603-1.881
	c0.4-0.469,0.941-0.703,1.621-0.703c0.483,0,0.876,0.134,1.178,0.399c0.302,0.268,0.495,0.696,0.58,1.288h-0.777
	c-0.133-0.659-0.496-0.989-1.09-0.989c-0.414,0-0.733,0.16-0.959,0.479c-0.226,0.316-0.338,0.768-0.338,1.354
	c0,0.539,0.103,0.972,0.308,1.296c0.205,0.323,0.513,0.484,0.923,0.484C49.406,102.824,49.791,102.447,49.971,101.694z"/>
<path d="M51.574,96.904h0.791v2.382c0.354-0.516,0.835-0.773,1.441-0.773c0.504,0,0.894,0.149,1.169,0.448
	c0.275,0.296,0.413,0.697,0.413,1.204v3.208h-0.791v-3.107c0-0.389-0.076-0.661-0.229-0.816c-0.152-0.158-0.384-0.238-0.694-0.238
	c-0.413,0-0.735,0.134-0.967,0.4c-0.229,0.264-0.343,0.656-0.343,1.178v2.584h-0.791V96.904z"/>
<path d="M57.178,101.263c0,0.492,0.111,0.876,0.334,1.151c0.226,0.272,0.563,0.409,1.011,0.409c0.319-0.003,0.598-0.094,0.835-0.273
	c0.24-0.181,0.383-0.396,0.426-0.646h0.778c-0.103,0.495-0.325,0.89-0.668,1.183c-0.343,0.289-0.793,0.435-1.349,0.435
	c-0.663,0-1.193-0.208-1.592-0.624c-0.395-0.416-0.593-1.017-0.593-1.802c0-0.759,0.193-1.378,0.58-1.858
	c0.39-0.484,0.935-0.726,1.635-0.726c0.659,0,1.16,0.228,1.503,0.681c0.346,0.452,0.527,1.142,0.545,2.07H57.178z M57.178,100.639
	h2.628c-0.056-0.524-0.19-0.894-0.404-1.107s-0.504-0.321-0.87-0.321c-0.387,0-0.703,0.133-0.949,0.396
	C57.336,99.868,57.201,100.211,57.178,100.639z"/>
<path d="M61.612,103.373v-6.469h0.791v6.469H61.612z"/>
<path d="M63.612,103.373v-6.469h0.791v6.469H63.612z"/>
<path d="M65.797,104.291c0.311-0.047,0.471-0.353,0.479-0.918h-0.479v-0.984h0.94v0.896c0,0.82-0.313,1.295-0.94,1.424V104.291z"/>
<path d="M70.146,96.904h0.94l1.226,5.282l1.49-5.282h0.953l1.49,5.282l1.199-5.282h0.967l-1.688,6.469h-0.914l-1.52-5.357
	l-1.543,5.357h-0.914L70.146,96.904z"/>
<path d="M79.08,96.904h0.791v2.382c0.354-0.516,0.835-0.773,1.441-0.773c0.504,0,0.894,0.149,1.169,0.448
	c0.275,0.296,0.413,0.697,0.413,1.204v3.208h-0.791v-3.107c0-0.389-0.076-0.661-0.229-0.816c-0.152-0.158-0.384-0.238-0.694-0.238
	c-0.413,0-0.735,0.134-0.967,0.4c-0.229,0.264-0.343,0.656-0.343,1.178v2.584H79.08V96.904z"/>
<path d="M84.684,101.263c0,0.492,0.111,0.876,0.334,1.151c0.226,0.272,0.563,0.409,1.011,0.409c0.319-0.003,0.598-0.094,0.835-0.273
	c0.24-0.181,0.383-0.396,0.426-0.646h0.778c-0.103,0.495-0.325,0.89-0.668,1.183c-0.343,0.289-0.793,0.435-1.349,0.435
	c-0.663,0-1.193-0.208-1.592-0.624c-0.395-0.416-0.593-1.017-0.593-1.802c0-0.759,0.193-1.378,0.58-1.858
	c0.39-0.484,0.935-0.726,1.635-0.726c0.659,0,1.16,0.228,1.503,0.681c0.346,0.452,0.527,1.142,0.545,2.07H84.684z M84.684,100.639
	h2.628c-0.056-0.524-0.19-0.894-0.404-1.107s-0.504-0.321-0.87-0.321c-0.387,0-0.703,0.133-0.949,0.396
	C84.842,99.868,84.707,100.211,84.684,100.639z"/>
<path d="M88.639,99.321v-0.659h0.643v-1.336h0.791v1.336h0.773v0.659h-0.773v3.059c0,0.252,0.159,0.378,0.479,0.378h0.277v0.629
	c-0.297,0.04-0.518,0.061-0.664,0.061c-0.589,0-0.883-0.338-0.883-1.015v-3.111H88.639z"/>
<path d="M91.592,96.904h0.791v2.382c0.354-0.516,0.835-0.773,1.441-0.773c0.504,0,0.894,0.149,1.169,0.448
	c0.275,0.296,0.413,0.697,0.413,1.204v3.208h-0.791v-3.107c0-0.389-0.076-0.661-0.229-0.816c-0.152-0.158-0.384-0.238-0.694-0.238
	c-0.413,0-0.735,0.134-0.967,0.4c-0.229,0.264-0.343,0.656-0.343,1.178v2.584h-0.791V96.904z"/>
<path d="M97.195,101.263c0,0.492,0.111,0.876,0.334,1.151c0.226,0.272,0.563,0.409,1.011,0.409c0.319-0.003,0.598-0.094,0.835-0.273
	c0.24-0.181,0.383-0.396,0.426-0.646h0.778c-0.103,0.495-0.325,0.89-0.668,1.183c-0.343,0.289-0.793,0.435-1.349,0.435
	c-0.663,0-1.193-0.208-1.592-0.624c-0.395-0.416-0.593-1.017-0.593-1.802c0-0.759,0.193-1.378,0.58-1.858
	c0.39-0.484,0.935-0.726,1.635-0.726c0.659,0,1.16,0.228,1.503,0.681c0.346,0.452,0.527,1.142,0.545,2.07H97.195z M97.195,100.639
	h2.628c-0.056-0.524-0.19-0.894-0.404-1.107s-0.504-0.321-0.87-0.321c-0.387,0-0.703,0.133-0.949,0.396
	C97.354,99.868,97.219,100.211,97.195,100.639z"/>
<path d="M101.718,103.373v-4.711h0.743v0.787c0.216-0.361,0.426-0.607,0.628-0.738c0.205-0.133,0.438-0.198,0.698-0.198
	c0.053,0,0.119,0.011,0.198,0.03v0.813h-0.299c-0.349,0-0.633,0.125-0.853,0.374c-0.217,0.249-0.325,0.548-0.325,0.896v2.746
	H101.718z"/>
<path d="M104.627,103.373v-6.469h0.791v6.469H104.627z"/>
<path d="M106.512,105.218v-0.712c0.179,0.056,0.346,0.083,0.501,0.083c0.185,0,0.313-0.047,0.387-0.141
	c0.073-0.096,0.141-0.219,0.202-0.369l0.246-0.575l-1.758-4.843h0.905l1.261,3.832l1.244-3.832h0.879l-1.688,4.632
	c-0.34,0.952-0.615,1.523-0.826,1.714c-0.211,0.188-0.506,0.281-0.883,0.281C106.824,105.289,106.667,105.265,106.512,105.218z"/>
<path d="M113.688,103.373v-6.469h2.848c0.551,0,0.991,0.151,1.322,0.453c0.334,0.299,0.502,0.691,0.502,1.178
	c0,0.583-0.288,1.025-0.861,1.326c0.433,0.168,0.734,0.38,0.904,0.638s0.256,0.571,0.256,0.94c0,0.551-0.191,1.011-0.572,1.38
	s-0.921,0.554-1.621,0.554H113.688z M114.563,99.611h1.572c0.899,0,1.35-0.337,1.35-1.011c0-0.621-0.445-0.932-1.336-0.932h-1.586
	V99.611z M114.563,102.608h1.863c0.409,0,0.738-0.097,0.984-0.29c0.248-0.193,0.373-0.492,0.373-0.896
	c0-0.721-0.504-1.081-1.512-1.081h-1.709V102.608z"/>
<path d="M119.33,101.035c0-0.747,0.2-1.354,0.602-1.819c0.401-0.469,0.935-0.703,1.6-0.703c0.643,0,1.17,0.228,1.582,0.681
	c0.414,0.455,0.62,1.063,0.62,1.824c0,0.718-0.199,1.315-0.598,1.793c-0.398,0.475-0.927,0.712-1.587,0.712
	c-0.647,0-1.179-0.229-1.595-0.686C119.538,102.376,119.33,101.776,119.33,101.035z M120.147,101.017
	c0,0.513,0.118,0.942,0.356,1.287c0.239,0.347,0.582,0.52,1.027,0.52c0.387,0,0.714-0.151,0.98-0.453
	c0.27-0.305,0.404-0.756,0.404-1.354c0-0.513-0.117-0.941-0.352-1.287s-0.579-0.52-1.033-0.52c-0.41,0-0.744,0.156-1.002,0.467
	C120.275,99.988,120.147,100.434,120.147,101.017z"/>
<path d="M124.335,101.035c0-0.747,0.2-1.354,0.603-1.819c0.4-0.469,0.934-0.703,1.6-0.703c0.641,0,1.168,0.228,1.582,0.681
	c0.412,0.455,0.619,1.063,0.619,1.824c0,0.718-0.199,1.315-0.598,1.793c-0.398,0.475-0.928,0.712-1.586,0.712
	c-0.648,0-1.18-0.229-1.596-0.686C124.543,102.376,124.335,101.776,124.335,101.035z M125.152,101.017
	c0,0.513,0.119,0.942,0.355,1.287c0.24,0.347,0.583,0.52,1.029,0.52c0.387,0,0.713-0.151,0.979-0.453
	c0.27-0.305,0.404-0.756,0.404-1.354c0-0.513-0.117-0.941-0.352-1.287s-0.579-0.52-1.032-0.52c-0.411,0-0.745,0.156-1.002,0.467
	C125.279,99.988,125.152,100.434,125.152,101.017z"/>
<path d="M129.64,103.373v-6.469h0.791v3.744l2.021-1.986h1.002l-1.793,1.749l1.903,2.962h-1.016l-1.459-2.391l-0.659,0.682v1.709
	H129.64z"/>
<path d="M136.947,98.284c0.574-0.023,0.971-0.118,1.191-0.286c0.222-0.166,0.392-0.47,0.51-0.909h0.619v6.284h-0.844v-4.456h-1.477
	V98.284z"/>
<path d="M141.373,100.305c0-1.008,0.185-1.806,0.554-2.396c0.372-0.591,0.92-0.887,1.644-0.887c0.662,0,1.188,0.271,1.578,0.816
	c0.389,0.543,0.584,1.347,0.584,2.413c0,1.02-0.184,1.822-0.549,2.408c-0.367,0.583-0.91,0.874-1.631,0.874
	c-0.665,0-1.195-0.271-1.591-0.813C141.569,102.18,141.373,101.375,141.373,100.305z M142.217,100.279
	c0,1.696,0.442,2.545,1.327,2.545c0.896,0,1.345-0.849,1.345-2.545s-0.445-2.545-1.336-2.545S142.217,98.583,142.217,100.279z"/>
<circle fill="#FFFFFF" stroke="#000000" stroke-width="0.5669" cx="160.085" cy="59.148" r="6.696"/>
<circle fill="#FFFFFF" stroke="#000000" stroke-width="0.5669" cx="160.084" cy="72.531" r="6.695"/>
<circle fill="#FFFFFF" stroke="#000000" stroke-width="0.5669" cx="160.085" cy="45.765" r="6.696"/>
<path d="M26.106,66.86h-2.648c-0.161-0.62-0.247-1.3-0.258-2.039l-0.016-0.859c-0.011-0.573-0.138-0.981-0.383-1.227
	s-0.742-0.367-1.492-0.367h-2.516v4.492h-2.383v-11.5h5.867c1.104,0,1.987,0.3,2.648,0.898c0.661,0.594,0.992,1.398,0.992,2.414
	c0,1.297-0.597,2.198-1.789,2.703c0.646,0.255,1.05,0.606,1.211,1.055s0.242,1.148,0.242,2.102v0.461
	c0,0.438,0.028,0.786,0.086,1.047c0.063,0.255,0.208,0.425,0.438,0.508V66.86z M23.497,58.907c0-1.021-0.563-1.531-1.688-1.531
	h-3.016v3.07h2.828C22.872,60.446,23.497,59.933,23.497,58.907z"/>
<path d="M27.966,55.36h2.383v9.484h5.75v2.016h-8.133V55.36z"/>
<line fill="none" stroke="#000000" stroke-width="1.1019" stroke-miterlimit="10" x1="213.53" y1="25.905" x2="213.53" y2="91.283"/>
<path d="M408.599,35.377c0.701,0,1.195-0.116,1.482-0.348c0.287-0.231,0.449-0.519,0.486-0.862h1.16v7.121h-1.406v-4.927h-1.723
	V35.377z"/>
<path d="M417.011,39.731c0.275-0.441,0.803-0.949,1.582-1.523c0.646-0.473,1.051-0.831,1.215-1.072s0.244-0.491,0.244-0.749
	c0-0.288-0.082-0.532-0.25-0.735c-0.162-0.206-0.408-0.309-0.738-0.309c-0.359,0-0.611,0.113-0.754,0.338
	c-0.145,0.226-0.217,0.557-0.217,0.994h-1.404v-0.206c0-0.62,0.193-1.159,0.582-1.616c0.393-0.457,0.975-0.686,1.748-0.686
	c0.68,0,1.256,0.193,1.729,0.578c0.475,0.382,0.711,0.93,0.711,1.646c0,0.486-0.117,0.911-0.354,1.273
	c-0.23,0.359-0.691,0.777-1.381,1.254c-0.754,0.522-1.203,0.896-1.346,1.121h3.08v1.249h-4.857
	C416.601,40.69,416.737,40.171,417.011,39.731z"/>
<path d="M440.3,39.084c0.027,0.816,0.369,1.224,1.029,1.224c0.316,0,0.572-0.098,0.768-0.294c0.197-0.196,0.295-0.475,0.295-0.837
	c0-0.353-0.125-0.609-0.377-0.769c-0.248-0.164-0.662-0.245-1.24-0.245v-0.999h0.227c0.779,0,1.17-0.31,1.17-0.93
	c0-0.278-0.082-0.503-0.244-0.676c-0.164-0.177-0.391-0.265-0.682-0.265c-0.639,0-0.963,0.382-0.969,1.146h-1.273
	c0-0.702,0.201-1.255,0.602-1.66c0.404-0.408,0.977-0.612,1.715-0.612c0.676,0,1.225,0.173,1.645,0.519
	c0.422,0.346,0.633,0.823,0.633,1.43c0,0.637-0.293,1.104-0.877,1.4c0.73,0.301,1.098,0.852,1.098,1.655
	c0,0.663-0.227,1.207-0.676,1.631c-0.449,0.421-1.049,0.632-1.803,0.632c-0.791,0-1.387-0.199-1.787-0.598
	c-0.402-0.401-0.621-0.986-0.656-1.753H440.3z"/>
<path d="M18.598,35.377c0.702,0,1.196-0.116,1.483-0.348c0.287-0.231,0.449-0.519,0.485-0.862h1.16v7.121h-1.405v-4.927h-1.724
	V35.377z"/>
<path d="M27.011,39.731c0.274-0.441,0.802-0.949,1.582-1.523c0.646-0.473,1.051-0.831,1.214-1.072
	c0.164-0.242,0.245-0.491,0.245-0.749c0-0.288-0.083-0.532-0.25-0.735c-0.163-0.206-0.409-0.309-0.739-0.309
	c-0.359,0-0.61,0.113-0.754,0.338c-0.144,0.226-0.216,0.557-0.216,0.994h-1.405v-0.206c0-0.62,0.194-1.159,0.583-1.616
	c0.392-0.457,0.975-0.686,1.748-0.686c0.679,0,1.255,0.193,1.729,0.578c0.474,0.382,0.71,0.93,0.71,1.646
	c0,0.486-0.117,0.911-0.353,1.273c-0.231,0.359-0.691,0.777-1.381,1.254c-0.754,0.522-1.203,0.896-1.347,1.121h3.08v1.249H26.6
	C26.6,40.69,26.737,40.171,27.011,39.731z"/>
<line fill="none" stroke="#000000" stroke-width="1.1112" stroke-miterlimit="10" x1="53.972" y1="25.905" x2="53.972" y2="92.391"/>
<path fill="none" stroke="#000000" stroke-width="0.5572" stroke-linejoin="bevel" stroke-miterlimit="10" d="M78.265,39.798
	c3.689,0,6.686,2.997,6.686,6.688c0,3.689-2.996,6.686-6.686,6.686c-3.691,0-6.688-2.996-6.688-6.686
	C71.578,42.795,74.574,39.798,78.265,39.798L78.265,39.798z M91.64,39.798c3.689,0,6.686,2.997,6.686,6.688
	c0,3.689-2.996,6.686-6.686,6.686c-3.691,0-6.688-2.996-6.688-6.686C84.953,42.795,87.949,39.798,91.64,39.798L91.64,39.798z"/>
<line fill="none" stroke="#000000" stroke-width="0.5572" stroke-miterlimit="10" x1="84.933" y1="48.186" x2="78.248" y2="59.887"/>
<path fill="none" stroke="#000000" stroke-width="0.5572" stroke-linejoin="bevel" stroke-miterlimit="10" d="M78.265,64.777
	c3.689,0,6.686,2.997,6.686,6.688c0,3.689-2.996,6.686-6.686,6.686c-3.691,0-6.688-2.996-6.688-6.686
	C71.578,67.774,74.574,64.777,78.265,64.777L78.265,64.777z M91.64,64.777c3.689,0,6.686,2.997,6.686,6.688
	c0,3.689-2.996,6.686-6.686,6.686c-3.691,0-6.688-2.996-6.688-6.686C84.953,67.774,87.949,64.777,91.64,64.777L91.64,64.777z"/>
<line fill="none" stroke="#000000" stroke-width="0.5572" stroke-miterlimit="10" x1="84.933" y1="73.165" x2="78.248" y2="84.866"/>
<path fill-rule="evenodd" clip-rule="evenodd" stroke="#000000" stroke-width="0.2786" stroke-miterlimit="10" d="M65.22,70.824
	c0.472,0,0.854,0.383,0.854,0.854c0,0.473-0.383,0.855-0.854,0.855s-0.854-0.383-0.854-0.855
	C64.366,71.207,64.749,70.824,65.22,70.824L65.22,70.824z"/>
<path fill="none" stroke="#000000" stroke-width="0.5572" stroke-miterlimit="10" d="M65.291,69.222
	c1.395,0,2.526,1.133,2.526,2.525c0,1.396-1.132,2.527-2.526,2.527c-1.394,0-2.525-1.131-2.525-2.527
	C62.765,70.355,63.897,69.222,65.291,69.222L65.291,69.222z"/>
<rect x="131.41" y="49.739" fill="none" stroke="#000000" stroke-width="0.4514" stroke-miterlimit="10" width="8.127" height="8.125"/>
<path d="M134.385,54.927c0.021,0.661,0.299,0.992,0.833,0.992c0.257,0,0.465-0.079,0.623-0.238c0.159-0.159,0.238-0.385,0.238-0.679
	c0-0.286-0.102-0.493-0.306-0.623c-0.201-0.132-0.535-0.199-1.004-0.199v-0.809h0.183c0.632,0,0.948-0.251,0.948-0.754
	c0-0.225-0.066-0.407-0.198-0.547c-0.132-0.143-0.316-0.214-0.552-0.214c-0.519,0-0.78,0.31-0.785,0.928h-1.031
	c0-0.568,0.162-1.017,0.487-1.345c0.328-0.331,0.791-0.496,1.389-0.496c0.548,0,0.992,0.141,1.333,0.421
	c0.342,0.28,0.512,0.667,0.512,1.158c0,0.516-0.236,0.894-0.71,1.135c0.593,0.243,0.889,0.69,0.889,1.341
	c0,0.537-0.183,0.978-0.547,1.321c-0.363,0.341-0.85,0.512-1.46,0.512c-0.641,0-1.123-0.162-1.448-0.484
	c-0.325-0.326-0.503-0.799-0.532-1.42H134.385z"/>
<path fill="none" stroke="#000000" stroke-width="0.4514" stroke-miterlimit="10" d="M139.536,78.822
	c0,2.242-1.818,4.062-4.063,4.062c-2.242,0-4.063-1.819-4.063-4.062c0-2.241,1.82-4.063,4.063-4.063
	C137.718,74.759,139.536,76.581,139.536,78.822L139.536,78.822z"/>
<path d="M134.438,79.953c0.021,0.661,0.299,0.992,0.833,0.992c0.257,0,0.465-0.079,0.623-0.238c0.159-0.159,0.238-0.385,0.238-0.679
	c0-0.286-0.102-0.493-0.306-0.623c-0.201-0.132-0.535-0.199-1.004-0.199v-0.809h0.183c0.632,0,0.948-0.251,0.948-0.754
	c0-0.225-0.066-0.407-0.198-0.547c-0.132-0.143-0.316-0.214-0.552-0.214c-0.519,0-0.78,0.31-0.785,0.928h-1.031
	c0-0.568,0.162-1.017,0.487-1.345c0.328-0.331,0.791-0.496,1.389-0.496c0.548,0,0.992,0.141,1.333,0.421
	c0.342,0.28,0.512,0.667,0.512,1.158c0,0.516-0.236,0.894-0.71,1.135c0.593,0.243,0.889,0.69,0.889,1.341
	c0,0.537-0.183,0.978-0.547,1.321c-0.363,0.341-0.85,0.512-1.46,0.512c-0.641,0-1.123-0.162-1.448-0.484
	c-0.325-0.326-0.503-0.799-0.532-1.42H134.438z"/>
<rect x="131.41" y="37.226" fill="none" stroke="#000000" stroke-width="0.4514" stroke-miterlimit="10" width="8.127" height="8.125"/>
<path d="M133.58,42.937c0.222-0.357,0.648-0.768,1.281-1.234c0.523-0.383,0.852-0.673,0.983-0.869
	c0.133-0.196,0.198-0.398,0.198-0.607c0-0.233-0.067-0.431-0.202-0.595c-0.132-0.167-0.332-0.25-0.599-0.25
	c-0.291,0-0.495,0.091-0.611,0.274s-0.175,0.451-0.175,0.805h-1.139v-0.167c0-0.502,0.158-0.939,0.473-1.309
	c0.317-0.37,0.789-0.556,1.416-0.556c0.55,0,1.018,0.156,1.4,0.468c0.384,0.31,0.575,0.754,0.575,1.333
	c0,0.394-0.095,0.738-0.285,1.032c-0.188,0.291-0.561,0.629-1.119,1.016c-0.61,0.423-0.975,0.726-1.091,0.908h2.495v1.012h-3.936
	C133.246,43.715,133.357,43.294,133.58,42.937z"/>
<path fill="none" stroke="#000000" stroke-width="0.4514" stroke-miterlimit="10" d="M139.536,66.252
	c0,2.244-1.82,4.063-4.063,4.063s-4.063-1.819-4.063-4.063c0-2.242,1.82-4.062,4.063-4.062S139.536,64.01,139.536,66.252
	L139.536,66.252z"/>
<path d="M133.755,68.014c0.222-0.357,0.648-0.768,1.281-1.234c0.523-0.383,0.852-0.673,0.983-0.869
	c0.133-0.196,0.198-0.398,0.198-0.607c0-0.233-0.067-0.431-0.202-0.595c-0.132-0.167-0.332-0.25-0.599-0.25
	c-0.291,0-0.495,0.091-0.611,0.274s-0.175,0.451-0.175,0.805h-1.139v-0.167c0-0.502,0.158-0.939,0.473-1.309
	c0.317-0.37,0.789-0.556,1.416-0.556c0.55,0,1.018,0.156,1.4,0.468c0.384,0.31,0.575,0.754,0.575,1.333
	c0,0.394-0.095,0.738-0.285,1.032c-0.188,0.291-0.561,0.629-1.119,1.016c-0.61,0.423-0.975,0.726-1.091,0.908h2.495v1.012h-3.936
	C133.421,68.792,133.532,68.372,133.755,68.014z"/>
<path d="M175.806,58.822c-0.185,0.424-0.278,1.013-0.278,1.767c0,0.594,0.079,1.1,0.235,1.518c0.154,0.416,0.459,0.805,0.914,1.166
	l-0.059,0.104c-1.115-0.68-1.672-1.625-1.672-2.838c0-1.175,0.55-2.135,1.649-2.879l0.082,0.117
	C176.281,58.049,175.99,58.397,175.806,58.822z"/>
<path d="M177.859,58.273c0.013,0,0.023,0.007,0.029,0.02c0.007,0.011,0.01,0.045,0.01,0.102v0.768h0.679v0.215h-0.679v1.927
	c0,0.402,0.111,0.604,0.333,0.604c0.078,0,0.154-0.021,0.229-0.062c0.074-0.044,0.136-0.1,0.186-0.167l0.088,0.075
	c-0.074,0.133-0.184,0.249-0.33,0.35c-0.144,0.1-0.297,0.15-0.46,0.15c-0.405,0-0.607-0.292-0.607-0.875v-2.002h-0.284
	c-0.063,0-0.095-0.017-0.095-0.049c0-0.026,0.026-0.058,0.078-0.095c0.174-0.117,0.324-0.264,0.451-0.438
	C177.615,58.62,177.739,58.445,177.859,58.273z"/>
<path d="M178.923,60.663c0-0.441,0.131-0.813,0.392-1.113c0.263-0.3,0.61-0.45,1.042-0.45c0.466,0,0.833,0.141,1.1,0.421
	c0.27,0.279,0.405,0.652,0.405,1.12c0,0.45-0.139,0.833-0.418,1.146c-0.276,0.312-0.626,0.468-1.051,0.468
	c-0.438,0-0.792-0.152-1.064-0.458C179.059,61.489,178.923,61.112,178.923,60.663z M179.511,60.33c0,0.469,0.084,0.875,0.251,1.222
	c0.167,0.344,0.4,0.516,0.699,0.516c0.25,0,0.448-0.103,0.594-0.307c0.146-0.207,0.219-0.514,0.219-0.921
	c0-0.444-0.088-0.814-0.265-1.11s-0.409-0.443-0.699-0.443c-0.252,0-0.449,0.099-0.591,0.297
	C179.581,59.781,179.511,60.03,179.511,60.33z"/>
<path d="M184.474,58.287l1.202-0.627l0.055,0.013v4.022c0,0.15,0.037,0.255,0.111,0.313c0.074,0.057,0.25,0.085,0.529,0.085v0.098
	h-1.854v-0.098c0.25-0.009,0.419-0.046,0.506-0.111c0.089-0.065,0.134-0.203,0.134-0.415V58.55c0-0.128-0.021-0.212-0.062-0.251
	c-0.039-0.041-0.093-0.063-0.163-0.063c-0.054,0-0.112,0.013-0.173,0.036c-0.061,0.022-0.156,0.059-0.284,0.111V58.287z"/>
<path d="M187.634,63.112l-0.059-0.128c0.203-0.128,0.346-0.253,0.431-0.375s0.127-0.225,0.127-0.307
	c0-0.039-0.008-0.065-0.023-0.079c-0.015-0.015-0.038-0.022-0.069-0.022c-0.015,0-0.038,0.004-0.068,0.013
	c-0.03,0.007-0.061,0.01-0.091,0.01c-0.137,0-0.242-0.028-0.313-0.084c-0.072-0.057-0.108-0.143-0.108-0.259
	c0-0.115,0.035-0.209,0.104-0.28c0.072-0.072,0.167-0.107,0.284-0.107c0.159,0,0.288,0.058,0.389,0.173
	c0.1,0.113,0.15,0.265,0.15,0.453c0,0.198-0.083,0.398-0.248,0.602C187.977,62.92,187.808,63.05,187.634,63.112z"/>
<path d="M191.44,59.882c0.745-0.229,1.117-0.605,1.117-1.133c0-0.193-0.069-0.356-0.206-0.489c-0.137-0.133-0.315-0.199-0.532-0.199
	c-0.425,0-0.755,0.231-0.993,0.695l-0.098-0.026c0.118-0.342,0.282-0.604,0.493-0.79c0.213-0.187,0.485-0.28,0.816-0.28
	c0.317,0,0.569,0.085,0.754,0.254c0.185,0.17,0.278,0.392,0.278,0.663c0,0.349-0.207,0.654-0.621,0.918
	c0.564,0.215,0.846,0.63,0.846,1.243c0,0.477-0.173,0.854-0.519,1.13s-0.784,0.415-1.313,0.415c-0.205,0-0.38-0.032-0.526-0.095
	c-0.146-0.063-0.219-0.161-0.219-0.294c0-0.159,0.089-0.238,0.268-0.238c0.089,0,0.234,0.065,0.434,0.195
	c0.196,0.129,0.359,0.193,0.49,0.193c0.252,0,0.46-0.093,0.624-0.278c0.166-0.187,0.248-0.438,0.248-0.751
	c0-0.417-0.171-0.72-0.513-0.907c-0.163-0.092-0.347-0.137-0.552-0.137h-0.268L191.44,59.882z"/>
<path d="M194.32,63.112l-0.059-0.128c0.203-0.128,0.346-0.253,0.431-0.375s0.127-0.225,0.127-0.307c0-0.039-0.008-0.065-0.023-0.079
	c-0.015-0.015-0.038-0.022-0.069-0.022c-0.015,0-0.038,0.004-0.068,0.013c-0.03,0.007-0.061,0.01-0.091,0.01
	c-0.137,0-0.242-0.028-0.313-0.084c-0.072-0.057-0.108-0.143-0.108-0.259c0-0.115,0.035-0.209,0.104-0.28
	c0.072-0.072,0.167-0.107,0.284-0.107c0.159,0,0.288,0.058,0.389,0.173c0.1,0.113,0.15,0.265,0.15,0.453
	c0,0.198-0.083,0.398-0.248,0.602C194.663,62.92,194.494,63.05,194.32,63.112z"/>
<path d="M197.973,61.681h1.57c0.166,0,0.292-0.033,0.379-0.101c0.087-0.069,0.173-0.18,0.258-0.33l0.091,0.033l-0.369,0.907h-2.585
	v-0.088l1.169-1.261c0.579-0.624,0.868-1.202,0.868-1.733c0-0.287-0.081-0.518-0.242-0.692c-0.161-0.176-0.392-0.264-0.692-0.264
	c-0.215,0-0.399,0.069-0.552,0.208c-0.152,0.138-0.285,0.356-0.398,0.656l-0.144-0.032c0.07-0.39,0.224-0.707,0.463-0.953
	c0.242-0.248,0.559-0.372,0.95-0.372c0.331,0,0.612,0.116,0.842,0.349c0.231,0.233,0.346,0.52,0.346,0.859
	c0,0.498-0.309,1.074-0.927,1.727L197.973,61.681z"/>
<path d="M200.657,57.777l0.082-0.117c1.099,0.744,1.649,1.704,1.649,2.879c0,1.213-0.557,2.158-1.671,2.838l-0.059-0.104
	c0.455-0.361,0.76-0.75,0.914-1.166c0.157-0.418,0.235-0.924,0.235-1.518c0-0.754-0.093-1.343-0.278-1.767
	C201.343,58.397,201.053,58.049,200.657,57.777z"/>
<path fill="none" stroke="#000000" stroke-width="0.9878" stroke-miterlimit="10" d="M247.666,57.625
	c0,5.889-4.824,10.669-10.769,10.669c-5.941,0-10.764-4.78-10.764-10.669s4.822-10.669,10.764-10.669
	C242.842,46.957,247.666,51.737,247.666,57.625L247.666,57.625z"/>
<path d="M235.813,56.892c0.304-0.407,0.754-0.611,1.352-0.611c0.634,0,1.154,0.207,1.563,0.621s0.612,0.958,0.612,1.631
	c0,0.716-0.211,1.314-0.632,1.796c-0.421,0.479-1.008,0.719-1.758,0.719c-1.695,0-2.542-1.181-2.542-3.543
	c0-1.324,0.233-2.264,0.7-2.82c0.467-0.561,1.096-0.84,1.886-0.84c0.62,0,1.124,0.141,1.513,0.422
	c0.392,0.281,0.625,0.736,0.7,1.364h-1.405c-0.075-0.446-0.341-0.67-0.798-0.67c-0.362,0-0.637,0.14-0.823,0.417
	C235.994,55.653,235.871,56.158,235.813,56.892z M235.832,58.606c0,0.389,0.102,0.707,0.304,0.956
	c0.206,0.246,0.474,0.369,0.804,0.369c0.3,0,0.54-0.115,0.72-0.345c0.183-0.233,0.274-0.56,0.274-0.98
	c0-0.362-0.094-0.653-0.279-0.874c-0.184-0.223-0.435-0.335-0.755-0.335c-0.319,0-0.577,0.105-0.773,0.315
	C235.931,57.923,235.832,58.221,235.832,58.606z"/>
<rect x="283.674" y="42.979" fill="none" stroke="#000000" stroke-width="0.4514" stroke-miterlimit="10" width="8.127" height="8.125"/>
<path d="M286.649,48.167c0.021,0.661,0.299,0.992,0.832,0.992c0.258,0,0.465-0.079,0.623-0.238c0.16-0.159,0.238-0.385,0.238-0.679
	c0-0.286-0.102-0.493-0.305-0.623c-0.201-0.132-0.535-0.199-1.004-0.199v-0.809h0.182c0.633,0,0.949-0.251,0.949-0.754
	c0-0.225-0.066-0.407-0.199-0.547c-0.131-0.143-0.316-0.214-0.551-0.214c-0.52,0-0.781,0.31-0.785,0.928h-1.031
	c0-0.568,0.162-1.017,0.486-1.345c0.328-0.331,0.791-0.496,1.389-0.496c0.549,0,0.992,0.141,1.334,0.421s0.512,0.667,0.512,1.158
	c0,0.516-0.236,0.894-0.711,1.135c0.594,0.243,0.889,0.69,0.889,1.341c0,0.537-0.182,0.978-0.547,1.321
	c-0.363,0.341-0.85,0.512-1.459,0.512c-0.641,0-1.123-0.162-1.449-0.484c-0.324-0.326-0.502-0.799-0.531-1.42H286.649z"/>
<path fill="none" stroke="#000000" stroke-width="0.4514" stroke-miterlimit="10" d="M291.801,75.366
	c0,2.242-1.818,4.062-4.063,4.062c-2.242,0-4.063-1.819-4.063-4.062c0-2.241,1.82-4.063,4.063-4.063
	C289.982,71.303,291.801,73.125,291.801,75.366L291.801,75.366z"/>
<path d="M286.703,76.497c0.021,0.661,0.299,0.992,0.833,0.992c0.257,0,0.465-0.079,0.623-0.238c0.159-0.159,0.238-0.385,0.238-0.679
	c0-0.286-0.102-0.493-0.306-0.623c-0.201-0.132-0.535-0.199-1.004-0.199v-0.809h0.183c0.632,0,0.948-0.251,0.948-0.754
	c0-0.225-0.066-0.407-0.198-0.547c-0.132-0.143-0.316-0.214-0.552-0.214c-0.519,0-0.78,0.31-0.785,0.928h-1.031
	c0-0.568,0.162-1.017,0.487-1.345c0.328-0.331,0.791-0.496,1.389-0.496c0.548,0,0.992,0.141,1.333,0.421
	c0.342,0.28,0.512,0.667,0.512,1.158c0,0.516-0.236,0.894-0.71,1.135c0.593,0.243,0.889,0.69,0.889,1.341
	c0,0.537-0.183,0.978-0.547,1.321c-0.363,0.341-0.85,0.512-1.46,0.512c-0.641,0-1.123-0.162-1.448-0.484
	c-0.325-0.326-0.503-0.799-0.532-1.42H286.703z"/>
<rect x="298.968" y="42.979" fill="none" stroke="#000000" stroke-width="0.4514" stroke-miterlimit="10" width="8.127" height="8.125"/>
<path d="M301.138,48.69c0.222-0.357,0.648-0.768,1.281-1.234c0.523-0.383,0.852-0.673,0.983-0.869
	c0.133-0.196,0.198-0.398,0.198-0.607c0-0.233-0.067-0.431-0.202-0.595c-0.132-0.167-0.332-0.25-0.599-0.25
	c-0.291,0-0.495,0.091-0.611,0.274s-0.175,0.451-0.175,0.805h-1.139v-0.167c0-0.502,0.158-0.939,0.473-1.309
	c0.317-0.37,0.789-0.556,1.416-0.556c0.55,0,1.018,0.156,1.4,0.468c0.384,0.31,0.575,0.754,0.575,1.333
	c0,0.394-0.095,0.738-0.285,1.032c-0.188,0.291-0.561,0.629-1.119,1.016c-0.61,0.423-0.975,0.726-1.091,0.908h2.495v1.012h-3.936
	C300.804,49.468,300.915,49.047,301.138,48.69z"/>
<path fill="none" stroke="#000000" stroke-width="0.4514" stroke-miterlimit="10" d="M307.093,75.36c0,2.244-1.82,4.063-4.063,4.063
	s-4.063-1.819-4.063-4.063c0-2.242,1.82-4.062,4.063-4.062S307.093,73.118,307.093,75.36L307.093,75.36z"/>
<path d="M301.312,77.122c0.222-0.357,0.648-0.768,1.281-1.234c0.523-0.383,0.852-0.673,0.983-0.869
	c0.133-0.196,0.198-0.398,0.198-0.607c0-0.233-0.067-0.431-0.202-0.595c-0.132-0.167-0.332-0.25-0.599-0.25
	c-0.291,0-0.495,0.091-0.611,0.274s-0.175,0.451-0.175,0.805h-1.139V74.48c0-0.502,0.158-0.939,0.473-1.309
	c0.317-0.37,0.789-0.556,1.416-0.556c0.55,0,1.018,0.156,1.4,0.468c0.384,0.31,0.575,0.754,0.575,1.333
	c0,0.394-0.095,0.738-0.285,1.032c-0.188,0.291-0.561,0.629-1.119,1.016c-0.61,0.423-0.975,0.726-1.091,0.908h2.495v1.012h-3.936
	C300.978,77.9,301.089,77.479,301.312,77.122z"/>
<rect x="268.875" y="42.969" fill="none" stroke="#000000" stroke-width="0.4514" stroke-miterlimit="10" width="8.125" height="8.124"/>
<path d="M271.235,45.456c0.568,0,0.97-0.094,1.202-0.282c0.232-0.188,0.363-0.42,0.393-0.698h0.94v5.769h-1.139v-3.991h-1.396
	V45.456z"/>
<path fill="none" stroke="#000000" stroke-width="0.4514" stroke-miterlimit="10" d="M277,75.36c0,2.243-1.82,4.063-4.063,4.063
	s-4.063-1.82-4.063-4.063c0-2.241,1.82-4.062,4.063-4.062S277,73.119,277,75.36L277,75.36z"/>
<path d="M271.179,73.594c0.568,0,0.97-0.094,1.202-0.282c0.232-0.188,0.363-0.42,0.393-0.698h0.94v5.769h-1.139v-3.991h-1.396
	V73.594z"/>
<line fill="none" stroke="#000000" stroke-width="0.5572" stroke-miterlimit="10" x1="356.145" y1="48.418" x2="352.734" y2="50.367"/>
<line fill="none" stroke="#000000" stroke-width="0.5572" stroke-miterlimit="10" x1="359.496" y1="50.367" x2="356.086" y2="48.418"/>
<line fill="none" stroke="#000000" stroke-width="0.3212" stroke-miterlimit="10" x1="269.299" y1="52.87" x2="269.299" y2="61.386"/>
<polyline fill-rule="evenodd" clip-rule="evenodd" points="268.3,57.87 269.3,61.871 270.3,57.87 268.3,57.87 "/>
<polygon fill="none" stroke="#000000" stroke-width="0.5" stroke-miterlimit="10" points="268.3,57.87 269.3,61.871 270.3,57.87 "/>
<path fill="none" stroke="#000000" stroke-width="0.5669" stroke-miterlimit="10" d="M275.534,59.805
	c5.481,2.899,5.454,5.135,2.883,8.234"/>
<polygon fill-rule="evenodd" clip-rule="evenodd" stroke="#000000" stroke-width="0.2411" stroke-miterlimit="10" points="
	276.701,61.766 274.375,58.528 277.95,60.292 276.701,61.766 "/>
<line fill="none" stroke="#000000" stroke-width="0.3212" stroke-miterlimit="10" x1="283.677" y1="67.54" x2="283.677" y2="59.023"/>
<polyline fill-rule="evenodd" clip-rule="evenodd" points="284.676,62.54 283.676,58.539 282.676,62.54 284.676,62.54 "/>
<polygon fill="none" stroke="#000000" stroke-width="0.5" stroke-miterlimit="10" points="284.676,62.54 283.676,58.539 
	282.676,62.54 "/>
<path fill="none" stroke="#000000" stroke-width="0.5669" stroke-miterlimit="10" stroke-dasharray="1.43" d="M289.769,62.627
	c5.481-2.899,5.454-5.135,2.883-8.234"/>
<polygon fill-rule="evenodd" clip-rule="evenodd" stroke="#000000" stroke-width="0.2411" stroke-miterlimit="10" points="
	290.936,60.667 288.609,63.904 292.185,62.141 290.936,60.667 "/>
<line fill="none" stroke="#000000" stroke-width="0.3212" stroke-miterlimit="10" x1="298.867" y1="52.955" x2="298.867" y2="61.471"/>
<polyline fill-rule="evenodd" clip-rule="evenodd" points="297.868,57.955 298.868,61.956 299.868,57.955 297.868,57.955 "/>
<polygon fill="none" stroke="#000000" stroke-width="0.5" stroke-miterlimit="10" points="297.868,57.955 298.868,61.956 
	299.868,57.955 "/>
<path fill="none" stroke="#000000" stroke-width="0.5669" stroke-miterlimit="10" d="M305.103,59.89
	c5.481,2.899,5.454,5.135,2.883,8.234"/>
<polygon fill-rule="evenodd" clip-rule="evenodd" stroke="#000000" stroke-width="0.2411" stroke-miterlimit="10" points="
	306.27,61.851 303.943,58.613 307.519,60.376 306.27,61.851 "/>
<rect x="356.988" y="50.748" fill="none" stroke="#000000" stroke-width="0.4514" stroke-miterlimit="10" width="8.127" height="8.125"/>
<path d="M359.964,55.936c0.021,0.661,0.299,0.992,0.832,0.992c0.258,0,0.465-0.079,0.623-0.238c0.16-0.159,0.238-0.385,0.238-0.679
	c0-0.286-0.102-0.493-0.305-0.623c-0.201-0.132-0.535-0.199-1.004-0.199V54.38h0.182c0.633,0,0.949-0.251,0.949-0.754
	c0-0.225-0.066-0.407-0.199-0.547c-0.131-0.143-0.316-0.214-0.551-0.214c-0.52,0-0.781,0.31-0.785,0.928h-1.031
	c0-0.568,0.162-1.017,0.486-1.345c0.328-0.331,0.791-0.496,1.389-0.496c0.549,0,0.992,0.141,1.334,0.421s0.512,0.667,0.512,1.158
	c0,0.516-0.236,0.894-0.711,1.135c0.594,0.243,0.889,0.69,0.889,1.341c0,0.537-0.182,0.978-0.547,1.321
	c-0.363,0.341-0.85,0.512-1.459,0.512c-0.641,0-1.123-0.162-1.449-0.484c-0.324-0.326-0.502-0.799-0.531-1.42H359.964z"/>
<rect x="370.282" y="50.748" fill="none" stroke="#000000" stroke-width="0.4514" stroke-miterlimit="10" width="8.127" height="8.125"/>
<path d="M372.452,56.459c0.222-0.357,0.648-0.768,1.281-1.234c0.523-0.383,0.852-0.673,0.983-0.869
	c0.133-0.196,0.198-0.398,0.198-0.607c0-0.233-0.067-0.431-0.202-0.595c-0.132-0.167-0.332-0.25-0.599-0.25
	c-0.291,0-0.495,0.091-0.611,0.274s-0.175,0.451-0.175,0.805h-1.139v-0.167c0-0.502,0.158-0.939,0.473-1.309
	c0.317-0.37,0.789-0.556,1.416-0.556c0.55,0,1.018,0.156,1.4,0.468c0.384,0.31,0.575,0.754,0.575,1.333
	c0,0.394-0.095,0.738-0.285,1.032c-0.188,0.291-0.561,0.629-1.119,1.016c-0.61,0.423-0.975,0.726-1.091,0.908h2.495v1.012h-3.936
	C372.118,57.237,372.229,56.816,372.452,56.459z"/>
<rect x="325.189" y="50.737" fill="none" stroke="#000000" stroke-width="0.4514" stroke-miterlimit="10" width="8.125" height="8.124"/>
<path d="M327.55,53.225c0.568,0,0.97-0.094,1.202-0.282c0.232-0.188,0.363-0.42,0.393-0.698h0.94v5.769h-1.139v-3.991h-1.396V53.225
	z"/>
<path fill="none" stroke="#000000" stroke-width="0.4514" stroke-miterlimit="10" d="M355.883,54.805
	c0,2.242-1.818,4.062-4.063,4.062c-2.242,0-4.063-1.819-4.063-4.062c0-2.241,1.82-4.063,4.063-4.063
	C354.064,50.741,355.883,52.563,355.883,54.805L355.883,54.805z"/>
<path d="M350.785,55.936c0.021,0.661,0.299,0.992,0.833,0.992c0.257,0,0.465-0.079,0.623-0.238c0.159-0.159,0.238-0.385,0.238-0.679
	c0-0.286-0.102-0.493-0.306-0.623c-0.201-0.132-0.535-0.199-1.004-0.199V54.38h0.183c0.632,0,0.948-0.251,0.948-0.754
	c0-0.225-0.066-0.407-0.198-0.547c-0.132-0.143-0.316-0.214-0.552-0.214c-0.519,0-0.78,0.31-0.785,0.928h-1.031
	c0-0.568,0.162-1.017,0.487-1.345c0.328-0.331,0.791-0.496,1.389-0.496c0.548,0,0.992,0.141,1.333,0.421
	c0.342,0.28,0.512,0.667,0.512,1.158c0,0.516-0.236,0.894-0.71,1.135c0.593,0.243,0.889,0.69,0.889,1.341
	c0,0.537-0.183,0.978-0.547,1.321c-0.363,0.341-0.85,0.512-1.46,0.512c-0.641,0-1.123-0.162-1.448-0.484
	c-0.325-0.326-0.503-0.799-0.532-1.42H350.785z"/>
<path fill="none" stroke="#000000" stroke-width="0.4514" stroke-miterlimit="10" d="M388.175,54.799
	c0,2.244-1.82,4.063-4.063,4.063s-4.063-1.819-4.063-4.063c0-2.242,1.82-4.062,4.063-4.062S388.175,52.557,388.175,54.799
	L388.175,54.799z"/>
<path d="M382.394,56.561c0.222-0.357,0.648-0.768,1.281-1.234c0.523-0.383,0.852-0.673,0.983-0.869
	c0.133-0.196,0.198-0.398,0.198-0.607c0-0.233-0.067-0.431-0.202-0.595c-0.132-0.167-0.332-0.25-0.599-0.25
	c-0.291,0-0.495,0.091-0.611,0.274s-0.175,0.451-0.175,0.805h-1.139v-0.167c0-0.502,0.158-0.939,0.473-1.309
	c0.317-0.37,0.789-0.556,1.416-0.556c0.55,0,1.018,0.156,1.4,0.468c0.384,0.31,0.575,0.754,0.575,1.333
	c0,0.394-0.095,0.738-0.285,1.032c-0.188,0.291-0.561,0.629-1.119,1.016c-0.61,0.423-0.975,0.726-1.091,0.908h2.495v1.012h-3.936
	C382.06,57.338,382.171,56.918,382.394,56.561z"/>
<path fill="none" stroke="#000000" stroke-width="0.4514" stroke-miterlimit="10" d="M343.082,54.799
	c0,2.243-1.82,4.063-4.063,4.063s-4.063-1.82-4.063-4.063c0-2.241,1.82-4.062,4.063-4.062S343.082,52.558,343.082,54.799
	L343.082,54.799z"/>
<path d="M337.261,53.033c0.568,0,0.97-0.094,1.202-0.282c0.232-0.188,0.363-0.42,0.393-0.698h0.94v5.769h-1.139V53.83h-1.396V53.033
	z"/>
<line fill="none" stroke="#000000" stroke-width="0.5572" stroke-miterlimit="10" x1="378.38" y1="60.81" x2="381.79" y2="58.861"/>
<line fill="none" stroke="#000000" stroke-width="0.5572" stroke-miterlimit="10" x1="375.028" y1="58.861" x2="378.438" y2="60.81"/>
<line fill="none" stroke="#000000" stroke-width="0.5572" stroke-miterlimit="10" x1="333.285" y1="60.81" x2="336.695" y2="58.861"/>
<line fill="none" stroke="#000000" stroke-width="0.5572" stroke-miterlimit="10" x1="329.934" y1="58.861" x2="333.344" y2="60.81"/>
<path fill="none" stroke="#000000" stroke-width="0.5572" stroke-linejoin="bevel" stroke-miterlimit="10" d="M362.81,65.238
	c3.691,0,6.688,2.997,6.688,6.688c0,3.689-2.996,6.686-6.688,6.686c-3.689,0-6.686-2.996-6.686-6.686
	C356.124,68.235,359.12,65.238,362.81,65.238L362.81,65.238z M349.435,65.238c3.691,0,6.688,2.997,6.688,6.688
	c0,3.689-2.996,6.686-6.688,6.686c-3.689,0-6.686-2.996-6.686-6.686C342.749,68.235,345.745,65.238,349.435,65.238L349.435,65.238z"
	/>
<line fill="none" stroke="#000000" stroke-width="0.5572" stroke-miterlimit="10" x1="356.142" y1="73.625" x2="362.827" y2="85.327"/>
<line fill="none" stroke="#000000" stroke-width="0.556" stroke-miterlimit="10" x1="372.892" y1="71.925" x2="339.339" y2="71.925"/>
<path d="M279.829,84.572c-0.186,0.424-0.278,1.013-0.278,1.767c0,0.594,0.079,1.1,0.235,1.518c0.154,0.416,0.459,0.805,0.914,1.166
	l-0.059,0.104c-1.115-0.68-1.672-1.625-1.672-2.838c0-1.175,0.55-2.135,1.648-2.879l0.082,0.117
	C280.304,83.799,280.013,84.147,279.829,84.572z"/>
<path d="M281.624,84.037l1.201-0.627l0.056,0.013v4.022c0,0.15,0.037,0.255,0.111,0.313c0.073,0.057,0.25,0.085,0.528,0.085v0.098
	h-1.854v-0.098c0.25-0.009,0.418-0.046,0.506-0.111c0.089-0.065,0.133-0.203,0.133-0.415V84.3c0-0.128-0.02-0.212-0.062-0.251
	c-0.039-0.041-0.093-0.063-0.163-0.063c-0.055,0-0.112,0.013-0.173,0.036c-0.062,0.022-0.155,0.059-0.284,0.111V84.037z"/>
<path d="M286.936,85.423c0.04-0.104,0.146-0.226,0.317-0.365s0.371-0.209,0.598-0.209c0.348,0,0.631,0.142,0.848,0.425
	c0.219,0.28,0.327,0.632,0.327,1.054c0,0.464-0.152,0.859-0.457,1.186c-0.303,0.326-0.686,0.49-1.149,0.49
	c-0.195,0-0.419-0.042-0.67-0.125c-0.25-0.084-0.375-0.19-0.375-0.316v-3.457c0-0.124-0.021-0.217-0.064-0.277
	c-0.042-0.063-0.128-0.095-0.258-0.095c-0.035,0-0.082,0.002-0.141,0.006v-0.101c0.408-0.106,0.734-0.205,0.976-0.294l0.049,0.017
	V85.423z M286.936,87.497c0,0.094,0.069,0.169,0.209,0.226c0.142,0.055,0.285,0.082,0.431,0.082c0.277,0,0.489-0.1,0.637-0.298
	c0.15-0.2,0.226-0.499,0.226-0.897c0-0.396-0.075-0.721-0.226-0.973c-0.15-0.253-0.354-0.379-0.613-0.379
	c-0.174,0-0.328,0.052-0.464,0.156c-0.133,0.103-0.199,0.226-0.199,0.369V87.497z"/>
<path d="M291.144,85.969v-0.389c0-0.363-0.164-0.545-0.496-0.545c-0.123,0-0.233,0.031-0.329,0.095
	c-0.096,0.061-0.144,0.135-0.144,0.222c0,0.032,0.006,0.074,0.016,0.124c0.014,0.048,0.02,0.094,0.02,0.137
	c0,0.083-0.029,0.15-0.088,0.203c-0.059,0.052-0.127,0.078-0.205,0.078c-0.09,0-0.162-0.026-0.216-0.078
	c-0.052-0.055-0.078-0.127-0.078-0.216c0-0.179,0.095-0.349,0.284-0.51c0.191-0.16,0.451-0.241,0.779-0.241
	c0.354,0,0.611,0.075,0.774,0.226c0.163,0.149,0.245,0.417,0.245,0.8v1.358c0,0.139,0.014,0.238,0.042,0.297
	c0.028,0.057,0.076,0.085,0.144,0.085c0.057,0,0.11-0.011,0.16-0.033c0.053-0.021,0.102-0.056,0.146-0.101v0.183
	c-0.115,0.124-0.219,0.212-0.31,0.265c-0.089,0.05-0.188,0.075-0.294,0.075c-0.276,0-0.424-0.157-0.441-0.471
	c-0.348,0.313-0.664,0.471-0.949,0.471c-0.207,0-0.377-0.066-0.51-0.199c-0.131-0.136-0.195-0.296-0.195-0.483
	c0-0.34,0.148-0.604,0.443-0.79C290.241,86.341,290.642,86.154,291.144,85.969z M291.144,86.129
	c-0.42,0.156-0.701,0.309-0.845,0.457c-0.142,0.146-0.212,0.31-0.212,0.492c0,0.161,0.041,0.291,0.123,0.389
	c0.086,0.099,0.188,0.147,0.308,0.147c0.108,0,0.209-0.021,0.3-0.063c0.094-0.043,0.172-0.095,0.235-0.153
	c0.026-0.021,0.048-0.049,0.065-0.082c0.018-0.034,0.025-0.104,0.025-0.209V86.129z"/>
<path d="M292.268,87.941v-0.102c0.169-0.025,0.289-0.067,0.358-0.124c0.07-0.059,0.105-0.181,0.105-0.365v-1.652
	c0-0.274-0.076-0.411-0.226-0.411c-0.083,0-0.162,0.009-0.238,0.026v-0.102c0.324-0.115,0.655-0.236,0.992-0.362l0.032,0.02v0.607
	c0.279-0.418,0.543-0.627,0.794-0.627c0.108,0,0.194,0.031,0.258,0.095c0.065,0.063,0.099,0.158,0.099,0.284
	c0,0.098-0.027,0.173-0.079,0.226c-0.052,0.05-0.11,0.074-0.177,0.074c-0.094,0-0.176-0.042-0.248-0.127
	c-0.071-0.087-0.141-0.131-0.205-0.131c-0.083,0-0.178,0.064-0.284,0.193c-0.104,0.128-0.157,0.245-0.157,0.353v1.479
	c0,0.202,0.037,0.34,0.108,0.411c0.073,0.072,0.229,0.117,0.464,0.134v0.102H292.268z"/>
<path d="M294.644,83.527l0.082-0.117c1.1,0.744,1.648,1.704,1.648,2.879c0,1.213-0.557,2.158-1.671,2.838l-0.06-0.104
	c0.455-0.361,0.76-0.75,0.914-1.166c0.157-0.418,0.236-0.924,0.236-1.518c0-0.754-0.094-1.343-0.278-1.767
	C295.331,84.147,295.04,83.799,294.644,83.527z"/>
<path d="M267.833,30.65l0.043-1.149h3.73l0.043,1.149h-0.15c-0.072-0.37-0.178-0.61-0.316-0.722c-0.137-0.11-0.341-0.166-0.61-0.166
	h-0.489v3.425c0,0.234,0.035,0.392,0.107,0.47c0.074,0.078,0.178,0.124,0.313,0.138l0.196,0.02v0.127h-1.917v-0.127l0.17-0.02
	c0.18-0.022,0.298-0.073,0.356-0.154c0.062-0.082,0.091-0.251,0.091-0.506v-3.372h-0.467c-0.35,0-0.586,0.082-0.708,0.248
	c-0.122,0.163-0.202,0.376-0.241,0.64H267.833z"/>
<path d="M271.982,32.413c0-0.441,0.131-0.813,0.392-1.113c0.264-0.3,0.611-0.45,1.042-0.45c0.466,0,0.833,0.141,1.101,0.421
	c0.27,0.279,0.404,0.652,0.404,1.12c0,0.45-0.139,0.833-0.418,1.146c-0.276,0.312-0.627,0.468-1.051,0.468
	c-0.438,0-0.793-0.152-1.064-0.458C272.118,33.239,271.982,32.862,271.982,32.413z M272.57,32.08c0,0.469,0.084,0.875,0.251,1.222
	c0.168,0.344,0.4,0.516,0.699,0.516c0.25,0,0.448-0.103,0.594-0.307c0.146-0.207,0.219-0.514,0.219-0.921
	c0-0.444-0.088-0.814-0.264-1.11c-0.177-0.296-0.41-0.443-0.699-0.443c-0.252,0-0.449,0.099-0.591,0.297
	C272.64,31.531,272.57,31.78,272.57,32.08z"/>
<path d="M275.195,31.012v-0.101h0.974v2.196c0,0.157,0.041,0.285,0.127,0.386c0.084,0.098,0.213,0.146,0.385,0.146
	c0.133,0,0.255-0.031,0.365-0.095c0.113-0.064,0.193-0.12,0.238-0.166c0.031-0.03,0.055-0.068,0.072-0.114
	c0.018-0.048,0.026-0.127,0.026-0.238V31.43c0-0.144-0.029-0.249-0.089-0.316c-0.059-0.067-0.184-0.102-0.375-0.102v-0.101h1.025
	v2.317c0,0.142,0.029,0.238,0.088,0.291c0.059,0.05,0.184,0.075,0.375,0.075v0.101c-0.137,0.033-0.454,0.131-0.953,0.294h-0.035
	v-0.562l-0.301,0.297c-0.186,0.186-0.42,0.278-0.705,0.278c-0.229,0-0.42-0.079-0.574-0.235c-0.154-0.157-0.232-0.37-0.232-0.64
	V31.43c0-0.152-0.031-0.258-0.094-0.316C275.448,31.055,275.343,31.021,275.195,31.012z"/>
<path d="M278.522,33.941v-0.102c0.17-0.025,0.289-0.067,0.359-0.124c0.069-0.059,0.104-0.181,0.104-0.365v-1.652
	c0-0.274-0.074-0.411-0.225-0.411c-0.083,0-0.162,0.009-0.238,0.026v-0.102c0.324-0.115,0.654-0.236,0.992-0.362l0.033,0.02v0.607
	c0.278-0.418,0.543-0.627,0.793-0.627c0.109,0,0.195,0.031,0.258,0.095c0.065,0.063,0.098,0.158,0.098,0.284
	c0,0.098-0.025,0.173-0.078,0.226c-0.053,0.05-0.111,0.074-0.176,0.074c-0.094,0-0.177-0.042-0.248-0.127
	c-0.072-0.087-0.141-0.131-0.206-0.131c-0.083,0-0.178,0.064-0.284,0.193c-0.104,0.128-0.156,0.245-0.156,0.353v1.479
	c0,0.202,0.035,0.34,0.107,0.411c0.074,0.072,0.229,0.117,0.463,0.134v0.102H278.522z"/>
<path d="M280.774,33.839c0.155-0.004,0.271-0.034,0.347-0.091c0.078-0.059,0.118-0.186,0.118-0.379v-1.639
	c0-0.194-0.021-0.315-0.063-0.366c-0.041-0.052-0.103-0.078-0.184-0.078c-0.064,0-0.138,0.009-0.219,0.026v-0.102
	c0.462-0.161,0.783-0.281,0.964-0.362l0.046,0.013v0.51c0.224-0.202,0.403-0.34,0.538-0.411c0.138-0.074,0.286-0.111,0.447-0.111
	c0.244,0,0.438,0.087,0.585,0.261c0.147,0.173,0.222,0.417,0.222,0.735v1.524c0,0.188,0.037,0.312,0.11,0.372
	c0.076,0.059,0.194,0.092,0.354,0.098v0.102h-1.482v-0.102c0.135-0.004,0.244-0.039,0.33-0.104c0.084-0.064,0.127-0.222,0.127-0.47
	v-1.339c0-0.27-0.045-0.456-0.134-0.558c-0.087-0.104-0.218-0.157-0.392-0.157c-0.107,0-0.215,0.03-0.324,0.092
	c-0.105,0.061-0.229,0.152-0.365,0.274v1.896c0,0.235,0.152,0.356,0.457,0.365v0.102h-1.482V33.839z"/>
<path d="M284.677,32.08c0.013,0.405,0.109,0.75,0.291,1.035s0.441,0.428,0.776,0.428c0.425,0,0.774-0.229,1.048-0.688l0.098,0.046
	c-0.096,0.291-0.273,0.548-0.531,0.771c-0.26,0.222-0.546,0.333-0.859,0.333c-0.4,0-0.715-0.131-0.943-0.393
	c-0.229-0.263-0.343-0.642-0.343-1.136c0-0.507,0.133-0.904,0.398-1.191c0.268-0.29,0.597-0.435,0.989-0.435
	c0.344,0,0.615,0.105,0.813,0.316c0.198,0.209,0.316,0.514,0.354,0.914H284.677z M284.692,31.865h1.389
	c-0.06-0.516-0.266-0.774-0.617-0.774c-0.244,0-0.425,0.069-0.543,0.206C284.804,31.433,284.728,31.623,284.692,31.865z
	 M285.265,30.536h-0.268l0.998-0.982c0.051-0.053,0.096-0.093,0.138-0.121c0.044-0.03,0.091-0.046,0.144-0.046
	c0.074,0,0.131,0.02,0.173,0.059c0.042,0.04,0.062,0.092,0.062,0.157c0,0.055-0.02,0.106-0.059,0.156
	c-0.039,0.051-0.094,0.098-0.166,0.141L285.265,30.536z"/>
<path d="M287.644,32.08c0.014,0.405,0.11,0.75,0.291,1.035c0.184,0.285,0.441,0.428,0.777,0.428c0.424,0,0.773-0.229,1.048-0.688
	l0.099,0.046c-0.096,0.291-0.273,0.548-0.533,0.771c-0.259,0.222-0.545,0.333-0.858,0.333c-0.4,0-0.715-0.131-0.943-0.393
	c-0.229-0.263-0.343-0.642-0.343-1.136c0-0.507,0.133-0.904,0.398-1.191c0.268-0.29,0.598-0.435,0.989-0.435
	c0.344,0,0.614,0.105,0.813,0.316c0.197,0.209,0.314,0.514,0.352,0.914H287.644z M287.661,31.865h1.387
	c-0.059-0.516-0.264-0.774-0.617-0.774c-0.243,0-0.424,0.069-0.541,0.206C287.771,31.433,287.695,31.623,287.661,31.865z"/>
<path d="M291.816,30.912h0.522c0-1.045,0.402-1.567,1.205-1.567c0.185,0,0.342,0.04,0.47,0.121c0.128,0.08,0.192,0.176,0.192,0.287
	c0,0.085-0.027,0.153-0.081,0.205c-0.055,0.051-0.123,0.075-0.206,0.075c-0.09,0-0.189-0.082-0.301-0.248
	c-0.11-0.17-0.219-0.255-0.322-0.255c-0.264,0-0.396,0.2-0.396,0.602v0.78h0.836v0.215H292.9v2.139c0,0.227,0.034,0.374,0.101,0.444
	c0.068,0.069,0.173,0.108,0.314,0.117l0.219,0.013v0.102h-1.747v-0.102c0.198-0.004,0.34-0.037,0.425-0.098
	c0.084-0.063,0.127-0.222,0.127-0.477v-2.139h-0.522V30.912z"/>
<path d="M294.072,32.413c0-0.441,0.131-0.813,0.392-1.113c0.264-0.3,0.611-0.45,1.042-0.45c0.466,0,0.833,0.141,1.101,0.421
	c0.27,0.279,0.404,0.652,0.404,1.12c0,0.45-0.139,0.833-0.418,1.146c-0.276,0.312-0.627,0.468-1.051,0.468
	c-0.438,0-0.793-0.152-1.064-0.458C294.208,33.239,294.072,32.862,294.072,32.413z M294.66,32.08c0,0.469,0.084,0.875,0.251,1.222
	c0.168,0.344,0.4,0.516,0.699,0.516c0.25,0,0.448-0.103,0.594-0.307c0.146-0.207,0.219-0.514,0.219-0.921
	c0-0.444-0.088-0.814-0.264-1.11c-0.177-0.296-0.41-0.443-0.699-0.443c-0.252,0-0.449,0.099-0.591,0.297
	C294.729,31.531,294.66,31.78,294.66,32.08z"/>
<path d="M297.269,33.941v-0.102c0.17-0.025,0.289-0.067,0.359-0.124c0.07-0.059,0.104-0.181,0.104-0.365v-1.652
	c0-0.274-0.075-0.411-0.226-0.411c-0.082,0-0.162,0.009-0.238,0.026v-0.102c0.324-0.115,0.655-0.236,0.992-0.362l0.033,0.02v0.607
	c0.279-0.418,0.543-0.627,0.793-0.627c0.109,0,0.195,0.031,0.258,0.095c0.066,0.063,0.099,0.158,0.099,0.284
	c0,0.098-0.026,0.173-0.079,0.226c-0.052,0.05-0.11,0.074-0.176,0.074c-0.094,0-0.176-0.042-0.248-0.127
	c-0.072-0.087-0.141-0.131-0.205-0.131c-0.084,0-0.178,0.064-0.285,0.193c-0.104,0.128-0.156,0.245-0.156,0.353v1.479
	c0,0.202,0.036,0.34,0.107,0.411c0.074,0.072,0.229,0.117,0.464,0.134v0.102H297.269z"/>
<path d="M302.13,31.632c0.744-0.229,1.117-0.605,1.117-1.133c0-0.193-0.069-0.356-0.206-0.489c-0.138-0.133-0.315-0.199-0.532-0.199
	c-0.425,0-0.756,0.231-0.992,0.695l-0.099-0.026c0.118-0.342,0.282-0.604,0.493-0.79c0.213-0.187,0.485-0.28,0.816-0.28
	c0.317,0,0.568,0.085,0.754,0.254c0.186,0.17,0.277,0.392,0.277,0.663c0,0.349-0.207,0.654-0.62,0.918
	c0.563,0.215,0.846,0.63,0.846,1.243c0,0.477-0.173,0.854-0.519,1.13c-0.347,0.276-0.784,0.415-1.313,0.415
	c-0.205,0-0.381-0.032-0.526-0.095c-0.146-0.063-0.219-0.161-0.219-0.294c0-0.159,0.089-0.238,0.269-0.238
	c0.088,0,0.233,0.065,0.434,0.195c0.195,0.129,0.359,0.193,0.49,0.193c0.252,0,0.46-0.093,0.623-0.278
	c0.166-0.187,0.248-0.438,0.248-0.751c0-0.417-0.171-0.72-0.513-0.907c-0.163-0.092-0.347-0.137-0.552-0.137h-0.268L302.13,31.632z"
	/>
<path d="M307.142,32.906l0.098,0.059c-0.113,0.257-0.285,0.494-0.516,0.712c-0.229,0.218-0.505,0.327-0.829,0.327
	c-0.372,0-0.676-0.142-0.911-0.425c-0.234-0.283-0.353-0.639-0.353-1.067c0-0.479,0.143-0.875,0.428-1.188
	c0.285-0.315,0.644-0.474,1.077-0.474c0.26,0,0.49,0.065,0.692,0.196c0.204,0.128,0.307,0.292,0.307,0.492
	c0,0.099-0.03,0.174-0.091,0.226c-0.062,0.053-0.135,0.078-0.223,0.078c-0.106,0-0.19-0.061-0.251-0.183
	c-0.06-0.124-0.097-0.232-0.114-0.326c-0.012-0.055-0.041-0.116-0.088-0.187c-0.046-0.069-0.162-0.104-0.347-0.104
	c-0.226,0-0.429,0.104-0.606,0.311c-0.177,0.207-0.266,0.504-0.266,0.892c0,0.376,0.099,0.688,0.295,0.934
	c0.197,0.243,0.439,0.365,0.725,0.365c0.204,0,0.382-0.051,0.531-0.153C306.853,33.285,307,33.124,307.142,32.906z"/>
<path d="M308.493,31.372c0.271-0.349,0.602-0.522,0.989-0.522c0.3,0,0.558,0.129,0.774,0.386s0.326,0.608,0.326,1.054
	c0,0.453-0.131,0.853-0.393,1.198c-0.259,0.344-0.596,0.517-1.012,0.517c-0.262,0-0.49-0.104-0.686-0.313v1.09
	c0,0.225,0.043,0.368,0.127,0.431c0.086,0.062,0.238,0.092,0.461,0.092v0.102h-1.613v-0.102c0.172-0.018,0.292-0.052,0.359-0.104
	c0.07-0.055,0.104-0.169,0.104-0.343v-3.177c0-0.176-0.022-0.281-0.065-0.316c-0.041-0.037-0.102-0.056-0.18-0.056
	c-0.063,0-0.127,0.002-0.192,0.007v-0.102c0.233-0.074,0.553-0.194,0.96-0.362l0.039,0.013V31.372z M308.493,33.357
	c0,0.08,0.068,0.175,0.205,0.283c0.14,0.109,0.3,0.164,0.48,0.164c0.244,0,0.441-0.11,0.594-0.33
	c0.155-0.22,0.232-0.541,0.232-0.963c0-0.349-0.07-0.645-0.213-0.889c-0.141-0.243-0.35-0.365-0.627-0.365
	c-0.147,0-0.289,0.045-0.424,0.134c-0.135,0.087-0.218,0.19-0.248,0.311V33.357z"/>
<path d="M310.972,33.941v-0.102c0.133,0,0.242-0.028,0.329-0.085c0.089-0.059,0.134-0.204,0.134-0.438v-3.212
	c0-0.161-0.02-0.265-0.059-0.311s-0.109-0.068-0.212-0.068c-0.044,0-0.108,0.004-0.192,0.013v-0.101
	c0.367-0.085,0.7-0.183,0.998-0.294l0.027,0.02v4.006c0,0.183,0.031,0.304,0.094,0.362c0.063,0.059,0.187,0.095,0.369,0.107v0.102
	H310.972z"/>
<path d="M312.976,32.906h0.105c0.063,0.324,0.164,0.563,0.303,0.715c0.143,0.152,0.331,0.229,0.568,0.229
	c0.148,0,0.274-0.043,0.379-0.13c0.106-0.087,0.16-0.204,0.16-0.35c0-0.159-0.063-0.287-0.189-0.386
	c-0.124-0.1-0.294-0.207-0.51-0.323c-0.301-0.16-0.512-0.317-0.633-0.47c-0.122-0.154-0.184-0.333-0.184-0.535
	c0-0.223,0.086-0.411,0.256-0.568c0.169-0.159,0.391-0.238,0.666-0.238c0.112,0,0.233,0.022,0.361,0.068
	c0.129,0.044,0.211,0.065,0.248,0.065c0.035,0,0.073-0.024,0.115-0.075h0.071l0.026,0.934h-0.098
	c-0.12-0.559-0.364-0.839-0.732-0.839c-0.165,0-0.29,0.047-0.375,0.141s-0.127,0.191-0.127,0.294c0,0.163,0.053,0.289,0.16,0.379
	c0.108,0.089,0.305,0.215,0.59,0.378c0.308,0.173,0.52,0.32,0.637,0.444c0.12,0.122,0.18,0.286,0.18,0.493
	c0,0.259-0.096,0.469-0.29,0.63c-0.191,0.161-0.42,0.242-0.686,0.242c-0.103,0-0.241-0.021-0.415-0.06
	c-0.174-0.041-0.291-0.062-0.353-0.062c-0.067,0-0.116,0.027-0.146,0.081h-0.089V32.906z"/>
<path d="M399.228,55.36h9.383v2.016h-3.5v9.484h-2.383v-9.484h-3.5V55.36z"/>
<path d="M414.429,70.216h-1.654c-0.102-0.388-0.155-0.813-0.162-1.274l-0.01-0.537c-0.006-0.358-0.086-0.613-0.238-0.767
	c-0.153-0.153-0.465-0.229-0.934-0.229h-1.572v2.808h-1.488v-7.188h3.666c0.69,0,1.242,0.188,1.656,0.562
	c0.413,0.371,0.619,0.874,0.619,1.509c0,0.811-0.372,1.374-1.117,1.689c0.403,0.159,0.655,0.379,0.756,0.659
	c0.102,0.28,0.152,0.718,0.152,1.313v0.288c0,0.273,0.018,0.491,0.053,0.654c0.039,0.159,0.131,0.266,0.273,0.317V70.216z
	 M412.798,65.246c0-0.638-0.352-0.957-1.055-0.957h-1.885v1.919h1.768C412.407,66.208,412.798,65.887,412.798,65.246z"/>
<path d="M415.45,64.323c0.699,0,1.192-0.115,1.479-0.347c0.287-0.231,0.448-0.518,0.484-0.859h1.156v7.1h-1.4v-4.912h-1.719V64.323z
	"/>
<path d="M420.62,63.8h0.127c0.697,0,1.072-0.234,1.129-0.703h0.85v4.307h-1.012v-2.979h-1.094V63.8z M421.729,70.363l4.291-7.246
	h0.787l-4.293,7.246H421.729z M424.737,68.566l1.738-2.617h1.074v2.681h0.502v0.684h-0.502v0.923h-0.947v-0.923h-1.865V68.566z
	 M425.479,68.629h1.123v-1.748L425.479,68.629z"/>
<path d="M436.163,55.36h9.383v2.016h-3.5v9.484h-2.383v-9.484h-3.5V55.36z"/>
<path d="M445.306,63.029h1.488v5.928h3.594v1.26h-5.082V63.029z"/>
<path d="M451.272,64.323c0.699,0,1.192-0.115,1.479-0.347c0.287-0.231,0.448-0.518,0.484-0.859h1.156v7.1h-1.4v-4.912h-1.719V64.323
	z"/>
<path d="M456.442,63.8h0.127c0.697,0,1.073-0.234,1.129-0.703h0.85v4.307h-1.012v-2.979h-1.094V63.8z M457.552,70.363l4.291-7.246
	h0.787l-4.293,7.246H457.552z M460.56,68.566l1.738-2.617h1.074v2.681h0.502v0.684h-0.502v0.923h-0.947v-0.923h-1.865V68.566z
	 M461.302,68.629h1.123v-1.748L461.302,68.629z"/>
<polyline fill="none" stroke="#000000" stroke-width="0.4252" stroke-linejoin="bevel" stroke-miterlimit="10" points="
	396.438,36.191 396.438,31.691 423.022,31.691 464.605,31.691 464.605,36.191 "/>
</svg>
