<?xml version="1.0" standalone="no"?>
<!DOCTYPE svg PUBLIC "-//W3C//DTD SVG 1.1//EN"
"http://www.w3.org/Graphics/SVG/1.1/DTD/svg11.dtd">
<!-- Creator: fig2dev Version 3.2 Patchlevel 5d -->
<!-- CreationDate: Thu Feb 21 11:15:38 2013 -->
<!-- Magnification: 1.050 -->
<svg	xmlns="http://www.w3.org/2000/svg"
	xmlns:xlink="http://www.w3.org/1999/xlink"
	viewBox="-23 -23 6140 1274">
<g style="stroke-width:.025in; fill:none">
<!-- Text -->
<text xml:space="preserve" x="4629" y="283" fill="#000000"  font-family="Helvetica" font-style="normal" font-weight="normal" font-size="152" text-anchor="middle">(3 cpls.) Basic Ver.</text>
<!-- Line -->
<polyline points="850,614
1417,614
" style="stroke:#000000;stroke-width:8;
stroke-linejoin:miter; stroke-linecap:butt;
"/>
<!-- Text -->
<text xml:space="preserve" x="708" y="661" fill="#000000"  font-family="Helvetica" font-style="normal" font-weight="normal" font-size="114" text-anchor="middle">1</text>
<!-- Text -->
<text xml:space="preserve" x="803" y="661" fill="#000000"  font-family="Helvetica" font-style="normal" font-weight="normal" font-size="114" text-anchor="middle">2</text>
<!-- Text -->
<text xml:space="preserve" x="472" y="944" fill="#000000"  font-family="Helvetica" font-style="normal" font-weight="normal" font-size="227" text-anchor="middle">X</text>
<!-- Text -->
<text xml:space="preserve" x="614" y="992" fill="#000000"  font-family="Helvetica" font-style="normal" font-weight="normal" font-size="152" text-anchor="middle">L</text>
<!-- Line -->
<polyline points="803,850
1181,850
" style="stroke:#000000;stroke-width:8;
stroke-linejoin:miter; stroke-linecap:butt;
"/>
<!-- Text -->
<text xml:space="preserve" x="992" y="944" fill="#000000"  font-family="Helvetica" font-style="normal" font-weight="normal" font-size="227" text-anchor="middle">LA</text>
<!-- Text -->
<text xml:space="preserve" x="188" y="944" fill="#000000"  font-family="Helvetica" font-style="normal" font-weight="normal" font-size="227" text-anchor="middle">S</text>
<!-- Text -->
<text xml:space="preserve" x="1370" y="944" fill="#000000"  font-family="Helvetica" font-style="normal" font-weight="normal" font-size="227" text-anchor="middle">S</text>
<!-- Line: box -->
<rect x="0" y="0" width="6094" height="1228" rx="0" 
style="stroke:#000000;stroke-width:16;
stroke-linejoin:miter; stroke-linecap:butt;
"/>
<!-- Text -->
<text xml:space="preserve" x="6000" y="283" fill="#000000"  font-family="Helvetica" font-style="normal" font-weight="normal" font-size="202" text-anchor="end">J32</text>
<!-- Text -->
<text xml:space="preserve" x="47" y="283" fill="#000000"  font-family="Helvetica" font-style="normal" font-weight="normal" font-size="177" text-anchor="start">There are no Kangaroos in Austria</text>
<!-- Line -->
<polyline points="94,614
661,614
" style="stroke:#000000;stroke-width:8;
stroke-linejoin:miter; stroke-linecap:butt;
"/>
<!-- Line -->
<polyline points="2125,519
2173,472
" style="stroke:#000000;stroke-width:8;
stroke-linejoin:miter; stroke-linecap:butt;
fill:#ffffff;
"/>
<!-- Line -->
<polyline points="2125,519
2173,566
" style="stroke:#000000;stroke-width:8;
stroke-linejoin:miter; stroke-linecap:butt;
fill:#ffffff;
"/>
<!-- Line -->
<polyline points="2125,519
2124,519
2120,517
2111,514
2094,509
2072,501
2048,494
2023,487
1998,479
1976,475
1955,471
1938,469
1921,469
1905,470
1889,472
1876,475
1862,479
1848,485
1835,491
1821,498
1807,507
1795,516
1782,525
1771,536
1761,548
1752,558
1744,570
1739,581
1735,592
1733,603
1732,614
1733,623
1734,633
1738,643
1742,653
1749,662
1756,672
1765,682
1775,690
1786,700
1799,707
1813,714
1826,722
1841,727
1857,731
1872,735
1888,738
1904,740
1921,740
1938,740
1955,738
1974,735
1994,731
2015,727
2036,722
2059,714
2082,707
2107,700
2131,690
2155,682
2179,672
2202,662
2225,653
2248,643
2270,633
2292,623
2314,614
2337,604
2359,595
2381,584
2404,575
2427,565
2450,555
2474,545
2498,537
2522,528
2546,520
2570,513
2593,506
2614,500
2635,496
2655,492
2674,490
2691,488
2708,488
2725,488
2741,490
2756,492
2772,496
2788,500
2803,506
2816,513
2830,520
2843,528
2854,537
2864,545
2873,555
2880,565
2887,575
2891,584
2895,595
2896,604
2897,614
2896,624
2894,636
2890,646
2885,658
2877,669
2868,680
2857,691
2846,702
2833,711
2819,721
2806,729
2791,737
2776,743
2762,748
2747,752
2732,755
2717,758
2701,759
2685,759
2667,758
2648,755
2627,751
2603,747
2578,741
2552,734
2527,728
2502,722
2482,716
2516,724
" style="stroke:#000000;stroke-width:8;
stroke-linejoin:bevel; stroke-linecap:butt;
stroke-dasharray:20 20;"/>
<!-- Arrowhead on XXXpoint 2482 716 - 2440 703-->
<polygon points="2518 693
2449 706
2499 753
2518 693

" style="stroke:#000000;stroke-width:8;stroke-miterlimit:8;
fill:#000000;"/>
<!-- Text -->
<text xml:space="preserve" x="1889" y="661" fill="#000000"  font-family="Helvetica" font-style="normal" font-weight="normal" font-size="114" text-anchor="middle">2</text>
<!-- Text -->
<text xml:space="preserve" x="2740" y="661" fill="#000000"  font-family="Helvetica" font-style="normal" font-weight="normal" font-size="114" text-anchor="middle">3</text>
<!-- Line -->
<polyline points="2125,897
2173,850
" style="stroke:#000000;stroke-width:8;
stroke-linejoin:miter; stroke-linecap:butt;
fill:#ffffff;
"/>
<!-- Line -->
<polyline points="2125,897
2173,944
" style="stroke:#000000;stroke-width:8;
stroke-linejoin:miter; stroke-linecap:butt;
fill:#ffffff;
"/>
<!-- Line -->
<polyline points="2125,897
2124,897
2120,895
2111,892
2094,887
2072,879
2048,872
2023,865
1998,857
1976,853
1955,849
1938,847
1921,847
1905,848
1889,850
1876,853
1862,857
1848,862
1835,869
1821,876
1807,885
1795,894
1782,903
1771,914
1761,925
1752,936
1744,948
1739,959
1735,970
1733,981
1732,992
1733,1001
1734,1011
1738,1021
1742,1030
1749,1040
1756,1050
1765,1060
1775,1068
1786,1078
1799,1085
1813,1092
1826,1100
1841,1105
1857,1109
1872,1113
1888,1116
1904,1118
1921,1118
1938,1118
1955,1116
1974,1113
1994,1109
2015,1105
2036,1100
2059,1092
2082,1085
2107,1078
2131,1068
2155,1060
2179,1050
2202,1040
2225,1030
2248,1021
2270,1011
2292,1001
2314,992
2337,982
2359,973
2381,962
2404,953
2427,943
2450,933
2474,923
2498,915
2522,906
2546,898
2570,891
2593,883
2614,878
2635,874
2655,870
2674,868
2691,866
2708,866
2725,866
2741,868
2756,870
2772,874
2788,878
2803,883
2816,891
2830,898
2843,906
2854,915
2864,923
2873,933
2880,943
2887,953
2891,962
2895,973
2896,982
2897,992
2896,1002
2894,1014
2890,1024
2885,1036
2877,1047
2868,1058
2857,1069
2846,1080
2833,1089
2819,1099
2806,1107
2791,1114
2776,1121
2762,1126
2747,1130
2732,1133
2717,1135
2701,1137
2685,1137
2667,1135
2648,1133
2627,1129
2603,1125
2578,1119
2552,1112
2527,1106
2502,1100
2482,1093
2516,1102
" style="stroke:#000000;stroke-width:8;
stroke-linejoin:bevel; stroke-linecap:butt;
"/>
<!-- Arrowhead on XXXpoint 2482 1093 - 2440 1081-->
<polygon points="2518 1071
2449 1084
2499 1131
2518 1071

" style="stroke:#000000;stroke-width:8;stroke-miterlimit:8;
fill:#000000;"/>
<!-- Text -->
<text xml:space="preserve" x="1889" y="1039" fill="#000000"  font-family="Helvetica" font-style="normal" font-weight="normal" font-size="114" text-anchor="middle">2</text>
<!-- Text -->
<text xml:space="preserve" x="2740" y="1039" fill="#000000"  font-family="Helvetica" font-style="normal" font-weight="normal" font-size="114" text-anchor="middle">3</text>
<!-- Line -->
<polyline points="3968,850
4393,850
" style="stroke:#000000;stroke-width:8;
stroke-linejoin:miter; stroke-linecap:butt;
"/>
<!-- Text -->
<text xml:space="preserve" x="4204" y="944" fill="#000000"  font-family="Helvetica" font-style="normal" font-weight="normal" font-size="227" text-anchor="middle">RA</text>
<!-- Text -->
<text xml:space="preserve" x="3685" y="944" fill="#000000"  font-family="Helvetica" font-style="normal" font-weight="normal" font-size="227" text-anchor="middle">X</text>
<!-- Text -->
<text xml:space="preserve" x="3826" y="992" fill="#000000"  font-family="Helvetica" font-style="normal" font-weight="normal" font-size="152" text-anchor="middle">R</text>
<!-- Line -->
<polyline points="3307,614
3874,614
" style="stroke:#000000;stroke-width:8;
stroke-linejoin:miter; stroke-linecap:butt;
"/>
<!-- Line -->
<polyline points="4062,614
4629,614
" style="stroke:#000000;stroke-width:8;
stroke-linejoin:miter; stroke-linecap:butt;
"/>
<!-- Text -->
<text xml:space="preserve" x="3921" y="661" fill="#000000"  font-family="Helvetica" font-style="normal" font-weight="normal" font-size="114" text-anchor="middle">1</text>
<!-- Text -->
<text xml:space="preserve" x="4015" y="661" fill="#000000"  font-family="Helvetica" font-style="normal" font-weight="normal" font-size="114" text-anchor="middle">3</text>
<!-- Text -->
<text xml:space="preserve" x="3401" y="944" fill="#000000"  font-family="Helvetica" font-style="normal" font-weight="normal" font-size="227" text-anchor="middle">S</text>
<!-- Text -->
<text xml:space="preserve" x="4582" y="944" fill="#000000"  font-family="Helvetica" font-style="normal" font-weight="normal" font-size="227" text-anchor="middle">S</text>
<!-- Line -->
<polyline points="5574,614
5669,614
" style="stroke:#000000;stroke-width:8;
stroke-linejoin:miter; stroke-linecap:butt;
"/>
<!-- Line -->
<polyline points="5858,614
5952,614
" style="stroke:#000000;stroke-width:8;
stroke-linejoin:miter; stroke-linecap:butt;
"/>
<!-- Text -->
<text xml:space="preserve" x="5811" y="661" fill="#000000"  font-family="Helvetica" font-style="normal" font-weight="normal" font-size="114" text-anchor="middle">3</text>
<!-- Text -->
<text xml:space="preserve" x="5716" y="661" fill="#000000"  font-family="Helvetica" font-style="normal" font-weight="normal" font-size="114" text-anchor="middle">2</text>
<!-- Line -->
<polyline points="5007,614
5102,614
" style="stroke:#000000;stroke-width:8;
stroke-linejoin:miter; stroke-linecap:butt;
"/>
<!-- Line -->
<polyline points="5291,614
5385,614
" style="stroke:#000000;stroke-width:8;
stroke-linejoin:miter; stroke-linecap:butt;
"/>
<!-- Text -->
<text xml:space="preserve" x="5149" y="661" fill="#000000"  font-family="Helvetica" font-style="normal" font-weight="normal" font-size="114" text-anchor="middle">3</text>
<!-- Text -->
<text xml:space="preserve" x="5244" y="661" fill="#000000"  font-family="Helvetica" font-style="normal" font-weight="normal" font-size="114" text-anchor="middle">1</text>
<!-- Text -->
<text xml:space="preserve" x="5196" y="944" fill="#000000"  font-family="Helvetica" font-style="normal" font-weight="normal" font-size="227" text-anchor="middle">RA</text>
<!-- Text -->
<text xml:space="preserve" x="5763" y="944" fill="#000000"  font-family="Helvetica" font-style="normal" font-weight="normal" font-size="227" text-anchor="middle">LA</text>
<!-- Line -->
<polyline points="0,377
6094,377
" style="stroke:#000000;stroke-width:16;
stroke-linejoin:miter; stroke-linecap:butt;
"/>
<!-- Line -->
<polyline points="1559,377
1559,1228
" style="stroke:#000000;stroke-width:8;
stroke-linejoin:miter; stroke-linecap:butt;
"/>
<!-- Line -->
<polyline points="3165,330
3165,1228
" style="stroke:#000000;stroke-width:8;
stroke-linejoin:miter; stroke-linecap:butt;
"/>
<!-- Line -->
<polyline points="4818,377
4818,1228
" style="stroke:#000000;stroke-width:8;
stroke-linejoin:miter; stroke-linecap:butt;
"/>
<!-- Line: box -->
<rect x="2220" y="519" width="188" height="188" rx="0" 
style="stroke:#000000;stroke-width:8;
stroke-linejoin:miter; stroke-linecap:butt;
fill:#ffffff;
"/>
<!-- Circle -->
<circle cx="2314" cy="992" r="94"
 style="fill:#ffffff;stroke:#000000;stroke-width:8;"/>
<!-- Text -->
<text xml:space="preserve" x="2314" y="661" fill="#000000"  font-family="Helvetica" font-style="normal" font-weight="normal" font-size="114" text-anchor="middle">1</text>
<!-- Text -->
<text xml:space="preserve" x="2314" y="1039" fill="#000000"  font-family="Helvetica" font-style="normal" font-weight="normal" font-size="114" text-anchor="middle">1</text>
</g>
</svg>
