<?xml version="1.0" standalone="no"?>
<!DOCTYPE svg PUBLIC "-//W3C//DTD SVG 1.1//EN"
"http://www.w3.org/Graphics/SVG/1.1/DTD/svg11.dtd">
<!-- Creator: fig2dev Version 3.2 Patchlevel 5d -->
<!-- CreationDate: Tue Jul 29 10:22:49 2014 -->
<!-- Magnification: 1.050 -->
<svg	xmlns="http://www.w3.org/2000/svg"
	xmlns:xlink="http://www.w3.org/1999/xlink"
	viewBox="-23 -23 6140 3117">
<g style="stroke-width:.025in; fill:none">
<!-- Text -->
<text xml:space="preserve" x="6047" y="283" fill="#000000"  font-family="Helvetica" font-style="normal" font-weight="normal" font-size="227" text-anchor="end">J8x32</text>
<!-- Circle -->
<circle cx="3496" cy="874" r="117"
 style="stroke:#000000;stroke-width:16;"/>
<!-- Line -->
<polyline points="3543,992
3685,1086
" style="stroke:#000000;stroke-width:16;
stroke-linejoin:miter; stroke-linecap:butt;
"/>
<!-- Line -->
<polyline points="3685,897
3543,992
" style="stroke:#000000;stroke-width:16;
stroke-linejoin:miter; stroke-linecap:butt;
"/>
<!-- Line -->
<polyline points="4204,944
4015,944
" style="stroke:#000000;stroke-width:16;
stroke-linejoin:miter; stroke-linecap:butt;
"/>
<!-- Line -->
<polyline points="4204,1039
4015,1039
" style="stroke:#000000;stroke-width:16;
stroke-linejoin:miter; stroke-linecap:butt;
"/>
<!-- Line -->
<polyline points="1795,472
1794,473
1791,476
1786,481
1781,490
1776,500
1771,514
1766,531
1762,550
1760,574
1757,602
1756,638
1755,657
1754,679
1753,701
1753,726
1752,752
1752,780
1751,809
1751,839
1750,870
1750,902
1750,935
1750,969
1750,1001
1750,1034
1750,1066
1751,1097
1751,1127
1752,1156
1752,1184
1753,1210
1753,1235
1754,1257
1755,1279
1756,1299
1757,1334
1760,1362
1762,1386
1766,1405
1771,1422
1776,1436
1781,1446
1786,1455
1791,1460
1794,1463
1795,1464
" style="stroke:#000000;stroke-width:16;
stroke-linejoin:bevel; stroke-linecap:round;
"/>
<!-- Line -->
<polyline points="2456,472
2457,473
2460,476
2465,481
2470,490
2475,500
2480,514
2485,531
2489,550
2491,574
2494,602
2496,638
2496,657
2497,679
2498,701
2498,726
2499,752
2499,780
2500,809
2500,839
2501,870
2501,902
2501,935
2501,969
2501,1001
2501,1034
2501,1066
2500,1097
2500,1127
2499,1156
2499,1184
2498,1210
2498,1235
2497,1257
2496,1279
2496,1299
2494,1334
2491,1362
2489,1386
2485,1405
2480,1422
2475,1436
2470,1446
2465,1455
2460,1460
2457,1463
2456,1464
" style="stroke:#000000;stroke-width:16;
stroke-linejoin:bevel; stroke-linecap:round;
"/>
<!-- Text -->
<text xml:space="preserve" x="1889" y="755" fill="#000000"  font-family="Helvetica" font-style="normal" font-weight="normal" font-size="126" text-anchor="middle">to</text>
<!-- Line: box -->
<rect x="1937" y="897" width="188" height="188" rx="0" 
style="stroke:#000000;stroke-width:16;
stroke-linejoin:miter; stroke-linecap:butt;
"/>
<!-- Text -->
<text xml:space="preserve" x="2031" y="1039" fill="#000000"  font-family="Helvetica" font-style="normal" font-weight="bold" font-size="114" text-anchor="middle">1</text>
<!-- Circle -->
<circle cx="2314" cy="992" r="94"
 style="stroke:#000000;stroke-width:16;"/>
<!-- Text -->
<text xml:space="preserve" x="2314" y="1039" fill="#000000"  font-family="Helvetica" font-style="normal" font-weight="bold" font-size="114" text-anchor="middle">1</text>
<!-- Line -->
<polyline points="1889,992
1937,992
" style="stroke:#000000;stroke-width:16;
stroke-linejoin:miter; stroke-linecap:round;
"/>
<!-- Line -->
<polyline points="2173,992
2220,992
" style="stroke:#000000;stroke-width:16;
stroke-linejoin:miter; stroke-linecap:round;
"/>
<!-- Circle -->
<circle cx="1275" cy="1133" r="94"
 style="stroke:#000000;stroke-width:16;"/>
<!-- Text -->
<text xml:space="preserve" x="1275" y="1181" fill="#000000"  font-family="Helvetica" font-style="normal" font-weight="bold" font-size="114" text-anchor="middle">1</text>
<!-- Line: box -->
<rect x="1181" y="708" width="188" height="188" rx="0" 
style="stroke:#000000;stroke-width:16;
stroke-linejoin:miter; stroke-linecap:butt;
"/>
<!-- Text -->
<text xml:space="preserve" x="1275" y="850" fill="#000000"  font-family="Helvetica" font-style="normal" font-weight="bold" font-size="114" text-anchor="middle">1</text>
<!-- Line -->
<polyline points="1370,850
1464,992
1370,1181
" style="stroke:#000000;stroke-width:16;
stroke-linejoin:miter; stroke-linecap:butt;
"/>
<!-- Line -->
<polyline points="1417,1181
1418,1181
1423,1182
1435,1184
1451,1187
1474,1191
1496,1194
1516,1196
1533,1198
1549,1197
1562,1196
1572,1193
1583,1189
1591,1183
1598,1174
1606,1166
1612,1155
1617,1144
1622,1131
1625,1119
1627,1106
1627,1093
1627,1082
1625,1072
1622,1063
1616,1053
1609,1043
1598,1035
1585,1025
1568,1016
1549,1007
1568,1015
" style="stroke:#000000;stroke-width:16;
stroke-linejoin:bevel; stroke-linecap:butt;
"/>
<!-- Arrowhead on XXXpoint 1549 1007 - 1482 979-->
<polygon points="1560 977
1490 982
1535 1035
1560 977

" style="stroke:#000000;stroke-width:8;stroke-miterlimit:8;
fill:#000000;"/>
<!-- Line -->
<polyline points="1370,803
1371,803
1377,803
1390,804
1407,804
1427,806
1445,807
1460,809
1471,811
1481,814
1488,818
1491,822
1495,825
1498,828
1500,832
1502,836
1503,841
1504,847
1504,852
1503,857
1502,864
1500,869
1497,875
1493,880
1489,887
1485,892
1480,897
1471,904
1462,912
1450,920
1437,929
1419,939
1399,951
1378,962
1357,974
1377,963
" style="stroke:#000000;stroke-width:16;
stroke-linejoin:bevel; stroke-linecap:butt;
stroke-dasharray:20 20;"/>
<!-- Arrowhead on XXXpoint 1357 974 - 1294 1005-->
<polygon points="1344 944
1302 1001
1373 1001
1344 944

" style="stroke:#000000;stroke-width:8;stroke-miterlimit:8;
fill:#000000;"/>
<!-- Line -->
<polyline points="3307,1653
3874,1653
" style="stroke:#000000;stroke-width:8;
stroke-linejoin:miter; stroke-linecap:butt;
"/>
<!-- Line -->
<polyline points="5385,1653
5952,1653
" style="stroke:#000000;stroke-width:8;
stroke-linejoin:miter; stroke-linecap:butt;
"/>
<!-- Text -->
<text xml:space="preserve" x="4629" y="1700" fill="#000000"  font-family="Helvetica" font-style="normal" font-weight="normal" font-size="126" text-anchor="middle">BOW TIE REEL</text>
<!-- Circle -->
<circle cx="5574" cy="2409" r="236"
 style="stroke:#000000;stroke-width:16;"/>
<!-- Text -->
<text xml:space="preserve" x="5574" y="2503" fill="#000000"  font-family="Helvetica" font-style="normal" font-weight="bold" font-size="227" text-anchor="middle">8</text>
<!-- Circle -->
<circle cx="708" cy="2362" r="94"
 style="stroke:#000000;stroke-width:16;"/>
<!-- Text -->
<text xml:space="preserve" x="708" y="2409" fill="#000000"  font-family="Helvetica" font-style="normal" font-weight="bold" font-size="114" text-anchor="middle">1</text>
<!-- Line: box -->
<rect x="330" y="2267" width="188" height="188" rx="0" 
style="stroke:#000000;stroke-width:16;
stroke-linejoin:miter; stroke-linecap:butt;
"/>
<!-- Text -->
<text xml:space="preserve" x="425" y="2409" fill="#000000"  font-family="Helvetica" font-style="normal" font-weight="bold" font-size="114" text-anchor="middle">1</text>
<!-- Circle -->
<circle cx="566" cy="1937" r="94"
 style="stroke:#000000;stroke-width:16;"/>
<!-- Text -->
<text xml:space="preserve" x="566" y="1984" fill="#000000"  font-family="Helvetica" font-style="normal" font-weight="bold" font-size="114" text-anchor="middle">2</text>
<!-- Line: box -->
<rect x="472" y="2692" width="188" height="188" rx="0" 
style="stroke:#000000;stroke-width:16;
stroke-linejoin:miter; stroke-linecap:butt;
"/>
<!-- Text -->
<text xml:space="preserve" x="566" y="2834" fill="#000000"  font-family="Helvetica" font-style="normal" font-weight="bold" font-size="114" text-anchor="middle">2</text>
<!-- Line -->
<polyline points="661,1937
662,1937
666,1937
675,1939
686,1941
700,1943
711,1947
721,1952
729,1959
734,1966
740,1976
743,1986
746,1997
748,2010
749,2025
749,2040
749,2057
747,2074
745,2091
741,2107
737,2122
730,2136
724,2150
716,2161
706,2173
695,2184
681,2196
663,2208
643,2222
622,2236
601,2247
620,2236
" style="stroke:#000000;stroke-width:16;
stroke-linejoin:bevel; stroke-linecap:butt;
"/>
<!-- Arrowhead on XXXpoint 601 2247 - 539 2282-->
<polygon points="586 2219
548 2278
618 2274
586 2219

" style="stroke:#000000;stroke-width:8;stroke-miterlimit:8;
fill:#000000;"/>
<!-- Line -->
<polyline points="661,2787
662,2787
670,2786
684,2785
702,2782
719,2777
732,2772
745,2765
755,2755
763,2748
770,2739
777,2728
785,2717
792,2703
798,2689
804,2675
809,2660
813,2646
816,2632
817,2619
818,2606
817,2594
815,2581
812,2567
807,2553
800,2537
791,2519
782,2501
772,2483
787,2509
" style="stroke:#000000;stroke-width:16;
stroke-linejoin:bevel; stroke-linecap:butt;
stroke-dasharray:20 20;"/>
<!-- Arrowhead on XXXpoint 772 2483 - 739 2429-->
<polygon points="803 2473
744 2436
749 2506
803 2473

" style="stroke:#000000;stroke-width:8;stroke-miterlimit:8;
fill:#000000;"/>
<!-- Line -->
<polyline points="330,2362
327,2362
322,2360
313,2358
303,2354
293,2349
284,2344
276,2337
269,2328
265,2318
262,2306
260,2291
258,2278
258,2263
258,2247
258,2229
259,2211
260,2191
262,2171
265,2150
268,2128
271,2108
275,2088
279,2069
284,2051
288,2035
293,2020
299,2008
306,1992
314,1981
325,1970
337,1962
350,1954
366,1949
383,1944
398,1941
363,1945
" style="stroke:#000000;stroke-width:16;
stroke-linejoin:bevel; stroke-linecap:butt;
stroke-dasharray:20 20;"/>
<!-- Arrowhead on XXXpoint 398 1941 - 455 1931-->
<polygon points="388 1973
446 1932
377 1911
388 1973

" style="stroke:#000000;stroke-width:8;stroke-miterlimit:8;
fill:#000000;"/>
<!-- Line -->
<polyline points="614,2409
613,2409
609,2411
600,2415
583,2423
561,2433
535,2445
508,2458
479,2472
452,2486
429,2498
407,2510
389,2520
373,2530
360,2540
348,2550
339,2559
329,2569
321,2578
314,2588
308,2599
303,2609
299,2621
296,2632
293,2643
292,2654
292,2664
293,2675
295,2684
297,2693
300,2702
303,2709
307,2717
313,2726
323,2735
334,2744
349,2753
367,2763
387,2771
367,2763
" style="stroke:#000000;stroke-width:16;
stroke-linejoin:bevel; stroke-linecap:butt;
"/>
<!-- Arrowhead on XXXpoint 387 2771 - 453 2798-->
<polygon points="374 2800
445 2795
397 2742
374 2800

" style="stroke:#000000;stroke-width:8;stroke-miterlimit:8;
fill:#000000;"/>
<!-- Circle -->
<circle cx="1417" cy="2787" r="94"
 style="stroke:#000000;stroke-width:16;"/>
<!-- Text -->
<text xml:space="preserve" x="1417" y="2834" fill="#000000"  font-family="Helvetica" font-style="normal" font-weight="bold" font-size="114" text-anchor="middle">1</text>
<!-- Line: box -->
<rect x="1322" y="1842" width="188" height="188" rx="0" 
style="stroke:#000000;stroke-width:16;
stroke-linejoin:miter; stroke-linecap:butt;
"/>
<!-- Text -->
<text xml:space="preserve" x="1417" y="1984" fill="#000000"  font-family="Helvetica" font-style="normal" font-weight="bold" font-size="114" text-anchor="middle">1</text>
<!-- Circle -->
<circle cx="1275" cy="2362" r="94"
 style="stroke:#000000;stroke-width:16;"/>
<!-- Text -->
<text xml:space="preserve" x="1275" y="2409" fill="#000000"  font-family="Helvetica" font-style="normal" font-weight="bold" font-size="114" text-anchor="middle">2</text>
<!-- Line: box -->
<rect x="1464" y="2267" width="188" height="188" rx="0" 
style="stroke:#000000;stroke-width:16;
stroke-linejoin:miter; stroke-linecap:butt;
"/>
<!-- Text -->
<text xml:space="preserve" x="1559" y="2409" fill="#000000"  font-family="Helvetica" font-style="normal" font-weight="bold" font-size="114" text-anchor="middle">2</text>
<!-- Line: box -->
<rect x="1984" y="1842" width="188" height="188" rx="0" 
style="stroke:#000000;stroke-width:16;
stroke-linejoin:miter; stroke-linecap:butt;
"/>
<!-- Text -->
<text xml:space="preserve" x="2078" y="1984" fill="#000000"  font-family="Helvetica" font-style="normal" font-weight="bold" font-size="114" text-anchor="middle">3</text>
<!-- Circle -->
<circle cx="2078" cy="2787" r="94"
 style="stroke:#000000;stroke-width:16;"/>
<!-- Text -->
<text xml:space="preserve" x="2078" y="2834" fill="#000000"  font-family="Helvetica" font-style="normal" font-weight="bold" font-size="114" text-anchor="middle">3</text>
<!-- Line -->
<polyline points="1511,2787
1512,2787
1517,2787
1526,2785
1539,2783
1554,2781
1568,2776
1581,2771
1592,2765
1603,2758
1614,2748
1620,2741
1628,2732
1635,2723
1644,2712
1652,2701
1660,2688
1670,2674
1679,2659
1689,2643
1698,2626
1708,2609
1717,2592
1728,2574
1737,2556
1746,2538
1756,2519
1763,2503
1771,2488
1779,2471
1787,2453
1797,2433
1807,2411
1818,2388
1829,2363
1842,2334
1856,2305
1869,2275
1883,2244
1897,2215
1908,2187
1919,2165
1910,2182
" style="stroke:#000000;stroke-width:16;
stroke-linejoin:bevel; stroke-linecap:butt;
"/>
<!-- Arrowhead on XXXpoint 1919 2165 - 1949 2096-->
<polygon points="1948 2174
1945 2104
1890 2149
1948 2174

" style="stroke:#000000;stroke-width:8;stroke-miterlimit:8;
fill:#000000;"/>
<!-- Line -->
<polyline points="1511,1937
1512,1937
1517,1937
1527,1938
1542,1938
1558,1940
1574,1941
1590,1943
1606,1945
1620,1948
1637,1952
1649,1955
1660,1959
1673,1963
1686,1967
1699,1972
1714,1979
1728,1986
1741,1994
1754,2004
1766,2014
1777,2026
1786,2037
1795,2050
1802,2064
1807,2078
1811,2094
1813,2109
1813,2125
1813,2142
1811,2161
1807,2181
1803,2201
1798,2223
1792,2245
1785,2268
1777,2291
1770,2313
1760,2335
1752,2358
1743,2377
1734,2396
1725,2415
1717,2432
1709,2449
1697,2468
1687,2486
1675,2503
1664,2520
1651,2538
1637,2556
1622,2574
1606,2593
1591,2609
1600,2599
" style="stroke:#000000;stroke-width:16;
stroke-linejoin:bevel; stroke-linecap:butt;
stroke-dasharray:20 20;"/>
<!-- Arrowhead on XXXpoint 1591 2609 - 1537 2668-->
<polygon points="1562 2594
1543 2662
1608 2637
1562 2594

" style="stroke:#000000;stroke-width:8;stroke-miterlimit:8;
fill:#000000;"/>
<!-- Line -->
<polyline points="1181,2362
1177,2362
1172,2364
1164,2366
1153,2369
1144,2374
1134,2380
1126,2387
1120,2395
1116,2406
1112,2417
1110,2433
1108,2446
1108,2460
1108,2476
1108,2494
1109,2513
1110,2533
1112,2553
1116,2575
1119,2596
1122,2616
1125,2636
1129,2655
1134,2672
1139,2688
1144,2703
1149,2717
1156,2731
1165,2743
1175,2753
1187,2762
1201,2769
1216,2774
1233,2780
1249,2783
1213,2777
" style="stroke:#000000;stroke-width:16;
stroke-linejoin:bevel; stroke-linecap:butt;
"/>
<!-- Arrowhead on XXXpoint 1249 2783 - 1306 2791-->
<polygon points="1229 2811
1296 2790
1238 2749
1229 2811

" style="stroke:#000000;stroke-width:8;stroke-miterlimit:8;
fill:#000000;"/>
<!-- Line -->
<polyline points="1464,2314
1463,2314
1460,2312
1450,2308
1434,2301
1412,2290
1385,2279
1358,2265
1330,2251
1302,2238
1279,2225
1257,2214
1239,2203
1224,2194
1210,2183
1198,2174
1189,2165
1180,2155
1171,2145
1165,2135
1159,2124
1153,2114
1149,2102
1146,2092
1144,2080
1143,2070
1143,2059
1144,2049
1145,2039
1147,2030
1150,2022
1153,2014
1158,2008
1164,1997
1173,1988
1185,1980
1200,1970
1217,1961
1237,1952
1217,1960
" style="stroke:#000000;stroke-width:16;
stroke-linejoin:bevel; stroke-linecap:butt;
stroke-dasharray:20 20;"/>
<!-- Arrowhead on XXXpoint 1237 1952 - 1303 1924-->
<polygon points="1249 1981
1295 1927
1225 1923
1249 1981

" style="stroke:#000000;stroke-width:8;stroke-miterlimit:8;
fill:#000000;"/>
<!-- Line -->
<polyline points="236,2976
1039,2976
" style="stroke:#000000;stroke-width:8;
stroke-linejoin:miter; stroke-linecap:butt;
"/>
<!-- Line -->
<polyline points="1606,2976
2409,2976
" style="stroke:#000000;stroke-width:8;
stroke-linejoin:miter; stroke-linecap:butt;
"/>
<!-- Text -->
<text xml:space="preserve" x="1322" y="3023" fill="#000000"  font-family="Helvetica" font-style="normal" font-weight="normal" font-size="126" text-anchor="middle">. . .</text>
<!-- Circle -->
<circle cx="4818" cy="992" r="94"
 style="stroke:#000000;stroke-width:16;"/>
<!-- Text -->
<text xml:space="preserve" x="4818" y="1039" fill="#000000"  font-family="Helvetica" font-style="normal" font-weight="bold" font-size="114" text-anchor="middle">1</text>
<!-- Line: box -->
<rect x="4440" y="897" width="188" height="188" rx="0" 
style="stroke:#000000;stroke-width:16;
stroke-linejoin:miter; stroke-linecap:butt;
"/>
<!-- Text -->
<text xml:space="preserve" x="4535" y="1039" fill="#000000"  font-family="Helvetica" font-style="normal" font-weight="bold" font-size="114" text-anchor="middle">1</text>
<!-- Line: box -->
<rect x="4582" y="472" width="188" height="188" rx="0" 
style="stroke:#000000;stroke-width:16;
stroke-linejoin:miter; stroke-linecap:butt;
"/>
<!-- Text -->
<text xml:space="preserve" x="4677" y="614" fill="#000000"  font-family="Helvetica" font-style="normal" font-weight="bold" font-size="114" text-anchor="middle">2</text>
<!-- Circle -->
<circle cx="4677" cy="1417" r="94"
 style="stroke:#000000;stroke-width:16;"/>
<!-- Text -->
<text xml:space="preserve" x="4677" y="1464" fill="#000000"  font-family="Helvetica" font-style="normal" font-weight="bold" font-size="114" text-anchor="middle">2</text>
<!-- Line -->
<polyline points="4440,992
4437,992
4432,994
4424,996
4413,999
4404,1004
4394,1009
4386,1017
4380,1025
4375,1036
4372,1047
4370,1063
4368,1076
4368,1090
4368,1106
4368,1124
4369,1143
4370,1163
4372,1183
4375,1205
4379,1226
4382,1246
4385,1266
4389,1285
4394,1302
4398,1318
4404,1333
4409,1346
4416,1361
4425,1373
4435,1383
4447,1392
4460,1399
4476,1404
4493,1409
4509,1413
4473,1407
" style="stroke:#000000;stroke-width:16;
stroke-linejoin:bevel; stroke-linecap:butt;
stroke-dasharray:20 20;"/>
<!-- Arrowhead on XXXpoint 4509 1413 - 4565 1421-->
<polygon points="4489 1441
4556 1420
4498 1379
4489 1441

" style="stroke:#000000;stroke-width:8;stroke-miterlimit:8;
fill:#000000;"/>
<!-- Line -->
<polyline points="4724,944
4723,944
4720,942
4710,938
4693,931
4671,920
4645,909
4618,895
4590,881
4562,868
4539,855
4517,844
4499,833
4483,824
4470,813
4458,804
4449,795
4439,785
4431,775
4425,765
4418,754
4413,744
4409,732
4406,722
4404,710
4403,700
4403,689
4404,679
4405,669
4407,660
4410,651
4413,644
4417,638
4424,627
4433,618
4445,609
4459,600
4477,591
4497,582
4477,590
" style="stroke:#000000;stroke-width:16;
stroke-linejoin:bevel; stroke-linecap:butt;
"/>
<!-- Arrowhead on XXXpoint 4497 582 - 4563 554-->
<polygon points="4509 611
4555 557
4485 553
4509 611

" style="stroke:#000000;stroke-width:8;stroke-miterlimit:8;
fill:#000000;"/>
<!-- Line -->
<polyline points="4771,566
4772,566
4776,566
4785,569
4796,571
4810,573
4822,577
4831,582
4839,588
4845,596
4850,606
4853,616
4856,627
4858,640
4859,655
4859,670
4859,687
4857,704
4855,721
4851,737
4847,752
4840,766
4834,780
4826,791
4816,803
4805,814
4791,826
4773,838
4753,852
4732,866
4711,877
4730,866
" style="stroke:#000000;stroke-width:16;
stroke-linejoin:bevel; stroke-linecap:butt;
stroke-dasharray:20 20;"/>
<!-- Arrowhead on XXXpoint 4711 877 - 4649 912-->
<polygon points="4697 849
4658 908
4728 903
4697 849

" style="stroke:#000000;stroke-width:8;stroke-miterlimit:8;
fill:#000000;"/>
<!-- Line -->
<polyline points="4771,1417
4772,1417
4781,1416
4794,1415
4812,1412
4829,1407
4843,1402
4855,1395
4866,1385
4873,1378
4880,1369
4888,1358
4895,1346
4902,1333
4909,1319
4914,1304
4919,1290
4923,1276
4927,1261
4928,1249
4929,1236
4928,1224
4925,1211
4922,1197
4917,1183
4910,1167
4901,1149
4892,1131
4882,1113
4897,1139
" style="stroke:#000000;stroke-width:16;
stroke-linejoin:bevel; stroke-linecap:butt;
"/>
<!-- Arrowhead on XXXpoint 4882 1113 - 4849 1059-->
<polygon points="4913 1103
4854 1066
4859 1135
4913 1103

" style="stroke:#000000;stroke-width:8;stroke-miterlimit:8;
fill:#000000;"/>
<!-- Line: box -->
<rect x="5338" y="1322" width="188" height="188" rx="0" 
style="stroke:#000000;stroke-width:16;
stroke-linejoin:miter; stroke-linecap:butt;
"/>
<!-- Text -->
<text xml:space="preserve" x="5433" y="1464" fill="#000000"  font-family="Helvetica" font-style="normal" font-weight="bold" font-size="114" text-anchor="middle">1</text>
<!-- Line: box -->
<rect x="5196" y="897" width="188" height="188" rx="0" 
style="stroke:#000000;stroke-width:16;
stroke-linejoin:miter; stroke-linecap:butt;
"/>
<!-- Text -->
<text xml:space="preserve" x="5291" y="1039" fill="#000000"  font-family="Helvetica" font-style="normal" font-weight="bold" font-size="114" text-anchor="middle">2</text>
<!-- Circle -->
<circle cx="5574" cy="992" r="94"
 style="stroke:#000000;stroke-width:16;"/>
<!-- Text -->
<text xml:space="preserve" x="5574" y="1039" fill="#000000"  font-family="Helvetica" font-style="normal" font-weight="bold" font-size="114" text-anchor="middle">2</text>
<!-- Circle -->
<circle cx="5433" cy="566" r="94"
 style="stroke:#000000;stroke-width:16;"/>
<!-- Text -->
<text xml:space="preserve" x="5433" y="614" fill="#000000"  font-family="Helvetica" font-style="normal" font-weight="bold" font-size="114" text-anchor="middle">1</text>
<!-- Line -->
<polyline points="5196,992
5193,992
5188,994
5180,996
5169,999
5160,1004
5150,1009
5142,1017
5135,1025
5131,1036
5128,1047
5126,1063
5124,1076
5124,1090
5124,1106
5124,1124
5125,1143
5126,1163
5128,1183
5131,1205
5134,1226
5138,1246
5141,1266
5145,1285
5150,1302
5154,1318
5160,1333
5165,1346
5172,1361
5181,1373
5191,1383
5203,1392
5216,1399
5232,1404
5249,1409
5265,1413
5229,1407
" style="stroke:#000000;stroke-width:16;
stroke-linejoin:bevel; stroke-linecap:butt;
stroke-dasharray:20 20;"/>
<!-- Arrowhead on XXXpoint 5265 1413 - 5321 1421-->
<polygon points="5245 1441
5312 1420
5254 1379
5245 1441

" style="stroke:#000000;stroke-width:8;stroke-miterlimit:8;
fill:#000000;"/>
<!-- Line -->
<polyline points="5480,944
5479,944
5476,942
5466,938
5449,931
5427,920
5401,909
5374,895
5345,881
5318,868
5295,855
5273,844
5255,833
5239,824
5226,813
5214,804
5205,795
5195,785
5187,775
5181,765
5174,754
5169,744
5165,732
5162,722
5160,710
5159,700
5159,689
5160,679
5161,669
5163,660
5166,651
5169,644
5173,638
5180,627
5189,618
5201,609
5215,600
5233,591
5253,582
5233,590
" style="stroke:#000000;stroke-width:16;
stroke-linejoin:bevel; stroke-linecap:butt;
"/>
<!-- Arrowhead on XXXpoint 5253 582 - 5319 554-->
<polygon points="5265 611
5311 557
5240 553
5265 611

" style="stroke:#000000;stroke-width:8;stroke-miterlimit:8;
fill:#000000;"/>
<!-- Line -->
<polyline points="5527,566
5528,566
5537,567
5550,569
5568,572
5585,576
5598,581
5611,588
5622,598
5629,605
5636,615
5644,625
5651,637
5658,650
5665,664
5670,679
5675,693
5679,707
5682,722
5683,734
5685,748
5683,760
5681,772
5678,786
5673,801
5666,816
5657,834
5648,852
5638,870
5653,844
" style="stroke:#000000;stroke-width:16;
stroke-linejoin:bevel; stroke-linecap:butt;
"/>
<!-- Arrowhead on XXXpoint 5638 870 - 5605 923-->
<polygon points="5616 846
5610 916
5670 879
5616 846

" style="stroke:#000000;stroke-width:8;stroke-miterlimit:8;
fill:#000000;"/>
<!-- Line -->
<polyline points="5527,1417
5528,1417
5532,1417
5541,1415
5552,1413
5566,1411
5577,1406
5587,1401
5595,1395
5601,1387
5606,1378
5609,1367
5612,1356
5614,1343
5615,1329
5615,1313
5615,1296
5613,1279
5611,1262
5607,1247
5603,1231
5596,1217
5590,1205
5582,1192
5572,1181
5561,1169
5547,1158
5529,1145
5509,1131
5488,1118
5467,1106
5486,1117
" style="stroke:#000000;stroke-width:16;
stroke-linejoin:bevel; stroke-linecap:butt;
stroke-dasharray:20 20;"/>
<!-- Arrowhead on XXXpoint 5467 1106 - 5405 1070-->
<polygon points="5483 1078
5414 1075
5453 1132
5483 1078

" style="stroke:#000000;stroke-width:8;stroke-miterlimit:8;
fill:#000000;"/>
<!-- Line -->
<polyline points="4062,2503
4062,2173
4393,2173
" style="stroke:#000000;stroke-width:16;
stroke-linejoin:miter; stroke-linecap:butt;
"/>
<!-- Text -->
<text xml:space="preserve" x="4204" y="2456" fill="#000000"  font-family="Helvetica" font-style="normal" font-weight="bold" font-size="227" text-anchor="middle">T</text>
<!-- Text -->
<text xml:space="preserve" x="4346" y="2503" fill="#000000"  font-family="Helvetica" font-style="normal" font-weight="bold" font-size="152" text-anchor="middle">R</text>
<!-- Line -->
<polyline points="2881,2173
3212,2173
3212,2503
" style="stroke:#000000;stroke-width:16;
stroke-linejoin:miter; stroke-linecap:butt;
"/>
<!-- Text -->
<text xml:space="preserve" x="3118" y="2503" fill="#000000"  font-family="Helvetica" font-style="normal" font-weight="bold" font-size="152" text-anchor="middle">R</text>
<!-- Text -->
<text xml:space="preserve" x="2976" y="2456" fill="#000000"  font-family="Helvetica" font-style="normal" font-weight="bold" font-size="227" text-anchor="middle">T</text>
<!-- Line -->
<polyline points="4629,2173
4633,2175
4638,2179
4647,2185
4660,2195
4675,2206
4691,2220
4708,2235
4724,2251
4739,2269
4751,2288
4762,2310
4768,2335
4771,2362
4768,2388
4762,2413
4751,2435
4739,2454
4724,2472
4708,2489
4691,2503
4675,2517
4660,2529
4680,2514
" style="stroke:#000000;stroke-width:16;
stroke-linejoin:bevel; stroke-linecap:butt;
"/>
<!-- Arrowhead on XXXpoint 4660 2529 - 4603 2569-->
<polygon points="4643 2500
4611 2563
4680 2553
4643 2500

" style="stroke:#000000;stroke-width:8;stroke-miterlimit:8;
fill:#000000;"/>
<!-- Line -->
<polyline points="4818,2551
4815,2549
4810,2544
4801,2538
4788,2529
4773,2517
4756,2503
4740,2489
4724,2472
4709,2454
4697,2435
4686,2413
4680,2388
4677,2362
4680,2335
4686,2310
4697,2288
4709,2269
4724,2251
4740,2235
4756,2220
4773,2206
4788,2195
4767,2208
" style="stroke:#000000;stroke-width:16;
stroke-linejoin:bevel; stroke-linecap:butt;
stroke-dasharray:20 20;"/>
<!-- Arrowhead on XXXpoint 4788 2195 - 4844 2154-->
<polygon points="4804 2221
4836 2159
4766 2171
4804 2221

" style="stroke:#000000;stroke-width:8;stroke-miterlimit:8;
fill:#000000;"/>
<!-- Line -->
<polyline points="3826,2267
3824,2270
3820,2276
3814,2285
3804,2298
3793,2312
3779,2329
3764,2346
3748,2362
3730,2376
3711,2389
3689,2400
3664,2406
3637,2409
3611,2406
3586,2400
3564,2389
3545,2376
3527,2362
3510,2346
3496,2329
3482,2312
3470,2298
3484,2318
" style="stroke:#000000;stroke-width:16;
stroke-linejoin:bevel; stroke-linecap:butt;
"/>
<!-- Arrowhead on XXXpoint 3470 2298 - 3429 2241-->
<polygon points="3497 2281
3435 2248
3445 2318
3497 2281

" style="stroke:#000000;stroke-width:8;stroke-miterlimit:8;
fill:#000000;"/>
<!-- Line -->
<polyline points="3448,2456
3450,2453
3455,2448
3461,2438
3470,2426
3482,2411
3496,2394
3510,2377
3527,2362
3545,2347
3564,2334
3586,2324
3611,2318
3637,2314
3664,2318
3689,2324
3711,2334
3730,2347
3748,2362
3764,2377
3779,2394
3793,2411
3804,2426
3790,2405
" style="stroke:#000000;stroke-width:16;
stroke-linejoin:bevel; stroke-linecap:butt;
stroke-dasharray:20 20;"/>
<!-- Arrowhead on XXXpoint 3804 2426 - 3844 2481-->
<polygon points="3776 2440
3839 2474
3827 2404
3776 2440

" style="stroke:#000000;stroke-width:8;stroke-miterlimit:8;
fill:#000000;"/>
<!-- Line -->
<polyline points="0,377
6094,377
" style="stroke:#000000;stroke-width:16;
stroke-linejoin:miter; stroke-linecap:butt;
"/>
<!-- Line -->
<polyline points="5905,377
5905,1559
" style="stroke:#000000;stroke-width:16;
stroke-linejoin:miter; stroke-linecap:butt;
stroke-dasharray:62 62;"/>
<!-- Line -->
<polyline points="3070,377
3070,1748
" style="stroke:#000000;stroke-width:16;
stroke-linejoin:miter; stroke-linecap:butt;
"/>
<!-- Line -->
<polyline points="2929,992
2660,992
" style="stroke:#000000;stroke-width:16;
stroke-linejoin:miter; stroke-linecap:butt;
"/>
<!-- Arrowhead on XXXpoint 2929 992 - 2566 992-->
<polygon points="2639 960
2576 992
2639 1023
2639 960

" style="stroke:#000000;stroke-width:8;stroke-miterlimit:8;
fill:#000000;"/>
<!-- Line -->
<polyline points="992,377
992,1748
" style="stroke:#000000;stroke-width:16;
stroke-linejoin:miter; stroke-linecap:butt;
stroke-dasharray:62 62;"/>
<!-- Line -->
<polyline points="519,992
787,992
" style="stroke:#000000;stroke-width:16;
stroke-linejoin:miter; stroke-linecap:butt;
"/>
<!-- Arrowhead on XXXpoint 519 992 - 881 992-->
<polygon points="809 1023
872 992
809 960
809 1023

" style="stroke:#000000;stroke-width:8;stroke-miterlimit:8;
fill:#000000;"/>
<!-- Line -->
<polyline points="0,1748
6094,1748
" style="stroke:#000000;stroke-width:16;
stroke-linejoin:miter; stroke-linecap:butt;
"/>
<!-- Line -->
<polyline points="5102,1748
5102,3070
" style="stroke:#000000;stroke-width:16;
stroke-linejoin:miter; stroke-linecap:butt;
"/>
<!-- Line: box -->
<rect x="0" y="0" width="6094" height="3070" rx="0" 
style="stroke:#000000;stroke-width:16;
stroke-linejoin:miter; stroke-linecap:butt;
"/>
<!-- Line -->
<polyline points="2598,1748
2598,3070
" style="stroke:#000000;stroke-width:16;
stroke-linejoin:miter; stroke-linecap:butt;
"/>
<!-- Line -->
<polyline points="3968,472
3967,473
3964,476
3960,481
3954,491
3949,501
3944,516
3940,533
3935,554
3933,579
3930,608
3929,645
3928,666
3927,688
3926,712
3926,738
3925,765
3925,794
3924,825
3924,856
3923,889
3923,922
3923,957
3923,992
3923,1026
3923,1061
3923,1095
3924,1127
3924,1159
3925,1189
3925,1218
3926,1246
3926,1271
3927,1295
3928,1317
3929,1338
3930,1375
3933,1404
3935,1429
3940,1450
3944,1467
3949,1482
3954,1492
3960,1502
3964,1507
3967,1510
3968,1511
" style="stroke:#000000;stroke-width:16;
stroke-linejoin:bevel; stroke-linecap:round;
"/>
<!-- Line -->
<polyline points="2314,1842
2316,1843
2319,1846
2323,1851
2328,1861
2333,1871
2339,1886
2343,1903
2347,1924
2349,1949
2352,1979
2354,2015
2354,2036
2355,2058
2356,2082
2356,2108
2358,2135
2358,2164
2359,2195
2359,2226
2360,2259
2360,2292
2360,2327
2360,2362
2360,2396
2360,2431
2360,2465
2359,2497
2359,2529
2358,2559
2358,2588
2356,2616
2356,2641
2355,2665
2354,2687
2354,2708
2352,2745
2349,2774
2347,2800
2343,2820
2339,2837
2333,2852
2328,2862
2323,2872
2319,2877
2316,2880
2314,2881
" style="stroke:#000000;stroke-width:16;
stroke-linejoin:bevel; stroke-linecap:round;
"/>
<!-- Text -->
<text xml:space="preserve" x="94" y="283" fill="#000000"  font-family="Helvetica" font-style="normal" font-weight="normal" font-size="227" text-anchor="start">Take A Bow</text>
<!-- Text -->
<text xml:space="preserve" x="4866" y="283" fill="#000000"  font-family="Helvetica" font-style="normal" font-weight="normal" font-size="177" text-anchor="end">   </text>
<!-- Text -->
<text xml:space="preserve" x="283" y="1086" fill="#000000"  font-family="Helvetica" font-style="normal" font-weight="bold" font-size="227" text-anchor="middle">S</text>
<!-- Circle -->
<circle cx="3496" cy="1110" r="117"
 style="stroke:#000000;stroke-width:16;"/>
</g>
</svg>
