<?xml version="1.0" standalone="no"?>
<!DOCTYPE svg PUBLIC "-//W3C//DTD SVG 1.1//EN"
"http://www.w3.org/Graphics/SVG/1.1/DTD/svg11.dtd">
<!-- Creator: fig2dev Version 3.2 Patchlevel 5d -->
<!-- CreationDate: Thu Aug  8 21:36:51 2013 -->
<!-- Magnification: 1.050 -->
<svg	xmlns="http://www.w3.org/2000/svg"
	xmlns:xlink="http://www.w3.org/1999/xlink"
	viewBox="-23 -23 6140 3117">
<g style="stroke-width:.025in; fill:none">
<!-- Text -->
<text xml:space="preserve" x="4582" y="236" fill="#000000"  font-family="Helvetica" font-style="normal" font-weight="normal" font-size="152" text-anchor="middle">(4 cpls.) Adv. Ver.</text>
<!-- Line -->
<polyline points="2362,1133
2361,1133
2358,1131
2349,1128
2335,1122
2316,1113
2291,1103
2266,1092
2240,1083
2215,1074
2191,1066
2170,1060
2151,1056
2133,1053
2117,1053
2101,1053
2087,1055
2071,1058
2056,1063
2041,1068
2027,1077
2012,1085
1998,1096
1985,1106
1972,1119
1961,1131
1950,1145
1941,1159
1933,1173
1928,1187
1924,1201
1922,1214
1921,1228
1922,1238
1923,1250
1926,1260
1930,1272
1935,1282
1942,1294
1950,1306
1960,1316
1970,1327
1982,1337
1995,1348
2010,1356
2026,1364
2041,1373
2059,1379
2077,1385
2096,1391
2116,1395
2136,1399
2157,1401
2176,1402
2195,1403
2216,1403
2238,1403
2261,1402
2287,1400
2314,1398
2345,1394
2379,1390
2414,1385
2452,1379
2492,1373
2533,1366
2575,1360
2616,1353
2656,1345
2690,1340
2722,1334
2746,1330
2725,1333
" style="stroke:#000000;stroke-width:8;
stroke-linejoin:bevel; stroke-linecap:butt;
"/>
<!-- Arrowhead on XXXpoint 2746 1330 - 2802 1319-->
<polygon points="2735 1363
2792 1321
2724 1301
2735 1363

" style="stroke:#000000;stroke-width:8;stroke-miterlimit:8;
fill:#000000;"/>
<!-- Line -->
<polyline points="1937,1511
1938,1513
1939,1517
1941,1523
1945,1530
1951,1539
1959,1547
1967,1554
1977,1561
1989,1566
2004,1570
2019,1572
2039,1574
2062,1574
2080,1574
2100,1573
2122,1572
2145,1571
2171,1570
2198,1568
2225,1566
2255,1564
2284,1561
2314,1559
2345,1556
2374,1553
2404,1551
2431,1549
2458,1547
2483,1546
2507,1545
2529,1544
2549,1543
2566,1543
2590,1543
2609,1545
2625,1547
2640,1551
2651,1556
2662,1563
2670,1570
2678,1579
2684,1587
2688,1594
2690,1601
2691,1604
2692,1606
" style="stroke:#000000;stroke-width:8;
stroke-linejoin:bevel; stroke-linecap:butt;
"/>
<!-- Line -->
<polyline points="2692,1606
2693,1604
2695,1601
2697,1594
2701,1587
2707,1579
2714,1570
2723,1563
2733,1556
2745,1551
2760,1547
2775,1545
2795,1543
2818,1543
2836,1543
2856,1544
2878,1545
2901,1546
2927,1547
2954,1549
2981,1551
3011,1553
3040,1556
3070,1559
3101,1561
3130,1564
3160,1566
3187,1568
3214,1570
3239,1571
3262,1572
3285,1573
3304,1574
3322,1574
3345,1574
3365,1572
3381,1570
3396,1566
3407,1561
3418,1554
3426,1547
3434,1539
3440,1530
3444,1523
3446,1517
3447,1513
3448,1511
" style="stroke:#000000;stroke-width:8;
stroke-linejoin:bevel; stroke-linecap:butt;
"/>
<!-- Line -->
<polyline points="519,1511
519,1513
520,1517
521,1523
523,1530
527,1539
530,1547
534,1554
539,1561
545,1566
553,1570
561,1572
571,1574
582,1574
596,1574
611,1572
627,1571
646,1568
666,1565
687,1562
708,1559
729,1555
750,1552
770,1549
789,1546
806,1545
820,1543
834,1543
846,1543
855,1545
864,1547
871,1551
877,1556
882,1563
887,1570
890,1579
893,1587
895,1594
896,1601
897,1604
897,1606
" style="stroke:#000000;stroke-width:8;
stroke-linejoin:bevel; stroke-linecap:butt;
"/>
<!-- Line -->
<polyline points="897,1606
897,1604
898,1601
899,1594
901,1587
904,1579
908,1570
912,1563
917,1556
923,1551
931,1547
939,1545
949,1543
960,1543
974,1543
988,1545
1005,1546
1024,1549
1044,1552
1065,1555
1086,1559
1107,1562
1128,1565
1148,1568
1167,1571
1184,1572
1198,1574
1212,1574
1224,1574
1233,1572
1241,1570
1249,1566
1255,1561
1260,1554
1265,1547
1268,1539
1271,1530
1273,1523
1274,1517
1275,1513
1275,1511
" style="stroke:#000000;stroke-width:8;
stroke-linejoin:bevel; stroke-linecap:butt;
"/>
<!-- Text -->
<text xml:space="preserve" x="614" y="1370" fill="#000000"  font-family="Helvetica" font-style="normal" font-weight="normal" font-size="227" text-anchor="middle">X</text>
<!-- Text -->
<text xml:space="preserve" x="755" y="1417" fill="#000000"  font-family="Helvetica" font-style="normal" font-weight="normal" font-size="152" text-anchor="middle">R</text>
<!-- Line -->
<polyline points="850,1275
1275,1275
" style="stroke:#000000;stroke-width:8;
stroke-linejoin:miter; stroke-linecap:butt;
"/>
<!-- Text -->
<text xml:space="preserve" x="1086" y="1370" fill="#000000"  font-family="Helvetica" font-style="normal" font-weight="normal" font-size="227" text-anchor="middle">RA</text>
<!-- Line -->
<polyline points="519,1039
803,1039
" style="stroke:#000000;stroke-width:8;
stroke-linejoin:miter; stroke-linecap:butt;
"/>
<!-- Line -->
<polyline points="992,1039
1275,1039
" style="stroke:#000000;stroke-width:8;
stroke-linejoin:miter; stroke-linecap:butt;
"/>
<!-- Text -->
<text xml:space="preserve" x="850" y="1086" fill="#000000"  font-family="Helvetica" font-style="normal" font-weight="normal" font-size="114" text-anchor="middle">3</text>
<!-- Text -->
<text xml:space="preserve" x="944" y="1086" fill="#000000"  font-family="Helvetica" font-style="normal" font-weight="normal" font-size="114" text-anchor="middle">4</text>
<!-- Text -->
<text xml:space="preserve" x="614" y="803" fill="#000000"  font-family="Helvetica" font-style="normal" font-weight="normal" font-size="227" text-anchor="middle">X</text>
<!-- Text -->
<text xml:space="preserve" x="755" y="850" fill="#000000"  font-family="Helvetica" font-style="normal" font-weight="normal" font-size="152" text-anchor="middle">L</text>
<!-- Line -->
<polyline points="897,708
1275,708
" style="stroke:#000000;stroke-width:8;
stroke-linejoin:miter; stroke-linecap:butt;
"/>
<!-- Text -->
<text xml:space="preserve" x="1086" y="803" fill="#000000"  font-family="Helvetica" font-style="normal" font-weight="normal" font-size="227" text-anchor="middle">LA</text>
<!-- Line -->
<polyline points="519,472
803,472
" style="stroke:#000000;stroke-width:8;
stroke-linejoin:miter; stroke-linecap:butt;
"/>
<!-- Line -->
<polyline points="992,472
1275,472
" style="stroke:#000000;stroke-width:8;
stroke-linejoin:miter; stroke-linecap:butt;
"/>
<!-- Text -->
<text xml:space="preserve" x="850" y="519" fill="#000000"  font-family="Helvetica" font-style="normal" font-weight="normal" font-size="114" text-anchor="middle">1</text>
<!-- Text -->
<text xml:space="preserve" x="944" y="519" fill="#000000"  font-family="Helvetica" font-style="normal" font-weight="normal" font-size="114" text-anchor="middle">2</text>
<!-- Text -->
<text xml:space="preserve" x="1590" y="755" fill="#000000"  font-family="Helvetica" font-style="normal" font-weight="normal" font-size="114" text-anchor="middle">2143</text>
<!-- Text -->
<text xml:space="preserve" x="1590" y="1039" fill="#000000"  font-family="Helvetica" font-style="normal" font-weight="normal" font-size="227" text-anchor="middle">S</text>
<!-- Text -->
<text xml:space="preserve" x="236" y="755" fill="#000000"  font-family="Helvetica" font-style="normal" font-weight="normal" font-size="114" text-anchor="middle">1234</text>
<!-- Text -->
<text xml:space="preserve" x="236" y="1039" fill="#000000"  font-family="Helvetica" font-style="normal" font-weight="normal" font-size="227" text-anchor="middle">S</text>
<!-- Line: box -->
<rect x="0" y="0" width="6094" height="3070" rx="0" 
style="stroke:#000000;stroke-width:16;
stroke-linejoin:miter; stroke-linecap:butt;
"/>
<!-- Line -->
<polyline points="0,330
6094,330
" style="stroke:#000000;stroke-width:16;
stroke-linejoin:miter; stroke-linecap:butt;
"/>
<!-- Line -->
<polyline points="0,1700
6094,1700
" style="stroke:#000000;stroke-width:8;
stroke-linejoin:miter; stroke-linecap:butt;
"/>
<!-- Line -->
<polyline points="1842,330
1842,1700
" style="stroke:#000000;stroke-width:8;
stroke-linejoin:miter; stroke-linecap:butt;
"/>
<!-- Line -->
<polyline points="1842,1700
1842,3070
" style="stroke:#000000;stroke-width:8;
stroke-linejoin:miter; stroke-linecap:butt;
"/>
<!-- Text -->
<text xml:space="preserve" x="6000" y="236" fill="#000000"  font-family="Helvetica" font-style="normal" font-weight="normal" font-size="202" text-anchor="end">J32</text>
<!-- Text -->
<text xml:space="preserve" x="47" y="236" fill="#000000"  font-family="Helvetica" font-style="normal" font-weight="normal" font-size="177" text-anchor="start">There are no Kangaroos in Austria</text>
<!-- Line -->
<polyline points="3685,2362
3687,2362
3690,2361
3697,2361
3707,2359
3719,2358
3734,2354
3751,2351
3770,2347
3791,2342
3813,2335
3838,2327
3865,2317
3896,2303
3930,2286
3968,2267
4002,2248
4035,2228
4066,2209
4094,2191
4120,2173
4145,2155
4169,2137
4191,2120
4212,2103
4232,2088
4249,2073
4264,2060
4277,2050
4250,2071
" style="stroke:#000000;stroke-width:8;
stroke-linejoin:bevel; stroke-linecap:butt;
stroke-dasharray:20 20;"/>
<!-- Arrowhead on XXXpoint 4277 2050 - 4310 2020-->
<polygon points="4276 2092
4303 2027
4235 2044
4276 2092

" style="stroke:#000000;stroke-width:8;stroke-miterlimit:8;
fill:#000000;"/>
<!-- Line -->
<polyline points="3685,2881
3687,2881
3690,2880
3697,2880
3707,2878
3719,2877
3734,2874
3751,2871
3770,2867
3791,2861
3813,2855
3838,2847
3865,2836
3896,2823
3930,2806
3968,2787
4002,2768
4035,2748
4066,2729
4094,2710
4120,2692
4145,2675
4169,2657
4191,2640
4212,2623
4232,2607
4249,2593
4264,2580
4277,2570
4250,2591
" style="stroke:#000000;stroke-width:8;
stroke-linejoin:bevel; stroke-linecap:butt;
"/>
<!-- Arrowhead on XXXpoint 4277 2570 - 4310 2540-->
<polygon points="4276 2612
4303 2546
4235 2563
4276 2612

" style="stroke:#000000;stroke-width:8;stroke-miterlimit:8;
fill:#000000;"/>
<!-- Line -->
<polyline points="4251,2740
4251,2739
4249,2733
4246,2723
4241,2705
4234,2684
4225,2663
4217,2643
4209,2625
4201,2612
4193,2600
4183,2591
4173,2582
4163,2576
4152,2572
4140,2566
4128,2563
4113,2560
4098,2557
4081,2555
4066,2554
4049,2552
4032,2552
4015,2551
4000,2551
3984,2551
3968,2551
3950,2551
3931,2551
3912,2551
3893,2550
3874,2550
3855,2549
3836,2548
3818,2545
3802,2543
3787,2541
3775,2538
3763,2535
3751,2530
3740,2524
3731,2516
3720,2507
3711,2495
3701,2481
3718,2508
" style="stroke:#000000;stroke-width:8;
stroke-linejoin:bevel; stroke-linecap:butt;
"/>
<!-- Arrowhead on XXXpoint 3701 2481 - 3675 2443-->
<polygon points="3741 2483
3680 2450
3689 2519
3741 2483

" style="stroke:#000000;stroke-width:8;stroke-miterlimit:8;
fill:#000000;"/>
<!-- Line -->
<polyline points="4251,2220
4251,2219
4249,2214
4246,2203
4241,2185
4234,2164
4225,2143
4217,2123
4209,2106
4201,2092
4193,2080
4183,2071
4173,2062
4163,2056
4152,2052
4140,2047
4127,2044
4113,2040
4097,2037
4080,2035
4064,2034
4047,2032
4029,2032
4011,2031
3994,2031
3977,2031
3961,2031
3945,2031
3929,2031
3913,2031
3896,2031
3877,2031
3856,2031
3832,2031
3806,2031
3780,2031
3755,2031
3731,2031
3711,2031
3746,2031
" style="stroke:#000000;stroke-width:8;
stroke-linejoin:bevel; stroke-linecap:butt;
stroke-dasharray:20 20;"/>
<!-- Arrowhead on XXXpoint 3711 2031 - 3669 2031-->
<polygon points="3741 2000
3678 2031
3741 2062
3741 2000

" style="stroke:#000000;stroke-width:8;stroke-miterlimit:8;
fill:#000000;"/>
<!-- Text -->
<text xml:space="preserve" x="3968" y="1889" fill="#000000"  font-family="Helvetica" font-style="normal" font-weight="normal" font-size="114" text-anchor="middle">passing:</text>
<!-- Line -->
<polyline points="4346,1795
4347,1796
4350,1799
4354,1805
4360,1815
4365,1827
4370,1843
4374,1862
4379,1884
4381,1911
4384,1944
4386,1984
4386,2005
4387,2027
4388,2051
4388,2076
4389,2103
4389,2132
4390,2161
4390,2193
4390,2225
4391,2259
4391,2292
4391,2327
4391,2362
4391,2396
4391,2431
4391,2465
4390,2498
4390,2531
4390,2562
4389,2592
4389,2620
4388,2647
4388,2672
4387,2697
4386,2719
4386,2740
4384,2780
4381,2812
4379,2839
4374,2861
4370,2880
4365,2896
4360,2909
4354,2918
4350,2924
4347,2928
4346,2929
" style="stroke:#000000;stroke-width:8;
stroke-linejoin:bevel; stroke-linecap:butt;
"/>
<!-- Line -->
<polyline points="3590,1795
3589,1796
3586,1799
3582,1805
3576,1815
3571,1827
3566,1843
3562,1862
3558,1884
3555,1911
3552,1944
3551,1984
3550,2005
3549,2027
3548,2051
3548,2076
3547,2103
3547,2132
3546,2161
3546,2193
3546,2225
3545,2259
3545,2292
3545,2327
3545,2362
3545,2396
3545,2431
3545,2465
3546,2498
3546,2531
3546,2562
3547,2592
3547,2620
3548,2647
3548,2672
3549,2697
3550,2719
3551,2740
3552,2780
3555,2812
3558,2839
3562,2861
3566,2880
3571,2896
3576,2909
3582,2918
3586,2924
3589,2928
3590,2929
" style="stroke:#000000;stroke-width:8;
stroke-linejoin:bevel; stroke-linecap:butt;
"/>
<!-- Circle -->
<circle cx="2929" cy="2598" r="94"
 style="stroke:#000000;stroke-width:8;"/>
<!-- Text -->
<text xml:space="preserve" x="2929" y="2645" fill="#000000"  font-family="Helvetica" font-style="normal" font-weight="normal" font-size="114" text-anchor="middle">3</text>
<!-- Circle -->
<circle cx="3354" cy="2598" r="94"
 style="stroke:#000000;stroke-width:8;"/>
<!-- Text -->
<text xml:space="preserve" x="3354" y="2645" fill="#000000"  font-family="Helvetica" font-style="normal" font-weight="normal" font-size="114" text-anchor="middle">1</text>
<!-- Line: box -->
<rect x="3259" y="1937" width="188" height="188" rx="0" 
style="stroke:#000000;stroke-width:8;
stroke-linejoin:miter; stroke-linecap:butt;
"/>
<!-- Text -->
<text xml:space="preserve" x="3354" y="2078" fill="#000000"  font-family="Helvetica" font-style="normal" font-weight="normal" font-size="114" text-anchor="middle">1</text>
<!-- Line: box -->
<rect x="2834" y="1937" width="188" height="188" rx="0" 
style="stroke:#000000;stroke-width:8;
stroke-linejoin:miter; stroke-linecap:butt;
"/>
<!-- Text -->
<text xml:space="preserve" x="2929" y="2078" fill="#000000"  font-family="Helvetica" font-style="normal" font-weight="normal" font-size="114" text-anchor="middle">3</text>
<!-- Text -->
<text xml:space="preserve" x="3165" y="2409" fill="#000000"  font-family="Helvetica" font-style="normal" font-weight="normal" font-size="227" text-anchor="middle">RA</text>
<!-- Circle -->
<circle cx="2125" cy="2598" r="94"
 style="stroke:#000000;stroke-width:8;"/>
<!-- Text -->
<text xml:space="preserve" x="2125" y="2645" fill="#000000"  font-family="Helvetica" font-style="normal" font-weight="normal" font-size="114" text-anchor="middle">4</text>
<!-- Line: box -->
<rect x="2031" y="1937" width="188" height="188" rx="0" 
style="stroke:#000000;stroke-width:8;
stroke-linejoin:miter; stroke-linecap:butt;
"/>
<!-- Line -->
<polyline points="2362,1937
2361,1937
2358,1934
2349,1931
2335,1925
2316,1917
2291,1906
2266,1896
2240,1886
2215,1877
2191,1869
2170,1863
2151,1859
2133,1856
2117,1856
2101,1856
2087,1858
2071,1861
2056,1866
2041,1871
2027,1880
2012,1888
1998,1899
1985,1909
1972,1922
1961,1934
1950,1948
1941,1962
1933,1976
1928,1990
1924,2004
1922,2017
1921,2031
1922,2041
1923,2053
1926,2064
1930,2075
1935,2086
1942,2097
1950,2109
1960,2119
1970,2130
1982,2140
1995,2151
2010,2159
2026,2167
2041,2176
2059,2182
2077,2188
2096,2194
2116,2198
2136,2202
2157,2204
2176,2205
2195,2206
2216,2206
2238,2206
2261,2205
2287,2203
2314,2201
2345,2197
2379,2193
2414,2188
2452,2182
2492,2176
2533,2170
2575,2163
2616,2156
2656,2149
2690,2143
2722,2137
2746,2133
2725,2136
" style="stroke:#000000;stroke-width:8;
stroke-linejoin:bevel; stroke-linecap:butt;
stroke-dasharray:20 20;"/>
<!-- Arrowhead on XXXpoint 2746 2133 - 2802 2122-->
<polygon points="2735 2166
2792 2124
2724 2104
2735 2166

" style="stroke:#000000;stroke-width:8;stroke-miterlimit:8;
fill:#000000;"/>
<!-- Line -->
<polyline points="2362,2503
2361,2503
2358,2501
2349,2498
2335,2492
2316,2483
2291,2473
2266,2462
2240,2453
2215,2444
2191,2436
2170,2430
2151,2426
2133,2423
2117,2423
2101,2423
2087,2425
2071,2428
2056,2433
2041,2438
2027,2447
2012,2455
1998,2466
1985,2476
1972,2489
1961,2501
1950,2515
1941,2529
1933,2543
1928,2557
1924,2571
1922,2584
1921,2598
1922,2608
1923,2620
1926,2630
1930,2642
1935,2653
1942,2664
1950,2676
1960,2686
1970,2697
1982,2707
1995,2718
2010,2726
2026,2734
2041,2743
2059,2749
2077,2755
2096,2761
2116,2765
2136,2769
2157,2771
2176,2772
2195,2773
2216,2773
2238,2773
2261,2772
2287,2770
2314,2768
2345,2764
2379,2760
2414,2755
2452,2749
2492,2743
2533,2737
2575,2730
2616,2723
2656,2716
2690,2710
2722,2704
2746,2700
2725,2703
" style="stroke:#000000;stroke-width:8;
stroke-linejoin:bevel; stroke-linecap:butt;
"/>
<!-- Arrowhead on XXXpoint 2746 2700 - 2802 2689-->
<polygon points="2735 2733
2792 2691
2724 2671
2735 2733

" style="stroke:#000000;stroke-width:8;stroke-miterlimit:8;
fill:#000000;"/>
<!-- Text -->
<text xml:space="preserve" x="2125" y="2078" fill="#000000"  font-family="Helvetica" font-style="normal" font-weight="normal" font-size="114" text-anchor="middle">4</text>
<!-- Line -->
<polyline points="1937,2881
1938,2883
1939,2887
1941,2893
1945,2900
1951,2909
1959,2917
1967,2924
1977,2931
1989,2936
2004,2940
2019,2942
2039,2944
2062,2944
2080,2944
2100,2943
2122,2942
2145,2941
2171,2940
2198,2938
2225,2936
2255,2934
2284,2931
2314,2929
2345,2927
2374,2923
2404,2921
2431,2919
2458,2917
2483,2916
2507,2915
2529,2914
2549,2913
2566,2913
2590,2913
2609,2915
2625,2917
2640,2921
2651,2927
2662,2933
2670,2940
2678,2949
2684,2957
2688,2964
2690,2971
2691,2974
2692,2976
" style="stroke:#000000;stroke-width:8;
stroke-linejoin:bevel; stroke-linecap:butt;
"/>
<!-- Line -->
<polyline points="2692,2976
2693,2974
2695,2971
2697,2964
2701,2957
2707,2949
2714,2940
2723,2933
2733,2927
2745,2921
2760,2917
2775,2915
2795,2913
2818,2913
2836,2913
2856,2914
2878,2915
2901,2916
2927,2917
2954,2919
2981,2921
3011,2923
3040,2927
3070,2929
3101,2931
3130,2934
3160,2936
3187,2938
3214,2940
3239,2941
3262,2942
3285,2943
3304,2944
3322,2944
3345,2944
3365,2942
3381,2940
3396,2936
3407,2931
3418,2924
3426,2917
3434,2909
3440,2900
3444,2893
3446,2887
3447,2883
3448,2881
" style="stroke:#000000;stroke-width:8;
stroke-linejoin:bevel; stroke-linecap:butt;
"/>
<!-- Line -->
<polyline points="5527,2551
5574,2503
" style="stroke:#000000;stroke-width:8;
stroke-linejoin:miter; stroke-linecap:butt;
fill:#ffffff;
"/>
<!-- Line -->
<polyline points="5574,1937
5603,1909
" style="stroke:#000000;stroke-width:8;
stroke-linejoin:miter; stroke-linecap:butt;
fill:#ffffff;
"/>
<!-- Line: box -->
<rect x="5763" y="1937" width="188" height="188" rx="0" 
style="stroke:#000000;stroke-width:8;
stroke-linejoin:miter; stroke-linecap:butt;
"/>
<!-- Text -->
<text xml:space="preserve" x="5858" y="2078" fill="#000000"  font-family="Helvetica" font-style="normal" font-weight="normal" font-size="114" text-anchor="middle">1</text>
<!-- Circle -->
<circle cx="5858" cy="2598" r="94"
 style="stroke:#000000;stroke-width:8;"/>
<!-- Text -->
<text xml:space="preserve" x="5858" y="2645" fill="#000000"  font-family="Helvetica" font-style="normal" font-weight="normal" font-size="114" text-anchor="middle">1</text>
<!-- Line -->
<polyline points="5622,2503
5623,2503
5627,2500
5636,2495
5653,2487
5675,2476
5700,2465
5725,2453
5751,2443
5774,2434
5795,2428
5814,2424
5832,2423
5848,2423
5866,2425
5881,2428
5896,2433
5911,2438
5927,2447
5943,2455
5959,2466
5973,2476
5988,2489
6001,2501
6012,2515
6023,2529
6031,2543
6038,2557
6043,2571
6046,2584
6047,2598
6046,2612
6043,2625
6038,2639
6031,2653
6023,2667
6012,2681
6000,2695
5987,2707
5972,2720
5956,2730
5940,2741
5924,2749
5907,2758
5890,2763
5874,2768
5858,2771
5841,2773
5825,2773
5807,2773
5790,2770
5770,2766
5748,2760
5723,2752
5698,2743
5671,2733
5645,2723
5622,2712
5602,2704
5631,2716
" style="stroke:#000000;stroke-width:8;
stroke-linejoin:bevel; stroke-linecap:butt;
"/>
<!-- Arrowhead on XXXpoint 5602 2704 - 5560 2686-->
<polygon points="5637 2684
5568 2689
5613 2743
5637 2684

" style="stroke:#000000;stroke-width:8;stroke-miterlimit:8;
fill:#000000;"/>
<!-- Line -->
<polyline points="5669,1889
5670,1889
5673,1887
5681,1884
5694,1879
5712,1871
5733,1864
5754,1858
5775,1851
5794,1847
5812,1844
5827,1843
5843,1844
5858,1846
5874,1850
5887,1855
5902,1860
5916,1867
5930,1876
5946,1885
5961,1897
5974,1908
5989,1921
6002,1933
6013,1948
6023,1962
6031,1975
6038,1990
6043,2004
6046,2017
6047,2031
6046,2045
6043,2058
6038,2072
6031,2086
6023,2100
6012,2114
6001,2128
5988,2140
5973,2153
5959,2163
5943,2174
5927,2182
5911,2191
5896,2196
5881,2201
5866,2204
5848,2206
5832,2206
5814,2205
5795,2201
5774,2195
5751,2186
5725,2176
5700,2164
5675,2153
5653,2142
5676,2154
" style="stroke:#000000;stroke-width:8;
stroke-linejoin:bevel; stroke-linecap:butt;
stroke-dasharray:20 20;"/>
<!-- Arrowhead on XXXpoint 5653 2142 - 5607 2117-->
<polygon points="5686 2123
5615 2121
5655 2179
5686 2123

" style="stroke:#000000;stroke-width:8;stroke-miterlimit:8;
fill:#000000;"/>
<!-- Line -->
<polyline points="4960,1984
4913,1984
" style="stroke:#000000;stroke-width:8;
stroke-linejoin:miter; stroke-linecap:butt;
fill:#ffffff;
"/>
<!-- Line: box -->
<rect x="4960" y="1889" width="188" height="188" rx="0" 
style="stroke:#000000;stroke-width:8;
stroke-linejoin:miter; stroke-linecap:butt;
"/>
<!-- Text -->
<text xml:space="preserve" x="5055" y="2031" fill="#000000"  font-family="Helvetica" font-style="normal" font-weight="normal" font-size="114" text-anchor="middle">3</text>
<!-- Line -->
<polyline points="4629,2125
4629,2173
" style="stroke:#000000;stroke-width:8;
stroke-linejoin:miter; stroke-linecap:butt;
fill:#ffffff;
"/>
<!-- Line: box -->
<rect x="4535" y="1937" width="188" height="188" rx="0" 
style="stroke:#000000;stroke-width:8;
stroke-linejoin:miter; stroke-linecap:butt;
"/>
<!-- Text -->
<text xml:space="preserve" x="4629" y="2078" fill="#000000"  font-family="Helvetica" font-style="normal" font-weight="normal" font-size="114" text-anchor="middle">4</text>
<!-- Circle -->
<circle cx="4629" cy="2598" r="94"
 style="stroke:#000000;stroke-width:8;"/>
<!-- Line -->
<polyline points="4724,2598
4771,2598
" style="stroke:#000000;stroke-width:8;
stroke-linejoin:miter; stroke-linecap:butt;
fill:#ffffff;
"/>
<!-- Text -->
<text xml:space="preserve" x="4629" y="2645" fill="#000000"  font-family="Helvetica" font-style="normal" font-weight="normal" font-size="114" text-anchor="middle">4</text>
<!-- Circle -->
<circle cx="5055" cy="2551" r="94"
 style="stroke:#000000;stroke-width:8;"/>
<!-- Line -->
<polyline points="5055,2409
5055,2456
" style="stroke:#000000;stroke-width:8;
stroke-linejoin:miter; stroke-linecap:butt;
fill:#ffffff;
"/>
<!-- Text -->
<text xml:space="preserve" x="5055" y="2598" fill="#000000"  font-family="Helvetica" font-style="normal" font-weight="normal" font-size="114" text-anchor="middle">3</text>
<!-- Text -->
<text xml:space="preserve" x="4771" y="2409" fill="#000000"  font-family="Helvetica" font-style="normal" font-weight="normal" font-size="227" text-anchor="middle">LA</text>
<!-- Line -->
<polyline points="4535,2881
4536,2883
4537,2887
4539,2893
4543,2900
4550,2909
4557,2917
4565,2924
4576,2931
4587,2936
4602,2940
4618,2942
4638,2944
4661,2944
4679,2944
4699,2943
4721,2942
4744,2941
4769,2940
4796,2938
4824,2936
4853,2934
4882,2931
4913,2929
4943,2927
4973,2923
5002,2921
5029,2919
5057,2917
5082,2916
5105,2915
5127,2914
5147,2913
5165,2913
5188,2913
5208,2915
5224,2917
5238,2921
5250,2927
5260,2933
5269,2940
5276,2949
5282,2957
5287,2964
5289,2971
5290,2974
5291,2976
" style="stroke:#000000;stroke-width:8;
stroke-linejoin:bevel; stroke-linecap:butt;
"/>
<!-- Line -->
<polyline points="5291,2976
5292,2974
5293,2971
5295,2964
5299,2957
5306,2949
5313,2940
5321,2933
5332,2927
5343,2921
5358,2917
5374,2915
5394,2913
5417,2913
5435,2913
5455,2914
5477,2915
5500,2916
5525,2917
5552,2919
5580,2921
5609,2923
5638,2927
5669,2929
5699,2931
5729,2934
5758,2936
5785,2938
5813,2940
5838,2941
5861,2942
5883,2943
5903,2944
5921,2944
5944,2944
5964,2942
5980,2940
5994,2936
6006,2931
6016,2924
6025,2917
6032,2909
6038,2900
6043,2893
6045,2887
6046,2883
6047,2881
" style="stroke:#000000;stroke-width:8;
stroke-linejoin:bevel; stroke-linecap:butt;
"/>
<!-- Line -->
<polyline points="519,2881
519,2883
520,2887
521,2893
523,2900
527,2909
530,2917
534,2924
539,2931
545,2936
553,2940
561,2942
571,2944
582,2944
596,2944
611,2942
627,2941
646,2938
666,2935
687,2932
708,2929
729,2925
750,2922
770,2919
789,2916
806,2915
820,2913
834,2913
846,2913
855,2915
864,2917
871,2921
877,2927
882,2933
887,2940
890,2949
893,2957
895,2964
896,2971
897,2974
897,2976
" style="stroke:#000000;stroke-width:8;
stroke-linejoin:bevel; stroke-linecap:butt;
"/>
<!-- Line -->
<polyline points="897,2976
897,2974
898,2971
899,2964
901,2957
904,2949
908,2940
912,2933
917,2927
923,2921
931,2917
939,2915
949,2913
960,2913
974,2913
988,2915
1005,2916
1024,2919
1044,2922
1065,2925
1086,2929
1107,2932
1128,2935
1148,2938
1167,2941
1184,2942
1198,2944
1212,2944
1224,2944
1233,2942
1241,2940
1249,2936
1255,2931
1260,2924
1265,2917
1268,2909
1271,2900
1273,2893
1274,2887
1275,2883
1275,2881
" style="stroke:#000000;stroke-width:8;
stroke-linejoin:bevel; stroke-linecap:butt;
"/>
<!-- Text -->
<text xml:space="preserve" x="614" y="2740" fill="#000000"  font-family="Helvetica" font-style="normal" font-weight="normal" font-size="227" text-anchor="middle">X</text>
<!-- Text -->
<text xml:space="preserve" x="755" y="2787" fill="#000000"  font-family="Helvetica" font-style="normal" font-weight="normal" font-size="152" text-anchor="middle">R</text>
<!-- Line -->
<polyline points="850,2645
1275,2645
" style="stroke:#000000;stroke-width:8;
stroke-linejoin:miter; stroke-linecap:butt;
"/>
<!-- Text -->
<text xml:space="preserve" x="1086" y="2740" fill="#000000"  font-family="Helvetica" font-style="normal" font-weight="normal" font-size="227" text-anchor="middle">RA</text>
<!-- Line -->
<polyline points="519,2409
803,2409
" style="stroke:#000000;stroke-width:8;
stroke-linejoin:miter; stroke-linecap:butt;
"/>
<!-- Line -->
<polyline points="992,2409
1275,2409
" style="stroke:#000000;stroke-width:8;
stroke-linejoin:miter; stroke-linecap:butt;
"/>
<!-- Text -->
<text xml:space="preserve" x="850" y="2456" fill="#000000"  font-family="Helvetica" font-style="normal" font-weight="normal" font-size="114" text-anchor="middle">1</text>
<!-- Text -->
<text xml:space="preserve" x="944" y="2456" fill="#000000"  font-family="Helvetica" font-style="normal" font-weight="normal" font-size="114" text-anchor="middle">3</text>
<!-- Text -->
<text xml:space="preserve" x="614" y="2173" fill="#000000"  font-family="Helvetica" font-style="normal" font-weight="normal" font-size="227" text-anchor="middle">X</text>
<!-- Text -->
<text xml:space="preserve" x="755" y="2220" fill="#000000"  font-family="Helvetica" font-style="normal" font-weight="normal" font-size="152" text-anchor="middle">L</text>
<!-- Line -->
<polyline points="897,2078
1275,2078
" style="stroke:#000000;stroke-width:8;
stroke-linejoin:miter; stroke-linecap:butt;
"/>
<!-- Text -->
<text xml:space="preserve" x="1086" y="2173" fill="#000000"  font-family="Helvetica" font-style="normal" font-weight="normal" font-size="227" text-anchor="middle">LA</text>
<!-- Line -->
<polyline points="519,1842
803,1842
" style="stroke:#000000;stroke-width:8;
stroke-linejoin:miter; stroke-linecap:butt;
"/>
<!-- Line -->
<polyline points="992,1842
1275,1842
" style="stroke:#000000;stroke-width:8;
stroke-linejoin:miter; stroke-linecap:butt;
"/>
<!-- Text -->
<text xml:space="preserve" x="850" y="1889" fill="#000000"  font-family="Helvetica" font-style="normal" font-weight="normal" font-size="114" text-anchor="middle">2</text>
<!-- Text -->
<text xml:space="preserve" x="944" y="1889" fill="#000000"  font-family="Helvetica" font-style="normal" font-weight="normal" font-size="114" text-anchor="middle">4</text>
<!-- Text -->
<text xml:space="preserve" x="1590" y="2125" fill="#000000"  font-family="Helvetica" font-style="normal" font-weight="normal" font-size="114" text-anchor="middle">4231</text>
<!-- Text -->
<text xml:space="preserve" x="1590" y="2409" fill="#000000"  font-family="Helvetica" font-style="normal" font-weight="normal" font-size="227" text-anchor="middle">S</text>
<!-- Text -->
<text xml:space="preserve" x="236" y="2125" fill="#000000"  font-family="Helvetica" font-style="normal" font-weight="normal" font-size="114" text-anchor="middle">2413</text>
<!-- Text -->
<text xml:space="preserve" x="236" y="2409" fill="#000000"  font-family="Helvetica" font-style="normal" font-weight="normal" font-size="227" text-anchor="middle">S</text>
<!-- Line: box -->
<rect x="4535" y="566" width="188" height="188" rx="0" 
style="stroke:#000000;stroke-width:8;
stroke-linejoin:miter; stroke-linecap:butt;
"/>
<!-- Text -->
<text xml:space="preserve" x="4629" y="708" fill="#000000"  font-family="Helvetica" font-style="normal" font-weight="normal" font-size="114" text-anchor="middle">2</text>
<!-- Circle -->
<circle cx="4629" cy="1228" r="94"
 style="stroke:#000000;stroke-width:8;"/>
<!-- Text -->
<text xml:space="preserve" x="4629" y="1275" fill="#000000"  font-family="Helvetica" font-style="normal" font-weight="normal" font-size="114" text-anchor="middle">2</text>
<!-- Circle -->
<circle cx="5055" cy="1181" r="94"
 style="stroke:#000000;stroke-width:8;"/>
<!-- Line -->
<polyline points="5055,1039
5055,1086
" style="stroke:#000000;stroke-width:8;
stroke-linejoin:miter; stroke-linecap:butt;
fill:#ffffff;
"/>
<!-- Text -->
<text xml:space="preserve" x="5055" y="1228" fill="#000000"  font-family="Helvetica" font-style="normal" font-weight="normal" font-size="114" text-anchor="middle">4</text>
<!-- Line: box -->
<rect x="4960" y="519" width="188" height="188" rx="0" 
style="stroke:#000000;stroke-width:8;
stroke-linejoin:miter; stroke-linecap:butt;
"/>
<!-- Text -->
<text xml:space="preserve" x="5055" y="661" fill="#000000"  font-family="Helvetica" font-style="normal" font-weight="normal" font-size="114" text-anchor="middle">4</text>
<!-- Line -->
<polyline points="4960,614
4913,614
" style="stroke:#000000;stroke-width:8;
stroke-linejoin:miter; stroke-linecap:butt;
fill:#ffffff;
"/>
<!-- Text -->
<text xml:space="preserve" x="4771" y="1039" fill="#000000"  font-family="Helvetica" font-style="normal" font-weight="normal" font-size="227" text-anchor="middle">LA</text>
<!-- Line -->
<polyline points="5527,1181
5574,1133
" style="stroke:#000000;stroke-width:8;
stroke-linejoin:miter; stroke-linecap:butt;
fill:#ffffff;
"/>
<!-- Line -->
<polyline points="5574,566
5603,539
" style="stroke:#000000;stroke-width:8;
stroke-linejoin:miter; stroke-linecap:butt;
fill:#ffffff;
"/>
<!-- Line: box -->
<rect x="5763" y="566" width="188" height="188" rx="0" 
style="stroke:#000000;stroke-width:8;
stroke-linejoin:miter; stroke-linecap:butt;
"/>
<!-- Text -->
<text xml:space="preserve" x="5858" y="708" fill="#000000"  font-family="Helvetica" font-style="normal" font-weight="normal" font-size="114" text-anchor="middle">3</text>
<!-- Circle -->
<circle cx="5858" cy="1228" r="94"
 style="stroke:#000000;stroke-width:8;"/>
<!-- Text -->
<text xml:space="preserve" x="5858" y="1275" fill="#000000"  font-family="Helvetica" font-style="normal" font-weight="normal" font-size="114" text-anchor="middle">3</text>
<!-- Line -->
<polyline points="5622,1133
5623,1133
5627,1130
5636,1125
5653,1117
5675,1106
5700,1095
5725,1083
5751,1072
5774,1064
5795,1058
5814,1054
5832,1053
5848,1053
5866,1055
5881,1058
5896,1063
5911,1068
5927,1077
5943,1085
5959,1096
5973,1106
5988,1119
6001,1131
6012,1145
6023,1159
6031,1173
6038,1187
6043,1201
6046,1214
6047,1228
6046,1241
6043,1255
6038,1269
6031,1282
6023,1297
6012,1311
6000,1324
5987,1337
5972,1350
5956,1360
5940,1371
5924,1379
5907,1387
5890,1393
5874,1398
5858,1401
5841,1403
5825,1403
5807,1403
5790,1400
5770,1396
5748,1390
5723,1382
5698,1373
5671,1363
5645,1353
5622,1342
5602,1334
5631,1345
" style="stroke:#000000;stroke-width:8;
stroke-linejoin:bevel; stroke-linecap:butt;
"/>
<!-- Arrowhead on XXXpoint 5602 1334 - 5560 1316-->
<polygon points="5637 1314
5568 1319
5613 1373
5637 1314

" style="stroke:#000000;stroke-width:8;stroke-miterlimit:8;
fill:#000000;"/>
<!-- Line -->
<polyline points="5669,519
5670,519
5673,517
5681,514
5694,509
5712,501
5733,494
5754,488
5775,481
5794,477
5812,474
5827,473
5843,474
5858,476
5874,480
5887,485
5902,490
5916,497
5930,506
5946,515
5961,527
5974,538
5989,551
6002,563
6013,578
6023,592
6031,605
6038,620
6043,634
6046,647
6047,661
6046,675
6043,688
6038,702
6031,716
6023,730
6012,744
6001,758
5988,770
5973,783
5959,793
5943,804
5927,812
5911,820
5896,826
5881,831
5866,834
5848,836
5832,836
5814,835
5795,831
5774,825
5751,816
5725,806
5700,794
5675,783
5653,772
5676,784
" style="stroke:#000000;stroke-width:8;
stroke-linejoin:bevel; stroke-linecap:butt;
stroke-dasharray:20 20;"/>
<!-- Arrowhead on XXXpoint 5653 772 - 5607 747-->
<polygon points="5686 753
5615 751
5655 809
5686 753

" style="stroke:#000000;stroke-width:8;stroke-miterlimit:8;
fill:#000000;"/>
<!-- Line -->
<polyline points="4535,1511
4536,1513
4537,1517
4539,1523
4543,1530
4550,1539
4557,1547
4565,1554
4576,1561
4587,1566
4602,1570
4618,1572
4638,1574
4661,1574
4679,1574
4699,1573
4721,1572
4744,1571
4769,1570
4796,1568
4824,1566
4853,1564
4882,1561
4913,1559
4943,1556
4973,1553
5002,1551
5029,1549
5057,1547
5082,1546
5105,1545
5127,1544
5147,1543
5165,1543
5188,1543
5208,1545
5224,1547
5238,1551
5250,1556
5260,1563
5269,1570
5276,1579
5282,1587
5287,1594
5289,1601
5290,1604
5291,1606
" style="stroke:#000000;stroke-width:8;
stroke-linejoin:bevel; stroke-linecap:butt;
"/>
<!-- Line -->
<polyline points="5291,1606
5292,1604
5293,1601
5295,1594
5299,1587
5306,1579
5313,1570
5321,1563
5332,1556
5343,1551
5358,1547
5374,1545
5394,1543
5417,1543
5435,1543
5455,1544
5477,1545
5500,1546
5525,1547
5552,1549
5580,1551
5609,1553
5638,1556
5669,1559
5699,1561
5729,1564
5758,1566
5785,1568
5813,1570
5838,1571
5861,1572
5883,1573
5903,1574
5921,1574
5944,1574
5964,1572
5980,1570
5994,1566
6006,1561
6016,1554
6025,1547
6032,1539
6038,1530
6043,1523
6045,1517
6046,1513
6047,1511
" style="stroke:#000000;stroke-width:8;
stroke-linejoin:bevel; stroke-linecap:butt;
"/>
<!-- Line -->
<polyline points="3685,1511
3687,1511
3690,1510
3697,1510
3707,1508
3719,1507
3734,1504
3751,1501
3770,1497
3791,1491
3813,1485
3838,1477
3865,1466
3896,1453
3930,1436
3968,1417
4002,1398
4035,1378
4066,1359
4094,1340
4120,1322
4145,1304
4169,1287
4191,1270
4212,1253
4232,1237
4249,1223
4264,1210
4277,1200
4250,1220
" style="stroke:#000000;stroke-width:8;
stroke-linejoin:bevel; stroke-linecap:butt;
"/>
<!-- Arrowhead on XXXpoint 4277 1200 - 4310 1170-->
<polygon points="4276 1241
4303 1176
4235 1193
4276 1241

" style="stroke:#000000;stroke-width:8;stroke-miterlimit:8;
fill:#000000;"/>
<!-- Line -->
<polyline points="4251,1370
4251,1369
4249,1363
4246,1353
4241,1335
4234,1314
4225,1293
4217,1273
4209,1255
4201,1241
4193,1230
4183,1220
4173,1212
4163,1206
4152,1202
4140,1196
4128,1193
4113,1190
4098,1187
4081,1185
4066,1184
4049,1182
4032,1182
4015,1181
4000,1181
3984,1181
3968,1181
3950,1181
3931,1181
3912,1181
3893,1180
3874,1180
3855,1179
3836,1177
3818,1175
3802,1173
3787,1171
3775,1168
3763,1165
3751,1160
3740,1154
3731,1146
3720,1137
3711,1125
3701,1111
3718,1138
" style="stroke:#000000;stroke-width:8;
stroke-linejoin:bevel; stroke-linecap:butt;
"/>
<!-- Arrowhead on XXXpoint 3701 1111 - 3675 1072-->
<polygon points="3741 1113
3680 1080
3689 1149
3741 1113

" style="stroke:#000000;stroke-width:8;stroke-miterlimit:8;
fill:#000000;"/>
<!-- Line -->
<polyline points="3685,992
3687,992
3690,991
3697,991
3707,988
3719,987
3734,984
3751,981
3770,977
3791,972
3813,965
3838,957
3865,946
3896,933
3930,916
3968,897
4002,878
4035,858
4066,839
4094,820
4120,803
4145,785
4169,767
4191,750
4212,733
4232,718
4249,703
4264,690
4277,680
4250,701
" style="stroke:#000000;stroke-width:8;
stroke-linejoin:bevel; stroke-linecap:butt;
stroke-dasharray:20 20;"/>
<!-- Arrowhead on XXXpoint 4277 680 - 4310 650-->
<polygon points="4276 722
4303 657
4235 674
4276 722

" style="stroke:#000000;stroke-width:8;stroke-miterlimit:8;
fill:#000000;"/>
<!-- Line -->
<polyline points="4251,850
4251,849
4249,844
4246,833
4241,815
4234,794
4225,773
4217,753
4209,735
4201,722
4193,710
4183,701
4173,692
4163,686
4152,682
4140,677
4127,674
4113,670
4097,667
4080,665
4064,664
4047,662
4029,662
4011,661
3994,661
3977,661
3961,661
3945,661
3929,661
3913,661
3896,661
3877,661
3856,661
3832,661
3806,661
3780,661
3755,661
3731,661
3711,661
3746,661
" style="stroke:#000000;stroke-width:8;
stroke-linejoin:bevel; stroke-linecap:butt;
stroke-dasharray:20 20;"/>
<!-- Arrowhead on XXXpoint 3711 661 - 3669 661-->
<polygon points="3741 629
3678 661
3741 692
3741 629

" style="stroke:#000000;stroke-width:8;stroke-miterlimit:8;
fill:#000000;"/>
<!-- Line -->
<polyline points="4346,425
4347,426
4350,429
4354,435
4360,445
4365,457
4370,473
4374,492
4379,514
4381,541
4384,574
4386,614
4386,635
4387,657
4388,681
4388,706
4389,733
4389,762
4390,791
4390,823
4390,855
4391,889
4391,922
4391,957
4391,992
4391,1026
4391,1061
4391,1095
4390,1128
4390,1161
4390,1192
4389,1222
4389,1250
4388,1277
4388,1302
4387,1327
4386,1349
4386,1370
4384,1409
4381,1442
4379,1469
4374,1491
4370,1510
4365,1526
4360,1539
4354,1548
4350,1554
4347,1558
4346,1559
" style="stroke:#000000;stroke-width:8;
stroke-linejoin:bevel; stroke-linecap:butt;
"/>
<!-- Line -->
<polyline points="3590,425
3589,426
3586,429
3582,435
3576,445
3571,457
3566,473
3562,492
3558,514
3555,541
3552,574
3551,614
3550,635
3549,657
3548,681
3548,706
3547,733
3547,762
3546,791
3546,823
3546,855
3545,889
3545,922
3545,957
3545,992
3545,1026
3545,1061
3545,1095
3546,1128
3546,1161
3546,1192
3547,1222
3547,1250
3548,1277
3548,1302
3549,1327
3550,1349
3551,1370
3552,1409
3555,1442
3558,1469
3562,1491
3566,1510
3571,1526
3576,1539
3582,1548
3586,1554
3589,1558
3590,1559
" style="stroke:#000000;stroke-width:8;
stroke-linejoin:bevel; stroke-linecap:butt;
"/>
<!-- Text -->
<text xml:space="preserve" x="3968" y="519" fill="#000000"  font-family="Helvetica" font-style="normal" font-weight="normal" font-size="114" text-anchor="middle">passing:</text>
<!-- Circle -->
<circle cx="3354" cy="1228" r="94"
 style="stroke:#000000;stroke-width:8;"/>
<!-- Circle -->
<circle cx="2929" cy="1228" r="94"
 style="stroke:#000000;stroke-width:8;"/>
<!-- Line: box -->
<rect x="3259" y="566" width="188" height="188" rx="0" 
style="stroke:#000000;stroke-width:8;
stroke-linejoin:miter; stroke-linecap:butt;
"/>
<!-- Line: box -->
<rect x="2834" y="566" width="188" height="188" rx="0" 
style="stroke:#000000;stroke-width:8;
stroke-linejoin:miter; stroke-linecap:butt;
"/>
<!-- Text -->
<text xml:space="preserve" x="3165" y="1039" fill="#000000"  font-family="Helvetica" font-style="normal" font-weight="normal" font-size="227" text-anchor="middle">RA</text>
<!-- Text -->
<text xml:space="preserve" x="3354" y="708" fill="#000000"  font-family="Helvetica" font-style="normal" font-weight="normal" font-size="114" text-anchor="middle">3</text>
<!-- Text -->
<text xml:space="preserve" x="3354" y="1275" fill="#000000"  font-family="Helvetica" font-style="normal" font-weight="normal" font-size="114" text-anchor="middle">3</text>
<!-- Text -->
<text xml:space="preserve" x="2929" y="708" fill="#000000"  font-family="Helvetica" font-style="normal" font-weight="normal" font-size="114" text-anchor="middle">4</text>
<!-- Text -->
<text xml:space="preserve" x="2929" y="1275" fill="#000000"  font-family="Helvetica" font-style="normal" font-weight="normal" font-size="114" text-anchor="middle">4</text>
<!-- Line: box -->
<rect x="2031" y="566" width="188" height="188" rx="0" 
style="stroke:#000000;stroke-width:8;
stroke-linejoin:miter; stroke-linecap:butt;
"/>
<!-- Text -->
<text xml:space="preserve" x="2125" y="708" fill="#000000"  font-family="Helvetica" font-style="normal" font-weight="normal" font-size="114" text-anchor="middle">2</text>
<!-- Circle -->
<circle cx="2125" cy="1228" r="94"
 style="stroke:#000000;stroke-width:8;"/>
<!-- Text -->
<text xml:space="preserve" x="2125" y="1275" fill="#000000"  font-family="Helvetica" font-style="normal" font-weight="normal" font-size="114" text-anchor="middle">2</text>
<!-- Line -->
<polyline points="2362,566
2361,566
2358,564
2349,561
2335,555
2316,546
2291,536
2266,525
2240,516
2215,507
2191,499
2170,493
2151,489
2133,486
2117,486
2101,486
2087,488
2071,491
2056,496
2041,501
2027,510
2012,518
1998,529
1985,539
1972,552
1961,564
1950,578
1941,592
1933,606
1928,620
1924,634
1922,647
1921,661
1922,671
1923,683
1926,693
1930,705
1935,716
1942,727
1950,739
1960,749
1970,760
1982,770
1995,781
2010,789
2026,797
2041,806
2059,812
2077,818
2096,824
2116,828
2136,832
2157,834
2176,835
2195,836
2216,836
2238,836
2261,835
2287,833
2314,831
2345,827
2379,823
2414,818
2452,812
2492,806
2533,800
2575,793
2616,786
2656,779
2690,773
2722,767
2746,763
2725,766
" style="stroke:#000000;stroke-width:8;
stroke-linejoin:bevel; stroke-linecap:butt;
stroke-dasharray:20 20;"/>
<!-- Arrowhead on XXXpoint 2746 763 - 2802 752-->
<polygon points="2735 796
2792 754
2724 734
2735 796

" style="stroke:#000000;stroke-width:8;stroke-miterlimit:8;
fill:#000000;"/>
<!-- Line: box -->
<rect x="3874" y="2173" width="188" height="188" rx="0" 
style="stroke:#000000;stroke-width:8;
stroke-linejoin:miter; stroke-linecap:butt;
fill:#ffffff;
"/>
<!-- Circle -->
<circle cx="3968" cy="2787" r="94"
 style="fill:#ffffff;stroke:#000000;stroke-width:8;"/>
<!-- Circle -->
<circle cx="3968" cy="1417" r="94"
 style="fill:#ffffff;stroke:#000000;stroke-width:8;"/>
<!-- Circle -->
<circle cx="5480" cy="1228" r="94"
 style="fill:#ffffff;stroke:#000000;stroke-width:8;"/>
<!-- Circle -->
<circle cx="5480" cy="2598" r="94"
 style="fill:#ffffff;stroke:#000000;stroke-width:8;"/>
<!-- Circle -->
<circle cx="2503" cy="1228" r="94"
 style="fill:#ffffff;stroke:#000000;stroke-width:8;"/>
<!-- Line: box -->
<rect x="5385" y="566" width="188" height="188" rx="0" 
style="stroke:#000000;stroke-width:8;
stroke-linejoin:miter; stroke-linecap:butt;
fill:#ffffff;
"/>
<!-- Line: box -->
<rect x="2409" y="1937" width="188" height="188" rx="0" 
style="stroke:#000000;stroke-width:8;
stroke-linejoin:miter; stroke-linecap:butt;
fill:#ffffff;
"/>
<!-- Circle -->
<circle cx="3968" cy="2551" r="94"
 style="fill:#ffffff;stroke:#000000;stroke-width:8;"/>
<!-- Circle -->
<circle cx="2503" cy="2598" r="94"
 style="fill:#ffffff;stroke:#000000;stroke-width:8;"/>
<!-- Line: box -->
<rect x="3874" y="803" width="188" height="188" rx="0" 
style="stroke:#000000;stroke-width:8;
stroke-linejoin:miter; stroke-linecap:butt;
fill:#ffffff;
"/>
<!-- Line: box -->
<rect x="5385" y="1937" width="188" height="188" rx="0" 
style="stroke:#000000;stroke-width:8;
stroke-linejoin:miter; stroke-linecap:butt;
fill:#ffffff;
"/>
<!-- Line: box -->
<rect x="3874" y="1937" width="188" height="188" rx="0" 
style="stroke:#000000;stroke-width:8;
stroke-linejoin:miter; stroke-linecap:butt;
fill:#ffffff;
"/>
<!-- Line: box -->
<rect x="2409" y="566" width="188" height="188" rx="0" 
style="stroke:#000000;stroke-width:8;
stroke-linejoin:miter; stroke-linecap:butt;
fill:#ffffff;
"/>
<!-- Line: box -->
<rect x="3874" y="566" width="188" height="188" rx="0" 
style="stroke:#000000;stroke-width:8;
stroke-linejoin:miter; stroke-linecap:butt;
fill:#ffffff;
"/>
<!-- Circle -->
<circle cx="3968" cy="1181" r="94"
 style="fill:#ffffff;stroke:#000000;stroke-width:8;"/>
<!-- Text -->
<text xml:space="preserve" x="3968" y="708" fill="#000000"  font-family="Helvetica" font-style="normal" font-weight="normal" font-size="114" text-anchor="middle">4</text>
<!-- Text -->
<text xml:space="preserve" x="3968" y="2314" fill="#000000"  font-family="Helvetica" font-style="normal" font-weight="normal" font-size="114" text-anchor="middle">2</text>
<!-- Text -->
<text xml:space="preserve" x="3968" y="2598" fill="#000000"  font-family="Helvetica" font-style="normal" font-weight="normal" font-size="114" text-anchor="middle">3</text>
<!-- Text -->
<text xml:space="preserve" x="3968" y="2834" fill="#000000"  font-family="Helvetica" font-style="normal" font-weight="normal" font-size="114" text-anchor="middle">2</text>
<!-- Text -->
<text xml:space="preserve" x="3968" y="944" fill="#000000"  font-family="Helvetica" font-style="normal" font-weight="normal" font-size="114" text-anchor="middle">1</text>
<!-- Text -->
<text xml:space="preserve" x="2503" y="708" fill="#000000"  font-family="Helvetica" font-style="normal" font-weight="normal" font-size="114" text-anchor="middle">1</text>
<!-- Text -->
<text xml:space="preserve" x="5480" y="2645" fill="#000000"  font-family="Helvetica" font-style="normal" font-weight="normal" font-size="114" text-anchor="middle">2</text>
<!-- Text -->
<text xml:space="preserve" x="2503" y="1275" fill="#000000"  font-family="Helvetica" font-style="normal" font-weight="normal" font-size="114" text-anchor="middle">1</text>
<!-- Text -->
<text xml:space="preserve" x="5480" y="2078" fill="#000000"  font-family="Helvetica" font-style="normal" font-weight="normal" font-size="114" text-anchor="middle">2</text>
<!-- Text -->
<text xml:space="preserve" x="3968" y="1228" fill="#000000"  font-family="Helvetica" font-style="normal" font-weight="normal" font-size="114" text-anchor="middle">4</text>
<!-- Text -->
<text xml:space="preserve" x="5480" y="1275" fill="#000000"  font-family="Helvetica" font-style="normal" font-weight="normal" font-size="114" text-anchor="middle">1</text>
<!-- Text -->
<text xml:space="preserve" x="3968" y="1464" fill="#000000"  font-family="Helvetica" font-style="normal" font-weight="normal" font-size="114" text-anchor="middle">1</text>
<!-- Text -->
<text xml:space="preserve" x="2503" y="2078" fill="#000000"  font-family="Helvetica" font-style="normal" font-weight="normal" font-size="114" text-anchor="middle">2</text>
<!-- Text -->
<text xml:space="preserve" x="2503" y="2645" fill="#000000"  font-family="Helvetica" font-style="normal" font-weight="normal" font-size="114" text-anchor="middle">2</text>
<!-- Text -->
<text xml:space="preserve" x="5480" y="708" fill="#000000"  font-family="Helvetica" font-style="normal" font-weight="normal" font-size="114" text-anchor="middle">1</text>
<!-- Text -->
<text xml:space="preserve" x="3968" y="2078" fill="#000000"  font-family="Helvetica" font-style="normal" font-weight="normal" font-size="114" text-anchor="middle">3</text>
</g>
</svg>
