<?xml version='1.0' encoding='utf-8' standalone='no'?>
<!DOCTYPE svg PUBLIC '-//W3C//DTD SVG 1.1//EN' 'http://www.w3.org/Graphics/SVG/1.1/DTD/svg11.dtd'>
<svg version="1.1" viewBox="-0.028 -0.352 470 106" xmlns='http://www.w3.org/2000/svg'>
<defs>
</defs>
<path d="M6.719,6.431h1.555v4.75h5.945v-4.75h1.555v11.5h-1.555V12.54H8.273v5.391H6.719V6.431z"/>
<path d="M18.297,6.431h1.555v7.258c0,1.089,0.258,1.891,0.773,2.406c0.521,0.516,1.255,0.773,2.203,0.773
	c0.942,0,1.672-0.25,2.188-0.75c0.521-0.505,0.781-1.302,0.781-2.391V6.431h1.555v7.469c0,1.255-0.386,2.292-1.156,3.109
	c-0.766,0.813-1.938,1.219-3.516,1.219c-1.245,0-2.287-0.349-3.125-1.047c-0.839-0.703-1.258-1.737-1.258-3.102V6.431z"/>
<path d="M29.758,6.431h2.234l3.289,9.703l3.273-9.703h2.234v11.5h-1.508V8.274l-3.242,9.656h-1.531l-3.242-9.703v9.703h-1.508V6.431
	z"/>
<path d="M43.109,17.931v-11.5h5.063c0.979,0,1.763,0.269,2.352,0.805c0.594,0.531,0.891,1.229,0.891,2.094
	c0,1.036-0.511,1.823-1.531,2.359c0.771,0.297,1.307,0.675,1.609,1.133c0.302,0.458,0.453,1.016,0.453,1.672
	c0,0.979-0.339,1.797-1.016,2.453c-0.677,0.656-1.638,0.984-2.883,0.984H43.109z M44.664,11.243h2.797
	c1.599,0,2.398-0.599,2.398-1.797c0-1.104-0.792-1.656-2.375-1.656h-2.82V11.243z M44.664,16.571h3.313
	c0.729,0,1.313-0.172,1.75-0.516c0.442-0.344,0.664-0.875,0.664-1.594c0-1.281-0.896-1.922-2.688-1.922h-3.039V16.571z"/>
<path d="M53.977,17.931v-11.5h8.43V7.79h-6.875v3.57h6.344v1.359h-6.344v3.852h7v1.359H53.977z"/>
<path d="M74.164,17.931H72.25c-0.177-0.755-0.266-1.651-0.266-2.688c0-0.833-0.154-1.411-0.461-1.734
	c-0.308-0.328-0.828-0.492-1.563-0.492h-3.734v4.914h-1.555v-11.5h5.305c1.255,0,2.192,0.258,2.813,0.773
	c0.625,0.511,0.938,1.302,0.938,2.375c0,1.25-0.534,2.161-1.602,2.734c0.469,0.188,0.807,0.438,1.016,0.75
	c0.208,0.313,0.325,0.841,0.352,1.586l0.086,1.875c0.01,0.208,0.039,0.417,0.086,0.625c0.047,0.203,0.213,0.378,0.5,0.523V17.931z
	 M72.125,9.712c0-0.661-0.177-1.146-0.531-1.453c-0.349-0.313-0.854-0.469-1.516-0.469h-3.852v3.93h3.57
	C71.349,11.72,72.125,11.051,72.125,9.712z"/>
<path d="M77.023,14.228c0.083,1.761,1.167,2.641,3.25,2.641c0.953,0,1.677-0.161,2.172-0.484c0.495-0.328,0.742-0.839,0.742-1.531
	c0-0.442-0.138-0.81-0.414-1.102c-0.271-0.297-0.945-0.573-2.023-0.828l-2.375-0.531c-0.755-0.188-1.349-0.497-1.781-0.93
	c-0.433-0.438-0.648-1.044-0.648-1.82c0-1.058,0.352-1.906,1.055-2.547c0.708-0.641,1.719-0.961,3.031-0.961
	c1.203,0,2.2,0.284,2.992,0.852c0.797,0.567,1.229,1.492,1.297,2.773h-1.453c-0.151-1.511-1.102-2.266-2.852-2.266
	c-0.766,0-1.386,0.167-1.859,0.5c-0.469,0.333-0.703,0.823-0.703,1.469c0,0.375,0.112,0.688,0.336,0.938
	c0.224,0.25,0.648,0.442,1.273,0.578l3.023,0.727c0.87,0.192,1.521,0.539,1.953,1.039c0.438,0.495,0.656,1.169,0.656,2.023
	c0,1.12-0.412,1.977-1.234,2.57c-0.823,0.594-1.945,0.891-3.367,0.891c-1.484,0-2.609-0.362-3.375-1.086s-1.148-1.695-1.148-2.914
	H77.023z"/>
<path d="M85.742,6.431h9.305V7.79h-3.875v10.141h-1.555V7.79h-3.875V6.431z"/>
<path d="M95.898,12.181c0-1.729,0.495-3.169,1.484-4.32c0.995-1.151,2.372-1.727,4.133-1.727c1.75,0,3.122,0.583,4.117,1.75
	c0.995,1.161,1.492,2.563,1.492,4.203c0,1.808-0.495,3.284-1.484,4.43c-0.99,1.141-2.367,1.711-4.133,1.711
	c-1.651,0-3-0.542-4.047-1.625C96.419,15.514,95.898,14.04,95.898,12.181z M97.5,12.181c0,1.344,0.352,2.461,1.055,3.352
	c0.708,0.891,1.695,1.336,2.961,1.336c1.156,0,2.112-0.417,2.867-1.25c0.76-0.839,1.141-1.984,1.141-3.438
	c0-1.391-0.357-2.519-1.07-3.383c-0.714-0.87-1.695-1.305-2.945-1.305c-1.183,0-2.146,0.419-2.891,1.258
	C97.872,9.59,97.5,10.732,97.5,12.181z"/>
<path d="M108.922,6.431h1.844l5.781,9.344V6.431h1.508v11.5h-1.75l-5.875-9.344v9.344h-1.508V6.431z"/>
<path d="M120.648,17.931v-11.5h8.43V7.79h-6.875v3.57h6.344v1.359h-6.344v3.852h7v1.359H120.648z"/>
<path d="M131.016,10.501V8.946c0-0.698,0.125-1.247,0.375-1.648c0.245-0.396,0.677-0.685,1.297-0.867v0.742
	c-0.568,0.104-0.852,0.648-0.852,1.633h0.805v1.695H131.016z"/>
<path d="M135.695,14.228c0.083,1.761,1.167,2.641,3.25,2.641c0.953,0,1.677-0.161,2.172-0.484c0.495-0.328,0.742-0.839,0.742-1.531
	c0-0.442-0.138-0.81-0.414-1.102c-0.271-0.297-0.945-0.573-2.023-0.828l-2.375-0.531c-0.755-0.188-1.349-0.497-1.781-0.93
	c-0.433-0.438-0.648-1.044-0.648-1.82c0-1.058,0.352-1.906,1.055-2.547c0.708-0.641,1.719-0.961,3.031-0.961
	c1.203,0,2.2,0.284,2.992,0.852c0.797,0.567,1.229,1.492,1.297,2.773h-1.453c-0.151-1.511-1.102-2.266-2.852-2.266
	c-0.766,0-1.386,0.167-1.859,0.5c-0.469,0.333-0.703,0.823-0.703,1.469c0,0.375,0.112,0.688,0.336,0.938
	c0.224,0.25,0.648,0.442,1.273,0.578l3.023,0.727c0.87,0.192,1.521,0.539,1.953,1.039c0.438,0.495,0.656,1.169,0.656,2.023
	c0,1.12-0.412,1.977-1.234,2.57c-0.823,0.594-1.945,0.891-3.367,0.891c-1.484,0-2.609-0.362-3.375-1.086s-1.148-1.695-1.148-2.914
	H135.695z"/>
<path d="M149.773,6.431h2.234l3.289,9.703l3.273-9.703h2.234v11.5h-1.508V8.274l-3.242,9.656h-1.531l-3.242-9.703v9.703h-1.508
	V6.431z"/>
<path d="M162.156,17.931l4.375-11.5h1.773l4.125,11.5h-1.695l-1.117-3.359h-4.648l-1.211,3.359H162.156z M165.477,13.212h3.586
	l-1.703-5.117L165.477,13.212z"/>
<path d="M178.781,13.095v-1.336h5.078v6.172h-1.016l-0.367-1.453c-0.365,0.479-0.875,0.891-1.531,1.234s-1.438,0.516-2.344,0.516
	c-1.537,0-2.792-0.558-3.766-1.672c-0.969-1.114-1.453-2.526-1.453-4.234c0-1.771,0.477-3.245,1.43-4.422s2.271-1.766,3.953-1.766
	c1.25,0,2.331,0.325,3.242,0.977c0.911,0.651,1.463,1.575,1.656,2.773h-1.508c-0.245-0.833-0.651-1.44-1.219-1.82
	c-0.563-0.38-1.269-0.57-2.117-0.57c-1.13,0-2.052,0.409-2.766,1.227c-0.714,0.817-1.07,1.995-1.07,3.531
	c0,1.433,0.313,2.56,0.938,3.383c0.63,0.823,1.594,1.234,2.891,1.234c1.047,0,1.906-0.308,2.578-0.922
	c0.677-0.62,1.016-1.57,1.016-2.852H178.781z"/>
<path d="M186.508,6.431h1.555v11.5h-1.555V6.431z"/>
<path d="M198.922,13.728h1.508c-0.266,1.5-0.831,2.625-1.695,3.375c-0.865,0.75-1.977,1.125-3.336,1.125
	c-1.558,0-2.813-0.542-3.766-1.625c-0.953-1.089-1.43-2.563-1.43-4.422c0-1.839,0.484-3.305,1.453-4.398
	c0.974-1.099,2.292-1.648,3.953-1.648c1.255,0,2.292,0.313,3.109,0.938c0.823,0.62,1.352,1.558,1.586,2.813h-1.508
	c-0.401-1.594-1.466-2.391-3.195-2.391c-1.13,0-2.047,0.403-2.75,1.211c-0.698,0.808-1.047,1.979-1.047,3.516
	c0,1.417,0.313,2.547,0.938,3.391c0.625,0.839,1.555,1.258,2.789,1.258c0.896,0,1.627-0.266,2.195-0.797
	C198.299,15.535,198.698,14.754,198.922,13.728z"/>
<path d="M206.883,6.431h5.148c1.036,0,1.862,0.302,2.477,0.906c0.62,0.599,0.93,1.388,0.93,2.367c0,1.016-0.315,1.833-0.945,2.453
	c-0.625,0.614-1.44,0.922-2.445,0.922h-3.609v4.852h-1.555V6.431z M208.438,7.79v3.953h3.078c1.547,0,2.32-0.685,2.32-2.055
	c0-1.266-0.753-1.898-2.258-1.898H208.438z"/>
<path d="M217.625,6.431h1.555v11.5h-1.555V6.431z"/>
<path d="M220.836,17.931l4.375-11.5h1.773l4.125,11.5h-1.695l-1.117-3.359h-4.648l-1.211,3.359H220.836z M224.156,13.212h3.586
	l-1.703-5.117L224.156,13.212z"/>
<path d="M232.5,6.431h1.844l5.781,9.344V6.431h1.508v11.5h-1.75l-5.875-9.344v9.344H232.5V6.431z"/>
<path d="M243.477,12.181c0-1.729,0.495-3.169,1.484-4.32c0.995-1.151,2.372-1.727,4.133-1.727c1.75,0,3.122,0.583,4.117,1.75
	c0.995,1.161,1.492,2.563,1.492,4.203c0,1.808-0.495,3.284-1.484,4.43c-0.989,1.141-2.367,1.711-4.133,1.711
	c-1.651,0-3-0.542-4.047-1.625C243.997,15.514,243.477,14.04,243.477,12.181z M245.078,12.181c0,1.344,0.352,2.461,1.055,3.352
	c0.708,0.891,1.695,1.336,2.961,1.336c1.156,0,2.112-0.417,2.867-1.25c0.761-0.839,1.141-1.984,1.141-3.438
	c0-1.391-0.356-2.519-1.07-3.383c-0.714-0.87-1.695-1.305-2.945-1.305c-1.183,0-2.146,0.419-2.891,1.258
	S245.078,10.732,245.078,12.181z"/>
<line fill="none" stroke="#000000" stroke-width="1.1112" stroke-miterlimit="10" x1="120.352" y1="25.905" x2="120.352" y2="92.391"/>
<path d="M410.178,13.829l5.211-7.07h1.164v7.195h1.648v1.227h-1.648v2.75h-1.406v-2.75h-4.969V13.829z M411.498,13.954h3.648V8.868
	L411.498,13.954z"/>
<path d="M418.857,17.931l2.906-4.352l-2.75-4.023h1.805l1.906,2.914l1.898-2.914h1.734l-2.797,4.023l2.906,4.352h-1.781
	l-2.063-3.141l-1.984,3.141H418.857z"/>
<path d="M428.678,14.47c0.016,0.808,0.211,1.425,0.586,1.852c0.38,0.422,0.977,0.633,1.789,0.633c0.683,0,1.266-0.183,1.75-0.547
	c0.489-0.37,0.734-0.911,0.734-1.625c0-0.62-0.208-1.109-0.625-1.469s-1.042-0.539-1.875-0.539c-0.177,0-0.448,0.008-0.813,0.023
	v-1.227c0.359,0.026,0.583,0.039,0.672,0.039c1.469,0,2.203-0.612,2.203-1.836c0-0.567-0.185-1.021-0.555-1.359
	c-0.364-0.339-0.867-0.508-1.508-0.508c-0.698,0-1.222,0.195-1.57,0.586s-0.547,0.981-0.594,1.773h-1.383
	c0.005-1.141,0.31-2.028,0.914-2.664c0.609-0.641,1.519-0.961,2.727-0.961c1.047,0,1.886,0.278,2.516,0.836
	c0.636,0.552,0.953,1.284,0.953,2.195c0,1.203-0.492,1.987-1.477,2.352c0.714,0.255,1.211,0.599,1.492,1.031
	c0.281,0.427,0.422,0.956,0.422,1.586c0,1.063-0.359,1.925-1.078,2.586s-1.683,0.992-2.891,0.992c-1.104,0-1.997-0.276-2.68-0.828
	c-0.677-0.558-1.065-1.531-1.164-2.922H428.678z"/>
<path d="M436.764,15.188c0.433-0.661,1.023-1.208,1.773-1.641l2.289-1.359c0.521-0.308,0.888-0.625,1.102-0.953
	c0.214-0.333,0.32-0.737,0.32-1.211c0-0.651-0.206-1.167-0.617-1.547c-0.406-0.38-0.958-0.57-1.656-0.57
	c-0.781,0-1.349,0.231-1.703,0.695c-0.349,0.458-0.55,1.138-0.602,2.039h-1.383c0-1.198,0.315-2.164,0.945-2.898
	s1.597-1.102,2.898-1.102c1.052,0,1.917,0.305,2.594,0.914c0.683,0.604,1.023,1.43,1.023,2.477c0,0.703-0.161,1.305-0.484,1.805
	c-0.323,0.495-0.82,0.93-1.492,1.305l-1.906,1.109c-0.672,0.396-1.183,0.766-1.531,1.109c-0.344,0.339-0.594,0.755-0.75,1.25h6.164
	v1.32h-7.75C436.076,16.759,436.331,15.845,436.764,15.188z"/>
<path d="M451.123,14.228c0.083,1.761,1.167,2.641,3.25,2.641c0.953,0,1.677-0.161,2.172-0.484c0.495-0.328,0.742-0.839,0.742-1.531
	c0-0.442-0.138-0.81-0.414-1.102c-0.271-0.297-0.945-0.573-2.023-0.828l-2.375-0.531c-0.755-0.188-1.349-0.497-1.781-0.93
	c-0.433-0.438-0.648-1.044-0.648-1.82c0-1.058,0.352-1.906,1.055-2.547c0.708-0.641,1.719-0.961,3.031-0.961
	c1.203,0,2.2,0.284,2.992,0.852c0.797,0.567,1.229,1.492,1.297,2.773h-1.453c-0.151-1.511-1.102-2.266-2.852-2.266
	c-0.766,0-1.386,0.167-1.859,0.5c-0.469,0.333-0.703,0.823-0.703,1.469c0,0.375,0.112,0.688,0.336,0.938s0.648,0.442,1.273,0.578
	l3.023,0.727c0.87,0.192,1.521,0.539,1.953,1.039c0.438,0.495,0.656,1.169,0.656,2.023c0,1.12-0.411,1.977-1.234,2.57
	s-1.945,0.891-3.367,0.891c-1.484,0-2.609-0.362-3.375-1.086s-1.148-1.695-1.148-2.914H451.123z"/>
<path fill="none" stroke="#000000" stroke-width="1.1339" stroke-miterlimit="10" d="M0.567,0.567h468.04v91.581H0.567V0.567z"/>
<line fill="none" stroke="#000000" stroke-width="1.1339" stroke-miterlimit="10" x1="0.067" y1="26.146" x2="468.106" y2="26.146"/>
<line fill="none" stroke="#000000" stroke-width="1.1019" stroke-miterlimit="10" x1="389.307" y1="25.905" x2="389.307" y2="91.283"/>
<path d="M391.279,101.066l2.931-3.978h0.655v4.048h0.927v0.689h-0.927v1.547h-0.791v-1.547h-2.795V101.066z M392.021,101.136h2.053
	v-2.861L392.021,101.136z"/>
<path d="M401.36,101.008h0.849c-0.15,0.844-0.468,1.477-0.954,1.898s-1.112,0.633-1.876,0.633c-0.877,0-1.582-0.305-2.119-0.914
	c-0.535-0.612-0.804-1.441-0.804-2.487c0-1.034,0.272-1.859,0.817-2.475c0.548-0.617,1.289-0.927,2.224-0.927
	c0.706,0,1.289,0.176,1.749,0.527c0.463,0.349,0.76,0.876,0.893,1.582h-0.849c-0.226-0.896-0.825-1.345-1.798-1.345
	c-0.636,0-1.15,0.228-1.547,0.682c-0.393,0.454-0.588,1.113-0.588,1.977c0,0.798,0.176,1.434,0.527,1.908
	c0.352,0.472,0.874,0.707,1.568,0.707c0.504,0,0.915-0.149,1.234-0.448C401.01,102.025,401.234,101.585,401.36,101.008z"/>
<path d="M402.411,103.54l2.215-6.803h0.598l-2.215,6.803H402.411z"/>
<path d="M405.285,101.066l2.931-3.978h0.655v4.048h0.927v0.689h-0.927v1.547h-0.791v-1.547h-2.795V101.066z M406.027,101.136h2.053
	v-2.861L406.027,101.136z"/>
<path d="M415.366,101.008h0.849c-0.15,0.844-0.468,1.477-0.954,1.898s-1.112,0.633-1.876,0.633c-0.877,0-1.582-0.305-2.119-0.914
	c-0.535-0.612-0.804-1.441-0.804-2.487c0-1.034,0.272-1.859,0.817-2.475c0.548-0.617,1.289-0.927,2.224-0.927
	c0.706,0,1.289,0.176,1.749,0.527c0.463,0.349,0.76,0.876,0.893,1.582h-0.849c-0.226-0.896-0.825-1.345-1.798-1.345
	c-0.636,0-1.15,0.228-1.547,0.682c-0.393,0.454-0.588,1.113-0.588,1.977c0,0.798,0.176,1.434,0.527,1.908
	c0.352,0.472,0.874,0.707,1.568,0.707c0.504,0,0.915-0.149,1.234-0.448C415.016,102.025,415.24,101.585,415.366,101.008z"/>
<path d="M419.673,103.373v-6.469h0.791v6.469H419.673z"/>
<path d="M421.374,101.035c0-0.747,0.2-1.354,0.603-1.819c0.4-0.469,0.934-0.703,1.6-0.703c0.641,0,1.168,0.228,1.582,0.681
	c0.412,0.455,0.619,1.063,0.619,1.824c0,0.718-0.199,1.315-0.598,1.793c-0.398,0.475-0.928,0.712-1.586,0.712
	c-0.648,0-1.18-0.229-1.596-0.686C421.582,102.376,421.374,101.776,421.374,101.035z M422.191,101.017
	c0,0.513,0.119,0.942,0.355,1.287c0.24,0.347,0.583,0.52,1.029,0.52c0.387,0,0.713-0.151,0.979-0.453
	c0.27-0.305,0.404-0.756,0.404-1.354c0-0.513-0.117-0.941-0.352-1.287s-0.579-0.52-1.032-0.52c-0.411,0-0.745,0.156-1.002,0.467
	C422.318,99.988,422.191,100.434,422.191,101.017z"/>
<path d="M426.652,103.373v-4.711h0.742v0.694c0.396-0.563,0.893-0.844,1.49-0.844c0.504,0,0.894,0.149,1.169,0.448
	c0.275,0.296,0.413,0.697,0.413,1.204v3.208h-0.791v-2.927c0-0.475-0.084-0.798-0.25-0.972c-0.165-0.176-0.409-0.264-0.734-0.264
	c-0.369,0-0.67,0.139-0.9,0.414c-0.232,0.275-0.348,0.663-0.348,1.164v2.584H426.652z"/>
<path d="M431.579,103.909h0.791c0.103,0.478,0.458,0.716,1.067,0.716c0.442,0,0.775-0.112,0.998-0.338s0.334-0.606,0.334-1.143
	v-0.313c-0.284,0.461-0.714,0.69-1.287,0.69c-0.619,0-1.114-0.237-1.486-0.712s-0.558-1.111-0.558-1.912
	c0-0.688,0.171-1.258,0.515-1.709c0.342-0.451,0.818-0.677,1.428-0.677c0.319,0,0.59,0.067,0.813,0.202
	c0.223,0.132,0.432,0.338,0.625,0.619v-0.672h0.742v4.289c0,0.882-0.185,1.497-0.554,1.846c-0.369,0.346-0.905,0.519-1.608,0.519
	c-0.498,0-0.908-0.107-1.23-0.321C431.849,104.777,431.652,104.416,431.579,103.909z M432.256,100.933
	c0,0.593,0.111,1.055,0.334,1.389c0.226,0.334,0.536,0.502,0.932,0.502c0.407,0,0.722-0.151,0.945-0.453
	c0.225-0.302,0.338-0.725,0.338-1.27c0-1.26-0.436-1.891-1.305-1.891C432.67,99.21,432.256,99.786,432.256,100.933z"/>
<path d="M436.207,98.662h0.865l0.879,3.735l0.928-3.735h0.879l0.953,3.735l0.928-3.735h0.791l-1.336,4.711h-0.817l-0.989-3.66
	l-0.927,3.66h-0.817L436.207,98.662z"/>
<path d="M443.19,96.913h0.791v0.905h-0.791V96.913z M443.19,98.662h0.791v4.711h-0.791V98.662z"/>
<path d="M445.635,101.905c0.022,0.612,0.429,0.919,1.217,0.919c0.343,0,0.612-0.066,0.809-0.198
	c0.199-0.135,0.299-0.321,0.299-0.558c0-0.17-0.066-0.305-0.197-0.404c-0.133-0.091-0.379-0.182-0.738-0.273l-0.924-0.229
	c-0.729-0.176-1.094-0.563-1.094-1.164c0-0.431,0.155-0.785,0.466-1.063c0.313-0.281,0.761-0.422,1.341-0.422
	c0.506,0,0.919,0.122,1.238,0.364c0.319,0.244,0.498,0.614,0.537,1.112h-0.778c-0.038-0.519-0.395-0.778-1.067-0.778
	c-0.64,0-0.959,0.225-0.959,0.673c0,0.196,0.075,0.334,0.225,0.413c0.149,0.076,0.358,0.146,0.629,0.211l0.781,0.197
	c0.478,0.123,0.816,0.277,1.016,0.462c0.202,0.193,0.303,0.457,0.303,0.791c0,0.463-0.165,0.839-0.496,1.13
	c-0.328,0.289-0.805,0.435-1.428,0.435c-0.578,0-1.041-0.122-1.389-0.364c-0.35-0.243-0.538-0.661-0.567-1.253H445.635z"/>
<path d="M450.262,101.263c0,0.492,0.111,0.876,0.334,1.151c0.226,0.272,0.563,0.409,1.011,0.409
	c0.319-0.003,0.598-0.094,0.835-0.273c0.24-0.181,0.383-0.396,0.426-0.646h0.778c-0.103,0.495-0.325,0.89-0.668,1.183
	c-0.343,0.289-0.793,0.435-1.349,0.435c-0.663,0-1.193-0.208-1.592-0.624c-0.395-0.416-0.593-1.017-0.593-1.802
	c0-0.759,0.193-1.378,0.58-1.858c0.39-0.484,0.935-0.726,1.635-0.726c0.659,0,1.16,0.228,1.503,0.681
	c0.346,0.452,0.527,1.142,0.545,2.07H450.262z M450.262,100.639h2.628c-0.056-0.524-0.19-0.894-0.404-1.107s-0.504-0.321-0.87-0.321
	c-0.387,0-0.703,0.133-0.949,0.396C450.42,99.868,450.285,100.211,450.262,100.639z"/>
<path d="M457.641,101.905c0.022,0.612,0.429,0.919,1.217,0.919c0.343,0,0.612-0.066,0.809-0.198
	c0.199-0.135,0.299-0.321,0.299-0.558c0-0.17-0.066-0.305-0.197-0.404c-0.133-0.091-0.379-0.182-0.738-0.273l-0.924-0.229
	c-0.729-0.176-1.094-0.563-1.094-1.164c0-0.431,0.155-0.785,0.466-1.063c0.313-0.281,0.761-0.422,1.341-0.422
	c0.506,0,0.919,0.122,1.238,0.364c0.319,0.244,0.498,0.614,0.537,1.112h-0.778c-0.038-0.519-0.395-0.778-1.067-0.778
	c-0.64,0-0.959,0.225-0.959,0.673c0,0.196,0.075,0.334,0.225,0.413c0.149,0.076,0.358,0.146,0.629,0.211l0.781,0.197
	c0.478,0.123,0.816,0.277,1.016,0.462c0.202,0.193,0.303,0.457,0.303,0.791c0,0.463-0.165,0.839-0.496,1.13
	c-0.328,0.289-0.805,0.435-1.428,0.435c-0.578,0-1.041-0.122-1.389-0.364c-0.35-0.243-0.538-0.661-0.567-1.253H457.641z"/>
<path d="M462.268,101.263c0,0.492,0.111,0.876,0.334,1.151c0.226,0.272,0.563,0.409,1.011,0.409
	c0.319-0.003,0.598-0.094,0.835-0.273c0.24-0.181,0.383-0.396,0.426-0.646h0.778c-0.103,0.495-0.325,0.89-0.668,1.183
	c-0.343,0.289-0.793,0.435-1.349,0.435c-0.663,0-1.193-0.208-1.592-0.624c-0.395-0.416-0.593-1.017-0.593-1.802
	c0-0.759,0.193-1.378,0.58-1.858c0.39-0.484,0.935-0.726,1.635-0.726c0.659,0,1.16,0.228,1.503,0.681
	c0.346,0.452,0.527,1.142,0.545,2.07H462.268z M462.268,100.639h2.628c-0.056-0.524-0.19-0.894-0.404-1.107s-0.504-0.321-0.87-0.321
	c-0.387,0-0.703,0.133-0.949,0.396C462.426,99.868,462.291,100.211,462.268,100.639z"/>
<path d="M466.223,99.321v-0.659h0.643v-1.336h0.791v1.336h0.773v0.659h-0.773v3.059c0,0.252,0.159,0.378,0.479,0.378h0.277v0.629
	c-0.297,0.04-0.518,0.061-0.664,0.061c-0.589,0-0.883-0.338-0.883-1.015v-3.111H466.223z"/>
<path d="M1.637,101.29h0.817v0.448c0,0.381,0.083,0.649,0.251,0.805c0.166,0.155,0.412,0.232,0.738,0.232
	c0.679,0,1.02-0.375,1.02-1.125v-4.746h0.874v4.72c0,0.615-0.163,1.089-0.487,1.419c-0.323,0.331-0.791,0.497-1.406,0.497
	c-0.525,0-0.957-0.138-1.297-0.413s-0.51-0.68-0.51-1.213V101.29z"/>
<path d="M6.295,101.035c0-0.747,0.2-1.354,0.602-1.819c0.401-0.469,0.935-0.703,1.6-0.703c0.643,0,1.17,0.228,1.582,0.681
	c0.414,0.455,0.62,1.063,0.62,1.824c0,0.718-0.199,1.315-0.598,1.793c-0.398,0.475-0.927,0.712-1.587,0.712
	c-0.647,0-1.179-0.229-1.595-0.686C6.503,102.376,6.295,101.776,6.295,101.035z M7.112,101.017c0,0.513,0.118,0.942,0.356,1.287
	c0.239,0.347,0.582,0.52,1.027,0.52c0.387,0,0.714-0.151,0.98-0.453c0.27-0.305,0.404-0.756,0.404-1.354
	c0-0.513-0.117-0.941-0.352-1.287s-0.579-0.52-1.033-0.52c-0.41,0-0.744,0.156-1.002,0.467C7.24,99.988,7.112,100.434,7.112,101.017
	z"/>
<path d="M11.572,96.904h0.791v2.382c0.354-0.516,0.835-0.773,1.441-0.773c0.504,0,0.894,0.149,1.169,0.448
	c0.275,0.296,0.413,0.697,0.413,1.204v3.208h-0.791v-3.107c0-0.389-0.076-0.661-0.229-0.816c-0.152-0.158-0.384-0.238-0.694-0.238
	c-0.413,0-0.735,0.134-0.967,0.4c-0.229,0.264-0.343,0.656-0.343,1.178v2.584h-0.791V96.904z"/>
<path d="M16.578,103.373v-4.711h0.742v0.694c0.396-0.563,0.893-0.844,1.49-0.844c0.504,0,0.894,0.149,1.169,0.448
	c0.275,0.296,0.413,0.697,0.413,1.204v3.208h-0.791v-2.927c0-0.475-0.084-0.798-0.25-0.972c-0.165-0.176-0.409-0.264-0.734-0.264
	c-0.369,0-0.67,0.139-0.9,0.414c-0.232,0.275-0.348,0.663-0.348,1.164v2.584H16.578z"/>
<path d="M23.645,96.904h0.94l1.226,5.282l1.49-5.282h0.953l1.49,5.282l1.199-5.282h0.967l-1.688,6.469h-0.914l-1.52-5.357
	l-1.543,5.357h-0.914L23.645,96.904z"/>
<path d="M35.152,96.904h1.258l1.85,5.458l1.842-5.458h1.256v6.469H40.51v-5.432l-1.824,5.432h-0.861l-1.823-5.458v5.458h-0.849
	V96.904z"/>
<path d="M42.602,96.913h0.791v0.905h-0.791V96.913z M42.602,98.662h0.791v4.711h-0.791V98.662z"/>
<path d="M44.121,99.321v-0.659h0.643v-1.336h0.791v1.336h0.773v0.659h-0.773v3.059c0,0.252,0.159,0.378,0.479,0.378h0.277v0.629
	c-0.297,0.04-0.518,0.061-0.664,0.061c-0.589,0-0.883-0.338-0.883-1.015v-3.111H44.121z"/>
<path d="M49.971,101.694h0.777c-0.064,0.53-0.254,0.969-0.566,1.313c-0.312,0.344-0.755,0.515-1.332,0.515
	c-0.642,0-1.15-0.214-1.525-0.642c-0.372-0.431-0.558-1.025-0.558-1.784c0-0.785,0.2-1.412,0.603-1.881
	c0.4-0.469,0.941-0.703,1.621-0.703c0.483,0,0.876,0.134,1.178,0.399c0.302,0.268,0.495,0.696,0.58,1.288h-0.777
	c-0.133-0.659-0.496-0.989-1.09-0.989c-0.414,0-0.733,0.16-0.959,0.479c-0.226,0.316-0.338,0.768-0.338,1.354
	c0,0.539,0.103,0.972,0.308,1.296c0.205,0.323,0.513,0.484,0.923,0.484C49.406,102.824,49.791,102.447,49.971,101.694z"/>
<path d="M51.574,96.904h0.791v2.382c0.354-0.516,0.835-0.773,1.441-0.773c0.504,0,0.894,0.149,1.169,0.448
	c0.275,0.296,0.413,0.697,0.413,1.204v3.208h-0.791v-3.107c0-0.389-0.076-0.661-0.229-0.816c-0.152-0.158-0.384-0.238-0.694-0.238
	c-0.413,0-0.735,0.134-0.967,0.4c-0.229,0.264-0.343,0.656-0.343,1.178v2.584h-0.791V96.904z"/>
<path d="M57.178,101.263c0,0.492,0.111,0.876,0.334,1.151c0.226,0.272,0.563,0.409,1.011,0.409c0.319-0.003,0.598-0.094,0.835-0.273
	c0.24-0.181,0.383-0.396,0.426-0.646h0.778c-0.103,0.495-0.325,0.89-0.668,1.183c-0.343,0.289-0.793,0.435-1.349,0.435
	c-0.663,0-1.193-0.208-1.592-0.624c-0.395-0.416-0.593-1.017-0.593-1.802c0-0.759,0.193-1.378,0.58-1.858
	c0.39-0.484,0.935-0.726,1.635-0.726c0.659,0,1.16,0.228,1.503,0.681c0.346,0.452,0.527,1.142,0.545,2.07H57.178z M57.178,100.639
	h2.628c-0.056-0.524-0.19-0.894-0.404-1.107s-0.504-0.321-0.87-0.321c-0.387,0-0.703,0.133-0.949,0.396
	C57.336,99.868,57.201,100.211,57.178,100.639z"/>
<path d="M61.612,103.373v-6.469h0.791v6.469H61.612z"/>
<path d="M63.612,103.373v-6.469h0.791v6.469H63.612z"/>
<path d="M65.797,104.291c0.311-0.047,0.471-0.353,0.479-0.918h-0.479v-0.984h0.94v0.896c0,0.82-0.313,1.295-0.94,1.424V104.291z"/>
<path d="M70.146,96.904h0.94l1.226,5.282l1.49-5.282h0.953l1.49,5.282l1.199-5.282h0.967l-1.688,6.469h-0.914l-1.52-5.357
	l-1.543,5.357h-0.914L70.146,96.904z"/>
<path d="M79.08,96.904h0.791v2.382c0.354-0.516,0.835-0.773,1.441-0.773c0.504,0,0.894,0.149,1.169,0.448
	c0.275,0.296,0.413,0.697,0.413,1.204v3.208h-0.791v-3.107c0-0.389-0.076-0.661-0.229-0.816c-0.152-0.158-0.384-0.238-0.694-0.238
	c-0.413,0-0.735,0.134-0.967,0.4c-0.229,0.264-0.343,0.656-0.343,1.178v2.584H79.08V96.904z"/>
<path d="M84.684,101.263c0,0.492,0.111,0.876,0.334,1.151c0.226,0.272,0.563,0.409,1.011,0.409c0.319-0.003,0.598-0.094,0.835-0.273
	c0.24-0.181,0.383-0.396,0.426-0.646h0.778c-0.103,0.495-0.325,0.89-0.668,1.183c-0.343,0.289-0.793,0.435-1.349,0.435
	c-0.663,0-1.193-0.208-1.592-0.624c-0.395-0.416-0.593-1.017-0.593-1.802c0-0.759,0.193-1.378,0.58-1.858
	c0.39-0.484,0.935-0.726,1.635-0.726c0.659,0,1.16,0.228,1.503,0.681c0.346,0.452,0.527,1.142,0.545,2.07H84.684z M84.684,100.639
	h2.628c-0.056-0.524-0.19-0.894-0.404-1.107s-0.504-0.321-0.87-0.321c-0.387,0-0.703,0.133-0.949,0.396
	C84.842,99.868,84.707,100.211,84.684,100.639z"/>
<path d="M88.639,99.321v-0.659h0.643v-1.336h0.791v1.336h0.773v0.659h-0.773v3.059c0,0.252,0.159,0.378,0.479,0.378h0.277v0.629
	c-0.297,0.04-0.518,0.061-0.664,0.061c-0.589,0-0.883-0.338-0.883-1.015v-3.111H88.639z"/>
<path d="M91.592,96.904h0.791v2.382c0.354-0.516,0.835-0.773,1.441-0.773c0.504,0,0.894,0.149,1.169,0.448
	c0.275,0.296,0.413,0.697,0.413,1.204v3.208h-0.791v-3.107c0-0.389-0.076-0.661-0.229-0.816c-0.152-0.158-0.384-0.238-0.694-0.238
	c-0.413,0-0.735,0.134-0.967,0.4c-0.229,0.264-0.343,0.656-0.343,1.178v2.584h-0.791V96.904z"/>
<path d="M97.195,101.263c0,0.492,0.111,0.876,0.334,1.151c0.226,0.272,0.563,0.409,1.011,0.409c0.319-0.003,0.598-0.094,0.835-0.273
	c0.24-0.181,0.383-0.396,0.426-0.646h0.778c-0.103,0.495-0.325,0.89-0.668,1.183c-0.343,0.289-0.793,0.435-1.349,0.435
	c-0.663,0-1.193-0.208-1.592-0.624c-0.395-0.416-0.593-1.017-0.593-1.802c0-0.759,0.193-1.378,0.58-1.858
	c0.39-0.484,0.935-0.726,1.635-0.726c0.659,0,1.16,0.228,1.503,0.681c0.346,0.452,0.527,1.142,0.545,2.07H97.195z M97.195,100.639
	h2.628c-0.056-0.524-0.19-0.894-0.404-1.107s-0.504-0.321-0.87-0.321c-0.387,0-0.703,0.133-0.949,0.396
	C97.354,99.868,97.219,100.211,97.195,100.639z"/>
<path d="M101.718,103.373v-4.711h0.743v0.787c0.216-0.361,0.426-0.607,0.628-0.738c0.205-0.133,0.438-0.198,0.698-0.198
	c0.053,0,0.119,0.011,0.198,0.03v0.813h-0.299c-0.349,0-0.633,0.125-0.853,0.374c-0.217,0.249-0.325,0.548-0.325,0.896v2.746
	H101.718z"/>
<path d="M104.627,103.373v-6.469h0.791v6.469H104.627z"/>
<path d="M106.512,105.218v-0.712c0.179,0.056,0.346,0.083,0.501,0.083c0.185,0,0.313-0.047,0.387-0.141
	c0.073-0.096,0.141-0.219,0.202-0.369l0.246-0.575l-1.758-4.843h0.905l1.261,3.832l1.244-3.832h0.879l-1.688,4.632
	c-0.34,0.952-0.615,1.523-0.826,1.714c-0.211,0.188-0.506,0.281-0.883,0.281C106.824,105.289,106.667,105.265,106.512,105.218z"/>
<path d="M113.688,103.373v-6.469h2.848c0.551,0,0.991,0.151,1.322,0.453c0.334,0.299,0.502,0.691,0.502,1.178
	c0,0.583-0.288,1.025-0.861,1.326c0.433,0.168,0.734,0.38,0.904,0.638s0.256,0.571,0.256,0.94c0,0.551-0.191,1.011-0.572,1.38
	s-0.921,0.554-1.621,0.554H113.688z M114.563,99.611h1.572c0.899,0,1.35-0.337,1.35-1.011c0-0.621-0.445-0.932-1.336-0.932h-1.586
	V99.611z M114.563,102.608h1.863c0.409,0,0.738-0.097,0.984-0.29c0.248-0.193,0.373-0.492,0.373-0.896
	c0-0.721-0.504-1.081-1.512-1.081h-1.709V102.608z"/>
<path d="M119.33,101.035c0-0.747,0.2-1.354,0.602-1.819c0.401-0.469,0.935-0.703,1.6-0.703c0.643,0,1.17,0.228,1.582,0.681
	c0.414,0.455,0.62,1.063,0.62,1.824c0,0.718-0.199,1.315-0.598,1.793c-0.398,0.475-0.927,0.712-1.587,0.712
	c-0.647,0-1.179-0.229-1.595-0.686C119.538,102.376,119.33,101.776,119.33,101.035z M120.147,101.017
	c0,0.513,0.118,0.942,0.356,1.287c0.239,0.347,0.582,0.52,1.027,0.52c0.387,0,0.714-0.151,0.98-0.453
	c0.27-0.305,0.404-0.756,0.404-1.354c0-0.513-0.117-0.941-0.352-1.287s-0.579-0.52-1.033-0.52c-0.41,0-0.744,0.156-1.002,0.467
	C120.275,99.988,120.147,100.434,120.147,101.017z"/>
<path d="M124.335,101.035c0-0.747,0.2-1.354,0.603-1.819c0.4-0.469,0.934-0.703,1.6-0.703c0.641,0,1.168,0.228,1.582,0.681
	c0.412,0.455,0.619,1.063,0.619,1.824c0,0.718-0.199,1.315-0.598,1.793c-0.398,0.475-0.928,0.712-1.586,0.712
	c-0.648,0-1.18-0.229-1.596-0.686C124.543,102.376,124.335,101.776,124.335,101.035z M125.152,101.017
	c0,0.513,0.119,0.942,0.355,1.287c0.24,0.347,0.583,0.52,1.029,0.52c0.387,0,0.713-0.151,0.979-0.453
	c0.27-0.305,0.404-0.756,0.404-1.354c0-0.513-0.117-0.941-0.352-1.287s-0.579-0.52-1.032-0.52c-0.411,0-0.745,0.156-1.002,0.467
	C125.279,99.988,125.152,100.434,125.152,101.017z"/>
<path d="M129.64,103.373v-6.469h0.791v3.744l2.021-1.986h1.002l-1.793,1.749l1.903,2.962h-1.016l-1.459-2.391l-0.659,0.682v1.709
	H129.64z"/>
<path d="M136.701,101.83c0.243-0.371,0.576-0.679,0.998-0.922l1.287-0.766c0.293-0.172,0.499-0.352,0.619-0.535
	c0.12-0.188,0.181-0.415,0.181-0.682c0-0.366-0.116-0.656-0.347-0.87c-0.229-0.214-0.54-0.321-0.932-0.321
	c-0.439,0-0.76,0.131-0.959,0.392c-0.196,0.258-0.309,0.641-0.338,1.147h-0.777c0-0.674,0.177-1.218,0.531-1.631
	s0.897-0.619,1.631-0.619c0.591,0,1.077,0.171,1.459,0.514c0.383,0.34,0.575,0.805,0.575,1.393c0,0.396-0.091,0.734-0.272,1.016
	c-0.182,0.278-0.461,0.523-0.84,0.734l-1.072,0.623c-0.377,0.224-0.665,0.432-0.861,0.625c-0.193,0.19-0.334,0.425-0.422,0.703
	h3.468v0.742h-4.359C136.314,102.713,136.458,102.199,136.701,101.83z"/>
<path d="M142.164,101.425c0.009,0.455,0.119,0.802,0.33,1.042c0.213,0.237,0.549,0.356,1.006,0.356c0.384,0,0.712-0.103,0.984-0.309
	c0.275-0.207,0.413-0.512,0.413-0.914c0-0.348-0.117-0.623-0.352-0.826c-0.234-0.201-0.586-0.303-1.055-0.303
	c-0.1,0-0.252,0.004-0.457,0.014v-0.69c0.202,0.015,0.328,0.022,0.378,0.022c0.826,0,1.239-0.345,1.239-1.033
	c0-0.319-0.104-0.574-0.312-0.765c-0.206-0.19-0.488-0.286-0.849-0.286c-0.393,0-0.688,0.11-0.884,0.33s-0.307,0.553-0.334,0.998
	h-0.777c0.003-0.643,0.174-1.142,0.514-1.499c0.344-0.36,0.854-0.54,1.534-0.54c0.589,0,1.061,0.156,1.415,0.47
	c0.357,0.311,0.536,0.723,0.536,1.235c0,0.676-0.276,1.117-0.831,1.322c0.401,0.144,0.682,0.337,0.84,0.58
	c0.158,0.24,0.237,0.538,0.237,0.893c0,0.598-0.202,1.082-0.606,1.454s-0.946,0.558-1.626,0.558c-0.621,0-1.124-0.155-1.507-0.465
	c-0.382-0.313-0.6-0.861-0.655-1.645H142.164z"/>
<line fill="none" stroke="#000000" stroke-width="0.5528" stroke-miterlimit="10" stroke-dasharray="1.4173" x1="74.841" y1="25.905" x2="74.841" y2="91.724"/>
<path d="M8.761,66.094l3.758-5.883l-3.531-5.617h2.867l2.039,3.727l2.109-3.727h2.758l-3.516,5.477l3.742,6.023h-2.875l-2.211-3.906
	l-2.344,3.906H8.761z"/>
<path d="M25.986,69.45h-1.655c-0.101-0.388-0.155-0.813-0.161-1.274l-0.01-0.537c-0.006-0.358-0.086-0.613-0.239-0.767
	s-0.464-0.229-0.933-0.229h-1.572v2.808h-1.489v-7.188h3.667c0.69,0,1.242,0.188,1.655,0.562c0.414,0.371,0.62,0.874,0.62,1.509
	c0,0.811-0.373,1.374-1.118,1.689c0.404,0.159,0.656,0.379,0.757,0.659s0.151,0.718,0.151,1.313v0.288
	c0,0.273,0.018,0.491,0.054,0.654c0.039,0.159,0.13,0.266,0.273,0.317V69.45z M24.355,64.479c0-0.638-0.352-0.957-1.055-0.957
	h-1.885v1.919h1.768C23.964,65.441,24.355,65.121,24.355,64.479z"/>
<path fill="none" stroke="#000000" stroke-width="0.5572" stroke-miterlimit="10" d="M52.05,52.567
	c-0.088-0.396-0.133-0.801-0.133-1.207c0-3.031,2.459-5.49,5.49-5.49c3.029,0,5.488,2.459,5.488,5.49
	c0,1.018-0.281,2.014-0.814,2.879"/>
<polygon fill-rule="evenodd" clip-rule="evenodd" stroke="#000000" stroke-width="0.2786" stroke-miterlimit="10" points="
	61.574,50.885 62.392,55.418 63.802,51.033 61.574,50.885 "/>
<path d="M54.799,49.325c0.702,0,1.196-0.115,1.483-0.348c0.287-0.231,0.449-0.519,0.485-0.861h1.16v7.12h-1.405V50.31h-1.724V49.325
	z"/>
<line fill="none" stroke="#000000" stroke-width="0.5528" stroke-miterlimit="10" stroke-dasharray="1.4173" x1="429.78" y1="25.905" x2="429.78" y2="91.724"/>
<path d="M399.71,55.36h2.383v4.328h4.492V55.36h2.383v11.5h-2.383v-5.156h-4.492v5.156h-2.383V55.36z"/>
<path d="M413.046,63.282c0.068,1.261,0.891,1.891,2.469,1.891c1.521,0,2.281-0.487,2.281-1.461c0-0.62-0.533-1.06-1.602-1.32
	l-2.82-0.719c-0.863-0.208-1.5-0.56-1.906-1.055s-0.609-1.153-0.609-1.977c0-1.052,0.379-1.911,1.133-2.578
	c0.756-0.667,1.848-1,3.273-1c1.313,0,2.365,0.32,3.156,0.961c0.793,0.641,1.23,1.57,1.313,2.789h-2.313
	c-0.172-1.177-0.938-1.766-2.297-1.766c-0.619,0-1.113,0.12-1.484,0.359c-0.363,0.239-0.547,0.567-0.547,0.984
	c0,0.302,0.094,0.555,0.281,0.758c0.193,0.203,0.5,0.356,0.922,0.461l2.797,0.688c1.152,0.276,1.941,0.664,2.367,1.164
	c0.434,0.5,0.648,1.153,0.648,1.961c0,1.109-0.395,2.011-1.188,2.703c-0.785,0.688-1.93,1.031-3.43,1.031
	c-1.4,0-2.543-0.328-3.43-0.984c-0.885-0.661-1.328-1.625-1.328-2.891H413.046z"/>
<path d="M190.047,35.377c0.702,0,1.196-0.116,1.483-0.348c0.287-0.231,0.449-0.519,0.485-0.862h1.16v7.121h-1.405v-4.927h-1.724
	V35.377z"/>
<path d="M195.15,41.288l1.832-2.708l-1.768-2.62h1.709l0.926,1.562l0.905-1.562h1.646l-1.772,2.601l1.836,2.728h-1.733l-0.95-1.602
	l-0.939,1.602H195.15z"/>
<path d="M203.627,38.511l2.63-4.344h1.602v4.471h0.788v1.087h-0.788v1.562h-1.406v-1.562h-2.825V38.511z M204.68,38.639h1.772
	v-3.105L204.68,38.639z"/>
<path d="M209.092,41.288l1.832-2.708l-1.768-2.62h1.709l0.926,1.562l0.905-1.562h1.646l-1.772,2.601l1.836,2.728h-1.733l-0.95-1.602
	l-0.939,1.602H209.092z"/>
<path fill="none" stroke="#000000" stroke-width="0.5572" stroke-miterlimit="10" d="M63.216,69.552
	c0.088-0.396,0.133-0.801,0.133-1.207c0-3.031-2.459-5.49-5.49-5.49c-3.029,0-5.488,2.459-5.488,5.49
	c0,1.018,0.281,2.014,0.814,2.879"/>
<polygon fill-rule="evenodd" clip-rule="evenodd" stroke="#000000" stroke-width="0.2786" stroke-miterlimit="10" points="
	53.693,67.869 52.875,72.402 51.464,68.018 53.693,67.869 "/>
<path d="M55.346,66.31c0.702,0,1.196-0.115,1.483-0.348c0.287-0.231,0.449-0.519,0.485-0.861h1.16v7.12H57.07v-4.927h-1.724V66.31z"
	/>
<path d="M35.957,47.24c0.702,0,1.196-0.116,1.483-0.348c0.287-0.231,0.449-0.519,0.485-0.862h1.16v7.121H37.68v-4.927h-1.724V47.24z
	"/>
<path d="M41.059,53.151l1.832-2.708l-1.768-2.62h1.709l0.926,1.562l0.905-1.562h1.646l-1.772,2.601l1.836,2.728h-1.733l-0.95-1.602
	l-0.939,1.602H41.059z"/>
<path d="M47.402,48.014h1.503v1.464h-1.503V48.014z M47.402,51.687h1.503v1.464h-1.503V51.687z"/>
<path d="M35.594,68.383l2.63-4.344h1.602v4.471h0.788v1.087h-0.788v1.562h-1.406v-1.562h-2.825V68.383z M36.647,68.511h1.772v-3.105
	L36.647,68.511z"/>
<path d="M41.059,71.16l1.832-2.708l-1.768-2.62h1.709l0.926,1.562l0.905-1.562h1.646l-1.772,2.601l1.836,2.728h-1.733l-0.95-1.602
	L42.75,71.16H41.059z"/>
<path d="M47.402,66.023h1.503v1.464h-1.503V66.023z M47.402,69.696h1.503v1.464h-1.503V69.696z"/>
<path d="M37.564,83.865c0.81-0.229,1.214-0.606,1.214-1.133c0-0.194-0.074-0.357-0.224-0.49c-0.149-0.133-0.342-0.199-0.579-0.199
	c-0.462,0-0.822,0.232-1.08,0.695l-0.106-0.026c0.128-0.342,0.307-0.605,0.536-0.791c0.232-0.187,0.528-0.281,0.888-0.281
	c0.346,0,0.619,0.085,0.82,0.255s0.302,0.391,0.302,0.663c0,0.349-0.225,0.654-0.675,0.917c0.613,0.215,0.92,0.63,0.92,1.244
	c0,0.477-0.188,0.853-0.564,1.129c-0.376,0.276-0.853,0.415-1.428,0.415c-0.223,0-0.413-0.031-0.572-0.095
	c-0.159-0.063-0.238-0.161-0.238-0.293c0-0.159,0.097-0.239,0.291-0.239c0.097,0,0.254,0.065,0.473,0.196
	c0.213,0.128,0.39,0.192,0.532,0.192c0.275,0,0.501-0.092,0.678-0.277c0.18-0.188,0.27-0.438,0.27-0.751
	c0-0.418-0.186-0.72-0.558-0.908c-0.177-0.091-0.377-0.137-0.6-0.137h-0.291L37.564,83.865z"/>
<path d="M40.387,84.446h1.761v0.418h-1.761V84.446z"/>
<path d="M42.614,84.623l2.29-2.981h0.323v2.994h0.742v0.428h-0.742v1.11h-0.568v-1.11h-2.045V84.623z M42.908,84.636h1.751v-2.312
	L42.908,84.636z"/>
<path d="M53.404,83.642h1.289l0.156,0.273c0.078,0.156,0.155,0.313,0.155,0.352l0.04,0.078l-0.156,0.313l-0.195,0.352l-0.664,0.039
	h-0.625V84.97c0.078-0.391,0.078-0.898,0-1.289 M52.078,81.495c-0.156,0.039-0.234,0.156-0.195,0.313c0,0.078,0,0.156,0.117,0.234
	c0.429,0.352,0.702,0.896,0.819,1.6c0.039,0.234,0.039,0.391,0.039,0.703c0,0.273,0,0.469-0.039,0.703
	c-0.117,0.664-0.391,1.209-0.819,1.6c-0.117,0.078-0.117,0.117-0.117,0.234c-0.039,0.156,0.078,0.313,0.273,0.313
	c0.078,0,0.117-0.039,0.233-0.117c0.352-0.313,0.624-0.742,0.819-1.25c0.039-0.078,0.039-0.115,0.039-0.156l0.039-0.037h0.547
	c0.313,0,0.547,0,0.547,0s-0.117,0.232-0.273,0.545c-0.156,0.273-0.273,0.547-0.273,0.586s0,0.117,0.039,0.195
	c0.078,0.195,0.313,0.195,0.43,0.078c0.039-0.039,0.117-0.195,0.702-1.326c0.742-1.406,0.664-1.328,0.664-1.406
	c-0.039-0.078-0.078-0.195-0.664-1.328c-0.741-1.404-0.663-1.365-0.741-1.404c-0.039,0-0.117-0.039-0.195,0
	c-0.156,0-0.234,0.117-0.234,0.273c0,0.039,0,0.039,0,0.078c0,0,0.117,0.273,0.273,0.586c0.156,0.273,0.273,0.506,0.273,0.506
	c0,0.039-0.234,0.039-0.547,0.039h-0.547l-0.039-0.078c0-0.039-0.039-0.193-0.078-0.313c-0.194-0.428-0.468-0.779-0.78-1.053
	c-0.077-0.078-0.116-0.117-0.155-0.117S52.117,81.495,52.078,81.495z"/>
<path d="M57.852,82.911c-0.185,0.442-0.278,1.055-0.278,1.839c0,0.619,0.079,1.146,0.235,1.581c0.154,0.433,0.459,0.837,0.914,1.213
	l-0.059,0.109c-1.115-0.707-1.672-1.691-1.672-2.954c0-1.224,0.55-2.223,1.649-2.998l0.082,0.123
	C58.328,82.106,58.037,82.469,57.852,82.911z"/>
<path d="M59.775,85.888h1.57c0.166,0,0.292-0.035,0.379-0.105c0.087-0.072,0.173-0.187,0.258-0.343l0.091,0.034l-0.369,0.945h-2.585
	v-0.092l1.169-1.312c0.579-0.65,0.868-1.252,0.868-1.805c0-0.299-0.081-0.54-0.242-0.721c-0.161-0.184-0.392-0.275-0.692-0.275
	c-0.215,0-0.399,0.073-0.552,0.218c-0.152,0.143-0.285,0.371-0.398,0.683l-0.144-0.034c0.07-0.405,0.224-0.736,0.463-0.992
	c0.242-0.258,0.559-0.388,0.95-0.388c0.331,0,0.612,0.122,0.842,0.364c0.231,0.243,0.346,0.541,0.346,0.894
	c0,0.519-0.309,1.118-0.927,1.798L59.775,85.888z"/>
<path d="M62.808,87.377l-0.059-0.132c0.203-0.134,0.346-0.264,0.431-0.391s0.127-0.233,0.127-0.319c0-0.041-0.008-0.068-0.023-0.082
	c-0.015-0.016-0.038-0.024-0.069-0.024c-0.015,0-0.038,0.004-0.068,0.014c-0.03,0.007-0.061,0.01-0.091,0.01
	c-0.137,0-0.242-0.03-0.313-0.088c-0.072-0.059-0.108-0.148-0.108-0.269s0.035-0.218,0.104-0.292
	c0.072-0.075,0.167-0.112,0.284-0.112c0.159,0,0.288,0.06,0.389,0.18c0.1,0.118,0.15,0.275,0.15,0.473
	c0,0.206-0.083,0.415-0.248,0.625C63.151,87.178,62.982,87.313,62.808,87.377z"/>
<path d="M64.943,84.016c0.745-0.238,1.117-0.631,1.117-1.18c0-0.202-0.069-0.372-0.206-0.51c-0.137-0.138-0.315-0.208-0.532-0.208
	c-0.425,0-0.755,0.242-0.993,0.724l-0.098-0.027c0.118-0.355,0.282-0.63,0.493-0.822c0.213-0.195,0.485-0.292,0.816-0.292
	c0.317,0,0.569,0.088,0.754,0.265s0.278,0.407,0.278,0.69c0,0.363-0.207,0.681-0.621,0.955c0.564,0.225,0.846,0.656,0.846,1.295
	c0,0.497-0.173,0.889-0.519,1.176c-0.346,0.288-0.784,0.432-1.313,0.432c-0.205,0-0.38-0.033-0.526-0.099
	c-0.146-0.066-0.219-0.167-0.219-0.306c0-0.166,0.089-0.249,0.268-0.249c0.089,0,0.234,0.068,0.434,0.204
	c0.196,0.134,0.359,0.201,0.49,0.201c0.252,0,0.46-0.096,0.624-0.289c0.166-0.195,0.248-0.456,0.248-0.782
	c0-0.435-0.171-0.75-0.513-0.945c-0.163-0.095-0.347-0.143-0.552-0.143h-0.268L64.943,84.016z"/>
<path d="M67.473,81.823l0.082-0.123c1.099,0.775,1.649,1.774,1.649,2.998c0,1.262-0.557,2.247-1.671,2.954l-0.059-0.109
	c0.455-0.376,0.76-0.781,0.914-1.213c0.157-0.435,0.235-0.962,0.235-1.581c0-0.784-0.093-1.397-0.278-1.839
	S67.869,82.106,67.473,81.823z"/>
<path d="M49.412,83.681c-0.078,0.391-0.078,0.898,0,1.289v0.078h-0.625l-0.664-0.039l-0.195-0.352l-0.156-0.313l0.04-0.078
	c0-0.039,0.077-0.195,0.155-0.352l0.156-0.273h1.289 M50.582,81.495c-0.039,0-0.078,0.039-0.155,0.117
	c-0.313,0.273-0.586,0.625-0.78,1.053c-0.039,0.119-0.078,0.273-0.078,0.313l-0.039,0.078h-0.547c-0.313,0-0.547,0-0.547-0.039
	c0,0,0.117-0.232,0.273-0.506c0.156-0.313,0.273-0.586,0.273-0.586c0-0.039,0-0.039,0-0.078c0-0.156-0.078-0.273-0.234-0.273
	c-0.078-0.039-0.156,0-0.195,0c-0.078,0.039,0,0-0.741,1.404c-0.586,1.133-0.625,1.25-0.664,1.328c0,0.078-0.078,0,0.664,1.406
	c0.585,1.131,0.663,1.287,0.702,1.326c0.117,0.117,0.352,0.117,0.43-0.078c0.039-0.078,0.039-0.156,0.039-0.195
	s-0.117-0.313-0.273-0.586c-0.156-0.313-0.273-0.545-0.273-0.545s0.234,0,0.547,0h0.547l0.039,0.037c0,0.041,0,0.078,0.039,0.156
	c0.195,0.508,0.468,0.938,0.819,1.25c0.116,0.078,0.155,0.117,0.233,0.117c0.195,0,0.313-0.156,0.273-0.313
	c0-0.117,0-0.156-0.117-0.234c-0.429-0.391-0.702-0.936-0.819-1.6c-0.039-0.234-0.039-0.43-0.039-0.703c0-0.313,0-0.469,0.039-0.703
	c0.117-0.703,0.391-1.248,0.819-1.6c0.117-0.078,0.117-0.156,0.117-0.234c0.039-0.156-0.039-0.273-0.195-0.313
	C50.699,81.495,50.621,81.495,50.582,81.495z"/>
<path d="M87.852,55.36h2.383v9.484h5.75v2.016h-8.133V55.36z"/>
<path d="M96.735,66.86l4.125-11.5h2.758l4.125,11.5h-2.609l-0.742-2.398h-4.313l-0.813,2.398H96.735z M100.743,62.446h2.938
	l-1.445-4.477L100.743,62.446z"/>
<rect x="164.063" y="68.697" fill="none" stroke="#000000" stroke-width="0.4514" stroke-miterlimit="10" width="8.127" height="8.125"/>
<path d="M165.899,73.42l2.131-3.519h1.297v3.622h0.639v0.881h-0.639v1.266h-1.139v-1.266h-2.289V73.42z M166.752,73.523h1.436
	v-2.515L166.752,73.523z"/>
<path fill="none" stroke="#000000" stroke-width="0.4514" stroke-miterlimit="10" d="M172.189,53.837
	c0,2.242-1.818,4.062-4.063,4.062c-2.242,0-4.063-1.82-4.063-4.062c0-2.242,1.82-4.063,4.063-4.063
	C170.371,49.774,172.189,51.595,172.189,53.837L172.189,53.837z"/>
<path d="M165.953,54.503l2.131-3.519h1.297v3.622h0.639v0.881h-0.639v1.266h-1.139v-1.266h-2.289V54.503z M166.807,54.606h1.436
	v-2.515L166.807,54.606z"/>
<rect x="133.808" y="68.686" fill="none" stroke="#000000" stroke-width="0.4514" stroke-miterlimit="10" width="8.125" height="8.125"/>
<path d="M136.168,71.174c0.568,0,0.97-0.094,1.202-0.282c0.232-0.188,0.363-0.42,0.393-0.698h0.94v5.769h-1.139v-3.991h-1.396
	V71.174z"/>
<path fill="none" stroke="#000000" stroke-width="0.4514" stroke-miterlimit="10" d="M141.933,53.831
	c0,2.244-1.82,4.063-4.063,4.063s-4.063-1.82-4.063-4.063c0-2.242,1.82-4.062,4.063-4.062S141.933,51.589,141.933,53.831
	L141.933,53.831z"/>
<path d="M136.112,52.065c0.568,0,0.97-0.094,1.202-0.282c0.232-0.188,0.363-0.42,0.393-0.698h0.94v5.769h-1.139v-3.991h-1.396
	V52.065z"/>
<polyline fill="none" stroke="#000000" stroke-width="0.5572" stroke-miterlimit="10" points="140.474,44.459 128.772,44.459 
	128.772,56.16 "/>
<polyline fill="none" stroke="#000000" stroke-width="0.5572" stroke-miterlimit="10" points="165.084,82.1 176.786,82.1 
	176.786,70.399 "/>
<polyline fill="none" stroke="#000000" stroke-width="0.5572" stroke-miterlimit="10" points="128.772,70.398 128.772,82.1 
	140.474,82.1 "/>
<polyline fill="none" stroke="#000000" stroke-width="0.5572" stroke-miterlimit="10" points="176.786,56.537 176.786,44.835 
	165.084,44.835 "/>
<path d="M144.595,55.36h9.383v2.016h-3.5v9.484h-2.383v-9.484h-3.5V55.36z"/>
<path d="M159.797,70.216h-1.655c-0.101-0.388-0.155-0.813-0.161-1.274l-0.01-0.537c-0.006-0.358-0.086-0.613-0.239-0.767
	s-0.464-0.229-0.933-0.229h-1.572v2.808h-1.489v-7.188h3.667c0.69,0,1.242,0.188,1.655,0.562c0.414,0.371,0.62,0.874,0.62,1.509
	c0,0.811-0.373,1.374-1.118,1.689c0.404,0.159,0.656,0.379,0.757,0.659s0.151,0.718,0.151,1.313v0.288
	c0,0.273,0.018,0.491,0.054,0.654c0.039,0.159,0.13,0.266,0.273,0.317V70.216z M158.166,65.246c0-0.638-0.352-0.957-1.055-0.957
	h-1.885v1.919h1.768C157.775,66.208,158.166,65.887,158.166,65.246z"/>
<line fill="none" stroke="#000000" stroke-width="0.5572" stroke-miterlimit="10" x1="185.926" y1="61.524" x2="217.684" y2="61.524"/>
<path d="M192.367,55.36h2.383v9.484h5.75v2.016h-8.133V55.36z"/>
<path d="M201.25,66.86l4.125-11.5h2.758l4.125,11.5h-2.609l-0.742-2.398h-4.313l-0.813,2.398H201.25z M205.258,62.446h2.938
	l-1.445-4.477L205.258,62.446z"/>
<rect x="237.637" y="49.78" fill="none" stroke="#000000" stroke-width="0.4514" stroke-miterlimit="10" width="8.127" height="8.125"/>
<path d="M239.473,54.503l2.131-3.519h1.297v3.622h0.639v0.881h-0.639v1.266h-1.139v-1.266h-2.289V54.503z M240.327,54.606h1.436
	v-2.515L240.327,54.606z"/>
<path fill="none" stroke="#000000" stroke-width="0.4514" stroke-miterlimit="10" d="M245.762,72.753
	c0,2.242-1.818,4.062-4.063,4.062c-2.242,0-4.063-1.82-4.063-4.062c0-2.242,1.82-4.063,4.063-4.063
	C243.943,68.69,245.762,70.512,245.762,72.753L245.762,72.753z"/>
<path d="M239.525,73.42l2.131-3.519h1.297v3.622h0.639v0.881h-0.639v1.266h-1.139v-1.266h-2.289V73.42z M240.378,73.523h1.436
	v-2.515L240.378,73.523z"/>
<rect x="269.472" y="49.77" fill="none" stroke="#000000" stroke-width="0.4514" stroke-miterlimit="10" width="8.125" height="8.125"/>
<path d="M271.832,52.257c0.568,0,0.97-0.094,1.202-0.282c0.232-0.188,0.363-0.42,0.393-0.698h0.94v5.769h-1.139v-3.991h-1.396
	V52.257z"/>
<path fill="none" stroke="#000000" stroke-width="0.4514" stroke-miterlimit="10" d="M277.596,72.748
	c0,2.244-1.82,4.063-4.063,4.063s-4.063-1.82-4.063-4.063c0-2.242,1.82-4.062,4.063-4.062S277.596,70.506,277.596,72.748
	L277.596,72.748z"/>
<path d="M271.774,70.981c0.568,0,0.971-0.094,1.203-0.282c0.232-0.188,0.363-0.42,0.393-0.698h0.939v5.769h-1.139v-3.991h-1.396
	V70.981z"/>
<polyline fill="none" stroke="#000000" stroke-width="0.5572" stroke-miterlimit="10" points="245.018,44.835 233.316,44.835 
	233.316,56.537 "/>
<polyline fill="none" stroke="#000000" stroke-width="0.5572" stroke-miterlimit="10" points="270.883,82.1 282.584,82.1 
	282.584,70.399 "/>
<polyline fill="none" stroke="#000000" stroke-width="0.5572" stroke-miterlimit="10" points="233.031,70.399 233.031,82.101 
	244.732,82.101 "/>
<polyline fill="none" stroke="#000000" stroke-width="0.5572" stroke-miterlimit="10" points="282.33,56.537 282.33,44.835 
	270.629,44.835 "/>
<path d="M250.14,55.36h9.383v2.016h-3.5v9.484h-2.383v-9.484h-3.5V55.36z"/>
<path d="M265.341,70.216h-1.655c-0.101-0.388-0.155-0.813-0.161-1.274l-0.01-0.537c-0.006-0.358-0.086-0.613-0.239-0.767
	s-0.464-0.229-0.933-0.229h-1.572v2.808h-1.489v-7.188h3.667c0.689,0,1.242,0.188,1.655,0.562c0.413,0.371,0.62,0.874,0.62,1.509
	c0,0.811-0.373,1.374-1.118,1.689c0.403,0.159,0.655,0.379,0.757,0.659s0.151,0.718,0.151,1.313v0.288
	c0,0.273,0.019,0.491,0.054,0.654c0.039,0.159,0.131,0.266,0.273,0.317V70.216z M263.71,65.246c0-0.638-0.352-0.957-1.055-0.957
	h-1.885v1.919h1.768C263.319,66.208,263.71,65.887,263.71,65.246z"/>
<line fill="none" stroke="#000000" stroke-width="0.5572" stroke-miterlimit="10" x1="291.471" y1="61.524" x2="323.229" y2="61.524"/>
<path d="M297.911,55.36h2.383v9.484h5.75v2.016h-8.133V55.36z"/>
<path d="M306.794,66.86l4.125-11.5h2.758l4.125,11.5h-2.609l-0.742-2.398h-4.313l-0.813,2.398H306.794z M310.802,62.446h2.938
	l-1.445-4.477L310.802,62.446z"/>
<circle fill="#FFFFFF" stroke="#000000" stroke-width="0.5669" cx="360.408" cy="74.867" r="6.696"/>
<circle fill="#FFFFFF" stroke="#000000" stroke-width="0.5669" cx="347.025" cy="74.866" r="6.695"/>
<circle fill="#FFFFFF" stroke="#000000" stroke-width="0.5669" cx="373.791" cy="74.867" r="6.696"/>
<circle fill="#FFFFFF" stroke="#000000" stroke-width="0.5669" cx="360.408" cy="49.349" r="6.696"/>
<circle fill="#FFFFFF" stroke="#000000" stroke-width="0.5669" cx="347.025" cy="49.347" r="6.695"/>
<circle fill="#FFFFFF" stroke="#000000" stroke-width="0.5669" cx="373.791" cy="49.348" r="6.696"/>
<path d="M394.764,75.452c-0.185,0.424-0.278,1.013-0.278,1.767c0,0.594,0.079,1.1,0.236,1.518c0.154,0.416,0.459,0.805,0.914,1.166
	l-0.059,0.104c-1.115-0.68-1.672-1.625-1.672-2.838c0-1.175,0.549-2.135,1.648-2.879l0.082,0.117
	C395.239,74.68,394.948,75.027,394.764,75.452z"/>
<path d="M397.12,75.749v3.065c0,0.979-0.377,1.47-1.133,1.47c-0.187,0-0.338-0.034-0.453-0.102c-0.113-0.069-0.17-0.159-0.17-0.268
	c0-0.078,0.025-0.141,0.078-0.187c0.053-0.048,0.114-0.071,0.186-0.071c0.116,0,0.224,0.066,0.324,0.199
	c0.102,0.133,0.197,0.199,0.287,0.199c0.213,0,0.32-0.251,0.32-0.751v-2.746c0-0.152-0.018-0.256-0.053-0.31
	c-0.035-0.055-0.082-0.082-0.141-0.082c-0.027,0-0.067,0.002-0.117,0.007c-0.048,0.004-0.1,0.011-0.153,0.02v-0.102
	c0.222-0.069,0.555-0.19,0.999-0.362L397.12,75.749z M396.444,74.604c0-0.092,0.033-0.171,0.099-0.238
	c0.067-0.067,0.149-0.102,0.245-0.102c0.094,0,0.174,0.032,0.241,0.098s0.101,0.142,0.101,0.229c0,0.109-0.033,0.196-0.101,0.262
	c-0.067,0.063-0.15,0.095-0.248,0.095c-0.096,0-0.177-0.033-0.241-0.099C396.477,74.78,396.444,74.699,396.444,74.604z"/>
<path d="M397.882,77.293c0-0.441,0.131-0.813,0.392-1.113c0.263-0.3,0.61-0.45,1.042-0.45c0.465,0,0.832,0.141,1.1,0.421
	c0.27,0.279,0.404,0.652,0.404,1.12c0,0.45-0.139,0.833-0.418,1.146c-0.275,0.312-0.626,0.468-1.051,0.468
	c-0.438,0-0.792-0.152-1.064-0.458C398.017,78.119,397.882,77.742,397.882,77.293z M398.47,76.96c0,0.469,0.084,0.875,0.251,1.222
	c0.167,0.344,0.4,0.516,0.698,0.516c0.25,0,0.449-0.103,0.595-0.307c0.146-0.207,0.219-0.514,0.219-0.921
	c0-0.444-0.089-0.814-0.265-1.11s-0.409-0.443-0.699-0.443c-0.252,0-0.449,0.099-0.59,0.297
	C398.539,76.411,398.47,76.66,398.47,76.96z"/>
<path d="M401.271,78.821V78.72c0.158-0.009,0.275-0.041,0.35-0.098c0.076-0.059,0.114-0.218,0.114-0.477v-1.587
	c0-0.144-0.018-0.245-0.052-0.304c-0.033-0.059-0.082-0.088-0.147-0.088c-0.042,0-0.081,0.002-0.118,0.007
	c-0.037,0.004-0.086,0.011-0.146,0.02v-0.102c0.335-0.113,0.668-0.233,0.999-0.362l0.026,0.02v2.396
	c0,0.232,0.032,0.384,0.098,0.454c0.067,0.067,0.189,0.107,0.365,0.12v0.102H401.271z M401.62,74.604
	c0-0.092,0.032-0.171,0.098-0.238c0.067-0.067,0.148-0.102,0.245-0.102c0.093,0,0.174,0.032,0.241,0.098s0.102,0.142,0.102,0.229
	c0,0.109-0.034,0.196-0.102,0.262c-0.067,0.063-0.15,0.095-0.248,0.095c-0.096,0-0.176-0.033-0.242-0.099
	C401.651,74.78,401.62,74.699,401.62,74.604z"/>
<path d="M402.962,78.72c0.154-0.004,0.27-0.034,0.346-0.091c0.078-0.059,0.118-0.186,0.118-0.379v-1.639
	c0-0.194-0.021-0.315-0.062-0.366c-0.042-0.052-0.104-0.078-0.184-0.078c-0.065,0-0.139,0.009-0.219,0.026v-0.102
	c0.461-0.161,0.783-0.281,0.963-0.362l0.046,0.013v0.51c0.224-0.202,0.403-0.34,0.538-0.411c0.138-0.074,0.287-0.111,0.447-0.111
	c0.244,0,0.439,0.087,0.585,0.261c0.147,0.173,0.222,0.417,0.222,0.735v1.524c0,0.188,0.037,0.312,0.111,0.372
	c0.076,0.059,0.193,0.092,0.353,0.098v0.102h-1.481V78.72c0.135-0.004,0.244-0.039,0.329-0.104c0.085-0.064,0.128-0.222,0.128-0.47
	v-1.339c0-0.27-0.045-0.456-0.135-0.558c-0.087-0.104-0.217-0.157-0.392-0.157c-0.106,0-0.214,0.03-0.323,0.092
	c-0.106,0.061-0.229,0.152-0.365,0.274v1.896c0,0.235,0.152,0.356,0.457,0.365v0.102h-1.482V78.72z"/>
<path d="M407.935,78.72c0.183-0.025,0.305-0.068,0.369-0.127c0.063-0.061,0.094-0.21,0.094-0.447v-3.213
	c0-0.154-0.03-0.246-0.092-0.274c-0.059-0.03-0.141-0.045-0.248-0.045c-0.039,0-0.08,0.002-0.123,0.006v-0.101
	c0.428-0.106,0.76-0.205,0.992-0.294l0.033,0.017v2.063c0.285-0.383,0.611-0.574,0.979-0.574c0.531,0,0.797,0.354,0.797,1.062v1.406
	c0,0.198,0.033,0.331,0.102,0.398c0.069,0.065,0.189,0.107,0.361,0.124v0.102h-1.481V78.72c0.17-0.021,0.288-0.065,0.356-0.13
	c0.066-0.065,0.101-0.214,0.101-0.444v-1.332c0-0.481-0.169-0.722-0.506-0.722c-0.212,0-0.447,0.143-0.708,0.428v1.573
	c0,0.266,0.034,0.434,0.104,0.503c0.07,0.07,0.188,0.111,0.354,0.124v0.102h-1.482V78.72z"/>
<path d="M413.138,76.85v-0.389c0-0.363-0.164-0.545-0.496-0.545c-0.123,0-0.233,0.031-0.329,0.095
	c-0.096,0.061-0.144,0.135-0.144,0.222c0,0.032,0.006,0.074,0.016,0.124c0.014,0.048,0.02,0.094,0.02,0.137
	c0,0.083-0.029,0.15-0.088,0.203c-0.059,0.052-0.127,0.078-0.205,0.078c-0.09,0-0.162-0.026-0.216-0.078
	c-0.052-0.055-0.078-0.127-0.078-0.216c0-0.179,0.095-0.349,0.284-0.51c0.191-0.16,0.451-0.241,0.779-0.241
	c0.354,0,0.611,0.075,0.774,0.226c0.163,0.149,0.245,0.417,0.245,0.8v1.358c0,0.139,0.014,0.238,0.042,0.297
	c0.028,0.057,0.076,0.085,0.144,0.085c0.057,0,0.11-0.011,0.16-0.033c0.053-0.021,0.102-0.056,0.146-0.101v0.183
	c-0.115,0.124-0.219,0.212-0.31,0.265c-0.089,0.05-0.188,0.075-0.294,0.075c-0.276,0-0.424-0.157-0.441-0.471
	c-0.348,0.313-0.664,0.471-0.949,0.471c-0.207,0-0.377-0.066-0.51-0.199c-0.131-0.136-0.195-0.296-0.195-0.483
	c0-0.34,0.148-0.604,0.443-0.79C412.235,77.222,412.636,77.034,413.138,76.85z M413.138,77.01c-0.42,0.156-0.701,0.309-0.845,0.457
	c-0.142,0.146-0.212,0.31-0.212,0.492c0,0.161,0.041,0.291,0.123,0.389c0.086,0.099,0.188,0.147,0.308,0.147
	c0.108,0,0.209-0.021,0.3-0.063c0.094-0.043,0.172-0.095,0.235-0.153c0.026-0.021,0.048-0.049,0.065-0.082
	c0.018-0.034,0.025-0.104,0.025-0.209V77.01z"/>
<path d="M414.288,78.72c0.154-0.004,0.27-0.034,0.346-0.091c0.078-0.059,0.117-0.186,0.117-0.379v-1.639
	c0-0.194-0.021-0.315-0.062-0.366c-0.042-0.052-0.103-0.078-0.183-0.078c-0.066,0-0.139,0.009-0.219,0.026v-0.102
	c0.461-0.161,0.782-0.281,0.963-0.362l0.045,0.013v0.51c0.225-0.202,0.404-0.34,0.539-0.411c0.137-0.074,0.287-0.111,0.447-0.111
	c0.244,0,0.439,0.087,0.584,0.261c0.148,0.173,0.223,0.417,0.223,0.735v1.524c0,0.188,0.037,0.312,0.111,0.372
	c0.076,0.059,0.193,0.092,0.352,0.098v0.102h-1.481V78.72c0.135-0.004,0.245-0.039,0.329-0.104c0.086-0.064,0.128-0.222,0.128-0.47
	v-1.339c0-0.27-0.045-0.456-0.134-0.558c-0.088-0.104-0.218-0.157-0.393-0.157c-0.105,0-0.214,0.03-0.322,0.092
	c-0.107,0.061-0.229,0.152-0.365,0.274v1.896c0,0.235,0.152,0.356,0.457,0.365v0.102h-1.482V78.72z"/>
<path d="M419.864,78.884l-0.033-0.021v-0.397c-0.202,0.278-0.49,0.418-0.865,0.418c-0.34,0-0.629-0.127-0.868-0.379
	c-0.237-0.255-0.356-0.626-0.356-1.113c0-0.462,0.135-0.854,0.402-1.176c0.27-0.324,0.602-0.486,0.996-0.486
	c0.256,0,0.487,0.104,0.691,0.313v-1.058c0-0.159-0.025-0.261-0.074-0.304c-0.051-0.046-0.137-0.068-0.258-0.068
	c-0.049,0-0.092,0.002-0.131,0.006v-0.101c0.389-0.092,0.715-0.189,0.976-0.294l0.05,0.017v3.882c0,0.13,0.027,0.216,0.084,0.258
	c0.059,0.041,0.137,0.062,0.235,0.062c0.05,0,0.099-0.002,0.144-0.006v0.101L419.864,78.884z M419.831,78.1v-1.485
	c0-0.176-0.064-0.334-0.192-0.474c-0.128-0.142-0.292-0.212-0.493-0.212c-0.239,0-0.436,0.105-0.588,0.316s-0.229,0.518-0.229,0.918
	c0,0.398,0.08,0.727,0.238,0.985c0.159,0.26,0.385,0.389,0.676,0.389c0.162,0,0.3-0.045,0.415-0.134
	C419.774,78.314,419.831,78.213,419.831,78.1z"/>
<path d="M421.245,77.786h0.104c0.063,0.324,0.165,0.563,0.304,0.715c0.142,0.152,0.33,0.229,0.568,0.229
	c0.147,0,0.273-0.043,0.379-0.13s0.16-0.204,0.16-0.35c0-0.159-0.064-0.287-0.189-0.386c-0.125-0.1-0.295-0.207-0.51-0.323
	c-0.301-0.16-0.512-0.317-0.634-0.47c-0.122-0.154-0.183-0.333-0.183-0.535c0-0.223,0.085-0.411,0.255-0.568
	c0.169-0.159,0.392-0.238,0.666-0.238c0.112,0,0.233,0.022,0.362,0.068c0.129,0.044,0.211,0.065,0.248,0.065
	c0.035,0,0.072-0.024,0.114-0.075h0.071l0.027,0.934h-0.099c-0.12-0.559-0.364-0.839-0.731-0.839c-0.166,0-0.291,0.047-0.375,0.141
	c-0.086,0.094-0.127,0.191-0.127,0.294c0,0.163,0.053,0.289,0.159,0.379c0.108,0.089,0.306,0.215,0.591,0.378
	c0.307,0.173,0.52,0.32,0.637,0.444c0.119,0.122,0.18,0.286,0.18,0.493c0,0.259-0.097,0.469-0.291,0.63
	c-0.191,0.161-0.42,0.242-0.686,0.242c-0.102,0-0.24-0.021-0.414-0.06c-0.174-0.041-0.292-0.062-0.354-0.062
	c-0.066,0-0.115,0.027-0.146,0.081h-0.088V77.786z"/>
<path d="M423.7,74.407l0.082-0.117c1.099,0.744,1.648,1.704,1.648,2.879c0,1.213-0.557,2.158-1.672,2.838l-0.059-0.104
	c0.455-0.361,0.76-0.75,0.914-1.166c0.156-0.418,0.235-0.924,0.235-1.518c0-0.754-0.093-1.343-0.278-1.767
	C424.387,75.027,424.097,74.68,423.7,74.407z"/>
<line fill="none" stroke="#000000" stroke-width="0.5572" stroke-miterlimit="10" x1="432.78" y1="61.524" x2="464.538" y2="61.524"/>
<path d="M448.916,66.86h-2.648c-0.161-0.62-0.247-1.3-0.258-2.039l-0.016-0.859c-0.011-0.573-0.138-0.981-0.383-1.227
	s-0.742-0.367-1.492-0.367h-2.516v4.492h-2.383v-11.5h5.867c1.104,0,1.987,0.3,2.648,0.898c0.661,0.594,0.992,1.398,0.992,2.414
	c0,1.297-0.597,2.198-1.789,2.703c0.646,0.255,1.05,0.606,1.211,1.055s0.242,1.148,0.242,2.102v0.461
	c0,0.438,0.028,0.786,0.086,1.047c0.063,0.255,0.208,0.425,0.438,0.508V66.86z M446.307,58.907c0-1.021-0.563-1.531-1.688-1.531
	h-3.016v3.07h2.828C445.682,60.446,446.307,59.933,446.307,58.907z"/>
<path d="M450.775,55.36h2.383v9.484h5.75v2.016h-8.133V55.36z"/>
<path d="M301.983,38.511l2.629-4.344h1.602v4.471h0.789v1.087h-0.789v1.562h-1.406v-1.562h-2.824V38.511z M303.036,38.639h1.771
	v-3.105L303.036,38.639z"/>
<path d="M310.71,35.377c0.701,0,1.195-0.116,1.482-0.348c0.287-0.231,0.449-0.519,0.486-0.862h1.16v7.121h-1.406v-4.927h-1.723
	V35.377z"/>
<path d="M436.649,35.377c0.701,0,1.195-0.116,1.482-0.348c0.287-0.231,0.449-0.519,0.486-0.862h1.16v7.121h-1.406v-4.927h-1.723
	V35.377z"/>
<path d="M441.751,41.288l1.832-2.708l-1.768-2.62h1.709l0.926,1.562l0.906-1.562h1.645l-1.771,2.601l1.836,2.728h-1.734
	l-0.949-1.602l-0.939,1.602H441.751z"/>
<path d="M450.229,38.511l2.629-4.344h1.602v4.471h0.789v1.087h-0.789v1.562h-1.406v-1.562h-2.824V38.511z M451.282,38.639h1.771
	v-3.105L451.282,38.639z"/>
<path d="M455.694,41.288l1.832-2.708l-1.768-2.62h1.709l0.926,1.562l0.904-1.562h1.646l-1.773,2.601l1.836,2.728h-1.732
	l-0.951-1.602l-0.939,1.602H455.694z"/>
<line fill="none" stroke="#000000" stroke-width="1.1019" stroke-miterlimit="10" x1="331.53" y1="25.905" x2="331.53" y2="91.283"/>
<path d="M90.598,35.377c0.702,0,1.196-0.116,1.483-0.348c0.287-0.231,0.449-0.519,0.485-0.862h1.16v7.121h-1.405v-4.927h-1.724
	V35.377z"/>
<path d="M98.6,38.511l2.63-4.344h1.602v4.471h0.788v1.087h-0.788v1.562h-1.406v-1.562H98.6V38.511z M99.653,38.639h1.772v-3.105
	L99.653,38.639z"/>
<line fill="none" stroke="#000000" stroke-width="0.5528" stroke-miterlimit="10" stroke-dasharray="1.4173" x1="224.623" y1="25.905" x2="224.623" y2="91.724"/>
<path d="M400.543,41.288l2.585-7.208h1.729l2.585,7.208h-1.636l-0.465-1.503h-2.703l-0.51,1.503H400.543z M403.055,38.521h1.842
	l-0.906-2.806L403.055,38.521z"/>
<path d="M408.344,34.08h1.494v5.945h3.604v1.264h-5.099V34.08z"/>
<path d="M414.47,34.08h1.494v5.945h3.604v1.264h-5.099V34.08z"/>
<path d="M10.598,35.377c0.702,0,1.196-0.116,1.483-0.348c0.287-0.231,0.449-0.519,0.485-0.862h1.16v7.121h-1.405v-4.927h-1.724
	V35.377z"/>
<path d="M18.6,38.511l2.63-4.344h1.602v4.471h0.788v1.087h-0.788v1.562h-1.406v-1.562H18.6V38.511z M19.653,38.639h1.772v-3.105
	L19.653,38.639z"/>
</svg>
