<?xml version="1.0" encoding="UTF-8"?>
<!-- Created with Inkscape (http://www.inkscape.org/) -->
<svg width="713" height="178" version="1.1" viewBox="0 0 713 178" xmlns="http://www.w3.org/2000/svg" xmlns:cc="http://creativecommons.org/ns#" xmlns:dc="http://purl.org/dc/elements/1.1/" xmlns:rdf="http://www.w3.org/1999/02/22-rdf-syntax-ns#">
 <metadata>
  <rdf:RDF>
   <cc:Work rdf:about="">
    <dc:format>image/svg+xml</dc:format>
    <dc:type rdf:resource="http://purl.org/dc/dcmitype/StillImage"/>
    <dc:title/>
   </cc:Work>
  </rdf:RDF>
 </metadata>
 <path d="m187.22 170.25-174.25-0.25281v-163.99h696v164h-172.42c-94.83 0-173.02 0.1125-173.75 0.25-0.73249 0.1375-79.744 0.13624-175.58-3e-3zm-68.25-65.247v-63h-103v126h103zm-92-7c0-9.1111 0.25758-11 1.5-11 1.1333 0 1.5 1.2222 1.5 5 0 2.75 0.35442 5 0.78759 5 0.43318 0 3.0038-2.25 5.7124-5s5.703-5 6.6542-5c1.1973 0 0.30569 1.3452-2.8979 4.372l-4.6272 4.372 3.0327 3.878c1.668 2.1329 3.8282 5.1155 4.8005 6.628 1.703 2.6492 1.6994 2.7486-0.09722 2.7121-1.1082-0.0225-3.4243-2.2831-5.7078-5.571-3.699-5.326-3.9142-5.4685-5.75-3.8071-1.2463 1.1279-1.9072 3.0583-1.9072 5.571 0 2.7511-0.42674 3.845-1.5 3.845-1.2424 0-1.5-1.8889-1.5-11zm21 0c0-13.743 0.95221-14.092 8.2445-3.0225 2.8905 4.3876 5.593 7.9876 6.0055 8 0.4125 0.0124 0.75-3.5775 0.75-7.9775 0-4.6667 0.41667-8 1-8 0.60606 0 1 4.3333 1 11 0 8.6625-0.29196 11-1.3739 11-0.75566 0-3.7932-3.6888-6.75-8.1972l-5.3761-8.1972-0.29044 8.1972c-0.22627 6.3862-0.61292 8.1972-1.75 8.1972-1.191 0-1.4596-2.0244-1.4596-11zm24.923 8.0769c-2.4607-2.4607-2.9231-3.7236-2.9231-7.9842 0-4.1314 0.51481-5.6373 2.8024-8.1975 2.3057-2.5806 3.5305-3.1263 6.9112-3.0797 7.3034 0.10079 10.861 4.0988 10.686 12.008-0.0828 3.7455-0.64194 5.0035-3.2658 7.3479-4.4575 3.9828-10.172 3.9448-14.211-0.0944zm10.501-0.22425c3.4662-1.5793 5.0938-6.7536 3.5734-11.36-1.863-5.645-7.6423-7.3351-11.809-3.4534-1.6749 1.5604-2.1886 3.1863-2.1886 6.9274 0 4.09 0.43036 5.227 2.6349 6.961 3.0208 2.3761 4.2772 2.5254 7.7892 0.92525zm16.362-6.6027-0.28621-9.75-3.25-0.31335c-6.6574-0.6419-2.9486-2.1866 5.25-2.1866 8.1986 0 11.907 1.5448 5.25 2.1866l-3.25 0.31335-0.28621 9.75c-0.22447 7.6465-0.59421 9.75-1.7138 9.75-1.1196 0-1.4893-2.1035-1.7138-9.75zm-40.618-39.567c-0.16012-5.541-0.27501-5.7845-2.4181-5.1258-2.2214 0.68282-2.2183 0.65713 0.25-2.0244l2.5-2.716 0.30879 4.1182c0.16984 2.265 0.13298 5.7938-0.0819 7.8418-0.28257 2.6931-0.43721 2.1137-0.55879-2.0938zm10.832 4.795c0-0.28729 1.8508-2.5303 4.113-4.9844 2.5307-2.7455 3.8892-5.0451 3.5314-5.9777-0.78345-2.0416-3.6023-1.9175-5.3241 0.23439-1.3211 1.6511-1.3838 1.6431-1.1102-0.14281 0.45382-2.9623 3.1848-4.204 6.2123-2.8245 3.6278 1.653 3.2715 4.8268-0.99354 8.8493l-3.5712 3.3681h3.5712c1.9642 0 3.5712 0.45 3.5712 1s-2.25 1-5 1c-2.75 0-5-0.23505-5-0.52234zm260.47 99.883c-3.3656-4.9595-3.2954-10.226 0.19147-14.37 1.4637-1.7396 3.7137-3.5629 5-4.052 1.3888-0.52801 2.3387-1.7116 2.3387-2.9139 0-1.1136 0.45-2.0248 1-2.0248s1 0.9 1 2c0 1.4063 0.66791 2.0011 2.25 2.0037 3.6852 6e-3 8.7566 3.7679 10.408 7.7201 1.7068 4.085 0.67893 9.9218-2.1626 12.28-2.7061 2.2459-1.5762 2.9962 4.5121 2.9962h6.0075l-0.25752-62.75-0.25751-62.75-119.75-0.25404-119.75-0.25405v126.01h211.94zm10.698-30.61c-0.16498-3.6803-0.24243-3.75-4.1681-3.75h-4v-22h23v22h-13.879l-0.39226 3.75-0.39226 3.75zm13.832-15.25v-9.5h-11v7.5c0 4.3333-0.42222 7.5-1 7.5-0.55 0-1-2.5053-1-5.5674 0-5.2907-0.11182-5.5366-2.25-4.9471l-2.25 0.62024 2.25-1.9632c3.1274-2.7287 2.8314-3.3114-1.5-2.9529l-3.75 0.31037-0.28753 9.25-0.28752 9.25h21.075zm-187-18.981v-27.481l-22.75-0.2885-22.75-0.28851 23.25-0.23027 23.25-0.23027v28c0 15.4-0.225 28-0.5 28s-0.5-12.367-0.5-27.481zm76.226-0.26878-0.22576-28.25 23.25 0.22108 23.25 0.22107-22.5 0.52893-22.5 0.52892-0.52424 27.5l-0.52424 27.5zm-57.55 22.348c-0.56462-1.4714 0.0818-2.5978 1.4908-2.5978 0.45833 0 0.83333 0.9 0.83333 2 0 2.2929-1.5233 2.6847-2.3241 0.59777zm43.531-6.728c-3.4499-5.2136-3.4421-9.0218 0.01-4.7558l1.9307 2.386-0.45092-4.75c-0.34037-3.5855-0.1133-4.75 0.92625-4.75 0.94002 0 1.3772 1.2697 1.3772 4 0 4.3803 0.60928 4.9166 2.558 2.2516 2.479-3.3902 2.7519-0.18328 0.4099 4.817-1.3042 2.7845-2.6219 5.2176-2.9283 5.407-0.30637 0.18934-2.031-1.8832-3.8326-4.6057zm-83.207-10.99v-9.1202l6.0795 0.43975c6.1606 0.44562 7.8746 1.5428 7.9052 5.0604 8e-3 0.96788-0.8524 2.5027-1.9129 3.4108-1.8952 1.6227-1.8867 1.7055 0.5 4.8346 2.7384 3.5902 2.982 4.5116 1.1782 4.4569-0.6875-0.0209-2.4832-1.8209-3.9905-4-1.9613-2.8355-3.454-3.962-5.25-3.962-2.2611 0-2.5095 0.39596-2.5095 4 0 2.2-0.45 4-1 4-0.59357 0-1-3.7067-1-9.1202zm11-2.3798c2.0031-2.4136-0.56937-4.6648-4.9144-4.3006-3.0789 0.25809-3.6303 0.68918-3.902 3.0506-0.29786 2.5886-0.085 2.75 3.6276 2.75 2.2858 0 4.4674-0.63065 5.1889-1.5zm36.5 9.9371c-2.2-0.88124-4.8743-1.713-5.9429-1.8483s-2.1214-0.88567-2.3396-1.6674c-0.21821-0.78173-1.0605-2.9007-1.8718-4.7088s-1.8154-6.0831-2.2313-9.5l-0.7562-6.2125-1.7877 4.25c-0.98323 2.3375-2.1777 4.25-2.6544 4.25-0.99341 0 0.0752-3.1026 3.1331-9.0966l2.1247-4.1648 3.8751 5.8353c2.1313 3.2094 3.6334 6.077 3.338 6.3724-0.29539 0.2954-0.93539-0.17467-1.4222-1.0446-0.48683-0.86992-1.824-2.6662-2.9714-3.9917l-2.0863-2.41 0.59994 4.5c1.145 8.5881 1.6862 10.099 4.8313 13.492 4.0052 4.3201 7.2363 5.5083 14.977 5.5073 16.177-2e-3 28.518-13.081 24.856-26.343-0.55523-2.0109-0.64393-3.6562-0.19711-3.6562 1.3191 0 2.0264 2.832 2.0264 8.1139 0 9.1588-4.664 16.163-13.568 20.375-7.0507 3.3355-16.396 4.1656-21.932 1.9482zm79.5-7.5572v-9.1202l6.0795 0.43975c6.1606 0.44562 7.8746 1.5428 7.9052 5.0604 8e-3 0.96788-0.8524 2.5027-1.9129 3.4108-1.8952 1.6227-1.8867 1.7055 0.5 4.8346 2.7384 3.5902 2.982 4.5116 1.1782 4.4569-0.6875-0.0209-2.4832-1.8209-3.9905-4-1.9613-2.8355-3.454-3.962-5.25-3.962-2.2611 0-2.5095 0.39596-2.5095 4 0 2.2-0.45 4-1 4-0.59357 0-1-3.7067-1-9.1202zm11-2.3798c2.0031-2.4136-0.56937-4.6648-4.9144-4.3006-3.0789 0.25809-3.6303 0.68918-3.902 3.0506-0.29786 2.5886-0.085 2.75 3.6276 2.75 2.2858 0 4.4674-0.63065 5.1889-1.5zm22.58 5.6292c-0.84401-1.3656-1.0871-11.955-0.29264-12.75 1.4073-1.4073 2.1397 0.80641 1.922 5.8093-0.12184 2.8003 0.28635 5.7034 0.90709 6.4513 0.8697 1.0479 0.76995 1.3599-0.4348 1.3599-0.85988 0-1.8056-0.39188-2.1016-0.87084zm5.4744-0.56384c-0.65487-0.78907-1.0475-2.9184-0.87244-4.7319 0.2501-2.5914 0.92935-3.5109 3.1729-4.2952 2.4537-0.85775 3.1209-0.66916 4.75 1.3427 1.0424 1.2873 1.8953 3.1586 1.8953 4.1584 0 4.1598-6.3444 6.6604-8.9458 3.526zm5.935-1.0523c0.72178-0.86969 0.96551-2.5572 0.5871-4.0649-0.94183-3.7525-4.9502-3.0531-5.4064 0.94342-0.46018 4.0313 2.4824 5.9372 4.8193 3.1215zm16.106-2.0867c-1.6823-1.4155-3.5748-4.2966-4.2058-6.4023-1.5382-5.134 1.0612-10.694 6.3145-13.507 3.0107-1.6121 3.7743-2.641 4.0819-5.5l0.37837-3.517 0.16811 3.6222c0.15762 3.3964 0.41072 3.661 4.0597 4.2445 8.0214 1.2827 12.404 10.294 8.5915 17.666-3.2421 6.2695-13.779 8.1137-19.388 3.3936zm13.82 0.11775c3.6368-1.8806 6.4344-7.6776 5.5808-11.564-0.67456-3.0713-5.6402-7.9802-8.0724-7.9802-1.0955 0-1.4233 1.6122-1.4233 7 0 4-0.42857 7-1 7-0.55 0-1-2.4609-1-5.4686 0-4.4502-0.27936-5.3614-1.5-4.893-0.825 0.31658-1.5 0.1256-1.5-0.4244s0.675-1.259 1.5-1.5756 1.4645-1.1522 1.421-1.857c-0.0531-0.8614-0.23266-0.90648-0.54794-0.13754-0.25795 0.62911-1.3333 0.91783-2.3896 0.6416-1.2566-0.32861-2.9686 0.54583-4.952 2.5292-8.8701 8.8701 2.5261 22.602 13.883 16.729zm-216.91-10.044v-11.5h-4c-2.8889 0-4-0.41666-4-1.5 0-1.2333 1.7778-1.5 10-1.5s10 0.26667 10 1.5c0 1.0833-1.1111 1.5-4 1.5h-4v11.5c0 10.833-0.11594 11.5-2 11.5s-2-0.66667-2-11.5zm127 0v-11.5h-4c-2.8889 0-4-0.41666-4-1.5 0-1.2333 1.7778-1.5 10-1.5s10 0.26667 10 1.5c0 1.0833-1.1111 1.5-4 1.5h-4v11.5c0 10.833-0.11594 11.5-2 11.5s-2-0.66667-2-11.5zm-64.469 3.5502c-0.64725-1.0473 3.3049-3.5476 4.1971-2.6554 0.66236 0.66236-1.6163 3.6052-2.7916 3.6052-0.45019 0-1.0827-0.42742-1.4056-0.94982zm29.219-2.1621c-0.9625-0.54308-1.75-1.4151-1.75-1.9377 0-1.2103 2.0594-1.1982 3.9916 0.0234 2.1802 1.3784 0.0431 3.2035-2.2416 1.9144zm-15.75-3.281c0-1.0474 0.87047-1.607 2.5-1.607 1.375 0 2.5 0.45 2.5 1s-0.4132 1-0.91821 1c-0.50502 0-1.63 0.27315-2.5 0.60699-1.038 0.39831-1.5818 0.0545-1.5818-1zm132.75-22.178c-0.4125-0.41944-0.75-1.5876-0.75-2.5959 0-1.4722-0.78788-1.8333-4-1.8333h-4v-22h23v22h-6.4336c-6.178 0-6.4462 0.10315-6.75 2.5959-0.17403 1.4278-0.65392 2.2528-1.0664 1.8333zm-0.76531-6.1793c-0.0316-1.5468-1.5502-3.0311-3.4748-3.3961-1.7568-0.33322-1.4797-0.93123 2.363-5.1001 2.6954-2.9242 4.1317-5.2998 3.7715-6.2382-0.78432-2.0439-3.6189-1.9174-5.2523 0.23439-1.1178 1.4726-1.3335 1.5043-1.3602 0.2-0.0175-0.8525 0.5082-2.09 1.1682-2.75 0.93333-0.93333 0.6-1.2-1.5-1.2h-2.7v19h3.5c1.925 0 3.4931-0.3375 3.4847-0.75zm13.803-9 0.28752-9.25-6.2875 0.0304c-4.7591 0.023-5.8621 0.27819-4.5375 1.0497 2.7585 1.6067 2.0588 4.8925-1.8212 8.5518l-3.5712 3.3681h3.5712c1.9642 0 3.5712 0.45 3.5712 1s-0.9 1-2 1c-1.3489 0-2 0.66667-2 2.0477 0 1.877 0.52119 2.0229 6.25 1.75l6.25-0.29772zm-4.5375 109.69c5.1344-5.5491 2.4411-14.827-4.8918-16.852-4.5154-1.2468-5.5487-0.6106-2.4892 1.5324 1.3241 0.92746 2.1631 2.4596 2.041 3.727-0.11409 1.1837 0.12253 2.9134 0.52583 3.8437 1.0131 2.3371 0.36913 4.902-1.5311 6.0985-2.1079 1.3272-6.9048 0.0704-6.9048-1.8091 0-1.9155 0.98361-1.8856 2.4161 0.0735 1.4892 2.0365 4.5839 0.85165 4.5839-1.755 0-1.1852-0.8581-2.211-2.1271-2.5429l-2.1271-0.55624 2.2709-1.7129c1.2613-0.95141 1.9584-2.2185 1.568-2.8502-0.94391-1.5273-4.3067-1.4493-4.8646 0.11279-0.24554 0.6875-0.81554 0.905-1.2667 0.48333-0.45113-0.42166-0.28774-1.2992 0.3631-1.95 0.65083-0.65085 1.1833-1.5434 1.1833-1.9834 0-3.191-7.6451 3.3076-8.5068 7.2312-0.99089 4.5115 2.1585 10.172 6.5068 11.695 5.0411 1.7655 10.005 0.72212 13.25-2.7852zm148.25-58.941v-62.5h-134l-0.25752 62.757-0.25751 62.757 67.258-0.25704 67.258-0.25704zm-117.02 46.606c-4.4566-1.9419-9.1741-7.8278-9.9487-12.413-1.2386-7.331 1.8469-14.016 8.4465-18.3l2.4752-1.6068-3.1306-1.6189c-1.7219-0.89041-4.0256-3.0923-5.1193-4.8932-4.8536-7.9912-3.5998-16.496 3.3315-22.597l4.2542-3.7447-3.4701-2.2747c-3.8328-2.5124-7.2761-8.9759-7.2761-13.658 0-4.1848 3.1809-10.745 6.461-13.325 8.2153-6.4622 20.561-3.8777 24.872 5.2066 3.7827 7.9714 1.2067 17.287-6.1512 22.246l-3.2269 2.1746 3.4916 2.0601c5.1162 3.0186 7.5016 7.5441 7.506 14.24 4e-3 6.3424-2.4599 11.012-7.5883 14.379l-3.0174 1.9813 3.0309 2.0425c5.1961 3.5016 7.5785 8.0583 7.5785 14.495 0 7.1409-2.7016 11.583-8.97 14.75-5.0124 2.5322-9.1085 2.7911-13.549 0.85643zm14.519-2.4762c1.375-0.99778 3.5523-3.3478 4.8385-5.2222 1.9508-2.8431 2.2718-4.3614 1.9361-9.1591-0.32692-4.6724-0.95306-6.3366-3.3385-8.8732-5.7126-6.0745-12.303-7.3342-18.88-3.6088-10.985 6.2218-10.576 21.969 0.71872 27.688 4.877 2.4697 10.63 2.1475 14.726-0.82471zm-1.5657-32.145c5.3348-2.6433 7.7837-6.1983 8.3532-12.126 0.57378-5.9714-0.98964-9.9518-5.4455-13.864-2.9413-2.5825-4.1995-2.9945-9.1268-2.9888-8.2874 0.01-13.07 3.5388-15.238 11.243-1.9494 6.9307 1.6504 14.839 8.2308 18.082 4.419 2.1779 8.3378 2.0752 13.226-0.34677zm2.2841-33.785c8.7683-6.2436 8.2482-20.485-0.95921-26.265-2.563-1.609-4.4982-1.9664-9.06-1.6734-5.0361 0.32351-6.2493 0.82511-9.2032 3.8051-2.0422 2.0603-3.8893 5.2773-4.6204 8.0473-1.1166 4.2302-1.0163 5.0218 1.2031 9.4986 3.3821 6.8219 7.9203 9.6851 14.513 9.1566 3.0707-0.24619 6.2963-1.266 8.1267-2.5694zm18.336 53.365c-0.65487-0.78907-1.0475-2.9184-0.87244-4.7319 0.39811-4.125 4.795-6.2851 7.4299-3.6503 1.0762 1.0762 1.2307 1.7963 0.48428 2.2576-0.60278 0.37254-1.096 0.16949-1.096-0.45122 0-0.62072-1.0125-0.98477-2.25-0.80902-1.7019 0.24171-2.324 1.0802-2.5538 3.4419-0.36874 3.7894 2.4872 5.5312 4.5171 2.7551 0.69632-0.95229 1.5598-1.4376 1.9189-1.0786 1.119 1.119-1.7639 3.7012-4.1322 3.7012-1.2403 0-2.7909-0.6456-3.4458-1.4347zm10.064-3.5972c-0.11143-5.2142 0.0254-5.5438 2.3818-5.7388 1.375-0.1138 2.5 0.23805 2.5 0.78189s-0.62632 0.9888-1.3918 0.9888c-0.85481 0-1.7738 1.8327-2.3818 4.75l-0.98997 4.75zm6.8818-0.2503v-5.2822l3.75 0.0322 3.75 0.0322 0.14444 5.5c0.0794 3.025-0.0465 4.375-0.27995 3-1.0459-6.1612-1.4514-7-3.3835-7-1.6811 0-1.981 0.68109-1.981 4.5 0 2.475-0.45 4.5-1 4.5s-1-2.377-1-5.2822zm-17-20.134c0-2.5962-0.51524-4.6257-1.25-4.9239-0.86846-0.35238-0.92251-0.75936-0.17706-1.3333 0.59012-0.45437 1.3635-1.6136 1.7186-2.5761 0.68122-1.8464 3.7084-2.4586 3.7084-0.75 0 0.55-0.44469 1-0.98821 1s-0.92222 0.7875-0.84156 1.75c0.39636 4.7297-0.28188 11.25-1.1702 11.25-0.55 0-1-1.9875-1-4.4167zm4.9904 2.905c-1.6389-1.9748 0.19124-4.2548 3.7557-4.679 1.4298-0.17015 2.8073-0.94054 3.061-1.712 0.36237-1.1018-0.33561-1.2733-3.2541-0.79969-3.1694 0.51433-3.5385 0.38981-2.5118-0.84738 1.46-1.7592 5.1146-1.8945 6.7588-0.25031 0.66 0.66 1.2 3.0612 1.2 5.3361 0 4.1126-0.022 4.1369-3.8872 4.2884-2.3812 0.0933-4.3658-0.42433-5.1224-1.3361zm5.8096-0.68838c0.66-0.66 1.2-1.56 1.2-2 0-1.3137-3.6676-0.90543-4.8689 0.54201-1.9969 2.4061 1.3792 3.7477 3.6689 1.458zm6.0803-0.16344c-2.4282-5.3293 2.5304-11.03 6.6327-7.6258 2.1364 1.773 1.8362 3.2243-0.38052 1.8399-1.0272-0.64146-2.6022-0.8844-3.5-0.53986-2.0552 0.78867-2.1272 5.0337-0.11371 6.7048 1.2454 1.0336 1.8963 0.92058 3.6162-0.62756 2.061-1.8552 2.091-1.8532 1.723 0.11199-0.26651 1.4236-1.3066 2.0902-3.609 2.3128-2.6338 0.25472-3.4453-0.14949-4.3687-2.1763zm10.501-0.17752c-1.3408-2.0464-1.4443-3.0251-0.5317-5.0281 0.62326-1.3679 1.8408-2.7586 2.7056-3.0905 2.3823-0.91417 6.4449 1.3429 6.4449 3.5806 0 1.5781-0.79584 2.0244-4.0512 2.2714-3.8657 0.29342-3.983 0.39908-2.5609 2.3075 1.2721 1.7071 1.7902 1.8169 3.5377 0.75 2.749-1.6784 3.5907-1.5769 2.0745 0.25-1.9444 2.3429-5.7415 1.8241-7.6188-1.041zm6.6188-4.959c0-0.93333-0.94444-1.5-2.5-1.5s-2.5 0.56667-2.5 1.5 0.94444 1.5 2.5 1.5 2.5-0.56667 2.5-1.5zm15.168 2.1826c-0.16011-5.541-0.27501-5.7845-2.4181-5.1258-2.2214 0.68283-2.2183 0.65714 0.25-2.0244l2.5-2.716 0.30879 4.1182c0.16983 2.265 0.13298 5.7938-0.0819 7.8418-0.28257 2.6931-0.4372 2.1137-0.55879-2.0938zm6.8319 3.8174c-1.4424-1.738 0.0464-2.0536 1.7328-0.36722 1.26 1.26 4.2672 0.49724 4.2672-1.0823 0-0.55679-1.1065-1.2901-2.459-1.6295-3.6044-0.90465-5.1049-3.0366-3.4991-4.9715 1.4699-1.7711 6.1001-1.5699 6.7113 0.29163 0.29249 0.89086-0.46177 1.0672-2.6729 0.625-4.1996-0.83992-3.9014 0.93527 0.41964 2.4978 1.925 0.69609 3.5 1.8215 3.5 2.5009 0 3.4-5.69 4.9187-8 2.1353zm10.551 0.25c-1.2249-3.9639-1.2151-9.8207 0.0193-11.448 1.2234-1.6134 1.3694-1.6274 1.3979-0.13487 0.0175 0.91666 0.5943 1.9292 1.2818 2.25 1 0.46666 1 0.7 0 1.1667-1.4781 0.68977-1.7048 7.4167-0.24998 7.4167 0.55 0 1 0.45 1 1 0 1.4478-2.9914 1.2309-3.449-0.25zm-67.345-22 0.29381-7.25h3.4542c2.6889 0 3.7835 0.58379 4.9405 2.6348 1.3358 2.3679 1.3128 2.8996-0.22726 5.25-1.0845 1.6552-2.6228 2.6152-4.1905 2.6152-1.8103 0-2.477 0.5383-2.477 2 0 1.1-0.46971 2-1.0438 2-0.65611 0-0.93468-2.6928-0.75-7.25zm6.783 0.76299c0.72178-0.86969 0.96551-2.5572 0.5871-4.0649-0.48884-1.9477-1.1884-2.5009-2.8617-2.263-2.561 0.36417-3.543 4.1119-1.669 6.37 1.5192 1.8305 2.3972 1.8211 3.9435-0.0421zm5.0011 0.9754c-1.6389-1.9748 0.19124-4.2549 3.7557-4.679 1.4298-0.17015 2.8073-0.94055 3.061-1.712 0.36237-1.1018-0.33561-1.2733-3.2541-0.79969-3.1694 0.51433-3.5385 0.38981-2.5118-0.84738 1.46-1.7591 5.1146-1.8945 6.7588-0.25031 0.66 0.66 1.2 3.0612 1.2 5.3361 0 4.1126-0.022 4.1369-3.8872 4.2884-2.3812 0.0933-4.3658-0.42432-5.1224-1.3361zm5.8096-0.68839c0.66-0.66 1.2-1.56 1.2-2 0-1.3137-3.6676-0.90542-4.8689 0.54201-1.9969 2.4061 1.3792 3.7477 3.6689 1.458zm5.6937 1.1898c-1.0571-1.7104 0.26711-2.4332 1.9298-1.0533 1.0399 0.86301 2.0008 0.92285 3.2742 0.20391 1.5834-0.89393 1.3467-1.2089-1.9476-2.5924-5.9947-2.5175-3.9493-8.0156 2.25-6.048 3.151 1.0001 2.3314 2.5163-1 1.85-3.9749-0.79497-3.9191 1.134 0.073 2.5256 2.3959 0.8352 3.0018 1.5729 2.75 3.3478-0.24648 1.737-1.071 2.3492-3.4792 2.5829-1.7359 0.1685-3.4684-0.19894-3.8501-0.81653zm10.506-0.48983c-1.4424-1.738 0.0464-2.0536 1.7328-0.36721 1.26 1.26 4.2672 0.49723 4.2672-1.0824 0-0.55678-1.1065-1.2901-2.459-1.6295-3.6044-0.90464-5.1049-3.0366-3.4991-4.9715 1.4699-1.7712 6.1001-1.57 6.7113 0.29163 0.29249 0.89085-0.46177 1.0672-2.6729 0.625-4.1996-0.83993-3.9014 0.93526 0.41964 2.4978 1.925 0.69609 3.5 1.8215 3.5 2.5009 0 3.4-5.69 4.9187-8 2.1353zm16-6c0-4.3333 0.42222-7.5 1-7.5 0.5641 0 1 2.8333 1 6.5v6.5h3.5c1.925 0 3.5 0.45 3.5 1s-2.025 1-4.5 1h-4.5zm10.915 5.8638c-1.2735-1.5647-1.2151-1.6586 0.58517-0.93998 3.0431 1.2147 4.7426 1.195 5.1878-0.0602 0.22169-0.62498-1.0002-1.6255-2.7154-2.2234-2.4394-0.85036-3.0481-1.5829-2.7954-3.3637 0.39555-2.7876 4.8457-3.659 6.7806-1.3277 1.1284 1.3596 0.90299 1.4733-1.8356 0.92556-4.0785-0.8157-4.1156 1.0836-0.0489 2.5012 2.3959 0.8352 3.0018 1.5729 2.75 3.3478-0.42122 2.9686-5.7901 3.7428-7.9082 1.1404zm10.085-5.3048c0-3.8175 0.45-7.2191 1-7.559 0.56971-0.3521 1 0.51208 1 2.0084 0 2.1918 0.33886 2.5188 2.048 1.9764 3.1554-1.0015 4.952 1.2252 4.952 6.1377 0 2.4076-0.45 4.3776-1 4.3776s-1-2.0563-1-4.5696c0-4.1668-0.19831-4.5414-2.25-4.25-1.8704 0.26565-2.3019 1.0365-2.5575 4.5696-0.50052 6.9178-2.1925 4.8411-2.1925-2.691zm-66-19.626c0-5.3034-0.10669-5.536-2.25-4.9043-2.1143 0.62309-2.0867 0.50651 0.45636-1.9326 1.4885-1.4276 2.951-2.5957 3.25-2.5957 0.299 0 0.54364 3.375 0.54364 7.5 0 4.3333-0.42222 7.5-1 7.5-0.55 0-1-2.5053-1-5.5674zm6.9148 3.9312c-1.2735-1.5647-1.2151-1.6586 0.58517-0.93998 3.0431 1.2147 4.7426 1.195 5.1878-0.0602 0.22169-0.62498-1.0002-1.6255-2.7154-2.2234-2.4394-0.85036-3.0481-1.5829-2.7954-3.3637 0.39555-2.7876 4.8457-3.659 6.7806-1.3277 1.1284 1.3596 0.90299 1.4733-1.8356 0.92556-4.0785-0.8157-4.1156 1.0836-0.0489 2.5012 2.3959 0.8352 3.0018 1.5729 2.75 3.3478-0.42122 2.9686-5.7901 3.7428-7.9082 1.1404zm281.09 30.631v-63.005l-103.25 0.25467-103.25 0.25467-0.25931 61.5c-0.14261 33.825-0.0442 62.062 0.21862 62.75 0.37806 0.98882 22.006 1.25 103.51 1.25h103.03zm-126.67 54.229c-2.2977-1.4616-2.5533-5.7265-0.49548-8.2678 1.6909-2.0882 2.3448-2.281 4.8115-1.4187 5.0803 1.7759 4.2319 10.484-1.0178 10.446-1.1702-8e-3 -2.6544-0.35043-3.2983-0.76002zm4.5008-1.0985c0.75546-0.47892 1.1875-2.0924 1-3.7347-0.45622-3.9965-4.4646-4.696-5.4064-0.94342-0.37841 1.5077-0.13468 3.1952 0.5871 4.0649 1.4113 1.7005 1.9641 1.7893 3.8193 0.61319zm5.9516-3.3762c-0.53384-6.8125 0.51034-9.7592 3.4436-9.7182 2.2432 0.0314 2.2471 0.0527 0.27962 1.5395-1.7234 1.3023-1.7915 1.6489-0.5 2.5443 1.1254 0.78031 1.186 1.1621 0.24513 1.5438-0.73476 0.29814-1.25 2.3277-1.25 4.9239 0 6.1783-1.7196 5.5324-2.2184-0.83333zm11.133 3.6138c-1.2735-1.5647-1.2151-1.6586 0.58517-0.93997 3.0431 1.2147 4.7426 1.195 5.1878-0.0602 0.22169-0.62499-1.0002-1.6255-2.7154-2.2234-2.4394-0.85036-3.0481-1.5829-2.7954-3.3637 0.39555-2.7876 4.8457-3.659 6.7806-1.3277 1.1284 1.3596 0.90299 1.4733-1.8356 0.92556-4.0785-0.8157-4.1156 1.0836-0.0489 2.5012 2.3959 0.8352 3.0018 1.5729 2.75 3.3478-0.42122 2.9686-5.7901 3.7428-7.9082 1.1404zm11.139 0.20149c-0.65487-0.78907-1.0475-2.9184-0.87244-4.7319 0.2501-2.5914 0.92935-3.5109 3.1729-4.2952 2.4537-0.85774 3.1209-0.66915 4.75 1.3427 2.7476 3.3931 2.3766 4.1191-2.1047 4.1191-2.7524 0-4 0.4345-4 1.393 0 1.9374 2.9641 2.8817 4.6509 1.4817 1.577-1.3088 2.8966-0.56968 1.8902 1.0587-0.96196 1.5565-6.0992 1.3039-7.4869-0.36815zm5.9458-6.1349c0-1.0423-0.72946-1.4622-2.1717-1.25-3.2015 0.47108-3.5444 2.8196-0.41166 2.8196 1.6805 0 2.5833-0.54853 2.5833-1.5696zm5.5798 6.6987c-0.84401-1.3656-1.0871-11.955-0.29264-12.75 1.4073-1.4073 2.1397 0.80642 1.922 5.8093-0.12184 2.8003 0.28635 5.7034 0.90709 6.4513 0.8697 1.0479 0.76995 1.3599-0.4348 1.3599-0.85988 0-1.8056-0.39188-2.1016-0.87084zm-106.94-6.594c-8.0156-2.8575-12.321-9.7784-11.364-18.268 0.57798-5.1278 2.9096-8.7377 7.8186-12.105 2.8589-1.9609 4.3817-2.2777 9.4506-1.9658 6.9509 0.42768 11.305 2.9394 13.712 7.9105l1.5356 3.1707 1.3547-2.5772c1.562-2.9715 20.855-21.369 20.855-19.887 0 0.54187-2.5113 3.2804-5.5806 6.0856l-5.5806 5.1003 5.3306 4e-3c8.5957 6e-3 14.834 5.2534 16.457 13.843 1.4553 7.7021-4.4816 16.97-12.187 19.025-7.1895 1.9174-15.761-1.7244-19.056-8.0964l-1.5861-3.0672-1.5391 3.1779c-1.875 3.8714-5.4429 6.5229-10.758 7.9952-4.7823 1.3246-4.1029 1.3511-8.8627-0.34575zm12.384-2.046c7.3718-3.8121 10.353-14.911 5.9286-22.071-6.3061-10.203-21.139-9.873-26.675 0.59418-1.2512 2.3661-2.2749 5.7354-2.2749 7.4874 0 4.6988 3.984 11.486 8.0093 13.645 4.1853 2.2446 11.033 2.4018 15.012 0.34449zm32.989-0.73915c5.5347-3.7669 7.4184-7.1313 7.4184-13.25s-1.8837-9.4831-7.4184-13.25c-6.7858-4.6184-17.645-1.7248-21.499 5.729-2.1581 4.1732-1.9233 11.832 0.48375 15.78 4.3595 7.1502 14.355 9.5239 21.016 4.9909zm15.99-18.25c0-4.3333 0.42222-7.5 1-7.5 0.55 0 1 1.0829 1 2.4064 0 1.9162 0.4085 2.2996 2.0053 1.882 2.8636-0.74885 4.9947 1.4417 4.9947 5.1341 0 4.0524-1.5586 5.5776-5.7 5.5776h-3.3zm6.8038 2.1224c-0.22911-2.3544-0.79574-3.1224-2.3038-3.1224-1.4628 0-2.0887 0.77669-2.3301 2.8915-0.34908 3.058 1.22 4.7799 3.5432 3.8883 0.88206-0.33848 1.2829-1.6825 1.0907-3.6575zm5.2313 3.4434c-3.2131-6.0038 2.7944-12.093 7.3934-7.4943 1.8597 1.8597 2.0704 6.5296 0.37143 8.2286-1.9015 1.9015-6.5916 1.458-7.7648-0.73426zm5.9191-0.5107c0.65956-0.79472 1.0522-2.4822 0.87244-3.75-0.24168-1.7049-0.97765-2.305-2.8268-2.305s-2.5851 0.60013-2.8268 2.305c-0.31696 2.2358 1.2932 5.195 2.8268 5.195 0.41531 0 1.2948-0.65023 1.9543-1.445zm5.5966 1.195c-1.2249-3.9639-1.2151-9.8207 0.0193-11.448 1.2234-1.6134 1.3694-1.6274 1.3979-0.13487 0.0175 0.91666 0.5943 1.9292 1.2818 2.25 1 0.46666 1 0.7 0 1.1667-1.4781 0.68977-1.7048 7.4167-0.24998 7.4167 0.55 0 1 0.45 1 1 0 1.4478-2.9914 1.2309-3.449-0.25zm6.0289 0.37916c-0.84401-1.3656-1.0871-11.955-0.29264-12.75 1.4073-1.4073 2.1397 0.80642 1.922 5.8093-0.12184 2.8003 0.28635 5.7034 0.90709 6.4513 0.8697 1.0479 0.76995 1.3599-0.4348 1.3599-0.85988 0-1.8056-0.39188-2.1016-0.87084zm5.4744-0.56384c-0.65487-0.78907-1.0475-2.9184-0.87244-4.7319 0.2501-2.5914 0.92935-3.5109 3.1729-4.2952 2.4537-0.85774 3.1209-0.66915 4.75 1.3427 1.0424 1.2874 1.8953 3.1586 1.8953 4.1584 0 4.1598-6.3444 6.6604-8.9458 3.526zm5.935-1.0523c0.72178-0.86969 0.96551-2.5572 0.5871-4.0649-0.94183-3.7525-4.9502-3.0531-5.4064 0.94342-0.46018 4.0313 2.4824 5.9372 4.8193 3.1215zm5.0108-2.8062v-5.2933l6.5365 0.0433c7.4065 0.049 8.424 0.8672 8.4482 6.7933 0.0211 5.1624-1.7977 4.7447-2.1772-0.5-0.25185-3.4808-0.66946-4.25-2.3075-4.25s-2.0556 0.76917-2.3075 4.25c-0.41277 5.7051-2.1925 5.4426-2.1925-0.32332 0-3.8153-0.29005-4.5183-1.75-4.2414-1.2766 0.24215-1.8332 1.4794-2.0575 4.5733-0.44105 6.0835-2.1925 5.2432-2.1925-1.0519zm32.817-17.457-13.656-13.75l13.933-14.5 13.933-14.5 13.911 14.5 13.911 14.5-13.66 13.75c-7.5132 7.5625-13.897 13.75-14.187 13.75s-6.6721-6.1875-14.183-13.75zm27.688-1.2549 12.976-13.005-13.24-13.24-13.24-13.24-13.24 13.24-13.24 13.24 12.976 13.005c7.1368 7.1527 13.214 13.005 13.505 13.005s6.368-5.8522 13.505-13.005zm-12.505-9.4951v-11.5h-4c-2.8889 0-4-0.41666-4-1.5 0-1.2333 1.7778-1.5 10-1.5 8.0451 0 10 0.282 10 1.4425 0 0.98216-1.3563 1.5406-4.25 1.75l-4.25 0.30749-0.28275 11.25c-0.22855 9.0932-0.56404 11.25-1.75 11.25-1.2046 0-1.4672-2.0585-1.4672-11.5zm-76.794 10.25 0.29381-7.25h3.4542c2.6889 0 3.7835 0.58378 4.9405 2.6348 1.3358 2.3679 1.3128 2.8996-0.22726 5.25-1.0845 1.6552-2.6228 2.6152-4.1905 2.6152-1.8103 0-2.477 0.5383-2.477 2 0 1.1-0.46971 2-1.0438 2-0.65611 0-0.93468-2.6928-0.75-7.25zm6.783 0.76299c0.72178-0.86969 0.96551-2.5572 0.5871-4.0649-0.48884-1.9477-1.1884-2.5009-2.8617-2.263-2.561 0.36417-3.543 4.112-1.669 6.37 1.5192 1.8305 2.3972 1.8211 3.9435-0.0421zm-23.438 1.237c-1.2249-3.9639-1.2151-9.8207 0.0193-11.448 1.2234-1.6134 1.3694-1.6274 1.3979-0.13487 0.0175 0.91666 0.5943 1.9292 1.2818 2.25 1 0.46666 1 0.7 0 1.1667-1.4781 0.68977-1.7048 7.4167-0.24998 7.4167 0.55 0 1 0.45 1 1 0 1.4478-2.9914 1.2309-3.449-0.25zm5.4842-0.68426c-2.2509-4.2059-0.12552-9.0657 3.9648-9.0657 4.1347 0 6.7794 6.8206 3.8 9.8-1.9015 1.9015-6.5916 1.458-7.7648-0.73426zm5.9191-0.5107c0.65956-0.79472 1.0522-2.4822 0.87244-3.75-0.24168-1.7049-0.97765-2.305-2.8268-2.305s-2.5851 0.60013-2.8268 2.305c-0.31696 2.2358 1.2932 5.195 2.8268 5.195 0.41531 0 1.2948-0.65023 1.9543-1.445zm23.2 1.1991c-1.5117-1.5117-1.4685-4.0388 0.0959-5.6077 0.6875-0.6895 1.25-2.692 1.25-4.45 0-2.4791 0.46843-3.2633 2.0875-3.4946 3.203-0.45763 4.7378 1.9901 3.2692 5.2135-0.91977 2.0187-0.92672 2.9148-0.0295 3.8119 0.89716 0.89716 1.1729 0.89078 1.1729-0.0271 0-0.66 0.50248-1.2 1.1166-1.2 0.62412 0 0.88606 0.8817 0.59388 1.999-0.28751 1.0995-0.115 2.251 0.38337 2.559 1.9927 1.2316 0.6702 1.9519-3.9402 2.1461-2.665 0.11225-5.3649-0.31525-5.9996-0.95zm5.8459-2.2386c0-1.7595-2.6877-3.8265-3.9562-3.0425-1.4532 0.89814-1.3084 4.2681 0.2062 4.7964 1.8062 0.63004 3.75-0.2791 3.75-1.7539zm-0.22917-8.328c0.21771-0.65313-0.31666-1.1875-1.1875-1.1875-0.87083 0-1.5833 0.7125-1.5833 1.5833 0 1.7659 2.1528 1.4584 2.7708-0.39583zm-103.77 6.3206c0-0.52259 2.5875-3.6061 5.75-6.8522 5.1887-5.326 5.4779-5.8385 2.9625-5.2505-6.7214 1.571-16.499-4.1981-18.768-11.074-1.5304-4.6372-0.68036-11.863 1.7876-15.196 1.0736-1.4497 3.4855-3.6877 5.36-4.9734 2.8589-1.9609 4.3817-2.2777 9.4506-1.9658 6.9271 0.42622 11.518 3.0601 13.623 7.8157 0.72737 1.6432 1.5501 2.9704 1.8284 2.9492 0.27824-0.0212 1.4059-1.4669 2.5059-3.2127 3.2148-5.1022 7.9965-7.7488 14-7.7488 13.176 0 20.833 13.93 14.034 25.532-6.073 10.363-21.814 10.516-27.923 0.27263l-2.357-3.9526-2.0755 3.324c-2.3962 3.8375-20.179 21.755-20.179 20.332zm13.759-15.503c10.2-6.2191 9.5539-22.307-1.0992-27.362-9.8402-4.6695-21.187 1.6733-22.348 12.493-0.61091 5.69 2.8295 12.398 7.6978 15.009 4.5744 2.4533 11.6 2.3911 15.75-0.13926zm33.366-0.44434c12.542-8.5225 6.4908-28.561-8.625-28.561s-21.167 20.039-8.625 28.561c2.6301 1.7872 4.9349 2.4389 8.625 2.4389s5.9948-0.65173 8.625-2.4389zm15.875-4.8575c0-5.1519 0.0751-5.2919 2.75-5.129 3.859 0.23508 4.0581 0.42835 1.5 1.4566-1.8118 0.72825-2.25 1.6897-2.25 4.9366 0 2.2177-0.45 4.0322-1 4.0322s-1-2.3834-1-5.2965zm7.3812 2.7555c-1.3408-2.0464-1.4443-3.0251-0.5317-5.0281 0.62326-1.3679 1.8408-2.7586 2.7056-3.0905 2.3823-0.91416 6.4449 1.3429 6.4449 3.5806 0 1.5781-0.79584 2.0243-4.0512 2.2714-3.8657 0.29341-3.983 0.39908-2.5609 2.3075 1.2721 1.7071 1.7902 1.8169 3.5377 0.75 2.749-1.6784 3.5907-1.5769 2.0745 0.25-1.9444 2.3429-5.7415 1.8241-7.6188-1.041zm6.6188-4.959c0-0.93333-0.94444-1.5-2.5-1.5s-2.5 0.56667-2.5 1.5c0 0.93334 0.94444 1.5 2.5 1.5s2.5-0.56666 2.5-1.5zm5.0542 6.0653c-0.65487-0.78907-1.0475-2.9184-0.87244-4.732 0.2501-2.5914 0.92935-3.5109 3.1729-4.2952 2.4537-0.85775 3.1209-0.66916 4.75 1.3427 2.7476 3.3931 2.3766 4.1191-2.1047 4.1191-2.7524 0-4 0.4345-4 1.393 0 1.9374 2.9641 2.8817 4.6509 1.4817 1.577-1.3088 2.8966-0.56968 1.8902 1.0587-0.96196 1.5565-6.0992 1.3039-7.4869-0.36814zm5.9458-6.1349c0-1.0423-0.72946-1.4622-2.1717-1.25-3.2015 0.47109-3.5444 2.8196-0.41166 2.8196 1.6805 0 2.5833-0.54852 2.5833-1.5696zm5 0.0695c0-4.3333 0.42222-7.5 1-7.5s1 3.1667 1 7.5c0 4.3333-0.42222 7.5-1 7.5s-1-3.1667-1-7.5zm-29.619-16.041c-1.3408-2.0464-1.4443-3.0251-0.5317-5.0281 0.62326-1.3679 1.8408-2.7586 2.7056-3.0905 2.3823-0.91416 6.4449 1.3429 6.4449 3.5806 0 1.5781-0.79584 2.0243-4.0512 2.2714-3.8657 0.29341-3.983 0.39908-2.5609 2.3075 1.2721 1.7071 1.7902 1.8169 3.5377 0.75 2.749-1.6784 3.5907-1.5769 2.0745 0.25-1.9444 2.3429-5.7415 1.8241-7.6188-1.041zm6.6188-4.959c0-0.93333-0.94444-1.5-2.5-1.5s-2.5 0.56667-2.5 1.5c0 0.93334 0.94444 1.5 2.5 1.5s2.5-0.56666 2.5-1.5zm5 2.2178v-5.2822l3.75 0.0322 3.75 0.0322 0.14444 5.5c0.0794 3.025-0.0465 4.375-0.27995 3-1.0459-6.1612-1.4514-7-3.3835-7-1.6811-1e-5 -1.981 0.68109-1.981 4.5 0 2.475-0.45 4.5-1 4.5s-1-2.377-1-5.2822zm11.313 2.6364c-1.5238-2.3256-1.5436-2.8488-0.19744-5.2194 1.0493-1.8479 2.3008-2.623 4.1905-2.5953 2.1722 0.0318 2.6944-0.41575 2.6944-2.309 0-1.311 0.44176-2.0754 1-1.7304 0.55 0.33992 1 3.6686 1 7.397v6.779l-3.497 0.13147c-2.7385 0.10295-3.8643-0.42915-5.1905-2.4532zm5.6418 0.20084c1.874-2.258 0.89204-6.0058-1.669-6.37-1.6733-0.23794-2.3728 0.31527-2.8617 2.263-0.37841 1.5077-0.13468 3.1952 0.5871 4.0649 1.5463 1.8632 2.4244 1.8726 3.9435 0.0421zm-76.031-9.4781c-4.6234-4.6234-3.4168-11.137 2.5227-13.619 8.8788-3.7098 15.95 7.237 9.0996 14.087-3.4406 3.4406-7.8927 3.2611-11.622-0.46853zm10.442-0.14951c5.3063-4.1739 2.3198-12.927-4.4106-12.927-3.2659 0-7.9546 3.7768-7.9546 6.4075 0 2.6656 2.1732 6.3621 4.3641 7.4229 3.2548 1.576 5.1167 1.3659 8.0011-0.90299zm-6.2565-2.8603c-0.70599-0.43632-1.1317-1.8674-0.94612-3.1802 0.4622-3.2689 5.1876-3.44 5.6482-0.20457 0.35169 2.4704-2.6664 4.6429-4.702 3.3848zm53.891-5.6345c0-5.3034-0.10669-5.536-2.25-4.9043-2.1143 0.62309-2.0867 0.50651 0.45636-1.9326 1.4885-1.4276 2.951-2.5957 3.25-2.5957 0.299 0 0.54364 3.375 0.54364 7.5 0 4.3333-0.42222 7.5-1 7.5-0.55 0-1-2.5053-1-5.5674zm6.9148 3.9312c-1.2735-1.5647-1.2151-1.6586 0.58517-0.93998 3.0431 1.2147 4.7426 1.195 5.1878-0.0602 0.22169-0.62498-1.0002-1.6255-2.7154-2.2234-2.4394-0.85036-3.0481-1.5829-2.7954-3.3637 0.39555-2.7876 4.8457-3.659 6.7806-1.3277 1.1284 1.3596 0.90299 1.4733-1.8356 0.92556-4.0785-0.8157-4.1156 1.0836-0.0489 2.5012 2.3959 0.8352 3.0018 1.5729 2.75 3.3478-0.42122 2.9686-5.7901 3.7428-7.9082 1.1404zm110.09-35.864v-16.5h-691v33h691zm-681.79 9.1466c0.74439-0.74439 2.6481-4.5694 4.2304-8.5s3.1429-7.141 3.468-7.1342c0.32506 7e-3 1.8841 3.2693 3.4645 7.25 1.5804 3.9807 3.5789 7.8002 4.4411 8.4877 1.3359 1.0652 1.0871 1.25-1.6825 1.25-1.8664 0-2.9925-0.41695-2.6449-0.97933 0.33289-0.53863 0.11862-1.8886-0.47617-3-1.5627-2.9199-6.7957-2.7684-7.9174 0.22933-0.54001 1.4432-0.43881 2.5134 0.28222 2.9847 0.62131 0.40608-0.13787 0.74154-1.6973 0.75-2.3721 0.0129-2.6059-0.20021-1.468-1.3381zm8.4683-8.6864c-1.0418-2.7602-1.2639-2.8806-2.4131-1.3089-1.9517 2.6691-1.5085 4.3487 1.1474 4.3487 2.2733 0 2.3466-0.17619 1.2657-3.0398zm10.821 1.5811v-8.5412l3 0.079c1.65 0.0434 2.4375 0.30593 1.75 0.58334-0.8423 0.33987-1.25 2.9234-1.25 7.921v7.4167h3.3c1.815 0 3.8962-0.5625 4.625-1.25 1.0693-1.0088 1.2373-0.96056 0.87063 0.25-0.32308 1.0666-2.1652 1.5842-6.375 1.7912l-5.9206 0.29123zm16.573 5.8239c-6.0366-7.6743 2.3525-17.954 10.913-13.373 2.2687 1.2142 4.3153 7.0086 3.3925 9.605-2.3624 6.6472-10.38 8.7588-14.306 3.7678zm10.055-0.0188c0.75484-0.90953 1.3724-3.5404 1.3724-5.8463 0-5.0868-1.7977-7.5-5.5873-7.5-3.3845 0-4.9127 2.333-4.9127 7.5 0 1.9973 0.46583 4.5019 1.0352 5.5658 1.2923 2.4147 6.1805 2.5842 8.0924 0.28056zm7.6724 1.4537c0.67104-0.67103 1.2-3.8889 1.2-7.3 0-3.4111-0.52896-6.629-1.2-7.3-0.93334-0.93333-0.64969-1.2 1.2764-1.2 2.2861 0 2.4471 0.30747 2.095 4l-0.38146 4h4.105c4.0057 0 4.105-0.0827 4.105-3.4167 0-1.8792-0.5625-3.6436-1.25-3.921-0.6875-0.27742 0.325-0.50439 2.25-0.50439s2.9375 0.22697 2.25 0.50439c-0.84051 0.33915-1.25 2.9067-1.25 7.8377 0 4.931 0.40949 7.4986 1.25 7.8377 0.6875 0.27742-0.325 0.50439-2.25 0.50439s-2.9375-0.22697-2.25-0.50439c0.6875-0.27741 1.25-2.0419 1.25-3.921 0-3.3194-0.11382-3.4167-4-3.4167s-4 0.0972-4 3.4167c0 1.8792 0.5625 3.6436 1.25 3.921 0.6875 0.27742-0.3025 0.53992-2.2 0.58334-2.6833 0.0614-3.1833-0.18772-2.25-1.1211zm17.997-0.0554c0.57304-0.69047 2.5921-4.628 4.4867-8.75l3.4448-7.4946 1.8302 4.4646c1.0066 2.4555 2.8065 6.393 3.9997 8.75l2.1695 4.2854-3.114-0.0153c-1.7127-8e-3 -2.6081-0.34592-1.9899-0.75 0.72103-0.47125 0.82223-1.5415 0.28222-2.9847-1.1216-2.9977-6.3547-3.1493-7.9174-0.22934-0.59479 1.1114-0.80906 2.4614-0.47617 3s-0.3764 0.97933-1.5762 0.97933c-1.6368 0-1.9213-0.31344-1.1396-1.2554zm9.203-7.0535c0-0.71987-0.56958-2.0878-1.2657-3.0398-1.1493-1.5717-1.3713-1.4513-2.4131 1.3089-1.0809 2.8636-1.0075 3.0398 1.2657 3.0398 1.3272 0 2.4131-0.58899 2.4131-1.3089zm16 5.5864v-2.7225l1.5967 2.2796c1.116 1.5932 2.3956 2.1871 4.25 1.9725 3.9618-0.45854 3.3521-3.4961-1.3416-6.6837-6.4888-4.4067-5.6526-9.1234 1.6174-9.1234 3.3236 0 3.8776 0.31301 3.8776 2.1911 0 2.0481-0.0853 2.0745-1.306 0.40503-1.5463-2.1146-6.0346-1.8339-6.4561 0.40384-0.16563 0.87932 1.5888 2.6278 4.2398 4.2254 3.2846 1.9794 4.5223 3.3616 4.5223 5.05 0 3.4102-1.8639 4.7246-6.7 4.7246-4.0137 0-4.3-0.18125-4.3-2.7225zm18.83-5.4071 0.33029-8.1343-2.5803 0.49326c-1.4192 0.27129-2.5803 0.10565-2.5803-0.36808s3.15-0.86133 7-0.86133c5.9216 0 7 0.26191 7 1.7 0 1.3222-0.26667 1.4333-1.2 0.5-0.66-0.66-2.0443-1.2-3.0762-1.2-1.7057 0-1.8465 0.72687-1.55 8.0024 0.30341 7.4444 0.1867 8.0024-1.6738 8.0024-1.8632 0-1.9774-0.55657-1.6697-8.1343zm11.67-0.37043v-8.5h3.8157c7.2002 0 9.9743 3.7886 5.694 7.7763-1.9778 1.8426-1.969 1.8773 1.3849 5.539 2.7421 2.9937 3.0338 3.6848 1.5551 3.6848-1.001 0-3.0867-1.7904-4.6349-3.9786-1.5482-2.1883-3.1996-3.9883-3.6699-4-0.47026-0.0118-0.68337 1.7786-0.47357 3.9786 0.33151 3.4762 0.11611 4-1.645 4-1.8763 0-2.0264-0.62971-2.0264-8.5zm8-4c0-2.3498-0.48768-3.0693-2.25-3.3196-1.9797-0.28116-2.25 0.11766-2.25 3.3196 0 3.2019 0.27032 3.6007 2.25 3.3196 1.7623-0.25029 2.25-0.96979 2.25-3.3196zm8.7106 11.147c0.74439-0.74439 2.6481-4.5694 4.2304-8.5s3.1429-7.141 3.468-7.1342c0.32506 7e-3 1.8841 3.2693 3.4645 7.25 1.5804 3.9807 3.5789 7.8002 4.4411 8.4877 1.3359 1.0652 1.0871 1.25-1.6825 1.25-1.8664 0-2.9924-0.41695-2.6449-0.97933 0.33289-0.53863 0.11862-1.8886-0.47617-3-1.5627-2.9199-6.7957-2.7684-7.9174 0.22933-0.54001 1.4432-0.43881 2.5134 0.28222 2.9847 0.62132 0.40608-0.13786 0.74154-1.6973 0.75-2.3721 0.0129-2.6059-0.20021-1.468-1.3381zm8.4683-8.6864c-1.0418-2.7602-1.2639-2.8806-2.4131-1.3089-1.9517 2.6691-1.5085 4.3487 1.1474 4.3487 2.2733 0 2.3466-0.17619 1.2657-3.0398zm14.071 9.3776c0.8423-0.33987 1.25-2.9234 1.25-7.921 0-6.4753-0.22846-7.4167-1.8-7.4167-0.99 0-2.34 0.54-3 1.2-0.93333 0.93334-1.2 0.82223-1.2-0.5 0-1.4381 1.0784-1.7 7-1.7s7 0.26191 7 1.7c0 1.3222-0.26667 1.4333-1.2 0.5-0.66-0.66-2.01-1.2-3-1.2-1.5715 0-1.8 0.94136-1.8 7.4167 0 4.9977 0.4077 7.5812 1.25 7.921 0.6875 0.27742-0.325 0.50439-2.25 0.50439s-2.9375-0.22697-2.25-0.50439zm12 0c0.84051-0.33915 1.25-2.9067 1.25-7.8377 0-4.931-0.40949-7.4986-1.25-7.8377-0.6875-0.27742 0.325-0.50439 2.25-0.50439s2.9375 0.22697 2.25 0.50439c-0.6875 0.27741-1.25 2.0419-1.25 3.921 0 3.334 0.0993 3.4167 4.105 3.4167h4.105l-0.38146-4c-0.33151-3.4762-0.11611-4 1.645-4 1.8763 0 2.0264 0.62972 2.0264 8.5 0 7.8703-0.15013 8.5-2.0264 8.5-1.7611 0-1.9765-0.52378-1.645-4l0.38146-4h-4.105c-4.0057 0-4.105 0.0827-4.105 3.4167 0 1.8792 0.5625 3.6436 1.25 3.921 0.6875 0.27742-0.325 0.50439-2.25 0.50439s-2.9375-0.22697-2.25-0.50439zm18.25-2.0602v-2.7225l1.5967 2.2796c1.116 1.5932 2.3956 2.1871 4.25 1.9725 3.9618-0.45854 3.3521-3.4961-1.3416-6.6837-6.4888-4.4067-5.6526-9.1234 1.6174-9.1234 3.3236 0 3.8776 0.31301 3.8776 2.1911 0 2.0481-0.0853 2.0745-1.306 0.40503-1.5463-2.1146-6.0346-1.8339-6.4561 0.40384-0.16563 0.87932 1.5888 2.6278 4.2398 4.2254 3.2846 1.9794 4.5223 3.3616 4.5223 5.05 0 3.4102-1.8639 4.7246-6.7 4.7246-4.0137 0-4.3-0.18125-4.3-2.7225zm14.8 1.5225c0.67104-0.67103 1.2-3.8889 1.2-7.3 0-3.4111-0.52896-6.629-1.2-7.3-0.93333-0.93333-0.25206-1.2 3.0657-1.2 5.4102 0 8.1343 1.4518 8.1343 4.3352 0 3.04-1.8112 4.6648-5.2 4.6648-2.5203 0-2.8 0.34127-2.8 3.4167 0 1.8792 0.5625 3.6436 1.25 3.921 0.6875 0.27742-0.3025 0.53992-2.2 0.58334-2.6833 0.0614-3.1833-0.18772-2.25-1.1211zm8.0375-10.687c0.33362-2.3595-1.1622-4.0681-3.5875-4.0978-0.7694-9e-3 -1.25 1.3571-1.25 3.5542 0 3.1298 0.27721 3.5302 2.25 3.25 1.4911-0.21177 2.3638-1.1246 2.5875-2.7065zm5.9964 11.011c0.97312-0.61686 1.2436-2.9122 1-8.487l-0.33387-7.6415 5.75 2e-3c4.7442 2e-3 5.75 0.2997 5.75 1.7023 0 1.3222-0.26667 1.4333-1.2 0.5-0.66-0.66-2.7135-1.2-4.5634-1.2-3.1922 0-3.3474 0.16542-3.05 3.25 0.28655 2.9719 0.59144 3.2374 3.5634 3.1026 1.9382-0.0879 3.25 0.33556 3.25 1.0492 0 0.78336-1.2337 1.0526-3.5722 0.77962-3.5215-0.41112-3.5676-0.36932-3.25 2.9508 0.28288 2.9573 0.70299 3.4049 3.4467 3.6718 1.9975 0.19435 3.7809-0.34672 4.944-1.5 1.7537-1.7388 1.7944-1.7378 1.1254 0.0278-0.38173 1.0075-0.69405 2.02-0.69405 2.25s-3.0375 0.41132-6.75 0.4029c-4.0686-9e-3 -6.2201-0.3512-5.4161-0.86085zm20.916 0.21388c2.4136-0.97388 1.3336-6.4825-2.2483-11.468l-3.4983-4.8694h3.0574c1.7794 0 2.7996 0.41714 2.4406 0.99795-0.60909 0.98552 2.3972 7.002 3.4987 7.002s4.1078-6.0165 3.4987-7.002c-0.35576-0.57563 0.57197-0.98508 2.1922-0.96754 2.2849 0.0247 2.5008 0.21036 1.1571 0.99481-2.1457 1.2526-6.8481 9.2887-6.8481 11.703 0 1.0296 0.54 2.4119 1.2 3.0719 0.93333 0.93334 0.43333 1.1825-2.25 1.1211-1.8975-0.0434-2.8875-0.30592-2.2-0.58334zm224.05-0.53772c1.5664-1.5664 1.5664-13.034 0-14.6-0.93333-0.93333 0.0322-1.2 4.345-1.2 4.1019 0 5.9757 0.47593 7.2 1.8288 2.0654 2.2823 2.088 3.567 0.0918 5.2237-1.4176 1.1765-1.4176 1.3788 0 2.1721 2.1958 1.2288 1.9611 5.4921-0.37107 6.7402-1.0638 0.56935-4.3038 1.0352-7.2 1.0352-4.0956 0-4.9991-0.26666-4.0657-1.2zm9.7-3.3c0-2.6537-0.37519-3.0362-3.25-3.3134-3.1268-0.30149-3.25-0.17594-3.25 3.3134 0 3.4893 0.12315 3.6148 3.25 3.3134 2.8748-0.27718 3.25-0.65969 3.25-3.3134zm-0.43043-6.0838c1.7861-2.1521 0.0428-4.8189-3.4204-5.2326-2.4295-0.29018-2.6491-0.0207-2.6491 3.25 0 3.0885 0.31858 3.5664 2.3776 3.5664 1.3076 0 2.9691-0.71272 3.692-1.5838zm7.9304 9.5838c0-0.55 0.45-1 1-1s1 0.45 1 1-0.45 1-1 1-1-0.45-1-1zm9.5-7.5c0-7.8703 0.15013-8.5 2.0264-8.5 1.7666 0 1.9767 0.52139 1.6386 4.067l-0.38785 4.067 3.8614-0.31701c3.1557-0.25907 3.9212-0.73828 4.1882-2.622 0.17972-1.2678-0.21288-2.9553-0.87244-3.75-0.9883-1.1908-0.78197-1.4454 1.1732-1.4473 2.3189-2e-3 2.3649 0.17011 2.0386 7.6392-0.24357 5.5748 0.0269 7.8702 1 8.487 0.87731 0.55612 0.15298 0.85078-2.1161 0.86085-2.6833 0.0119-3.1833-0.25135-2.25-1.1847 0.66-0.66 1.2-2.46 1.2-4 0-2.6119-0.27571-2.8-4.105-2.8h-4.105l0.38146 4c0.33151 3.4762 0.11611 4-1.645 4-1.8763 0-2.0264-0.62971-2.0264-8.5zm18.566 6.6242c-1.6089-3.0062-1.2838-6.6174 0.7623-8.4692 2.2967-2.0785 4.5761-2.1073 6.5998-0.0836 2.508 2.508 1.856 3.4286-2.4286 3.4286-2.7309 0-4 0.43708-4 1.3776 0 2.1132 2.7512 3.9208 5.0518 3.3192 1.3116-0.34301 1.9226-0.11295 1.6783 0.63197-0.21126 0.64422-1.7821 1.3101-3.4907 1.4797-2.2813 0.22648-3.3898-0.22093-4.173-1.6843zm5.6836-7.3742c-0.22917-0.6875-1.2417-1.25-2.25-1.25s-2.0208 0.5625-2.25 1.25c-0.26389 0.79167 0.56111 1.25 2.25 1.25s2.5139-0.45833 2.25-1.25zm4.75 3.75c0-3.025 0.225-5.5453 0.5-5.6007 2.5928-0.52231 5.5-0.20836 5.5 0.59394 0 0.54627-0.60797 0.8536-1.351 0.68296-1.0317-0.23693-1.2681 0.88744-1 4.7574 0.31297 4.5182 0.13417 5.0676-1.649 5.067-1.7575-5.5e-4 -2-0.6675-2-5.5006zm10.167 4.8333c-0.36667-0.36667-0.66667-3.9667-0.66667-8 0-5.1918-0.36503-7.3378-1.25-7.3486-0.83333-0.0102-0.75-0.33844 0.25-0.98469 2.5248-1.6317 3-1.1551 3 3.0085 0 3.7197 0.14005 3.921 1.9441 2.7944 4.444-2.7753 8.277 5.8771 4.2272 9.5422-1.832 1.658-6.2528 2.2402-7.5046 0.98832zm6.9615-2.9881c0.8045-3.2054-0.6575-5.8452-3.2372-5.8452-1.5098 0-1.953 0.85673-2.1985 4.25-0.28685 3.9646-0.13702 4.25 2.231 4.25 1.9132 0 2.7026-0.65395 3.2048-2.6548zm5.407 1.7205c-0.56935-1.0638-1.0352-2.8638-1.0352-4 0-2.4031 3.321-6.0658 5.5-6.0658 2.284 0 5.5 3.7101 5.5 6.345 0 4.9408-7.761 7.8386-9.9648 3.7207zm7.5012-1.3548c0.71963-2.8672-1.0466-7.711-2.8117-7.711-1.8984 0-3.7248 2.0916-3.7248 4.2658 0 5.1999 5.3838 8.0376 6.5364 3.4452zm4.9636-5.1999c0-5.8687 0.38584-8.637 1.25-8.9686 0.93389-0.35836 1.25 1.4849 1.25 7.289 0 4.7089 0.47262 8.2412 1.2 8.9686 0.93333 0.93334 0.65556 1.2-1.25 1.2-2.4076 0-2.45-0.14693-2.45-8.4889zm7.6603 7.2492c-3.24-3.24 0.7403-11.543 4.9996-10.429 1.6952 0.4433 1.93 0.0788 1.6576-2.5734-0.18803-1.8304 0.19211-3.26 0.9326-3.5073 0.92601-0.30924 1.25 1.5269 1.25 7.0841 0 4.1258 0.25104 8.1558 0.55788 8.9554 0.43315 1.1288-0.42531 1.4735-3.8397 1.5421-2.4187 0.0485-4.9197-0.43385-5.5579-1.072zm6.6477-4.5281c0.33708-4.6527-1.5636-6.5098-4.3207-4.2217-2.8141 2.3355-0.93866 9.4108 2.3302 8.7911 1.2002-0.22752 1.7708-1.5376 1.9905-4.5695zm45.192 3.6128c0-2.0608 0.0838-2.0791 1.9175-0.41965 2.3372 2.1152 6.4394 1.7184 6.8939-0.6668 0.21617-1.1342-0.92246-2.4815-3.2656-3.864-4.532-2.6739-5.9872-5.2012-4.5458-7.8946 1.4337-2.6788 9-2.931 9-0.3 0 1.3222-0.26667 1.4333-1.2 0.5-1.532-1.532-5.4631-1.5542-6.4012-0.0362-0.4215 0.68201 0.48551 2.1079 2.191 3.4444 5.0111 3.927 7.4102 6.2854 7.4102 7.2846 0 2.2911-3.3478 4.1072-7.5714 4.1072-3.8681 0-4.4286-0.27274-4.4286-2.155zm14 1.2179c0-0.51543 1.5284-0.68911 3.3964-0.38597 2.9097 0.47217 3.5011 0.22126 4.127-1.7508 0.54101-1.7046 0.19647-2.7345-1.3276-3.9686-1.9198-1.5545-1.9463-1.7786-0.39398-3.3308 2.1465-2.1465 0.40177-5.2398-2.7515-4.8782-1.2364 0.14181-1.9016-0.18021-1.5495-0.75 0.3394-0.54918 1.9102-0.99851 3.4907-0.99851 3.0817 0 5.1154 3.293 3.2102 5.1982-0.66248 0.66247-0.4621 1.9286 0.59737 3.7746 1.47 2.5614 1.4602 2.9823-0.12553 5.4025-1.3104 1.9999-2.5474 2.6247-5.1967 2.6247-1.9123 0-3.477-0.4217-3.477-0.93712zm15.881-3.5493c3.1959-3.4671 4.1664-5.2713 3.9313-7.3086-0.26611-2.3065-0.7789-2.7043-3.481-2.7002-2.4286 4e-3 -2.9257-0.28836-2.1276-1.25 1.1232-1.3534 3.6812-1.62 6.2147-0.64784 2.6218 1.0061 1.9004 5.9605-1.4182 9.7402-1.65 1.8792-3 3.7441-3 4.1442 0 0.40006 1.5827 0.54262 3.5171 0.31679 2.1753-0.25396 3.3852-0.01 3.1714 0.64059-0.19012 0.57816-2.7544 1.19-5.6984 1.3597l-5.3527 0.30855z"/>
</svg>
