<?xml version='1.0' encoding='utf-8' standalone='no'?>
<!DOCTYPE svg PUBLIC '-//W3C//DTD SVG 1.1//EN' 'http://www.w3.org/Graphics/SVG/1.1/DTD/svg11.dtd'>
<svg version="1.1" viewBox="-0.028 -0.352 470 106" xmlns='http://www.w3.org/2000/svg'>
<defs>
</defs>
<rect fill="#FFFFFF" width="470" height="106"/>
<path fill="#1A171B" d="M6.7,18V6.4h5.1c1,0,1.8,0.3,2.4,0.8C14.7,7.8,15,8.5,15,9.3c0,1-0.5,1.8-1.5,2.4c0.8,0.3,1.3,0.7,1.6,1.1
	c0.3,0.5,0.5,1,0.5,1.7c0,1-0.3,1.8-1,2.5c-0.7,0.7-1.6,1-2.9,1H6.7z M8.2,11.3H11c1.6,0,2.4-0.6,2.4-1.8c0-1.1-0.8-1.7-2.4-1.7H8.2
	V11.3z M8.2,16.6h3.3c0.7,0,1.3-0.2,1.8-0.5c0.4-0.3,0.7-0.9,0.7-1.6c0-1.3-0.9-1.9-2.7-1.9h-3V16.6z"/>
<polygon fill="#1A171B" points="17.6,18 17.6,6.4 26,6.4 26,7.8 19.1,7.8 19.1,11.4 25.5,11.4 25.5,12.7 19.1,12.7 19.1,16.6 
	26.1,16.6 26.1,18 "/>
<path fill="#1A171B" d="M27.1,18l4.4-11.5h1.8L37.4,18h-1.7l-1.1-3.4h-4.7L28.7,18H27.1z M30.4,13.2H34l-1.7-5.1L30.4,13.2z"/>
<polygon fill="#1A171B" points="38.7,6.4 41,6.4 44.3,16.2 47.5,6.4 49.8,6.4 49.8,18 48.3,18 48.3,8.3 45,18 43.5,18 40.2,8.2 
	40.2,18 38.7,18 "/>
<rect x="52.4" y="6.4" fill="#1A171B" width="1.6" height="11.5"/>
<polygon fill="#1A171B" points="56.6,6.4 58.4,6.4 64.2,15.8 64.2,6.4 65.7,6.4 65.7,18 64,18 58.1,8.6 58.1,18 56.6,18 "/>
<path fill="#1A171B" d="M73.1,13.1v-1.3h5.1V18h-1l-0.4-1.5c-0.4,0.5-0.9,0.9-1.5,1.2c-0.7,0.3-1.4,0.5-2.3,0.5
	c-1.5,0-2.8-0.6-3.8-1.7c-1-1.1-1.5-2.5-1.5-4.2c0-1.8,0.5-3.3,1.4-4.4c1-1.2,2.3-1.8,4-1.8c1.3,0,2.3,0.3,3.2,1
	c0.9,0.7,1.5,1.6,1.7,2.8h-1.5c-0.2-0.8-0.7-1.4-1.2-1.8c-0.6-0.4-1.3-0.6-2.1-0.6c-1.1,0-2.1,0.4-2.8,1.2c-0.7,0.8-1.1,2-1.1,3.5
	c0,1.4,0.3,2.6,0.9,3.4c0.6,0.8,1.6,1.2,2.9,1.2c1,0,1.9-0.3,2.6-0.9c0.7-0.6,1-1.6,1-2.9H73.1z"/>
<polyline points="101.1,26 101.1,92.6 102.2,92.6 102.2,26 "/>
<path fill="#1A171B" d="M412.1,12c-1-0.4-1.5-1.2-1.5-2.2c0-0.9,0.3-1.7,0.9-2.2c0.6-0.6,1.5-0.9,2.5-0.9c1,0,1.8,0.3,2.5,0.8
	c0.7,0.5,1,1.3,1,2.2c0,1.1-0.5,1.9-1.4,2.3c1.2,0.6,1.8,1.5,1.8,2.8c0,1-0.3,1.9-1,2.5c-0.7,0.7-1.6,1-2.7,1
	c-1.1,0-2.1-0.3-2.8-0.9c-0.7-0.6-1.1-1.4-1.1-2.5C410.2,13.4,410.9,12.5,412.1,12z M411.7,14.8c0,0.6,0.2,1.2,0.6,1.6
	c0.4,0.4,1,0.6,1.8,0.6c0.7,0,1.2-0.2,1.6-0.6c0.4-0.4,0.6-0.9,0.6-1.5c0-0.7-0.2-1.2-0.6-1.6c-0.4-0.4-1-0.6-1.7-0.6
	c-0.7,0-1.2,0.2-1.7,0.6C412,13.6,411.7,14.1,411.7,14.8z M412.1,9.7c0,0.4,0.2,0.9,0.5,1.2c0.3,0.4,0.8,0.6,1.4,0.6
	c0.5,0,1-0.2,1.4-0.5c0.4-0.3,0.6-0.8,0.6-1.3c0-0.5-0.2-1-0.6-1.3c-0.4-0.3-0.9-0.4-1.4-0.4c-0.6,0-1,0.2-1.3,0.5
	C412.3,8.7,412.1,9.1,412.1,9.7z"/>
<polygon fill="#1A171B" points="418.7,18 421.6,13.6 418.9,9.6 420.7,9.6 422.6,12.5 424.5,9.6 426.2,9.6 423.4,13.6 426.3,18 
	424.6,18 422.5,14.8 420.5,18 "/>
<path fill="#1A171B" d="M428.5,14.5c0,0.8,0.2,1.4,0.6,1.9c0.4,0.4,1,0.6,1.8,0.6c0.7,0,1.3-0.2,1.8-0.5c0.5-0.4,0.7-0.9,0.7-1.6
	c0-0.6-0.2-1.1-0.6-1.5c-0.4-0.4-1-0.5-1.9-0.5c-0.2,0-0.5,0-0.8,0v-1.2c0.4,0,0.6,0,0.7,0c1.5,0,2.2-0.6,2.2-1.8
	c0-0.6-0.2-1-0.6-1.4c-0.4-0.3-0.9-0.5-1.5-0.5c-0.7,0-1.2,0.2-1.6,0.6c-0.4,0.4-0.5,1-0.6,1.8h-1.4c0-1.1,0.3-2,0.9-2.7
	c0.6-0.6,1.5-1,2.7-1c1,0,1.9,0.3,2.5,0.8c0.6,0.6,1,1.3,1,2.2c0,1.2-0.5,2-1.5,2.4c0.7,0.3,1.2,0.6,1.5,1c0.3,0.4,0.4,1,0.4,1.6
	c0,1.1-0.4,1.9-1.1,2.6c-0.7,0.7-1.7,1-2.9,1c-1.1,0-2-0.3-2.7-0.8c-0.7-0.6-1.1-1.5-1.2-2.9H428.5z"/>
<path fill="#1A171B" d="M436.6,15.2c0.4-0.7,1-1.2,1.8-1.6l2.3-1.4c0.5-0.3,0.9-0.6,1.1-1c0.2-0.3,0.3-0.7,0.3-1.2
	c0-0.7-0.2-1.2-0.6-1.5c-0.4-0.4-1-0.6-1.7-0.6c-0.8,0-1.4,0.2-1.7,0.7c-0.3,0.5-0.6,1.1-0.6,2h-1.4c0-1.2,0.3-2.2,0.9-2.9
	c0.6-0.7,1.6-1.1,2.9-1.1c1.1,0,1.9,0.3,2.6,0.9c0.7,0.6,1,1.4,1,2.5c0,0.7-0.2,1.3-0.5,1.8c-0.3,0.5-0.8,0.9-1.5,1.3l-1.9,1.1
	c-0.7,0.4-1.2,0.8-1.5,1.1c-0.3,0.3-0.6,0.8-0.8,1.3h6.2V18h-7.8C436,16.8,436.2,15.9,436.6,15.2z"/>
<path fill="#1A171B" d="M459.7,18h-1.9c-0.2-0.8-0.3-1.7-0.3-2.7c0-0.8-0.2-1.4-0.5-1.7c-0.3-0.3-0.8-0.5-1.6-0.5h-3.7V18h-1.6V6.4
	h5.3c1.3,0,2.2,0.3,2.8,0.8c0.6,0.5,0.9,1.3,0.9,2.4c0,1.3-0.5,2.2-1.6,2.7c0.5,0.2,0.8,0.4,1,0.8c0.2,0.3,0.3,0.8,0.4,1.6l0.1,1.9
	c0,0.2,0,0.4,0.1,0.6c0,0.2,0.2,0.4,0.5,0.5V18z M457.7,9.7c0-0.7-0.2-1.1-0.5-1.5c-0.3-0.3-0.9-0.5-1.5-0.5h-3.9v3.9h3.6
	C456.9,11.7,457.7,11.1,457.7,9.7z"/>
<polygon points="0.6,0.6 0.6,1.1 117.8,1.1 235,1.1 352.2,1.1 468.9,1.1 468.9,23.5 468.9,46.4 468.9,69.4 468.9,91.7 352.2,91.7 
	235,91.7 117.8,91.7 1.1,91.7 1.1,69.4 1.1,46.4 1.1,23.5 1.1,0.6 0.6,0.6 0.6,1.1 0.6,0.6 0,0.6 0,23.5 0,46.4 0,69.4 0,92.9 
	117.8,92.9 235,92.9 352.2,92.9 470,92.9 470,69.4 470,46.4 470,23.5 470,0 352.2,0 235,0 117.8,0 0,0 0,0.6 "/>
<polyline points="0.1,26.8 468.9,26.8 468.9,25.6 0.1,25.6 "/>
<polyline points="196.6,26.5 196.6,92 197.7,92 197.7,26.5 "/>
<path fill="#1A171B" d="M392.9,101.6c0,0.5,0.1,0.8,0.3,1c0.2,0.2,0.5,0.4,1,0.4c0.4,0,0.7-0.1,1-0.3c0.3-0.2,0.4-0.5,0.4-0.9
	c0-0.3-0.1-0.6-0.4-0.8c-0.2-0.2-0.6-0.3-1.1-0.3c-0.1,0-0.3,0-0.5,0V100c0.2,0,0.3,0,0.4,0c0.8,0,1.2-0.3,1.2-1
	c0-0.3-0.1-0.6-0.3-0.8c-0.2-0.2-0.5-0.3-0.9-0.3c-0.4,0-0.7,0.1-0.9,0.3c-0.2,0.2-0.3,0.6-0.3,1h-0.8c0-0.6,0.2-1.1,0.5-1.5
	c0.3-0.4,0.9-0.5,1.5-0.5c0.6,0,1.1,0.2,1.4,0.5c0.4,0.3,0.5,0.7,0.5,1.2c0,0.7-0.3,1.1-0.8,1.3c0.4,0.1,0.7,0.3,0.8,0.6
	c0.2,0.2,0.2,0.5,0.2,0.9c0,0.6-0.2,1.1-0.6,1.5c-0.4,0.4-0.9,0.6-1.6,0.6c-0.6,0-1.1-0.2-1.5-0.5c-0.4-0.3-0.6-0.9-0.7-1.6H392.9z"
	/>
<path fill="#1A171B" d="M402.1,101.2h0.9c-0.2,0.8-0.5,1.5-1,1.9s-1.1,0.6-1.9,0.6c-0.9,0-1.6-0.3-2.1-0.9c-0.5-0.6-0.8-1.4-0.8-2.5
	c0-1,0.3-1.9,0.8-2.5c0.5-0.6,1.3-0.9,2.2-0.9c0.7,0,1.3,0.2,1.8,0.5c0.5,0.3,0.8,0.9,0.9,1.6H402c-0.2-0.9-0.8-1.3-1.8-1.3
	c-0.6,0-1.2,0.2-1.5,0.7c-0.4,0.5-0.6,1.1-0.6,2c0,0.8,0.2,1.4,0.5,1.9c0.4,0.5,0.9,0.7,1.6,0.7c0.5,0,0.9-0.2,1.2-0.4
	C401.7,102.2,401.9,101.8,402.1,101.2z"/>
<polygon fill="#1A171B" points="403.1,103.7 405.3,96.9 405.9,96.9 403.7,103.7 "/>
<path fill="#1A171B" d="M406,101.2l2.9-4h0.7v4.1h0.9v0.7h-0.9v1.5h-0.8V102H406V101.2z M406.7,101.3h2.1v-2.9L406.7,101.3z"/>
<path fill="#1A171B" d="M416.1,101.2h0.9c-0.2,0.8-0.5,1.5-1,1.9c-0.5,0.4-1.1,0.6-1.9,0.6c-0.9,0-1.6-0.3-2.1-0.9
	c-0.5-0.6-0.8-1.4-0.8-2.5c0-1,0.3-1.9,0.8-2.5c0.5-0.6,1.3-0.9,2.2-0.9c0.7,0,1.3,0.2,1.8,0.5c0.5,0.3,0.8,0.9,0.9,1.6H416
	c-0.2-0.9-0.8-1.3-1.8-1.3c-0.6,0-1.2,0.2-1.5,0.7c-0.4,0.5-0.6,1.1-0.6,2c0,0.8,0.2,1.4,0.5,1.9c0.4,0.5,0.9,0.7,1.6,0.7
	c0.5,0,0.9-0.2,1.2-0.4C415.7,102.2,416,101.8,416.1,101.2z"/>
<rect x="420.4" y="97.1" fill="#1A171B" width="0.8" height="6.5"/>
<path fill="#1A171B" d="M422.1,101.2c0-0.7,0.2-1.4,0.6-1.8c0.4-0.5,0.9-0.7,1.6-0.7c0.6,0,1.2,0.2,1.6,0.7c0.4,0.5,0.6,1.1,0.6,1.8
	c0,0.7-0.2,1.3-0.6,1.8c-0.4,0.5-0.9,0.7-1.6,0.7c-0.6,0-1.2-0.2-1.6-0.7C422.3,102.6,422.1,102,422.1,101.2z M422.9,101.2
	c0,0.5,0.1,0.9,0.4,1.3c0.2,0.3,0.6,0.5,1,0.5c0.4,0,0.7-0.2,1-0.5c0.3-0.3,0.4-0.8,0.4-1.4c0-0.5-0.1-0.9-0.4-1.3
	c-0.2-0.3-0.6-0.5-1-0.5c-0.4,0-0.7,0.2-1,0.5C423.1,100.2,422.9,100.6,422.9,101.2z"/>
<path fill="#1A171B" d="M427.4,103.6v-4.7h0.7v0.7c0.4-0.6,0.9-0.8,1.5-0.8c0.5,0,0.9,0.1,1.2,0.4c0.3,0.3,0.4,0.7,0.4,1.2v3.2h-0.8
	v-2.9c0-0.5-0.1-0.8-0.3-1c-0.2-0.2-0.4-0.3-0.7-0.3c-0.4,0-0.7,0.1-0.9,0.4c-0.2,0.3-0.3,0.7-0.3,1.2v2.6H427.4z"/>
<path fill="#1A171B" d="M432.3,104.1h0.8c0.1,0.5,0.5,0.7,1.1,0.7c0.4,0,0.8-0.1,1-0.3c0.2-0.2,0.3-0.6,0.3-1.1V103
	c-0.3,0.5-0.7,0.7-1.3,0.7c-0.6,0-1.1-0.2-1.5-0.7c-0.4-0.5-0.6-1.1-0.6-1.9c0-0.7,0.2-1.3,0.5-1.7c0.3-0.5,0.8-0.7,1.4-0.7
	c0.3,0,0.6,0.1,0.8,0.2c0.2,0.1,0.4,0.3,0.6,0.6v-0.7h0.7v4.3c0,0.9-0.2,1.5-0.6,1.8c-0.4,0.3-0.9,0.5-1.6,0.5
	c-0.5,0-0.9-0.1-1.2-0.3C432.6,105,432.4,104.6,432.3,104.1z M433,101.1c0,0.6,0.1,1.1,0.3,1.4c0.2,0.3,0.5,0.5,0.9,0.5
	c0.4,0,0.7-0.2,0.9-0.5c0.2-0.3,0.3-0.7,0.3-1.3c0-1.3-0.4-1.9-1.3-1.9C433.4,99.4,433,100,433,101.1z"/>
<polygon fill="#1A171B" points="437,98.8 437.8,98.8 438.7,102.6 439.7,98.8 440.5,98.8 441.5,102.6 442.4,98.8 443.2,98.8 
	441.9,103.6 441.1,103.6 440.1,99.9 439.1,103.6 438.3,103.6 "/>
<path fill="#1A171B" d="M444,97.1h0.8V98H444V97.1z M444,98.8h0.8v4.7H444V98.8z"/>
<path fill="#1A171B" d="M446.4,102.1c0,0.6,0.4,0.9,1.2,0.9c0.3,0,0.6-0.1,0.8-0.2c0.2-0.1,0.3-0.3,0.3-0.6c0-0.2-0.1-0.3-0.2-0.4
	c-0.1-0.1-0.4-0.2-0.7-0.3l-0.9-0.2c-0.7-0.2-1.1-0.6-1.1-1.2c0-0.4,0.2-0.8,0.5-1.1c0.3-0.3,0.8-0.4,1.3-0.4c0.5,0,0.9,0.1,1.2,0.4
	c0.3,0.2,0.5,0.6,0.5,1.1h-0.8c0-0.5-0.4-0.8-1.1-0.8c-0.6,0-1,0.2-1,0.7c0,0.2,0.1,0.3,0.2,0.4c0.1,0.1,0.4,0.1,0.6,0.2l0.8,0.2
	c0.5,0.1,0.8,0.3,1,0.5c0.2,0.2,0.3,0.5,0.3,0.8c0,0.5-0.2,0.8-0.5,1.1c-0.3,0.3-0.8,0.4-1.4,0.4c-0.6,0-1-0.1-1.4-0.4
	c-0.4-0.2-0.5-0.7-0.6-1.3H446.4z"/>
<path fill="#1A171B" d="M451.1,101.4c0,0.5,0.1,0.9,0.3,1.2c0.2,0.3,0.6,0.4,1,0.4c0.3,0,0.6-0.1,0.8-0.3c0.2-0.2,0.4-0.4,0.4-0.6
	h0.8c-0.1,0.5-0.3,0.9-0.7,1.2c-0.3,0.3-0.8,0.4-1.3,0.4c-0.7,0-1.2-0.2-1.6-0.6c-0.4-0.4-0.6-1-0.6-1.8c0-0.8,0.2-1.4,0.6-1.9
	c0.4-0.5,0.9-0.7,1.6-0.7c0.7,0,1.2,0.2,1.5,0.7c0.3,0.5,0.5,1.1,0.5,2.1H451.1z M451.1,100.8h2.6c-0.1-0.5-0.2-0.9-0.4-1.1
	c-0.2-0.2-0.5-0.3-0.9-0.3c-0.4,0-0.7,0.1-1,0.4C451.2,100,451.1,100.4,451.1,100.8z"/>
<path fill="#1A171B" d="M458.4,102.1c0,0.6,0.4,0.9,1.2,0.9c0.3,0,0.6-0.1,0.8-0.2c0.2-0.1,0.3-0.3,0.3-0.6c0-0.2-0.1-0.3-0.2-0.4
	c-0.1-0.1-0.4-0.2-0.7-0.3l-0.9-0.2c-0.7-0.2-1.1-0.6-1.1-1.2c0-0.4,0.2-0.8,0.5-1.1c0.3-0.3,0.8-0.4,1.3-0.4c0.5,0,0.9,0.1,1.2,0.4
	c0.3,0.2,0.5,0.6,0.5,1.1h-0.8c0-0.5-0.4-0.8-1.1-0.8c-0.6,0-1,0.2-1,0.7c0,0.2,0.1,0.3,0.2,0.4c0.1,0.1,0.4,0.1,0.6,0.2l0.8,0.2
	c0.5,0.1,0.8,0.3,1,0.5c0.2,0.2,0.3,0.5,0.3,0.8c0,0.5-0.2,0.8-0.5,1.1c-0.3,0.3-0.8,0.4-1.4,0.4c-0.6,0-1-0.1-1.4-0.4
	c-0.4-0.2-0.5-0.7-0.6-1.3H458.4z"/>
<path fill="#1A171B" d="M463.1,101.4c0,0.5,0.1,0.9,0.3,1.2c0.2,0.3,0.6,0.4,1,0.4c0.3,0,0.6-0.1,0.8-0.3c0.2-0.2,0.4-0.4,0.4-0.6
	h0.8c-0.1,0.5-0.3,0.9-0.7,1.2c-0.3,0.3-0.8,0.4-1.4,0.4c-0.7,0-1.2-0.2-1.6-0.6c-0.4-0.4-0.6-1-0.6-1.8c0-0.8,0.2-1.4,0.6-1.9
	c0.4-0.5,0.9-0.7,1.6-0.7c0.7,0,1.2,0.2,1.5,0.7c0.3,0.5,0.5,1.1,0.5,2.1H463.1z M463.1,100.8h2.6c-0.1-0.5-0.2-0.9-0.4-1.1
	c-0.2-0.2-0.5-0.3-0.9-0.3c-0.4,0-0.7,0.1-1,0.4C463.2,100,463.1,100.4,463.1,100.8z"/>
<path fill="#1A171B" d="M467,99.5v-0.7h0.6v-1.3h0.8v1.3h0.8v0.7h-0.8v3.1c0,0.3,0.2,0.4,0.5,0.4h0.3v0.6c-0.3,0-0.5,0.1-0.7,0.1
	c-0.6,0-0.9-0.3-0.9-1v-3.1H467z"/>
<path fill="#1A171B" d="M1.6,103.6l2.5-6.5h1l2.3,6.5h-1l-0.6-1.9H3.2l-0.7,1.9H1.6z M3.5,100.9h2l-1-2.9L3.5,100.9z"/>
<path fill="#1A171B" d="M8.1,103.6v-4.7h0.7v0.7c0.4-0.6,0.9-0.8,1.5-0.8c0.5,0,0.9,0.1,1.2,0.4c0.3,0.3,0.4,0.7,0.4,1.2v3.2h-0.8
	v-2.9c0-0.5-0.1-0.8-0.3-1c-0.2-0.2-0.4-0.3-0.7-0.3c-0.4,0-0.7,0.1-0.9,0.4c-0.2,0.3-0.3,0.7-0.3,1.2v2.6H8.1z"/>
<path fill="#1A171B" d="M13.1,97.1h0.8V98h-0.8V97.1z M13.1,98.8h0.8v4.7h-0.8V98.8z"/>
<polygon fill="#1A171B" points="15.1,103.6 15.1,97.1 15.9,97.1 15.9,100.8 17.9,98.8 19,98.8 17.2,100.6 19.1,103.6 18,103.6 
	16.6,101.2 15.9,101.8 15.9,103.6 "/>
<path fill="#1A171B" d="M19.6,100.2c0-1,0.7-1.5,1.9-1.5c0.5,0,0.9,0.1,1.3,0.3c0.3,0.2,0.5,0.6,0.5,1v2.7c0,0.1,0,0.2,0.1,0.2
	l0.2,0.1c0.1,0,0.1,0,0.3,0v0.6c-0.2,0.1-0.3,0.1-0.5,0.1c-0.3,0-0.5-0.1-0.6-0.2c-0.1-0.1-0.2-0.3-0.2-0.5c-0.4,0.5-1,0.8-1.7,0.8
	c-0.4,0-0.7-0.1-1-0.3c-0.3-0.2-0.5-0.6-0.5-1c0-0.8,0.5-1.3,1.4-1.5l1.2-0.2c0.2,0,0.3-0.1,0.4-0.2c0.1-0.1,0.1-0.2,0.1-0.4
	c0-0.5-0.4-0.8-1.1-0.8c-0.4,0-0.6,0.1-0.8,0.2c-0.2,0.1-0.3,0.4-0.3,0.7H19.6z M22.5,101.1c-0.1,0.1-0.4,0.2-0.7,0.2
	c-0.4,0.1-0.6,0.1-0.6,0.1c-0.7,0.1-1,0.4-1,0.8c0,0.5,0.3,0.8,0.9,0.8c0.4,0,0.7-0.1,1-0.3c0.3-0.2,0.4-0.5,0.4-0.8V101.1z"/>
<polygon fill="#1A171B" points="27.2,97.1 28.1,97.1 28.1,102.8 31.4,102.8 31.4,103.6 27.2,103.6 "/>
<path fill="#1A171B" d="M32.1,100.2c0-1,0.7-1.5,1.9-1.5c0.5,0,0.9,0.1,1.3,0.3c0.3,0.2,0.5,0.6,0.5,1v2.7c0,0.1,0,0.2,0.1,0.2
	l0.2,0.1c0.1,0,0.1,0,0.3,0v0.6c-0.2,0.1-0.3,0.1-0.5,0.1c-0.3,0-0.5-0.1-0.6-0.2c-0.1-0.1-0.2-0.3-0.2-0.5c-0.4,0.5-1,0.8-1.7,0.8
	c-0.4,0-0.7-0.1-1-0.3c-0.3-0.2-0.5-0.6-0.5-1c0-0.8,0.5-1.3,1.4-1.5l1.2-0.2c0.2,0,0.3-0.1,0.4-0.2c0.1-0.1,0.1-0.2,0.1-0.4
	c0-0.5-0.4-0.8-1.1-0.8c-0.4,0-0.6,0.1-0.8,0.2c-0.2,0.1-0.3,0.4-0.3,0.7H32.1z M35,101.1c-0.1,0.1-0.4,0.2-0.7,0.2
	c-0.4,0.1-0.6,0.1-0.6,0.1c-0.7,0.1-1,0.4-1,0.8c0,0.5,0.3,0.8,0.9,0.8c0.4,0,0.7-0.1,1-0.3c0.3-0.2,0.4-0.5,0.4-0.8V101.1z"/>
<path fill="#1A171B" d="M37.2,103.6v-4.7h0.7v0.7c0.4-0.6,0.9-0.8,1.5-0.8c0.5,0,0.9,0.1,1.2,0.4c0.3,0.3,0.4,0.7,0.4,1.2v3.2h-0.8
	v-2.9c0-0.5-0.1-0.8-0.3-1c-0.2-0.2-0.4-0.3-0.7-0.3c-0.4,0-0.7,0.1-0.9,0.4c-0.2,0.3-0.3,0.7-0.3,1.2v2.6H37.2z"/>
<path fill="#1A171B" d="M42.1,104.1h0.8c0.1,0.5,0.5,0.7,1.1,0.7c0.4,0,0.8-0.1,1-0.3c0.2-0.2,0.3-0.6,0.3-1.1V103
	c-0.3,0.5-0.7,0.7-1.3,0.7c-0.6,0-1.1-0.2-1.5-0.7c-0.4-0.5-0.6-1.1-0.6-1.9c0-0.7,0.2-1.3,0.5-1.7c0.3-0.5,0.8-0.7,1.4-0.7
	c0.3,0,0.6,0.1,0.8,0.2c0.2,0.1,0.4,0.3,0.6,0.6v-0.7h0.7v4.3c0,0.9-0.2,1.5-0.6,1.8c-0.4,0.3-0.9,0.5-1.6,0.5
	c-0.5,0-0.9-0.1-1.2-0.3C42.4,105,42.2,104.6,42.1,104.1z M42.8,101.1c0,0.6,0.1,1.1,0.3,1.4c0.2,0.3,0.5,0.5,0.9,0.5
	c0.4,0,0.7-0.2,0.9-0.5c0.2-0.3,0.3-0.7,0.3-1.3c0-1.3-0.4-1.9-1.3-1.9C43.2,99.4,42.8,100,42.8,101.1z"/>
<path fill="#1A171B" d="M47.8,101.4c0,0.5,0.1,0.9,0.3,1.2c0.2,0.3,0.6,0.4,1,0.4c0.3,0,0.6-0.1,0.8-0.3c0.2-0.2,0.4-0.4,0.4-0.6
	h0.8c-0.1,0.5-0.3,0.9-0.7,1.2c-0.3,0.3-0.8,0.4-1.4,0.4c-0.7,0-1.2-0.2-1.6-0.6c-0.4-0.4-0.6-1-0.6-1.8c0-0.8,0.2-1.4,0.6-1.9
	c0.4-0.5,0.9-0.7,1.6-0.7c0.7,0,1.2,0.2,1.5,0.7c0.3,0.5,0.5,1.1,0.5,2.1H47.8z M47.8,100.8h2.6c-0.1-0.5-0.2-0.9-0.4-1.1
	c-0.2-0.2-0.5-0.3-0.9-0.3c-0.4,0-0.7,0.1-1,0.4C47.9,100,47.8,100.4,47.8,100.8z"/>
<path fill="#1A171B" d="M52.4,104.5c0.3,0,0.5-0.4,0.5-0.9h-0.5v-1h0.9v0.9c0,0.8-0.3,1.3-0.9,1.4V104.5z"/>
<path fill="#1A171B" d="M57.3,102c0.2-0.4,0.6-0.7,1-0.9l1.3-0.8c0.3-0.2,0.5-0.4,0.6-0.5c0.1-0.2,0.2-0.4,0.2-0.7
	c0-0.4-0.1-0.7-0.3-0.9c-0.2-0.2-0.5-0.3-0.9-0.3c-0.4,0-0.8,0.1-1,0.4c-0.2,0.3-0.3,0.6-0.3,1.1H57c0-0.7,0.2-1.2,0.5-1.6
	c0.4-0.4,0.9-0.6,1.6-0.6c0.6,0,1.1,0.2,1.5,0.5c0.4,0.3,0.6,0.8,0.6,1.4c0,0.4-0.1,0.7-0.3,1c-0.2,0.3-0.5,0.5-0.8,0.7l-1.1,0.6
	c-0.4,0.2-0.7,0.4-0.9,0.6c-0.2,0.2-0.3,0.4-0.4,0.7h3.5v0.7h-4.4C56.9,102.9,57.1,102.4,57.3,102z"/>
<path fill="#1A171B" d="M62,100.5c0-1,0.2-1.8,0.6-2.4c0.4-0.6,0.9-0.9,1.6-0.9c0.7,0,1.2,0.3,1.6,0.8c0.4,0.5,0.6,1.3,0.6,2.4
	c0,1-0.2,1.8-0.5,2.4c-0.4,0.6-0.9,0.9-1.6,0.9c-0.7,0-1.2-0.3-1.6-0.8C62.2,102.4,62,101.6,62,100.5z M62.8,100.5
	c0,1.7,0.4,2.5,1.3,2.5c0.9,0,1.3-0.9,1.3-2.5s-0.4-2.5-1.3-2.5S62.8,98.8,62.8,100.5z"/>
<path fill="#1A171B" d="M67.6,98.5c0.6,0,1-0.1,1.2-0.3c0.2-0.2,0.4-0.5,0.5-0.9h0.6v6.3h-0.8v-4.5h-1.5V98.5z"/>
<path fill="#1A171B" d="M72.6,98.5c0.6,0,1-0.1,1.2-0.3c0.2-0.2,0.4-0.5,0.5-0.9h0.6v6.3h-0.8v-4.5h-1.5V98.5z"/>
<polyline points="426.3,26.5 426.3,92 427.4,92 427.4,26.5 "/>
<path d="M314.7,86.1v3.3h0.6v-3.3H314.7z M314.7,79.4v3.3h0.6v-3.3H314.7z M314.7,72.8v3.3h0.6v-3.3H314.7z M314.7,66.1v3.3h0.6
	v-3.3H314.7z M314.7,59.5v3.3h0.6v-3.3H314.7z M314.7,52.8v3.3h0.6v-3.3H314.7z M314.7,46.2v3.3h0.6v-3.3H314.7z M314.7,39.6v3.3
	h0.6v-3.3H314.7z M314.7,32.9v3.3h0.6v-3.3H314.7z M314.7,26.3v3.3h0.6v-3.3H314.7z"/>
<path d="M247.1,77.6c0,0.7,0.3,1,0.9,1c0.3,0,0.5-0.1,0.6-0.2c0.2-0.2,0.2-0.4,0.2-0.7c0-0.3-0.1-0.5-0.3-0.6
	c-0.2-0.1-0.6-0.2-1-0.2v-0.8h0.2c0.7,0,1-0.3,1-0.8c0-0.2-0.1-0.4-0.2-0.5c-0.1-0.1-0.3-0.2-0.6-0.2c-0.5,0-0.8,0.3-0.8,0.9H246
	c0-0.6,0.2-1,0.5-1.3c0.3-0.3,0.8-0.5,1.4-0.5c0.6,0,1,0.1,1.4,0.4c0.4,0.3,0.5,0.7,0.5,1.2c0,0.5-0.2,0.9-0.7,1.1
	c0.6,0.2,0.9,0.7,0.9,1.3c0,0.5-0.2,1-0.6,1.3c-0.4,0.3-0.9,0.5-1.5,0.5c-0.7,0-1.2-0.2-1.5-0.5c-0.3-0.3-0.5-0.8-0.6-1.4H247.1z"/>
<path d="M219.5,76.6h-0.2c0,1.1-0.4,2-1.1,2.7c-0.7,0.7-1.7,1.1-2.7,1.1c-1.1,0-2-0.4-2.7-1.1c-0.7-0.7-1.1-1.7-1.1-2.7
	s0.4-2,1.1-2.7c0.7-0.7,1.7-1.1,2.7-1.1c1.1,0,2,0.4,2.7,1.1c0.7,0.7,1.1,1.7,1.1,2.7H219.5h0.2c0-2.4-1.9-4.3-4.3-4.3
	c-2.4,0-4.3,1.9-4.3,4.3c0,2.4,1.9,4.3,4.3,4.3c2.4,0,4.3-1.9,4.3-4.3H219.5z"/>
<path d="M213.5,78.1c0.2-0.4,0.7-0.8,1.3-1.2c0.5-0.4,0.9-0.7,1-0.9c0.1-0.2,0.2-0.4,0.2-0.6c0-0.2-0.1-0.4-0.2-0.6
	c-0.1-0.2-0.3-0.3-0.6-0.3c-0.3,0-0.5,0.1-0.6,0.3c-0.1,0.2-0.2,0.5-0.2,0.8h-1.2v-0.2c0-0.5,0.2-0.9,0.5-1.3
	c0.3-0.4,0.8-0.6,1.5-0.6c0.6,0,1.1,0.2,1.5,0.5s0.6,0.8,0.6,1.3c0,0.4-0.1,0.7-0.3,1c-0.2,0.3-0.6,0.6-1.2,1
	c-0.6,0.4-1,0.7-1.1,0.9h2.6v1h-4.1C213.2,78.9,213.3,78.5,213.5,78.1z"/>
<path d="M214.6,45.9c0.2-0.4,0.6-0.8,1.3-1.2c0.5-0.4,0.9-0.7,1-0.9c0.1-0.2,0.2-0.4,0.2-0.6c0-0.2-0.1-0.4-0.2-0.6
	c-0.1-0.2-0.3-0.3-0.6-0.3c-0.3,0-0.5,0.1-0.6,0.3c-0.1,0.2-0.2,0.5-0.2,0.8h-1.1v-0.2c0-0.5,0.2-0.9,0.5-1.3
	c0.3-0.4,0.8-0.6,1.4-0.6c0.6,0,1,0.2,1.4,0.5c0.4,0.3,0.6,0.8,0.6,1.3c0,0.4-0.1,0.7-0.3,1c-0.2,0.3-0.6,0.6-1.1,1
	c-0.6,0.4-1,0.7-1.1,0.9h2.5v1h-3.9C214.3,46.6,214.4,46.2,214.6,45.9z"/>
<polygon points="244.1,40.1 244.1,40.3 252,40.3 252,48 244.3,48 244.3,40.1 244.1,40.1 244.1,40.3 244.1,40.1 243.8,40.1 
	243.8,48.4 252.4,48.4 252.4,39.9 243.8,39.9 243.8,40.1 "/>
<path d="M247.3,45.3c0,0.7,0.3,1,0.8,1c0.3,0,0.5-0.1,0.6-0.2c0.2-0.2,0.2-0.4,0.2-0.7c0-0.3-0.1-0.5-0.3-0.6
	c-0.2-0.1-0.5-0.2-1-0.2v-0.8h0.2c0.6,0,1-0.3,1-0.8c0-0.2-0.1-0.4-0.2-0.5c-0.1-0.1-0.3-0.2-0.6-0.2c-0.5,0-0.8,0.3-0.8,0.9h-1
	c0-0.6,0.2-1,0.5-1.3c0.3-0.3,0.8-0.5,1.4-0.5c0.5,0,1,0.1,1.3,0.4c0.3,0.3,0.5,0.7,0.5,1.2c0,0.5-0.2,0.9-0.7,1.1
	c0.6,0.2,0.9,0.7,0.9,1.3c0,0.5-0.2,1-0.5,1.3c-0.4,0.3-0.9,0.5-1.5,0.5c-0.6,0-1.1-0.2-1.5-0.5c-0.3-0.3-0.5-0.8-0.5-1.4H247.3z"/>
<path fill="#FFFFFF" d="M232.6,68c0,2.2-1.8,4.1-4.1,4.1c-2.2,0-4.1-1.8-4.1-4.1c0-2.2,1.8-4.1,4.1-4.1
	C230.8,64,232.6,65.8,232.6,68z"/>
<path d="M232.6,68h-0.2c0,1.1-0.4,2-1.1,2.7c-0.7,0.7-1.7,1.1-2.7,1.1c-1.1,0-2-0.4-2.7-1.1c-0.7-0.7-1.1-1.7-1.1-2.7s0.4-2,1.1-2.7
	s1.7-1.1,2.7-1.1c1.1,0,2,0.4,2.7,1.1c0.7,0.7,1.1,1.7,1.1,2.7H232.6h0.2c0-2.4-1.9-4.3-4.3-4.3c-2.4,0-4.3,1.9-4.3,4.3
	c0,2.4,1.9,4.3,4.3,4.3c2.4,0,4.3-1.9,4.3-4.3H232.6z"/>
<path d="M226.6,66c0.6,0,1-0.1,1.3-0.3c0.2-0.2,0.4-0.4,0.4-0.7h1v5.8h-1.2v-4h-1.5V66z"/>
<rect x="231.9" y="49.3" fill="#FFFFFF" width="8.1" height="8.1"/>
<polygon points="231.9,49.3 231.9,49.5 239.8,49.5 239.8,57.2 232.1,57.2 232.1,49.3 231.9,49.3 231.9,49.5 231.9,49.3 231.7,49.3 
	231.7,57.6 240.3,57.6 240.3,49 231.7,49 231.7,49.3 "/>
<path d="M234.3,51.5c0.6,0,1-0.1,1.2-0.3c0.2-0.2,0.4-0.4,0.4-0.7h0.9v5.8h-1.1v-4h-1.4V51.5z"/>
<path d="M13.3,62c0.1,1.3,0.9,1.9,2.5,1.9c1.5,0,2.3-0.5,2.3-1.5c0-0.6-0.5-1.1-1.6-1.3l-2.8-0.7c-0.9-0.2-1.5-0.6-1.9-1.1
	c-0.4-0.5-0.6-1.2-0.6-2c0-1.1,0.4-1.9,1.1-2.6c0.8-0.7,1.8-1,3.3-1c1.3,0,2.4,0.3,3.2,1c0.8,0.6,1.2,1.6,1.3,2.8h-2.3
	c-0.2-1.2-0.9-1.8-2.3-1.8c-0.6,0-1.1,0.1-1.5,0.4c-0.4,0.2-0.5,0.6-0.5,1c0,0.3,0.1,0.6,0.3,0.8c0.2,0.2,0.5,0.4,0.9,0.5l2.8,0.7
	c1.2,0.3,1.9,0.7,2.4,1.2c0.4,0.5,0.6,1.2,0.6,2c0,1.1-0.4,2-1.2,2.7c-0.8,0.7-1.9,1-3.4,1c-1.4,0-2.5-0.3-3.4-1
	C11.4,64.3,11,63.3,11,62H13.3z"/>
<path d="M29.8,58.6c-0.1-0.4-0.1-0.8-0.1-1.1c0-1.4,0.6-2.5,1.5-3.2c0.9-0.7,2.2-1.1,3.7-1.1c1.5,0,2.8,0.4,3.7,1.1
	c0.9,0.7,1.5,1.8,1.5,3.2c0,1-0.3,1.9-0.8,2.7l0.5,0.3c0.6-0.9,0.9-2,0.9-3c0-1.6-0.7-2.9-1.7-3.7c-1.1-0.8-2.5-1.2-4.1-1.2
	c-1.6,0-3,0.4-4.1,1.2c-1.1,0.8-1.7,2.1-1.7,3.7c0,0.4,0,0.9,0.1,1.3L29.8,58.6z"/>
<polygon fill-rule="evenodd" clip-rule="evenodd" points="39.1,57 39.9,61.5 41.3,57.1 "/>
<polygon points="39.1,57 39,57 39.9,62.1 41.5,57 38.9,56.8 39,57 39.1,57 39.1,57.1 41.2,57.3 40,61 39.3,57 39.1,57 39.1,57.1 "/>
<path d="M32.7,56.2c0.7,0,1.2-0.1,1.5-0.3c0.3-0.2,0.4-0.5,0.5-0.9h1.2v7.1h-1.4v-4.9h-1.7V56.2z"/>
<path d="M111.3,63.4c0.1,1.3,0.9,1.9,2.5,1.9c1.5,0,2.3-0.5,2.3-1.5c0-0.6-0.5-1.1-1.6-1.3l-2.8-0.7c-0.9-0.2-1.5-0.6-1.9-1.1
	c-0.4-0.5-0.6-1.2-0.6-2c0-1.1,0.4-1.9,1.1-2.6c0.8-0.7,1.9-1,3.3-1c1.3,0,2.4,0.3,3.2,1c0.8,0.6,1.2,1.6,1.3,2.8h-2.3
	c-0.2-1.2-0.9-1.8-2.3-1.8c-0.6,0-1.1,0.1-1.5,0.4c-0.4,0.2-0.5,0.6-0.5,1c0,0.3,0.1,0.6,0.3,0.8c0.2,0.2,0.5,0.4,0.9,0.5l2.8,0.7
	c1.2,0.3,1.9,0.7,2.4,1.2c0.4,0.5,0.6,1.2,0.6,2c0,1.1-0.4,2-1.2,2.7c-0.8,0.7-1.9,1-3.4,1c-1.4,0-2.5-0.3-3.4-1
	c-0.9-0.7-1.3-1.6-1.3-2.9H111.3z"/>
<path fill="#FFFFFF" d="M75.4,66.1c0,2.2-1.8,4.1-4.1,4.1c-2.2,0-4.1-1.8-4.1-4.1c0-2.2,1.8-4.1,4.1-4.1
	C73.5,62,75.4,63.8,75.4,66.1z"/>
<path d="M75.4,66.1h-0.2c0,1.1-0.4,2-1.1,2.7s-1.7,1.1-2.7,1.1s-2-0.4-2.7-1.1s-1.1-1.7-1.1-2.7c0-1.1,0.4-2,1.1-2.7
	c0.7-0.7,1.7-1.1,2.7-1.1s2,0.4,2.7,1.1c0.7,0.7,1.1,1.7,1.1,2.7H75.4h0.2c0-2.4-1.9-4.3-4.3-4.3c-2.4,0-4.3,1.9-4.3,4.3
	c0,2.4,1.9,4.3,4.3,4.3c2.4,0,4.3-1.9,4.3-4.3H75.4z"/>
<path d="M69.4,64c0.6,0,1-0.1,1.3-0.3c0.2-0.2,0.4-0.4,0.4-0.7h1v5.8h-1.2v-4h-1.5V64z"/>
<rect x="67.2" y="52.2" fill="#FFFFFF" width="8.1" height="8.1"/>
<polygon points="67.2,52.2 67.2,52.5 75.1,52.5 75.1,60.1 67.5,60.1 67.5,52.2 67.2,52.2 67.2,52.5 67.2,52.2 67,52.2 67,60.6 
	75.6,60.6 75.6,52 67,52 67,52.2 "/>
<path d="M69.6,54.5c0.6,0,1-0.1,1.2-0.3c0.2-0.2,0.4-0.4,0.4-0.7h0.9v5.8H71v-4h-1.4V54.5z"/>
<path d="M65.3,61.1c0.1-0.4,0.1-0.8,0.2-1.2l-0.6-0.1c-0.1,0.4-0.2,0.8-0.2,1.2L65.3,61.1z M65,63.5c0-0.4,0.1-0.8,0.1-1.2l-0.6-0.1
	c0,0.4-0.1,0.8-0.1,1.2L65,63.5z M65,65.9c0-0.4-0.1-0.8-0.1-1.2l-0.6,0c0,0.4,0,0.9,0.1,1.3L65,65.9z M65.6,68.2
	c-0.1-0.3-0.3-0.7-0.4-1.1l-0.6,0.1c0.1,0.4,0.2,0.8,0.4,1.2L65.6,68.2z M66.9,70.2c-0.3-0.3-0.5-0.6-0.7-0.9l-0.5,0.3
	c0.2,0.4,0.5,0.7,0.8,1L66.9,70.2z M68.8,71.5c-0.4-0.1-0.7-0.3-1-0.5l-0.3,0.5c0.4,0.2,0.8,0.4,1.2,0.6L68.8,71.5z M71.1,71.9
	c-0.4,0-0.8,0-1.2-0.1l-0.1,0.6c0.4,0.1,0.8,0.1,1.3,0.1L71.1,71.9z M73.5,71.6c-0.4,0.1-0.8,0.2-1.2,0.2l0.1,0.6
	c0.4,0,0.8-0.1,1.2-0.2L73.5,71.6z M75.8,70.9c-0.4,0.2-0.8,0.3-1.1,0.4l0.2,0.5c0.4-0.1,0.8-0.3,1.2-0.4L75.8,70.9z M78,69.8
	c-0.3,0.2-0.7,0.4-1.1,0.6l0.3,0.5c0.4-0.2,0.7-0.4,1.1-0.6L78,69.8z M79.9,68.4c-0.3,0.3-0.6,0.5-1,0.7l0.3,0.5
	c0.3-0.2,0.7-0.5,1-0.8L79.9,68.4z M81.6,66.6c-0.3,0.3-0.5,0.6-0.8,0.9l0.4,0.4c0.3-0.3,0.6-0.6,0.9-0.9L81.6,66.6z M83,64.7
	c-0.2,0.3-0.4,0.7-0.6,1l0.5,0.3c0.2-0.4,0.5-0.7,0.6-1.1L83,64.7z M83.8,62.4c-0.1,0.4-0.2,0.8-0.3,1.1l0.5,0.2
	c0.1-0.4,0.3-0.8,0.3-1.2L83.8,62.4z M83.9,60c0,0.2,0,0.3,0,0.5c0,0.2,0,0.5,0,0.7l0.6,0c0-0.2,0-0.5,0-0.7c0-0.2,0-0.3,0-0.5
	L83.9,60z M83.6,57.6c0.1,0.4,0.1,0.8,0.2,1.2l0.6-0.1c0-0.4-0.1-0.8-0.2-1.2L83.6,57.6z M83,55.3c0.1,0.4,0.3,0.8,0.4,1.2l0.5-0.1
	c-0.1-0.4-0.2-0.8-0.4-1.2L83,55.3z M82,53.1c0.2,0.3,0.4,0.7,0.6,1.1l0.5-0.2c-0.2-0.4-0.4-0.8-0.6-1.1L82,53.1z M80.6,51.2
	c0.3,0.3,0.5,0.6,0.8,0.9l0.5-0.3c-0.3-0.3-0.5-0.7-0.8-1L80.6,51.2z M78.8,49.6c0.3,0.2,0.6,0.5,0.9,0.8l0.4-0.4
	c-0.3-0.3-0.6-0.5-1-0.8L78.8,49.6z M76.7,48.4c0.4,0.2,0.7,0.4,1.1,0.6l0.3-0.5c-0.4-0.2-0.7-0.4-1.1-0.6L76.7,48.4z M74.4,47.5
	c0.4,0.1,0.8,0.2,1.2,0.4l0.2-0.5c-0.4-0.1-0.8-0.3-1.2-0.4L74.4,47.5z M72.1,47.1c0.4,0,0.8,0.1,1.2,0.2l0.1-0.6
	c-0.4-0.1-0.8-0.1-1.2-0.2L72.1,47.1z M69.6,47.1c0.3,0,0.6,0,0.9,0c0.1,0,0.2,0,0.3,0l0-0.6c-0.1,0-0.2,0-0.3,0c-0.3,0-0.6,0-0.9,0
	L69.6,47.1z M67.2,47.4c0.4-0.1,0.8-0.2,1.2-0.2l-0.1-0.6c-0.4,0.1-0.8,0.1-1.2,0.2L67.2,47.4L67.2,47.4z M64.9,48.1
	c0.4-0.1,0.8-0.3,1.1-0.4l-0.2-0.5c-0.4,0.1-0.8,0.2-1.2,0.4L64.9,48.1z M62.7,49.1c0.4-0.2,0.7-0.4,1.1-0.5L63.6,48
	c-0.4,0.2-0.8,0.4-1.1,0.6L62.7,49.1z M60.7,50.4c0.3-0.2,0.7-0.5,1-0.7l-0.3-0.5c-0.3,0.2-0.7,0.5-1,0.7L60.7,50.4z M58.9,52
	c0.3-0.3,0.6-0.6,0.9-0.8l-0.4-0.4c-0.3,0.3-0.6,0.6-0.9,0.9L58.9,52z M57.3,53.9c0.2-0.3,0.5-0.6,0.7-1l-0.4-0.4
	c-0.3,0.3-0.5,0.6-0.8,1L57.3,53.9z M56.1,55.9c0.2-0.4,0.4-0.7,0.6-1l-0.5-0.3c-0.2,0.3-0.4,0.7-0.6,1.1L56.1,55.9z M55.1,58.1
	c0.1-0.4,0.3-0.8,0.5-1.1L55,56.8c-0.2,0.4-0.3,0.8-0.5,1.2L55.1,58.1z M54.3,60.4c0.1-0.4,0.2-0.8,0.3-1.2l-0.5-0.2
	c-0.1,0.4-0.2,0.8-0.3,1.2L54.3,60.4z"/>
<polyline points="54.9,61 56,60.5 53.2,63.2 52.1,59.5 53.7,61.5 54.9,61 "/>
<polygon points="54.9,61 56,60.5 53.2,63.2 52.1,59.5 53.7,61.5 53.7,61.5 54.9,61 54.9,61 53.7,61.5 52.1,59.5 52.1,59.5 
	53.2,63.2 53.2,63.2 56,60.5 56,60.5 54.9,61 "/>
<polyline points="88.6,62.3 87.4,62.8 90.2,60 91.4,63.8 89.8,61.8 88.6,62.3 "/>
<polygon points="88.6,62.3 87.4,62.8 90.2,60 91.4,63.8 89.8,61.8 89.8,61.8 88.6,62.3 88.6,62.3 89.8,61.8 91.4,63.8 91.4,63.8 
	90.2,60 90.2,60 87.4,62.8 87.4,62.8 88.6,62.3 "/>
<path d="M459.7,59.2h-0.5c0,2.8-1.2,5.4-3,7.3c-1.9,1.9-4.4,3-7.3,3c-2.8,0-5.4-1.2-7.3-3c-1.9-1.9-3-4.4-3-7.3c0-2.8,1.2-5.4,3-7.3
	c1.9-1.9,4.4-3,7.3-3c2.8,0,5.4,1.2,7.3,3c1.9,1.9,3,4.4,3,7.3H459.7h0.5c0-6.2-5.1-11.3-11.3-11.3c-6.2,0-11.3,5.1-11.3,11.3
	c0,6.2,5.1,11.3,11.3,11.3c6.2,0,11.3-5.1,11.3-11.3H459.7z"/>
<path d="M447.8,58.5c0.3-0.4,0.8-0.6,1.4-0.6c0.6,0,1.2,0.2,1.6,0.6c0.4,0.4,0.6,1,0.6,1.6c0,0.7-0.2,1.3-0.6,1.8
	c-0.4,0.5-1,0.7-1.8,0.7c-1.7,0-2.5-1.2-2.5-3.6c0-1.3,0.2-2.3,0.7-2.9c0.5-0.6,1.1-0.8,1.9-0.8c0.6,0,1.1,0.1,1.5,0.4
	c0.4,0.3,0.6,0.7,0.7,1.4h-1.4c-0.1-0.5-0.3-0.7-0.8-0.7c-0.4,0-0.6,0.1-0.8,0.4C448,57.2,447.8,57.7,447.8,58.5z M447.8,60.2
	c0,0.4,0.1,0.7,0.3,1c0.2,0.2,0.5,0.4,0.8,0.4c0.3,0,0.5-0.1,0.7-0.3c0.2-0.2,0.3-0.6,0.3-1c0-0.4-0.1-0.7-0.3-0.9
	c-0.2-0.2-0.4-0.3-0.8-0.3c-0.3,0-0.6,0.1-0.8,0.3C447.9,59.5,447.8,59.8,447.8,60.2z"/>
<path d="M245.5,60.6c-0.4,0.1-0.8,0.3-1.2,0.4l0.2,0.5c0.4-0.1,0.8-0.3,1.2-0.4L245.5,60.6z M247.8,59.8c-0.4,0.2-0.7,0.3-1.1,0.5
	l0.2,0.5c0.4-0.2,0.8-0.3,1.1-0.5L247.8,59.8z M250,58.7c-0.4,0.2-0.7,0.3-1.1,0.5l0.2,0.5c0.4-0.2,0.8-0.4,1.1-0.5L250,58.7z
	 M252.1,57.6c-0.3,0.2-0.7,0.4-1.1,0.6l0.3,0.5c0.4-0.2,0.7-0.4,1.1-0.6L252.1,57.6z M254.1,56.3c-0.3,0.2-0.7,0.5-1,0.7l0.3,0.5
	c0.4-0.2,0.7-0.5,1-0.7L254.1,56.3z M256,54.7c-0.3,0.3-0.6,0.5-0.9,0.8l0.4,0.4c0.3-0.3,0.6-0.5,0.9-0.8L256,54.7z M257.7,53
	c-0.2,0.3-0.5,0.6-0.8,0.9l0.4,0.4c0.3-0.3,0.6-0.6,0.8-0.9L257.7,53z M259,51c-0.2,0.3-0.4,0.7-0.6,1l0.5,0.3
	c0.2-0.4,0.4-0.7,0.6-1.1L259,51z M259.8,48.7c-0.1,0.4-0.2,0.8-0.4,1.1l0.5,0.2c0.2-0.4,0.3-0.8,0.4-1.2L259.8,48.7z M260.1,46.4
	l0,0.1c0,0.4,0,0.7-0.1,1.1l0.6,0.1c0-0.4,0.1-0.8,0.1-1.1l0-0.1L260.1,46.4z M259.8,44c0.1,0.4,0.2,0.8,0.2,1.2l0.6-0.1
	c-0.1-0.4-0.1-0.8-0.3-1.2L259.8,44z M258.9,41.8c0.2,0.4,0.4,0.7,0.5,1.1l0.5-0.2c-0.2-0.4-0.3-0.8-0.5-1.1L258.9,41.8z
	 M257.5,39.8c0.3,0.3,0.5,0.6,0.7,1l0.5-0.3c-0.2-0.3-0.5-0.7-0.8-1L257.5,39.8z M255.8,38.1c0.3,0.3,0.6,0.5,0.9,0.8l0.4-0.4
	c-0.3-0.3-0.6-0.6-0.9-0.8L255.8,38.1L255.8,38.1z M253.8,36.8c0.4,0.2,0.7,0.4,1,0.6l0.3-0.5c-0.3-0.2-0.7-0.5-1.1-0.6L253.8,36.8z
	 M251.6,35.9c0.4,0.1,0.8,0.3,1.1,0.4l0.2-0.5c-0.4-0.2-0.8-0.3-1.2-0.4L251.6,35.9z M249.3,35.4c0.4,0,0.8,0.1,1.2,0.2l0.1-0.6
	c-0.4-0.1-0.8-0.1-1.2-0.2L249.3,35.4z M246.9,35.4c0.4-0.1,0.8-0.1,1.2-0.1l0-0.6c-0.4,0-0.8,0-1.3,0.1L246.9,35.4z M244.6,36.1
	c0.4-0.2,0.7-0.3,1.1-0.4l-0.2-0.5c-0.4,0.1-0.8,0.3-1.2,0.4L244.6,36.1z M242.5,37.3c0.3-0.3,0.6-0.5,1-0.7l-0.3-0.5
	c-0.4,0.2-0.7,0.5-1,0.7L242.5,37.3z M240.9,39c0.3-0.3,0.5-0.6,0.8-0.9l-0.4-0.4c-0.3,0.3-0.6,0.6-0.8,0.9L240.9,39z M239.5,41
	c0.2-0.4,0.4-0.7,0.6-1l-0.5-0.3c-0.2,0.3-0.4,0.7-0.6,1.1L239.5,41z M238.5,43.2c0.1-0.4,0.3-0.8,0.5-1.1l-0.5-0.2
	c-0.2,0.4-0.3,0.8-0.5,1.2L238.5,43.2z M237.8,45.5c0.1-0.4,0.2-0.8,0.3-1.2l-0.5-0.2c-0.1,0.4-0.2,0.8-0.3,1.2L237.8,45.5z"/>
<path d="M89.8,61.4c-2.3,9.1-9.5,13.3-16.3,13.3c-3.5,0-6.8-1.1-9.3-3.3c-2.5-2.2-4.1-5.4-4.1-9.6c0-0.5,0-0.9,0.1-1.4l0,0l0,0
	c0.1-2.8,1.8-5.4,4.1-7.3c2.3-1.9,5.2-3.1,7.8-3.1c1.7,0,3.2,0.5,4.3,1.7c1.1,1.2,1.8,3,1.8,5.7c0,1.7-0.3,3.7-0.9,6.1l0.5,0.1
	c0.7-2.4,1-4.5,1-6.3c0-2.8-0.7-4.8-2-6.1c-1.2-1.3-2.9-1.9-4.7-1.8c-2.7,0-5.7,1.2-8.1,3.2c-2.4,2-4.2,4.7-4.3,7.7l0.3,0l-0.3,0
	c0,0.5-0.1,1-0.1,1.5c0,4.4,1.7,7.7,4.3,10c2.6,2.3,6.1,3.4,9.7,3.4c7,0,14.5-4.4,16.8-13.7L89.8,61.4z"/>
<polygon points="162.6,52 150.6,52 150.6,64 151.2,64 151.2,52.6 162.6,52.6 "/>
<polygon points="121.8,64 121.8,52 109.8,52 109.8,52.6 121.2,52.6 121.2,64 "/>
<path d="M133.8,63.4c0.1,1.3,0.9,1.9,2.5,1.9c1.5,0,2.3-0.5,2.3-1.5c0-0.6-0.5-1.1-1.6-1.3l-2.8-0.7c-0.9-0.2-1.5-0.6-1.9-1.1
	c-0.4-0.5-0.6-1.2-0.6-2c0-1.1,0.4-1.9,1.1-2.6c0.8-0.7,1.8-1,3.3-1c1.3,0,2.4,0.3,3.2,1s1.2,1.6,1.3,2.8h-2.3
	c-0.2-1.2-0.9-1.8-2.3-1.8c-0.6,0-1.1,0.1-1.5,0.4c-0.4,0.2-0.5,0.6-0.5,1c0,0.3,0.1,0.6,0.3,0.8c0.2,0.2,0.5,0.4,0.9,0.5l2.8,0.7
	c1.2,0.3,1.9,0.7,2.4,1.2c0.4,0.5,0.7,1.2,0.7,2c0,1.1-0.4,2-1.2,2.7c-0.8,0.7-1.9,1-3.4,1c-1.4,0-2.5-0.3-3.4-1
	c-0.9-0.7-1.3-1.6-1.3-2.9H133.8z"/>
<path d="M155.8,63.4c0.1,1.3,0.9,1.9,2.5,1.9c1.5,0,2.3-0.5,2.3-1.5c0-0.6-0.5-1.1-1.6-1.3l-2.8-0.7c-0.9-0.2-1.5-0.6-1.9-1.1
	c-0.4-0.5-0.6-1.2-0.6-2c0-1.1,0.4-1.9,1.1-2.6c0.8-0.7,1.8-1,3.3-1c1.3,0,2.4,0.3,3.2,1s1.2,1.6,1.3,2.8h-2.3
	c-0.2-1.2-0.9-1.8-2.3-1.8c-0.6,0-1.1,0.1-1.5,0.4c-0.4,0.2-0.5,0.6-0.5,1c0,0.3,0.1,0.6,0.3,0.8c0.2,0.2,0.5,0.4,0.9,0.5l2.8,0.7
	c1.2,0.3,1.9,0.7,2.4,1.2c0.4,0.5,0.6,1.2,0.6,2c0,1.1-0.4,2-1.2,2.7c-0.8,0.7-1.9,1-3.4,1c-1.4,0-2.5-0.3-3.4-1
	c-0.9-0.7-1.3-1.6-1.3-2.9H155.8z"/>
<polygon points="185.2,60.6 185,60.4 179.2,66.2 173.6,60.6 179.2,55 185,60.8 185.2,60.6 185,60.4 185.2,60.6 185.4,60.4 
	179.2,54.1 172.7,60.6 179.2,67 185.6,60.6 185.4,60.4 "/>
<path d="M177.6,58.9c0.4,0,0.7-0.1,0.9-0.2c0.2-0.1,0.3-0.3,0.3-0.5h0.7v4.3h-0.8v-3h-1V58.9z"/>
<path d="M169.7,75.3c-0.2,0.4-0.3,1-0.3,1.8c0,0.6,0.1,1.1,0.2,1.5c0.2,0.4,0.5,0.8,0.9,1.2l-0.1,0.1c-1.1-0.7-1.7-1.6-1.7-2.8
	c0-1.2,0.6-2.1,1.7-2.9l0.1,0.1C170.2,74.6,169.9,74.9,169.7,75.3z"/>
<path d="M171.8,74.8L171.8,74.8l0,0.1v0.8h0.7v0.2h-0.7v1.9c0,0.4,0.1,0.6,0.3,0.6l0.2-0.1l0.2-0.2l0.1,0.1
	c-0.1,0.1-0.2,0.2-0.3,0.3c-0.1,0.1-0.3,0.2-0.5,0.2c-0.4,0-0.6-0.3-0.6-0.9v-2H171l-0.1,0l0.1-0.1c0.2-0.1,0.3-0.3,0.5-0.4
	C171.5,75.1,171.7,75,171.8,74.8z"/>
<path d="M172.8,77.2c0-0.4,0.1-0.8,0.4-1.1c0.3-0.3,0.6-0.5,1-0.5c0.5,0,0.8,0.1,1.1,0.4c0.3,0.3,0.4,0.7,0.4,1.1
	c0,0.5-0.1,0.8-0.4,1.1c-0.3,0.3-0.6,0.5-1.1,0.5c-0.4,0-0.8-0.2-1.1-0.5C173,78,172.8,77.6,172.8,77.2z M173.4,76.8
	c0,0.5,0.1,0.9,0.3,1.2c0.2,0.3,0.4,0.5,0.7,0.5c0.3,0,0.4-0.1,0.6-0.3c0.1-0.2,0.2-0.5,0.2-0.9c0-0.4-0.1-0.8-0.3-1.1
	c-0.2-0.3-0.4-0.4-0.7-0.4c-0.3,0-0.5,0.1-0.6,0.3C173.5,76.3,173.4,76.5,173.4,76.8z"/>
<path d="M187.9,74.3l0.1-0.1c1.1,0.7,1.7,1.7,1.7,2.9c0,1.2-0.6,2.2-1.7,2.8l-0.1-0.1c0.5-0.4,0.8-0.8,0.9-1.2
	c0.2-0.4,0.2-0.9,0.2-1.5c0-0.8-0.1-1.3-0.3-1.8C188.6,74.9,188.3,74.6,187.9,74.3z"/>
<polygon points="179.4,74.9 179.4,79.6 184,79.6 184,79 179.9,79 179.9,74.9 "/>
<path d="M280.2,77.1H280c0,1.1-0.4,2-1.1,2.7c-0.7,0.7-1.7,1.1-2.7,1.1c-1.1,0-2-0.4-2.7-1.1c-0.7-0.7-1.1-1.7-1.1-2.7
	c0-1.1,0.4-2,1.1-2.7c0.7-0.7,1.7-1.1,2.7-1.1c1.1,0,2,0.4,2.7,1.1c0.7,0.7,1.1,1.7,1.1,2.7H280.2h0.2c0-2.4-1.9-4.3-4.3-4.3
	c-2.4,0-4.3,1.9-4.3,4.3c0,2.4,1.9,4.3,4.3,4.3c2.4,0,4.3-1.9,4.3-4.3H280.2z"/>
<path d="M274.2,78.6c0.2-0.4,0.7-0.8,1.3-1.2c0.5-0.4,0.9-0.7,1-0.9c0.1-0.2,0.2-0.4,0.2-0.6c0-0.2-0.1-0.4-0.2-0.6
	c-0.1-0.2-0.3-0.3-0.6-0.3c-0.3,0-0.5,0.1-0.6,0.3c-0.1,0.2-0.2,0.5-0.2,0.8H274V76c0-0.5,0.2-0.9,0.5-1.3c0.3-0.4,0.8-0.6,1.5-0.6
	c0.6,0,1.1,0.2,1.5,0.5c0.4,0.3,0.6,0.8,0.6,1.3c0,0.4-0.1,0.7-0.3,1c-0.2,0.3-0.6,0.6-1.2,1c-0.6,0.4-1,0.7-1.1,0.9h2.6v1h-4.1
	C273.9,79.4,274,79,274.2,78.6z"/>
<polygon points="297.4,40.5 297.4,40.8 305.3,40.8 305.3,48.5 297.6,48.5 297.6,40.5 297.4,40.5 297.4,40.8 297.4,40.5 297.2,40.5 
	297.2,48.9 305.7,48.9 305.7,40.3 297.2,40.3 297.2,40.5 "/>
<path d="M300.6,45.8c0,0.7,0.3,1,0.8,1c0.3,0,0.5-0.1,0.6-0.2c0.2-0.2,0.2-0.4,0.2-0.7c0-0.3-0.1-0.5-0.3-0.6
	c-0.2-0.1-0.5-0.2-1-0.2v-0.8h0.2c0.6,0,1-0.3,1-0.8c0-0.2-0.1-0.4-0.2-0.5s-0.3-0.2-0.6-0.2c-0.5,0-0.8,0.3-0.8,0.9h-1
	c0-0.6,0.2-1,0.5-1.3c0.3-0.3,0.8-0.5,1.4-0.5c0.5,0,1,0.1,1.3,0.4c0.3,0.3,0.5,0.7,0.5,1.2c0,0.5-0.2,0.9-0.7,1.1
	c0.6,0.2,0.9,0.7,0.9,1.3c0,0.5-0.2,1-0.5,1.3c-0.4,0.3-0.9,0.5-1.5,0.5c-0.6,0-1.1-0.2-1.5-0.5c-0.3-0.3-0.5-0.8-0.5-1.4H300.6z"/>
<polygon points="284.3,55.5 293.7,55.5 293.7,57.5 290.1,57.5 290.1,67 287.8,67 287.8,57.5 284.3,57.5 "/>
<path d="M299.5,70.4h-1.7c-0.1-0.4-0.2-0.8-0.2-1.3l0-0.5c0-0.4-0.1-0.6-0.2-0.8c-0.2-0.2-0.5-0.2-0.9-0.2h-1.6v2.8h-1.5v-7.2h3.7
	c0.7,0,1.2,0.2,1.7,0.6c0.4,0.4,0.6,0.9,0.6,1.5c0,0.8-0.4,1.4-1.1,1.7c0.4,0.2,0.7,0.4,0.8,0.7c0.1,0.3,0.2,0.7,0.2,1.3v0.3
	c0,0.3,0,0.5,0.1,0.7c0,0.2,0.1,0.3,0.3,0.3V70.4z M297.8,65.4c0-0.6-0.4-1-1.1-1h-1.9v1.9h1.8C297.5,66.4,297.8,66.1,297.8,65.4z"
	/>
<path d="M370.3,77.1H370c0,0.5-0.1,1-0.3,1.5c-0.2,0.5-0.5,0.9-0.8,1.2s-0.8,0.6-1.2,0.8l0,0l0,0c-0.5,0.2-1,0.3-1.5,0.3
	c-0.5,0-1-0.1-1.5-0.3l0,0l0,0c-0.5-0.2-0.9-0.5-1.2-0.8s-0.6-0.8-0.8-1.2c-0.2-0.5-0.3-1-0.3-1.5s0.1-1,0.3-1.5
	c0.2-0.5,0.5-0.9,0.8-1.2c0.3-0.3,0.8-0.6,1.2-0.8c0.5-0.2,1-0.3,1.5-0.3c0.5,0,1,0.1,1.5,0.3c0.5,0.2,0.9,0.5,1.2,0.8
	c0.3,0.3,0.6,0.8,0.8,1.2c0.2,0.5,0.3,1,0.3,1.5H370.3h0.2c0-0.6-0.1-1.2-0.3-1.7c-0.2-0.5-0.5-1-0.9-1.4c-0.4-0.4-0.9-0.7-1.4-0.9
	c-0.5-0.2-1.1-0.3-1.7-0.3c-0.6,0-1.2,0.1-1.7,0.3c-0.5,0.2-1,0.5-1.4,0.9c-0.4,0.4-0.7,0.9-0.9,1.4c-0.2,0.5-0.3,1.1-0.3,1.7
	s0.1,1.2,0.3,1.7s0.5,1,0.9,1.4c0.4,0.4,0.9,0.7,1.4,0.9l0,0h0c0.5,0.2,1.1,0.3,1.7,0.3c0.6,0,1.2-0.1,1.7-0.3l0,0
	c0.5-0.2,1-0.5,1.4-0.9c0.4-0.4,0.7-0.9,0.9-1.4c0.2-0.5,0.3-1.1,0.3-1.7H370.3z"/>
<path d="M365.2,78.1c0,0.7,0.3,1,0.9,1c0.3,0,0.5-0.1,0.6-0.2c0.2-0.2,0.2-0.4,0.2-0.7c0-0.3-0.1-0.5-0.3-0.6
	c-0.2-0.1-0.6-0.2-1-0.2v-0.8h0.2c0.7,0,1-0.3,1-0.8c0-0.2-0.1-0.4-0.2-0.5c-0.1-0.1-0.3-0.2-0.6-0.2c-0.5,0-0.8,0.3-0.8,0.9h-1.1
	c0-0.6,0.2-1,0.5-1.3c0.3-0.3,0.8-0.5,1.4-0.5c0.6,0,1,0.1,1.4,0.4c0.4,0.3,0.5,0.7,0.5,1.2c0,0.5-0.2,0.9-0.7,1.1
	c0.6,0.2,0.9,0.7,0.9,1.3c0,0.5-0.2,1-0.6,1.3c-0.4,0.3-0.9,0.5-1.5,0.5c-0.7,0-1.2-0.2-1.5-0.5c-0.3-0.3-0.5-0.8-0.6-1.4H365.2z"/>
<path d="M331.6,78.6c0.2-0.4,0.7-0.8,1.3-1.2c0.5-0.4,0.9-0.7,1-0.9c0.1-0.2,0.2-0.4,0.2-0.6c0-0.2-0.1-0.4-0.2-0.6
	c-0.1-0.2-0.3-0.3-0.6-0.3c-0.3,0-0.5,0.1-0.6,0.3c-0.1,0.2-0.2,0.5-0.2,0.8h-1.2V76c0-0.5,0.2-0.9,0.5-1.3c0.3-0.4,0.8-0.6,1.5-0.6
	c0.6,0,1.1,0.2,1.5,0.5c0.4,0.3,0.6,0.8,0.6,1.3c0,0.4-0.1,0.7-0.3,1c-0.2,0.3-0.6,0.6-1.2,1c-0.6,0.4-1,0.7-1.1,0.9h2.6v1h-4.1
	C331.3,79.4,331.4,79,331.6,78.6z"/>
<polygon points="330.3,40.6 330.3,40.8 338.2,40.8 338.2,48.5 330.5,48.5 330.5,40.6 330.3,40.6 330.3,40.8 330.3,40.6 330,40.6 
	330,48.9 338.6,48.9 338.6,40.3 330,40.3 330,40.6 "/>
<path d="M332.7,46.3c0.2-0.4,0.6-0.8,1.3-1.2c0.5-0.4,0.9-0.7,1-0.9c0.1-0.2,0.2-0.4,0.2-0.6c0-0.2-0.1-0.4-0.2-0.6
	c-0.1-0.2-0.3-0.3-0.6-0.3c-0.3,0-0.5,0.1-0.6,0.3s-0.2,0.5-0.2,0.8h-1.1v-0.2c0-0.5,0.2-0.9,0.5-1.3c0.3-0.4,0.8-0.6,1.4-0.6
	c0.6,0,1,0.2,1.4,0.5c0.4,0.3,0.6,0.8,0.6,1.3c0,0.4-0.1,0.7-0.3,1c-0.2,0.3-0.6,0.6-1.1,1c-0.6,0.4-1,0.7-1.1,0.9h2.5v1h-3.9
	C332.3,47.1,332.5,46.7,332.7,46.3z"/>
<path d="M365.3,45.8c0,0.7,0.3,1,0.8,1c0.3,0,0.5-0.1,0.6-0.2c0.2-0.2,0.2-0.4,0.2-0.7c0-0.3-0.1-0.5-0.3-0.6
	c-0.2-0.1-0.5-0.2-1-0.2v-0.8h0.2c0.6,0,1-0.3,1-0.8c0-0.2-0.1-0.4-0.2-0.5c-0.1-0.1-0.3-0.2-0.6-0.2c-0.5,0-0.8,0.3-0.8,0.9h-1
	c0-0.6,0.2-1,0.5-1.3c0.3-0.3,0.8-0.5,1.4-0.5c0.6,0,1,0.1,1.3,0.4c0.3,0.3,0.5,0.7,0.5,1.2c0,0.5-0.2,0.9-0.7,1.1
	c0.6,0.2,0.9,0.7,0.9,1.3c0,0.5-0.2,1-0.5,1.3c-0.4,0.3-0.9,0.5-1.5,0.5c-0.6,0-1.1-0.2-1.5-0.5c-0.3-0.3-0.5-0.8-0.5-1.4H365.3z"/>
<circle fill="#FFFFFF" cx="359.7" cy="62" r="4.1"/>
<path d="M363.8,62h-0.2c0,1.1-0.4,2-1.1,2.7c-0.7,0.7-1.7,1.1-2.7,1.1c-1.1,0-2-0.4-2.7-1.1c-0.7-0.7-1.1-1.7-1.1-2.7
	c0-1.1,0.4-2,1.1-2.7c0.7-0.7,1.7-1.1,2.7-1.1c1.1,0,2,0.4,2.7,1.1c0.7,0.7,1.1,1.7,1.1,2.7H363.8h0.2c0-2.4-1.9-4.3-4.3-4.3
	s-4.3,1.9-4.3,4.3c0,2.4,1.9,4.3,4.3,4.3s4.3-1.9,4.3-4.3H363.8z"/>
<path d="M357.8,60c0.6,0,1-0.1,1.3-0.3c0.2-0.2,0.4-0.4,0.4-0.7h1v5.8h-1.2v-4h-1.5V60z"/>
<rect x="338.4" y="53.9" fill="#FFFFFF" width="8.1" height="8.1"/>
<polygon points="338.4,53.9 338.4,54.1 346.3,54.1 346.3,61.8 338.6,61.8 338.6,53.9 338.4,53.9 338.4,54.1 338.4,53.9 338.2,53.9 
	338.2,62.3 346.8,62.3 346.8,53.7 338.2,53.7 338.2,53.9 "/>
<path d="M340.8,56.1c0.6,0,1-0.1,1.2-0.3c0.2-0.2,0.4-0.4,0.4-0.7h0.9v5.8h-1.1v-4h-1.4V56.1z"/>
<path d="M369.7,63.5c5.3,3.6,7.4,7.9,7.4,11.9c0,3.2-1.4,6.2-3.7,8.5s-5.5,3.6-9,3.6c-4.6,0-9.7-2.3-14.3-8.4l-0.5,0.3
	c4.7,6.2,10,8.7,14.8,8.7c7.3,0,13.2-5.8,13.2-12.6c0-4.2-2.3-8.7-7.7-12.4L369.7,63.5z"/>
<path d="M227.4,74.7c-0.9,3.7-2.5,6.3-4.3,7.9c-1.8,1.6-4,2.3-6.2,2.3c-2.9,0-5.9-1.3-8.1-3.3c-2.2-2-3.7-4.8-3.7-7.8
	c0-2.5,1-5.2,3.6-7.7c2.5-2.6,6.6-5,12.6-7l-0.2-0.5c-6.1,2-10.2,4.5-12.8,7.1c-2.6,2.6-3.7,5.5-3.7,8.1c0,3.2,1.6,6.1,3.9,8.2
	c2.3,2.1,5.4,3.5,8.5,3.5c2.3,0,4.6-0.7,6.5-2.4c1.9-1.7,3.5-4.4,4.5-8.2L227.4,74.7z"/>
<polyline points="244.3,62.5 245.3,63.3 241.5,62.1 244.3,59.4 243.3,61.7 244.3,62.5 "/>
<polygon points="244.3,62.5 245.3,63.3 241.5,62.1 244.3,59.4 243.3,61.7 243.3,61.7 244.3,62.5 244.3,62.5 243.3,61.7 244.3,59.4 
	244.3,59.4 241.5,62.1 241.5,62.1 245.3,63.3 245.3,63.3 244.3,62.5 "/>
<polyline points="220.4,58.2 219.4,57.4 223.2,58.6 220.4,61.3 221.4,59 220.4,58.2 "/>
<polygon points="220.4,58.2 219.5,57.4 223.2,58.6 220.4,61.3 221.4,59 221.4,59 220.4,58.2 220.4,58.2 221.4,59 220.4,61.3 
	220.4,61.3 223.2,58.6 223.2,58.6 219.4,57.4 219.4,57.4 220.4,58.2 "/>
<polyline points="349.7,80.4 349.5,81.7 348.7,77.9 352.4,78.9 349.9,79.2 349.7,80.4 "/>
<polygon points="349.7,80.4 349.5,81.7 348.7,77.9 352.4,78.9 349.9,79.2 349.9,79.2 349.7,80.4 349.7,80.4 349.9,79.2 352.4,78.9 
	352.4,78.9 348.7,77.9 348.7,77.9 349.5,81.7 349.7,80.4 "/>
<path d="M350.9,43.2c0.1,0.2,0.3,0.3,0.4,0.5l0.5-0.3c-0.1-0.2-0.3-0.3-0.4-0.5L350.9,43.2z M349.3,41.3c0.3,0.3,0.5,0.6,0.8,0.9
	l0.4-0.4c-0.3-0.3-0.6-0.6-0.8-0.9L349.3,41.3z M347.6,39.6c0.3,0.3,0.6,0.5,0.9,0.8l0.4-0.4c-0.3-0.3-0.6-0.6-0.9-0.8L347.6,39.6z
	 M345.7,38.1c0.3,0.2,0.7,0.5,1,0.7l0.4-0.4c-0.3-0.3-0.7-0.5-1-0.7L345.7,38.1z M343.6,36.9c0.4,0.2,0.7,0.4,1.1,0.6L345,37
	c-0.4-0.2-0.7-0.4-1.1-0.6L343.6,36.9z M341.4,36c0.4,0.1,0.8,0.3,1.1,0.4l0.2-0.5c-0.4-0.2-0.8-0.3-1.2-0.4L341.4,36z M339,35.4
	c0.4,0.1,0.8,0.1,1.2,0.2l0.1-0.6c-0.4-0.1-0.8-0.2-1.2-0.2L339,35.4z M336.6,35.2c0.1,0,0.2,0,0.3,0c0.3,0,0.6,0,0.9,0l0-0.6
	c-0.3,0-0.6,0-0.9,0c-0.1,0-0.2,0-0.3,0L336.6,35.2z M334.3,35.5c0.4-0.1,0.8-0.1,1.2-0.2l-0.1-0.6c-0.4,0-0.8,0.1-1.2,0.2
	L334.3,35.5z M332,36.2c0.4-0.2,0.7-0.3,1.1-0.4l-0.2-0.5c-0.4,0.1-0.8,0.3-1.2,0.4L332,36.2z M329.9,37.4c0.3-0.2,0.7-0.4,1-0.6
	l-0.3-0.5c-0.4,0.2-0.7,0.4-1.1,0.6L329.9,37.4z M328,38.9c0.3-0.3,0.6-0.5,0.9-0.8l-0.4-0.4c-0.3,0.3-0.6,0.5-0.9,0.8L328,38.9z
	 M326.4,40.7c0.2-0.3,0.5-0.6,0.7-1l-0.4-0.4c-0.3,0.3-0.5,0.7-0.8,1L326.4,40.7z M325.3,42.8c0.2-0.4,0.3-0.7,0.5-1.1l-0.5-0.3
	c-0.2,0.4-0.4,0.7-0.6,1.1L325.3,42.8z M324.5,45.1c0.1-0.4,0.2-0.8,0.3-1.2l-0.5-0.2c-0.1,0.4-0.2,0.8-0.3,1.2L324.5,45.1z
	 M324.3,47.4l0-0.1c0-0.4,0-0.7,0-1.1l-0.6-0.1c0,0.4-0.1,0.7-0.1,1.1l0,0.2L324.3,47.4z M324.6,49.8c-0.1-0.4-0.2-0.8-0.2-1.2
	l-0.6,0.1c0,0.4,0.1,0.8,0.2,1.2L324.6,49.8z M325.4,52.1c-0.2-0.4-0.3-0.7-0.4-1.1l-0.5,0.2c0.1,0.4,0.3,0.8,0.5,1.2L325.4,52.1
	L325.4,52.1z M326.5,54.2c-0.2-0.3-0.4-0.7-0.6-1l-0.5,0.3c0.2,0.4,0.4,0.7,0.7,1.1L326.5,54.2z M328.1,56.1
	c-0.3-0.3-0.5-0.6-0.8-0.9l-0.4,0.4c0.3,0.3,0.5,0.6,0.8,0.9L328.1,56.1z M329.8,57.7c-0.3-0.3-0.6-0.5-0.9-0.8l-0.4,0.4
	c0.3,0.3,0.6,0.6,0.9,0.8L329.8,57.7z M331.8,59.2c-0.3-0.2-0.7-0.5-1-0.7l-0.3,0.5c0.3,0.2,0.7,0.5,1,0.7L331.8,59.2z"/>
<polyline points="351.8,42.2 352,41 352.8,44.8 349,43.7 351.5,43.5 351.8,42.2 "/>
<polygon points="351.8,42.2 352,41 352.8,44.8 349,43.7 351.5,43.5 351.5,43.5 351.8,42.2 351.8,42.2 351.5,43.5 349,43.7 349,43.7 
	352.8,44.8 352.8,44.8 352,41 351.8,42.2 "/>
<path d="M424.2,77.2h-0.2c0,0.5-0.1,1-0.3,1.5c-0.2,0.5-0.5,0.9-0.8,1.2c-0.3,0.3-0.8,0.6-1.2,0.8c-0.5,0.2-1,0.3-1.5,0.3
	s-1-0.1-1.5-0.3c-0.5-0.2-0.9-0.5-1.2-0.8l0,0l0,0c-0.3-0.3-0.6-0.8-0.8-1.2v0c-0.2-0.5-0.3-1-0.3-1.5s0.1-1,0.3-1.5v0
	c0.2-0.5,0.5-0.9,0.8-1.2l0,0c0.3-0.3,0.8-0.6,1.2-0.8l0,0l0,0c0.5-0.2,1-0.3,1.5-0.3s1,0.1,1.5,0.3l0,0h0c0.5,0.2,0.9,0.5,1.2,0.8
	c0.3,0.3,0.6,0.8,0.8,1.2c0.2,0.5,0.3,1,0.3,1.5H424.2h0.2c0-0.6-0.1-1.2-0.3-1.7c-0.2-0.5-0.5-1-0.9-1.4c-0.4-0.4-0.9-0.7-1.4-0.9
	l0,0h0c-0.5-0.2-1.1-0.3-1.7-0.3s-1.2,0.1-1.7,0.3l0,0c-0.5,0.2-1,0.5-1.4,0.9l0,0c-0.4,0.4-0.7,0.9-0.9,1.4l0,0l0,0
	c-0.2,0.5-0.3,1.1-0.3,1.7s0.1,1.2,0.3,1.7l0,0l0,0c0.2,0.5,0.5,1,0.9,1.4l0,0l0,0c0.4,0.4,0.9,0.7,1.4,0.9c0.5,0.2,1.1,0.3,1.7,0.3
	s1.2-0.1,1.7-0.3c0.5-0.2,1-0.5,1.4-0.9s0.7-0.9,0.9-1.4c0.2-0.5,0.3-1.1,0.3-1.7H424.2z"/>
<path d="M419,78.2c0,0.7,0.3,1,0.9,1c0.3,0,0.5-0.1,0.6-0.2c0.2-0.2,0.2-0.4,0.2-0.7c0-0.3-0.1-0.5-0.3-0.6c-0.2-0.1-0.6-0.2-1-0.2
	v-0.8h0.2c0.7,0,1-0.3,1-0.8c0-0.2-0.1-0.4-0.2-0.5c-0.1-0.1-0.3-0.2-0.6-0.2c-0.5,0-0.8,0.3-0.8,0.9h-1.1c0-0.6,0.2-1,0.5-1.3
	c0.3-0.3,0.8-0.5,1.4-0.5c0.6,0,1,0.1,1.4,0.4c0.4,0.3,0.5,0.7,0.5,1.2c0,0.5-0.2,0.9-0.7,1.1c0.6,0.2,0.9,0.7,0.9,1.3
	c0,0.5-0.2,1-0.6,1.3c-0.4,0.3-0.9,0.5-1.5,0.5c-0.7,0-1.2-0.2-1.5-0.5c-0.3-0.3-0.5-0.8-0.6-1.4H419z"/>
<polygon points="387,40.7 387,40.9 394.9,40.9 394.9,48.6 387.2,48.6 387.2,40.7 387,40.7 387,40.9 387,40.7 386.8,40.7 386.8,49.1 
	395.4,49.1 395.4,40.5 386.8,40.5 386.8,40.7 "/>
<path d="M389.4,46.5c0.2-0.4,0.6-0.8,1.3-1.2c0.5-0.4,0.9-0.7,1-0.9c0.1-0.2,0.2-0.4,0.2-0.6c0-0.2-0.1-0.4-0.2-0.6
	c-0.1-0.2-0.3-0.3-0.6-0.3c-0.3,0-0.5,0.1-0.6,0.3c-0.1,0.2-0.2,0.5-0.2,0.8h-1.1v-0.2c0-0.5,0.2-0.9,0.5-1.3
	c0.3-0.4,0.8-0.6,1.4-0.6c0.6,0,1,0.2,1.4,0.5c0.4,0.3,0.6,0.8,0.6,1.3c0,0.4-0.1,0.7-0.3,1c-0.2,0.3-0.6,0.6-1.1,1
	c-0.6,0.4-1,0.7-1.1,0.9h2.5v1h-3.9C389.1,47.2,389.2,46.8,389.4,46.5z"/>
<polygon points="396.5,55.5 405.9,55.5 405.9,57.5 402.4,57.5 402.4,67 400,67 400,57.5 396.5,57.5 "/>
<path d="M411.7,70.4H410c-0.1-0.4-0.2-0.8-0.2-1.3l0-0.5c0-0.4-0.1-0.6-0.2-0.8c-0.2-0.2-0.5-0.2-0.9-0.2h-1.6v2.8h-1.5v-7.2h3.7
	c0.7,0,1.2,0.2,1.7,0.6c0.4,0.4,0.6,0.9,0.6,1.5c0,0.8-0.4,1.4-1.1,1.7c0.4,0.2,0.7,0.4,0.8,0.7c0.1,0.3,0.2,0.7,0.2,1.3v0.3
	c0,0.3,0,0.5,0.1,0.7c0,0.2,0.1,0.3,0.3,0.3V70.4z M410.1,65.4c0-0.6-0.4-1-1.1-1h-1.9v1.9h1.8C409.7,66.4,410.1,66.1,410.1,65.4z"
	/>
<polygon points="204.4,35.1 204.4,30.8 233.8,30.8 311.8,30.8 311.8,35.1 312.2,35.1 312.2,30.5 312,30.3 233.8,30.3 204.1,30.3 
	203.9,30.5 203.9,35.1 "/>
<polygon points="320.6,35.1 320.6,30.8 345.2,30.8 423.3,30.8 423.3,35.1 423.7,35.1 423.7,30.5 423.5,30.3 345.2,30.3 320.4,30.3 
	320.2,30.5 320.2,35.1 "/>
</svg>
