<?xml version='1.0' encoding='utf-8' standalone='no'?>
<!DOCTYPE svg PUBLIC '-//W3C//DTD SVG 1.1//EN' 'http://www.w3.org/Graphics/SVG/1.1/DTD/svg11.dtd'>
<svg version="1.1" viewBox="-0.028 -0.352 470 106" xmlns='http://www.w3.org/2000/svg'>
<defs>
</defs>
<polyline fill="none" stroke="#000000" stroke-width="0.1752" stroke-linejoin="bevel" stroke-miterlimit="10" points="
	10.303,33.487 10.327,33.464 10.396,33.394 10.583,33.23 10.793,33.021 11.004,32.857 11.191,32.693 11.355,32.554 11.542,32.437 
	11.658,32.366 11.798,32.272 11.961,32.202 12.172,32.109 12.429,32.039 12.733,31.992 13.06,31.922 13.458,31.898 13.902,31.875 
	14.415,31.875 14.953,31.875 15.561,31.922 15.958,31.946 16.402,31.969 16.845,32.016 17.336,32.062 17.874,32.109 18.411,32.155 
	18.996,32.226 19.579,32.296 20.187,32.343 20.795,32.412 21.402,32.483 22.009,32.53 22.594,32.577 23.154,32.647 23.692,32.67 
	24.206,32.717 24.673,32.741 25.117,32.764 25.514,32.787 25.912,32.787 26.473,32.764 26.963,32.741 27.407,32.693 27.781,32.601 
	28.107,32.53 28.388,32.437 28.622,32.343 28.809,32.272 28.949,32.179 29.066,32.132 29.136,32.109 29.229,32.085 29.323,32.109 
	29.393,32.132 29.51,32.179 29.65,32.272 29.837,32.343 30.071,32.437 30.351,32.53 30.678,32.601 31.052,32.693 31.496,32.741 
	31.986,32.764 32.571,32.787 32.944,32.787 33.342,32.764 33.786,32.741 34.253,32.717 34.768,32.67 35.305,32.647 35.865,32.577 
	36.449,32.53 37.057,32.483 37.664,32.412 38.272,32.343 38.879,32.296 39.463,32.226 40.048,32.155 40.585,32.109 41.123,32.062 
	41.613,32.016 42.057,31.969 42.501,31.946 42.898,31.922 43.506,31.875 44.043,31.875 44.557,31.875 45.001,31.898 45.398,31.922 
	45.726,31.992 46.029,32.039 46.287,32.109 46.497,32.202 46.66,32.272 46.8,32.366 46.94,32.437 47.104,32.554 47.268,32.693 
	47.455,32.857 47.665,33.021 47.875,33.23 48.062,33.394 48.132,33.464 48.156,33.487 "/>
<rect x="115.713" y="50.89" fill="none" stroke="#000000" stroke-width="0.4647" stroke-miterlimit="10" width="8.364" height="8.364"/>
<path d="M117.628,53.202c0.585,0,0.998-0.097,1.237-0.29s0.375-0.433,0.404-0.719h0.968v5.938h-1.172v-4.109h-1.438V53.202z"/>
<rect x="101.942" y="50.893" fill="none" stroke="#000000" stroke-width="0.4647" stroke-miterlimit="10" width="8.364" height="8.365"/>
<path d="M104.06,56.722c0.229-0.368,0.668-0.791,1.319-1.27c0.539-0.395,0.877-0.693,1.013-0.895
	c0.136-0.202,0.205-0.41,0.205-0.625c0-0.24-0.07-0.444-0.208-0.613c-0.136-0.171-0.342-0.257-0.617-0.257
	c-0.299,0-0.509,0.094-0.629,0.282c-0.12,0.188-0.18,0.464-0.18,0.829h-1.172v-0.172c0-0.517,0.162-0.966,0.486-1.348
	c0.327-0.381,0.813-0.572,1.458-0.572c0.566,0,1.047,0.161,1.441,0.482c0.395,0.318,0.592,0.776,0.592,1.372
	c0,0.406-0.098,0.76-0.294,1.062c-0.193,0.3-0.577,0.648-1.152,1.046c-0.629,0.436-1.003,0.747-1.123,0.935h2.569v1.042h-4.051
	C103.717,57.523,103.831,57.09,104.06,56.722z"/>
<path fill="none" stroke="#000000" stroke-width="0.4647" stroke-miterlimit="10" d="M123.745,66.666
	c0,2.311-1.874,4.184-4.182,4.184c-2.309,0-4.183-1.873-4.183-4.184c0-2.308,1.874-4.181,4.183-4.181
	C121.871,62.485,123.745,64.358,123.745,66.666L123.745,66.666z"/>
<path d="M117.737,64.607c0.585,0,0.998-0.098,1.237-0.291s0.375-0.433,0.404-0.719h0.968v5.939h-1.172v-4.109h-1.438V64.607z"/>
<path d="M5.734,6.431h9.305V7.79h-3.875v10.141H9.609V7.79H5.734V6.431z"/>
<path d="M16.492,6.431h1.555v4.75h5.945v-4.75h1.555v11.5h-1.555V12.54h-5.945v5.391h-1.555V6.431z"/>
<path d="M28.195,17.931v-11.5h8.43V7.79H29.75v3.57h6.344v1.359H29.75v3.852h7v1.359H28.195z"/>
<path d="M44.133,14.228c0.083,1.761,1.167,2.641,3.25,2.641c0.953,0,1.677-0.161,2.172-0.484c0.495-0.328,0.742-0.839,0.742-1.531
	c0-0.442-0.138-0.81-0.414-1.102c-0.271-0.297-0.945-0.573-2.023-0.828l-2.375-0.531c-0.755-0.188-1.349-0.497-1.781-0.93
	c-0.433-0.438-0.648-1.044-0.648-1.82c0-1.058,0.352-1.906,1.055-2.547c0.708-0.641,1.719-0.961,3.031-0.961
	c1.203,0,2.2,0.284,2.992,0.852c0.797,0.567,1.229,1.492,1.297,2.773h-1.453c-0.151-1.511-1.102-2.266-2.852-2.266
	c-0.766,0-1.386,0.167-1.859,0.5c-0.469,0.333-0.703,0.823-0.703,1.469c0,0.375,0.112,0.688,0.336,0.938
	c0.224,0.25,0.648,0.442,1.273,0.578l3.023,0.727c0.87,0.192,1.521,0.539,1.953,1.039c0.438,0.495,0.656,1.169,0.656,2.023
	c0,1.12-0.412,1.977-1.234,2.57c-0.823,0.594-1.945,0.891-3.367,0.891c-1.484,0-2.609-0.362-3.375-1.086s-1.148-1.695-1.148-2.914
	H44.133z"/>
<path d="M53.836,6.431h1.555v4.75h5.945v-4.75h1.555v11.5h-1.555V12.54h-5.945v5.391h-1.555V6.431z"/>
<path d="M64.789,12.181c0-1.729,0.495-3.169,1.484-4.32c0.995-1.151,2.372-1.727,4.133-1.727c1.75,0,3.122,0.583,4.117,1.75
	c0.995,1.161,1.492,2.563,1.492,4.203c0,1.808-0.495,3.284-1.484,4.43c-0.99,1.141-2.367,1.711-4.133,1.711
	c-1.651,0-3-0.542-4.047-1.625C65.31,15.514,64.789,14.04,64.789,12.181z M66.391,12.181c0,1.344,0.352,2.461,1.055,3.352
	c0.708,0.891,1.695,1.336,2.961,1.336c1.156,0,2.112-0.417,2.867-1.25c0.76-0.839,1.141-1.984,1.141-3.438
	c0-1.391-0.357-2.519-1.07-3.383c-0.714-0.87-1.695-1.305-2.945-1.305c-1.183,0-2.146,0.419-2.891,1.258
	C66.763,9.59,66.391,10.732,66.391,12.181z"/>
<path d="M87.5,17.931h-1.914c-0.177-0.755-0.266-1.651-0.266-2.688c0-0.833-0.154-1.411-0.461-1.734
	c-0.308-0.328-0.828-0.492-1.563-0.492h-3.734v4.914h-1.555v-11.5h5.305c1.255,0,2.192,0.258,2.813,0.773
	c0.625,0.511,0.938,1.302,0.938,2.375c0,1.25-0.534,2.161-1.602,2.734c0.469,0.188,0.807,0.438,1.016,0.75
	c0.208,0.313,0.325,0.841,0.352,1.586l0.086,1.875c0.01,0.208,0.039,0.417,0.086,0.625c0.047,0.203,0.213,0.378,0.5,0.523V17.931z
	 M85.461,9.712c0-0.661-0.177-1.146-0.531-1.453c-0.349-0.313-0.854-0.469-1.516-0.469h-3.852v3.93h3.57
	C84.685,11.72,85.461,11.051,85.461,9.712z"/>
<path d="M89.539,17.931v-11.5h8.43V7.79h-6.875v3.57h6.344v1.359h-6.344v3.852h7v1.359H89.539z"/>
<path d="M101.031,14.228c0.083,1.761,1.167,2.641,3.25,2.641c0.953,0,1.677-0.161,2.172-0.484c0.495-0.328,0.742-0.839,0.742-1.531
	c0-0.442-0.138-0.81-0.414-1.102c-0.271-0.297-0.945-0.573-2.023-0.828l-2.375-0.531c-0.755-0.188-1.349-0.497-1.781-0.93
	c-0.433-0.438-0.648-1.044-0.648-1.82c0-1.058,0.352-1.906,1.055-2.547c0.708-0.641,1.719-0.961,3.031-0.961
	c1.203,0,2.2,0.284,2.992,0.852c0.797,0.567,1.229,1.492,1.297,2.773h-1.453c-0.151-1.511-1.102-2.266-2.852-2.266
	c-0.766,0-1.386,0.167-1.859,0.5c-0.469,0.333-0.703,0.823-0.703,1.469c0,0.375,0.112,0.688,0.336,0.938
	c0.224,0.25,0.648,0.442,1.273,0.578l3.023,0.727c0.87,0.192,1.521,0.539,1.953,1.039c0.438,0.495,0.656,1.169,0.656,2.023
	c0,1.12-0.412,1.977-1.234,2.57c-0.823,0.594-1.945,0.891-3.367,0.891c-1.484,0-2.609-0.362-3.375-1.086s-1.148-1.695-1.148-2.914
	H101.031z"/>
<path d="M114.578,12.181c0-1.729,0.495-3.169,1.484-4.32c0.995-1.151,2.372-1.727,4.133-1.727c1.75,0,3.122,0.583,4.117,1.75
	c0.995,1.161,1.492,2.563,1.492,4.203c0,1.808-0.495,3.284-1.484,4.43c-0.99,1.141-2.367,1.711-4.133,1.711
	c-1.651,0-3-0.542-4.047-1.625C115.099,15.514,114.578,14.04,114.578,12.181z M116.18,12.181c0,1.344,0.352,2.461,1.055,3.352
	c0.708,0.891,1.695,1.336,2.961,1.336c1.156,0,2.112-0.417,2.867-1.25c0.76-0.839,1.141-1.984,1.141-3.438
	c0-1.391-0.357-2.519-1.07-3.383c-0.714-0.87-1.695-1.305-2.945-1.305c-1.183,0-2.146,0.419-2.891,1.258
	C116.552,9.59,116.18,10.732,116.18,12.181z"/>
<path d="M127.773,17.931v-11.5h7.93V7.79h-6.375v3.57h5.602v1.359h-5.602v5.211H127.773z"/>
<path d="M141.797,17.931v-11.5h5.063c0.979,0,1.763,0.269,2.352,0.805c0.594,0.531,0.891,1.229,0.891,2.094
	c0,1.036-0.511,1.823-1.531,2.359c0.771,0.297,1.307,0.675,1.609,1.133c0.302,0.458,0.453,1.016,0.453,1.672
	c0,0.979-0.339,1.797-1.016,2.453c-0.677,0.656-1.638,0.984-2.883,0.984H141.797z M143.352,11.243h2.797
	c1.599,0,2.398-0.599,2.398-1.797c0-1.104-0.792-1.656-2.375-1.656h-2.82V11.243z M143.352,16.571h3.313
	c0.729,0,1.313-0.172,1.75-0.516c0.442-0.344,0.664-0.875,0.664-1.594c0-1.281-0.896-1.922-2.688-1.922h-3.039V16.571z"/>
<path d="M152.492,6.431h1.555v10.141h5.875v1.359h-7.43V6.431z"/>
<path d="M160.398,17.931l4.375-11.5h1.773l4.125,11.5h-1.695l-1.117-3.359h-4.648L162,17.931H160.398z M163.719,13.212h3.586
	l-1.703-5.117L163.719,13.212z"/>
<path d="M180.273,13.728h1.508c-0.266,1.5-0.831,2.625-1.695,3.375c-0.865,0.75-1.977,1.125-3.336,1.125
	c-1.558,0-2.813-0.542-3.766-1.625c-0.953-1.089-1.43-2.563-1.43-4.422c0-1.839,0.484-3.305,1.453-4.398
	c0.974-1.099,2.292-1.648,3.953-1.648c1.255,0,2.292,0.313,3.109,0.938c0.823,0.62,1.352,1.558,1.586,2.813h-1.508
	c-0.401-1.594-1.466-2.391-3.195-2.391c-1.13,0-2.047,0.403-2.75,1.211c-0.698,0.808-1.047,1.979-1.047,3.516
	c0,1.417,0.313,2.547,0.938,3.391c0.625,0.839,1.555,1.258,2.789,1.258c0.896,0,1.627-0.266,2.195-0.797
	C179.651,15.535,180.049,14.754,180.273,13.728z"/>
<path d="M183.617,17.931v-11.5h1.555v5.57l5.617-5.57h2.133l-4.766,4.586l4.891,6.914h-2.016l-4.016-5.75l-1.844,1.711v4.039
	H183.617z"/>
<path d="M198.688,6.431h2.234l3.289,9.703l3.273-9.703h2.234v11.5h-1.508V8.274l-3.242,9.656h-1.531l-3.242-9.703v9.703h-1.508
	V6.431z"/>
<path d="M212.305,6.431h1.555v11.5h-1.555V6.431z"/>
<path d="M216.508,6.431h1.555v10.141h5.875v1.359h-7.43V6.431z"/>
<path d="M225.406,6.431h1.555v10.141h5.875v1.359h-7.43V6.431z"/>
<path d="M238.727,17.931v-11.5h5.063c0.979,0,1.763,0.269,2.352,0.805c0.594,0.531,0.891,1.229,0.891,2.094
	c0,1.036-0.511,1.823-1.531,2.359c0.771,0.297,1.308,0.675,1.609,1.133s0.453,1.016,0.453,1.672c0,0.979-0.339,1.797-1.016,2.453
	s-1.638,0.984-2.883,0.984H238.727z M240.281,11.243h2.797c1.599,0,2.398-0.599,2.398-1.797c0-1.104-0.792-1.656-2.375-1.656h-2.82
	V11.243z M240.281,16.571h3.313c0.729,0,1.313-0.172,1.75-0.516c0.442-0.344,0.664-0.875,0.664-1.594
	c0-1.281-0.896-1.922-2.688-1.922h-3.039V16.571z"/>
<path d="M248.43,17.931l4.375-11.5h1.773l4.125,11.5h-1.695l-1.117-3.359h-4.648l-1.211,3.359H248.43z M251.75,13.212h3.586
	l-1.703-5.117L251.75,13.212z"/>
<path d="M259.008,6.431h1.82l3.328,5.477l3.336-5.477h1.82l-4.375,6.875v4.625h-1.555v-4.625L259.008,6.431z"/>
<line fill="none" stroke="#000000" stroke-width="1.1112" stroke-miterlimit="10" x1="136.519" y1="25.647" x2="136.519" y2="92.133"/>
<line fill="none" stroke="#000000" stroke-width="0.5528" stroke-miterlimit="10" stroke-dasharray="3.3169" x1="302.776" y1="26.148" x2="302.776" y2="91.966"/>
<path d="M13.88,39.21c0.702,0,1.196-0.116,1.483-0.348c0.287-0.231,0.449-0.519,0.485-0.862h1.16v7.121h-1.405v-4.927H13.88V39.21z"
	/>
<path d="M411.779,14.47c0.016,0.808,0.211,1.425,0.586,1.852c0.38,0.422,0.977,0.633,1.789,0.633c0.683,0,1.266-0.183,1.75-0.547
	c0.489-0.37,0.734-0.911,0.734-1.625c0-0.62-0.208-1.109-0.625-1.469s-1.042-0.539-1.875-0.539c-0.177,0-0.448,0.008-0.813,0.023
	v-1.227c0.359,0.026,0.583,0.039,0.672,0.039c1.469,0,2.203-0.612,2.203-1.836c0-0.567-0.185-1.021-0.555-1.359
	c-0.364-0.339-0.867-0.508-1.508-0.508c-0.698,0-1.222,0.195-1.57,0.586s-0.547,0.981-0.594,1.773h-1.383
	c0.005-1.141,0.31-2.028,0.914-2.664c0.609-0.641,1.519-0.961,2.727-0.961c1.047,0,1.886,0.278,2.516,0.836
	c0.636,0.552,0.953,1.284,0.953,2.195c0,1.203-0.492,1.987-1.477,2.352c0.714,0.255,1.211,0.599,1.492,1.031
	c0.281,0.427,0.422,0.956,0.422,1.586c0,1.063-0.359,1.925-1.078,2.586s-1.683,0.992-2.891,0.992c-1.104,0-1.997-0.276-2.68-0.828
	c-0.677-0.558-1.065-1.531-1.164-2.922H411.779z"/>
<path d="M418.857,17.931l2.906-4.352l-2.75-4.023h1.805l1.906,2.914l1.898-2.914h1.734l-2.797,4.023l2.906,4.352h-1.781
	l-2.063-3.141l-1.984,3.141H418.857z"/>
<path d="M428.678,14.47c0.016,0.808,0.211,1.425,0.586,1.852c0.38,0.422,0.977,0.633,1.789,0.633c0.683,0,1.266-0.183,1.75-0.547
	c0.489-0.37,0.734-0.911,0.734-1.625c0-0.62-0.208-1.109-0.625-1.469s-1.042-0.539-1.875-0.539c-0.177,0-0.448,0.008-0.813,0.023
	v-1.227c0.359,0.026,0.583,0.039,0.672,0.039c1.469,0,2.203-0.612,2.203-1.836c0-0.567-0.185-1.021-0.555-1.359
	c-0.364-0.339-0.867-0.508-1.508-0.508c-0.698,0-1.222,0.195-1.57,0.586s-0.547,0.981-0.594,1.773h-1.383
	c0.005-1.141,0.31-2.028,0.914-2.664c0.609-0.641,1.519-0.961,2.727-0.961c1.047,0,1.886,0.278,2.516,0.836
	c0.636,0.552,0.953,1.284,0.953,2.195c0,1.203-0.492,1.987-1.477,2.352c0.714,0.255,1.211,0.599,1.492,1.031
	c0.281,0.427,0.422,0.956,0.422,1.586c0,1.063-0.359,1.925-1.078,2.586s-1.683,0.992-2.891,0.992c-1.104,0-1.997-0.276-2.68-0.828
	c-0.677-0.558-1.065-1.531-1.164-2.922H428.678z"/>
<path d="M436.764,15.188c0.433-0.661,1.023-1.208,1.773-1.641l2.289-1.359c0.521-0.308,0.888-0.625,1.102-0.953
	c0.214-0.333,0.32-0.737,0.32-1.211c0-0.651-0.206-1.167-0.617-1.547c-0.406-0.38-0.958-0.57-1.656-0.57
	c-0.781,0-1.349,0.231-1.703,0.695c-0.349,0.458-0.55,1.138-0.602,2.039h-1.383c0-1.198,0.315-2.164,0.945-2.898
	s1.597-1.102,2.898-1.102c1.052,0,1.917,0.305,2.594,0.914c0.683,0.604,1.023,1.43,1.023,2.477c0,0.703-0.161,1.305-0.484,1.805
	c-0.323,0.495-0.82,0.93-1.492,1.305l-1.906,1.109c-0.672,0.396-1.183,0.766-1.531,1.109c-0.344,0.339-0.594,0.755-0.75,1.25h6.164
	v1.32h-7.75C436.076,16.759,436.331,15.845,436.764,15.188z"/>
<path d="M451.123,14.228c0.083,1.761,1.167,2.641,3.25,2.641c0.953,0,1.677-0.161,2.172-0.484c0.495-0.328,0.742-0.839,0.742-1.531
	c0-0.442-0.138-0.81-0.414-1.102c-0.271-0.297-0.945-0.573-2.023-0.828l-2.375-0.531c-0.755-0.188-1.349-0.497-1.781-0.93
	c-0.433-0.438-0.648-1.044-0.648-1.82c0-1.058,0.352-1.906,1.055-2.547c0.708-0.641,1.719-0.961,3.031-0.961
	c1.203,0,2.2,0.284,2.992,0.852c0.797,0.567,1.229,1.492,1.297,2.773h-1.453c-0.151-1.511-1.102-2.266-2.852-2.266
	c-0.766,0-1.386,0.167-1.859,0.5c-0.469,0.333-0.703,0.823-0.703,1.469c0,0.375,0.112,0.688,0.336,0.938s0.648,0.442,1.273,0.578
	l3.023,0.727c0.87,0.192,1.521,0.539,1.953,1.039c0.438,0.495,0.656,1.169,0.656,2.023c0,1.12-0.411,1.977-1.234,2.57
	s-1.945,0.891-3.367,0.891c-1.484,0-2.609-0.362-3.375-1.086s-1.148-1.695-1.148-2.914H451.123z"/>
<path fill="none" stroke="#000000" stroke-width="1.1339" stroke-miterlimit="10" d="M0.567,0.567h468.04v91.581H0.567V0.567z"/>
<line fill="none" stroke="#000000" stroke-width="0.3813" stroke-miterlimit="10" x1="44.018" y1="65.119" x2="32.018" y2="65.119"/>
<polyline fill-rule="evenodd" clip-rule="evenodd" points="35.534,66.119 31.533,65.119 35.534,64.119 35.534,66.119 "/>
<polygon fill="none" stroke="#000000" stroke-width="0.5" stroke-miterlimit="10" points="35.534,66.119 31.533,65.119 
	35.534,64.119 "/>
<path fill="none" stroke="#000000" stroke-width="0.5572" stroke-miterlimit="10" d="M212.92,69.734
	c0.088-0.396,0.133-0.801,0.133-1.207c0-3.031-2.459-5.49-5.49-5.49c-3.029,0-5.488,2.459-5.488,5.49
	c0,1.018,0.281,2.014,0.814,2.879"/>
<polygon fill-rule="evenodd" clip-rule="evenodd" stroke="#000000" stroke-width="0.2786" stroke-miterlimit="10" points="
	203.396,68.051 202.578,72.584 201.168,68.2 203.396,68.051 "/>
<path d="M205.55,66.492c0.702,0,1.196-0.115,1.483-0.348c0.287-0.231,0.449-0.519,0.485-0.861h1.16v7.12h-1.405v-4.927h-1.724
	V66.492z"/>
<line fill="none" stroke="#000000" stroke-width="0.5572" stroke-miterlimit="10" x1="106.125" y1="48.705" x2="105.971" y2="51.064"/>
<path fill="none" stroke="#000000" stroke-width="0.4523" stroke-miterlimit="10" d="M124.639,69.814
	c3.333-1.667,6.667,6.333-3.09,9.404"/>
<polygon fill-rule="evenodd" clip-rule="evenodd" stroke="#000000" stroke-width="0.453" stroke-miterlimit="10" stroke-dasharray="1.4173,1.4173" points="
	122.347,79.861 118.579,80.112 121.771,78.177 122.347,79.861 "/>
<line fill="none" stroke="#000000" stroke-width="1.1339" stroke-miterlimit="10" x1="0.067" y1="26.146" x2="468.106" y2="26.146"/>
<line fill="none" stroke="#000000" stroke-width="0.3813" stroke-miterlimit="10" x1="9.972" y1="65.148" x2="9.972" y2="56.148"/>
<polyline fill-rule="evenodd" clip-rule="evenodd" points="8.973,59.664 9.972,55.664 10.973,59.664 8.973,59.664 "/>
<polygon fill="none" stroke="#000000" stroke-width="0.5" stroke-miterlimit="10" points="8.973,59.664 9.972,55.664 10.973,59.664 
	"/>
<path d="M35.929,43.564c0.274-0.441,0.802-0.949,1.582-1.523c0.646-0.473,1.051-0.831,1.214-1.072
	c0.164-0.242,0.245-0.491,0.245-0.749c0-0.288-0.083-0.532-0.25-0.735c-0.163-0.206-0.409-0.309-0.739-0.309
	c-0.359,0-0.61,0.113-0.754,0.338c-0.144,0.226-0.216,0.557-0.216,0.994h-1.405v-0.206c0-0.62,0.194-1.159,0.583-1.616
	c0.392-0.457,0.975-0.686,1.748-0.686c0.679,0,1.255,0.193,1.729,0.578c0.474,0.382,0.71,0.93,0.71,1.646
	c0,0.486-0.117,0.911-0.353,1.273c-0.231,0.359-0.691,0.777-1.381,1.254c-0.754,0.522-1.203,0.896-1.347,1.121h3.08v1.249h-4.857
	C35.518,44.524,35.655,44.005,35.929,43.564z"/>
<path d="M71.229,63.859H68.58c-0.161-0.619-0.247-1.299-0.258-2.039l-0.016-0.859c-0.011-0.572-0.138-0.98-0.383-1.227
	c-0.245-0.244-0.742-0.367-1.492-0.367h-2.516v4.492h-2.383v-11.5H67.4c1.104,0,1.987,0.3,2.648,0.898
	c0.661,0.594,0.992,1.398,0.992,2.414c0,1.297-0.597,2.199-1.789,2.703c0.646,0.256,1.05,0.607,1.211,1.055
	c0.161,0.449,0.242,1.148,0.242,2.102v0.461c0,0.438,0.028,0.787,0.086,1.047c0.063,0.256,0.208,0.426,0.438,0.508V63.859z
	 M68.619,55.906c0-1.021-0.563-1.531-1.688-1.531h-3.016v3.07h2.828C67.994,57.445,68.619,56.933,68.619,55.906z"/>
<path d="M72.197,63.859l4.125-11.5h2.758l4.125,11.5h-2.609l-0.742-2.398h-4.313l-0.813,2.398H72.197z M76.205,59.445h2.938
	l-1.445-4.476L76.205,59.445z"/>
<path d="M64.596,43.231c0.274-0.441,0.802-0.949,1.582-1.523c0.646-0.473,1.051-0.831,1.214-1.072
	c0.164-0.242,0.245-0.491,0.245-0.749c0-0.288-0.083-0.532-0.25-0.735c-0.163-0.206-0.409-0.309-0.739-0.309
	c-0.359,0-0.61,0.113-0.754,0.338c-0.144,0.226-0.216,0.557-0.216,0.994h-1.405v-0.206c0-0.62,0.194-1.159,0.583-1.616
	c0.392-0.457,0.975-0.686,1.748-0.686c0.679,0,1.255,0.193,1.729,0.578c0.474,0.382,0.71,0.93,0.71,1.646
	c0,0.486-0.117,0.911-0.353,1.273c-0.231,0.359-0.691,0.777-1.381,1.254c-0.754,0.522-1.203,0.896-1.347,1.121h3.08v1.249h-4.857
	C64.185,44.19,64.322,43.671,64.596,43.231z"/>
<path d="M72.912,38.877c0.702,0,1.196-0.116,1.483-0.348c0.287-0.231,0.449-0.519,0.485-0.862h1.16v7.121h-1.405v-4.927h-1.724
	V38.877z"/>
<path fill="none" stroke="#000000" stroke-width="0.4647" stroke-miterlimit="10" d="M109.411,66.333
	c0,2.31-1.874,4.183-4.182,4.183c-2.309,0-4.183-1.873-4.183-4.183c0-2.308,1.874-4.181,4.183-4.181
	C107.537,62.152,109.411,64.025,109.411,66.333L109.411,66.333z"/>
<path d="M103.444,67.654c0.229-0.367,0.668-0.791,1.319-1.27c0.539-0.396,0.877-0.693,1.013-0.895
	c0.136-0.202,0.205-0.41,0.205-0.625c0-0.24-0.07-0.444-0.208-0.613c-0.136-0.172-0.342-0.258-0.617-0.258
	c-0.299,0-0.509,0.095-0.629,0.283c-0.12,0.188-0.18,0.463-0.18,0.828h-1.172v-0.172c0-0.517,0.162-0.966,0.486-1.348
	c0.327-0.381,0.813-0.571,1.458-0.571c0.566,0,1.047,0.161,1.441,0.481c0.395,0.318,0.592,0.776,0.592,1.373
	c0,0.405-0.098,0.76-0.294,1.062c-0.193,0.3-0.577,0.647-1.152,1.046c-0.629,0.436-1.003,0.747-1.123,0.936h2.569v1.041h-4.051
	C103.102,68.455,103.216,68.021,103.444,67.654z"/>
<line fill="none" stroke="#000000" stroke-width="0.5572" stroke-miterlimit="10" x1="119.792" y1="48.538" x2="119.638" y2="50.897"/>
<line fill="none" stroke="#000000" stroke-width="0.5572" stroke-miterlimit="10" x1="104.792" y1="70.622" x2="104.638" y2="72.981"/>
<line fill="none" stroke="#000000" stroke-width="0.5572" stroke-miterlimit="10" x1="119.458" y1="71.205" x2="119.305" y2="73.564"/>
<path fill="none" stroke="#000000" stroke-width="0.4523" stroke-miterlimit="10" d="M108.972,69.147
	c3.333-1.667,6.667,6.333-3.09,9.404"/>
<polygon fill-rule="evenodd" clip-rule="evenodd" stroke="#000000" stroke-width="0.453" stroke-miterlimit="10" stroke-dasharray="1.4173,1.4173" points="
	106.68,79.195 102.912,79.445 106.104,77.511 106.68,79.195 "/>
<path fill="none" stroke="#000000" stroke-width="0.4523" stroke-miterlimit="10" stroke-dasharray="1.4173,1.4173" d="
	M98.941,50.22c-3.333,1.667-6.667-6.333,3.09-9.404"/>
<polygon fill-rule="evenodd" clip-rule="evenodd" stroke="#000000" stroke-width="0.453" stroke-miterlimit="10" stroke-dasharray="1.4173,1.4173" points="
	101.233,40.172 105.001,39.922 101.81,41.856 101.233,40.172 "/>
<path fill="none" stroke="#000000" stroke-width="0.4523" stroke-miterlimit="10" stroke-dasharray="1.4173,1.4173" d="
	M114.608,50.887c-3.333,1.667-6.667-6.333,3.09-9.404"/>
<polygon fill-rule="evenodd" clip-rule="evenodd" stroke="#000000" stroke-width="0.453" stroke-miterlimit="10" stroke-dasharray="1.4173,1.4173" points="
	116.9,40.839 120.668,40.589 117.477,42.523 116.9,40.839 "/>
<path d="M168.163,59.98h-4.693c-0.286-1.099-0.438-2.303-0.457-3.614l-0.028-1.523c-0.019-1.015-0.245-1.74-0.678-2.174
	c-0.434-0.434-1.315-0.651-2.645-0.651h-4.458v7.962h-4.223V39.599h10.398c1.957,0,3.521,0.531,4.694,1.592
	c1.172,1.052,1.758,2.479,1.758,4.278c0,2.298-1.057,3.896-3.171,4.791c1.145,0.453,1.86,1.076,2.146,1.869
	c0.286,0.794,0.429,2.036,0.429,3.725v0.817c0,0.775,0.05,1.394,0.152,1.855c0.111,0.452,0.369,0.753,0.775,0.899V59.98z
	 M163.539,45.885c0-1.809-0.997-2.714-2.991-2.714h-5.345v5.441h5.012C162.431,48.612,163.539,47.703,163.539,45.885z"/>
<path d="M154.009,66.706c-0.072,0.024-0.127,0.068-0.167,0.134c-0.037,0.063-0.071,0.132-0.101,0.206l-0.934,2.39
	c-0.041,0.104-0.072,0.18-0.091,0.226s-0.047,0.068-0.082,0.068c-0.033,0-0.06-0.028-0.082-0.085
	c-0.022-0.059-0.055-0.145-0.098-0.258l-0.587-1.524l-0.745,1.586c-0.048,0.099-0.083,0.17-0.107,0.216
	c-0.022,0.044-0.046,0.065-0.072,0.065c-0.028,0-0.057-0.026-0.084-0.078c-0.028-0.053-0.058-0.12-0.088-0.203l-0.872-2.259
	c-0.091-0.23-0.16-0.369-0.206-0.415c-0.044-0.045-0.103-0.068-0.176-0.068v-0.101h1.201v0.101c-0.103,0-0.18,0.021-0.232,0.065
	c-0.05,0.041-0.075,0.093-0.075,0.153c0,0.059,0.017,0.144,0.052,0.255c0.035,0.111,0.098,0.282,0.189,0.513l0.454,1.182
	l0.617-1.329l-0.134-0.378c-0.063-0.177-0.128-0.298-0.196-0.363c-0.067-0.064-0.153-0.098-0.258-0.098v-0.101h1.361v0.101
	c-0.263,0.033-0.395,0.114-0.395,0.245c0,0.032,0.009,0.078,0.026,0.137c0.017,0.06,0.06,0.179,0.127,0.359l0.522,1.404l0.604-1.516
	c0.026-0.067,0.049-0.135,0.069-0.202c0.021-0.067,0.032-0.136,0.032-0.205c0-0.111-0.1-0.186-0.3-0.223v-0.101h0.826V66.706z"/>
<path d="M154.443,69.634v-0.102c0.159-0.009,0.275-0.041,0.35-0.098c0.076-0.059,0.114-0.218,0.114-0.477v-1.587
	c0-0.144-0.018-0.245-0.052-0.304c-0.033-0.059-0.082-0.088-0.147-0.088c-0.042,0-0.081,0.002-0.118,0.007
	c-0.037,0.004-0.086,0.011-0.147,0.02v-0.102c0.335-0.113,0.668-0.233,0.999-0.362l0.026,0.02v2.396
	c0,0.232,0.032,0.384,0.098,0.454c0.067,0.067,0.189,0.107,0.366,0.12v0.102H154.443z M154.792,65.417
	c0-0.092,0.032-0.171,0.098-0.238c0.067-0.067,0.149-0.102,0.245-0.102c0.093,0,0.174,0.032,0.241,0.098s0.102,0.142,0.102,0.229
	c0,0.109-0.034,0.196-0.102,0.262c-0.067,0.063-0.15,0.095-0.248,0.095c-0.096,0-0.176-0.033-0.242-0.099
	C154.824,65.593,154.792,65.512,154.792,65.417z"/>
<path d="M157.048,65.716c0.013,0,0.023,0.007,0.029,0.02c0.007,0.011,0.01,0.045,0.01,0.102v0.768h0.679v0.215h-0.679v1.927
	c0,0.402,0.111,0.604,0.333,0.604c0.078,0,0.154-0.021,0.229-0.062c0.074-0.044,0.136-0.1,0.186-0.167l0.088,0.075
	c-0.074,0.133-0.184,0.249-0.33,0.35c-0.144,0.1-0.297,0.15-0.46,0.15c-0.405,0-0.607-0.292-0.607-0.875V66.82h-0.284
	c-0.063,0-0.095-0.017-0.095-0.049c0-0.026,0.026-0.058,0.078-0.095c0.174-0.117,0.324-0.264,0.451-0.438
	C156.804,66.063,156.928,65.888,157.048,65.716z"/>
<path d="M157.949,69.533c0.183-0.025,0.306-0.068,0.369-0.127c0.063-0.061,0.095-0.21,0.095-0.447v-3.213
	c0-0.154-0.031-0.246-0.092-0.274c-0.059-0.03-0.141-0.045-0.248-0.045c-0.039,0-0.081,0.002-0.124,0.006v-0.101
	c0.429-0.106,0.76-0.205,0.993-0.294l0.033,0.017v2.063c0.285-0.383,0.611-0.574,0.979-0.574c0.531,0,0.796,0.354,0.796,1.062v1.406
	c0,0.198,0.034,0.331,0.101,0.398c0.07,0.065,0.19,0.107,0.362,0.124v0.102h-1.482v-0.102c0.17-0.021,0.288-0.065,0.356-0.13
	c0.067-0.065,0.101-0.214,0.101-0.444v-1.332c0-0.481-0.169-0.722-0.506-0.722c-0.211,0-0.447,0.143-0.708,0.428v1.573
	c0,0.266,0.035,0.434,0.104,0.503c0.069,0.07,0.187,0.111,0.353,0.124v0.102h-1.482V69.533z"/>
<path d="M163.943,67.326c0.745-0.229,1.117-0.605,1.117-1.133c0-0.193-0.069-0.356-0.206-0.489
	c-0.137-0.133-0.315-0.199-0.532-0.199c-0.425,0-0.755,0.231-0.993,0.695l-0.098-0.026c0.118-0.342,0.282-0.604,0.493-0.79
	c0.213-0.187,0.485-0.28,0.816-0.28c0.317,0,0.569,0.085,0.754,0.254c0.185,0.17,0.278,0.392,0.278,0.663
	c0,0.349-0.207,0.654-0.621,0.918c0.564,0.215,0.846,0.63,0.846,1.243c0,0.477-0.173,0.854-0.519,1.13s-0.784,0.415-1.313,0.415
	c-0.205,0-0.38-0.032-0.526-0.095c-0.146-0.063-0.219-0.161-0.219-0.294c0-0.159,0.089-0.238,0.268-0.238
	c0.089,0,0.234,0.065,0.434,0.195c0.196,0.129,0.359,0.193,0.49,0.193c0.252,0,0.46-0.093,0.624-0.278
	c0.166-0.187,0.248-0.438,0.248-0.751c0-0.417-0.171-0.72-0.513-0.907c-0.163-0.092-0.347-0.137-0.552-0.137h-0.268L163.943,67.326z
	"/>
<path d="M166.621,68.599h0.104c0.063,0.324,0.165,0.563,0.304,0.715c0.142,0.152,0.331,0.229,0.568,0.229
	c0.148,0,0.274-0.043,0.379-0.13c0.106-0.087,0.16-0.204,0.16-0.35c0-0.159-0.063-0.287-0.189-0.386
	c-0.124-0.1-0.294-0.207-0.509-0.323c-0.301-0.16-0.512-0.317-0.634-0.47c-0.122-0.154-0.183-0.333-0.183-0.535
	c0-0.223,0.085-0.411,0.255-0.568c0.169-0.159,0.392-0.238,0.666-0.238c0.113,0,0.234,0.022,0.362,0.068
	c0.128,0.044,0.211,0.065,0.248,0.065c0.035,0,0.073-0.024,0.114-0.075h0.072l0.026,0.934h-0.098
	c-0.12-0.559-0.364-0.839-0.731-0.839c-0.166,0-0.291,0.047-0.375,0.141s-0.127,0.191-0.127,0.294c0,0.163,0.053,0.289,0.16,0.379
	c0.109,0.089,0.306,0.215,0.591,0.378c0.307,0.173,0.52,0.32,0.637,0.444c0.12,0.122,0.18,0.286,0.18,0.493
	c0,0.259-0.097,0.469-0.291,0.63c-0.191,0.161-0.42,0.242-0.686,0.242c-0.103,0-0.241-0.021-0.415-0.06
	c-0.174-0.041-0.292-0.062-0.353-0.062c-0.067,0-0.116,0.027-0.146,0.081h-0.088V68.599z"/>
<path d="M145.375,73.753l1.202-0.627l0.055,0.013v4.022c0,0.15,0.037,0.255,0.111,0.313c0.074,0.057,0.25,0.085,0.529,0.085v0.098
	h-1.854V77.56c0.25-0.009,0.419-0.046,0.506-0.111c0.089-0.065,0.134-0.203,0.134-0.415v-3.017c0-0.128-0.021-0.212-0.062-0.251
	c-0.039-0.041-0.093-0.063-0.163-0.063c-0.054,0-0.112,0.013-0.173,0.036c-0.061,0.022-0.156,0.059-0.284,0.111V73.753z"/>
<path d="M148.333,76.623h0.104c0.063,0.324,0.165,0.563,0.304,0.715c0.142,0.152,0.331,0.229,0.568,0.229
	c0.148,0,0.274-0.043,0.379-0.13c0.106-0.087,0.16-0.204,0.16-0.35c0-0.159-0.063-0.287-0.189-0.386
	c-0.124-0.1-0.294-0.207-0.509-0.323c-0.301-0.16-0.512-0.317-0.634-0.47c-0.122-0.154-0.183-0.333-0.183-0.535
	c0-0.223,0.085-0.411,0.255-0.568c0.169-0.159,0.392-0.238,0.666-0.238c0.113,0,0.234,0.022,0.362,0.068
	c0.128,0.044,0.211,0.065,0.248,0.065c0.035,0,0.073-0.024,0.114-0.075h0.072l0.026,0.934h-0.098
	c-0.12-0.559-0.364-0.839-0.731-0.839c-0.166,0-0.291,0.047-0.375,0.141s-0.127,0.191-0.127,0.294c0,0.163,0.053,0.289,0.16,0.379
	c0.109,0.089,0.306,0.215,0.591,0.378c0.307,0.173,0.52,0.32,0.637,0.444c0.12,0.122,0.18,0.286,0.18,0.493
	c0,0.259-0.097,0.469-0.291,0.63c-0.191,0.161-0.42,0.242-0.686,0.242c-0.103,0-0.241-0.021-0.415-0.06
	c-0.174-0.041-0.292-0.062-0.353-0.062c-0.067,0-0.116,0.027-0.146,0.081h-0.088V76.623z"/>
<path d="M152.427,74.628h0.522c0-1.045,0.402-1.567,1.205-1.567c0.185,0,0.342,0.04,0.47,0.121c0.128,0.08,0.193,0.176,0.193,0.287
	c0,0.085-0.027,0.153-0.082,0.205c-0.055,0.051-0.123,0.075-0.206,0.075c-0.089,0-0.189-0.082-0.3-0.248
	c-0.111-0.17-0.219-0.255-0.323-0.255c-0.263,0-0.395,0.2-0.395,0.602v0.78h0.836v0.215h-0.836v2.139
	c0,0.227,0.034,0.374,0.101,0.444c0.068,0.069,0.172,0.108,0.313,0.117l0.219,0.013v0.102h-1.747v-0.102
	c0.198-0.004,0.34-0.037,0.424-0.098c0.085-0.063,0.127-0.222,0.127-0.477v-2.139h-0.522V74.628z"/>
<path d="M156.38,75.686v-0.389c0-0.363-0.165-0.545-0.496-0.545c-0.124,0-0.234,0.031-0.33,0.095
	c-0.096,0.061-0.144,0.135-0.144,0.222c0,0.032,0.005,0.074,0.016,0.124c0.013,0.048,0.02,0.094,0.02,0.137
	c0,0.083-0.029,0.15-0.088,0.203c-0.059,0.052-0.127,0.078-0.206,0.078c-0.089,0-0.161-0.026-0.215-0.078
	c-0.052-0.055-0.078-0.127-0.078-0.216c0-0.179,0.094-0.349,0.284-0.51c0.191-0.16,0.452-0.241,0.78-0.241
	c0.353,0,0.611,0.075,0.774,0.226c0.163,0.149,0.245,0.417,0.245,0.8v1.358c0,0.139,0.014,0.238,0.042,0.297
	c0.028,0.057,0.076,0.085,0.144,0.085c0.056,0,0.11-0.011,0.16-0.033c0.052-0.021,0.101-0.056,0.147-0.101v0.183
	c-0.115,0.124-0.219,0.212-0.31,0.265c-0.089,0.05-0.188,0.075-0.294,0.075c-0.276,0-0.423-0.157-0.441-0.471
	c-0.348,0.313-0.665,0.471-0.95,0.471c-0.207,0-0.377-0.066-0.509-0.199c-0.131-0.136-0.196-0.296-0.196-0.483
	c0-0.34,0.148-0.604,0.444-0.79C155.477,76.058,155.878,75.871,156.38,75.686z M156.38,75.846c-0.42,0.156-0.702,0.309-0.845,0.457
	c-0.142,0.146-0.212,0.31-0.212,0.492c0,0.161,0.042,0.291,0.124,0.389c0.085,0.099,0.187,0.147,0.307,0.147
	c0.108,0,0.209-0.021,0.3-0.063c0.093-0.043,0.172-0.095,0.235-0.153c0.026-0.021,0.048-0.049,0.065-0.082
	c0.018-0.034,0.026-0.104,0.026-0.209V75.846z"/>
<path d="M160.135,76.623l0.098,0.059c-0.113,0.257-0.285,0.494-0.516,0.712c-0.229,0.218-0.505,0.327-0.829,0.327
	c-0.373,0-0.676-0.142-0.911-0.425c-0.235-0.283-0.353-0.639-0.353-1.067c0-0.479,0.143-0.875,0.428-1.188
	c0.285-0.315,0.644-0.474,1.077-0.474c0.259,0,0.49,0.065,0.692,0.196c0.205,0.128,0.307,0.292,0.307,0.492
	c0,0.099-0.03,0.174-0.091,0.226c-0.061,0.053-0.135,0.078-0.222,0.078c-0.107,0-0.191-0.061-0.251-0.183
	c-0.059-0.124-0.097-0.232-0.114-0.326c-0.011-0.055-0.041-0.116-0.088-0.187c-0.045-0.069-0.161-0.104-0.346-0.104
	c-0.226,0-0.429,0.104-0.607,0.311c-0.176,0.207-0.265,0.504-0.265,0.892c0,0.376,0.098,0.688,0.294,0.934
	c0.198,0.243,0.439,0.365,0.725,0.365c0.205,0,0.382-0.051,0.532-0.153C159.847,77.001,159.994,76.84,160.135,76.623z"/>
<path d="M161.056,75.796c0.013,0.405,0.11,0.75,0.291,1.035c0.183,0.285,0.441,0.428,0.777,0.428c0.424,0,0.774-0.229,1.048-0.688
	l0.098,0.046c-0.096,0.291-0.273,0.548-0.532,0.771c-0.259,0.222-0.545,0.333-0.859,0.333c-0.4,0-0.715-0.131-0.943-0.393
	c-0.229-0.263-0.343-0.642-0.343-1.136c0-0.507,0.133-0.904,0.398-1.191c0.268-0.29,0.597-0.435,0.989-0.435
	c0.344,0,0.615,0.105,0.813,0.316c0.198,0.209,0.315,0.514,0.353,0.914H161.056z M161.072,75.582h1.388
	c-0.059-0.516-0.265-0.774-0.617-0.774c-0.244,0-0.424,0.069-0.542,0.206S161.107,75.339,161.072,75.582z"/>
<path d="M165.257,76.129c0-0.441,0.131-0.813,0.392-1.113c0.263-0.3,0.61-0.45,1.042-0.45c0.466,0,0.833,0.141,1.1,0.421
	c0.27,0.279,0.405,0.652,0.405,1.12c0,0.45-0.139,0.833-0.418,1.146c-0.276,0.312-0.626,0.468-1.051,0.468
	c-0.438,0-0.792-0.152-1.064-0.458C165.393,76.956,165.257,76.579,165.257,76.129z M165.845,75.796c0,0.469,0.084,0.875,0.251,1.222
	c0.167,0.344,0.4,0.516,0.699,0.516c0.25,0,0.448-0.103,0.594-0.307c0.146-0.207,0.219-0.514,0.219-0.921
	c0-0.444-0.088-0.814-0.265-1.11s-0.409-0.443-0.699-0.443c-0.252,0-0.449,0.099-0.591,0.297
	C165.915,75.248,165.845,75.497,165.845,75.796z"/>
<path d="M168.47,74.729v-0.101h0.973v2.196c0,0.157,0.042,0.285,0.127,0.386c0.085,0.098,0.213,0.146,0.385,0.146
	c0.133,0,0.255-0.031,0.366-0.095c0.113-0.064,0.193-0.12,0.238-0.166c0.031-0.03,0.055-0.068,0.072-0.114
	c0.018-0.048,0.026-0.127,0.026-0.238v-1.597c0-0.144-0.029-0.249-0.088-0.316c-0.059-0.067-0.184-0.102-0.375-0.102v-0.101h1.025
	v2.317c0,0.142,0.029,0.238,0.088,0.291c0.059,0.05,0.184,0.075,0.375,0.075v0.101c-0.137,0.033-0.455,0.131-0.953,0.294h-0.036
	v-0.562l-0.3,0.297c-0.185,0.186-0.42,0.278-0.705,0.278c-0.229,0-0.42-0.079-0.575-0.235c-0.154-0.157-0.231-0.37-0.231-0.64
	v-1.698c0-0.152-0.032-0.258-0.095-0.316C168.724,74.772,168.618,74.738,168.47,74.729z"/>
<path d="M172.737,73.74c0.013,0,0.023,0.007,0.029,0.02c0.007,0.011,0.01,0.045,0.01,0.102v0.768h0.679v0.215h-0.679v1.927
	c0,0.402,0.111,0.604,0.333,0.604c0.078,0,0.154-0.021,0.229-0.062c0.074-0.044,0.136-0.1,0.186-0.167l0.088,0.075
	c-0.074,0.133-0.184,0.249-0.33,0.35c-0.144,0.1-0.297,0.15-0.46,0.15c-0.405,0-0.607-0.292-0.607-0.875v-2.002h-0.284
	c-0.063,0-0.095-0.017-0.095-0.049c0-0.026,0.026-0.058,0.078-0.095c0.174-0.117,0.324-0.264,0.451-0.438
	C172.493,74.086,172.617,73.912,172.737,73.74z"/>
<line fill="none" stroke="#000000" stroke-width="1.1019" stroke-miterlimit="10" x1="180.186" y1="25.937" x2="180.186" y2="91.314"/>
<polyline fill="none" stroke="#000000" stroke-width="0.4381" stroke-linejoin="bevel" stroke-miterlimit="10" points="
	189.754,41.878 189.813,41.82 189.988,41.645 190.455,41.236 190.979,40.711 191.507,40.302 191.976,39.893 192.386,39.544 
	192.85,39.252 193.143,39.074 193.494,38.841 193.899,38.665 194.427,38.433 195.071,38.257 195.831,38.14 196.648,37.964 
	197.64,37.906 198.753,37.848 200.035,37.848 201.38,37.848 202.898,37.964 203.89,38.024 205.003,38.082 206.111,38.199 
	207.337,38.314 208.68,38.433 210.025,38.548 211.487,38.724 212.945,38.899 214.466,39.018 215.984,39.19 217.503,39.368 
	219.02,39.485 220.481,39.603 221.883,39.778 223.226,39.835 224.51,39.952 225.682,40.011 226.79,40.069 227.781,40.127 
	228.777,40.127 230.179,40.069 231.404,40.011 232.516,39.893 233.45,39.661 234.266,39.485 234.969,39.252 235.553,39.018 
	236.019,38.841 236.37,38.607 236.663,38.49 236.837,38.433 237.071,38.373 237.303,38.433 237.479,38.49 237.771,38.607 
	238.123,38.841 238.592,39.018 239.173,39.252 239.876,39.485 240.691,39.661 241.627,39.893 242.737,40.011 243.963,40.069 
	245.423,40.127 246.358,40.127 247.352,40.069 248.46,40.011 249.63,39.952 250.916,39.835 252.259,39.778 253.66,39.603 
	255.12,39.485 256.639,39.368 258.157,39.19 259.676,39.018 261.194,38.899 262.654,38.724 264.117,38.548 265.46,38.433 
	266.805,38.314 268.03,38.199 269.139,38.082 270.252,38.024 271.243,37.964 272.762,37.848 274.104,37.848 275.389,37.848 
	276.502,37.906 277.493,37.964 278.312,38.14 279.07,38.257 279.715,38.433 280.237,38.665 280.647,38.841 280.997,39.074 
	281.346,39.252 281.756,39.544 282.166,39.893 282.635,40.302 283.16,40.711 283.685,41.236 284.151,41.645 284.329,41.82 
	284.388,41.878 "/>
<path d="M266.047,44.877c0.702,0,1.196-0.116,1.483-0.348c0.287-0.231,0.449-0.519,0.485-0.862h1.16v7.121h-1.405v-4.927h-1.724
	V44.877z"/>
<path d="M198.096,49.231c0.274-0.441,0.802-0.949,1.582-1.523c0.646-0.473,1.051-0.831,1.214-1.072
	c0.164-0.242,0.245-0.491,0.245-0.749c0-0.288-0.083-0.532-0.25-0.735c-0.163-0.206-0.409-0.309-0.739-0.309
	c-0.359,0-0.61,0.113-0.754,0.338c-0.144,0.226-0.216,0.557-0.216,0.994h-1.405v-0.206c0-0.62,0.194-1.159,0.583-1.616
	c0.392-0.457,0.975-0.686,1.748-0.686c0.679,0,1.255,0.193,1.729,0.578c0.474,0.382,0.71,0.93,0.71,1.646
	c0,0.486-0.117,0.911-0.353,1.273c-0.231,0.359-0.691,0.777-1.381,1.254c-0.754,0.522-1.203,0.896-1.347,1.121h3.08v1.249h-4.857
	C197.685,50.19,197.821,49.671,198.096,49.231z"/>
<path d="M233.423,48.584c0.026,0.816,0.369,1.224,1.028,1.224c0.316,0,0.573-0.098,0.769-0.294c0.196-0.196,0.294-0.475,0.294-0.837
	c0-0.353-0.125-0.609-0.377-0.769c-0.248-0.164-0.661-0.245-1.239-0.245v-0.999h0.226c0.78,0,1.171-0.31,1.171-0.93
	c0-0.278-0.082-0.503-0.245-0.676c-0.163-0.177-0.391-0.265-0.681-0.265c-0.64,0-0.963,0.382-0.97,1.146h-1.273
	c0-0.702,0.201-1.255,0.603-1.66c0.404-0.408,0.977-0.612,1.714-0.612c0.676,0,1.225,0.173,1.646,0.519
	c0.421,0.346,0.632,0.823,0.632,1.43c0,0.637-0.292,1.104-0.877,1.4c0.731,0.301,1.098,0.852,1.098,1.655
	c0,0.663-0.226,1.207-0.676,1.631c-0.448,0.421-1.049,0.632-1.803,0.632c-0.79,0-1.386-0.199-1.787-0.598
	c-0.401-0.401-0.62-0.986-0.656-1.753H233.423z"/>
<polyline stroke="#000204" stroke-width="0.2835" stroke-miterlimit="10" points="188.035,71.258 196.066,63.225 195.984,63.143 
	187.953,71.176 "/>
<polyline stroke="#000204" stroke-width="0.2835" stroke-miterlimit="10" points="194.049,63.915 195.143,64.069 195.45,66.254 
	196.247,62.963 192.956,63.76 194.049,63.915 "/>
<polygon stroke="#000204" stroke-width="0.2835" stroke-miterlimit="10" points="194.049,63.915 195.143,64.069 195.45,66.254 
	196.247,62.963 192.956,63.76 194.049,63.915 194.049,63.915 192.956,63.76 196.247,62.963 195.45,66.254 195.143,64.069 
	194.049,63.915 "/>
<path stroke="#000204" stroke-width="0.2835" stroke-miterlimit="10" d="M195.353,70.626l0.408,0.407l0.081-0.081l-0.407-0.408
	L195.353,70.626z M194.68,69.954l0.408,0.407l0.082-0.081l-0.408-0.408L194.68,69.954z M194.008,69.281l0.407,0.407l0.082-0.081
	l-0.408-0.408L194.008,69.281z M193.335,68.608l0.407,0.407l0.082-0.081l-0.408-0.408L193.335,68.608z M192.662,67.935l0.407,0.407
	l0.082-0.081l-0.407-0.408L192.662,67.935z M191.989,67.262l0.407,0.407l0.082-0.081l-0.407-0.408L191.989,67.262z M191.316,66.589
	l0.408,0.407l0.081-0.081l-0.407-0.408L191.316,66.589z M190.644,65.917l0.408,0.407l0.081-0.081l-0.407-0.408L190.644,65.917z
	 M189.971,65.244l0.408,0.407l0.082-0.081l-0.408-0.408L189.971,65.244z M189.299,64.571l0.407,0.407l0.082-0.081l-0.408-0.408
	L189.299,64.571z M188.626,63.898l0.407,0.407l0.082-0.081l-0.408-0.408L188.626,63.898z M187.953,63.225l0.408,0.407l0.081-0.081
	l-0.407-0.408L187.953,63.225z"/>
<polyline stroke="#000204" stroke-width="0.2835" stroke-miterlimit="10" points="195.296,69.239 195.143,70.333 192.956,70.641 
	196.247,71.438 195.45,68.147 195.297,69.239 "/>
<polygon stroke="#000204" stroke-width="0.2835" stroke-miterlimit="10" points="195.296,69.239 195.143,70.333 192.956,70.641 
	196.247,71.438 195.45,68.147 195.297,69.239 195.297,69.239 195.45,68.147 196.247,71.438 192.956,70.641 195.143,70.333 
	195.296,69.239 "/>
<path d="M227.078,69.781c0.067,1.262,0.891,1.891,2.469,1.891c1.521,0,2.281-0.486,2.281-1.461c0-0.619-0.534-1.059-1.602-1.32
	l-2.82-0.719c-0.864-0.207-1.5-0.559-1.906-1.055c-0.406-0.494-0.609-1.152-0.609-1.977c0-1.051,0.378-1.91,1.133-2.578
	c0.755-0.666,1.847-1,3.273-1c1.313,0,2.364,0.32,3.156,0.961s1.229,1.57,1.313,2.789h-2.313c-0.172-1.176-0.938-1.766-2.297-1.766
	c-0.62,0-1.114,0.121-1.484,0.359c-0.364,0.24-0.547,0.568-0.547,0.984c0,0.303,0.094,0.555,0.281,0.758
	c0.192,0.203,0.5,0.357,0.922,0.461l2.797,0.688c1.151,0.277,1.94,0.664,2.367,1.164c0.433,0.5,0.648,1.154,0.648,1.961
	c0,1.109-0.396,2.012-1.188,2.703c-0.786,0.688-1.93,1.031-3.43,1.031c-1.401,0-2.544-0.328-3.43-0.984
	c-0.886-0.66-1.328-1.625-1.328-2.891H227.078z"/>
<polyline stroke="#000204" stroke-width="0.2835" stroke-miterlimit="10" points="236.771,71.898 244.802,63.865 244.72,63.783 
	236.688,71.816 "/>
<polyline stroke="#000204" stroke-width="0.2835" stroke-miterlimit="10" points="242.784,64.554 243.878,64.708 244.186,66.894 
	244.982,63.603 241.691,64.4 242.784,64.554 "/>
<polygon stroke="#000204" stroke-width="0.2835" stroke-miterlimit="10" points="242.784,64.554 243.878,64.708 244.186,66.894 
	244.982,63.603 241.691,64.4 242.784,64.554 242.784,64.554 241.691,64.4 244.982,63.603 244.186,66.894 243.878,64.708 
	242.784,64.554 "/>
<path stroke="#000204" stroke-width="0.2835" stroke-miterlimit="10" d="M244.088,71.265l0.408,0.408l0.081-0.082l-0.407-0.408
	L244.088,71.265z M243.415,70.593L243.823,71l0.082-0.08l-0.408-0.408L243.415,70.593z M242.743,69.919l0.407,0.408l0.082-0.082
	l-0.408-0.408L242.743,69.919z M242.07,69.248l0.407,0.406l0.082-0.08l-0.408-0.408L242.07,69.248z M241.397,68.574l0.407,0.408
	l0.082-0.082l-0.407-0.408L241.397,68.574z M240.725,67.902l0.407,0.406l0.082-0.08l-0.407-0.408L240.725,67.902z M240.052,67.228
	l0.408,0.408l0.081-0.082l-0.407-0.408L240.052,67.228z M239.379,66.556l0.408,0.406l0.081-0.08l-0.407-0.408L239.379,66.556z
	 M238.706,65.882l0.408,0.408l0.082-0.082l-0.408-0.408L238.706,65.882z M238.034,65.21l0.407,0.406l0.082-0.08l-0.408-0.408
	L238.034,65.21z M237.361,64.537l0.407,0.408l0.082-0.082l-0.408-0.408L237.361,64.537z M236.688,63.865l0.408,0.406l0.081-0.08
	l-0.407-0.408L236.688,63.865z"/>
<polyline stroke="#000204" stroke-width="0.2835" stroke-miterlimit="10" points="244.031,69.878 243.878,70.972 241.691,71.281 
	244.982,72.078 244.186,68.787 244.032,69.878 "/>
<polygon stroke="#000204" stroke-width="0.2835" stroke-miterlimit="10" points="244.031,69.878 243.878,70.972 241.691,71.281 
	244.982,72.078 244.186,68.787 244.032,69.878 244.032,69.878 244.186,68.787 244.982,72.078 241.691,71.281 243.878,70.972 
	244.031,69.878 "/>
<path fill="none" stroke="#000000" stroke-width="0.5572" stroke-miterlimit="10" d="M272.253,69.067
	c0.088-0.396,0.133-0.801,0.133-1.207c0-3.031-2.459-5.49-5.49-5.49c-3.029,0-5.488,2.459-5.488,5.49
	c0,1.018,0.281,2.014,0.814,2.879"/>
<polygon fill-rule="evenodd" clip-rule="evenodd" stroke="#000000" stroke-width="0.2786" stroke-miterlimit="10" points="
	262.729,67.384 261.911,71.917 260.501,67.533 262.729,67.384 "/>
<path d="M264.932,70.178c0.274-0.44,0.802-0.948,1.582-1.522c0.646-0.474,1.051-0.831,1.214-1.072
	c0.164-0.242,0.245-0.492,0.245-0.75c0-0.287-0.083-0.532-0.25-0.734c-0.163-0.206-0.409-0.309-0.739-0.309
	c-0.359,0-0.61,0.112-0.754,0.338s-0.216,0.557-0.216,0.994h-1.405v-0.205c0-0.621,0.194-1.159,0.583-1.616
	c0.392-0.457,0.975-0.686,1.748-0.686c0.679,0,1.255,0.192,1.729,0.577c0.474,0.382,0.71,0.931,0.71,1.646
	c0,0.486-0.117,0.911-0.353,1.273c-0.231,0.359-0.691,0.777-1.381,1.254c-0.754,0.522-1.203,0.896-1.347,1.121h3.08v1.249h-4.857
	C264.521,71.138,264.657,70.62,264.932,70.178z"/>
<path d="M275.427,73.427l3.758-5.883l-3.531-5.617h2.867l2.039,3.727l2.109-3.727h2.758l-3.516,5.477l3.742,6.023h-2.875
	l-2.211-3.906l-2.344,3.906H275.427z"/>
<path d="M292.651,76.783h-1.654c-0.102-0.387-0.155-0.813-0.162-1.273l-0.01-0.537c-0.006-0.359-0.086-0.613-0.238-0.768
	c-0.153-0.152-0.465-0.229-0.934-0.229h-1.572v2.807h-1.488v-7.188h3.666c0.69,0,1.242,0.188,1.656,0.563
	c0.413,0.371,0.619,0.873,0.619,1.508c0,0.811-0.372,1.375-1.117,1.689c0.403,0.16,0.655,0.379,0.756,0.66
	c0.102,0.279,0.152,0.717,0.152,1.313v0.289c0,0.273,0.018,0.49,0.053,0.654c0.039,0.158,0.131,0.266,0.273,0.316V76.783z
	 M291.021,71.812c0-0.637-0.352-0.957-1.055-0.957h-1.885v1.92h1.768C290.63,72.775,291.021,72.455,291.021,71.812z"/>
<polygon fill-rule="evenodd" clip-rule="evenodd" stroke="#000000" stroke-width="0.5572" stroke-miterlimit="10" points="
	329.141,41.539 325.882,44.745 330.255,43.456 329.141,41.539 "/>
<path fill="none" stroke="#000000" stroke-width="0.4523" stroke-miterlimit="10" stroke-dasharray="1.4173,1.4173" d="
	M328.972,43.148c9-8,20.5,9.5-7,28"/>
<rect x="309.713" y="68.89" fill="none" stroke="#000000" stroke-width="0.4647" stroke-miterlimit="10" width="8.364" height="8.364"/>
<path d="M311.628,71.202c0.586,0,0.998-0.097,1.238-0.29c0.239-0.193,0.374-0.434,0.404-0.719h0.968v5.938h-1.173v-4.108h-1.438
	V71.202z"/>
<path fill="none" stroke="#000000" stroke-width="0.4647" stroke-miterlimit="10" d="M318.245,46.166
	c0,2.31-1.875,4.183-4.183,4.183c-2.31,0-4.183-1.873-4.183-4.183c0-2.308,1.873-4.181,4.183-4.181
	C316.37,41.985,318.245,43.858,318.245,46.166L318.245,46.166z"/>
<path d="M312.237,44.106c0.586,0,0.998-0.097,1.237-0.29s0.374-0.433,0.404-0.719h0.968v5.938h-1.172v-4.109h-1.438V44.106z"/>
<path d="M329.596,53.231c0.274-0.441,0.802-0.949,1.582-1.523c0.646-0.473,1.051-0.831,1.214-1.072
	c0.164-0.242,0.245-0.491,0.245-0.749c0-0.288-0.083-0.532-0.25-0.735c-0.163-0.206-0.409-0.309-0.739-0.309
	c-0.359,0-0.61,0.113-0.754,0.338c-0.144,0.226-0.216,0.557-0.216,0.994h-1.405v-0.206c0-0.62,0.194-1.159,0.583-1.616
	c0.392-0.457,0.975-0.686,1.748-0.686c0.679,0,1.255,0.193,1.729,0.578c0.474,0.382,0.71,0.93,0.71,1.646
	c0,0.486-0.117,0.911-0.353,1.273c-0.231,0.359-0.691,0.777-1.381,1.254c-0.754,0.522-1.203,0.896-1.347,1.121h3.08v1.249h-4.857
	C329.185,54.19,329.321,53.671,329.596,53.231z"/>
<path d="M330.096,71.731c0.274-0.44,0.802-0.948,1.582-1.523c0.646-0.474,1.051-0.831,1.214-1.072
	c0.164-0.241,0.245-0.491,0.245-0.749c0-0.287-0.083-0.532-0.25-0.734c-0.163-0.206-0.409-0.309-0.739-0.309
	c-0.359,0-0.61,0.112-0.754,0.338c-0.144,0.225-0.216,0.557-0.216,0.994h-1.405v-0.206c0-0.62,0.194-1.159,0.583-1.616
	c0.392-0.457,0.975-0.686,1.748-0.686c0.679,0,1.255,0.193,1.729,0.578c0.474,0.382,0.71,0.93,0.71,1.646
	c0,0.486-0.117,0.911-0.353,1.272c-0.231,0.359-0.691,0.777-1.381,1.254c-0.754,0.523-1.203,0.896-1.347,1.121h3.08v1.25h-4.857
	C329.685,72.691,329.821,72.171,330.096,71.731z"/>
<polygon fill-rule="evenodd" clip-rule="evenodd" stroke="#000000" stroke-width="0.5572" stroke-miterlimit="10" points="
	328.141,80.267 324.882,77.06 329.255,78.349 328.141,80.267 "/>
<path fill="none" stroke="#000000" stroke-width="0.4523" stroke-miterlimit="10" d="M327.972,78.658c9,8,20.5-9.5-7-28"/>
<line fill="none" stroke="#000000" stroke-width="1.1019" stroke-miterlimit="10" x1="348.186" y1="26.437" x2="348.186" y2="91.814"/>
<rect x="354.245" y="37.177" fill="none" stroke="#000000" stroke-width="0.4514" stroke-miterlimit="10" width="8.125" height="8.125"/>
<path d="M356.605,39.415c0.568,0,0.97-0.094,1.202-0.282c0.232-0.188,0.363-0.42,0.393-0.698h0.94v5.769h-1.139v-3.991h-1.396
	V39.415z"/>
<rect x="367.282" y="69.66" fill="none" stroke="#000000" stroke-width="0.4514" stroke-miterlimit="10" width="8.125" height="8.127"/>
<path d="M369.582,75.459c0.222-0.356,0.648-0.769,1.281-1.233c0.523-0.384,0.852-0.674,0.983-0.869
	c0.133-0.195,0.198-0.398,0.198-0.607c0-0.232-0.067-0.431-0.202-0.595c-0.132-0.167-0.332-0.25-0.599-0.25
	c-0.291,0-0.495,0.091-0.611,0.274c-0.116,0.182-0.175,0.451-0.175,0.805h-1.139v-0.166c0-0.503,0.158-0.939,0.473-1.31
	c0.317-0.37,0.789-0.556,1.416-0.556c0.55,0,1.018,0.156,1.4,0.469c0.384,0.309,0.575,0.754,0.575,1.332
	c0,0.395-0.095,0.738-0.285,1.032c-0.188,0.291-0.561,0.63-1.119,1.016c-0.61,0.423-0.975,0.726-1.091,0.908h2.495v1.012h-3.936
	C369.248,76.238,369.359,75.817,369.582,75.459z"/>
<rect x="382.745" y="69.677" fill="none" stroke="#000000" stroke-width="0.4514" stroke-miterlimit="10" width="8.125" height="8.125"/>
<path d="M385.105,71.916c0.568,0,0.97-0.094,1.202-0.282c0.232-0.188,0.363-0.421,0.393-0.698h0.94v5.769h-1.139v-3.991h-1.396
	V71.916z"/>
<path fill="none" stroke="#000000" stroke-width="0.4514" stroke-miterlimit="10" d="M401.812,41.215
	c0,2.242-1.818,4.062-4.063,4.062c-2.242,0-4.063-1.82-4.063-4.062c0-2.242,1.82-4.063,4.063-4.063
	C399.993,37.152,401.812,38.974,401.812,41.215L401.812,41.215z"/>
<path d="M396.715,42.346c0.021,0.661,0.299,0.992,0.833,0.992c0.257,0,0.465-0.079,0.623-0.238c0.159-0.159,0.238-0.385,0.238-0.679
	c0-0.286-0.102-0.493-0.306-0.623c-0.201-0.132-0.535-0.199-1.004-0.199v-0.809h0.183c0.632,0,0.948-0.251,0.948-0.754
	c0-0.225-0.066-0.407-0.198-0.547c-0.132-0.143-0.316-0.214-0.552-0.214c-0.519,0-0.78,0.31-0.785,0.928h-1.031
	c0-0.568,0.162-1.017,0.487-1.345c0.328-0.331,0.791-0.496,1.389-0.496c0.548,0,0.992,0.141,1.333,0.421
	c0.342,0.28,0.512,0.667,0.512,1.158c0,0.516-0.236,0.894-0.71,1.135c0.593,0.243,0.889,0.69,0.889,1.341
	c0,0.537-0.183,0.978-0.547,1.321c-0.363,0.341-0.85,0.512-1.46,0.512c-0.641,0-1.123-0.162-1.448-0.484
	c-0.325-0.326-0.503-0.799-0.532-1.42H396.715z"/>
<path fill="none" stroke="#000000" stroke-width="0.4514" stroke-miterlimit="10" d="M419.37,73.657c0,2.243-1.82,4.063-4.063,4.063
	s-4.063-1.82-4.063-4.063c0-2.241,1.82-4.062,4.063-4.062S419.37,71.416,419.37,73.657L419.37,73.657z"/>
<path d="M413.388,71.643c0.591,0,1.008-0.094,1.25-0.282c0.242-0.188,0.378-0.42,0.408-0.698h0.979v5.773h-1.185v-3.995h-1.452
	V71.643z"/>
<path fill="none" stroke="#000000" stroke-width="0.4514" stroke-linejoin="bevel" stroke-miterlimit="10" d="M434.407,41.716
	c0,2.242-1.82,4.063-4.063,4.063c-2.244,0-4.063-1.821-4.063-4.063c0-2.242,1.818-4.063,4.063-4.063
	C432.587,37.653,434.407,39.474,434.407,41.716L434.407,41.716z"/>
<path d="M428.675,43.118c0.222-0.357,0.648-0.768,1.281-1.234c0.523-0.383,0.852-0.673,0.983-0.869
	c0.133-0.196,0.198-0.398,0.198-0.607c0-0.233-0.067-0.431-0.202-0.595c-0.132-0.167-0.332-0.25-0.599-0.25
	c-0.291,0-0.495,0.091-0.611,0.274s-0.175,0.451-0.175,0.805h-1.139v-0.167c0-0.502,0.158-0.939,0.473-1.309
	c0.317-0.37,0.789-0.556,1.416-0.556c0.55,0,1.018,0.156,1.4,0.468c0.384,0.31,0.575,0.754,0.575,1.333
	c0,0.394-0.095,0.738-0.285,1.032c-0.188,0.291-0.561,0.629-1.119,1.016c-0.61,0.423-0.975,0.726-1.091,0.908h2.495v1.012h-3.936
	C428.341,43.896,428.452,43.476,428.675,43.118z"/>
<path fill="none" stroke="#000000" stroke-width="0.4514" stroke-miterlimit="10" d="M449.37,41.657c0,2.244-1.82,4.063-4.063,4.063
	s-4.063-1.82-4.063-4.063c0-2.242,1.82-4.062,4.063-4.062S449.37,39.415,449.37,41.657L449.37,41.657z"/>
<path d="M443.388,39.643c0.591,0,1.008-0.094,1.25-0.282s0.378-0.421,0.408-0.699h0.979v5.773h-1.185v-3.995h-1.452V39.643z"/>
<rect x="455.187" y="69.705" fill="none" stroke="#000000" stroke-width="0.4514" stroke-miterlimit="10" width="8.127" height="8.124"/>
<path d="M458.162,74.892c0.021,0.66,0.299,0.991,0.833,0.991c0.257,0,0.465-0.079,0.623-0.237c0.159-0.159,0.238-0.386,0.238-0.68
	c0-0.285-0.102-0.492-0.306-0.622c-0.201-0.132-0.535-0.198-1.004-0.198v-0.81h0.183c0.632,0,0.948-0.251,0.948-0.754
	c0-0.225-0.066-0.407-0.198-0.548c-0.132-0.143-0.316-0.214-0.552-0.214c-0.519,0-0.78,0.31-0.785,0.929h-1.031
	c0-0.568,0.162-1.018,0.487-1.346c0.328-0.33,0.791-0.496,1.389-0.496c0.548,0,0.992,0.141,1.333,0.422
	c0.342,0.279,0.512,0.666,0.512,1.158c0,0.516-0.236,0.894-0.71,1.135c0.593,0.242,0.889,0.689,0.889,1.34
	c0,0.537-0.183,0.979-0.547,1.322c-0.363,0.34-0.85,0.512-1.46,0.512c-0.641,0-1.123-0.162-1.448-0.484
	c-0.325-0.326-0.503-0.799-0.532-1.42H458.162z"/>
<path d="M357.927,63.427l3.758-5.883l-3.531-5.617h2.867l2.039,3.727l2.109-3.727h2.758l-3.516,5.477l3.742,6.024h-2.875
	l-2.211-3.906l-2.344,3.906H357.927z"/>
<path d="M369.093,59.595h1.488v5.928h3.594v1.26h-5.082V59.595z"/>
<path d="M384.427,63.427l3.758-5.883l-3.531-5.617h2.867l2.039,3.727l2.109-3.727h2.758l-3.516,5.477l3.742,6.024h-2.875
	l-2.211-3.906l-2.344,3.906H384.427z"/>
<path d="M401.651,66.783h-1.654c-0.102-0.387-0.155-0.813-0.162-1.273l-0.01-0.537c-0.006-0.359-0.086-0.613-0.238-0.768
	c-0.153-0.152-0.465-0.229-0.934-0.229h-1.572v2.807h-1.488v-7.188h3.666c0.69,0,1.242,0.188,1.656,0.563
	c0.413,0.371,0.619,0.873,0.619,1.508c0,0.811-0.372,1.375-1.117,1.689c0.403,0.16,0.655,0.379,0.756,0.66
	c0.102,0.279,0.152,0.717,0.152,1.313v0.289c0,0.273,0.018,0.49,0.053,0.654c0.039,0.158,0.131,0.266,0.273,0.316V66.783z
	 M400.021,61.812c0-0.637-0.352-0.957-1.055-0.957h-1.885v1.92h1.768C399.63,62.775,400.021,62.455,400.021,61.812z"/>
<path d="M414.927,63.427l3.758-5.883l-3.531-5.617h2.867l2.039,3.727l2.109-3.727h2.758l-3.516,5.477l3.742,6.024h-2.875
	l-2.211-3.906l-2.344,3.906H414.927z"/>
<path d="M432.151,66.783h-1.654c-0.102-0.387-0.155-0.813-0.162-1.273l-0.01-0.537c-0.006-0.359-0.086-0.613-0.238-0.768
	c-0.153-0.152-0.465-0.229-0.934-0.229h-1.572v2.807h-1.488v-7.188h3.666c0.69,0,1.242,0.188,1.656,0.563
	c0.413,0.371,0.619,0.873,0.619,1.508c0,0.811-0.372,1.375-1.117,1.689c0.403,0.16,0.655,0.379,0.756,0.66
	c0.102,0.279,0.152,0.717,0.152,1.313v0.289c0,0.273,0.018,0.49,0.053,0.654c0.039,0.158,0.131,0.266,0.273,0.316V66.783z
	 M430.521,61.812c0-0.637-0.352-0.957-1.055-0.957h-1.885v1.92h1.768C430.13,62.775,430.521,62.455,430.521,61.812z"/>
<path d="M444.427,63.427l3.758-5.883l-3.531-5.617h2.867l2.039,3.727l2.109-3.727h2.758l-3.516,5.477l3.742,6.024h-2.875
	l-2.211-3.906l-2.344,3.906H444.427z"/>
<path d="M455.593,59.595h1.488v5.928h3.594v1.26h-5.082V59.595z"/>
<line fill="none" stroke="#000000" stroke-width="0.3813" stroke-miterlimit="10" x1="12.988" y1="55.647" x2="24.988" y2="55.647"/>
<polyline fill-rule="evenodd" clip-rule="evenodd" points="21.472,54.648 25.472,55.647 21.472,56.648 21.472,54.648 "/>
<polygon fill="none" stroke="#000000" stroke-width="0.5" stroke-miterlimit="10" points="21.472,54.648 25.472,55.647 
	21.472,56.648 "/>
<line fill="none" stroke="#000000" stroke-width="0.3813" stroke-miterlimit="10" x1="45.972" y1="65.148" x2="45.972" y2="56.148"/>
<polyline fill-rule="evenodd" clip-rule="evenodd" points="44.973,59.664 45.972,55.664 46.973,59.664 44.973,59.664 "/>
<polygon fill="none" stroke="#000000" stroke-width="0.5" stroke-miterlimit="10" points="44.973,59.664 45.972,55.664 
	46.973,59.664 "/>
<path d="M12.611,79.765c-0.185,0.424-0.278,1.013-0.278,1.767c0,0.594,0.079,1.1,0.235,1.518c0.154,0.416,0.459,0.805,0.914,1.166
	l-0.059,0.104c-1.115-0.68-1.672-1.625-1.672-2.838c0-1.175,0.55-2.135,1.649-2.879l0.082,0.117
	C13.086,78.993,12.795,79.34,12.611,79.765z"/>
<path d="M13.724,83.134v-0.102c0.169-0.025,0.289-0.067,0.359-0.124c0.07-0.059,0.104-0.181,0.104-0.365v-1.652
	c0-0.274-0.075-0.411-0.225-0.411c-0.083,0-0.162,0.009-0.238,0.026v-0.102c0.324-0.115,0.655-0.236,0.992-0.362l0.033,0.02v0.607
	c0.279-0.418,0.543-0.627,0.793-0.627c0.109,0,0.195,0.031,0.258,0.095c0.065,0.063,0.098,0.158,0.098,0.284
	c0,0.098-0.026,0.173-0.079,0.226c-0.052,0.05-0.111,0.074-0.176,0.074c-0.094,0-0.176-0.042-0.248-0.127
	c-0.072-0.087-0.141-0.131-0.206-0.131c-0.083,0-0.178,0.064-0.284,0.193c-0.104,0.128-0.157,0.245-0.157,0.353v1.479
	c0,0.202,0.036,0.34,0.108,0.411c0.074,0.072,0.229,0.117,0.463,0.134v0.102H13.724z"/>
<path d="M16.143,83.134v-0.102c0.159-0.009,0.275-0.041,0.35-0.098c0.076-0.059,0.114-0.218,0.114-0.477v-1.587
	c0-0.144-0.018-0.245-0.052-0.304c-0.033-0.059-0.082-0.088-0.147-0.088c-0.042,0-0.081,0.002-0.118,0.007
	c-0.037,0.004-0.086,0.011-0.147,0.02v-0.102c0.335-0.113,0.668-0.233,0.999-0.362l0.026,0.02v2.396
	c0,0.232,0.032,0.384,0.098,0.454c0.067,0.067,0.189,0.107,0.366,0.12v0.102H16.143z M16.493,78.917
	c0-0.092,0.032-0.171,0.098-0.238c0.067-0.067,0.149-0.102,0.245-0.102c0.093,0,0.174,0.032,0.241,0.098s0.102,0.142,0.102,0.229
	c0,0.109-0.034,0.196-0.102,0.262c-0.067,0.063-0.15,0.095-0.248,0.095c-0.096,0-0.176-0.033-0.242-0.099
	C16.524,79.093,16.493,79.012,16.493,78.917z"/>
<path d="M20.917,80.264v0.262h-0.555c0.083,0.193,0.124,0.399,0.124,0.617c0,0.296-0.113,0.534-0.339,0.715
	c-0.224,0.179-0.468,0.268-0.731,0.268c-0.091,0-0.171-0.004-0.238-0.013s-0.114-0.014-0.14-0.014c-0.063,0-0.143,0.055-0.238,0.163
	c-0.094,0.109-0.141,0.195-0.141,0.258c0,0.044,0.037,0.084,0.111,0.121c0.074,0.037,0.213,0.061,0.418,0.068l0.859,0.04
	c0.274,0.015,0.477,0.089,0.607,0.222c0.133,0.133,0.199,0.299,0.199,0.499c0,0.315-0.185,0.583-0.555,0.8
	c-0.37,0.218-0.754,0.327-1.153,0.327c-0.354,0-0.642-0.064-0.862-0.193c-0.218-0.128-0.327-0.279-0.327-0.453
	c0-0.235,0.227-0.509,0.679-0.819c-0.146-0.048-0.246-0.103-0.3-0.164c-0.054-0.063-0.082-0.134-0.082-0.212
	c0-0.076,0.036-0.158,0.108-0.248c0.074-0.089,0.229-0.248,0.467-0.477c-0.4-0.179-0.601-0.468-0.601-0.868
	c0-0.34,0.11-0.61,0.33-0.813c0.22-0.204,0.492-0.307,0.816-0.307c0.12,0,0.234,0.016,0.343,0.046
	c0.111,0.028,0.211,0.063,0.301,0.104c0.063,0.026,0.131,0.045,0.206,0.056c0.076,0.011,0.151,0.016,0.225,0.016H20.917z
	 M18.739,83.151c-0.213,0.232-0.32,0.43-0.32,0.591c0,0.131,0.086,0.242,0.258,0.336c0.174,0.092,0.428,0.138,0.761,0.138
	c0.368,0,0.665-0.063,0.891-0.187c0.227-0.126,0.34-0.282,0.34-0.467c0-0.126-0.053-0.208-0.16-0.245
	c-0.106-0.037-0.328-0.063-0.663-0.078c-0.122-0.005-0.296-0.011-0.522-0.02C19.099,83.21,18.904,83.188,18.739,83.151z
	 M18.762,80.81c0,0.315,0.058,0.583,0.173,0.803c0.116,0.218,0.29,0.326,0.522,0.326c0.329,0,0.493-0.209,0.493-0.626
	c0-0.271-0.062-0.519-0.186-0.745c-0.124-0.226-0.29-0.339-0.497-0.339c-0.148,0-0.27,0.05-0.365,0.149
	C18.809,80.479,18.762,80.623,18.762,80.81z"/>
<path d="M21.135,83.033c0.183-0.025,0.306-0.068,0.369-0.127c0.063-0.061,0.095-0.21,0.095-0.447v-3.213
	c0-0.154-0.031-0.246-0.092-0.274c-0.059-0.03-0.141-0.045-0.248-0.045c-0.039,0-0.081,0.002-0.124,0.006v-0.101
	c0.429-0.106,0.76-0.205,0.993-0.294l0.033,0.017v2.063c0.285-0.383,0.611-0.574,0.979-0.574c0.531,0,0.796,0.354,0.796,1.062v1.406
	c0,0.198,0.034,0.331,0.101,0.398c0.07,0.065,0.19,0.107,0.362,0.124v0.102h-1.482v-0.102c0.17-0.021,0.288-0.065,0.356-0.13
	c0.067-0.065,0.101-0.214,0.101-0.444v-1.332c0-0.481-0.169-0.722-0.506-0.722c-0.211,0-0.447,0.143-0.708,0.428v1.573
	c0,0.266,0.035,0.434,0.104,0.503c0.069,0.07,0.187,0.111,0.353,0.124v0.102h-1.482V83.033z"/>
<path d="M25.435,79.216c0.013,0,0.023,0.007,0.029,0.02c0.007,0.011,0.01,0.045,0.01,0.102v0.768h0.679v0.215h-0.679v1.927
	c0,0.402,0.111,0.604,0.333,0.604c0.078,0,0.154-0.021,0.229-0.062c0.074-0.044,0.136-0.1,0.186-0.167l0.088,0.075
	c-0.074,0.133-0.184,0.249-0.33,0.35c-0.144,0.1-0.297,0.15-0.46,0.15c-0.405,0-0.607-0.292-0.607-0.875V80.32h-0.284
	c-0.063,0-0.095-0.017-0.095-0.049c0-0.026,0.026-0.058,0.078-0.095c0.174-0.117,0.324-0.264,0.451-0.438
	C25.191,79.563,25.315,79.388,25.435,79.216z"/>
<path d="M28.007,83.033c0.183-0.025,0.306-0.068,0.369-0.127c0.063-0.061,0.095-0.21,0.095-0.447v-3.213
	c0-0.154-0.031-0.246-0.092-0.274c-0.059-0.03-0.141-0.045-0.248-0.045c-0.039,0-0.081,0.002-0.124,0.006v-0.101
	c0.429-0.106,0.76-0.205,0.993-0.294l0.033,0.017v2.063c0.285-0.383,0.611-0.574,0.979-0.574c0.531,0,0.796,0.354,0.796,1.062v1.406
	c0,0.198,0.034,0.331,0.101,0.398c0.07,0.065,0.19,0.107,0.362,0.124v0.102H29.79v-0.102c0.17-0.021,0.288-0.065,0.356-0.13
	c0.067-0.065,0.101-0.214,0.101-0.444v-1.332c0-0.481-0.169-0.722-0.506-0.722c-0.211,0-0.447,0.143-0.708,0.428v1.573
	c0,0.266,0.035,0.434,0.104,0.503c0.069,0.07,0.187,0.111,0.353,0.124v0.102h-1.482V83.033z"/>
<path d="M33.211,81.163v-0.389c0-0.363-0.165-0.545-0.496-0.545c-0.124,0-0.234,0.031-0.33,0.095
	c-0.096,0.061-0.144,0.135-0.144,0.222c0,0.032,0.005,0.074,0.016,0.124c0.013,0.048,0.02,0.094,0.02,0.137
	c0,0.083-0.029,0.15-0.088,0.203c-0.059,0.052-0.127,0.078-0.206,0.078c-0.089,0-0.161-0.026-0.215-0.078
	c-0.052-0.055-0.078-0.127-0.078-0.216c0-0.179,0.094-0.349,0.284-0.51c0.191-0.16,0.452-0.241,0.78-0.241
	c0.353,0,0.611,0.075,0.774,0.226c0.163,0.149,0.245,0.417,0.245,0.8v1.358c0,0.139,0.014,0.238,0.042,0.297
	c0.028,0.057,0.076,0.085,0.144,0.085c0.056,0,0.11-0.011,0.16-0.033c0.052-0.021,0.101-0.056,0.147-0.101v0.183
	c-0.115,0.124-0.219,0.212-0.31,0.265c-0.089,0.05-0.188,0.075-0.294,0.075c-0.276,0-0.423-0.157-0.441-0.471
	c-0.348,0.313-0.665,0.471-0.95,0.471c-0.207,0-0.377-0.066-0.509-0.199c-0.131-0.136-0.196-0.296-0.196-0.483
	c0-0.34,0.148-0.604,0.444-0.79C32.308,81.535,32.709,81.347,33.211,81.163z M33.211,81.323c-0.42,0.156-0.702,0.309-0.845,0.457
	c-0.142,0.146-0.212,0.31-0.212,0.492c0,0.161,0.042,0.291,0.124,0.389c0.085,0.099,0.187,0.147,0.307,0.147
	c0.108,0,0.209-0.021,0.3-0.063c0.093-0.043,0.172-0.095,0.235-0.153c0.026-0.021,0.048-0.049,0.065-0.082
	c0.018-0.034,0.026-0.104,0.026-0.209V81.323z"/>
<path d="M34.36,83.033c0.155-0.004,0.27-0.034,0.346-0.091c0.078-0.059,0.118-0.186,0.118-0.379v-1.639
	c0-0.194-0.021-0.315-0.062-0.366c-0.042-0.052-0.103-0.078-0.183-0.078c-0.065,0-0.138,0.009-0.219,0.026v-0.102
	c0.461-0.161,0.783-0.281,0.963-0.362l0.045,0.013v0.51c0.224-0.202,0.404-0.34,0.539-0.411c0.137-0.074,0.287-0.111,0.447-0.111
	c0.244,0,0.439,0.087,0.584,0.261c0.148,0.173,0.222,0.417,0.222,0.735v1.524c0,0.188,0.037,0.312,0.111,0.372
	c0.076,0.059,0.194,0.092,0.353,0.098v0.102h-1.482v-0.102c0.135-0.004,0.245-0.039,0.33-0.104c0.085-0.064,0.127-0.222,0.127-0.47
	V81.12c0-0.27-0.045-0.456-0.134-0.558c-0.087-0.104-0.218-0.157-0.392-0.157c-0.106,0-0.214,0.03-0.323,0.092
	c-0.106,0.061-0.229,0.152-0.365,0.274v1.896c0,0.235,0.152,0.356,0.457,0.365v0.102H34.36V83.033z"/>
<path d="M39.937,83.197l-0.033-0.021v-0.397c-0.203,0.278-0.491,0.418-0.865,0.418c-0.34,0-0.629-0.127-0.869-0.379
	c-0.237-0.255-0.356-0.626-0.356-1.113c0-0.462,0.134-0.854,0.402-1.176c0.27-0.324,0.602-0.486,0.996-0.486
	c0.257,0,0.488,0.104,0.692,0.313v-1.058c0-0.159-0.025-0.261-0.075-0.304c-0.05-0.046-0.136-0.068-0.258-0.068
	c-0.048,0-0.092,0.002-0.131,0.006v-0.101c0.39-0.092,0.715-0.189,0.976-0.294l0.049,0.017v3.882c0,0.13,0.028,0.216,0.085,0.258
	c0.059,0.041,0.137,0.062,0.235,0.062c0.05,0,0.098-0.002,0.144-0.006v0.101L39.937,83.197z M39.904,82.413v-1.485
	c0-0.176-0.064-0.334-0.193-0.474c-0.128-0.142-0.292-0.212-0.493-0.212c-0.24,0-0.436,0.105-0.588,0.316s-0.229,0.518-0.229,0.918
	c0,0.398,0.08,0.727,0.238,0.985c0.159,0.26,0.384,0.389,0.676,0.389c0.161,0,0.299-0.045,0.415-0.134
	C39.847,82.627,39.904,82.526,39.904,82.413z"/>
<path d="M41.318,82.099h0.104c0.063,0.324,0.165,0.563,0.304,0.715c0.142,0.152,0.331,0.229,0.568,0.229
	c0.148,0,0.274-0.043,0.379-0.13c0.106-0.087,0.16-0.204,0.16-0.35c0-0.159-0.063-0.287-0.189-0.386
	c-0.124-0.1-0.294-0.207-0.509-0.323c-0.301-0.16-0.512-0.317-0.634-0.47c-0.122-0.154-0.183-0.333-0.183-0.535
	c0-0.223,0.085-0.411,0.255-0.568c0.169-0.159,0.392-0.238,0.666-0.238c0.113,0,0.234,0.022,0.362,0.068
	c0.128,0.044,0.211,0.065,0.248,0.065c0.035,0,0.073-0.024,0.114-0.075h0.072l0.026,0.934h-0.098
	c-0.12-0.559-0.364-0.839-0.731-0.839c-0.166,0-0.291,0.047-0.375,0.141s-0.127,0.191-0.127,0.294c0,0.163,0.053,0.289,0.16,0.379
	c0.109,0.089,0.306,0.215,0.591,0.378c0.307,0.173,0.52,0.32,0.637,0.444c0.12,0.122,0.18,0.286,0.18,0.493
	c0,0.259-0.097,0.469-0.291,0.63c-0.191,0.161-0.42,0.242-0.686,0.242c-0.103,0-0.241-0.021-0.415-0.06
	c-0.174-0.041-0.292-0.062-0.353-0.062c-0.067,0-0.116,0.027-0.146,0.081h-0.088V82.099z"/>
<path d="M43.773,78.72l0.082-0.117c1.099,0.744,1.649,1.704,1.649,2.879c0,1.213-0.557,2.158-1.671,2.838l-0.059-0.104
	c0.455-0.361,0.76-0.75,0.914-1.166c0.157-0.418,0.235-0.924,0.235-1.518c0-0.754-0.093-1.343-0.278-1.767
	C44.459,79.34,44.169,78.993,43.773,78.72z"/>
<path d="M392.18,101.425c0.009,0.455,0.119,0.802,0.33,1.042c0.213,0.237,0.549,0.356,1.006,0.356c0.384,0,0.712-0.103,0.984-0.309
	c0.275-0.207,0.413-0.512,0.413-0.914c0-0.348-0.117-0.623-0.352-0.826c-0.234-0.201-0.586-0.303-1.055-0.303
	c-0.1,0-0.252,0.004-0.457,0.014v-0.69c0.202,0.015,0.328,0.022,0.378,0.022c0.826,0,1.239-0.345,1.239-1.033
	c0-0.319-0.104-0.574-0.312-0.765c-0.206-0.19-0.488-0.286-0.849-0.286c-0.393,0-0.688,0.11-0.884,0.33s-0.307,0.553-0.334,0.998
	h-0.777c0.003-0.643,0.174-1.142,0.514-1.499c0.344-0.36,0.854-0.54,1.534-0.54c0.589,0,1.061,0.156,1.415,0.47
	c0.357,0.311,0.536,0.723,0.536,1.235c0,0.676-0.276,1.117-0.831,1.322c0.401,0.144,0.682,0.337,0.84,0.58
	c0.158,0.24,0.237,0.538,0.237,0.893c0,0.598-0.202,1.082-0.606,1.454s-0.946,0.558-1.626,0.558c-0.621,0-1.124-0.155-1.507-0.465
	c-0.382-0.313-0.6-0.861-0.655-1.645H392.18z"/>
<path d="M401.36,101.008h0.849c-0.15,0.844-0.468,1.477-0.954,1.898s-1.112,0.633-1.876,0.633c-0.877,0-1.582-0.305-2.119-0.914
	c-0.535-0.612-0.804-1.441-0.804-2.487c0-1.034,0.272-1.859,0.817-2.475c0.548-0.617,1.289-0.927,2.224-0.927
	c0.706,0,1.289,0.176,1.749,0.527c0.463,0.349,0.76,0.876,0.893,1.582h-0.849c-0.226-0.896-0.825-1.345-1.798-1.345
	c-0.636,0-1.15,0.228-1.547,0.682c-0.393,0.454-0.588,1.113-0.588,1.977c0,0.798,0.176,1.434,0.527,1.908
	c0.352,0.472,0.874,0.707,1.568,0.707c0.504,0,0.915-0.149,1.234-0.448C401.01,102.025,401.234,101.585,401.36,101.008z"/>
<path d="M402.411,103.54l2.215-6.803h0.598l-2.215,6.803H402.411z"/>
<path d="M406.186,101.425c0.009,0.455,0.119,0.802,0.33,1.042c0.213,0.237,0.549,0.356,1.006,0.356c0.384,0,0.712-0.103,0.984-0.309
	c0.275-0.207,0.413-0.512,0.413-0.914c0-0.348-0.117-0.623-0.352-0.826c-0.234-0.201-0.586-0.303-1.055-0.303
	c-0.1,0-0.252,0.004-0.457,0.014v-0.69c0.202,0.015,0.328,0.022,0.378,0.022c0.826,0,1.239-0.345,1.239-1.033
	c0-0.319-0.104-0.574-0.312-0.765c-0.206-0.19-0.488-0.286-0.849-0.286c-0.393,0-0.688,0.11-0.884,0.33s-0.307,0.553-0.334,0.998
	h-0.777c0.003-0.643,0.174-1.142,0.514-1.499c0.344-0.36,0.854-0.54,1.534-0.54c0.589,0,1.061,0.156,1.415,0.47
	c0.357,0.311,0.536,0.723,0.536,1.235c0,0.676-0.276,1.117-0.831,1.322c0.401,0.144,0.682,0.337,0.84,0.58
	c0.158,0.24,0.237,0.538,0.237,0.893c0,0.598-0.202,1.082-0.606,1.454s-0.946,0.558-1.626,0.558c-0.621,0-1.124-0.155-1.507-0.465
	c-0.382-0.313-0.6-0.861-0.655-1.645H406.186z"/>
<path d="M415.366,101.008h0.849c-0.15,0.844-0.468,1.477-0.954,1.898s-1.112,0.633-1.876,0.633c-0.877,0-1.582-0.305-2.119-0.914
	c-0.535-0.612-0.804-1.441-0.804-2.487c0-1.034,0.272-1.859,0.817-2.475c0.548-0.617,1.289-0.927,2.224-0.927
	c0.706,0,1.289,0.176,1.749,0.527c0.463,0.349,0.76,0.876,0.893,1.582h-0.849c-0.226-0.896-0.825-1.345-1.798-1.345
	c-0.636,0-1.15,0.228-1.547,0.682c-0.393,0.454-0.588,1.113-0.588,1.977c0,0.798,0.176,1.434,0.527,1.908
	c0.352,0.472,0.874,0.707,1.568,0.707c0.504,0,0.915-0.149,1.234-0.448C415.016,102.025,415.24,101.585,415.366,101.008z"/>
<path d="M419.673,103.373v-6.469h0.791v6.469H419.673z"/>
<path d="M421.374,101.035c0-0.747,0.2-1.354,0.603-1.819c0.4-0.469,0.934-0.703,1.6-0.703c0.641,0,1.168,0.228,1.582,0.681
	c0.412,0.455,0.619,1.063,0.619,1.824c0,0.718-0.199,1.315-0.598,1.793c-0.398,0.475-0.928,0.712-1.586,0.712
	c-0.648,0-1.18-0.229-1.596-0.686C421.582,102.376,421.374,101.776,421.374,101.035z M422.191,101.017
	c0,0.513,0.119,0.942,0.355,1.287c0.24,0.347,0.583,0.52,1.029,0.52c0.387,0,0.713-0.151,0.979-0.453
	c0.27-0.305,0.404-0.756,0.404-1.354c0-0.513-0.117-0.941-0.352-1.287s-0.579-0.52-1.032-0.52c-0.411,0-0.745,0.156-1.002,0.467
	C422.318,99.988,422.191,100.434,422.191,101.017z"/>
<path d="M426.652,103.373v-4.711h0.742v0.694c0.396-0.563,0.893-0.844,1.49-0.844c0.504,0,0.894,0.149,1.169,0.448
	c0.275,0.296,0.413,0.697,0.413,1.204v3.208h-0.791v-2.927c0-0.475-0.084-0.798-0.25-0.972c-0.165-0.176-0.409-0.264-0.734-0.264
	c-0.369,0-0.67,0.139-0.9,0.414c-0.232,0.275-0.348,0.663-0.348,1.164v2.584H426.652z"/>
<path d="M431.579,103.909h0.791c0.103,0.478,0.458,0.716,1.067,0.716c0.442,0,0.775-0.112,0.998-0.338s0.334-0.606,0.334-1.143
	v-0.313c-0.284,0.461-0.714,0.69-1.287,0.69c-0.619,0-1.114-0.237-1.486-0.712s-0.558-1.111-0.558-1.912
	c0-0.688,0.171-1.258,0.515-1.709c0.342-0.451,0.818-0.677,1.428-0.677c0.319,0,0.59,0.067,0.813,0.202
	c0.223,0.132,0.432,0.338,0.625,0.619v-0.672h0.742v4.289c0,0.882-0.185,1.497-0.554,1.846c-0.369,0.346-0.905,0.519-1.608,0.519
	c-0.498,0-0.908-0.107-1.23-0.321C431.849,104.777,431.652,104.416,431.579,103.909z M432.256,100.933
	c0,0.593,0.111,1.055,0.334,1.389c0.226,0.334,0.536,0.502,0.932,0.502c0.407,0,0.722-0.151,0.945-0.453
	c0.225-0.302,0.338-0.725,0.338-1.27c0-1.26-0.436-1.891-1.305-1.891C432.67,99.21,432.256,99.786,432.256,100.933z"/>
<path d="M436.207,98.662h0.865l0.879,3.735l0.928-3.735h0.879l0.953,3.735l0.928-3.735h0.791l-1.336,4.711h-0.817l-0.989-3.66
	l-0.927,3.66h-0.817L436.207,98.662z"/>
<path d="M443.19,96.913h0.791v0.905h-0.791V96.913z M443.19,98.662h0.791v4.711h-0.791V98.662z"/>
<path d="M445.635,101.905c0.022,0.612,0.429,0.919,1.217,0.919c0.343,0,0.612-0.066,0.809-0.198
	c0.199-0.135,0.299-0.321,0.299-0.558c0-0.17-0.066-0.305-0.197-0.404c-0.133-0.091-0.379-0.182-0.738-0.273l-0.924-0.229
	c-0.729-0.176-1.094-0.563-1.094-1.164c0-0.431,0.155-0.785,0.466-1.063c0.313-0.281,0.761-0.422,1.341-0.422
	c0.506,0,0.919,0.122,1.238,0.364c0.319,0.244,0.498,0.614,0.537,1.112h-0.778c-0.038-0.519-0.395-0.778-1.067-0.778
	c-0.64,0-0.959,0.225-0.959,0.673c0,0.196,0.075,0.334,0.225,0.413c0.149,0.076,0.358,0.146,0.629,0.211l0.781,0.197
	c0.478,0.123,0.816,0.277,1.016,0.462c0.202,0.193,0.303,0.457,0.303,0.791c0,0.463-0.165,0.839-0.496,1.13
	c-0.328,0.289-0.805,0.435-1.428,0.435c-0.578,0-1.041-0.122-1.389-0.364c-0.35-0.243-0.538-0.661-0.567-1.253H445.635z"/>
<path d="M450.262,101.263c0,0.492,0.111,0.876,0.334,1.151c0.226,0.272,0.563,0.409,1.011,0.409
	c0.319-0.003,0.598-0.094,0.835-0.273c0.24-0.181,0.383-0.396,0.426-0.646h0.778c-0.103,0.495-0.325,0.89-0.668,1.183
	c-0.343,0.289-0.793,0.435-1.349,0.435c-0.663,0-1.193-0.208-1.592-0.624c-0.395-0.416-0.593-1.017-0.593-1.802
	c0-0.759,0.193-1.378,0.58-1.858c0.39-0.484,0.935-0.726,1.635-0.726c0.659,0,1.16,0.228,1.503,0.681
	c0.346,0.452,0.527,1.142,0.545,2.07H450.262z M450.262,100.639h2.628c-0.056-0.524-0.19-0.894-0.404-1.107s-0.504-0.321-0.87-0.321
	c-0.387,0-0.703,0.133-0.949,0.396C450.42,99.868,450.285,100.211,450.262,100.639z"/>
<path d="M457.641,101.905c0.022,0.612,0.429,0.919,1.217,0.919c0.343,0,0.612-0.066,0.809-0.198
	c0.199-0.135,0.299-0.321,0.299-0.558c0-0.17-0.066-0.305-0.197-0.404c-0.133-0.091-0.379-0.182-0.738-0.273l-0.924-0.229
	c-0.729-0.176-1.094-0.563-1.094-1.164c0-0.431,0.155-0.785,0.466-1.063c0.313-0.281,0.761-0.422,1.341-0.422
	c0.506,0,0.919,0.122,1.238,0.364c0.319,0.244,0.498,0.614,0.537,1.112h-0.778c-0.038-0.519-0.395-0.778-1.067-0.778
	c-0.64,0-0.959,0.225-0.959,0.673c0,0.196,0.075,0.334,0.225,0.413c0.149,0.076,0.358,0.146,0.629,0.211l0.781,0.197
	c0.478,0.123,0.816,0.277,1.016,0.462c0.202,0.193,0.303,0.457,0.303,0.791c0,0.463-0.165,0.839-0.496,1.13
	c-0.328,0.289-0.805,0.435-1.428,0.435c-0.578,0-1.041-0.122-1.389-0.364c-0.35-0.243-0.538-0.661-0.567-1.253H457.641z"/>
<path d="M462.268,101.263c0,0.492,0.111,0.876,0.334,1.151c0.226,0.272,0.563,0.409,1.011,0.409
	c0.319-0.003,0.598-0.094,0.835-0.273c0.24-0.181,0.383-0.396,0.426-0.646h0.778c-0.103,0.495-0.325,0.89-0.668,1.183
	c-0.343,0.289-0.793,0.435-1.349,0.435c-0.663,0-1.193-0.208-1.592-0.624c-0.395-0.416-0.593-1.017-0.593-1.802
	c0-0.759,0.193-1.378,0.58-1.858c0.39-0.484,0.935-0.726,1.635-0.726c0.659,0,1.16,0.228,1.503,0.681
	c0.346,0.452,0.527,1.142,0.545,2.07H462.268z M462.268,100.639h2.628c-0.056-0.524-0.19-0.894-0.404-1.107s-0.504-0.321-0.87-0.321
	c-0.387,0-0.703,0.133-0.949,0.396C462.426,99.868,462.291,100.211,462.268,100.639z"/>
<path d="M466.223,99.321v-0.659h0.643v-1.336h0.791v1.336h0.773v0.659h-0.773v3.059c0,0.252,0.159,0.378,0.479,0.378h0.277v0.629
	c-0.297,0.04-0.518,0.061-0.664,0.061c-0.589,0-0.883-0.338-0.883-1.015v-3.111H466.223z"/>
<path d="M4.551,102.437l1.871-5.533h0.984l-2.391,6.469H4.089l-2.391-6.469h0.967L4.551,102.437z"/>
<path d="M8.097,96.913h0.791v0.905H8.097V96.913z M8.097,98.662h0.791v4.711H8.097V98.662z"/>
<path d="M10.097,103.373v-6.469h0.791v3.744l2.021-1.986h1.002l-1.793,1.749l1.903,2.962h-1.016l-1.459-2.391l-0.659,0.682v1.709
	H10.097z"/>
<path d="M14.117,99.321v-0.659h0.643v-1.336h0.791v1.336h0.773v0.659h-0.773v3.059c0,0.252,0.159,0.378,0.479,0.378h0.277v0.629
	c-0.297,0.04-0.518,0.061-0.664,0.061c-0.589,0-0.883-0.338-0.883-1.015v-3.111H14.117z"/>
<path d="M16.798,101.035c0-0.747,0.2-1.354,0.603-1.819c0.4-0.469,0.934-0.703,1.6-0.703c0.641,0,1.168,0.228,1.582,0.681
	c0.412,0.455,0.619,1.063,0.619,1.824c0,0.718-0.199,1.315-0.598,1.793c-0.398,0.475-0.928,0.712-1.586,0.712
	c-0.648,0-1.18-0.229-1.596-0.686C17.006,102.376,16.798,101.776,16.798,101.035z M17.615,101.017c0,0.513,0.119,0.942,0.355,1.287
	c0.24,0.347,0.583,0.52,1.029,0.52c0.387,0,0.713-0.151,0.979-0.453c0.27-0.305,0.404-0.756,0.404-1.354
	c0-0.513-0.117-0.941-0.352-1.287S19.453,99.21,19,99.21c-0.411,0-0.745,0.156-1.002,0.467
	C17.742,99.988,17.615,100.434,17.615,101.017z"/>
<path d="M22.19,103.373v-4.711h0.743v0.787c0.216-0.361,0.426-0.607,0.628-0.738c0.205-0.133,0.438-0.198,0.698-0.198
	c0.053,0,0.119,0.011,0.198,0.03v0.813h-0.299c-0.349,0-0.633,0.125-0.853,0.374c-0.217,0.249-0.325,0.548-0.325,0.896v2.746H22.19z
	"/>
<path d="M27.676,96.904h0.874v5.704h3.305v0.765h-4.179V96.904z"/>
<path d="M33.178,101.263c0,0.492,0.111,0.876,0.334,1.151c0.226,0.272,0.563,0.409,1.011,0.409c0.319-0.003,0.598-0.094,0.835-0.273
	c0.24-0.181,0.383-0.396,0.426-0.646h0.778c-0.103,0.495-0.325,0.89-0.668,1.183c-0.343,0.289-0.793,0.435-1.349,0.435
	c-0.663,0-1.193-0.208-1.592-0.624c-0.395-0.416-0.593-1.017-0.593-1.802c0-0.759,0.193-1.378,0.58-1.858
	c0.39-0.484,0.935-0.726,1.635-0.726c0.659,0,1.16,0.228,1.503,0.681c0.346,0.452,0.527,1.142,0.545,2.07H33.178z M33.178,100.639
	h2.628c-0.056-0.524-0.19-0.894-0.404-1.107s-0.504-0.321-0.87-0.321c-0.387,0-0.703,0.133-0.949,0.396
	C33.336,99.868,33.201,100.211,33.178,100.639z"/>
<path d="M37.586,96.904h0.791v2.382c0.354-0.516,0.835-0.773,1.441-0.773c0.504,0,0.894,0.149,1.169,0.448
	c0.275,0.296,0.413,0.697,0.413,1.204v3.208h-0.791v-3.107c0-0.389-0.076-0.661-0.229-0.816c-0.152-0.158-0.384-0.238-0.694-0.238
	c-0.413,0-0.735,0.134-0.967,0.4c-0.229,0.264-0.343,0.656-0.343,1.178v2.584h-0.791V96.904z"/>
<path d="M42.592,98.662h0.742v0.694c0.401-0.563,0.881-0.844,1.438-0.844c0.548,0,0.958,0.258,1.23,0.773
	c0.39-0.516,0.853-0.773,1.389-0.773c0.434,0,0.788,0.138,1.063,0.413s0.413,0.67,0.413,1.182v3.266h-0.791V100.3
	c0-0.726-0.277-1.09-0.83-1.09c-0.294,0-0.555,0.115-0.783,0.344c-0.226,0.226-0.338,0.534-0.338,0.927v2.892h-0.791v-3.283
	c0-0.585-0.245-0.879-0.734-0.879c-0.354,0-0.646,0.136-0.874,0.404c-0.229,0.271-0.343,0.661-0.343,1.174v2.584h-0.791V98.662z"/>
<path d="M50.066,100.059c0.023-1.031,0.655-1.547,1.895-1.547c0.521,0,0.947,0.114,1.279,0.343c0.334,0.229,0.5,0.556,0.5,0.98
	v2.742c0,0.111,0.021,0.186,0.063,0.224c0.04,0.038,0.104,0.058,0.188,0.058c0.053,0,0.142-0.014,0.269-0.04v0.575
	c-0.193,0.059-0.347,0.088-0.457,0.088c-0.276,0-0.475-0.061-0.598-0.184c-0.121-0.123-0.189-0.305-0.207-0.545
	c-0.448,0.513-1.005,0.769-1.67,0.769c-0.396,0-0.744-0.116-1.046-0.347c-0.302-0.234-0.452-0.583-0.452-1.047
	c0-0.846,0.473-1.331,1.419-1.454l1.235-0.163c0.187-0.022,0.313-0.078,0.377-0.166c0.067-0.088,0.102-0.222,0.102-0.4
	c0-0.516-0.359-0.773-1.076-0.773c-0.369,0-0.632,0.074-0.787,0.225c-0.155,0.148-0.257,0.37-0.303,0.663H50.066z M52.949,100.968
	c-0.12,0.095-0.366,0.169-0.738,0.225c-0.372,0.053-0.561,0.079-0.566,0.079c-0.665,0.091-0.998,0.354-0.998,0.791
	c0,0.533,0.284,0.8,0.854,0.8c0.374,0,0.71-0.105,1.006-0.316s0.443-0.478,0.443-0.8V100.968z"/>
<path d="M55.094,103.373v-4.711h0.742v0.694c0.396-0.563,0.893-0.844,1.49-0.844c0.504,0,0.894,0.149,1.169,0.448
	c0.275,0.296,0.413,0.697,0.413,1.204v3.208h-0.791v-2.927c0-0.475-0.084-0.798-0.25-0.972c-0.165-0.176-0.409-0.264-0.734-0.264
	c-0.369,0-0.67,0.139-0.9,0.414c-0.232,0.275-0.348,0.663-0.348,1.164v2.584H55.094z"/>
<path d="M60.1,103.373v-4.711h0.742v0.694c0.396-0.563,0.893-0.844,1.49-0.844c0.504,0,0.894,0.149,1.169,0.448
	c0.275,0.296,0.413,0.697,0.413,1.204v3.208h-0.791v-2.927c0-0.475-0.084-0.798-0.25-0.972c-0.165-0.176-0.409-0.264-0.734-0.264
	c-0.369,0-0.67,0.139-0.9,0.414c-0.232,0.275-0.348,0.663-0.348,1.164v2.584H60.1z"/>
<path d="M65.316,104.291c0.311-0.047,0.471-0.353,0.479-0.918h-0.479v-0.984h0.94v0.896c0,0.82-0.313,1.295-0.94,1.424V104.291z"/>
<path d="M70.193,101.83c0.243-0.371,0.576-0.679,0.998-0.922l1.287-0.766c0.293-0.172,0.499-0.352,0.619-0.535
	c0.12-0.188,0.181-0.415,0.181-0.682c0-0.366-0.116-0.656-0.347-0.87c-0.229-0.214-0.54-0.321-0.932-0.321
	c-0.439,0-0.76,0.131-0.959,0.392c-0.196,0.258-0.309,0.641-0.338,1.147h-0.777c0-0.674,0.177-1.218,0.531-1.631
	s0.897-0.619,1.631-0.619c0.591,0,1.077,0.171,1.459,0.514c0.383,0.34,0.575,0.805,0.575,1.393c0,0.396-0.091,0.734-0.272,1.016
	c-0.182,0.278-0.461,0.523-0.84,0.734l-1.072,0.623c-0.377,0.224-0.665,0.432-0.861,0.625c-0.193,0.19-0.334,0.425-0.422,0.703
	h3.468v0.742h-4.359C69.807,102.713,69.95,102.199,70.193,101.83z"/>
<path d="M74.865,100.305c0-1.008,0.185-1.806,0.554-2.396c0.372-0.591,0.92-0.887,1.644-0.887c0.662,0,1.188,0.271,1.578,0.816
	c0.389,0.543,0.584,1.347,0.584,2.413c0,1.02-0.184,1.822-0.549,2.408c-0.367,0.583-0.91,0.874-1.631,0.874
	c-0.665,0-1.195-0.271-1.591-0.813C75.062,102.18,74.865,101.375,74.865,100.305z M75.709,100.279c0,1.696,0.442,2.545,1.327,2.545
	c0.896,0,1.345-0.849,1.345-2.545s-0.445-2.545-1.336-2.545S75.709,98.583,75.709,100.279z"/>
<path d="M80.451,98.284c0.574-0.023,0.971-0.118,1.191-0.286c0.222-0.166,0.392-0.47,0.51-0.909h0.619v6.284h-0.844v-4.456h-1.477
	V98.284z"/>
<path d="M85.8,103.373c0.138-0.829,0.401-1.69,0.791-2.584c0.393-0.896,0.982-1.838,1.771-2.826h-3.467v-0.777h4.359v0.699
	c-0.706,0.816-1.251,1.638-1.635,2.461c-0.381,0.82-0.694,1.829-0.94,3.027H85.8z"/>
<path d="M90.34,102.419h0.94v0.953h-0.94V102.419z"/>
<path d="M95.273,103.373v-6.469h2.611c0.84,0,1.499,0.284,1.977,0.853s0.717,1.347,0.717,2.333c0,0.959-0.24,1.745-0.721,2.36
	s-1.151,0.923-2.013,0.923H95.273z M96.148,102.608h1.684c0.541,0,0.984-0.202,1.326-0.606c0.346-0.404,0.52-1.044,0.52-1.92
	c0-0.766-0.166-1.358-0.497-1.78c-0.328-0.422-0.802-0.633-1.419-0.633h-1.613V102.608z"/>
<path d="M102.227,101.263c0,0.492,0.111,0.876,0.334,1.151c0.226,0.272,0.563,0.409,1.011,0.409
	c0.319-0.003,0.598-0.094,0.835-0.273c0.24-0.181,0.383-0.396,0.426-0.646h0.778c-0.103,0.495-0.325,0.89-0.668,1.183
	c-0.343,0.289-0.793,0.435-1.349,0.435c-0.663,0-1.193-0.208-1.592-0.624c-0.395-0.416-0.593-1.017-0.593-1.802
	c0-0.759,0.193-1.378,0.58-1.858c0.39-0.484,0.935-0.726,1.635-0.726c0.659,0,1.16,0.228,1.503,0.681
	c0.346,0.452,0.527,1.142,0.545,2.07H102.227z M102.227,100.639h2.628c-0.056-0.524-0.19-0.894-0.404-1.107s-0.504-0.321-0.87-0.321
	c-0.387,0-0.703,0.133-0.949,0.396C102.385,99.868,102.25,100.211,102.227,100.639z"/>
<path d="M109.737,99.356v-2.452h0.791v6.469h-0.743v-0.624c-0.289,0.516-0.744,0.773-1.361,0.773c-0.625,0-1.124-0.238-1.499-0.716
	s-0.563-1.113-0.563-1.908c0-0.721,0.177-1.297,0.532-1.73c0.354-0.437,0.822-0.655,1.406-0.655
	C108.936,98.512,109.415,98.793,109.737,99.356z M107.18,100.933c0,0.584,0.108,1.045,0.325,1.385
	c0.22,0.337,0.532,0.506,0.937,0.506c0.406,0,0.722-0.151,0.944-0.453c0.226-0.302,0.339-0.725,0.339-1.27
	c0-0.633-0.109-1.106-0.326-1.42c-0.214-0.313-0.539-0.471-0.975-0.471C107.594,99.21,107.18,99.786,107.18,100.933z"/>
<path d="M111.667,96.913h0.791v0.905h-0.791V96.913z M111.667,98.662h0.791v4.711h-0.791V98.662z"/>
<path d="M116.537,101.694h0.777c-0.064,0.53-0.254,0.969-0.566,1.313c-0.312,0.344-0.755,0.515-1.332,0.515
	c-0.642,0-1.15-0.214-1.525-0.642c-0.372-0.431-0.558-1.025-0.558-1.784c0-0.785,0.2-1.412,0.603-1.881
	c0.4-0.469,0.941-0.703,1.621-0.703c0.483,0,0.876,0.134,1.178,0.399c0.302,0.268,0.495,0.696,0.58,1.288h-0.777
	c-0.133-0.659-0.496-0.989-1.09-0.989c-0.414,0-0.733,0.16-0.959,0.479c-0.226,0.316-0.338,0.768-0.338,1.354
	c0,0.539,0.103,0.972,0.308,1.296c0.205,0.323,0.513,0.484,0.923,0.484C115.973,102.824,116.357,102.447,116.537,101.694z"/>
<path d="M118.119,100.059c0.022-1.031,0.654-1.547,1.894-1.547c0.521,0,0.947,0.114,1.278,0.343c0.334,0.229,0.502,0.556,0.502,0.98
	v2.742c0,0.111,0.02,0.186,0.061,0.224s0.104,0.058,0.189,0.058c0.053,0,0.142-0.014,0.268-0.04v0.575
	c-0.193,0.059-0.346,0.088-0.457,0.088c-0.275,0-0.475-0.061-0.598-0.184c-0.12-0.123-0.188-0.305-0.206-0.545
	c-0.448,0.513-1.005,0.769-1.67,0.769c-0.396,0-0.744-0.116-1.046-0.347c-0.302-0.234-0.453-0.583-0.453-1.047
	c0-0.846,0.474-1.331,1.42-1.454l1.234-0.163c0.188-0.022,0.313-0.078,0.379-0.166c0.066-0.088,0.101-0.222,0.101-0.4
	c0-0.516-0.359-0.773-1.077-0.773c-0.369,0-0.631,0.074-0.786,0.225c-0.155,0.148-0.257,0.37-0.304,0.663H118.119z M121.002,100.968
	c-0.121,0.095-0.367,0.169-0.738,0.225c-0.373,0.053-0.562,0.079-0.567,0.079c-0.665,0.091-0.997,0.354-0.997,0.791
	c0,0.533,0.283,0.8,0.852,0.8c0.375,0,0.711-0.105,1.007-0.316s0.444-0.478,0.444-0.8V100.968z"/>
<path d="M122.693,99.321v-0.659h0.643v-1.336h0.791v1.336h0.773v0.659h-0.773v3.059c0,0.252,0.159,0.378,0.479,0.378h0.277v0.629
	c-0.297,0.04-0.518,0.061-0.664,0.061c-0.589,0-0.883-0.338-0.883-1.015v-3.111H122.693z"/>
<path d="M126.244,101.263c0,0.492,0.111,0.876,0.334,1.151c0.226,0.272,0.563,0.409,1.011,0.409
	c0.319-0.003,0.598-0.094,0.835-0.273c0.24-0.181,0.383-0.396,0.426-0.646h0.778c-0.103,0.495-0.325,0.89-0.668,1.183
	c-0.343,0.289-0.793,0.435-1.349,0.435c-0.663,0-1.193-0.208-1.592-0.624c-0.395-0.416-0.593-1.017-0.593-1.802
	c0-0.759,0.193-1.378,0.58-1.858c0.39-0.484,0.935-0.726,1.635-0.726c0.659,0,1.16,0.228,1.503,0.681
	c0.346,0.452,0.527,1.142,0.545,2.07H126.244z M126.244,100.639h2.628c-0.056-0.524-0.19-0.894-0.404-1.107s-0.504-0.321-0.87-0.321
	c-0.387,0-0.703,0.133-0.949,0.396C126.402,99.868,126.268,100.211,126.244,100.639z"/>
<path d="M133.755,99.356v-2.452h0.791v6.469h-0.743v-0.624c-0.289,0.516-0.744,0.773-1.361,0.773c-0.625,0-1.124-0.238-1.499-0.716
	s-0.563-1.113-0.563-1.908c0-0.721,0.177-1.297,0.532-1.73c0.354-0.437,0.822-0.655,1.406-0.655
	C132.953,98.512,133.433,98.793,133.755,99.356z M131.197,100.933c0,0.584,0.108,1.045,0.325,1.385
	c0.22,0.337,0.532,0.506,0.937,0.506c0.406,0,0.722-0.151,0.944-0.453c0.226-0.302,0.339-0.725,0.339-1.27
	c0-0.633-0.109-1.106-0.326-1.42c-0.214-0.313-0.539-0.471-0.975-0.471C131.611,99.21,131.197,99.786,131.197,100.933z"/>
<path d="M137.705,99.321v-0.659h0.643v-1.336h0.791v1.336h0.773v0.659h-0.773v3.059c0,0.252,0.159,0.378,0.479,0.378h0.277v0.629
	c-0.297,0.04-0.518,0.061-0.664,0.061c-0.589,0-0.883-0.338-0.883-1.015v-3.111H137.705z"/>
<path d="M140.386,101.035c0-0.747,0.2-1.354,0.603-1.819c0.4-0.469,0.934-0.703,1.6-0.703c0.641,0,1.168,0.228,1.582,0.681
	c0.412,0.455,0.619,1.063,0.619,1.824c0,0.718-0.199,1.315-0.598,1.793c-0.398,0.475-0.928,0.712-1.586,0.712
	c-0.648,0-1.18-0.229-1.596-0.686C140.594,102.376,140.386,101.776,140.386,101.035z M141.203,101.017
	c0,0.513,0.119,0.942,0.355,1.287c0.24,0.347,0.583,0.52,1.029,0.52c0.387,0,0.713-0.151,0.979-0.453
	c0.27-0.305,0.404-0.756,0.404-1.354c0-0.513-0.117-0.941-0.352-1.287s-0.579-0.52-1.032-0.52c-0.411,0-0.745,0.156-1.002,0.467
	C141.33,99.988,141.203,100.434,141.203,101.017z"/>
<path d="M148.823,101.29c0.047,0.99,0.656,1.485,1.828,1.485c0.536,0,0.943-0.091,1.222-0.272c0.278-0.185,0.418-0.472,0.418-0.861
	c0-0.249-0.078-0.455-0.233-0.62c-0.152-0.166-0.532-0.321-1.138-0.465l-1.336-0.299c-0.426-0.105-0.76-0.28-1.002-0.523
	c-0.244-0.246-0.365-0.587-0.365-1.023c0-0.595,0.197-1.072,0.594-1.434c0.397-0.359,0.967-0.54,1.705-0.54
	c0.676,0,1.237,0.16,1.683,0.479c0.448,0.319,0.691,0.839,0.729,1.56h-0.817c-0.085-0.85-0.62-1.274-1.604-1.274
	c-0.43,0-0.779,0.094-1.045,0.281c-0.264,0.188-0.396,0.463-0.396,0.826c0,0.211,0.063,0.387,0.189,0.527s0.365,0.249,0.717,0.325
	l1.7,0.409c0.489,0.108,0.855,0.303,1.099,0.584c0.246,0.278,0.369,0.658,0.369,1.139c0,0.63-0.231,1.111-0.694,1.445
	s-1.095,0.501-1.894,0.501c-0.836,0-1.469-0.203-1.898-0.61c-0.432-0.407-0.646-0.954-0.646-1.64H148.823z"/>
<path d="M153.715,99.321v-0.659h0.641v-1.336h0.791v1.336h0.773v0.659h-0.773v3.059c0,0.252,0.16,0.378,0.479,0.378h0.276v0.629
	c-0.296,0.04-0.517,0.061-0.663,0.061c-0.589,0-0.884-0.338-0.884-1.015v-3.111H153.715z"/>
<path d="M157.266,101.263c0,0.492,0.111,0.876,0.334,1.151c0.226,0.272,0.563,0.409,1.011,0.409
	c0.319-0.003,0.598-0.094,0.835-0.273c0.24-0.181,0.383-0.396,0.426-0.646h0.778c-0.103,0.495-0.325,0.89-0.668,1.183
	c-0.343,0.289-0.793,0.435-1.349,0.435c-0.663,0-1.193-0.208-1.592-0.624c-0.395-0.416-0.593-1.017-0.593-1.802
	c0-0.759,0.193-1.378,0.58-1.858c0.39-0.484,0.935-0.726,1.635-0.726c0.659,0,1.16,0.228,1.503,0.681
	c0.346,0.452,0.527,1.142,0.545,2.07H157.266z M157.266,100.639h2.628c-0.056-0.524-0.19-0.894-0.404-1.107s-0.504-0.321-0.87-0.321
	c-0.387,0-0.703,0.133-0.949,0.396C157.424,99.868,157.289,100.211,157.266,100.639z"/>
<path d="M161.234,98.662h0.633v-0.765c0-0.384,0.104-0.66,0.313-0.831c0.211-0.169,0.508-0.254,0.892-0.254h0.146
	c0.031,0,0.104,0.006,0.215,0.018v0.703c-0.176-0.015-0.277-0.022-0.303-0.022c-0.162,0-0.28,0.047-0.356,0.141
	c-0.076,0.091-0.114,0.23-0.114,0.417v0.594h0.773v0.659h-0.773v4.052h-0.791v-4.052h-0.633V98.662z"/>
<path d="M163.734,98.662h0.633v-0.765c0-0.384,0.104-0.66,0.313-0.831c0.211-0.169,0.508-0.254,0.892-0.254h0.146
	c0.031,0,0.104,0.006,0.215,0.018v0.703c-0.176-0.015-0.277-0.022-0.303-0.022c-0.162,0-0.28,0.047-0.356,0.141
	c-0.076,0.091-0.114,0.23-0.114,0.417v0.594h0.773v0.659h-0.773v4.052h-0.791v-4.052h-0.633V98.662z"/>
<path d="M169.371,103.373v-6.469h4.742v0.765h-3.867v2.009h3.568v0.764h-3.568v2.167h3.938v0.765H169.371z"/>
<path d="M178.072,101.694h0.778c-0.064,0.53-0.254,0.969-0.567,1.313c-0.311,0.344-0.754,0.515-1.331,0.515
	c-0.642,0-1.15-0.214-1.524-0.642c-0.373-0.431-0.559-1.025-0.559-1.784c0-0.785,0.2-1.412,0.602-1.881s0.942-0.703,1.622-0.703
	c0.483,0,0.876,0.134,1.178,0.399c0.302,0.268,0.495,0.696,0.58,1.288h-0.778c-0.131-0.659-0.495-0.989-1.09-0.989
	c-0.412,0-0.732,0.16-0.957,0.479c-0.227,0.316-0.339,0.768-0.339,1.354c0,0.539,0.103,0.972,0.308,1.296
	c0.205,0.323,0.513,0.484,0.923,0.484C177.509,102.824,177.894,102.447,178.072,101.694z"/>
<path d="M179.703,103.373v-6.469h0.791v3.744l2.021-1.986h1.002l-1.793,1.749l1.902,2.962h-1.015l-1.459-2.391l-0.659,0.682v1.709
	H179.703z"/>
<path d="M184.774,101.263c0,0.492,0.111,0.876,0.334,1.151c0.226,0.272,0.563,0.409,1.011,0.409
	c0.319-0.003,0.598-0.094,0.835-0.273c0.24-0.181,0.382-0.396,0.427-0.646h0.777c-0.103,0.495-0.325,0.89-0.668,1.183
	c-0.343,0.289-0.793,0.435-1.35,0.435c-0.662,0-1.192-0.208-1.59-0.624c-0.396-0.416-0.594-1.017-0.594-1.802
	c0-0.759,0.193-1.378,0.58-1.858c0.39-0.484,0.935-0.726,1.635-0.726c0.659,0,1.16,0.228,1.503,0.681
	c0.346,0.452,0.527,1.142,0.545,2.07H184.774z M184.774,100.639h2.628c-0.056-0.524-0.19-0.894-0.404-1.107s-0.504-0.321-0.87-0.321
	c-0.387,0-0.703,0.133-0.949,0.396C184.933,99.868,184.798,100.211,184.774,100.639z"/>
<path d="M189.296,103.373v-4.711h0.743v0.787c0.216-0.361,0.426-0.607,0.628-0.738c0.205-0.133,0.438-0.198,0.698-0.198
	c0.053,0,0.119,0.011,0.198,0.03v0.813h-0.299c-0.349,0-0.633,0.125-0.853,0.374c-0.217,0.249-0.325,0.548-0.325,0.896v2.746
	H189.296z"/>
<path d="M191.727,99.321v-0.659h0.641v-1.336h0.791v1.336h0.773v0.659h-0.773v3.059c0,0.252,0.16,0.378,0.479,0.378h0.276v0.629
	c-0.296,0.04-0.517,0.061-0.663,0.061c-0.589,0-0.884-0.338-0.884-1.015v-3.111H191.727z"/>
</svg>
