<?xml version="1.0" standalone="no"?>
<!DOCTYPE svg PUBLIC "-//W3C//DTD SVG 1.1//EN"
"http://www.w3.org/Graphics/SVG/1.1/DTD/svg11.dtd">
<!-- Creator: fig2dev Version 3.2 Patchlevel 5e -->
<!-- CreationDate: Fri Jun 21 23:48:38 2019 -->
<!-- Magnification: 1.050 -->
<svg	xmlns="http://www.w3.org/2000/svg"
	xmlns:xlink="http://www.w3.org/1999/xlink"
	viewBox="-23 -23 6140 4817">
<g style="stroke-width:.025in; fill:none">
<!-- Text -->
<text xml:space="preserve" x="4771" y="283" fill="#000000"  font-family="Helvetica" font-style="normal" font-weight="normal" font-size="177" text-anchor="end">Sue McKinnell</text>
<!-- Text -->
<text xml:space="preserve" x="3212" y="1181" fill="#000000"  font-family="Helvetica" font-style="normal" font-weight="bold" font-size="227" text-anchor="middle">S</text>
<!-- Line -->
<polyline points="3826,850
3827,853
3830,858
3835,869
3841,881
3847,897
3854,915
3860,934
3865,956
3869,980
3872,1008
3874,1039
3872,1069
3869,1098
3865,1122
3860,1144
3854,1163
3847,1181
3841,1196
3851,1171
" style="stroke:#000000;stroke-width:16;
stroke-linejoin:bevel; stroke-linecap:butt;
"/>
<!-- Arrowhead on XXXpoint 3841 1196 - 3813 1256-->
<polygon points="3815 1176
3817 1248
3871 1204
3815 1176

" style="stroke:#000000;stroke-width:8;stroke-miterlimit:8;
fill:#000000;"/>
<!-- Line -->
<polyline points="3732,1228
3731,1225
3728,1219
3723,1209
3717,1196
3711,1181
3704,1163
3698,1144
3693,1122
3689,1098
3686,1069
3685,1039
3686,1008
3689,980
3693,956
3698,934
3704,915
3711,897
3717,881
3706,906
" style="stroke:#000000;stroke-width:16;
stroke-linejoin:bevel; stroke-linecap:butt;
stroke-dasharray:20 20;"/>
<!-- Arrowhead on XXXpoint 3717 881 - 3744 820-->
<polygon points="3742 899
3740 829
3686 873
3742 899

" style="stroke:#000000;stroke-width:8;stroke-miterlimit:8;
fill:#000000;"/>
<!-- Circle -->
<circle cx="1937" cy="1275" r="94"
 style="stroke:#000000;stroke-width:16;"/>
<!-- Text -->
<text xml:space="preserve" x="1937" y="1322" fill="#000000"  font-family="Helvetica" font-style="normal" font-weight="bold" font-size="114" text-anchor="middle">1</text>
<!-- Line: box -->
<rect x="1842" y="614" width="188" height="188" rx="0" 
style="stroke:#000000;stroke-width:16;
stroke-linejoin:miter; stroke-linecap:butt;
"/>
<!-- Text -->
<text xml:space="preserve" x="1937" y="755" fill="#000000"  font-family="Helvetica" font-style="normal" font-weight="bold" font-size="114" text-anchor="middle">1</text>
<!-- Text -->
<text xml:space="preserve" x="1559" y="1322" fill="#000000"  font-family="Helvetica" font-style="normal" font-weight="bold" font-size="114" text-anchor="middle">2</text>
<!-- Text -->
<text xml:space="preserve" x="1559" y="755" fill="#000000"  font-family="Helvetica" font-style="normal" font-weight="bold" font-size="114" text-anchor="middle">2</text>
<!-- Text -->
<text xml:space="preserve" x="2314" y="1322" fill="#000000"  font-family="Helvetica" font-style="normal" font-weight="bold" font-size="114" text-anchor="middle">3</text>
<!-- Text -->
<text xml:space="preserve" x="2314" y="755" fill="#000000"  font-family="Helvetica" font-style="normal" font-weight="bold" font-size="114" text-anchor="middle">3</text>
<!-- Line -->
<polyline points="2078,850
2081,852
2088,857
2100,866
2118,878
2141,894
2169,915
2200,938
2234,962
2267,987
2301,1014
2332,1038
2362,1062
2388,1084
2411,1104
2432,1124
2450,1142
2465,1159
2477,1174
2488,1190
2497,1205
2503,1220
2509,1235
2512,1250
2514,1265
2515,1279
2515,1294
2513,1309
2510,1323
2504,1337
2499,1352
2492,1365
2483,1378
2475,1391
2465,1401
2455,1412
2444,1421
2432,1429
2420,1437
2409,1443
2397,1448
2386,1451
2373,1455
2362,1457
2345,1457
2329,1455
2311,1449
2293,1442
2274,1432
2251,1417
2227,1400
2202,1381
2175,1360
2149,1338
2125,1317
2106,1299
2124,1316
" style="stroke:#000000;stroke-width:16;
stroke-linejoin:bevel; stroke-linecap:butt;
stroke-dasharray:20 20;"/>
<!-- Arrowhead on XXXpoint 2106 1299 - 2054 1254-->
<polygon points="2129 1278
2061 1260
2088 1325
2129 1278

" style="stroke:#000000;stroke-width:8;stroke-miterlimit:8;
fill:#000000;"/>
<!-- Line -->
<polyline points="1795,1133
1792,1131
1785,1126
1773,1118
1755,1105
1732,1089
1704,1068
1673,1045
1639,1021
1606,996
1572,970
1541,945
1511,921
1485,899
1462,879
1441,859
1423,841
1408,825
1396,809
1385,793
1376,779
1370,764
1364,748
1361,733
1359,719
1358,704
1358,689
1360,675
1363,660
1369,646
1374,632
1381,618
1390,605
1398,593
1408,582
1418,572
1429,562
1441,554
1453,546
1464,540
1476,535
1487,532
1500,529
1511,528
1528,527
1544,529
1562,534
1580,541
1600,552
1622,566
1646,583
1671,602
1698,623
1724,645
1748,666
1767,684
1748,666
" style="stroke:#000000;stroke-width:16;
stroke-linejoin:bevel; stroke-linecap:butt;
"/>
<!-- Arrowhead on XXXpoint 1767 684 - 1818 728-->
<polygon points="1742 704
1811 722
1783 656
1742 704

" style="stroke:#000000;stroke-width:8;stroke-miterlimit:8;
fill:#000000;"/>
<!-- Arc -->
<path style="stroke:#000000;stroke-width:16;stroke-linecap:butt;"
d="M 708,1086 A 94 94  0  0  1  897  1086 " />
<!-- Arrowhead on XXXpoint 891 1051 - 897 1086-->
<polygon points="859 1055
896 1081
921 1044
859 1055

" style="stroke:#000000;stroke-width:8;stroke-miterlimit:8;
fill:#000000;"/>
<!-- Text -->
<text xml:space="preserve" x="803" y="1133" fill="#000000"  font-family="Helvetica" font-style="normal" font-weight="bold" font-size="114" text-anchor="middle">1</text>
<!-- Text -->
<text xml:space="preserve" x="377" y="1181" fill="#000000"  font-family="Helvetica" font-style="normal" font-weight="bold" font-size="227" text-anchor="middle">S</text>
<!-- Text -->
<text xml:space="preserve" x="377" y="850" fill="#000000"  font-family="Helvetica" font-style="normal" font-weight="bold" font-size="114" text-anchor="middle">1</text>
<!-- Line -->
<polyline points="2503,4251
2598,4062
" style="stroke:#000000;stroke-width:8;
stroke-linejoin:miter; stroke-linecap:round;
"/>
<!-- Text -->
<text xml:space="preserve" x="2503" y="4157" fill="#000000"  font-family="Helvetica" font-style="normal" font-weight="bold" font-size="114" text-anchor="middle">1</text>
<!-- Text -->
<text xml:space="preserve" x="2598" y="4251" fill="#000000"  font-family="Helvetica" font-style="normal" font-weight="bold" font-size="114" text-anchor="middle">2</text>
<!-- Text -->
<text xml:space="preserve" x="2362" y="4251" fill="#000000"  font-family="Helvetica" font-style="normal" font-weight="bold" font-size="152" text-anchor="middle">R</text>
<!-- Text -->
<text xml:space="preserve" x="2220" y="4204" fill="#000000"  font-family="Helvetica" font-style="normal" font-weight="bold" font-size="227" text-anchor="middle">T</text>
<!-- Line: box -->
<rect x="2787" y="3779" width="188" height="188" rx="0" 
style="stroke:#000000;stroke-width:16;
stroke-linejoin:miter; stroke-linecap:butt;
"/>
<!-- Line -->
<polyline points="2881,4015
2881,4016
2880,4019
2879,4027
2876,4036
2872,4044
2867,4051
2859,4057
2850,4062
2845,4066
2837,4068
2831,4070
2823,4072
2814,4074
2805,4075
2795,4075
2786,4074
2776,4072
2766,4069
2756,4065
2747,4059
2739,4052
2730,4045
2723,4034
2717,4024
2709,4010
2703,3995
2698,3979
2692,3960
2688,3940
2684,3918
2681,3896
2679,3872
2677,3849
2677,3826
2677,3804
2678,3783
2681,3764
2683,3746
2687,3731
2692,3716
2700,3701
2708,3690
2719,3679
2731,3670
2747,3662
2766,3656
2787,3651
2809,3647
2832,3643
2852,3640
2818,3643
" style="stroke:#000000;stroke-width:16;
stroke-linejoin:bevel; stroke-linecap:butt;
stroke-dasharray:20 20;"/>
<!-- Arrowhead on XXXpoint 2852 3640 - 2912 3633-->
<polygon points="2844 3673
2902 3634
2835 3610
2844 3673

" style="stroke:#000000;stroke-width:8;stroke-miterlimit:8;
fill:#000000;"/>
<!-- Circle -->
<circle cx="2881" cy="4346" r="94"
 style="stroke:#000000;stroke-width:16;"/>
<!-- Line -->
<polyline points="2881,4204
2881,4203
2882,4200
2883,4193
2887,4183
2891,4176
2896,4169
2903,4162
2913,4157
2918,4154
2925,4152
2932,4150
2940,4148
2949,4145
2958,4144
2967,4144
2977,4145
2986,4148
2997,4151
3006,4155
3016,4160
3024,4167
3033,4175
3040,4185
3047,4197
3054,4209
3060,4224
3065,4241
3070,4260
3075,4280
3079,4302
3082,4324
3084,4347
3086,4370
3086,4393
3086,4415
3085,4436
3082,4455
3080,4473
3076,4489
3070,4503
3063,4518
3055,4530
3044,4540
3032,4550
3016,4557
2997,4563
2976,4569
2954,4573
2931,4577
2911,4579
2943,4576
" style="stroke:#000000;stroke-width:16;
stroke-linejoin:bevel; stroke-linecap:butt;
"/>
<!-- Arrowhead on XXXpoint 2911 4579 - 2850 4585-->
<polygon points="2918 4545
2859 4584
2924 4608
2918 4545

" style="stroke:#000000;stroke-width:8;stroke-miterlimit:8;
fill:#000000;"/>
<!-- Line -->
<polyline points="2503,3543
2314,3543
" style="stroke:#000000;stroke-width:8;
stroke-linejoin:miter; stroke-linecap:butt;
"/>
<!-- Line -->
<polyline points="2976,3543
2787,3543
" style="stroke:#000000;stroke-width:8;
stroke-linejoin:miter; stroke-linecap:butt;
"/>
<!-- Text -->
<text xml:space="preserve" x="2645" y="3590" fill="#000000"  font-family="Helvetica" font-style="normal" font-weight="bold" font-size="114" text-anchor="middle">all</text>
<!-- Line: box -->
<rect x="472" y="3685" width="188" height="188" rx="0" 
style="stroke:#000000;stroke-width:16;
stroke-linejoin:miter; stroke-linecap:butt;
"/>
<!-- Text -->
<text xml:space="preserve" x="566" y="3826" fill="#000000"  font-family="Helvetica" font-style="normal" font-weight="bold" font-size="114" text-anchor="middle">3</text>
<!-- Circle -->
<circle cx="566" cy="4393" r="94"
 style="stroke:#000000;stroke-width:16;"/>
<!-- Text -->
<text xml:space="preserve" x="566" y="4440" fill="#000000"  font-family="Helvetica" font-style="normal" font-weight="bold" font-size="114" text-anchor="middle">3</text>
<!-- Line: box -->
<rect x="1133" y="3685" width="188" height="188" rx="0" 
style="stroke:#000000;stroke-width:16;
stroke-linejoin:miter; stroke-linecap:butt;
"/>
<!-- Text -->
<text xml:space="preserve" x="1228" y="3826" fill="#000000"  font-family="Helvetica" font-style="normal" font-weight="bold" font-size="114" text-anchor="middle">2</text>
<!-- Circle -->
<circle cx="1228" cy="4393" r="94"
 style="stroke:#000000;stroke-width:16;"/>
<!-- Text -->
<text xml:space="preserve" x="1228" y="4440" fill="#000000"  font-family="Helvetica" font-style="normal" font-weight="bold" font-size="114" text-anchor="middle">2</text>
<!-- Circle -->
<circle cx="897" cy="4393" r="94"
 style="stroke:#000000;stroke-width:16;"/>
<!-- Line -->
<polyline points="472,4393
425,4393
" style="stroke:#000000;stroke-width:16;
stroke-linejoin:miter; stroke-linecap:round;
"/>
<!-- Line -->
<polyline points="803,4393
755,4393
" style="stroke:#000000;stroke-width:16;
stroke-linejoin:miter; stroke-linecap:round;
"/>
<!-- Line -->
<polyline points="1133,4393
1086,4393
" style="stroke:#000000;stroke-width:16;
stroke-linejoin:miter; stroke-linecap:round;
"/>
<!-- Line -->
<polyline points="708,3779
661,3779
" style="stroke:#000000;stroke-width:16;
stroke-linejoin:miter; stroke-linecap:round;
"/>
<!-- Line -->
<polyline points="1370,3779
1322,3779
" style="stroke:#000000;stroke-width:16;
stroke-linejoin:miter; stroke-linecap:round;
"/>
<!-- Line -->
<polyline points="1039,3779
992,3779
" style="stroke:#000000;stroke-width:16;
stroke-linejoin:miter; stroke-linecap:round;
"/>
<!-- Line: box -->
<rect x="803" y="3685" width="188" height="188" rx="0" 
style="stroke:#000000;stroke-width:16;
stroke-linejoin:miter; stroke-linecap:butt;
"/>
<!-- Line -->
<polyline points="330,4393
329,4390
326,4384
322,4373
314,4358
307,4339
299,4318
290,4296
282,4274
275,4251
268,4230
262,4209
257,4187
253,4165
247,4142
244,4118
241,4100
239,4081
236,4062
234,4043
233,4020
232,3998
230,3976
230,3952
232,3929
233,3904
235,3880
238,3856
243,3832
248,3807
255,3784
263,3761
271,3740
282,3719
293,3700
306,3681
320,3665
334,3649
351,3635
370,3622
387,3611
405,3602
425,3593
447,3585
471,3579
497,3572
525,3566
557,3562
591,3558
628,3553
668,3550
712,3548
758,3546
806,3544
856,3543
907,3542
958,3541
1007,3541
1054,3541
1097,3541
1133,3542
1165,3542
1189,3542
1165,3541
" style="stroke:#000000;stroke-width:16;
stroke-linejoin:bevel; stroke-linecap:butt;
"/>
<!-- Arrowhead on XXXpoint 1189 3542 - 1258 3543-->
<polygon points="1185 3573
1249 3543
1186 3510
1185 3573

" style="stroke:#000000;stroke-width:8;stroke-miterlimit:8;
fill:#000000;"/>
<!-- Line -->
<polyline points="1464,3779
1465,3782
1468,3788
1474,3799
1480,3815
1488,3834
1498,3855
1507,3877
1516,3899
1524,3921
1532,3942
1540,3963
1546,3985
1553,4007
1560,4030
1567,4055
1571,4074
1576,4094
1582,4115
1586,4138
1590,4161
1594,4185
1597,4211
1600,4237
1602,4263
1602,4290
1601,4317
1598,4344
1595,4369
1590,4394
1584,4418
1575,4441
1566,4464
1553,4483
1540,4502
1525,4520
1507,4536
1488,4551
1470,4561
1453,4571
1432,4579
1408,4587
1384,4594
1356,4600
1325,4606
1292,4611
1255,4615
1215,4619
1172,4622
1126,4624
1076,4626
1024,4628
970,4629
915,4630
859,4632
806,4632
755,4632
709,4632
669,4630
635,4630
608,4630
628,4629
" style="stroke:#000000;stroke-width:16;
stroke-linejoin:bevel; stroke-linecap:butt;
stroke-dasharray:20 20;"/>
<!-- Arrowhead on XXXpoint 608 4630 - 535 4628-->
<polygon points="607 4598
544 4628
606 4661
607 4598

" style="stroke:#000000;stroke-width:8;stroke-miterlimit:8;
fill:#000000;"/>
<!-- Text -->
<text xml:space="preserve" x="897" y="4440" fill="#000000"  font-family="Helvetica" font-style="normal" font-weight="bold" font-size="114" text-anchor="middle">1</text>
<!-- Text -->
<text xml:space="preserve" x="897" y="3826" fill="#000000"  font-family="Helvetica" font-style="normal" font-weight="bold" font-size="114" text-anchor="middle">1</text>
<!-- Line -->
<polyline points="283,3212
1417,3212
" style="stroke:#000000;stroke-width:8;
stroke-linejoin:miter; stroke-linecap:butt;
"/>
<!-- Line -->
<polyline points="4204,3165
5338,3165
" style="stroke:#000000;stroke-width:8;
stroke-linejoin:miter; stroke-linecap:butt;
"/>
<!-- Text -->
<text xml:space="preserve" x="2787" y="3259" fill="#000000"  font-family="Helvetica" font-style="normal" font-weight="normal" font-size="126" text-anchor="middle">THREE-COUPLE BOURELL</text>
<!-- Circle -->
<circle cx="3118" cy="2362" r="94"
 style="stroke:#000000;stroke-width:16;"/>
<!-- Line: box -->
<rect x="3401" y="2267" width="188" height="188" rx="0" 
style="stroke:#000000;stroke-width:16;
stroke-linejoin:miter; stroke-linecap:butt;
"/>
<!-- Line -->
<polyline points="3590,2362
" style="stroke:#000000;stroke-width:16;
stroke-linejoin:miter; stroke-linecap:round;
"/>
<!-- Line -->
<polyline points="3354,2362
3401,2362
" style="stroke:#000000;stroke-width:16;
stroke-linejoin:miter; stroke-linecap:round;
"/>
<!-- Line -->
<polyline points="3212,2362
3259,2362
" style="stroke:#000000;stroke-width:16;
stroke-linejoin:miter; stroke-linecap:round;
"/>
<!-- Text -->
<text xml:space="preserve" x="3118" y="2409" fill="#000000"  font-family="Helvetica" font-style="normal" font-weight="bold" font-size="114" text-anchor="middle">1</text>
<!-- Text -->
<text xml:space="preserve" x="3496" y="2409" fill="#000000"  font-family="Helvetica" font-style="normal" font-weight="bold" font-size="114" text-anchor="middle">1</text>
<!-- Circle -->
<circle cx="2456" cy="2362" r="94"
 style="stroke:#000000;stroke-width:16;"/>
<!-- Line: box -->
<rect x="2740" y="2267" width="188" height="188" rx="0" 
style="stroke:#000000;stroke-width:16;
stroke-linejoin:miter; stroke-linecap:butt;
"/>
<!-- Line -->
<polyline points="2929,2362
" style="stroke:#000000;stroke-width:16;
stroke-linejoin:miter; stroke-linecap:round;
"/>
<!-- Line -->
<polyline points="2692,2362
2740,2362
" style="stroke:#000000;stroke-width:16;
stroke-linejoin:miter; stroke-linecap:round;
"/>
<!-- Line -->
<polyline points="2551,2362
2598,2362
" style="stroke:#000000;stroke-width:16;
stroke-linejoin:miter; stroke-linecap:round;
"/>
<!-- Text -->
<text xml:space="preserve" x="2456" y="2409" fill="#000000"  font-family="Helvetica" font-style="normal" font-weight="bold" font-size="114" text-anchor="middle">3</text>
<!-- Text -->
<text xml:space="preserve" x="2834" y="2409" fill="#000000"  font-family="Helvetica" font-style="normal" font-weight="bold" font-size="114" text-anchor="middle">3</text>
<!-- Circle -->
<circle cx="3779" cy="2362" r="94"
 style="stroke:#000000;stroke-width:16;"/>
<!-- Line: box -->
<rect x="4062" y="2267" width="188" height="188" rx="0" 
style="stroke:#000000;stroke-width:16;
stroke-linejoin:miter; stroke-linecap:butt;
"/>
<!-- Line -->
<polyline points="4251,2362
" style="stroke:#000000;stroke-width:16;
stroke-linejoin:miter; stroke-linecap:round;
"/>
<!-- Line -->
<polyline points="4015,2362
4062,2362
" style="stroke:#000000;stroke-width:16;
stroke-linejoin:miter; stroke-linecap:round;
"/>
<!-- Line -->
<polyline points="3874,2362
3921,2362
" style="stroke:#000000;stroke-width:16;
stroke-linejoin:miter; stroke-linecap:round;
"/>
<!-- Text -->
<text xml:space="preserve" x="3779" y="2409" fill="#000000"  font-family="Helvetica" font-style="normal" font-weight="bold" font-size="114" text-anchor="middle">2</text>
<!-- Text -->
<text xml:space="preserve" x="4157" y="2409" fill="#000000"  font-family="Helvetica" font-style="normal" font-weight="bold" font-size="114" text-anchor="middle">2</text>
<!-- Line -->
<polyline points="2125,1937
2124,1938
2121,1940
2117,1945
2112,1951
2107,1961
2101,1972
2097,1987
2093,2004
2091,2024
2088,2049
2087,2078
2086,2097
2085,2117
2083,2139
2082,2162
2082,2187
2081,2214
2081,2241
2081,2270
2080,2301
2080,2331
2080,2362
2080,2392
2080,2423
2081,2453
2081,2482
2081,2510
2082,2536
2082,2561
2083,2584
2085,2606
2086,2626
2087,2645
2088,2675
2091,2700
2093,2720
2097,2737
2101,2751
2107,2763
2112,2772
2117,2779
2121,2784
2124,2786
2125,2787
" style="stroke:#000000;stroke-width:16;
stroke-linejoin:bevel; stroke-linecap:round;
"/>
<!-- Line -->
<polyline points="4346,1937
4347,1938
4350,1940
4354,1945
4360,1951
4365,1961
4370,1972
4374,1987
4379,2004
4381,2024
4384,2049
4386,2078
4386,2097
4387,2117
4388,2139
4389,2162
4389,2187
4390,2214
4390,2241
4390,2270
4391,2301
4391,2331
4391,2362
4391,2392
4391,2423
4390,2453
4390,2482
4390,2510
4389,2536
4389,2561
4388,2584
4387,2606
4386,2626
4386,2645
4384,2675
4381,2700
4379,2720
4374,2737
4370,2751
4365,2763
4360,2772
4354,2779
4350,2784
4347,2786
4346,2787
" style="stroke:#000000;stroke-width:16;
stroke-linejoin:bevel; stroke-linecap:round;
"/>
<!-- Text -->
<text xml:space="preserve" x="2220" y="2409" fill="#000000"  font-family="Helvetica" font-style="normal" font-weight="normal" font-size="126" text-anchor="middle">to</text>
<!-- Line -->
<polyline points="4771,2078
4582,2078
" style="stroke:#000000;stroke-width:8;
stroke-linejoin:miter; stroke-linecap:butt;
"/>
<!-- Line -->
<polyline points="5244,2078
5102,2078
" style="stroke:#000000;stroke-width:8;
stroke-linejoin:miter; stroke-linecap:butt;
"/>
<!-- Text -->
<text xml:space="preserve" x="4913" y="2125" fill="#000000"  font-family="Helvetica" font-style="normal" font-weight="bold" font-size="114" text-anchor="middle">all</text>
<!-- Text -->
<text xml:space="preserve" x="5055" y="2503" fill="#000000"  font-family="Helvetica" font-style="normal" font-weight="bold" font-size="152" text-anchor="middle">B</text>
<!-- Text -->
<text xml:space="preserve" x="4913" y="2456" fill="#000000"  font-family="Helvetica" font-style="normal" font-weight="bold" font-size="227" text-anchor="middle">T</text>
<!-- Line -->
<polyline points="5196,2503
5291,2314
" style="stroke:#000000;stroke-width:8;
stroke-linejoin:miter; stroke-linecap:round;
"/>
<!-- Text -->
<text xml:space="preserve" x="5196" y="2409" fill="#000000"  font-family="Helvetica" font-style="normal" font-weight="bold" font-size="114" text-anchor="middle">3</text>
<!-- Text -->
<text xml:space="preserve" x="5291" y="2503" fill="#000000"  font-family="Helvetica" font-style="normal" font-weight="bold" font-size="114" text-anchor="middle">4</text>
<!-- Text -->
<text xml:space="preserve" x="4629" y="2456" fill="#000000"  font-family="Helvetica" font-style="normal" font-weight="bold" font-size="227" text-anchor="middle">S</text>
<!-- Line -->
<polyline points="944,2545
944,2418
" style="stroke:#000000;stroke-width:16;
stroke-linejoin:miter; stroke-linecap:butt;
"/>
<!-- Arrowhead on XXXpoint 944 2545 - 944 2325-->
<polygon points="976 2397
944 2334
913 2397
976 2397

" style="stroke:#000000;stroke-width:8;stroke-miterlimit:8;
fill:#000000;"/>
<!-- Text -->
<text xml:space="preserve" x="803" y="2451" fill="#000000"  font-family="Helvetica" font-style="normal" font-weight="bold" font-size="227" text-anchor="middle">S</text>
<!-- Text -->
<text xml:space="preserve" x="1228" y="2503" fill="#000000"  font-family="Helvetica" font-style="normal" font-weight="bold" font-size="152" text-anchor="middle">B</text>
<!-- Text -->
<text xml:space="preserve" x="1086" y="2456" fill="#000000"  font-family="Helvetica" font-style="normal" font-weight="bold" font-size="227" text-anchor="middle">T</text>
<!-- Line -->
<polyline points="1322,2503
1417,2314
" style="stroke:#000000;stroke-width:8;
stroke-linejoin:miter; stroke-linecap:round;
"/>
<!-- Text -->
<text xml:space="preserve" x="1322" y="2409" fill="#000000"  font-family="Helvetica" font-style="normal" font-weight="bold" font-size="114" text-anchor="middle">1</text>
<!-- Text -->
<text xml:space="preserve" x="1417" y="2503" fill="#000000"  font-family="Helvetica" font-style="normal" font-weight="bold" font-size="114" text-anchor="middle">2</text>
<!-- Circle -->
<circle cx="708" cy="2692" r="94"
 style="stroke:#000000;stroke-width:16;"/>
<!-- Circle -->
<circle cx="1464" cy="2692" r="94"
 style="stroke:#000000;stroke-width:16;"/>
<!-- Circle -->
<circle cx="1086" cy="2692" r="94"
 style="stroke:#000000;stroke-width:16;"/>
<!-- Line: box -->
<rect x="1370" y="1889" width="188" height="188" rx="0" 
style="stroke:#000000;stroke-width:16;
stroke-linejoin:miter; stroke-linecap:butt;
"/>
<!-- Line: box -->
<rect x="614" y="1889" width="188" height="188" rx="0" 
style="stroke:#000000;stroke-width:16;
stroke-linejoin:miter; stroke-linecap:butt;
"/>
<!-- Line: box -->
<rect x="992" y="1889" width="188" height="188" rx="0" 
style="stroke:#000000;stroke-width:16;
stroke-linejoin:miter; stroke-linecap:butt;
"/>
<!-- Line -->
<polyline points="1370,2078
1322,2125
" style="stroke:#000000;stroke-width:16;
stroke-linejoin:miter; stroke-linecap:round;
"/>
<!-- Line -->
<polyline points="992,2078
944,2125
" style="stroke:#000000;stroke-width:16;
stroke-linejoin:miter; stroke-linecap:round;
"/>
<!-- Line -->
<polyline points="1200,2565
1152,2613
" style="stroke:#000000;stroke-width:16;
stroke-linejoin:miter; stroke-linecap:round;
"/>
<!-- Line -->
<polyline points="773,2621
820,2574
" style="stroke:#000000;stroke-width:16;
stroke-linejoin:miter; stroke-linecap:round;
"/>
<!-- Line -->
<polyline points="614,2078
566,2125
" style="stroke:#000000;stroke-width:16;
stroke-linejoin:miter; stroke-linecap:round;
"/>
<!-- Line -->
<polyline points="1521,2615
1568,2567
" style="stroke:#000000;stroke-width:16;
stroke-linejoin:miter; stroke-linecap:round;
"/>
<!-- Line -->
<polyline points="1653,2503
1654,2500
1657,2494
1661,2483
1668,2469
1675,2450
1683,2429
1692,2408
1699,2386
1706,2365
1712,2344
1717,2323
1721,2303
1725,2281
1729,2259
1732,2236
1734,2219
1735,2202
1736,2183
1737,2164
1737,2144
1737,2123
1735,2102
1733,2080
1730,2057
1725,2034
1720,2011
1714,1988
1706,1965
1696,1943
1686,1921
1673,1899
1659,1879
1644,1859
1627,1840
1609,1822
1589,1806
1568,1791
1544,1777
1520,1763
1496,1753
1471,1743
1445,1734
1417,1725
1386,1718
1355,1711
1322,1704
1288,1699
1252,1694
1215,1690
1177,1687
1139,1685
1099,1683
1059,1682
1019,1682
980,1683
940,1686
902,1689
864,1692
827,1696
791,1701
758,1707
724,1713
692,1720
663,1729
635,1737
607,1745
582,1756
554,1767
528,1781
503,1795
480,1811
458,1826
437,1843
418,1862
401,1880
384,1900
369,1920
355,1940
344,1961
333,1981
324,2001
317,2020
310,2040
305,2058
301,2077
299,2094
297,2110
297,2125
297,2139
298,2153
299,2165
303,2183
309,2199
318,2213
328,2224
343,2235
360,2242
380,2249
402,2256
424,2260
443,2263
410,2259
" style="stroke:#000000;stroke-width:16;
stroke-linejoin:bevel; stroke-linecap:butt;
"/>
<!-- Arrowhead on XXXpoint 443 2263 - 502 2271-->
<polygon points="426 2292
493 2270
434 2229
426 2292

" style="stroke:#000000;stroke-width:8;stroke-miterlimit:8;
fill:#000000;"/>
<!-- Line -->
<polyline points="519,2173
518,2176
515,2182
511,2193
504,2207
497,2226
489,2247
480,2268
473,2290
467,2311
460,2332
455,2353
451,2373
447,2395
444,2417
440,2440
438,2456
437,2472
436,2489
435,2506
435,2524
435,2543
436,2562
437,2582
439,2603
443,2624
447,2645
452,2666
458,2688
466,2709
474,2730
485,2751
495,2771
508,2790
521,2809
536,2826
552,2843
570,2859
588,2874
608,2888
629,2900
654,2913
677,2923
701,2933
727,2942
755,2951
786,2958
817,2965
850,2972
885,2977
920,2982
957,2986
995,2990
1034,2992
1074,2993
1113,2994
1153,2994
1192,2993
1232,2991
1270,2987
1309,2984
1345,2980
1381,2975
1415,2970
1448,2963
1480,2956
1509,2948
1538,2939
1565,2931
1590,2921
1618,2909
1645,2895
1669,2881
1692,2866
1714,2850
1735,2833
1754,2814
1772,2796
1788,2776
1803,2756
1817,2737
1828,2716
1839,2696
1848,2676
1856,2656
1862,2636
1867,2618
1871,2599
1874,2582
1876,2566
1876,2551
1876,2537
1875,2523
1874,2512
1869,2493
1863,2477
1855,2464
1844,2452
1829,2441
1813,2434
1793,2427
1771,2420
1749,2416
1730,2413
1761,2416
" style="stroke:#000000;stroke-width:16;
stroke-linejoin:bevel; stroke-linecap:butt;
stroke-dasharray:20 20;"/>
<!-- Arrowhead on XXXpoint 1730 2413 - 1669 2404-->
<polygon points="1744 2383
1678 2405
1735 2445
1744 2383

" style="stroke:#000000;stroke-width:8;stroke-miterlimit:8;
fill:#000000;"/>
<!-- Text -->
<text xml:space="preserve" x="708" y="2031" fill="#000000"  font-family="Helvetica" font-style="normal" font-weight="bold" font-size="114" text-anchor="middle">2</text>
<!-- Text -->
<text xml:space="preserve" x="1464" y="2740" fill="#000000"  font-family="Helvetica" font-style="normal" font-weight="bold" font-size="114" text-anchor="middle">3</text>
<!-- Text -->
<text xml:space="preserve" x="1464" y="2031" fill="#000000"  font-family="Helvetica" font-style="normal" font-weight="bold" font-size="114" text-anchor="middle">1</text>
<!-- Text -->
<text xml:space="preserve" x="708" y="2740" fill="#000000"  font-family="Helvetica" font-style="normal" font-weight="bold" font-size="114" text-anchor="middle">1</text>
<!-- Text -->
<text xml:space="preserve" x="1086" y="2031" fill="#000000"  font-family="Helvetica" font-style="normal" font-weight="bold" font-size="114" text-anchor="middle">3</text>
<!-- Text -->
<text xml:space="preserve" x="1086" y="2740" fill="#000000"  font-family="Helvetica" font-style="normal" font-weight="bold" font-size="114" text-anchor="middle">2</text>
<!-- Line: box -->
<rect x="4724" y="566" width="188" height="188" rx="0" 
style="stroke:#000000;stroke-width:16;
stroke-linejoin:miter; stroke-linecap:butt;
"/>
<!-- Text -->
<text xml:space="preserve" x="4818" y="708" fill="#000000"  font-family="Helvetica" font-style="normal" font-weight="bold" font-size="114" text-anchor="middle">1</text>
<!-- Text -->
<text xml:space="preserve" x="4818" y="1511" fill="#000000"  font-family="Helvetica" font-style="normal" font-weight="bold" font-size="152" text-anchor="middle">R1</text>
<!-- Text -->
<text xml:space="preserve" x="4677" y="1464" fill="#000000"  font-family="Helvetica" font-style="normal" font-weight="bold" font-size="227" text-anchor="middle">T</text>
<!-- Line -->
<polyline points="4960,1511
5055,1322
" style="stroke:#000000;stroke-width:8;
stroke-linejoin:miter; stroke-linecap:round;
"/>
<!-- Text -->
<text xml:space="preserve" x="4960" y="1417" fill="#000000"  font-family="Helvetica" font-style="normal" font-weight="bold" font-size="114" text-anchor="middle">1</text>
<!-- Text -->
<text xml:space="preserve" x="5055" y="1511" fill="#000000"  font-family="Helvetica" font-style="normal" font-weight="bold" font-size="114" text-anchor="middle">2</text>
<!-- Text -->
<text xml:space="preserve" x="5196" y="803" fill="#000000"  font-family="Helvetica" font-style="normal" font-weight="bold" font-size="152" text-anchor="middle">R1</text>
<!-- Text -->
<text xml:space="preserve" x="5055" y="755" fill="#000000"  font-family="Helvetica" font-style="normal" font-weight="bold" font-size="227" text-anchor="middle">T</text>
<!-- Line -->
<polyline points="5338,803
5433,614
" style="stroke:#000000;stroke-width:8;
stroke-linejoin:miter; stroke-linecap:round;
"/>
<!-- Text -->
<text xml:space="preserve" x="5338" y="708" fill="#000000"  font-family="Helvetica" font-style="normal" font-weight="bold" font-size="114" text-anchor="middle">1</text>
<!-- Text -->
<text xml:space="preserve" x="5433" y="803" fill="#000000"  font-family="Helvetica" font-style="normal" font-weight="bold" font-size="114" text-anchor="middle">2</text>
<!-- Circle -->
<circle cx="5291" cy="1370" r="94"
 style="stroke:#000000;stroke-width:16;"/>
<!-- Text -->
<text xml:space="preserve" x="5291" y="1417" fill="#000000"  font-family="Helvetica" font-style="normal" font-weight="bold" font-size="114" text-anchor="middle">1</text>
<!-- Text -->
<text xml:space="preserve" x="4440" y="708" fill="#000000"  font-family="Helvetica" font-style="normal" font-weight="bold" font-size="114" text-anchor="middle">2</text>
<!-- Circle -->
<circle cx="4440" cy="1370" r="94"
 style="stroke:#000000;stroke-width:16;"/>
<!-- Text -->
<text xml:space="preserve" x="4440" y="1417" fill="#000000"  font-family="Helvetica" font-style="normal" font-weight="bold" font-size="114" text-anchor="middle">2</text>
<!-- Line: box -->
<rect x="5574" y="566" width="188" height="188" rx="0" 
style="stroke:#000000;stroke-width:16;
stroke-linejoin:miter; stroke-linecap:butt;
"/>
<!-- Text -->
<text xml:space="preserve" x="5669" y="708" fill="#000000"  font-family="Helvetica" font-style="normal" font-weight="bold" font-size="114" text-anchor="middle">3</text>
<!-- Text -->
<text xml:space="preserve" x="5669" y="1417" fill="#000000"  font-family="Helvetica" font-style="normal" font-weight="bold" font-size="114" text-anchor="middle">3</text>
<!-- Line -->
<polyline points="5527,661
5574,661
" style="stroke:#000000;stroke-width:16;
stroke-linejoin:miter; stroke-linecap:round;
"/>
<!-- Line -->
<polyline points="4913,661
4960,661
" style="stroke:#000000;stroke-width:16;
stroke-linejoin:miter; stroke-linecap:round;
"/>
<!-- Line -->
<polyline points="4535,1370
4582,1370
" style="stroke:#000000;stroke-width:16;
stroke-linejoin:miter; stroke-linecap:round;
"/>
<!-- Line -->
<polyline points="5149,1370
5196,1370
" style="stroke:#000000;stroke-width:16;
stroke-linejoin:miter; stroke-linecap:round;
"/>
<!-- Line -->
<polyline points="0,377
6094,377
" style="stroke:#000000;stroke-width:16;
stroke-linejoin:miter; stroke-linecap:butt;
"/>
<!-- Line -->
<polyline points="0,3401
6094,3401
" style="stroke:#000000;stroke-width:16;
stroke-linejoin:miter; stroke-linecap:butt;
"/>
<!-- Line -->
<polyline points="2834,377
2834,1606
" style="stroke:#000000;stroke-width:16;
stroke-linejoin:miter; stroke-linecap:butt;
"/>
<!-- Line -->
<polyline points="0,1606
6094,1606
" style="stroke:#000000;stroke-width:16;
stroke-linejoin:miter; stroke-linecap:butt;
"/>
<!-- Line -->
<polyline points="4110,377
4110,1606
" style="stroke:#000000;stroke-width:16;
stroke-linejoin:miter; stroke-linecap:butt;
stroke-dasharray:62 62;"/>
<!-- Line -->
<polyline points="1889,3401
1889,4771
" style="stroke:#000000;stroke-width:16;
stroke-linejoin:miter; stroke-linecap:butt;
stroke-dasharray:62 62;"/>
<!-- Line -->
<polyline points="1086,377
1086,1606
" style="stroke:#000000;stroke-width:16;
stroke-linejoin:miter; stroke-linecap:butt;
stroke-dasharray:62 62;"/>
<!-- Line: box -->
<rect x="0" y="0" width="6094" height="4771" rx="0" 
style="stroke:#000000;stroke-width:16;
stroke-linejoin:miter; stroke-linecap:butt;
"/>
<!-- Text -->
<text xml:space="preserve" x="141" y="283" fill="#000000"  font-family="Helvetica" font-style="normal" font-weight="normal" font-size="227" text-anchor="start">Barbara's Strathspey</text>
<!-- Text -->
<text xml:space="preserve" x="6000" y="283" fill="#000000"  font-family="Helvetica" font-style="normal" font-weight="normal" font-size="227" text-anchor="end">S32</text>
<!-- Text -->
<text xml:space="preserve" x="3212" y="850" fill="#000000"  font-family="Helvetica" font-style="normal" font-weight="bold" font-size="114" text-anchor="middle">all</text>
</g>
</svg>
