<?xml version="1.0" encoding="utf-8"?>
<!-- Generator: Adobe Illustrator 22.0.1, SVG Export Plug-In . SVG Version: 6.00 Build 0)  -->
<svg version="1.1" id="Layer_1" xmlns="http://www.w3.org/2000/svg" xmlns:xlink="http://www.w3.org/1999/xlink" x="0px" y="0px"
	 viewBox="0 0 272.7 130.2" style="enable-background:new 0 0 272.7 130.2;" xml:space="preserve">
<style type="text/css">
	.st0{fill:#FFFFFF;stroke:#000000;stroke-width:0.5669;}
	.st1{fill:none;stroke:#000000;stroke-width:0.5669;stroke-miterlimit:10;}
	.st2{fill:none;stroke:#000000;stroke-width:0.5669;stroke-miterlimit:10;stroke-dasharray:2.8395,1.9877;}
	.st3{fill:#009EE0;stroke:#000000;stroke-width:0.5669;stroke-miterlimit:10;}
	.st4{fill:#FFFFFF;}
	.st5{fill:#57AB27;}
	.st6{fill:#E2007A;}
	.st7{fill:none;stroke:#000000;stroke-width:0.9921;stroke-miterlimit:10;}
	.st8{fill:none;stroke:#000000;stroke-width:0.5669;stroke-miterlimit:10;stroke-dasharray:2.6671,1.8669;}
	.st9{fill:none;stroke:#000000;stroke-width:0.5669;}
	.st10{fill:none;stroke:#000000;stroke-width:0.5669;stroke-dasharray:3.0653,2.0436;}
	.st11{fill:none;stroke:#000000;stroke-width:0.5669;stroke-miterlimit:10;stroke-dasharray:2.4568,1.7198;}
	.st12{fill:#E2007A;stroke:#000000;stroke-width:0.5669;stroke-miterlimit:10;}
	.st13{fill:#57AB27;stroke:#000000;stroke-width:0.5669;stroke-miterlimit:10;}
	.st14{fill:none;stroke:#000000;stroke-width:0.5669;stroke-miterlimit:10;stroke-dasharray:2.8676,2.0073;}
	.st15{fill:none;stroke:#000000;stroke-width:0.5669;stroke-miterlimit:10;stroke-dasharray:2.8816,2.0171;}
	.st16{fill:none;}
	.st17{fill:none;stroke:#000000;stroke-width:0.5669;stroke-miterlimit:10;stroke-dasharray:2.756,1.9292;}
</style>
<g>
	<rect x="1.7" y="1.7" class="st0" width="269.3" height="18"/>
	<rect x="1.7" y="19.7" class="st0" width="269.3" height="51"/>
	<rect x="1.7" y="70.7" class="st0" width="269.3" height="51"/>
	<g>
		<g>
			<path d="M10.2,8.7v6H8.7v-6H6.5V7.4h5.8v1.2H10.2z"/>
			<path d="M17.5,14.7v-3.3h-2.9v3.3h-1.5V7.4h1.5v2.7h2.9V7.4H19v7.3H17.5z"/>
			<path d="M20.5,14.7V7.4h5.3v1.2H22v1.6h3.5v1.2H22v1.9h3.9v1.2H20.5z"/>
			<path d="M31.4,8.7v1.6h3.2v1.2h-3.2v3.1h-1.5V7.4H35v1.2H31.4z"/>
			<path d="M35.9,14.7V7.4h1.5v7.3H35.9z"/>
			<path d="M43.1,14.7l-2.9-5v5h-1.5V7.4h1.5l2.9,5v-5h1.5v7.3H43.1z"/>
			<path d="M50.7,14.7l-0.5-1.5h-2.7L47,14.7h-1.5l2.6-7.3h1.7l2.5,7.3H50.7z M48.9,9.1L47.9,12h1.9L48.9,9.1z"/>
			<path d="M53.3,14.7V7.4h1.5v6h3.5v1.2H53.3z"/>
			<path d="M63.6,8.7v1.6h3.2v1.2h-3.2v3.1h-1.5V7.4h5.1v1.2H63.6z"/>
			<path d="M68.3,14.7V7.4h1.5v6h3.5v1.2H68.3z"/>
			<path d="M74.2,14.7V7.4h1.5v7.3H74.2z"/>
			<path d="M81.5,14.7l-2.9-5v5H77V7.4h1.5l2.9,5v-5H83v7.3H81.5z"/>
			<path d="M89.8,14.7l-0.2-1c-0.6,0.8-1.2,1.1-2.2,1.1c-2,0-3.4-1.6-3.4-3.8c0-2.3,1.4-3.8,3.5-3.8c1.8,0,3,1,3.2,2.4h-1.4
				c-0.3-0.8-0.9-1.2-1.7-1.2c-1.3,0-2,0.9-2,2.5c0,1.5,0.9,2.5,2.1,2.5c0.9,0,1.7-0.6,1.8-1.5h-1.7v-1.2h2.9v3.9H89.8z"/>
		</g>
	</g>
	<g>
		<g>
			<path d="M237.4,14.8c-1.5,0-2.5-0.9-2.5-2.2c0-0.8,0.3-1.3,1.2-1.7c-0.6-0.3-0.9-0.8-0.9-1.4c0-1.1,1-1.9,2.3-1.9
				c1.3,0,2.3,0.8,2.3,1.9c0,0.7-0.3,1.1-0.9,1.5c0.8,0.4,1.2,0.9,1.2,1.7C239.9,13.9,238.9,14.8,237.4,14.8z M237.4,11.4
				c-0.7,0-1.1,0.4-1.1,1.1c0,0.7,0.4,1.1,1.1,1.1s1.1-0.4,1.1-1.1C238.5,11.8,238.1,11.4,237.4,11.4z M237.4,8.6
				c-0.6,0-1.1,0.4-1.1,0.9c0,0.5,0.4,0.9,1.1,0.9c0.6,0,1-0.4,1-0.9C238.4,9,238,8.6,237.4,8.6z"/>
			<path d="M243.9,14.7L243,13l-0.9,1.7h-1.7l1.8-2.7l-1.8-2.7h1.7l0.9,1.6l0.9-1.6h1.7l-1.8,2.7l1.8,2.7H243.9z"/>
			<path d="M248.5,14.8c-1.4,0-2.4-0.9-2.4-2.3h1.4c0,0.7,0.4,1.1,1.1,1.1c0.6,0,1-0.5,1-1.1c0-0.8-0.5-1.1-1.6-1.1v-0.9h0.1
				c0.8,0,1.2-0.3,1.2-1c0-0.6-0.3-0.9-0.9-0.9c-0.7,0-1,0.4-1,1.2h-1.3V9.7c0-1.5,0.9-2.3,2.3-2.3s2.2,0.8,2.2,1.9
				c0,0.6-0.3,1-0.9,1.4c0.8,0.4,1.2,0.9,1.2,1.7C250.9,13.9,250,14.8,248.5,14.8z"/>
			<path d="M254.9,12.1c-1,0.8-1.3,1-1.4,1.3h3v1.2h-4.8c0.1-1.3,0.4-1.9,1.6-2.8c1.6-1.1,1.8-1.4,1.8-2.2c0-0.7-0.4-1.1-1-1.1
				c-0.6,0-1,0.5-1,1.2v0.2h-1.3c0-0.1,0-0.2,0-0.3c0-1.5,0.9-2.4,2.3-2.4c1.5,0,2.4,0.9,2.4,2.2C256.5,10.7,256.1,11.2,254.9,12.1z
				"/>
			<path d="M264.8,14.7c-0.2-0.3-0.2-0.6-0.2-1.2l0-0.8c0-0.6-0.3-0.9-0.9-0.9H262v2.9h-1.5V7.4h3.9c1.3,0,2,0.8,2,2
				c0,0.9-0.4,1.5-1.2,1.8c0.9,0.4,1,0.5,1,2.6c0,0.3,0.1,0.5,0.3,0.6v0.3H264.8z M263.8,8.7H262v1.9h1.8c0.8,0,1.1-0.3,1.1-1
				C264.8,9,264.6,8.7,263.8,8.7z"/>
		</g>
	</g>
	<g>
		<g>
			<g>
				<path d="M3.7,128.7H3.2l-1.3-3.6h0.5l1.1,3.1l1-3.1h0.5L3.7,128.7z"/>
				<path d="M5.5,128.7v-0.5H6v0.5H5.5z"/>
				<path d="M11.1,128.7l-0.1-0.5c-0.4,0.4-0.8,0.6-1.2,0.6c-1,0-1.7-0.8-1.7-1.9c0-1.1,0.6-2,1.8-2c0.8,0,1.4,0.5,1.5,1.2h-0.5
					c-0.1-0.5-0.5-0.8-1.1-0.8c-0.8,0-1.3,0.6-1.3,1.5c0,0.9,0.5,1.5,1.3,1.5c0.7,0,1.1-0.4,1.1-1.1v-0.1H9.8v-0.4h1.5v1.9H11.1z"/>
				<path d="M14.1,128.8c-0.2,0-0.4-0.1-0.4-0.3c-0.2,0.2-0.6,0.4-0.9,0.4c-0.5,0-0.9-0.3-0.9-0.8c0-0.3,0.2-0.6,0.5-0.7
					c0.2-0.1,0.3-0.1,0.8-0.2c0.3,0,0.4-0.1,0.4-0.3v-0.1c0-0.3-0.2-0.4-0.6-0.4c-0.4,0-0.6,0.1-0.6,0.5H12c0-0.6,0.4-0.9,1.1-0.9
					c0.6,0,1,0.3,1,0.7v1.5c0,0.1,0.1,0.2,0.2,0.2c0,0,0,0,0.1,0v0.3C14.2,128.8,14.2,128.8,14.1,128.8z M13.7,127.5
					c-0.1,0.1-0.2,0.1-0.7,0.1c-0.4,0.1-0.6,0.2-0.6,0.5c0,0.3,0.2,0.4,0.5,0.4c0.4,0,0.8-0.2,0.8-0.6V127.5z"/>
				<path d="M15.3,127.4v1.4h-0.4v-2.6h0.4v0.5c0.2-0.4,0.4-0.6,0.7-0.6c0.1,0,0.1,0,0.2,0v0.4C15.4,126.5,15.3,126.8,15.3,127.4z"
					/>
				<path d="M17.6,128.8c-0.4,0-0.6-0.1-0.8-0.5v0.4h-0.4v-3.6h0.4v1.4c0.2-0.3,0.5-0.4,0.8-0.4c0.7,0,1.1,0.5,1.1,1.4
					C18.8,128.3,18.3,128.8,17.6,128.8z M17.6,126.4c-0.4,0-0.7,0.4-0.7,1c0,0.6,0.3,1,0.7,1c0.5,0,0.8-0.4,0.8-1
					C18.3,126.8,18,126.4,17.6,126.4z"/>
				<path d="M21,128.7v-0.4c-0.2,0.3-0.5,0.5-0.9,0.5c-0.5,0-0.8-0.3-0.8-0.7v-2h0.4v1.8c0,0.3,0.2,0.5,0.5,0.5
					c0.4,0,0.7-0.4,0.7-0.9v-1.4h0.4v2.6H21z"/>
				<path d="M21.9,128.7v-0.4l1.6-1.9H22v-0.4h2v0.4l-1.6,1.9H24v0.4H21.9z"/>
				<path d="M25.6,128.8c-0.7,0-1.2-0.5-1.2-1.4s0.4-1.4,1.2-1.4c0.8,0,1.2,0.5,1.2,1.4C26.8,128.3,26.3,128.8,25.6,128.8z
					 M25.6,126.4c-0.5,0-0.8,0.4-0.8,1c0,0.6,0.3,1,0.8,1c0.5,0,0.8-0.4,0.8-1C26.3,126.8,26,126.4,25.6,126.4z"/>
				<path d="M28.4,128.7H28l-0.9-2.6h0.5l0.7,2.1l0.7-2.1h0.5L28.4,128.7z"/>
				<path d="M29.9,129.5v-0.2c0.2,0,0.3-0.1,0.3-0.5v-0.1h-0.3v-0.5h0.5v0.6C30.5,129.3,30.3,129.5,29.9,129.5z"/>
				<path d="M34.1,127.3l-0.5,0.3c-0.4,0.3-0.6,0.4-0.6,0.7h1.9v0.4h-2.4c0-0.8,0.3-1.1,1-1.5l0.5-0.3c0.3-0.2,0.5-0.4,0.5-0.7
					c0-0.4-0.3-0.7-0.7-0.7c-0.4,0-0.7,0.3-0.7,0.8h-0.4c0-0.9,0.4-1.2,1.2-1.2c0.7,0,1.1,0.4,1.1,1C34.8,126.7,34.6,127,34.1,127.3
					z"/>
				<path d="M36.4,128.8c-0.8,0-1.2-0.6-1.2-1.8c0-1.2,0.4-1.8,1.2-1.8c0.8,0,1.2,0.6,1.2,1.8C37.6,128.2,37.2,128.8,36.4,128.8z
					 M36.4,125.6c-0.5,0-0.7,0.5-0.7,1.4s0.2,1.4,0.7,1.4c0.5,0,0.7-0.5,0.7-1.5C37.1,126,36.9,125.6,36.4,125.6z"/>
				<path d="M39.6,127.3l-0.5,0.3c-0.4,0.3-0.6,0.4-0.6,0.7h1.9v0.4H38c0-0.8,0.3-1.1,1-1.5l0.5-0.3c0.3-0.2,0.5-0.4,0.5-0.7
					c0-0.4-0.3-0.7-0.7-0.7c-0.4,0-0.7,0.3-0.7,0.8h-0.4c0-0.9,0.4-1.2,1.2-1.2c0.7,0,1.1,0.4,1.1,1C40.4,126.7,40.1,127,39.6,127.3
					z"/>
				<path d="M42,128.8c-0.8,0-1.2-0.6-1.2-1.8c0-1.2,0.4-1.8,1.2-1.8c0.8,0,1.2,0.6,1.2,1.8C43.1,128.2,42.7,128.8,42,128.8z
					 M42,125.6c-0.5,0-0.7,0.5-0.7,1.4s0.2,1.4,0.7,1.4c0.5,0,0.7-0.5,0.7-1.5C42.7,126,42.5,125.6,42,125.6z"/>
			</g>
		</g>
		<g>
			<g>
				<path d="M133.2,128.7v-0.4c-0.2,0.3-0.5,0.5-0.8,0.5c-0.7,0-1.1-0.5-1.1-1.4c0-0.8,0.4-1.4,1.1-1.4c0.4,0,0.6,0.1,0.8,0.4v-1.4
					h0.4v3.6H133.2z M132.4,126.4c-0.5,0-0.8,0.4-0.8,1c0,0.6,0.3,1,0.8,1c0.4,0,0.7-0.4,0.7-1S132.9,126.4,132.4,126.4z"/>
				<path d="M134.2,125.7v-0.5h0.5v0.5H134.2z M134.2,128.7v-2.6h0.4v2.6H134.2z"/>
				<path d="M137.4,128.8c-0.2,0-0.4-0.1-0.4-0.3c-0.2,0.2-0.6,0.4-0.9,0.4c-0.5,0-0.9-0.3-0.9-0.8c0-0.3,0.2-0.6,0.5-0.7
					c0.2-0.1,0.3-0.1,0.8-0.2c0.3,0,0.4-0.1,0.4-0.3v-0.1c0-0.3-0.2-0.4-0.6-0.4c-0.4,0-0.6,0.1-0.6,0.5h-0.4c0-0.6,0.4-0.9,1.1-0.9
					c0.6,0,1,0.3,1,0.7v1.5c0,0.1,0.1,0.2,0.2,0.2c0,0,0,0,0.1,0v0.3C137.5,128.8,137.5,128.8,137.4,128.8z M136.9,127.5
					c-0.1,0.1-0.2,0.1-0.7,0.1c-0.4,0.1-0.6,0.2-0.6,0.5c0,0.3,0.2,0.4,0.5,0.4c0.4,0,0.8-0.2,0.8-0.6V127.5z"/>
				<path d="M139.1,129.8c-0.6,0-1-0.3-1-0.8h0.4c0,0.3,0.3,0.4,0.6,0.4c0.5,0,0.8-0.3,0.8-1v-0.2c-0.3,0.3-0.5,0.5-0.8,0.5
					c-0.6,0-1.1-0.5-1.1-1.4c0-0.9,0.5-1.4,1.1-1.4c0.3,0,0.6,0.1,0.8,0.5v-0.4h0.4v2.2C140.2,129.5,139.9,129.8,139.1,129.8z
					 M139.1,126.4c-0.4,0-0.7,0.4-0.7,1c0,0.6,0.3,1,0.7,1c0.4,0,0.7-0.4,0.7-1C139.8,126.8,139.5,126.4,139.1,126.4z"/>
				<path d="M141.3,127.4v1.4h-0.4v-2.6h0.4v0.5c0.2-0.4,0.4-0.6,0.7-0.6c0.1,0,0.1,0,0.2,0v0.4
					C141.5,126.5,141.3,126.8,141.3,127.4z"/>
				<path d="M144.6,128.8c-0.2,0-0.4-0.1-0.4-0.3c-0.2,0.2-0.6,0.4-0.9,0.4c-0.5,0-0.9-0.3-0.9-0.8c0-0.3,0.2-0.6,0.5-0.7
					c0.2-0.1,0.3-0.1,0.8-0.2c0.3,0,0.4-0.1,0.4-0.3v-0.1c0-0.3-0.2-0.4-0.6-0.4c-0.4,0-0.6,0.1-0.6,0.5h-0.4c0-0.6,0.4-0.9,1.1-0.9
					c0.6,0,1,0.3,1,0.7v1.5c0,0.1,0.1,0.2,0.2,0.2c0,0,0,0,0.1,0v0.3C144.8,128.8,144.7,128.8,144.6,128.8z M144.2,127.5
					c-0.1,0.1-0.2,0.1-0.7,0.1c-0.4,0.1-0.6,0.2-0.6,0.5c0,0.3,0.2,0.4,0.5,0.4c0.4,0,0.8-0.2,0.8-0.6V127.5z"/>
				<path d="M148.4,128.7v-1.8c0-0.3-0.2-0.5-0.5-0.5c-0.3,0-0.6,0.3-0.6,0.7v1.6h-0.4v-1.8c0-0.3-0.2-0.5-0.5-0.5
					c-0.3,0-0.6,0.3-0.6,0.7v1.6h-0.4v-2.6h0.4v0.4c0.2-0.3,0.5-0.4,0.8-0.4c0.3,0,0.6,0.1,0.7,0.4c0.2-0.3,0.5-0.4,0.8-0.4
					c0.5,0,0.8,0.3,0.8,0.7v2H148.4z"/>
				<path d="M152.7,128.7v-0.4c-0.2,0.3-0.5,0.5-0.8,0.5c-0.7,0-1.1-0.5-1.1-1.4c0-0.8,0.4-1.4,1.1-1.4c0.3,0,0.6,0.1,0.8,0.4v-1.4
					h0.4v3.6H152.7z M151.9,126.4c-0.5,0-0.8,0.4-0.8,1c0,0.6,0.3,1,0.8,1c0.4,0,0.7-0.4,0.7-1S152.3,126.4,151.9,126.4z"/>
				<path d="M154,127.6c0,0.6,0.3,0.9,0.8,0.9c0.3,0,0.6-0.1,0.7-0.5h0.4c-0.1,0.5-0.5,0.9-1.1,0.9c-0.7,0-1.2-0.5-1.2-1.4
					c0-0.9,0.5-1.4,1.2-1.4c0.5,0,0.9,0.3,1.1,0.7c0.1,0.2,0.1,0.4,0.1,0.8H154z M154.7,126.4c-0.4,0-0.7,0.3-0.8,0.8h1.5
					c0,0,0,0,0,0C155.5,126.8,155.1,126.4,154.7,126.4z"/>
				<path d="M157.3,128.8c-0.7,0-1-0.3-1-0.9h0.4c0.1,0.4,0.3,0.5,0.6,0.5c0.4,0,0.6-0.1,0.6-0.4c0-0.2-0.1-0.3-0.4-0.3l-0.4-0.1
					c-0.6-0.2-0.8-0.3-0.8-0.8c0-0.5,0.4-0.8,1-0.8c0.6,0,0.9,0.3,1,0.8h-0.4c0-0.3-0.2-0.4-0.5-0.4c-0.3,0-0.6,0.2-0.6,0.4
					c0,0.2,0.1,0.3,0.5,0.4l0.4,0.1c0.5,0.1,0.7,0.3,0.7,0.7C158.4,128.5,158,128.8,157.3,128.8z"/>
				<path d="M158.9,125.7v-0.5h0.5v0.5H158.9z M159,128.7v-2.6h0.4v2.6H159z"/>
				<path d="M161,129.8c-0.6,0-1-0.3-1-0.8h0.4c0,0.3,0.3,0.4,0.6,0.4c0.5,0,0.8-0.3,0.8-1v-0.2c-0.3,0.3-0.5,0.5-0.8,0.5
					c-0.6,0-1.1-0.5-1.1-1.4c0-0.9,0.5-1.4,1.1-1.4c0.3,0,0.6,0.1,0.8,0.5v-0.4h0.4v2.2C162.2,129.5,161.8,129.8,161,129.8z
					 M161,126.4c-0.4,0-0.7,0.4-0.7,1c0,0.6,0.3,1,0.7,1c0.4,0,0.7-0.4,0.7-1C161.7,126.8,161.5,126.4,161,126.4z"/>
				<path d="M164.5,128.7v-1.8c0-0.3-0.2-0.5-0.5-0.5c-0.4,0-0.7,0.4-0.7,0.9v1.4h-0.4v-2.6h0.4v0.4c0.2-0.4,0.5-0.5,0.9-0.5
					c0.5,0,0.8,0.3,0.8,0.7v2H164.5z"/>
				<path d="M165.9,127.6c0,0.6,0.3,0.9,0.8,0.9c0.3,0,0.6-0.1,0.7-0.5h0.4c-0.1,0.5-0.5,0.9-1.1,0.9c-0.7,0-1.2-0.5-1.2-1.4
					c0-0.9,0.5-1.4,1.2-1.4c0.5,0,0.9,0.3,1.1,0.7c0.1,0.2,0.1,0.4,0.1,0.8H165.9z M166.7,126.4c-0.4,0-0.7,0.3-0.8,0.8h1.5
					c0,0,0,0,0,0C167.4,126.8,167.1,126.4,166.7,126.4z"/>
				<path d="M168.8,127.4v1.4h-0.4v-2.6h0.4v0.5c0.2-0.4,0.4-0.6,0.7-0.6c0.1,0,0.1,0,0.2,0v0.4C169,126.5,168.8,126.8,168.8,127.4z
					"/>
				<path d="M170.2,126.6v-0.5h0.5v0.5H170.2z M170.2,128.7v-0.5h0.5v0.5H170.2z"/>
				<path d="M175.3,128.7l-0.4-1.1h-1.4l-0.4,1.1h-0.5l1.3-3.6h0.6l1.3,3.6H175.3z M174.2,125.6l-0.6,1.7h1.2L174.2,125.6z"/>
				<path d="M176.3,128.7v-0.5h0.5v0.5H176.3z"/>
				<path d="M179.1,128.7v-3.6h0.5v3.6H179.1z"/>
				<path d="M181.4,128.7H181l-0.9-2.6h0.5l0.7,2.1l0.7-2.1h0.5L181.4,128.7z"/>
				<path d="M184.9,128.8c-0.2,0-0.4-0.1-0.4-0.3c-0.2,0.2-0.6,0.4-0.9,0.4c-0.5,0-0.9-0.3-0.9-0.8c0-0.3,0.2-0.6,0.5-0.7
					c0.2-0.1,0.3-0.1,0.8-0.2c0.3,0,0.4-0.1,0.4-0.3v-0.1c0-0.3-0.2-0.4-0.6-0.4c-0.4,0-0.6,0.1-0.6,0.5h-0.4c0-0.6,0.4-0.9,1.1-0.9
					c0.6,0,1,0.3,1,0.7v1.5c0,0.1,0.1,0.2,0.2,0.2c0,0,0,0,0.1,0v0.3C185.1,128.8,185,128.8,184.9,128.8z M184.5,127.5
					c-0.1,0.1-0.2,0.1-0.7,0.1c-0.4,0.1-0.6,0.2-0.6,0.5c0,0.3,0.2,0.4,0.5,0.4c0.4,0,0.8-0.2,0.8-0.6V127.5z"/>
				<path d="M187.3,128.7v-1.8c0-0.3-0.2-0.5-0.5-0.5c-0.4,0-0.7,0.4-0.7,0.9v1.4h-0.4v-2.6h0.4v0.4c0.2-0.4,0.5-0.5,0.9-0.5
					c0.5,0,0.8,0.3,0.8,0.7v2H187.3z"/>
				<path d="M189.4,128.8c-0.7,0-1.2-0.5-1.2-1.4s0.4-1.4,1.2-1.4c0.8,0,1.2,0.5,1.2,1.4C190.6,128.3,190.2,128.8,189.4,128.8z
					 M189.4,126.4c-0.5,0-0.8,0.4-0.8,1c0,0.6,0.3,1,0.8,1c0.5,0,0.8-0.4,0.8-1C190.2,126.8,189.9,126.4,189.4,126.4z"/>
				<path d="M192.3,128.7h-0.5l-0.9-2.6h0.5l0.7,2.1l0.7-2.1h0.5L192.3,128.7z"/>
			</g>
		</g>
		<g>
			<path d="M227.9,128.8c-0.7,0-1.1-0.4-1.2-1.1h0.4c0,0.5,0.3,0.8,0.7,0.8c0.5,0,0.7-0.3,0.7-0.7c0-0.4-0.3-0.6-0.7-0.6h-0.2v-0.4
				c0.7,0,0.9-0.2,0.9-0.5c0-0.4-0.2-0.6-0.6-0.6c-0.5,0-0.7,0.2-0.7,0.8h-0.4c0-0.8,0.4-1.1,1.1-1.1c0.7,0,1.1,0.4,1.1,1
				c0,0.4-0.2,0.6-0.5,0.7c0.4,0.1,0.6,0.4,0.6,0.8C229.1,128.4,228.6,128.8,227.9,128.8z"/>
			<path d="M231.2,128.8c-1.1,0-1.6-0.8-1.6-1.9c0-1.1,0.6-2,1.7-2c0.8,0,1.3,0.4,1.4,1.2h-0.5c-0.1-0.6-0.4-0.8-1-0.8
				c-0.7,0-1.1,0.6-1.1,1.5c0,0.9,0.5,1.5,1.2,1.5c0.6,0,0.9-0.3,1-1h0.5C232.6,128.4,232.1,128.8,231.2,128.8z"/>
			<path d="M233.2,128.8h-0.3l1.2-3.7h0.3L233.2,128.8z"/>
			<path d="M236.4,127.9v0.9H236v-0.9h-1.5v-0.5l1.6-2.2h0.3v2.3h0.5v0.4H236.4z M236,125.9l-1.1,1.6h1.1V125.9z"/>
			<path d="M239,128.8c-1.1,0-1.6-0.8-1.6-1.9c0-1.1,0.6-2,1.7-2c0.8,0,1.3,0.4,1.4,1.2H240c-0.1-0.6-0.4-0.8-1-0.8
				c-0.7,0-1.1,0.6-1.1,1.5c0,0.9,0.5,1.5,1.2,1.5c0.6,0,0.9-0.3,1-1h0.5C240.4,128.4,239.9,128.8,239,128.8z"/>
			<path d="M242.5,128.7v-3.6h0.4v3.6H242.5z"/>
			<path d="M244.6,128.8c-0.7,0-1.2-0.5-1.2-1.4s0.4-1.4,1.2-1.4c0.8,0,1.2,0.5,1.2,1.4C245.8,128.3,245.3,128.8,244.6,128.8z
				 M244.6,126.4c-0.5,0-0.8,0.4-0.8,1c0,0.6,0.3,1,0.8,1c0.5,0,0.8-0.4,0.8-1C245.4,126.8,245.1,126.4,244.6,126.4z"/>
			<path d="M248,128.7v-1.8c0-0.3-0.2-0.5-0.5-0.5c-0.4,0-0.7,0.4-0.7,0.9v1.4h-0.4v-2.6h0.4v0.4c0.2-0.4,0.5-0.5,0.9-0.5
				c0.5,0,0.8,0.3,0.8,0.7v2H248z"/>
			<path d="M250.1,129.8c-0.6,0-1-0.3-1-0.8h0.4c0.1,0.3,0.3,0.4,0.6,0.4c0.5,0,0.8-0.3,0.8-1v-0.2c-0.3,0.3-0.5,0.5-0.8,0.5
				c-0.6,0-1.1-0.5-1.1-1.4c0-0.9,0.5-1.4,1.1-1.4c0.3,0,0.6,0.1,0.8,0.5v-0.4h0.4v2.2C251.2,129.5,250.9,129.8,250.1,129.8z
				 M250.1,126.4c-0.4,0-0.7,0.4-0.7,1c0,0.6,0.3,1,0.7,1c0.4,0,0.7-0.4,0.7-1C250.8,126.8,250.6,126.4,250.1,126.4z"/>
			<path d="M254.4,128.7h-0.5l-0.5-2.1l-0.5,2.1h-0.5l-0.8-2.6h0.5l0.5,2l0.5-2h0.5l0.5,2l0.5-2h0.5L254.4,128.7z"/>
			<path d="M255.5,125.7v-0.5h0.5v0.5H255.5z M255.5,128.7v-2.6h0.4v2.6H255.5z"/>
			<path d="M257.5,128.8c-0.7,0-1-0.3-1-0.9h0.4c0.1,0.4,0.3,0.5,0.6,0.5c0.4,0,0.6-0.1,0.6-0.4c0-0.2-0.1-0.3-0.4-0.3l-0.4-0.1
				c-0.6-0.2-0.8-0.3-0.8-0.8c0-0.5,0.4-0.8,1-0.8c0.6,0,0.9,0.3,1,0.8h-0.4c0-0.3-0.2-0.4-0.5-0.4c-0.3,0-0.6,0.2-0.6,0.4
				c0,0.2,0.1,0.3,0.5,0.4l0.4,0.1c0.5,0.1,0.7,0.3,0.7,0.7C258.6,128.5,258.2,128.8,257.5,128.8z"/>
			<path d="M259.4,127.6c0,0.6,0.3,0.9,0.8,0.9c0.3,0,0.6-0.1,0.7-0.5h0.4c-0.1,0.5-0.5,0.9-1.1,0.9c-0.7,0-1.2-0.5-1.2-1.4
				c0-0.9,0.5-1.4,1.2-1.4c0.5,0,0.9,0.3,1.1,0.7c0.1,0.2,0.1,0.4,0.1,0.8H259.4z M260.2,126.4c-0.4,0-0.7,0.3-0.8,0.8h1.5
				c0,0,0,0,0,0C260.9,126.8,260.6,126.4,260.2,126.4z"/>
			<path d="M264.2,128.8c-0.7,0-1-0.3-1-0.9h0.4c0.1,0.4,0.3,0.5,0.6,0.5c0.4,0,0.6-0.1,0.6-0.4c0-0.2-0.1-0.3-0.4-0.3l-0.4-0.1
				c-0.6-0.2-0.8-0.3-0.8-0.8c0-0.5,0.4-0.8,1-0.8c0.6,0,0.9,0.3,1,0.8h-0.4c0-0.3-0.2-0.4-0.5-0.4c-0.3,0-0.6,0.2-0.6,0.4
				c0,0.2,0.1,0.3,0.5,0.4l0.4,0.1c0.5,0.1,0.7,0.3,0.7,0.7C265.3,128.5,264.8,128.8,264.2,128.8z"/>
			<path d="M266.1,127.6c0,0.6,0.3,0.9,0.8,0.9c0.3,0,0.6-0.1,0.7-0.5h0.4c-0.1,0.5-0.5,0.9-1.1,0.9c-0.7,0-1.2-0.5-1.2-1.4
				c0-0.9,0.5-1.4,1.2-1.4c0.5,0,0.9,0.3,1.1,0.7c0.1,0.2,0.1,0.4,0.1,0.8H266.1z M266.9,126.4c-0.4,0-0.7,0.3-0.8,0.8h1.5
				c0,0,0,0,0,0C267.6,126.8,267.3,126.4,266.9,126.4z"/>
			<path d="M269.1,128.8c-0.3,0-0.5-0.2-0.5-0.4v-1.9h-0.4v-0.3h0.4v-0.7h0.4v0.7h0.4v0.3h-0.4v1.7c0,0.2,0,0.2,0.2,0.2
				c0.1,0,0.1,0,0.2,0v0.4C269.3,128.8,269.2,128.8,269.1,128.8z"/>
			<path d="M270,128.7v-0.5h0.5v0.5H270z"/>
		</g>
	</g>
	<g>
		<g>
			<path class="st1" d="M9.3,61l26-29.2c3-3.4,8.6-2.5,10.2,1.7c0.4,1.2,0.7,2.6,0.7,4.3"/>
			<polygon points="46.2,39.6 47.6,37.1 44.8,37.1 			"/>
		</g>
		<g>
			<g>
				<g>
					<line class="st1" x1="10.7" y1="38.2" x2="11.6" y2="39.3"/>
					<path class="st2" d="M13,40.8l22.3,25c3,3.4,8.6,2.5,10.2-1.7c0.2-0.4,0.3-0.9,0.4-1.4"/>
					<path class="st1" d="M46.1,61.7c0.1-0.4,0.1-0.9,0.1-1.4"/>
				</g>
			</g>
			<polygon points="46.2,58 47.6,60.5 44.8,60.5 			"/>
		</g>
		<g>
			<path class="st3" d="M13,61c0,2-1.6,3.7-3.7,3.7S5.7,63,5.7,61c0-2,1.6-3.7,3.7-3.7S13,59,13,61z"/>
			<g>
				<path class="st4" d="M9.1,62.7v-2.5H8.2v-0.5c0.6,0,1-0.2,1.1-0.7h0.5v3.7H9.1z"/>
			</g>
		</g>
		<g>
			<g>
				<path class="st5" d="M24.3,61.4c-0.5,0.4-0.6,0.5-0.7,0.7h1.5v0.6h-2.5c0-0.7,0.2-1,0.8-1.4c0.8-0.6,0.9-0.7,0.9-1.1
					c0-0.4-0.2-0.6-0.5-0.6c-0.3,0-0.5,0.2-0.5,0.6v0.1h-0.7c0-0.1,0-0.1,0-0.1c0-0.8,0.4-1.2,1.2-1.2c0.8,0,1.3,0.5,1.3,1.2
					C25.1,60.6,24.9,60.9,24.3,61.4z"/>
			</g>
		</g>
		<g>
			<g>
				<path class="st6" d="M38.4,62.8c-0.7,0-1.2-0.5-1.2-1.2h0.7c0,0.4,0.2,0.6,0.5,0.6c0.3,0,0.5-0.2,0.5-0.6c0-0.4-0.3-0.5-0.8-0.5
					v-0.5h0.1c0.4,0,0.6-0.1,0.6-0.5c0-0.3-0.2-0.5-0.5-0.5c-0.4,0-0.5,0.2-0.5,0.6h-0.7v-0.1c0-0.8,0.5-1.2,1.2-1.2s1.2,0.4,1.2,1
					c0,0.3-0.1,0.5-0.5,0.7c0.4,0.2,0.6,0.4,0.6,0.9C39.7,62.3,39.2,62.8,38.4,62.8z"/>
			</g>
		</g>
		<g>
			<rect x="6" y="33.3" class="st3" width="6.6" height="6.6"/>
			<g>
				<path class="st4" d="M9.1,38.3v-2.5H8.2v-0.5c0.6,0,1-0.2,1.1-0.7h0.5v3.7H9.1z"/>
			</g>
		</g>
		<g>
			<g>
				<path class="st5" d="M24.3,37c-0.5,0.4-0.6,0.5-0.7,0.7h1.5v0.6h-2.5c0-0.7,0.2-1,0.8-1.4c0.8-0.6,0.9-0.7,0.9-1.1
					c0-0.4-0.2-0.6-0.5-0.6c-0.3,0-0.5,0.2-0.5,0.6v0.1h-0.7c0-0.1,0-0.1,0-0.1c0-0.8,0.4-1.2,1.2-1.2c0.8,0,1.3,0.5,1.3,1.2
					C25.1,36.3,24.9,36.5,24.3,37z"/>
			</g>
		</g>
		<g>
			<g>
				<path class="st6" d="M38.4,38.4c-0.7,0-1.2-0.5-1.2-1.2h0.7c0,0.4,0.2,0.6,0.5,0.6c0.3,0,0.5-0.2,0.5-0.6c0-0.4-0.3-0.5-0.8-0.5
					v-0.5h0.1c0.4,0,0.6-0.1,0.6-0.5c0-0.3-0.2-0.5-0.5-0.5c-0.4,0-0.5,0.2-0.5,0.6h-0.7v-0.1c0-0.8,0.5-1.2,1.2-1.2s1.2,0.4,1.2,1
					c0,0.3-0.1,0.5-0.5,0.7c0.4,0.2,0.6,0.4,0.6,0.9C39.7,37.9,39.2,38.4,38.4,38.4z"/>
			</g>
		</g>
		<g>
			<g>
				<path d="M53.8,61.9v0.8H53v-0.8h-1.5v-0.6l1.3-2.2h0.9v2.2h0.4v0.6H53.8z M53,59.7l-1,1.6h1V59.7z"/>
			</g>
		</g>
		<g>
			<path d="M53.8,37.5v0.8H53v-0.8h-1.5v-0.6l1.3-2.2h0.9v2.2h0.4v0.6H53.8z M53,35.4l-1,1.6h1V35.4z"/>
		</g>
	</g>
	<g>
		<line class="st7" x1="100.9" y1="43.3" x2="100.9" y2="54.5"/>
		<g>
			<path class="st1" d="M100.3,43.5c0,0-3,0-10.8,0s-10.7-5.7-10.7-5.7"/>
			<polygon points="78.3,36.6 78.2,39.4 80.7,38.1 			"/>
		</g>
		<g>
			<g>
				<g>
					<path class="st1" d="M100.9,54.5c0,0-0.4,0-1.4,0"/>
					<path class="st8" d="M97.6,54.5c-1.8,0-4.5,0-8.1,0c-4.1,0-6.8,1.4-8.5,2.7"/>
					<path class="st1" d="M80.3,57.8c-0.4,0.4-0.7,0.8-0.9,1.1"/>
				</g>
			</g>
			<polygon points="78.3,61 78.2,58.1 80.8,59.5 			"/>
		</g>
		<g>
			<path class="st3" d="M104.6,43.5c0,2-1.6,3.7-3.7,3.7c-2,0-3.7-1.6-3.7-3.7c0-2,1.6-3.7,3.7-3.7
				C102.9,39.8,104.6,41.5,104.6,43.5z"/>
			<g>
				<path class="st4" d="M100.7,45.2v-2.5h-0.9v-0.5c0.6,0,1-0.2,1.1-0.7h0.5v3.7H100.7z"/>
			</g>
		</g>
		<g>
			<g>
				<path class="st6" d="M92.7,62.8c-0.7,0-1.2-0.5-1.2-1.2h0.7c0,0.4,0.2,0.6,0.5,0.6c0.3,0,0.5-0.2,0.5-0.6c0-0.4-0.3-0.5-0.8-0.5
					v-0.5h0.1c0.4,0,0.6-0.1,0.6-0.5c0-0.3-0.2-0.5-0.5-0.5c-0.4,0-0.5,0.2-0.5,0.6h-0.7v-0.1c0-0.8,0.5-1.2,1.2-1.2s1.2,0.4,1.2,1
					c0,0.3-0.1,0.5-0.5,0.7c0.4,0.2,0.6,0.4,0.6,0.9C94,62.3,93.5,62.8,92.7,62.8z"/>
			</g>
		</g>
		<g>
			<rect x="97.6" y="50.8" class="st3" width="6.6" height="6.6"/>
			<g>
				<path class="st4" d="M100.7,55.8v-2.5h-0.9v-0.5c0.6,0,1-0.2,1.1-0.7h0.5v3.7H100.7z"/>
			</g>
		</g>
		<g>
			<g>
				<g>
					<path class="st5" d="M64.1,61.4c-0.5,0.4-0.6,0.5-0.7,0.7h1.5v0.6h-2.5c0-0.7,0.2-1,0.8-1.4c0.8-0.6,0.9-0.7,0.9-1.1
						c0-0.4-0.2-0.6-0.5-0.6c-0.3,0-0.5,0.2-0.5,0.6v0.1h-0.7c0-0.1,0-0.1,0-0.1c0-0.8,0.4-1.2,1.2-1.2c0.8,0,1.3,0.5,1.3,1.2
						C64.9,60.6,64.7,60.9,64.1,61.4z"/>
				</g>
			</g>
		</g>
		<g>
			<g>
				<g>
					<path class="st5" d="M64.1,37c-0.5,0.4-0.6,0.5-0.7,0.7h1.5v0.6h-2.5c0-0.7,0.2-1,0.8-1.4c0.8-0.6,0.9-0.7,0.9-1.1
						c0-0.4-0.2-0.6-0.5-0.6c-0.3,0-0.5,0.2-0.5,0.6v0.1h-0.7c0-0.1,0-0.1,0-0.1c0-0.8,0.4-1.2,1.2-1.2c0.8,0,1.3,0.5,1.3,1.2
						C64.9,36.3,64.7,36.5,64.1,37z"/>
				</g>
			</g>
		</g>
		<g>
			<g>
				<path class="st6" d="M92.7,38.4c-0.7,0-1.2-0.5-1.2-1.2h0.7c0,0.4,0.2,0.6,0.5,0.6c0.3,0,0.5-0.2,0.5-0.6c0-0.4-0.3-0.5-0.8-0.5
					v-0.5h0.1c0.4,0,0.6-0.1,0.6-0.5c0-0.3-0.2-0.5-0.5-0.5c-0.4,0-0.5,0.2-0.5,0.6h-0.7v-0.1c0-0.8,0.5-1.2,1.2-1.2s1.2,0.4,1.2,1
					c0,0.3-0.1,0.5-0.5,0.7c0.4,0.2,0.6,0.4,0.6,0.9C94,37.9,93.5,38.4,92.7,38.4z"/>
			</g>
		</g>
	</g>
	<g>
		<g>
			<line class="st9" x1="58.3" y1="19.7" x2="58.3" y2="21.2"/>
			<line class="st10" x1="58.3" y1="23.2" x2="58.3" y2="68.2"/>
			<line class="st9" x1="58.3" y1="69.2" x2="58.3" y2="70.7"/>
		</g>
	</g>
	<g>
		<g>
			<line class="st9" x1="268.2" y1="19.7" x2="268.2" y2="21.2"/>
			<line class="st10" x1="268.2" y1="23.2" x2="268.2" y2="68.2"/>
			<line class="st9" x1="268.2" y1="69.2" x2="268.2" y2="70.7"/>
		</g>
	</g>
	<g>
		<g>
			<line class="st9" x1="4.5" y1="70.7" x2="4.5" y2="72.2"/>
			<line class="st10" x1="4.5" y1="74.3" x2="4.5" y2="119.2"/>
			<line class="st9" x1="4.5" y1="120.2" x2="4.5" y2="121.7"/>
		</g>
	</g>
	<line class="st9" x1="152.9" y1="19.7" x2="152.9" y2="70.7"/>
	<line class="st9" x1="72.6" y1="70.7" x2="72.6" y2="121.7"/>
	<g>
		<g>
			<path d="M4.6,25H4.2l0.5-2.5H4L4,22.2c0.7-0.1,0.8-0.2,1.1-0.7h0.3L4.6,25z"/>
			<path d="M6.2,23.8l0.1-0.4h1.2l-0.1,0.4H6.2z"/>
			<path d="M10.1,24.2H9.6L9.4,25H9l0.2-0.9H7.7l0.1-0.5l2.1-2.2h0.3l-0.5,2.3h0.5L10.1,24.2z M9.6,22.3l-1.4,1.5h1.1L9.6,22.3z"/>
			<path d="M11.1,25h-0.5l0.1-0.5h0.5L11.1,25z"/>
			<path d="M14.5,25v-2.5h-0.8v-0.3c0.7-0.1,0.8-0.2,0.9-0.7h0.3V25H14.5z"/>
			<path d="M17.2,25.1c-0.7,0-1-0.3-1-0.9h0.4c0.1,0.4,0.3,0.5,0.6,0.5c0.4,0,0.6-0.1,0.6-0.4c0-0.2-0.1-0.3-0.4-0.3L17,23.9
				c-0.6-0.2-0.8-0.3-0.8-0.8c0-0.5,0.4-0.8,1-0.8c0.6,0,0.9,0.3,1,0.8h-0.4c0-0.3-0.2-0.4-0.5-0.4c-0.3,0-0.6,0.2-0.6,0.4
				c0,0.2,0.1,0.3,0.5,0.4l0.4,0.1c0.5,0.1,0.7,0.3,0.7,0.7C18.2,24.8,17.8,25.1,17.2,25.1z"/>
			<path d="M21.2,25.1c-0.7,0-1.2-0.5-1.2-1.4c0-0.9,0.5-1.4,1.2-1.4c0.6,0,1,0.3,1,1h-0.4c0-0.4-0.3-0.6-0.6-0.6
				c-0.5,0-0.7,0.4-0.7,1c0,0.6,0.3,1,0.7,1c0.4,0,0.6-0.2,0.6-0.6h0.4C22.2,24.7,21.8,25.1,21.2,25.1z"/>
			<path d="M23.1,23.7V25h-0.4v-2.6H23v0.5c0.2-0.4,0.4-0.6,0.7-0.6c0.1,0,0.1,0,0.2,0v0.4C23.3,22.8,23.1,23.1,23.1,23.7z"/>
			<path d="M25.3,25.1c-0.7,0-1.2-0.5-1.2-1.4s0.4-1.4,1.2-1.4c0.8,0,1.2,0.5,1.2,1.4C26.5,24.6,26,25.1,25.3,25.1z M25.3,22.7
				c-0.5,0-0.8,0.4-0.8,1c0,0.6,0.3,1,0.8,1c0.5,0,0.8-0.4,0.8-1C26,23.1,25.8,22.7,25.3,22.7z"/>
			<path d="M27.9,25.1c-0.7,0-1-0.3-1-0.9h0.4c0.1,0.4,0.3,0.5,0.6,0.5c0.4,0,0.6-0.1,0.6-0.4c0-0.2-0.1-0.3-0.4-0.3l-0.4-0.1
				c-0.6-0.2-0.8-0.3-0.8-0.8c0-0.5,0.4-0.8,1-0.8c0.6,0,0.9,0.3,1,0.8h-0.4c0-0.3-0.2-0.4-0.5-0.4c-0.3,0-0.6,0.2-0.6,0.4
				c0,0.2,0.1,0.3,0.5,0.4l0.4,0.1c0.5,0.1,0.7,0.3,0.7,0.7C28.9,24.8,28.5,25.1,27.9,25.1z"/>
			<path d="M30.3,25.1c-0.7,0-1-0.3-1-0.9h0.4c0.1,0.4,0.3,0.5,0.6,0.5c0.4,0,0.6-0.1,0.6-0.4c0-0.2-0.1-0.3-0.4-0.3l-0.4-0.1
				c-0.6-0.2-0.8-0.3-0.8-0.8c0-0.5,0.4-0.8,1-0.8c0.6,0,0.9,0.3,1,0.8h-0.4c0-0.3-0.2-0.4-0.5-0.4c-0.3,0-0.6,0.2-0.6,0.4
				c0,0.2,0.1,0.3,0.5,0.4l0.4,0.1c0.5,0.1,0.7,0.3,0.7,0.7C31.4,24.8,31,25.1,30.3,25.1z"/>
			<path d="M35,25v-0.4c-0.2,0.3-0.5,0.5-0.8,0.5c-0.7,0-1.1-0.5-1.1-1.4c0-0.8,0.4-1.4,1.1-1.4c0.4,0,0.6,0.1,0.8,0.4v-1.4h0.4V25
				H35z M34.2,22.7c-0.5,0-0.8,0.4-0.8,1c0,0.6,0.3,1,0.8,1c0.4,0,0.7-0.4,0.7-1S34.7,22.7,34.2,22.7z"/>
			<path d="M37,25.1c-0.7,0-1.2-0.5-1.2-1.4s0.4-1.4,1.2-1.4c0.8,0,1.2,0.5,1.2,1.4C38.2,24.6,37.7,25.1,37,25.1z M37,22.7
				c-0.5,0-0.8,0.4-0.8,1c0,0.6,0.3,1,0.8,1c0.5,0,0.8-0.4,0.8-1C37.8,23.1,37.5,22.7,37,22.7z"/>
			<path d="M41.1,25h-0.5L40.1,23L39.6,25h-0.5l-0.8-2.6h0.5l0.5,2l0.5-2h0.5l0.5,2l0.5-2h0.5L41.1,25z"/>
			<path d="M44,25v-1.8c0-0.3-0.2-0.5-0.5-0.5c-0.4,0-0.7,0.4-0.7,0.9V25h-0.4v-2.6h0.4v0.4c0.2-0.4,0.5-0.5,0.9-0.5
				c0.5,0,0.8,0.3,0.8,0.7v2H44z"/>
			<path d="M45.1,25.8v-0.2c0.2,0,0.3-0.1,0.3-0.5V25h-0.3v-0.5h0.5v0.6C45.6,25.5,45.5,25.8,45.1,25.8z"/>
			<path d="M15.2,30.1c-0.7,0-1.2-0.5-1.2-1.4c0-0.9,0.5-1.4,1.2-1.4c0.6,0,1,0.3,1,1h-0.4c0-0.4-0.3-0.6-0.6-0.6
				c-0.5,0-0.7,0.4-0.7,1c0,0.6,0.3,1,0.7,1c0.4,0,0.6-0.2,0.6-0.6h0.4C16.3,29.7,15.9,30.1,15.2,30.1z"/>
			<path d="M18.8,30.1c-0.2,0-0.4-0.1-0.4-0.3c-0.2,0.2-0.6,0.4-0.9,0.4c-0.5,0-0.9-0.3-0.9-0.8c0-0.3,0.2-0.6,0.5-0.7
				c0.2-0.1,0.3-0.1,0.8-0.2c0.3,0,0.4-0.1,0.4-0.3v-0.1c0-0.3-0.2-0.4-0.6-0.4c-0.4,0-0.6,0.1-0.6,0.5h-0.4c0-0.6,0.4-0.9,1.1-0.9
				c0.6,0,1,0.3,1,0.7v1.5c0,0.1,0.1,0.2,0.2,0.2c0,0,0,0,0.1,0V30C18.9,30.1,18.9,30.1,18.8,30.1z M18.3,28.7
				c-0.1,0.1-0.2,0.1-0.7,0.1c-0.4,0.1-0.6,0.2-0.6,0.5c0,0.3,0.2,0.4,0.5,0.4c0.4,0,0.8-0.2,0.8-0.6V28.7z"/>
			<path d="M20.3,30.1c-0.7,0-1-0.3-1-0.9h0.4c0.1,0.4,0.3,0.5,0.6,0.5c0.4,0,0.6-0.1,0.6-0.4c0-0.2-0.1-0.3-0.4-0.3l-0.4-0.1
				c-0.6-0.2-0.8-0.3-0.8-0.8c0-0.5,0.4-0.8,1-0.8c0.6,0,0.9,0.3,1,0.8h-0.4c0-0.3-0.2-0.4-0.5-0.4c-0.3,0-0.6,0.2-0.6,0.4
				c0,0.2,0.1,0.3,0.5,0.4l0.4,0.1c0.5,0.1,0.7,0.3,0.7,0.7C21.4,29.8,21,30.1,20.3,30.1z"/>
			<path d="M22.5,30.1c-0.3,0-0.5-0.2-0.5-0.4v-1.9h-0.4v-0.3H22v-0.7h0.4v0.7h0.4v0.3h-0.4v1.7c0,0.2,0,0.2,0.2,0.2
				c0.1,0,0.1,0,0.2,0V30C22.7,30.1,22.6,30.1,22.5,30.1z"/>
			<path d="M26.4,30v-0.4c-0.2,0.3-0.5,0.5-0.8,0.5c-0.7,0-1.1-0.5-1.1-1.4c0-0.8,0.4-1.4,1.1-1.4c0.4,0,0.6,0.1,0.8,0.4v-1.4h0.4
				V30H26.4z M25.6,27.7c-0.5,0-0.8,0.4-0.8,1c0,0.6,0.3,1,0.8,1c0.4,0,0.7-0.4,0.7-1S26,27.7,25.6,27.7z"/>
			<path d="M28.4,30.1c-0.7,0-1.2-0.5-1.2-1.4s0.4-1.4,1.2-1.4c0.8,0,1.2,0.5,1.2,1.4C29.5,29.6,29.1,30.1,28.4,30.1z M28.4,27.7
				c-0.5,0-0.8,0.4-0.8,1c0,0.6,0.3,1,0.8,1c0.5,0,0.8-0.4,0.8-1C29.1,28.1,28.8,27.7,28.4,27.7z"/>
			<path d="M32.5,30H32L31.5,28L31,30h-0.5l-0.8-2.6h0.5l0.5,2l0.5-2h0.5l0.5,2l0.5-2h0.5L32.5,30z"/>
			<path d="M35.3,30v-1.8c0-0.3-0.2-0.5-0.5-0.5c-0.4,0-0.7,0.4-0.7,0.9V30h-0.4v-2.6H34v0.4c0.2-0.4,0.5-0.5,0.9-0.5
				c0.5,0,0.8,0.3,0.8,0.7v2H35.3z"/>
		</g>
	</g>
	<g>
		<g>
			<path d="M63,25.1c-0.6,0-1-0.3-1-0.9v-0.1h0.4c0,0.4,0.2,0.6,0.6,0.6c0.6,0,1-0.4,1-1c0-0.4-0.2-0.6-0.6-0.6
				c-0.3,0-0.4,0.1-0.7,0.3h-0.4l0.7-1.9h1.9L64.7,22h-1.5l-0.3,0.9c0.2-0.1,0.5-0.2,0.7-0.2c0.6,0,0.9,0.3,0.9,0.9
				C64.5,24.4,63.8,25.1,63,25.1z"/>
			<path d="M64.9,23.8l0.1-0.4h1.2l-0.1,0.4H64.9z"/>
			<path d="M67.5,25.1c-0.6,0-1-0.3-1-0.8c0-0.5,0.3-0.9,0.8-1.1l-0.1-0.1c-0.2-0.2-0.3-0.3-0.3-0.5c0-0.6,0.6-1.1,1.3-1.1
				c0.6,0,0.9,0.3,0.9,0.7c0,0.4-0.1,0.6-0.6,0.9l-0.1,0.1c0.3,0.2,0.4,0.4,0.4,0.7C68.9,24.5,68.2,25.1,67.5,25.1z M67.8,23.4
				c-0.5,0-0.9,0.4-0.9,0.9c0,0.3,0.3,0.5,0.6,0.5c0.5,0,0.9-0.4,0.9-0.8C68.5,23.6,68.2,23.4,67.8,23.4z M68.1,21.9
				c-0.4,0-0.8,0.3-0.8,0.7c0,0.3,0.2,0.4,0.5,0.4c0.4,0,0.8-0.3,0.8-0.7C68.7,22,68.5,21.9,68.1,21.9z"/>
			<path d="M69.8,25h-0.5l0.1-0.5h0.5L69.8,25z"/>
			<path d="M73.2,25v-2.5h-0.8v-0.3c0.7-0.1,0.8-0.2,0.9-0.7h0.3V25H73.2z"/>
			<path d="M75.9,25.1c-0.7,0-1-0.3-1-0.9h0.4c0.1,0.4,0.3,0.5,0.6,0.5c0.4,0,0.6-0.1,0.6-0.4c0-0.2-0.1-0.3-0.4-0.3l-0.4-0.1
				c-0.6-0.2-0.8-0.3-0.8-0.8c0-0.5,0.4-0.8,1-0.8c0.6,0,0.9,0.3,1,0.8h-0.4c0-0.3-0.2-0.4-0.5-0.4c-0.3,0-0.6,0.2-0.6,0.4
				c0,0.2,0.1,0.3,0.5,0.4l0.4,0.1c0.5,0.1,0.7,0.3,0.7,0.7C77,24.8,76.6,25.1,75.9,25.1z"/>
			<path d="M80.7,25v-0.4c-0.2,0.3-0.5,0.5-0.8,0.5c-0.7,0-1.1-0.5-1.1-1.4c0-0.8,0.4-1.4,1.1-1.4c0.4,0,0.6,0.1,0.8,0.4v-1.4H81V25
				H80.7z M79.9,22.7c-0.5,0-0.8,0.4-0.8,1c0,0.6,0.3,1,0.8,1c0.4,0,0.7-0.4,0.7-1S80.3,22.7,79.9,22.7z"/>
			<path d="M83.7,25.1c-0.2,0-0.4-0.1-0.4-0.3c-0.2,0.2-0.6,0.4-0.9,0.4c-0.5,0-0.9-0.3-0.9-0.8c0-0.3,0.2-0.6,0.5-0.7
				c0.2-0.1,0.3-0.1,0.8-0.2c0.3,0,0.4-0.1,0.4-0.3v-0.1c0-0.3-0.2-0.4-0.6-0.4c-0.4,0-0.6,0.1-0.6,0.5h-0.4c0-0.6,0.4-0.9,1.1-0.9
				c0.6,0,1,0.3,1,0.7v1.5c0,0.1,0.1,0.2,0.2,0.2c0,0,0,0,0.1,0V25C83.8,25.1,83.8,25.1,83.7,25.1z M83.3,23.7
				c-0.1,0.1-0.2,0.1-0.7,0.1c-0.4,0.1-0.6,0.2-0.6,0.5c0,0.3,0.2,0.4,0.5,0.4c0.4,0,0.8-0.2,0.8-0.6V23.7z"/>
			<path d="M86.1,25v-1.8c0-0.3-0.2-0.5-0.5-0.5c-0.4,0-0.7,0.4-0.7,0.9V25h-0.4v-2.6h0.4v0.4c0.2-0.4,0.5-0.5,0.9-0.5
				c0.5,0,0.8,0.3,0.8,0.7v2H86.1z"/>
			<path d="M88.1,25.1c-0.7,0-1.2-0.5-1.2-1.4c0-0.9,0.5-1.4,1.2-1.4c0.6,0,1,0.3,1,1h-0.4c0-0.4-0.3-0.6-0.6-0.6
				c-0.5,0-0.7,0.4-0.7,1c0,0.6,0.3,1,0.7,1c0.4,0,0.6-0.2,0.6-0.6h0.4C89.1,24.7,88.7,25.1,88.1,25.1z"/>
			<path d="M89.9,23.8c0,0.6,0.3,0.9,0.8,0.9c0.3,0,0.6-0.1,0.7-0.5h0.4c-0.1,0.5-0.5,0.9-1.1,0.9c-0.7,0-1.2-0.5-1.2-1.4
				s0.5-1.4,1.2-1.4c0.5,0,0.9,0.3,1.1,0.7c0.1,0.2,0.1,0.4,0.1,0.8H89.9z M90.6,22.7c-0.4,0-0.7,0.3-0.8,0.8h1.5c0,0,0,0,0,0
				C91.4,23.1,91,22.7,90.6,22.7z"/>
			<path d="M95.3,25v-0.4c-0.2,0.3-0.5,0.5-0.9,0.5c-0.5,0-0.8-0.3-0.8-0.7v-2H94v1.8c0,0.3,0.2,0.5,0.5,0.5c0.4,0,0.7-0.4,0.7-0.9
				v-1.4h0.4V25H95.3z"/>
			<path d="M97.5,25.1c-0.3,0-0.6-0.1-0.8-0.4v1.4h-0.4v-3.7h0.4v0.4c0.2-0.3,0.5-0.5,0.8-0.5c0.7,0,1.1,0.5,1.1,1.4
				C98.7,24.6,98.2,25.1,97.5,25.1z M97.5,22.7c-0.4,0-0.7,0.4-0.7,1c0,0.6,0.3,1,0.7,1c0.5,0,0.8-0.4,0.8-1
				C98.2,23.1,97.9,22.7,97.5,22.7z"/>
			<path d="M99.2,25.8v-0.2c0.2,0,0.3-0.1,0.3-0.5V25h-0.3v-0.5h0.5v0.6C99.7,25.5,99.6,25.8,99.2,25.8z"/>
			<path d="M103.9,25.1c-0.2,0-0.4-0.1-0.4-0.3c-0.2,0.2-0.6,0.4-0.9,0.4c-0.5,0-0.9-0.3-0.9-0.8c0-0.3,0.2-0.6,0.5-0.7
				c0.2-0.1,0.3-0.1,0.8-0.2c0.3,0,0.4-0.1,0.4-0.3v-0.1c0-0.3-0.2-0.4-0.6-0.4c-0.4,0-0.6,0.1-0.6,0.5h-0.4c0-0.6,0.4-0.9,1.1-0.9
				c0.6,0,1,0.3,1,0.7v1.5c0,0.1,0.1,0.2,0.2,0.2c0,0,0,0,0.1,0V25C104,25.1,103.9,25.1,103.9,25.1z M103.4,23.7
				c-0.1,0.1-0.2,0.1-0.7,0.1c-0.4,0.1-0.6,0.2-0.6,0.5c0,0.3,0.2,0.4,0.5,0.4c0.4,0,0.8-0.2,0.8-0.6V23.7z"/>
			<path d="M104.5,25v-3.6h0.4V25H104.5z"/>
			<path d="M105.6,25v-3.6h0.4V25H105.6z"/>
			<path d="M108.9,25.1c-0.7,0-1-0.3-1-0.9h0.4c0.1,0.4,0.3,0.5,0.6,0.5c0.4,0,0.6-0.1,0.6-0.4c0-0.2-0.1-0.3-0.4-0.3l-0.4-0.1
				c-0.6-0.2-0.8-0.3-0.8-0.8c0-0.5,0.4-0.8,1-0.8c0.6,0,0.9,0.3,1,0.8h-0.4c0-0.3-0.2-0.4-0.5-0.4c-0.3,0-0.6,0.2-0.6,0.4
				c0,0.2,0.1,0.3,0.5,0.4l0.4,0.1c0.5,0.1,0.7,0.3,0.7,0.7C110,24.8,109.6,25.1,108.9,25.1z"/>
			<path d="M110.8,23.8c0,0.6,0.3,0.9,0.8,0.9c0.3,0,0.6-0.1,0.7-0.5h0.4c-0.1,0.5-0.5,0.9-1.1,0.9c-0.7,0-1.2-0.5-1.2-1.4
				s0.5-1.4,1.2-1.4c0.5,0,0.9,0.3,1.1,0.7c0.1,0.2,0.1,0.4,0.1,0.8H110.8z M111.5,22.7c-0.4,0-0.7,0.3-0.8,0.8h1.5c0,0,0,0,0,0
				C112.3,23.1,111.9,22.7,111.5,22.7z"/>
			<path d="M113.8,25.1c-0.3,0-0.5-0.2-0.5-0.4v-1.9h-0.4v-0.3h0.4v-0.7h0.4v0.7h0.4v0.3h-0.4v1.7c0,0.2,0,0.2,0.2,0.2
				c0.1,0,0.1,0,0.2,0V25C114,25.1,113.9,25.1,113.8,25.1z"/>
		</g>
	</g>
	<g>
		<g>
			<path d="M156.8,25.1c-0.5,0-0.9-0.3-0.9-0.8c0,0,0-0.1,0-0.1h0.4c0,0.3,0.2,0.5,0.5,0.5c0.5,0,0.9-0.5,1.1-1.4
				c-0.4,0.3-0.5,0.4-0.9,0.4c-0.5,0-0.9-0.3-0.9-0.9c0-0.7,0.5-1.4,1.4-1.4c0.6,0,1,0.4,1,0.9c0,0.3-0.1,0.8-0.2,1.3
				C158,24.6,157.5,25.1,156.8,25.1z M157.4,21.9c-0.5,0-0.9,0.4-0.9,1c0,0.4,0.2,0.6,0.6,0.6c0.5,0,0.9-0.4,0.9-0.9
				C158,22.1,157.8,21.9,157.4,21.9z"/>
			<path d="M158.7,23.8l0.1-0.4h1.2l-0.1,0.4H158.7z"/>
			<path d="M161.7,25h-0.4l0.5-2.5H161l0.1-0.3c0.7-0.1,0.8-0.2,1.1-0.7h0.3L161.7,25z"/>
			<path d="M164.8,23.6l-0.6,0.3c-0.5,0.2-0.7,0.5-0.8,0.7h1.9l-0.1,0.4h-2.4c0.2-0.8,0.5-1.1,1.3-1.5l0.5-0.3
				c0.4-0.2,0.7-0.5,0.7-0.8s-0.2-0.5-0.6-0.5c-0.5,0-0.8,0.3-0.9,0.8h-0.4c0.2-0.8,0.6-1.2,1.4-1.2c0.6,0,1,0.4,1,0.9
				C165.8,22.9,165.5,23.3,164.8,23.6z"/>
			<path d="M166.4,25h-0.5l0.1-0.5h0.5L166.4,25z"/>
			<path d="M170,25.1c-0.3,0-0.6-0.1-0.8-0.4v1.4h-0.4v-3.7h0.4v0.4c0.2-0.3,0.5-0.5,0.8-0.5c0.7,0,1.1,0.5,1.1,1.4
				C171.1,24.6,170.7,25.1,170,25.1z M169.9,22.7c-0.4,0-0.7,0.4-0.7,1c0,0.6,0.3,1,0.7,1c0.5,0,0.8-0.4,0.8-1
				C170.7,23.1,170.4,22.7,169.9,22.7z"/>
			<path d="M171.9,23.8c0,0.6,0.3,0.9,0.8,0.9c0.3,0,0.6-0.1,0.7-0.5h0.4c-0.1,0.5-0.5,0.9-1.1,0.9c-0.7,0-1.2-0.5-1.2-1.4
				s0.5-1.4,1.2-1.4c0.5,0,0.9,0.3,1.1,0.7c0.1,0.2,0.1,0.4,0.1,0.8H171.9z M172.6,22.7c-0.4,0-0.7,0.3-0.8,0.8h1.5c0,0,0,0,0,0
				C173.4,23.1,173.1,22.7,172.6,22.7z"/>
			<path d="M174.9,25.1c-0.3,0-0.5-0.2-0.5-0.4v-1.9h-0.4v-0.3h0.4v-0.7h0.4v0.7h0.4v0.3h-0.4v1.7c0,0.2,0,0.2,0.2,0.2
				c0.1,0,0.1,0,0.2,0V25C175.1,25.1,175,25.1,174.9,25.1z"/>
			<path d="M176.1,23.7V25h-0.4v-2.6h0.4v0.5c0.2-0.4,0.4-0.6,0.7-0.6c0.1,0,0.1,0,0.2,0v0.4C176.3,22.8,176.1,23.1,176.1,23.7z"/>
			<path d="M178.3,25.1c-0.7,0-1.2-0.5-1.2-1.4s0.4-1.4,1.2-1.4c0.8,0,1.2,0.5,1.2,1.4C179.5,24.6,179,25.1,178.3,25.1z M178.3,22.7
				c-0.5,0-0.8,0.4-0.8,1c0,0.6,0.3,1,0.8,1c0.5,0,0.8-0.4,0.8-1C179.1,23.1,178.8,22.7,178.3,22.7z"/>
			<path d="M181.7,25v-1.8c0-0.3-0.2-0.5-0.5-0.5c-0.4,0-0.7,0.4-0.7,0.9V25H180v-2.6h0.4v0.4c0.2-0.4,0.5-0.5,0.9-0.5
				c0.5,0,0.8,0.3,0.8,0.7v2H181.7z"/>
			<path d="M183.1,23.8c0,0.6,0.3,0.9,0.8,0.9c0.3,0,0.6-0.1,0.7-0.5h0.4c-0.1,0.5-0.5,0.9-1.1,0.9c-0.7,0-1.2-0.5-1.2-1.4
				s0.5-1.4,1.2-1.4c0.5,0,0.9,0.3,1.1,0.7c0.1,0.2,0.1,0.4,0.1,0.8H183.1z M183.8,22.7c-0.4,0-0.7,0.3-0.8,0.8h1.5c0,0,0,0,0,0
				C184.5,23.1,184.2,22.7,183.8,22.7z"/>
			<path d="M185.5,25v-3.6h0.4V25H185.5z"/>
			<path d="M186.6,25v-3.6h0.4V25H186.6z"/>
			<path d="M189.7,25.1c-0.2,0-0.4-0.1-0.4-0.3c-0.2,0.2-0.6,0.4-0.9,0.4c-0.5,0-0.9-0.3-0.9-0.8c0-0.3,0.2-0.6,0.5-0.7
				c0.2-0.1,0.3-0.1,0.8-0.2c0.3,0,0.4-0.1,0.4-0.3v-0.1c0-0.3-0.2-0.4-0.6-0.4c-0.4,0-0.6,0.1-0.6,0.5h-0.4c0-0.6,0.4-0.9,1.1-0.9
				c0.6,0,1,0.3,1,0.7v1.5c0,0.1,0.1,0.2,0.2,0.2c0,0,0,0,0.1,0V25C189.8,25.1,189.8,25.1,189.7,25.1z M189.2,23.7
				c-0.1,0.1-0.2,0.1-0.7,0.1c-0.4,0.1-0.6,0.2-0.6,0.5c0,0.3,0.2,0.4,0.5,0.4c0.4,0,0.8-0.2,0.8-0.6V23.7z"/>
			<path d="M191.7,22v-0.5h0.5V22H191.7z M191.7,25v-2.6h0.4V25H191.7z"/>
			<path d="M194.4,25v-1.8c0-0.3-0.2-0.5-0.5-0.5c-0.4,0-0.7,0.4-0.7,0.9V25h-0.4v-2.6h0.4v0.4c0.2-0.4,0.5-0.5,0.9-0.5
				c0.5,0,0.8,0.3,0.8,0.7v2H194.4z"/>
			<path d="M196.1,25.1c-0.3,0-0.5-0.2-0.5-0.4v-1.9h-0.4v-0.3h0.4v-0.7h0.4v0.7h0.4v0.3H196v1.7c0,0.2,0,0.2,0.2,0.2
				c0.1,0,0.1,0,0.2,0V25C196.3,25.1,196.2,25.1,196.1,25.1z"/>
			<path d="M197.9,25.1c-0.7,0-1.2-0.5-1.2-1.4s0.4-1.4,1.2-1.4c0.8,0,1.2,0.5,1.2,1.4C199.1,24.6,198.6,25.1,197.9,25.1z
				 M197.9,22.7c-0.5,0-0.8,0.4-0.8,1c0,0.6,0.3,1,0.8,1c0.5,0,0.8-0.4,0.8-1C198.6,23.1,198.3,22.7,197.9,22.7z"/>
			<path d="M201.5,25.1c-0.3,0-0.5-0.2-0.5-0.4v-1.9h-0.4v-0.3h0.4v-0.7h0.4v0.7h0.4v0.3h-0.4v1.7c0,0.2,0,0.2,0.2,0.2
				c0.1,0,0.1,0,0.2,0V25C201.7,25.1,201.6,25.1,201.5,25.1z"/>
			<path d="M203.9,25v-1.8c0-0.3-0.2-0.5-0.5-0.5c-0.4,0-0.7,0.4-0.7,0.9V25h-0.4v-3.6h0.4v1.4c0.2-0.3,0.5-0.4,0.8-0.4
				c0.5,0,0.8,0.3,0.8,0.7v2H203.9z"/>
			<path d="M205.3,23.8c0,0.6,0.3,0.9,0.8,0.9c0.3,0,0.6-0.1,0.7-0.5h0.4c-0.1,0.5-0.5,0.9-1.1,0.9c-0.7,0-1.2-0.5-1.2-1.4
				s0.5-1.4,1.2-1.4c0.5,0,0.9,0.3,1.1,0.7c0.1,0.2,0.1,0.4,0.1,0.8H205.3z M206.1,22.7c-0.4,0-0.7,0.3-0.8,0.8h1.5c0,0,0,0,0,0
				C206.8,23.1,206.5,22.7,206.1,22.7z"/>
			<path d="M212.1,25v-1.8c0-0.3-0.2-0.5-0.5-0.5c-0.3,0-0.6,0.3-0.6,0.7V25h-0.4v-1.8c0-0.3-0.2-0.5-0.5-0.5
				c-0.3,0-0.6,0.3-0.6,0.7V25h-0.4v-2.6h0.4v0.4c0.2-0.3,0.5-0.4,0.8-0.4c0.3,0,0.5,0.1,0.7,0.4c0.2-0.3,0.5-0.4,0.8-0.4
				c0.5,0,0.8,0.3,0.8,0.7v2H212.1z"/>
			<path d="M213.2,22v-0.5h0.5V22H213.2z M213.2,25v-2.6h0.4V25H213.2z"/>
			<path d="M216,25v-0.4c-0.2,0.3-0.5,0.5-0.8,0.5c-0.7,0-1.1-0.5-1.1-1.4c0-0.8,0.4-1.4,1.1-1.4c0.4,0,0.6,0.1,0.8,0.4v-1.4h0.4V25
				H216z M215.3,22.7c-0.5,0-0.8,0.4-0.8,1c0,0.6,0.3,1,0.8,1c0.4,0,0.7-0.4,0.7-1S215.7,22.7,215.3,22.7z"/>
			<path d="M218.8,25v-0.4c-0.2,0.3-0.5,0.5-0.8,0.5c-0.7,0-1.1-0.5-1.1-1.4c0-0.8,0.4-1.4,1.1-1.4c0.4,0,0.6,0.1,0.8,0.4v-1.4h0.4
				V25H218.8z M218,22.7c-0.5,0-0.8,0.4-0.8,1c0,0.6,0.3,1,0.8,1c0.4,0,0.7-0.4,0.7-1S218.4,22.7,218,22.7z"/>
			<path d="M219.7,25v-3.6h0.4V25H219.7z"/>
			<path d="M221.1,23.8c0,0.6,0.3,0.9,0.8,0.9c0.3,0,0.6-0.1,0.7-0.5h0.4c-0.1,0.5-0.5,0.9-1.1,0.9c-0.7,0-1.2-0.5-1.2-1.4
				s0.5-1.4,1.2-1.4c0.5,0,0.9,0.3,1.1,0.7c0.1,0.2,0.1,0.4,0.1,0.8H221.1z M221.9,22.7c-0.4,0-0.7,0.3-0.8,0.8h1.5c0,0,0,0,0,0
				C222.6,23.1,222.3,22.7,221.9,22.7z"/>
			<path d="M227.2,25l-0.3-0.4c-0.4,0.4-0.6,0.5-1,0.5c-0.6,0-1-0.4-1-1c0-0.5,0.2-0.7,0.8-1.1c-0.3-0.4-0.4-0.6-0.4-0.8
				c0-0.4,0.4-0.8,0.9-0.8s0.8,0.3,0.8,0.8c0,0.4-0.2,0.6-0.7,0.9l0.7,0.8c0.1-0.2,0.2-0.4,0.2-0.6h0.4c0,0.3-0.1,0.6-0.3,0.9
				l0.6,0.8H227.2z M225.8,23.3c-0.5,0.3-0.6,0.5-0.6,0.8c0,0.4,0.3,0.6,0.7,0.6c0.3,0,0.5-0.1,0.8-0.4L225.8,23.3z M226.1,21.8
				c-0.3,0-0.4,0.2-0.4,0.4c0,0.2,0,0.3,0.4,0.6c0.4-0.2,0.5-0.4,0.5-0.6C226.5,22,226.3,21.8,226.1,21.8z"/>
			<path d="M230.4,25.1c-0.7,0-1-0.3-1-0.9h0.4c0.1,0.4,0.3,0.5,0.6,0.5c0.4,0,0.6-0.1,0.6-0.4c0-0.2-0.1-0.3-0.4-0.3l-0.4-0.1
				c-0.6-0.2-0.8-0.3-0.8-0.8c0-0.5,0.4-0.8,1-0.8c0.6,0,0.9,0.3,1,0.8h-0.4c0-0.3-0.2-0.4-0.5-0.4c-0.3,0-0.6,0.2-0.6,0.4
				c0,0.2,0.1,0.3,0.5,0.4l0.4,0.1c0.5,0.1,0.7,0.3,0.7,0.7C231.5,24.8,231.1,25.1,230.4,25.1z"/>
			<path d="M232.3,23.8c0,0.6,0.3,0.9,0.8,0.9c0.3,0,0.6-0.1,0.7-0.5h0.4c-0.1,0.5-0.5,0.9-1.1,0.9c-0.7,0-1.2-0.5-1.2-1.4
				s0.5-1.4,1.2-1.4c0.5,0,0.9,0.3,1.1,0.7c0.1,0.2,0.1,0.4,0.1,0.8H232.3z M233,22.7c-0.4,0-0.7,0.3-0.8,0.8h1.5c0,0,0,0,0,0
				C233.8,23.1,233.4,22.7,233,22.7z"/>
			<path d="M235.3,25.1c-0.3,0-0.5-0.2-0.5-0.4v-1.9h-0.4v-0.3h0.4v-0.7h0.4v0.7h0.4v0.3h-0.4v1.7c0,0.2,0,0.2,0.2,0.2
				c0.1,0,0.1,0,0.2,0V25C235.5,25.1,235.4,25.1,235.3,25.1z"/>
		</g>
	</g>
	<g>
		<g>
			<path d="M8.4,76.1H8l0.5-2.5H7.7l0.1-0.3c0.7-0.1,0.8-0.2,1.1-0.7h0.3L8.4,76.1z"/>
			<path d="M10.8,76.1c-0.6,0-1-0.3-1-0.8c0-0.1,0-0.2,0-0.3h0.4l0,0.1c0,0.1,0,0.2,0,0.2c0,0.3,0.2,0.5,0.6,0.5
				c0.6,0,0.9-0.4,0.9-0.9c0-0.3-0.2-0.5-0.7-0.5c-0.1,0-0.1,0-0.2,0L11,74h0.1c0.7,0,0.9-0.3,0.9-0.7c0-0.3-0.2-0.4-0.5-0.4
				c-0.4,0-0.7,0.2-0.8,0.8h-0.4c0.2-0.8,0.7-1.1,1.3-1.1c0.6,0,0.9,0.3,0.9,0.7c0,0.4-0.2,0.7-0.6,1c0.3,0.1,0.4,0.3,0.4,0.6
				C12.2,75.5,11.7,76.1,10.8,76.1z"/>
			<path d="M12.7,74.9l0.1-0.4H14l-0.1,0.4H12.7z"/>
			<path d="M15.6,76.1h-0.4l0.5-2.5H15l0.1-0.3c0.7-0.1,0.8-0.2,1.1-0.7h0.3L15.6,76.1z"/>
			<path d="M18.1,76.1c-0.6,0-1-0.4-1-0.9c0-0.6,0.2-1.5,0.5-1.9c0.3-0.5,0.7-0.7,1.2-0.7c0.5,0,0.9,0.3,0.9,0.8c0,0,0,0.1,0,0.1
				h-0.4c0,0,0,0,0,0c0-0.3-0.2-0.5-0.5-0.5c-0.5,0-0.9,0.5-1.1,1.4c0.3-0.3,0.6-0.4,0.9-0.4c0.5,0,0.9,0.3,0.9,0.9
				C19.5,75.5,18.9,76.1,18.1,76.1z M18.5,74.2c-0.5,0-0.9,0.4-0.9,0.9c0,0.4,0.3,0.6,0.6,0.6c0.5,0,0.9-0.4,0.9-1
				C19.1,74.5,18.9,74.2,18.5,74.2z"/>
			<path d="M20.4,76.1h-0.5l0.1-0.5h0.5L20.4,76.1z"/>
			<path d="M25.3,76.1c-0.1-0.1-0.1-0.4-0.1-0.6l0-0.3c0-0.5-0.2-0.7-0.6-0.7h-1.2v1.6H23v-3.6h1.7c0.7,0,1.1,0.3,1.1,1
				c0,0.4-0.2,0.7-0.6,0.9c0.4,0.2,0.5,0.4,0.5,1c0,0.5,0,0.6,0.2,0.7v0.1H25.3z M24.6,72.8h-1.1v1.3h1.1c0.5,0,0.7-0.2,0.7-0.6
				C25.3,73,25.1,72.8,24.6,72.8z"/>
			<path d="M28.8,76.1v-1.7h-1.9v1.7h-0.5v-3.6h0.5V74h1.9v-1.6h0.5v3.6H28.8z"/>
			<path d="M33.4,76.1c-0.2,0-0.4-0.1-0.4-0.3c-0.2,0.2-0.6,0.4-0.9,0.4c-0.5,0-0.9-0.3-0.9-0.8c0-0.3,0.2-0.6,0.5-0.7
				c0.2-0.1,0.3-0.1,0.8-0.2c0.3,0,0.4-0.1,0.4-0.3v-0.1c0-0.3-0.2-0.4-0.6-0.4c-0.4,0-0.6,0.1-0.6,0.5h-0.4c0-0.6,0.4-0.9,1.1-0.9
				c0.6,0,1,0.3,1,0.7v1.5c0,0.1,0.1,0.2,0.2,0.2c0,0,0,0,0.1,0V76C33.5,76.1,33.5,76.1,33.4,76.1z M32.9,74.8
				c-0.1,0.1-0.2,0.1-0.7,0.1c-0.4,0.1-0.6,0.2-0.6,0.5c0,0.3,0.2,0.4,0.5,0.4c0.4,0,0.8-0.2,0.8-0.6V74.8z"/>
			<path d="M35,76.1c-0.7,0-1.2-0.5-1.2-1.4c0-0.9,0.5-1.4,1.2-1.4c0.6,0,1,0.3,1,1h-0.4c0-0.4-0.3-0.6-0.6-0.6
				c-0.5,0-0.7,0.4-0.7,1c0,0.6,0.3,1,0.7,1c0.4,0,0.6-0.2,0.6-0.6h0.4C36,75.8,35.7,76.1,35,76.1z"/>
			<path d="M36.9,74.7v1.4h-0.4v-2.6h0.4v0.5c0.2-0.4,0.4-0.6,0.7-0.6c0.1,0,0.1,0,0.2,0v0.4C37.1,73.8,36.9,74.1,36.9,74.7z"/>
			<path d="M39.2,76.1c-0.7,0-1.2-0.5-1.2-1.4s0.4-1.4,1.2-1.4c0.8,0,1.2,0.5,1.2,1.4C40.3,75.6,39.9,76.1,39.2,76.1z M39.2,73.7
				c-0.5,0-0.8,0.4-0.8,1c0,0.6,0.3,1,0.8,1c0.5,0,0.8-0.4,0.8-1C39.9,74.1,39.6,73.7,39.2,73.7z"/>
			<path d="M41.7,76.1c-0.7,0-1-0.3-1-0.9h0.4c0.1,0.4,0.3,0.5,0.6,0.5c0.4,0,0.6-0.1,0.6-0.4c0-0.2-0.1-0.3-0.4-0.3l-0.4-0.1
				c-0.6-0.2-0.8-0.3-0.8-0.8c0-0.5,0.4-0.8,1-0.8c0.6,0,0.9,0.3,1,0.8h-0.4c0-0.3-0.2-0.4-0.5-0.4c-0.3,0-0.6,0.2-0.6,0.4
				c0,0.2,0.1,0.3,0.5,0.4l0.4,0.1c0.5,0.1,0.7,0.3,0.7,0.7C42.8,75.8,42.4,76.1,41.7,76.1z"/>
			<path d="M44.2,76.1c-0.7,0-1-0.3-1-0.9h0.4c0.1,0.4,0.3,0.5,0.6,0.5c0.4,0,0.6-0.1,0.6-0.4c0-0.2-0.1-0.3-0.4-0.3L44,74.9
				c-0.6-0.2-0.8-0.3-0.8-0.8c0-0.5,0.4-0.8,1-0.8c0.6,0,0.9,0.3,1,0.8h-0.4c0-0.3-0.2-0.4-0.5-0.4c-0.3,0-0.6,0.2-0.6,0.4
				c0,0.2,0.1,0.3,0.5,0.4l0.4,0.1c0.5,0.1,0.7,0.3,0.7,0.7C45.3,75.8,44.9,76.1,44.2,76.1z"/>
		</g>
	</g>
	<g>
		<g>
			<path d="M77.2,76.1h-0.4l0.5-2.5h-0.8l0.1-0.3c0.7-0.1,0.8-0.2,1.1-0.7h0.3L77.2,76.1z"/>
			<path d="M79.4,76.1h-0.5c0.5-1.1,1-1.8,2.1-3h-1.9l0.1-0.4h2.4L81.5,73C80.6,73.8,79.7,75.1,79.4,76.1z"/>
			<path d="M81.5,74.9l0.1-0.4h1.2l-0.1,0.4H81.5z"/>
			<path d="M84.8,74.6l-0.6,0.3c-0.5,0.2-0.7,0.5-0.8,0.7h1.9l-0.1,0.4h-2.4c0.2-0.8,0.5-1.1,1.3-1.5l0.5-0.3
				c0.4-0.2,0.7-0.5,0.7-0.8s-0.2-0.5-0.6-0.5c-0.5,0-0.8,0.3-0.9,0.8h-0.4c0.2-0.8,0.6-1.2,1.4-1.2c0.6,0,1,0.3,1,0.9
				C85.7,73.9,85.4,74.3,84.8,74.6z"/>
			<path d="M87.9,75.5c-0.3,0.4-0.6,0.6-1.1,0.6c-0.5,0-0.9-0.3-0.9-1c0-0.7,0.2-1.6,0.6-2c0.3-0.4,0.6-0.6,1-0.6
				c0.6,0,0.9,0.4,0.9,1C88.4,74.2,88.2,75.1,87.9,75.5z M87.5,72.9c-0.3,0-0.6,0.2-0.8,0.6c-0.2,0.4-0.3,1.1-0.3,1.6
				c0,0.4,0.2,0.6,0.5,0.6c0.3,0,0.6-0.2,0.8-0.6c0.2-0.4,0.3-1.1,0.3-1.6C88,73.1,87.8,72.9,87.5,72.9z"/>
			<path d="M89.2,76.1h-0.5l0.1-0.5h0.5L89.2,76.1z"/>
			<path d="M92.5,76.1c-0.7,0-1.2-0.5-1.2-1.4c0-0.9,0.5-1.4,1.2-1.4c0.6,0,1,0.3,1,1h-0.4c0-0.4-0.3-0.6-0.6-0.6
				c-0.5,0-0.7,0.4-0.7,1c0,0.6,0.3,1,0.7,1c0.4,0,0.6-0.2,0.6-0.6h0.4C93.6,75.8,93.2,76.1,92.5,76.1z"/>
			<path d="M95.1,76.1c-0.7,0-1.2-0.5-1.2-1.4s0.4-1.4,1.2-1.4c0.8,0,1.2,0.5,1.2,1.4C96.2,75.6,95.8,76.1,95.1,76.1z M95.1,73.7
				c-0.5,0-0.8,0.4-0.8,1c0,0.6,0.3,1,0.8,1c0.5,0,0.8-0.4,0.8-1C95.8,74.1,95.5,73.7,95.1,73.7z"/>
			<path d="M97.2,74.7v1.4h-0.4v-2.6h0.4v0.5c0.2-0.4,0.4-0.6,0.7-0.6c0.1,0,0.1,0,0.2,0v0.4C97.4,73.8,97.2,74.1,97.2,74.7z"/>
			<path d="M100.1,76.1v-1.8c0-0.3-0.2-0.5-0.5-0.5c-0.4,0-0.7,0.4-0.7,0.9v1.4h-0.4v-2.6h0.4v0.4c0.2-0.4,0.5-0.5,0.9-0.5
				c0.5,0,0.8,0.3,0.8,0.7v2H100.1z"/>
			<path d="M101.4,74.9c0,0.6,0.3,0.9,0.8,0.9c0.3,0,0.6-0.1,0.7-0.5h0.4c-0.1,0.5-0.5,0.9-1.1,0.9c-0.7,0-1.2-0.5-1.2-1.4
				c0-0.9,0.5-1.4,1.2-1.4c0.5,0,0.9,0.3,1.1,0.7c0.1,0.2,0.1,0.4,0.1,0.8H101.4z M102.2,73.7c-0.4,0-0.7,0.3-0.8,0.8h1.5
				c0,0,0,0,0,0C102.9,74.1,102.6,73.7,102.2,73.7z"/>
			<path d="M104.3,74.7v1.4h-0.4v-2.6h0.4v0.5c0.2-0.4,0.4-0.6,0.7-0.6c0.1,0,0.1,0,0.2,0v0.4C104.5,73.8,104.3,74.1,104.3,74.7z"/>
			<path d="M106.3,76.1c-0.7,0-1-0.3-1-0.9h0.4c0.1,0.4,0.3,0.5,0.6,0.5c0.4,0,0.6-0.1,0.6-0.4c0-0.2-0.1-0.3-0.4-0.3l-0.4-0.1
				c-0.6-0.2-0.8-0.3-0.8-0.8c0-0.5,0.4-0.8,1-0.8c0.6,0,0.9,0.3,1,0.8h-0.4c0-0.3-0.2-0.4-0.5-0.4c-0.3,0-0.6,0.2-0.6,0.4
				c0,0.2,0.1,0.3,0.5,0.4l0.4,0.1c0.5,0.1,0.7,0.3,0.7,0.7C107.4,75.8,107,76.1,106.3,76.1z"/>
			<path d="M110.4,76.1c-0.3,0-0.6-0.1-0.8-0.4v1.4h-0.4v-3.7h0.4v0.4c0.2-0.3,0.5-0.5,0.8-0.5c0.7,0,1.1,0.5,1.1,1.4
				C111.5,75.6,111.1,76.1,110.4,76.1z M110.4,73.8c-0.4,0-0.7,0.4-0.7,1s0.3,1,0.7,1c0.5,0,0.8-0.4,0.8-1
				C111.1,74.1,110.8,73.8,110.4,73.8z"/>
			<path d="M114.1,76.1c-0.2,0-0.4-0.1-0.4-0.3c-0.2,0.2-0.6,0.4-0.9,0.4c-0.5,0-0.9-0.3-0.9-0.8c0-0.3,0.2-0.6,0.5-0.7
				c0.2-0.1,0.3-0.1,0.8-0.2c0.3,0,0.4-0.1,0.4-0.3v-0.1c0-0.3-0.2-0.4-0.6-0.4c-0.4,0-0.6,0.1-0.6,0.5H112c0-0.6,0.4-0.9,1.1-0.9
				c0.6,0,1,0.3,1,0.7v1.5c0,0.1,0.1,0.2,0.2,0.2c0,0,0,0,0.1,0V76C114.2,76.1,114.1,76.1,114.1,76.1z M113.6,74.8
				c-0.1,0.1-0.2,0.1-0.7,0.1c-0.4,0.1-0.6,0.2-0.6,0.5c0,0.3,0.2,0.4,0.5,0.4c0.4,0,0.8-0.2,0.8-0.6V74.8z"/>
			<path d="M115.6,76.1c-0.7,0-1-0.3-1-0.9h0.4c0.1,0.4,0.3,0.5,0.6,0.5c0.4,0,0.6-0.1,0.6-0.4c0-0.2-0.1-0.3-0.4-0.3l-0.4-0.1
				c-0.6-0.2-0.8-0.3-0.8-0.8c0-0.5,0.4-0.8,1-0.8c0.6,0,0.9,0.3,1,0.8h-0.4c0-0.3-0.2-0.4-0.5-0.4c-0.3,0-0.6,0.2-0.6,0.4
				c0,0.2,0.1,0.3,0.5,0.4l0.4,0.1c0.5,0.1,0.7,0.3,0.7,0.7C116.7,75.8,116.3,76.1,115.6,76.1z"/>
			<path d="M118.1,76.1c-0.7,0-1-0.3-1-0.9h0.4c0.1,0.4,0.3,0.5,0.6,0.5c0.4,0,0.6-0.1,0.6-0.4c0-0.2-0.1-0.3-0.4-0.3l-0.4-0.1
				c-0.6-0.2-0.8-0.3-0.8-0.8c0-0.5,0.4-0.8,1-0.8c0.6,0,0.9,0.3,1,0.8h-0.4c0-0.3-0.2-0.4-0.5-0.4c-0.3,0-0.6,0.2-0.6,0.4
				c0,0.2,0.1,0.3,0.5,0.4l0.4,0.1c0.5,0.1,0.7,0.3,0.7,0.7C119.2,75.8,118.7,76.1,118.1,76.1z"/>
			<path d="M123.3,76.1l-0.3-0.4c-0.4,0.4-0.6,0.5-1,0.5c-0.6,0-1-0.4-1-1c0-0.5,0.2-0.7,0.8-1.1c-0.3-0.4-0.4-0.6-0.4-0.8
				c0-0.4,0.4-0.8,0.9-0.8s0.8,0.3,0.8,0.8c0,0.4-0.2,0.6-0.7,0.9L123,75c0.1-0.2,0.2-0.4,0.2-0.6h0.4c0,0.3-0.1,0.6-0.3,0.9
				l0.6,0.8H123.3z M121.9,74.4c-0.5,0.3-0.6,0.5-0.6,0.8c0,0.4,0.3,0.6,0.7,0.6c0.3,0,0.5-0.1,0.8-0.4L121.9,74.4z M122.2,72.9
				c-0.3,0-0.4,0.2-0.4,0.4c0,0.2,0,0.3,0.4,0.6c0.4-0.2,0.5-0.4,0.5-0.6C122.6,73,122.4,72.9,122.2,72.9z"/>
			<path d="M126.2,76.1c-0.3,0-0.5-0.2-0.5-0.4v-1.9h-0.4v-0.3h0.4v-0.7h0.4v0.7h0.4v0.3h-0.4v1.7c0,0.2,0,0.2,0.2,0.2
				c0.1,0,0.1,0,0.2,0v0.3C126.4,76.1,126.3,76.1,126.2,76.1z"/>
			<path d="M128.7,76.1v-0.4c-0.2,0.3-0.5,0.5-0.9,0.5c-0.5,0-0.8-0.3-0.8-0.7v-2h0.4v1.8c0,0.3,0.2,0.5,0.5,0.5
				c0.4,0,0.7-0.4,0.7-0.9v-1.4h0.4v2.6H128.7z"/>
			<path d="M130.1,74.7v1.4h-0.4v-2.6h0.4v0.5c0.2-0.4,0.4-0.6,0.7-0.6c0.1,0,0.1,0,0.2,0v0.4C130.3,73.8,130.1,74.1,130.1,74.7z"/>
			<path d="M133,76.1v-1.8c0-0.3-0.2-0.5-0.5-0.5c-0.4,0-0.7,0.4-0.7,0.9v1.4h-0.4v-2.6h0.4v0.4c0.2-0.4,0.5-0.5,0.9-0.5
				c0.5,0,0.8,0.3,0.8,0.7v2H133z"/>
		</g>
	</g>
	<g>
		<g>
			<path d="M154.8,74.6l-0.6,0.3c-0.5,0.2-0.7,0.5-0.8,0.7h1.9l-0.1,0.4h-2.4c0.2-0.8,0.5-1.1,1.3-1.5l0.5-0.3
				c0.4-0.2,0.7-0.5,0.7-0.8s-0.2-0.5-0.6-0.5c-0.5,0-0.8,0.3-0.9,0.8h-0.4c0.2-0.8,0.6-1.2,1.4-1.2c0.6,0,1,0.3,1,0.9
				C155.8,73.9,155.4,74.3,154.8,74.6z"/>
			<path d="M157.2,76.1h-0.4l0.5-2.5h-0.8l0.1-0.3c0.7-0.1,0.8-0.2,1.1-0.7h0.3L157.2,76.1z"/>
			<path d="M158.7,74.9l0.1-0.4h1.2l-0.1,0.4H158.7z"/>
			<path d="M162,74.6l-0.6,0.3c-0.5,0.2-0.7,0.5-0.8,0.7h1.9l-0.1,0.4H160c0.2-0.8,0.5-1.1,1.3-1.5l0.5-0.3c0.4-0.2,0.7-0.5,0.7-0.8
				s-0.2-0.5-0.6-0.5c-0.5,0-0.8,0.3-0.9,0.8h-0.4c0.2-0.8,0.6-1.2,1.4-1.2c0.6,0,1,0.3,1,0.9C163,73.9,162.6,74.3,162,74.6z"/>
			<path d="M165.4,75.2h-0.5l-0.2,0.9h-0.4l0.2-0.9H163l0.1-0.5l2.1-2.2h0.3l-0.5,2.3h0.5L165.4,75.2z M164.9,73.3l-1.4,1.5h1.1
				L164.9,73.3z"/>
			<path d="M166.4,76.1h-0.5l0.1-0.5h0.5L166.4,76.1z"/>
			<path d="M169.7,76.1c-0.7,0-1.2-0.5-1.2-1.4c0-0.9,0.5-1.4,1.2-1.4c0.6,0,1,0.3,1,1h-0.4c0-0.4-0.3-0.6-0.6-0.6
				c-0.5,0-0.7,0.4-0.7,1c0,0.6,0.3,1,0.7,1c0.4,0,0.6-0.2,0.6-0.6h0.4C170.8,75.8,170.4,76.1,169.7,76.1z"/>
			<path d="M172.2,76.1c-0.7,0-1.2-0.5-1.2-1.4s0.4-1.4,1.2-1.4c0.8,0,1.2,0.5,1.2,1.4C173.4,75.6,173,76.1,172.2,76.1z M172.2,73.7
				c-0.5,0-0.8,0.4-0.8,1c0,0.6,0.3,1,0.8,1c0.5,0,0.8-0.4,0.8-1C173,74.1,172.7,73.7,172.2,73.7z"/>
			<path d="M174.4,74.7v1.4H174v-2.6h0.4v0.5c0.2-0.4,0.4-0.6,0.7-0.6c0.1,0,0.1,0,0.2,0v0.4C174.6,73.8,174.4,74.1,174.4,74.7z"/>
			<path d="M177.3,76.1v-1.8c0-0.3-0.2-0.5-0.5-0.5c-0.4,0-0.7,0.4-0.7,0.9v1.4h-0.4v-2.6h0.4v0.4c0.2-0.4,0.5-0.5,0.9-0.5
				c0.5,0,0.8,0.3,0.8,0.7v2H177.3z"/>
			<path d="M178.6,74.9c0,0.6,0.3,0.9,0.8,0.9c0.3,0,0.6-0.1,0.7-0.5h0.4c-0.1,0.5-0.5,0.9-1.1,0.9c-0.7,0-1.2-0.5-1.2-1.4
				c0-0.9,0.5-1.4,1.2-1.4c0.5,0,0.9,0.3,1.1,0.7c0.1,0.2,0.1,0.4,0.1,0.8H178.6z M179.4,73.7c-0.4,0-0.7,0.3-0.8,0.8h1.5
				c0,0,0,0,0,0C180.1,74.1,179.8,73.7,179.4,73.7z"/>
			<path d="M181.5,74.7v1.4H181v-2.6h0.4v0.5c0.2-0.4,0.4-0.6,0.7-0.6c0.1,0,0.1,0,0.2,0v0.4C181.7,73.8,181.5,74.1,181.5,74.7z"/>
			<path d="M183.5,76.1c-0.7,0-1-0.3-1-0.9h0.4c0.1,0.4,0.3,0.5,0.6,0.5c0.4,0,0.6-0.1,0.6-0.4c0-0.2-0.1-0.3-0.4-0.3l-0.4-0.1
				c-0.6-0.2-0.8-0.3-0.8-0.8c0-0.5,0.4-0.8,1-0.8c0.6,0,0.9,0.3,1,0.8h-0.4c0-0.3-0.2-0.4-0.5-0.4c-0.3,0-0.6,0.2-0.6,0.4
				c0,0.2,0.1,0.3,0.5,0.4l0.4,0.1c0.5,0.1,0.7,0.3,0.7,0.7C184.6,75.8,184.2,76.1,183.5,76.1z"/>
			<path d="M187.6,76.1c-0.3,0-0.6-0.1-0.8-0.4v1.4h-0.4v-3.7h0.4v0.4c0.2-0.3,0.5-0.5,0.8-0.5c0.7,0,1.1,0.5,1.1,1.4
				C188.7,75.6,188.3,76.1,187.6,76.1z M187.5,73.8c-0.4,0-0.7,0.4-0.7,1s0.3,1,0.7,1c0.5,0,0.8-0.4,0.8-1
				C188.3,74.1,188,73.8,187.5,73.8z"/>
			<path d="M191.2,76.1c-0.2,0-0.4-0.1-0.4-0.3c-0.2,0.2-0.6,0.4-0.9,0.4c-0.5,0-0.9-0.3-0.9-0.8c0-0.3,0.2-0.6,0.5-0.7
				c0.2-0.1,0.3-0.1,0.8-0.2c0.3,0,0.4-0.1,0.4-0.3v-0.1c0-0.3-0.2-0.4-0.6-0.4c-0.4,0-0.6,0.1-0.6,0.5h-0.4c0-0.6,0.4-0.9,1.1-0.9
				c0.6,0,1,0.3,1,0.7v1.5c0,0.1,0.1,0.2,0.2,0.2c0,0,0,0,0.1,0V76C191.4,76.1,191.3,76.1,191.2,76.1z M190.8,74.8
				c-0.1,0.1-0.2,0.1-0.7,0.1c-0.4,0.1-0.6,0.2-0.6,0.5c0,0.3,0.2,0.4,0.5,0.4c0.4,0,0.8-0.2,0.8-0.6V74.8z"/>
			<path d="M192.8,76.1c-0.7,0-1-0.3-1-0.9h0.4c0.1,0.4,0.3,0.5,0.6,0.5c0.4,0,0.6-0.1,0.6-0.4c0-0.2-0.1-0.3-0.4-0.3l-0.4-0.1
				c-0.6-0.2-0.8-0.3-0.8-0.8c0-0.5,0.4-0.8,1-0.8c0.6,0,0.9,0.3,1,0.8h-0.4c0-0.3-0.2-0.4-0.5-0.4c-0.3,0-0.6,0.2-0.6,0.4
				c0,0.2,0.1,0.3,0.5,0.4l0.4,0.1c0.5,0.1,0.7,0.3,0.7,0.7C193.9,75.8,193.5,76.1,192.8,76.1z"/>
			<path d="M195.3,76.1c-0.7,0-1-0.3-1-0.9h0.4c0.1,0.4,0.3,0.5,0.6,0.5c0.4,0,0.6-0.1,0.6-0.4c0-0.2-0.1-0.3-0.4-0.3l-0.4-0.1
				c-0.6-0.2-0.8-0.3-0.8-0.8c0-0.5,0.4-0.8,1-0.8c0.6,0,0.9,0.3,1,0.8h-0.4c0-0.3-0.2-0.4-0.5-0.4c-0.3,0-0.6,0.2-0.6,0.4
				c0,0.2,0.1,0.3,0.5,0.4l0.4,0.1c0.5,0.1,0.7,0.3,0.7,0.7C196.3,75.8,195.9,76.1,195.3,76.1z"/>
			<path d="M200.5,76.1l-0.3-0.4c-0.4,0.4-0.6,0.5-1,0.5c-0.6,0-1-0.4-1-1c0-0.5,0.2-0.7,0.8-1.1c-0.3-0.4-0.4-0.6-0.4-0.8
				c0-0.4,0.4-0.8,0.9-0.8s0.8,0.3,0.8,0.8c0,0.4-0.2,0.6-0.7,0.9l0.7,0.8c0.1-0.2,0.2-0.4,0.2-0.6h0.4c0,0.3-0.1,0.6-0.3,0.9
				l0.6,0.8H200.5z M199.1,74.4c-0.5,0.3-0.6,0.5-0.6,0.8c0,0.4,0.3,0.6,0.7,0.6c0.3,0,0.5-0.1,0.8-0.4L199.1,74.4z M199.3,72.9
				c-0.3,0-0.4,0.2-0.4,0.4c0,0.2,0,0.3,0.4,0.6c0.4-0.2,0.5-0.4,0.5-0.6C199.8,73,199.6,72.9,199.3,72.9z"/>
			<path d="M203.4,76.1c-0.3,0-0.5-0.2-0.5-0.4v-1.9h-0.4v-0.3h0.4v-0.7h0.4v0.7h0.4v0.3h-0.4v1.7c0,0.2,0,0.2,0.2,0.2
				c0.1,0,0.1,0,0.2,0v0.3C203.6,76.1,203.5,76.1,203.4,76.1z"/>
			<path d="M205.9,76.1v-0.4c-0.2,0.3-0.5,0.5-0.9,0.5c-0.5,0-0.8-0.3-0.8-0.7v-2h0.4v1.8c0,0.3,0.2,0.5,0.5,0.5
				c0.4,0,0.7-0.4,0.7-0.9v-1.4h0.4v2.6H205.9z"/>
			<path d="M207.3,74.7v1.4h-0.4v-2.6h0.4v0.5c0.2-0.4,0.4-0.6,0.7-0.6c0.1,0,0.1,0,0.2,0v0.4C207.5,73.8,207.3,74.1,207.3,74.7z"/>
			<path d="M210.2,76.1v-1.8c0-0.3-0.2-0.5-0.5-0.5c-0.4,0-0.7,0.4-0.7,0.9v1.4h-0.4v-2.6h0.4v0.4c0.2-0.4,0.5-0.5,0.9-0.5
				c0.5,0,0.8,0.3,0.8,0.7v2H210.2z"/>
		</g>
	</g>
	<g>
		<g>
			<path d="M233,74.6l-0.6,0.3c-0.5,0.2-0.7,0.5-0.8,0.7h1.9l-0.1,0.4h-2.4c0.2-0.8,0.5-1.1,1.3-1.5l0.5-0.3
				c0.4-0.2,0.7-0.5,0.7-0.8s-0.2-0.5-0.6-0.5c-0.5,0-0.8,0.3-0.9,0.8h-0.4c0.2-0.8,0.6-1.2,1.4-1.2c0.6,0,1,0.3,1,0.9
				C234,73.9,233.7,74.3,233,74.6z"/>
			<path d="M235.1,76.1c-0.6,0-1-0.3-1-0.9v-0.1h0.4c0,0.4,0.2,0.6,0.6,0.6c0.6,0,1-0.4,1-1c0-0.4-0.2-0.6-0.6-0.6
				c-0.3,0-0.4,0.1-0.7,0.3h-0.4l0.7-1.9h1.9l-0.1,0.4h-1.5l-0.3,0.9c0.2-0.1,0.5-0.2,0.7-0.2c0.6,0,0.9,0.3,0.9,0.9
				C236.6,75.5,235.9,76.1,235.1,76.1z"/>
			<path d="M237,74.9l0.1-0.4h1.2l-0.1,0.4H237z"/>
			<path d="M239.5,76.1c-0.6,0-1-0.3-1-0.8c0-0.1,0-0.2,0-0.3h0.4l0,0.1c0,0.1,0,0.2,0,0.2c0,0.3,0.2,0.5,0.6,0.5
				c0.6,0,0.9-0.4,0.9-0.9c0-0.3-0.2-0.5-0.7-0.5c-0.1,0-0.1,0-0.2,0l0.1-0.4h0.1c0.7,0,0.9-0.3,0.9-0.7c0-0.3-0.2-0.4-0.5-0.4
				c-0.4,0-0.7,0.2-0.8,0.8h-0.4c0.2-0.8,0.7-1.1,1.3-1.1c0.6,0,0.9,0.3,0.9,0.7c0,0.4-0.2,0.7-0.6,1c0.3,0.1,0.4,0.3,0.4,0.6
				C240.9,75.5,240.4,76.1,239.5,76.1z"/>
			<path d="M243.1,74.6l-0.6,0.3c-0.5,0.2-0.7,0.5-0.8,0.7h1.9l-0.1,0.4h-2.4c0.2-0.8,0.5-1.1,1.3-1.5l0.5-0.3
				c0.4-0.2,0.7-0.5,0.7-0.8s-0.2-0.5-0.6-0.5c-0.5,0-0.8,0.3-0.9,0.8h-0.4c0.2-0.8,0.6-1.2,1.4-1.2c0.6,0,1,0.3,1,0.9
				C244,73.9,243.7,74.3,243.1,74.6z"/>
			<path d="M244.7,76.1h-0.5l0.1-0.5h0.5L244.7,76.1z"/>
			<path d="M248,76.1c-0.7,0-1.2-0.5-1.2-1.4c0-0.9,0.5-1.4,1.2-1.4c0.6,0,1,0.3,1,1h-0.4c0-0.4-0.3-0.6-0.6-0.6
				c-0.5,0-0.7,0.4-0.7,1c0,0.6,0.3,1,0.7,1c0.4,0,0.6-0.2,0.6-0.6h0.4C249,75.8,248.6,76.1,248,76.1z"/>
			<path d="M249.5,73v-0.5h0.5V73H249.5z M249.5,76.1v-2.6h0.4v2.6H249.5z"/>
			<path d="M251,74.7v1.4h-0.4v-2.6h0.4v0.5c0.2-0.4,0.4-0.6,0.7-0.6c0.1,0,0.1,0,0.2,0v0.4C251.2,73.8,251,74.1,251,74.7z"/>
			<path d="M253.2,76.1c-0.7,0-1.2-0.5-1.2-1.4c0-0.9,0.5-1.4,1.2-1.4c0.6,0,1,0.3,1,1h-0.4c0-0.4-0.3-0.6-0.6-0.6
				c-0.5,0-0.7,0.4-0.7,1c0,0.6,0.3,1,0.7,1c0.4,0,0.6-0.2,0.6-0.6h0.4C254.2,75.8,253.8,76.1,253.2,76.1z"/>
			<path d="M254.6,76.1v-3.6h0.4v3.6H254.6z"/>
			<path d="M256,74.9c0,0.6,0.3,0.9,0.8,0.9c0.3,0,0.6-0.1,0.7-0.5h0.4c-0.1,0.5-0.5,0.9-1.1,0.9c-0.7,0-1.2-0.5-1.2-1.4
				c0-0.9,0.5-1.4,1.2-1.4c0.5,0,0.9,0.3,1.1,0.7c0.1,0.2,0.1,0.4,0.1,0.8H256z M256.8,73.7c-0.4,0-0.7,0.3-0.8,0.8h1.5c0,0,0,0,0,0
				C257.5,74.1,257.2,73.7,256.8,73.7z"/>
		</g>
	</g>
	<g>
		<g>
			<polygon points="157.7,45.6 158.7,46.6 157.3,46.9 155.9,47.3 156.3,45.9 156.6,44.5 			"/>
			<g>
				<g>
					<line class="st1" x1="157.5" y1="45.7" x2="158.5" y2="44.7"/>
					<line class="st11" x1="159.8" y1="43.5" x2="165.1" y2="38.2"/>
					<line class="st1" x1="165.7" y1="37.6" x2="166.7" y2="36.6"/>
				</g>
			</g>
		</g>
		<g>
			<polygon points="172.2,45.6 173.2,46.6 171.8,46.9 170.4,47.3 170.8,45.9 171.1,44.5 			"/>
			<line class="st1" x1="172" y1="45.7" x2="181.2" y2="36.6"/>
		</g>
		<g>
			<polygon points="204.7,52 203.6,51 205,50.7 206.4,50.3 206.1,51.7 205.7,53.1 			"/>
			<line class="st1" x1="204.8" y1="51.9" x2="195.7" y2="61"/>
		</g>
		<g>
			<polygon points="190.2,52 189.1,51 190.5,50.7 191.9,50.3 191.6,51.7 191.2,53.1 			"/>
			<g>
				<g>
					<line class="st1" x1="190.3" y1="51.9" x2="189.3" y2="52.9"/>
					<line class="st11" x1="188.1" y1="54.1" x2="182.8" y2="59.4"/>
					<line class="st1" x1="182.2" y1="60" x2="181.2" y2="61"/>
				</g>
			</g>
		</g>
		<g>
			<g>
				<path class="st5" d="M167,61.4c-0.5,0.4-0.7,0.5-0.7,0.7h1.5v0.6h-2.5c0-0.7,0.2-1,0.8-1.4c0.8-0.6,0.9-0.7,0.9-1.1
					c0-0.4-0.2-0.6-0.5-0.6c-0.3,0-0.5,0.2-0.5,0.6v0.1h-0.7c0-0.1,0-0.1,0-0.1c0-0.8,0.4-1.2,1.2-1.2c0.8,0,1.3,0.5,1.3,1.2
					C167.8,60.6,167.7,60.9,167,61.4z"/>
			</g>
		</g>
		<g>
			<path class="st12" d="M199.4,61c0,2-1.6,3.7-3.7,3.7c-2,0-3.7-1.6-3.7-3.7c0-2,1.6-3.7,3.7-3.7C197.7,57.4,199.4,59,199.4,61z"/>
			<g>
				<path class="st4" d="M195.7,62.8c-0.7,0-1.2-0.5-1.2-1.2h0.7c0,0.4,0.2,0.6,0.5,0.6c0.3,0,0.5-0.2,0.5-0.6
					c0-0.4-0.3-0.5-0.8-0.5v-0.5h0.1c0.4,0,0.6-0.1,0.6-0.5c0-0.3-0.2-0.5-0.5-0.5c-0.4,0-0.5,0.2-0.5,0.6h-0.7v-0.1
					c0-0.8,0.5-1.2,1.2-1.2c0.7,0,1.2,0.4,1.2,1c0,0.3-0.1,0.5-0.5,0.7c0.4,0.2,0.6,0.4,0.6,0.9C196.9,62.3,196.4,62.8,195.7,62.8z"
					/>
			</g>
		</g>
		<g>
			<rect x="163.3" y="33.3" class="st13" width="6.6" height="6.6"/>
			<g>
				<path class="st4" d="M167,37c-0.5,0.4-0.7,0.5-0.7,0.7h1.5v0.6h-2.5c0-0.7,0.2-1,0.8-1.4c0.8-0.6,0.9-0.7,0.9-1.1
					c0-0.4-0.2-0.6-0.5-0.6c-0.3,0-0.5,0.2-0.5,0.6v0.1h-0.7c0-0.1,0-0.1,0-0.1c0-0.8,0.4-1.2,1.2-1.2c0.8,0,1.3,0.5,1.3,1.2
					C167.8,36.3,167.7,36.5,167,37z"/>
			</g>
		</g>
		<g>
			<g>
				<path class="st3" d="M177.5,36.6c0-2,1.6-3.7,3.7-3.7c2,0,3.7,1.6,3.7,3.7c0,2-1.6,3.7-3.7,3.7
					C179.2,40.2,177.5,38.6,177.5,36.6z"/>
			</g>
			<g>
				<g>
					<path class="st4" d="M181,38.3v-2.5h-0.9v-0.5c0.6,0,1-0.2,1.1-0.7h0.5v3.7H181z"/>
				</g>
			</g>
		</g>
		<g>
			<g>
				<g>
					<path class="st6" d="M195.7,38.4c-0.7,0-1.2-0.5-1.2-1.2h0.7c0,0.4,0.2,0.6,0.5,0.6c0.3,0,0.5-0.2,0.5-0.6
						c0-0.4-0.3-0.5-0.8-0.5v-0.5h0.1c0.4,0,0.6-0.1,0.6-0.5c0-0.3-0.2-0.5-0.5-0.5c-0.4,0-0.5,0.2-0.5,0.6h-0.7v-0.1
						c0-0.8,0.5-1.2,1.2-1.2c0.7,0,1.2,0.4,1.2,1c0,0.3-0.1,0.5-0.5,0.7c0.4,0.2,0.6,0.4,0.6,0.9C196.9,37.9,196.4,38.4,195.7,38.4z
						"/>
				</g>
			</g>
		</g>
		<g>
			<rect x="177.9" y="57.8" class="st3" width="6.6" height="6.6"/>
			<g>
				<path class="st4" d="M181,62.7v-2.5h-0.9v-0.5c0.6,0,1-0.2,1.1-0.7h0.5v3.7H181z"/>
			</g>
		</g>
	</g>
	<g>
		<g>
			<path d="M237.8,40c-1.9,0-3-0.8-3-2.4h1.5c0,0.8,0.6,1.2,1.6,1.2c0.9,0,1.5-0.3,1.5-0.9c0-0.6-0.4-0.8-1.4-1l-1-0.2
				c-1.5-0.3-2-0.8-2-2c0-1.4,1-2.2,2.8-2.2c1.8,0,2.9,0.8,2.9,2.3h-1.4c0-0.7-0.6-1.1-1.5-1.1c-0.8,0-1.3,0.4-1.3,0.9
				c0,0.5,0.3,0.7,1.4,0.9l1.1,0.2c1.3,0.3,1.9,0.8,1.9,1.9C240.8,39.1,239.7,40,237.8,40z"/>
		</g>
		<g>
			<g>
				<path class="st5" d="M224.2,61.4c-0.5,0.4-0.6,0.5-0.7,0.7h1.5v0.6h-2.5c0-0.7,0.2-1,0.8-1.4c0.8-0.6,0.9-0.7,0.9-1.1
					c0-0.4-0.2-0.6-0.5-0.6c-0.3,0-0.5,0.2-0.5,0.6v0.1h-0.7c0-0.1,0-0.1,0-0.1c0-0.8,0.4-1.2,1.2-1.2c0.8,0,1.3,0.5,1.3,1.2
					C225,60.6,224.9,60.9,224.2,61.4z"/>
			</g>
		</g>
		<g>
			<path class="st12" d="M263.7,48.8c0,2-1.6,3.7-3.7,3.7c-2,0-3.7-1.6-3.7-3.7c0-2,1.6-3.7,3.7-3.7C262,45.1,263.7,46.7,263.7,48.8
				z"/>
			<g>
				<path class="st4" d="M260,50.5c-0.7,0-1.2-0.5-1.2-1.2h0.7c0,0.4,0.2,0.6,0.5,0.6c0.3,0,0.5-0.2,0.5-0.6c0-0.4-0.3-0.5-0.8-0.5
					v-0.5h0.1c0.4,0,0.6-0.1,0.6-0.5c0-0.3-0.2-0.5-0.5-0.5c-0.4,0-0.5,0.2-0.5,0.6h-0.7v-0.1c0-0.8,0.5-1.2,1.2-1.2
					c0.7,0,1.2,0.4,1.2,1c0,0.3-0.1,0.5-0.5,0.7c0.4,0.2,0.6,0.4,0.6,0.9C261.2,50.1,260.7,50.5,260,50.5z"/>
			</g>
		</g>
		<g>
			<rect x="212.6" y="45.3" class="st13" width="6.6" height="6.6"/>
			<g>
				<path class="st4" d="M216.3,49c-0.5,0.4-0.7,0.5-0.7,0.7h1.5v0.6h-2.5c0-0.7,0.2-1,0.8-1.4c0.8-0.6,0.9-0.7,0.9-1.1
					c0-0.4-0.2-0.6-0.5-0.6c-0.3,0-0.5,0.2-0.5,0.6V48h-0.7c0-0.1,0-0.1,0-0.1c0-0.8,0.4-1.2,1.2-1.2c0.8,0,1.3,0.5,1.3,1.2
					C217.1,48.3,216.9,48.6,216.3,49z"/>
			</g>
		</g>
		<g>
			<g>
				<path class="st3" d="M226.7,48.6c0-2,1.6-3.7,3.7-3.7c2,0,3.7,1.6,3.7,3.7c0,2-1.6,3.7-3.7,3.7
					C228.4,52.3,226.7,50.6,226.7,48.6z"/>
			</g>
			<g>
				<g>
					<path class="st4" d="M230.2,50.4v-2.5h-0.9v-0.5c0.6,0,1-0.2,1.1-0.7h0.5v3.7H230.2z"/>
				</g>
			</g>
		</g>
		<g>
			<g>
				<g>
					<path class="st6" d="M252.9,38.4c-0.7,0-1.2-0.5-1.2-1.2h0.7c0,0.4,0.2,0.6,0.5,0.6c0.3,0,0.5-0.2,0.5-0.6
						c0-0.4-0.3-0.5-0.8-0.5v-0.5h0.1c0.4,0,0.6-0.1,0.6-0.5c0-0.3-0.2-0.5-0.5-0.5c-0.4,0-0.5,0.2-0.5,0.6h-0.7v-0.1
						c0-0.8,0.5-1.2,1.2-1.2s1.2,0.4,1.2,1c0,0.3-0.1,0.5-0.5,0.7c0.4,0.2,0.6,0.4,0.6,0.9C254.1,37.9,253.6,38.4,252.9,38.4z"/>
				</g>
			</g>
		</g>
		<g>
			<rect x="242.2" y="45.5" class="st3" width="6.6" height="6.6"/>
			<g>
				<path class="st4" d="M245.3,50.5v-2.5h-0.9v-0.5c0.6,0,1-0.2,1.1-0.7h0.5v3.7H245.3z"/>
			</g>
		</g>
		<g>
			<line class="st1" x1="239.3" y1="48.7" x2="242.2" y2="48.7"/>
		</g>
		<g>
			<line class="st1" x1="253.5" y1="48.7" x2="256.4" y2="48.7"/>
		</g>
		<g>
			<line class="st1" x1="234" y1="48.7" x2="236.9" y2="48.7"/>
		</g>
		<g>
			<line class="st1" x1="219.1" y1="48.7" x2="222" y2="48.7"/>
		</g>
		<g>
			<g>
				<path class="st1" d="M227.9,54.6c0,1.4,1.1,2.6,2.6,2.6c1.4,0,2.6-1.1,2.6-2.6"/>
			</g>
			<polygon points="227.3,54.5 226.7,55.8 228.1,55.7 229.5,55.5 228.7,54.3 227.9,53.2 			"/>
		</g>
		<g>
			<g>
				<path class="st1" d="M248,43.1c0-1.4-1.1-2.6-2.6-2.6c-1.4,0-2.6,1.1-2.6,2.6"/>
			</g>
			<polygon points="248.6,43.2 249.3,41.8 247.8,42 246.4,42.2 247.2,43.4 248,44.5 			"/>
		</g>
		<polyline class="st1" points="212,32.7 212,29.8 263.7,29.8 263.7,32.7 		"/>
	</g>
	<g>
		<g>
			<g>
				<g>
					<path class="st1" d="M44.2,97.1c0.1-0.5,0.1-0.9,0.2-1.4"/>
					<path class="st14" d="M45,93.7c1.8-4.6,6-7.8,11.4-7.8c7.7,0,13.1,6.2,13.1,13.9c0,8.1-5.8,14.6-13.9,14.6
						c-9.3,0-18.4-6.9-18.4-9.4c0-1.6,2.4-1.9,2.6-0.2c0.1,0.7-0.4,1.6-1,2.4"/>
					<path class="st1" d="M38.3,107.9c-0.5,0.6-1,1-1,1"/>
				</g>
			</g>
			<polygon points="35.9,110.3 38.6,109.5 36.5,107.5 			"/>
		</g>
		<g>
			<path class="st1" d="M34.1,100.6c0,7.3-5.9,13.2-13.2,13.2c-7.7,0-13.4-6.2-13.4-13.9c0-8.1,6.1-14.6,14.1-14.6
				c9.3,0,18.4,6.9,18.4,9.4c0,1.6-2.4,1.9-2.6,0.2c-0.2-1.5,2.5-4,2.5-4"/>
			<polygon points="41.4,89.3 38.7,90.2 40.8,92.1 			"/>
		</g>
		<g>
			<g>
				<line class="st7" x1="33.5" y1="99.8" x2="24.1" y2="99.8"/>
				<line class="st7" x1="24.1" y1="99.8" x2="19.3" y2="91.6"/>
				<line class="st7" x1="24.1" y1="99.8" x2="19.3" y2="108"/>
			</g>
			<line class="st1" x1="22.2" y1="90" x2="24.7" y2="88.6"/>
			<line class="st1" x1="15.9" y1="106.5" x2="13.5" y2="105.1"/>
			<g>
				<line class="st7" x1="44.2" y1="99.8" x2="53.6" y2="99.8"/>
				<line class="st7" x1="53.6" y1="99.8" x2="58.4" y2="108"/>
				<line class="st7" x1="53.6" y1="99.8" x2="58.4" y2="91.6"/>
			</g>
			<line class="st1" x1="55.4" y1="110.2" x2="52.9" y2="111.5"/>
			<line class="st1" x1="61.2" y1="93.4" x2="63.6" y2="94.8"/>
			<g>
				<path class="st13" d="M23,108c0,2-1.6,3.7-3.7,3.7s-3.7-1.6-3.7-3.7c0-2,1.6-3.7,3.7-3.7S23,106,23,108z"/>
				<g>
					<path class="st4" d="M19.7,108.4c-0.5,0.4-0.6,0.5-0.7,0.7h1.5v0.6h-2.5c0-0.7,0.2-1,0.8-1.4c0.8-0.6,0.9-0.7,0.9-1.1
						c0-0.4-0.2-0.6-0.5-0.6c-0.3,0-0.5,0.2-0.5,0.6v0.1h-0.7c0-0.1,0-0.1,0-0.1c0-0.8,0.4-1.2,1.2-1.2c0.8,0,1.3,0.5,1.3,1.2
						C20.6,107.6,20.4,107.9,19.7,108.4z"/>
				</g>
			</g>
			<g>
				
					<rect x="55.1" y="88.3" transform="matrix(0.5171 -0.8559 0.8559 0.5171 -50.1981 94.1986)" class="st12" width="6.6" height="6.6"/>
				<g>
					<path class="st4" d="M58.3,93.4c-0.7,0-1.2-0.5-1.2-1.2h0.7c0,0.4,0.2,0.6,0.5,0.6c0.3,0,0.5-0.2,0.5-0.6
						c0-0.4-0.3-0.5-0.8-0.5v-0.5h0.1c0.4,0,0.6-0.1,0.6-0.5c0-0.3-0.2-0.5-0.5-0.5c-0.4,0-0.5,0.2-0.5,0.6h-0.7v-0.1
						c0-0.8,0.5-1.2,1.2-1.2s1.2,0.4,1.2,1c0,0.3-0.1,0.5-0.5,0.7c0.4,0.2,0.6,0.4,0.6,0.9C59.6,92.9,59.1,93.4,58.3,93.4z"/>
				</g>
			</g>
			<g>
				
					<rect x="16" y="88.3" transform="matrix(0.8822 -0.4709 0.4709 0.8822 -40.8755 19.9002)" class="st13" width="6.6" height="6.6"/>
				<g>
					<path class="st4" d="M19.7,92.1c-0.5,0.4-0.6,0.5-0.7,0.7h1.5v0.6h-2.5c0-0.7,0.2-1,0.8-1.4c0.8-0.6,0.9-0.7,0.9-1.1
						c0-0.4-0.2-0.6-0.5-0.6c-0.3,0-0.5,0.2-0.5,0.6V91h-0.7c0-0.1,0-0.1,0-0.1c0-0.8,0.4-1.2,1.2-1.2c0.8,0,1.3,0.5,1.3,1.2
						C20.6,91.3,20.4,91.6,19.7,92.1z"/>
				</g>
			</g>
			<g>
				<path class="st12" d="M62.2,108.4c0,2-1.6,3.7-3.7,3.7c-2,0-3.7-1.6-3.7-3.7c0-2,1.6-3.7,3.7-3.7
					C60.6,104.7,62.2,106.3,62.2,108.4z"/>
				<g>
					<path class="st4" d="M58.5,110.1c-0.7,0-1.2-0.5-1.2-1.2H58c0,0.4,0.2,0.6,0.5,0.6c0.3,0,0.5-0.2,0.5-0.6
						c0-0.4-0.3-0.5-0.8-0.5v-0.5h0.1c0.4,0,0.6-0.1,0.6-0.5c0-0.3-0.2-0.5-0.5-0.5c-0.4,0-0.5,0.2-0.5,0.6h-0.7v-0.1
						c0-0.8,0.5-1.2,1.2-1.2s1.2,0.4,1.2,1c0,0.3-0.1,0.5-0.5,0.7c0.4,0.2,0.6,0.4,0.6,0.9C59.8,109.6,59.3,110.1,58.5,110.1z"/>
				</g>
			</g>
			<g>
				<g>
					<path class="st3" d="M29.9,99.8c0-2,1.6-3.7,3.7-3.7c2,0,3.7,1.6,3.7,3.7c0,2-1.6,3.7-3.7,3.7C31.5,103.5,29.9,101.8,29.9,99.8
						z"/>
				</g>
				<g>
					<g>
						<path class="st4" d="M33.3,101.6V99h-0.9v-0.5c0.6,0,1-0.2,1.1-0.7H34v3.7H33.3z"/>
					</g>
				</g>
			</g>
			<g>
				<rect x="40.9" y="96.5" class="st3" width="6.6" height="6.6"/>
				<g>
					<path class="st4" d="M44,101.5V99h-0.9v-0.5c0.6,0,1-0.2,1.1-0.7h0.5v3.7H44z"/>
				</g>
			</g>
		</g>
		<g>
			<g>
				<path d="M38,85.9c-0.2-0.3-0.2-0.6-0.2-1.2l0-0.8c0-0.6-0.3-0.9-0.9-0.9h-1.7v2.9h-1.5v-7.3h3.9c1.3,0,2,0.8,2,2
					c0,0.9-0.4,1.5-1.2,1.8c0.9,0.4,1,0.5,1,2.6c0,0.3,0.1,0.5,0.3,0.6v0.3H38z M36.9,79.9h-1.8v1.9h1.8c0.8,0,1.1-0.3,1.1-1
					C38,80.2,37.7,79.9,36.9,79.9z"/>
				<path d="M45.1,85.9v-3.3h-2.9v3.3h-1.5v-7.3h1.5v2.7h2.9v-2.7h1.5v7.3H45.1z"/>
			</g>
		</g>
	</g>
	<g>
		<g>
			<path d="M130.7,52.3c-1.9,0-3-0.8-3-2.4h1.5c0,0.8,0.6,1.2,1.6,1.2c0.9,0,1.5-0.3,1.5-0.9c0-0.6-0.4-0.8-1.4-1l-1-0.2
				c-1.5-0.3-2-0.8-2-2c0-1.4,1-2.2,2.8-2.2c1.8,0,2.9,0.8,2.9,2.3h-1.4c0-0.7-0.6-1.1-1.5-1.1c-0.8,0-1.3,0.4-1.3,0.9
				c0,0.5,0.3,0.7,1.4,0.9l1.1,0.2c1.3,0.3,1.9,0.8,1.9,1.9C133.7,51.5,132.6,52.3,130.7,52.3z"/>
		</g>
		<line class="st7" x1="116.2" y1="61" x2="145.5" y2="61"/>
		<line class="st7" x1="116.2" y1="36.6" x2="145.5" y2="36.6"/>
		<path class="st13" d="M119.8,61c0,2-1.6,3.7-3.7,3.7s-3.7-1.6-3.7-3.7c0-2,1.6-3.7,3.7-3.7S119.8,59,119.8,61z"/>
		<g>
			<path class="st4" d="M116.6,61.4c-0.5,0.4-0.6,0.5-0.7,0.7h1.5v0.6h-2.5c0-0.7,0.2-1,0.8-1.4c0.8-0.6,0.9-0.7,0.9-1.1
				c0-0.4-0.2-0.6-0.5-0.6c-0.3,0-0.5,0.2-0.5,0.6v0.1h-0.7c0-0.1,0-0.1,0-0.1c0-0.8,0.4-1.2,1.2-1.2c0.8,0,1.3,0.5,1.3,1.2
				C117.4,60.6,117.2,60.9,116.6,61.4z"/>
		</g>
		<g>
			<path class="st12" d="M148.9,61c0,2-1.6,3.7-3.7,3.7c-2,0-3.7-1.6-3.7-3.7c0-2,1.6-3.7,3.7-3.7C147.3,57.4,148.9,59,148.9,61z"/>
			<g>
				<path class="st4" d="M145.2,62.8c-0.7,0-1.2-0.5-1.2-1.2h0.7c0,0.4,0.2,0.6,0.5,0.6c0.3,0,0.5-0.2,0.5-0.6
					c0-0.4-0.3-0.5-0.8-0.5v-0.5h0.1c0.4,0,0.6-0.1,0.6-0.5c0-0.3-0.2-0.5-0.5-0.5c-0.4,0-0.5,0.2-0.5,0.6H144v-0.1
					c0-0.8,0.5-1.2,1.2-1.2c0.7,0,1.2,0.4,1.2,1c0,0.3-0.1,0.5-0.5,0.7c0.4,0.2,0.6,0.4,0.6,0.9C146.5,62.3,146,62.8,145.2,62.8z"/>
			</g>
		</g>
		<rect x="112.9" y="33.3" class="st13" width="6.6" height="6.6"/>
		<g>
			<line class="st1" x1="116.2" y1="39.8" x2="116.2" y2="42.7"/>
		</g>
		<g>
			<line class="st1" x1="130.7" y1="40.2" x2="130.7" y2="42.7"/>
		</g>
		<g>
			<line class="st1" x1="145.3" y1="39.8" x2="145.3" y2="42.7"/>
		</g>
		<g>
			<line class="st1" x1="116.2" y1="54.9" x2="116.2" y2="57.4"/>
		</g>
		<g>
			<line class="st1" x1="130.7" y1="54.9" x2="130.7" y2="57.8"/>
		</g>
		<g>
			<line class="st1" x1="145.3" y1="54.9" x2="145.3" y2="57.4"/>
		</g>
		<g>
			<path class="st4" d="M116.6,37c-0.5,0.4-0.6,0.5-0.7,0.7h1.5v0.6h-2.5c0-0.7,0.2-1,0.8-1.4c0.8-0.6,0.9-0.7,0.9-1.1
				c0-0.4-0.2-0.6-0.5-0.6c-0.3,0-0.5,0.2-0.5,0.6v0.1h-0.7c0-0.1,0-0.1,0-0.1c0-0.8,0.4-1.2,1.2-1.2c0.8,0,1.3,0.5,1.3,1.2
				C117.4,36.3,117.2,36.5,116.6,37z"/>
		</g>
		<g>
			<rect x="142" y="33.3" class="st12" width="6.6" height="6.6"/>
			<g>
				<path class="st4" d="M145.2,38.4c-0.7,0-1.2-0.5-1.2-1.2h0.7c0,0.4,0.2,0.6,0.5,0.6c0.3,0,0.5-0.2,0.5-0.6
					c0-0.4-0.3-0.5-0.8-0.5v-0.5h0.1c0.4,0,0.6-0.1,0.6-0.5c0-0.3-0.2-0.5-0.5-0.5c-0.4,0-0.5,0.2-0.5,0.6H144v-0.1
					c0-0.8,0.5-1.2,1.2-1.2c0.7,0,1.2,0.4,1.2,1c0,0.3-0.1,0.5-0.5,0.7c0.4,0.2,0.6,0.4,0.6,0.9C146.5,37.9,146,38.4,145.2,38.4z"/>
			</g>
		</g>
		<g>
			<g>
				<rect x="127.4" y="57.8" class="st3" width="6.6" height="6.6"/>
			</g>
			<g>
				<path class="st4" d="M130.5,62.7v-2.5h-0.9v-0.5c0.6,0,1-0.2,1.1-0.7h0.5v3.7H130.5z"/>
			</g>
		</g>
		<g>
			<g>
				<path class="st3" d="M127.1,36.6c0-2,1.6-3.7,3.7-3.7c2,0,3.7,1.6,3.7,3.7c0,2-1.6,3.7-3.7,3.7
					C128.7,40.2,127.1,38.6,127.1,36.6z"/>
			</g>
			<g>
				<path class="st4" d="M130.5,38.3v-2.5h-0.9v-0.5c0.6,0,1-0.2,1.1-0.7h0.5v3.7H130.5z"/>
			</g>
		</g>
	</g>
	<g>
		<g>
			<line class="st9" x1="150.1" y1="70.7" x2="150.1" y2="72.2"/>
			<line class="st10" x1="150.1" y1="74.3" x2="150.1" y2="119.2"/>
			<line class="st9" x1="150.1" y1="120.2" x2="150.1" y2="121.7"/>
		</g>
	</g>
	<line class="st9" x1="228.4" y1="70.7" x2="228.4" y2="121.7"/>
	<g>
		<g>
			<g>
				<g>
					<g>
						<path class="st1" d="M186.4,98.1c0.4,0.3,0.7,0.5,1.1,0.8"/>
						<path class="st15" d="M189.2,100.1c5.1,4,11.4,10.2,5.2,16.9c-7.5,8.1-22.2-1.6-21-20"/>
						<path class="st1" d="M173.5,96c0-0.5,0.1-0.9,0.2-1.4"/>
					</g>
				</g>
				<polygon points="173.1,93.6 174,92.4 174.5,93.8 175.1,95.2 173.6,95 172.2,94.7 				"/>
			</g>
			<g>
				<path class="st1" d="M167.8,104c0,0-21.8-9.9-12.3-20.2c7.9-8.6,24.5,2.6,21.2,23"/>
				<polygon points="177.4,107 176.5,108.2 175.9,106.8 175.4,105.5 176.9,105.7 178.3,105.9 				"/>
			</g>
			<g>
				<g>
					<g>
						
							<rect x="180.8" y="93" transform="matrix(0.6974 -0.7167 0.7167 0.6974 -13.2864 161.0964)" class="st3" width="6.6" height="6.6"/>
					</g>
				</g>
				<g>
					<path class="st4" d="M183.8,98.1v-2.5H183v-0.5c0.6,0,1-0.2,1.1-0.7h0.5v3.7H183.8z"/>
				</g>
			</g>
			<g>
				<g>
					<path class="st3" d="M170.7,106.3c-1.2,1.6-3.5,1.9-5.1,0.6c-1.6-1.2-1.9-3.5-0.6-5.1c1.2-1.6,3.5-1.9,5.1-0.6
						C171.7,102.4,171.9,104.7,170.7,106.3z"/>
				</g>
				<g>
					<path class="st4" d="M167.5,105.8v-2.5h-0.9v-0.5c0.6,0,1-0.2,1.1-0.7h0.5v3.7H167.5z"/>
				</g>
			</g>
			<g>
				<g>
					<g>
						<g>
							<path class="st5" d="M161.6,112.4c-0.5,0.4-0.6,0.5-0.7,0.7h1.5v0.6h-2.5c0-0.7,0.2-1,0.8-1.4c0.8-0.6,0.9-0.7,0.9-1.1
								c0-0.4-0.2-0.6-0.5-0.6c-0.3,0-0.5,0.2-0.5,0.6v0.1H160c0-0.1,0-0.1,0-0.1c0-0.8,0.4-1.2,1.2-1.2c0.8,0,1.3,0.5,1.3,1.2
								C162.4,111.7,162.2,111.9,161.6,112.4z"/>
						</g>
					</g>
				</g>
			</g>
			<g>
				<g>
					<g>
						<path class="st6" d="M190.2,89.4c-0.7,0-1.2-0.5-1.2-1.2h0.7c0,0.4,0.2,0.6,0.5,0.6c0.3,0,0.5-0.2,0.5-0.6
							c0-0.4-0.3-0.5-0.8-0.5v-0.5h0.1c0.4,0,0.6-0.1,0.6-0.5c0-0.3-0.2-0.5-0.5-0.5c-0.4,0-0.5,0.2-0.5,0.6H189v-0.1
							c0-0.8,0.5-1.2,1.2-1.2c0.7,0,1.2,0.4,1.2,1c0,0.3-0.1,0.5-0.5,0.7c0.4,0.2,0.6,0.4,0.6,0.9C191.5,88.9,191,89.4,190.2,89.4z"
							/>
					</g>
				</g>
			</g>
			<path class="st7" d="M172.6,97.9"/>
			<g>
				<g>
					<path class="st12" d="M187.7,114.6c1.4,1.4,3.7,1.4,5.2,0c1.4-1.4,1.4-3.7,0-5.2c-1.4-1.4-3.7-1.4-5.2,0
						C186.2,110.9,186.2,113.2,187.7,114.6z"/>
					<g>
						<path class="st4" d="M190.2,113.8c-0.7,0-1.2-0.5-1.2-1.2h0.7c0,0.4,0.2,0.6,0.5,0.6c0.3,0,0.5-0.2,0.5-0.6
							c0-0.4-0.3-0.5-0.8-0.5v-0.5h0.1c0.4,0,0.6-0.1,0.6-0.5c0-0.3-0.2-0.5-0.5-0.5c-0.4,0-0.5,0.2-0.5,0.6H189v-0.1
							c0-0.8,0.5-1.2,1.2-1.2c0.7,0,1.2,0.4,1.2,1c0,0.3-0.1,0.5-0.5,0.7c0.4,0.2,0.6,0.4,0.6,0.9
							C191.5,113.3,191,113.8,190.2,113.8z"/>
					</g>
				</g>
				<g>
					<line class="st1" x1="185.6" y1="107.4" x2="187.7" y2="109.5"/>
				</g>
			</g>
			<g>
				<g>
					<line class="st1" x1="163.4" y1="89.9" x2="165.5" y2="92"/>
				</g>
				<g>
					
						<rect x="157.8" y="84.3" transform="matrix(0.7071 -0.7071 0.7071 0.7071 -14.7407 139.5816)" class="st13" width="6.6" height="6.6"/>
					<g>
						<path class="st4" d="M161.5,88c-0.5,0.4-0.7,0.5-0.7,0.7h1.5v0.6h-2.5c0-0.7,0.2-1,0.8-1.4c0.8-0.6,0.9-0.7,0.9-1.1
							c0-0.4-0.2-0.6-0.5-0.6c-0.3,0-0.5,0.2-0.5,0.6V87h-0.7c0-0.1,0-0.1,0-0.1c0-0.8,0.4-1.2,1.2-1.2c0.8,0,1.3,0.5,1.3,1.2
							C162.3,87.3,162.2,87.6,161.5,88z"/>
					</g>
				</g>
			</g>
		</g>
		<g>
			<g>
				<g>
					<path class="st12" d="M219.1,114.6c1.4,1.4,3.7,1.4,5.2,0c1.4-1.4,1.4-3.7,0-5.2c-1.4-1.4-3.7-1.4-5.2,0
						C217.7,110.9,217.7,113.2,219.1,114.6z"/>
					<g>
						<path class="st4" d="M221.6,113.8c-0.7,0-1.2-0.5-1.2-1.2h0.7c0,0.4,0.2,0.6,0.5,0.6c0.3,0,0.5-0.2,0.5-0.6
							c0-0.4-0.3-0.5-0.8-0.5v-0.5h0.1c0.4,0,0.6-0.1,0.6-0.5c0-0.3-0.2-0.5-0.5-0.5c-0.4,0-0.5,0.2-0.5,0.6h-0.7v-0.1
							c0-0.8,0.5-1.2,1.2-1.2c0.7,0,1.2,0.4,1.2,1c0,0.3-0.1,0.5-0.5,0.7c0.4,0.2,0.6,0.4,0.6,0.9
							C222.9,113.3,222.4,113.8,221.6,113.8z"/>
					</g>
				</g>
				<g>
					<line class="st1" x1="217.1" y1="107.4" x2="219.1" y2="109.5"/>
				</g>
			</g>
			<g>
				<g>
					<line class="st1" x1="204.5" y1="89.9" x2="206.5" y2="92"/>
				</g>
				<g>
					
						<rect x="198.9" y="84.3" transform="matrix(0.7071 -0.7071 0.7071 0.7071 -2.7249 168.5905)" class="st13" width="6.6" height="6.6"/>
					<g>
						<path class="st4" d="M202.5,88c-0.5,0.4-0.7,0.5-0.7,0.7h1.5v0.6h-2.5c0-0.7,0.2-1,0.8-1.4c0.8-0.6,0.9-0.7,0.9-1.1
							c0-0.4-0.2-0.6-0.5-0.6c-0.3,0-0.5,0.2-0.5,0.6V87h-0.7c0-0.1,0-0.1,0-0.1c0-0.8,0.4-1.2,1.2-1.2c0.8,0,1.3,0.5,1.3,1.2
							C203.4,87.3,203.2,87.6,202.5,88z"/>
					</g>
				</g>
			</g>
			<g>
				<g>
					<path d="M210.9,96.7v6h-1.5v-6h-2.2v-1.2h5.8v1.2H210.9z"/>
				</g>
				<g>
					<path d="M216.8,104.5c-0.1-0.2-0.1-0.5-0.1-0.8l0-0.4c0-0.6-0.2-0.8-0.8-0.8h-1.6v2h-0.6v-4.7h2.2c0.9,0,1.4,0.4,1.4,1.3
						c0,0.5-0.2,0.9-0.7,1.1c0.5,0.2,0.6,0.5,0.6,1.2c0,0.6,0.1,0.8,0.3,1v0.1H216.8z M215.8,100.3h-1.5v1.6h1.5
						c0.6,0,0.9-0.3,0.9-0.8C216.7,100.6,216.5,100.3,215.8,100.3z"/>
				</g>
			</g>
		</g>
		<g>
			<polyline class="st1" points="225.4,81.3 223.3,79.2 191.8,79.2 189.7,77.1 187.5,79.2 156.1,79.2 154,81.3 			"/>
		</g>
	</g>
	<g>
		<g>
			<circle class="st7" cx="249.4" cy="99.6" r="15.6"/>
			<g>
				<rect x="246.1" y="80.8" class="st3" width="6.6" height="6.6"/>
				<g>
					<path class="st4" d="M249.2,85.9v-2.5h-0.9v-0.5c0.6,0,1-0.2,1.1-0.7h0.5v3.7H249.2z"/>
				</g>
			</g>
			<g>
				<rect x="232.6" y="88.6" transform="matrix(0.5 -0.866 0.866 0.5 38.3823 250.2165)" class="st13" width="6.6" height="6.6"/>
				<g>
					<path class="st4" d="M236.2,92.1c-0.5,0.4-0.7,0.5-0.8,0.7l1.5,0l0,0.6l-2.5,0c0-0.7,0.2-1,0.9-1.4c0.8-0.6,0.9-0.7,1-1.1
						c0-0.4-0.2-0.6-0.5-0.6c-0.3,0-0.5,0.2-0.5,0.6l0,0.1l-0.7,0c0-0.1,0-0.1,0-0.1c0-0.8,0.5-1.2,1.2-1.2c0.8,0,1.2,0.5,1.2,1.2
						C237,91.4,236.9,91.6,236.2,92.1z"/>
				</g>
			</g>
			<g>
				<path class="st13" d="M234.1,104.2c1.7-1,4-0.4,5,1.3c1,1.7,0.4,4-1.3,5c-1.7,1-4,0.4-5-1.3
					C231.7,107.5,232.3,105.3,234.1,104.2z"/>
				<g>
					<path class="st4" d="M236.2,107.8c-0.5,0.4-0.6,0.5-0.7,0.7l1.5,0l0,0.6l-2.5,0c0-0.7,0.2-1,0.8-1.4c0.8-0.6,0.9-0.7,0.9-1.1
						c0-0.4-0.2-0.6-0.5-0.6c-0.3,0-0.5,0.2-0.5,0.7l0,0.1l-0.7,0c0-0.1,0-0.1,0-0.1c0-0.8,0.4-1.2,1.2-1.2c0.8,0,1.3,0.4,1.3,1.1
						C237,107,236.9,107.3,236.2,107.8z"/>
				</g>
			</g>
			<g>
				<path class="st3" d="M245.7,115.2c0-2,1.6-3.7,3.7-3.7c2,0,3.7,1.6,3.7,3.7c0,2-1.6,3.7-3.7,3.7
					C247.3,118.8,245.7,117.2,245.7,115.2z"/>
				<g>
					<path class="st4" d="M249,117.1v-2.5h-0.9v-0.5c0.6,0,1-0.2,1.1-0.7h0.5l0,3.7H249z"/>
				</g>
			</g>
			<g>
				<path class="st12" d="M261,110.6c-1.7-1-2.3-3.2-1.3-5c1-1.7,3.2-2.3,5-1.3c1.7,1,2.3,3.2,1.3,5C265,111,262.7,111.6,261,110.6z
					"/>
				<g>
					<path class="st4" d="M262.9,109.2c-0.7,0-1.2-0.4-1.2-1.2l0.7,0c0,0.4,0.2,0.6,0.6,0.6c0.3,0,0.5-0.2,0.5-0.6
						c0-0.4-0.3-0.5-0.8-0.5l0-0.5h0.1c0.4,0,0.6-0.2,0.6-0.5c0-0.3-0.2-0.5-0.5-0.5c-0.4,0-0.5,0.2-0.5,0.6l-0.7,0v-0.1
						c0-0.8,0.5-1.2,1.2-1.2c0.7,0,1.2,0.4,1.2,1c0,0.3-0.1,0.5-0.5,0.7c0.4,0.2,0.6,0.4,0.6,0.9
						C264.1,108.8,263.6,109.2,262.9,109.2z"/>
				</g>
			</g>
			<rect x="259.5" y="88.6" transform="matrix(0.866 -0.5 0.5 0.866 -10.7213 143.7241)" class="st12" width="6.6" height="6.6"/>
			<g>
				<path class="st4" d="M262.7,93.8c-0.7,0-1.2-0.5-1.2-1.2l0.7,0c0,0.4,0.2,0.6,0.5,0.6c0.3,0,0.5-0.2,0.5-0.6
					c0-0.4-0.3-0.5-0.8-0.5l0-0.5h0.1c0.4,0,0.6-0.2,0.6-0.5c0-0.3-0.2-0.5-0.5-0.5c-0.4,0-0.5,0.2-0.5,0.6l-0.7,0v-0.1
					c0-0.8,0.5-1.2,1.2-1.2c0.7,0,1.2,0.4,1.2,1c0,0.3-0.1,0.5-0.5,0.7c0.4,0.2,0.6,0.4,0.6,0.9C264,93.3,263.5,93.8,262.7,93.8z"/>
			</g>
		</g>
		<g>
			<path d="M244.1,99v-3.6h0.4V99H244.1z"/>
			<path d="M245.4,97.8c0,0.6,0.3,0.9,0.8,0.9c0.3,0,0.6-0.1,0.7-0.5h0.4c-0.1,0.5-0.5,0.9-1.1,0.9c-0.7,0-1.2-0.5-1.2-1.4
				c0-0.9,0.5-1.4,1.2-1.4c0.5,0,0.9,0.3,1.1,0.7c0.1,0.2,0.1,0.4,0.1,0.8H245.4z M246.2,96.7c-0.4,0-0.7,0.3-0.8,0.8h1.5
				c0,0,0,0,0,0C246.9,97,246.6,96.7,246.2,96.7z"/>
			<path d="M248.4,96.7V99H248v-2.3h-0.3v-0.3h0.3v-0.4c0-0.4,0.2-0.6,0.6-0.6c0.1,0,0.1,0,0.2,0v0.3c-0.1,0-0.1,0-0.1,0
				c-0.2,0-0.3,0.1-0.3,0.3v0.4h0.4v0.3H248.4z"/>
			<path d="M249.8,99c-0.3,0-0.5-0.2-0.5-0.4v-1.9h-0.4v-0.3h0.4v-0.7h0.4v0.7h0.4v0.3h-0.4v1.7c0,0.2,0,0.2,0.2,0.2
				c0.1,0,0.1,0,0.2,0V99C250,99,249.9,99,249.8,99z"/>
			<path d="M254.2,99l-0.3-0.4c-0.4,0.4-0.6,0.5-1,0.5c-0.6,0-1-0.4-1-1c0-0.5,0.2-0.7,0.8-1.1c-0.3-0.4-0.4-0.6-0.4-0.8
				c0-0.4,0.4-0.8,0.9-0.8s0.8,0.3,0.8,0.8c0,0.4-0.2,0.6-0.7,0.9l0.7,0.8c0.1-0.2,0.2-0.4,0.2-0.6h0.4c0,0.3-0.1,0.6-0.3,0.9
				l0.6,0.8H254.2z M252.9,97.3c-0.5,0.3-0.6,0.5-0.6,0.8c0,0.4,0.3,0.6,0.7,0.6c0.3,0,0.5-0.1,0.8-0.4L252.9,97.3z M253.1,95.8
				c-0.3,0-0.4,0.2-0.4,0.4c0,0.2,0,0.3,0.4,0.6c0.4-0.2,0.5-0.4,0.5-0.6C253.5,96,253.3,95.8,253.1,95.8z"/>
			<path d="M245.6,104.1c-0.4,0-0.6-0.1-0.8-0.5v0.4h-0.4v-3.6h0.4v1.4c0.2-0.3,0.5-0.4,0.8-0.4c0.7,0,1.1,0.5,1.1,1.4
				C246.7,103.5,246.3,104.1,245.6,104.1z M245.5,101.7c-0.4,0-0.7,0.4-0.7,1c0,0.6,0.3,1,0.7,1c0.5,0,0.8-0.4,0.8-1
				C246.3,102.1,246,101.7,245.5,101.7z"/>
			<path d="M249.2,104c-0.2,0-0.4-0.1-0.4-0.3c-0.2,0.2-0.6,0.4-0.9,0.4c-0.5,0-0.9-0.3-0.9-0.8c0-0.3,0.2-0.6,0.5-0.7
				c0.2-0.1,0.3-0.1,0.8-0.2c0.3,0,0.4-0.1,0.4-0.3v-0.1c0-0.3-0.2-0.4-0.6-0.4c-0.4,0-0.6,0.1-0.6,0.5h-0.4c0-0.6,0.4-0.9,1.1-0.9
				c0.6,0,1,0.3,1,0.7v1.5c0,0.1,0.1,0.2,0.2,0.2c0,0,0,0,0.1,0v0.3C249.4,104,249.3,104,249.2,104z M248.8,102.7
				c-0.1,0.1-0.2,0.1-0.7,0.1c-0.4,0.1-0.6,0.2-0.6,0.5c0,0.3,0.2,0.4,0.5,0.4c0.4,0,0.8-0.2,0.8-0.6V102.7z"/>
			<path d="M250.9,104.1c-0.7,0-1.2-0.5-1.2-1.4c0-0.9,0.5-1.4,1.2-1.4c0.6,0,1,0.3,1,1h-0.4c-0.1-0.4-0.3-0.6-0.6-0.6
				c-0.5,0-0.7,0.4-0.7,1c0,0.6,0.3,1,0.7,1c0.4,0,0.6-0.2,0.6-0.6h0.4C251.9,103.7,251.5,104.1,250.9,104.1z"/>
			<path d="M254,104l-0.9-1.4l-0.4,0.4v1h-0.4v-3.6h0.4v2.1l1.1-1.1h0.5l-0.9,0.9l1.1,1.7H254z"/>
		</g>
	</g>
	<rect x="0" class="st16" width="272.7" height="130.2"/>
	<g>
		<g>
			<g>
				<g>
					<g>
						<g>
							<path class="st1" d="M94.7,107.1c0,0.5-0.1,0.9-0.2,1.4"/>
							<path class="st17" d="M94.1,110.4c-2.2,7.7-9.8,13.5-16.3,6.1c-7.1-8,4.8-21.5,18.1-18.4"/>
							<path class="st1" d="M96.8,98.3c0.4,0.1,0.9,0.3,1.3,0.4"/>
						</g>
					</g>
					<polygon points="98.6,99.8 97.1,99.9 97.8,98.6 98.5,97.4 99.3,98.6 100.1,99.8 					"/>
				</g>
				<g>
					<path class="st1" d="M101.3,94c0.7-9.1,7.7-17.7,15.2-9.3s-5.3,22.7-19.5,17.4"/>
					<polygon points="96.6,101 98,100.9 97.3,102.2 96.6,103.4 95.8,102.2 95.1,101.1 					"/>
				</g>
				<g>
					<g>
						<g>
							<path class="st6" d="M111.2,113.8c-0.7,0-1.2-0.5-1.2-1.2h0.7c0,0.4,0.2,0.6,0.5,0.6c0.3,0,0.5-0.2,0.5-0.6
								c0-0.4-0.3-0.5-0.8-0.5v-0.5h0.1c0.4,0,0.6-0.1,0.6-0.5c0-0.3-0.2-0.5-0.5-0.5c-0.4,0-0.5,0.2-0.5,0.6H110v-0.1
								c0-0.8,0.5-1.2,1.2-1.2s1.2,0.4,1.2,1c0,0.3-0.1,0.5-0.5,0.7c0.4,0.2,0.6,0.4,0.6,0.9C112.4,113.3,111.9,113.8,111.2,113.8z"
								/>
						</g>
					</g>
				</g>
				<g>
					<line class="st1" x1="108.9" y1="89.9" x2="106.8" y2="92"/>
				</g>
				<g>
					<g>
						<g>
							<g>
								
									<rect x="91.4" y="103.4" transform="matrix(0.4864 -0.8737 0.8737 0.4864 -44.6338 137.5356)" class="st3" width="6.6" height="6.6"/>
							</g>
						</g>
						<g>
							<path class="st4" d="M94.4,108.6v-2.5h-0.9v-0.5c0.6,0,1-0.2,1.1-0.7h0.5v3.7H94.4z"/>
						</g>
					</g>
					<g>
						<g>
							<path class="st3" d="M104.1,96.2c-1.2,1.6-3.5,1.9-5.1,0.6c-1.6-1.2-1.9-3.5-0.6-5.1c1.2-1.6,3.5-1.9,5.1-0.6
								C105.1,92.3,105.3,94.6,104.1,96.2z"/>
						</g>
						<g>
							<path class="st4" d="M101,95.7v-2.5h-0.9v-0.5c0.6,0,1-0.2,1.1-0.7h0.5v3.7H101z"/>
						</g>
					</g>
				</g>
				<g>
					<g>
						<path class="st13" d="M84.7,114.6c-1.4,1.4-3.7,1.4-5.2,0c-1.4-1.4-1.4-3.7,0-5.2c1.4-1.4,3.7-1.4,5.2,0
							C86.1,110.9,86.1,113.2,84.7,114.6z"/>
						<g>
							<path class="st4" d="M82.5,112.4c-0.5,0.4-0.6,0.5-0.7,0.7h1.5v0.6h-2.5c0-0.7,0.2-1,0.8-1.4c0.8-0.6,0.9-0.7,0.9-1.1
								c0-0.4-0.2-0.6-0.5-0.6c-0.3,0-0.5,0.2-0.5,0.6v0.1h-0.7c0-0.1,0-0.1,0-0.1c0-0.8,0.4-1.2,1.2-1.2c0.8,0,1.3,0.5,1.3,1.2
								C83.3,111.7,83.2,111.9,82.5,112.4z"/>
						</g>
					</g>
					<g>
						<line class="st1" x1="86.8" y1="107.4" x2="84.7" y2="109.5"/>
					</g>
					<g>
						<g>
							<g>
								<path class="st5" d="M82.5,88c-0.5,0.4-0.6,0.5-0.7,0.7h1.5v0.6h-2.5c0-0.7,0.2-1,0.8-1.4c0.8-0.6,0.9-0.7,0.9-1.1
									c0-0.4-0.2-0.6-0.5-0.6c-0.3,0-0.5,0.2-0.5,0.6V87h-0.7c0-0.1,0-0.1,0-0.1c0-0.8,0.4-1.2,1.2-1.2c0.8,0,1.3,0.5,1.3,1.2
									C83.3,87.3,83.2,87.6,82.5,88z"/>
							</g>
						</g>
					</g>
				</g>
				<g>
					
						<rect x="107.9" y="84.3" transform="matrix(0.7071 -0.7071 0.7071 0.7071 -29.3571 104.2947)" class="st12" width="6.6" height="6.6"/>
					<g>
						<path class="st4" d="M111.2,89.4c-0.7,0-1.2-0.5-1.2-1.2h0.7c0,0.4,0.2,0.6,0.5,0.6c0.3,0,0.5-0.2,0.5-0.6
							c0-0.4-0.3-0.5-0.8-0.5v-0.5h0.1c0.4,0,0.6-0.1,0.6-0.5c0-0.3-0.2-0.5-0.5-0.5c-0.4,0-0.5,0.2-0.5,0.6H110v-0.1
							c0-0.8,0.5-1.2,1.2-1.2s1.2,0.4,1.2,1c0,0.3-0.1,0.5-0.5,0.7c0.4,0.2,0.6,0.4,0.6,0.9C112.4,88.9,111.9,89.4,111.2,89.4z"/>
					</g>
				</g>
				<path class="st7" d="M100.4,94.9"/>
			</g>
			<g>
				<g>
					<line class="st1" x1="139.3" y1="89.9" x2="137.2" y2="92"/>
				</g>
				<g>
					<g>
						<path class="st13" d="M124.6,114.6c-1.4,1.4-3.7,1.4-5.2,0c-1.4-1.4-1.4-3.7,0-5.2c1.4-1.4,3.7-1.4,5.2,0
							C126.1,110.9,126.1,113.2,124.6,114.6z"/>
						<g>
							<path class="st4" d="M122.5,112.4c-0.5,0.4-0.6,0.5-0.7,0.7h1.5v0.6h-2.5c0-0.7,0.2-1,0.8-1.4c0.8-0.6,0.9-0.7,0.9-1.1
								c0-0.4-0.2-0.6-0.5-0.6c-0.3,0-0.5,0.2-0.5,0.6v0.1h-0.7c0-0.1,0-0.1,0-0.1c0-0.8,0.4-1.2,1.2-1.2c0.8,0,1.3,0.5,1.3,1.2
								C123.3,111.7,123.1,111.9,122.5,112.4z"/>
						</g>
					</g>
					<g>
						<line class="st1" x1="126.7" y1="107.4" x2="124.6" y2="109.5"/>
					</g>
				</g>
				<g>
					
						<rect x="138.3" y="84.3" transform="matrix(0.7071 -0.7071 0.7071 0.7071 -20.4593 125.7759)" class="st12" width="6.6" height="6.6"/>
					<g>
						<path class="st4" d="M141.5,89.4c-0.7,0-1.2-0.5-1.2-1.2h0.7c0,0.4,0.2,0.6,0.5,0.6c0.3,0,0.5-0.2,0.5-0.6
							c0-0.4-0.3-0.5-0.8-0.5v-0.5h0.1c0.4,0,0.6-0.1,0.6-0.5c0-0.3-0.2-0.5-0.5-0.5c-0.4,0-0.5,0.2-0.5,0.6h-0.7v-0.1
							c0-0.8,0.5-1.2,1.2-1.2c0.7,0,1.2,0.4,1.2,1c0,0.3-0.1,0.5-0.5,0.7c0.4,0.2,0.6,0.4,0.6,0.9C142.8,88.9,142.3,89.4,141.5,89.4
							z"/>
					</g>
				</g>
				<g>
					<g>
						<path d="M131.8,96.7v6h-1.5v-6h-2.2v-1.2h5.8v1.2H131.8z"/>
					</g>
					<g>
						<path d="M137.7,104.5c-0.1-0.2-0.1-0.5-0.1-0.8l0-0.4c0-0.6-0.2-0.8-0.8-0.8h-1.6v2h-0.6v-4.7h2.2c0.9,0,1.4,0.4,1.4,1.3
							c0,0.5-0.2,0.9-0.7,1.1c0.5,0.2,0.6,0.5,0.6,1.2c0,0.6,0.1,0.8,0.3,1v0.1H137.7z M136.7,100.3h-1.5v1.6h1.5
							c0.6,0,0.9-0.3,0.9-0.8C137.6,100.6,137.4,100.3,136.7,100.3z"/>
					</g>
				</g>
			</g>
			<g>
				<polyline class="st1" points="147.1,81.3 145,79.2 113.5,79.2 111.4,77.1 109.2,79.2 77.8,79.2 75.7,81.3 				"/>
			</g>
		</g>
	</g>
</g>
</svg>
