<?xml version="1.0" standalone="no"?>
<!DOCTYPE svg PUBLIC "-//W3C//DTD SVG 1.1//EN"
"http://www.w3.org/Graphics/SVG/1.1/DTD/svg11.dtd">
<!-- Creator: fig2dev Version 3.2 Patchlevel 5d -->
<!-- CreationDate: Wed Jan  8 02:56:17 2014 -->
<!-- Magnification: 1.050 -->
<svg	xmlns="http://www.w3.org/2000/svg"
	xmlns:xlink="http://www.w3.org/1999/xlink"
	viewBox="-23 -23 6140 2739">
<g style="stroke-width:.025in; fill:none">
<!-- Text -->
<text xml:space="preserve" x="4960" y="283" fill="#000000"  font-family="Helvetica" font-style="normal" font-weight="normal" font-size="177" text-anchor="end">HA Schmidt</text>
<!-- Text -->
<text xml:space="preserve" x="425" y="708" fill="#000000"  font-family="Helvetica" font-style="normal" font-weight="bold" font-size="114" text-anchor="middle">1</text>
<!-- Line -->
<polyline points="425,803
425,804
424,811
423,825
419,841
415,855
410,867
403,875
393,881
388,883
381,886
374,888
366,889
358,889
348,889
339,887
329,885
320,880
309,875
300,869
290,861
282,852
274,843
266,831
260,818
254,806
248,792
243,776
239,760
236,742
233,723
232,703
230,682
232,661
234,640
238,619
243,599
249,580
258,562
267,545
279,530
291,516
307,503
322,493
338,483
356,475
375,468
397,461
419,455
444,450
468,447
494,444
519,441
544,439
571,439
595,440
619,441
641,444
663,447
682,450
701,454
717,459
732,465
748,471
762,479
773,489
783,500
790,514
796,529
801,545
803,564
805,585
805,605
805,624
805,598
" style="stroke:#000000;stroke-width:16;
stroke-linejoin:bevel; stroke-linecap:butt;
stroke-dasharray:20 20;"/>
<!-- Arrowhead on XXXpoint 805 624 - 801 691-->
<polygon points="773 617
802 682
836 620
773 617

" style="stroke:#000000;stroke-width:8;stroke-miterlimit:8;
fill:#000000;"/>
<!-- Text -->
<text xml:space="preserve" x="708" y="708" fill="#000000"  font-family="Helvetica" font-style="normal" font-weight="bold" font-size="114" text-anchor="middle">2</text>
<!-- Circle -->
<circle cx="425" cy="1228" r="94"
 style="stroke:#000000;stroke-width:16;"/>
<!-- Text -->
<text xml:space="preserve" x="425" y="1275" fill="#000000"  font-family="Helvetica" font-style="normal" font-weight="bold" font-size="114" text-anchor="middle">1</text>
<!-- Line -->
<polyline points="425,1086
425,1085
424,1078
423,1064
419,1047
415,1034
410,1022
403,1014
393,1007
388,1005
381,1003
374,1001
366,1000
358,1000
348,1000
339,1002
329,1004
320,1008
309,1014
300,1020
290,1027
282,1037
274,1046
266,1058
260,1070
254,1083
248,1097
243,1112
239,1129
236,1147
233,1166
232,1186
230,1207
232,1228
234,1249
238,1270
243,1290
249,1309
258,1327
267,1343
279,1359
291,1373
307,1385
322,1396
338,1405
356,1414
375,1421
397,1427
419,1434
444,1439
468,1442
494,1445
519,1447
544,1449
571,1449
595,1448
619,1447
641,1445
663,1442
682,1439
701,1435
717,1429
732,1425
748,1418
762,1409
773,1400
783,1388
790,1375
796,1360
801,1343
803,1324
805,1303
805,1283
805,1265
805,1290
" style="stroke:#000000;stroke-width:16;
stroke-linejoin:bevel; stroke-linecap:butt;
"/>
<!-- Arrowhead on XXXpoint 805 1265 - 801 1196-->
<polygon points="836 1267
802 1206
773 1270
836 1267

" style="stroke:#000000;stroke-width:8;stroke-miterlimit:8;
fill:#000000;"/>
<!-- Text -->
<text xml:space="preserve" x="708" y="1275" fill="#000000"  font-family="Helvetica" font-style="normal" font-weight="bold" font-size="114" text-anchor="middle">2</text>
<!-- Text -->
<text xml:space="preserve" x="1417" y="1039" fill="#000000"  font-family="Helvetica" font-style="normal" font-weight="bold" font-size="152" text-anchor="middle">R</text>
<!-- Text -->
<text xml:space="preserve" x="1275" y="992" fill="#000000"  font-family="Helvetica" font-style="normal" font-weight="bold" font-size="227" text-anchor="middle">T</text>
<!-- Line -->
<polyline points="2173,1086
2173,959
" style="stroke:#000000;stroke-width:16;
stroke-linejoin:miter; stroke-linecap:butt;
"/>
<!-- Arrowhead on XXXpoint 2173 1086 - 2173 866-->
<polygon points="2204 938
2173 875
2141 938
2204 938

" style="stroke:#000000;stroke-width:8;stroke-miterlimit:8;
fill:#000000;"/>
<!-- Text -->
<text xml:space="preserve" x="2031" y="992" fill="#000000"  font-family="Helvetica" font-style="normal" font-weight="bold" font-size="227" text-anchor="middle">S</text>
<!-- Text -->
<text xml:space="preserve" x="2078" y="661" fill="#000000"  font-family="Helvetica" font-style="normal" font-weight="bold" font-size="114" text-anchor="middle">- 1 -</text>
<!-- Text -->
<text xml:space="preserve" x="2598" y="992" fill="#000000"  font-family="Helvetica" font-style="normal" font-weight="bold" font-size="227" text-anchor="middle">S</text>
<!-- Text -->
<text xml:space="preserve" x="2598" y="1181" fill="#000000"  font-family="Helvetica" font-style="normal" font-weight="normal" font-size="126" text-anchor="middle">diag.</text>
<!-- Text -->
<text xml:space="preserve" x="2598" y="661" fill="#000000"  font-family="Helvetica" font-style="normal" font-weight="bold" font-size="114" text-anchor="middle">2 3</text>
<!-- Line -->
<polyline points="1937,1275
1937,1277
1938,1280
1939,1287
1942,1294
1945,1302
1949,1311
1953,1318
1960,1324
1966,1330
1974,1334
1984,1336
1994,1338
2008,1338
2020,1338
2035,1337
2051,1335
2069,1334
2088,1331
2108,1329
2128,1325
2150,1322
2171,1319
2191,1316
2211,1314
2229,1311
2247,1310
2263,1308
2278,1307
2291,1307
2306,1308
2318,1310
2328,1313
2337,1318
2344,1325
2349,1334
2354,1343
2358,1353
2360,1361
2362,1366
2362,1370
" style="stroke:#000000;stroke-width:16;
stroke-linejoin:bevel; stroke-linecap:round;
"/>
<!-- Line -->
<polyline points="2787,1275
2787,1278
2785,1283
2783,1292
2780,1301
2774,1311
2769,1319
2762,1327
2753,1332
2743,1335
2731,1337
2717,1338
2703,1338
2688,1337
2672,1335
2655,1334
2636,1331
2616,1329
2596,1325
2575,1322
2553,1319
2533,1316
2513,1314
2494,1311
2476,1310
2460,1308
2446,1307
2433,1307
2419,1307
2409,1309
2400,1311
2391,1315
2385,1320
2379,1327
2374,1334
2370,1342
2367,1351
2364,1358
2363,1364
2362,1367
2362,1370
" style="stroke:#000000;stroke-width:16;
stroke-linejoin:bevel; stroke-linecap:round;
"/>
<!-- Text -->
<text xml:space="preserve" x="3307" y="1039" fill="#000000"  font-family="Helvetica" font-style="normal" font-weight="bold" font-size="152" text-anchor="middle">B</text>
<!-- Text -->
<text xml:space="preserve" x="3165" y="992" fill="#000000"  font-family="Helvetica" font-style="normal" font-weight="bold" font-size="227" text-anchor="middle">T</text>
<!-- Line -->
<polyline points="3070,708
3401,708
3401,1039
" style="stroke:#000000;stroke-width:16;
stroke-linejoin:miter; stroke-linecap:butt;
"/>
<!-- Line: box -->
<rect x="3637" y="519" width="188" height="188" rx="0" 
style="stroke:#000000;stroke-width:16;
stroke-linejoin:miter; stroke-linecap:butt;
"/>
<!-- Text -->
<text xml:space="preserve" x="3732" y="661" fill="#000000"  font-family="Helvetica" font-style="normal" font-weight="bold" font-size="114" text-anchor="middle">2</text>
<!-- Circle -->
<circle cx="4094" cy="1070" r="94"
 style="stroke:#000000;stroke-width:16;"/>
<!-- Text -->
<text xml:space="preserve" x="4094" y="1118" fill="#000000"  font-family="Helvetica" font-style="normal" font-weight="bold" font-size="114" text-anchor="middle">3</text>
<!-- Text -->
<text xml:space="preserve" x="3921" y="992" fill="#000000"  font-family="Helvetica" font-style="normal" font-weight="bold" font-size="227" text-anchor="middle">S</text>
<!-- Text -->
<text xml:space="preserve" x="3968" y="1133" fill="#000000"  font-family="Helvetica" font-style="normal" font-weight="normal" font-size="126" text-anchor="end">diag.</text>
<!-- Line -->
<polyline points="4204,1275
4204,1277
4203,1280
4201,1287
4198,1294
4194,1302
4187,1311
4181,1318
4174,1324
4164,1330
4154,1334
4141,1336
4127,1338
4110,1338
4094,1338
4077,1337
4059,1336
4039,1334
4017,1333
3994,1330
3970,1328
3946,1325
3921,1322
3896,1319
3871,1317
3847,1315
3824,1312
3802,1311
3782,1309
3764,1308
3748,1307
3732,1307
3715,1307
3700,1309
3688,1311
3677,1315
3668,1320
3660,1327
3654,1334
3648,1342
3644,1351
3640,1358
3638,1364
3637,1367
3637,1370
" style="stroke:#000000;stroke-width:16;
stroke-linejoin:bevel; stroke-linecap:round;
"/>
<!-- Line -->
<polyline points="3070,1275
3070,1277
3071,1280
3074,1287
3077,1294
3081,1302
3087,1311
3093,1318
3101,1324
3110,1330
3121,1334
3133,1336
3148,1338
3165,1338
3181,1338
3197,1337
3215,1336
3235,1334
3257,1333
3280,1330
3304,1328
3329,1325
3354,1322
3379,1319
3403,1317
3427,1315
3450,1312
3472,1311
3492,1309
3510,1308
3527,1307
3543,1307
3560,1307
3574,1309
3587,1311
3597,1315
3607,1320
3614,1327
3620,1334
3627,1342
3631,1351
3634,1358
3636,1364
3637,1367
3637,1370
" style="stroke:#000000;stroke-width:16;
stroke-linejoin:bevel; stroke-linecap:round;
"/>
<!-- Circle -->
<circle cx="5244" cy="944" r="236"
 style="stroke:#000000;stroke-width:16;"/>
<!-- Text -->
<text xml:space="preserve" x="5244" y="1039" fill="#000000"  font-family="Helvetica" font-style="normal" font-weight="bold" font-size="227" text-anchor="middle">6</text>
<!-- Line -->
<polyline points="5007,944
5007,1181
" style="stroke:#000000;stroke-width:16;
stroke-linejoin:miter; stroke-linecap:butt;
fill:#000000;
"/>
<!-- Line: box -->
<rect x="4724" y="850" width="188" height="188" rx="0" 
style="stroke:#000000;stroke-width:16;
stroke-linejoin:miter; stroke-linecap:butt;
"/>
<!-- Text -->
<text xml:space="preserve" x="4818" y="992" fill="#000000"  font-family="Helvetica" font-style="normal" font-weight="bold" font-size="114" text-anchor="middle">1</text>
<!-- Circle -->
<circle cx="4818" cy="1275" r="94"
 style="stroke:#000000;stroke-width:16;"/>
<!-- Text -->
<text xml:space="preserve" x="4818" y="1322" fill="#000000"  font-family="Helvetica" font-style="normal" font-weight="bold" font-size="114" text-anchor="middle">2</text>
<!-- Line: box -->
<rect x="4724" y="519" width="188" height="188" rx="0" 
style="stroke:#000000;stroke-width:16;
stroke-linejoin:miter; stroke-linecap:butt;
"/>
<!-- Text -->
<text xml:space="preserve" x="4818" y="661" fill="#000000"  font-family="Helvetica" font-style="normal" font-weight="bold" font-size="114" text-anchor="middle">2</text>
<!-- Line -->
<polyline points="4818,1039
4818,1181
" style="stroke:#000000;stroke-width:16;
stroke-linejoin:miter; stroke-linecap:butt;
"/>
<!-- Circle -->
<circle cx="5669" cy="944" r="94"
 style="stroke:#000000;stroke-width:16;"/>
<!-- Text -->
<text xml:space="preserve" x="5669" y="992" fill="#000000"  font-family="Helvetica" font-style="normal" font-weight="bold" font-size="114" text-anchor="middle">1</text>
<!-- Line: box -->
<rect x="5574" y="519" width="188" height="188" rx="0" 
style="stroke:#000000;stroke-width:16;
stroke-linejoin:miter; stroke-linecap:butt;
"/>
<!-- Text -->
<text xml:space="preserve" x="5669" y="661" fill="#000000"  font-family="Helvetica" font-style="normal" font-weight="bold" font-size="114" text-anchor="middle">3</text>
<!-- Circle -->
<circle cx="5669" cy="1275" r="94"
 style="stroke:#000000;stroke-width:16;"/>
<!-- Text -->
<text xml:space="preserve" x="5669" y="1322" fill="#000000"  font-family="Helvetica" font-style="normal" font-weight="bold" font-size="114" text-anchor="middle">3</text>
<!-- Line -->
<polyline points="5669,708
5669,850
" style="stroke:#000000;stroke-width:16;
stroke-linejoin:miter; stroke-linecap:butt;
"/>
<!-- Line -->
<polyline points="755,2220
755,2093
" style="stroke:#000000;stroke-width:16;
stroke-linejoin:miter; stroke-linecap:butt;
"/>
<!-- Arrowhead on XXXpoint 755 2220 - 755 2000-->
<polygon points="787 2072
755 2009
724 2072
787 2072

" style="stroke:#000000;stroke-width:8;stroke-miterlimit:8;
fill:#000000;"/>
<!-- Text -->
<text xml:space="preserve" x="614" y="2125" fill="#000000"  font-family="Helvetica" font-style="normal" font-weight="bold" font-size="227" text-anchor="middle">S</text>
<!-- Line: box -->
<rect x="188" y="1889" width="188" height="188" rx="0" 
style="stroke:#000000;stroke-width:16;
stroke-linejoin:miter; stroke-linecap:butt;
"/>
<!-- Text -->
<text xml:space="preserve" x="283" y="2031" fill="#000000"  font-family="Helvetica" font-style="normal" font-weight="bold" font-size="114" text-anchor="middle">1</text>
<!-- Line -->
<polyline points="377,1984
425,1984
" style="stroke:#000000;stroke-width:16;
stroke-linejoin:miter; stroke-linecap:round;
"/>
<!-- Circle -->
<circle cx="944" cy="1984" r="94"
 style="stroke:#000000;stroke-width:16;"/>
<!-- Text -->
<text xml:space="preserve" x="944" y="2031" fill="#000000"  font-family="Helvetica" font-style="normal" font-weight="bold" font-size="114" text-anchor="middle">1</text>
<!-- Line -->
<polyline points="850,1984
803,1984
" style="stroke:#000000;stroke-width:16;
stroke-linejoin:miter; stroke-linecap:round;
"/>
<!-- Text -->
<text xml:space="preserve" x="1417" y="2125" fill="#000000"  font-family="Helvetica" font-style="normal" font-weight="bold" font-size="227" text-anchor="middle">S</text>
<!-- Text -->
<text xml:space="preserve" x="1417" y="2314" fill="#000000"  font-family="Helvetica" font-style="normal" font-weight="normal" font-size="126" text-anchor="middle">diag.</text>
<!-- Text -->
<text xml:space="preserve" x="1417" y="1795" fill="#000000"  font-family="Helvetica" font-style="normal" font-weight="bold" font-size="114" text-anchor="middle">2 3</text>
<!-- Line -->
<polyline points="1606,2409
1605,2411
1604,2414
1602,2420
1597,2428
1592,2436
1586,2445
1577,2452
1568,2458
1556,2464
1543,2468
1528,2470
1509,2472
1488,2472
1470,2472
1451,2471
1432,2470
1409,2469
1386,2468
1361,2466
1335,2464
1308,2461
1279,2458
1251,2456
1224,2454
1195,2451
1168,2449
1142,2447
1117,2445
1093,2444
1071,2443
1051,2441
1033,2440
1016,2440
994,2440
975,2443
960,2445
946,2449
935,2454
925,2460
917,2468
911,2476
906,2485
901,2492
899,2498
898,2501
897,2503
" style="stroke:#000000;stroke-width:16;
stroke-linejoin:bevel; stroke-linecap:round;
"/>
<!-- Line -->
<polyline points="188,2409
190,2411
191,2414
193,2420
197,2428
202,2436
208,2445
217,2452
226,2458
238,2464
251,2468
266,2470
285,2472
307,2472
324,2472
343,2471
363,2470
385,2469
408,2468
433,2466
459,2464
487,2461
515,2458
543,2456
571,2454
599,2451
626,2449
653,2447
678,2445
701,2444
723,2443
743,2441
762,2440
780,2440
801,2440
819,2443
834,2445
848,2449
859,2454
869,2460
877,2468
883,2476
889,2485
893,2492
895,2498
896,2501
897,2503
" style="stroke:#000000;stroke-width:16;
stroke-linejoin:bevel; stroke-linecap:round;
"/>
<!-- Text -->
<text xml:space="preserve" x="2125" y="2173" fill="#000000"  font-family="Helvetica" font-style="normal" font-weight="bold" font-size="152" text-anchor="middle">B</text>
<!-- Text -->
<text xml:space="preserve" x="1984" y="2125" fill="#000000"  font-family="Helvetica" font-style="normal" font-weight="bold" font-size="227" text-anchor="middle">T</text>
<!-- Line -->
<polyline points="1842,2173
1842,1842
2173,1842
" style="stroke:#000000;stroke-width:16;
stroke-linejoin:miter; stroke-linecap:butt;
"/>
<!-- Circle -->
<circle cx="2503" cy="2220" r="94"
 style="stroke:#000000;stroke-width:16;"/>
<!-- Text -->
<text xml:space="preserve" x="2503" y="2267" fill="#000000"  font-family="Helvetica" font-style="normal" font-weight="bold" font-size="114" text-anchor="middle">2</text>
<!-- Line: box -->
<rect x="2740" y="1653" width="188" height="188" rx="0" 
style="stroke:#000000;stroke-width:16;
stroke-linejoin:miter; stroke-linecap:butt;
"/>
<!-- Text -->
<text xml:space="preserve" x="2834" y="1795" fill="#000000"  font-family="Helvetica" font-style="normal" font-weight="bold" font-size="114" text-anchor="middle">3</text>
<!-- Text -->
<text xml:space="preserve" x="2645" y="2125" fill="#000000"  font-family="Helvetica" font-style="normal" font-weight="bold" font-size="227" text-anchor="middle">S</text>
<!-- Text -->
<text xml:space="preserve" x="2692" y="2267" fill="#000000"  font-family="Helvetica" font-style="normal" font-weight="normal" font-size="126" text-anchor="start">diag.</text>
<!-- Line -->
<polyline points="1842,2409
1842,2410
1843,2413
1844,2417
1847,2423
1850,2430
1855,2437
1860,2445
1866,2451
1872,2457
1881,2461
1890,2466
1901,2469
1913,2471
1928,2472
1945,2472
1961,2472
1980,2471
2000,2470
2020,2468
2045,2467
2069,2464
2095,2461
2122,2459
2150,2456
2176,2453
2203,2451
2229,2449
2254,2446
2278,2445
2299,2443
2319,2441
2338,2440
2354,2440
2372,2440
2388,2443
2402,2445
2413,2449
2424,2454
2431,2460
2438,2468
2445,2476
2449,2485
2452,2492
2454,2498
2456,2501
2456,2503
" style="stroke:#000000;stroke-width:16;
stroke-linejoin:bevel; stroke-linecap:round;
"/>
<!-- Line -->
<polyline points="3070,2409
3070,2411
3068,2414
3066,2420
3063,2428
3059,2436
3053,2445
3045,2452
3038,2458
3027,2464
3016,2468
3002,2470
2986,2472
2969,2472
2952,2472
2933,2471
2913,2470
2892,2468
2868,2467
2844,2464
2817,2461
2790,2459
2763,2456
2737,2453
2709,2451
2683,2449
2659,2446
2635,2445
2614,2443
2594,2441
2575,2440
2559,2440
2542,2440
2528,2441
2515,2444
2504,2447
2495,2451
2487,2455
2480,2461
2474,2468
2469,2475
2465,2482
2461,2490
2458,2495
2457,2499
2456,2502
2456,2503
" style="stroke:#000000;stroke-width:16;
stroke-linejoin:bevel; stroke-linecap:round;
"/>
<!-- Text -->
<text xml:space="preserve" x="5385" y="2125" fill="#000000"  font-family="Helvetica" font-style="normal" font-weight="bold" font-size="227" text-anchor="middle">Knot</text>
<!-- Text -->
<text xml:space="preserve" x="5385" y="2267" fill="#000000"  font-family="Helvetica" font-style="normal" font-weight="normal" font-size="126" text-anchor="middle">circulating</text>
<!-- Circle -->
<circle cx="5385" cy="1700" r="94"
 style="stroke:#000000;stroke-width:16;"/>
<!-- Text -->
<text xml:space="preserve" x="5385" y="1748" fill="#000000"  font-family="Helvetica" font-style="normal" font-weight="bold" font-size="114" text-anchor="middle">1</text>
<!-- Line: box -->
<rect x="4960" y="1606" width="188" height="188" rx="0" 
style="stroke:#000000;stroke-width:16;
stroke-linejoin:miter; stroke-linecap:butt;
"/>
<!-- Text -->
<text xml:space="preserve" x="5055" y="1748" fill="#000000"  font-family="Helvetica" font-style="normal" font-weight="bold" font-size="114" text-anchor="middle">2</text>
<!-- Line: box -->
<rect x="5622" y="1606" width="188" height="188" rx="0" 
style="stroke:#000000;stroke-width:16;
stroke-linejoin:miter; stroke-linecap:butt;
"/>
<!-- Text -->
<text xml:space="preserve" x="5716" y="1748" fill="#000000"  font-family="Helvetica" font-style="normal" font-weight="bold" font-size="114" text-anchor="middle">3</text>
<!-- Line -->
<polyline points="5385,1795
5385,1842
" style="stroke:#000000;stroke-width:16;
stroke-linejoin:miter; stroke-linecap:round;
"/>
<!-- Line -->
<polyline points="5055,1795
5055,1842
" style="stroke:#000000;stroke-width:16;
stroke-linejoin:miter; stroke-linecap:round;
"/>
<!-- Line -->
<polyline points="5716,1795
5716,1842
" style="stroke:#000000;stroke-width:16;
stroke-linejoin:miter; stroke-linecap:round;
"/>
<!-- Circle -->
<circle cx="5055" cy="2503" r="94"
 style="stroke:#000000;stroke-width:16;"/>
<!-- Text -->
<text xml:space="preserve" x="5055" y="2551" fill="#000000"  font-family="Helvetica" font-style="normal" font-weight="bold" font-size="114" text-anchor="middle">2</text>
<!-- Circle -->
<circle cx="5716" cy="2503" r="94"
 style="stroke:#000000;stroke-width:16;"/>
<!-- Text -->
<text xml:space="preserve" x="5716" y="2551" fill="#000000"  font-family="Helvetica" font-style="normal" font-weight="bold" font-size="114" text-anchor="middle">3</text>
<!-- Line: box -->
<rect x="5291" y="2409" width="188" height="188" rx="0" 
style="stroke:#000000;stroke-width:16;
stroke-linejoin:miter; stroke-linecap:butt;
"/>
<!-- Text -->
<text xml:space="preserve" x="5385" y="2551" fill="#000000"  font-family="Helvetica" font-style="normal" font-weight="bold" font-size="114" text-anchor="middle">1</text>
<!-- Line -->
<polyline points="5055,2362
5055,2409
" style="stroke:#000000;stroke-width:16;
stroke-linejoin:miter; stroke-linecap:round;
"/>
<!-- Line -->
<polyline points="5385,2362
5385,2409
" style="stroke:#000000;stroke-width:16;
stroke-linejoin:miter; stroke-linecap:round;
"/>
<!-- Line -->
<polyline points="5716,2362
5716,2409
" style="stroke:#000000;stroke-width:16;
stroke-linejoin:miter; stroke-linecap:round;
"/>
<!-- Circle -->
<circle cx="3952" cy="2094" r="236"
 style="stroke:#000000;stroke-width:16;"/>
<!-- Text -->
<text xml:space="preserve" x="3952" y="2188" fill="#000000"  font-family="Helvetica" font-style="normal" font-weight="bold" font-size="227" text-anchor="middle">6</text>
<!-- Line -->
<polyline points="3716,2094
3716,2330
" style="stroke:#000000;stroke-width:16;
stroke-linejoin:miter; stroke-linecap:butt;
fill:#000000;
"/>
<!-- Circle -->
<circle cx="3968" cy="1700" r="94"
 style="stroke:#000000;stroke-width:16;"/>
<!-- Text -->
<text xml:space="preserve" x="3968" y="1748" fill="#000000"  font-family="Helvetica" font-style="normal" font-weight="bold" font-size="114" text-anchor="middle">1</text>
<!-- Line: box -->
<rect x="3543" y="1606" width="188" height="188" rx="0" 
style="stroke:#000000;stroke-width:16;
stroke-linejoin:miter; stroke-linecap:butt;
"/>
<!-- Text -->
<text xml:space="preserve" x="3637" y="1748" fill="#000000"  font-family="Helvetica" font-style="normal" font-weight="bold" font-size="114" text-anchor="middle">2</text>
<!-- Line: box -->
<rect x="4204" y="1606" width="188" height="188" rx="0" 
style="stroke:#000000;stroke-width:16;
stroke-linejoin:miter; stroke-linecap:butt;
"/>
<!-- Text -->
<text xml:space="preserve" x="4299" y="1748" fill="#000000"  font-family="Helvetica" font-style="normal" font-weight="bold" font-size="114" text-anchor="middle">3</text>
<!-- Circle -->
<circle cx="3637" cy="2503" r="94"
 style="stroke:#000000;stroke-width:16;"/>
<!-- Text -->
<text xml:space="preserve" x="3637" y="2551" fill="#000000"  font-family="Helvetica" font-style="normal" font-weight="bold" font-size="114" text-anchor="middle">2</text>
<!-- Circle -->
<circle cx="4299" cy="2503" r="94"
 style="stroke:#000000;stroke-width:16;"/>
<!-- Text -->
<text xml:space="preserve" x="4299" y="2551" fill="#000000"  font-family="Helvetica" font-style="normal" font-weight="bold" font-size="114" text-anchor="middle">3</text>
<!-- Line: box -->
<rect x="3874" y="2409" width="188" height="188" rx="0" 
style="stroke:#000000;stroke-width:16;
stroke-linejoin:miter; stroke-linecap:butt;
"/>
<!-- Text -->
<text xml:space="preserve" x="3968" y="2551" fill="#000000"  font-family="Helvetica" font-style="normal" font-weight="bold" font-size="114" text-anchor="middle">1</text>
<!-- Line -->
<polyline points="3874,1700
3732,1700
" style="stroke:#000000;stroke-width:16;
stroke-linejoin:miter; stroke-linecap:butt;
"/>
<!-- Line -->
<polyline points="4204,2503
4062,2503
" style="stroke:#000000;stroke-width:16;
stroke-linejoin:miter; stroke-linecap:butt;
"/>
<!-- Line -->
<polyline points="0,377
6094,377
" style="stroke:#000000;stroke-width:16;
stroke-linejoin:miter; stroke-linecap:butt;
"/>
<!-- Line -->
<polyline points="0,1511
6094,1511
" style="stroke:#000000;stroke-width:16;
stroke-linejoin:miter; stroke-linecap:butt;
"/>
<!-- Line: box -->
<rect x="0" y="0" width="6094" height="2692" rx="0" 
style="stroke:#000000;stroke-width:16;
stroke-linejoin:miter; stroke-linecap:butt;
"/>
<!-- Line -->
<polyline points="992,377
992,1511
" style="stroke:#000000;stroke-width:16;
stroke-linejoin:miter; stroke-linecap:butt;
stroke-dasharray:62 62;"/>
<!-- Line -->
<polyline points="1700,377
1700,1511
" style="stroke:#000000;stroke-width:16;
stroke-linejoin:miter; stroke-linecap:butt;
"/>
<!-- Line -->
<polyline points="4440,377
4440,1511
" style="stroke:#000000;stroke-width:16;
stroke-linejoin:miter; stroke-linecap:butt;
stroke-dasharray:62 62;"/>
<!-- Line -->
<polyline points="4677,1511
4677,2692
" style="stroke:#000000;stroke-width:16;
stroke-linejoin:miter; stroke-linecap:butt;
"/>
<!-- Line -->
<polyline points="3307,1511
3307,2692
" style="stroke:#000000;stroke-width:16;
stroke-linejoin:miter; stroke-linecap:butt;
stroke-dasharray:62 62;"/>
<!-- Text -->
<text xml:space="preserve" x="141" y="283" fill="#000000"  font-family="Helvetica" font-style="normal" font-weight="normal" font-size="227" text-anchor="start">Round and Roundabout</text>
<!-- Text -->
<text xml:space="preserve" x="6000" y="283" fill="#000000"  font-family="Helvetica" font-style="normal" font-weight="normal" font-size="227" text-anchor="end">S3x32</text>
<!-- Line: box -->
<rect x="330" y="566" width="188" height="188" rx="0" 
style="stroke:#000000;stroke-width:16;
stroke-linejoin:miter; stroke-linecap:butt;
"/>
</g>
</svg>
