<?xml version='1.0' encoding='utf-8' standalone='no'?>
<!DOCTYPE svg PUBLIC '-//W3C//DTD SVG 1.1//EN' 'http://www.w3.org/Graphics/SVG/1.1/DTD/svg11.dtd'>
<svg version="1.1" viewBox="-0.028 -0.352 470 106" xmlns='http://www.w3.org/2000/svg'>
<defs>
</defs>
<path d="M5.734,6.431h9.305V7.79h-3.875v10.141H9.609V7.79H5.734V6.431z"/>
<path d="M16.492,6.431h1.555v4.75h5.945v-4.75h1.555v11.5h-1.555V12.54h-5.945v5.391h-1.555V6.431z"/>
<path d="M28.195,17.931v-11.5h8.43V7.79H29.75v3.57h6.344v1.359H29.75v3.852h7v1.359H28.195z"/>
<path d="M42.18,6.431h1.672l2.18,9.391l2.648-9.391h1.695l2.648,9.391l2.133-9.391h1.719l-3,11.5H52.25l-2.703-9.523l-2.742,9.523
	H45.18L42.18,6.431z"/>
<path d="M58.484,6.431h1.555v11.5h-1.555V6.431z"/>
<path d="M61.727,6.431h9.305V7.79h-3.875v10.141h-1.555V7.79h-3.875V6.431z"/>
<path d="M80.672,13.728h1.508c-0.266,1.5-0.831,2.625-1.695,3.375c-0.865,0.75-1.977,1.125-3.336,1.125
	c-1.558,0-2.813-0.542-3.766-1.625c-0.953-1.089-1.43-2.563-1.43-4.422c0-1.839,0.484-3.305,1.453-4.398
	c0.974-1.099,2.292-1.648,3.953-1.648c1.255,0,2.292,0.313,3.109,0.938c0.823,0.62,1.352,1.558,1.586,2.813h-1.508
	c-0.401-1.594-1.466-2.391-3.195-2.391c-1.13,0-2.047,0.403-2.75,1.211c-0.698,0.808-1.047,1.979-1.047,3.516
	c0,1.417,0.313,2.547,0.938,3.391c0.625,0.839,1.555,1.258,2.789,1.258c0.896,0,1.627-0.266,2.195-0.797
	C80.049,15.535,80.448,14.754,80.672,13.728z"/>
<path d="M84.039,6.431h1.555v4.75h5.945v-4.75h1.555v11.5h-1.555V12.54h-5.945v5.391h-1.555V6.431z"/>
<path d="M95.813,6.431h1.555v11.5h-1.555V6.431z"/>
<path d="M100.016,6.431h1.844l5.781,9.344V6.431h1.508v11.5h-1.75l-5.875-9.344v9.344h-1.508V6.431z"/>
<path d="M116.531,13.095v-1.336h5.078v6.172h-1.016l-0.367-1.453c-0.365,0.479-0.875,0.891-1.531,1.234s-1.438,0.516-2.344,0.516
	c-1.537,0-2.792-0.558-3.766-1.672c-0.969-1.114-1.453-2.526-1.453-4.234c0-1.771,0.477-3.245,1.43-4.422s2.271-1.766,3.953-1.766
	c1.25,0,2.331,0.325,3.242,0.977c0.911,0.651,1.463,1.575,1.656,2.773h-1.508c-0.245-0.833-0.651-1.44-1.219-1.82
	c-0.563-0.38-1.269-0.57-2.117-0.57c-1.13,0-2.052,0.409-2.766,1.227c-0.714,0.817-1.07,1.995-1.07,3.531
	c0,1.433,0.313,2.56,0.938,3.383c0.63,0.823,1.594,1.234,2.891,1.234c1.047,0,1.906-0.308,2.578-0.922
	c0.677-0.62,1.016-1.57,1.016-2.852H116.531z"/>
<path d="M128.484,6.431h1.555v4.75h5.945v-4.75h1.555v11.5h-1.555V12.54h-5.945v5.391h-1.555V6.431z"/>
<path d="M139.438,12.181c0-1.729,0.495-3.169,1.484-4.32c0.995-1.151,2.372-1.727,4.133-1.727c1.75,0,3.122,0.583,4.117,1.75
	c0.995,1.161,1.492,2.563,1.492,4.203c0,1.808-0.495,3.284-1.484,4.43c-0.99,1.141-2.367,1.711-4.133,1.711
	c-1.651,0-3-0.542-4.047-1.625C139.958,15.514,139.438,14.04,139.438,12.181z M141.039,12.181c0,1.344,0.352,2.461,1.055,3.352
	c0.708,0.891,1.695,1.336,2.961,1.336c1.156,0,2.112-0.417,2.867-1.25c0.76-0.839,1.141-1.984,1.141-3.438
	c0-1.391-0.357-2.519-1.07-3.383c-0.714-0.87-1.695-1.305-2.945-1.305c-1.183,0-2.146,0.419-2.891,1.258
	C141.411,9.59,141.039,10.732,141.039,12.181z"/>
<path d="M152.508,6.431h1.555v7.258c0,1.089,0.258,1.891,0.773,2.406c0.521,0.516,1.255,0.773,2.203,0.773
	c0.942,0,1.672-0.25,2.188-0.75c0.521-0.505,0.781-1.302,0.781-2.391V6.431h1.555v7.469c0,1.255-0.386,2.292-1.156,3.109
	c-0.766,0.813-1.938,1.219-3.516,1.219c-1.245,0-2.287-0.349-3.125-1.047c-0.839-0.703-1.258-1.737-1.258-3.102V6.431z"/>
<path d="M173.703,17.931h-1.914c-0.177-0.755-0.266-1.651-0.266-2.688c0-0.833-0.154-1.411-0.461-1.734
	c-0.308-0.328-0.828-0.492-1.563-0.492h-3.734v4.914h-1.555v-11.5h5.305c1.255,0,2.192,0.258,2.813,0.773
	c0.625,0.511,0.938,1.302,0.938,2.375c0,1.25-0.534,2.161-1.602,2.734c0.469,0.188,0.807,0.438,1.016,0.75
	c0.208,0.313,0.325,0.841,0.352,1.586l0.086,1.875c0.01,0.208,0.039,0.417,0.086,0.625c0.047,0.203,0.213,0.378,0.5,0.523V17.931z
	 M171.664,9.712c0-0.661-0.177-1.146-0.531-1.453c-0.349-0.313-0.854-0.469-1.516-0.469h-3.852v3.93h3.57
	C170.888,11.72,171.664,11.051,171.664,9.712z"/>
<path d="M411.404,11.962c-1.011-0.442-1.516-1.177-1.516-2.203c0-0.917,0.308-1.664,0.922-2.242c0.62-0.583,1.45-0.875,2.492-0.875
	c0.979,0,1.8,0.269,2.461,0.805c0.667,0.531,1,1.258,1,2.18c0,1.094-0.477,1.867-1.43,2.32c1.203,0.599,1.805,1.521,1.805,2.766
	c0,1.016-0.339,1.854-1.016,2.516c-0.672,0.661-1.583,0.992-2.734,0.992c-1.125,0-2.052-0.3-2.781-0.898s-1.094-1.44-1.094-2.523
	C409.514,13.418,410.144,12.473,411.404,11.962z M411.014,14.759c0,0.636,0.2,1.161,0.602,1.578
	c0.401,0.411,0.995,0.617,1.781,0.617c0.698,0,1.245-0.195,1.641-0.586c0.401-0.391,0.602-0.894,0.602-1.508
	c0-0.667-0.2-1.198-0.602-1.594c-0.401-0.401-0.972-0.602-1.711-0.602c-0.672,0-1.227,0.19-1.664,0.57
	C411.229,13.61,411.014,14.118,411.014,14.759z M411.389,9.657c0,0.442,0.169,0.852,0.508,1.227c0.339,0.37,0.82,0.555,1.445,0.555
	c0.542,0,0.997-0.164,1.367-0.492s0.555-0.771,0.555-1.328c0-0.547-0.192-0.969-0.578-1.266c-0.38-0.297-0.859-0.445-1.438-0.445
	c-0.552,0-1,0.153-1.344,0.461C411.561,8.67,411.389,9.1,411.389,9.657z"/>
<path d="M417.975,17.931l2.906-4.352l-2.75-4.023h1.805l1.906,2.914l1.898-2.914h1.734l-2.797,4.023l2.906,4.352h-1.781
	l-2.063-3.141l-1.984,3.141H417.975z"/>
<path d="M427.795,14.47c0.016,0.808,0.211,1.425,0.586,1.852c0.38,0.422,0.977,0.633,1.789,0.633c0.683,0,1.266-0.183,1.75-0.547
	c0.489-0.37,0.734-0.911,0.734-1.625c0-0.62-0.208-1.109-0.625-1.469s-1.042-0.539-1.875-0.539c-0.177,0-0.448,0.008-0.813,0.023
	v-1.227c0.359,0.026,0.583,0.039,0.672,0.039c1.469,0,2.203-0.612,2.203-1.836c0-0.567-0.185-1.021-0.555-1.359
	c-0.364-0.339-0.867-0.508-1.508-0.508c-0.698,0-1.222,0.195-1.57,0.586s-0.547,0.981-0.594,1.773h-1.383
	c0.005-1.141,0.31-2.028,0.914-2.664c0.609-0.641,1.519-0.961,2.727-0.961c1.047,0,1.886,0.278,2.516,0.836
	c0.636,0.552,0.953,1.284,0.953,2.195c0,1.203-0.492,1.987-1.477,2.352c0.714,0.255,1.211,0.599,1.492,1.031
	c0.281,0.427,0.422,0.956,0.422,1.586c0,1.063-0.359,1.925-1.078,2.586s-1.683,0.992-2.891,0.992c-1.104,0-1.997-0.276-2.68-0.828
	c-0.677-0.558-1.065-1.531-1.164-2.922H427.795z"/>
<path d="M435.881,15.188c0.433-0.661,1.023-1.208,1.773-1.641l2.289-1.359c0.521-0.308,0.888-0.625,1.102-0.953
	c0.214-0.333,0.32-0.737,0.32-1.211c0-0.651-0.206-1.167-0.617-1.547c-0.406-0.38-0.958-0.57-1.656-0.57
	c-0.781,0-1.349,0.231-1.703,0.695c-0.349,0.458-0.55,1.138-0.602,2.039h-1.383c0-1.198,0.315-2.164,0.945-2.898
	s1.597-1.102,2.898-1.102c1.052,0,1.917,0.305,2.594,0.914c0.683,0.604,1.023,1.43,1.023,2.477c0,0.703-0.161,1.305-0.484,1.805
	c-0.323,0.495-0.82,0.93-1.492,1.305l-1.906,1.109c-0.672,0.396-1.183,0.766-1.531,1.109c-0.344,0.339-0.594,0.755-0.75,1.25h6.164
	v1.32h-7.75C435.193,16.759,435.448,15.845,435.881,15.188z"/>
<path d="M458.936,17.931h-1.914c-0.177-0.755-0.266-1.651-0.266-2.688c0-0.833-0.153-1.411-0.461-1.734
	c-0.308-0.328-0.828-0.492-1.563-0.492h-3.734v4.914h-1.555v-11.5h5.305c1.255,0,2.192,0.258,2.813,0.773
	c0.625,0.511,0.938,1.302,0.938,2.375c0,1.25-0.534,2.161-1.602,2.734c0.469,0.188,0.808,0.438,1.016,0.75s0.325,0.841,0.352,1.586
	l0.086,1.875c0.011,0.208,0.039,0.417,0.086,0.625c0.047,0.203,0.214,0.378,0.5,0.523V17.931z M456.896,9.712
	c0-0.661-0.177-1.146-0.531-1.453c-0.349-0.313-0.854-0.469-1.516-0.469h-3.852v3.93h3.57
	C456.12,11.72,456.896,11.051,456.896,9.712z"/>
<path fill="none" stroke="#000000" stroke-width="1.1339" stroke-miterlimit="10" d="M0.567,0.567h468.04v91.581H0.567V0.567z"/>
<line fill="none" stroke="#000000" stroke-width="1.1339" stroke-miterlimit="10" x1="0.067" y1="26.146" x2="468.106" y2="26.146"/>
<path d="M392.18,101.425c0.009,0.455,0.119,0.802,0.33,1.042c0.213,0.237,0.549,0.356,1.006,0.356c0.384,0,0.712-0.103,0.984-0.309
	c0.275-0.207,0.413-0.512,0.413-0.914c0-0.348-0.117-0.623-0.352-0.826c-0.234-0.201-0.586-0.303-1.055-0.303
	c-0.1,0-0.252,0.004-0.457,0.014v-0.69c0.202,0.015,0.328,0.022,0.378,0.022c0.826,0,1.239-0.345,1.239-1.033
	c0-0.319-0.104-0.574-0.312-0.765c-0.206-0.19-0.488-0.286-0.849-0.286c-0.393,0-0.688,0.11-0.884,0.33s-0.307,0.553-0.334,0.998
	h-0.777c0.003-0.643,0.174-1.142,0.514-1.499c0.344-0.36,0.854-0.54,1.534-0.54c0.589,0,1.061,0.156,1.415,0.47
	c0.357,0.311,0.536,0.723,0.536,1.235c0,0.676-0.276,1.117-0.831,1.322c0.401,0.144,0.682,0.337,0.84,0.58
	c0.158,0.24,0.237,0.538,0.237,0.893c0,0.598-0.202,1.082-0.606,1.454s-0.946,0.558-1.626,0.558c-0.621,0-1.124-0.155-1.507-0.465
	c-0.382-0.313-0.6-0.861-0.655-1.645H392.18z"/>
<path d="M401.36,101.008h0.849c-0.15,0.844-0.468,1.477-0.954,1.898s-1.112,0.633-1.876,0.633c-0.877,0-1.582-0.305-2.119-0.914
	c-0.535-0.612-0.804-1.441-0.804-2.487c0-1.034,0.272-1.859,0.817-2.475c0.548-0.617,1.289-0.927,2.224-0.927
	c0.706,0,1.289,0.176,1.749,0.527c0.463,0.349,0.76,0.876,0.893,1.582h-0.849c-0.226-0.896-0.825-1.345-1.798-1.345
	c-0.636,0-1.15,0.228-1.547,0.682c-0.393,0.454-0.588,1.113-0.588,1.977c0,0.798,0.176,1.434,0.527,1.908
	c0.352,0.472,0.874,0.707,1.568,0.707c0.504,0,0.915-0.149,1.234-0.448C401.01,102.025,401.234,101.585,401.36,101.008z"/>
<path d="M402.411,103.54l2.215-6.803h0.598l-2.215,6.803H402.411z"/>
<path d="M405.285,101.066l2.931-3.978h0.655v4.048h0.927v0.689h-0.927v1.547h-0.791v-1.547h-2.795V101.066z M406.027,101.136h2.053
	v-2.861L406.027,101.136z"/>
<path d="M415.366,101.008h0.849c-0.15,0.844-0.468,1.477-0.954,1.898s-1.112,0.633-1.876,0.633c-0.877,0-1.582-0.305-2.119-0.914
	c-0.535-0.612-0.804-1.441-0.804-2.487c0-1.034,0.272-1.859,0.817-2.475c0.548-0.617,1.289-0.927,2.224-0.927
	c0.706,0,1.289,0.176,1.749,0.527c0.463,0.349,0.76,0.876,0.893,1.582h-0.849c-0.226-0.896-0.825-1.345-1.798-1.345
	c-0.636,0-1.15,0.228-1.547,0.682c-0.393,0.454-0.588,1.113-0.588,1.977c0,0.798,0.176,1.434,0.527,1.908
	c0.352,0.472,0.874,0.707,1.568,0.707c0.504,0,0.915-0.149,1.234-0.448C415.016,102.025,415.24,101.585,415.366,101.008z"/>
<path d="M419.673,103.373v-6.469h0.791v6.469H419.673z"/>
<path d="M421.374,101.035c0-0.747,0.2-1.354,0.603-1.819c0.4-0.469,0.934-0.703,1.6-0.703c0.641,0,1.168,0.228,1.582,0.681
	c0.412,0.455,0.619,1.063,0.619,1.824c0,0.718-0.199,1.315-0.598,1.793c-0.398,0.475-0.928,0.712-1.586,0.712
	c-0.648,0-1.18-0.229-1.596-0.686C421.582,102.376,421.374,101.776,421.374,101.035z M422.191,101.017
	c0,0.513,0.119,0.942,0.355,1.287c0.24,0.347,0.583,0.52,1.029,0.52c0.387,0,0.713-0.151,0.979-0.453
	c0.27-0.305,0.404-0.756,0.404-1.354c0-0.513-0.117-0.941-0.352-1.287s-0.579-0.52-1.032-0.52c-0.411,0-0.745,0.156-1.002,0.467
	C422.318,99.988,422.191,100.434,422.191,101.017z"/>
<path d="M426.652,103.373v-4.711h0.742v0.694c0.396-0.563,0.893-0.844,1.49-0.844c0.504,0,0.894,0.149,1.169,0.448
	c0.275,0.296,0.413,0.697,0.413,1.204v3.208h-0.791v-2.927c0-0.475-0.084-0.798-0.25-0.972c-0.165-0.176-0.409-0.264-0.734-0.264
	c-0.369,0-0.67,0.139-0.9,0.414c-0.232,0.275-0.348,0.663-0.348,1.164v2.584H426.652z"/>
<path d="M431.579,103.909h0.791c0.103,0.478,0.458,0.716,1.067,0.716c0.442,0,0.775-0.112,0.998-0.338s0.334-0.606,0.334-1.143
	v-0.313c-0.284,0.461-0.714,0.69-1.287,0.69c-0.619,0-1.114-0.237-1.486-0.712s-0.558-1.111-0.558-1.912
	c0-0.688,0.171-1.258,0.515-1.709c0.342-0.451,0.818-0.677,1.428-0.677c0.319,0,0.59,0.067,0.813,0.202
	c0.223,0.132,0.432,0.338,0.625,0.619v-0.672h0.742v4.289c0,0.882-0.185,1.497-0.554,1.846c-0.369,0.346-0.905,0.519-1.608,0.519
	c-0.498,0-0.908-0.107-1.23-0.321C431.849,104.777,431.652,104.416,431.579,103.909z M432.256,100.933
	c0,0.593,0.111,1.055,0.334,1.389c0.226,0.334,0.536,0.502,0.932,0.502c0.407,0,0.722-0.151,0.945-0.453
	c0.225-0.302,0.338-0.725,0.338-1.27c0-1.26-0.436-1.891-1.305-1.891C432.67,99.21,432.256,99.786,432.256,100.933z"/>
<path d="M436.207,98.662h0.865l0.879,3.735l0.928-3.735h0.879l0.953,3.735l0.928-3.735h0.791l-1.336,4.711h-0.817l-0.989-3.66
	l-0.927,3.66h-0.817L436.207,98.662z"/>
<path d="M443.19,96.913h0.791v0.905h-0.791V96.913z M443.19,98.662h0.791v4.711h-0.791V98.662z"/>
<path d="M445.635,101.905c0.022,0.612,0.429,0.919,1.217,0.919c0.343,0,0.612-0.066,0.809-0.198
	c0.199-0.135,0.299-0.321,0.299-0.558c0-0.17-0.066-0.305-0.197-0.404c-0.133-0.091-0.379-0.182-0.738-0.273l-0.924-0.229
	c-0.729-0.176-1.094-0.563-1.094-1.164c0-0.431,0.155-0.785,0.466-1.063c0.313-0.281,0.761-0.422,1.341-0.422
	c0.506,0,0.919,0.122,1.238,0.364c0.319,0.244,0.498,0.614,0.537,1.112h-0.778c-0.038-0.519-0.395-0.778-1.067-0.778
	c-0.64,0-0.959,0.225-0.959,0.673c0,0.196,0.075,0.334,0.225,0.413c0.149,0.076,0.358,0.146,0.629,0.211l0.781,0.197
	c0.478,0.123,0.816,0.277,1.016,0.462c0.202,0.193,0.303,0.457,0.303,0.791c0,0.463-0.165,0.839-0.496,1.13
	c-0.328,0.289-0.805,0.435-1.428,0.435c-0.578,0-1.041-0.122-1.389-0.364c-0.35-0.243-0.538-0.661-0.567-1.253H445.635z"/>
<path d="M450.262,101.263c0,0.492,0.111,0.876,0.334,1.151c0.226,0.272,0.563,0.409,1.011,0.409
	c0.319-0.003,0.598-0.094,0.835-0.273c0.24-0.181,0.383-0.396,0.426-0.646h0.778c-0.103,0.495-0.325,0.89-0.668,1.183
	c-0.343,0.289-0.793,0.435-1.349,0.435c-0.663,0-1.193-0.208-1.592-0.624c-0.395-0.416-0.593-1.017-0.593-1.802
	c0-0.759,0.193-1.378,0.58-1.858c0.39-0.484,0.935-0.726,1.635-0.726c0.659,0,1.16,0.228,1.503,0.681
	c0.346,0.452,0.527,1.142,0.545,2.07H450.262z M450.262,100.639h2.628c-0.056-0.524-0.19-0.894-0.404-1.107s-0.504-0.321-0.87-0.321
	c-0.387,0-0.703,0.133-0.949,0.396C450.42,99.868,450.285,100.211,450.262,100.639z"/>
<path d="M457.641,101.905c0.022,0.612,0.429,0.919,1.217,0.919c0.343,0,0.612-0.066,0.809-0.198
	c0.199-0.135,0.299-0.321,0.299-0.558c0-0.17-0.066-0.305-0.197-0.404c-0.133-0.091-0.379-0.182-0.738-0.273l-0.924-0.229
	c-0.729-0.176-1.094-0.563-1.094-1.164c0-0.431,0.155-0.785,0.466-1.063c0.313-0.281,0.761-0.422,1.341-0.422
	c0.506,0,0.919,0.122,1.238,0.364c0.319,0.244,0.498,0.614,0.537,1.112h-0.778c-0.038-0.519-0.395-0.778-1.067-0.778
	c-0.64,0-0.959,0.225-0.959,0.673c0,0.196,0.075,0.334,0.225,0.413c0.149,0.076,0.358,0.146,0.629,0.211l0.781,0.197
	c0.478,0.123,0.816,0.277,1.016,0.462c0.202,0.193,0.303,0.457,0.303,0.791c0,0.463-0.165,0.839-0.496,1.13
	c-0.328,0.289-0.805,0.435-1.428,0.435c-0.578,0-1.041-0.122-1.389-0.364c-0.35-0.243-0.538-0.661-0.567-1.253H457.641z"/>
<path d="M462.268,101.263c0,0.492,0.111,0.876,0.334,1.151c0.226,0.272,0.563,0.409,1.011,0.409
	c0.319-0.003,0.598-0.094,0.835-0.273c0.24-0.181,0.383-0.396,0.426-0.646h0.778c-0.103,0.495-0.325,0.89-0.668,1.183
	c-0.343,0.289-0.793,0.435-1.349,0.435c-0.663,0-1.193-0.208-1.592-0.624c-0.395-0.416-0.593-1.017-0.593-1.802
	c0-0.759,0.193-1.378,0.58-1.858c0.39-0.484,0.935-0.726,1.635-0.726c0.659,0,1.16,0.228,1.503,0.681
	c0.346,0.452,0.527,1.142,0.545,2.07H462.268z M462.268,100.639h2.628c-0.056-0.524-0.19-0.894-0.404-1.107s-0.504-0.321-0.87-0.321
	c-0.387,0-0.703,0.133-0.949,0.396C462.426,99.868,462.291,100.211,462.268,100.639z"/>
<path d="M466.223,99.321v-0.659h0.643v-1.336h0.791v1.336h0.773v0.659h-0.773v3.059c0,0.252,0.159,0.378,0.479,0.378h0.277v0.629
	c-0.297,0.04-0.518,0.061-0.664,0.061c-0.589,0-0.883-0.338-0.883-1.015v-3.111H466.223z"/>
<path d="M2.213,103.373v-6.469h2.609c0.841,0,1.5,0.284,1.979,0.853c0.477,0.568,0.716,1.347,0.716,2.333
	c0,0.959-0.24,1.745-0.721,2.36s-1.151,0.923-2.013,0.923H2.213z M3.087,102.608H4.77c0.542,0,0.984-0.202,1.328-0.606
	c0.345-0.404,0.518-1.044,0.518-1.92c0-0.766-0.165-1.358-0.496-1.78c-0.328-0.422-0.802-0.633-1.42-0.633H3.087V102.608z"/>
<path d="M8.545,100.059c0.022-1.031,0.654-1.547,1.894-1.547c0.521,0,0.947,0.114,1.278,0.343c0.334,0.229,0.502,0.556,0.502,0.98
	v2.742c0,0.111,0.02,0.186,0.061,0.224s0.104,0.058,0.189,0.058c0.053,0,0.142-0.014,0.268-0.04v0.575
	c-0.193,0.059-0.346,0.088-0.457,0.088c-0.275,0-0.475-0.061-0.598-0.184c-0.12-0.123-0.188-0.305-0.206-0.545
	c-0.448,0.513-1.005,0.769-1.67,0.769c-0.396,0-0.744-0.116-1.046-0.347c-0.302-0.234-0.453-0.583-0.453-1.047
	c0-0.846,0.474-1.331,1.42-1.454l1.234-0.163c0.188-0.022,0.313-0.078,0.379-0.166c0.066-0.088,0.101-0.222,0.101-0.4
	c0-0.516-0.359-0.773-1.077-0.773c-0.369,0-0.631,0.074-0.786,0.225c-0.155,0.148-0.257,0.37-0.304,0.663H8.545z M11.428,100.968
	c-0.121,0.095-0.367,0.169-0.738,0.225c-0.373,0.053-0.562,0.079-0.567,0.079c-0.665,0.091-0.997,0.354-0.997,0.791
	c0,0.533,0.283,0.8,0.852,0.8c0.375,0,0.711-0.105,1.007-0.316s0.444-0.478,0.444-0.8V100.968z"/>
<path d="M13.572,103.373v-4.711h0.742v0.694c0.396-0.563,0.893-0.844,1.49-0.844c0.504,0,0.894,0.149,1.169,0.448
	c0.275,0.296,0.413,0.697,0.413,1.204v3.208h-0.791v-2.927c0-0.475-0.084-0.798-0.25-0.972c-0.165-0.176-0.409-0.264-0.734-0.264
	c-0.369,0-0.67,0.139-0.9,0.414c-0.232,0.275-0.348,0.663-0.348,1.164v2.584H13.572z"/>
<path d="M21.166,103.373v-6.469h2.848c0.551,0,0.991,0.151,1.322,0.453c0.334,0.299,0.502,0.691,0.502,1.178
	c0,0.583-0.288,1.025-0.861,1.326c0.433,0.168,0.734,0.38,0.904,0.638s0.256,0.571,0.256,0.94c0,0.551-0.191,1.011-0.572,1.38
	s-0.921,0.554-1.621,0.554H21.166z M22.041,99.611h1.572c0.899,0,1.35-0.337,1.35-1.011c0-0.621-0.445-0.932-1.336-0.932h-1.586
	V99.611z M22.041,102.608h1.863c0.409,0,0.738-0.097,0.984-0.29c0.248-0.193,0.373-0.492,0.373-0.896
	c0-0.721-0.504-1.081-1.512-1.081h-1.709V102.608z"/>
<path d="M27.107,103.373v-6.469h0.791v6.469H27.107z"/>
<path d="M29.106,96.913h0.791v0.905h-0.791V96.913z M29.106,98.662h0.791v4.711h-0.791V98.662z"/>
<path d="M31.08,98.662h0.742v0.694c0.401-0.563,0.881-0.844,1.438-0.844c0.548,0,0.958,0.258,1.23,0.773
	c0.39-0.516,0.853-0.773,1.389-0.773c0.434,0,0.788,0.138,1.063,0.413s0.413,0.67,0.413,1.182v3.266h-0.791V100.3
	c0-0.726-0.277-1.09-0.83-1.09c-0.294,0-0.555,0.115-0.783,0.344c-0.226,0.226-0.338,0.534-0.338,0.927v2.892h-0.791v-3.283
	c0-0.585-0.245-0.879-0.734-0.879c-0.354,0-0.646,0.136-0.874,0.404c-0.229,0.271-0.343,0.661-0.343,1.174v2.584H31.08V98.662z"/>
<path d="M38.788,104.291c0.311-0.047,0.47-0.353,0.479-0.918h-0.479v-0.984h0.94v0.896c0,0.82-0.313,1.295-0.94,1.424V104.291z"/>
<path d="M49.129,103.373h-1.077c-0.1-0.425-0.149-0.929-0.149-1.512c0-0.469-0.087-0.794-0.26-0.976
	c-0.173-0.185-0.465-0.276-0.879-0.276h-2.1v2.764h-0.875v-6.469h2.984c0.705,0,1.232,0.145,1.582,0.436
	c0.352,0.287,0.527,0.732,0.527,1.336c0,0.703-0.301,1.216-0.901,1.537c0.264,0.105,0.454,0.246,0.571,0.422
	s0.183,0.474,0.197,0.893l0.049,1.055c0.006,0.117,0.021,0.234,0.049,0.352c0.025,0.114,0.119,0.213,0.281,0.295V103.373z
	 M47.981,98.75c0-0.372-0.1-0.645-0.299-0.817c-0.196-0.176-0.48-0.264-0.853-0.264h-2.166v2.21h2.008
	C47.545,99.878,47.981,99.502,47.981,98.75z"/>
<path d="M50.676,101.263c0,0.492,0.111,0.876,0.334,1.151c0.226,0.272,0.563,0.409,1.011,0.409c0.319-0.003,0.598-0.094,0.835-0.273
	c0.24-0.181,0.383-0.396,0.426-0.646h0.778c-0.103,0.495-0.325,0.89-0.668,1.183c-0.343,0.289-0.793,0.435-1.349,0.435
	c-0.663,0-1.193-0.208-1.592-0.624c-0.395-0.416-0.593-1.017-0.593-1.802c0-0.759,0.193-1.378,0.58-1.858
	c0.39-0.484,0.935-0.726,1.635-0.726c0.659,0,1.16,0.228,1.503,0.681c0.346,0.452,0.527,1.142,0.545,2.07H50.676z M50.676,100.639
	h2.628c-0.056-0.524-0.19-0.894-0.404-1.107s-0.504-0.321-0.87-0.321c-0.387,0-0.703,0.133-0.949,0.396
	C50.834,99.868,50.699,100.211,50.676,100.639z"/>
<path d="M55.682,101.263c0,0.492,0.111,0.876,0.334,1.151c0.226,0.272,0.563,0.409,1.011,0.409c0.319-0.003,0.598-0.094,0.835-0.273
	c0.24-0.181,0.383-0.396,0.426-0.646h0.778c-0.103,0.495-0.325,0.89-0.668,1.183c-0.343,0.289-0.793,0.435-1.349,0.435
	c-0.663,0-1.193-0.208-1.592-0.624c-0.395-0.416-0.593-1.017-0.593-1.802c0-0.759,0.193-1.378,0.58-1.858
	c0.39-0.484,0.935-0.726,1.635-0.726c0.659,0,1.16,0.228,1.503,0.681c0.346,0.452,0.527,1.142,0.545,2.07H55.682z M55.682,100.639
	h2.628c-0.056-0.524-0.19-0.894-0.404-1.107s-0.504-0.321-0.87-0.321c-0.387,0-0.703,0.133-0.949,0.396
	C55.84,99.868,55.705,100.211,55.682,100.639z"/>
<path d="M60.116,103.373v-6.469h0.791v6.469H60.116z"/>
<path d="M62.068,100.059c0.022-1.031,0.654-1.547,1.894-1.547c0.521,0,0.947,0.114,1.278,0.343c0.334,0.229,0.502,0.556,0.502,0.98
	v2.742c0,0.111,0.02,0.186,0.061,0.224s0.104,0.058,0.189,0.058c0.053,0,0.142-0.014,0.268-0.04v0.575
	c-0.193,0.059-0.346,0.088-0.457,0.088c-0.275,0-0.475-0.061-0.598-0.184c-0.12-0.123-0.188-0.305-0.206-0.545
	c-0.448,0.513-1.005,0.769-1.67,0.769c-0.396,0-0.744-0.116-1.046-0.347c-0.302-0.234-0.453-0.583-0.453-1.047
	c0-0.846,0.474-1.331,1.42-1.454l1.234-0.163c0.188-0.022,0.313-0.078,0.379-0.166c0.066-0.088,0.101-0.222,0.101-0.4
	c0-0.516-0.359-0.773-1.077-0.773c-0.369,0-0.631,0.074-0.786,0.225c-0.155,0.148-0.257,0.37-0.304,0.663H62.068z M64.951,100.968
	c-0.121,0.095-0.367,0.169-0.738,0.225c-0.373,0.053-0.562,0.079-0.567,0.079c-0.665,0.091-0.997,0.354-0.997,0.791
	c0,0.533,0.283,0.8,0.852,0.8c0.375,0,0.711-0.105,1.007-0.316s0.444-0.478,0.444-0.8V100.968z"/>
<path d="M70.198,99.356v-2.452h0.791v6.469h-0.743v-0.624c-0.289,0.516-0.744,0.773-1.361,0.773c-0.625,0-1.124-0.238-1.499-0.716
	s-0.563-1.113-0.563-1.908c0-0.721,0.177-1.297,0.532-1.73c0.354-0.437,0.822-0.655,1.406-0.655
	C69.396,98.512,69.876,98.793,70.198,99.356z M67.641,100.933c0,0.584,0.108,1.045,0.325,1.385c0.22,0.337,0.532,0.506,0.937,0.506
	c0.406,0,0.722-0.151,0.944-0.453c0.226-0.302,0.339-0.725,0.339-1.27c0-0.633-0.109-1.106-0.326-1.42
	c-0.214-0.313-0.539-0.471-0.975-0.471C68.055,99.21,67.641,99.786,67.641,100.933z"/>
<path d="M72.699,101.263c0,0.492,0.111,0.876,0.334,1.151c0.226,0.272,0.563,0.409,1.011,0.409c0.319-0.003,0.598-0.094,0.835-0.273
	c0.24-0.181,0.383-0.396,0.426-0.646h0.778c-0.103,0.495-0.325,0.89-0.668,1.183c-0.343,0.289-0.793,0.435-1.349,0.435
	c-0.663,0-1.193-0.208-1.592-0.624c-0.395-0.416-0.593-1.017-0.593-1.802c0-0.759,0.193-1.378,0.58-1.858
	c0.39-0.484,0.935-0.726,1.635-0.726c0.659,0,1.16,0.228,1.503,0.681c0.346,0.452,0.527,1.142,0.545,2.07H72.699z M72.699,100.639
	h2.628c-0.056-0.524-0.19-0.894-0.404-1.107s-0.504-0.321-0.87-0.321c-0.387,0-0.703,0.133-0.949,0.396
	C72.857,99.868,72.723,100.211,72.699,100.639z"/>
<path d="M77.134,103.373v-6.469h0.791v6.469H77.134z"/>
<path d="M79.789,99.356c0.345-0.563,0.831-0.844,1.459-0.844c0.55,0,1.015,0.208,1.393,0.624c0.381,0.413,0.571,1.001,0.571,1.762
	c0,0.754-0.182,1.379-0.545,1.877c-0.36,0.498-0.869,0.747-1.524,0.747c-0.572,0-1.007-0.211-1.306-0.633v2.312h-0.791v-6.539h0.743
	V99.356z M79.802,101.158c0,0.51,0.118,0.916,0.356,1.217c0.236,0.299,0.553,0.449,0.949,0.449c0.387,0,0.696-0.158,0.932-0.475
	c0.236-0.316,0.355-0.799,0.355-1.446c0-1.128-0.425-1.692-1.274-1.692C80.241,99.21,79.802,99.86,79.802,101.158z"/>
<path d="M84.113,96.904h0.791v2.382c0.354-0.516,0.835-0.773,1.441-0.773c0.504,0,0.894,0.149,1.169,0.448
	c0.275,0.296,0.413,0.697,0.413,1.204v3.208h-0.791v-3.107c0-0.389-0.076-0.661-0.229-0.816c-0.152-0.158-0.384-0.238-0.694-0.238
	c-0.413,0-0.735,0.134-0.967,0.4c-0.229,0.264-0.343,0.656-0.343,1.178v2.584h-0.791V96.904z"/>
<path d="M89.146,96.913h0.791v0.905h-0.791V96.913z M89.146,98.662h0.791v4.711h-0.791V98.662z"/>
<path d="M91.098,100.059c0.022-1.031,0.654-1.547,1.894-1.547c0.521,0,0.947,0.114,1.278,0.343c0.334,0.229,0.502,0.556,0.502,0.98
	v2.742c0,0.111,0.02,0.186,0.061,0.224s0.104,0.058,0.189,0.058c0.053,0,0.142-0.014,0.268-0.04v0.575
	c-0.193,0.059-0.346,0.088-0.457,0.088c-0.275,0-0.475-0.061-0.598-0.184c-0.12-0.123-0.188-0.305-0.206-0.545
	c-0.448,0.513-1.005,0.769-1.67,0.769c-0.396,0-0.744-0.116-1.046-0.347c-0.302-0.234-0.453-0.583-0.453-1.047
	c0-0.846,0.474-1.331,1.42-1.454l1.234-0.163c0.188-0.022,0.313-0.078,0.379-0.166c0.066-0.088,0.101-0.222,0.101-0.4
	c0-0.516-0.359-0.773-1.077-0.773c-0.369,0-0.631,0.074-0.786,0.225c-0.155,0.148-0.257,0.37-0.304,0.663H91.098z M93.98,100.968
	c-0.121,0.095-0.367,0.169-0.738,0.225c-0.373,0.053-0.562,0.079-0.567,0.079c-0.665,0.091-0.997,0.354-0.997,0.791
	c0,0.533,0.283,0.8,0.852,0.8c0.375,0,0.711-0.105,1.007-0.316s0.444-0.478,0.444-0.8V100.968z"/>
<path d="M98.713,101.83c0.243-0.371,0.576-0.679,0.998-0.922l1.287-0.766c0.293-0.172,0.499-0.352,0.619-0.535
	c0.12-0.188,0.181-0.415,0.181-0.682c0-0.366-0.116-0.656-0.347-0.87c-0.229-0.214-0.54-0.321-0.932-0.321
	c-0.439,0-0.76,0.131-0.959,0.392c-0.196,0.258-0.309,0.641-0.338,1.147h-0.777c0-0.674,0.177-1.218,0.531-1.631
	s0.897-0.619,1.631-0.619c0.591,0,1.077,0.171,1.459,0.514c0.383,0.34,0.575,0.805,0.575,1.393c0,0.396-0.091,0.734-0.272,1.016
	c-0.182,0.278-0.461,0.523-0.84,0.734l-1.072,0.623c-0.377,0.224-0.665,0.432-0.861,0.625c-0.193,0.19-0.334,0.425-0.422,0.703
	h3.468v0.742h-4.359C98.326,102.713,98.47,102.199,98.713,101.83z"/>
<line fill="none" stroke="#000000" stroke-width="1.1019" stroke-miterlimit="10" x1="81.528" y1="26.216" x2="81.528" y2="91.594"/>
<line fill="none" stroke="#000000" stroke-width="0.5572" stroke-miterlimit="10" stroke-dasharray="0.5572,2.5259" stroke-dashoffset="2" x1="145.138" y1="26.216" x2="145.138" y2="93.08"/>
<rect x="411.843" y="49.281" fill="none" stroke="#000000" stroke-width="0.4514" stroke-miterlimit="10" width="8.127" height="8.125"/>
<path d="M414.817,54.469c0.021,0.661,0.299,0.992,0.834,0.992c0.256,0,0.465-0.079,0.623-0.238s0.238-0.385,0.238-0.679
	c0-0.286-0.102-0.493-0.307-0.623c-0.201-0.132-0.535-0.199-1.004-0.199v-0.809h0.184c0.631,0,0.947-0.251,0.947-0.754
	c0-0.225-0.066-0.407-0.197-0.547c-0.133-0.143-0.316-0.214-0.553-0.214c-0.518,0-0.779,0.31-0.785,0.928h-1.031
	c0-0.568,0.162-1.017,0.488-1.345c0.328-0.331,0.791-0.496,1.389-0.496c0.547,0,0.992,0.141,1.332,0.421
	c0.342,0.28,0.512,0.667,0.512,1.158c0,0.516-0.236,0.894-0.709,1.135c0.592,0.243,0.889,0.69,0.889,1.341
	c0,0.537-0.184,0.978-0.547,1.321c-0.363,0.341-0.85,0.512-1.461,0.512c-0.641,0-1.123-0.162-1.447-0.484
	c-0.326-0.326-0.504-0.799-0.533-1.42H414.817z"/>
<path fill="none" stroke="#000000" stroke-width="0.4514" stroke-miterlimit="10" d="M419.97,68.668
	c0,2.242-1.818,4.062-4.063,4.062c-2.242,0-4.063-1.819-4.063-4.062c0-2.241,1.82-4.063,4.063-4.063
	C418.151,64.605,419.97,66.427,419.97,68.668L419.97,68.668z"/>
<path d="M414.872,69.799c0.021,0.661,0.299,0.991,0.833,0.991c0.257,0,0.465-0.078,0.623-0.237c0.159-0.159,0.238-0.386,0.238-0.679
	c0-0.285-0.102-0.493-0.306-0.623c-0.201-0.132-0.535-0.198-1.004-0.198v-0.81h0.183c0.632,0,0.948-0.251,0.948-0.754
	c0-0.225-0.066-0.406-0.198-0.547c-0.132-0.143-0.316-0.215-0.552-0.215c-0.519,0-0.78,0.311-0.785,0.929h-1.031
	c0-0.568,0.162-1.017,0.487-1.345c0.328-0.33,0.791-0.496,1.389-0.496c0.548,0,0.992,0.141,1.333,0.421
	c0.342,0.28,0.512,0.667,0.512,1.158c0,0.516-0.236,0.894-0.71,1.135c0.593,0.243,0.889,0.69,0.889,1.341
	c0,0.537-0.183,0.978-0.547,1.321c-0.363,0.341-0.85,0.512-1.46,0.512c-0.641,0-1.123-0.161-1.448-0.483
	c-0.325-0.326-0.503-0.799-0.532-1.421H414.872z"/>
<path fill="none" stroke="#000000" stroke-width="0.4514" stroke-miterlimit="10" d="M370.143,69.413
	c0,2.243-1.82,4.063-4.063,4.063s-4.063-1.82-4.063-4.063c0-2.241,1.82-4.062,4.063-4.062S370.143,67.171,370.143,69.413
	L370.143,69.413z"/>
<rect x="362.018" y="49.599" fill="none" stroke="#000000" stroke-width="0.4514" stroke-miterlimit="10" width="8.125" height="8.125"/>
<rect x="441.137" y="49.281" fill="none" stroke="#000000" stroke-width="0.4514" stroke-miterlimit="10" width="8.127" height="8.125"/>
<path d="M443.307,54.992c0.222-0.357,0.648-0.768,1.281-1.234c0.523-0.383,0.852-0.673,0.983-0.869
	c0.133-0.196,0.198-0.398,0.198-0.607c0-0.233-0.067-0.431-0.202-0.595c-0.132-0.167-0.332-0.25-0.599-0.25
	c-0.291,0-0.495,0.091-0.611,0.274s-0.175,0.451-0.175,0.805h-1.139V52.35c0-0.502,0.158-0.939,0.473-1.309
	c0.317-0.37,0.789-0.556,1.416-0.556c0.55,0,1.018,0.156,1.4,0.468c0.384,0.31,0.575,0.754,0.575,1.333
	c0,0.394-0.095,0.738-0.285,1.032c-0.188,0.291-0.561,0.629-1.119,1.016c-0.61,0.423-0.975,0.726-1.091,0.908h2.495v1.012h-3.936
	C442.973,55.77,443.084,55.35,443.307,54.992z"/>
<path fill="none" stroke="#000000" stroke-width="0.4514" stroke-miterlimit="10" d="M450.125,68.663
	c0,2.244-1.82,4.063-4.063,4.063S442,70.907,442,68.663c0-2.242,1.82-4.062,4.063-4.062S450.125,66.42,450.125,68.663
	L450.125,68.663z"/>
<path d="M444.344,70.424c0.222-0.356,0.648-0.769,1.281-1.233c0.523-0.384,0.852-0.674,0.983-0.869
	c0.133-0.195,0.198-0.398,0.198-0.607c0-0.232-0.067-0.431-0.202-0.595c-0.132-0.167-0.332-0.25-0.599-0.25
	c-0.291,0-0.495,0.091-0.611,0.274c-0.116,0.182-0.175,0.451-0.175,0.805h-1.139v-0.166c0-0.503,0.158-0.939,0.473-1.31
	c0.317-0.37,0.789-0.556,1.416-0.556c0.55,0,1.018,0.156,1.4,0.469c0.384,0.309,0.575,0.754,0.575,1.332
	c0,0.395-0.095,0.738-0.285,1.032c-0.188,0.291-0.561,0.63-1.119,1.016c-0.61,0.423-0.975,0.726-1.091,0.908h2.495v1.012h-3.936
	C444.01,71.203,444.121,70.782,444.344,70.424z"/>
<rect x="11.259" y="36.62" fill="none" stroke="#000000" stroke-width="0.4514" stroke-miterlimit="10" width="8.125" height="8.124"/>
<path d="M13.619,39.107c0.568,0,0.97-0.094,1.202-0.282c0.232-0.188,0.363-0.42,0.393-0.698h0.94v5.769h-1.139v-3.991h-1.396V39.107
	z"/>
<path d="M55.688,41.757c0.021,0.661,0.299,0.992,0.833,0.992c0.257,0,0.465-0.079,0.623-0.238c0.159-0.159,0.238-0.385,0.238-0.679
	c0-0.286-0.102-0.493-0.306-0.623c-0.201-0.132-0.535-0.199-1.004-0.199v-0.809h0.183c0.632,0,0.948-0.251,0.948-0.754
	c0-0.225-0.066-0.407-0.198-0.547c-0.132-0.143-0.316-0.214-0.552-0.214c-0.519,0-0.78,0.31-0.785,0.928h-1.031
	c0-0.568,0.162-1.017,0.487-1.345c0.328-0.331,0.791-0.496,1.389-0.496c0.548,0,0.992,0.141,1.333,0.421
	c0.342,0.28,0.512,0.667,0.512,1.158c0,0.516-0.236,0.894-0.71,1.135c0.593,0.243,0.889,0.69,0.889,1.341
	c0,0.537-0.183,0.978-0.547,1.321c-0.363,0.341-0.85,0.512-1.46,0.512c-0.641,0-1.123-0.162-1.448-0.484
	c-0.325-0.326-0.503-0.799-0.532-1.42H55.688z"/>
<path d="M55.688,67.381c0.021,0.661,0.299,0.991,0.833,0.991c0.257,0,0.465-0.078,0.623-0.237c0.159-0.159,0.238-0.386,0.238-0.679
	c0-0.285-0.102-0.493-0.306-0.623c-0.201-0.132-0.535-0.198-1.004-0.198v-0.81h0.183c0.632,0,0.948-0.251,0.948-0.754
	c0-0.225-0.066-0.406-0.198-0.547c-0.132-0.143-0.316-0.215-0.552-0.215c-0.519,0-0.78,0.311-0.785,0.929h-1.031
	c0-0.568,0.162-1.017,0.487-1.345c0.328-0.33,0.791-0.496,1.389-0.496c0.548,0,0.992,0.141,1.333,0.421
	c0.342,0.28,0.512,0.667,0.512,1.158c0,0.516-0.236,0.894-0.71,1.135c0.593,0.243,0.889,0.69,0.889,1.341
	c0,0.537-0.183,0.978-0.547,1.321c-0.363,0.341-0.85,0.512-1.46,0.512c-0.641,0-1.123-0.161-1.448-0.483
	c-0.325-0.326-0.503-0.799-0.532-1.421H55.688z"/>
<path d="M35.961,42.281c0.222-0.357,0.648-0.768,1.281-1.234c0.523-0.383,0.852-0.673,0.983-0.869
	c0.133-0.196,0.198-0.398,0.198-0.607c0-0.233-0.067-0.431-0.202-0.595c-0.132-0.167-0.332-0.25-0.599-0.25
	c-0.291,0-0.495,0.091-0.611,0.274s-0.175,0.451-0.175,0.805h-1.139v-0.167c0-0.502,0.158-0.939,0.473-1.309
	c0.317-0.37,0.789-0.556,1.416-0.556c0.55,0,1.018,0.156,1.4,0.468c0.384,0.31,0.575,0.754,0.575,1.333
	c0,0.394-0.095,0.738-0.285,1.032c-0.188,0.291-0.561,0.629-1.119,1.016c-0.61,0.423-0.975,0.726-1.091,0.908h2.495v1.012h-3.936
	C35.627,43.059,35.738,42.638,35.961,42.281z"/>
<path d="M35.961,67.905c0.222-0.356,0.648-0.769,1.281-1.233c0.523-0.384,0.852-0.674,0.983-0.869
	c0.133-0.195,0.198-0.398,0.198-0.607c0-0.232-0.067-0.431-0.202-0.595c-0.132-0.167-0.332-0.25-0.599-0.25
	c-0.291,0-0.495,0.091-0.611,0.274c-0.116,0.182-0.175,0.451-0.175,0.805h-1.139v-0.166c0-0.503,0.158-0.939,0.473-1.31
	c0.317-0.37,0.789-0.556,1.416-0.556c0.55,0,1.018,0.156,1.4,0.469c0.384,0.309,0.575,0.754,0.575,1.332
	c0,0.395-0.095,0.738-0.285,1.032c-0.188,0.291-0.561,0.63-1.119,1.016c-0.61,0.423-0.975,0.726-1.091,0.908h2.495v1.012h-3.936
	C35.627,68.683,35.738,68.262,35.961,67.905z"/>
<path fill="none" stroke="#000000" stroke-width="0.4514" stroke-miterlimit="10" d="M19.384,70.157c0,2.243-1.82,4.063-4.063,4.063
	s-4.063-1.82-4.063-4.063c0-2.241,1.82-4.062,4.063-4.062S19.384,67.916,19.384,70.157L19.384,70.157z"/>
<path d="M13.563,68.39c0.568,0,0.97-0.094,1.202-0.281s0.363-0.42,0.393-0.698h0.94v5.769h-1.139v-3.991h-1.396V68.39z"/>
<path fill="none" stroke="#000000" stroke-width="0.5572" stroke-miterlimit="10" stroke-dasharray="1.42,1.42" d="M28.169,46.117
	c1.269,1.012,20.833,27.961,29.667,27.063c7.667-0.779,6.531-10.879,3.333-12.532c-8.322-4.304-12.91,10.046-24.167,11.753
	c-9.5,1.441-17.651-20.094-11.978-18.979"/>
<path fill="none" stroke="#000000" stroke-width="0.5572" stroke-miterlimit="10" d="M30.669,62.785
	c1.496-1.742,11.592-13.694,12.717-22.502c0.927-7.26-12.733-8.953-11.217,0.789c0.878,5.641,23.902,25.023,13.333,32.175
	c-3.566,2.413-27.655,5.593-26.151-17.178"/>
<polygon fill-rule="evenodd" clip-rule="evenodd" stroke="#000000" stroke-width="0.2786" stroke-miterlimit="10" points="
	24.968,52.306 29.488,53.193 25.082,54.537 24.968,52.306 "/>
<polygon fill-rule="evenodd" clip-rule="evenodd" stroke="#000000" stroke-width="0.2786" stroke-miterlimit="10" points="
	17.848,56.832 20.856,53.343 19.843,57.836 17.848,56.832 "/>
<path d="M40.561,80.613l1.307-0.627L41.928,80v4.021c0,0.15,0.04,0.255,0.121,0.314c0.081,0.057,0.272,0.084,0.575,0.084v0.098
	h-2.017v-0.098c0.272-0.008,0.456-0.045,0.55-0.111c0.097-0.064,0.146-0.203,0.146-0.414v-3.017c0-0.128-0.022-0.212-0.068-0.251
	c-0.042-0.042-0.102-0.063-0.177-0.063c-0.059,0-0.122,0.012-0.188,0.035c-0.066,0.022-0.169,0.06-0.309,0.111V80.613z"/>
<path d="M43.689,82.791h1.761v0.418h-1.761V82.791z"/>
<path d="M46.757,84.008h1.708c0.18,0,0.317-0.034,0.412-0.101c0.095-0.07,0.188-0.18,0.28-0.33l0.1,0.032l-0.401,0.907h-2.812
	v-0.088l1.271-1.26c0.63-0.625,0.945-1.203,0.945-1.734c0-0.287-0.088-0.518-0.263-0.691c-0.175-0.176-0.426-0.265-0.752-0.265
	c-0.234,0-0.435,0.069-0.6,0.209c-0.166,0.138-0.311,0.356-0.434,0.656l-0.156-0.032c0.076-0.391,0.244-0.708,0.504-0.953
	c0.263-0.249,0.607-0.373,1.033-0.373c0.36,0,0.666,0.117,0.917,0.35c0.25,0.232,0.376,0.52,0.376,0.858
	c0,0.499-0.336,1.074-1.009,1.728L46.757,84.008z"/>
<path d="M53.442,82.025c-0.078,0.391-0.078,0.898,0,1.289v0.078h-0.625l-0.664-0.039l-0.195-0.352l-0.156-0.313l0.04-0.078
	c0-0.039,0.077-0.195,0.155-0.352l0.156-0.273h1.289 M54.612,79.839c-0.039,0-0.078,0.039-0.155,0.117
	c-0.313,0.273-0.586,0.625-0.78,1.053c-0.039,0.119-0.078,0.273-0.078,0.313L53.56,81.4h-0.547c-0.313,0-0.547,0-0.547-0.039
	c0,0,0.117-0.232,0.273-0.506c0.156-0.313,0.273-0.586,0.273-0.586c0-0.039,0-0.039,0-0.078c0-0.156-0.078-0.273-0.234-0.273
	c-0.078-0.039-0.156,0-0.195,0c-0.078,0.039,0,0-0.741,1.404c-0.586,1.133-0.625,1.25-0.664,1.328c0,0.078-0.078,0,0.664,1.406
	c0.585,1.131,0.663,1.287,0.702,1.326c0.117,0.117,0.352,0.117,0.43-0.078c0.039-0.078,0.039-0.156,0.039-0.195
	s-0.117-0.313-0.273-0.586c-0.156-0.313-0.273-0.545-0.273-0.545s0.234,0,0.547,0h0.547l0.039,0.037c0,0.041,0,0.078,0.039,0.156
	c0.195,0.508,0.468,0.938,0.819,1.25c0.116,0.078,0.155,0.117,0.233,0.117c0.195,0,0.313-0.156,0.273-0.313
	c0-0.117,0-0.156-0.117-0.234c-0.429-0.391-0.702-0.936-0.819-1.6c-0.039-0.234-0.039-0.43-0.039-0.703c0-0.313,0-0.469,0.039-0.703
	c0.117-0.703,0.391-1.248,0.819-1.6c0.117-0.078,0.117-0.156,0.117-0.234c0.039-0.156-0.039-0.273-0.195-0.313
	C54.729,79.839,54.651,79.839,54.612,79.839z"/>
<path d="M57.154,81.149c-0.185,0.425-0.278,1.013-0.278,1.767c0,0.594,0.079,1.1,0.235,1.518c0.154,0.416,0.459,0.805,0.914,1.166
	l-0.059,0.104c-1.115-0.679-1.672-1.624-1.672-2.836c0-1.176,0.55-2.136,1.649-2.881l0.082,0.118
	C57.629,80.376,57.338,80.724,57.154,81.149z"/>
<path d="M59.077,84.009h1.57c0.166,0,0.292-0.034,0.379-0.102c0.087-0.07,0.173-0.18,0.258-0.33l0.091,0.033l-0.369,0.907H58.42
	v-0.089l1.169-1.26c0.579-0.625,0.868-1.202,0.868-1.733c0-0.287-0.081-0.519-0.242-0.692c-0.161-0.176-0.392-0.264-0.692-0.264
	c-0.215,0-0.399,0.069-0.552,0.209c-0.152,0.137-0.285,0.355-0.398,0.656l-0.144-0.033c0.07-0.39,0.224-0.707,0.463-0.953
	c0.242-0.248,0.559-0.373,0.95-0.373c0.331,0,0.612,0.117,0.842,0.35c0.231,0.233,0.346,0.52,0.346,0.859
	c0,0.498-0.309,1.074-0.927,1.727L59.077,84.009z"/>
<path d="M61.76,80.104l0.082-0.118c1.099,0.745,1.649,1.705,1.649,2.881c0,1.212-0.557,2.157-1.671,2.836l-0.059-0.104
	c0.455-0.361,0.76-0.75,0.914-1.166c0.157-0.418,0.235-0.924,0.235-1.518c0-0.754-0.093-1.342-0.278-1.767
	S62.156,80.376,61.76,80.104z"/>
<path fill="none" stroke="#000000" stroke-width="0.5572" stroke-linejoin="bevel" stroke-miterlimit="10" d="M134.696,69.968
	c0,3.691-2.996,6.688-6.688,6.688c-3.689,0-6.686-2.996-6.686-6.688c0-3.689,2.996-6.686,6.686-6.686
	C131.7,63.283,134.696,66.279,134.696,69.968L134.696,69.968z M134.696,56.593c0,3.691-2.996,6.688-6.688,6.688
	c-3.689,0-6.686-2.996-6.686-6.688c0-3.689,2.996-6.686,6.686-6.686C131.7,49.908,134.696,52.904,134.696,56.593L134.696,56.593z"/>
<line fill="none" stroke="#000000" stroke-width="0.5572" stroke-miterlimit="10" x1="126.309" y1="63.3" x2="114.608" y2="69.986"/>
<line fill="none" stroke="#000000" stroke-width="0.556" stroke-miterlimit="10" x1="128.009" y1="76.873" x2="128.009" y2="43.321"/>
<line fill="none" stroke="#000000" stroke-width="0.4514" stroke-miterlimit="10" x1="111.168" y1="60.031" x2="113.043" y2="59.656"/>
<rect x="102.999" y="57.156" transform="matrix(-0.9803 0.1975 -0.1975 -0.9803 224.3631 100.3012)" fill="none" stroke="#000000" stroke-width="0.4645" stroke-miterlimit="10" width="8.363" height="8.36"/>
<path d="M105.494,59.318c0.525-0.006,0.894-0.098,1.107-0.273c0.212-0.176,0.331-0.393,0.354-0.648l0.868-0.011l0.063,5.324
	l-1.051,0.013l-0.044-3.684l-1.289,0.016L105.494,59.318z"/>
<path fill="none" stroke="#000000" stroke-width="0.4647" stroke-miterlimit="10" d="M98.69,65.516c0,2.31-1.875,4.183-4.182,4.183
	c-2.311,0-4.184-1.873-4.184-4.183c0-2.308,1.873-4.181,4.184-4.181C96.815,61.335,98.69,63.208,98.69,65.516L98.69,65.516z"/>
<path d="M92.958,63.399c0.525,0,0.895-0.087,1.11-0.261c0.214-0.173,0.335-0.388,0.362-0.645h0.868v5.325h-1.051v-3.685h-1.289
	V63.399z"/>
<line fill="none" stroke="#000000" stroke-width="0.4514" stroke-miterlimit="10" x1="98.757" y1="64.472" x2="100.632" y2="64.097"/>
<path d="M121.085,31.697c0.702,0,1.196-0.116,1.483-0.348c0.287-0.231,0.449-0.519,0.485-0.862h1.16v7.121h-1.405v-4.927h-1.724
	V31.697z"/>
<path d="M129.499,36.051c0.274-0.441,0.802-0.949,1.582-1.523c0.646-0.473,1.051-0.831,1.214-1.072
	c0.164-0.242,0.245-0.491,0.245-0.749c0-0.288-0.083-0.532-0.25-0.735c-0.163-0.206-0.409-0.309-0.739-0.309
	c-0.359,0-0.61,0.113-0.754,0.338c-0.144,0.226-0.216,0.557-0.216,0.994h-1.405v-0.206c0-0.62,0.194-1.159,0.583-1.616
	c0.392-0.457,0.975-0.686,1.748-0.686c0.679,0,1.255,0.193,1.729,0.578c0.474,0.382,0.71,0.93,0.71,1.646
	c0,0.486-0.117,0.911-0.353,1.273c-0.231,0.359-0.691,0.777-1.381,1.254c-0.754,0.522-1.203,0.896-1.347,1.121h3.08v1.249h-4.857
	C129.087,37.01,129.224,36.491,129.499,36.051z"/>
<path fill="none" stroke="#000000" stroke-width="0.5572" stroke-linejoin="bevel" stroke-miterlimit="10" d="M196.948,56.595
	c0,3.689-2.997,6.686-6.688,6.686c-3.689,0-6.686-2.996-6.686-6.686c0-3.691,2.996-6.688,6.686-6.688
	C193.952,49.908,196.948,52.904,196.948,56.595L196.948,56.595z M196.948,69.97c0,3.689-2.997,6.686-6.688,6.686
	c-3.689,0-6.686-2.996-6.686-6.686c0-3.691,2.996-6.688,6.686-6.688C193.952,63.283,196.948,66.279,196.948,69.97L196.948,69.97z"/>
<line fill="none" stroke="#000000" stroke-width="0.5572" stroke-miterlimit="10" x1="188.561" y1="63.263" x2="176.86" y2="56.578"/>
<line fill="none" stroke="#000000" stroke-width="0.556" stroke-miterlimit="10" x1="190.261" y1="46.513" x2="190.261" y2="80.066"/>
<path d="M182.112,31.697c0.702,0,1.196-0.116,1.483-0.348c0.287-0.231,0.449-0.519,0.485-0.862h1.16v7.121h-1.405v-4.927h-1.724
	V31.697z"/>
<path d="M191.52,35.404c0.026,0.816,0.369,1.224,1.028,1.224c0.316,0,0.573-0.098,0.769-0.294c0.196-0.196,0.294-0.475,0.294-0.837
	c0-0.353-0.125-0.609-0.377-0.769c-0.248-0.164-0.661-0.245-1.239-0.245v-0.999h0.226c0.78,0,1.171-0.31,1.171-0.93
	c0-0.278-0.082-0.503-0.245-0.676c-0.163-0.177-0.391-0.265-0.681-0.265c-0.64,0-0.963,0.382-0.97,1.146h-1.273
	c0-0.702,0.201-1.255,0.603-1.66c0.404-0.408,0.977-0.612,1.714-0.612c0.676,0,1.225,0.173,1.646,0.519
	c0.421,0.346,0.632,0.823,0.632,1.43c0,0.637-0.292,1.104-0.877,1.4c0.731,0.301,1.098,0.852,1.098,1.655
	c0,0.663-0.226,1.207-0.676,1.631c-0.448,0.421-1.049,0.632-1.803,0.632c-0.79,0-1.386-0.199-1.787-0.598
	c-0.401-0.401-0.62-0.986-0.656-1.753H191.52z"/>
<line fill="none" stroke="#000000" stroke-width="0.4514" stroke-miterlimit="10" x1="175.527" y1="65.634" x2="177.402" y2="66.009"/>
<rect x="167.358" y="60.149" transform="matrix(-0.9803 -0.1975 0.1975 -0.9803 327.001 161.2626)" fill="none" stroke="#000000" stroke-width="0.4645" stroke-miterlimit="10" width="8.363" height="8.36"/>
<path d="M169.853,62.312c0.525-0.006,0.894-0.098,1.107-0.273c0.212-0.176,0.331-0.393,0.354-0.648l0.868-0.011l0.063,5.324
	l-1.051,0.013l-0.044-3.684l-1.289,0.016L169.853,62.312z"/>
<path fill="none" stroke="#000000" stroke-width="0.4647" stroke-miterlimit="10" d="M162.079,61.428
	c0-2.31-1.875-4.183-4.182-4.183c-2.311,0-4.184,1.873-4.184,4.183c0,2.308,1.873,4.181,4.184,4.181
	C160.204,65.609,162.079,63.736,162.079,61.428L162.079,61.428z"/>
<path d="M156.347,59.309c0.525,0,0.895-0.087,1.11-0.261c0.214-0.173,0.335-0.388,0.362-0.645h0.868v5.325h-1.051v-3.685h-1.289
	V59.309z"/>
<line fill="none" stroke="#000000" stroke-width="0.4514" stroke-miterlimit="10" x1="162.145" y1="62.472" x2="164.02" y2="62.847"/>
<line fill="none" stroke="#000000" stroke-width="1.1019" stroke-miterlimit="10" x1="209.831" y1="26.216" x2="209.831" y2="91.593"/>
<rect x="224.554" y="41.481" fill="none" stroke="#000000" stroke-width="0.4514" stroke-miterlimit="10" width="8.125" height="8.124"/>
<path d="M226.914,43.969c0.568,0,0.97-0.094,1.202-0.282c0.232-0.188,0.363-0.42,0.393-0.698h0.94v5.769h-1.139v-3.991h-1.396
	V43.969z"/>
<path fill="none" stroke="#000000" stroke-width="0.4514" stroke-miterlimit="10" d="M232.679,75.018
	c0,2.243-1.82,4.063-4.063,4.063s-4.063-1.82-4.063-4.063c0-2.241,1.82-4.062,4.063-4.062S232.679,72.777,232.679,75.018
	L232.679,75.018z"/>
<path d="M226.857,73.251c0.568,0,0.97-0.094,1.202-0.281s0.363-0.42,0.393-0.698h0.94v5.769h-1.139v-3.991h-1.396V73.251z"/>
<path fill="none" stroke="#000000" stroke-width="0.5572" stroke-miterlimit="10" stroke-dasharray="1.42,1.42" d="M233.792,51.392
	c2.719,1.339,5.012,4.24,5.043,9.924c0.063,11.519-18.603,6.99-16.5,0.799"/>
<path fill="none" stroke="#000000" stroke-width="0.5572" stroke-miterlimit="10" d="M223.116,71.261
	c-2.719-1.339-5.012-4.24-5.043-9.924c-0.063-11.519,18.604-6.99,16.5-0.799"/>
<polygon fill-rule="evenodd" clip-rule="evenodd" stroke="#000000" stroke-width="0.2786" stroke-miterlimit="10" points="
	235.85,58 235.21,62.562 233.628,58.236 235.85,58 "/>
<polygon fill-rule="evenodd" clip-rule="evenodd" stroke="#000000" stroke-width="0.2786" stroke-miterlimit="10" points="
	221.06,63.937 221.698,59.375 223.28,63.701 221.06,63.937 "/>
<path d="M285.909,36.051c0.274-0.441,0.802-0.949,1.582-1.523c0.646-0.473,1.051-0.831,1.214-1.072
	c0.164-0.242,0.245-0.491,0.245-0.749c0-0.288-0.083-0.532-0.25-0.735c-0.163-0.206-0.409-0.309-0.739-0.309
	c-0.359,0-0.61,0.113-0.754,0.338c-0.144,0.226-0.216,0.557-0.216,0.994h-1.405v-0.206c0-0.62,0.194-1.159,0.583-1.616
	c0.392-0.457,0.975-0.686,1.748-0.686c0.679,0,1.255,0.193,1.729,0.578c0.474,0.382,0.71,0.93,0.71,1.646
	c0,0.486-0.117,0.911-0.353,1.273c-0.231,0.359-0.691,0.777-1.381,1.254c-0.754,0.522-1.203,0.896-1.347,1.121h3.08v1.249h-4.857
	C285.498,37.01,285.635,36.491,285.909,36.051z"/>
<path d="M290.963,37.608l1.832-2.708l-1.768-2.62h1.709l0.926,1.562l0.905-1.562h1.646l-1.772,2.601l1.836,2.728h-1.733l-0.95-1.602
	l-0.939,1.602H290.963z"/>
<path d="M299.803,31.697c0.702,0,1.196-0.116,1.483-0.348c0.287-0.231,0.449-0.519,0.485-0.862h1.16v7.121h-1.405v-4.927h-1.724
	V31.697z"/>
<path d="M304.905,37.608l1.832-2.708l-1.768-2.62h1.709l0.926,1.562l0.905-1.562h1.646l-1.772,2.601l1.836,2.728h-1.733l-0.95-1.602
	l-0.939,1.602H304.905z"/>
<path d="M314.788,35.404c0.026,0.816,0.369,1.224,1.028,1.224c0.316,0,0.573-0.098,0.769-0.294c0.196-0.196,0.294-0.475,0.294-0.837
	c0-0.353-0.125-0.609-0.377-0.769c-0.248-0.164-0.661-0.245-1.239-0.245v-0.999h0.226c0.78,0,1.171-0.31,1.171-0.93
	c0-0.278-0.082-0.503-0.245-0.676c-0.163-0.177-0.391-0.265-0.681-0.265c-0.64,0-0.963,0.382-0.97,1.146h-1.273
	c0-0.702,0.201-1.255,0.603-1.66c0.404-0.408,0.977-0.612,1.714-0.612c0.676,0,1.225,0.173,1.646,0.519
	c0.421,0.346,0.632,0.823,0.632,1.43c0,0.637-0.292,1.104-0.877,1.4c0.731,0.301,1.098,0.852,1.098,1.655
	c0,0.663-0.226,1.207-0.676,1.631c-0.448,0.421-1.049,0.632-1.803,0.632c-0.79,0-1.386-0.199-1.787-0.598
	c-0.401-0.401-0.62-0.986-0.656-1.753H314.788z"/>
<path d="M318.848,37.608l1.832-2.708l-1.768-2.62h1.709l0.926,1.562l0.905-1.562h1.646l-1.772,2.601l1.836,2.728h-1.733l-0.95-1.602
	l-0.939,1.602H318.848z"/>
<path fill="none" stroke="#000000" stroke-width="0.9921" stroke-miterlimit="10" d="M315.233,62.66
	c0,5.941-4.824,10.764-10.768,10.764c-5.941,0-10.764-4.822-10.764-10.764s4.822-10.764,10.764-10.764
	C310.409,51.896,315.233,56.718,315.233,62.66L315.233,62.66z"/>
<polygon fill-rule="evenodd" clip-rule="evenodd" stroke="#000000" stroke-width="0.3285" stroke-miterlimit="10" points="
	297.468,57.306 298.689,53.355 294.634,55.117 297.468,57.306 "/>
<polygon fill-rule="evenodd" clip-rule="evenodd" stroke="#000000" stroke-width="0.3285" stroke-miterlimit="10" points="
	312.44,67.271 311.219,71.222 315.274,69.46 312.44,67.271 "/>
<line fill="none" stroke="#000000" stroke-width="0.5669" stroke-miterlimit="10" x1="289.283" y1="62.566" x2="319.722" y2="62.566"/>
<line fill="none" stroke="#000000" stroke-width="1.1019" stroke-miterlimit="10" x1="332.584" y1="26.216" x2="332.584" y2="91.593"/>
<line fill="none" stroke="#000000" stroke-width="0.5572" stroke-miterlimit="10" stroke-dasharray="0.5572,2.5259" stroke-dashoffset="2" x1="396.517" y1="26.217" x2="396.517" y2="93.08"/>
<path d="M338.043,37.608l2.585-7.208h1.729l2.585,7.208h-1.636l-0.465-1.503h-2.703l-0.51,1.503H338.043z M340.555,34.841h1.842
	l-0.906-2.806L340.555,34.841z"/>
<path d="M345.844,30.399h1.494v5.945h3.604v1.264h-5.099V30.399z"/>
<path d="M351.97,30.399h1.494v5.945h3.604v1.264h-5.099V30.399z"/>
<path d="M378.612,63.095c0.068,1.26,0.891,1.891,2.469,1.891c1.521,0,2.281-0.488,2.281-1.461c0-0.621-0.533-1.061-1.602-1.32
	l-2.82-0.719c-0.863-0.209-1.5-0.561-1.906-1.055c-0.406-0.496-0.609-1.154-0.609-1.977c0-1.052,0.379-1.912,1.133-2.579
	c0.756-0.667,1.848-1,3.273-1c1.313,0,2.365,0.32,3.156,0.961c0.793,0.641,1.23,1.57,1.313,2.79h-2.313
	c-0.172-1.177-0.938-1.766-2.297-1.766c-0.619,0-1.113,0.12-1.484,0.359c-0.363,0.239-0.547,0.567-0.547,0.985
	c0,0.301,0.094,0.555,0.281,0.758c0.193,0.203,0.5,0.355,0.922,0.461l2.797,0.688c1.152,0.275,1.941,0.664,2.367,1.164
	c0.434,0.5,0.648,1.152,0.648,1.961c0,1.109-0.395,2.01-1.188,2.703c-0.785,0.688-1.93,1.031-3.43,1.031
	c-1.4,0-2.543-0.328-3.43-0.984c-0.885-0.662-1.328-1.625-1.328-2.891H378.612z"/>
<line fill="none" stroke="#000000" stroke-width="0.5572" stroke-miterlimit="10" stroke-dasharray="0.5572,2.5259" stroke-dashoffset="2" x1="277.672" y1="26.217" x2="277.672" y2="93.08"/>
<line fill="none" stroke="#000000" stroke-width="0.5572" stroke-miterlimit="10" x1="366.08" y1="57.724" x2="366.08" y2="65.351"/>
<rect x="427.044" y="49.271" fill="none" stroke="#000000" stroke-width="0.4514" stroke-miterlimit="10" width="8.125" height="8.124"/>
<path d="M429.404,51.758c0.568,0,0.97-0.094,1.202-0.282c0.232-0.188,0.363-0.42,0.393-0.698h0.94v5.769h-1.139v-3.991h-1.396
	V51.758z"/>
<path fill="none" stroke="#000000" stroke-width="0.4514" stroke-miterlimit="10" d="M435.169,68.663
	c0,2.243-1.82,4.063-4.063,4.063s-4.063-1.82-4.063-4.063c0-2.241,1.82-4.062,4.063-4.062S435.169,66.421,435.169,68.663
	L435.169,68.663z"/>
<path d="M429.348,66.896c0.568,0,0.97-0.094,1.202-0.281s0.363-0.42,0.393-0.698h0.94v5.769h-1.139v-3.991h-1.396V66.896z"/>
<path fill="none" stroke="#000000" stroke-width="0.5572" stroke-miterlimit="10" d="M448.003,76.478
	c-1.712,2.5-20.574,4.757-26.25,4.468c-18.681-0.951-20-9.927-13.826-12.278"/>
<line fill="none" stroke="#000000" stroke-width="0.5572" stroke-miterlimit="10" x1="413.52" y1="60.894" x2="415.468" y2="64.304"/>
<line fill="none" stroke="#000000" stroke-width="0.5572" stroke-miterlimit="10" x1="415.468" y1="57.542" x2="413.52" y2="60.953"/>
<line fill="none" stroke="#000000" stroke-width="0.5572" stroke-miterlimit="10" x1="429.923" y1="60.894" x2="431.871" y2="64.304"/>
<line fill="none" stroke="#000000" stroke-width="0.5572" stroke-miterlimit="10" x1="431.871" y1="57.542" x2="429.923" y2="60.953"/>
<line fill="none" stroke="#000000" stroke-width="0.5572" stroke-miterlimit="10" x1="444.226" y1="60.894" x2="446.174" y2="64.304"/>
<line fill="none" stroke="#000000" stroke-width="0.5572" stroke-miterlimit="10" x1="446.174" y1="57.542" x2="444.226" y2="60.953"/>
<polygon fill-rule="evenodd" clip-rule="evenodd" stroke="#000000" stroke-width="0.2786" stroke-miterlimit="10" points="
	445.71,76.388 450.296,75.953 446.454,78.494 445.71,76.388 "/>
<path fill="none" stroke="#000000" stroke-width="0.5572" stroke-miterlimit="10" stroke-dasharray="1.42,1.42" d="M448.623,44.417
	c-1.712-2.501-20.574-4.758-26.25-4.469c-18.681,0.951-20,9.928-13.826,12.278"/>
<polygon fill-rule="evenodd" clip-rule="evenodd" stroke="#000000" stroke-width="0.2786" stroke-miterlimit="10" points="
	446.33,44.507 450.916,44.943 447.074,42.401 446.33,44.507 "/>
<path d="M245.704,55.173h9.383v2.016h-3.5v9.485h-2.383v-9.485h-3.5V55.173z"/>
<path d="M260.905,70.029h-1.654c-0.102-0.387-0.155-0.813-0.162-1.273l-0.01-0.537c-0.006-0.359-0.086-0.613-0.238-0.768
	c-0.153-0.152-0.465-0.229-0.934-0.229h-1.572v2.807h-1.488v-7.188h3.666c0.69,0,1.242,0.188,1.656,0.563
	c0.413,0.371,0.619,0.873,0.619,1.508c0,0.811-0.372,1.375-1.117,1.689c0.403,0.16,0.655,0.379,0.756,0.66
	c0.102,0.279,0.152,0.717,0.152,1.313v0.289c0,0.273,0.018,0.49,0.053,0.654c0.039,0.158,0.131,0.266,0.273,0.316V70.029z
	 M259.274,65.058c0-0.637-0.352-0.957-1.055-0.957h-1.885v1.92h1.768C258.884,66.021,259.274,65.701,259.274,65.058z"/>
<path d="M262.562,65.898c0.006,0.199,0.064,0.359,0.176,0.479c0.113,0.121,0.287,0.182,0.521,0.182c0.219,0,0.38-0.049,0.484-0.146
	c0.107-0.102,0.16-0.256,0.16-0.465c0-0.217-0.068-0.373-0.205-0.463c-0.133-0.092-0.325-0.137-0.576-0.137h-0.195v-0.641h0.123
	c0.237,0,0.414-0.041,0.531-0.121c0.121-0.086,0.182-0.221,0.182-0.406c0-0.348-0.183-0.521-0.547-0.521
	c-0.215,0-0.371,0.063-0.469,0.189c-0.095,0.125-0.143,0.281-0.143,0.469h-0.85c0.039-0.938,0.543-1.406,1.51-1.406
	c0.442,0,0.795,0.107,1.059,0.322c0.268,0.215,0.4,0.498,0.4,0.85c0,0.404-0.188,0.689-0.566,0.855c0.473,0.146,0.709,0.48,0.709,1
	c0,0.385-0.144,0.709-0.43,0.973c-0.287,0.264-0.684,0.395-1.191,0.395c-0.443,0-0.81-0.104-1.1-0.313
	c-0.286-0.207-0.442-0.572-0.469-1.094H262.562z M263.245,70.175l4.291-7.246h0.787l-4.293,7.246H263.245z M266.253,68.378
	l1.738-2.617h1.074v2.682h0.502v0.684h-0.502v0.922h-0.947v-0.922h-1.865V68.378z M266.995,68.443h1.123v-1.748L266.995,68.443z"/>
<path d="M340.585,55.173h9.383v2.016h-3.5v9.485h-2.383v-9.485h-3.5V55.173z"/>
<path d="M355.787,70.029h-1.655c-0.102-0.387-0.154-0.813-0.161-1.273l-0.01-0.537c-0.007-0.359-0.087-0.613-0.239-0.768
	c-0.152-0.152-0.464-0.229-0.933-0.229h-1.572v2.807h-1.489v-7.188h3.667c0.69,0,1.241,0.188,1.655,0.563
	c0.414,0.371,0.62,0.873,0.62,1.508c0,0.811-0.372,1.375-1.118,1.689c0.404,0.16,0.656,0.379,0.757,0.66
	c0.101,0.279,0.151,0.717,0.151,1.313v0.289c0,0.273,0.018,0.49,0.054,0.654c0.039,0.158,0.13,0.266,0.273,0.316V70.029z
	 M354.156,65.058c0-0.637-0.352-0.957-1.055-0.957h-1.885v1.92h1.768C353.766,66.021,354.156,65.701,354.156,65.058z"/>
</svg>
