<?xml version="1.0" encoding="UTF-8" standalone="no"?>
<!-- Creator: fig2dev Version 3.2.8b -->
<!-- CreationDate: 2023-01-17 11:54:04 -->
<!-- Magnification: 1.05 -->
<svg	xmlns="http://www.w3.org/2000/svg"
	xmlns:xlink="http://www.w3.org/1999/xlink"
	viewBox="-22 -22 5849 1709">
<g fill="none">
<!-- Text -->
<text xml:space="preserve" x="5760" y="270" fill="#000000" font-family="Helvetica" font-style="normal" font-weight="normal" font-size="216" text-anchor="end">J4x40</text>
<!-- Text -->
<text xml:space="preserve" x="5617" y="1215" fill="#000000" font-family="Helvetica" font-style="normal" font-weight="bold" font-size="144" text-anchor="middle">R</text>
<!-- Text -->
<text xml:space="preserve" x="5527" y="810" fill="#000000" font-family="Helvetica" font-style="normal" font-weight="bold" font-size="108" text-anchor="middle">2</text>
<!-- Line -->
<rect x="4995" y="630" width="180" height="180"
	stroke="#000000" stroke-width="15px"/>
<!-- Text -->
<text xml:space="preserve" x="5085" y="765" fill="#000000" font-family="Helvetica" font-style="normal" font-weight="bold" font-size="108" text-anchor="middle">4</text>
<!-- Circle -->
<circle cx="5085" cy="1260" r="90"
	stroke="#000000" stroke-width="15px"/>
<!-- Text -->
<text xml:space="preserve" x="5085" y="1305" fill="#000000" font-family="Helvetica" font-style="normal" font-weight="bold" font-size="108" text-anchor="middle">4</text>
<!-- Circle -->
<circle cx="4815" cy="1260" r="90"
	stroke="#000000" stroke-width="15px"/>
<!-- Text -->
<text xml:space="preserve" x="4815" y="1305" fill="#000000" font-family="Helvetica" font-style="normal" font-weight="bold" font-size="108" text-anchor="middle">3</text>
<!-- Circle -->
<circle cx="4545" cy="1260" r="90"
	stroke="#000000" stroke-width="15px"/>
<!-- Text -->
<text xml:space="preserve" x="4545" y="1305" fill="#000000" font-family="Helvetica" font-style="normal" font-weight="bold" font-size="108" text-anchor="middle">2</text>
<!-- Line -->
<rect x="4725" y="630" width="180" height="180"
	stroke="#000000" stroke-width="15px"/>
<!-- Text -->
<text xml:space="preserve" x="4815" y="765" fill="#000000" font-family="Helvetica" font-style="normal" font-weight="bold" font-size="108" text-anchor="middle">3</text>
<!-- Line -->
<rect x="4455" y="630" width="180" height="180"
	stroke="#000000" stroke-width="15px"/>
<!-- Text -->
<text xml:space="preserve" x="4545" y="765" fill="#000000" font-family="Helvetica" font-style="normal" font-weight="bold" font-size="108" text-anchor="middle">2</text>
<!-- Line -->
<rect x="4140" y="765" width="180" height="180"
	stroke="#000000" stroke-width="15px"/>
<!-- Text -->
<text xml:space="preserve" x="4230" y="900" fill="#000000" font-family="Helvetica" font-style="normal" font-weight="bold" font-size="108" text-anchor="middle">1</text>
<!-- Circle -->
<circle cx="4230" cy="1125" r="90"
	stroke="#000000" stroke-width="15px"/>
<!-- Text -->
<text xml:space="preserve" x="4230" y="1170" fill="#000000" font-family="Helvetica" font-style="normal" font-weight="bold" font-size="108" text-anchor="middle">1</text>
<!-- Line -->
<polyline points=" 4230,945 4230,1035"
	stroke="#000000" stroke-width="15px"/>
<!-- Circle -->
<circle cx="1845" cy="810" r="90"
	stroke="#000000" stroke-width="15px"/>
<!-- Line -->
<rect x="1755" y="450" width="180" height="180"
	stroke="#000000" stroke-width="15px"/>
<!-- Line -->
<polyline points=" 1935,540 2025,675 1935,810"
	stroke="#000000" stroke-width="15px" stroke-linejoin="round" stroke-linecap="round"/>
<!-- Line -->
<polyline points=" 1755,540 1665,675 1755,810"
	stroke="#000000" stroke-width="15px" stroke-linejoin="round" stroke-linecap="round"/>
<!-- Text -->
<text xml:space="preserve" x="1845" y="585" fill="#000000" font-family="Helvetica" font-style="normal" font-weight="bold" font-size="108" text-anchor="middle">1</text>
<!-- Text -->
<text xml:space="preserve" x="1845" y="855" fill="#000000" font-family="Helvetica" font-style="normal" font-weight="bold" font-size="108" text-anchor="middle">1</text>
<!-- Circle -->
<circle cx="2565" cy="1035" r="225"
	stroke="#000000" stroke-width="15px"/>
<!-- Text -->
<text xml:space="preserve" x="2565" y="1125" fill="#000000" font-family="Helvetica" font-style="normal" font-weight="bold" font-size="216" text-anchor="middle">6</text>
<!-- Circle -->
<circle cx="316" cy="1261" r="90"
	stroke="#000000" stroke-width="15px"/>
<!-- Text -->
<text xml:space="preserve" x="316" y="1306" fill="#000000" font-family="Helvetica" font-style="normal" font-weight="bold" font-size="108" text-anchor="middle">1</text>
<!-- Circle -->
<circle cx="631" cy="1261" r="90"
	stroke="#000000" stroke-width="15px"/>
<!-- Text -->
<text xml:space="preserve" x="631" y="1306" fill="#000000" font-family="Helvetica" font-style="normal" font-weight="bold" font-size="108" text-anchor="middle">2</text>
<!-- Line -->
<rect x="226" y="676" width="180" height="180"
	stroke="#000000" stroke-width="15px"/>
<!-- Text -->
<text xml:space="preserve" x="316" y="811" fill="#000000" font-family="Helvetica" font-style="normal" font-weight="bold" font-size="108" text-anchor="middle">1</text>
<!-- Line -->
<rect x="541" y="676" width="180" height="180"
	stroke="#000000" stroke-width="15px"/>
<!-- Text -->
<text xml:space="preserve" x="631" y="811" fill="#000000" font-family="Helvetica" font-style="normal" font-weight="bold" font-size="108" text-anchor="middle">2</text>
<!-- Line -->
<rect x="856" y="676" width="180" height="180"
	stroke="#000000" stroke-width="15px"/>
<!-- Text -->
<text xml:space="preserve" x="946" y="811" fill="#000000" font-family="Helvetica" font-style="normal" font-weight="bold" font-size="108" text-anchor="middle">3</text>
<!-- Circle -->
<circle cx="946" cy="1261" r="90"
	stroke="#000000" stroke-width="15px"/>
<!-- Text -->
<text xml:space="preserve" x="946" y="1306" fill="#000000" font-family="Helvetica" font-style="normal" font-weight="bold" font-size="108" text-anchor="middle">3</text>
<!-- Circle -->
<circle cx="1261" cy="1261" r="90"
	stroke="#000000" stroke-width="15px"/>
<!-- Text -->
<text xml:space="preserve" x="1261" y="1306" fill="#000000" font-family="Helvetica" font-style="normal" font-weight="bold" font-size="108" text-anchor="middle">4</text>
<!-- Line -->
<rect x="1171" y="676" width="180" height="180"
	stroke="#000000" stroke-width="15px"/>
<!-- Text -->
<text xml:space="preserve" x="1261" y="811" fill="#000000" font-family="Helvetica" font-style="normal" font-weight="bold" font-size="108" text-anchor="middle">4</text>
<!-- Line -->
<polyline points=" 0,360 5805,360"
	stroke="#000000" stroke-width="15px"/>
<!-- Line -->
<rect x="0" y="0" width="5805" height="1665"
	stroke="#000000" stroke-width="15px"/>
<!-- Line -->
<polyline points=" 1485,360 1485,1665"
	stroke="#000000" stroke-width="15px"/>
<!-- Line -->
<polyline points=" 5310,360 5310,1665"
	stroke="#000000" stroke-width="15px" stroke-dasharray="60 60"/>
<!-- Line -->
<defs>
<clipPath id="cp0">
	<path clip-rule="evenodd" d="M -22,-22 H 5827 V 1687 H -22 z
		M 5196,960 5196,1020 5276,1001 5276,980z"/>
</clipPath>
</defs>
<polyline points=" 5265,990 4320,990" clip-path="url(#cp0)"
	stroke="#000000" stroke-width="15px"/>
<!-- Backward arrow to point 5265,990 -->
<polygon points=" 5196,1020 5256,990 5196,960 5196,1020"
	stroke="#000000" stroke-width="8px" stroke-miterlimit="8" fill="#000000"/>
<!-- Line -->
<defs>
<clipPath id="cp1">
	<path clip-rule="evenodd" d="M -22,-22 H 5827 V 1687 H -22 z
		M 4791,1545 4731,1485 4791,1425 4718,1478 4718,1492z
		M 4901,1425 4901,1545 4912,1492 4912,1478z"/>
</clipPath>
</defs>
<polyline points=" 4905,1485 4725,1485" clip-path="url(#cp1)"
	stroke="#000000" stroke-width="8px"/>
<!-- Forward arrow to point 4725,1485 -->
<polyline points=" 4791,1545 4731,1485 4791,1425"
	stroke="#000000" stroke-width="8px" stroke-miterlimit="8"/>
<!-- Backward arrow to point 4905,1485 -->
<polyline points=" 4901,1425 4901,1545"
	stroke="#000000" stroke-width="8px" stroke-miterlimit="8"/>
<!-- Line -->
<polyline points=" 2205,360 2205,1665"
	stroke="#000000" stroke-width="15px"/>
<!-- Line -->
<polyline points=" 2925,360 2925,1665"
	stroke="#000000" stroke-width="15px"/>
<!-- Line -->
<polyline points=" 4005,360 4005,1665"
	stroke="#000000" stroke-width="15px"/>
<!-- Line -->
<defs>
<clipPath id="cp2">
	<path clip-rule="evenodd" d="M -22,-22 H 5827 V 1687 H -22 z
		M 1689,1335 1689,1275 1610,1295 1610,1316z
		M 4901,1425 4901,1545 4912,1492 4912,1478z"/>
</clipPath>
</defs>
<polyline points=" 2070,1305 1620,1305" clip-path="url(#cp2)"
	stroke="#000000" stroke-width="15px"/>
<!-- Forward arrow to point 1620,1305 -->
<polygon points=" 1689,1275 1629,1305 1689,1335 1689,1275"
	stroke="#000000" stroke-width="8px" stroke-miterlimit="8" fill="#000000"/>
<!-- Line -->
<defs>
<clipPath id="cp3">
	<path clip-rule="evenodd" d="M -22,-22 H 5827 V 1687 H -22 z
		M 1689,1335 1689,1275 1610,1295 1610,1316z
		M 2001,1050 2001,1110 2081,1091 2081,1070z"/>
</clipPath>
</defs>
<polyline points=" 2070,1080 1620,1080" clip-path="url(#cp3)"
	stroke="#000000" stroke-width="15px"/>
<!-- Backward arrow to point 2070,1080 -->
<polygon points=" 2001,1110 2061,1080 2001,1050 2001,1110"
	stroke="#000000" stroke-width="8px" stroke-miterlimit="8" fill="#000000"/>
<!-- Line -->
<defs>
<clipPath id="cp4">
	<path clip-rule="evenodd" d="M -22,-22 H 5827 V 1687 H -22 z
		M 453,1408 480,1354 400,1336 391,1355z
		M 2001,1050 2001,1110 2081,1091 2081,1070z"/>
</clipPath>
</defs>
<polyline points=" 495,1395 405,1350" clip-path="url(#cp4)"
	stroke="#000000" stroke-width="15px" stroke-linecap="round"/>
<!-- Forward arrow to point 405,1350 -->
<polygon points=" 480,1354 413,1354 453,1408 480,1354"
	stroke="#000000" stroke-width="8px" stroke-miterlimit="8" fill="#000000"/>
<!-- Line -->
<polyline points=" 5085,810 5086,813 5089,818 5093,828 5099,840 5105,855 5111,872
 5117,890 5122,911 5126,934 5129,961 5130,990 5129,1019 5126,1046 5122,1069 5117,1090
 5111,1108 5105,1125 5099,1140 5093,1152 5089,1162 5086,1167 5085,1170"
	stroke="#000000" stroke-width="15px" stroke-linejoin="bevel"/>
<!-- Line -->
<polyline points=" 4545,810 4546,813 4549,818 4553,828 4559,840 4565,855 4571,872
 4577,890 4582,911 4586,934 4589,961 4590,990 4589,1019 4586,1046 4582,1069 4577,1090
 4571,1108 4565,1125 4559,1140 4553,1152 4549,1162 4546,1167 4545,1170"
	stroke="#000000" stroke-width="15px" stroke-linejoin="bevel"/>
<!-- Line -->
<polyline points=" 4815,810 4816,813 4819,818 4823,828 4829,840 4835,855 4841,872
 4847,890 4852,911 4856,934 4859,961 4860,990 4859,1019 4856,1046 4852,1069 4847,1090
 4841,1108 4835,1125 4829,1140 4823,1152 4819,1162 4816,1167 4815,1170"
	stroke="#000000" stroke-width="15px" stroke-linejoin="bevel"/>
<!-- Line -->
<polyline points=" 226,1261 224,1261 221,1260 215,1259 207,1256 198,1253 189,1249
 181,1245 174,1239 168,1233 162,1225 158,1216 154,1206 151,1194 149,1181 146,1167
 144,1152 143,1135 141,1116 140,1096 139,1074 138,1052 137,1029 137,1007 136,984
 136,961 136,939 136,918 136,898 136,879 136,861 136,845 136,828 137,811 138,794
 139,778 140,762 143,746 145,730 149,716 153,702 158,689 163,677 170,665 177,655
 185,646 194,638 204,631 216,624 230,617 245,612 261,607 279,604 297,602 316,600
 335,601 354,602 372,605 389,609 405,614 419,620 432,628 442,636 451,646 459,659
 464,673 468,689 471,707 473,726 474,746 475,766 475,786 477,806 479,825 483,843
 488,859 494,873 504,886 512,895 523,902 535,909 548,915 563,920 579,924 596,927
 613,929 631,929 649,929 666,927 683,924 699,920 714,915 727,909 739,902 750,895
 759,886 768,873 774,859 779,843 783,825 785,806 787,786 787,766 788,746 789,726
 791,707 794,689 798,673 803,659 811,646 818,637 827,630 838,623 850,617 863,612
 877,608 893,605 909,604 925,604 942,605 958,607 974,610 989,615 1004,621 1017,627
 1029,635 1040,644 1050,654 1059,664 1066,677 1073,690 1078,705 1083,721 1087,739
 1090,757 1092,777 1094,798 1095,819 1096,841 1096,863 1096,885 1096,907 1096,928
 1095,949 1095,970 1095,991 1095,1012 1095,1033 1096,1054 1096,1075 1097,1097
 1098,1119 1098,1141 1098,1163 1098,1185 1098,1206 1098,1227 1097,1246 1095,1264
 1093,1281 1091,1296 1088,1311 1084,1324 1080,1336 1074,1348 1068,1359 1060,1370
 1051,1379 1041,1388 1030,1396 1019,1403 1006,1409 993,1414 980,1418 966,1422
 953,1425 939,1428 926,1430 913,1431 900,1433 885,1434 870,1435 855,1436 839,1437
 822,1437 805,1438 789,1438 772,1438 755,1437 740,1437 724,1436 710,1435 696,1434
 683,1433 667,1431 652,1428 635,1426 617,1422 597,1418 575,1413 552,1408 530,1403
 512,1399 501,1396 496,1395 495,1395"
	stroke="#000000" stroke-width="15px" stroke-linejoin="bevel"/>
<!-- Text -->
<text xml:space="preserve" x="90" y="270" fill="#000000" font-family="Helvetica" font-style="normal" font-weight="normal" font-size="216" text-anchor="start">Tam O' Shanter</text>
<!-- Text -->
<text xml:space="preserve" x="2565" y="630" fill="#000000" font-family="Helvetica" font-style="normal" font-weight="bold" font-size="108" text-anchor="middle">2 3 4</text>
<!-- Text -->
<text xml:space="preserve" x="3465" y="1125" fill="#000000" font-family="Helvetica" font-style="normal" font-weight="bold" font-size="216" text-anchor="middle">Chase</text>
<!-- Text -->
<text xml:space="preserve" x="3465" y="630" fill="#000000" font-family="Helvetica" font-style="normal" font-weight="bold" font-size="108" text-anchor="middle">all</text>
<!-- Text -->
<text xml:space="preserve" x="3465" y="1350" fill="#000000" font-family="Helvetica" font-style="normal" font-weight="bold" font-size="108" text-anchor="middle">c'clockwise</text>
<!-- Text -->
<text xml:space="preserve" x="4770" y="270" fill="#000000" font-family="Helvetica" font-style="normal" font-weight="normal" font-size="168" text-anchor="end">Ann Malley</text>
<!-- Text -->
<text xml:space="preserve" x="5482" y="1170" fill="#000000" font-family="Helvetica" font-style="normal" font-weight="bold" font-size="216" text-anchor="middle">T</text>
</g>
</svg>
