<?xml version='1.0' encoding='utf-8' standalone='no'?>
<!DOCTYPE svg PUBLIC '-//W3C//DTD SVG 1.1//EN' 'http://www.w3.org/Graphics/SVG/1.1/DTD/svg11.dtd'>
<svg version="1.1" viewBox="-0.028 -0.352 470 106" xmlns='http://www.w3.org/2000/svg'>
<defs>
</defs>
<line fill="none" stroke="#000000" stroke-width="0.4514" stroke-miterlimit="10" x1="265.972" y1="57.648" x2="265.972" y2="55.736"/>
<line fill="none" stroke="#000000" stroke-width="0.4514" stroke-miterlimit="10" x1="254.722" y1="57.648" x2="254.722" y2="55.736"/>
<polyline fill="none" stroke="#000000" stroke-width="0.2835" stroke-miterlimit="10" points="263.493,52.648 260.472,54.648 
	257.454,52.65 "/>
<path fill-rule="evenodd" clip-rule="evenodd" stroke="#000000" stroke-width="0.2786" stroke-miterlimit="10" d="M386.82,44.252
	c0,0.472-0.383,0.854-0.854,0.854c-0.473,0-0.855-0.383-0.855-0.854s0.383-0.854,0.855-0.854
	C386.438,43.397,386.82,43.78,386.82,44.252L386.82,44.252z"/>
<path fill="none" stroke="#000000" stroke-width="0.5572" stroke-miterlimit="10" d="M388.422,44.322
	c0,1.395-1.133,2.526-2.525,2.526c-1.396,0-2.527-1.132-2.527-2.526c0-1.394,1.131-2.525,2.527-2.525
	C387.289,41.797,388.422,42.929,388.422,44.322L388.422,44.322z"/>
<path fill="#1A171B" d="M6.867,6.431h5.148c1.036,0,1.862,0.302,2.477,0.906c0.62,0.599,0.93,1.388,0.93,2.367
	c0,1.016-0.315,1.833-0.945,2.453c-0.625,0.614-1.44,0.922-2.445,0.922H8.422v4.852H6.867V6.431z M8.422,7.79v3.953H11.5
	c1.547,0,2.32-0.685,2.32-2.055c0-1.266-0.753-1.898-2.258-1.898H8.422z"/>
<path fill="#1A171B" d="M16.375,17.931l4.375-11.5h1.773l4.125,11.5h-1.695l-1.117-3.359h-4.648l-1.211,3.359H16.375z
	 M19.695,13.212h3.586l-1.703-5.117L19.695,13.212z"/>
<path fill="#1A171B" d="M36.25,13.728h1.508c-0.266,1.5-0.831,2.625-1.695,3.375c-0.865,0.75-1.977,1.125-3.336,1.125
	c-1.558,0-2.813-0.542-3.766-1.625c-0.953-1.089-1.43-2.563-1.43-4.422c0-1.839,0.484-3.305,1.453-4.398
	c0.974-1.099,2.292-1.648,3.953-1.648c1.255,0,2.292,0.313,3.109,0.938c0.823,0.62,1.352,1.558,1.586,2.813h-1.508
	c-0.401-1.594-1.466-2.391-3.195-2.391c-1.13,0-2.047,0.403-2.75,1.211c-0.698,0.808-1.047,1.979-1.047,3.516
	c0,1.417,0.313,2.547,0.938,3.391c0.625,0.839,1.555,1.258,2.789,1.258c0.896,0,1.627-0.266,2.195-0.797
	C35.627,15.535,36.026,14.754,36.25,13.728z"/>
<path fill="#1A171B" d="M39.016,12.181c0-1.729,0.495-3.169,1.484-4.32c0.995-1.151,2.372-1.727,4.133-1.727
	c1.75,0,3.122,0.583,4.117,1.75c0.995,1.161,1.492,2.563,1.492,4.203c0,1.808-0.495,3.284-1.484,4.43
	c-0.99,1.141-2.367,1.711-4.133,1.711c-1.651,0-3-0.542-4.047-1.625C39.536,15.514,39.016,14.04,39.016,12.181z M40.617,12.181
	c0,1.344,0.352,2.461,1.055,3.352c0.708,0.891,1.695,1.336,2.961,1.336c1.156,0,2.112-0.417,2.867-1.25
	c0.76-0.839,1.141-1.984,1.141-3.438c0-1.391-0.357-2.519-1.07-3.383c-0.714-0.87-1.695-1.305-2.945-1.305
	c-1.183,0-2.146,0.419-2.891,1.258C40.989,9.59,40.617,10.732,40.617,12.181z"/>
<path fill="#1A171B" d="M51.906,10.501V8.946c0-0.698,0.125-1.247,0.375-1.648c0.245-0.396,0.677-0.685,1.297-0.867v0.742
	c-0.568,0.104-0.852,0.648-0.852,1.633h0.805v1.695H51.906z"/>
<path fill="#1A171B" d="M56.586,14.228c0.083,1.761,1.167,2.641,3.25,2.641c0.953,0,1.677-0.161,2.172-0.484
	c0.495-0.328,0.742-0.839,0.742-1.531c0-0.442-0.138-0.81-0.414-1.102c-0.271-0.297-0.945-0.573-2.023-0.828l-2.375-0.531
	c-0.755-0.188-1.349-0.497-1.781-0.93c-0.433-0.438-0.648-1.044-0.648-1.82c0-1.058,0.352-1.906,1.055-2.547
	c0.708-0.641,1.719-0.961,3.031-0.961c1.203,0,2.2,0.284,2.992,0.852c0.797,0.567,1.229,1.492,1.297,2.773H62.43
	c-0.151-1.511-1.102-2.266-2.852-2.266c-0.766,0-1.386,0.167-1.859,0.5c-0.469,0.333-0.703,0.823-0.703,1.469
	c0,0.375,0.112,0.688,0.336,0.938c0.224,0.25,0.648,0.442,1.273,0.578l3.023,0.727c0.87,0.192,1.521,0.539,1.953,1.039
	c0.438,0.495,0.656,1.169,0.656,2.023c0,1.12-0.412,1.977-1.234,2.57c-0.823,0.594-1.945,0.891-3.367,0.891
	c-1.484,0-2.609-0.362-3.375-1.086s-1.148-1.695-1.148-2.914H56.586z"/>
<path fill="#1A171B" d="M69.75,6.431h1.672l2.18,9.391l2.648-9.391h1.695l2.648,9.391l2.133-9.391h1.719l-3,11.5H79.82l-2.703-9.523
	l-2.742,9.523H72.75L69.75,6.431z"/>
<path fill="#1A171B" d="M86.055,6.431h1.555v11.5h-1.555V6.431z"/>
<path fill="#1A171B" d="M95.219,13.095v-1.336h5.078v6.172h-1.016l-0.367-1.453c-0.365,0.479-0.875,0.891-1.531,1.234
	s-1.438,0.516-2.344,0.516c-1.537,0-2.792-0.558-3.766-1.672c-0.969-1.114-1.453-2.526-1.453-4.234c0-1.771,0.477-3.245,1.43-4.422
	s2.271-1.766,3.953-1.766c1.25,0,2.331,0.325,3.242,0.977c0.911,0.651,1.463,1.575,1.656,2.773h-1.508
	c-0.245-0.833-0.651-1.44-1.219-1.82c-0.563-0.38-1.269-0.57-2.117-0.57c-1.13,0-2.052,0.409-2.766,1.227
	c-0.714,0.817-1.07,1.995-1.07,3.531c0,1.433,0.313,2.56,0.938,3.383c0.63,0.823,1.594,1.234,2.891,1.234
	c1.047,0,1.906-0.308,2.578-0.922c0.677-0.62,1.016-1.57,1.016-2.852H95.219z"/>
<path fill="#1A171B" d="M107.664,13.095v-1.336h5.078v6.172h-1.016l-0.367-1.453c-0.365,0.479-0.875,0.891-1.531,1.234
	s-1.438,0.516-2.344,0.516c-1.537,0-2.792-0.558-3.766-1.672c-0.969-1.114-1.453-2.526-1.453-4.234c0-1.771,0.477-3.245,1.43-4.422
	s2.271-1.766,3.953-1.766c1.25,0,2.331,0.325,3.242,0.977c0.911,0.651,1.463,1.575,1.656,2.773h-1.508
	c-0.245-0.833-0.651-1.44-1.219-1.82c-0.563-0.38-1.269-0.57-2.117-0.57c-1.13,0-2.052,0.409-2.766,1.227
	c-0.714,0.817-1.07,1.995-1.07,3.531c0,1.433,0.313,2.56,0.938,3.383c0.63,0.823,1.594,1.234,2.891,1.234
	c1.047,0,1.906-0.308,2.578-0.922c0.677-0.62,1.016-1.57,1.016-2.852H107.664z"/>
<path fill="#1A171B" d="M115.148,6.431h1.555v10.141h5.875v1.359h-7.43V6.431z"/>
<path fill="#1A171B" d="M124.219,17.931v-11.5h8.43V7.79h-6.875v3.57h6.344v1.359h-6.344v3.852h7v1.359H124.219z"/>
<path fill="#1A171B" d="M138.203,6.431h1.672l2.18,9.391l2.648-9.391h1.695l2.648,9.391l2.133-9.391h1.719l-3,11.5h-1.625
	l-2.703-9.523l-2.742,9.523h-1.625L138.203,6.431z"/>
<path fill="#1A171B" d="M153.273,17.931l4.375-11.5h1.773l4.125,11.5h-1.695l-1.117-3.359h-4.648l-1.211,3.359H153.273z
	 M156.594,13.212h3.586l-1.703-5.117L156.594,13.212z"/>
<path fill="#1A171B" d="M169.898,13.095v-1.336h5.078v6.172h-1.016l-0.367-1.453c-0.365,0.479-0.875,0.891-1.531,1.234
	s-1.438,0.516-2.344,0.516c-1.537,0-2.792-0.558-3.766-1.672c-0.969-1.114-1.453-2.526-1.453-4.234c0-1.771,0.477-3.245,1.43-4.422
	s2.271-1.766,3.953-1.766c1.25,0,2.331,0.325,3.242,0.977c0.911,0.651,1.463,1.575,1.656,2.773h-1.508
	c-0.245-0.833-0.651-1.44-1.219-1.82c-0.563-0.38-1.269-0.57-2.117-0.57c-1.13,0-2.052,0.409-2.766,1.227
	c-0.714,0.817-1.07,1.995-1.07,3.531c0,1.433,0.313,2.56,0.938,3.383c0.63,0.823,1.594,1.234,2.891,1.234
	c1.047,0,1.906-0.308,2.578-0.922c0.677-0.62,1.016-1.57,1.016-2.852H169.898z"/>
<path fill="#1A171B" d="M182.344,13.095v-1.336h5.078v6.172h-1.016l-0.367-1.453c-0.365,0.479-0.875,0.891-1.531,1.234
	s-1.438,0.516-2.344,0.516c-1.537,0-2.792-0.558-3.766-1.672c-0.969-1.114-1.453-2.526-1.453-4.234c0-1.771,0.477-3.245,1.43-4.422
	s2.271-1.766,3.953-1.766c1.25,0,2.331,0.325,3.242,0.977c0.911,0.651,1.463,1.575,1.656,2.773h-1.508
	c-0.245-0.833-0.651-1.44-1.219-1.82c-0.563-0.38-1.269-0.57-2.117-0.57c-1.13,0-2.052,0.409-2.766,1.227
	c-0.714,0.817-1.07,1.995-1.07,3.531c0,1.433,0.313,2.56,0.938,3.383c0.63,0.823,1.594,1.234,2.891,1.234
	c1.047,0,1.906-0.308,2.578-0.922c0.677-0.62,1.016-1.57,1.016-2.852H182.344z"/>
<path fill="#1A171B" d="M189.828,6.431h1.555v10.141h5.875v1.359h-7.43V6.431z"/>
<path fill="#1A171B" d="M198.898,17.931v-11.5h8.43V7.79h-6.875v3.57h6.344v1.359h-6.344v3.852h7v1.359H198.898z"/>
<path fill="#1A171B" d="M212.883,6.431h1.672l2.18,9.391l2.648-9.391h1.695l2.648,9.391l2.133-9.391h1.719l-3,11.5h-1.625
	l-2.703-9.523l-2.742,9.523h-1.625L212.883,6.431z"/>
<path fill="#1A171B" d="M227.953,17.931l4.375-11.5h1.773l4.125,11.5h-1.695l-1.117-3.359h-4.648l-1.211,3.359H227.953z
	 M231.273,13.212h3.586l-1.703-5.117L231.273,13.212z"/>
<path fill="#1A171B" d="M239.617,6.431h1.555v10.141h5.875v1.359h-7.43V6.431z"/>
<path fill="#1A171B" d="M248.516,17.931v-11.5h1.555v5.57l5.617-5.57h2.133l-4.766,4.586l4.891,6.914h-2.016l-4.016-5.75
	l-1.844,1.711v4.039H248.516z"/>
<line fill="none" stroke="#000000" stroke-width="1.1112" stroke-miterlimit="10" x1="119.019" y1="25.647" x2="119.019" y2="92.133"/>
<path fill="#1A171B" d="M411.404,11.962c-1.011-0.442-1.516-1.177-1.516-2.203c0-0.917,0.308-1.664,0.922-2.242
	c0.62-0.583,1.45-0.875,2.492-0.875c0.979,0,1.8,0.269,2.461,0.805c0.667,0.531,1,1.258,1,2.18c0,1.094-0.477,1.867-1.43,2.32
	c1.203,0.599,1.805,1.521,1.805,2.766c0,1.016-0.339,1.854-1.016,2.516c-0.672,0.661-1.583,0.992-2.734,0.992
	c-1.125,0-2.052-0.3-2.781-0.898s-1.094-1.44-1.094-2.523C409.514,13.418,410.144,12.473,411.404,11.962z M411.014,14.759
	c0,0.636,0.2,1.161,0.602,1.578c0.401,0.411,0.995,0.617,1.781,0.617c0.698,0,1.245-0.195,1.641-0.586
	c0.401-0.391,0.602-0.894,0.602-1.508c0-0.667-0.2-1.198-0.602-1.594c-0.401-0.401-0.972-0.602-1.711-0.602
	c-0.672,0-1.227,0.19-1.664,0.57C411.229,13.61,411.014,14.118,411.014,14.759z M411.389,9.657c0,0.442,0.169,0.852,0.508,1.227
	c0.339,0.37,0.82,0.555,1.445,0.555c0.542,0,0.997-0.164,1.367-0.492s0.555-0.771,0.555-1.328c0-0.547-0.192-0.969-0.578-1.266
	c-0.38-0.297-0.859-0.445-1.438-0.445c-0.552,0-1,0.153-1.344,0.461C411.561,8.67,411.389,9.1,411.389,9.657z"/>
<path fill="#1A171B" d="M417.975,17.931l2.906-4.352l-2.75-4.023h1.805l1.906,2.914l1.898-2.914h1.734l-2.797,4.023l2.906,4.352
	h-1.781l-2.063-3.141l-1.984,3.141H417.975z"/>
<path fill="#1A171B" d="M427.795,14.47c0.016,0.808,0.211,1.425,0.586,1.852c0.38,0.422,0.977,0.633,1.789,0.633
	c0.683,0,1.266-0.183,1.75-0.547c0.489-0.37,0.734-0.911,0.734-1.625c0-0.62-0.208-1.109-0.625-1.469s-1.042-0.539-1.875-0.539
	c-0.177,0-0.448,0.008-0.813,0.023v-1.227c0.359,0.026,0.583,0.039,0.672,0.039c1.469,0,2.203-0.612,2.203-1.836
	c0-0.567-0.185-1.021-0.555-1.359c-0.364-0.339-0.867-0.508-1.508-0.508c-0.698,0-1.222,0.195-1.57,0.586s-0.547,0.981-0.594,1.773
	h-1.383c0.005-1.141,0.31-2.028,0.914-2.664c0.609-0.641,1.519-0.961,2.727-0.961c1.047,0,1.886,0.278,2.516,0.836
	c0.636,0.552,0.953,1.284,0.953,2.195c0,1.203-0.492,1.987-1.477,2.352c0.714,0.255,1.211,0.599,1.492,1.031
	c0.281,0.427,0.422,0.956,0.422,1.586c0,1.063-0.359,1.925-1.078,2.586s-1.683,0.992-2.891,0.992c-1.104,0-1.997-0.276-2.68-0.828
	c-0.677-0.558-1.065-1.531-1.164-2.922H427.795z"/>
<path fill="#1A171B" d="M435.881,15.188c0.433-0.661,1.023-1.208,1.773-1.641l2.289-1.359c0.521-0.308,0.888-0.625,1.102-0.953
	c0.214-0.333,0.32-0.737,0.32-1.211c0-0.651-0.206-1.167-0.617-1.547c-0.406-0.38-0.958-0.57-1.656-0.57
	c-0.781,0-1.349,0.231-1.703,0.695c-0.349,0.458-0.55,1.138-0.602,2.039h-1.383c0-1.198,0.315-2.164,0.945-2.898
	s1.597-1.102,2.898-1.102c1.052,0,1.917,0.305,2.594,0.914c0.683,0.604,1.023,1.43,1.023,2.477c0,0.703-0.161,1.305-0.484,1.805
	c-0.323,0.495-0.82,0.93-1.492,1.305l-1.906,1.109c-0.672,0.396-1.183,0.766-1.531,1.109c-0.344,0.339-0.594,0.755-0.75,1.25h6.164
	v1.32h-7.75C435.193,16.759,435.448,15.845,435.881,15.188z"/>
<path fill="#1A171B" d="M458.936,17.931h-1.914c-0.177-0.755-0.266-1.651-0.266-2.688c0-0.833-0.153-1.411-0.461-1.734
	c-0.308-0.328-0.828-0.492-1.563-0.492h-3.734v4.914h-1.555v-11.5h5.305c1.255,0,2.192,0.258,2.813,0.773
	c0.625,0.511,0.938,1.302,0.938,2.375c0,1.25-0.534,2.161-1.602,2.734c0.469,0.188,0.808,0.438,1.016,0.75s0.325,0.841,0.352,1.586
	l0.086,1.875c0.011,0.208,0.039,0.417,0.086,0.625c0.047,0.203,0.214,0.378,0.5,0.523V17.931z M456.896,9.712
	c0-0.661-0.177-1.146-0.531-1.453c-0.349-0.313-0.854-0.469-1.516-0.469h-3.852v3.93h3.57
	C456.12,11.72,456.896,11.051,456.896,9.712z"/>
<path fill="none" stroke="#000000" stroke-width="1.1339" stroke-miterlimit="10" d="M0.567,0.567h468.04v91.581H0.567V0.567z"/>
<line fill="none" stroke="#000000" stroke-width="1.1339" stroke-miterlimit="10" x1="0.067" y1="26.146" x2="468.106" y2="26.146"/>
<line fill="none" stroke="#000000" stroke-width="1.1019" stroke-miterlimit="10" x1="230.353" y1="26.854" x2="230.353" y2="92.231"/>
<path d="M349.471,70.265c0.067,1.261,0.891,1.891,2.469,1.891c1.521,0,2.281-0.487,2.281-1.461c0-0.62-0.534-1.06-1.602-1.32
	l-2.82-0.719c-0.864-0.208-1.5-0.56-1.906-1.055s-0.609-1.153-0.609-1.977c0-1.052,0.378-1.911,1.133-2.578s1.847-1,3.273-1
	c1.313,0,2.364,0.32,3.156,0.961s1.229,1.57,1.313,2.789h-2.313c-0.172-1.177-0.938-1.766-2.297-1.766
	c-0.62,0-1.114,0.12-1.484,0.359c-0.364,0.239-0.547,0.567-0.547,0.984c0,0.302,0.094,0.555,0.281,0.758
	c0.192,0.203,0.5,0.356,0.922,0.461l2.797,0.688c1.151,0.276,1.94,0.664,2.367,1.164c0.433,0.5,0.648,1.153,0.648,1.961
	c0,1.109-0.396,2.011-1.188,2.703c-0.786,0.688-1.93,1.031-3.43,1.031c-1.401,0-2.544-0.328-3.43-0.984
	c-0.886-0.661-1.328-1.625-1.328-2.891H349.471z"/>
<path d="M357.833,75.647c0.273-0.439,0.799-0.945,1.576-1.519c0.645-0.472,1.049-0.828,1.211-1.069
	c0.163-0.241,0.244-0.49,0.244-0.747c0-0.286-0.082-0.53-0.248-0.732c-0.163-0.205-0.409-0.308-0.738-0.308
	c-0.357,0-0.608,0.112-0.752,0.337c-0.143,0.225-0.215,0.555-0.215,0.991h-1.4v-0.205c0-0.618,0.193-1.155,0.58-1.611
	c0.391-0.456,0.973-0.684,1.744-0.684c0.677,0,1.251,0.192,1.723,0.576c0.473,0.381,0.709,0.928,0.709,1.641
	c0,0.485-0.117,0.908-0.352,1.27c-0.231,0.358-0.69,0.774-1.377,1.25c-0.752,0.521-1.2,0.894-1.344,1.118h3.072V77.2h-4.844
	C357.423,76.604,357.56,76.086,357.833,75.647z"/>
<path fill="#1A171B" d="M392.18,101.425c0.009,0.455,0.119,0.802,0.33,1.042c0.213,0.237,0.549,0.356,1.006,0.356
	c0.384,0,0.712-0.103,0.984-0.309c0.275-0.207,0.413-0.512,0.413-0.914c0-0.348-0.117-0.623-0.352-0.826
	c-0.234-0.201-0.586-0.303-1.055-0.303c-0.1,0-0.252,0.004-0.457,0.014v-0.69c0.202,0.015,0.328,0.022,0.378,0.022
	c0.826,0,1.239-0.345,1.239-1.033c0-0.319-0.104-0.574-0.312-0.765c-0.206-0.19-0.488-0.286-0.849-0.286
	c-0.393,0-0.688,0.11-0.884,0.33s-0.307,0.553-0.334,0.998h-0.777c0.003-0.643,0.174-1.142,0.514-1.499
	c0.344-0.36,0.854-0.54,1.534-0.54c0.589,0,1.061,0.156,1.415,0.47c0.357,0.311,0.536,0.723,0.536,1.235
	c0,0.676-0.276,1.117-0.831,1.322c0.401,0.144,0.682,0.337,0.84,0.58c0.158,0.24,0.237,0.538,0.237,0.893
	c0,0.598-0.202,1.082-0.606,1.454s-0.946,0.558-1.626,0.558c-0.621,0-1.124-0.155-1.507-0.465c-0.382-0.313-0.6-0.861-0.655-1.645
	H392.18z"/>
<path fill="#1A171B" d="M401.36,101.008h0.849c-0.15,0.844-0.468,1.477-0.954,1.898s-1.112,0.633-1.876,0.633
	c-0.877,0-1.582-0.305-2.119-0.914c-0.535-0.612-0.804-1.441-0.804-2.487c0-1.034,0.272-1.859,0.817-2.475
	c0.548-0.617,1.289-0.927,2.224-0.927c0.706,0,1.289,0.176,1.749,0.527c0.463,0.349,0.76,0.876,0.893,1.582h-0.849
	c-0.226-0.896-0.825-1.345-1.798-1.345c-0.636,0-1.15,0.228-1.547,0.682c-0.393,0.454-0.588,1.113-0.588,1.977
	c0,0.798,0.176,1.434,0.527,1.908c0.352,0.472,0.874,0.707,1.568,0.707c0.504,0,0.915-0.149,1.234-0.448
	C401.01,102.025,401.234,101.585,401.36,101.008z"/>
<path fill="#1A171B" d="M402.411,103.54l2.215-6.803h0.598l-2.215,6.803H402.411z"/>
<path fill="#1A171B" d="M405.285,101.066l2.931-3.978h0.655v4.048h0.927v0.689h-0.927v1.547h-0.791v-1.547h-2.795V101.066z
	 M406.027,101.136h2.053v-2.861L406.027,101.136z"/>
<path fill="#1A171B" d="M415.366,101.008h0.849c-0.15,0.844-0.468,1.477-0.954,1.898s-1.112,0.633-1.876,0.633
	c-0.877,0-1.582-0.305-2.119-0.914c-0.535-0.612-0.804-1.441-0.804-2.487c0-1.034,0.272-1.859,0.817-2.475
	c0.548-0.617,1.289-0.927,2.224-0.927c0.706,0,1.289,0.176,1.749,0.527c0.463,0.349,0.76,0.876,0.893,1.582h-0.849
	c-0.226-0.896-0.825-1.345-1.798-1.345c-0.636,0-1.15,0.228-1.547,0.682c-0.393,0.454-0.588,1.113-0.588,1.977
	c0,0.798,0.176,1.434,0.527,1.908c0.352,0.472,0.874,0.707,1.568,0.707c0.504,0,0.915-0.149,1.234-0.448
	C415.016,102.025,415.24,101.585,415.366,101.008z"/>
<path fill="#1A171B" d="M419.673,103.373v-6.469h0.791v6.469H419.673z"/>
<path fill="#1A171B" d="M421.374,101.035c0-0.747,0.2-1.354,0.603-1.819c0.4-0.469,0.934-0.703,1.6-0.703
	c0.641,0,1.168,0.228,1.582,0.681c0.412,0.455,0.619,1.063,0.619,1.824c0,0.718-0.199,1.315-0.598,1.793
	c-0.398,0.475-0.928,0.712-1.586,0.712c-0.648,0-1.18-0.229-1.596-0.686C421.582,102.376,421.374,101.776,421.374,101.035z
	 M422.191,101.017c0,0.513,0.119,0.942,0.355,1.287c0.24,0.347,0.583,0.52,1.029,0.52c0.387,0,0.713-0.151,0.979-0.453
	c0.27-0.305,0.404-0.756,0.404-1.354c0-0.513-0.117-0.941-0.352-1.287s-0.579-0.52-1.032-0.52c-0.411,0-0.745,0.156-1.002,0.467
	C422.318,99.988,422.191,100.434,422.191,101.017z"/>
<path fill="#1A171B" d="M426.652,103.373v-4.711h0.742v0.694c0.396-0.563,0.893-0.844,1.49-0.844c0.504,0,0.894,0.149,1.169,0.448
	c0.275,0.296,0.413,0.697,0.413,1.204v3.208h-0.791v-2.927c0-0.475-0.084-0.798-0.25-0.972c-0.165-0.176-0.409-0.264-0.734-0.264
	c-0.369,0-0.67,0.139-0.9,0.414c-0.232,0.275-0.348,0.663-0.348,1.164v2.584H426.652z"/>
<path fill="#1A171B" d="M431.579,103.909h0.791c0.103,0.478,0.458,0.716,1.067,0.716c0.442,0,0.775-0.112,0.998-0.338
	s0.334-0.606,0.334-1.143v-0.313c-0.284,0.461-0.714,0.69-1.287,0.69c-0.619,0-1.114-0.237-1.486-0.712s-0.558-1.111-0.558-1.912
	c0-0.688,0.171-1.258,0.515-1.709c0.342-0.451,0.818-0.677,1.428-0.677c0.319,0,0.59,0.067,0.813,0.202
	c0.223,0.132,0.432,0.338,0.625,0.619v-0.672h0.742v4.289c0,0.882-0.185,1.497-0.554,1.846c-0.369,0.346-0.905,0.519-1.608,0.519
	c-0.498,0-0.908-0.107-1.23-0.321C431.849,104.777,431.652,104.416,431.579,103.909z M432.256,100.933
	c0,0.593,0.111,1.055,0.334,1.389c0.226,0.334,0.536,0.502,0.932,0.502c0.407,0,0.722-0.151,0.945-0.453
	c0.225-0.302,0.338-0.725,0.338-1.27c0-1.26-0.436-1.891-1.305-1.891C432.67,99.21,432.256,99.786,432.256,100.933z"/>
<path fill="#1A171B" d="M436.207,98.662h0.865l0.879,3.735l0.928-3.735h0.879l0.953,3.735l0.928-3.735h0.791l-1.336,4.711h-0.817
	l-0.989-3.66l-0.927,3.66h-0.817L436.207,98.662z"/>
<path fill="#1A171B" d="M443.19,96.913h0.791v0.905h-0.791V96.913z M443.19,98.662h0.791v4.711h-0.791V98.662z"/>
<path fill="#1A171B" d="M445.635,101.905c0.022,0.612,0.429,0.919,1.217,0.919c0.343,0,0.612-0.066,0.809-0.198
	c0.199-0.135,0.299-0.321,0.299-0.558c0-0.17-0.066-0.305-0.197-0.404c-0.133-0.091-0.379-0.182-0.738-0.273l-0.924-0.229
	c-0.729-0.176-1.094-0.563-1.094-1.164c0-0.431,0.155-0.785,0.466-1.063c0.313-0.281,0.761-0.422,1.341-0.422
	c0.506,0,0.919,0.122,1.238,0.364c0.319,0.244,0.498,0.614,0.537,1.112h-0.778c-0.038-0.519-0.395-0.778-1.067-0.778
	c-0.64,0-0.959,0.225-0.959,0.673c0,0.196,0.075,0.334,0.225,0.413c0.149,0.076,0.358,0.146,0.629,0.211l0.781,0.197
	c0.478,0.123,0.816,0.277,1.016,0.462c0.202,0.193,0.303,0.457,0.303,0.791c0,0.463-0.165,0.839-0.496,1.13
	c-0.328,0.289-0.805,0.435-1.428,0.435c-0.578,0-1.041-0.122-1.389-0.364c-0.35-0.243-0.538-0.661-0.567-1.253H445.635z"/>
<path fill="#1A171B" d="M450.262,101.263c0,0.492,0.111,0.876,0.334,1.151c0.226,0.272,0.563,0.409,1.011,0.409
	c0.319-0.003,0.598-0.094,0.835-0.273c0.24-0.181,0.383-0.396,0.426-0.646h0.778c-0.103,0.495-0.325,0.89-0.668,1.183
	c-0.343,0.289-0.793,0.435-1.349,0.435c-0.663,0-1.193-0.208-1.592-0.624c-0.395-0.416-0.593-1.017-0.593-1.802
	c0-0.759,0.193-1.378,0.58-1.858c0.39-0.484,0.935-0.726,1.635-0.726c0.659,0,1.16,0.228,1.503,0.681
	c0.346,0.452,0.527,1.142,0.545,2.07H450.262z M450.262,100.639h2.628c-0.056-0.524-0.19-0.894-0.404-1.107s-0.504-0.321-0.87-0.321
	c-0.387,0-0.703,0.133-0.949,0.396C450.42,99.868,450.285,100.211,450.262,100.639z"/>
<path fill="#1A171B" d="M457.641,101.905c0.022,0.612,0.429,0.919,1.217,0.919c0.343,0,0.612-0.066,0.809-0.198
	c0.199-0.135,0.299-0.321,0.299-0.558c0-0.17-0.066-0.305-0.197-0.404c-0.133-0.091-0.379-0.182-0.738-0.273l-0.924-0.229
	c-0.729-0.176-1.094-0.563-1.094-1.164c0-0.431,0.155-0.785,0.466-1.063c0.313-0.281,0.761-0.422,1.341-0.422
	c0.506,0,0.919,0.122,1.238,0.364c0.319,0.244,0.498,0.614,0.537,1.112h-0.778c-0.038-0.519-0.395-0.778-1.067-0.778
	c-0.64,0-0.959,0.225-0.959,0.673c0,0.196,0.075,0.334,0.225,0.413c0.149,0.076,0.358,0.146,0.629,0.211l0.781,0.197
	c0.478,0.123,0.816,0.277,1.016,0.462c0.202,0.193,0.303,0.457,0.303,0.791c0,0.463-0.165,0.839-0.496,1.13
	c-0.328,0.289-0.805,0.435-1.428,0.435c-0.578,0-1.041-0.122-1.389-0.364c-0.35-0.243-0.538-0.661-0.567-1.253H457.641z"/>
<path fill="#1A171B" d="M462.268,101.263c0,0.492,0.111,0.876,0.334,1.151c0.226,0.272,0.563,0.409,1.011,0.409
	c0.319-0.003,0.598-0.094,0.835-0.273c0.24-0.181,0.383-0.396,0.426-0.646h0.778c-0.103,0.495-0.325,0.89-0.668,1.183
	c-0.343,0.289-0.793,0.435-1.349,0.435c-0.663,0-1.193-0.208-1.592-0.624c-0.395-0.416-0.593-1.017-0.593-1.802
	c0-0.759,0.193-1.378,0.58-1.858c0.39-0.484,0.935-0.726,1.635-0.726c0.659,0,1.16,0.228,1.503,0.681
	c0.346,0.452,0.527,1.142,0.545,2.07H462.268z M462.268,100.639h2.628c-0.056-0.524-0.19-0.894-0.404-1.107s-0.504-0.321-0.87-0.321
	c-0.387,0-0.703,0.133-0.949,0.396C462.426,99.868,462.291,100.211,462.268,100.639z"/>
<path fill="#1A171B" d="M466.223,99.321v-0.659h0.643v-1.336h0.791v1.336h0.773v0.659h-0.773v3.059c0,0.252,0.159,0.378,0.479,0.378
	h0.277v0.629c-0.297,0.04-0.518,0.061-0.664,0.061c-0.589,0-0.883-0.338-0.883-1.015v-3.111H466.223z"/>
<path fill="#1A171B" d="M4.551,102.437l1.871-5.533h0.984l-2.391,6.469H4.089l-2.391-6.469h0.967L4.551,102.437z"/>
<path fill="#1A171B" d="M8.097,96.913h0.791v0.905H8.097V96.913z M8.097,98.662h0.791v4.711H8.097V98.662z"/>
<path fill="#1A171B" d="M10.097,103.373v-6.469h0.791v3.744l2.021-1.986h1.002l-1.793,1.749l1.903,2.962h-1.016l-1.459-2.391
	l-0.659,0.682v1.709H10.097z"/>
<path fill="#1A171B" d="M14.117,99.321v-0.659h0.643v-1.336h0.791v1.336h0.773v0.659h-0.773v3.059c0,0.252,0.159,0.378,0.479,0.378
	h0.277v0.629c-0.297,0.04-0.518,0.061-0.664,0.061c-0.589,0-0.883-0.338-0.883-1.015v-3.111H14.117z"/>
<path fill="#1A171B" d="M16.798,101.035c0-0.747,0.2-1.354,0.603-1.819c0.4-0.469,0.934-0.703,1.6-0.703
	c0.641,0,1.168,0.228,1.582,0.681c0.412,0.455,0.619,1.063,0.619,1.824c0,0.718-0.199,1.315-0.598,1.793
	c-0.398,0.475-0.928,0.712-1.586,0.712c-0.648,0-1.18-0.229-1.596-0.686C17.006,102.376,16.798,101.776,16.798,101.035z
	 M17.615,101.017c0,0.513,0.119,0.942,0.355,1.287c0.24,0.347,0.583,0.52,1.029,0.52c0.387,0,0.713-0.151,0.979-0.453
	c0.27-0.305,0.404-0.756,0.404-1.354c0-0.513-0.117-0.941-0.352-1.287S19.453,99.21,19,99.21c-0.411,0-0.745,0.156-1.002,0.467
	C17.742,99.988,17.615,100.434,17.615,101.017z"/>
<path fill="#1A171B" d="M22.19,103.373v-4.711h0.743v0.787c0.216-0.361,0.426-0.607,0.628-0.738
	c0.205-0.133,0.438-0.198,0.698-0.198c0.053,0,0.119,0.011,0.198,0.03v0.813h-0.299c-0.349,0-0.633,0.125-0.853,0.374
	c-0.217,0.249-0.325,0.548-0.325,0.896v2.746H22.19z"/>
<path fill="#1A171B" d="M27.676,96.904h0.874v5.704h3.305v0.765h-4.179V96.904z"/>
<path fill="#1A171B" d="M33.178,101.263c0,0.492,0.111,0.876,0.334,1.151c0.226,0.272,0.563,0.409,1.011,0.409
	c0.319-0.003,0.598-0.094,0.835-0.273c0.24-0.181,0.383-0.396,0.426-0.646h0.778c-0.103,0.495-0.325,0.89-0.668,1.183
	c-0.343,0.289-0.793,0.435-1.349,0.435c-0.663,0-1.193-0.208-1.592-0.624c-0.395-0.416-0.593-1.017-0.593-1.802
	c0-0.759,0.193-1.378,0.58-1.858c0.39-0.484,0.935-0.726,1.635-0.726c0.659,0,1.16,0.228,1.503,0.681
	c0.346,0.452,0.527,1.142,0.545,2.07H33.178z M33.178,100.639h2.628c-0.056-0.524-0.19-0.894-0.404-1.107s-0.504-0.321-0.87-0.321
	c-0.387,0-0.703,0.133-0.949,0.396C33.336,99.868,33.201,100.211,33.178,100.639z"/>
<path fill="#1A171B" d="M37.586,96.904h0.791v2.382c0.354-0.516,0.835-0.773,1.441-0.773c0.504,0,0.894,0.149,1.169,0.448
	c0.275,0.296,0.413,0.697,0.413,1.204v3.208h-0.791v-3.107c0-0.389-0.076-0.661-0.229-0.816c-0.152-0.158-0.384-0.238-0.694-0.238
	c-0.413,0-0.735,0.134-0.967,0.4c-0.229,0.264-0.343,0.656-0.343,1.178v2.584h-0.791V96.904z"/>
<path fill="#1A171B" d="M42.592,98.662h0.742v0.694c0.401-0.563,0.881-0.844,1.438-0.844c0.548,0,0.958,0.258,1.23,0.773
	c0.39-0.516,0.853-0.773,1.389-0.773c0.434,0,0.788,0.138,1.063,0.413s0.413,0.67,0.413,1.182v3.266h-0.791V100.3
	c0-0.726-0.277-1.09-0.83-1.09c-0.294,0-0.555,0.115-0.783,0.344c-0.226,0.226-0.338,0.534-0.338,0.927v2.892h-0.791v-3.283
	c0-0.585-0.245-0.879-0.734-0.879c-0.354,0-0.646,0.136-0.874,0.404c-0.229,0.271-0.343,0.661-0.343,1.174v2.584h-0.791V98.662z"/>
<path fill="#1A171B" d="M50.066,100.059c0.023-1.031,0.655-1.547,1.895-1.547c0.521,0,0.947,0.114,1.279,0.343
	c0.334,0.229,0.5,0.556,0.5,0.98v2.742c0,0.111,0.021,0.186,0.063,0.224c0.04,0.038,0.104,0.058,0.188,0.058
	c0.053,0,0.142-0.014,0.269-0.04v0.575c-0.193,0.059-0.347,0.088-0.457,0.088c-0.276,0-0.475-0.061-0.598-0.184
	c-0.121-0.123-0.189-0.305-0.207-0.545c-0.448,0.513-1.005,0.769-1.67,0.769c-0.396,0-0.744-0.116-1.046-0.347
	c-0.302-0.234-0.452-0.583-0.452-1.047c0-0.846,0.473-1.331,1.419-1.454l1.235-0.163c0.187-0.022,0.313-0.078,0.377-0.166
	c0.067-0.088,0.102-0.222,0.102-0.4c0-0.516-0.359-0.773-1.076-0.773c-0.369,0-0.632,0.074-0.787,0.225
	c-0.155,0.148-0.257,0.37-0.303,0.663H50.066z M52.949,100.968c-0.12,0.095-0.366,0.169-0.738,0.225
	c-0.372,0.053-0.561,0.079-0.566,0.079c-0.665,0.091-0.998,0.354-0.998,0.791c0,0.533,0.284,0.8,0.854,0.8
	c0.374,0,0.71-0.105,1.006-0.316s0.443-0.478,0.443-0.8V100.968z"/>
<path fill="#1A171B" d="M55.094,103.373v-4.711h0.742v0.694c0.396-0.563,0.893-0.844,1.49-0.844c0.504,0,0.894,0.149,1.169,0.448
	c0.275,0.296,0.413,0.697,0.413,1.204v3.208h-0.791v-2.927c0-0.475-0.084-0.798-0.25-0.972c-0.165-0.176-0.409-0.264-0.734-0.264
	c-0.369,0-0.67,0.139-0.9,0.414c-0.232,0.275-0.348,0.663-0.348,1.164v2.584H55.094z"/>
<path fill="#1A171B" d="M60.1,103.373v-4.711h0.742v0.694c0.396-0.563,0.893-0.844,1.49-0.844c0.504,0,0.894,0.149,1.169,0.448
	c0.275,0.296,0.413,0.697,0.413,1.204v3.208h-0.791v-2.927c0-0.475-0.084-0.798-0.25-0.972c-0.165-0.176-0.409-0.264-0.734-0.264
	c-0.369,0-0.67,0.139-0.9,0.414c-0.232,0.275-0.348,0.663-0.348,1.164v2.584H60.1z"/>
<path fill="#1A171B" d="M65.316,104.291c0.311-0.047,0.471-0.353,0.479-0.918h-0.479v-0.984h0.94v0.896
	c0,0.82-0.313,1.295-0.94,1.424V104.291z"/>
<path fill="#1A171B" d="M70.193,101.83c0.243-0.371,0.576-0.679,0.998-0.922l1.287-0.766c0.293-0.172,0.499-0.352,0.619-0.535
	c0.12-0.188,0.181-0.415,0.181-0.682c0-0.366-0.116-0.656-0.347-0.87c-0.229-0.214-0.54-0.321-0.932-0.321
	c-0.439,0-0.76,0.131-0.959,0.392c-0.196,0.258-0.309,0.641-0.338,1.147h-0.777c0-0.674,0.177-1.218,0.531-1.631
	s0.897-0.619,1.631-0.619c0.591,0,1.077,0.171,1.459,0.514c0.383,0.34,0.575,0.805,0.575,1.393c0,0.396-0.091,0.734-0.272,1.016
	c-0.182,0.278-0.461,0.523-0.84,0.734l-1.072,0.623c-0.377,0.224-0.665,0.432-0.861,0.625c-0.193,0.19-0.334,0.425-0.422,0.703
	h3.468v0.742h-4.359C69.807,102.713,69.95,102.199,70.193,101.83z"/>
<path fill="#1A171B" d="M74.865,100.305c0-1.008,0.185-1.806,0.554-2.396c0.372-0.591,0.92-0.887,1.644-0.887
	c0.662,0,1.188,0.271,1.578,0.816c0.389,0.543,0.584,1.347,0.584,2.413c0,1.02-0.184,1.822-0.549,2.408
	c-0.367,0.583-0.91,0.874-1.631,0.874c-0.665,0-1.195-0.271-1.591-0.813C75.062,102.18,74.865,101.375,74.865,100.305z
	 M75.709,100.279c0,1.696,0.442,2.545,1.327,2.545c0.896,0,1.345-0.849,1.345-2.545s-0.445-2.545-1.336-2.545
	S75.709,98.583,75.709,100.279z"/>
<path fill="#1A171B" d="M80.451,98.284c0.574-0.023,0.971-0.118,1.191-0.286c0.222-0.166,0.392-0.47,0.51-0.909h0.619v6.284h-0.844
	v-4.456h-1.477V98.284z"/>
<path fill="#1A171B" d="M85,101.847h0.777c0.08,0.65,0.447,0.977,1.104,0.977c0.498,0,0.873-0.231,1.125-0.695
	c0.252-0.465,0.396-1.018,0.436-1.656c-0.281,0.519-0.786,0.777-1.512,0.777c-0.598,0-1.082-0.187-1.451-0.563
	c-0.369-0.374-0.553-0.869-0.553-1.484c0-0.65,0.191-1.177,0.575-1.578c0.387-0.401,0.899-0.602,1.538-0.602
	c1.497,0,2.246,0.975,2.246,2.926c0,1.059-0.203,1.921-0.607,2.589c-0.401,0.665-0.997,0.997-1.788,0.997
	c-0.557,0-1.004-0.148-1.341-0.447S85.029,102.375,85,101.847z M85.77,99.189c0,0.899,0.424,1.35,1.273,1.35
	c0.379,0,0.685-0.119,0.919-0.356c0.237-0.24,0.356-0.596,0.356-1.067c0-0.419-0.11-0.753-0.33-1.002
	c-0.217-0.252-0.531-0.379-0.945-0.379c-0.387,0-0.695,0.131-0.927,0.392S85.77,98.741,85.77,99.189z"/>
<path d="M9.077,70.265c0.067,1.261,0.891,1.891,2.469,1.891c1.521,0,2.281-0.487,2.281-1.461c0-0.62-0.534-1.06-1.602-1.32
	l-2.82-0.719c-0.864-0.208-1.5-0.56-1.906-1.055S6.89,66.448,6.89,65.625c0-1.052,0.378-1.911,1.133-2.578s1.847-1,3.273-1
	c1.313,0,2.364,0.32,3.156,0.961s1.229,1.57,1.313,2.789h-2.313c-0.172-1.177-0.938-1.766-2.297-1.766
	c-0.62,0-1.114,0.12-1.484,0.359c-0.364,0.239-0.547,0.567-0.547,0.984c0,0.302,0.094,0.555,0.281,0.758
	c0.192,0.203,0.5,0.356,0.922,0.461l2.797,0.688c1.151,0.276,1.94,0.664,2.367,1.164c0.433,0.5,0.648,1.153,0.648,1.961
	c0,1.109-0.396,2.011-1.188,2.703c-0.786,0.688-1.93,1.031-3.43,1.031c-1.401,0-2.544-0.328-3.43-0.984
	c-0.886-0.661-1.328-1.625-1.328-2.891H9.077z"/>
<path fill="none" stroke="#000000" stroke-width="0.5572" stroke-miterlimit="10" d="M21.717,70.318
	c-0.088-0.396-0.133-0.801-0.133-1.207c0-3.031,2.459-5.49,5.49-5.49c3.029,0,5.488,2.459,5.488,5.49
	c0,1.018-0.281,2.014-0.814,2.879"/>
<polygon fill-rule="evenodd" clip-rule="evenodd" stroke="#000000" stroke-width="0.2786" stroke-miterlimit="10" points="
	31.241,67.384 32.059,71.917 33.469,67.533 31.241,67.384 "/>
<path d="M24.466,67.076c0.702,0,1.196-0.115,1.483-0.348s0.449-0.52,0.485-0.861h1.16v7.119H26.19V68.06h-1.724V67.076z"/>
<polyline fill="none" stroke="#000000" stroke-width="0.2835" stroke-linejoin="bevel" stroke-miterlimit="10" points="
	48.216,35.471 48.25,35.438 48.35,35.337 48.618,35.102 48.92,34.8 49.223,34.565 49.492,34.33 49.728,34.129 49.996,33.961 
	50.164,33.859 50.365,33.725 50.6,33.624 50.902,33.49 51.272,33.389 51.709,33.322 52.179,33.221 52.75,33.187 53.389,33.154 
	54.126,33.154 54.9,33.154 55.773,33.221 56.344,33.255 56.982,33.288 57.62,33.355 58.325,33.422 59.098,33.49 59.871,33.557 
	60.711,33.658 61.55,33.759 62.424,33.827 63.298,33.926 64.17,34.028 65.042,34.096 65.883,34.163 66.688,34.264 67.462,34.297 
	68.201,34.364 68.873,34.398 69.511,34.431 70.081,34.465 70.653,34.465 71.459,34.431 72.164,34.398 72.803,34.33 73.34,34.197 
	73.81,34.096 74.213,33.961 74.549,33.827 74.818,33.725 75.019,33.591 75.187,33.523 75.288,33.49 75.422,33.456 75.556,33.49 
	75.657,33.523 75.825,33.591 76.027,33.725 76.296,33.827 76.632,33.961 77.035,34.096 77.504,34.197 78.042,34.33 78.681,34.398 
	79.385,34.431 80.226,34.465 80.762,34.465 81.334,34.431 81.972,34.398 82.644,34.364 83.383,34.297 84.155,34.264 84.961,34.163 
	85.801,34.096 86.674,34.028 87.547,33.926 88.421,33.827 89.294,33.759 90.133,33.658 90.974,33.557 91.746,33.49 92.52,33.422 
	93.224,33.355 93.862,33.288 94.501,33.255 95.071,33.221 95.945,33.154 96.717,33.154 97.456,33.154 98.095,33.187 98.665,33.221 
	99.135,33.322 99.571,33.389 99.942,33.49 100.244,33.624 100.479,33.725 100.68,33.859 100.881,33.961 101.117,34.129 
	101.353,34.33 101.622,34.565 101.923,34.8 102.225,35.102 102.493,35.337 102.595,35.438 102.629,35.471 "/>
<rect x="89.35" y="36.542" fill="none" stroke="#000000" stroke-width="0.4645" stroke-miterlimit="10" width="8.363" height="8.36"/>
<path d="M91.855,38.689c0.525,0,0.895-0.087,1.11-0.26c0.214-0.173,0.335-0.388,0.362-0.645h0.868v5.325h-1.051v-3.684h-1.289
	V38.689z"/>
<rect x="60.1" y="36.292" fill="none" stroke="#000000" stroke-width="0.4645" stroke-miterlimit="10" width="8.363" height="8.36"/>
<path d="M63.385,41.211c0.02,0.61,0.276,0.916,0.77,0.916c0.236,0,0.428-0.073,0.575-0.22s0.22-0.355,0.22-0.626
	c0-0.264-0.094-0.456-0.282-0.575c-0.186-0.122-0.495-0.183-0.927-0.183v-0.747h0.168c0.583,0,0.875-0.232,0.875-0.696
	c0-0.208-0.062-0.376-0.184-0.505c-0.122-0.132-0.292-0.198-0.509-0.198c-0.479,0-0.72,0.286-0.725,0.857h-0.952
	c0-0.525,0.15-0.938,0.451-1.242c0.302-0.305,0.729-0.458,1.281-0.458c0.506,0,0.916,0.129,1.23,0.388
	c0.315,0.259,0.473,0.615,0.473,1.069c0,0.476-0.219,0.825-0.655,1.047c0.546,0.225,0.82,0.637,0.82,1.238
	c0,0.496-0.169,0.902-0.506,1.22c-0.334,0.314-0.783,0.472-1.348,0.472c-0.591,0-1.036-0.149-1.336-0.447
	c-0.3-0.3-0.464-0.737-0.491-1.311H63.385z"/>
<path fill="none" stroke="#000000" stroke-width="0.4647" stroke-miterlimit="10" d="M25.336,40.806c0,2.31-1.874,4.183-4.182,4.183
	c-2.31,0-4.184-1.873-4.184-4.183c0-2.308,1.874-4.181,4.184-4.181C23.462,36.625,25.336,38.499,25.336,40.806L25.336,40.806z"/>
<path d="M19.604,38.689c0.525,0,0.895-0.087,1.11-0.26c0.214-0.173,0.335-0.388,0.362-0.645h0.868v5.325h-1.051v-3.684h-1.289
	V38.689z"/>
<path fill="none" stroke="#000000" stroke-width="0.5572" stroke-linejoin="bevel" stroke-miterlimit="10" d="M416.349,71.388
	c0,3.691-2.996,6.688-6.688,6.688c-3.689,0-6.686-2.996-6.686-6.688c0-3.689,2.996-6.686,6.686-6.686
	C413.353,64.703,416.349,67.699,416.349,71.388L416.349,71.388z M416.349,58.014c0,3.69-2.996,6.687-6.688,6.687
	c-3.689,0-6.686-2.996-6.686-6.687c0-3.689,2.996-6.686,6.686-6.686C413.353,51.329,416.349,54.325,416.349,58.014L416.349,58.014z"
	/>
<line fill="none" stroke="#000000" stroke-width="0.5572" stroke-miterlimit="10" x1="407.712" y1="64.906" x2="396.011" y2="58.22"/>
<path fill="none" stroke="#000000" stroke-width="0.5572" stroke-linejoin="bevel" stroke-miterlimit="10" d="M392.835,71.388
	c0,3.691-2.996,6.688-6.688,6.688c-3.689,0-6.686-2.996-6.686-6.688c0-3.689,2.996-6.686,6.686-6.686
	C389.839,64.703,392.835,67.699,392.835,71.388L392.835,71.388z M392.835,58.014c0,3.69-2.996,6.687-6.688,6.687
	c-3.689,0-6.686-2.996-6.686-6.687c0-3.689,2.996-6.686,6.686-6.686C389.839,51.329,392.835,54.325,392.835,58.014L392.835,58.014z"
	/>
<line fill="none" stroke="#000000" stroke-width="0.5572" stroke-miterlimit="10" x1="399.212" y1="71.156" x2="387.511" y2="64.47"/>
<path d="M302.153,82.65c-0.186,0.424-0.277,1.012-0.277,1.766c0,0.594,0.078,1.1,0.234,1.518c0.154,0.416,0.459,0.805,0.914,1.166
	l-0.059,0.105c-1.114-0.68-1.672-1.625-1.672-2.838c0-1.176,0.551-2.135,1.649-2.879l0.081,0.117
	C302.629,81.876,302.338,82.224,302.153,82.65z"/>
<path d="M304.206,82.101c0.014,0,0.023,0.006,0.029,0.02c0.008,0.01,0.01,0.045,0.01,0.102v0.768h0.68v0.215h-0.68v1.926
	c0,0.402,0.111,0.604,0.334,0.604c0.078,0,0.154-0.02,0.229-0.061c0.074-0.045,0.136-0.1,0.186-0.168l0.088,0.076
	c-0.073,0.133-0.184,0.248-0.329,0.35c-0.144,0.1-0.298,0.15-0.46,0.15c-0.405,0-0.607-0.293-0.607-0.875v-2.002H303.4
	c-0.063,0-0.095-0.018-0.095-0.049c0-0.027,0.025-0.059,0.078-0.096c0.174-0.117,0.324-0.264,0.451-0.438
	C303.963,82.447,304.087,82.273,304.206,82.101z"/>
<path d="M305.271,84.49c0-0.441,0.131-0.813,0.393-1.113c0.264-0.299,0.61-0.449,1.041-0.449c0.467,0,0.833,0.141,1.101,0.42
	c0.271,0.279,0.405,0.652,0.405,1.121c0,0.449-0.14,0.832-0.418,1.145c-0.277,0.313-0.627,0.469-1.052,0.469
	c-0.438,0-0.792-0.152-1.063-0.459C305.406,85.316,305.271,84.939,305.271,84.49z M305.858,84.158c0,0.469,0.084,0.875,0.252,1.221
	c0.168,0.344,0.4,0.516,0.699,0.516c0.25,0,0.447-0.102,0.594-0.307c0.146-0.207,0.219-0.514,0.219-0.92
	c0-0.445-0.088-0.814-0.265-1.111c-0.177-0.295-0.409-0.443-0.698-0.443c-0.253,0-0.449,0.1-0.592,0.297
	C305.929,83.609,305.858,83.857,305.858,84.158z"/>
<path d="M308.617,81.605l0.081-0.117c1.1,0.744,1.649,1.703,1.649,2.879c0,1.213-0.558,2.158-1.671,2.838l-0.06-0.105
	c0.455-0.361,0.76-0.75,0.914-1.166c0.157-0.418,0.235-0.924,0.235-1.518c0-0.754-0.093-1.342-0.277-1.766
	C309.304,82.224,309.013,81.876,308.617,81.605z"/>
<rect x="327.031" y="80.125" fill="none" stroke="#000000" stroke-width="0.4645" stroke-miterlimit="10" width="8.363" height="8.36"/>
<path d="M329.536,82.272c0.525,0,0.895-0.087,1.11-0.261c0.214-0.173,0.335-0.388,0.362-0.645h0.868v5.325h-1.052v-3.685h-1.289
	V82.272z"/>
<path fill="none" stroke="#000000" stroke-width="0.4647" stroke-miterlimit="10" d="M174.586,75.473
	c0,2.31-1.874,4.183-4.182,4.183c-2.31,0-4.184-1.873-4.184-4.183c0-2.308,1.874-4.181,4.184-4.181
	C172.712,71.292,174.586,73.166,174.586,75.473L174.586,75.473z"/>
<path d="M168.854,73.356c0.525,0,0.895-0.087,1.11-0.261c0.214-0.173,0.335-0.388,0.362-0.645h0.868v5.325h-1.051v-3.685h-1.289
	V73.356z"/>
<line fill="none" stroke="#000000" stroke-width="0.4514" stroke-miterlimit="10" x1="335.722" y1="84.398" x2="337.634" y2="84.398"/>
<path d="M346.596,42.231c0.274-0.441,0.802-0.949,1.582-1.523c0.646-0.473,1.051-0.831,1.214-1.072
	c0.164-0.242,0.245-0.491,0.245-0.749c0-0.288-0.083-0.532-0.25-0.735c-0.163-0.206-0.409-0.309-0.739-0.309
	c-0.359,0-0.61,0.113-0.754,0.338c-0.144,0.226-0.216,0.557-0.216,0.994h-1.405v-0.206c0-0.62,0.194-1.159,0.583-1.616
	c0.392-0.457,0.975-0.686,1.748-0.686c0.679,0,1.255,0.193,1.729,0.578c0.474,0.382,0.71,0.93,0.71,1.646
	c0,0.486-0.117,0.911-0.353,1.273c-0.231,0.359-0.691,0.777-1.381,1.254c-0.754,0.522-1.203,0.896-1.347,1.121h3.08v1.249h-4.857
	C346.185,43.19,346.321,42.671,346.596,42.231z"/>
<path d="M358.741,41.584c0.026,0.816,0.369,1.224,1.028,1.224c0.316,0,0.573-0.098,0.769-0.294c0.196-0.196,0.294-0.475,0.294-0.837
	c0-0.353-0.125-0.609-0.377-0.769c-0.248-0.164-0.661-0.245-1.239-0.245v-0.999h0.226c0.78,0,1.171-0.31,1.171-0.93
	c0-0.278-0.082-0.503-0.245-0.676c-0.163-0.177-0.391-0.265-0.681-0.265c-0.64,0-0.963,0.382-0.97,1.146h-1.273
	c0-0.702,0.201-1.255,0.603-1.66c0.404-0.408,0.977-0.612,1.714-0.612c0.676,0,1.225,0.173,1.646,0.519
	c0.421,0.346,0.632,0.823,0.632,1.43c0,0.637-0.292,1.104-0.877,1.4c0.731,0.301,1.098,0.852,1.098,1.655
	c0,0.663-0.226,1.207-0.676,1.631c-0.448,0.421-1.049,0.632-1.803,0.632c-0.79,0-1.386-0.199-1.787-0.598
	c-0.401-0.401-0.62-0.986-0.656-1.753H358.741z"/>
<line fill="none" stroke="#000000" stroke-width="0.5572" stroke-miterlimit="10" x1="410.075" y1="80.902" x2="410.075" y2="49.144"/>
<line fill="none" stroke="#000000" stroke-width="0.5572" stroke-miterlimit="10" x1="385.909" y1="80.902" x2="385.909" y2="49.144"/>
<polyline fill="none" stroke="#000000" stroke-width="0.3486" stroke-linejoin="bevel" stroke-miterlimit="10" points="
	297.666,36.043 297.708,36.003 297.83,35.879 298.161,35.59 298.532,35.219 298.904,34.929 299.235,34.64 299.525,34.394 
	299.855,34.187 300.062,34.061 300.31,33.896 300.598,33.772 300.97,33.607 301.424,33.483 301.962,33.4 302.539,33.276 
	303.242,33.235 304.027,33.194 304.935,33.194 305.886,33.194 306.96,33.276 307.661,33.319 308.446,33.359 309.23,33.442 
	310.098,33.524 311.048,33.607 311.999,33.689 313.031,33.813 314.063,33.938 315.138,34.021 316.213,34.143 317.285,34.269 
	318.358,34.352 319.392,34.435 320.382,34.559 321.333,34.6 322.242,34.682 323.068,34.724 323.853,34.765 324.554,34.806 
	325.257,34.806 326.249,34.765 327.116,34.724 327.901,34.64 328.562,34.477 329.14,34.352 329.635,34.187 330.048,34.021 
	330.38,33.896 330.626,33.731 330.834,33.648 330.956,33.607 331.122,33.565 331.288,33.607 331.41,33.648 331.618,33.731 
	331.866,33.896 332.198,34.021 332.61,34.187 333.105,34.352 333.683,34.477 334.344,34.64 335.129,34.724 335.995,34.765 
	337.029,34.806 337.688,34.806 338.393,34.765 339.177,34.724 340.003,34.682 340.912,34.6 341.861,34.559 342.853,34.435 
	343.885,34.352 344.959,34.269 346.032,34.143 347.107,34.021 348.181,33.938 349.212,33.813 350.246,33.689 351.196,33.607 
	352.147,33.524 353.015,33.442 353.798,33.359 354.584,33.319 355.284,33.276 356.36,33.194 357.309,33.194 358.217,33.194 
	359.003,33.235 359.703,33.276 360.282,33.4 360.819,33.483 361.274,33.607 361.646,33.772 361.935,33.896 362.182,34.061 
	362.43,34.187 362.72,34.394 363.011,34.64 363.34,34.929 363.712,35.219 364.082,35.59 364.412,35.879 364.538,36.003 
	364.579,36.043 "/>
<line fill="none" stroke="#000000" stroke-width="1.1019" stroke-miterlimit="10" x1="373.936" y1="26.77" x2="373.936" y2="92.147"/>
<line fill="none" stroke="#000000" stroke-width="0.5528" stroke-miterlimit="10" stroke-dasharray="1.4173" x1="39.841" y1="26.571" x2="39.841" y2="92.39"/>
<path fill="none" stroke="#000000" stroke-width="0.4647" stroke-miterlimit="10" d="M57.586,40.306c0,2.31-1.874,4.183-4.182,4.183
	c-2.31,0-4.184-1.873-4.184-4.183c0-2.308,1.874-4.181,4.184-4.181C55.712,36.125,57.586,37.999,57.586,40.306L57.586,40.306z"/>
<path d="M51.854,38.189c0.525,0,0.895-0.087,1.11-0.26c0.214-0.173,0.335-0.388,0.362-0.645h0.868v5.325h-1.051v-3.684h-1.289
	V38.189z"/>
<path d="M51.784,62.343h9.383v2.016h-3.5v9.484h-2.383v-9.484h-3.5V62.343z"/>
<path d="M66.985,77.2H65.33c-0.101-0.388-0.155-0.813-0.161-1.274l-0.01-0.537c-0.006-0.358-0.086-0.613-0.239-0.767
	s-0.464-0.229-0.933-0.229h-1.572V77.2h-1.489v-7.188h3.667c0.69,0,1.242,0.188,1.655,0.562c0.414,0.371,0.62,0.874,0.62,1.509
	c0,0.811-0.373,1.374-1.118,1.689c0.404,0.159,0.656,0.379,0.757,0.659s0.151,0.718,0.151,1.313v0.288
	c0,0.273,0.018,0.491,0.054,0.654c0.039,0.159,0.13,0.266,0.273,0.317V77.2z M65.354,72.229c0-0.638-0.352-0.957-1.055-0.957h-1.885
	v1.919h1.768C64.964,73.191,65.354,72.871,65.354,72.229z"/>
<path d="M83.327,70.265c0.067,1.261,0.891,1.891,2.469,1.891c1.521,0,2.281-0.487,2.281-1.461c0-0.62-0.534-1.06-1.602-1.32
	l-2.82-0.719c-0.864-0.208-1.5-0.56-1.906-1.055s-0.609-1.153-0.609-1.977c0-1.052,0.378-1.911,1.133-2.578s1.847-1,3.273-1
	c1.313,0,2.364,0.32,3.156,0.961s1.229,1.57,1.313,2.789h-2.313c-0.172-1.177-0.938-1.766-2.297-1.766
	c-0.62,0-1.114,0.12-1.484,0.359c-0.364,0.239-0.547,0.567-0.547,0.984c0,0.302,0.094,0.555,0.281,0.758
	c0.192,0.203,0.5,0.356,0.922,0.461l2.797,0.688c1.151,0.276,1.94,0.664,2.367,1.164c0.433,0.5,0.648,1.153,0.648,1.961
	c0,1.109-0.396,2.011-1.188,2.703c-0.786,0.688-1.93,1.031-3.43,1.031c-1.401,0-2.544-0.328-3.43-0.984
	c-0.886-0.661-1.328-1.625-1.328-2.891H83.327z"/>
<path fill="none" stroke="#000000" stroke-width="0.5572" stroke-miterlimit="10" d="M93.717,70.318
	c-0.088-0.396-0.133-0.801-0.133-1.207c0-3.031,2.459-5.49,5.49-5.49c3.029,0,5.488,2.459,5.488,5.49
	c0,1.018-0.281,2.014-0.814,2.879"/>
<polygon fill-rule="evenodd" clip-rule="evenodd" stroke="#000000" stroke-width="0.2786" stroke-miterlimit="10" points="
	103.241,68.634 104.059,73.167 105.469,68.783 103.241,68.634 "/>
<path d="M96.466,67.076c0.702,0,1.196-0.115,1.483-0.348s0.449-0.52,0.485-0.861h1.16v7.119H98.19V68.06h-1.724V67.076z"/>
<rect x="126.6" y="46.542" fill="none" stroke="#000000" stroke-width="0.4645" stroke-miterlimit="10" width="8.363" height="8.36"/>
<path d="M129.105,48.689c0.525,0,0.895-0.087,1.11-0.26c0.214-0.173,0.335-0.388,0.362-0.645h0.868v5.325h-1.051v-3.684h-1.289
	V48.689z"/>
<rect x="137.6" y="31.292" fill="none" stroke="#000000" stroke-width="0.4645" stroke-miterlimit="10" width="8.363" height="8.36"/>
<path d="M140.142,36.694c0.205-0.33,0.599-0.709,1.183-1.139c0.483-0.354,0.786-0.621,0.908-0.802s0.184-0.367,0.184-0.561
	c0-0.214-0.063-0.397-0.187-0.549c-0.122-0.154-0.307-0.231-0.553-0.231c-0.269,0-0.457,0.084-0.563,0.252
	c-0.108,0.169-0.161,0.417-0.161,0.744H139.9v-0.154c0-0.464,0.145-0.867,0.436-1.208c0.293-0.342,0.729-0.513,1.307-0.513
	c0.508,0,0.938,0.144,1.292,0.432c0.354,0.286,0.531,0.696,0.531,1.23c0,0.364-0.088,0.681-0.264,0.952
	c-0.173,0.269-0.518,0.581-1.033,0.938c-0.564,0.391-0.9,0.67-1.007,0.839h2.304v0.934h-3.633
	C139.834,37.412,139.937,37.024,140.142,36.694z"/>
<path fill="none" stroke="#000000" stroke-width="0.4647" stroke-miterlimit="10" d="M135.086,35.306
	c0,2.31-1.874,4.183-4.182,4.183c-2.31,0-4.184-1.873-4.184-4.183c0-2.308,1.874-4.181,4.184-4.181
	C133.212,31.125,135.086,32.999,135.086,35.306L135.086,35.306z"/>
<path d="M129.354,33.189c0.525,0,0.895-0.087,1.11-0.26c0.214-0.173,0.335-0.388,0.362-0.645h0.868v5.325h-1.051v-3.684h-1.289
	V33.189z"/>
<path d="M129.534,62.343h9.383v2.016h-3.5v9.484h-2.383v-9.484h-3.5V62.343z"/>
<path d="M138.676,70.012h1.489v5.928h3.594v1.26h-5.083V70.012z"/>
<path fill="none" stroke="#000000" stroke-width="0.4647" stroke-miterlimit="10" d="M146.086,50.806
	c0,2.31-1.874,4.183-4.182,4.183c-2.31,0-4.184-1.873-4.184-4.183c0-2.308,1.874-4.181,4.184-4.181
	C144.212,46.625,146.086,48.499,146.086,50.806L146.086,50.806z"/>
<path d="M141.134,51.461c0.02,0.61,0.276,0.916,0.77,0.916c0.236,0,0.428-0.073,0.575-0.22s0.22-0.355,0.22-0.626
	c0-0.264-0.094-0.456-0.282-0.575c-0.186-0.122-0.495-0.183-0.927-0.183v-0.747h0.168c0.583,0,0.875-0.232,0.875-0.696
	c0-0.208-0.062-0.376-0.184-0.505c-0.122-0.132-0.292-0.198-0.509-0.198c-0.479,0-0.72,0.286-0.725,0.857h-0.952
	c0-0.525,0.15-0.938,0.451-1.242c0.302-0.305,0.729-0.458,1.281-0.458c0.506,0,0.916,0.129,1.23,0.388
	c0.315,0.259,0.473,0.615,0.473,1.069c0,0.476-0.219,0.825-0.655,1.047c0.546,0.225,0.82,0.637,0.82,1.238
	c0,0.496-0.169,0.902-0.506,1.22c-0.334,0.314-0.783,0.472-1.348,0.472c-0.591,0-1.036-0.149-1.336-0.447
	c-0.3-0.3-0.464-0.737-0.491-1.311H141.134z"/>
<line fill="none" stroke="#000000" stroke-width="0.5528" stroke-miterlimit="10" stroke-dasharray="1.4173" x1="157.841" y1="26.071" x2="157.841" y2="91.89"/>
<polyline fill="none" stroke="#000000" stroke-width="0.2835" stroke-linejoin="bevel" stroke-miterlimit="10" points="
	163.216,35.971 163.25,35.938 163.35,35.837 163.618,35.602 163.92,35.3 164.223,35.065 164.492,34.83 164.728,34.629 
	164.996,34.461 165.164,34.359 165.365,34.225 165.6,34.124 165.902,33.99 166.272,33.889 166.709,33.822 167.179,33.721 
	167.75,33.687 168.389,33.654 169.126,33.654 169.9,33.654 170.773,33.721 171.344,33.755 171.982,33.788 172.62,33.855 
	173.325,33.922 174.098,33.99 174.871,34.057 175.711,34.158 176.55,34.259 177.424,34.327 178.298,34.426 179.17,34.528 
	180.042,34.596 180.883,34.663 181.688,34.764 182.462,34.797 183.201,34.864 183.873,34.898 184.511,34.931 185.081,34.965 
	185.653,34.965 186.459,34.931 187.164,34.898 187.803,34.83 188.34,34.697 188.81,34.596 189.213,34.461 189.549,34.327 
	189.818,34.225 190.019,34.091 190.187,34.023 190.288,33.99 190.422,33.956 190.556,33.99 190.657,34.023 190.825,34.091 
	191.027,34.225 191.296,34.327 191.632,34.461 192.035,34.596 192.504,34.697 193.042,34.83 193.681,34.898 194.385,34.931 
	195.226,34.965 195.762,34.965 196.334,34.931 196.972,34.898 197.644,34.864 198.383,34.797 199.155,34.764 199.961,34.663 
	200.801,34.596 201.674,34.528 202.547,34.426 203.421,34.327 204.294,34.259 205.133,34.158 205.974,34.057 206.746,33.99 
	207.52,33.922 208.224,33.855 208.862,33.788 209.501,33.755 210.071,33.721 210.945,33.654 211.717,33.654 212.456,33.654 
	213.095,33.687 213.665,33.721 214.136,33.822 214.571,33.889 214.942,33.99 215.243,34.124 215.479,34.225 215.68,34.359 
	215.882,34.461 216.116,34.629 216.353,34.83 216.622,35.065 216.923,35.3 217.226,35.602 217.493,35.837 217.595,35.938 
	217.629,35.971 "/>
<rect x="195.85" y="37.292" fill="none" stroke="#000000" stroke-width="0.4645" stroke-miterlimit="10" width="8.363" height="8.36"/>
<path d="M198.355,39.439c0.525,0,0.895-0.087,1.11-0.26c0.214-0.173,0.335-0.388,0.362-0.645h0.868v5.325h-1.051v-3.684h-1.289
	V39.439z"/>
<path fill="none" stroke="#000000" stroke-width="0.4647" stroke-miterlimit="10" d="M325.087,84.306
	c0,2.31-1.875,4.183-4.182,4.183c-2.311,0-4.184-1.873-4.184-4.183c0-2.308,1.873-4.181,4.184-4.181
	C323.212,80.125,325.087,81.999,325.087,84.306L325.087,84.306z"/>
<path d="M319.354,82.189c0.525,0,0.895-0.087,1.11-0.26c0.214-0.174,0.335-0.389,0.362-0.645h0.868v5.324h-1.052v-3.684h-1.289
	V82.189z"/>
<path d="M200.784,63.093h9.383v2.016h-3.5v9.484h-2.383v-9.484h-3.5V63.093z"/>
<path d="M215.985,77.95h-1.655c-0.101-0.388-0.155-0.813-0.161-1.274l-0.01-0.537c-0.006-0.358-0.086-0.613-0.239-0.767
	s-0.464-0.229-0.933-0.229h-1.572v2.808h-1.489v-7.188h3.667c0.69,0,1.242,0.188,1.655,0.562c0.414,0.371,0.62,0.874,0.62,1.509
	c0,0.811-0.373,1.374-1.118,1.689c0.404,0.159,0.656,0.379,0.757,0.659s0.151,0.718,0.151,1.313v0.288
	c0,0.273,0.018,0.491,0.054,0.654c0.039,0.159,0.13,0.266,0.273,0.317V77.95z M214.354,72.979c0-0.638-0.352-0.957-1.055-0.957
	h-1.885v1.919h1.768C213.964,73.941,214.354,73.621,214.354,72.979z"/>
<path fill="none" stroke="#000000" stroke-width="0.4647" stroke-miterlimit="10" d="M215.336,41.556
	c0,2.31-1.874,4.183-4.182,4.183c-2.31,0-4.184-1.873-4.184-4.183c0-2.308,1.874-4.181,4.184-4.181
	C213.462,37.375,215.336,39.249,215.336,41.556L215.336,41.556z"/>
<path d="M209.641,42.694c0.205-0.33,0.599-0.709,1.183-1.139c0.483-0.354,0.786-0.621,0.908-0.802s0.184-0.367,0.184-0.561
	c0-0.214-0.063-0.397-0.187-0.549c-0.122-0.154-0.307-0.231-0.553-0.231c-0.269,0-0.457,0.084-0.563,0.252
	c-0.108,0.169-0.161,0.417-0.161,0.744h-1.051v-0.154c0-0.464,0.145-0.867,0.436-1.208c0.293-0.342,0.729-0.513,1.307-0.513
	c0.508,0,0.938,0.144,1.292,0.432c0.354,0.286,0.531,0.696,0.531,1.23c0,0.364-0.088,0.681-0.264,0.952
	c-0.173,0.269-0.518,0.581-1.033,0.938c-0.564,0.391-0.9,0.67-1.007,0.839h2.304v0.934h-3.633
	C209.333,43.412,209.436,43.024,209.641,42.694z"/>
<path d="M180.315,57.787c0.02,0.611,0.276,0.916,0.77,0.916c0.236,0,0.428-0.073,0.575-0.22s0.22-0.355,0.22-0.626
	c0-0.264-0.094-0.456-0.282-0.575c-0.186-0.122-0.495-0.183-0.927-0.183v-0.747h0.168c0.583,0,0.875-0.232,0.875-0.696
	c0-0.208-0.062-0.376-0.184-0.505c-0.122-0.132-0.292-0.198-0.509-0.198c-0.479,0-0.72,0.286-0.725,0.857h-0.952
	c0-0.525,0.15-0.938,0.451-1.242c0.302-0.305,0.729-0.458,1.281-0.458c0.506,0,0.916,0.129,1.23,0.388
	c0.315,0.259,0.473,0.615,0.473,1.069c0,0.476-0.219,0.825-0.655,1.047c0.546,0.225,0.82,0.637,0.82,1.238
	c0,0.496-0.169,0.902-0.506,1.22c-0.334,0.314-0.783,0.472-1.348,0.472c-0.591,0-1.036-0.148-1.336-0.446
	c-0.3-0.3-0.464-0.737-0.491-1.312H180.315z"/>
<path d="M180.468,76.378c0.02,0.61,0.276,0.916,0.77,0.916c0.236,0,0.428-0.074,0.575-0.221s0.22-0.355,0.22-0.625
	c0-0.264-0.094-0.456-0.282-0.576c-0.186-0.121-0.495-0.183-0.927-0.183v-0.747h0.168c0.583,0,0.875-0.232,0.875-0.695
	c0-0.208-0.062-0.377-0.184-0.506c-0.122-0.132-0.292-0.197-0.509-0.197c-0.479,0-0.72,0.285-0.725,0.856h-0.952
	c0-0.524,0.15-0.938,0.451-1.241c0.302-0.305,0.729-0.458,1.281-0.458c0.506,0,0.916,0.13,1.23,0.388
	c0.315,0.26,0.473,0.615,0.473,1.07c0,0.476-0.219,0.824-0.655,1.047c0.546,0.225,0.82,0.637,0.82,1.238
	c0,0.495-0.169,0.902-0.506,1.219c-0.334,0.314-0.783,0.473-1.348,0.473c-0.591,0-1.036-0.148-1.336-0.447
	c-0.3-0.3-0.464-0.736-0.491-1.311H180.468z"/>
<path d="M275.399,51.787c0.02,0.61,0.275,0.916,0.77,0.916c0.236,0,0.428-0.073,0.574-0.22s0.221-0.355,0.221-0.626
	c0-0.264-0.095-0.456-0.282-0.575c-0.187-0.122-0.495-0.183-0.927-0.183v-0.747h0.168c0.584,0,0.876-0.232,0.876-0.696
	c0-0.208-0.062-0.376-0.184-0.505c-0.122-0.132-0.292-0.198-0.509-0.198c-0.479,0-0.721,0.286-0.725,0.857h-0.953
	c0-0.525,0.15-0.938,0.451-1.242c0.303-0.305,0.729-0.458,1.281-0.458c0.506,0,0.916,0.129,1.23,0.388
	c0.315,0.259,0.473,0.615,0.473,1.069c0,0.476-0.219,0.825-0.655,1.047c0.546,0.225,0.82,0.637,0.82,1.238
	c0,0.496-0.169,0.902-0.506,1.22c-0.335,0.314-0.783,0.472-1.348,0.472c-0.591,0-1.036-0.149-1.337-0.447
	c-0.3-0.3-0.463-0.737-0.49-1.311H275.399z"/>
<path d="M275.552,70.378c0.02,0.61,0.275,0.916,0.77,0.916c0.236,0,0.428-0.074,0.574-0.221s0.221-0.355,0.221-0.625
	c0-0.264-0.095-0.456-0.282-0.576c-0.187-0.121-0.495-0.183-0.927-0.183v-0.747h0.168c0.584,0,0.876-0.232,0.876-0.695
	c0-0.208-0.062-0.377-0.184-0.506c-0.122-0.132-0.292-0.197-0.509-0.197c-0.479,0-0.721,0.285-0.725,0.856h-0.953
	c0-0.524,0.15-0.938,0.451-1.241c0.303-0.305,0.729-0.458,1.281-0.458c0.506,0,0.916,0.13,1.23,0.388
	c0.315,0.26,0.473,0.615,0.473,1.07c0,0.476-0.219,0.824-0.655,1.047c0.546,0.225,0.82,0.637,0.82,1.238
	c0,0.495-0.169,0.902-0.506,1.219c-0.335,0.314-0.783,0.473-1.348,0.473c-0.591,0-1.036-0.148-1.337-0.447
	c-0.3-0.3-0.463-0.736-0.49-1.311H275.552z"/>
<path d="M241.059,52.944c0.205-0.33,0.599-0.709,1.183-1.139c0.483-0.354,0.786-0.621,0.908-0.802s0.184-0.367,0.184-0.561
	c0-0.214-0.063-0.397-0.188-0.549c-0.121-0.154-0.307-0.231-0.553-0.231c-0.269,0-0.457,0.084-0.563,0.252
	c-0.108,0.169-0.161,0.417-0.161,0.744h-1.051v-0.154c0-0.464,0.145-0.867,0.436-1.208c0.293-0.342,0.729-0.513,1.307-0.513
	c0.508,0,0.939,0.144,1.293,0.432c0.354,0.286,0.531,0.696,0.531,1.23c0,0.364-0.088,0.681-0.264,0.952
	c-0.174,0.269-0.518,0.581-1.033,0.938c-0.563,0.391-0.899,0.67-1.007,0.839h2.304v0.934h-3.633
	C240.751,53.662,240.854,53.274,241.059,52.944z"/>
<path d="M241.211,71.536c0.205-0.329,0.599-0.709,1.183-1.14c0.483-0.354,0.786-0.621,0.908-0.801
	c0.122-0.182,0.184-0.367,0.184-0.561c0-0.215-0.063-0.398-0.188-0.549c-0.121-0.154-0.307-0.231-0.553-0.231
	c-0.269,0-0.457,0.085-0.563,0.253c-0.108,0.168-0.161,0.416-0.161,0.743h-1.051v-0.153c0-0.465,0.145-0.867,0.436-1.209
	c0.293-0.342,0.729-0.513,1.307-0.513c0.508,0,0.939,0.144,1.293,0.433c0.354,0.285,0.531,0.695,0.531,1.23
	c0,0.363-0.088,0.681-0.264,0.951c-0.174,0.27-0.518,0.582-1.033,0.938c-0.563,0.391-0.899,0.67-1.007,0.84h2.304v0.934h-3.633
	C240.903,72.253,241.006,71.865,241.211,71.536z"/>
<path fill="#FFFFFF" stroke="#000000" stroke-width="0.4647" stroke-miterlimit="10" d="M270.253,51.223
	c0,2.31-1.874,4.183-4.182,4.183c-2.31,0-4.184-1.873-4.184-4.183c0-2.308,1.874-4.181,4.184-4.181
	C268.379,47.042,270.253,48.916,270.253,51.223L270.253,51.223z"/>
<path d="M264.521,49.106c0.524,0,0.895-0.087,1.11-0.26c0.214-0.173,0.335-0.388,0.361-0.645h0.869v5.325h-1.052v-3.684h-1.289
	V49.106z"/>
<rect x="250.433" y="47.292" fill="#FFFFFF" stroke="#000000" stroke-width="0.4645" stroke-miterlimit="10" width="8.363" height="8.36"/>
<path d="M252.938,49.439c0.525,0,0.895-0.087,1.109-0.26s0.336-0.388,0.363-0.645h0.867v5.325h-1.051v-3.684h-1.289V49.439z"/>
<line fill="none" stroke="#000000" stroke-width="0.5528" stroke-miterlimit="10" stroke-dasharray="1.4173" x1="290.674" y1="26.071" x2="290.674" y2="91.89"/>
<polygon fill-rule="evenodd" clip-rule="evenodd" stroke="#000000" stroke-width="0.2786" stroke-miterlimit="10" points="
	280.307,61.59 275.735,61.033 279.506,63.675 280.307,61.59 "/>
<path fill="none" stroke="#000000" stroke-width="0.2835" stroke-miterlimit="10" stroke-dasharray="1.4173" d="M243.702,61.398
	c-6.914,3.089-11.204,10.486-5.23,14c12.75,7.5,16.23-10.229,16.23-15.25"/>
<polygon fill-rule="evenodd" clip-rule="evenodd" stroke="#000000" stroke-width="0.2786" stroke-miterlimit="10" points="
	240.622,61.378 245.225,61.195 241.249,63.521 240.622,61.378 "/>
<path fill="none" stroke="#000000" stroke-width="0.2835" stroke-miterlimit="10" d="M173.67,56.555
	c3.427-12.907,28.802,1.343,0.927,14.843"/>
<polygon fill-rule="evenodd" clip-rule="evenodd" stroke="#000000" stroke-width="0.2786" stroke-miterlimit="10" points="
	173.001,53.648 173.604,58.214 175.22,53.902 173.001,53.648 "/>
<path fill="none" stroke="#000000" stroke-width="0.2835" stroke-miterlimit="10" d="M277.261,61.523
	c6.914,3.089,11.204,10.486,5.23,14c-12.75,7.5-16.23-10.229-16.23-15.25"/>
<path d="M259.519,55.434h0.86l1.509,3.096v-3.096h0.523v3.417h-0.86l-1.508-3.11v3.11h-0.524V55.434z"/>
<path d="M311.2,62.343h9.383v2.016h-3.5v9.484H314.7v-9.484h-3.5V62.343z"/>
<path d="M320.342,77.2v-7.188h3.55c0.66,0,1.197,0.166,1.611,0.498c0.416,0.329,0.625,0.791,0.625,1.387
	c0,0.69-0.295,1.164-0.884,1.421c0.745,0.3,1.118,0.866,1.118,1.699c-0.049,0.729-0.291,1.276-0.728,1.641
	c-0.437,0.361-1.173,0.542-2.212,0.542H320.342z M321.831,72.815h1.782c0.713,0,1.069-0.269,1.069-0.806
	c0-0.491-0.371-0.737-1.113-0.737h-1.738V72.815z M321.831,75.94h1.88c0.774,0,1.162-0.34,1.162-1.021
	c0-0.603-0.364-0.903-1.094-0.903h-1.948V75.94z"/>
<path d="M326.874,70.475l0.121-0.003c0.672-0.014,1.031-0.246,1.072-0.7l0.82-0.017l0.086,4.154l-0.975,0.02l-0.059-2.873
	l-1.055,0.021L326.874,70.475z M328.071,76.784l3.998-7.073l0.758-0.016l-4,7.073L328.071,76.784z M331.71,75.517
	c0.213-0.264,0.486-0.51,0.824-0.736c0.316-0.215,0.541-0.398,0.676-0.552c0.139-0.157,0.205-0.357,0.201-0.603
	c-0.004-0.125-0.059-0.232-0.168-0.322c-0.107-0.088-0.244-0.131-0.408-0.128c-0.395,0.008-0.596,0.233-0.607,0.677l-0.852,0.018
	c-0.01-0.428,0.1-0.775,0.322-1.043c0.225-0.269,0.594-0.408,1.107-0.418c0.459-0.01,0.828,0.107,1.105,0.35
	c0.279,0.239,0.422,0.553,0.43,0.943c0.006,0.289-0.059,0.537-0.193,0.748c-0.133,0.21-0.32,0.402-0.563,0.576
	c-0.244,0.175-0.447,0.32-0.607,0.437c-0.158,0.113-0.279,0.218-0.361,0.313l1.779-0.035l0.018,0.791l-3.029,0.062
	C331.394,76.138,331.503,75.779,331.71,75.517z"/>
<path d="M297.493,70.265c0.067,1.261,0.891,1.891,2.469,1.891c1.521,0,2.281-0.487,2.281-1.461c0-0.62-0.534-1.06-1.602-1.32
	l-2.82-0.719c-0.864-0.208-1.5-0.56-1.906-1.055s-0.609-1.153-0.609-1.977c0-1.052,0.378-1.911,1.133-2.578s1.847-1,3.273-1
	c1.313,0,2.364,0.32,3.156,0.961s1.229,1.57,1.313,2.789h-2.313c-0.172-1.177-0.938-1.766-2.297-1.766
	c-0.62,0-1.114,0.12-1.484,0.359c-0.364,0.239-0.547,0.567-0.547,0.984c0,0.302,0.094,0.555,0.281,0.758
	c0.192,0.203,0.5,0.356,0.922,0.461l2.797,0.688c1.151,0.276,1.94,0.664,2.367,1.164c0.433,0.5,0.648,1.153,0.648,1.961
	c0,1.109-0.396,2.011-1.188,2.703c-0.786,0.688-1.93,1.031-3.43,1.031c-1.401,0-2.544-0.328-3.43-0.984
	c-0.886-0.661-1.328-1.625-1.328-2.891H297.493z"/>
<line fill="none" stroke="#000000" stroke-width="0.3903" stroke-miterlimit="10" x1="306.14" y1="74.111" x2="306.14" y2="61.533"/>
<polyline fill-rule="evenodd" clip-rule="evenodd" points="307.139,64.482 306.14,61.126 305.139,64.482 307.139,64.482 "/>
<polygon fill="none" stroke="#000000" stroke-width="0.4579" stroke-miterlimit="10" points="307.139,64.482 306.14,61.126 
	305.139,64.482 "/>
<path d="M307.63,37.543c0.703,0,1.197-0.116,1.484-0.348c0.287-0.231,0.449-0.519,0.484-0.862h1.16v7.121h-1.404v-4.927h-1.725
	V37.543z"/>
<line fill="none" stroke="#000000" stroke-width="0.4514" stroke-miterlimit="10" x1="314.722" y1="84.398" x2="316.634" y2="84.398"/>
<line fill="none" stroke="#000000" stroke-width="0.5528" stroke-miterlimit="10" stroke-dasharray="1.4173" x1="421.674" y1="26.571" x2="421.674" y2="92.39"/>
<polyline fill="none" stroke="#000000" stroke-width="0.1949" stroke-linejoin="bevel" stroke-miterlimit="10" points="
	427.332,35.471 427.355,35.449 427.424,35.379 427.608,35.217 427.816,35.01 428.024,34.848 428.21,34.687 428.371,34.548 
	428.556,34.433 428.672,34.362 428.81,34.271 428.971,34.201 429.179,34.109 429.433,34.04 429.733,33.993 430.057,33.924 
	430.449,33.9 430.889,33.878 431.396,33.878 431.928,33.878 432.528,33.924 432.92,33.948 433.359,33.97 433.798,34.017 
	434.282,34.063 434.813,34.109 435.345,34.155 435.923,34.224 436.499,34.294 437.1,34.34 437.701,34.409 438.301,34.479 
	438.9,34.525 439.479,34.572 440.032,34.641 440.563,34.664 441.072,34.709 441.534,34.733 441.973,34.756 442.364,34.779 
	442.757,34.779 443.312,34.756 443.797,34.733 444.235,34.687 444.604,34.595 444.928,34.525 445.205,34.433 445.436,34.34 
	445.621,34.271 445.759,34.178 445.875,34.132 445.943,34.109 446.036,34.085 446.129,34.109 446.197,34.132 446.313,34.178 
	446.452,34.271 446.638,34.34 446.868,34.433 447.146,34.525 447.468,34.595 447.838,34.687 448.276,34.733 448.761,34.756 
	449.339,34.779 449.707,34.779 450.101,34.756 450.539,34.733 451.001,34.709 451.51,34.664 452.04,34.641 452.595,34.572 
	453.172,34.525 453.771,34.479 454.372,34.409 454.973,34.34 455.573,34.294 456.15,34.224 456.729,34.155 457.259,34.109 
	457.791,34.063 458.275,34.017 458.713,33.97 459.153,33.948 459.545,33.924 460.146,33.878 460.677,33.878 461.184,33.878 
	461.624,33.9 462.016,33.924 462.339,33.993 462.639,34.04 462.894,34.109 463.102,34.201 463.263,34.271 463.401,34.362 
	463.539,34.433 463.702,34.548 463.864,34.687 464.048,34.848 464.256,35.01 464.463,35.217 464.647,35.379 464.718,35.449 
	464.741,35.471 "/>
<path fill-rule="evenodd" clip-rule="evenodd" stroke="#000000" stroke-width="0.2786" stroke-miterlimit="10" d="M458.492,85.96
	c0,0.471-0.383,0.854-0.854,0.854c-0.473,0-0.855-0.383-0.855-0.854c0-0.473,0.383-0.855,0.855-0.855
	C458.109,85.105,458.492,85.488,458.492,85.96L458.492,85.96z"/>
<path fill="none" stroke="#000000" stroke-width="0.5572" stroke-miterlimit="10" d="M460.094,86.031
	c0,1.395-1.133,2.525-2.525,2.525c-1.396,0-2.527-1.131-2.527-2.525s1.131-2.525,2.527-2.525
	C458.961,83.505,460.094,84.636,460.094,86.031L460.094,86.031z"/>
<path fill="none" stroke="#000000" stroke-width="0.5572" stroke-linejoin="bevel" stroke-miterlimit="10" d="M464.016,71.054
	c0,3.691-2.996,6.688-6.688,6.688c-3.689,0-6.686-2.996-6.686-6.688c0-3.689,2.996-6.685,6.686-6.685
	C461.02,64.37,464.016,67.365,464.016,71.054L464.016,71.054z M464.016,57.681c0,3.69-2.996,6.687-6.688,6.687
	c-3.689,0-6.686-2.996-6.686-6.687c0-3.69,2.996-6.686,6.686-6.686C461.02,50.995,464.016,53.991,464.016,57.681L464.016,57.681z"/>
<line fill="none" stroke="#000000" stroke-width="0.5572" stroke-miterlimit="10" x1="455.379" y1="64.572" x2="443.678" y2="57.886"/>
<path fill="none" stroke="#000000" stroke-width="0.5572" stroke-linejoin="bevel" stroke-miterlimit="10" d="M440.502,71.054
	c0,3.691-2.996,6.688-6.688,6.688c-3.689,0-6.686-2.996-6.686-6.688c0-3.689,2.996-6.685,6.686-6.685
	C437.506,64.37,440.502,67.365,440.502,71.054L440.502,71.054z M440.502,57.681c0,3.69-2.996,6.687-6.688,6.687
	c-3.689,0-6.686-2.996-6.686-6.687c0-3.69,2.996-6.686,6.686-6.686C437.506,50.995,440.502,53.991,440.502,57.681L440.502,57.681z"
	/>
<line fill="none" stroke="#000000" stroke-width="0.5572" stroke-miterlimit="10" x1="446.879" y1="70.822" x2="435.178" y2="64.137"/>
<line fill="none" stroke="#000000" stroke-width="0.5572" stroke-miterlimit="10" x1="457.742" y1="80.568" x2="457.742" y2="48.81"/>
<line fill="none" stroke="#000000" stroke-width="0.5572" stroke-miterlimit="10" x1="433.576" y1="80.568" x2="433.576" y2="48.81"/>
<polyline fill="none" stroke="#000000" stroke-width="0.1949" stroke-linejoin="bevel" stroke-miterlimit="10" points="
	377.925,35.471 377.948,35.449 378.017,35.379 378.201,35.217 378.409,35.01 378.617,34.848 378.803,34.687 378.964,34.548 
	379.148,34.433 379.265,34.362 379.402,34.271 379.563,34.201 379.771,34.109 380.025,34.04 380.326,33.993 380.649,33.924 
	381.042,33.9 381.481,33.878 381.988,33.878 382.521,33.878 383.121,33.924 383.513,33.948 383.952,33.97 384.391,34.017 
	384.875,34.063 385.406,34.109 385.938,34.155 386.516,34.224 387.092,34.294 387.692,34.34 388.294,34.409 388.894,34.479 
	389.493,34.525 390.071,34.572 390.625,34.641 391.156,34.664 391.665,34.709 392.127,34.733 392.565,34.756 392.957,34.779 
	393.35,34.779 393.904,34.756 394.39,34.733 394.828,34.687 395.197,34.595 395.521,34.525 395.798,34.433 396.028,34.34 
	396.214,34.271 396.352,34.178 396.468,34.132 396.536,34.109 396.629,34.085 396.722,34.109 396.79,34.132 396.906,34.178 
	397.045,34.271 397.23,34.34 397.461,34.433 397.738,34.525 398.061,34.595 398.431,34.687 398.869,34.733 399.354,34.756 
	399.932,34.779 400.3,34.779 400.693,34.756 401.132,34.733 401.594,34.709 402.103,34.664 402.633,34.641 403.188,34.572 
	403.765,34.525 404.364,34.479 404.965,34.409 405.565,34.34 406.166,34.294 406.743,34.224 407.321,34.155 407.852,34.109 
	408.384,34.063 408.868,34.017 409.306,33.97 409.746,33.948 410.138,33.924 410.739,33.878 411.27,33.878 411.776,33.878 
	412.217,33.9 412.608,33.924 412.932,33.993 413.231,34.04 413.486,34.109 413.694,34.201 413.855,34.271 413.994,34.362 
	414.132,34.433 414.295,34.548 414.457,34.687 414.641,34.848 414.849,35.01 415.056,35.217 415.24,35.379 415.311,35.449 
	415.334,35.471 "/>
</svg>
