<?xml version='1.0' encoding='utf-8' standalone='no'?>
<!DOCTYPE svg PUBLIC '-//W3C//DTD SVG 1.1//EN' 'http://www.w3.org/Graphics/SVG/1.1/DTD/svg11.dtd'>
<svg version="1.1" viewBox="-0.028 -0.352 470 171" xmlns='http://www.w3.org/2000/svg'>
<defs>
</defs>
<path d="M314.531,79.734c-2.364,0-4.288-1.924-4.288-4.289c0-2.364,1.924-4.287,4.288-4.287s4.288,1.923,4.288,4.287
	C318.819,77.81,316.896,79.734,314.531,79.734z M314.531,71.609c-2.115,0-3.837,1.721-3.837,3.836c0,2.116,1.722,3.838,3.837,3.838
	s3.837-1.722,3.837-3.838C318.368,73.33,316.646,71.609,314.531,71.609z"/>
<path d="M312.812,76.706c0.223-0.357,0.648-0.768,1.281-1.234c0.523-0.383,0.852-0.673,0.984-0.869s0.197-0.398,0.197-0.607
	c0-0.233-0.066-0.431-0.201-0.595c-0.133-0.167-0.332-0.25-0.6-0.25c-0.291,0-0.494,0.091-0.611,0.274
	c-0.115,0.183-0.174,0.451-0.174,0.805h-1.139v-0.167c0-0.502,0.158-0.939,0.473-1.309c0.316-0.37,0.789-0.556,1.416-0.556
	c0.549,0,1.018,0.156,1.4,0.468c0.383,0.31,0.574,0.754,0.574,1.333c0,0.394-0.094,0.738-0.285,1.032
	c-0.188,0.291-0.561,0.629-1.119,1.016c-0.609,0.423-0.975,0.726-1.09,0.908h2.494v1.012h-3.936
	C312.478,77.484,312.589,77.063,312.812,76.706z"/>
<path d="M310.531,46.04c-2.364,0-4.288-1.923-4.288-4.288c0-2.365,1.924-4.289,4.288-4.289s4.288,1.924,4.288,4.289
	C314.819,44.116,312.896,46.04,310.531,46.04z M310.531,37.915c-2.115,0-3.837,1.722-3.837,3.837c0,2.115,1.722,3.836,3.837,3.836
	s3.837-1.721,3.837-3.836C314.368,39.636,312.646,37.915,310.531,37.915z"/>
<path d="M308.358,42.418l2.131-3.519h1.297v3.622h0.639v0.881h-0.639v1.266h-1.139v-1.266h-2.289V42.418z M309.212,42.521h1.436
	v-2.515L309.212,42.521z"/>
<path d="M14.906,13.728h1.508c-0.266,1.5-0.831,2.625-1.695,3.375c-0.865,0.75-1.977,1.125-3.336,1.125
	c-1.558,0-2.813-0.542-3.766-1.625c-0.953-1.089-1.43-2.563-1.43-4.422c0-1.839,0.484-3.305,1.453-4.398
	c0.974-1.099,2.292-1.648,3.953-1.648c1.255,0,2.292,0.313,3.109,0.938c0.823,0.62,1.352,1.558,1.586,2.813h-1.508
	c-0.401-1.594-1.466-2.391-3.195-2.391c-1.13,0-2.047,0.403-2.75,1.211c-0.698,0.808-1.047,1.979-1.047,3.516
	c0,1.417,0.313,2.547,0.938,3.391c0.625,0.839,1.555,1.258,2.789,1.258c0.896,0,1.627-0.266,2.195-0.797
	C14.284,15.535,14.682,14.754,14.906,13.728z"/>
<path d="M17.672,12.181c0-1.729,0.495-3.169,1.484-4.32c0.995-1.151,2.372-1.727,4.133-1.727c1.75,0,3.122,0.583,4.117,1.75
	c0.995,1.161,1.492,2.563,1.492,4.203c0,1.808-0.495,3.284-1.484,4.43c-0.99,1.141-2.367,1.711-4.133,1.711
	c-1.651,0-3-0.542-4.047-1.625C18.192,15.514,17.672,14.04,17.672,12.181z M19.273,12.181c0,1.344,0.352,2.461,1.055,3.352
	c0.708,0.891,1.695,1.336,2.961,1.336c1.156,0,2.112-0.417,2.867-1.25c0.76-0.839,1.141-1.984,1.141-3.438
	c0-1.391-0.357-2.519-1.07-3.383c-0.714-0.87-1.695-1.305-2.945-1.305c-1.183,0-2.146,0.419-2.891,1.258
	C19.646,9.59,19.273,10.732,19.273,12.181z"/>
<path d="M38.906,13.728h1.508c-0.266,1.5-0.831,2.625-1.695,3.375c-0.865,0.75-1.977,1.125-3.336,1.125
	c-1.558,0-2.813-0.542-3.766-1.625c-0.953-1.089-1.43-2.563-1.43-4.422c0-1.839,0.484-3.305,1.453-4.398
	c0.974-1.099,2.292-1.648,3.953-1.648c1.255,0,2.292,0.313,3.109,0.938c0.823,0.62,1.352,1.558,1.586,2.813h-1.508
	c-0.401-1.594-1.466-2.391-3.195-2.391c-1.13,0-2.047,0.403-2.75,1.211c-0.698,0.808-1.047,1.979-1.047,3.516
	c0,1.417,0.313,2.547,0.938,3.391c0.625,0.839,1.555,1.258,2.789,1.258c0.896,0,1.627-0.266,2.195-0.797
	C38.284,15.535,38.682,14.754,38.906,13.728z"/>
<path d="M42.25,17.931v-11.5h1.555v5.57l5.617-5.57h2.133l-4.766,4.586l4.891,6.914h-2.016l-4.016-5.75l-1.844,1.711v4.039H42.25z"
	/>
<path d="M51.961,6.431h9.305V7.79h-3.875v10.141h-1.555V7.79h-3.875V6.431z"/>
<path d="M61.703,17.931l4.375-11.5h1.773l4.125,11.5h-1.695l-1.117-3.359h-4.648l-1.211,3.359H61.703z M65.023,13.212h3.586
	l-1.703-5.117L65.023,13.212z"/>
<path d="M73.609,6.431h1.555v11.5h-1.555V6.431z"/>
<path d="M77.813,6.431h1.555v10.141h5.875v1.359h-7.43V6.431z"/>
<path d="M87.703,14.228c0.083,1.761,1.167,2.641,3.25,2.641c0.953,0,1.677-0.161,2.172-0.484c0.495-0.328,0.742-0.839,0.742-1.531
	c0-0.442-0.138-0.81-0.414-1.102c-0.271-0.297-0.945-0.573-2.023-0.828l-2.375-0.531c-0.755-0.188-1.349-0.497-1.781-0.93
	c-0.433-0.438-0.648-1.044-0.648-1.82c0-1.058,0.352-1.906,1.055-2.547c0.708-0.641,1.719-0.961,3.031-0.961
	c1.203,0,2.2,0.284,2.992,0.852C94.5,7.553,94.932,8.478,95,9.759h-1.453c-0.151-1.511-1.102-2.266-2.852-2.266
	c-0.766,0-1.386,0.167-1.859,0.5c-0.469,0.333-0.703,0.823-0.703,1.469c0,0.375,0.112,0.688,0.336,0.938
	c0.224,0.25,0.648,0.442,1.273,0.578l3.023,0.727c0.87,0.192,1.521,0.539,1.953,1.039c0.438,0.495,0.656,1.169,0.656,2.023
	c0,1.12-0.412,1.977-1.234,2.57c-0.823,0.594-1.945,0.891-3.367,0.891c-1.484,0-2.609-0.362-3.375-1.086s-1.148-1.695-1.148-2.914
	H87.703z"/>
<path d="M100.836,17.931l4.375-11.5h1.773l4.125,11.5h-1.695l-1.117-3.359h-4.648l-1.211,3.359H100.836z M104.156,13.212h3.586
	l-1.703-5.117L104.156,13.212z"/>
<path d="M111.539,6.431h9.305V7.79h-3.875v10.141h-1.555V7.79h-3.875V6.431z"/>
<path d="M126.742,6.431h1.555v4.75h5.945v-4.75h1.555v11.5h-1.555V12.54h-5.945v5.391h-1.555V6.431z"/>
<path d="M137.695,12.181c0-1.729,0.495-3.169,1.484-4.32c0.995-1.151,2.372-1.727,4.133-1.727c1.75,0,3.122,0.583,4.117,1.75
	c0.995,1.161,1.492,2.563,1.492,4.203c0,1.808-0.495,3.284-1.484,4.43c-0.99,1.141-2.367,1.711-4.133,1.711
	c-1.651,0-3-0.542-4.047-1.625C138.216,15.514,137.695,14.04,137.695,12.181z M139.297,12.181c0,1.344,0.352,2.461,1.055,3.352
	c0.708,0.891,1.695,1.336,2.961,1.336c1.156,0,2.112-0.417,2.867-1.25c0.76-0.839,1.141-1.984,1.141-3.438
	c0-1.391-0.357-2.519-1.07-3.383c-0.714-0.87-1.695-1.305-2.945-1.305c-1.183,0-2.146,0.419-2.891,1.258
	C139.669,9.59,139.297,10.732,139.297,12.181z"/>
<path d="M155.68,13.095v-1.336h5.078v6.172h-1.016l-0.367-1.453c-0.365,0.479-0.875,0.891-1.531,1.234s-1.438,0.516-2.344,0.516
	c-1.537,0-2.792-0.558-3.766-1.672c-0.969-1.114-1.453-2.526-1.453-4.234c0-1.771,0.477-3.245,1.43-4.422s2.271-1.766,3.953-1.766
	c1.25,0,2.331,0.325,3.242,0.977c0.911,0.651,1.463,1.575,1.656,2.773h-1.508c-0.245-0.833-0.651-1.44-1.219-1.82
	c-0.563-0.38-1.269-0.57-2.117-0.57c-1.13,0-2.052,0.409-2.766,1.227c-0.714,0.817-1.07,1.995-1.07,3.531
	c0,1.433,0.313,2.56,0.938,3.383c0.63,0.823,1.594,1.234,2.891,1.234c1.047,0,1.906-0.308,2.578-0.922
	c0.677-0.62,1.016-1.57,1.016-2.852H155.68z"/>
<path d="M163.117,6.431h2.234l3.289,9.703l3.273-9.703h2.234v11.5h-1.508V8.274l-3.242,9.656h-1.531l-3.242-9.703v9.703h-1.508
	V6.431z"/>
<path d="M175.5,17.931l4.375-11.5h1.773l4.125,11.5h-1.695l-1.117-3.359h-4.648l-1.211,3.359H175.5z M178.82,13.212h3.586
	l-1.703-5.117L178.82,13.212z"/>
<path d="M187.164,6.431h1.844l5.781,9.344V6.431h1.508v11.5h-1.75l-5.875-9.344v9.344h-1.508V6.431z"/>
<path d="M197.727,17.931l4.375-11.5h1.773l4.125,11.5h-1.695l-1.117-3.359h-4.648l-1.211,3.359H197.727z M201.047,13.212h3.586
	l-1.703-5.117L201.047,13.212z"/>
<path d="M208.305,6.431h1.82l3.328,5.477l3.336-5.477h1.82l-4.375,6.875v4.625h-1.555v-4.625L208.305,6.431z"/>
<path d="M269.073,127.16c0.01,0.191,0.07,0.344,0.179,0.458c0.111,0.113,0.281,0.168,0.508,0.163c0.21-0.004,0.364-0.055,0.463-0.15
	c0.102-0.1,0.15-0.249,0.146-0.45c-0.004-0.21-0.072-0.358-0.206-0.444c-0.131-0.084-0.317-0.125-0.56-0.119l-0.188,0.003
	l-0.012-0.617L269.52,126c0.23-0.004,0.4-0.047,0.512-0.127c0.114-0.084,0.17-0.216,0.166-0.395c-0.007-0.336-0.187-0.5-0.538-0.493
	c-0.207,0.004-0.356,0.068-0.447,0.192c-0.088,0.121-0.131,0.272-0.127,0.455l-0.819,0.016c0.019-0.904,0.494-1.366,1.426-1.385
	c0.428-0.01,0.771,0.088,1.029,0.289c0.262,0.203,0.396,0.473,0.403,0.813c0.008,0.389-0.169,0.668-0.53,0.836
	c0.458,0.131,0.693,0.449,0.703,0.951c0.008,0.371-0.125,0.686-0.396,0.945c-0.271,0.26-0.651,0.395-1.142,0.405
	c-0.427,0.009-0.782-0.085-1.065-0.28c-0.28-0.195-0.438-0.544-0.475-1.045L269.073,127.16z M269.815,131.272l4-7.073l0.757-0.016
	l-3.998,7.073L269.815,131.272z M272.683,129.48l1.625-2.559l1.037-0.021l0.052,2.586l0.484-0.01l0.014,0.659l-0.484,0.01
	l0.019,0.891l-0.914,0.019l-0.019-0.891l-1.799,0.037L272.683,129.48z M273.399,129.527l1.083-0.022l-0.034-1.687L273.399,129.527z"
	/>
<path d="M417.162,14.228h1.453v0.797c0,0.677,0.148,1.153,0.445,1.43s0.734,0.414,1.313,0.414c1.208,0,1.813-0.667,1.813-2V6.431
	h1.555v8.391c0,1.094-0.289,1.935-0.867,2.523c-0.573,0.589-1.406,0.883-2.5,0.883c-0.933,0-1.7-0.245-2.305-0.734
	s-0.906-1.208-0.906-2.156V14.228z"/>
<path d="M426.85,15.095c0.188,1.239,0.953,1.859,2.297,1.859c0.677,0,1.247-0.227,1.711-0.68c0.469-0.453,0.703-1.067,0.703-1.844
	c0-0.719-0.216-1.308-0.648-1.766s-1.031-0.688-1.797-0.688c-0.792,0-1.487,0.37-2.086,1.109l-1.211-0.063l0.859-6.094h5.766v1.383
	h-4.711l-0.484,3.109c0.641-0.474,1.352-0.711,2.133-0.711c0.958,0,1.81,0.325,2.555,0.977c0.75,0.651,1.125,1.528,1.125,2.633
	c0,1.141-0.352,2.075-1.055,2.805c-0.698,0.729-1.683,1.094-2.953,1.094c-1.052,0-1.894-0.253-2.523-0.758
	c-0.625-0.511-1.003-1.3-1.133-2.367H426.85z"/>
<path d="M433.975,17.931l2.906-4.352l-2.75-4.023h1.805l1.906,2.914l1.898-2.914h1.734l-2.797,4.023l2.906,4.352h-1.781
	l-2.063-3.141l-1.984,3.141H433.975z"/>
<path d="M442.193,13.829l5.211-7.07h1.164v7.195h1.648v1.227h-1.648v2.75h-1.406v-2.75h-4.969V13.829z M443.514,13.954h3.648V8.868
	L443.514,13.954z"/>
<path d="M451.287,12.478c0-1.792,0.328-3.211,0.984-4.258c0.661-1.052,1.636-1.578,2.922-1.578c1.177,0,2.112,0.484,2.805,1.453
	c0.692,0.964,1.039,2.394,1.039,4.289c0,1.813-0.325,3.239-0.977,4.281c-0.651,1.036-1.617,1.555-2.898,1.555
	c-1.183,0-2.125-0.481-2.828-1.445C451.636,15.811,451.287,14.379,451.287,12.478z M452.787,12.431c0,3.016,0.786,4.523,2.359,4.523
	c1.594,0,2.391-1.508,2.391-4.523s-0.792-4.523-2.375-4.523S452.787,9.415,452.787,12.431z"/>
<path d="M469.174,158.382H0V0h469.174V158.382z M1.134,157.248h466.905V1.134H1.134V157.248z"/>
<rect x="0.067" y="25.58" width="468.04" height="1.134"/>
<rect x="226.885" y="91.898" width="1.102" height="65.377"/>
<path d="M414.157,166.777c0.105,0.698,0.536,1.047,1.292,1.047c0.381,0,0.701-0.128,0.963-0.383
	c0.264-0.255,0.395-0.601,0.395-1.037c0-0.404-0.121-0.735-0.364-0.993s-0.58-0.387-1.011-0.387c-0.445,0-0.837,0.208-1.174,0.624
	l-0.681-0.035l0.483-3.428h3.243v0.777h-2.649l-0.273,1.75c0.361-0.267,0.761-0.4,1.2-0.4c0.539,0,1.018,0.184,1.437,0.549
	c0.422,0.367,0.633,0.86,0.633,1.481c0,0.642-0.197,1.168-0.593,1.577c-0.393,0.411-0.946,0.615-1.661,0.615
	c-0.592,0-1.065-0.142-1.42-0.426c-0.352-0.287-0.563-0.73-0.637-1.332H414.157z"/>
<path d="M418.842,161.904h2.896c0.583,0,1.047,0.17,1.393,0.51c0.349,0.337,0.523,0.781,0.523,1.332c0,0.57-0.178,1.031-0.531,1.379
	c-0.352,0.347-0.811,0.52-1.376,0.52h-2.03v2.729h-0.875V161.904z M419.717,162.668v2.224h1.731c0.87,0,1.306-0.385,1.306-1.156
	c0-0.711-0.424-1.067-1.271-1.067H419.717z"/>
<path d="M427.619,166.905c0.022,0.612,0.429,0.919,1.217,0.919c0.343,0,0.612-0.066,0.809-0.198
	c0.199-0.135,0.299-0.321,0.299-0.558c0-0.17-0.066-0.305-0.197-0.404c-0.133-0.091-0.379-0.182-0.738-0.273l-0.924-0.229
	c-0.729-0.176-1.094-0.563-1.094-1.164c0-0.431,0.155-0.785,0.466-1.063c0.313-0.281,0.761-0.422,1.341-0.422
	c0.506,0,0.919,0.122,1.238,0.364c0.319,0.244,0.498,0.614,0.537,1.112h-0.778c-0.038-0.519-0.395-0.778-1.067-0.778
	c-0.64,0-0.959,0.225-0.959,0.673c0,0.196,0.075,0.334,0.225,0.413c0.149,0.076,0.358,0.146,0.629,0.211l0.781,0.197
	c0.478,0.123,0.816,0.277,1.016,0.462c0.202,0.193,0.303,0.457,0.303,0.791c0,0.463-0.165,0.839-0.496,1.13
	c-0.328,0.289-0.805,0.435-1.428,0.435c-0.578,0-1.041-0.122-1.389-0.364c-0.35-0.243-0.538-0.661-0.567-1.253H427.619z"/>
<path d="M434.799,164.356v-0.694h0.743v6.539h-0.791v-2.312c-0.325,0.422-0.761,0.633-1.306,0.633c-0.601,0-1.096-0.233-1.484-0.698
	c-0.391-0.469-0.585-1.11-0.585-1.926c0-0.693,0.177-1.266,0.532-1.713c0.354-0.449,0.831-0.673,1.432-0.673
	c0.346,0,0.629,0.073,0.849,0.22C434.411,163.875,434.615,164.083,434.799,164.356z M432.193,165.947
	c0,0.583,0.112,1.041,0.338,1.375c0.229,0.334,0.545,0.502,0.949,0.502c0.363,0,0.671-0.135,0.924-0.404
	c0.254-0.273,0.382-0.693,0.382-1.262c0-1.298-0.442-1.947-1.327-1.947C432.615,164.21,432.193,164.79,432.193,165.947z"/>
<path d="M436.681,163.662h0.791v3.12c0,0.694,0.313,1.042,0.94,1.042c0.369,0,0.677-0.131,0.923-0.392s0.369-0.65,0.369-1.169
	v-2.602h0.791v4.711h-0.743v-0.694c-0.113,0.211-0.285,0.403-0.514,0.575c-0.229,0.173-0.557,0.263-0.984,0.269
	c-0.48,0-0.863-0.123-1.146-0.369c-0.285-0.249-0.427-0.613-0.427-1.095V163.662z"/>
<path d="M441.639,165.059c0.022-1.031,0.654-1.547,1.894-1.547c0.521,0,0.947,0.114,1.278,0.343c0.334,0.229,0.502,0.556,0.502,0.98
	v2.742c0,0.111,0.02,0.186,0.061,0.224s0.104,0.058,0.189,0.058c0.053,0,0.142-0.014,0.268-0.04v0.575
	c-0.193,0.059-0.346,0.088-0.457,0.088c-0.275,0-0.475-0.061-0.598-0.184c-0.12-0.123-0.188-0.305-0.206-0.545
	c-0.448,0.513-1.005,0.769-1.67,0.769c-0.396,0-0.744-0.116-1.046-0.347c-0.302-0.234-0.453-0.583-0.453-1.047
	c0-0.846,0.474-1.331,1.42-1.454l1.234-0.163c0.188-0.022,0.313-0.078,0.379-0.166c0.066-0.088,0.101-0.222,0.101-0.4
	c0-0.516-0.359-0.773-1.077-0.773c-0.369,0-0.631,0.074-0.786,0.225c-0.155,0.148-0.257,0.37-0.304,0.663H441.639z M444.521,165.968
	c-0.121,0.095-0.367,0.169-0.738,0.225c-0.373,0.053-0.562,0.079-0.567,0.079c-0.665,0.091-0.997,0.354-0.997,0.791
	c0,0.533,0.283,0.8,0.852,0.8c0.375,0,0.711-0.105,1.007-0.316s0.444-0.478,0.444-0.8V165.968z"/>
<path d="M446.78,168.373v-4.711h0.743v0.787c0.216-0.361,0.426-0.607,0.628-0.738c0.205-0.133,0.438-0.198,0.698-0.198
	c0.053,0,0.119,0.011,0.198,0.03v0.813h-0.299c-0.349,0-0.633,0.125-0.853,0.374c-0.217,0.249-0.325,0.548-0.325,0.896v2.746H446.78
	z"/>
<path d="M450.261,166.263c0,0.492,0.111,0.876,0.334,1.151c0.226,0.272,0.563,0.409,1.011,0.409
	c0.319-0.003,0.598-0.094,0.835-0.273c0.24-0.181,0.382-0.396,0.427-0.646h0.777c-0.103,0.495-0.325,0.89-0.668,1.183
	c-0.343,0.289-0.793,0.435-1.35,0.435c-0.662,0-1.192-0.208-1.59-0.624c-0.396-0.416-0.594-1.017-0.594-1.802
	c0-0.759,0.193-1.378,0.58-1.858c0.39-0.484,0.935-0.726,1.635-0.726c0.659,0,1.16,0.228,1.503,0.681
	c0.346,0.452,0.527,1.142,0.545,2.07H450.261z M450.261,165.639h2.628c-0.056-0.524-0.19-0.894-0.404-1.107s-0.504-0.321-0.87-0.321
	c-0.387,0-0.703,0.133-0.949,0.396C450.419,164.868,450.284,165.211,450.261,165.639z"/>
<path d="M457.639,166.905c0.022,0.612,0.429,0.919,1.217,0.919c0.343,0,0.612-0.066,0.809-0.198
	c0.199-0.135,0.299-0.321,0.299-0.558c0-0.17-0.066-0.305-0.197-0.404c-0.133-0.091-0.379-0.182-0.738-0.273l-0.924-0.229
	c-0.729-0.176-1.094-0.563-1.094-1.164c0-0.431,0.155-0.785,0.466-1.063c0.313-0.281,0.761-0.422,1.341-0.422
	c0.506,0,0.919,0.122,1.238,0.364c0.319,0.244,0.498,0.614,0.537,1.112h-0.778c-0.038-0.519-0.395-0.778-1.067-0.778
	c-0.64,0-0.959,0.225-0.959,0.673c0,0.196,0.075,0.334,0.225,0.413c0.149,0.076,0.358,0.146,0.629,0.211l0.781,0.197
	c0.478,0.123,0.816,0.277,1.016,0.462c0.202,0.193,0.303,0.457,0.303,0.791c0,0.463-0.165,0.839-0.496,1.13
	c-0.328,0.289-0.805,0.435-1.428,0.435c-0.578,0-1.041-0.122-1.389-0.364c-0.35-0.243-0.538-0.661-0.567-1.253H457.639z"/>
<path d="M462.266,166.263c0,0.492,0.111,0.876,0.334,1.151c0.226,0.272,0.563,0.409,1.011,0.409
	c0.319-0.003,0.598-0.094,0.835-0.273c0.24-0.181,0.383-0.396,0.426-0.646h0.778c-0.103,0.495-0.325,0.89-0.668,1.183
	c-0.343,0.289-0.793,0.435-1.349,0.435c-0.663,0-1.193-0.208-1.592-0.624c-0.395-0.416-0.593-1.017-0.593-1.802
	c0-0.759,0.193-1.378,0.58-1.858c0.39-0.484,0.935-0.726,1.635-0.726c0.659,0,1.16,0.228,1.503,0.681
	c0.346,0.452,0.527,1.142,0.545,2.07H462.266z M462.266,165.639h2.628c-0.056-0.524-0.19-0.894-0.404-1.107s-0.504-0.321-0.87-0.321
	c-0.387,0-0.703,0.133-0.949,0.396C462.424,164.868,462.289,165.211,462.266,165.639z"/>
<path d="M466.221,164.321v-0.659h0.643v-1.336h0.791v1.336h0.773v0.659h-0.773v3.059c0,0.252,0.159,0.378,0.479,0.378h0.277v0.629
	c-0.297,0.04-0.518,0.061-0.664,0.061c-0.589,0-0.883-0.338-0.883-1.015v-3.111H466.221z"/>
<path d="M4.551,167.437l1.871-5.533h0.984l-2.391,6.469H4.089l-2.391-6.469h0.967L4.551,167.437z"/>
<path d="M8.097,161.913h0.791v0.905H8.097V161.913z M8.097,163.662h0.791v4.711H8.097V163.662z"/>
<path d="M10.097,168.373v-6.469h0.791v3.744l2.021-1.986h1.002l-1.793,1.749l1.903,2.962h-1.016l-1.459-2.391l-0.659,0.682v1.709
	H10.097z"/>
<path d="M14.117,164.321v-0.659h0.643v-1.336h0.791v1.336h0.773v0.659h-0.773v3.059c0,0.252,0.159,0.378,0.479,0.378h0.277v0.629
	c-0.297,0.04-0.518,0.061-0.664,0.061c-0.589,0-0.883-0.338-0.883-1.015v-3.111H14.117z"/>
<path d="M16.798,166.035c0-0.747,0.2-1.354,0.603-1.819c0.4-0.469,0.934-0.703,1.6-0.703c0.641,0,1.168,0.228,1.582,0.681
	c0.412,0.455,0.619,1.063,0.619,1.824c0,0.718-0.199,1.315-0.598,1.793c-0.398,0.475-0.928,0.712-1.586,0.712
	c-0.648,0-1.18-0.229-1.596-0.686C17.006,167.376,16.798,166.776,16.798,166.035z M17.615,166.017c0,0.513,0.119,0.942,0.355,1.287
	c0.24,0.347,0.583,0.52,1.029,0.52c0.387,0,0.713-0.151,0.979-0.453c0.27-0.305,0.404-0.756,0.404-1.354
	c0-0.513-0.117-0.941-0.352-1.287s-0.579-0.52-1.032-0.52c-0.411,0-0.745,0.156-1.002,0.467
	C17.742,164.988,17.615,165.434,17.615,166.017z"/>
<path d="M22.19,168.373v-4.711h0.743v0.787c0.216-0.361,0.426-0.607,0.628-0.738c0.205-0.133,0.438-0.198,0.698-0.198
	c0.053,0,0.119,0.011,0.198,0.03v0.813h-0.299c-0.349,0-0.633,0.125-0.853,0.374c-0.217,0.249-0.325,0.548-0.325,0.896v2.746H22.19z
	"/>
<path d="M27.676,161.904h0.874v5.704h3.305v0.765h-4.179V161.904z"/>
<path d="M33.178,166.263c0,0.492,0.111,0.876,0.334,1.151c0.226,0.272,0.563,0.409,1.011,0.409c0.319-0.003,0.598-0.094,0.835-0.273
	c0.24-0.181,0.383-0.396,0.426-0.646h0.778c-0.103,0.495-0.325,0.89-0.668,1.183c-0.343,0.289-0.793,0.435-1.349,0.435
	c-0.663,0-1.193-0.208-1.592-0.624c-0.395-0.416-0.593-1.017-0.593-1.802c0-0.759,0.193-1.378,0.58-1.858
	c0.39-0.484,0.935-0.726,1.635-0.726c0.659,0,1.16,0.228,1.503,0.681c0.346,0.452,0.527,1.142,0.545,2.07H33.178z M33.178,165.639
	h2.628c-0.056-0.524-0.19-0.894-0.404-1.107s-0.504-0.321-0.87-0.321c-0.387,0-0.703,0.133-0.949,0.396
	C33.336,164.868,33.201,165.211,33.178,165.639z"/>
<path d="M37.586,161.904h0.791v2.382c0.354-0.516,0.835-0.773,1.441-0.773c0.504,0,0.894,0.149,1.169,0.448
	c0.275,0.296,0.413,0.697,0.413,1.204v3.208h-0.791v-3.107c0-0.389-0.076-0.661-0.229-0.816c-0.152-0.158-0.384-0.238-0.694-0.238
	c-0.413,0-0.735,0.134-0.967,0.4c-0.229,0.264-0.343,0.656-0.343,1.178v2.584h-0.791V161.904z"/>
<path d="M42.592,163.662h0.742v0.694c0.401-0.563,0.881-0.844,1.438-0.844c0.548,0,0.958,0.258,1.23,0.773
	c0.39-0.516,0.853-0.773,1.389-0.773c0.434,0,0.788,0.138,1.063,0.413s0.413,0.67,0.413,1.182v3.266h-0.791V165.3
	c0-0.726-0.277-1.09-0.83-1.09c-0.294,0-0.555,0.115-0.783,0.344c-0.226,0.226-0.338,0.534-0.338,0.927v2.892h-0.791v-3.283
	c0-0.585-0.245-0.879-0.734-0.879c-0.354,0-0.646,0.136-0.874,0.404c-0.229,0.271-0.343,0.661-0.343,1.174v2.584h-0.791V163.662z"/>
<path d="M50.066,165.059c0.023-1.031,0.655-1.547,1.895-1.547c0.521,0,0.947,0.114,1.279,0.343c0.334,0.229,0.5,0.556,0.5,0.98
	v2.742c0,0.111,0.021,0.186,0.063,0.224c0.04,0.038,0.104,0.058,0.188,0.058c0.053,0,0.142-0.014,0.269-0.04v0.575
	c-0.193,0.059-0.347,0.088-0.457,0.088c-0.276,0-0.475-0.061-0.598-0.184c-0.121-0.123-0.189-0.305-0.207-0.545
	c-0.448,0.513-1.005,0.769-1.67,0.769c-0.396,0-0.744-0.116-1.046-0.347c-0.302-0.234-0.452-0.583-0.452-1.047
	c0-0.846,0.473-1.331,1.419-1.454l1.235-0.163c0.187-0.022,0.313-0.078,0.377-0.166c0.067-0.088,0.102-0.222,0.102-0.4
	c0-0.516-0.359-0.773-1.076-0.773c-0.369,0-0.632,0.074-0.787,0.225c-0.155,0.148-0.257,0.37-0.303,0.663H50.066z M52.949,165.968
	c-0.12,0.095-0.366,0.169-0.738,0.225c-0.372,0.053-0.561,0.079-0.566,0.079c-0.665,0.091-0.998,0.354-0.998,0.791
	c0,0.533,0.284,0.8,0.854,0.8c0.374,0,0.71-0.105,1.006-0.316s0.443-0.478,0.443-0.8V165.968z"/>
<path d="M55.094,168.373v-4.711h0.742v0.694c0.396-0.563,0.893-0.844,1.49-0.844c0.504,0,0.894,0.149,1.169,0.448
	c0.275,0.296,0.413,0.697,0.413,1.204v3.208h-0.791v-2.927c0-0.475-0.084-0.798-0.25-0.972c-0.165-0.176-0.409-0.264-0.734-0.264
	c-0.369,0-0.67,0.139-0.9,0.414c-0.232,0.275-0.348,0.663-0.348,1.164v2.584H55.094z"/>
<path d="M60.1,168.373v-4.711h0.742v0.694c0.396-0.563,0.893-0.844,1.49-0.844c0.504,0,0.894,0.149,1.169,0.448
	c0.275,0.296,0.413,0.697,0.413,1.204v3.208h-0.791v-2.927c0-0.475-0.084-0.798-0.25-0.972c-0.165-0.176-0.409-0.264-0.734-0.264
	c-0.369,0-0.67,0.139-0.9,0.414c-0.232,0.275-0.348,0.663-0.348,1.164v2.584H60.1z"/>
<path d="M65.316,169.291c0.311-0.047,0.471-0.353,0.479-0.918h-0.479v-0.984h0.94v0.896c0,0.82-0.313,1.295-0.94,1.424V169.291z"/>
<path d="M70.193,166.83c0.243-0.371,0.576-0.679,0.998-0.922l1.287-0.766c0.293-0.172,0.499-0.352,0.619-0.535
	c0.12-0.188,0.181-0.415,0.181-0.682c0-0.366-0.116-0.656-0.347-0.87c-0.229-0.214-0.54-0.321-0.932-0.321
	c-0.439,0-0.76,0.131-0.959,0.392c-0.196,0.258-0.309,0.641-0.338,1.147h-0.777c0-0.674,0.177-1.218,0.531-1.631
	s0.897-0.619,1.631-0.619c0.591,0,1.077,0.171,1.459,0.514c0.383,0.34,0.575,0.805,0.575,1.393c0,0.396-0.091,0.734-0.272,1.016
	c-0.182,0.278-0.461,0.523-0.84,0.734l-1.072,0.623c-0.377,0.224-0.665,0.432-0.861,0.625c-0.193,0.19-0.334,0.425-0.422,0.703
	h3.468v0.742h-4.359C69.807,167.713,69.95,167.199,70.193,166.83z"/>
<path d="M74.865,165.305c0-1.008,0.185-1.806,0.554-2.396c0.372-0.591,0.92-0.887,1.644-0.887c0.662,0,1.188,0.271,1.578,0.816
	c0.389,0.543,0.584,1.347,0.584,2.413c0,1.02-0.184,1.822-0.549,2.408c-0.367,0.583-0.91,0.874-1.631,0.874
	c-0.665,0-1.195-0.271-1.591-0.813C75.062,167.18,74.865,166.375,74.865,165.305z M75.709,165.279c0,1.696,0.442,2.545,1.327,2.545
	c0.896,0,1.345-0.849,1.345-2.545s-0.445-2.545-1.336-2.545S75.709,163.583,75.709,165.279z"/>
<path d="M80.451,163.284c0.574-0.023,0.971-0.118,1.191-0.286c0.222-0.166,0.392-0.47,0.51-0.909h0.619v6.284h-0.844v-4.456h-1.477
	V163.284z"/>
<path d="M85,166.847h0.777c0.08,0.65,0.447,0.977,1.104,0.977c0.498,0,0.873-0.231,1.125-0.695c0.252-0.465,0.396-1.018,0.436-1.656
	c-0.281,0.519-0.786,0.777-1.512,0.777c-0.598,0-1.082-0.187-1.451-0.563c-0.369-0.374-0.553-0.869-0.553-1.484
	c0-0.65,0.191-1.177,0.575-1.578c0.387-0.401,0.899-0.602,1.538-0.602c1.497,0,2.246,0.975,2.246,2.926
	c0,1.059-0.203,1.921-0.607,2.589c-0.401,0.665-0.997,0.997-1.788,0.997c-0.557,0-1.004-0.148-1.341-0.447
	S85.029,167.375,85,166.847z M85.77,164.189c0,0.899,0.424,1.35,1.273,1.35c0.379,0,0.685-0.119,0.919-0.356
	c0.237-0.24,0.356-0.596,0.356-1.067c0-0.419-0.11-0.753-0.33-1.002c-0.217-0.252-0.531-0.379-0.945-0.379
	c-0.387,0-0.695,0.131-0.927,0.392S85.77,163.741,85.77,164.189z"/>
<rect x="146.55" y="26.103" width="1.102" height="65.377"/>
<path d="M205.034,92.223h-0.553v-0.622h0.553V92.223z M205.034,90.184h-0.553v-1.418h0.553V90.184z M205.034,87.349h-0.553v-1.417
	h0.553V87.349z M205.034,84.515h-0.553v-1.417h0.553V84.515z M205.034,81.68h-0.553v-1.417h0.553V81.68z M205.034,78.845h-0.553
	v-1.417h0.553V78.845z M205.034,76.011h-0.553v-1.417h0.553V76.011z M205.034,73.176h-0.553v-1.417h0.553V73.176z M205.034,70.341
	h-0.553v-1.417h0.553V70.341z M205.034,67.506h-0.553v-1.417h0.553V67.506z M205.034,64.672h-0.553v-1.417h0.553V64.672z
	 M205.034,61.837h-0.553V60.42h0.553V61.837z M205.034,59.002h-0.553v-1.417h0.553V59.002z M205.034,56.168h-0.553V54.75h0.553
	V56.168z M205.034,53.333h-0.553v-1.417h0.553V53.333z M205.034,50.499h-0.553v-1.417h0.553V50.499z M205.034,47.664h-0.553v-1.417
	h0.553V47.664z M205.034,44.83h-0.553v-1.417h0.553V44.83z M205.034,41.995h-0.553v-1.417h0.553V41.995z M205.034,39.16h-0.553
	v-1.417h0.553V39.16z M205.034,36.326h-0.553v-1.417h0.553V36.326z M205.034,33.491h-0.553v-1.417h0.553V33.491z M205.034,30.656
	h-0.553v-1.417h0.553V30.656z M205.034,27.822h-0.553v-1.417h0.553V27.822z"/>
<path d="M344.7,91.806h-0.553v-0.622h0.553V91.806z M344.7,89.767h-0.553V88.35h0.553V89.767z M344.7,86.933h-0.553v-1.417h0.553
	V86.933z M344.7,84.098h-0.553v-1.417h0.553V84.098z M344.7,81.263h-0.553v-1.417h0.553V81.263z M344.7,78.429h-0.553v-1.417h0.553
	V78.429z M344.7,75.594h-0.553v-1.417h0.553V75.594z M344.7,72.759h-0.553v-1.417h0.553V72.759z M344.7,69.925h-0.553v-1.417h0.553
	V69.925z M344.7,67.09h-0.553v-1.417h0.553V67.09z M344.7,64.255h-0.553v-1.417h0.553V64.255z M344.7,61.421h-0.553v-1.417h0.553
	V61.421z M344.7,58.586h-0.553v-1.417h0.553V58.586z M344.7,55.751h-0.553v-1.417h0.553V55.751z M344.7,52.917h-0.553V51.5h0.553
	V52.917z M344.7,50.082h-0.553v-1.417h0.553V50.082z M344.7,47.248h-0.553V45.83h0.553V47.248z M344.7,44.413h-0.553v-1.417h0.553
	V44.413z M344.7,41.578h-0.553v-1.417h0.553V41.578z M344.7,38.744h-0.553v-1.417h0.553V38.744z M344.7,35.909h-0.553v-1.417h0.553
	V35.909z M344.7,33.074h-0.553v-1.417h0.553V33.074z M344.7,30.24h-0.553v-1.417h0.553V30.24z M344.7,27.405h-0.553v-1.417h0.553
	V27.405z"/>
<circle fill="#FFFFFF" cx="115.887" cy="57.032" r="6.696"/>
<path d="M115.887,64.012c-3.849,0-6.98-3.131-6.98-6.979c0-3.849,3.131-6.98,6.98-6.98s6.98,3.131,6.98,6.98
	C122.867,60.881,119.736,64.012,115.887,64.012z M115.887,50.62c-3.536,0-6.413,2.876-6.413,6.413c0,3.536,2.876,6.412,6.413,6.412
	s6.413-2.876,6.413-6.412C122.3,53.497,119.423,50.62,115.887,50.62z"/>
<circle fill="#FFFFFF" cx="115.886" cy="43.366" r="6.696"/>
<path d="M115.886,50.346c-3.848,0-6.979-3.131-6.979-6.98c0-3.848,3.131-6.979,6.979-6.979c3.849,0,6.98,3.131,6.98,6.979
	C122.866,47.215,119.735,50.346,115.886,50.346z M115.886,36.954c-3.536,0-6.412,2.876-6.412,6.412c0,3.536,2.876,6.413,6.412,6.413
	c3.536,0,6.413-2.877,6.413-6.413C122.299,39.83,119.422,36.954,115.886,36.954z"/>
<circle fill="#FFFFFF" cx="115.886" cy="70.283" r="6.696"/>
<path d="M115.886,77.263c-3.848,0-6.979-3.131-6.979-6.98c0-3.848,3.131-6.979,6.979-6.979c3.849,0,6.98,3.131,6.98,6.979
	C122.866,74.131,119.735,77.263,115.886,77.263z M115.886,63.87c-3.536,0-6.412,2.876-6.412,6.412c0,3.536,2.876,6.413,6.412,6.413
	c3.536,0,6.413-2.877,6.413-6.413C122.299,66.747,119.422,63.87,115.886,63.87z"/>
<path d="M64.367,92.056h-0.553v-0.622h0.553V92.056z M64.367,90.017h-0.553V88.6h0.553V90.017z M64.367,87.183h-0.553v-1.417h0.553
	V87.183z M64.367,84.348h-0.553v-1.417h0.553V84.348z M64.367,81.513h-0.553v-1.417h0.553V81.513z M64.367,78.679h-0.553v-1.417
	h0.553V78.679z M64.367,75.844h-0.553v-1.417h0.553V75.844z M64.367,73.009h-0.553v-1.417h0.553V73.009z M64.367,70.175h-0.553
	v-1.417h0.553V70.175z M64.367,67.34h-0.553v-1.417h0.553V67.34z M64.367,64.505h-0.553v-1.417h0.553V64.505z M64.367,61.671h-0.553
	v-1.417h0.553V61.671z M64.367,58.836h-0.553v-1.417h0.553V58.836z M64.367,56.001h-0.553v-1.417h0.553V56.001z M64.367,53.167
	h-0.553V51.75h0.553V53.167z M64.367,50.332h-0.553v-1.417h0.553V50.332z M64.367,47.498h-0.553V46.08h0.553V47.498z M64.367,44.663
	h-0.553v-1.417h0.553V44.663z M64.367,41.828h-0.553v-1.417h0.553V41.828z M64.367,38.994h-0.553v-1.417h0.553V38.994z
	 M64.367,36.159h-0.553v-1.417h0.553V36.159z M64.367,33.324h-0.553v-1.417h0.553V33.324z M64.367,30.49h-0.553v-1.417h0.553V30.49z
	 M64.367,27.655h-0.553v-1.417h0.553V27.655z"/>
<rect x="1.067" y="91.163" width="468.04" height="1.135"/>
<path d="M31.673,60.372h-1.986c-0.121-0.465-0.186-0.975-0.193-1.529l-0.012-0.645c-0.008-0.43-0.104-0.736-0.287-0.92
	s-0.557-0.275-1.119-0.275h-1.887v3.369h-1.787v-8.625h4.4c0.828,0,1.49,0.225,1.986,0.674c0.496,0.445,0.744,1.049,0.744,1.811
	c0,0.973-0.447,1.648-1.342,2.027c0.484,0.191,0.787,0.455,0.908,0.791s0.182,0.861,0.182,1.576v0.346
	c0,0.328,0.021,0.59,0.064,0.785c0.047,0.191,0.156,0.318,0.328,0.381V60.372z M29.716,54.407c0-0.766-0.422-1.148-1.266-1.148
	h-2.262v2.303h2.121C29.247,55.562,29.716,55.177,29.716,54.407z"/>
<path d="M32.399,60.372l3.094-8.625h2.068l3.094,8.625h-1.957l-0.557-1.799h-3.234l-0.609,1.799H32.399z M35.405,57.062h2.203
	l-1.084-3.357L35.405,57.062z"/>
<path d="M263.868,103.538l1.934-5.391h1.292l1.934,5.391h-1.224l-0.348-1.124h-2.021l-0.381,1.124H263.868z M265.746,101.468h1.377
	l-0.677-2.098L265.746,101.468z"/>
<path d="M269.702,98.147h1.116v4.446h2.695v0.944h-3.812V98.147z"/>
<path d="M274.282,98.147h1.117v4.446h2.695v0.944h-3.813V98.147z"/>
<path d="M318.783,157.474h-0.553v-0.623h0.553V157.474z M318.783,155.434h-0.553v-1.417h0.553V155.434z M318.783,152.599h-0.553
	v-1.417h0.553V152.599z M318.783,149.765h-0.553v-1.418h0.553V149.765z M318.783,146.93h-0.553v-1.417h0.553V146.93z
	 M318.783,144.095h-0.553v-1.417h0.553V144.095z M318.783,141.261h-0.553v-1.418h0.553V141.261z M318.783,138.426h-0.553v-1.417
	h0.553V138.426z M318.783,135.591h-0.553v-1.417h0.553V135.591z M318.783,132.757h-0.553v-1.418h0.553V132.757z M318.783,129.922
	h-0.553v-1.417h0.553V129.922z M318.783,127.087h-0.553v-1.417h0.553V127.087z M318.783,124.253h-0.553v-1.418h0.553V124.253z
	 M318.783,121.418h-0.553v-1.417h0.553V121.418z M318.783,118.583h-0.553v-1.417h0.553V118.583z M318.783,115.75h-0.553v-1.418
	h0.553V115.75z M318.783,112.915h-0.553v-1.417h0.553V112.915z M318.783,110.08h-0.553v-1.417h0.553V110.08z M318.783,107.246
	h-0.553v-1.418h0.553V107.246z M318.783,104.411h-0.553v-1.417h0.553V104.411z M318.783,101.576h-0.553v-1.417h0.553V101.576z
	 M318.783,98.742h-0.553v-1.418h0.553V98.742z M318.783,95.907h-0.553V94.49h0.553V95.907z M318.783,93.072h-0.553v-1.417h0.553
	V93.072z"/>
<path d="M119.367,158.64h-0.553v-0.623h0.553V158.64z M119.367,156.6h-0.553v-1.417h0.553V156.6z M119.367,153.765h-0.553v-1.417
	h0.553V153.765z M119.367,150.931h-0.553v-1.418h0.553V150.931z M119.367,148.096h-0.553v-1.417h0.553V148.096z M119.367,145.261
	h-0.553v-1.417h0.553V145.261z M119.367,142.427h-0.553v-1.418h0.553V142.427z M119.367,139.592h-0.553v-1.417h0.553V139.592z
	 M119.367,136.757h-0.553v-1.417h0.553V136.757z M119.367,133.923h-0.553v-1.418h0.553V133.923z M119.367,131.088h-0.553v-1.417
	h0.553V131.088z M119.367,128.253h-0.553v-1.417h0.553V128.253z M119.367,125.419h-0.553v-1.418h0.553V125.419z M119.367,122.584
	h-0.553v-1.417h0.553V122.584z M119.367,119.75h-0.553v-1.417h0.553V119.75z M119.367,116.916h-0.553v-1.418h0.553V116.916z
	 M119.367,114.081h-0.553v-1.417h0.553V114.081z M119.367,111.246h-0.553v-1.417h0.553V111.246z M119.367,108.412h-0.553v-1.418
	h0.553V108.412z M119.367,105.577h-0.553v-1.417h0.553V105.577z M119.367,102.742h-0.553v-1.417h0.553V102.742z M119.367,99.908
	h-0.553V98.49h0.553V99.908z M119.367,97.073h-0.553v-1.417h0.553V97.073z M119.367,94.238h-0.553v-1.417h0.553V94.238z"/>
<path d="M14.531,55.484c-2.365,0-4.288-1.924-4.288-4.289c0-2.364,1.923-4.287,4.288-4.287s4.288,1.923,4.288,4.287
	C18.819,53.56,16.896,55.484,14.531,55.484z M14.531,47.359c-2.116,0-3.837,1.721-3.837,3.836c0,2.116,1.721,3.838,3.837,3.838
	s3.837-1.722,3.837-3.838C18.368,49.08,16.647,47.359,14.531,47.359z"/>
<path d="M12.772,49.429c0.568,0,0.97-0.094,1.202-0.282c0.232-0.188,0.363-0.42,0.393-0.698h0.94v5.769h-1.139v-3.991h-1.396V49.429
	z"/>
<path d="M49.781,60.489c-2.365,0-4.288-1.923-4.288-4.288c0-2.365,1.923-4.289,4.288-4.289s4.288,1.924,4.288,4.289
	C54.069,58.565,52.146,60.489,49.781,60.489z M49.781,52.364c-2.116,0-3.837,1.722-3.837,3.837c0,2.115,1.721,3.836,3.837,3.836
	s3.837-1.721,3.837-3.836C53.618,54.085,51.897,52.364,49.781,52.364z"/>
<path d="M48.747,57.332c0.021,0.661,0.299,0.992,0.833,0.992c0.257,0,0.465-0.079,0.623-0.238c0.159-0.159,0.238-0.385,0.238-0.679
	c0-0.286-0.102-0.493-0.306-0.623c-0.201-0.132-0.535-0.199-1.004-0.199v-0.809h0.183c0.632,0,0.948-0.251,0.948-0.754
	c0-0.225-0.066-0.407-0.198-0.547c-0.132-0.143-0.316-0.214-0.552-0.214c-0.519,0-0.78,0.31-0.785,0.928h-1.031
	c0-0.568,0.162-1.017,0.487-1.345c0.328-0.331,0.791-0.496,1.389-0.496c0.548,0,0.992,0.141,1.333,0.421
	c0.342,0.28,0.512,0.667,0.512,1.158c0,0.516-0.236,0.894-0.71,1.135c0.593,0.243,0.889,0.69,0.889,1.341
	c0,0.537-0.183,0.978-0.547,1.321c-0.363,0.341-0.85,0.512-1.46,0.512c-0.641,0-1.123-0.162-1.448-0.484
	c-0.325-0.326-0.503-0.799-0.532-1.42H48.747z"/>
<path d="M30.108,73.418l2.131-3.519h1.297v3.622h0.639v0.881h-0.639v1.266h-1.139v-1.266h-2.289V73.418z M30.961,73.521h1.436
	v-2.515L30.961,73.521z"/>
<path d="M30.562,40.456c0.222-0.357,0.648-0.768,1.281-1.234c0.523-0.383,0.852-0.673,0.983-0.869
	c0.133-0.196,0.198-0.398,0.198-0.607c0-0.233-0.067-0.431-0.202-0.595c-0.132-0.167-0.332-0.25-0.599-0.25
	c-0.291,0-0.495,0.091-0.611,0.274s-0.175,0.451-0.175,0.805h-1.139v-0.167c0-0.502,0.158-0.939,0.473-1.309
	c0.317-0.37,0.789-0.556,1.416-0.556c0.55,0,1.018,0.156,1.4,0.468c0.384,0.31,0.575,0.754,0.575,1.333
	c0,0.394-0.095,0.738-0.285,1.032c-0.188,0.291-0.561,0.629-1.119,1.016c-0.61,0.423-0.975,0.726-1.091,0.908h2.495v1.012h-3.936
	C30.228,41.234,30.339,40.813,30.562,40.456z"/>
<path d="M14.281,65.234c-2.365,0-4.288-1.924-4.288-4.289c0-2.364,1.923-4.287,4.288-4.287s4.288,1.923,4.288,4.287
	C18.569,63.31,16.646,65.234,14.281,65.234z M14.281,57.109c-2.116,0-3.837,1.721-3.837,3.836c0,2.116,1.721,3.838,3.837,3.838
	s3.837-1.722,3.837-3.838C18.118,58.83,16.397,57.109,14.281,57.109z"/>
<path d="M13.367,62.373c0.08,0.534,0.346,0.801,0.798,0.801c0.238,0,0.442-0.087,0.615-0.262c0.172-0.175,0.258-0.437,0.258-0.786
	c0-0.291-0.073-0.533-0.219-0.726c-0.146-0.193-0.363-0.29-0.654-0.29c-0.336,0-0.585,0.14-0.746,0.42l-1.012-0.043l0.393-3.17
	h3.162v0.98h-2.329l-0.214,1.214c0.294-0.209,0.626-0.313,0.996-0.313c0.508,0,0.931,0.168,1.27,0.504
	c0.338,0.336,0.508,0.78,0.508,1.333c0,0.595-0.18,1.086-0.54,1.472c-0.359,0.386-0.86,0.579-1.503,0.579
	c-0.537,0-0.98-0.146-1.329-0.437c-0.35-0.293-0.547-0.719-0.592-1.277H13.367z"/>
<path d="M72.522,53.179c0.568,0,0.97-0.094,1.202-0.282c0.232-0.188,0.363-0.42,0.393-0.698h0.94v5.769h-1.139v-3.991h-1.396V53.179
	z"/>
<path d="M91.781,54.989c-2.365,0-4.288-1.923-4.288-4.288c0-2.365,1.923-4.289,4.288-4.289s4.288,1.924,4.288,4.289
	C96.069,53.065,94.146,54.989,91.781,54.989z M91.781,46.864c-2.116,0-3.837,1.722-3.837,3.837c0,2.115,1.721,3.836,3.837,3.836
	s3.837-1.721,3.837-3.836C95.618,48.585,93.897,46.864,91.781,46.864z"/>
<path d="M90.747,51.832c0.021,0.661,0.299,0.992,0.833,0.992c0.257,0,0.465-0.079,0.623-0.238c0.159-0.159,0.238-0.385,0.238-0.679
	c0-0.286-0.102-0.493-0.306-0.623c-0.201-0.132-0.535-0.199-1.004-0.199v-0.809h0.183c0.632,0,0.948-0.251,0.948-0.754
	c0-0.225-0.066-0.407-0.198-0.547c-0.132-0.143-0.316-0.214-0.552-0.214c-0.519,0-0.78,0.31-0.785,0.928h-1.031
	c0-0.568,0.162-1.017,0.487-1.345c0.328-0.331,0.791-0.496,1.389-0.496c0.548,0,0.992,0.141,1.333,0.421
	c0.342,0.28,0.512,0.667,0.512,1.158c0,0.516-0.236,0.894-0.71,1.135c0.593,0.243,0.889,0.69,0.889,1.341
	c0,0.537-0.183,0.978-0.547,1.321c-0.363,0.341-0.85,0.512-1.46,0.512c-0.641,0-1.123-0.162-1.448-0.484
	c-0.325-0.326-0.503-0.799-0.532-1.42H90.747z"/>
<path d="M91.781,77.79c-2.365,0-4.288-1.923-4.288-4.288c0-2.365,1.923-4.289,4.288-4.289s4.288,1.924,4.288,4.289
	C96.069,75.866,94.146,77.79,91.781,77.79z M91.781,69.665c-2.116,0-3.837,1.722-3.837,3.837c0,2.115,1.721,3.836,3.837,3.836
	s3.837-1.721,3.837-3.836C95.618,71.386,93.897,69.665,91.781,69.665z"/>
<path d="M89.608,74.168l2.131-3.519h1.297v3.622h0.639v0.881h-0.639v1.266h-1.139v-1.266h-2.289V74.168z M90.461,74.271h1.436
	v-2.515L90.461,74.271z"/>
<path d="M91.781,44.234c-2.365,0-4.288-1.924-4.288-4.289c0-2.364,1.923-4.287,4.288-4.287s4.288,1.923,4.288,4.287
	C96.069,42.31,94.146,44.234,91.781,44.234z M91.781,36.109c-2.116,0-3.837,1.721-3.837,3.836c0,2.116,1.721,3.838,3.837,3.838
	s3.837-1.722,3.837-3.838C95.618,37.83,93.897,36.109,91.781,36.109z"/>
<path d="M90.062,41.206c0.222-0.357,0.648-0.768,1.281-1.234c0.523-0.383,0.852-0.673,0.983-0.869
	c0.133-0.196,0.198-0.398,0.198-0.607c0-0.233-0.067-0.431-0.202-0.595c-0.132-0.167-0.332-0.25-0.599-0.25
	c-0.291,0-0.495,0.091-0.611,0.274s-0.175,0.451-0.175,0.805h-1.139v-0.167c0-0.502,0.158-0.939,0.473-1.309
	c0.317-0.37,0.789-0.556,1.416-0.556c0.55,0,1.018,0.156,1.4,0.468c0.384,0.31,0.575,0.754,0.575,1.333
	c0,0.394-0.095,0.738-0.285,1.032c-0.188,0.291-0.561,0.629-1.119,1.016c-0.61,0.423-0.975,0.726-1.091,0.908h2.495v1.012h-3.936
	C89.728,41.984,89.839,41.563,90.062,41.206z"/>
<path d="M91.781,65.984c-2.365,0-4.288-1.924-4.288-4.289c0-2.364,1.923-4.287,4.288-4.287s4.288,1.923,4.288,4.287
	C96.069,64.06,94.146,65.984,91.781,65.984z M91.781,57.859c-2.116,0-3.837,1.721-3.837,3.836c0,2.116,1.721,3.838,3.837,3.838
	s3.837-1.722,3.837-3.838C95.618,59.58,93.897,57.859,91.781,57.859z"/>
<path d="M90.867,63.123c0.08,0.534,0.346,0.801,0.798,0.801c0.238,0,0.442-0.087,0.615-0.262c0.172-0.175,0.258-0.437,0.258-0.786
	c0-0.291-0.073-0.533-0.219-0.726c-0.146-0.193-0.363-0.29-0.654-0.29c-0.336,0-0.585,0.14-0.746,0.42l-1.012-0.043l0.393-3.17
	h3.162v0.98h-2.329l-0.214,1.214c0.294-0.209,0.626-0.313,0.996-0.313c0.508,0,0.931,0.168,1.27,0.504
	c0.338,0.336,0.508,0.78,0.508,1.333c0,0.595-0.18,1.086-0.54,1.472c-0.359,0.386-0.86,0.579-1.503,0.579
	c-0.537,0-0.98-0.146-1.329-0.437c-0.35-0.293-0.547-0.719-0.592-1.277H90.867z"/>
<rect x="115.469" y="33.39" width="0.567" height="47.175"/>
<path d="M93.026,83.016c-0.185,0.424-0.278,1.013-0.278,1.767c0,0.594,0.079,1.1,0.235,1.518c0.154,0.416,0.459,0.805,0.914,1.166
	l-0.059,0.104c-1.115-0.68-1.672-1.625-1.672-2.838c0-1.175,0.55-2.135,1.649-2.879l0.082,0.117
	C93.501,82.244,93.21,82.591,93.026,83.016z"/>
<path d="M95.383,83.313v3.065c0,0.979-0.377,1.47-1.133,1.47c-0.187,0-0.338-0.034-0.454-0.102c-0.113-0.069-0.17-0.159-0.17-0.268
	c0-0.078,0.026-0.141,0.078-0.187c0.052-0.048,0.114-0.071,0.186-0.071c0.116,0,0.223,0.066,0.323,0.199
	c0.103,0.133,0.198,0.199,0.288,0.199c0.213,0,0.32-0.251,0.32-0.751v-2.746c0-0.152-0.018-0.256-0.052-0.31
	c-0.035-0.055-0.082-0.082-0.14-0.082c-0.028,0-0.068,0.002-0.118,0.007c-0.048,0.004-0.099,0.011-0.153,0.02v-0.102
	c0.222-0.069,0.555-0.19,0.999-0.362L95.383,83.313z M94.707,82.167c0-0.092,0.033-0.171,0.098-0.238
	c0.067-0.067,0.149-0.102,0.245-0.102c0.094,0,0.174,0.032,0.242,0.098s0.101,0.142,0.101,0.229c0,0.109-0.034,0.196-0.101,0.262
	c-0.067,0.063-0.15,0.095-0.248,0.095c-0.096,0-0.176-0.033-0.242-0.099C94.739,82.344,94.707,82.263,94.707,82.167z"/>
<path d="M96.144,84.857c0-0.441,0.131-0.813,0.392-1.113c0.263-0.3,0.61-0.45,1.042-0.45c0.466,0,0.833,0.141,1.1,0.421
	c0.27,0.279,0.405,0.652,0.405,1.12c0,0.45-0.139,0.833-0.418,1.146c-0.276,0.312-0.626,0.468-1.051,0.468
	c-0.438,0-0.792-0.152-1.064-0.458C96.279,85.683,96.144,85.306,96.144,84.857z M96.731,84.524c0,0.469,0.084,0.875,0.251,1.222
	c0.167,0.344,0.4,0.516,0.699,0.516c0.25,0,0.448-0.103,0.594-0.307c0.146-0.207,0.219-0.514,0.219-0.921
	c0-0.444-0.088-0.814-0.265-1.11s-0.409-0.443-0.699-0.443c-0.252,0-0.449,0.099-0.591,0.297
	C96.801,83.975,96.731,84.224,96.731,84.524z"/>
<path d="M99.532,86.385v-0.102c0.159-0.009,0.275-0.041,0.35-0.098c0.076-0.059,0.114-0.218,0.114-0.477v-1.587
	c0-0.144-0.018-0.245-0.052-0.304c-0.033-0.059-0.082-0.088-0.147-0.088c-0.042,0-0.081,0.002-0.118,0.007
	c-0.037,0.004-0.086,0.011-0.147,0.02v-0.102c0.335-0.113,0.668-0.233,0.999-0.362l0.026,0.02v2.396
	c0,0.232,0.032,0.384,0.098,0.454c0.067,0.067,0.189,0.107,0.366,0.12v0.102H99.532z M99.882,82.167
	c0-0.092,0.032-0.171,0.098-0.238c0.067-0.067,0.149-0.102,0.245-0.102c0.093,0,0.174,0.032,0.241,0.098s0.102,0.142,0.102,0.229
	c0,0.109-0.034,0.196-0.102,0.262c-0.067,0.063-0.15,0.095-0.248,0.095c-0.096,0-0.176-0.033-0.242-0.099
	C99.913,82.344,99.882,82.263,99.882,82.167z"/>
<path d="M101.224,86.284c0.155-0.004,0.27-0.034,0.346-0.091c0.078-0.059,0.118-0.186,0.118-0.379v-1.639
	c0-0.194-0.021-0.315-0.062-0.366c-0.042-0.052-0.103-0.078-0.183-0.078c-0.065,0-0.138,0.009-0.219,0.026v-0.102
	c0.461-0.161,0.783-0.281,0.963-0.362l0.045,0.013v0.51c0.224-0.202,0.404-0.34,0.539-0.411c0.137-0.074,0.287-0.111,0.447-0.111
	c0.244,0,0.439,0.087,0.584,0.261c0.148,0.173,0.222,0.417,0.222,0.735v1.524c0,0.188,0.037,0.312,0.111,0.372
	c0.076,0.059,0.194,0.092,0.353,0.098v0.102h-1.482v-0.102c0.135-0.004,0.245-0.039,0.33-0.104c0.085-0.064,0.127-0.222,0.127-0.47
	v-1.339c0-0.27-0.045-0.456-0.134-0.558c-0.087-0.104-0.218-0.157-0.392-0.157c-0.106,0-0.214,0.03-0.323,0.092
	c-0.106,0.061-0.229,0.152-0.365,0.274v1.896c0,0.235,0.152,0.356,0.457,0.365v0.102h-1.482V86.284z"/>
<path d="M106.209,86.258c0.23-0.014,0.391-0.061,0.48-0.141c0.091-0.081,0.137-0.243,0.137-0.486v-2.88
	c0-0.255-0.04-0.429-0.118-0.522c-0.079-0.094-0.245-0.146-0.5-0.156v-0.128h1.917v0.128c-0.248,0.013-0.414,0.063-0.497,0.153
	c-0.081,0.089-0.121,0.247-0.121,0.474v3.111c0,0.139,0.035,0.226,0.104,0.261c0.072,0.035,0.267,0.053,0.584,0.053
	c0.679,0,1.122-0.074,1.329-0.223c0.207-0.15,0.372-0.372,0.497-0.666h0.15l-0.32,1.149h-3.644V86.258z"/>
<path d="M110.349,81.945h1.916v0.128c-0.276,0.02-0.448,0.076-0.516,0.17c-0.067,0.091-0.101,0.261-0.101,0.509v1.237h2.034v-1.342
	c0-0.248-0.051-0.402-0.153-0.464c-0.1-0.063-0.254-0.1-0.463-0.11v-0.128h1.916v0.128c-0.252,0.009-0.419,0.059-0.5,0.149
	c-0.078,0.09-0.117,0.249-0.117,0.478v2.983c0,0.23,0.043,0.382,0.13,0.454c0.089,0.071,0.251,0.112,0.486,0.121v0.127h-1.916
	v-0.127c0.22-0.007,0.377-0.043,0.473-0.108s0.144-0.238,0.144-0.519v-1.349h-2.034v1.349c0,0.246,0.045,0.41,0.137,0.493
	c0.093,0.08,0.253,0.125,0.479,0.134v0.127h-1.916v-0.127c0.246-0.009,0.41-0.056,0.493-0.141c0.083-0.087,0.124-0.267,0.124-0.539
	v-2.932c0-0.23-0.05-0.382-0.15-0.454c-0.098-0.073-0.254-0.114-0.467-0.12V81.945z"/>
<path d="M116.943,84.857c0-0.441,0.131-0.813,0.392-1.113c0.263-0.3,0.61-0.45,1.042-0.45c0.466,0,0.833,0.141,1.1,0.421
	c0.27,0.279,0.405,0.652,0.405,1.12c0,0.45-0.139,0.833-0.418,1.146c-0.276,0.312-0.626,0.468-1.051,0.468
	c-0.438,0-0.792-0.152-1.064-0.458C117.079,85.683,116.943,85.306,116.943,84.857z M117.531,84.524c0,0.469,0.084,0.875,0.251,1.222
	c0.167,0.344,0.4,0.516,0.699,0.516c0.25,0,0.448-0.103,0.594-0.307c0.146-0.207,0.219-0.514,0.219-0.921
	c0-0.444-0.088-0.814-0.265-1.11s-0.409-0.443-0.699-0.443c-0.252,0-0.449,0.099-0.591,0.297
	C117.601,83.975,117.531,84.224,117.531,84.524z"/>
<path d="M120.166,86.284c0.155-0.004,0.27-0.034,0.346-0.091c0.078-0.059,0.118-0.186,0.118-0.379v-1.639
	c0-0.194-0.021-0.315-0.062-0.366c-0.042-0.052-0.103-0.078-0.183-0.078c-0.065,0-0.138,0.009-0.219,0.026v-0.102
	c0.461-0.161,0.783-0.281,0.963-0.362l0.045,0.013v0.51c0.224-0.202,0.404-0.34,0.539-0.411c0.137-0.074,0.287-0.111,0.447-0.111
	c0.244,0,0.439,0.087,0.584,0.261c0.148,0.173,0.222,0.417,0.222,0.735v1.524c0,0.188,0.037,0.312,0.111,0.372
	c0.076,0.059,0.194,0.092,0.353,0.098v0.102h-1.482v-0.102c0.135-0.004,0.245-0.039,0.33-0.104c0.085-0.064,0.127-0.222,0.127-0.47
	v-1.339c0-0.27-0.045-0.456-0.134-0.558c-0.087-0.104-0.218-0.157-0.392-0.157c-0.106,0-0.214,0.03-0.323,0.092
	c-0.106,0.061-0.229,0.152-0.365,0.274v1.896c0,0.235,0.152,0.356,0.457,0.365v0.102h-1.482V86.284z"/>
<path d="M125.638,81.945h2.478v0.104l-1.427,4.382h-0.431l1.319-3.977h-1.427c-0.207,0-0.364,0.042-0.47,0.127
	c-0.106,0.083-0.213,0.219-0.32,0.408l-0.118-0.052C125.345,82.703,125.477,82.372,125.638,81.945z"/>
<path d="M130.016,83.858c-0.161-0.438-0.242-0.756-0.242-0.956c0-0.283,0.094-0.528,0.281-0.734
	c0.187-0.209,0.435-0.313,0.744-0.313c0.255,0,0.471,0.071,0.65,0.215c0.178,0.142,0.268,0.335,0.268,0.578
	c0,0.255-0.086,0.475-0.258,0.659c-0.172,0.186-0.432,0.351-0.78,0.497c0.266,0.524,0.57,0.989,0.914,1.394
	c0.418-0.54,0.627-0.95,0.627-1.23c0-0.103-0.033-0.179-0.098-0.229c-0.063-0.051-0.187-0.081-0.372-0.092v-0.127h1.463v0.127
	c-0.225,0.041-0.385,0.12-0.483,0.235c-0.098,0.113-0.211,0.287-0.339,0.522c-0.209,0.379-0.426,0.708-0.65,0.989
	c0.052,0.098,0.183,0.224,0.392,0.378c0.209,0.153,0.415,0.229,0.617,0.229c0.142,0,0.259-0.03,0.353-0.089
	c0.096-0.061,0.188-0.151,0.278-0.271l0.095,0.071c-0.077,0.194-0.206,0.37-0.389,0.529c-0.181,0.156-0.382,0.235-0.604,0.235
	c-0.379,0-0.766-0.205-1.162-0.614c-0.255,0.229-0.496,0.389-0.722,0.48c-0.227,0.089-0.483,0.134-0.771,0.134
	c-0.307,0-0.567-0.089-0.78-0.265c-0.211-0.177-0.317-0.437-0.317-0.78c0-0.535,0.305-0.986,0.914-1.352L130.016,83.858z
	 M130.123,84.093c-0.317,0.202-0.526,0.388-0.626,0.555c-0.1,0.168-0.15,0.345-0.15,0.529c0,0.27,0.087,0.496,0.261,0.679
	c0.174,0.184,0.386,0.274,0.637,0.274c0.27,0,0.575-0.139,0.914-0.418C130.832,85.321,130.487,84.781,130.123,84.093z
	 M130.577,83.607c0.524-0.274,0.787-0.597,0.787-0.967c0-0.163-0.051-0.299-0.153-0.407c-0.103-0.109-0.224-0.164-0.366-0.164
	c-0.359,0-0.539,0.198-0.539,0.595C130.306,82.924,130.396,83.239,130.577,83.607z"/>
<path d="M134.887,84.166c-0.365-0.308-0.594-0.552-0.686-0.735c-0.089-0.183-0.134-0.362-0.134-0.538c0-0.294,0.12-0.54,0.359-0.738
	c0.239-0.2,0.538-0.3,0.895-0.3c0.337,0,0.615,0.088,0.833,0.265c0.217,0.176,0.326,0.404,0.326,0.686
	c0,0.237-0.072,0.438-0.215,0.604c-0.142,0.163-0.367,0.325-0.676,0.486c0.431,0.326,0.71,0.592,0.839,0.797
	c0.131,0.202,0.196,0.428,0.196,0.676c0,0.32-0.117,0.586-0.35,0.797c-0.23,0.209-0.556,0.313-0.976,0.313
	c-0.361,0-0.663-0.103-0.904-0.308c-0.242-0.204-0.362-0.454-0.362-0.751c0-0.263,0.067-0.48,0.202-0.652
	S134.586,84.394,134.887,84.166z M135.066,84.292c-0.354,0.287-0.532,0.636-0.532,1.045c0,0.257,0.074,0.479,0.222,0.669
	c0.15,0.189,0.359,0.284,0.627,0.284c0.222,0,0.4-0.068,0.535-0.206c0.135-0.139,0.203-0.32,0.203-0.545
	c0-0.213-0.069-0.397-0.206-0.552C135.78,84.832,135.498,84.599,135.066,84.292z M135.38,83.767c0.257-0.177,0.423-0.337,0.5-0.48
	s0.114-0.314,0.114-0.513c0-0.226-0.067-0.404-0.202-0.535c-0.135-0.133-0.312-0.199-0.529-0.199c-0.202,0-0.371,0.061-0.506,0.18
	c-0.135,0.117-0.203,0.285-0.203,0.503C134.554,83.066,134.829,83.415,135.38,83.767z"/>
<path d="M137.191,81.971l0.082-0.117c1.099,0.744,1.649,1.704,1.649,2.879c0,1.213-0.557,2.158-1.671,2.838l-0.059-0.104
	c0.455-0.361,0.76-0.75,0.914-1.166c0.157-0.418,0.235-0.924,0.235-1.518c0-0.754-0.093-1.343-0.278-1.767
	C137.878,82.591,137.587,82.244,137.191,81.971z"/>
<path d="M168.735,52.331h1.787v7.113h4.313v1.512h-6.1V52.331z"/>
<path d="M175.397,60.956l3.094-8.625h2.068l3.094,8.625h-1.957l-0.557-1.799h-3.234l-0.609,1.799H175.397z M178.403,57.645h2.203
	l-1.084-3.357L178.403,57.645z"/>
<path d="M161.531,60.484c-2.365,0-4.288-1.924-4.288-4.289c0-2.364,1.923-4.287,4.288-4.287s4.288,1.923,4.288,4.287
	C165.819,58.56,163.896,60.484,161.531,60.484z M161.531,52.359c-2.116,0-3.837,1.721-3.837,3.836c0,2.116,1.721,3.838,3.837,3.838
	s3.837-1.722,3.837-3.838C165.368,54.08,163.647,52.359,161.531,52.359z"/>
<path d="M159.772,54.429c0.568,0,0.97-0.094,1.202-0.282c0.232-0.188,0.363-0.42,0.393-0.698h0.94v5.769h-1.139v-3.991h-1.396
	V54.429z"/>
<path d="M188.448,66.739c-2.365,0-4.288-1.923-4.288-4.288c0-2.365,1.923-4.289,4.288-4.289s4.288,1.924,4.288,4.289
	C192.736,64.815,190.813,66.739,188.448,66.739z M188.448,58.614c-2.116,0-3.837,1.722-3.837,3.837c0,2.115,1.721,3.836,3.837,3.836
	s3.837-1.721,3.837-3.836C192.285,60.335,190.564,58.614,188.448,58.614z"/>
<path d="M187.414,63.582c0.021,0.661,0.299,0.992,0.833,0.992c0.257,0,0.465-0.079,0.623-0.238c0.159-0.159,0.238-0.385,0.238-0.679
	c0-0.286-0.102-0.493-0.306-0.623c-0.201-0.132-0.535-0.199-1.004-0.199v-0.809h0.183c0.632,0,0.948-0.251,0.948-0.754
	c0-0.225-0.066-0.407-0.198-0.547c-0.132-0.143-0.316-0.214-0.552-0.214c-0.519,0-0.78,0.31-0.785,0.928h-1.031
	c0-0.568,0.162-1.017,0.487-1.345c0.328-0.331,0.791-0.496,1.389-0.496c0.548,0,0.992,0.141,1.333,0.421
	c0.342,0.28,0.512,0.667,0.512,1.158c0,0.516-0.236,0.894-0.71,1.135c0.593,0.243,0.889,0.69,0.889,1.341
	c0,0.537-0.183,0.978-0.547,1.321c-0.363,0.341-0.85,0.512-1.46,0.512c-0.641,0-1.123-0.162-1.448-0.484
	c-0.325-0.326-0.503-0.799-0.532-1.42H187.414z"/>
<path d="M177.442,74.656c0.222-0.357,0.648-0.768,1.281-1.234c0.523-0.383,0.852-0.673,0.983-0.869
	c0.133-0.196,0.198-0.398,0.198-0.607c0-0.233-0.067-0.431-0.202-0.595c-0.132-0.167-0.332-0.25-0.599-0.25
	c-0.291,0-0.495,0.091-0.611,0.274s-0.175,0.451-0.175,0.805h-1.139v-0.167c0-0.502,0.158-0.939,0.473-1.309
	c0.317-0.37,0.789-0.556,1.416-0.556c0.55,0,1.018,0.156,1.4,0.468c0.384,0.31,0.575,0.754,0.575,1.333
	c0,0.394-0.095,0.738-0.285,1.032c-0.188,0.291-0.561,0.629-1.119,1.016c-0.61,0.423-0.975,0.726-1.091,0.908h2.495v1.012h-3.936
	C177.108,75.434,177.219,75.013,177.442,74.656z"/>
<path d="M177.228,39.718l2.131-3.519h1.297v3.622h0.639v0.881h-0.639v1.266h-1.139v-1.266h-2.289V39.718z M178.082,39.821h1.436
	v-2.515L178.082,39.821z"/>
<path d="M187.948,54.817c-2.365,0-4.288-1.924-4.288-4.289c0-2.364,1.923-4.287,4.288-4.287s4.288,1.923,4.288,4.287
	C192.236,52.894,190.313,54.817,187.948,54.817z M187.948,46.692c-2.116,0-3.837,1.721-3.837,3.836c0,2.116,1.721,3.838,3.837,3.838
	s3.837-1.722,3.837-3.838C191.785,48.413,190.064,46.692,187.948,46.692z"/>
<path d="M187.034,51.957c0.08,0.534,0.346,0.801,0.798,0.801c0.238,0,0.442-0.087,0.615-0.262c0.172-0.175,0.258-0.437,0.258-0.786
	c0-0.291-0.073-0.533-0.219-0.726c-0.146-0.193-0.363-0.29-0.654-0.29c-0.336,0-0.585,0.14-0.746,0.42l-1.012-0.043l0.393-3.17
	h3.162v0.98h-2.329l-0.214,1.214c0.294-0.209,0.626-0.313,0.996-0.313c0.508,0,0.931,0.168,1.27,0.504
	c0.338,0.336,0.508,0.78,0.508,1.333c0,0.595-0.18,1.086-0.54,1.472c-0.359,0.386-0.86,0.579-1.503,0.579
	c-0.537,0-0.98-0.146-1.329-0.437c-0.35-0.293-0.547-0.719-0.592-1.277H187.034z"/>
<path d="M227.189,56.263c0.568,0,0.97-0.094,1.202-0.282c0.232-0.188,0.363-0.42,0.393-0.698h0.94v5.769h-1.139V57.06h-1.396V56.263
	z"/>
<path d="M263.164,59.445c0.021,0.665,0.299,0.998,0.833,0.998c0.257,0,0.465-0.08,0.623-0.24c0.159-0.159,0.238-0.387,0.238-0.682
	c0-0.287-0.102-0.496-0.306-0.626c-0.201-0.133-0.535-0.199-1.004-0.199v-0.814h0.183c0.632,0,0.948-0.253,0.948-0.758
	c0-0.226-0.066-0.41-0.198-0.55c-0.132-0.144-0.316-0.216-0.552-0.216c-0.519,0-0.78,0.312-0.785,0.934h-1.031
	c0-0.572,0.162-1.022,0.487-1.353c0.328-0.332,0.791-0.499,1.389-0.499c0.548,0,0.992,0.141,1.333,0.423
	c0.342,0.282,0.512,0.67,0.512,1.165c0,0.519-0.236,0.899-0.71,1.141c0.593,0.245,0.889,0.694,0.889,1.349
	c0,0.54-0.183,0.983-0.547,1.329c-0.363,0.343-0.85,0.515-1.46,0.515c-0.641,0-1.123-0.162-1.448-0.487
	c-0.325-0.327-0.503-0.803-0.532-1.428H263.164z"/>
<path d="M244.858,76.239c0.223-0.357,0.648-0.768,1.281-1.234c0.523-0.383,0.852-0.673,0.984-0.869s0.197-0.398,0.197-0.607
	c0-0.233-0.066-0.431-0.201-0.595c-0.133-0.167-0.332-0.25-0.6-0.25c-0.291,0-0.494,0.091-0.611,0.274
	c-0.115,0.183-0.174,0.451-0.174,0.805h-1.139v-0.167c0-0.502,0.158-0.939,0.473-1.309c0.316-0.37,0.789-0.556,1.416-0.556
	c0.549,0,1.018,0.156,1.4,0.468c0.383,0.31,0.574,0.754,0.574,1.333c0,0.394-0.094,0.738-0.285,1.032
	c-0.188,0.291-0.561,0.629-1.119,1.016c-0.609,0.423-0.975,0.726-1.09,0.908h2.494v1.012h-3.936
	C244.524,77.017,244.636,76.597,244.858,76.239z"/>
<path d="M244.396,41.302l2.131-3.519h1.297v3.622h0.639v0.881h-0.639v1.266h-1.139v-1.266h-2.289V41.302z M245.249,41.405h1.436
	V38.89L245.249,41.405z"/>
<path d="M246.364,59.734c-2.364,0-4.288-1.924-4.288-4.289c0-2.364,1.924-4.287,4.288-4.287s4.288,1.923,4.288,4.287
	C250.652,57.811,248.729,59.734,246.364,59.734z M246.364,51.609c-2.115,0-3.837,1.721-3.837,3.836c0,2.116,1.722,3.838,3.837,3.838
	s3.837-1.722,3.837-3.838C250.201,53.33,248.479,51.609,246.364,51.609z"/>
<path d="M245.45,56.874c0.08,0.534,0.346,0.801,0.797,0.801c0.238,0,0.443-0.087,0.615-0.262c0.172-0.175,0.258-0.437,0.258-0.786
	c0-0.291-0.072-0.533-0.219-0.726c-0.145-0.193-0.363-0.29-0.654-0.29c-0.336,0-0.584,0.14-0.746,0.42l-1.012-0.043l0.393-3.17
	h3.162v0.98h-2.328l-0.215,1.214c0.295-0.209,0.627-0.313,0.996-0.313c0.508,0,0.932,0.168,1.27,0.504s0.508,0.78,0.508,1.333
	c0,0.595-0.18,1.086-0.539,1.472c-0.359,0.386-0.861,0.579-1.504,0.579c-0.537,0-0.98-0.146-1.328-0.437
	c-0.35-0.293-0.547-0.719-0.592-1.277H245.45z"/>
<polygon fill-rule="evenodd" clip-rule="evenodd" points="232.263,75.08 236.807,74.333 232.446,72.854 232.263,75.08 "/>
<path d="M232.109,75.246l0.213-2.582l5.057,1.715L232.109,75.246z M232.57,73.043l-0.154,1.87l3.819-0.627L232.57,73.043z"/>
<path d="M236.777,74.595c-6.649-0.665-18.327-3.636-19.915-10.552c-1.29-5.62-0.573-9.796,2.129-12.414
	c5.326-5.159,16.848-2.832,21.553-1.59l-0.145,0.548c-4.612-1.215-15.895-3.507-21.014,1.45c-2.55,2.47-3.213,6.466-1.971,11.879
	c1.516,6.604,12.919,9.465,19.418,10.115L236.777,74.595z"/>
<rect x="277.05" y="26.353" width="1.102" height="65.377"/>
<path d="M291.022,56.828c0.568,0,0.969-0.094,1.201-0.282c0.232-0.188,0.363-0.42,0.393-0.698h0.941v5.769h-1.139v-3.991h-1.396
	V56.828z"/>
<path d="M326.997,59.832c0.021,0.661,0.299,0.992,0.832,0.992c0.258,0,0.465-0.079,0.623-0.238c0.16-0.159,0.238-0.385,0.238-0.679
	c0-0.286-0.102-0.493-0.305-0.623c-0.201-0.132-0.535-0.199-1.004-0.199v-0.809h0.182c0.633,0,0.949-0.251,0.949-0.754
	c0-0.225-0.066-0.407-0.199-0.547c-0.131-0.143-0.316-0.214-0.551-0.214c-0.52,0-0.781,0.31-0.785,0.928h-1.031
	c0-0.568,0.162-1.017,0.486-1.345c0.328-0.331,0.791-0.496,1.389-0.496c0.549,0,0.992,0.141,1.334,0.421s0.512,0.667,0.512,1.158
	c0,0.516-0.236,0.894-0.711,1.135c0.594,0.243,0.889,0.69,0.889,1.341c0,0.537-0.182,0.978-0.547,1.321
	c-0.363,0.341-0.85,0.512-1.459,0.512c-0.641,0-1.123-0.162-1.449-0.484c-0.324-0.326-0.502-0.799-0.531-1.42H326.997z"/>
<path d="M305.031,79.734c-2.364,0-4.288-1.924-4.288-4.289c0-2.364,1.924-4.287,4.288-4.287s4.288,1.923,4.288,4.287
	C309.319,77.81,307.396,79.734,305.031,79.734z M305.031,71.609c-2.115,0-3.837,1.721-3.837,3.836c0,2.116,1.722,3.838,3.837,3.838
	s3.837-1.722,3.837-3.838C308.868,73.33,307.146,71.609,305.031,71.609z"/>
<path d="M304.116,76.873c0.08,0.534,0.346,0.801,0.799,0.801c0.238,0,0.441-0.087,0.615-0.262c0.172-0.175,0.258-0.437,0.258-0.786
	c0-0.291-0.074-0.533-0.219-0.726c-0.146-0.193-0.363-0.29-0.654-0.29c-0.336,0-0.586,0.14-0.746,0.42l-1.012-0.043l0.393-3.17
	h3.162v0.98h-2.33l-0.213,1.214c0.293-0.209,0.625-0.313,0.996-0.313c0.508,0,0.93,0.168,1.27,0.504
	c0.338,0.336,0.508,0.78,0.508,1.333c0,0.595-0.18,1.086-0.541,1.472c-0.359,0.386-0.859,0.579-1.502,0.579
	c-0.537,0-0.98-0.146-1.33-0.437c-0.35-0.293-0.547-0.719-0.592-1.277H304.116z"/>
<path d="M303.235,54.331h1.787v7.113h4.313v1.512h-6.1V54.331z"/>
<path d="M309.897,62.956l3.094-8.625h2.068l3.094,8.625h-1.957l-0.557-1.799h-3.234l-0.609,1.799H309.897z M312.903,59.645h2.203
	l-1.084-3.357L312.903,59.645z"/>
<path d="M372.146,75.156c0.222-0.357,0.648-0.768,1.281-1.234c0.523-0.383,0.852-0.673,0.983-0.869
	c0.133-0.196,0.198-0.398,0.198-0.607c0-0.233-0.067-0.431-0.202-0.595c-0.132-0.167-0.332-0.25-0.599-0.25
	c-0.291,0-0.495,0.091-0.611,0.274s-0.175,0.451-0.175,0.805h-1.139v-0.167c0-0.502,0.158-0.939,0.473-1.309
	c0.317-0.37,0.789-0.556,1.416-0.556c0.55,0,1.018,0.156,1.4,0.468c0.384,0.31,0.575,0.754,0.575,1.333
	c0,0.394-0.095,0.738-0.285,1.032c-0.188,0.291-0.561,0.629-1.119,1.016c-0.61,0.423-0.975,0.726-1.091,0.908h2.495v1.012h-3.936
	C371.812,75.934,371.923,75.513,372.146,75.156z"/>
<path d="M379.282,62.322c-2.364,0-4.288-1.923-4.288-4.288c0-2.365,1.924-4.289,4.288-4.289s4.288,1.924,4.288,4.289
	C383.57,60.398,381.646,62.322,379.282,62.322z M379.282,54.197c-2.115,0-3.837,1.722-3.837,3.837c0,2.115,1.722,3.836,3.837,3.836
	s3.837-1.721,3.837-3.836C383.119,55.918,381.397,54.197,379.282,54.197z"/>
<path d="M377.108,58.7l2.131-3.519h1.297v3.622h0.639v0.881h-0.639v1.266h-1.139v-1.266h-2.289V58.7z M377.962,58.803h1.436v-2.515
	L377.962,58.803z"/>
<path d="M355.532,62.317c-2.364,0-4.288-1.924-4.288-4.289c0-2.364,1.924-4.287,4.288-4.287s4.288,1.923,4.288,4.287
	C359.82,60.393,357.896,62.317,355.532,62.317z M355.532,54.192c-2.115,0-3.837,1.721-3.837,3.836c0,2.116,1.722,3.838,3.837,3.838
	s3.837-1.722,3.837-3.838C359.369,55.913,357.647,54.192,355.532,54.192z"/>
<path d="M353.772,56.262c0.568,0,0.97-0.094,1.202-0.282c0.232-0.188,0.363-0.42,0.393-0.698h0.94v5.769h-1.139V57.06h-1.396V56.262
	z"/>
<path d="M390.782,62.322c-2.364,0-4.288-1.923-4.288-4.288c0-2.365,1.924-4.289,4.288-4.289s4.288,1.924,4.288,4.289
	C395.07,60.398,393.146,62.322,390.782,62.322z M390.782,54.197c-2.115,0-3.837,1.722-3.837,3.837c0,2.115,1.722,3.836,3.837,3.836
	s3.837-1.721,3.837-3.836C394.619,55.918,392.897,54.197,390.782,54.197z"/>
<path d="M389.747,59.165c0.021,0.661,0.299,0.992,0.833,0.992c0.257,0,0.465-0.079,0.623-0.238c0.159-0.159,0.238-0.385,0.238-0.679
	c0-0.286-0.102-0.493-0.306-0.623c-0.201-0.132-0.535-0.199-1.004-0.199v-0.809h0.183c0.632,0,0.948-0.251,0.948-0.754
	c0-0.225-0.066-0.407-0.198-0.547c-0.132-0.143-0.316-0.214-0.552-0.214c-0.519,0-0.78,0.31-0.785,0.928h-1.031
	c0-0.568,0.162-1.017,0.487-1.345c0.328-0.331,0.791-0.496,1.389-0.496c0.548,0,0.992,0.141,1.333,0.421
	c0.342,0.28,0.512,0.667,0.512,1.158c0,0.516-0.236,0.894-0.71,1.135c0.593,0.243,0.889,0.69,0.889,1.341
	c0,0.537-0.183,0.978-0.547,1.321c-0.363,0.341-0.85,0.512-1.46,0.512c-0.641,0-1.123-0.162-1.448-0.484
	c-0.325-0.326-0.503-0.799-0.532-1.42H389.747z"/>
<path d="M368.449,62.317c-2.364,0-4.288-1.924-4.288-4.289c0-2.364,1.924-4.287,4.288-4.287s4.288,1.923,4.288,4.287
	C372.737,60.393,370.813,62.317,368.449,62.317z M368.449,54.192c-2.115,0-3.837,1.721-3.837,3.836c0,2.116,1.722,3.838,3.837,3.838
	s3.837-1.722,3.837-3.838C372.286,55.913,370.564,54.192,368.449,54.192z"/>
<path d="M367.534,59.456c0.08,0.534,0.346,0.801,0.798,0.801c0.238,0,0.442-0.087,0.615-0.262c0.172-0.175,0.258-0.437,0.258-0.786
	c0-0.291-0.073-0.533-0.219-0.726c-0.146-0.193-0.363-0.29-0.654-0.29c-0.336,0-0.585,0.14-0.746,0.42l-1.012-0.043l0.393-3.17
	h3.162v0.98H367.8l-0.214,1.214c0.294-0.209,0.626-0.313,0.996-0.313c0.508,0,0.931,0.168,1.27,0.504
	c0.338,0.336,0.508,0.78,0.508,1.333c0,0.595-0.18,1.086-0.54,1.472c-0.359,0.386-0.86,0.579-1.503,0.579
	c-0.537,0-0.98-0.146-1.329-0.437c-0.35-0.293-0.547-0.719-0.592-1.277H367.534z"/>
<rect x="115.606" y="52.769" transform="matrix(0.8683 0.4961 -0.4961 0.8683 42.4358 -53.7087)" width="13.478" height="0.557"/>
<rect x="101.94" y="60.268" transform="matrix(0.8683 0.4961 -0.4961 0.8683 44.356 -45.9405)" width="13.478" height="0.557"/>
<path d="M56.864,142.151c-2.365,0-4.288-1.925-4.288-4.29c0-2.363,1.923-4.286,4.288-4.286s4.288,1.923,4.288,4.286
	C61.152,140.226,59.229,142.151,56.864,142.151z M56.864,134.026c-2.116,0-3.837,1.721-3.837,3.835c0,2.117,1.721,3.839,3.837,3.839
	s3.837-1.722,3.837-3.839C60.701,135.747,58.979,134.026,56.864,134.026z"/>
<path d="M55.145,139.123c0.222-0.357,0.648-0.768,1.281-1.234c0.523-0.383,0.852-0.672,0.983-0.868
	c0.133-0.196,0.198-0.397,0.198-0.606c0-0.233-0.067-0.432-0.202-0.596c-0.132-0.166-0.332-0.25-0.599-0.25
	c-0.291,0-0.495,0.092-0.611,0.273c-0.116,0.184-0.175,0.451-0.175,0.806h-1.139v-0.167c0-0.502,0.158-0.938,0.473-1.309
	c0.317-0.37,0.789-0.556,1.416-0.556c0.55,0,1.018,0.156,1.4,0.468c0.384,0.311,0.575,0.754,0.575,1.334
	c0,0.394-0.095,0.737-0.285,1.031c-0.188,0.291-0.561,0.629-1.119,1.016c-0.61,0.423-0.975,0.726-1.091,0.908h2.495v1.012h-3.936
	C54.811,139.9,54.922,139.48,55.145,139.123z"/>
<path d="M61.614,120.123c-2.365,0-4.288-1.923-4.288-4.287c0-2.365,1.923-4.289,4.288-4.289s4.288,1.924,4.288,4.289
	C65.902,118.2,63.979,120.123,61.614,120.123z M61.614,111.998c-2.116,0-3.837,1.722-3.837,3.838c0,2.115,1.721,3.836,3.837,3.836
	s3.837-1.721,3.837-3.836C65.451,113.719,63.729,111.998,61.614,111.998z"/>
<path d="M59.441,116.501l2.131-3.52h1.297v3.622h0.639v0.881h-0.639v1.266H61.73v-1.266h-2.289V116.501z M60.294,116.604h1.436
	v-2.515L60.294,116.604z"/>
<path d="M37.2,122.248c0.021,0.662,0.299,0.992,0.833,0.992c0.257,0,0.465-0.079,0.623-0.238c0.159-0.158,0.238-0.385,0.238-0.678
	c0-0.286-0.102-0.494-0.306-0.623c-0.201-0.133-0.535-0.199-1.004-0.199v-0.809h0.183c0.632,0,0.948-0.252,0.948-0.754
	c0-0.225-0.066-0.407-0.198-0.547c-0.132-0.144-0.316-0.215-0.552-0.215c-0.519,0-0.78,0.31-0.785,0.928h-1.031
	c0-0.568,0.162-1.016,0.487-1.344c0.328-0.331,0.791-0.496,1.389-0.496c0.548,0,0.992,0.141,1.333,0.42
	c0.342,0.281,0.512,0.667,0.512,1.158c0,0.516-0.236,0.895-0.71,1.135c0.593,0.244,0.889,0.691,0.889,1.342
	c0,0.537-0.183,0.977-0.547,1.32c-0.363,0.342-0.85,0.512-1.46,0.512c-0.641,0-1.123-0.161-1.448-0.483
	c-0.325-0.325-0.503-0.799-0.532-1.421H37.2z"/>
<path d="M76.485,119.245c0.568,0,0.97-0.094,1.202-0.282c0.232-0.188,0.363-0.42,0.393-0.697h0.94v5.768h-1.139v-3.99h-1.396
	V119.245z"/>
<path d="M52.281,120.151c-2.365,0-4.288-1.925-4.288-4.29c0-2.363,1.923-4.286,4.288-4.286s4.288,1.923,4.288,4.286
	C56.569,118.226,54.646,120.151,52.281,120.151z M52.281,112.026c-2.116,0-3.837,1.721-3.837,3.835c0,2.117,1.721,3.839,3.837,3.839
	s3.837-1.722,3.837-3.839C56.118,113.747,54.396,112.026,52.281,112.026z"/>
<path d="M51.367,117.29c0.08,0.534,0.346,0.802,0.798,0.802c0.238,0,0.442-0.088,0.615-0.262c0.172-0.176,0.258-0.438,0.258-0.786
	c0-0.291-0.073-0.532-0.219-0.726s-0.363-0.29-0.654-0.29c-0.336,0-0.585,0.14-0.746,0.421l-1.012-0.044l0.393-3.17h3.162v0.979
	h-2.329l-0.214,1.215c0.294-0.209,0.626-0.314,0.996-0.314c0.508,0,0.931,0.168,1.27,0.504c0.338,0.336,0.508,0.781,0.508,1.334
	c0,0.595-0.18,1.086-0.54,1.472c-0.359,0.386-0.86,0.579-1.503,0.579c-0.537,0-0.98-0.146-1.329-0.437
	c-0.35-0.294-0.547-0.72-0.592-1.277H51.367z"/>
<path d="M56.673,131.373h-1.986c-0.121-0.465-0.186-0.975-0.193-1.529l-0.012-0.645c-0.008-0.43-0.104-0.736-0.287-0.92
	s-0.557-0.275-1.119-0.275h-1.887v3.369h-1.787v-8.625h4.4c0.828,0,1.49,0.225,1.986,0.674c0.496,0.445,0.744,1.049,0.744,1.811
	c0,0.973-0.447,1.648-1.342,2.027c0.484,0.191,0.787,0.455,0.908,0.791s0.182,0.861,0.182,1.576v0.346
	c0,0.328,0.021,0.59,0.064,0.785c0.047,0.191,0.156,0.318,0.328,0.381V131.373z M54.716,125.408c0-0.766-0.422-1.148-1.266-1.148
	h-2.262v2.303h2.121C54.248,126.562,54.716,126.177,54.716,125.408z"/>
<path d="M57.4,131.373l3.094-8.625h2.068l3.094,8.625h-1.957l-0.557-1.799h-3.234l-0.609,1.799H57.4z M60.406,128.062h2.203
	l-1.084-3.357L60.406,128.062z"/>
<path d="M149.701,122.266c0.021,0.661,0.299,0.991,0.833,0.991c0.257,0,0.465-0.078,0.623-0.237
	c0.159-0.159,0.238-0.386,0.238-0.679c0-0.285-0.102-0.493-0.306-0.623c-0.201-0.132-0.535-0.198-1.004-0.198v-0.81h0.183
	c0.632,0,0.948-0.251,0.948-0.754c0-0.225-0.066-0.406-0.198-0.547c-0.132-0.143-0.316-0.215-0.552-0.215
	c-0.519,0-0.78,0.311-0.785,0.929h-1.031c0-0.568,0.162-1.017,0.487-1.345c0.328-0.33,0.791-0.496,1.389-0.496
	c0.548,0,0.992,0.141,1.333,0.421c0.342,0.28,0.512,0.667,0.512,1.158c0,0.516-0.236,0.894-0.71,1.135
	c0.593,0.243,0.889,0.69,0.889,1.341c0,0.537-0.183,0.978-0.547,1.321c-0.363,0.341-0.85,0.512-1.46,0.512
	c-0.641,0-1.123-0.161-1.448-0.483c-0.325-0.326-0.503-0.799-0.532-1.421H149.701z"/>
<path d="M191.486,119.424c0.568,0,0.97-0.095,1.202-0.283s0.363-0.423,0.393-0.702h0.94v5.801h-1.139v-4.014h-1.396V119.424z"/>
<path d="M169.026,139.24c0.222-0.357,0.648-0.769,1.281-1.234c0.523-0.383,0.852-0.673,0.983-0.869
	c0.133-0.195,0.198-0.397,0.198-0.606c0-0.233-0.067-0.431-0.202-0.595c-0.132-0.167-0.332-0.25-0.599-0.25
	c-0.291,0-0.495,0.091-0.611,0.273s-0.175,0.451-0.175,0.805h-1.139v-0.166c0-0.502,0.158-0.939,0.473-1.309
	c0.317-0.371,0.789-0.557,1.416-0.557c0.55,0,1.018,0.156,1.4,0.469c0.384,0.31,0.575,0.754,0.575,1.333
	c0,0.394-0.095,0.737-0.285,1.032c-0.188,0.291-0.561,0.629-1.119,1.016c-0.61,0.422-0.975,0.725-1.091,0.908h2.495v1.012h-3.936
	C168.692,140.017,168.803,139.597,169.026,139.24z"/>
<path d="M168.562,104.302l2.131-3.52h1.297v3.622h0.639v0.881h-0.639v1.266h-1.139v-1.266h-2.289V104.302z M169.416,104.405h1.436
	v-2.515L169.416,104.405z"/>
<path d="M170.531,122.735c-2.365,0-4.288-1.925-4.288-4.29c0-2.363,1.923-4.286,4.288-4.286s4.288,1.923,4.288,4.286
	C174.819,120.81,172.896,122.735,170.531,122.735z M170.531,114.61c-2.116,0-3.837,1.721-3.837,3.835
	c0,2.117,1.721,3.839,3.837,3.839s3.837-1.722,3.837-3.839C174.368,116.331,172.647,114.61,170.531,114.61z"/>
<path d="M169.617,119.874c0.08,0.534,0.346,0.802,0.798,0.802c0.238,0,0.442-0.088,0.615-0.262c0.172-0.176,0.258-0.438,0.258-0.786
	c0-0.291-0.073-0.532-0.219-0.726s-0.363-0.29-0.654-0.29c-0.336,0-0.585,0.14-0.746,0.421l-1.012-0.044l0.393-3.17h3.162v0.979
	h-2.329l-0.214,1.215c0.294-0.209,0.626-0.314,0.996-0.314c0.508,0,0.931,0.168,1.27,0.504c0.338,0.336,0.508,0.781,0.508,1.334
	c0,0.595-0.18,1.086-0.54,1.472c-0.359,0.386-0.86,0.579-1.503,0.579c-0.537,0-0.98-0.146-1.329-0.437
	c-0.35-0.294-0.547-0.72-0.592-1.277H169.617z"/>
<polygon fill-rule="evenodd" clip-rule="evenodd" points="151.813,133.129 152.56,128.585 154.039,132.946 151.813,133.129 "/>
<path d="M151.646,133.283l0.867-5.27l1.715,5.057L151.646,133.283z M152.606,129.158l-0.627,3.818l1.87-0.154L152.606,129.158z"/>
<path d="M167.825,149.152c-1.506,0-3.166-0.207-4.976-0.622c-6.917-1.588-9.887-13.266-10.552-19.915l0.564-0.057
	c0.649,6.499,3.511,17.903,10.115,19.419c5.412,1.24,9.409,0.578,11.879-1.971c4.957-5.119,2.665-16.401,1.45-21.015l0.548-0.145
	c1.24,4.706,3.567,16.228-1.59,21.554C173.489,148.233,170.997,149.152,167.825,149.152z"/>
<path d="M272.048,138.816c-6.209,0-11.26-5.051-11.26-11.26s5.051-11.26,11.26-11.26c6.211,0,11.264,5.051,11.264,11.26
	S278.259,138.816,272.048,138.816z M272.048,117.289c-5.661,0-10.268,4.606-10.268,10.268s4.606,10.268,10.268,10.268
	c5.664,0,10.271-4.606,10.271-10.268S277.712,117.289,272.048,117.289z"/>
<path d="M367.396,128.468l2.131-3.52h1.297v3.623h0.639v0.881h-0.639v1.266h-1.139v-1.266h-2.289V128.468z M368.249,128.572h1.436
	v-2.516L368.249,128.572z"/>
<path d="M410.36,124.638c0.222-0.359,0.648-0.773,1.281-1.241c0.523-0.386,0.852-0.677,0.983-0.874
	c0.133-0.196,0.198-0.4,0.198-0.609c0-0.234-0.067-0.434-0.202-0.6c-0.132-0.167-0.332-0.251-0.599-0.251
	c-0.291,0-0.495,0.092-0.611,0.275s-0.175,0.454-0.175,0.81h-1.139v-0.167c0-0.505,0.158-0.944,0.473-1.317
	c0.317-0.372,0.789-0.559,1.416-0.559c0.551,0,1.018,0.158,1.4,0.471c0.384,0.313,0.575,0.759,0.575,1.342
	c0,0.396-0.095,0.742-0.285,1.037c-0.188,0.293-0.561,0.633-1.119,1.021c-0.61,0.426-0.975,0.729-1.091,0.913h2.495v1.018h-3.936
	C410.026,125.419,410.138,124.998,410.36,124.638z"/>
<path d="M384.915,140.382c0.021,0.661,0.299,0.992,0.832,0.992c0.258,0,0.465-0.08,0.623-0.238c0.16-0.158,0.238-0.385,0.238-0.679
	c0-0.286-0.102-0.493-0.305-0.622c-0.201-0.133-0.535-0.199-1.004-0.199v-0.809h0.182c0.633,0,0.949-0.252,0.949-0.754
	c0-0.225-0.066-0.408-0.199-0.548c-0.131-0.144-0.316-0.214-0.551-0.214c-0.52,0-0.781,0.309-0.785,0.928h-1.031
	c0-0.568,0.162-1.017,0.486-1.345c0.328-0.331,0.791-0.496,1.389-0.496c0.549,0,0.992,0.141,1.334,0.421s0.512,0.666,0.512,1.158
	c0,0.516-0.236,0.895-0.711,1.135c0.594,0.243,0.889,0.69,0.889,1.341c0,0.537-0.182,0.978-0.547,1.321
	c-0.363,0.341-0.85,0.512-1.459,0.512c-0.641,0-1.123-0.162-1.449-0.484c-0.324-0.325-0.502-0.799-0.531-1.42H384.915z"/>
<path d="M387.69,103.429c0.568,0,0.969-0.094,1.201-0.281s0.363-0.421,0.393-0.699h0.941v5.77h-1.139v-3.992h-1.396V103.429z"/>
<path d="M393.948,144.151c-2.364,0-4.288-1.924-4.288-4.289c0-2.364,1.924-4.287,4.288-4.287s4.288,1.923,4.288,4.287
	C398.236,142.227,396.313,144.151,393.948,144.151z M393.948,136.026c-2.115,0-3.837,1.721-3.837,3.836
	c0,2.116,1.722,3.838,3.837,3.838s3.837-1.722,3.837-3.838C397.785,137.747,396.063,136.026,393.948,136.026z"/>
<path d="M393.034,141.291c0.08,0.533,0.346,0.801,0.797,0.801c0.238,0,0.443-0.088,0.615-0.262c0.172-0.175,0.258-0.437,0.258-0.785
	c0-0.291-0.072-0.533-0.219-0.727c-0.145-0.193-0.363-0.289-0.654-0.289c-0.336,0-0.584,0.14-0.746,0.42l-1.012-0.043l0.393-3.17
	h3.162v0.979H393.3l-0.215,1.214c0.295-0.209,0.627-0.313,0.996-0.313c0.508,0,0.932,0.168,1.27,0.504s0.508,0.78,0.508,1.333
	c0,0.596-0.18,1.086-0.539,1.473c-0.359,0.385-0.861,0.578-1.504,0.578c-0.537,0-0.98-0.145-1.328-0.436
	c-0.35-0.294-0.547-0.72-0.592-1.277H393.034z"/>
<polygon fill-rule="evenodd" clip-rule="evenodd" points="368.749,117.66 373.349,117.873 369.19,119.849 368.749,117.66 "/>
<path d="M369.089,120.051l-0.512-2.539l5.335,0.247L369.089,120.051z M368.921,117.807l0.371,1.84l3.493-1.661L368.921,117.807z"/>
<path d="M387.413,152.073c-4.552,0-9.259-0.829-13.372-2.324c-7.909-3.417-10.729-8.289-12.162-11.656
	c-1.187-2.788-1.856-10.245,1.032-15.178c1.624-2.771,4.101-4.357,7.363-4.715l0.063,0.564c-3.075,0.336-5.408,1.828-6.937,4.437
	c-2.793,4.77-2.146,11.976-1,14.669c1.396,3.278,4.144,8.022,11.85,11.353c10.223,3.714,24.185,3.272,29.832-3.915
	c2.167-3.721,0.354-7.997-1.91-9.41c-1.232-0.768-2.375-0.562-3.131,0.574l-0.473-0.314c0.938-1.404,2.396-1.682,3.904-0.74
	c2.458,1.534,4.438,6.161,2.077,10.208C401.021,150.119,394.4,152.073,387.413,152.073z"/>
<circle fill="#FFFFFF" cx="427.958" cy="58.601" r="6.696"/>
<path d="M427.958,65.582c-3.848,0-6.979-3.132-6.979-6.981c0-3.848,3.131-6.979,6.979-6.979c3.849,0,6.979,3.131,6.979,6.979
	C434.938,62.45,431.807,65.582,427.958,65.582z M427.958,52.189c-3.535,0-6.412,2.876-6.412,6.412c0,3.537,2.877,6.414,6.412,6.414
	c3.536,0,6.413-2.877,6.413-6.414C434.371,55.065,431.494,52.189,427.958,52.189z"/>
<circle fill="#FFFFFF" cx="441.624" cy="58.603" r="6.696"/>
<path d="M441.625,65.582c-3.85,0-6.98-3.131-6.98-6.979c0-3.849,3.131-6.981,6.98-6.981c3.848,0,6.979,3.132,6.979,6.981
	C448.604,62.451,445.473,65.582,441.625,65.582z M441.625,52.189c-3.536,0-6.414,2.877-6.414,6.414c0,3.536,2.878,6.412,6.414,6.412
	c3.535,0,6.412-2.876,6.412-6.412C448.037,55.066,445.16,52.189,441.625,52.189z"/>
<circle fill="#FFFFFF" cx="414.708" cy="58.603" r="6.696"/>
<path d="M414.708,65.582c-3.849,0-6.979-3.131-6.979-6.979c0-3.849,3.131-6.981,6.979-6.981s6.979,3.132,6.979,6.981
	C421.688,62.451,418.557,65.582,414.708,65.582z M414.708,52.189c-3.536,0-6.413,2.877-6.413,6.414c0,3.536,2.877,6.412,6.413,6.412
	s6.413-2.876,6.413-6.412C421.121,55.066,418.244,52.189,414.708,52.189z"/>
<rect x="404.426" y="58.452" width="47.175" height="0.567"/>
<rect x="425.204" y="51.865" transform="matrix(0.4961 0.8683 -0.8683 0.4961 262.9233 -348.7629)" width="13.478" height="0.558"/>
<rect x="417.705" y="65.531" transform="matrix(0.4961 0.8683 -0.8683 0.4961 271.0251 -335.371)" width="13.479" height="0.558"/>
<path d="M406.838,84.016c-0.185,0.424-0.278,1.013-0.278,1.767c0,0.594,0.079,1.1,0.236,1.518c0.154,0.416,0.459,0.805,0.914,1.166
	l-0.059,0.104c-1.115-0.68-1.672-1.625-1.672-2.838c0-1.175,0.549-2.135,1.648-2.879l0.082,0.117
	C407.313,83.244,407.022,83.591,406.838,84.016z"/>
<path d="M409.194,84.313v3.065c0,0.979-0.377,1.47-1.133,1.47c-0.187,0-0.338-0.034-0.453-0.102c-0.113-0.069-0.17-0.159-0.17-0.268
	c0-0.078,0.025-0.141,0.078-0.187c0.053-0.048,0.114-0.071,0.186-0.071c0.116,0,0.224,0.066,0.324,0.199
	c0.102,0.133,0.197,0.199,0.287,0.199c0.213,0,0.32-0.251,0.32-0.751v-2.746c0-0.152-0.018-0.256-0.053-0.31
	c-0.035-0.055-0.082-0.082-0.141-0.082c-0.027,0-0.067,0.002-0.117,0.007c-0.048,0.004-0.1,0.011-0.153,0.02v-0.102
	c0.222-0.069,0.555-0.19,0.999-0.362L409.194,84.313z M408.519,83.167c0-0.092,0.033-0.171,0.099-0.238
	c0.067-0.067,0.149-0.102,0.245-0.102c0.094,0,0.174,0.032,0.241,0.098s0.101,0.142,0.101,0.229c0,0.109-0.033,0.196-0.101,0.262
	c-0.067,0.063-0.15,0.095-0.248,0.095c-0.096,0-0.177-0.033-0.241-0.099C408.551,83.344,408.519,83.263,408.519,83.167z"/>
<path d="M409.956,85.857c0-0.441,0.131-0.813,0.392-1.113c0.263-0.3,0.61-0.45,1.042-0.45c0.465,0,0.832,0.141,1.1,0.421
	c0.27,0.279,0.404,0.652,0.404,1.12c0,0.45-0.139,0.833-0.418,1.146c-0.275,0.312-0.626,0.468-1.051,0.468
	c-0.438,0-0.792-0.152-1.064-0.458C410.091,86.683,409.956,86.306,409.956,85.857z M410.544,85.524c0,0.469,0.084,0.875,0.251,1.222
	c0.167,0.344,0.4,0.516,0.698,0.516c0.25,0,0.449-0.103,0.595-0.307c0.146-0.207,0.219-0.514,0.219-0.921
	c0-0.444-0.089-0.814-0.265-1.11s-0.409-0.443-0.699-0.443c-0.252,0-0.449,0.099-0.59,0.297
	C410.613,84.975,410.544,85.224,410.544,85.524z"/>
<path d="M413.345,87.385v-0.102c0.158-0.009,0.275-0.041,0.35-0.098c0.076-0.059,0.113-0.218,0.113-0.477v-1.587
	c0-0.144-0.018-0.245-0.052-0.304c-0.032-0.059-0.082-0.088-0.147-0.088c-0.041,0-0.08,0.002-0.117,0.007
	c-0.037,0.004-0.086,0.011-0.146,0.02v-0.102c0.334-0.113,0.668-0.233,0.998-0.362l0.027,0.02v2.396
	c0,0.232,0.031,0.384,0.098,0.454c0.066,0.067,0.189,0.107,0.365,0.12v0.102H413.345z M413.694,83.167
	c0-0.092,0.031-0.171,0.098-0.238s0.148-0.102,0.244-0.102c0.094,0,0.174,0.032,0.242,0.098c0.066,0.065,0.102,0.142,0.102,0.229
	c0,0.109-0.035,0.196-0.102,0.262c-0.068,0.063-0.15,0.095-0.248,0.095c-0.096,0-0.177-0.033-0.242-0.099
	C413.726,83.344,413.694,83.263,413.694,83.167z"/>
<path d="M415.036,87.284c0.154-0.004,0.27-0.034,0.346-0.091c0.078-0.059,0.117-0.186,0.117-0.379v-1.639
	c0-0.194-0.021-0.315-0.062-0.366c-0.042-0.052-0.103-0.078-0.183-0.078c-0.066,0-0.139,0.009-0.219,0.026v-0.102
	c0.461-0.161,0.782-0.281,0.963-0.362l0.045,0.013v0.51c0.225-0.202,0.404-0.34,0.539-0.411c0.137-0.074,0.287-0.111,0.447-0.111
	c0.244,0,0.439,0.087,0.584,0.261c0.148,0.173,0.223,0.417,0.223,0.735v1.524c0,0.188,0.037,0.312,0.111,0.372
	c0.076,0.059,0.193,0.092,0.352,0.098v0.102h-1.481v-0.102c0.135-0.004,0.245-0.039,0.329-0.104c0.086-0.064,0.128-0.222,0.128-0.47
	v-1.339c0-0.27-0.045-0.456-0.134-0.558c-0.088-0.104-0.218-0.157-0.393-0.157c-0.105,0-0.214,0.03-0.322,0.092
	c-0.107,0.061-0.229,0.152-0.365,0.274v1.896c0,0.235,0.152,0.356,0.457,0.365v0.102h-1.482V87.284z"/>
<path d="M420.044,87.258c0.25-0.018,0.416-0.072,0.496-0.164c0.08-0.093,0.121-0.265,0.121-0.516V83.7
	c0-0.209-0.031-0.357-0.095-0.444s-0.183-0.142-0.359-0.163l-0.163-0.02v-0.128h1.91c0.535,0,0.949,0.103,1.244,0.308
	c0.295,0.204,0.443,0.491,0.443,0.861c0,0.318-0.104,0.569-0.313,0.754c-0.209,0.184-0.509,0.309-0.901,0.376l1.332,1.636
	c0.092,0.113,0.179,0.2,0.262,0.261c0.084,0.062,0.207,0.101,0.369,0.118v0.127h-1.078l-1.6-2.07l-0.369,0.014v1.303
	c0,0.204,0.039,0.355,0.118,0.453c0.08,0.099,0.247,0.156,0.499,0.174v0.127h-1.916V87.258z M421.343,85.067h0.086
	c0.992,0,1.488-0.317,1.488-0.953c0-0.604-0.375-0.907-1.127-0.907h-0.088c-0.148,0-0.244,0.02-0.291,0.059
	c-0.045,0.037-0.068,0.104-0.068,0.202V85.067z"/>
<path d="M424.536,82.945h1.916v0.128c-0.276,0.02-0.448,0.076-0.516,0.17c-0.067,0.091-0.102,0.261-0.102,0.509v1.237h2.034v-1.342
	c0-0.248-0.051-0.402-0.153-0.464c-0.1-0.063-0.254-0.1-0.463-0.11v-0.128h1.916v0.128c-0.253,0.009-0.42,0.059-0.5,0.149
	c-0.078,0.09-0.117,0.249-0.117,0.478v2.983c0,0.23,0.043,0.382,0.131,0.454c0.089,0.071,0.251,0.112,0.486,0.121v0.127h-1.916
	v-0.127c0.219-0.007,0.377-0.043,0.473-0.108s0.144-0.238,0.144-0.519v-1.349h-2.034v1.349c0,0.246,0.046,0.41,0.138,0.493
	c0.093,0.08,0.253,0.125,0.479,0.134v0.127h-1.916v-0.127c0.246-0.009,0.41-0.056,0.492-0.141c0.084-0.087,0.125-0.267,0.125-0.539
	v-2.932c0-0.23-0.051-0.382-0.15-0.454c-0.098-0.073-0.254-0.114-0.467-0.12V82.945z"/>
<path d="M431.131,85.857c0-0.441,0.131-0.813,0.392-1.113c0.264-0.3,0.611-0.45,1.042-0.45c0.466,0,0.833,0.141,1.101,0.421
	c0.27,0.279,0.404,0.652,0.404,1.12c0,0.45-0.139,0.833-0.418,1.146c-0.276,0.312-0.627,0.468-1.051,0.468
	c-0.438,0-0.793-0.152-1.064-0.458C431.267,86.683,431.131,86.306,431.131,85.857z M431.719,85.524c0,0.469,0.084,0.875,0.251,1.222
	c0.168,0.344,0.4,0.516,0.699,0.516c0.25,0,0.448-0.103,0.594-0.307c0.146-0.207,0.219-0.514,0.219-0.921
	c0-0.444-0.088-0.814-0.264-1.11c-0.177-0.296-0.41-0.443-0.699-0.443c-0.252,0-0.449,0.099-0.591,0.297
	C431.788,84.975,431.719,85.224,431.719,85.524z"/>
<path d="M434.353,87.284c0.155-0.004,0.271-0.034,0.347-0.091c0.078-0.059,0.118-0.186,0.118-0.379v-1.639
	c0-0.194-0.021-0.315-0.063-0.366c-0.041-0.052-0.103-0.078-0.184-0.078c-0.064,0-0.138,0.009-0.219,0.026v-0.102
	c0.462-0.161,0.783-0.281,0.964-0.362l0.046,0.013v0.51c0.224-0.202,0.403-0.34,0.538-0.411c0.138-0.074,0.286-0.111,0.447-0.111
	c0.244,0,0.438,0.087,0.585,0.261c0.147,0.173,0.222,0.417,0.222,0.735v1.524c0,0.188,0.037,0.312,0.11,0.372
	c0.076,0.059,0.194,0.092,0.354,0.098v0.102h-1.482v-0.102c0.135-0.004,0.244-0.039,0.33-0.104c0.084-0.064,0.127-0.222,0.127-0.47
	v-1.339c0-0.27-0.045-0.456-0.134-0.558c-0.087-0.104-0.218-0.157-0.392-0.157c-0.107,0-0.215,0.03-0.324,0.092
	c-0.105,0.061-0.229,0.152-0.365,0.274v1.896c0,0.235,0.152,0.356,0.457,0.365v0.102h-1.482V87.284z"/>
<path d="M439.825,82.945h2.479v0.104l-1.428,4.382h-0.43l1.318-3.977h-1.427c-0.207,0-0.364,0.042-0.47,0.127
	c-0.107,0.083-0.214,0.219-0.32,0.408l-0.117-0.052C439.532,83.703,439.664,83.372,439.825,82.945z"/>
<path d="M444.203,84.858c-0.161-0.438-0.241-0.756-0.241-0.956c0-0.283,0.094-0.528,0.28-0.734c0.187-0.209,0.435-0.313,0.744-0.313
	c0.255,0,0.472,0.071,0.649,0.215c0.179,0.142,0.268,0.335,0.268,0.578c0,0.255-0.086,0.475-0.258,0.659
	c-0.172,0.186-0.432,0.351-0.779,0.497c0.266,0.524,0.57,0.989,0.914,1.394c0.418-0.54,0.627-0.95,0.627-1.23
	c0-0.103-0.033-0.179-0.099-0.229c-0.063-0.051-0.187-0.081-0.372-0.092v-0.127h1.463v0.127c-0.225,0.041-0.385,0.12-0.483,0.235
	c-0.099,0.113-0.211,0.287-0.339,0.522c-0.209,0.379-0.426,0.708-0.65,0.989c0.053,0.098,0.184,0.224,0.392,0.378
	c0.209,0.153,0.415,0.229,0.617,0.229c0.142,0,0.259-0.03,0.353-0.089c0.096-0.061,0.188-0.151,0.277-0.271l0.096,0.071
	c-0.077,0.194-0.207,0.37-0.389,0.529c-0.182,0.156-0.383,0.235-0.604,0.235c-0.379,0-0.767-0.205-1.162-0.614
	c-0.255,0.229-0.495,0.389-0.722,0.48c-0.227,0.089-0.483,0.134-0.771,0.134c-0.308,0-0.567-0.089-0.78-0.265
	c-0.211-0.177-0.316-0.437-0.316-0.78c0-0.535,0.305-0.986,0.914-1.352L444.203,84.858z M444.311,85.093
	c-0.317,0.202-0.526,0.388-0.626,0.555c-0.101,0.168-0.15,0.345-0.15,0.529c0,0.27,0.086,0.496,0.261,0.679
	c0.175,0.184,0.386,0.274,0.637,0.274c0.27,0,0.575-0.139,0.914-0.418C445.019,86.321,444.675,85.781,444.311,85.093z
	 M444.765,84.607c0.524-0.274,0.787-0.597,0.787-0.967c0-0.163-0.052-0.299-0.154-0.407c-0.102-0.109-0.224-0.164-0.365-0.164
	c-0.359,0-0.539,0.198-0.539,0.595C444.493,83.924,444.584,84.239,444.765,84.607z"/>
<path d="M449.074,85.166c-0.365-0.308-0.594-0.552-0.686-0.735c-0.089-0.183-0.134-0.362-0.134-0.538
	c0-0.294,0.119-0.54,0.359-0.738c0.239-0.2,0.537-0.3,0.895-0.3c0.338,0,0.615,0.088,0.832,0.265
	c0.218,0.176,0.326,0.404,0.326,0.686c0,0.237-0.071,0.438-0.215,0.604c-0.142,0.163-0.367,0.325-0.676,0.486
	c0.432,0.326,0.711,0.592,0.839,0.797c0.131,0.202,0.196,0.428,0.196,0.676c0,0.32-0.117,0.586-0.35,0.797
	c-0.23,0.209-0.557,0.313-0.977,0.313c-0.361,0-0.662-0.103-0.904-0.308c-0.241-0.204-0.361-0.454-0.361-0.751
	c0-0.263,0.066-0.48,0.201-0.652S448.774,85.394,449.074,85.166z M449.254,85.292c-0.354,0.287-0.532,0.636-0.532,1.045
	c0,0.257,0.074,0.479,0.223,0.669c0.15,0.189,0.358,0.284,0.627,0.284c0.221,0,0.4-0.068,0.535-0.206
	c0.135-0.139,0.202-0.32,0.202-0.545c0-0.213-0.069-0.397-0.206-0.552C449.968,85.832,449.685,85.599,449.254,85.292z
	 M449.567,84.767c0.257-0.177,0.424-0.337,0.5-0.48s0.113-0.314,0.113-0.513c0-0.226-0.066-0.404-0.201-0.535
	c-0.136-0.133-0.313-0.199-0.529-0.199c-0.203,0-0.371,0.061-0.506,0.18c-0.135,0.117-0.203,0.285-0.203,0.503
	C448.741,84.066,449.017,84.415,449.567,84.767z"/>
<path d="M451.379,82.971l0.081-0.117c1.1,0.744,1.649,1.704,1.649,2.879c0,1.213-0.558,2.158-1.671,2.838l-0.06-0.104
	c0.455-0.361,0.76-0.75,0.914-1.166c0.157-0.418,0.235-0.924,0.235-1.518c0-0.754-0.093-1.343-0.277-1.767
	C452.065,83.591,451.774,83.244,451.379,82.971z"/>
<path d="M7.641,83.016c-0.185,0.424-0.278,1.013-0.278,1.767c0,0.594,0.079,1.1,0.235,1.518c0.154,0.416,0.459,0.805,0.914,1.166
	l-0.059,0.104c-1.115-0.68-1.672-1.625-1.672-2.838c0-1.175,0.55-2.135,1.649-2.879l0.082,0.117
	C8.117,82.244,7.826,82.591,7.641,83.016z"/>
<path d="M9.717,84.077c0.745-0.229,1.117-0.605,1.117-1.133c0-0.193-0.069-0.356-0.206-0.489c-0.137-0.133-0.315-0.199-0.532-0.199
	c-0.425,0-0.755,0.231-0.993,0.695l-0.098-0.026c0.118-0.342,0.282-0.604,0.493-0.79c0.213-0.187,0.485-0.28,0.816-0.28
	c0.317,0,0.569,0.085,0.754,0.254c0.185,0.17,0.278,0.392,0.278,0.663c0,0.349-0.207,0.654-0.621,0.918
	c0.564,0.215,0.846,0.63,0.846,1.243c0,0.477-0.173,0.854-0.519,1.13s-0.784,0.415-1.313,0.415c-0.205,0-0.38-0.032-0.526-0.095
	c-0.146-0.063-0.219-0.161-0.219-0.294c0-0.159,0.089-0.238,0.268-0.238c0.089,0,0.234,0.065,0.434,0.195
	c0.196,0.129,0.359,0.193,0.49,0.193c0.252,0,0.46-0.093,0.624-0.278c0.166-0.187,0.248-0.438,0.248-0.751
	c0-0.417-0.171-0.72-0.513-0.907c-0.163-0.092-0.347-0.137-0.552-0.137H9.727L9.717,84.077z"/>
<path d="M12.261,84.465h1.462v-1.463h0.441v1.463h1.462v0.441h-1.462v1.462h-0.441v-1.462h-1.462V84.465z"/>
<path d="M18.761,81.821l-0.251,0.559c-0.022,0.05-0.075,0.075-0.16,0.075h-1.313l-0.281,0.601c0.524,0.039,0.976,0.202,1.355,0.489
	c0.379,0.285,0.568,0.732,0.568,1.342c0,0.449-0.17,0.826-0.51,1.134c-0.339,0.305-0.765,0.457-1.276,0.457
	c-0.57,0-0.855-0.137-0.855-0.408c0-0.074,0.024-0.134,0.072-0.18c0.048-0.048,0.114-0.072,0.199-0.072
	c0.081,0,0.161,0.019,0.242,0.056c0.083,0.035,0.167,0.082,0.255,0.141c0.078,0.057,0.159,0.106,0.241,0.15
	c0.085,0.043,0.164,0.065,0.235,0.065c0.246,0,0.462-0.106,0.649-0.317c0.188-0.211,0.281-0.504,0.281-0.878
	c0-0.413-0.182-0.748-0.545-1.002c-0.364-0.255-0.797-0.387-1.299-0.396c-0.076,0-0.114-0.02-0.114-0.059
	c0-0.028,0.051-0.153,0.153-0.376l0.584-1.257h1.299c0.128,0,0.216-0.012,0.264-0.035c0.05-0.024,0.098-0.07,0.144-0.138
	L18.761,81.821z"/>
<path d="M21.823,82.467c0.013,0,0.023,0.007,0.029,0.02c0.007,0.011,0.01,0.045,0.01,0.102v0.768h0.679v0.215h-0.679v1.927
	c0,0.402,0.111,0.604,0.333,0.604c0.078,0,0.154-0.021,0.229-0.062c0.074-0.044,0.136-0.1,0.186-0.167l0.088,0.075
	c-0.074,0.133-0.184,0.249-0.33,0.35c-0.144,0.1-0.297,0.15-0.46,0.15c-0.405,0-0.607-0.292-0.607-0.875v-2.002h-0.284
	c-0.063,0-0.095-0.017-0.095-0.049c0-0.026,0.026-0.058,0.078-0.095c0.174-0.117,0.324-0.264,0.451-0.438
	C21.58,82.814,21.704,82.639,21.823,82.467z"/>
<path d="M27.328,83.457c-0.072,0.024-0.127,0.068-0.167,0.134c-0.037,0.063-0.071,0.132-0.101,0.206l-0.934,2.39
	c-0.041,0.104-0.072,0.18-0.091,0.226s-0.047,0.068-0.082,0.068c-0.033,0-0.06-0.028-0.082-0.085
	c-0.022-0.059-0.055-0.145-0.098-0.258l-0.587-1.524l-0.745,1.586c-0.048,0.099-0.083,0.17-0.107,0.216
	c-0.022,0.044-0.046,0.065-0.072,0.065c-0.028,0-0.057-0.026-0.084-0.078c-0.028-0.053-0.058-0.12-0.088-0.203l-0.872-2.259
	c-0.091-0.23-0.16-0.369-0.206-0.415c-0.044-0.045-0.103-0.068-0.176-0.068v-0.101h1.201v0.101c-0.103,0-0.18,0.021-0.232,0.065
	c-0.05,0.041-0.075,0.093-0.075,0.153c0,0.059,0.017,0.144,0.052,0.255c0.035,0.111,0.098,0.282,0.189,0.513l0.454,1.182
	l0.617-1.329l-0.134-0.378c-0.063-0.177-0.128-0.298-0.196-0.363c-0.067-0.064-0.153-0.098-0.258-0.098v-0.101h1.361v0.101
	c-0.263,0.033-0.395,0.114-0.395,0.245c0,0.032,0.009,0.078,0.026,0.137c0.017,0.06,0.06,0.179,0.127,0.359l0.522,1.404l0.604-1.516
	c0.026-0.067,0.049-0.135,0.069-0.202c0.021-0.067,0.032-0.136,0.032-0.205c0-0.111-0.1-0.186-0.3-0.223v-0.101h0.826V83.457z"/>
<path d="M27.762,86.385v-0.102c0.159-0.009,0.275-0.041,0.35-0.098c0.076-0.059,0.114-0.218,0.114-0.477v-1.587
	c0-0.144-0.018-0.245-0.052-0.304c-0.033-0.059-0.082-0.088-0.147-0.088c-0.042,0-0.081,0.002-0.118,0.007
	c-0.037,0.004-0.086,0.011-0.147,0.02v-0.102c0.335-0.113,0.668-0.233,0.999-0.362l0.026,0.02v2.396
	c0,0.232,0.032,0.384,0.098,0.454c0.067,0.067,0.189,0.107,0.366,0.12v0.102H27.762z M28.111,82.167
	c0-0.092,0.032-0.171,0.098-0.238c0.067-0.067,0.149-0.102,0.245-0.102c0.093,0,0.174,0.032,0.241,0.098s0.102,0.142,0.102,0.229
	c0,0.109-0.034,0.196-0.102,0.262c-0.067,0.063-0.15,0.095-0.248,0.095c-0.096,0-0.176-0.033-0.242-0.099
	C28.143,82.344,28.111,82.263,28.111,82.167z"/>
<path d="M29.427,86.385v-0.102c0.169-0.025,0.289-0.067,0.359-0.124c0.07-0.059,0.104-0.181,0.104-0.365v-1.652
	c0-0.274-0.075-0.411-0.225-0.411c-0.083,0-0.162,0.009-0.238,0.026v-0.102c0.324-0.115,0.655-0.236,0.992-0.362l0.033,0.02v0.607
	c0.279-0.418,0.543-0.627,0.793-0.627c0.109,0,0.195,0.031,0.258,0.095c0.065,0.063,0.098,0.158,0.098,0.284
	c0,0.098-0.026,0.173-0.079,0.226c-0.052,0.05-0.111,0.074-0.176,0.074c-0.094,0-0.176-0.042-0.248-0.127
	c-0.072-0.087-0.141-0.131-0.206-0.131c-0.083,0-0.178,0.064-0.284,0.193c-0.104,0.128-0.157,0.245-0.157,0.353v1.479
	c0,0.202,0.036,0.34,0.108,0.411c0.074,0.072,0.229,0.117,0.463,0.134v0.102H29.427z"/>
<path d="M31.804,86.385v-0.102c0.133,0,0.243-0.028,0.33-0.085c0.089-0.059,0.134-0.204,0.134-0.438v-3.212
	c0-0.161-0.02-0.265-0.059-0.311c-0.039-0.046-0.11-0.068-0.212-0.068c-0.044,0-0.108,0.004-0.193,0.013v-0.101
	c0.368-0.085,0.701-0.183,0.999-0.294l0.026,0.02v4.006c0,0.183,0.031,0.304,0.095,0.362c0.063,0.059,0.186,0.095,0.369,0.107v0.102
	H31.804z"/>
<path d="M35.329,84.857c0-0.441,0.131-0.813,0.392-1.113c0.263-0.3,0.61-0.45,1.042-0.45c0.466,0,0.833,0.141,1.1,0.421
	c0.27,0.279,0.405,0.652,0.405,1.12c0,0.45-0.139,0.833-0.418,1.146c-0.276,0.312-0.626,0.468-1.051,0.468
	c-0.438,0-0.792-0.152-1.064-0.458C35.464,85.683,35.329,85.306,35.329,84.857z M35.917,84.524c0,0.469,0.084,0.875,0.251,1.222
	c0.167,0.344,0.4,0.516,0.699,0.516c0.25,0,0.448-0.103,0.594-0.307c0.146-0.207,0.219-0.514,0.219-0.921
	c0-0.444-0.088-0.814-0.265-1.11s-0.409-0.443-0.699-0.443c-0.252,0-0.449,0.099-0.591,0.297
	C35.987,83.975,35.917,84.224,35.917,84.524z"/>
<path d="M38.552,86.284c0.155-0.004,0.27-0.034,0.346-0.091c0.078-0.059,0.118-0.186,0.118-0.379v-1.639
	c0-0.194-0.021-0.315-0.062-0.366c-0.042-0.052-0.103-0.078-0.183-0.078c-0.065,0-0.138,0.009-0.219,0.026v-0.102
	c0.461-0.161,0.783-0.281,0.963-0.362l0.045,0.013v0.51c0.224-0.202,0.404-0.34,0.539-0.411c0.137-0.074,0.287-0.111,0.447-0.111
	c0.244,0,0.439,0.087,0.584,0.261c0.148,0.173,0.222,0.417,0.222,0.735v1.524c0,0.188,0.037,0.312,0.111,0.372
	c0.076,0.059,0.194,0.092,0.353,0.098v0.102h-1.482v-0.102c0.135-0.004,0.245-0.039,0.33-0.104c0.085-0.064,0.127-0.222,0.127-0.47
	v-1.339c0-0.27-0.045-0.456-0.134-0.558c-0.087-0.104-0.218-0.157-0.392-0.157c-0.106,0-0.214,0.03-0.323,0.092
	c-0.106,0.061-0.229,0.152-0.365,0.274v1.896c0,0.235,0.152,0.356,0.457,0.365v0.102h-1.482V86.284z"/>
<path d="M44.52,83.868c0.04-0.104,0.145-0.226,0.317-0.365s0.371-0.209,0.598-0.209c0.348,0,0.631,0.142,0.849,0.425
	c0.218,0.28,0.327,0.632,0.327,1.054c0,0.464-0.152,0.859-0.457,1.186c-0.303,0.326-0.686,0.49-1.149,0.49
	c-0.196,0-0.419-0.042-0.669-0.125c-0.25-0.084-0.375-0.19-0.375-0.316v-3.457c0-0.124-0.021-0.217-0.065-0.277
	c-0.042-0.063-0.127-0.095-0.258-0.095c-0.035,0-0.082,0.002-0.141,0.006v-0.101c0.409-0.106,0.734-0.205,0.976-0.294l0.049,0.017
	V83.868z M44.52,85.941c0,0.094,0.07,0.169,0.209,0.226c0.142,0.055,0.285,0.082,0.431,0.082c0.276,0,0.489-0.1,0.637-0.298
	c0.15-0.2,0.225-0.499,0.225-0.897c0-0.396-0.075-0.721-0.225-0.973c-0.15-0.253-0.355-0.379-0.614-0.379
	c-0.174,0-0.329,0.052-0.464,0.156c-0.133,0.103-0.199,0.226-0.199,0.369V85.941z"/>
<path d="M48.728,84.414v-0.389c0-0.363-0.165-0.545-0.496-0.545c-0.124,0-0.234,0.031-0.33,0.095
	c-0.096,0.061-0.144,0.135-0.144,0.222c0,0.032,0.005,0.074,0.016,0.124c0.013,0.048,0.02,0.094,0.02,0.137
	c0,0.083-0.029,0.15-0.088,0.203c-0.059,0.052-0.127,0.078-0.206,0.078c-0.089,0-0.161-0.026-0.215-0.078
	c-0.052-0.055-0.078-0.127-0.078-0.216c0-0.179,0.094-0.349,0.284-0.51c0.191-0.16,0.452-0.241,0.78-0.241
	c0.353,0,0.611,0.075,0.774,0.226c0.163,0.149,0.245,0.417,0.245,0.8v1.358c0,0.139,0.014,0.238,0.042,0.297
	c0.028,0.057,0.076,0.085,0.144,0.085c0.056,0,0.11-0.011,0.16-0.033c0.052-0.021,0.101-0.056,0.147-0.101v0.183
	c-0.115,0.124-0.219,0.212-0.31,0.265c-0.089,0.05-0.188,0.075-0.294,0.075c-0.276,0-0.423-0.157-0.441-0.471
	c-0.348,0.313-0.665,0.471-0.95,0.471c-0.207,0-0.377-0.066-0.509-0.199c-0.131-0.136-0.196-0.296-0.196-0.483
	c0-0.34,0.148-0.604,0.444-0.79C47.825,84.786,48.226,84.598,48.728,84.414z M48.728,84.574c-0.42,0.156-0.702,0.309-0.845,0.457
	c-0.142,0.146-0.212,0.31-0.212,0.492c0,0.161,0.042,0.291,0.124,0.389c0.085,0.099,0.187,0.147,0.307,0.147
	c0.108,0,0.209-0.021,0.3-0.063c0.093-0.043,0.172-0.095,0.235-0.153c0.026-0.021,0.048-0.049,0.065-0.082
	c0.018-0.034,0.026-0.104,0.026-0.209V84.574z"/>
<path d="M49.852,86.385v-0.102c0.169-0.025,0.289-0.067,0.359-0.124c0.07-0.059,0.104-0.181,0.104-0.365v-1.652
	c0-0.274-0.075-0.411-0.225-0.411c-0.083,0-0.162,0.009-0.238,0.026v-0.102c0.324-0.115,0.655-0.236,0.992-0.362l0.033,0.02v0.607
	c0.279-0.418,0.543-0.627,0.793-0.627c0.109,0,0.195,0.031,0.258,0.095c0.065,0.063,0.098,0.158,0.098,0.284
	c0,0.098-0.026,0.173-0.079,0.226c-0.052,0.05-0.111,0.074-0.176,0.074c-0.094,0-0.176-0.042-0.248-0.127
	c-0.072-0.087-0.141-0.131-0.206-0.131c-0.083,0-0.178,0.064-0.284,0.193c-0.104,0.128-0.157,0.245-0.157,0.353v1.479
	c0,0.202,0.036,0.34,0.108,0.411c0.074,0.072,0.229,0.117,0.463,0.134v0.102H49.852z"/>
<path d="M53.785,84.834l2.106-2.98h0.297v2.993h0.683v0.428h-0.683v1.11h-0.522v-1.11h-1.88V84.834z M54.056,84.847h1.609v-2.312
	L54.056,84.847z"/>
<path d="M57.243,81.971l0.082-0.117c1.099,0.744,1.649,1.704,1.649,2.879c0,1.213-0.557,2.158-1.671,2.838l-0.059-0.104
	c0.455-0.361,0.76-0.75,0.914-1.166c0.157-0.418,0.235-0.924,0.235-1.518c0-0.754-0.093-1.343-0.278-1.767
	C57.929,82.591,57.639,82.244,57.243,81.971z"/>
<path d="M285.642,83.35c-0.186,0.424-0.278,1.013-0.278,1.767c0,0.594,0.079,1.1,0.235,1.518c0.154,0.416,0.459,0.805,0.914,1.166
	l-0.059,0.104c-1.115-0.68-1.672-1.625-1.672-2.838c0-1.175,0.55-2.135,1.648-2.879l0.082,0.117
	C286.116,82.577,285.825,82.925,285.642,83.35z"/>
<path d="M286.79,85.168l2.105-2.98h0.297v2.993h0.684v0.428h-0.684v1.11h-0.521v-1.11h-1.881V85.168z M287.062,85.181h1.609v-2.312
	L287.062,85.181z"/>
<path d="M290.261,84.799h1.463v-1.463h0.44v1.463h1.462v0.441h-1.462v1.462h-0.44V85.24h-1.463V84.799z"/>
<path d="M296.761,82.154l-0.252,0.559c-0.021,0.05-0.074,0.075-0.16,0.075h-1.313l-0.28,0.601c0.524,0.039,0.976,0.202,1.354,0.489
	c0.379,0.285,0.568,0.732,0.568,1.342c0,0.449-0.17,0.826-0.51,1.134c-0.339,0.305-0.764,0.457-1.275,0.457
	c-0.57,0-0.855-0.137-0.855-0.408c0-0.074,0.023-0.134,0.071-0.18c0.048-0.048,0.114-0.072,0.199-0.072
	c0.081,0,0.161,0.019,0.241,0.056c0.083,0.035,0.168,0.082,0.256,0.141c0.078,0.057,0.158,0.106,0.24,0.15
	c0.086,0.043,0.164,0.065,0.236,0.065c0.245,0,0.462-0.106,0.648-0.317c0.188-0.211,0.281-0.504,0.281-0.878
	c0-0.413-0.182-0.748-0.545-1.002c-0.363-0.255-0.797-0.387-1.299-0.396c-0.076,0-0.115-0.02-0.115-0.059
	c0-0.028,0.051-0.153,0.154-0.376l0.584-1.257h1.299c0.129,0,0.217-0.012,0.265-0.035c0.05-0.024,0.099-0.07,0.144-0.138
	L296.761,82.154z"/>
<path d="M299.823,82.801c0.014,0,0.023,0.007,0.029,0.02c0.007,0.011,0.01,0.045,0.01,0.102v0.768h0.68v0.215h-0.68v1.927
	c0,0.402,0.111,0.604,0.334,0.604c0.078,0,0.154-0.021,0.229-0.062c0.073-0.044,0.135-0.1,0.186-0.167l0.088,0.075
	c-0.074,0.133-0.184,0.249-0.33,0.35c-0.143,0.1-0.297,0.15-0.46,0.15c-0.405,0-0.607-0.292-0.607-0.875v-2.002h-0.284
	c-0.063,0-0.094-0.017-0.094-0.049c0-0.026,0.025-0.058,0.078-0.095c0.174-0.117,0.324-0.264,0.45-0.438
	C299.579,83.147,299.704,82.973,299.823,82.801z"/>
<path d="M305.327,83.79c-0.071,0.024-0.127,0.068-0.166,0.134c-0.037,0.063-0.07,0.132-0.102,0.206l-0.934,2.39
	c-0.041,0.104-0.072,0.18-0.092,0.226s-0.047,0.068-0.081,0.068c-0.032,0-0.06-0.028-0.081-0.085
	c-0.022-0.059-0.055-0.145-0.099-0.258l-0.587-1.524l-0.745,1.586c-0.048,0.099-0.083,0.17-0.107,0.216
	c-0.022,0.044-0.046,0.065-0.072,0.065c-0.028,0-0.057-0.026-0.085-0.078c-0.027-0.053-0.058-0.12-0.088-0.203l-0.871-2.259
	c-0.092-0.23-0.16-0.369-0.206-0.415c-0.044-0.045-0.103-0.068-0.177-0.068v-0.101h1.201v0.101c-0.102,0-0.18,0.021-0.231,0.065
	c-0.05,0.041-0.075,0.093-0.075,0.153c0,0.059,0.018,0.144,0.053,0.255s0.098,0.282,0.189,0.513l0.453,1.182l0.617-1.329
	l-0.134-0.378c-0.063-0.177-0.128-0.298-0.196-0.363c-0.066-0.064-0.152-0.098-0.258-0.098v-0.101h1.361v0.101
	c-0.263,0.033-0.395,0.114-0.395,0.245c0,0.032,0.009,0.078,0.026,0.137c0.017,0.06,0.06,0.179,0.127,0.359l0.522,1.404l0.604-1.516
	c0.027-0.067,0.049-0.135,0.069-0.202c0.021-0.067,0.032-0.136,0.032-0.205c0-0.111-0.1-0.186-0.301-0.223v-0.101h0.826V83.79z"/>
<path d="M305.762,86.719v-0.102c0.159-0.009,0.275-0.041,0.35-0.098c0.076-0.059,0.114-0.218,0.114-0.477v-1.587
	c0-0.144-0.018-0.245-0.053-0.304c-0.032-0.059-0.082-0.088-0.146-0.088c-0.041,0-0.08,0.002-0.117,0.007
	c-0.037,0.004-0.086,0.011-0.147,0.02v-0.102c0.335-0.113,0.668-0.233,0.999-0.362l0.026,0.02v2.396
	c0,0.232,0.032,0.384,0.098,0.454c0.067,0.067,0.189,0.107,0.366,0.12v0.102H305.762z M306.111,82.501
	c0-0.092,0.032-0.171,0.098-0.238c0.067-0.067,0.149-0.102,0.245-0.102c0.094,0,0.174,0.032,0.241,0.098s0.102,0.142,0.102,0.229
	c0,0.109-0.034,0.196-0.102,0.262c-0.067,0.063-0.149,0.095-0.248,0.095c-0.096,0-0.177-0.033-0.241-0.099
	C306.143,82.678,306.111,82.597,306.111,82.501z"/>
<path d="M307.427,86.719v-0.102c0.17-0.025,0.289-0.067,0.359-0.124c0.07-0.059,0.104-0.181,0.104-0.365v-1.652
	c0-0.274-0.075-0.411-0.226-0.411c-0.082,0-0.162,0.009-0.238,0.026v-0.102c0.324-0.115,0.655-0.236,0.992-0.362l0.033,0.02v0.607
	c0.279-0.418,0.543-0.627,0.793-0.627c0.109,0,0.195,0.031,0.258,0.095c0.066,0.063,0.099,0.158,0.099,0.284
	c0,0.098-0.026,0.173-0.079,0.226c-0.052,0.05-0.11,0.074-0.176,0.074c-0.094,0-0.176-0.042-0.248-0.127
	c-0.072-0.087-0.141-0.131-0.205-0.131c-0.084,0-0.178,0.064-0.285,0.193c-0.104,0.128-0.156,0.245-0.156,0.353v1.479
	c0,0.202,0.036,0.34,0.107,0.411c0.074,0.072,0.229,0.117,0.464,0.134v0.102H307.427z"/>
<path d="M309.804,86.719v-0.102c0.133,0,0.242-0.028,0.33-0.085c0.089-0.059,0.134-0.204,0.134-0.438v-3.212
	c0-0.161-0.02-0.265-0.06-0.311c-0.039-0.046-0.109-0.068-0.211-0.068c-0.045,0-0.108,0.004-0.193,0.013v-0.101
	c0.367-0.085,0.701-0.183,0.999-0.294l0.026,0.02v4.006c0,0.183,0.031,0.304,0.095,0.362s0.187,0.095,0.368,0.107v0.102H309.804z"/>
<path d="M313.329,85.19c0-0.441,0.131-0.813,0.393-1.113c0.263-0.3,0.609-0.45,1.041-0.45c0.466,0,0.832,0.141,1.1,0.421
	c0.271,0.279,0.405,0.652,0.405,1.12c0,0.45-0.14,0.833-0.418,1.146c-0.276,0.312-0.626,0.468-1.052,0.468
	c-0.438,0-0.791-0.152-1.063-0.458C313.464,86.017,313.329,85.64,313.329,85.19z M313.917,84.857c0,0.469,0.084,0.875,0.252,1.222
	c0.167,0.344,0.4,0.516,0.698,0.516c0.25,0,0.448-0.103,0.595-0.307c0.145-0.207,0.219-0.514,0.219-0.921
	c0-0.444-0.089-0.814-0.266-1.11c-0.176-0.296-0.408-0.443-0.698-0.443c-0.253,0-0.449,0.099-0.591,0.297
	C313.987,84.309,313.917,84.558,313.917,84.857z"/>
<path d="M316.552,86.617c0.154-0.004,0.27-0.034,0.346-0.091c0.078-0.059,0.118-0.186,0.118-0.379v-1.639
	c0-0.194-0.021-0.315-0.062-0.366c-0.042-0.052-0.104-0.078-0.184-0.078c-0.065,0-0.139,0.009-0.219,0.026v-0.102
	c0.461-0.161,0.783-0.281,0.963-0.362l0.046,0.013v0.51c0.224-0.202,0.403-0.34,0.538-0.411c0.138-0.074,0.287-0.111,0.447-0.111
	c0.244,0,0.439,0.087,0.585,0.261c0.147,0.173,0.222,0.417,0.222,0.735v1.524c0,0.188,0.037,0.312,0.111,0.372
	c0.076,0.059,0.193,0.092,0.353,0.098v0.102h-1.481v-0.102c0.135-0.004,0.244-0.039,0.329-0.104c0.085-0.064,0.128-0.222,0.128-0.47
	v-1.339c0-0.27-0.045-0.456-0.135-0.558c-0.087-0.104-0.217-0.157-0.392-0.157c-0.106,0-0.214,0.03-0.323,0.092
	c-0.106,0.061-0.229,0.152-0.365,0.274v1.896c0,0.235,0.152,0.356,0.457,0.365v0.102h-1.482V86.617z"/>
<path d="M322.52,84.201c0.04-0.104,0.146-0.226,0.317-0.365s0.371-0.209,0.598-0.209c0.348,0,0.631,0.142,0.848,0.425
	c0.219,0.28,0.327,0.632,0.327,1.054c0,0.464-0.152,0.859-0.457,1.186c-0.303,0.326-0.686,0.49-1.149,0.49
	c-0.195,0-0.419-0.042-0.67-0.125c-0.25-0.084-0.375-0.19-0.375-0.316v-3.457c0-0.124-0.021-0.217-0.064-0.277
	c-0.042-0.063-0.128-0.095-0.258-0.095c-0.035,0-0.082,0.002-0.141,0.006v-0.101c0.408-0.106,0.734-0.205,0.976-0.294l0.049,0.017
	V84.201z M322.52,86.274c0,0.094,0.069,0.169,0.209,0.226c0.142,0.055,0.285,0.082,0.431,0.082c0.277,0,0.489-0.1,0.637-0.298
	c0.15-0.2,0.226-0.499,0.226-0.897c0-0.396-0.075-0.721-0.226-0.973c-0.15-0.253-0.354-0.379-0.613-0.379
	c-0.174,0-0.328,0.052-0.464,0.156c-0.133,0.103-0.199,0.226-0.199,0.369V86.274z"/>
<path d="M326.728,84.747v-0.389c0-0.363-0.164-0.545-0.496-0.545c-0.123,0-0.233,0.031-0.329,0.095
	c-0.096,0.061-0.144,0.135-0.144,0.222c0,0.032,0.006,0.074,0.016,0.124c0.014,0.048,0.02,0.094,0.02,0.137
	c0,0.083-0.029,0.15-0.088,0.203c-0.059,0.052-0.127,0.078-0.205,0.078c-0.09,0-0.162-0.026-0.216-0.078
	c-0.052-0.055-0.078-0.127-0.078-0.216c0-0.179,0.095-0.349,0.284-0.51c0.191-0.16,0.451-0.241,0.779-0.241
	c0.354,0,0.611,0.075,0.774,0.226c0.163,0.149,0.245,0.417,0.245,0.8v1.358c0,0.139,0.014,0.238,0.042,0.297
	c0.028,0.057,0.076,0.085,0.144,0.085c0.057,0,0.11-0.011,0.16-0.033c0.053-0.021,0.102-0.056,0.146-0.101v0.183
	c-0.115,0.124-0.219,0.212-0.31,0.265c-0.089,0.05-0.188,0.075-0.294,0.075c-0.276,0-0.424-0.157-0.441-0.471
	c-0.348,0.313-0.664,0.471-0.949,0.471c-0.207,0-0.377-0.066-0.51-0.199c-0.131-0.136-0.195-0.296-0.195-0.483
	c0-0.34,0.148-0.604,0.443-0.79C325.825,85.119,326.226,84.932,326.728,84.747z M326.728,84.907
	c-0.42,0.156-0.701,0.309-0.845,0.457c-0.142,0.146-0.212,0.31-0.212,0.492c0,0.161,0.041,0.291,0.123,0.389
	c0.086,0.099,0.188,0.147,0.308,0.147c0.108,0,0.209-0.021,0.3-0.063c0.094-0.043,0.172-0.095,0.235-0.153
	c0.026-0.021,0.048-0.049,0.065-0.082c0.018-0.034,0.025-0.104,0.025-0.209V84.907z"/>
<path d="M327.852,86.719v-0.102c0.169-0.025,0.289-0.067,0.358-0.124c0.07-0.059,0.105-0.181,0.105-0.365v-1.652
	c0-0.274-0.076-0.411-0.226-0.411c-0.083,0-0.162,0.009-0.238,0.026v-0.102c0.324-0.115,0.655-0.236,0.992-0.362l0.032,0.02v0.607
	c0.279-0.418,0.543-0.627,0.794-0.627c0.108,0,0.194,0.031,0.258,0.095c0.065,0.063,0.099,0.158,0.099,0.284
	c0,0.098-0.027,0.173-0.079,0.226c-0.052,0.05-0.11,0.074-0.177,0.074c-0.094,0-0.176-0.042-0.248-0.127
	c-0.071-0.087-0.141-0.131-0.205-0.131c-0.083,0-0.178,0.064-0.284,0.193c-0.104,0.128-0.157,0.245-0.157,0.353v1.479
	c0,0.202,0.037,0.34,0.108,0.411c0.073,0.072,0.229,0.117,0.464,0.134v0.102H327.852z"/>
<path d="M331.785,85.168l2.106-2.98h0.297v2.993h0.682v0.428h-0.682v1.11h-0.523v-1.11h-1.88V85.168z M332.056,85.181h1.609v-2.312
	L332.056,85.181z"/>
<path d="M335.243,82.305l0.081-0.117c1.099,0.744,1.649,1.704,1.649,2.879c0,1.213-0.558,2.158-1.672,2.838l-0.059-0.104
	c0.455-0.361,0.76-0.75,0.914-1.166c0.156-0.418,0.234-0.924,0.234-1.518c0-0.754-0.092-1.343-0.277-1.767
	C335.929,82.925,335.639,82.577,335.243,82.305z"/>
</svg>
