<?xml version="1.0" standalone="no"?>
<!DOCTYPE svg PUBLIC "-//W3C//DTD SVG 1.1//EN"
"http://www.w3.org/Graphics/SVG/1.1/DTD/svg11.dtd">
<!-- Creator: fig2dev Version 3.2 Patchlevel 5d -->
<!-- CreationDate: Thu Feb 21 11:12:20 2013 -->
<!-- Magnification: 1.050 -->
<svg	xmlns="http://www.w3.org/2000/svg"
	xmlns:xlink="http://www.w3.org/1999/xlink"
	viewBox="-23 -23 6140 1558">
<g style="stroke-width:.025in; fill:none">
<!-- Text -->
<text xml:space="preserve" x="141" y="283" fill="#000000"  font-family="Helvetica" font-style="normal" font-weight="normal" font-size="227" text-anchor="start">September Strathspey</text>
<!-- Line -->
<polyline points="1511,425
1510,427
1509,431
1506,436
1502,443
1497,448
1489,452
1481,454
1470,456
1457,456
1444,456
1432,455
1417,454
1400,453
1383,452
1364,450
1345,448
1328,447
1309,445
1292,444
1275,443
1260,441
1248,440
1236,440
1224,440
1214,441
1207,444
1201,446
1194,450
1190,454
1187,459
1184,464
1182,468
1181,471
1181,472
" style="stroke:#000000;stroke-width:16;
stroke-linejoin:bevel; stroke-linecap:butt;
"/>
<!-- Line: box -->
<rect x="1228" y="519" width="188" height="188" rx="0" 
style="stroke:#000000;stroke-width:16;
stroke-linejoin:miter; stroke-linecap:butt;
"/>
<!-- Text -->
<text xml:space="preserve" x="1322" y="661" fill="#000000"  font-family="Helvetica" font-style="normal" font-weight="bold" font-size="114" text-anchor="middle">2</text>
<!-- Circle -->
<circle cx="1322" cy="1181" r="94"
 style="stroke:#000000;stroke-width:16;"/>
<!-- Text -->
<text xml:space="preserve" x="1322" y="1228" fill="#000000"  font-family="Helvetica" font-style="normal" font-weight="bold" font-size="114" text-anchor="middle">2</text>
<!-- Text -->
<text xml:space="preserve" x="1275" y="992" fill="#000000"  font-family="Helvetica" font-style="normal" font-weight="bold" font-size="227" text-anchor="middle">T</text>
<!-- Text -->
<text xml:space="preserve" x="1417" y="1039" fill="#000000"  font-family="Helvetica" font-style="normal" font-weight="bold" font-size="152" text-anchor="middle">R</text>
<!-- Text -->
<text xml:space="preserve" x="1653" y="992" fill="#000000"  font-family="Helvetica" font-style="normal" font-weight="bold" font-size="227" text-anchor="middle">T</text>
<!-- Text -->
<text xml:space="preserve" x="1795" y="1039" fill="#000000"  font-family="Helvetica" font-style="normal" font-weight="bold" font-size="152" text-anchor="middle">L</text>
<!-- Line: box -->
<rect x="1606" y="519" width="188" height="188" rx="0" 
style="stroke:#000000;stroke-width:16;
stroke-linejoin:miter; stroke-linecap:butt;
"/>
<!-- Text -->
<text xml:space="preserve" x="1700" y="661" fill="#000000"  font-family="Helvetica" font-style="normal" font-weight="bold" font-size="114" text-anchor="middle">1</text>
<!-- Circle -->
<circle cx="1700" cy="1181" r="94"
 style="stroke:#000000;stroke-width:16;"/>
<!-- Text -->
<text xml:space="preserve" x="1700" y="1228" fill="#000000"  font-family="Helvetica" font-style="normal" font-weight="bold" font-size="114" text-anchor="middle">1</text>
<!-- Line: box -->
<rect x="188" y="519" width="188" height="188" rx="0" 
style="stroke:#000000;stroke-width:16;
stroke-linejoin:miter; stroke-linecap:butt;
"/>
<!-- Text -->
<text xml:space="preserve" x="283" y="661" fill="#000000"  font-family="Helvetica" font-style="normal" font-weight="bold" font-size="114" text-anchor="middle">1</text>
<!-- Line: box -->
<rect x="755" y="519" width="188" height="188" rx="0" 
style="stroke:#000000;stroke-width:16;
stroke-linejoin:miter; stroke-linecap:butt;
"/>
<!-- Text -->
<text xml:space="preserve" x="850" y="661" fill="#000000"  font-family="Helvetica" font-style="normal" font-weight="bold" font-size="114" text-anchor="middle">2</text>
<!-- Circle -->
<circle cx="850" cy="1086" r="94"
 style="stroke:#000000;stroke-width:16;"/>
<!-- Text -->
<text xml:space="preserve" x="850" y="1133" fill="#000000"  font-family="Helvetica" font-style="normal" font-weight="bold" font-size="114" text-anchor="middle">2</text>
<!-- Circle -->
<circle cx="283" cy="1086" r="94"
 style="stroke:#000000;stroke-width:16;"/>
<!-- Text -->
<text xml:space="preserve" x="283" y="1133" fill="#000000"  font-family="Helvetica" font-style="normal" font-weight="bold" font-size="114" text-anchor="middle">1</text>
<!-- Line -->
<polyline points="755,755
753,759
749,765
742,775
730,792
716,814
697,841
675,873
650,908
625,944
599,981
573,1017
548,1050
523,1082
500,1111
479,1138
459,1162
440,1183
423,1201
406,1216
390,1230
375,1241
361,1251
346,1259
331,1266
318,1271
303,1275
289,1277
275,1278
261,1278
246,1276
233,1274
219,1270
206,1265
194,1258
181,1251
170,1243
159,1234
149,1224
140,1213
132,1203
124,1191
118,1180
113,1167
109,1155
106,1143
103,1130
102,1118
101,1101
103,1083
107,1065
113,1045
120,1023
132,1000
144,975
160,946
177,917
196,887
216,856
235,827
251,802
247,807
" style="stroke:#000000;stroke-width:16;
stroke-linejoin:bevel; stroke-linecap:butt;
stroke-dasharray:20 20;"/>
<!-- Arrowhead on XXXpoint 251 802 - 300 729-->
<polygon points="285 806
295 737
233 771
285 806

" style="stroke:#000000;stroke-width:8;stroke-miterlimit:8;
fill:#000000;"/>
<!-- Line -->
<polyline points="409,938
400,953
413,929
430,899
450,865
472,828
495,789
518,750
542,711
565,675
587,640
608,609
628,580
646,555
664,533
681,513
697,495
711,480
726,468
741,457
755,449
770,440
785,435
798,431
814,428
829,426
844,426
858,427
873,429
888,432
901,437
916,443
929,450
942,458
954,467
965,476
976,487
985,497
994,509
1001,520
1007,533
1013,544
1018,557
1021,570
1023,582
1024,599
1024,617
1021,635
1016,655
1008,677
999,700
986,725
972,753
955,783
936,813
917,844
898,873
881,898
868,918
858,933
853,940
850,944
" style="stroke:#000000;stroke-width:16;
stroke-linejoin:bevel; stroke-linecap:butt;
"/>
<!-- Arrowhead on XXXpoint 400 953 - 362 1019-->
<polygon points="369 940
366 1011
424 971
369 940

" style="stroke:#000000;stroke-width:8;stroke-miterlimit:8;
fill:#000000;"/>
<!-- Line -->
<polyline points="725,938
733,953
720,929
703,899
683,865
661,828
638,789
615,750
591,711
567,675
545,640
524,609
504,580
487,555
469,533
452,513
436,495
422,480
407,468
392,457
377,449
363,440
348,435
334,431
319,428
304,426
289,426
275,427
260,429
245,432
232,437
217,443
204,450
191,458
179,467
167,476
157,487
148,497
139,509
132,520
125,533
120,544
115,557
112,570
110,582
109,599
109,617
112,635
117,655
124,677
134,700
146,725
161,753
178,783
197,813
216,844
235,873
251,898
265,918
275,933
280,940
283,944
" style="stroke:#000000;stroke-width:16;
stroke-linejoin:bevel; stroke-linecap:butt;
"/>
<!-- Arrowhead on XXXpoint 733 953 - 770 1019-->
<polygon points="707 971
766 1011
763 939
707 971

" style="stroke:#000000;stroke-width:8;stroke-miterlimit:8;
fill:#000000;"/>
<!-- Line -->
<polyline points="377,755
380,759
384,765
391,775
403,792
417,814
436,841
458,873
482,908
508,944
534,981
560,1017
585,1050
609,1082
633,1111
654,1138
674,1162
692,1183
710,1201
727,1216
743,1230
758,1241
772,1251
787,1259
802,1266
815,1271
830,1275
844,1277
858,1278
872,1278
887,1276
900,1274
914,1270
927,1265
939,1258
952,1251
963,1243
974,1234
984,1224
993,1213
1001,1203
1008,1191
1015,1180
1020,1167
1024,1155
1027,1143
1029,1130
1032,1118
1032,1101
1029,1083
1026,1065
1020,1045
1013,1023
1001,1000
988,975
973,946
956,917
937,887
917,856
898,827
881,802
885,807
" style="stroke:#000000;stroke-width:16;
stroke-linejoin:bevel; stroke-linecap:butt;
stroke-dasharray:20 20;"/>
<!-- Arrowhead on XXXpoint 881 802 - 832 729-->
<polygon points="898 770
837 737
846 806
898 770

" style="stroke:#000000;stroke-width:8;stroke-miterlimit:8;
fill:#000000;"/>
<!-- Circle -->
<circle cx="2551" cy="1228" r="94"
 style="stroke:#000000;stroke-width:16;"/>
<!-- Text -->
<text xml:space="preserve" x="2551" y="1275" fill="#000000"  font-family="Helvetica" font-style="normal" font-weight="bold" font-size="114" text-anchor="middle">1</text>
<!-- Line: box -->
<rect x="2456" y="566" width="188" height="188" rx="0" 
style="stroke:#000000;stroke-width:16;
stroke-linejoin:miter; stroke-linecap:butt;
"/>
<!-- Text -->
<text xml:space="preserve" x="2551" y="708" fill="#000000"  font-family="Helvetica" font-style="normal" font-weight="bold" font-size="114" text-anchor="middle">1</text>
<!-- Text -->
<text xml:space="preserve" x="2125" y="1275" fill="#000000"  font-family="Helvetica" font-style="normal" font-weight="bold" font-size="114" text-anchor="middle">2</text>
<!-- Text -->
<text xml:space="preserve" x="2125" y="708" fill="#000000"  font-family="Helvetica" font-style="normal" font-weight="bold" font-size="114" text-anchor="middle">2</text>
<!-- Line -->
<polyline points="2456,1133
2454,1131
2448,1127
2437,1120
2423,1108
2402,1093
2376,1075
2347,1053
2314,1028
2281,1003
2247,977
2215,951
2183,925
2154,901
2127,878
2102,857
2080,837
2061,818
2045,801
2030,784
2017,768
2007,753
1998,739
1992,724
1986,708
1981,692
1979,677
1976,662
1976,646
1977,630
1981,616
1985,601
1990,586
1996,573
2005,559
2013,546
2023,535
2033,524
2044,515
2055,507
2067,499
2078,493
2090,488
2101,485
2114,481
2125,480
2142,479
2158,481
2176,487
2194,494
2214,504
2236,519
2260,536
2285,555
2312,576
2339,598
2362,619
2382,637
2362,619
" style="stroke:#000000;stroke-width:16;
stroke-linejoin:bevel; stroke-linecap:butt;
"/>
<!-- Arrowhead on XXXpoint 2382 637 - 2432 681-->
<polygon points="2356 657
2425 675
2397 608
2356 657

" style="stroke:#000000;stroke-width:8;stroke-miterlimit:8;
fill:#000000;"/>
<!-- Line -->
<polyline points="2409,803
2406,805
2400,810
2387,818
2369,831
2346,847
2319,868
2287,891
2254,915
2220,940
2186,966
2155,991
2125,1015
2099,1037
2076,1057
2055,1077
2037,1095
2023,1111
2010,1127
2000,1143
1990,1158
1984,1173
1979,1188
1975,1203
1973,1217
1972,1232
1972,1247
1974,1261
1977,1276
1983,1290
1988,1304
1995,1318
2004,1331
2012,1343
2023,1354
2032,1364
2044,1374
2055,1382
2067,1390
2078,1396
2090,1401
2101,1404
2114,1407
2125,1409
2142,1409
2158,1407
2176,1402
2194,1395
2214,1384
2236,1370
2260,1353
2285,1334
2312,1313
2339,1291
2362,1270
2382,1252
2362,1269
" style="stroke:#000000;stroke-width:16;
stroke-linejoin:bevel; stroke-linecap:butt;
stroke-dasharray:20 20;"/>
<!-- Arrowhead on XXXpoint 2382 1252 - 2432 1207-->
<polygon points="2400 1278
2426 1213
2358 1231
2400 1278

" style="stroke:#000000;stroke-width:8;stroke-miterlimit:8;
fill:#000000;"/>
<!-- Text -->
<text xml:space="preserve" x="3307" y="708" fill="#000000"  font-family="Helvetica" font-style="normal" font-weight="bold" font-size="114" text-anchor="middle">1</text>
<!-- Text -->
<text xml:space="preserve" x="3307" y="1275" fill="#000000"  font-family="Helvetica" font-style="normal" font-weight="bold" font-size="114" text-anchor="middle">1</text>
<!-- Circle -->
<circle cx="2929" cy="1228" r="94"
 style="stroke:#000000;stroke-width:16;"/>
<!-- Text -->
<text xml:space="preserve" x="2929" y="1275" fill="#000000"  font-family="Helvetica" font-style="normal" font-weight="bold" font-size="114" text-anchor="middle">2</text>
<!-- Line: box -->
<rect x="2834" y="566" width="188" height="188" rx="0" 
style="stroke:#000000;stroke-width:16;
stroke-linejoin:miter; stroke-linecap:butt;
"/>
<!-- Text -->
<text xml:space="preserve" x="2929" y="708" fill="#000000"  font-family="Helvetica" font-style="normal" font-weight="bold" font-size="114" text-anchor="middle">2</text>
<!-- Line -->
<polyline points="3070,803
3074,805
3080,810
3092,818
3110,831
3133,847
3161,868
3192,891
3226,915
3259,940
3293,966
3324,991
3354,1015
3380,1037
3403,1057
3424,1077
3442,1095
3457,1111
3469,1127
3480,1143
3489,1158
3496,1173
3501,1188
3504,1203
3506,1217
3507,1232
3507,1247
3505,1261
3502,1276
3497,1290
3491,1304
3484,1318
3476,1331
3467,1343
3457,1354
3447,1364
3436,1374
3424,1382
3413,1390
3401,1396
3390,1401
3378,1404
3365,1407
3354,1409
3337,1409
3321,1407
3303,1402
3286,1395
3266,1384
3244,1370
3219,1353
3194,1334
3167,1313
3141,1291
3118,1270
3098,1252
3117,1269
" style="stroke:#000000;stroke-width:16;
stroke-linejoin:bevel; stroke-linecap:butt;
stroke-dasharray:20 20;"/>
<!-- Arrowhead on XXXpoint 3098 1252 - 3046 1207-->
<polygon points="3121 1231
3054 1213
3080 1278
3121 1231

" style="stroke:#000000;stroke-width:8;stroke-miterlimit:8;
fill:#000000;"/>
<!-- Line -->
<polyline points="3070,1086
3074,1084
3080,1079
3092,1070
3110,1058
3133,1042
3161,1021
3192,998
3226,974
3259,949
3293,922
3324,898
3354,874
3380,852
3403,832
3424,812
3442,794
3457,777
3469,762
3480,746
3489,731
3496,717
3501,701
3504,686
3506,671
3507,657
3507,642
3505,627
3502,613
3497,599
3491,584
3484,571
3476,558
3467,545
3457,535
3447,524
3436,515
3424,507
3413,499
3401,493
3390,488
3378,485
3365,481
3354,480
3337,479
3321,481
3303,487
3286,494
3266,504
3244,519
3219,536
3194,555
3167,576
3141,598
3118,619
3098,637
3117,619
" style="stroke:#000000;stroke-width:16;
stroke-linejoin:bevel; stroke-linecap:butt;
"/>
<!-- Arrowhead on XXXpoint 3098 637 - 3046 681-->
<polygon points="3081 609
3054 675
3122 657
3081 609

" style="stroke:#000000;stroke-width:8;stroke-miterlimit:8;
fill:#000000;"/>
<!-- Line -->
<polyline points="3637,944
4062,944
" style="stroke:#000000;stroke-width:16;
stroke-linejoin:miter; stroke-linecap:butt;
"/>
<!-- Text -->
<text xml:space="preserve" x="3874" y="1039" fill="#000000"  font-family="Helvetica" font-style="normal" font-weight="bold" font-size="227" text-anchor="middle">RL</text>
<!-- Circle -->
<circle cx="4393" cy="944" r="236"
 style="stroke:#000000;stroke-width:16;"/>
<!-- Text -->
<text xml:space="preserve" x="4393" y="1039" fill="#000000"  font-family="Helvetica" font-style="normal" font-weight="bold" font-size="227" text-anchor="middle">4</text>
<!-- Line -->
<polyline points="4157,944
4157,1181
" style="stroke:#000000;stroke-width:16;
stroke-linejoin:miter; stroke-linecap:butt;
"/>
<!-- Text -->
<text xml:space="preserve" x="5291" y="1086" fill="#000000"  font-family="Helvetica" font-style="normal" font-weight="bold" font-size="152" text-anchor="middle">R</text>
<!-- Text -->
<text xml:space="preserve" x="5149" y="1039" fill="#000000"  font-family="Helvetica" font-style="normal" font-weight="bold" font-size="227" text-anchor="middle">T</text>
<!-- Arc -->
<path style="stroke:#000000;stroke-width:16;stroke-linecap:butt;"
d="M 5763,992 A 94 94  0  0  1  5952  992 " />
<!-- Arrowhead on XXXpoint 5946 957 - 5952 992-->
<polygon points="5914 960
5951 986
5976 950
5914 960

" style="stroke:#000000;stroke-width:8;stroke-miterlimit:8;
fill:#000000;"/>
<!-- Text -->
<text xml:space="preserve" x="5858" y="1039" fill="#000000"  font-family="Helvetica" font-style="normal" font-weight="bold" font-size="114" text-anchor="middle">1</text>
<!-- Line -->
<polyline points="0,377
6094,377
" style="stroke:#000000;stroke-width:16;
stroke-linejoin:miter; stroke-linecap:butt;
"/>
<!-- Line: box -->
<rect x="0" y="0" width="6094" height="1511" rx="0" 
style="stroke:#000000;stroke-width:16;
stroke-linejoin:miter; stroke-linecap:butt;
"/>
<!-- Line -->
<polyline points="94,1417
519,1417
" style="stroke:#000000;stroke-width:8;
stroke-linejoin:miter; stroke-linecap:butt;
"/>
<!-- Line -->
<polyline points="1464,1417
1889,1417
" style="stroke:#000000;stroke-width:8;
stroke-linejoin:miter; stroke-linecap:butt;
"/>
<!-- Line -->
<polyline points="1937,377
1937,1511
" style="stroke:#000000;stroke-width:16;
stroke-linejoin:miter; stroke-linecap:butt;
"/>
<!-- Line -->
<polyline points="1133,377
1133,1322
" style="stroke:#000000;stroke-width:8;
stroke-linejoin:miter; stroke-linecap:butt;
stroke-dasharray:20 20;"/>
<!-- Line -->
<polyline points="2740,377
2740,1511
" style="stroke:#000000;stroke-width:8;
stroke-linejoin:miter; stroke-linecap:butt;
stroke-dasharray:20 20;"/>
<!-- Line -->
<polyline points="3590,377
3590,1511
" style="stroke:#000000;stroke-width:16;
stroke-linejoin:miter; stroke-linecap:butt;
"/>
<!-- Line -->
<polyline points="4677,377
4677,1511
" style="stroke:#000000;stroke-width:16;
stroke-linejoin:miter; stroke-linecap:butt;
"/>
<!-- Line -->
<polyline points="4945,944
4724,944
" style="stroke:#000000;stroke-width:16;
stroke-linejoin:miter; stroke-linecap:butt;
"/>
<!-- Arrowhead on XXXpoint 4724 944 - 5039 944-->
<polygon points="4966 976
5029 944
4966 913
4966 976

" style="stroke:#000000;stroke-width:8;stroke-miterlimit:8;
fill:#000000;"/>
<!-- Line -->
<polyline points="5669,944
5447,944
" style="stroke:#000000;stroke-width:16;
stroke-linejoin:miter; stroke-linecap:butt;
"/>
<!-- Arrowhead on XXXpoint 5669 944 - 5354 944-->
<polygon points="5426 913
5363 944
5426 976
5426 913

" style="stroke:#000000;stroke-width:8;stroke-miterlimit:8;
fill:#000000;"/>
<!-- Text -->
<text xml:space="preserve" x="6000" y="283" fill="#000000"  font-family="Helvetica" font-style="normal" font-weight="normal" font-size="227" text-anchor="end">S32</text>
<!-- Text -->
<text xml:space="preserve" x="4346" y="283" fill="#000000"  font-family="Helvetica" font-style="normal" font-weight="normal" font-size="202" text-anchor="middle">N. Higgs</text>
<!-- Line -->
<polyline points="1511,425
1511,426
1512,429
1514,433
1518,437
1521,443
1525,447
1531,451
1538,453
1545,455
1554,456
1567,456
1579,456
1591,455
1606,454
1623,453
1639,452
1658,450
1677,448
1695,447
1714,445
1731,444
1748,443
1762,441
1775,440
1787,440
1801,440
1812,443
1820,445
1827,449
1833,454
1837,460
1840,466
1841,470
1842,472
" style="stroke:#000000;stroke-width:16;
stroke-linejoin:bevel; stroke-linecap:butt;
"/>
<!-- Text -->
<text xml:space="preserve" x="992" y="1464" fill="#000000"  font-family="Helvetica" font-style="normal" font-weight="normal" font-size="126" text-anchor="middle">Espagnole</text>
</g>
</svg>
