<?xml version="1.0" standalone="no"?>
<!DOCTYPE svg PUBLIC "-//W3C//DTD SVG 1.1//EN"
"http://www.w3.org/Graphics/SVG/1.1/DTD/svg11.dtd">
<!-- Creator: fig2dev Version 3.2 Patchlevel 5e -->
<!-- CreationDate: Thu Jun  7 04:44:44 2018 -->
<!-- Magnification: 1.050 -->
<svg	xmlns="http://www.w3.org/2000/svg"
	xmlns:xlink="http://www.w3.org/1999/xlink"
	viewBox="-23 -23 6140 1558">
<g style="stroke-width:.025in; fill:none">
<!-- Text -->
<text xml:space="preserve" x="850" y="1039" fill="#000000"  font-family="Helvetica" font-style="normal" font-weight="normal" font-size="126" text-anchor="middle">to</text>
<!-- Line -->
<polyline points="1039,944
944,1086
1086,1181
" style="stroke:#000000;stroke-width:16;
stroke-linejoin:round; stroke-linecap:round;
"/>
<!-- Line -->
<polyline points="1039,755
944,897
1086,992
" style="stroke:#000000;stroke-width:16;
stroke-linejoin:round; stroke-linecap:round;
"/>
<!-- Line: box -->
<rect x="1039" y="755" width="188" height="188" rx="0" 
style="stroke:#000000;stroke-width:16;
stroke-linejoin:miter; stroke-linecap:butt;
"/>
<!-- Text -->
<text xml:space="preserve" x="1133" y="1133" fill="#000000"  font-family="Helvetica" font-style="normal" font-weight="bold" font-size="114" text-anchor="middle">1</text>
<!-- Text -->
<text xml:space="preserve" x="1133" y="897" fill="#000000"  font-family="Helvetica" font-style="normal" font-weight="bold" font-size="114" text-anchor="middle">1</text>
<!-- Circle -->
<circle cx="1464" cy="1086" r="94"
 style="stroke:#000000;stroke-width:16;"/>
<!-- Line -->
<polyline points="1370,944
1275,1086
1417,1181
" style="stroke:#000000;stroke-width:16;
stroke-linejoin:round; stroke-linecap:round;
"/>
<!-- Line -->
<polyline points="1370,755
1275,897
1417,992
" style="stroke:#000000;stroke-width:16;
stroke-linejoin:round; stroke-linecap:round;
"/>
<!-- Line: box -->
<rect x="1370" y="755" width="188" height="188" rx="0" 
style="stroke:#000000;stroke-width:16;
stroke-linejoin:miter; stroke-linecap:butt;
"/>
<!-- Text -->
<text xml:space="preserve" x="1464" y="1133" fill="#000000"  font-family="Helvetica" font-style="normal" font-weight="bold" font-size="114" text-anchor="middle">2</text>
<!-- Text -->
<text xml:space="preserve" x="1464" y="897" fill="#000000"  font-family="Helvetica" font-style="normal" font-weight="bold" font-size="114" text-anchor="middle">2</text>
<!-- Circle -->
<circle cx="1795" cy="1086" r="94"
 style="stroke:#000000;stroke-width:16;"/>
<!-- Line -->
<polyline points="1700,944
1606,1086
1748,1181
" style="stroke:#000000;stroke-width:16;
stroke-linejoin:round; stroke-linecap:round;
"/>
<!-- Line -->
<polyline points="1700,755
1606,897
1748,992
" style="stroke:#000000;stroke-width:16;
stroke-linejoin:round; stroke-linecap:round;
"/>
<!-- Line: box -->
<rect x="1700" y="755" width="188" height="188" rx="0" 
style="stroke:#000000;stroke-width:16;
stroke-linejoin:miter; stroke-linecap:butt;
"/>
<!-- Text -->
<text xml:space="preserve" x="1795" y="1133" fill="#000000"  font-family="Helvetica" font-style="normal" font-weight="bold" font-size="114" text-anchor="middle">3</text>
<!-- Text -->
<text xml:space="preserve" x="1795" y="897" fill="#000000"  font-family="Helvetica" font-style="normal" font-weight="bold" font-size="114" text-anchor="middle">3</text>
<!-- Text -->
<text xml:space="preserve" x="5811" y="1039" fill="#000000"  font-family="Helvetica" font-style="normal" font-weight="bold" font-size="227" text-anchor="middle">P</text>
<!-- Text -->
<text xml:space="preserve" x="5811" y="614" fill="#000000"  font-family="Helvetica" font-style="normal" font-weight="bold" font-size="114" text-anchor="middle">2 1</text>
<!-- Circle -->
<circle cx="330" cy="944" r="236"
 style="stroke:#000000;stroke-width:16;"/>
<!-- Text -->
<text xml:space="preserve" x="330" y="1039" fill="#000000"  font-family="Helvetica" font-style="normal" font-weight="bold" font-size="227" text-anchor="middle">6</text>
<!-- Line -->
<polyline points="4818,566
4440,566
" style="stroke:#000000;stroke-width:8;
stroke-linejoin:miter; stroke-linecap:butt;
"/>
<!-- Line -->
<polyline points="5480,566
5102,566
" style="stroke:#000000;stroke-width:8;
stroke-linejoin:miter; stroke-linecap:butt;
"/>
<!-- Text -->
<text xml:space="preserve" x="4960" y="614" fill="#000000"  font-family="Helvetica" font-style="normal" font-weight="bold" font-size="114" text-anchor="middle">1 2</text>
<!-- Text -->
<text xml:space="preserve" x="4960" y="1039" fill="#000000"  font-family="Helvetica" font-style="normal" font-weight="bold" font-size="227" text-anchor="middle">Rondel</text>
<!-- Text -->
<text xml:space="preserve" x="4062" y="1228" fill="#000000"  font-family="Helvetica" font-style="normal" font-weight="bold" font-size="114" text-anchor="middle">bar 24</text>
<!-- Text -->
<text xml:space="preserve" x="4062" y="850" fill="#000000"  font-family="Helvetica" font-style="normal" font-weight="bold" font-size="114" text-anchor="middle">step</text>
<!-- Text -->
<text xml:space="preserve" x="4062" y="1039" fill="#000000"  font-family="Helvetica" font-style="normal" font-weight="bold" font-size="114" text-anchor="middle">in on</text>
<!-- Text -->
<text xml:space="preserve" x="4062" y="614" fill="#000000"  font-family="Helvetica" font-style="normal" font-weight="bold" font-size="114" text-anchor="middle">1 2</text>
<!-- Line -->
<polyline points="3700,817
3290,817
" style="stroke:#000000;stroke-width:16;
stroke-linejoin:miter; stroke-linecap:butt;
"/>
<!-- Arrowhead on XXXpoint 3700 817 - 3196 817-->
<polygon points="3269 786
3206 817
3269 849
3269 786

" style="stroke:#000000;stroke-width:8;stroke-miterlimit:8;
fill:#000000;"/>
<!-- Line -->
<polyline points="3638,1054
3228,1054
" style="stroke:#000000;stroke-width:16;
stroke-linejoin:miter; stroke-linecap:butt;
"/>
<!-- Arrowhead on XXXpoint 3228 1054 - 3732 1054-->
<polygon points="3659 1085
3722 1054
3659 1022
3659 1085

" style="stroke:#000000;stroke-width:8;stroke-miterlimit:8;
fill:#000000;"/>
<!-- Text -->
<text xml:space="preserve" x="3448" y="1275" fill="#000000"  font-family="Helvetica" font-style="normal" font-weight="bold" font-size="114" text-anchor="middle">RH</text>
<!-- Text -->
<text xml:space="preserve" x="3448" y="614" fill="#000000"  font-family="Helvetica" font-style="normal" font-weight="bold" font-size="114" text-anchor="middle">3</text>
<!-- Line -->
<polyline points="2409,566
2220,566
" style="stroke:#000000;stroke-width:8;
stroke-linejoin:miter; stroke-linecap:butt;
"/>
<!-- Line -->
<polyline points="2976,566
2787,566
" style="stroke:#000000;stroke-width:8;
stroke-linejoin:miter; stroke-linecap:butt;
"/>
<!-- Text -->
<text xml:space="preserve" x="2598" y="1039" fill="#000000"  font-family="Helvetica" font-style="normal" font-weight="bold" font-size="227" text-anchor="middle">Prom</text>
<!-- Text -->
<text xml:space="preserve" x="2598" y="614" fill="#000000"  font-family="Helvetica" font-style="normal" font-weight="bold" font-size="114" text-anchor="middle">1 2 3</text>
<!-- Line -->
<polyline points="2078,377
2078,1511
" style="stroke:#000000;stroke-width:16;
stroke-linejoin:miter; stroke-linecap:butt;
"/>
<!-- Line -->
<polyline points="5574,377
5574,1511
" style="stroke:#000000;stroke-width:16;
stroke-linejoin:miter; stroke-linecap:butt;
"/>
<!-- Line -->
<polyline points="0,377
6094,377
" style="stroke:#000000;stroke-width:16;
stroke-linejoin:miter; stroke-linecap:butt;
"/>
<!-- Line -->
<polyline points="4346,377
4346,1511
" style="stroke:#000000;stroke-width:16;
stroke-linejoin:miter; stroke-linecap:butt;
"/>
<!-- Line -->
<polyline points="3118,377
3118,1511
" style="stroke:#000000;stroke-width:16;
stroke-linejoin:miter; stroke-linecap:butt;
"/>
<!-- Line: box -->
<rect x="0" y="0" width="6094" height="1511" rx="0" 
style="stroke:#000000;stroke-width:16;
stroke-linejoin:miter; stroke-linecap:butt;
"/>
<!-- Line -->
<polyline points="755,472
754,473
751,476
747,481
742,490
737,500
731,514
727,531
723,550
721,574
718,602
717,638
716,657
714,679
713,701
713,726
712,752
712,780
711,809
711,839
710,870
710,902
710,935
710,969
710,1001
710,1034
710,1066
711,1097
711,1127
712,1156
712,1184
713,1210
713,1235
714,1257
716,1279
717,1299
718,1334
721,1362
723,1386
727,1405
731,1422
737,1436
742,1446
747,1455
751,1460
754,1463
755,1464
" style="stroke:#000000;stroke-width:16;
stroke-linejoin:bevel; stroke-linecap:round;
"/>
<!-- Line -->
<polyline points="1937,472
1938,473
1941,476
1945,481
1950,490
1955,500
1961,514
1965,531
1969,550
1971,574
1974,602
1976,638
1976,657
1977,679
1979,701
1979,726
1980,752
1980,780
1981,809
1981,839
1982,870
1982,902
1982,935
1982,969
1982,1001
1982,1034
1982,1066
1981,1097
1981,1127
1980,1156
1980,1184
1979,1210
1979,1235
1977,1257
1976,1279
1976,1299
1974,1334
1971,1362
1969,1386
1965,1405
1961,1422
1955,1436
1950,1446
1945,1455
1941,1460
1938,1463
1937,1464
" style="stroke:#000000;stroke-width:16;
stroke-linejoin:bevel; stroke-linecap:round;
"/>
<!-- Text -->
<text xml:space="preserve" x="94" y="283" fill="#000000"  font-family="Helvetica" font-style="normal" font-weight="normal" font-size="227" text-anchor="start">Trip to Vienna</text>
<!-- Text -->
<text xml:space="preserve" x="5007" y="283" fill="#000000"  font-family="Helvetica" font-style="normal" font-weight="normal" font-size="177" text-anchor="end">Ann Murray</text>
<!-- Text -->
<text xml:space="preserve" x="6047" y="283" fill="#000000"  font-family="Helvetica" font-style="normal" font-weight="normal" font-size="227" text-anchor="end">S8x40</text>
<!-- Circle -->
<circle cx="1133" cy="1086" r="94"
 style="stroke:#000000;stroke-width:16;"/>
</g>
</svg>
