<?xml version='1.0' encoding='utf-8' standalone='no'?>
<!DOCTYPE svg PUBLIC '-//W3C//DTD SVG 1.1//EN' 'http://www.w3.org/Graphics/SVG/1.1/DTD/svg11.dtd'>
<svg version="1.1" viewBox="-0.028 -0.352 470 106" xmlns='http://www.w3.org/2000/svg'>
<defs>
</defs>
<path d="M5.703,17.931l4.375-11.5h1.773l4.125,11.5h-1.695l-1.117-3.359H8.516l-1.211,3.359H5.703z M9.023,13.212h3.586
	l-1.703-5.117L9.023,13.212z"/>
<path d="M17.367,6.431h1.555v10.141h5.875v1.359h-7.43V6.431z"/>
<path d="M26.344,17.931v-11.5h4.641c1.495,0,2.667,0.505,3.516,1.516c0.849,1.011,1.273,2.394,1.273,4.148
	c0,1.703-0.427,3.102-1.281,4.195c-0.854,1.094-2.047,1.641-3.578,1.641H26.344z M27.898,16.571h2.992
	c0.963,0,1.75-0.359,2.359-1.078c0.614-0.719,0.922-1.856,0.922-3.414c0-1.359-0.294-2.414-0.883-3.164
	c-0.583-0.75-1.425-1.125-2.523-1.125h-2.867V16.571z"/>
<path d="M37.992,17.931v-11.5h8.43V7.79h-6.875v3.57h6.344v1.359h-6.344v3.852h7v1.359H37.992z"/>
<path d="M48.469,17.931v-11.5h5.063c0.979,0,1.763,0.269,2.352,0.805c0.594,0.531,0.891,1.229,0.891,2.094
	c0,1.036-0.511,1.823-1.531,2.359c0.771,0.297,1.307,0.675,1.609,1.133c0.302,0.458,0.453,1.016,0.453,1.672
	c0,0.979-0.339,1.797-1.016,2.453c-0.677,0.656-1.638,0.984-2.883,0.984H48.469z M50.023,11.243h2.797
	c1.599,0,2.398-0.599,2.398-1.797c0-1.104-0.792-1.656-2.375-1.656h-2.82V11.243z M50.023,16.571h3.313
	c0.729,0,1.313-0.172,1.75-0.516c0.442-0.344,0.664-0.875,0.664-1.594c0-1.281-0.896-1.922-2.688-1.922h-3.039V16.571z"/>
<path d="M58.172,17.931l4.375-11.5h1.773l4.125,11.5H66.75l-1.117-3.359h-4.648l-1.211,3.359H58.172z M61.492,13.212h3.586
	l-1.703-5.117L61.492,13.212z"/>
<path d="M79.523,17.931h-1.914c-0.177-0.755-0.266-1.651-0.266-2.688c0-0.833-0.154-1.411-0.461-1.734
	c-0.308-0.328-0.828-0.492-1.563-0.492h-3.734v4.914h-1.555v-11.5h5.305c1.255,0,2.192,0.258,2.813,0.773
	c0.625,0.511,0.938,1.302,0.938,2.375c0,1.25-0.534,2.161-1.602,2.734c0.469,0.188,0.807,0.438,1.016,0.75
	c0.208,0.313,0.325,0.841,0.352,1.586l0.086,1.875c0.01,0.208,0.039,0.417,0.086,0.625c0.047,0.203,0.213,0.378,0.5,0.523V17.931z
	 M77.484,9.712c0-0.661-0.177-1.146-0.531-1.453c-0.349-0.313-0.854-0.469-1.516-0.469h-3.852v3.93h3.57
	C76.708,11.72,77.484,11.051,77.484,9.712z"/>
<path d="M80.398,17.931l4.375-11.5h1.773l4.125,11.5h-1.695l-1.117-3.359h-4.648L82,17.931H80.398z M83.719,13.212h3.586
	l-1.703-5.117L83.719,13.212z"/>
<path d="M92.063,6.431h1.844l5.781,9.344V6.431h1.508v11.5h-1.75L93.57,8.587v9.344h-1.508V6.431z"/>
<line fill="none" stroke="#000000" stroke-width="1.1112" stroke-miterlimit="10" x1="148.352" y1="25.981" x2="148.352" y2="92.466"/>
<path d="M414.959,11.962c-1.011-0.442-1.516-1.177-1.516-2.203c0-0.917,0.308-1.664,0.922-2.242c0.62-0.583,1.45-0.875,2.492-0.875
	c0.979,0,1.8,0.269,2.461,0.805c0.667,0.531,1,1.258,1,2.18c0,1.094-0.477,1.867-1.43,2.32c1.203,0.599,1.805,1.521,1.805,2.766
	c0,1.016-0.339,1.854-1.016,2.516c-0.672,0.661-1.583,0.992-2.734,0.992c-1.125,0-2.052-0.3-2.781-0.898s-1.094-1.44-1.094-2.523
	C413.068,13.418,413.698,12.473,414.959,11.962z M414.568,14.759c0,0.636,0.2,1.161,0.602,1.578
	c0.401,0.411,0.995,0.617,1.781,0.617c0.698,0,1.245-0.195,1.641-0.586c0.401-0.391,0.602-0.894,0.602-1.508
	c0-0.667-0.2-1.198-0.602-1.594c-0.401-0.401-0.972-0.602-1.711-0.602c-0.672,0-1.227,0.19-1.664,0.57
	C414.784,13.61,414.568,14.118,414.568,14.759z M414.943,9.657c0,0.442,0.169,0.852,0.508,1.227c0.339,0.37,0.82,0.555,1.445,0.555
	c0.542,0,0.997-0.164,1.367-0.492s0.555-0.771,0.555-1.328c0-0.547-0.192-0.969-0.578-1.266c-0.38-0.297-0.859-0.445-1.438-0.445
	c-0.552,0-1,0.153-1.344,0.461C415.115,8.67,414.943,9.1,414.943,9.657z"/>
<path d="M421.529,17.931l2.906-4.352l-2.75-4.023h1.805l1.906,2.914l1.898-2.914h1.734l-2.797,4.023l2.906,4.352h-1.781
	l-2.063-3.141l-1.984,3.141H421.529z"/>
<path d="M431.35,14.47c0.016,0.808,0.211,1.425,0.586,1.852c0.38,0.422,0.977,0.633,1.789,0.633c0.683,0,1.266-0.183,1.75-0.547
	c0.489-0.37,0.734-0.911,0.734-1.625c0-0.62-0.208-1.109-0.625-1.469s-1.042-0.539-1.875-0.539c-0.177,0-0.448,0.008-0.813,0.023
	v-1.227c0.359,0.026,0.583,0.039,0.672,0.039c1.469,0,2.203-0.612,2.203-1.836c0-0.567-0.185-1.021-0.555-1.359
	c-0.364-0.339-0.867-0.508-1.508-0.508c-0.698,0-1.222,0.195-1.57,0.586s-0.547,0.981-0.594,1.773h-1.383
	c0.005-1.141,0.31-2.028,0.914-2.664c0.609-0.641,1.519-0.961,2.727-0.961c1.047,0,1.886,0.278,2.516,0.836
	c0.636,0.552,0.953,1.284,0.953,2.195c0,1.203-0.492,1.987-1.477,2.352c0.714,0.255,1.211,0.599,1.492,1.031
	c0.281,0.427,0.422,0.956,0.422,1.586c0,1.063-0.359,1.925-1.078,2.586s-1.683,0.992-2.891,0.992c-1.104,0-1.997-0.276-2.68-0.828
	c-0.677-0.558-1.065-1.531-1.164-2.922H431.35z"/>
<path d="M439.436,15.188c0.433-0.661,1.023-1.208,1.773-1.641l2.289-1.359c0.521-0.308,0.888-0.625,1.102-0.953
	c0.214-0.333,0.32-0.737,0.32-1.211c0-0.651-0.206-1.167-0.617-1.547c-0.406-0.38-0.958-0.57-1.656-0.57
	c-0.781,0-1.349,0.231-1.703,0.695c-0.349,0.458-0.55,1.138-0.602,2.039h-1.383c0-1.198,0.315-2.164,0.945-2.898
	s1.597-1.102,2.898-1.102c1.052,0,1.917,0.305,2.594,0.914c0.683,0.604,1.023,1.43,1.023,2.477c0,0.703-0.161,1.305-0.484,1.805
	c-0.323,0.495-0.82,0.93-1.492,1.305l-1.906,1.109c-0.672,0.396-1.183,0.766-1.531,1.109c-0.344,0.339-0.594,0.755-0.75,1.25h6.164
	v1.32h-7.75C438.748,16.759,439.003,15.845,439.436,15.188z"/>
<path d="M451.857,14.228h1.453v0.797c0,0.677,0.148,1.153,0.445,1.43s0.734,0.414,1.313,0.414c1.208,0,1.813-0.667,1.813-2V6.431
	h1.555v8.391c0,1.094-0.289,1.935-0.867,2.523c-0.573,0.589-1.406,0.883-2.5,0.883c-0.933,0-1.7-0.245-2.305-0.734
	s-0.906-1.208-0.906-2.156V14.228z"/>
<path fill="none" stroke="#000000" stroke-width="1.1339" stroke-miterlimit="10" d="M0.567,0.567h468.04v91.581H0.567V0.567z"/>
<line fill="none" stroke="#000000" stroke-width="1.1339" stroke-miterlimit="10" x1="0.067" y1="26.146" x2="468.106" y2="26.146"/>
<line fill="none" stroke="#000000" stroke-width="1.1019" stroke-miterlimit="10" x1="239.52" y1="25.854" x2="239.52" y2="91.231"/>
<path d="M392.18,101.425c0.009,0.455,0.119,0.802,0.33,1.042c0.213,0.237,0.549,0.356,1.006,0.356c0.384,0,0.712-0.103,0.984-0.309
	c0.275-0.207,0.413-0.512,0.413-0.914c0-0.348-0.117-0.623-0.352-0.826c-0.234-0.201-0.586-0.303-1.055-0.303
	c-0.1,0-0.252,0.004-0.457,0.014v-0.69c0.202,0.015,0.328,0.022,0.378,0.022c0.826,0,1.239-0.345,1.239-1.033
	c0-0.319-0.104-0.574-0.312-0.765c-0.206-0.19-0.488-0.286-0.849-0.286c-0.393,0-0.688,0.11-0.884,0.33s-0.307,0.553-0.334,0.998
	h-0.777c0.003-0.643,0.174-1.142,0.514-1.499c0.344-0.36,0.854-0.54,1.534-0.54c0.589,0,1.061,0.156,1.415,0.47
	c0.357,0.311,0.536,0.723,0.536,1.235c0,0.676-0.276,1.117-0.831,1.322c0.401,0.144,0.682,0.337,0.84,0.58
	c0.158,0.24,0.237,0.538,0.237,0.893c0,0.598-0.202,1.082-0.606,1.454s-0.946,0.558-1.626,0.558c-0.621,0-1.124-0.155-1.507-0.465
	c-0.382-0.313-0.6-0.861-0.655-1.645H392.18z"/>
<path d="M401.36,101.008h0.849c-0.15,0.844-0.468,1.477-0.954,1.898s-1.112,0.633-1.876,0.633c-0.877,0-1.582-0.305-2.119-0.914
	c-0.535-0.612-0.804-1.441-0.804-2.487c0-1.034,0.272-1.859,0.817-2.475c0.548-0.617,1.289-0.927,2.224-0.927
	c0.706,0,1.289,0.176,1.749,0.527c0.463,0.349,0.76,0.876,0.893,1.582h-0.849c-0.226-0.896-0.825-1.345-1.798-1.345
	c-0.636,0-1.15,0.228-1.547,0.682c-0.393,0.454-0.588,1.113-0.588,1.977c0,0.798,0.176,1.434,0.527,1.908
	c0.352,0.472,0.874,0.707,1.568,0.707c0.504,0,0.915-0.149,1.234-0.448C401.01,102.025,401.234,101.585,401.36,101.008z"/>
<path d="M402.411,103.54l2.215-6.803h0.598l-2.215,6.803H402.411z"/>
<path d="M405.285,101.066l2.931-3.978h0.655v4.048h0.927v0.689h-0.927v1.547h-0.791v-1.547h-2.795V101.066z M406.027,101.136h2.053
	v-2.861L406.027,101.136z"/>
<path d="M415.366,101.008h0.849c-0.15,0.844-0.468,1.477-0.954,1.898s-1.112,0.633-1.876,0.633c-0.877,0-1.582-0.305-2.119-0.914
	c-0.535-0.612-0.804-1.441-0.804-2.487c0-1.034,0.272-1.859,0.817-2.475c0.548-0.617,1.289-0.927,2.224-0.927
	c0.706,0,1.289,0.176,1.749,0.527c0.463,0.349,0.76,0.876,0.893,1.582h-0.849c-0.226-0.896-0.825-1.345-1.798-1.345
	c-0.636,0-1.15,0.228-1.547,0.682c-0.393,0.454-0.588,1.113-0.588,1.977c0,0.798,0.176,1.434,0.527,1.908
	c0.352,0.472,0.874,0.707,1.568,0.707c0.504,0,0.915-0.149,1.234-0.448C415.016,102.025,415.24,101.585,415.366,101.008z"/>
<path d="M419.673,103.373v-6.469h0.791v6.469H419.673z"/>
<path d="M421.374,101.035c0-0.747,0.2-1.354,0.603-1.819c0.4-0.469,0.934-0.703,1.6-0.703c0.641,0,1.168,0.228,1.582,0.681
	c0.412,0.455,0.619,1.063,0.619,1.824c0,0.718-0.199,1.315-0.598,1.793c-0.398,0.475-0.928,0.712-1.586,0.712
	c-0.648,0-1.18-0.229-1.596-0.686C421.582,102.376,421.374,101.776,421.374,101.035z M422.191,101.017
	c0,0.513,0.119,0.942,0.355,1.287c0.24,0.347,0.583,0.52,1.029,0.52c0.387,0,0.713-0.151,0.979-0.453
	c0.27-0.305,0.404-0.756,0.404-1.354c0-0.513-0.117-0.941-0.352-1.287s-0.579-0.52-1.032-0.52c-0.411,0-0.745,0.156-1.002,0.467
	C422.318,99.988,422.191,100.434,422.191,101.017z"/>
<path d="M426.652,103.373v-4.711h0.742v0.694c0.396-0.563,0.893-0.844,1.49-0.844c0.504,0,0.894,0.149,1.169,0.448
	c0.275,0.296,0.413,0.697,0.413,1.204v3.208h-0.791v-2.927c0-0.475-0.084-0.798-0.25-0.972c-0.165-0.176-0.409-0.264-0.734-0.264
	c-0.369,0-0.67,0.139-0.9,0.414c-0.232,0.275-0.348,0.663-0.348,1.164v2.584H426.652z"/>
<path d="M431.579,103.909h0.791c0.103,0.478,0.458,0.716,1.067,0.716c0.442,0,0.775-0.112,0.998-0.338s0.334-0.606,0.334-1.143
	v-0.313c-0.284,0.461-0.714,0.69-1.287,0.69c-0.619,0-1.114-0.237-1.486-0.712s-0.558-1.111-0.558-1.912
	c0-0.688,0.171-1.258,0.515-1.709c0.342-0.451,0.818-0.677,1.428-0.677c0.319,0,0.59,0.067,0.813,0.202
	c0.223,0.132,0.432,0.338,0.625,0.619v-0.672h0.742v4.289c0,0.882-0.185,1.497-0.554,1.846c-0.369,0.346-0.905,0.519-1.608,0.519
	c-0.498,0-0.908-0.107-1.23-0.321C431.849,104.777,431.652,104.416,431.579,103.909z M432.256,100.933
	c0,0.593,0.111,1.055,0.334,1.389c0.226,0.334,0.536,0.502,0.932,0.502c0.407,0,0.722-0.151,0.945-0.453
	c0.225-0.302,0.338-0.725,0.338-1.27c0-1.26-0.436-1.891-1.305-1.891C432.67,99.21,432.256,99.786,432.256,100.933z"/>
<path d="M436.207,98.662h0.865l0.879,3.735l0.928-3.735h0.879l0.953,3.735l0.928-3.735h0.791l-1.336,4.711h-0.817l-0.989-3.66
	l-0.927,3.66h-0.817L436.207,98.662z"/>
<path d="M443.19,96.913h0.791v0.905h-0.791V96.913z M443.19,98.662h0.791v4.711h-0.791V98.662z"/>
<path d="M445.635,101.905c0.022,0.612,0.429,0.919,1.217,0.919c0.343,0,0.612-0.066,0.809-0.198
	c0.199-0.135,0.299-0.321,0.299-0.558c0-0.17-0.066-0.305-0.197-0.404c-0.133-0.091-0.379-0.182-0.738-0.273l-0.924-0.229
	c-0.729-0.176-1.094-0.563-1.094-1.164c0-0.431,0.155-0.785,0.466-1.063c0.313-0.281,0.761-0.422,1.341-0.422
	c0.506,0,0.919,0.122,1.238,0.364c0.319,0.244,0.498,0.614,0.537,1.112h-0.778c-0.038-0.519-0.395-0.778-1.067-0.778
	c-0.64,0-0.959,0.225-0.959,0.673c0,0.196,0.075,0.334,0.225,0.413c0.149,0.076,0.358,0.146,0.629,0.211l0.781,0.197
	c0.478,0.123,0.816,0.277,1.016,0.462c0.202,0.193,0.303,0.457,0.303,0.791c0,0.463-0.165,0.839-0.496,1.13
	c-0.328,0.289-0.805,0.435-1.428,0.435c-0.578,0-1.041-0.122-1.389-0.364c-0.35-0.243-0.538-0.661-0.567-1.253H445.635z"/>
<path d="M450.262,101.263c0,0.492,0.111,0.876,0.334,1.151c0.226,0.272,0.563,0.409,1.011,0.409
	c0.319-0.003,0.598-0.094,0.835-0.273c0.24-0.181,0.383-0.396,0.426-0.646h0.778c-0.103,0.495-0.325,0.89-0.668,1.183
	c-0.343,0.289-0.793,0.435-1.349,0.435c-0.663,0-1.193-0.208-1.592-0.624c-0.395-0.416-0.593-1.017-0.593-1.802
	c0-0.759,0.193-1.378,0.58-1.858c0.39-0.484,0.935-0.726,1.635-0.726c0.659,0,1.16,0.228,1.503,0.681
	c0.346,0.452,0.527,1.142,0.545,2.07H450.262z M450.262,100.639h2.628c-0.056-0.524-0.19-0.894-0.404-1.107s-0.504-0.321-0.87-0.321
	c-0.387,0-0.703,0.133-0.949,0.396C450.42,99.868,450.285,100.211,450.262,100.639z"/>
<path d="M457.641,101.905c0.022,0.612,0.429,0.919,1.217,0.919c0.343,0,0.612-0.066,0.809-0.198
	c0.199-0.135,0.299-0.321,0.299-0.558c0-0.17-0.066-0.305-0.197-0.404c-0.133-0.091-0.379-0.182-0.738-0.273l-0.924-0.229
	c-0.729-0.176-1.094-0.563-1.094-1.164c0-0.431,0.155-0.785,0.466-1.063c0.313-0.281,0.761-0.422,1.341-0.422
	c0.506,0,0.919,0.122,1.238,0.364c0.319,0.244,0.498,0.614,0.537,1.112h-0.778c-0.038-0.519-0.395-0.778-1.067-0.778
	c-0.64,0-0.959,0.225-0.959,0.673c0,0.196,0.075,0.334,0.225,0.413c0.149,0.076,0.358,0.146,0.629,0.211l0.781,0.197
	c0.478,0.123,0.816,0.277,1.016,0.462c0.202,0.193,0.303,0.457,0.303,0.791c0,0.463-0.165,0.839-0.496,1.13
	c-0.328,0.289-0.805,0.435-1.428,0.435c-0.578,0-1.041-0.122-1.389-0.364c-0.35-0.243-0.538-0.661-0.567-1.253H457.641z"/>
<path d="M462.268,101.263c0,0.492,0.111,0.876,0.334,1.151c0.226,0.272,0.563,0.409,1.011,0.409
	c0.319-0.003,0.598-0.094,0.835-0.273c0.24-0.181,0.383-0.396,0.426-0.646h0.778c-0.103,0.495-0.325,0.89-0.668,1.183
	c-0.343,0.289-0.793,0.435-1.349,0.435c-0.663,0-1.193-0.208-1.592-0.624c-0.395-0.416-0.593-1.017-0.593-1.802
	c0-0.759,0.193-1.378,0.58-1.858c0.39-0.484,0.935-0.726,1.635-0.726c0.659,0,1.16,0.228,1.503,0.681
	c0.346,0.452,0.527,1.142,0.545,2.07H462.268z M462.268,100.639h2.628c-0.056-0.524-0.19-0.894-0.404-1.107s-0.504-0.321-0.87-0.321
	c-0.387,0-0.703,0.133-0.949,0.396C462.426,99.868,462.291,100.211,462.268,100.639z"/>
<path d="M466.223,99.321v-0.659h0.643v-1.336h0.791v1.336h0.773v0.659h-0.773v3.059c0,0.252,0.159,0.378,0.479,0.378h0.277v0.629
	c-0.297,0.04-0.518,0.061-0.664,0.061c-0.589,0-0.883-0.338-0.883-1.015v-3.111H466.223z"/>
<path d="M7.617,103.373H6.541c-0.1-0.425-0.149-0.929-0.149-1.512c0-0.469-0.087-0.794-0.259-0.976
	c-0.174-0.185-0.467-0.276-0.879-0.276H3.152v2.764H2.278v-6.469h2.983c0.706,0,1.233,0.145,1.582,0.436
	c0.352,0.287,0.527,0.732,0.527,1.336c0,0.703-0.3,1.216-0.9,1.537c0.264,0.105,0.454,0.246,0.571,0.422s0.183,0.474,0.198,0.893
	l0.048,1.055c0.006,0.117,0.022,0.234,0.048,0.352c0.027,0.114,0.12,0.213,0.281,0.295V103.373z M6.471,98.75
	c0-0.372-0.1-0.645-0.299-0.817c-0.196-0.176-0.48-0.264-0.853-0.264H3.152v2.21h2.009C6.034,99.878,6.471,99.502,6.471,98.75z"/>
<path d="M8.294,101.035c0-0.747,0.2-1.354,0.603-1.819c0.4-0.469,0.934-0.703,1.6-0.703c0.641,0,1.168,0.228,1.582,0.681
	c0.412,0.455,0.619,1.063,0.619,1.824c0,0.718-0.199,1.315-0.598,1.793c-0.398,0.475-0.928,0.712-1.586,0.712
	c-0.648,0-1.18-0.229-1.596-0.686C8.502,102.376,8.294,101.776,8.294,101.035z M9.111,101.017c0,0.513,0.119,0.942,0.355,1.287
	c0.24,0.347,0.583,0.52,1.029,0.52c0.387,0,0.713-0.151,0.979-0.453c0.27-0.305,0.404-0.756,0.404-1.354
	c0-0.513-0.117-0.941-0.352-1.287s-0.579-0.52-1.032-0.52c-0.411,0-0.745,0.156-1.002,0.467
	C9.238,99.988,9.111,100.434,9.111,101.017z"/>
<path d="M13.511,103.373v-6.469h0.791v2.382c0.331-0.516,0.806-0.773,1.424-0.773c0.542,0,1.002,0.204,1.38,0.61
	c0.381,0.408,0.571,1,0.571,1.775c0,0.769-0.188,1.398-0.563,1.891c-0.372,0.489-0.876,0.733-1.512,0.733
	c-0.56,0-1.01-0.234-1.349-0.703v0.554H13.511z M14.267,101.131c0,0.513,0.112,0.923,0.339,1.23
	c0.229,0.308,0.555,0.462,0.979,0.462c0.393,0,0.703-0.155,0.932-0.467c0.229-0.313,0.343-0.787,0.343-1.424
	c0-1.147-0.43-1.723-1.287-1.723C14.701,99.21,14.267,99.851,14.267,101.131z"/>
<path d="M19.176,101.263c0,0.492,0.111,0.876,0.334,1.151c0.226,0.272,0.563,0.409,1.011,0.409c0.319-0.003,0.598-0.094,0.835-0.273
	c0.24-0.181,0.383-0.396,0.426-0.646h0.778c-0.103,0.495-0.325,0.89-0.668,1.183c-0.343,0.289-0.793,0.435-1.349,0.435
	c-0.663,0-1.193-0.208-1.592-0.624c-0.395-0.416-0.593-1.017-0.593-1.802c0-0.759,0.193-1.378,0.58-1.858
	c0.39-0.484,0.935-0.726,1.635-0.726c0.659,0,1.16,0.228,1.503,0.681c0.346,0.452,0.527,1.142,0.545,2.07H19.176z M19.176,100.639
	h2.628c-0.056-0.524-0.19-0.894-0.404-1.107s-0.504-0.321-0.87-0.321c-0.387,0-0.703,0.133-0.949,0.396
	C19.334,99.868,19.199,100.211,19.176,100.639z"/>
<path d="M23.698,103.373v-4.711h0.743v0.787c0.216-0.361,0.426-0.607,0.628-0.738c0.205-0.133,0.438-0.198,0.698-0.198
	c0.053,0,0.119,0.011,0.198,0.03v0.813h-0.299c-0.349,0-0.633,0.125-0.853,0.374c-0.217,0.249-0.325,0.548-0.325,0.896v2.746H23.698
	z"/>
<path d="M26.129,99.321v-0.659h0.641v-1.336h0.791v1.336h0.773v0.659h-0.773v3.059c0,0.252,0.16,0.378,0.479,0.378h0.276v0.629
	c-0.296,0.04-0.517,0.061-0.663,0.061c-0.589,0-0.884-0.338-0.884-1.015v-3.111H26.129z"/>
<path d="M34.474,100.652v-0.751h2.856v3.472h-0.571l-0.206-0.817c-0.206,0.27-0.492,0.501-0.861,0.694s-0.809,0.29-1.318,0.29
	c-0.865,0-1.571-0.313-2.119-0.94c-0.545-0.627-0.816-1.421-0.816-2.382c0-0.996,0.268-1.825,0.804-2.487s1.277-0.993,2.224-0.993
	c0.703,0,1.311,0.184,1.824,0.55c0.512,0.366,0.822,0.886,0.932,1.56h-0.849c-0.138-0.469-0.366-0.81-0.686-1.024
	c-0.316-0.213-0.714-0.32-1.19-0.32c-0.637,0-1.155,0.23-1.557,0.689c-0.401,0.461-0.602,1.123-0.602,1.986
	c0,0.807,0.176,1.44,0.527,1.903c0.354,0.463,0.896,0.694,1.626,0.694c0.589,0,1.072-0.173,1.45-0.519
	c0.381-0.349,0.571-0.884,0.571-1.604H34.474z"/>
<path d="M38.696,103.373v-4.711h0.743v0.787c0.216-0.361,0.426-0.607,0.628-0.738c0.205-0.133,0.438-0.198,0.698-0.198
	c0.053,0,0.119,0.011,0.198,0.03v0.813h-0.299c-0.349,0-0.633,0.125-0.853,0.374c-0.217,0.249-0.325,0.548-0.325,0.896v2.746H38.696
	z"/>
<path d="M42.177,101.263c0,0.492,0.111,0.876,0.334,1.151c0.226,0.272,0.563,0.409,1.011,0.409c0.319-0.003,0.598-0.094,0.835-0.273
	c0.24-0.181,0.382-0.396,0.427-0.646h0.777c-0.103,0.495-0.325,0.89-0.668,1.183c-0.343,0.289-0.793,0.435-1.35,0.435
	c-0.662,0-1.192-0.208-1.59-0.624c-0.396-0.416-0.594-1.017-0.594-1.802c0-0.759,0.193-1.378,0.58-1.858
	c0.39-0.484,0.935-0.726,1.635-0.726c0.659,0,1.16,0.228,1.503,0.681c0.346,0.452,0.527,1.142,0.545,2.07H42.177z M42.177,100.639
	h2.628c-0.056-0.524-0.19-0.894-0.404-1.107s-0.504-0.321-0.87-0.321c-0.387,0-0.703,0.133-0.949,0.396
	C42.335,99.868,42.2,100.211,42.177,100.639z"/>
<path d="M46.505,103.909h0.791c0.103,0.478,0.458,0.716,1.067,0.716c0.442,0,0.775-0.112,0.998-0.338s0.334-0.606,0.334-1.143
	v-0.313c-0.284,0.461-0.714,0.69-1.287,0.69c-0.619,0-1.114-0.237-1.486-0.712s-0.558-1.111-0.558-1.912
	c0-0.688,0.171-1.258,0.515-1.709c0.342-0.451,0.818-0.677,1.428-0.677c0.319,0,0.59,0.067,0.813,0.202
	c0.223,0.132,0.432,0.338,0.625,0.619v-0.672h0.742v4.289c0,0.882-0.185,1.497-0.554,1.846c-0.369,0.346-0.905,0.519-1.608,0.519
	c-0.498,0-0.908-0.107-1.23-0.321C46.774,104.777,46.578,104.416,46.505,103.909z M47.182,100.933c0,0.593,0.111,1.055,0.334,1.389
	c0.226,0.334,0.536,0.502,0.932,0.502c0.407,0,0.722-0.151,0.945-0.453c0.225-0.302,0.338-0.725,0.338-1.27
	c0-1.26-0.436-1.891-1.305-1.891C47.596,99.21,47.182,99.786,47.182,100.933z"/>
<path d="M51.511,103.909h0.791c0.103,0.478,0.458,0.716,1.067,0.716c0.442,0,0.775-0.112,0.998-0.338s0.334-0.606,0.334-1.143
	v-0.313c-0.284,0.461-0.714,0.69-1.287,0.69c-0.619,0-1.114-0.237-1.486-0.712s-0.558-1.111-0.558-1.912
	c0-0.688,0.171-1.258,0.515-1.709c0.342-0.451,0.818-0.677,1.428-0.677c0.319,0,0.59,0.067,0.813,0.202
	c0.223,0.132,0.432,0.338,0.625,0.619v-0.672h0.742v4.289c0,0.882-0.185,1.497-0.554,1.846c-0.369,0.346-0.905,0.519-1.608,0.519
	c-0.498,0-0.908-0.107-1.23-0.321C51.78,104.777,51.584,104.416,51.511,103.909z M52.188,100.933c0,0.593,0.111,1.055,0.334,1.389
	c0.226,0.334,0.536,0.502,0.932,0.502c0.407,0,0.722-0.151,0.945-0.453c0.225-0.302,0.338-0.725,0.338-1.27
	c0-1.26-0.436-1.891-1.305-1.891C52.602,99.21,52.188,99.786,52.188,100.933z"/>
<line fill="none" stroke="#000000" stroke-width="0.5528" stroke-miterlimit="10" stroke-dasharray="1.4173" x1="72.841" y1="26.571" x2="72.841" y2="92.39"/>
<path d="M15.761,66.093l3.758-5.883l-3.531-5.617h2.867l2.039,3.726l2.109-3.726h2.758l-3.516,5.476l3.742,6.023h-2.875
	l-2.211-3.906l-2.344,3.906H15.761z"/>
<path d="M32.986,69.451h-1.655c-0.101-0.389-0.155-0.813-0.161-1.275l-0.01-0.537c-0.006-0.357-0.086-0.613-0.239-0.766
	c-0.153-0.154-0.464-0.23-0.933-0.23h-1.572v2.809h-1.489v-7.188h3.667c0.69,0,1.242,0.188,1.655,0.561
	c0.414,0.371,0.62,0.875,0.62,1.51c0,0.811-0.373,1.373-1.118,1.689c0.404,0.158,0.656,0.379,0.757,0.658
	c0.101,0.281,0.151,0.719,0.151,1.314v0.287c0,0.273,0.018,0.492,0.054,0.654c0.039,0.16,0.13,0.266,0.273,0.318V69.451z
	 M31.355,64.48c0-0.639-0.352-0.957-1.055-0.957h-1.885v1.918h1.768C30.964,65.441,31.355,65.121,31.355,64.48z"/>
<path fill="none" stroke="#000000" stroke-width="0.5572" stroke-miterlimit="10" d="M45.05,62.568
	c-0.088-0.396-0.133-0.801-0.133-1.207c0-3.031,2.459-5.491,5.49-5.491c3.029,0,5.488,2.459,5.488,5.491
	c0,1.018-0.281,2.014-0.814,2.879"/>
<polygon fill-rule="evenodd" clip-rule="evenodd" stroke="#000000" stroke-width="0.2786" stroke-miterlimit="10" points="
	54.574,60.884 55.392,65.417 56.802,61.033 54.574,60.884 "/>
<path d="M47.799,59.326c0.702,0,1.196-0.115,1.483-0.348s0.449-0.52,0.485-0.861h1.16v7.119h-1.405V60.31h-1.724V59.326z"/>
<line fill="none" stroke="#000000" stroke-width="0.5528" stroke-miterlimit="10" stroke-dasharray="1.4173" x1="406.507" y1="26.071" x2="406.507" y2="91.89"/>
<path fill="none" stroke="#000000" stroke-width="0.5572" stroke-linejoin="bevel" stroke-miterlimit="10" d="M268.829,42.783
	c3.689,0,6.686,2.996,6.686,6.688c0,3.689-2.996,6.686-6.686,6.686c-3.691,0-6.688-2.996-6.688-6.686
	C262.142,45.779,265.138,42.783,268.829,42.783L268.829,42.783z M282.203,42.783c3.689,0,6.686,2.996,6.686,6.688
	c0,3.689-2.996,6.686-6.686,6.686c-3.69,0-6.687-2.996-6.687-6.686C275.517,45.779,278.513,42.783,282.203,42.783L282.203,42.783z"
	/>
<line fill="none" stroke="#000000" stroke-width="0.5572" stroke-miterlimit="10" x1="275.313" y1="51.419" x2="281.997" y2="63.121"/>
<path fill="none" stroke="#000000" stroke-width="0.5572" stroke-linejoin="bevel" stroke-miterlimit="10" d="M268.829,68.954
	c3.689,0,6.686,2.996,6.686,6.688c0,3.689-2.996,6.686-6.686,6.686c-3.691,0-6.688-2.996-6.688-6.686
	C262.142,71.95,265.138,68.954,268.829,68.954L268.829,68.954z M282.203,68.954c3.689,0,6.686,2.996,6.686,6.688
	c0,3.689-2.996,6.686-6.686,6.686c-3.69,0-6.687-2.996-6.687-6.686C275.517,71.95,278.513,68.954,282.203,68.954L282.203,68.954z"/>
<line fill="none" stroke="#000000" stroke-width="0.5572" stroke-miterlimit="10" x1="269.062" y1="62.577" x2="275.747" y2="74.278"/>
<path fill-rule="evenodd" clip-rule="evenodd" stroke="#000000" stroke-width="0.2786" stroke-miterlimit="10" d="M276.139,36.025
	c0.472,0,0.854,0.383,0.854,0.854c0,0.473-0.383,0.855-0.854,0.855s-0.854-0.383-0.854-0.855
	C275.284,36.408,275.667,36.025,276.139,36.025L276.139,36.025z"/>
<path fill="none" stroke="#000000" stroke-width="0.5572" stroke-miterlimit="10" d="M276.209,34.423
	c1.395,0,2.526,1.133,2.526,2.525c0,1.396-1.132,2.527-2.526,2.527c-1.394,0-2.525-1.131-2.525-2.527
	C273.684,35.556,274.815,34.423,276.209,34.423L276.209,34.423z"/>
<rect x="117.461" y="44.855" transform="matrix(-0.9998 -0.0179 0.0179 -0.9998 242.3878 100.2464)" fill="none" stroke="#000000" stroke-width="0.4647" stroke-miterlimit="10" width="8.364" height="8.364"/>
<path d="M119.411,47.126c0.585,0.01,0.999-0.079,1.242-0.268s0.382-0.426,0.417-0.711l0.968,0.018l-0.106,5.938l-1.172-0.021
	l0.073-4.108l-1.438-0.026L119.411,47.126z"/>
<path fill="none" stroke="#000000" stroke-width="0.4647" stroke-miterlimit="10" d="M125.985,76.13
	c0,2.311-1.875,4.184-4.183,4.184c-2.31,0-4.183-1.873-4.183-4.184c0-2.308,1.873-4.181,4.183-4.181
	C124.11,71.95,125.985,73.823,125.985,76.13L125.985,76.13z"/>
<path d="M119.977,74.072c0.585,0,0.998-0.098,1.237-0.291s0.375-0.433,0.404-0.719h0.968v5.939h-1.172v-4.109h-1.438V74.072z"/>
<polyline fill="none" stroke="#000000" stroke-width="0.4252" stroke-linejoin="bevel" stroke-miterlimit="10" points="
	160.222,40.398 160.222,35.898 189.806,35.898 225.389,35.898 225.389,40.398 "/>
<path d="M83.261,67.093l3.758-5.883l-3.531-5.617h2.867l2.039,3.726l2.109-3.726h2.758l-3.516,5.476l3.742,6.023h-2.875
	l-2.211-3.906l-2.344,3.906H83.261z"/>
<path d="M94.426,63.263h1.489v5.928h3.594v1.26h-5.083V63.263z"/>
<path fill="none" stroke="#000000" stroke-width="0.5572" stroke-miterlimit="10" d="M121.05,68.568
	c-0.088-0.396-0.133-0.801-0.133-1.207c0-3.031,2.459-5.49,5.49-5.49c3.029,0,5.488,2.459,5.488,5.49
	c0,1.018-0.281,2.014-0.814,2.879"/>
<polygon fill-rule="evenodd" clip-rule="evenodd" stroke="#000000" stroke-width="0.2786" stroke-miterlimit="10" points="
	130.574,66.884 131.392,71.417 132.802,67.033 130.574,66.884 "/>
<path fill="none" stroke="#000000" stroke-width="0.5572" stroke-miterlimit="10" d="M120.669,41.567
	c0.088-0.396,0.133-0.801,0.133-1.207c0-3.031-2.459-5.49-5.49-5.49c-3.029,0-5.488,2.459-5.488,5.49
	c0,1.018,0.281,2.014,0.814,2.879"/>
<polygon fill-rule="evenodd" clip-rule="evenodd" stroke="#000000" stroke-width="0.2786" stroke-miterlimit="10" points="
	111.146,39.885 110.328,44.418 108.917,40.033 111.146,39.885 "/>
<path fill="none" stroke="#000000" stroke-width="0.5572" stroke-linejoin="bevel" stroke-miterlimit="10" d="M204.345,57.266
	c0-3.691,2.996-6.688,6.688-6.688c3.689,0,6.686,2.996,6.686,6.688c0,3.689-2.996,6.685-6.686,6.685
	C207.341,63.951,204.345,60.956,204.345,57.266L204.345,57.266z M204.345,70.64c0-3.691,2.996-6.688,6.688-6.688
	c3.689,0,6.686,2.996,6.686,6.688c0,3.689-2.996,6.686-6.686,6.686C207.341,77.326,204.345,74.33,204.345,70.64L204.345,70.64z"/>
<line fill="none" stroke="#000000" stroke-width="0.5572" stroke-miterlimit="10" x1="212.981" y1="63.75" x2="224.683" y2="70.434"/>
<path fill="none" stroke="#000000" stroke-width="0.5572" stroke-linejoin="bevel" stroke-miterlimit="10" d="M167.09,57.266
	c0-3.691,2.996-6.688,6.688-6.688c3.689,0,6.686,2.996,6.686,6.688c0,3.689-2.996,6.685-6.686,6.685
	C170.086,63.951,167.09,60.956,167.09,57.266L167.09,57.266z M167.09,70.64c0-3.691,2.996-6.688,6.688-6.688
	c3.689,0,6.686,2.996,6.686,6.688c0,3.689-2.996,6.686-6.686,6.686C170.086,77.326,167.09,74.33,167.09,70.64L167.09,70.64z"/>
<line fill="none" stroke="#000000" stroke-width="0.5572" stroke-miterlimit="10" x1="160.713" y1="57.499" x2="172.414" y2="64.183"/>
<path fill-rule="evenodd" clip-rule="evenodd" stroke="#000000" stroke-width="0.2786" stroke-miterlimit="10" d="M210.972,42.148
	c0.472,0,0.854,0.383,0.854,0.854c0,0.473-0.383,0.855-0.854,0.855s-0.854-0.383-0.854-0.855
	C210.117,42.531,210.5,42.148,210.972,42.148L210.972,42.148z"/>
<path fill="none" stroke="#000000" stroke-width="0.5572" stroke-miterlimit="10" d="M211.042,40.546
	c1.395,0,2.526,1.133,2.526,2.525c0,1.396-1.132,2.527-2.526,2.527c-1.394,0-2.525-1.131-2.525-2.527
	C208.517,41.679,209.648,40.546,211.042,40.546L211.042,40.546z"/>
<line fill="none" stroke="#000000" stroke-width="1.1019" stroke-miterlimit="10" x1="312.52" y1="26.854" x2="312.52" y2="92.231"/>
<polyline fill-rule="evenodd" clip-rule="evenodd" points="355.187,60.535 348.462,58.856 355.187,57.173 355.187,60.535 "/>
<polygon fill="none" stroke="#000000" stroke-width="0.8404" stroke-miterlimit="10" points="355.187,60.535 348.462,58.856 
	355.187,57.173 "/>
<line fill="none" stroke="#000000" stroke-width="0.6408" stroke-miterlimit="10" x1="351.462" y1="58.852" x2="371.633" y2="58.852"/>
<polyline fill-rule="evenodd" clip-rule="evenodd" points="365.723,57.173 372.446,58.854 365.723,60.535 365.723,57.173 "/>
<polygon fill="none" stroke="#000000" stroke-width="0.8404" stroke-miterlimit="10" points="365.723,57.173 372.446,58.854 
	365.723,60.535 "/>
<rect x="330.245" y="55.276" fill="none" stroke="#000000" stroke-width="0.4514" stroke-miterlimit="10" width="8.125" height="8.125"/>
<path d="M332.605,57.514c0.568,0,0.97-0.094,1.202-0.282c0.232-0.188,0.363-0.42,0.393-0.698h0.94v5.769h-1.139v-3.991h-1.396
	V57.514z"/>
<rect x="330.245" y="38.66" fill="none" stroke="#000000" stroke-width="0.4514" stroke-miterlimit="10" width="8.125" height="8.126"/>
<path d="M332.545,44.459c0.222-0.357,0.648-0.768,1.281-1.234c0.523-0.383,0.852-0.673,0.983-0.869
	c0.133-0.196,0.198-0.398,0.198-0.607c0-0.233-0.067-0.431-0.202-0.595c-0.132-0.167-0.332-0.25-0.599-0.25
	c-0.291,0-0.495,0.091-0.611,0.274s-0.175,0.451-0.175,0.805h-1.139v-0.167c0-0.502,0.158-0.939,0.473-1.309
	c0.317-0.37,0.789-0.556,1.416-0.556c0.55,0,1.018,0.156,1.4,0.468c0.384,0.31,0.575,0.754,0.575,1.333
	c0,0.394-0.095,0.738-0.285,1.032c-0.188,0.291-0.561,0.629-1.119,1.016c-0.61,0.423-0.975,0.726-1.091,0.908h2.495v1.012h-3.936
	C332.211,45.237,332.322,44.817,332.545,44.459z"/>
<path fill="none" stroke="#000000" stroke-width="0.4514" stroke-miterlimit="10" d="M388.812,76.215
	c0,2.242-1.818,4.062-4.063,4.062c-2.242,0-4.063-1.819-4.063-4.062c0-2.241,1.82-4.063,4.063-4.063
	C386.993,72.152,388.812,73.974,388.812,76.215L388.812,76.215z"/>
<path d="M383.715,77.345c0.021,0.662,0.299,0.992,0.833,0.992c0.257,0,0.465-0.079,0.623-0.238c0.159-0.158,0.238-0.385,0.238-0.678
	c0-0.286-0.102-0.494-0.306-0.623c-0.201-0.133-0.535-0.199-1.004-0.199v-0.809h0.183c0.632,0,0.948-0.252,0.948-0.754
	c0-0.225-0.066-0.407-0.198-0.547c-0.132-0.144-0.316-0.215-0.552-0.215c-0.519,0-0.78,0.31-0.785,0.928h-1.031
	c0-0.568,0.162-1.016,0.487-1.344c0.328-0.331,0.791-0.496,1.389-0.496c0.548,0,0.992,0.141,1.333,0.42
	c0.342,0.281,0.512,0.667,0.512,1.158c0,0.516-0.236,0.895-0.71,1.135c0.593,0.244,0.889,0.691,0.889,1.342
	c0,0.537-0.183,0.977-0.547,1.32c-0.363,0.342-0.85,0.512-1.46,0.512c-0.641,0-1.123-0.161-1.448-0.483
	c-0.325-0.325-0.503-0.799-0.532-1.421H383.715z"/>
<path fill="none" stroke="#000000" stroke-width="0.4514" stroke-linejoin="bevel" stroke-miterlimit="10" d="M338.37,76.216
	c0,2.242-1.82,4.063-4.063,4.063c-2.244,0-4.063-1.82-4.063-4.063s1.818-4.063,4.063-4.063
	C336.55,72.153,338.37,73.974,338.37,76.216L338.37,76.216z"/>
<path d="M332.638,77.619c0.222-0.357,0.648-0.769,1.281-1.234c0.523-0.383,0.852-0.673,0.983-0.869
	c0.133-0.195,0.198-0.397,0.198-0.606c0-0.233-0.067-0.431-0.202-0.595c-0.132-0.167-0.332-0.25-0.599-0.25
	c-0.291,0-0.495,0.091-0.611,0.273s-0.175,0.451-0.175,0.805h-1.139v-0.166c0-0.502,0.158-0.939,0.473-1.309
	c0.317-0.371,0.789-0.557,1.416-0.557c0.55,0,1.018,0.156,1.4,0.469c0.384,0.31,0.575,0.754,0.575,1.333
	c0,0.394-0.095,0.737-0.285,1.032c-0.188,0.291-0.561,0.629-1.119,1.016c-0.61,0.422-0.975,0.725-1.091,0.908h2.495v1.012h-3.936
	C332.304,78.396,332.415,77.976,332.638,77.619z"/>
<path fill="none" stroke="#000000" stroke-width="0.4514" stroke-miterlimit="10" d="M388.812,59.486
	c0,2.244-1.82,4.064-4.063,4.064s-4.063-1.82-4.063-4.064c0-2.241,1.82-4.061,4.063-4.061S388.812,57.245,388.812,59.486
	L388.812,59.486z"/>
<path d="M382.829,57.473c0.591,0,1.008-0.094,1.25-0.282s0.378-0.421,0.408-0.699h0.979v5.773h-1.185v-3.994h-1.452V57.473z"/>
<rect x="380.687" y="38.67" fill="none" stroke="#000000" stroke-width="0.4514" stroke-miterlimit="10" width="8.127" height="8.125"/>
<path d="M383.662,43.858c0.021,0.661,0.299,0.992,0.833,0.992c0.257,0,0.465-0.079,0.623-0.238c0.159-0.159,0.238-0.385,0.238-0.679
	c0-0.286-0.102-0.493-0.306-0.623c-0.201-0.132-0.535-0.199-1.004-0.199v-0.809h0.183c0.632,0,0.948-0.251,0.948-0.754
	c0-0.225-0.066-0.407-0.198-0.547c-0.132-0.143-0.316-0.214-0.552-0.214c-0.519,0-0.78,0.31-0.785,0.928h-1.031
	c0-0.568,0.162-1.017,0.487-1.345c0.328-0.331,0.791-0.496,1.389-0.496c0.548,0,0.992,0.141,1.333,0.421
	c0.342,0.28,0.512,0.667,0.512,1.158c0,0.516-0.236,0.894-0.71,1.135c0.593,0.243,0.889,0.69,0.889,1.341
	c0,0.537-0.183,0.978-0.547,1.321c-0.363,0.341-0.85,0.512-1.46,0.512c-0.641,0-1.123-0.162-1.448-0.484
	c-0.325-0.326-0.503-0.799-0.532-1.42H383.662z"/>
<line fill="none" stroke="#000000" stroke-width="0.56" stroke-miterlimit="10" x1="334.306" y1="46.814" x2="334.306" y2="55.148"/>
<line fill="none" stroke="#000000" stroke-width="0.56" stroke-miterlimit="10" x1="334.306" y1="63.648" x2="334.306" y2="71.982"/>
<line fill="none" stroke="#000000" stroke-width="0.56" stroke-miterlimit="10" x1="384.806" y1="46.981" x2="384.806" y2="55.314"/>
<line fill="none" stroke="#000000" stroke-width="0.56" stroke-miterlimit="10" x1="384.806" y1="63.814" x2="384.806" y2="72.148"/>
<path d="M420.784,52.094h9.383v2.016h-3.5v9.484h-2.383v-9.484h-3.5V52.094z"/>
<path d="M435.985,66.951h-1.654c-0.102-0.389-0.155-0.813-0.162-1.275l-0.01-0.537c-0.006-0.357-0.086-0.613-0.238-0.766
	c-0.153-0.154-0.465-0.23-0.934-0.23h-1.572v2.809h-1.488v-7.188h3.666c0.69,0,1.242,0.188,1.656,0.561
	c0.413,0.371,0.619,0.875,0.619,1.51c0,0.811-0.372,1.373-1.117,1.689c0.403,0.158,0.655,0.379,0.756,0.658
	c0.102,0.281,0.152,0.719,0.152,1.314v0.287c0,0.273,0.018,0.492,0.053,0.654c0.039,0.16,0.131,0.266,0.273,0.318V66.951z
	 M434.354,61.98c0-0.639-0.352-0.957-1.055-0.957h-1.885v1.918h1.768C433.964,62.941,434.354,62.621,434.354,61.98z"/>
<path d="M439.594,61.304c0.675-0.014,1.147-0.135,1.419-0.363c0.271-0.228,0.422-0.508,0.45-0.838l1.116-0.023l0.139,6.85
	l-1.352,0.027l-0.096-4.738l-1.657,0.033L439.594,61.304z"/>
<path d="M444.572,60.7l0.122-0.003c0.671-0.014,1.029-0.246,1.072-0.7l0.82-0.017l0.085,4.154l-0.976,0.02l-0.059-2.873
	l-1.054,0.021L444.572,60.7z M445.769,67.008l3.998-7.073l0.759-0.016l-3.999,7.073L445.769,67.008z M448.635,65.216l1.626-2.559
	l1.036-0.021l0.052,2.586l0.485-0.01l0.014,0.659l-0.485,0.01l0.019,0.891l-0.914,0.019l-0.019-0.891l-1.799,0.037L448.635,65.216z
	 M449.353,65.263l1.082-0.022l-0.034-1.687L449.353,65.263z"/>
</svg>
