<?xml version="1.0" standalone="no"?>
<!DOCTYPE svg PUBLIC "-//W3C//DTD SVG 1.1//EN"
"http://www.w3.org/Graphics/SVG/1.1/DTD/svg11.dtd">
<!-- Creator: fig2dev Version 3.2 Patchlevel 5d -->
<!-- CreationDate: Thu Feb 21 11:03:16 2013 -->
<!-- Magnification: 1.050 -->
<svg	xmlns="http://www.w3.org/2000/svg"
	xmlns:xlink="http://www.w3.org/1999/xlink"
	viewBox="-23 -23 6140 3825">
<g style="stroke-width:.025in; fill:none">
<!-- Text -->
<text xml:space="preserve" x="377" y="1086" fill="#000000"  font-family="Helvetica" font-style="normal" font-weight="bold" font-size="227" text-anchor="middle">S</text>
<!-- Text -->
<text xml:space="preserve" x="3921" y="3259" fill="#000000"  font-family="Helvetica" font-style="normal" font-weight="bold" font-size="227" text-anchor="middle">Chase</text>
<!-- Circle -->
<circle cx="3543" cy="2834" r="94"
 style="stroke:#000000;stroke-width:16;"/>
<!-- Text -->
<text xml:space="preserve" x="3543" y="2881" fill="#000000"  font-family="Helvetica" font-style="normal" font-weight="bold" font-size="114" text-anchor="middle">3</text>
<!-- Line -->
<polyline points="3637,2834
3685,2834
" style="stroke:#000000;stroke-width:16;
stroke-linejoin:miter; stroke-linecap:round;
"/>
<!-- Circle -->
<circle cx="3921" cy="2834" r="94"
 style="stroke:#000000;stroke-width:16;"/>
<!-- Text -->
<text xml:space="preserve" x="3921" y="2881" fill="#000000"  font-family="Helvetica" font-style="normal" font-weight="bold" font-size="114" text-anchor="middle">1</text>
<!-- Line -->
<polyline points="4015,2834
4062,2834
" style="stroke:#000000;stroke-width:16;
stroke-linejoin:miter; stroke-linecap:round;
"/>
<!-- Circle -->
<circle cx="4299" cy="2834" r="94"
 style="stroke:#000000;stroke-width:16;"/>
<!-- Text -->
<text xml:space="preserve" x="4299" y="2881" fill="#000000"  font-family="Helvetica" font-style="normal" font-weight="bold" font-size="114" text-anchor="middle">2</text>
<!-- Line -->
<polyline points="4299,2976
4299,2929
" style="stroke:#000000;stroke-width:16;
stroke-linejoin:miter; stroke-linecap:round;
"/>
<!-- Line: box -->
<rect x="4204" y="3401" width="188" height="188" rx="0" 
style="stroke:#000000;stroke-width:16;
stroke-linejoin:miter; stroke-linecap:butt;
"/>
<!-- Text -->
<text xml:space="preserve" x="4299" y="3543" fill="#000000"  font-family="Helvetica" font-style="normal" font-weight="bold" font-size="114" text-anchor="middle">2</text>
<!-- Line -->
<polyline points="4157,3496
4204,3496
" style="stroke:#000000;stroke-width:16;
stroke-linejoin:miter; stroke-linecap:round;
"/>
<!-- Line: box -->
<rect x="3826" y="3401" width="188" height="188" rx="0" 
style="stroke:#000000;stroke-width:16;
stroke-linejoin:miter; stroke-linecap:butt;
"/>
<!-- Text -->
<text xml:space="preserve" x="3921" y="3543" fill="#000000"  font-family="Helvetica" font-style="normal" font-weight="bold" font-size="114" text-anchor="middle">1</text>
<!-- Line -->
<polyline points="3779,3496
3826,3496
" style="stroke:#000000;stroke-width:16;
stroke-linejoin:miter; stroke-linecap:round;
"/>
<!-- Line: box -->
<rect x="3448" y="3401" width="188" height="188" rx="0" 
style="stroke:#000000;stroke-width:16;
stroke-linejoin:miter; stroke-linecap:butt;
"/>
<!-- Text -->
<text xml:space="preserve" x="3543" y="3543" fill="#000000"  font-family="Helvetica" font-style="normal" font-weight="bold" font-size="114" text-anchor="middle">3</text>
<!-- Line -->
<polyline points="3543,3354
3543,3401
" style="stroke:#000000;stroke-width:16;
stroke-linejoin:miter; stroke-linecap:round;
"/>
<!-- Text -->
<text xml:space="preserve" x="4960" y="3259" fill="#000000"  font-family="Helvetica" font-style="normal" font-weight="bold" font-size="227" text-anchor="middle">T</text>
<!-- Text -->
<text xml:space="preserve" x="5102" y="3307" fill="#000000"  font-family="Helvetica" font-style="normal" font-weight="bold" font-size="152" text-anchor="middle">R</text>
<!-- Line -->
<polyline points="4866,2881
4818,2881
" style="stroke:#000000;stroke-width:8;
stroke-linejoin:miter; stroke-linecap:butt;
"/>
<!-- Line -->
<polyline points="5196,2881
5149,2881
" style="stroke:#000000;stroke-width:8;
stroke-linejoin:miter; stroke-linecap:butt;
"/>
<!-- Text -->
<text xml:space="preserve" x="5007" y="2929" fill="#000000"  font-family="Helvetica" font-style="normal" font-weight="bold" font-size="114" text-anchor="middle">all</text>
<!-- Circle -->
<circle cx="850" cy="1275" r="94"
 style="stroke:#000000;stroke-width:16;"/>
<!-- Text -->
<text xml:space="preserve" x="850" y="1322" fill="#000000"  font-family="Helvetica" font-style="normal" font-weight="bold" font-size="114" text-anchor="middle">1</text>
<!-- Line: box -->
<rect x="755" y="661" width="188" height="188" rx="0" 
style="stroke:#000000;stroke-width:16;
stroke-linejoin:miter; stroke-linecap:butt;
"/>
<!-- Text -->
<text xml:space="preserve" x="850" y="803" fill="#000000"  font-family="Helvetica" font-style="normal" font-weight="bold" font-size="114" text-anchor="middle">1</text>
<!-- Circle -->
<circle cx="1606" cy="1275" r="94"
 style="stroke:#000000;stroke-width:16;"/>
<!-- Text -->
<text xml:space="preserve" x="1606" y="1322" fill="#000000"  font-family="Helvetica" font-style="normal" font-weight="bold" font-size="114" text-anchor="middle">3</text>
<!-- Circle -->
<circle cx="1228" cy="1275" r="94"
 style="stroke:#000000;stroke-width:16;"/>
<!-- Text -->
<text xml:space="preserve" x="1228" y="1322" fill="#000000"  font-family="Helvetica" font-style="normal" font-weight="bold" font-size="114" text-anchor="middle">2</text>
<!-- Line: box -->
<rect x="1133" y="661" width="188" height="188" rx="0" 
style="stroke:#000000;stroke-width:16;
stroke-linejoin:miter; stroke-linecap:butt;
"/>
<!-- Text -->
<text xml:space="preserve" x="1228" y="803" fill="#000000"  font-family="Helvetica" font-style="normal" font-weight="bold" font-size="114" text-anchor="middle">2</text>
<!-- Line: box -->
<rect x="1511" y="661" width="188" height="188" rx="0" 
style="stroke:#000000;stroke-width:16;
stroke-linejoin:miter; stroke-linecap:butt;
"/>
<!-- Text -->
<text xml:space="preserve" x="1606" y="803" fill="#000000"  font-family="Helvetica" font-style="normal" font-weight="bold" font-size="114" text-anchor="middle">3</text>
<!-- Line -->
<polyline points="850,661
850,658
849,653
848,643
847,630
846,616
847,602
849,588
853,576
858,565
867,557
877,549
890,541
906,535
918,531
932,527
948,522
964,519
983,515
1003,512
1025,509
1048,506
1072,502
1097,500
1123,497
1148,495
1174,494
1201,492
1226,491
1251,490
1276,489
1299,488
1323,488
1346,488
1371,488
1396,489
1421,489
1446,491
1471,492
1497,494
1522,497
1546,501
1570,506
1593,511
1615,516
1636,522
1656,530
1674,537
1690,545
1706,554
1719,564
1732,575
1743,585
1754,598
1763,612
1773,625
1781,641
1788,658
1795,675
1800,692
1804,710
1807,728
1811,747
1812,765
1812,782
1812,798
1811,814
1808,830
1806,845
1803,858
1798,874
1791,890
1783,906
1775,920
1764,935
1753,949
1740,961
1727,974
1712,985
1697,996
1682,1005
1668,1015
1653,1023
1637,1032
1622,1039
1605,1046
1588,1054
1570,1061
1552,1067
1533,1074
1514,1080
1497,1085
1479,1088
1462,1091
1447,1093
1433,1095
1420,1095
1409,1095
1401,1092
1394,1090
1386,1087
1380,1084
1374,1080
1369,1076
1363,1070
1359,1064
1356,1058
1353,1051
1351,1045
1350,1038
1349,1032
1349,1025
1349,1018
1350,1012
1352,1005
1354,1000
1359,988
1366,978
1377,966
1391,954
1407,940
1426,924
1413,933
" style="stroke:#000000;stroke-width:16;
stroke-linejoin:bevel; stroke-linecap:butt;
"/>
<!-- Arrowhead on XXXpoint 1426 924 - 1489 878-->
<polygon points="1449 945
1482 883
1412 895
1449 945

" style="stroke:#000000;stroke-width:8;stroke-miterlimit:8;
fill:#000000;"/>
<!-- Line -->
<polyline points="850,661
850,657
849,649
848,637
847,620
846,601
847,582
849,564
853,549
858,535
867,523
877,513
890,503
906,496
918,490
932,486
948,480
964,476
983,472
1004,468
1026,464
1049,460
1074,457
1099,454
1125,451
1152,449
1180,447
1206,445
1233,444
1259,443
1286,441
1312,440
1337,440
1362,440
1386,440
1412,440
1437,441
1462,443
1488,445
1513,447
1540,450
1565,454
1590,458
1615,464
1639,470
1662,477
1683,485
1704,494
1723,503
1740,514
1756,525
1771,538
1783,552
1795,566
1805,582
1814,599
1822,618
1829,638
1836,660
1841,683
1845,707
1848,732
1851,759
1854,786
1855,813
1856,840
1856,868
1856,894
1856,920
1855,945
1854,971
1853,994
1851,1017
1850,1039
1848,1065
1847,1091
1846,1118
1844,1143
1843,1167
1841,1192
1838,1215
1835,1238
1830,1260
1825,1280
1820,1299
1814,1316
1806,1332
1798,1345
1790,1358
1779,1370
1770,1378
1760,1385
1749,1393
1737,1399
1724,1405
1711,1411
1696,1415
1681,1419
1666,1421
1650,1423
1634,1424
1617,1423
1602,1422
1586,1420
1570,1417
1555,1413
1542,1407
1528,1401
1516,1394
1504,1385
1489,1374
1475,1360
1461,1345
1448,1329
1436,1311
1423,1291
1411,1271
1399,1250
1387,1230
1377,1209
1366,1189
1357,1170
1348,1153
1339,1138
1331,1123
1322,1110
1313,1097
1303,1085
1294,1076
1283,1067
1273,1060
1264,1055
1253,1050
1243,1048
1232,1047
1223,1047
1213,1047
1205,1049
1196,1051
1189,1055
1177,1060
1167,1065
1155,1074
1143,1083
1129,1095
1113,1108
1131,1090
" style="stroke:#000000;stroke-width:16;
stroke-linejoin:bevel; stroke-linecap:butt;
stroke-dasharray:20 20;"/>
<!-- Arrowhead on XXXpoint 1113 1108 - 1062 1154-->
<polygon points="1093 1082
1068 1148
1135 1129
1093 1082

" style="stroke:#000000;stroke-width:8;stroke-miterlimit:8;
fill:#000000;"/>
<!-- Line -->
<polyline points="850,850
850,1181
" style="stroke:#000000;stroke-width:16;
stroke-linejoin:bevel; stroke-linecap:butt;
stroke-dasharray:20 20;"/>
<!-- Line: box -->
<rect x="4110" y="472" width="188" height="188" rx="0" 
style="stroke:#000000;stroke-width:16;
stroke-linejoin:miter; stroke-linecap:butt;
"/>
<!-- Text -->
<text xml:space="preserve" x="4204" y="614" fill="#000000"  font-family="Helvetica" font-style="normal" font-weight="bold" font-size="114" text-anchor="middle">2</text>
<!-- Circle -->
<circle cx="4204" cy="1228" r="94"
 style="stroke:#000000;stroke-width:16;"/>
<!-- Text -->
<text xml:space="preserve" x="4204" y="1275" fill="#000000"  font-family="Helvetica" font-style="normal" font-weight="bold" font-size="114" text-anchor="middle">2</text>
<!-- Line -->
<polyline points="4251,1133
4251,1132
4251,1129
4253,1120
4254,1106
4255,1088
4257,1070
4260,1053
4263,1037
4266,1022
4270,1008
4277,996
4283,984
4290,971
4300,958
4310,944
4322,930
4334,916
4348,902
4362,890
4375,878
4389,869
4402,860
4413,854
4425,850
4433,848
4440,847
4448,846
4455,847
4462,848
4469,850
4475,853
4481,856
4487,860
4491,866
4495,870
4498,875
4500,880
4502,887
4503,892
4503,897
4502,906
4499,915
4494,925
4487,937
4476,951
4465,964
4481,944
" style="stroke:#000000;stroke-width:16;
stroke-linejoin:bevel; stroke-linecap:butt;
"/>
<!-- Arrowhead on XXXpoint 4465 964 - 4419 1015-->
<polygon points="4444 940
4426 1008
4491 982
4444 940

" style="stroke:#000000;stroke-width:8;stroke-miterlimit:8;
fill:#000000;"/>
<!-- Line: box -->
<rect x="4771" y="472" width="188" height="188" rx="0" 
style="stroke:#000000;stroke-width:16;
stroke-linejoin:miter; stroke-linecap:butt;
"/>
<!-- Text -->
<text xml:space="preserve" x="4866" y="614" fill="#000000"  font-family="Helvetica" font-style="normal" font-weight="bold" font-size="114" text-anchor="middle">3</text>
<!-- Circle -->
<circle cx="4866" cy="1228" r="94"
 style="stroke:#000000;stroke-width:16;"/>
<!-- Text -->
<text xml:space="preserve" x="4866" y="1275" fill="#000000"  font-family="Helvetica" font-style="normal" font-weight="bold" font-size="114" text-anchor="middle">3</text>
<!-- Line -->
<polyline points="4818,661
4818,662
4818,665
4817,675
4816,688
4815,706
4813,724
4810,742
4807,758
4804,772
4800,786
4793,798
4787,811
4780,824
4770,836
4760,850
4748,865
4735,878
4722,892
4708,904
4695,916
4681,925
4668,934
4657,940
4645,944
4637,946
4629,948
4622,949
4615,948
4607,946
4601,944
4595,941
4588,938
4583,934
4579,929
4575,924
4572,919
4570,914
4567,908
4566,902
4566,897
4567,889
4571,879
4576,869
4583,857
4594,844
4605,830
4587,849
" style="stroke:#000000;stroke-width:16;
stroke-linejoin:bevel; stroke-linecap:butt;
stroke-dasharray:20 20;"/>
<!-- Arrowhead on XXXpoint 4605 830 - 4649 779-->
<polygon points="4625 854
4643 786
4578 813
4625 854

" style="stroke:#000000;stroke-width:8;stroke-miterlimit:8;
fill:#000000;"/>
<!-- Line: box -->
<rect x="3543" y="897" width="188" height="188" rx="0" 
style="stroke:#000000;stroke-width:16;
stroke-linejoin:miter; stroke-linecap:butt;
"/>
<!-- Text -->
<text xml:space="preserve" x="3637" y="1039" fill="#000000"  font-family="Helvetica" font-style="normal" font-weight="bold" font-size="114" text-anchor="middle">1</text>
<!-- Circle -->
<circle cx="3826" cy="803" r="94"
 style="stroke:#000000;stroke-width:16;"/>
<!-- Text -->
<text xml:space="preserve" x="3826" y="850" fill="#000000"  font-family="Helvetica" font-style="normal" font-weight="bold" font-size="114" text-anchor="middle">1</text>
<!-- Line -->
<polyline points="3543,1086
3541,1088
3535,1091
3528,1096
3521,1100
3513,1103
3506,1104
3500,1103
3495,1100
3488,1095
3483,1089
3478,1082
3474,1075
3468,1065
3463,1055
3459,1043
3455,1030
3451,1016
3449,1001
3448,985
3448,970
3449,954
3453,937
3457,921
3461,906
3467,890
3474,873
3482,856
3492,837
3503,819
3514,801
3528,782
3542,763
3556,744
3571,726
3586,709
3601,693
3615,679
3630,666
3646,654
3660,641
3676,630
3692,620
3710,609
3729,599
3750,588
3774,578
3799,567
3825,556
3850,545
3875,537
3895,529
3862,539
" style="stroke:#000000;stroke-width:16;
stroke-linejoin:bevel; stroke-linecap:butt;
stroke-dasharray:20 20;"/>
<!-- Arrowhead on XXXpoint 3895 529 - 3950 508-->
<polygon points="3893 562
3942 511
3871 503
3893 562

" style="stroke:#000000;stroke-width:8;stroke-miterlimit:8;
fill:#000000;"/>
<!-- Line -->
<polyline points="3921,708
3923,706
3928,703
3935,699
3943,695
3950,691
3958,690
3964,691
3969,695
3976,701
3981,705
3986,712
3990,720
3995,729
4001,740
4005,751
4009,764
4012,779
4014,793
4015,809
4015,825
4014,840
4011,857
4008,874
4003,889
3996,904
3990,921
3982,938
3971,957
3961,975
3949,994
3935,1013
3922,1032
3907,1050
3892,1068
3878,1085
3863,1101
3848,1116
3834,1128
3819,1142
3803,1153
3787,1164
3772,1174
3754,1185
3735,1195
3714,1206
3690,1216
3665,1227
3638,1238
3613,1249
3589,1257
3569,1266
3601,1254
" style="stroke:#000000;stroke-width:16;
stroke-linejoin:bevel; stroke-linecap:butt;
"/>
<!-- Arrowhead on XXXpoint 3569 1266 - 3512 1286-->
<polygon points="3569 1231
3521 1282
3590 1291
3569 1231

" style="stroke:#000000;stroke-width:8;stroke-miterlimit:8;
fill:#000000;"/>
<!-- Line: box -->
<rect x="2598" y="897" width="188" height="188" rx="0" 
style="stroke:#000000;stroke-width:16;
stroke-linejoin:miter; stroke-linecap:butt;
"/>
<!-- Text -->
<text xml:space="preserve" x="2692" y="1039" fill="#000000"  font-family="Helvetica" font-style="normal" font-weight="bold" font-size="114" text-anchor="middle">1</text>
<!-- Line: box -->
<rect x="2314" y="472" width="188" height="188" rx="0" 
style="stroke:#000000;stroke-width:16;
stroke-linejoin:miter; stroke-linecap:butt;
"/>
<!-- Text -->
<text xml:space="preserve" x="2409" y="614" fill="#000000"  font-family="Helvetica" font-style="normal" font-weight="bold" font-size="114" text-anchor="middle">2</text>
<!-- Circle -->
<circle cx="2409" cy="1228" r="94"
 style="stroke:#000000;stroke-width:16;"/>
<!-- Text -->
<text xml:space="preserve" x="2409" y="1275" fill="#000000"  font-family="Helvetica" font-style="normal" font-weight="bold" font-size="114" text-anchor="middle">2</text>
<!-- Text -->
<text xml:space="preserve" x="2456" y="1086" fill="#000000"  font-family="Helvetica" font-style="normal" font-weight="bold" font-size="227" text-anchor="middle">S</text>
<!-- Circle -->
<circle cx="2881" cy="803" r="94"
 style="stroke:#000000;stroke-width:16;"/>
<!-- Text -->
<text xml:space="preserve" x="2881" y="850" fill="#000000"  font-family="Helvetica" font-style="normal" font-weight="bold" font-size="114" text-anchor="middle">1</text>
<!-- Line: box -->
<rect x="3070" y="472" width="188" height="188" rx="0" 
style="stroke:#000000;stroke-width:16;
stroke-linejoin:miter; stroke-linecap:butt;
"/>
<!-- Text -->
<text xml:space="preserve" x="3165" y="614" fill="#000000"  font-family="Helvetica" font-style="normal" font-weight="bold" font-size="114" text-anchor="middle">3</text>
<!-- Circle -->
<circle cx="3165" cy="1228" r="94"
 style="stroke:#000000;stroke-width:16;"/>
<!-- Text -->
<text xml:space="preserve" x="3165" y="1275" fill="#000000"  font-family="Helvetica" font-style="normal" font-weight="bold" font-size="114" text-anchor="middle">3</text>
<!-- Text -->
<text xml:space="preserve" x="3118" y="944" fill="#000000"  font-family="Helvetica" font-style="normal" font-weight="bold" font-size="227" text-anchor="middle">S</text>
<!-- Line -->
<polyline points="4960,1370
4959,1372
4958,1375
4956,1381
4952,1388
4945,1397
4938,1405
4930,1413
4919,1419
4908,1424
4893,1428
4877,1430
4857,1433
4834,1433
4816,1433
4796,1432
4774,1430
4751,1429
4726,1428
4699,1426
4671,1424
4642,1422
4613,1419
4582,1417
4552,1415
4522,1412
4493,1409
4466,1407
4438,1405
4413,1404
4390,1403
4368,1402
4348,1401
4330,1401
4307,1401
4287,1403
4271,1405
4257,1409
4245,1415
4235,1421
4226,1428
4219,1437
4213,1445
4208,1453
4206,1459
4205,1462
4204,1464
" style="stroke:#000000;stroke-width:16;
stroke-linejoin:bevel; stroke-linecap:butt;
"/>
<!-- Line -->
<polyline points="3448,1370
3449,1372
3450,1375
3453,1381
3457,1388
3463,1397
3470,1405
3479,1413
3489,1419
3501,1424
3516,1428
3531,1430
3551,1433
3574,1433
3592,1433
3612,1432
3634,1430
3657,1429
3682,1428
3710,1426
3737,1424
3766,1422
3796,1419
3826,1417
3857,1415
3886,1412
3916,1409
3943,1407
3970,1405
3995,1404
4018,1403
4040,1402
4060,1401
4078,1401
4101,1401
4121,1403
4137,1405
4152,1409
4163,1415
4174,1421
4182,1428
4190,1437
4196,1445
4200,1453
4202,1459
4203,1462
4204,1464
" style="stroke:#000000;stroke-width:16;
stroke-linejoin:bevel; stroke-linecap:butt;
"/>
<!-- Line -->
<polyline points="5196,377
5196,1511
" style="stroke:#000000;stroke-width:16;
stroke-linejoin:miter; stroke-linecap:butt;
stroke-dasharray:62 62;"/>
<!-- Line: box -->
<rect x="4960" y="1606" width="188" height="188" rx="0" 
style="stroke:#000000;stroke-width:16;
stroke-linejoin:miter; stroke-linecap:butt;
"/>
<!-- Text -->
<text xml:space="preserve" x="5055" y="1748" fill="#000000"  font-family="Helvetica" font-style="normal" font-weight="bold" font-size="114" text-anchor="middle">2</text>
<!-- Line: box -->
<rect x="4960" y="2267" width="188" height="188" rx="0" 
style="stroke:#000000;stroke-width:16;
stroke-linejoin:miter; stroke-linecap:butt;
"/>
<!-- Text -->
<text xml:space="preserve" x="5055" y="2409" fill="#000000"  font-family="Helvetica" font-style="normal" font-weight="bold" font-size="114" text-anchor="middle">3</text>
<!-- Circle -->
<circle cx="5716" cy="2362" r="94"
 style="stroke:#000000;stroke-width:16;"/>
<!-- Text -->
<text xml:space="preserve" x="5716" y="2409" fill="#000000"  font-family="Helvetica" font-style="normal" font-weight="bold" font-size="114" text-anchor="middle">3</text>
<!-- Circle -->
<circle cx="5716" cy="1700" r="94"
 style="stroke:#000000;stroke-width:16;"/>
<!-- Text -->
<text xml:space="preserve" x="5716" y="1748" fill="#000000"  font-family="Helvetica" font-style="normal" font-weight="bold" font-size="114" text-anchor="middle">2</text>
<!-- Line -->
<polyline points="5149,1748
5150,1748
5153,1748
5163,1749
5176,1750
5194,1751
5212,1753
5230,1756
5246,1759
5260,1762
5274,1766
5287,1773
5299,1779
5312,1786
5324,1796
5338,1806
5353,1818
5366,1830
5380,1844
5393,1858
5404,1871
5414,1885
5422,1898
5428,1909
5433,1921
5435,1929
5436,1937
5437,1944
5436,1951
5435,1959
5433,1965
5429,1971
5426,1977
5422,1983
5417,1987
5413,1991
5407,1994
5402,1996
5396,1998
5391,2000
5385,2000
5377,1998
5367,1995
5357,1990
5345,1983
5332,1972
5318,1961
5337,1977
" style="stroke:#000000;stroke-width:16;
stroke-linejoin:bevel; stroke-linecap:butt;
stroke-dasharray:20 20;"/>
<!-- Arrowhead on XXXpoint 5318 1961 - 5267 1916-->
<polygon points="5341 1940
5274 1922
5300 1987
5341 1940

" style="stroke:#000000;stroke-width:8;stroke-miterlimit:8;
fill:#000000;"/>
<!-- Line -->
<polyline points="5622,2314
5620,2314
5617,2314
5608,2313
5594,2312
5576,2311
5559,2309
5541,2306
5525,2303
5510,2300
5497,2296
5484,2289
5472,2283
5459,2276
5446,2266
5433,2256
5418,2244
5404,2232
5391,2218
5378,2204
5366,2191
5357,2177
5349,2164
5342,2153
5338,2141
5336,2133
5335,2125
5334,2118
5335,2111
5336,2103
5338,2097
5341,2091
5344,2085
5349,2079
5354,2075
5358,2071
5363,2068
5369,2066
5375,2064
5380,2062
5385,2062
5394,2064
5403,2067
5414,2072
5425,2079
5439,2090
5453,2101
5433,2083
" style="stroke:#000000;stroke-width:16;
stroke-linejoin:bevel; stroke-linecap:butt;
"/>
<!-- Arrowhead on XXXpoint 5453 2101 - 5503 2145-->
<polygon points="5427 2121
5496 2139
5468 2073
5427 2121

" style="stroke:#000000;stroke-width:8;stroke-miterlimit:8;
fill:#000000;"/>
<!-- Line: box -->
<rect x="4488" y="2031" width="188" height="188" rx="0" 
style="stroke:#000000;stroke-width:16;
stroke-linejoin:miter; stroke-linecap:butt;
"/>
<!-- Text -->
<text xml:space="preserve" x="4582" y="2173" fill="#000000"  font-family="Helvetica" font-style="normal" font-weight="bold" font-size="114" text-anchor="middle">1</text>
<!-- Circle -->
<circle cx="4393" cy="1937" r="94"
 style="stroke:#000000;stroke-width:16;"/>
<!-- Text -->
<text xml:space="preserve" x="4393" y="1984" fill="#000000"  font-family="Helvetica" font-style="normal" font-weight="bold" font-size="114" text-anchor="middle">1</text>
<!-- Line -->
<polyline points="4677,2220
4679,2222
4682,2227
4686,2235
4690,2242
4693,2249
4695,2257
4693,2263
4690,2268
4685,2276
4680,2280
4672,2285
4665,2289
4656,2295
4645,2300
4633,2304
4620,2308
4605,2311
4590,2313
4573,2314
4557,2314
4539,2313
4521,2310
4503,2307
4489,2303
4473,2298
4457,2291
4440,2284
4423,2277
4405,2267
4387,2257
4368,2246
4349,2234
4331,2221
4312,2208
4296,2195
4279,2180
4263,2166
4249,2153
4236,2138
4223,2124
4213,2110
4200,2093
4190,2076
4180,2058
4172,2038
4163,2016
4155,1992
4148,1965
4140,1937
4133,1906
4125,1877
4120,1848
4116,1826
4121,1856
" style="stroke:#000000;stroke-width:16;
stroke-linejoin:bevel; stroke-linecap:butt;
stroke-dasharray:20 20;"/>
<!-- Arrowhead on XXXpoint 4116 1826 - 4103 1763-->
<polygon points="4149 1827
4106 1773
4087 1840
4149 1827

" style="stroke:#000000;stroke-width:8;stroke-miterlimit:8;
fill:#000000;"/>
<!-- Line -->
<polyline points="4299,1842
4297,1840
4293,1835
4289,1827
4285,1820
4282,1813
4281,1805
4282,1799
4285,1794
4291,1787
4296,1782
4303,1777
4310,1773
4320,1767
4330,1762
4343,1758
4355,1754
4370,1751
4386,1749
4403,1748
4418,1748
4436,1749
4454,1752
4472,1756
4487,1759
4502,1764
4518,1771
4535,1778
4553,1785
4571,1795
4588,1805
4607,1816
4626,1828
4644,1841
4663,1854
4680,1867
4697,1882
4712,1896
4726,1909
4740,1924
4752,1938
4764,1952
4775,1969
4786,1986
4795,2004
4804,2024
4812,2046
4820,2070
4828,2097
4835,2125
4843,2156
4850,2185
4855,2214
4859,2236
4853,2205
" style="stroke:#000000;stroke-width:16;
stroke-linejoin:bevel; stroke-linecap:butt;
"/>
<!-- Arrowhead on XXXpoint 4859 2236 - 4871 2298-->
<polygon points="4826 2232
4869 2288
4888 2220
4826 2232

" style="stroke:#000000;stroke-width:8;stroke-miterlimit:8;
fill:#000000;"/>
<!-- Line: box -->
<rect x="3496" y="2031" width="188" height="188" rx="0" 
style="stroke:#000000;stroke-width:16;
stroke-linejoin:miter; stroke-linecap:butt;
"/>
<!-- Text -->
<text xml:space="preserve" x="3590" y="2173" fill="#000000"  font-family="Helvetica" font-style="normal" font-weight="bold" font-size="114" text-anchor="middle">1</text>
<!-- Circle -->
<circle cx="3401" cy="1937" r="94"
 style="stroke:#000000;stroke-width:16;"/>
<!-- Text -->
<text xml:space="preserve" x="3401" y="1984" fill="#000000"  font-family="Helvetica" font-style="normal" font-weight="bold" font-size="114" text-anchor="middle">1</text>
<!-- Line: box -->
<rect x="3070" y="1606" width="188" height="188" rx="0" 
style="stroke:#000000;stroke-width:16;
stroke-linejoin:miter; stroke-linecap:butt;
"/>
<!-- Text -->
<text xml:space="preserve" x="3165" y="1748" fill="#000000"  font-family="Helvetica" font-style="normal" font-weight="bold" font-size="114" text-anchor="middle">2</text>
<!-- Line: box -->
<rect x="3070" y="2267" width="188" height="188" rx="0" 
style="stroke:#000000;stroke-width:16;
stroke-linejoin:miter; stroke-linecap:butt;
"/>
<!-- Text -->
<text xml:space="preserve" x="3165" y="2409" fill="#000000"  font-family="Helvetica" font-style="normal" font-weight="bold" font-size="114" text-anchor="middle">3</text>
<!-- Circle -->
<circle cx="3826" cy="1700" r="94"
 style="stroke:#000000;stroke-width:16;"/>
<!-- Text -->
<text xml:space="preserve" x="3826" y="1748" fill="#000000"  font-family="Helvetica" font-style="normal" font-weight="bold" font-size="114" text-anchor="middle">2</text>
<!-- Circle -->
<circle cx="3826" cy="2362" r="94"
 style="stroke:#000000;stroke-width:16;"/>
<!-- Text -->
<text xml:space="preserve" x="3826" y="2409" fill="#000000"  font-family="Helvetica" font-style="normal" font-weight="bold" font-size="114" text-anchor="middle">3</text>
<!-- Text -->
<text xml:space="preserve" x="3165" y="2078" fill="#000000"  font-family="Helvetica" font-style="normal" font-weight="bold" font-size="227" text-anchor="middle">S</text>
<!-- Text -->
<text xml:space="preserve" x="3826" y="2220" fill="#000000"  font-family="Helvetica" font-style="normal" font-weight="bold" font-size="227" text-anchor="middle">S</text>
<!-- Line -->
<polyline points="5811,2503
5811,2504
5809,2508
5807,2512
5804,2517
5799,2524
5794,2532
5786,2539
5778,2545
5767,2552
5757,2556
5743,2560
5729,2563
5712,2565
5692,2566
5669,2566
5650,2566
5630,2565
5608,2565
5585,2564
5560,2562
5533,2561
5506,2559
5477,2557
5446,2555
5416,2553
5385,2551
5355,2549
5324,2546
5294,2544
5265,2542
5237,2540
5211,2539
5186,2537
5163,2536
5141,2536
5121,2535
5102,2535
5079,2535
5059,2536
5042,2538
5027,2541
5014,2545
5003,2550
4993,2556
4984,2562
4977,2570
4972,2577
4966,2584
4963,2590
4961,2594
4960,2597
4960,2598
" style="stroke:#000000;stroke-width:16;
stroke-linejoin:bevel; stroke-linecap:butt;
"/>
<!-- Line -->
<polyline points="4110,2503
4110,2504
4111,2508
4113,2512
4116,2517
4121,2524
4127,2532
4134,2539
4142,2545
4153,2552
4163,2556
4177,2560
4192,2563
4208,2565
4228,2566
4251,2566
4270,2566
4290,2565
4312,2565
4335,2564
4361,2562
4387,2561
4414,2559
4444,2557
4474,2555
4504,2553
4535,2551
4565,2549
4596,2546
4626,2544
4656,2542
4683,2540
4709,2539
4734,2537
4758,2536
4780,2536
4800,2535
4818,2535
4841,2535
4861,2536
4878,2538
4893,2541
4907,2545
4917,2550
4928,2556
4936,2562
4943,2570
4949,2577
4954,2584
4957,2590
4959,2594
4960,2597
4960,2598
" style="stroke:#000000;stroke-width:16;
stroke-linejoin:bevel; stroke-linecap:butt;
"/>
<!-- Line -->
<polyline points="5952,1511
5952,2645
" style="stroke:#000000;stroke-width:16;
stroke-linejoin:miter; stroke-linecap:butt;
stroke-dasharray:62 62;"/>
<!-- Line: box -->
<rect x="1511" y="1842" width="188" height="188" rx="0" 
style="stroke:#000000;stroke-width:16;
stroke-linejoin:miter; stroke-linecap:butt;
"/>
<!-- Text -->
<text xml:space="preserve" x="1606" y="1984" fill="#000000"  font-family="Helvetica" font-style="normal" font-weight="bold" font-size="114" text-anchor="middle">3</text>
<!-- Circle -->
<circle cx="1417" cy="2125" r="94"
 style="stroke:#000000;stroke-width:16;"/>
<!-- Text -->
<text xml:space="preserve" x="1417" y="2173" fill="#000000"  font-family="Helvetica" font-style="normal" font-weight="bold" font-size="114" text-anchor="middle">2</text>
<!-- Line -->
<polyline points="1322,2220
1320,2222
1315,2225
1308,2229
1300,2234
1293,2237
1286,2238
1279,2237
1274,2234
1268,2228
1262,2223
1257,2216
1253,2208
1248,2199
1243,2188
1238,2177
1234,2164
1231,2150
1229,2135
1228,2119
1228,2103
1229,2088
1232,2071
1236,2055
1240,2039
1247,2024
1253,2007
1261,1990
1272,1971
1282,1953
1294,1934
1308,1916
1321,1897
1336,1878
1351,1860
1365,1843
1380,1827
1395,1813
1409,1800
1425,1787
1440,1775
1456,1764
1471,1754
1489,1743
1508,1733
1529,1722
1553,1712
1579,1701
1605,1690
1630,1679
1654,1671
1674,1662
1641,1673
" style="stroke:#000000;stroke-width:16;
stroke-linejoin:bevel; stroke-linecap:butt;
"/>
<!-- Arrowhead on XXXpoint 1674 1662 - 1730 1641-->
<polygon points="1673 1696
1721 1645
1651 1637
1673 1696

" style="stroke:#000000;stroke-width:8;stroke-miterlimit:8;
fill:#000000;"/>
<!-- Line -->
<polyline points="1700,1842
1702,1840
1708,1837
1715,1833
1722,1828
1730,1825
1737,1824
1743,1825
1749,1828
1756,1835
1760,1839
1765,1846
1770,1854
1775,1863
1780,1874
1784,1885
1788,1898
1792,1912
1794,1927
1795,1943
1795,1959
1794,1974
1791,1991
1787,2008
1782,2023
1776,2038
1770,2055
1761,2072
1751,2091
1740,2109
1729,2128
1715,2146
1701,2165
1687,2184
1672,2202
1657,2219
1643,2235
1628,2249
1613,2262
1598,2276
1583,2287
1567,2298
1551,2308
1533,2319
1514,2329
1493,2340
1469,2350
1444,2361
1418,2372
1393,2383
1369,2391
1349,2400
1380,2388
" style="stroke:#000000;stroke-width:16;
stroke-linejoin:bevel; stroke-linecap:butt;
stroke-dasharray:20 20;"/>
<!-- Arrowhead on XXXpoint 1349 2400 - 1292 2419-->
<polygon points="1349 2365
1300 2416
1370 2425
1349 2365

" style="stroke:#000000;stroke-width:8;stroke-miterlimit:8;
fill:#000000;"/>
<!-- Line: box -->
<rect x="1937" y="1606" width="188" height="188" rx="0" 
style="stroke:#000000;stroke-width:16;
stroke-linejoin:miter; stroke-linecap:butt;
"/>
<!-- Text -->
<text xml:space="preserve" x="2031" y="1748" fill="#000000"  font-family="Helvetica" font-style="normal" font-weight="bold" font-size="114" text-anchor="middle">2</text>
<!-- Line: box -->
<rect x="2598" y="1606" width="188" height="188" rx="0" 
style="stroke:#000000;stroke-width:16;
stroke-linejoin:miter; stroke-linecap:butt;
"/>
<!-- Text -->
<text xml:space="preserve" x="2692" y="1748" fill="#000000"  font-family="Helvetica" font-style="normal" font-weight="bold" font-size="114" text-anchor="middle">1</text>
<!-- Circle -->
<circle cx="2692" cy="2362" r="94"
 style="stroke:#000000;stroke-width:16;"/>
<!-- Text -->
<text xml:space="preserve" x="2692" y="2409" fill="#000000"  font-family="Helvetica" font-style="normal" font-weight="bold" font-size="114" text-anchor="middle">3</text>
<!-- Circle -->
<circle cx="2031" cy="2362" r="94"
 style="stroke:#000000;stroke-width:16;"/>
<!-- Text -->
<text xml:space="preserve" x="2031" y="2409" fill="#000000"  font-family="Helvetica" font-style="normal" font-weight="bold" font-size="114" text-anchor="middle">1</text>
<!-- Line: box -->
<rect x="614" y="1842" width="188" height="188" rx="0" 
style="stroke:#000000;stroke-width:16;
stroke-linejoin:miter; stroke-linecap:butt;
"/>
<!-- Text -->
<text xml:space="preserve" x="708" y="1984" fill="#000000"  font-family="Helvetica" font-style="normal" font-weight="bold" font-size="114" text-anchor="middle">3</text>
<!-- Circle -->
<circle cx="519" cy="2125" r="94"
 style="stroke:#000000;stroke-width:16;"/>
<!-- Text -->
<text xml:space="preserve" x="519" y="2173" fill="#000000"  font-family="Helvetica" font-style="normal" font-weight="bold" font-size="114" text-anchor="middle">2</text>
<!-- Circle -->
<circle cx="283" cy="2362" r="94"
 style="stroke:#000000;stroke-width:16;"/>
<!-- Text -->
<text xml:space="preserve" x="283" y="2409" fill="#000000"  font-family="Helvetica" font-style="normal" font-weight="bold" font-size="114" text-anchor="middle">1</text>
<!-- Line: box -->
<rect x="188" y="1606" width="188" height="188" rx="0" 
style="stroke:#000000;stroke-width:16;
stroke-linejoin:miter; stroke-linecap:butt;
"/>
<!-- Text -->
<text xml:space="preserve" x="283" y="1748" fill="#000000"  font-family="Helvetica" font-style="normal" font-weight="bold" font-size="114" text-anchor="middle">2</text>
<!-- Line: box -->
<rect x="850" y="1606" width="188" height="188" rx="0" 
style="stroke:#000000;stroke-width:16;
stroke-linejoin:miter; stroke-linecap:butt;
"/>
<!-- Text -->
<text xml:space="preserve" x="944" y="1748" fill="#000000"  font-family="Helvetica" font-style="normal" font-weight="bold" font-size="114" text-anchor="middle">1</text>
<!-- Circle -->
<circle cx="944" cy="2362" r="94"
 style="stroke:#000000;stroke-width:16;"/>
<!-- Text -->
<text xml:space="preserve" x="944" y="2409" fill="#000000"  font-family="Helvetica" font-style="normal" font-weight="bold" font-size="114" text-anchor="middle">3</text>
<!-- Text -->
<text xml:space="preserve" x="944" y="2078" fill="#000000"  font-family="Helvetica" font-style="normal" font-weight="bold" font-size="227" text-anchor="middle">S</text>
<!-- Text -->
<text xml:space="preserve" x="283" y="2220" fill="#000000"  font-family="Helvetica" font-style="normal" font-weight="bold" font-size="227" text-anchor="middle">S</text>
<!-- Line -->
<polyline points="2078,2267
2078,2266
2078,2258
2079,2243
2079,2224
2080,2207
2082,2192
2083,2178
2087,2165
2089,2154
2092,2142
2095,2129
2099,2115
2104,2100
2110,2087
2115,2072
2121,2057
2127,2044
2134,2031
2140,2018
2148,2005
2156,1991
2165,1979
2175,1966
2185,1954
2196,1945
2206,1938
2217,1932
2228,1929
2237,1927
2246,1928
2257,1929
2267,1932
2278,1937
2287,1942
2298,1948
2306,1954
2313,1962
2321,1969
2326,1976
2330,1984
2333,1990
2334,1996
2335,2003
2337,2009
2335,2015
2334,2020
2332,2027
2330,2032
2327,2036
2324,2040
2320,2043
2316,2045
2311,2047
2307,2047
2300,2046
2292,2043
2283,2037
2272,2030
2260,2019
2246,2008
2265,2026
" style="stroke:#000000;stroke-width:16;
stroke-linejoin:bevel; stroke-linecap:butt;
"/>
<!-- Arrowhead on XXXpoint 2246 2008 - 2196 1962-->
<polygon points="2269 1987
2202 1968
2226 2033
2269 1987

" style="stroke:#000000;stroke-width:8;stroke-miterlimit:8;
fill:#000000;"/>
<!-- Line -->
<polyline points="2645,1795
2645,1796
2645,1804
2644,1819
2644,1838
2643,1855
2641,1870
2640,1884
2638,1898
2635,1908
2632,1920
2628,1933
2624,1947
2619,1962
2614,1975
2608,1990
2602,2005
2597,2018
2591,2031
2583,2044
2576,2057
2567,2071
2558,2083
2549,2096
2538,2108
2528,2117
2517,2124
2507,2130
2496,2134
2487,2135
2477,2134
2467,2133
2456,2130
2446,2125
2436,2120
2426,2114
2417,2108
2410,2100
2403,2093
2397,2086
2393,2078
2391,2073
2389,2068
2388,2061
2387,2056
2387,2051
2388,2046
2389,2040
2391,2035
2393,2031
2395,2027
2398,2024
2402,2020
2406,2018
2409,2016
2413,2015
2417,2015
2424,2016
2431,2019
2440,2025
2451,2032
2464,2043
2477,2054
2457,2035
" style="stroke:#000000;stroke-width:16;
stroke-linejoin:bevel; stroke-linecap:butt;
stroke-dasharray:20 20;"/>
<!-- Arrowhead on XXXpoint 2477 2054 - 2527 2099-->
<polygon points="2452 2073
2520 2093
2494 2027
2452 2073

" style="stroke:#000000;stroke-width:8;stroke-miterlimit:8;
fill:#000000;"/>
<!-- Line -->
<polyline points="2787,2503
2786,2506
2785,2509
2783,2515
2779,2522
2772,2531
2765,2539
2756,2546
2746,2553
2734,2558
2720,2562
2704,2564
2684,2566
2661,2566
2643,2566
2623,2565
2601,2564
2578,2563
2553,2562
2525,2560
2498,2558
2469,2556
2439,2553
2409,2551
2379,2549
2349,2545
2320,2543
2292,2541
2265,2539
2240,2538
2217,2537
2195,2536
2175,2535
2157,2535
2134,2535
2114,2537
2098,2539
2083,2543
2072,2549
2061,2555
2053,2562
2046,2571
2039,2579
2035,2586
2033,2593
2032,2596
2031,2598
" style="stroke:#000000;stroke-width:16;
stroke-linejoin:bevel; stroke-linecap:butt;
"/>
<!-- Line -->
<polyline points="1275,2503
1276,2506
1277,2509
1279,2515
1283,2522
1290,2531
1297,2539
1306,2546
1316,2553
1328,2558
1342,2562
1358,2564
1378,2566
1401,2566
1419,2566
1439,2565
1461,2564
1484,2563
1509,2562
1537,2560
1564,2558
1593,2556
1623,2553
1653,2551
1683,2549
1713,2545
1742,2543
1770,2541
1797,2539
1822,2538
1845,2537
1867,2536
1887,2535
1905,2535
1928,2535
1948,2537
1964,2539
1979,2543
1990,2549
2001,2555
2009,2562
2016,2571
2023,2579
2027,2586
2029,2593
2030,2596
2031,2598
" style="stroke:#000000;stroke-width:16;
stroke-linejoin:bevel; stroke-linecap:butt;
"/>
<!-- Line -->
<polyline points="2929,1511
2929,2645
" style="stroke:#000000;stroke-width:16;
stroke-linejoin:miter; stroke-linecap:butt;
"/>
<!-- Line: box -->
<rect x="1417" y="2976" width="188" height="188" rx="0" 
style="stroke:#000000;stroke-width:16;
stroke-linejoin:miter; stroke-linecap:butt;
"/>
<!-- Text -->
<text xml:space="preserve" x="1511" y="3118" fill="#000000"  font-family="Helvetica" font-style="normal" font-weight="bold" font-size="114" text-anchor="middle">2</text>
<!-- Circle -->
<circle cx="1700" cy="3259" r="94"
 style="stroke:#000000;stroke-width:16;"/>
<!-- Text -->
<text xml:space="preserve" x="1700" y="3307" fill="#000000"  font-family="Helvetica" font-style="normal" font-weight="bold" font-size="114" text-anchor="middle">3</text>
<!-- Line -->
<polyline points="1795,3354
1797,3356
1800,3361
1804,3369
1808,3376
1812,3383
1813,3391
1812,3397
1808,3402
1803,3409
1798,3414
1791,3419
1783,3423
1774,3428
1763,3434
1751,3438
1738,3442
1723,3445
1708,3447
1691,3448
1675,3448
1657,3447
1639,3444
1622,3441
1607,3437
1591,3432
1575,3425
1559,3418
1541,3411
1523,3401
1505,3391
1486,3380
1467,3367
1449,3355
1430,3342
1414,3329
1397,3314
1381,3300
1367,3287
1354,3272
1341,3258
1331,3244
1318,3227
1308,3210
1298,3192
1290,3172
1281,3150
1273,3126
1266,3099
1258,3070
1251,3040
1244,3011
1238,2982
1234,2960
1239,2990
" style="stroke:#000000;stroke-width:16;
stroke-linejoin:bevel; stroke-linecap:butt;
"/>
<!-- Arrowhead on XXXpoint 1234 2960 - 1222 2897-->
<polygon points="1267 2961
1224 2907
1205 2974
1267 2961

" style="stroke:#000000;stroke-width:8;stroke-miterlimit:8;
fill:#000000;"/>
<!-- Line -->
<polyline points="1417,2976
1415,2974
1412,2969
1407,2961
1403,2954
1400,2946
1399,2939
1400,2933
1403,2928
1409,2921
1414,2916
1421,2911
1428,2907
1438,2901
1448,2896
1461,2892
1474,2888
1488,2885
1504,2882
1521,2881
1537,2881
1554,2882
1572,2886
1590,2890
1605,2893
1620,2898
1636,2904
1653,2912
1671,2919
1689,2929
1707,2939
1725,2950
1744,2962
1762,2975
1781,2987
1798,3001
1815,3016
1830,3029
1844,3043
1858,3058
1870,3071
1882,3086
1893,3103
1904,3120
1913,3138
1922,3158
1930,3180
1939,3204
1946,3231
1953,3259
1961,3290
1968,3319
1973,3348
1977,3370
1971,3339
" style="stroke:#000000;stroke-width:16;
stroke-linejoin:bevel; stroke-linecap:butt;
stroke-dasharray:20 20;"/>
<!-- Arrowhead on XXXpoint 1977 3370 - 1989 3432-->
<polygon points="1944 3365
1987 3422
2006 3354
1944 3365

" style="stroke:#000000;stroke-width:8;stroke-miterlimit:8;
fill:#000000;"/>
<!-- Line: box -->
<rect x="2078" y="2740" width="188" height="188" rx="0" 
style="stroke:#000000;stroke-width:16;
stroke-linejoin:miter; stroke-linecap:butt;
"/>
<!-- Text -->
<text xml:space="preserve" x="2173" y="2881" fill="#000000"  font-family="Helvetica" font-style="normal" font-weight="bold" font-size="114" text-anchor="middle">1</text>
<!-- Circle -->
<circle cx="2834" cy="2834" r="94"
 style="stroke:#000000;stroke-width:16;"/>
<!-- Text -->
<text xml:space="preserve" x="2834" y="2881" fill="#000000"  font-family="Helvetica" font-style="normal" font-weight="bold" font-size="114" text-anchor="middle">2</text>
<!-- Circle -->
<circle cx="2834" cy="3496" r="94"
 style="stroke:#000000;stroke-width:16;"/>
<!-- Text -->
<text xml:space="preserve" x="2834" y="3543" fill="#000000"  font-family="Helvetica" font-style="normal" font-weight="bold" font-size="114" text-anchor="middle">1</text>
<!-- Line: box -->
<rect x="2078" y="3401" width="188" height="188" rx="0" 
style="stroke:#000000;stroke-width:16;
stroke-linejoin:miter; stroke-linecap:butt;
"/>
<!-- Text -->
<text xml:space="preserve" x="2173" y="3543" fill="#000000"  font-family="Helvetica" font-style="normal" font-weight="bold" font-size="114" text-anchor="middle">3</text>
<!-- Line -->
<polyline points="2740,3496
2739,3496
2735,3493
2726,3490
2712,3485
2696,3479
2678,3472
2661,3465
2646,3459
2633,3453
2620,3446
2608,3440
2598,3433
2587,3425
2576,3417
2564,3407
2553,3396
2541,3384
2531,3371
2519,3357
2510,3341
2500,3325
2493,3310
2486,3293
2480,3275
2475,3259
2472,3243
2469,3224
2466,3205
2464,3184
2462,3163
2461,3141
2461,3120
2461,3099
2462,3078
2465,3059
2467,3040
2469,3023
2472,3007
2476,2990
2480,2973
2487,2956
2494,2939
2502,2921
2512,2901
2523,2881
2534,2864
2519,2888
" style="stroke:#000000;stroke-width:16;
stroke-linejoin:bevel; stroke-linecap:butt;
"/>
<!-- Arrowhead on XXXpoint 2534 2864 - 2565 2806-->
<polygon points="2558 2885
2561 2814
2502 2854
2558 2885

" style="stroke:#000000;stroke-width:8;stroke-miterlimit:8;
fill:#000000;"/>
<!-- Line -->
<polyline points="2267,2834
2268,2834
2271,2836
2281,2839
2295,2845
2311,2851
2329,2857
2346,2865
2361,2871
2374,2877
2387,2883
2398,2890
2409,2897
2419,2904
2431,2913
2443,2922
2454,2934
2466,2945
2476,2959
2488,2973
2497,2988
2507,3004
2514,3020
2521,3037
2528,3055
2532,3070
2535,3087
2538,3106
2541,3125
2543,3146
2544,3167
2545,3189
2545,3210
2545,3231
2544,3252
2542,3271
2540,3290
2538,3307
2535,3322
2531,3340
2527,3357
2520,3374
2513,3391
2504,3408
2495,3428
2483,3448
2473,3466
2487,3441
" style="stroke:#000000;stroke-width:16;
stroke-linejoin:bevel; stroke-linecap:butt;
stroke-dasharray:20 20;"/>
<!-- Arrowhead on XXXpoint 2473 3466 - 2440 3523-->
<polygon points="2448 3444
2445 3514
2502 3475
2448 3444

" style="stroke:#000000;stroke-width:8;stroke-miterlimit:8;
fill:#000000;"/>
<!-- Line: box -->
<rect x="425" y="2976" width="188" height="188" rx="0" 
style="stroke:#000000;stroke-width:16;
stroke-linejoin:miter; stroke-linecap:butt;
"/>
<!-- Text -->
<text xml:space="preserve" x="519" y="3118" fill="#000000"  font-family="Helvetica" font-style="normal" font-weight="bold" font-size="114" text-anchor="middle">2</text>
<!-- Circle -->
<circle cx="708" cy="3259" r="94"
 style="stroke:#000000;stroke-width:16;"/>
<!-- Text -->
<text xml:space="preserve" x="708" y="3307" fill="#000000"  font-family="Helvetica" font-style="normal" font-weight="bold" font-size="114" text-anchor="middle">3</text>
<!-- Line: box -->
<rect x="188" y="2740" width="188" height="188" rx="0" 
style="stroke:#000000;stroke-width:16;
stroke-linejoin:miter; stroke-linecap:butt;
"/>
<!-- Text -->
<text xml:space="preserve" x="283" y="2881" fill="#000000"  font-family="Helvetica" font-style="normal" font-weight="bold" font-size="114" text-anchor="middle">1</text>
<!-- Circle -->
<circle cx="944" cy="2834" r="94"
 style="stroke:#000000;stroke-width:16;"/>
<!-- Text -->
<text xml:space="preserve" x="944" y="2881" fill="#000000"  font-family="Helvetica" font-style="normal" font-weight="bold" font-size="114" text-anchor="middle">2</text>
<!-- Circle -->
<circle cx="944" cy="3496" r="94"
 style="stroke:#000000;stroke-width:16;"/>
<!-- Text -->
<text xml:space="preserve" x="944" y="3543" fill="#000000"  font-family="Helvetica" font-style="normal" font-weight="bold" font-size="114" text-anchor="middle">1</text>
<!-- Line: box -->
<rect x="188" y="3401" width="188" height="188" rx="0" 
style="stroke:#000000;stroke-width:16;
stroke-linejoin:miter; stroke-linecap:butt;
"/>
<!-- Text -->
<text xml:space="preserve" x="283" y="3543" fill="#000000"  font-family="Helvetica" font-style="normal" font-weight="bold" font-size="114" text-anchor="middle">3</text>
<!-- Text -->
<text xml:space="preserve" x="283" y="3212" fill="#000000"  font-family="Helvetica" font-style="normal" font-weight="bold" font-size="227" text-anchor="middle">S</text>
<!-- Text -->
<text xml:space="preserve" x="944" y="3354" fill="#000000"  font-family="Helvetica" font-style="normal" font-weight="bold" font-size="227" text-anchor="middle">S</text>
<!-- Line -->
<polyline points="2929,3637
2929,3638
2928,3641
2925,3646
2922,3651
2917,3658
2912,3666
2904,3673
2896,3679
2886,3686
2875,3690
2861,3694
2847,3697
2830,3699
2810,3700
2787,3700
2768,3700
2748,3699
2726,3699
2703,3698
2678,3696
2651,3695
2624,3693
2595,3691
2564,3689
2534,3687
2503,3685
2473,3682
2443,3680
2412,3678
2383,3676
2355,3674
2329,3673
2304,3671
2281,3670
2259,3670
2239,3669
2220,3669
2197,3669
2177,3670
2160,3672
2145,3675
2132,3679
2121,3683
2111,3690
2102,3696
2095,3703
2090,3711
2085,3718
2081,3723
2079,3728
2078,3731
2078,3732
" style="stroke:#000000;stroke-width:16;
stroke-linejoin:bevel; stroke-linecap:butt;
"/>
<!-- Line -->
<polyline points="1228,3637
1228,3638
1229,3641
1231,3646
1234,3651
1239,3658
1245,3666
1252,3673
1260,3679
1271,3686
1281,3690
1295,3694
1310,3697
1327,3699
1346,3700
1370,3700
1388,3700
1408,3699
1430,3699
1454,3698
1479,3696
1505,3695
1532,3693
1562,3691
1592,3689
1623,3687
1653,3685
1683,3682
1714,3680
1744,3678
1774,3676
1801,3674
1827,3673
1853,3671
1876,3670
1898,3670
1918,3669
1937,3669
1960,3669
1980,3670
1996,3672
2011,3675
2025,3679
2035,3683
2046,3690
2054,3696
2061,3703
2067,3711
2072,3718
2075,3723
2077,3728
2078,3731
2078,3732
" style="stroke:#000000;stroke-width:16;
stroke-linejoin:bevel; stroke-linecap:butt;
"/>
<!-- Line -->
<polyline points="3212,2645
3212,3779
" style="stroke:#000000;stroke-width:16;
stroke-linejoin:miter; stroke-linecap:butt;
"/>
<!-- Line -->
<polyline points="0,377
6094,377
" style="stroke:#000000;stroke-width:16;
stroke-linejoin:miter; stroke-linecap:butt;
"/>
<!-- Line -->
<polyline points="0,2645
6094,2645
" style="stroke:#000000;stroke-width:16;
stroke-linejoin:miter; stroke-linecap:butt;
"/>
<!-- Line -->
<polyline points="0,1511
6094,1511
" style="stroke:#000000;stroke-width:16;
stroke-linejoin:miter; stroke-linecap:butt;
"/>
<!-- Line: box -->
<rect x="0" y="0" width="6094" height="3779" rx="0" 
style="stroke:#000000;stroke-width:16;
stroke-linejoin:miter; stroke-linecap:butt;
"/>
<!-- Line -->
<polyline points="4629,2645
4629,3779
" style="stroke:#000000;stroke-width:16;
stroke-linejoin:miter; stroke-linecap:butt;
stroke-dasharray:62 62;"/>
<!-- Line -->
<polyline points="2078,377
2078,1511
" style="stroke:#000000;stroke-width:16;
stroke-linejoin:miter; stroke-linecap:butt;
"/>
<!-- Text -->
<text xml:space="preserve" x="6000" y="283" fill="#000000"  font-family="Helvetica" font-style="normal" font-weight="normal" font-size="227" text-anchor="end">J8x32</text>
<!-- Text -->
<text xml:space="preserve" x="141" y="283" fill="#000000"  font-family="Helvetica" font-style="normal" font-weight="normal" font-size="227" text-anchor="start">Best Set In The Hall</text>
<!-- Text -->
<text xml:space="preserve" x="4913" y="283" fill="#000000"  font-family="Helvetica" font-style="normal" font-weight="normal" font-size="177" text-anchor="end">H. Greenwood</text>
<!-- Line -->
<polyline points="3448,3165
4393,3165
" style="stroke:#000000;stroke-width:16;
stroke-linejoin:miter; stroke-linecap:round;
"/>
</g>
</svg>
