<?xml version="1.0" encoding="UTF-8" standalone="no"?>
<svg
   xmlns:dc="http://purl.org/dc/elements/1.1/"
   xmlns:cc="http://creativecommons.org/ns#"
   xmlns:rdf="http://www.w3.org/1999/02/22-rdf-syntax-ns#"
   xmlns:svg="http://www.w3.org/2000/svg"
   xmlns="http://www.w3.org/2000/svg"
   xmlns:sodipodi="http://sodipodi.sourceforge.net/DTD/sodipodi-0.dtd"
   xmlns:inkscape="http://www.inkscape.org/namespaces/inkscape"
   viewBox="-1 -1  272  118.73"
   version="1.1"
   id="svg2"
   inkscape:version="0.48.5 r10040"
   width="100%"
   height="100%"
   sodipodi:docname="be_my_partner_v4.svg">
  <metadata
     id="metadata396">
    <rdf:RDF>
      <cc:Work
         rdf:about="">
        <dc:format>image/svg+xml</dc:format>
        <dc:type
           rdf:resource="http://purl.org/dc/dcmitype/StillImage" />
        <dc:title>BE MY PARTNER - 4x40 S</dc:title>
      </cc:Work>
    </rdf:RDF>
  </metadata>
  <defs
     id="defs394" />
  <sodipodi:namedview
     pagecolor="#ffffff"
     bordercolor="#666666"
     borderopacity="1"
     objecttolerance="10"
     gridtolerance="10"
     guidetolerance="10"
     inkscape:pageopacity="0"
     inkscape:pageshadow="2"
     inkscape:window-width="1280"
     inkscape:window-height="972"
     id="namedview392"
     showgrid="false"
     inkscape:zoom="3.1470588"
     inkscape:cx="132.65589"
     inkscape:cy="41.40822"
     inkscape:window-x="-8"
     inkscape:window-y="-8"
     inkscape:window-maximized="1"
     inkscape:current-layer="g6" />
  <title
     id="title4">BE MY PARTNER - 4x40 S</title>
  <g
     stroke="black"
     stroke-width=".4"
     font-family="Helvetica"
     fill="black"
     transform="translate(0,18)"
     id="g6"><rect
   x="0"
   y="-18"
   width="270"
   height="116.73"
   stroke="none"
   fill="white"
   id="rect8" />
<rect
   x="0"
   y="-18"
   width="270"
   height="18"
   fill="white"
   id="rect10" />
<text
   x="5"
   y="-5"
   font-size="10"
   font-weight="bold"
   id="text12"
   style="font-size:10px;font-weight:bold;stroke-width:0.001">BE MY PARTNER</text>
<text
   x="170.25999"
   y="-5"
   font-size="6.5"
   id="text14"
   style="font-size:6.5px;text-anchor:middle;stroke-width:0.001">4 couples</text>
<text
   x="265"
   y="-5"
   font-size="10"
   font-weight="bold"
   id="text16"
   style="font-size:10px;font-weight:bold;text-anchor:end;stroke-width:0.001">4x40 S</text>
<rect
   x="0"
   y="0"
   width="270"
   height="45"
   id="rect18"
   fill="white" />
<rect
   x="0"
   y="45"
   width="270"
   height="45"
   id="rect20"
   fill="white" />
<text
   x="0"
   y="97"
   font-size="5"
   stroke-width="0.001"
   id="text388">Zoltán Gräff, 2006, A Reel Goulash</text>
<text
   xml:space="preserve"
   x="270"
   y="97"
   font-size="5"
   stroke-width="0.001"
   text-anchor="end"
   id="text390">4C/4C longwise set</text>
<polygon
   style="fill:#ffffff;stroke:#000000;stroke-width:0.40000001;font-family:Helvetica"
   transform="translate(-192.98996,0.35611534)"
   points="248.63,12.37 255.37,12.38 255.38,5.63 248.63,5.62 "
   id="polygon142-1" />
<text
   style="font-size:6.5px;text-anchor:middle;fill:#000000;stroke:#000000;stroke-width:0.001;font-family:Helvetica"
   x="59.010044"
   y="11.766115"
   font-size="6.5"
   id="text146-7">4</text>
<polygon
   style="fill:#ffffff;stroke:#000000;stroke-width:0.40000001;font-family:Helvetica"
   transform="translate(-192.98996,0.35611534)"
   points="244.13,5.63 237.38,5.62 237.38,12.37 244.12,12.38 "
   id="polygon148" />
<text
   style="font-size:6.5px;text-anchor:middle;fill:#000000;stroke:#000000;stroke-width:0.001;font-family:Helvetica"
   x="47.760048"
   y="11.766115"
   font-size="6.5"
   id="text152">3</text>
<circle
   style="fill:#ffffff;stroke:#000000;stroke-width:0.40000001;font-family:Helvetica"
   sodipodi:ry="3.5"
   sodipodi:rx="3.5"
   sodipodi:cy="38.25"
   sodipodi:cx="252"
   transform="translate(-192.98996,0.35611534)"
   cx="252"
   cy="38.25"
   r="3.5"
   id="circle158"
   d="m 255.5,38.25 c 0,1.932997 -1.567,3.5 -3.5,3.5 -1.933,0 -3.5,-1.567003 -3.5,-3.5 0,-1.932997 1.567,-3.5 3.5,-3.5 1.933,0 3.5,1.567003 3.5,3.5 z" />
<text
   style="font-size:6.5px;text-anchor:middle;fill:#000000;stroke:#000000;stroke-width:0.001;font-family:Helvetica"
   x="59.010044"
   y="41.016109"
   font-size="6.5"
   id="text160">4</text>
<circle
   style="fill:#ffffff;stroke:#000000;stroke-width:0.40000001;font-family:Helvetica"
   sodipodi:ry="3.5"
   sodipodi:rx="3.5"
   sodipodi:cy="38.25"
   sodipodi:cx="240.75"
   transform="translate(-192.98996,0.35611534)"
   cx="240.75"
   cy="38.25"
   r="3.5"
   id="circle164"
   d="m 244.25,38.25 c 0,1.932997 -1.567,3.5 -3.5,3.5 -1.933,0 -3.5,-1.567003 -3.5,-3.5 0,-1.932997 1.567,-3.5 3.5,-3.5 1.933,0 3.5,1.567003 3.5,3.5 z" />
<text
   style="font-size:6.5px;text-anchor:middle;fill:#000000;stroke:#000000;stroke-width:0.001;font-family:Helvetica"
   x="47.760048"
   y="41.016109"
   font-size="6.5"
   id="text166">3</text>
<polygon
   style="fill:#ffffff;stroke:#000000;stroke-width:0.40000001;font-family:Helvetica"
   transform="translate(-195.84978,0.35611534)"
   points="210.37,12.37 217.12,12.38 217.13,5.63 210.38,5.62 "
   id="polygon170" />
<text
   style="font-size:6.5px;text-anchor:middle;fill:#000000;stroke:#000000;stroke-width:0.001;font-family:Helvetica"
   x="17.900232"
   y="11.766115"
   font-size="6.5"
   id="text174">1</text>
<polygon
   style="fill:#ffffff;stroke:#000000;stroke-width:0.40000001;font-family:Helvetica"
   transform="translate(-195.84978,0.35611534)"
   points="228.38,5.63 221.63,5.62 221.62,12.37 228.37,12.38 "
   id="polygon176" />
<text
   style="font-size:6.5px;text-anchor:middle;fill:#000000;stroke:#000000;stroke-width:0.001;font-family:Helvetica"
   x="29.15023"
   y="11.766115"
   font-size="6.5"
   id="text180">2</text>
<circle
   style="fill:#ffffff;stroke:#000000;stroke-width:0.40000001;font-family:Helvetica"
   sodipodi:ry="3.5"
   sodipodi:rx="3.5"
   sodipodi:cy="38.25"
   sodipodi:cx="213.75"
   transform="translate(-195.84978,0.35611534)"
   cx="213.75"
   cy="38.25"
   r="3.5"
   id="circle186"
   d="m 217.25,38.25 c 0,1.932997 -1.567,3.5 -3.5,3.5 -1.933,0 -3.5,-1.567003 -3.5,-3.5 0,-1.932997 1.567,-3.5 3.5,-3.5 1.933,0 3.5,1.567003 3.5,3.5 z" />
<text
   style="font-size:6.5px;text-anchor:middle;fill:#000000;stroke:#000000;stroke-width:0.001;font-family:Helvetica"
   x="17.900232"
   y="41.016109"
   font-size="6.5"
   id="text188-7">1</text>
<circle
   style="fill:#ffffff;stroke:#000000;stroke-width:0.40000001;font-family:Helvetica"
   sodipodi:ry="3.5"
   sodipodi:rx="3.5"
   sodipodi:cy="38.25"
   sodipodi:cx="225"
   transform="translate(-195.84978,0.35611534)"
   cx="225"
   cy="38.25"
   r="3.5"
   id="circle192"
   d="m 228.5,38.25 c 0,1.932997 -1.567,3.5 -3.5,3.5 -1.933,0 -3.5,-1.567003 -3.5,-3.5 0,-1.932997 1.567,-3.5 3.5,-3.5 1.933,0 3.5,1.567003 3.5,3.5 z" />
<text
   style="font-size:6.5px;text-anchor:middle;fill:#000000;stroke:#000000;stroke-width:0.001;font-family:Helvetica"
   x="29.15023"
   y="41.016109"
   font-size="6.5"
   id="text194">2</text>
<line
   style="fill:#000000;stroke:#000000;stroke-width:0.40000001;font-family:Helvetica"
   x1="14.53902"
   y1="2.6061156"
   x2="36.819023"
   y2="2.6061156"
   id="line344" />
<line
   style="fill:#000000;stroke:#000000;stroke-width:0.40000001;font-family:Helvetica"
   x1="36.819023"
   y1="2.6061156"
   x2="38.619022"
   y2="0.80611634"
   id="line346" />
<line
   style="fill:#000000;stroke:#000000;stroke-width:0.40000001;font-family:Helvetica"
   x1="64.489021"
   y1="4.4061131"
   x2="62.689034"
   y2="2.6061156"
   id="line348" />
<line
   style="fill:#000000;stroke:#000000;stroke-width:0.40000001;font-family:Helvetica"
   x1="62.689034"
   y1="2.6061156"
   x2="40.41901"
   y2="2.6061156"
   id="line350" />
<line
   style="fill:#000000;stroke:#000000;stroke-width:0.40000001;font-family:Helvetica"
   x1="40.41901"
   y1="2.6061156"
   x2="38.619022"
   y2="0.80611634"
   id="line352" />
<text
   x="13.722614"
   y="23.334471"
   font-size="6.5"
   style="font-size:6.5px;fill:#000000;stroke:#000000;stroke-width:0.001;font-family:Helvetica"
   id="text402">
  <tspan
     style="font-size:6px;stroke-width:0.001"
     id="tspan3253">double</tspan>
</text>
<text
   id="text3249"
   style="font-size:6.5px;fill:#000000;stroke:#000000;stroke-width:0.001;font-family:Helvetica"
   font-size="6.5"
   y="23.334471"
   x="43.591045">
  <tspan
     style="font-size:6px;stroke-width:0.001"
     id="tspan3255">double</tspan>
</text>
<text
   id="text3251"
   style="font-size:6.5px;fill:#000000;stroke:#000000;stroke-width:0.001;font-family:Helvetica"
   font-size="6.5"
   y="30.116514"
   x="13.959533">
  <tspan
     style="font-size:6px;stroke-width:0.001"
     id="tspan3257">fig. of 8</tspan>
</text>
<text
   x="43.235668"
   y="30.116514"
   font-size="6.5"
   style="font-size:6.5px;fill:#000000;stroke:#000000;stroke-width:0.001;font-family:Helvetica"
   id="text3259">
  <tspan
     id="tspan3261"
     style="font-size:6px;stroke-width:0.001">fig. of 8</tspan>
</text>
<line
   style="fill:#000000;stroke:#000000;stroke-width:0.40000001;font-family:Helvetica"
   x1="47.600952"
   y1="12.79952"
   x2="49.030952"
   y2="14.229513"
   id="line36" />
<line
   id="line3291"
   y2="35.00275"
   x2="29.083473"
   y1="33.572754"
   x1="27.653477"
   style="fill:#000000;stroke:#000000;stroke-width:0.40000001;font-family:Helvetica" />
<line
   style="fill:#000000;stroke:#000000;stroke-width:0.40000001;font-family:Helvetica"
   x1="17.939852"
   y1="42.101791"
   x2="19.36985"
   y2="43.531784"
   id="line3293" />
<line
   id="line3295"
   y2="5.9788518"
   x2="59.417572"
   y1="4.5488553"
   x1="57.987572"
   style="fill:#000000;stroke:#000000;stroke-width:0.40000001;font-family:Helvetica" />
<line
   id="line3297"
   y2="14.187632"
   x2="27.850096"
   y1="12.757631"
   x1="29.280094"
   style="fill:#000000;stroke:#000000;stroke-width:0.40000084;font-family:Helvetica" />
<line
   style="fill:#000000;stroke:#000000;stroke-width:0.40000084;font-family:Helvetica"
   x1="19.396055"
   y1="4.5488534"
   x2="17.966055"
   y2="5.9788518"
   id="line3299" />
<line
   style="fill:#000000;stroke:#000000;stroke-width:0.40000084;font-family:Helvetica"
   x1="49.018166"
   y1="33.740276"
   x2="47.588161"
   y2="35.170277"
   id="line3301" />
<line
   id="line3303"
   y2="43.588463"
   x2="57.807259"
   y1="42.158463"
   x1="59.237259"
   style="fill:#000000;stroke:#000000;stroke-width:0.40000084;font-family:Helvetica" />
<g
   id="g3484"
   transform="matrix(0.20335255,0,0,1.0048127,80.273535,-0.54618178)">
  <path
     id="path3486"
     d="m 0.49606299,0.53149604 0,44.99999796"
     style="fill:#000000;fill-opacity:1;fill-rule:nonzero;stroke:#000000;stroke-width:0.99212599px;stroke-linecap:butt;stroke-linejoin:miter;stroke-miterlimit:4;stroke-opacity:1;stroke-dasharray:none"
     inkscape:connector-curvature="0" />
</g>
<text
   x="97.483025"
   y="12.6065"
   font-size="6.5"
   style="font-size:6.5px;fill:#000000;stroke-width:0.001"
   id="text26">2 3</text>
<text
   x="95.536148"
   y="28.256998"
   font-size="10"
   font-weight="bold"
   style="font-size:10px;font-weight:bold;fill:#000000;stroke-width:0.001"
   id="text28">T</text>
<text
   x="101.64615"
   y="30.056997"
   font-size="6.5"
   style="font-size:6.5px;fill:#000000;stroke-width:0.001"
   id="text30">B</text>
<text
   style="font-size:5px;fill:#000000;stroke-width:0.001"
   x="106.23614"
   y="27.056997"
   font-size="5"
   id="text32">1</text>
<line
   style="fill:#000000"
   x1="106.23614"
   y1="28.056997"
   x2="108.48614"
   y2="28.056997"
   id="line34" />
<text
   style="font-size:5px;fill:#000000;stroke-width:0.001"
   x="106.23614"
   y="33.056999"
   font-size="5"
   id="text36">2</text>
<polyline
   points="36,11.25 45,11.25 "
   id="polyline38"
   transform="translate(87.609585,1.2576663)"
   style="fill:none;stroke:#000000" />
<path
   d="m 130.46559,11.519666 0.744,0.987999 -1.489,1.976 3.239,-1.976 -3.239,-1.975999 0.744,0.988"
   id="path40"
   inkscape:connector-curvature="0"
   style="fill:#000000;stroke-width:0.001" />
<circle
   cx="36"
   cy="11.25"
   r="3.5"
   id="circle42"
   d="m 39.5,11.25 c 0,1.932997 -1.567003,3.5 -3.5,3.5 -1.932997,0 -3.5,-1.567003 -3.5,-3.5 0,-1.9329966 1.567003,-3.5 3.5,-3.5 1.932997,0 3.5,1.5670034 3.5,3.5 z"
   sodipodi:cx="36"
   sodipodi:cy="11.25"
   sodipodi:rx="3.5"
   sodipodi:ry="3.5"
   transform="translate(87.609585,1.2576663)"
   style="fill:#ffffff;stroke:#000000" />
<text
   x="123.60958"
   y="14.917666"
   font-size="6.5"
   id="text44"
   style="font-size:6.5px;text-anchor:middle;fill:#000000;stroke:#000000;stroke-width:0.001">2</text>
<polyline
   points="51.75,13.5 51.75,22.5 "
   id="polyline46"
   transform="translate(95.248982,1.2574575)"
   style="fill:none;stroke:#000000" />
<path
   d="m 147.98699,21.613456 -0.988,0.744 -1.976,-1.489 1.976,3.239 1.976,-3.239 -0.988,0.744"
   id="path48"
   inkscape:connector-curvature="0"
   style="fill:#000000;stroke-width:0.001" />
<circle
   cx="51.75"
   cy="11.25"
   r="3.5"
   id="circle50"
   d="m 55.25,11.25 c 0,1.932997 -1.567003,3.5 -3.5,3.5 -1.932997,0 -3.5,-1.567003 -3.5,-3.5 0,-1.9329966 1.567003,-3.5 3.5,-3.5 1.932997,0 3.5,1.5670034 3.5,3.5 z"
   sodipodi:cx="51.75"
   sodipodi:cy="11.25"
   sodipodi:rx="3.5"
   sodipodi:ry="3.5"
   transform="translate(95.248982,1.2574575)"
   style="fill:#ffffff;stroke:#000000" />
<text
   x="146.99898"
   y="14.917458"
   font-size="6.5"
   id="text52"
   style="font-size:6.5px;text-anchor:middle;fill:#000000;stroke:#000000;stroke-width:0.001">3</text>
<polyline
   style="fill:none;stroke:#000000;stroke-dasharray:2, 1.3"
   points="51.75,29.25 42.75,29.25 "
   id="polyline54"
   transform="translate(95.47367,8.2227895)" />
<path
   d="m 138.12079,38.460997 -0.744,-0.988 1.489,-1.976 -3.239,1.976 3.239,1.976 -0.744,-0.988"
   id="path56"
   inkscape:connector-curvature="0"
   style="fill:#000000;stroke-width:0.001" />
<polyline
   style="fill:none;stroke:#000000;stroke-dasharray:2, 1.3"
   points="36,27 36,18 "
   id="polyline58"
   transform="translate(87.834273,5.9761173)" />
<path
   d="m 122.84628,24.547299 0.988,-0.744 1.976,1.489 -1.976,-3.239 -1.976,3.239 0.988,-0.744"
   id="path60"
   inkscape:connector-curvature="0"
   style="fill:#000000;stroke-width:0.001" />
<polygon
   points="39.38,32.63 39.38,25.88 32.63,25.87 32.62,32.62 "
   id="polygon62"
   transform="translate(87.834273,8.2229983)"
   style="fill:#ffffff;stroke:#000000" />
<text
   x="123.83428"
   y="39.882999"
   font-size="6.5"
   id="text64"
   style="font-size:6.5px;text-anchor:middle;fill:#000000;stroke:#000000;stroke-width:0.001">2</text>
<polygon
   points="48.38,25.87 48.37,32.62 55.13,32.63 55.13,25.88 "
   id="polygon66"
   transform="translate(95.47367,8.2227895)"
   style="fill:#ffffff;stroke:#000000" />
<text
   x="147.22368"
   y="39.88279"
   font-size="6.5"
   id="text68"
   style="font-size:6.5px;text-anchor:middle;fill:#000000;stroke:#000000;stroke-width:0.001">3</text>
<polyline
   points="69.75,11.25 81,11.25 "
   id="polyline70"
   transform="translate(104.4612,1.2574575)"
   style="fill:none;stroke:#000000" />
<line
   x1="185.46118"
   y1="12.507458"
   x2="185.46118"
   y2="17.907457"
   id="line72"
   style="stroke:#000000" />
<circle
   cx="81"
   cy="11.25"
   r="3.5"
   id="circle74"
   d="m 84.5,11.25 c 0,1.932997 -1.567003,3.5 -3.5,3.5 -1.932997,0 -3.5,-1.567003 -3.5,-3.5 0,-1.9329966 1.567003,-3.5 3.5,-3.5 1.932997,0 3.5,1.5670034 3.5,3.5 z"
   sodipodi:cx="81"
   sodipodi:cy="11.25"
   sodipodi:rx="3.5"
   sodipodi:ry="3.5"
   transform="translate(104.4612,1.2574575)"
   style="fill:#ffffff;stroke:#000000" />
<text
   x="185.46118"
   y="14.917458"
   font-size="6.5"
   id="text76"
   style="font-size:6.5px;text-anchor:middle;fill:#000000;stroke:#000000;stroke-width:0.001">2</text>
<polygon
   points="73.12,14.63 73.13,7.88 66.38,7.87 66.37,14.62 "
   id="polygon78"
   transform="translate(104.4612,1.2574575)"
   style="fill:#ffffff;stroke:#000000" />
<line
   x1="174.21118"
   y1="15.887457"
   x2="174.21118"
   y2="17.907457"
   id="line80"
   style="stroke:#000000" />
<text
   x="174.21118"
   y="14.917458"
   font-size="6.5"
   id="text82"
   style="font-size:6.5px;text-anchor:middle;fill:#000000;stroke:#000000;stroke-width:0.001">2</text>
<polyline
   points="69.75,29.25 81,29.25 "
   id="polyline84"
   transform="translate(104.68588,8.2227895)"
   style="fill:none;stroke:#000000" />
<polygon
   points="73.12,32.63 73.13,25.88 66.38,25.87 66.37,32.62 "
   id="polygon86"
   transform="translate(104.68588,8.2227895)"
   style="fill:#ffffff;stroke:#000000" />
<line
   x1="174.43588"
   y1="34.102791"
   x2="174.43588"
   y2="32.072792"
   id="line88"
   style="stroke:#000000" />
<text
   x="174.43588"
   y="39.88279"
   font-size="6.5"
   id="text90"
   style="font-size:6.5px;text-anchor:middle;fill:#000000;stroke:#000000;stroke-width:0.001">3</text>
<line
   x1="185.68588"
   y1="37.47279"
   x2="185.68588"
   y2="32.072792"
   id="line92"
   style="stroke:#000000" />
<circle
   cx="81"
   cy="29.25"
   r="3.5"
   id="circle94"
   d="m 84.5,29.25 c 0,1.932997 -1.567003,3.5 -3.5,3.5 -1.932997,0 -3.5,-1.567003 -3.5,-3.5 0,-1.932997 1.567003,-3.5 3.5,-3.5 1.932997,0 3.5,1.567003 3.5,3.5 z"
   sodipodi:cx="81"
   sodipodi:cy="29.25"
   sodipodi:rx="3.5"
   sodipodi:ry="3.5"
   transform="translate(104.68588,8.2227895)"
   style="fill:#ffffff;stroke:#000000" />
<text
   x="185.68588"
   y="39.88279"
   font-size="6.5"
   id="text96"
   style="font-size:6.5px;text-anchor:middle;fill:#000000;stroke:#000000;stroke-width:0.001">3</text>
<text
   x="163.72928"
   y="28.503975"
   font-size="10"
   font-weight="bold"
   style="font-size:10px;font-weight:normal;fill:#000000;stroke-width:0.001;-inkscape-font-specification:Helvetica"
   id="text98">S&amp;LINK</text>
<polyline
   points="128.25,11.25 137.25,11.25 "
   id="polyline114"
   transform="translate(88.058962,1.2573763)"
   style="fill:none;stroke:#000000" />
<path
   d="m 223.16498,11.519376 0.744,0.987999 -1.489,1.976 3.239,-1.976 -3.239,-1.975999 0.744,0.988"
   id="path116"
   inkscape:connector-curvature="0"
   style="fill:#000000;stroke-width:0.001" />
<circle
   cx="128.25"
   cy="11.25"
   r="3.5"
   id="circle118"
   d="m 131.75,11.25 c 0,1.932997 -1.567,3.5 -3.5,3.5 -1.933,0 -3.5,-1.567003 -3.5,-3.5 0,-1.9329966 1.567,-3.5 3.5,-3.5 1.933,0 3.5,1.5670034 3.5,3.5 z"
   sodipodi:cx="128.25"
   sodipodi:cy="11.25"
   sodipodi:rx="3.5"
   sodipodi:ry="3.5"
   transform="translate(88.058962,1.2573763)"
   style="fill:#ffffff;stroke:#000000" />
<text
   x="216.30896"
   y="14.917377"
   font-size="6.5"
   id="text120"
   style="font-size:6.5px;text-anchor:middle;fill:#000000;stroke:#000000;stroke-width:0.001">2</text>
<polyline
   style="fill:none;stroke:#000000;stroke-dasharray:2, 1.3"
   points="144,13.5 144,22.5 "
   id="polyline122"
   transform="translate(95.248982,1.2574575)" />
<path
   d="m 240.237,23.410961 -0.988,0.744 -1.976,-1.489 1.976,3.239 1.976,-3.239 -0.988,0.744"
   id="path124"
   inkscape:connector-curvature="0"
   style="fill:#000000;stroke-width:0.001" />
<polyline
   style="fill:none;stroke:#000000;stroke-dasharray:2, 1.3"
   points="144,29.25 135,29.25 "
   id="polyline126"
   transform="translate(96.147735,8.1030795)" />
<path
   d="m 231.71894,38.340997 -0.744,-0.988 1.489,-1.976 -3.239,1.976 3.239,1.976 -0.744,-0.988"
   id="path128"
   inkscape:connector-curvature="0"
   style="fill:#000000;stroke-width:0.001" />
<polyline
   points="128.25,27 128.25,18 "
   id="polyline130"
   transform="translate(88.957715,6.8745793)"
   style="fill:none;stroke:#000000" />
<path
   d="m 216.21973,27.018578 0.988,-0.744 1.976,1.489 -1.976,-3.239 -1.976,3.239 0.988,-0.744"
   id="path132"
   inkscape:connector-curvature="0"
   style="fill:#000000;stroke-width:0.001" />
<polygon
   points="140.63,25.87 140.62,32.62 147.38,32.63 147.38,25.88 "
   id="polygon134"
   transform="translate(96.147735,8.1030795)"
   style="fill:#ffffff;stroke:#000000" />
<text
   x="240.14774"
   y="39.763081"
   font-size="6.5"
   id="text136"
   style="font-size:6.5px;text-anchor:middle;fill:#000000;stroke:#000000;stroke-width:0.001">3</text>
<circle
   cx="128.25"
   cy="29.25"
   r="3.5"
   id="circle138"
   d="m 131.75,29.25 c 0,1.932997 -1.567,3.5 -3.5,3.5 -1.933,0 -3.5,-1.567003 -3.5,-3.5 0,-1.932997 1.567,-3.5 3.5,-3.5 1.933,0 3.5,1.567003 3.5,3.5 z"
   sodipodi:cx="128.25"
   sodipodi:cy="29.25"
   sodipodi:rx="3.5"
   sodipodi:ry="3.5"
   transform="translate(88.957715,8.1029983)"
   style="fill:#ffffff;stroke:#000000" />
<text
   x="217.20772"
   y="39.763"
   font-size="6.5"
   id="text140"
   style="font-size:6.5px;text-anchor:middle;fill:#000000;stroke:#000000;stroke-width:0.001">3</text>
<polygon
   points="147.38,14.63 147.38,7.88 140.63,7.87 140.62,14.62 "
   id="polygon142"
   transform="translate(95.248982,1.2574575)"
   style="fill:#ffffff;stroke:#000000" />
<text
   x="239.24898"
   y="14.917458"
   font-size="6.5"
   id="text144"
   style="font-size:6.5px;text-anchor:middle;fill:#000000;stroke:#000000;stroke-width:0.001">2</text>
<text
   x="82.880188"
   y="6.2068334"
   font-size="5"
   style="font-size:5px;fill:#000000;stroke-width:0.001"
   id="text356">--- Tourbilink --- (tourbillon/2 + s&amp;link + chase/4) -------------------------------</text>
<line
   style="fill:#000000;stroke:#000000;stroke-width:0.40000001;font-family:Helvetica"
   x1="12.79626"
   y1="4.4290638"
   x2="14.596263"
   y2="2.6290646"
   id="line342-4"
   inkscape:transform-center-x="3.2570094"
   inkscape:transform-center-y="14.060748" />
<line
   x1="80.327133"
   y1="44.789707"
   x2="80.327133"
   y2="89.789711"
   id="line324"
   style="stroke:#000000" />
<line
   style="fill:#000000;stroke:#000000;stroke-width:0.39941743;stroke-dasharray:2.99563077, 1.99708718;font-family:Helvetica"
   x1="199.4498"
   y1="45.267292"
   x2="199.4498"
   y2="90.267288"
   id="line46-4" />
<circle
   cx="126"
   cy="33.75"
   r="4.5"
   id="circle98"
   sodipodi:cx="126"
   sodipodi:cy="33.75"
   sodipodi:rx="4.5"
   sodipodi:ry="4.5"
   transform="translate(-19.267212,42.712552)"
   style="fill:#ffffff;stroke:#000000;stroke-width:0.40000001;font-family:Helvetica"
   d="m 130.5,33.75 c 0,2.485281 -2.01472,4.5 -4.5,4.5 -2.48528,0 -4.5,-2.014719 -4.5,-4.5 0,-2.485281 2.01472,-4.5 4.5,-4.5 2.48528,0 4.5,2.014719 4.5,4.5 z" />
<circle
   cx="135"
   cy="33.75"
   r="4.5"
   id="circle100"
   sodipodi:cx="135"
   sodipodi:cy="33.75"
   sodipodi:rx="4.5"
   sodipodi:ry="4.5"
   transform="translate(-19.267212,42.712552)"
   style="fill:#ffffff;stroke:#000000;stroke-width:0.40000001;font-family:Helvetica"
   d="m 139.5,33.75 c 0,2.485281 -2.01472,4.5 -4.5,4.5 -2.48528,0 -4.5,-2.014719 -4.5,-4.5 0,-2.485281 2.01472,-4.5 4.5,-4.5 2.48528,0 4.5,2.014719 4.5,4.5 z" />
<circle
   cx="117"
   cy="33.75"
   r="4.5"
   id="circle102"
   sodipodi:cx="117"
   sodipodi:cy="33.75"
   sodipodi:rx="4.5"
   sodipodi:ry="4.5"
   transform="translate(-19.267212,42.712552)"
   style="fill:#ffffff;stroke:#000000;stroke-width:0.40000001;font-family:Helvetica"
   d="m 121.5,33.75 c 0,2.485281 -2.01472,4.5 -4.5,4.5 -2.48528,0 -4.5,-2.014719 -4.5,-4.5 0,-2.485281 2.01472,-4.5 4.5,-4.5 2.48528,0 4.5,2.014719 4.5,4.5 z" />
<circle
   cx="126"
   cy="33.75"
   r="4.5"
   id="circle98-1"
   sodipodi:cx="126"
   sodipodi:cy="33.75"
   sodipodi:rx="4.5"
   sodipodi:ry="4.5"
   transform="translate(-19.767042,29.394115)"
   style="fill:#ffffff;stroke:#000000;stroke-width:0.40000001;font-family:Helvetica"
   d="m 130.5,33.75 c 0,2.485281 -2.01472,4.5 -4.5,4.5 -2.48528,0 -4.5,-2.014719 -4.5,-4.5 0,-2.485281 2.01472,-4.5 4.5,-4.5 2.48528,0 4.5,2.014719 4.5,4.5 z" />
<circle
   cx="135"
   cy="33.75"
   r="4.5"
   id="circle100-7"
   sodipodi:cx="135"
   sodipodi:cy="33.75"
   sodipodi:rx="4.5"
   sodipodi:ry="4.5"
   transform="translate(-19.767042,29.394115)"
   style="fill:#ffffff;stroke:#000000;stroke-width:0.40000001;font-family:Helvetica"
   d="m 139.5,33.75 c 0,2.485281 -2.01472,4.5 -4.5,4.5 -2.48528,0 -4.5,-2.014719 -4.5,-4.5 0,-2.485281 2.01472,-4.5 4.5,-4.5 2.48528,0 4.5,2.014719 4.5,4.5 z" />
<circle
   cx="117"
   cy="33.75"
   r="4.5"
   id="circle102-1"
   sodipodi:cx="117"
   sodipodi:cy="33.75"
   sodipodi:rx="4.5"
   sodipodi:ry="4.5"
   transform="translate(-19.767042,29.394115)"
   style="fill:#ffffff;stroke:#000000;stroke-width:0.40000001;font-family:Helvetica"
   d="m 121.5,33.75 c 0,2.485281 -2.01472,4.5 -4.5,4.5 -2.48528,0 -4.5,-2.014719 -4.5,-4.5 0,-2.485281 2.01472,-4.5 4.5,-4.5 2.48528,0 4.5,2.014719 4.5,4.5 z" />
<text
   id="text3401"
   style="font-size:6.5px;fill:#000000;stroke:#000000;stroke-width:0.001;font-family:Helvetica"
   font-size="6.5"
   y="54.46534"
   x="92.549194">3 1x 4x 2</text>
<text
   x="141.59164"
   y="69.688248"
   font-size="10"
   font-weight="bold"
   style="font-size:10px;font-weight:bold;fill:#000000;stroke:#000000;stroke-width:0.001;font-family:Helvetica"
   id="text122-0-0">RA</text>
<polyline
   style="fill:none;stroke:#000000;stroke-width:0.40000001;font-family:Helvetica"
   transform="matrix(0.5179699,0,0,1.1463089,118.15081,40.731309)"
   points="42.75,22.5 74.25,22.5 "
   id="polyline44-2-5" />
<line
   style="fill:#000000;stroke:#000000;stroke-width:0.39941743;font-family:Helvetica"
   id="line3412"
   y2="90.072746"
   x2="132.23997"
   y1="45.072739"
   x1="132.23997" />
<text
   id="text3414"
   style="font-size:6.5px;fill:#000000;stroke:#000000;stroke-width:0.001;font-family:Helvetica"
   font-size="6.5"
   y="54.588261"
   x="139.33392">1x 4x</text>
<text
   x="215.0209"
   y="69.688438"
   font-size="10"
   font-weight="bold"
   style="font-size:10px;font-weight:bold;fill:#000000;stroke:#000000;stroke-width:0.001;font-family:Helvetica"
   id="text32-4">T</text>
<text
   x="221.1209"
   y="72.705971"
   font-size="6.5"
   style="font-size:6.5px;fill:#000000;stroke:#000000;stroke-width:0.001;font-family:Helvetica"
   id="text34">R</text>
<text
   x="172.32242"
   y="69.561295"
   font-size="10"
   font-weight="bold"
   style="font-size:10px;font-weight:bold;fill:#000000;stroke:#000000;stroke-width:0.001;font-family:Helvetica"
   id="text270">S</text>
<polygon
   style="fill:#ffffff;stroke:#000000;stroke-width:0.40000001;font-family:Helvetica"
   transform="translate(-56.597023,42.800911)"
   points="237.38,5.62 237.38,12.37 244.12,12.38 244.13,5.63 "
   id="polygon148-1" />
<text
   style="font-size:6.5px;text-anchor:middle;fill:#000000;stroke:#000000;stroke-width:0.001;font-family:Helvetica"
   x="184.15297"
   y="54.210911"
   font-size="6.5"
   id="text152-6">1</text>
<circle
   style="fill:#ffffff;stroke:#000000;stroke-width:0.40000001;font-family:Helvetica"
   sodipodi:ry="3.5"
   sodipodi:rx="3.5"
   sodipodi:cy="38.25"
   sodipodi:cx="240.75"
   transform="translate(-56.597023,42.800911)"
   cx="240.75"
   cy="38.25"
   r="3.5"
   id="circle164-8"
   d="m 244.25,38.25 c 0,1.932997 -1.567,3.5 -3.5,3.5 -1.933,0 -3.5,-1.567003 -3.5,-3.5 0,-1.932997 1.567,-3.5 3.5,-3.5 1.933,0 3.5,1.567003 3.5,3.5 z" />
<text
   style="font-size:6.5px;text-anchor:middle;fill:#000000;stroke:#000000;stroke-width:0.001;font-family:Helvetica"
   x="184.15297"
   y="83.460899"
   font-size="6.5"
   id="text166-5">1</text>
<polygon
   style="fill:#ffffff;stroke:#000000;stroke-width:0.40000001;font-family:Helvetica"
   transform="translate(-56.597023,42.800911)"
   points="221.63,5.62 221.62,12.37 228.37,12.38 228.38,5.63 "
   id="polygon176-7" />
<text
   style="font-size:6.5px;text-anchor:middle;fill:#000000;stroke:#000000;stroke-width:0.001;font-family:Helvetica"
   x="168.40295"
   y="54.210911"
   font-size="6.5"
   id="text180-6">4</text>
<circle
   style="fill:#ffffff;stroke:#000000;stroke-width:0.40000001;font-family:Helvetica"
   sodipodi:ry="3.5"
   sodipodi:rx="3.5"
   sodipodi:cy="38.25"
   sodipodi:cx="225"
   transform="translate(-56.597023,42.800911)"
   cx="225"
   cy="38.25"
   r="3.5"
   id="circle192-1"
   d="m 228.5,38.25 c 0,1.932997 -1.567,3.5 -3.5,3.5 -1.933,0 -3.5,-1.567003 -3.5,-3.5 0,-1.932997 1.567,-3.5 3.5,-3.5 1.933,0 3.5,1.567003 3.5,3.5 z" />
<text
   style="font-size:6.5px;text-anchor:middle;fill:#000000;stroke:#000000;stroke-width:0.001;font-family:Helvetica"
   x="168.40295"
   y="83.460899"
   font-size="6.5"
   id="text194-8">4</text>
<text
   style="font-size:5px;fill:#000000;stroke:#000000;stroke-width:0.001;font-family:Helvetica"
   x="226.53828"
   y="69.331657"
   font-size="5"
   id="text100">1</text>
<line
   x1="226.53827"
   y1="70.331657"
   x2="228.78828"
   y2="70.331657"
   id="line102"
   style="fill:#000000;stroke:#000000;stroke-width:0.40000001;font-family:Helvetica" />
<text
   style="font-size:5px;fill:#000000;stroke:#000000;stroke-width:0.001;font-family:Helvetica"
   x="226.53828"
   y="75.331657"
   font-size="5"
   id="text104-0">2</text>
<line
   style="fill:#000000;stroke:#000000;stroke-width:0.2358095;font-family:Helvetica"
   x1="173.14813"
   y1="51.915352"
   x2="171.82646"
   y2="51.915352"
   id="line76-1" />
<line
   id="line3568"
   y2="51.915474"
   x2="179.28938"
   y1="51.915474"
   x1="180.61105"
   style="fill:#000000;stroke:#000000;stroke-width:0.2358095;font-family:Helvetica" />
<line
   id="line3570"
   y2="81.174683"
   x2="172.00415"
   y1="81.174683"
   x1="173.32582"
   style="fill:#000000;stroke:#000000;stroke-width:0.2358095;font-family:Helvetica" />
<line
   style="fill:#000000;stroke:#000000;stroke-width:0.2358095;font-family:Helvetica"
   x1="180.43336"
   y1="81.115456"
   x2="179.11168"
   y2="81.115456"
   id="line3574" />
<polygon
   style="fill:#ffffff;stroke:#000000;stroke-width:0.40000001;font-family:Helvetica"
   transform="translate(-10.392482,43.072998)"
   points="237.38,12.37 244.12,12.38 244.13,5.63 237.38,5.62 "
   id="polygon148-1-4" />
<text
   style="font-size:6.5px;text-anchor:middle;fill:#000000;stroke:#000000;stroke-width:0.001;font-family:Helvetica"
   x="230.35747"
   y="54.482998"
   font-size="6.5"
   id="text152-6-3">1</text>
<circle
   style="fill:#ffffff;stroke:#000000;stroke-width:0.40000001;font-family:Helvetica"
   sodipodi:ry="3.5"
   sodipodi:rx="3.5"
   sodipodi:cy="38.25"
   sodipodi:cx="240.75"
   transform="translate(-10.392482,43.072998)"
   cx="240.75"
   cy="38.25"
   r="3.5"
   id="circle164-8-1"
   d="m 244.25,38.25 c 0,1.932997 -1.567,3.5 -3.5,3.5 -1.933,0 -3.5,-1.567003 -3.5,-3.5 0,-1.932997 1.567,-3.5 3.5,-3.5 1.933,0 3.5,1.567003 3.5,3.5 z" />
<text
   style="font-size:6.5px;text-anchor:middle;fill:#000000;stroke:#000000;stroke-width:0.001;font-family:Helvetica"
   x="230.35747"
   y="83.732986"
   font-size="6.5"
   id="text166-5-2">1</text>
<polygon
   style="fill:#ffffff;stroke:#000000;stroke-width:0.40000001;font-family:Helvetica"
   transform="translate(-10.392482,43.072998)"
   points="221.62,12.37 228.37,12.38 228.38,5.63 221.63,5.62 "
   id="polygon176-7-3" />
<text
   style="font-size:6.5px;text-anchor:middle;fill:#000000;stroke:#000000;stroke-width:0.001;font-family:Helvetica"
   x="214.60748"
   y="54.482998"
   font-size="6.5"
   id="text180-6-3">4</text>
<circle
   style="fill:#ffffff;stroke:#000000;stroke-width:0.40000001;font-family:Helvetica"
   sodipodi:ry="3.5"
   sodipodi:rx="3.5"
   sodipodi:cy="38.25"
   sodipodi:cx="225"
   transform="translate(-10.392482,43.072998)"
   cx="225"
   cy="38.25"
   r="3.5"
   id="circle192-1-4"
   d="m 228.5,38.25 c 0,1.932997 -1.567,3.5 -3.5,3.5 -1.933,0 -3.5,-1.567003 -3.5,-3.5 0,-1.932997 1.567,-3.5 3.5,-3.5 1.933,0 3.5,1.567003 3.5,3.5 z" />
<text
   style="font-size:6.5px;text-anchor:middle;fill:#000000;stroke:#000000;stroke-width:0.001;font-family:Helvetica"
   x="214.60748"
   y="83.732986"
   font-size="6.5"
   id="text194-8-1">4</text>
<line
   style="fill:#000000;stroke:#000000;stroke-width:0.2358095;font-family:Helvetica"
   x1="219.35268"
   y1="52.187439"
   x2="218.03101"
   y2="52.187439"
   id="line76-1-1" />
<line
   id="line3568-3"
   y2="52.187561"
   x2="225.49391"
   y1="52.187561"
   x1="226.8156"
   style="fill:#000000;stroke:#000000;stroke-width:0.2358095;font-family:Helvetica" />
<line
   id="line3570-8"
   y2="81.446777"
   x2="218.20869"
   y1="81.446777"
   x1="219.53036"
   style="fill:#000000;stroke:#000000;stroke-width:0.2358095;font-family:Helvetica" />
<line
   style="fill:#000000;stroke:#000000;stroke-width:0.2358095;font-family:Helvetica"
   x1="226.63791"
   y1="81.387543"
   x2="225.31622"
   y2="81.387543"
   id="line3574-7" />
<text
   x="242.65125"
   y="54.588001"
   font-size="6.5"
   style="font-size:6.5px;fill:#000000;stroke:#000000;stroke-width:0.001;font-family:Helvetica"
   id="text3630">1 4</text>
<text
   x="244.33995"
   y="69.561035"
   font-size="10"
   font-weight="bold"
   style="font-size:10px;font-weight:bold;fill:#000000;stroke:#000000;stroke-width:0.001;font-family:Helvetica"
   id="text270-4">S</text>


    path
       id=&quot;path3577&quot;
       d=&quot;m 35.079795,68.393519 0,-0.389763 0,0 c 0.03543,0.106299 0.141732,0.212598 0.283464,0.318897 0.1063,0.106299 0.318898,0.141733 0.566929,0.177166 0.354331,-0.03543 0.637796,-0.1063 0.850394,-0.283465 0.212599,-0.212598 0.354331,-0.425197 0.425197,-0.708661 0.07087,-0.248032 0.106299,-0.531496 0.106299,-0.779528 0,-0.46063 -0.106299,-0.814961 -0.318897,-1.098425 -0.248032,-0.318898 -0.56693,-0.46063 -0.992126,-0.46063 -0.177166,0 -0.354331,0.03543 -0.496063,0.106299 -0.141733,0.106299 -0.283465,0.212599 -0.389764,0.389764 l 0,0 0,-1.594488 -0.531496,0 0,4.322834 z m 1.700787,-1.559055 c 0,0.354331 -0.07087,0.637796 -0.212598,0.850394 -0.141733,0.212598 -0.354331,0.354331 -0.637796,0.354331 -0.177165,0 -0.35433,-0.07087 -0.566929,-0.212599 -0.177165,-0.177165 -0.283464,-0.425197 -0.283464,-0.850393 0,-0.177166 0,-0.354331 0.03543,-0.56693 0.03543,-0.212598 0.141732,-0.389763 0.248031,-0.531496 0.1063,-0.141732 0.318898,-0.212598 0.566929,-0.248031 0.248032,0.03543 0.46063,0.106299 0.56693,0.212598 0.141732,0.141733 0.212598,0.318898 0.248031,0.496063 0.03543,0.177166 0.03543,0.354331 0.03543,0.496063 z&quot;
       style=&quot;fill:#000000;fill-opacity:1;fill-rule:nonzero;stroke:#000000;stroke-width:0.03543307px;stroke-linecap:butt;stroke-linejoin:miter;stroke-miterlimit:4;stroke-opacity:1;stroke-dasharray:none&quot;
       inkscape:connector-curvature=&quot;0&quot; /&gt;
    
    path
       id=&quot;path3611&quot;
       d=&quot;m 32.457747,52.294211 c 0.03543,0 0.07087,0 0.141732,0 0.03543,0 0.07087,0 0.106299,0 0.212599,-0.03543 0.46063,0.03543 0.708662,0.106299 0.212598,0.1063 0.35433,0.354331 0.35433,0.708662 0,0.283464 -0.07087,0.496063 -0.248031,0.637795 -0.177166,0.177165 -0.425197,0.248031 -0.744095,0.248031 -0.389764,0 -0.673228,-0.106299 -0.779527,-0.318897 -0.141733,-0.212599 -0.177166,-0.46063 -0.177166,-0.673228 l -0.602362,0 c 0.03543,0.283464 0.07087,0.531495 0.177166,0.744094 0.106299,0.248031 0.248031,0.425197 0.496063,0.566929 0.141732,0.07087 0.248031,0.106299 0.389763,0.141732 0.141733,0.03543 0.318898,0.07087 0.46063,0.07087 0.602362,-0.03543 0.992126,-0.177165 1.275592,-0.46063 0.248031,-0.283464 0.389763,-0.637795 0.389763,-1.027558 0,-0.283465 -0.07087,-0.531497 -0.212598,-0.708662 -0.141732,-0.141736 -0.318899,-0.283468 -0.56693,-0.354334 l 0,0 c 0.141732,-0.03543 0.283465,-0.141733 0.389765,-0.283465 0.141732,-0.141732 0.212598,-0.354331 0.212598,-0.673228 0,-0.354331 -0.141732,-0.637796 -0.389765,-0.850394 -0.248031,-0.212599 -0.566929,-0.318898 -1.027559,-0.354331 -0.602362,0.03543 -0.992126,0.212599 -1.204724,0.496063 -0.177165,0.318898 -0.283465,0.673229 -0.283465,1.027559 l 0.56693,0 c 0,-0.177165 0.03543,-0.389764 0.141732,-0.637795 0.106299,-0.212598 0.35433,-0.354331 0.744094,-0.354331 0.354331,0 0.566929,0.106299 0.673229,0.248032 0.141732,0.177165 0.177165,0.318897 0.177165,0.46063 0,0.283464 -0.106299,0.496063 -0.283465,0.602362 -0.141732,0.106299 -0.35433,0.141732 -0.602362,0.141732 -0.03543,0 -0.07087,0 -0.141732,0 -0.03543,0 -0.106299,0 -0.141732,0 z&quot;
       style=&quot;fill:#000000;fill-opacity:1;fill-rule:nonzero;stroke:#000000;stroke-width:0.03543307px;stroke-linecap:butt;stroke-linejoin:miter;stroke-miterlimit:4;stroke-opacity:1;stroke-dasharray:none&quot;
       inkscape:connector-curvature=&quot;0&quot; /&gt;
    <text
   transform="scale(0.99854362,1.0014585)"
   id="text3351"
   style="font-size:5.99126148px;font-weight:normal;fill:#000000;stroke:#000000;stroke-width:0.00099854;font-family:Helvetica;-inkscape-font-specification:Helvetica"
   font-weight="bold"
   font-size="10"
   y="68.028687"
   x="17.285082">
  <tspan
     id="tspan3353"
     style="font-size:6px;stroke-width:0.00099854">tourbi</tspan>
</text>
<text
   transform="scale(0.99854362,1.0014585)"
   x="45.92741"
   y="68.029068"
   font-size="10"
   font-weight="bold"
   style="font-size:5.99126148px;font-weight:normal;fill:#000000;stroke:#000000;stroke-width:0.00099854;font-family:Helvetica;-inkscape-font-specification:Helvetica"
   id="text3355">
  <tspan
     style="font-size:6px;stroke-width:0.00099854"
     id="tspan3357">tourbi</tspan>
</text>
<text
   transform="scale(0.99854362,1.0014585)"
   x="19.717752"
   y="76.1166"
   font-size="10"
   font-weight="bold"
   style="font-size:5.99126148px;font-weight:normal;fill:#000000;stroke:#000000;stroke-width:0.00099854;font-family:Helvetica;-inkscape-font-specification:Helvetica"
   id="text3359">
  <tspan
     style="font-size:6px;stroke-width:0.00099854"
     id="tspan3361">link</tspan>
</text>
<text
   transform="scale(0.99854362,1.0014585)"
   id="text3363"
   style="font-size:5.99126148px;font-weight:normal;fill:#000000;stroke:#000000;stroke-width:0.00099854;font-family:Helvetica;-inkscape-font-specification:Helvetica"
   font-weight="bold"
   font-size="10"
   y="76.116982"
   x="48.276196">
  <tspan
     id="tspan3365"
     style="font-size:6px;stroke-width:0.00099854">link</tspan>
</text>
<text
   id="text3367"
   style="font-size:6.5px;fill:#000000;stroke:#000000;stroke-width:0.001;font-family:Helvetica"
   font-size="6.5"
   y="54.4655"
   x="18.939472">1 3x</text>
<text
   x="47.456329"
   y="54.588997"
   font-size="6.5"
   style="font-size:6.5px;fill:#000000;stroke:#000000;stroke-width:0.001;font-family:Helvetica"
   id="text3369">2x 4</text>
<line
   style="fill:#000000;stroke:#000000;stroke-width:0.40000001;font-family:Helvetica"
   x1="14.538759"
   y1="47.765251"
   x2="36.818764"
   y2="47.765251"
   id="line344-8" />
<line
   style="fill:#000000;stroke:#000000;stroke-width:0.40000001;font-family:Helvetica"
   x1="36.818764"
   y1="47.765251"
   x2="38.618763"
   y2="45.965256"
   id="line346-8" />
<line
   style="fill:#000000;stroke:#000000;stroke-width:0.40000001;font-family:Helvetica"
   x1="64.488762"
   y1="49.565254"
   x2="62.688774"
   y2="47.765251"
   id="line348-2" />
<line
   style="fill:#000000;stroke:#000000;stroke-width:0.40000001;font-family:Helvetica"
   x1="62.688774"
   y1="47.765251"
   x2="40.418751"
   y2="47.765251"
   id="line350-4" />
<line
   style="fill:#000000;stroke:#000000;stroke-width:0.40000001;font-family:Helvetica"
   x1="40.418751"
   y1="47.765251"
   x2="38.618763"
   y2="45.965256"
   id="line352-5" />
<line
   style="fill:#000000;stroke:#000000;stroke-width:0.40000001;font-family:Helvetica"
   x1="12.796"
   y1="49.588203"
   x2="14.596003"
   y2="47.7882"
   id="line342-4-5"
   inkscape:transform-center-x="3.2570094"
   inkscape:transform-center-y="14.060748" />
<text
   id="text3147"
   font-size="5"
   y="20.92384"
   x="130.72714"
   style="font-size:5px;fill:#000000;stroke-width:0.001">ptnr</text>
<text
   style="font-size:5px;fill:#000000;stroke-width:0.001"
   x="128.03088"
   y="26.541042"
   font-size="5"
   id="text3149">nearer</text>
<text
   id="text3151"
   font-size="5"
   y="32.158245"
   x="129.6037"
   style="font-size:5px;fill:#000000;stroke-width:0.001">hand</text>
<text
   id="text3153"
   font-size="5"
   y="22.946032"
   x="222.3999"
   style="font-size:5px;fill:#000000;stroke-width:0.001">w.out</text>
<text
   style="font-size:5px;fill:#000000;stroke-width:0.001"
   x="221.72585"
   y="29.461987"
   font-size="5"
   id="text3155">hands</text>
</g>
</svg>
