<?xml version="1.0" standalone="no"?>
<!DOCTYPE svg PUBLIC "-//W3C//DTD SVG 1.1//EN"
"http://www.w3.org/Graphics/SVG/1.1/DTD/svg11.dtd">
<!-- Creator: fig2dev Version 3.2 Patchlevel 5d -->
<!-- CreationDate: Thu Feb 21 11:13:30 2013 -->
<!-- Magnification: 1.050 -->
<svg	xmlns="http://www.w3.org/2000/svg"
	xmlns:xlink="http://www.w3.org/1999/xlink"
	viewBox="-23 -23 6140 1463">
<g style="stroke-width:.025in; fill:none">
<!-- Text -->
<text xml:space="preserve" x="5196" y="283" fill="#000000"  font-family="Helvetica" font-style="normal" font-weight="normal" font-size="202" text-anchor="end">Let's All Dance,Too</text>
<!-- Line -->
<polyline points="3590,661
3496,661
" style="stroke:#000000;stroke-width:8;
stroke-linejoin:miter; stroke-linecap:butt;
"/>
<!-- Text -->
<text xml:space="preserve" x="3354" y="708" fill="#000000"  font-family="Helvetica" font-style="normal" font-weight="bold" font-size="114" text-anchor="middle">1 3</text>
<!-- Text -->
<text xml:space="preserve" x="3354" y="1133" fill="#000000"  font-family="Helvetica" font-style="normal" font-weight="bold" font-size="227" text-anchor="middle">LA</text>
<!-- Circle -->
<circle cx="1984" cy="1181" r="94"
 style="stroke:#000000;stroke-width:16;"/>
<!-- Text -->
<text xml:space="preserve" x="1984" y="1228" fill="#000000"  font-family="Helvetica" font-style="normal" font-weight="bold" font-size="114" text-anchor="middle">1</text>
<!-- Line: box -->
<rect x="1889" y="519" width="188" height="188" rx="0" 
style="stroke:#000000;stroke-width:16;
stroke-linejoin:miter; stroke-linecap:butt;
"/>
<!-- Text -->
<text xml:space="preserve" x="1984" y="661" fill="#000000"  font-family="Helvetica" font-style="normal" font-weight="bold" font-size="114" text-anchor="middle">1</text>
<!-- Line -->
<polyline points="2387,1029
2383,1038
2394,1011
2407,978
2422,942
2436,906
2451,869
2465,834
2476,801
2488,771
2496,743
2503,719
2510,696
2514,675
2517,656
2518,638
2519,622
2519,605
2517,591
2515,576
2511,561
2507,548
2500,535
2494,522
2486,511
2477,499
2468,490
2457,480
2447,472
2436,466
2425,460
2413,455
2402,452
2389,450
2377,448
2366,448
2354,449
2343,450
2332,452
2321,455
2310,459
2299,464
2288,470
2278,476
2267,485
2257,493
2248,503
2240,514
2233,525
2226,538
2221,552
2217,565
2214,580
2213,595
2213,611
2215,626
2217,642
2222,659
2228,677
2236,695
2245,713
2256,733
2268,754
2282,775
2297,798
2312,822
2329,846
2347,870
2365,895
2383,919
2402,944
2418,970
2436,994
2452,1017
2467,1040
2481,1062
2494,1083
2504,1103
2514,1122
2521,1140
2528,1158
2531,1172
2533,1187
2534,1201
2534,1214
2532,1227
2529,1239
2523,1252
2518,1264
2511,1274
2502,1285
2494,1295
2483,1303
2473,1312
2461,1320
2450,1327
2437,1333
2425,1338
2412,1342
2400,1345
2387,1349
2374,1351
2362,1353
2350,1354
2339,1354
2321,1353
2304,1351
2286,1348
2268,1341
2249,1334
2229,1324
2208,1313
2185,1299
2162,1285
2139,1270
2118,1256
2101,1245
2089,1235
2081,1230
2078,1228
" style="stroke:#000000;stroke-width:16;
stroke-linejoin:bevel; stroke-linecap:butt;
"/>
<!-- Arrowhead on XXXpoint 2383 1038 - 2349 1114-->
<polygon points="2349 1036
2353 1106
2407 1061
2349 1036

" style="stroke:#000000;stroke-width:8;stroke-miterlimit:8;
fill:#000000;"/>
<!-- Line -->
<polyline points="2322,519
2334,534
2317,514
2299,495
2281,477
2265,464
2250,453
2237,446
2224,441
2213,440
2205,440
2198,441
2192,444
2184,447
2177,450
2171,454
2163,460
2157,467
2152,474
2146,482
2142,492
2138,502
2135,513
2133,525
2132,538
2132,552
2134,565
2136,580
2139,596
2144,612
2150,628
2157,645
2165,663
2176,683
2186,703
2199,724
2213,746
2227,769
2243,793
2260,818
2277,844
2295,869
2312,895
2330,920
2347,946
2364,971
2380,995
2394,1018
2408,1040
2420,1061
2432,1081
2441,1100
2450,1117
2456,1133
2461,1147
2465,1161
2467,1173
2468,1185
2468,1196
2467,1207
2465,1217
2461,1226
2457,1235
2452,1243
2446,1250
2438,1256
2431,1262
2423,1268
2414,1272
2406,1275
2396,1278
2387,1280
2377,1282
2367,1283
2358,1283
2348,1283
2340,1283
2330,1283
2314,1281
2300,1277
2285,1273
2269,1268
2255,1261
2239,1254
2224,1246
2211,1237
2197,1228
2184,1218
2172,1209
2161,1200
2151,1190
2141,1181
2131,1170
2120,1159
2111,1147
2100,1134
2091,1121
2081,1106
2073,1091
2065,1077
2057,1062
2051,1046
2045,1032
2039,1016
2034,1001
2030,985
2026,969
2020,950
2016,928
2011,902
2006,875
2001,846
1995,817
1990,792
1987,773
1985,762
1984,756
1984,755
" style="stroke:#000000;stroke-width:16;
stroke-linejoin:bevel; stroke-linecap:butt;
stroke-dasharray:20 20;"/>
<!-- Arrowhead on XXXpoint 2334 534 - 2382 590-->
<polygon points="2310 554
2375 582
2359 513
2310 554

" style="stroke:#000000;stroke-width:8;stroke-miterlimit:8;
fill:#000000;"/>
<!-- Text -->
<text xml:space="preserve" x="2362" y="1228" fill="#000000"  font-family="Helvetica" font-style="normal" font-weight="bold" font-size="114" text-anchor="middle">2</text>
<!-- Text -->
<text xml:space="preserve" x="2362" y="661" fill="#000000"  font-family="Helvetica" font-style="normal" font-weight="bold" font-size="114" text-anchor="middle">2</text>
<!-- Line -->
<polyline points="566,661
283,661
" style="stroke:#000000;stroke-width:8;
stroke-linejoin:miter; stroke-linecap:butt;
"/>
<!-- Line -->
<polyline points="1322,661
1039,661
" style="stroke:#000000;stroke-width:8;
stroke-linejoin:miter; stroke-linecap:butt;
"/>
<!-- Text -->
<text xml:space="preserve" x="803" y="708" fill="#000000"  font-family="Helvetica" font-style="normal" font-weight="bold" font-size="114" text-anchor="middle">1 2 3</text>
<!-- Text -->
<text xml:space="preserve" x="803" y="1133" fill="#000000"  font-family="Helvetica" font-style="normal" font-weight="bold" font-size="227" text-anchor="middle">S X S X</text>
<!-- Line -->
<polyline points="4015,661
3921,661
" style="stroke:#000000;stroke-width:8;
stroke-linejoin:miter; stroke-linecap:butt;
"/>
<!-- Line -->
<polyline points="4393,661
4299,661
" style="stroke:#000000;stroke-width:8;
stroke-linejoin:miter; stroke-linecap:butt;
"/>
<!-- Text -->
<text xml:space="preserve" x="4157" y="708" fill="#000000"  font-family="Helvetica" font-style="normal" font-weight="bold" font-size="114" text-anchor="middle">2 1</text>
<!-- Text -->
<text xml:space="preserve" x="4204" y="1133" fill="#000000"  font-family="Helvetica" font-style="normal" font-weight="bold" font-size="227" text-anchor="middle">RA</text>
<!-- Circle -->
<circle cx="5385" cy="1039" r="236"
 style="stroke:#000000;stroke-width:16;"/>
<!-- Text -->
<text xml:space="preserve" x="5385" y="1133" fill="#000000"  font-family="Helvetica" font-style="normal" font-weight="bold" font-size="227" text-anchor="middle">6</text>
<!-- Line -->
<polyline points="5149,661
5055,661
" style="stroke:#000000;stroke-width:8;
stroke-linejoin:miter; stroke-linecap:butt;
"/>
<!-- Line -->
<polyline points="5716,661
5622,661
" style="stroke:#000000;stroke-width:8;
stroke-linejoin:miter; stroke-linecap:butt;
"/>
<!-- Text -->
<text xml:space="preserve" x="5385" y="708" fill="#000000"  font-family="Helvetica" font-style="normal" font-weight="bold" font-size="114" text-anchor="middle">2 1 3</text>
<!-- Line -->
<polyline points="0,377
6094,377
" style="stroke:#000000;stroke-width:16;
stroke-linejoin:miter; stroke-linecap:butt;
"/>
<!-- Line: box -->
<rect x="0" y="0" width="6094" height="1417" rx="0" 
style="stroke:#000000;stroke-width:16;
stroke-linejoin:miter; stroke-linecap:butt;
"/>
<!-- Line -->
<polyline points="4724,377
4724,1417
" style="stroke:#000000;stroke-width:16;
stroke-linejoin:miter; stroke-linecap:butt;
"/>
<!-- Line -->
<polyline points="1606,377
1606,1417
" style="stroke:#000000;stroke-width:16;
stroke-linejoin:miter; stroke-linecap:butt;
"/>
<!-- Line -->
<polyline points="2834,377
2834,1417
" style="stroke:#000000;stroke-width:16;
stroke-linejoin:miter; stroke-linecap:butt;
"/>
<!-- Text -->
<text xml:space="preserve" x="141" y="283" fill="#000000"  font-family="Helvetica" font-style="normal" font-weight="normal" font-size="227" text-anchor="start">Spinning Wheel</text>
<!-- Text -->
<text xml:space="preserve" x="6000" y="283" fill="#000000"  font-family="Helvetica" font-style="normal" font-weight="normal" font-size="227" text-anchor="end">J32</text>
<!-- Line -->
<polyline points="3212,661
3118,661
" style="stroke:#000000;stroke-width:8;
stroke-linejoin:miter; stroke-linecap:butt;
"/>
</g>
</svg>
