<?xml version="1.0" standalone="no"?>
<!DOCTYPE svg PUBLIC "-//W3C//DTD SVG 1.1//EN"
"http://www.w3.org/Graphics/SVG/1.1/DTD/svg11.dtd">
<!-- Creator: fig2dev Version 3.2 Patchlevel 5e -->
<!-- CreationDate: Tue Aug  7 10:55:50 2018 -->
<!-- Magnification: 1.050 -->
<svg	xmlns="http://www.w3.org/2000/svg"
	xmlns:xlink="http://www.w3.org/1999/xlink"
	viewBox="-23 -23 6140 2644">
<g style="stroke-width:.025in; fill:none">
<!-- Text -->
<text xml:space="preserve" x="2456" y="2551" fill="#000000"  font-family="Helvetica" font-style="normal" font-weight="bold" font-size="114" text-anchor="middle">2 bars</text>
<!-- Text -->
<text xml:space="preserve" x="330" y="1133" fill="#000000"  font-family="Helvetica" font-style="normal" font-weight="bold" font-size="152" text-anchor="middle">R</text>
<!-- Arc -->
<path style="stroke:#000000;stroke-width:16;stroke-linecap:butt;"
d="M 1228,755 A 94 94  0  0  0  1039  755 " />
<!-- Arrowhead on XXXpoint 1045 721 - 1039 755-->
<polygon points="1014 713
1040 750
1076 724
1014 713

" style="stroke:#000000;stroke-width:8;stroke-miterlimit:8;
fill:#000000;"/>
<!-- Text -->
<text xml:space="preserve" x="1133" y="803" fill="#000000"  font-family="Helvetica" font-style="normal" font-weight="bold" font-size="114" text-anchor="middle">1</text>
<!-- Arc -->
<path style="stroke:#000000;stroke-width:16;stroke-linecap:butt;"
d="M 661,755 A 94 94  0  0  1  850  755 " />
<!-- Arrowhead on XXXpoint 844 721 - 850 755-->
<polygon points="812 724
849 750
874 713
812 724

" style="stroke:#000000;stroke-width:8;stroke-miterlimit:8;
fill:#000000;"/>
<!-- Text -->
<text xml:space="preserve" x="755" y="803" fill="#000000"  font-family="Helvetica" font-style="normal" font-weight="bold" font-size="114" text-anchor="middle">1</text>
<!-- Line -->
<polyline points="1275,1322
1275,1325
1274,1331
1272,1339
1269,1349
1266,1358
1261,1366
1255,1374
1249,1379
1241,1382
1232,1384
1220,1385
1208,1385
1195,1383
1181,1382
1164,1379
1147,1376
1128,1373
1109,1370
1091,1366
1072,1363
1056,1360
1039,1357
1024,1356
1012,1354
1000,1354
987,1355
978,1357
971,1360
964,1365
958,1373
954,1381
951,1391
948,1400
945,1408
944,1414
944,1417
" style="stroke:#000000;stroke-width:16;
stroke-linejoin:bevel; stroke-linecap:butt;
"/>
<!-- Line -->
<polyline points="614,1322
614,1325
615,1331
617,1339
620,1349
623,1358
627,1366
634,1374
640,1379
647,1382
657,1384
669,1385
681,1385
693,1383
708,1382
725,1379
742,1376
761,1373
780,1370
797,1366
816,1363
833,1360
850,1357
865,1356
877,1354
890,1354
901,1355
911,1357
918,1360
924,1365
931,1373
935,1381
938,1391
941,1400
943,1408
944,1414
944,1417
" style="stroke:#000000;stroke-width:16;
stroke-linejoin:bevel; stroke-linecap:butt;
"/>
<!-- Circle -->
<circle cx="2149" cy="755" r="118"
 style="stroke:#000000;stroke-width:16;"/>
<!-- Circle -->
<circle cx="2385" cy="755" r="118"
 style="stroke:#000000;stroke-width:16;"/>
<!-- Line -->
<polyline points="1984,755
2551,755
" style="stroke:#000000;stroke-width:16;
stroke-linejoin:miter; stroke-linecap:butt;
"/>
<!-- Line -->
<polyline points="2314,850
2409,944
" style="stroke:#000000;stroke-width:16;
stroke-linejoin:miter; stroke-linecap:butt;
"/>
<!-- Circle -->
<circle cx="2386" cy="1181" r="118"
 style="stroke:#000000;stroke-width:16;"/>
<!-- Circle -->
<circle cx="2150" cy="1181" r="118"
 style="stroke:#000000;stroke-width:16;"/>
<!-- Line -->
<polyline points="2551,1181
1984,1181
" style="stroke:#000000;stroke-width:16;
stroke-linejoin:miter; stroke-linecap:butt;
"/>
<!-- Line -->
<polyline points="2314,1086
2409,992
" style="stroke:#000000;stroke-width:16;
stroke-linejoin:miter; stroke-linecap:butt;
"/>
<!-- Line -->
<polyline points="3118,1322
3118,1323
3117,1327
3114,1331
3111,1336
3106,1343
3101,1351
3093,1358
3085,1364
3075,1371
3064,1375
3050,1379
3036,1382
3019,1384
2999,1385
2976,1385
2957,1385
2937,1384
2915,1384
2892,1383
2867,1381
2840,1380
2813,1378
2784,1376
2753,1374
2723,1372
2692,1370
2662,1367
2632,1365
2601,1363
2572,1361
2544,1359
2518,1358
2493,1356
2470,1355
2448,1355
2428,1354
2409,1354
2386,1354
2366,1355
2349,1357
2334,1360
2321,1364
2310,1369
2300,1375
2291,1381
2284,1388
2279,1396
2274,1403
2270,1408
2268,1413
2267,1416
2267,1417
" style="stroke:#000000;stroke-width:16;
stroke-linejoin:bevel; stroke-linecap:butt;
"/>
<!-- Line -->
<polyline points="1417,1322
1417,1323
1418,1327
1420,1331
1423,1336
1428,1343
1434,1351
1441,1358
1449,1364
1460,1371
1470,1375
1484,1379
1499,1382
1516,1384
1535,1385
1559,1385
1577,1385
1597,1384
1619,1384
1643,1383
1668,1381
1694,1380
1721,1378
1751,1376
1781,1374
1812,1372
1842,1370
1872,1367
1903,1365
1933,1363
1963,1361
1990,1359
2016,1358
2041,1356
2065,1355
2087,1355
2107,1354
2125,1354
2149,1354
2169,1355
2185,1357
2200,1360
2214,1364
2224,1369
2235,1375
2243,1381
2250,1388
2256,1396
2261,1403
2264,1408
2266,1413
2267,1416
2267,1417
" style="stroke:#000000;stroke-width:16;
stroke-linejoin:bevel; stroke-linecap:butt;
"/>
<!-- Line -->
<polyline points="1606,519
1464,519
" style="stroke:#000000;stroke-width:8;
stroke-linejoin:miter; stroke-linecap:butt;
"/>
<!-- Line -->
<polyline points="1937,519
1795,519
" style="stroke:#000000;stroke-width:8;
stroke-linejoin:miter; stroke-linecap:butt;
"/>
<!-- Text -->
<text xml:space="preserve" x="1700" y="566" fill="#000000"  font-family="Helvetica" font-style="normal" font-weight="bold" font-size="114" text-anchor="middle">2</text>
<!-- Line -->
<polyline points="2740,519
2598,519
" style="stroke:#000000;stroke-width:8;
stroke-linejoin:miter; stroke-linecap:butt;
"/>
<!-- Line -->
<polyline points="3070,519
2929,519
" style="stroke:#000000;stroke-width:8;
stroke-linejoin:miter; stroke-linecap:butt;
"/>
<!-- Text -->
<text xml:space="preserve" x="2834" y="566" fill="#000000"  font-family="Helvetica" font-style="normal" font-weight="bold" font-size="114" text-anchor="middle">4</text>
<!-- Text -->
<text xml:space="preserve" x="2834" y="1086" fill="#000000"  font-family="Helvetica" font-style="normal" font-weight="bold" font-size="152" text-anchor="middle">R1</text>
<!-- Text -->
<text xml:space="preserve" x="2692" y="1039" fill="#000000"  font-family="Helvetica" font-style="normal" font-weight="bold" font-size="227" text-anchor="middle">T</text>
<!-- Line -->
<polyline points="2976,1086
3070,897
" style="stroke:#000000;stroke-width:8;
stroke-linejoin:miter; stroke-linecap:round;
"/>
<!-- Text -->
<text xml:space="preserve" x="2976" y="992" fill="#000000"  font-family="Helvetica" font-style="normal" font-weight="bold" font-size="114" text-anchor="middle">1</text>
<!-- Text -->
<text xml:space="preserve" x="3070" y="1086" fill="#000000"  font-family="Helvetica" font-style="normal" font-weight="bold" font-size="114" text-anchor="middle">4</text>
<!-- Text -->
<text xml:space="preserve" x="1653" y="1086" fill="#000000"  font-family="Helvetica" font-style="normal" font-weight="bold" font-size="152" text-anchor="middle">R1</text>
<!-- Text -->
<text xml:space="preserve" x="1511" y="1039" fill="#000000"  font-family="Helvetica" font-style="normal" font-weight="bold" font-size="227" text-anchor="middle">T</text>
<!-- Line -->
<polyline points="1795,1086
1889,897
" style="stroke:#000000;stroke-width:8;
stroke-linejoin:miter; stroke-linecap:round;
"/>
<!-- Text -->
<text xml:space="preserve" x="1795" y="992" fill="#000000"  font-family="Helvetica" font-style="normal" font-weight="bold" font-size="114" text-anchor="middle">1</text>
<!-- Text -->
<text xml:space="preserve" x="1889" y="1086" fill="#000000"  font-family="Helvetica" font-style="normal" font-weight="bold" font-size="114" text-anchor="middle">4</text>
<!-- Circle -->
<circle cx="3354" cy="944" r="94"
 style="stroke:#000000;stroke-width:16;"/>
<!-- Line -->
<polyline points="3685,850
3543,755
3448,897
" style="stroke:#000000;stroke-width:16;
stroke-linejoin:round; stroke-linecap:round;
"/>
<!-- Line -->
<polyline points="3259,897
3354,755
3496,850
" style="stroke:#000000;stroke-width:16;
stroke-linejoin:round; stroke-linecap:round;
"/>
<!-- Line: box -->
<rect x="3496" y="850" width="188" height="188" rx="0" 
style="stroke:#000000;stroke-width:16;
stroke-linejoin:miter; stroke-linecap:butt;
"/>
<!-- Text -->
<text xml:space="preserve" x="3354" y="992" fill="#000000"  font-family="Helvetica" font-style="normal" font-weight="bold" font-size="114" text-anchor="middle">2</text>
<!-- Text -->
<text xml:space="preserve" x="3590" y="992" fill="#000000"  font-family="Helvetica" font-style="normal" font-weight="bold" font-size="114" text-anchor="middle">2</text>
<!-- Circle -->
<circle cx="3496" cy="1227" r="94"
 style="stroke:#000000;stroke-width:16;"/>
<!-- Line -->
<polyline points="3496,1133
3496,1086
" style="stroke:#000000;stroke-width:16;
stroke-linejoin:miter; stroke-linecap:butt;
"/>
<!-- Text -->
<text xml:space="preserve" x="3496" y="1274" fill="#000000"  font-family="Helvetica" font-style="normal" font-weight="bold" font-size="114" text-anchor="middle">5</text>
<!-- Line -->
<polyline points="3496,708
3496,661
" style="stroke:#000000;stroke-width:16;
stroke-linejoin:miter; stroke-linecap:butt;
"/>
<!-- Line: box -->
<rect x="3401" y="472" width="188" height="188" rx="0" 
style="stroke:#000000;stroke-width:16;
stroke-linejoin:miter; stroke-linecap:butt;
"/>
<!-- Text -->
<text xml:space="preserve" x="3496" y="614" fill="#000000"  font-family="Helvetica" font-style="normal" font-weight="bold" font-size="114" text-anchor="middle">5</text>
<!-- Circle -->
<circle cx="4629" cy="944" r="94"
 style="stroke:#000000;stroke-width:16;"/>
<!-- Line -->
<polyline points="4960,850
4818,755
4724,897
" style="stroke:#000000;stroke-width:16;
stroke-linejoin:round; stroke-linecap:round;
"/>
<!-- Line -->
<polyline points="4535,897
4629,755
4771,850
" style="stroke:#000000;stroke-width:16;
stroke-linejoin:round; stroke-linecap:round;
"/>
<!-- Line: box -->
<rect x="4771" y="850" width="188" height="188" rx="0" 
style="stroke:#000000;stroke-width:16;
stroke-linejoin:miter; stroke-linecap:butt;
"/>
<!-- Text -->
<text xml:space="preserve" x="4629" y="992" fill="#000000"  font-family="Helvetica" font-style="normal" font-weight="bold" font-size="114" text-anchor="middle">4</text>
<!-- Text -->
<text xml:space="preserve" x="4866" y="992" fill="#000000"  font-family="Helvetica" font-style="normal" font-weight="bold" font-size="114" text-anchor="middle">4</text>
<!-- Line -->
<polyline points="4724,708
4724,661
" style="stroke:#000000;stroke-width:16;
stroke-linejoin:miter; stroke-linecap:butt;
"/>
<!-- Line: box -->
<rect x="4629" y="472" width="188" height="188" rx="0" 
style="stroke:#000000;stroke-width:16;
stroke-linejoin:miter; stroke-linecap:butt;
"/>
<!-- Text -->
<text xml:space="preserve" x="4724" y="614" fill="#000000"  font-family="Helvetica" font-style="normal" font-weight="bold" font-size="114" text-anchor="middle">1</text>
<!-- Circle -->
<circle cx="4724" cy="1227" r="94"
 style="stroke:#000000;stroke-width:16;"/>
<!-- Line -->
<polyline points="4724,1133
4724,1086
" style="stroke:#000000;stroke-width:16;
stroke-linejoin:miter; stroke-linecap:butt;
"/>
<!-- Text -->
<text xml:space="preserve" x="4724" y="1274" fill="#000000"  font-family="Helvetica" font-style="normal" font-weight="bold" font-size="114" text-anchor="middle">1</text>
<!-- Circle -->
<circle cx="3968" cy="780" r="118"
 style="stroke:#000000;stroke-width:16;"/>
<!-- Circle -->
<circle cx="3968" cy="1016" r="117"
 style="stroke:#000000;stroke-width:16;"/>
<!-- Circle -->
<circle cx="4251" cy="1016" r="117"
 style="stroke:#000000;stroke-width:16;"/>
<!-- Circle -->
<circle cx="4251" cy="780" r="117"
 style="stroke:#000000;stroke-width:16;"/>
<!-- Line -->
<polyline points="3921,897
3779,992
" style="stroke:#000000;stroke-width:16;
stroke-linejoin:miter; stroke-linecap:butt;
"/>
<!-- Line -->
<polyline points="4299,897
4440,992
" style="stroke:#000000;stroke-width:16;
stroke-linejoin:miter; stroke-linecap:butt;
"/>
<!-- Line -->
<polyline points="4960,1322
4960,1323
4959,1327
4957,1331
4954,1336
4949,1343
4943,1351
4936,1358
4928,1364
4917,1371
4907,1375
4893,1379
4878,1382
4861,1384
4841,1385
4818,1385
4800,1385
4780,1384
4758,1384
4734,1383
4709,1381
4683,1380
4656,1378
4626,1376
4596,1374
4565,1372
4535,1370
4504,1367
4474,1365
4444,1363
4414,1361
4387,1359
4361,1358
4335,1356
4312,1355
4290,1355
4270,1354
4251,1354
4228,1354
4208,1355
4192,1357
4177,1360
4163,1364
4153,1369
4142,1375
4134,1381
4127,1388
4121,1396
4116,1403
4113,1408
4111,1413
4110,1416
4110,1417
" style="stroke:#000000;stroke-width:16;
stroke-linejoin:bevel; stroke-linecap:butt;
"/>
<!-- Line -->
<polyline points="3259,1322
3259,1323
3260,1327
3262,1331
3266,1336
3271,1343
3276,1351
3283,1358
3292,1364
3302,1371
3313,1375
3327,1379
3341,1382
3358,1384
3378,1385
3401,1385
3420,1385
3440,1384
3462,1384
3485,1383
3510,1381
3537,1380
3564,1378
3593,1376
3624,1374
3654,1372
3685,1370
3715,1367
3745,1365
3776,1363
3805,1361
3833,1359
3859,1358
3884,1356
3907,1355
3929,1355
3949,1354
3968,1354
3991,1354
4011,1355
4028,1357
4043,1360
4056,1364
4067,1369
4077,1375
4086,1381
4093,1388
4098,1396
4103,1403
4107,1408
4109,1413
4110,1416
4110,1417
" style="stroke:#000000;stroke-width:16;
stroke-linejoin:bevel; stroke-linecap:butt;
"/>
<!-- Circle -->
<circle cx="5244" cy="755" r="94"
 style="stroke:#000000;stroke-width:16;"/>
<!-- Text -->
<text xml:space="preserve" x="5244" y="803" fill="#000000"  font-family="Helvetica" font-style="normal" font-weight="bold" font-size="114" text-anchor="middle">2</text>
<!-- Line: box -->
<rect x="5149" y="992" width="188" height="188" rx="0" 
style="stroke:#000000;stroke-width:16;
stroke-linejoin:miter; stroke-linecap:butt;
"/>
<!-- Text -->
<text xml:space="preserve" x="5244" y="1133" fill="#000000"  font-family="Helvetica" font-style="normal" font-weight="bold" font-size="114" text-anchor="middle">2</text>
<!-- Line -->
<polyline points="5527,708
5527,661
" style="stroke:#000000;stroke-width:16;
stroke-linejoin:miter; stroke-linecap:butt;
"/>
<!-- Line: box -->
<rect x="5433" y="472" width="188" height="188" rx="0" 
style="stroke:#000000;stroke-width:16;
stroke-linejoin:miter; stroke-linecap:butt;
"/>
<!-- Text -->
<text xml:space="preserve" x="5527" y="614" fill="#000000"  font-family="Helvetica" font-style="normal" font-weight="bold" font-size="114" text-anchor="middle">3</text>
<!-- Circle -->
<circle cx="5527" cy="1274" r="94"
 style="stroke:#000000;stroke-width:16;"/>
<!-- Line -->
<polyline points="5527,1181
5527,1133
" style="stroke:#000000;stroke-width:16;
stroke-linejoin:miter; stroke-linecap:butt;
"/>
<!-- Text -->
<text xml:space="preserve" x="5527" y="1321" fill="#000000"  font-family="Helvetica" font-style="normal" font-weight="bold" font-size="114" text-anchor="middle">3</text>
<!-- Circle -->
<circle cx="5811" cy="1086" r="94"
 style="stroke:#000000;stroke-width:16;"/>
<!-- Text -->
<text xml:space="preserve" x="5811" y="1133" fill="#000000"  font-family="Helvetica" font-style="normal" font-weight="bold" font-size="114" text-anchor="middle">4</text>
<!-- Line: box -->
<rect x="5716" y="661" width="188" height="188" rx="0" 
style="stroke:#000000;stroke-width:16;
stroke-linejoin:miter; stroke-linecap:butt;
"/>
<!-- Text -->
<text xml:space="preserve" x="5811" y="803" fill="#000000"  font-family="Helvetica" font-style="normal" font-weight="bold" font-size="114" text-anchor="middle">4</text>
<!-- Line -->
<polyline points="5622,1653
5480,1653
" style="stroke:#000000;stroke-width:8;
stroke-linejoin:miter; stroke-linecap:butt;
"/>
<!-- Line -->
<polyline points="5952,1653
5811,1653
" style="stroke:#000000;stroke-width:8;
stroke-linejoin:miter; stroke-linecap:butt;
"/>
<!-- Text -->
<text xml:space="preserve" x="5716" y="1700" fill="#000000"  font-family="Helvetica" font-style="normal" font-weight="bold" font-size="114" text-anchor="middle">all</text>
<!-- Line -->
<polyline points="5007,1653
4913,1653
" style="stroke:#000000;stroke-width:8;
stroke-linejoin:miter; stroke-linecap:butt;
"/>
<!-- Line -->
<polyline points="5291,1653
5196,1653
" style="stroke:#000000;stroke-width:8;
stroke-linejoin:miter; stroke-linecap:butt;
"/>
<!-- Text -->
<text xml:space="preserve" x="5102" y="1700" fill="#000000"  font-family="Helvetica" font-style="normal" font-weight="bold" font-size="114" text-anchor="middle">31</text>
<!-- Line -->
<polyline points="4015,1653
3921,1653
" style="stroke:#000000;stroke-width:8;
stroke-linejoin:miter; stroke-linecap:butt;
"/>
<!-- Line -->
<polyline points="4299,1653
4204,1653
" style="stroke:#000000;stroke-width:8;
stroke-linejoin:miter; stroke-linecap:butt;
"/>
<!-- Text -->
<text xml:space="preserve" x="4110" y="1700" fill="#000000"  font-family="Helvetica" font-style="normal" font-weight="bold" font-size="114" text-anchor="middle">52</text>
<!-- Line -->
<polyline points="3023,1653
2929,1653
" style="stroke:#000000;stroke-width:8;
stroke-linejoin:miter; stroke-linecap:butt;
"/>
<!-- Line -->
<polyline points="3401,1653
3307,1653
" style="stroke:#000000;stroke-width:8;
stroke-linejoin:miter; stroke-linecap:butt;
"/>
<!-- Text -->
<text xml:space="preserve" x="3165" y="1700" fill="#000000"  font-family="Helvetica" font-style="normal" font-weight="bold" font-size="114" text-anchor="middle">342</text>
<!-- Line: box -->
<rect x="1086" y="1700" width="188" height="188" rx="0" 
style="stroke:#000000;stroke-width:16;
stroke-linejoin:miter; stroke-linecap:butt;
"/>
<!-- Text -->
<text xml:space="preserve" x="1181" y="1842" fill="#000000"  font-family="Helvetica" font-style="normal" font-weight="bold" font-size="114" text-anchor="middle">3</text>
<!-- Text -->
<text xml:space="preserve" x="1417" y="2078" fill="#000000"  font-family="Helvetica" font-style="normal" font-weight="bold" font-size="227" text-anchor="middle">X</text>
<!-- Text -->
<text xml:space="preserve" x="1559" y="2125" fill="#000000"  font-family="Helvetica" font-style="normal" font-weight="bold" font-size="152" text-anchor="middle"> L</text>
<!-- Circle -->
<circle cx="1511" cy="1606" r="94"
 style="stroke:#000000;stroke-width:16;"/>
<!-- Text -->
<text xml:space="preserve" x="1511" y="1653" fill="#000000"  font-family="Helvetica" font-style="normal" font-weight="bold" font-size="114" text-anchor="middle">2</text>
<!-- Line: box -->
<rect x="1417" y="2220" width="188" height="188" rx="0" 
style="stroke:#000000;stroke-width:16;
stroke-linejoin:miter; stroke-linecap:butt;
"/>
<!-- Text -->
<text xml:space="preserve" x="1511" y="2362" fill="#000000"  font-family="Helvetica" font-style="normal" font-weight="bold" font-size="114" text-anchor="middle">2</text>
<!-- Circle -->
<circle cx="1795" cy="1795" r="94"
 style="stroke:#000000;stroke-width:16;"/>
<!-- Text -->
<text xml:space="preserve" x="1795" y="1842" fill="#000000"  font-family="Helvetica" font-style="normal" font-weight="bold" font-size="114" text-anchor="middle">4</text>
<!-- Line: box -->
<rect x="1700" y="2031" width="188" height="188" rx="0" 
style="stroke:#000000;stroke-width:16;
stroke-linejoin:miter; stroke-linecap:butt;
"/>
<!-- Text -->
<text xml:space="preserve" x="1795" y="2173" fill="#000000"  font-family="Helvetica" font-style="normal" font-weight="bold" font-size="114" text-anchor="middle">4</text>
<!-- Circle -->
<circle cx="1181" cy="2125" r="94"
 style="stroke:#000000;stroke-width:16;"/>
<!-- Line -->
<polyline points="1606,2314
1748,2220
" style="stroke:#000000;stroke-width:16;
stroke-linejoin:round; stroke-linecap:round;
"/>
<!-- Line -->
<polyline points="1606,1606
1748,1700
" style="stroke:#000000;stroke-width:16;
stroke-linejoin:round; stroke-linecap:round;
"/>
<!-- Line -->
<polyline points="1181,2031
1181,1889
" style="stroke:#000000;stroke-width:16;
stroke-linejoin:round; stroke-linecap:round;
"/>
<!-- Text -->
<text xml:space="preserve" x="1181" y="2173" fill="#000000"  font-family="Helvetica" font-style="normal" font-weight="bold" font-size="114" text-anchor="middle">3</text>
<!-- Text -->
<text xml:space="preserve" x="472" y="2078" fill="#000000"  font-family="Helvetica" font-style="normal" font-weight="bold" font-size="227" text-anchor="middle">X</text>
<!-- Text -->
<text xml:space="preserve" x="614" y="2125" fill="#000000"  font-family="Helvetica" font-style="normal" font-weight="bold" font-size="152" text-anchor="middle"> R</text>
<!-- Circle -->
<circle cx="236" cy="1795" r="94"
 style="stroke:#000000;stroke-width:16;"/>
<!-- Text -->
<text xml:space="preserve" x="236" y="1842" fill="#000000"  font-family="Helvetica" font-style="normal" font-weight="bold" font-size="114" text-anchor="middle">2</text>
<!-- Line: box -->
<rect x="425" y="1511" width="188" height="188" rx="0" 
style="stroke:#000000;stroke-width:16;
stroke-linejoin:miter; stroke-linecap:butt;
"/>
<!-- Text -->
<text xml:space="preserve" x="519" y="1653" fill="#000000"  font-family="Helvetica" font-style="normal" font-weight="bold" font-size="114" text-anchor="middle">3</text>
<!-- Line -->
<polyline points="283,1700
425,1606
" style="stroke:#000000;stroke-width:16;
stroke-linejoin:round; stroke-linecap:round;
"/>
<!-- Line: box -->
<rect x="141" y="2031" width="188" height="188" rx="0" 
style="stroke:#000000;stroke-width:16;
stroke-linejoin:miter; stroke-linecap:butt;
"/>
<!-- Text -->
<text xml:space="preserve" x="236" y="2173" fill="#000000"  font-family="Helvetica" font-style="normal" font-weight="bold" font-size="114" text-anchor="middle">2</text>
<!-- Circle -->
<circle cx="519" cy="2313" r="94"
 style="stroke:#000000;stroke-width:16;"/>
<!-- Text -->
<text xml:space="preserve" x="519" y="2361" fill="#000000"  font-family="Helvetica" font-style="normal" font-weight="bold" font-size="114" text-anchor="middle">3</text>
<!-- Line -->
<polyline points="283,2220
425,2314
" style="stroke:#000000;stroke-width:16;
stroke-linejoin:round; stroke-linecap:round;
"/>
<!-- Line: box -->
<rect x="755" y="1700" width="188" height="188" rx="0" 
style="stroke:#000000;stroke-width:16;
stroke-linejoin:miter; stroke-linecap:butt;
"/>
<!-- Text -->
<text xml:space="preserve" x="850" y="1842" fill="#000000"  font-family="Helvetica" font-style="normal" font-weight="bold" font-size="114" text-anchor="middle">4</text>
<!-- Circle -->
<circle cx="850" cy="2125" r="94"
 style="stroke:#000000;stroke-width:16;"/>
<!-- Text -->
<text xml:space="preserve" x="850" y="2173" fill="#000000"  font-family="Helvetica" font-style="normal" font-weight="bold" font-size="114" text-anchor="middle">4</text>
<!-- Line -->
<polyline points="850,2031
850,1889
" style="stroke:#000000;stroke-width:16;
stroke-linejoin:round; stroke-linecap:round;
"/>
<!-- Line -->
<polyline points="1039,1086
1039,1181
" style="stroke:#000000;stroke-width:16;
stroke-linejoin:miter; stroke-linecap:butt;
"/>
<!-- Line -->
<polyline points="1039,1133
1228,1133
" style="stroke:#000000;stroke-width:16;
stroke-linejoin:miter; stroke-linecap:butt;
"/>
<!-- Line -->
<polyline points="1039,1133
1193,1133
" style="stroke:#000000;stroke-width:16;
stroke-linejoin:miter; stroke-linecap:butt;
"/>
<!-- Arrowhead on XXXpoint 1039 1133 - 1259 1133-->
<polyline points="1185 1196
1248 1133
1185 1070
" style="stroke:#000000;stroke-width:16;stroke-miterlimit:8;
"/>
<!-- Line -->
<polyline points="850,1133
695,1133
" style="stroke:#000000;stroke-width:16;
stroke-linejoin:miter; stroke-linecap:butt;
"/>
<!-- Arrowhead on XXXpoint 850 1133 - 629 1133-->
<polyline points="704 1070
641 1133
704 1196
" style="stroke:#000000;stroke-width:16;stroke-miterlimit:8;
"/>
<!-- Line -->
<polyline points="850,1086
850,1181
" style="stroke:#000000;stroke-width:16;
stroke-linejoin:miter; stroke-linecap:butt;
"/>
<!-- Line -->
<polyline points="850,1133
661,1133
" style="stroke:#000000;stroke-width:16;
stroke-linejoin:miter; stroke-linecap:butt;
"/>
<!-- Circle -->
<circle cx="3165" cy="1984" r="236"
 style="stroke:#000000;stroke-width:16;"/>
<!-- Line -->
<polyline points="2929,1984
2929,2220
" style="stroke:#000000;stroke-width:16;
stroke-linejoin:miter; stroke-linecap:butt;
fill:#000000;
"/>
<!-- Text -->
<text xml:space="preserve" x="3165" y="2078" fill="#000000"  font-family="Helvetica" font-style="normal" font-weight="bold" font-size="227" text-anchor="middle">6</text>
<!-- Text -->
<text xml:space="preserve" x="4535" y="2078" fill="#000000"  font-family="Helvetica" font-style="normal" font-weight="bold" font-size="227" text-anchor="middle">X</text>
<!-- Text -->
<text xml:space="preserve" x="4677" y="2125" fill="#000000"  font-family="Helvetica" font-style="normal" font-weight="bold" font-size="152" text-anchor="middle"> R</text>
<!-- Text -->
<text xml:space="preserve" x="5763" y="2078" fill="#000000"  font-family="Helvetica" font-style="normal" font-weight="bold" font-size="227" text-anchor="middle">X</text>
<!-- Text -->
<text xml:space="preserve" x="5905" y="2125" fill="#000000"  font-family="Helvetica" font-style="normal" font-weight="bold" font-size="152" text-anchor="middle"> R</text>
<!-- Line -->
<polyline points="5291,2173
5290,2175
5289,2178
5287,2184
5282,2192
5277,2200
5271,2208
5262,2216
5253,2222
5241,2227
5228,2232
5213,2234
5194,2236
5173,2236
5155,2236
5137,2235
5117,2234
5095,2233
5071,2232
5046,2229
5020,2227
4993,2225
4964,2222
4936,2220
4909,2218
4880,2215
4853,2213
4827,2211
4802,2208
4779,2207
4756,2206
4737,2205
4718,2204
4701,2204
4679,2204
4660,2206
4645,2208
4632,2213
4620,2218
4611,2224
4602,2232
4596,2240
4591,2248
4586,2256
4584,2262
4583,2265
4582,2267
" style="stroke:#000000;stroke-width:16;
stroke-linejoin:bevel; stroke-linecap:butt;
"/>
<!-- Line -->
<polyline points="3874,2173
3875,2175
3876,2178
3878,2184
3882,2192
3887,2200
3893,2208
3902,2216
3911,2222
3923,2227
3937,2232
3951,2234
3970,2236
3992,2236
4009,2236
4028,2235
4048,2234
4070,2233
4093,2232
4118,2229
4144,2227
4172,2225
4200,2222
4228,2220
4256,2218
4284,2215
4311,2213
4338,2211
4363,2208
4386,2207
4408,2206
4428,2205
4447,2204
4465,2204
4486,2204
4504,2206
4519,2208
4533,2213
4544,2218
4554,2224
4562,2232
4569,2240
4574,2248
4578,2256
4580,2262
4581,2265
4582,2267
" style="stroke:#000000;stroke-width:16;
stroke-linejoin:bevel; stroke-linecap:butt;
"/>
<!-- Circle -->
<circle cx="2740" cy="1795" r="94"
 style="stroke:#000000;stroke-width:16;"/>
<!-- Text -->
<text xml:space="preserve" x="2740" y="1842" fill="#000000"  font-family="Helvetica" font-style="normal" font-weight="bold" font-size="114" text-anchor="middle">2</text>
<!-- Line: box -->
<rect x="2645" y="2031" width="188" height="188" rx="0" 
style="stroke:#000000;stroke-width:16;
stroke-linejoin:miter; stroke-linecap:butt;
"/>
<!-- Text -->
<text xml:space="preserve" x="2740" y="2173" fill="#000000"  font-family="Helvetica" font-style="normal" font-weight="bold" font-size="114" text-anchor="middle">2</text>
<!-- Circle -->
<circle cx="2173" cy="1795" r="94"
 style="stroke:#000000;stroke-width:16;"/>
<!-- Text -->
<text xml:space="preserve" x="2173" y="1842" fill="#000000"  font-family="Helvetica" font-style="normal" font-weight="bold" font-size="114" text-anchor="middle">3</text>
<!-- Line: box -->
<rect x="2078" y="2031" width="188" height="188" rx="0" 
style="stroke:#000000;stroke-width:16;
stroke-linejoin:miter; stroke-linecap:butt;
"/>
<!-- Text -->
<text xml:space="preserve" x="2173" y="2173" fill="#000000"  font-family="Helvetica" font-style="normal" font-weight="bold" font-size="114" text-anchor="middle">3</text>
<!-- Text -->
<text xml:space="preserve" x="2409" y="2078" fill="#000000"  font-family="Helvetica" font-style="normal" font-weight="bold" font-size="227" text-anchor="middle">T</text>
<!-- Text -->
<text xml:space="preserve" x="2551" y="2125" fill="#000000"  font-family="Helvetica" font-style="normal" font-weight="bold" font-size="152" text-anchor="middle">R</text>
<!-- Circle -->
<circle cx="2456" cy="1606" r="94"
 style="stroke:#000000;stroke-width:16;"/>
<!-- Line -->
<polyline points="2740,2031
2740,1889
" style="stroke:#000000;stroke-width:16;
stroke-linejoin:round; stroke-linecap:round;
"/>
<!-- Line -->
<polyline points="2220,1700
2362,1606
" style="stroke:#000000;stroke-width:16;
stroke-linejoin:round; stroke-linecap:round;
"/>
<!-- Line -->
<polyline points="2220,2220
2362,2314
" style="stroke:#000000;stroke-width:16;
stroke-linejoin:round; stroke-linecap:round;
"/>
<!-- Line: box -->
<rect x="2362" y="2220" width="188" height="188" rx="0" 
style="stroke:#000000;stroke-width:16;
stroke-linejoin:miter; stroke-linecap:butt;
"/>
<!-- Text -->
<text xml:space="preserve" x="2456" y="2362" fill="#000000"  font-family="Helvetica" font-style="normal" font-weight="bold" font-size="114" text-anchor="middle">4</text>
<!-- Text -->
<text xml:space="preserve" x="2456" y="1653" fill="#000000"  font-family="Helvetica" font-style="normal" font-weight="bold" font-size="114" text-anchor="middle">4</text>
<!-- Line -->
<polyline points="1370,425
1370,1464
" style="stroke:#000000;stroke-width:16;
stroke-linejoin:miter; stroke-linecap:butt;
stroke-dasharray:62 62;"/>
<!-- Line -->
<polyline points="3165,377
3165,1464
" style="stroke:#000000;stroke-width:16;
stroke-linejoin:miter; stroke-linecap:butt;
"/>
<!-- Line -->
<polyline points="5055,377
5055,1464
" style="stroke:#000000;stroke-width:16;
stroke-linejoin:miter; stroke-linecap:butt;
"/>
<!-- Line -->
<polyline points="0,1464
6094,1464
" style="stroke:#000000;stroke-width:16;
stroke-linejoin:miter; stroke-linecap:butt;
"/>
<!-- Line -->
<polyline points="5622,1275
5763,1181
" style="stroke:#000000;stroke-width:16;
stroke-linejoin:round; stroke-linecap:round;
"/>
<!-- Line -->
<polyline points="5244,992
5244,850
" style="stroke:#000000;stroke-width:16;
stroke-linejoin:round; stroke-linecap:round;
"/>
<!-- Line -->
<polyline points="5811,992
5811,850
" style="stroke:#000000;stroke-width:16;
stroke-linejoin:round; stroke-linecap:round;
"/>
<!-- Line -->
<polyline points="5291,661
5433,566
" style="stroke:#000000;stroke-width:16;
stroke-linejoin:round; stroke-linecap:round;
"/>
<!-- Line -->
<polyline points="5622,566
5763,661
" style="stroke:#000000;stroke-width:16;
stroke-linejoin:round; stroke-linecap:round;
"/>
<!-- Line -->
<polyline points="5291,1181
5433,1275
" style="stroke:#000000;stroke-width:16;
stroke-linejoin:round; stroke-linecap:round;
"/>
<!-- Line -->
<polyline points="3496,1464
3496,2598
" style="stroke:#000000;stroke-width:16;
stroke-linejoin:miter; stroke-linecap:butt;
"/>
<!-- Line -->
<polyline points="0,377
6094,377
" style="stroke:#000000;stroke-width:16;
stroke-linejoin:miter; stroke-linecap:butt;
"/>
<!-- Line: box -->
<rect x="0" y="0" width="6094" height="2598" rx="0" 
style="stroke:#000000;stroke-width:16;
stroke-linejoin:miter; stroke-linecap:butt;
"/>
<!-- Line -->
<polyline points="47,1464
47,2598
" style="stroke:#000000;stroke-width:16;
stroke-linejoin:miter; stroke-linecap:butt;
stroke-dasharray:31 31;"/>
<!-- Line -->
<polyline points="6047,377
6047,1464
" style="stroke:#000000;stroke-width:16;
stroke-linejoin:miter; stroke-linecap:butt;
stroke-dasharray:31 31;"/>
<!-- Line -->
<polyline points="2881,1984
3448,1984
" style="stroke:#000000;stroke-width:16;
stroke-linejoin:miter; stroke-linecap:butt;
"/>
<!-- Line -->
<polyline points="1984,1464
1984,2598
" style="stroke:#000000;stroke-width:16;
stroke-linejoin:miter; stroke-linecap:butt;
stroke-dasharray:62 62;"/>
<!-- Line -->
<polyline points="4866,1984
5338,1984
" style="stroke:#000000;stroke-width:16;
stroke-linejoin:miter; stroke-linecap:square;
"/>
<!-- Line -->
<polyline points="3874,1984
4346,1984
" style="stroke:#000000;stroke-width:16;
stroke-linejoin:miter; stroke-linecap:square;
"/>
<!-- Text -->
<text xml:space="preserve" x="6047" y="283" fill="#000000"  font-family="Helvetica" font-style="normal" font-weight="normal" font-size="227" text-anchor="end">S5x32</text>
<!-- Text -->
<text xml:space="preserve" x="236" y="566" fill="#000000"  font-family="Helvetica" font-style="normal" font-weight="bold" font-size="114" text-anchor="middle">1 5</text>
<!-- Text -->
<text xml:space="preserve" x="755" y="566" fill="#000000"  font-family="Helvetica" font-style="normal" font-weight="bold" font-size="114" text-anchor="middle">1</text>
<!-- Text -->
<text xml:space="preserve" x="1133" y="566" fill="#000000"  font-family="Helvetica" font-style="normal" font-weight="bold" font-size="114" text-anchor="middle">5</text>
<!-- Text -->
<text xml:space="preserve" x="755" y="1039" fill="#000000"  font-family="Helvetica" font-style="normal" font-weight="bold" font-size="114" text-anchor="middle">2</text>
<!-- Text -->
<text xml:space="preserve" x="1133" y="1039" fill="#000000"  font-family="Helvetica" font-style="normal" font-weight="bold" font-size="114" text-anchor="middle">4</text>
<!-- Text -->
<text xml:space="preserve" x="2267" y="566" fill="#000000"  font-family="Helvetica" font-style="normal" font-weight="bold" font-size="114" text-anchor="middle">1 3 5</text>
<!-- Text -->
<text xml:space="preserve" x="4110" y="614" fill="#000000"  font-family="Helvetica" font-style="normal" font-weight="bold" font-size="114" text-anchor="middle">3</text>
<!-- Text -->
<text xml:space="preserve" x="4110" y="1275" fill="#000000"  font-family="Helvetica" font-style="normal" font-weight="bold" font-size="114" text-anchor="middle">3</text>
<!-- Text -->
<text xml:space="preserve" x="5527" y="1039" fill="#000000"  font-family="Helvetica" font-style="normal" font-weight="bold" font-size="227" text-anchor="middle">S</text>
<!-- Text -->
<text xml:space="preserve" x="4582" y="1700" fill="#000000"  font-family="Helvetica" font-style="normal" font-weight="bold" font-size="114" text-anchor="middle">4</text>
<!-- Text -->
<text xml:space="preserve" x="3685" y="1700" fill="#000000"  font-family="Helvetica" font-style="normal" font-weight="bold" font-size="114" text-anchor="middle">all</text>
<!-- Text -->
<text xml:space="preserve" x="6047" y="2503" fill="#000000"  font-family="Helvetica" font-style="normal" font-weight="bold" font-size="114" text-anchor="end">to: 25413</text>
<!-- Text -->
<text xml:space="preserve" x="94" y="283" fill="#000000"  font-family="Helvetica" font-style="normal" font-weight="normal" font-size="227" text-anchor="start">Susie Petrov's Strathspey</text>
<!-- Text -->
<text xml:space="preserve" x="5007" y="283" fill="#000000"  font-family="Helvetica" font-style="normal" font-weight="normal" font-size="177" text-anchor="end">Kent Smith</text>
<!-- Text -->
<text xml:space="preserve" x="1039" y="2551" fill="#000000"  font-family="Helvetica" font-style="normal" font-weight="bold" font-size="114" text-anchor="middle">1 bar per hand</text>
<!-- Text -->
<text xml:space="preserve" x="3685" y="2078" fill="#000000"  font-family="Helvetica" font-style="normal" font-weight="bold" font-size="227" text-anchor="middle">S</text>
<!-- Text -->
<text xml:space="preserve" x="4110" y="2078" fill="#000000"  font-family="Helvetica" font-style="normal" font-weight="bold" font-size="227" text-anchor="middle">RA</text>
<!-- Text -->
<text xml:space="preserve" x="5102" y="2078" fill="#000000"  font-family="Helvetica" font-style="normal" font-weight="bold" font-size="227" text-anchor="middle">RA</text>
<!-- Text -->
<text xml:space="preserve" x="5574" y="2078" fill="#000000"  font-family="Helvetica" font-style="normal" font-weight="bold" font-size="227" text-anchor="middle">S</text>
<!-- Text -->
<text xml:space="preserve" x="188" y="1086" fill="#000000"  font-family="Helvetica" font-style="normal" font-weight="bold" font-size="227" text-anchor="middle">T</text>
</g>
</svg>
