<?xml version="1.0" standalone="no"?>
<!DOCTYPE svg PUBLIC "-//W3C//DTD SVG 1.1//EN"
"http://www.w3.org/Graphics/SVG/1.1/DTD/svg11.dtd">
<!-- Creator: fig2dev Version 3.2 Patchlevel 5d -->
<!-- CreationDate: Sun May 25 15:49:52 2014 -->
<!-- Magnification: 1.050 -->
<svg	xmlns="http://www.w3.org/2000/svg"
	xmlns:xlink="http://www.w3.org/1999/xlink"
	viewBox="-23 -23 6140 2833">
<g style="stroke-width:.025in; fill:none">
<!-- Text -->
<text xml:space="preserve" x="4866" y="283" fill="#000000"  font-family="Helvetica" font-style="normal" font-weight="normal" font-size="177" text-anchor="end">R. Downey</text>
<!-- Text -->
<text xml:space="preserve" x="236" y="2503" fill="#000000"  font-family="Helvetica" font-style="normal" font-weight="bold" font-size="114" text-anchor="middle">1</text>
<!-- Line: box -->
<rect x="377" y="2125" width="188" height="188" rx="0" 
style="stroke:#000000;stroke-width:16;
stroke-linejoin:miter; stroke-linecap:butt;
"/>
<!-- Text -->
<text xml:space="preserve" x="472" y="2267" fill="#000000"  font-family="Helvetica" font-style="normal" font-weight="bold" font-size="114" text-anchor="middle">1</text>
<!-- Circle -->
<circle cx="708" cy="1984" r="94"
 style="stroke:#000000;stroke-width:16;"/>
<!-- Text -->
<text xml:space="preserve" x="708" y="2031" fill="#000000"  font-family="Helvetica" font-style="normal" font-weight="bold" font-size="114" text-anchor="middle">2</text>
<!-- Line: box -->
<rect x="850" y="1653" width="188" height="188" rx="0" 
style="stroke:#000000;stroke-width:16;
stroke-linejoin:miter; stroke-linecap:butt;
"/>
<!-- Text -->
<text xml:space="preserve" x="944" y="1795" fill="#000000"  font-family="Helvetica" font-style="normal" font-weight="bold" font-size="114" text-anchor="middle">2</text>
<!-- Line -->
<polyline points="944,1842
897,1937
803,1984
" style="stroke:#000000;stroke-width:16;
stroke-linejoin:miter; stroke-linecap:round;
"/>
<!-- Line -->
<polyline points="708,1889
755,1795
850,1748
" style="stroke:#000000;stroke-width:16;
stroke-linejoin:miter; stroke-linecap:round;
"/>
<!-- Line -->
<polyline points="472,2314
425,2409
330,2456
" style="stroke:#000000;stroke-width:16;
stroke-linejoin:miter; stroke-linecap:round;
"/>
<!-- Line -->
<polyline points="236,2362
283,2267
377,2220
" style="stroke:#000000;stroke-width:16;
stroke-linejoin:miter; stroke-linecap:round;
"/>
<!-- Text -->
<text xml:space="preserve" x="716" y="2362" fill="#000000"  font-family="Helvetica" font-style="normal" font-weight="bold" font-size="227" text-anchor="middle">S</text>
<!-- Text -->
<text xml:space="preserve" x="810" y="2409" fill="#000000"  font-family="Helvetica" font-style="normal" font-weight="bold" font-size="126" text-anchor="start">HG</text>
<!-- Circle -->
<circle cx="1511" cy="1748" r="94"
 style="stroke:#000000;stroke-width:16;"/>
<!-- Text -->
<text xml:space="preserve" x="1511" y="1795" fill="#000000"  font-family="Helvetica" font-style="normal" font-weight="bold" font-size="114" text-anchor="middle">2</text>
<!-- Line: box -->
<rect x="1417" y="1889" width="188" height="188" rx="0" 
style="stroke:#000000;stroke-width:16;
stroke-linejoin:miter; stroke-linecap:butt;
"/>
<!-- Text -->
<text xml:space="preserve" x="1511" y="2031" fill="#000000"  font-family="Helvetica" font-style="normal" font-weight="bold" font-size="114" text-anchor="middle">2</text>
<!-- Line: box -->
<rect x="1417" y="2362" width="188" height="188" rx="0" 
style="stroke:#000000;stroke-width:16;
stroke-linejoin:miter; stroke-linecap:butt;
"/>
<!-- Text -->
<text xml:space="preserve" x="1511" y="2503" fill="#000000"  font-family="Helvetica" font-style="normal" font-weight="bold" font-size="114" text-anchor="middle">1</text>
<!-- Circle -->
<circle cx="1511" cy="2220" r="94"
 style="stroke:#000000;stroke-width:16;"/>
<!-- Text -->
<text xml:space="preserve" x="1511" y="2267" fill="#000000"  font-family="Helvetica" font-style="normal" font-weight="bold" font-size="114" text-anchor="middle">1</text>
<!-- Line -->
<polyline points="1417,1984
1322,1842
1417,1748
" style="stroke:#000000;stroke-width:16;
stroke-linejoin:miter; stroke-linecap:round;
"/>
<!-- Line -->
<polyline points="1606,1748
1700,1842
1606,1984
" style="stroke:#000000;stroke-width:16;
stroke-linejoin:miter; stroke-linecap:round;
"/>
<!-- Line -->
<polyline points="1606,2220
1700,2314
1606,2456
" style="stroke:#000000;stroke-width:16;
stroke-linejoin:miter; stroke-linecap:round;
"/>
<!-- Line -->
<polyline points="1417,2456
1322,2314
1417,2220
" style="stroke:#000000;stroke-width:16;
stroke-linejoin:miter; stroke-linecap:round;
"/>
<!-- Text -->
<text xml:space="preserve" x="1748" y="2267" fill="#000000"  font-family="Helvetica" font-style="normal" font-weight="bold" font-size="227" text-anchor="middle">S</text>
<!-- Text -->
<text xml:space="preserve" x="1842" y="2314" fill="#000000"  font-family="Helvetica" font-style="normal" font-weight="bold" font-size="126" text-anchor="start">HG</text>
<!-- Line: box -->
<rect x="2362" y="1653" width="188" height="188" rx="0" 
style="stroke:#000000;stroke-width:16;
stroke-linejoin:miter; stroke-linecap:butt;
"/>
<!-- Text -->
<text xml:space="preserve" x="2456" y="1795" fill="#000000"  font-family="Helvetica" font-style="normal" font-weight="bold" font-size="114" text-anchor="middle">2</text>
<!-- Circle -->
<circle cx="2692" cy="1984" r="94"
 style="stroke:#000000;stroke-width:16;"/>
<!-- Text -->
<text xml:space="preserve" x="2692" y="2031" fill="#000000"  font-family="Helvetica" font-style="normal" font-weight="bold" font-size="114" text-anchor="middle">2</text>
<!-- Line: box -->
<rect x="2834" y="2125" width="188" height="188" rx="0" 
style="stroke:#000000;stroke-width:16;
stroke-linejoin:miter; stroke-linecap:butt;
"/>
<!-- Text -->
<text xml:space="preserve" x="2929" y="2267" fill="#000000"  font-family="Helvetica" font-style="normal" font-weight="bold" font-size="114" text-anchor="middle">1</text>
<!-- Circle -->
<circle cx="3165" cy="2456" r="94"
 style="stroke:#000000;stroke-width:16;"/>
<!-- Text -->
<text xml:space="preserve" x="3165" y="2503" fill="#000000"  font-family="Helvetica" font-style="normal" font-weight="bold" font-size="114" text-anchor="middle">1</text>
<!-- Line -->
<polyline points="2598,1984
2503,1937
2456,1842
" style="stroke:#000000;stroke-width:16;
stroke-linejoin:miter; stroke-linecap:round;
"/>
<!-- Line -->
<polyline points="2551,1748
2645,1795
2692,1889
" style="stroke:#000000;stroke-width:16;
stroke-linejoin:miter; stroke-linecap:round;
"/>
<!-- Line -->
<polyline points="3023,2220
3118,2267
3165,2362
" style="stroke:#000000;stroke-width:16;
stroke-linejoin:miter; stroke-linecap:round;
"/>
<!-- Line -->
<polyline points="3070,2456
2976,2409
2929,2314
" style="stroke:#000000;stroke-width:16;
stroke-linejoin:miter; stroke-linecap:round;
"/>
<!-- Text -->
<text xml:space="preserve" x="2936" y="2031" fill="#000000"  font-family="Helvetica" font-style="normal" font-weight="bold" font-size="227" text-anchor="middle">S</text>
<!-- Text -->
<text xml:space="preserve" x="3030" y="2078" fill="#000000"  font-family="Helvetica" font-style="normal" font-weight="bold" font-size="126" text-anchor="start">HG</text>
<!-- Line -->
<polyline points="141,2692
992,2692
" style="stroke:#000000;stroke-width:8;
stroke-linejoin:miter; stroke-linecap:butt;
"/>
<!-- Line -->
<polyline points="3826,2692
4677,2692
" style="stroke:#000000;stroke-width:8;
stroke-linejoin:miter; stroke-linecap:butt;
"/>
<!-- Text -->
<text xml:space="preserve" x="2409" y="2740" fill="#000000"  font-family="Helvetica" font-style="normal" font-weight="normal" font-size="126" text-anchor="middle">HELLO GOODBYE POUSSETTE</text>
<!-- Line -->
<polygon points="3826,2267
3685,2409
3826,2551
3968,2409
3826,2267
" style="stroke:#000000;stroke-width:16;
stroke-linejoin:miter; stroke-linecap:butt;
"/>
<!-- Text -->
<text xml:space="preserve" x="3833" y="2480" fill="#000000"  font-family="Helvetica" font-style="normal" font-weight="bold" font-size="114" text-anchor="middle">T</text>
<!-- Text -->
<text xml:space="preserve" x="4352" y="2480" fill="#000000"  font-family="Helvetica" font-style="normal" font-weight="bold" font-size="114" text-anchor="middle">to sides</text>
<!-- Circle -->
<circle cx="3637" cy="2078" r="94"
 style="stroke:#000000;stroke-width:16;"/>
<!-- Text -->
<text xml:space="preserve" x="3637" y="2125" fill="#000000"  font-family="Helvetica" font-style="normal" font-weight="bold" font-size="114" text-anchor="middle">2</text>
<!-- Circle -->
<circle cx="4204" cy="2078" r="94"
 style="stroke:#000000;stroke-width:16;"/>
<!-- Text -->
<text xml:space="preserve" x="4204" y="2125" fill="#000000"  font-family="Helvetica" font-style="normal" font-weight="bold" font-size="114" text-anchor="middle">1</text>
<!-- Line: box -->
<rect x="3874" y="1984" width="188" height="188" rx="0" 
style="stroke:#000000;stroke-width:16;
stroke-linejoin:miter; stroke-linecap:butt;
"/>
<!-- Text -->
<text xml:space="preserve" x="3968" y="2125" fill="#000000"  font-family="Helvetica" font-style="normal" font-weight="bold" font-size="114" text-anchor="middle">2</text>
<!-- Line: box -->
<rect x="4440" y="1984" width="188" height="188" rx="0" 
style="stroke:#000000;stroke-width:16;
stroke-linejoin:miter; stroke-linecap:butt;
"/>
<!-- Text -->
<text xml:space="preserve" x="4535" y="2125" fill="#000000"  font-family="Helvetica" font-style="normal" font-weight="bold" font-size="114" text-anchor="middle">1</text>
<!-- Line -->
<polyline points="3732,2078
3779,2078
" style="stroke:#000000;stroke-width:16;
stroke-linejoin:miter; stroke-linecap:round;
"/>
<!-- Line -->
<polyline points="3826,2078
3874,2078
" style="stroke:#000000;stroke-width:16;
stroke-linejoin:miter; stroke-linecap:round;
"/>
<!-- Line -->
<polyline points="4299,2078
4346,2078
" style="stroke:#000000;stroke-width:16;
stroke-linejoin:miter; stroke-linecap:round;
"/>
<!-- Line -->
<polyline points="4393,2078
4440,2078
" style="stroke:#000000;stroke-width:16;
stroke-linejoin:miter; stroke-linecap:round;
"/>
<!-- Line -->
<polyline points="3968,1748
3590,1748
" style="stroke:#000000;stroke-width:8;
stroke-linejoin:miter; stroke-linecap:butt;
"/>
<!-- Line -->
<polyline points="4629,1748
4251,1748
" style="stroke:#000000;stroke-width:8;
stroke-linejoin:miter; stroke-linecap:butt;
"/>
<!-- Text -->
<text xml:space="preserve" x="4110" y="1795" fill="#000000"  font-family="Helvetica" font-style="normal" font-weight="bold" font-size="114" text-anchor="middle">2 1</text>
<!-- Line -->
<polyline points="1181,1559
1181,2551
" style="stroke:#000000;stroke-width:16;
stroke-linejoin:miter; stroke-linecap:butt;
stroke-dasharray:31 31;"/>
<!-- Line -->
<polyline points="2220,1559
2220,2551
" style="stroke:#000000;stroke-width:16;
stroke-linejoin:miter; stroke-linecap:butt;
stroke-dasharray:62 62;"/>
<!-- Line -->
<polyline points="3401,1559
3401,2551
" style="stroke:#000000;stroke-width:16;
stroke-linejoin:miter; stroke-linecap:butt;
stroke-dasharray:31 31;"/>
<!-- Circle -->
<circle cx="322" cy="709" r="118"
 style="stroke:#000000;stroke-width:16;"/>
<!-- Circle -->
<circle cx="558" cy="709" r="118"
 style="stroke:#000000;stroke-width:16;"/>
<!-- Circle -->
<circle cx="322" cy="1182" r="118"
 style="stroke:#000000;stroke-width:16;"/>
<!-- Circle -->
<circle cx="558" cy="1182" r="118"
 style="stroke:#000000;stroke-width:16;"/>
<!-- Circle -->
<circle cx="440" cy="1370" r="47"
 style="stroke:#000000;stroke-width:8;"/>
<!-- Circle -->
<circle cx="438" cy="1369" r="18"
 style="fill:#000000;stroke:#000000;stroke-width:8;"/>
<!-- Text -->
<text xml:space="preserve" x="1235" y="535" fill="#000000"  font-family="Helvetica" font-style="normal" font-weight="bold" font-size="114" text-anchor="middle">1 (bar 7-8)</text>
<!-- Circle -->
<circle cx="1156" cy="709" r="118"
 style="stroke:#000000;stroke-width:16;"/>
<!-- Circle -->
<circle cx="1393" cy="709" r="118"
 style="stroke:#000000;stroke-width:16;"/>
<!-- Circle -->
<circle cx="1156" cy="1182" r="118"
 style="stroke:#000000;stroke-width:16;"/>
<!-- Circle -->
<circle cx="1393" cy="1182" r="118"
 style="stroke:#000000;stroke-width:16;"/>
<!-- Line -->
<polyline points="1275,708
1275,709
1275,712
1275,723
1275,741
1275,765
1275,795
1275,831
1275,868
1275,904
1275,940
1275,973
1275,1002
1275,1028
1275,1051
1275,1072
1275,1092
1275,1109
1275,1126
1275,1148
1275,1169
1275,1189
1274,1208
1273,1226
1272,1241
1270,1256
1268,1269
1265,1280
1260,1291
1256,1299
1252,1307
1245,1315
1235,1322
1226,1330
1214,1336
1201,1341
1187,1346
1173,1350
1160,1352
1146,1354
1133,1354
1121,1354
1107,1352
1093,1350
1080,1346
1066,1341
1053,1336
1041,1330
1032,1322
1022,1315
1016,1307
1009,1297
1004,1287
1001,1274
998,1258
996,1239
994,1219
994,1243
" style="stroke:#000000;stroke-width:16;
stroke-linejoin:bevel; stroke-linecap:butt;
stroke-dasharray:20 20;"/>
<!-- Arrowhead on XXXpoint 994 1219 - 990 1149-->
<polygon points="1025 1219
991 1159
962 1223
1025 1219

" style="stroke:#000000;stroke-width:8;stroke-miterlimit:8;
fill:#000000;"/>
<!-- Line -->
<polyline points="1275,1228
1275,1229
1275,1235
1274,1249
1273,1267
1271,1287
1269,1306
1266,1321
1262,1334
1257,1344
1252,1354
1245,1362
1235,1370
1225,1377
1213,1383
1200,1388
1186,1394
1170,1397
1155,1399
1141,1401
1126,1401
1114,1401
1103,1400
1091,1399
1080,1396
1067,1393
1055,1388
1042,1383
1030,1377
1019,1370
1008,1360
999,1351
991,1340
982,1328
976,1315
971,1301
966,1288
962,1272
959,1255
956,1237
953,1217
951,1196
949,1175
948,1153
946,1131
945,1109
945,1087
944,1066
944,1046
944,1026
944,1007
944,988
944,970
944,951
944,931
944,909
944,886
944,861
944,834
944,807
944,781
944,755
944,735
944,770
" style="stroke:#000000;stroke-width:16;
stroke-linejoin:bevel; stroke-linecap:butt;
"/>
<!-- Arrowhead on XXXpoint 944 735 - 944 677-->
<polygon points="976 749
944 686
913 749
976 749

" style="stroke:#000000;stroke-width:8;stroke-miterlimit:8;
fill:#000000;"/>
<!-- Line -->
<polyline points="1527,1417
1527,1419
1525,1422
1523,1428
1520,1436
1514,1444
1508,1453
1501,1460
1491,1466
1481,1471
1468,1476
1455,1478
1437,1480
1417,1480
1401,1480
1383,1479
1364,1478
1344,1477
1322,1476
1298,1474
1274,1471
1249,1469
1223,1466
1196,1464
1170,1462
1144,1459
1119,1457
1095,1455
1070,1453
1048,1451
1028,1450
1009,1449
992,1448
976,1448
956,1448
938,1450
924,1453
912,1457
901,1462
892,1468
885,1476
878,1484
873,1492
870,1500
868,1506
866,1509
866,1511
" style="stroke:#000000;stroke-width:16;
stroke-linejoin:bevel; stroke-linecap:butt;
"/>
<!-- Line -->
<polyline points="204,1417
204,1419
206,1422
208,1428
212,1436
217,1444
223,1453
230,1460
240,1466
250,1471
263,1476
277,1478
295,1480
314,1480
330,1480
348,1479
367,1478
387,1477
409,1476
433,1474
457,1471
482,1469
509,1466
535,1464
561,1462
587,1459
613,1457
637,1455
661,1453
683,1451
703,1450
722,1449
740,1448
755,1448
775,1448
793,1450
807,1453
819,1457
830,1462
839,1468
847,1476
853,1484
858,1492
861,1500
864,1506
866,1509
866,1511
" style="stroke:#000000;stroke-width:16;
stroke-linejoin:bevel; stroke-linecap:butt;
"/>
<!-- Circle -->
<circle cx="2952" cy="709" r="118"
 style="stroke:#000000;stroke-width:16;"/>
<!-- Circle -->
<circle cx="3188" cy="709" r="118"
 style="stroke:#000000;stroke-width:16;"/>
<!-- Circle -->
<circle cx="2952" cy="1182" r="118"
 style="stroke:#000000;stroke-width:16;"/>
<!-- Circle -->
<circle cx="3188" cy="1182" r="118"
 style="stroke:#000000;stroke-width:16;"/>
<!-- Line -->
<polyline points="3070,1228
3070,1229
3070,1235
3069,1249
3068,1267
3066,1287
3064,1306
3061,1321
3058,1334
3053,1344
3047,1354
3040,1362
3030,1370
3020,1377
3008,1383
2995,1388
2981,1394
2965,1397
2951,1399
2936,1401
2921,1401
2910,1401
2898,1400
2887,1399
2875,1396
2862,1393
2850,1388
2837,1383
2826,1377
2814,1370
2804,1360
2794,1351
2786,1340
2777,1328
2771,1315
2766,1301
2762,1288
2758,1272
2754,1255
2751,1237
2748,1217
2746,1196
2744,1175
2743,1153
2742,1131
2741,1109
2741,1087
2740,1066
2740,1046
2740,1026
2740,1007
2740,988
2740,970
2740,951
2740,931
2740,909
2740,886
2740,861
2740,834
2740,807
2740,781
2740,755
2740,735
2740,770
" style="stroke:#000000;stroke-width:16;
stroke-linejoin:bevel; stroke-linecap:butt;
stroke-dasharray:20 20;"/>
<!-- Arrowhead on XXXpoint 2740 735 - 2740 677-->
<polygon points="2771 749
2740 686
2708 749
2771 749

" style="stroke:#000000;stroke-width:8;stroke-miterlimit:8;
fill:#000000;"/>
<!-- Line -->
<polyline points="3070,708
3070,709
3070,712
3070,723
3070,741
3070,765
3070,795
3070,831
3070,868
3070,904
3070,940
3070,973
3070,1002
3070,1028
3070,1051
3070,1072
3070,1092
3070,1109
3070,1126
3070,1148
3070,1169
3070,1189
3069,1208
3068,1226
3067,1241
3065,1256
3063,1269
3060,1280
3056,1291
3051,1299
3047,1307
3040,1315
3030,1322
3021,1330
3009,1336
2996,1341
2982,1346
2969,1350
2955,1352
2941,1354
2929,1354
2916,1354
2902,1352
2889,1350
2875,1346
2861,1341
2848,1336
2836,1330
2827,1322
2817,1315
2811,1307
2805,1297
2800,1287
2796,1274
2793,1258
2791,1239
2789,1219
2789,1243
" style="stroke:#000000;stroke-width:16;
stroke-linejoin:bevel; stroke-linecap:butt;
"/>
<!-- Arrowhead on XXXpoint 2789 1219 - 2785 1149-->
<polygon points="2820 1219
2786 1159
2758 1223
2820 1219

" style="stroke:#000000;stroke-width:8;stroke-miterlimit:8;
fill:#000000;"/>
<!-- Circle -->
<circle cx="2101" cy="709" r="118"
 style="stroke:#000000;stroke-width:16;"/>
<!-- Circle -->
<circle cx="2338" cy="709" r="118"
 style="stroke:#000000;stroke-width:16;"/>
<!-- Circle -->
<circle cx="2101" cy="1182" r="118"
 style="stroke:#000000;stroke-width:16;"/>
<!-- Circle -->
<circle cx="2338" cy="1182" r="118"
 style="stroke:#000000;stroke-width:16;"/>
<!-- Circle -->
<circle cx="2220" cy="519" r="18"
 style="fill:#000000;stroke:#000000;stroke-width:8;"/>
<!-- Circle -->
<circle cx="2220" cy="519" r="47"
 style="stroke:#000000;stroke-width:8;"/>
<!-- Text -->
<text xml:space="preserve" x="3062" y="535" fill="#000000"  font-family="Helvetica" font-style="normal" font-weight="bold" font-size="114" text-anchor="middle">1 (bar 7-8)</text>
<!-- Line -->
<polyline points="3307,1417
3307,1419
3304,1422
3302,1428
3299,1436
3294,1444
3288,1453
3280,1460
3271,1466
3260,1471
3248,1476
3234,1478
3216,1480
3196,1480
3181,1480
3163,1479
3144,1478
3124,1477
3102,1476
3078,1474
3054,1471
3028,1469
3002,1466
2976,1464
2950,1462
2923,1459
2898,1457
2874,1455
2850,1453
2828,1451
2808,1450
2789,1449
2771,1448
2755,1448
2735,1448
2718,1450
2704,1453
2691,1457
2681,1462
2671,1468
2664,1476
2658,1484
2653,1492
2649,1500
2647,1506
2645,1509
2645,1511
" style="stroke:#000000;stroke-width:16;
stroke-linejoin:bevel; stroke-linecap:butt;
"/>
<!-- Line -->
<polyline points="1984,1417
1984,1419
1986,1422
1988,1428
1991,1436
1996,1444
2003,1453
2010,1460
2019,1466
2030,1471
2043,1476
2056,1478
2074,1480
2094,1480
2110,1480
2128,1479
2146,1478
2166,1477
2188,1476
2213,1474
2237,1471
2262,1469
2288,1466
2314,1464
2341,1462
2367,1459
2392,1457
2416,1455
2440,1453
2462,1451
2482,1450
2501,1449
2519,1448
2535,1448
2555,1448
2573,1450
2586,1453
2599,1457
2609,1462
2619,1468
2626,1476
2633,1484
2638,1492
2641,1500
2643,1506
2645,1509
2645,1511
" style="stroke:#000000;stroke-width:16;
stroke-linejoin:bevel; stroke-linecap:butt;
"/>
<!-- Line -->
<polyline points="4110,661
3779,661
" style="stroke:#000000;stroke-width:8;
stroke-linejoin:miter; stroke-linecap:butt;
"/>
<!-- Line -->
<polyline points="4724,661
4393,661
" style="stroke:#000000;stroke-width:8;
stroke-linejoin:miter; stroke-linecap:butt;
"/>
<!-- Text -->
<text xml:space="preserve" x="4251" y="708" fill="#000000"  font-family="Helvetica" font-style="normal" font-weight="bold" font-size="114" text-anchor="middle">1 2</text>
<!-- Text -->
<text xml:space="preserve" x="3968" y="1086" fill="#000000"  font-family="Helvetica" font-style="normal" font-weight="bold" font-size="227" text-anchor="middle">RA</text>
<!-- Text -->
<text xml:space="preserve" x="4535" y="1086" fill="#000000"  font-family="Helvetica" font-style="normal" font-weight="bold" font-size="227" text-anchor="middle">LA</text>
<!-- Line -->
<polyline points="4913,472
4912,473
4909,476
4904,481
4899,490
4894,500
4889,514
4885,531
4880,550
4878,574
4875,602
4874,638
4873,657
4872,679
4871,701
4871,726
4870,752
4870,780
4869,809
4869,839
4868,870
4868,902
4868,935
4868,969
4868,1001
4868,1034
4868,1066
4869,1097
4869,1127
4870,1156
4870,1184
4871,1210
4871,1235
4872,1257
4873,1279
4874,1299
4875,1334
4878,1362
4880,1386
4885,1405
4889,1422
4894,1436
4899,1446
4904,1455
4909,1460
4912,1463
4913,1464
" style="stroke:#000000;stroke-width:16;
stroke-linejoin:bevel; stroke-linecap:round;
"/>
<!-- Line -->
<polyline points="5905,472
5906,473
5909,476
5913,481
5919,490
5924,500
5929,514
5933,531
5938,550
5940,574
5943,602
5945,638
5945,657
5946,679
5947,701
5947,726
5948,752
5948,780
5949,809
5949,839
5950,870
5950,902
5950,935
5950,969
5950,1001
5950,1034
5950,1066
5949,1097
5949,1127
5948,1156
5948,1184
5947,1210
5947,1235
5946,1257
5945,1279
5945,1299
5943,1334
5940,1362
5938,1386
5933,1405
5929,1422
5924,1436
5919,1446
5913,1455
5909,1460
5906,1463
5905,1464
" style="stroke:#000000;stroke-width:16;
stroke-linejoin:bevel; stroke-linecap:round;
"/>
<!-- Text -->
<text xml:space="preserve" x="5007" y="1039" fill="#000000"  font-family="Helvetica" font-style="normal" font-weight="normal" font-size="126" text-anchor="middle">to</text>
<!-- Circle -->
<circle cx="5102" cy="1322" r="94"
 style="stroke:#000000;stroke-width:16;"/>
<!-- Text -->
<text xml:space="preserve" x="5102" y="1370" fill="#000000"  font-family="Helvetica" font-style="normal" font-weight="bold" font-size="114" text-anchor="middle">1</text>
<!-- Line: box -->
<rect x="5244" y="992" width="188" height="188" rx="0" 
style="stroke:#000000;stroke-width:16;
stroke-linejoin:miter; stroke-linecap:butt;
"/>
<!-- Text -->
<text xml:space="preserve" x="5338" y="1133" fill="#000000"  font-family="Helvetica" font-style="normal" font-weight="bold" font-size="114" text-anchor="middle">1</text>
<!-- Circle -->
<circle cx="5527" cy="897" r="94"
 style="stroke:#000000;stroke-width:16;"/>
<!-- Text -->
<text xml:space="preserve" x="5527" y="944" fill="#000000"  font-family="Helvetica" font-style="normal" font-weight="bold" font-size="114" text-anchor="middle">2</text>
<!-- Line: box -->
<rect x="5669" y="566" width="188" height="188" rx="0" 
style="stroke:#000000;stroke-width:16;
stroke-linejoin:miter; stroke-linecap:butt;
"/>
<!-- Text -->
<text xml:space="preserve" x="5763" y="708" fill="#000000"  font-family="Helvetica" font-style="normal" font-weight="bold" font-size="114" text-anchor="middle">2</text>
<!-- Line -->
<polyline points="5338,1181
5291,1275
5196,1322
" style="stroke:#000000;stroke-width:16;
stroke-linejoin:miter; stroke-linecap:round;
"/>
<!-- Line -->
<polyline points="5102,1228
5149,1133
5244,1086
" style="stroke:#000000;stroke-width:16;
stroke-linejoin:miter; stroke-linecap:round;
"/>
<!-- Line -->
<polyline points="5527,803
5574,708
5669,661
" style="stroke:#000000;stroke-width:16;
stroke-linejoin:miter; stroke-linecap:round;
"/>
<!-- Line -->
<polyline points="5763,755
5716,850
5622,897
" style="stroke:#000000;stroke-width:16;
stroke-linejoin:miter; stroke-linecap:round;
"/>
<!-- Line -->
<polyline points="0,377
6094,377
" style="stroke:#000000;stroke-width:16;
stroke-linejoin:miter; stroke-linecap:butt;
"/>
<!-- Line -->
<polyline points="0,1559
6094,1559
" style="stroke:#000000;stroke-width:16;
stroke-linejoin:miter; stroke-linecap:butt;
"/>
<!-- Line: box -->
<rect x="0" y="0" width="6094" height="2787" rx="0" 
style="stroke:#000000;stroke-width:16;
stroke-linejoin:miter; stroke-linecap:butt;
"/>
<!-- Line -->
<polyline points="4818,1559
4818,2787
" style="stroke:#000000;stroke-width:16;
stroke-linejoin:miter; stroke-linecap:butt;
"/>
<!-- Line -->
<polyline points="1748,377
1748,1511
" style="stroke:#000000;stroke-width:16;
stroke-linejoin:miter; stroke-linecap:butt;
"/>
<!-- Line -->
<polyline points="3543,377
3543,1559
" style="stroke:#000000;stroke-width:16;
stroke-linejoin:miter; stroke-linecap:butt;
"/>
<!-- Text -->
<text xml:space="preserve" x="94" y="283" fill="#000000"  font-family="Helvetica" font-style="normal" font-weight="normal" font-size="227" text-anchor="start">Prince of Sutton Coldfield</text>
<!-- Text -->
<text xml:space="preserve" x="6047" y="283" fill="#000000"  font-family="Helvetica" font-style="normal" font-weight="normal" font-size="227" text-anchor="end">R8x32</text>
<!-- Circle -->
<circle cx="236" cy="2456" r="94"
 style="stroke:#000000;stroke-width:16;"/>
</g>
</svg>
